<?xml version="1.0" encoding="UTF-8" standalone="no"?>
<!DOCTYPE svg PUBLIC "-//W3C//DTD SVG 1.1//EN"
 "http://www.w3.org/Graphics/SVG/1.1/DTD/svg11.dtd">
<!-- Generated by graphviz version 12.2.1 (0)
 -->
<!-- Title: src/ui/dialogs/animated_dialog.cpp Pages: 1 -->
<!--zoomable 211 -->

<svg id="main" version="1.1" xmlns="http://www.w3.org/2000/svg" xmlns:xlink="http://www.w3.org/1999/xlink" xml:space="preserve" onload="init(evt)">

<style type="text/css"><![CDATA[
.node, .edge {opacity: 0.7;}
.node.selected, .edge.selected {opacity: 1;}
.edge:hover path { stroke: red; }
.edge:hover polygon { stroke: red; fill: red; }
]]></style>

<defs>
  <circle id="rim" cx="0" cy="0" r="7"/>
  <circle id="rim2" cx="0" cy="0" r="3.5"/>
  <g id="zoomPlus">
    <use xlink:href="#rim" fill="#404040"><set attributeName="fill" to="#808080" begin="zoomplus.mouseover" end="zoomplus.mouseout"/></use>
    <path d="M-4,0h8M0,-4v8" fill="none" stroke="white" stroke-width="1.5" pointer-events="none"/>
  </g>
  <g id="zoomMin">
    <use xlink:href="#rim" fill="#404040"><set attributeName="fill" to="#808080" begin="zoomminus.mouseover" end="zoomminus.mouseout"/></use>
    <path d="M-4,0h8" fill="none" stroke="white" stroke-width="1.5" pointer-events="none"/>
  </g>
  <g id="arrowUp" transform="translate(30 24)">
    <use xlink:href="#rim"/>
    <path pointer-events="none" fill="none" stroke="white" stroke-width="1.5" d="M0,-3.0v7 M-2.5,-0.5L0,-3.0L2.5,-0.5"/>
  </g>
  <g id="arrowRight" transform="rotate(90) translate(36 -43)">
    <use xlink:href="#rim"/>
    <path pointer-events="none" fill="none" stroke="white" stroke-width="1.5" d="M0,-3.0v7 M-2.5,-0.5L0,-3.0L2.5,-0.5"/>
  </g>
  <g id="arrowDown" transform="rotate(180) translate(-30 -48)">
    <use xlink:href="#rim"/>
    <path pointer-events="none" fill="none" stroke="white" stroke-width="1.5" d="M0,-3.0v7 M-2.5,-0.5L0,-3.0L2.5,-0.5"/>
  </g>
  <g id="arrowLeft" transform="rotate(270) translate(-36 17)">
    <use xlink:href="#rim"/>
    <path pointer-events="none" fill="none" stroke="white" stroke-width="1.5" d="M0,-3.0v7 M-2.5,-0.5L0,-3.0L2.5,-0.5"/>
  </g>
  <g id="resetDef">
    <use xlink:href="#rim2" fill="#404040"><set attributeName="fill" to="#808080" begin="reset.mouseover" end="reset.mouseout"/></use>
  </g>
</defs>
<script type="application/ecmascript">
var viewWidth = 1050;
var viewHeight = 211;
var sectionId = 'dynsection-0';
</script>
<script type="application/ecmascript" xlink:href="svg.min.js"/>
<svg id="graph" class="graph">
<g id="viewport">
<title>src/ui/dialogs/animated_dialog.cpp</title>
<!-- Node1 -->
<g id="Node000001" class="node">
<title>Node1</title>
<g id="a_Node000001"><a xlink:title=" ">
<polygon fill="#999999" stroke="#666666" points="520.9,-203 404.4,-203 404.4,-174 520.9,-174 520.9,-203"/>
<text text-anchor="start" x="412.4" y="-189.5" font-family="Helvetica,sans-Serif" font-size="10.00">src/ui/dialogs/animated</text>
<text text-anchor="middle" x="462.65" y="-179" font-family="Helvetica,sans-Serif" font-size="10.00">_dialog.cpp</text>
</a>
</g>
</g>
<!-- Node2 -->
<g id="Node000002" class="node">
<title>Node2</title>
<g id="a_Node000002"><a xlink:href="animated__dialog_8h.html" target="_top" xlink:title=" ">
<polygon fill="white" stroke="#666666" points="107.02,-73 12.27,-73 12.27,-54.5 107.02,-54.5 107.02,-73"/>
<text text-anchor="middle" x="59.65" y="-59.5" font-family="Helvetica,sans-Serif" font-size="10.00">animated_dialog.h</text>
</a>
</g>
</g>
<!-- Node1&#45;&gt;Node2 -->
<g id="edge1_Node000001_Node000002" class="edge">
<title>Node1&#45;&gt;Node2</title>
<g id="a_edge1_Node000001_Node000002"><a xlink:title=" ">
<path fill="none" stroke="#63b8ff" d="M404.31,-185.45C287.07,-180.73 31.83,-167.18 5.65,-138 -11.37,-119.04 14.49,-94.89 35.96,-79.62"/>
<polygon fill="#63b8ff" stroke="#63b8ff" points="37.76,-82.63 44.09,-74.13 33.84,-76.83 37.76,-82.63"/>
</a>
</g>
</g>
<!-- Node4 -->
<g id="Node000004" class="node">
<title>Node4</title>
<g id="a_Node000004"><a xlink:title=" ">
<polygon fill="#e0e0e0" stroke="#999999" points="365.4,-132.75 293.9,-132.75 293.9,-114.25 365.4,-114.25 365.4,-132.75"/>
<text text-anchor="middle" x="329.65" y="-119.25" font-family="Helvetica,sans-Serif" font-size="10.00">QApplication</text>
</a>
</g>
</g>
<!-- Node1&#45;&gt;Node4 -->
<g id="edge3_Node000001_Node000004" class="edge">
<title>Node1&#45;&gt;Node4</title>
<g id="a_edge3_Node000001_Node000004"><a xlink:title=" ">
<path fill="none" stroke="#63b8ff" d="M433.13,-173.52C410.87,-162.97 380.51,-148.59 358.43,-138.13"/>
<polygon fill="#63b8ff" stroke="#63b8ff" points="359.93,-134.97 349.39,-133.85 356.93,-141.3 359.93,-134.97"/>
</a>
</g>
</g>
<!-- Node5 -->
<g id="Node000005" class="node">
<title>Node5</title>
<g id="a_Node000005"><a xlink:title=" ">
<polygon fill="#e0e0e0" stroke="#999999" points="435.65,-132.75 383.65,-132.75 383.65,-114.25 435.65,-114.25 435.65,-132.75"/>
<text text-anchor="middle" x="409.65" y="-119.25" font-family="Helvetica,sans-Serif" font-size="10.00">qevent.h</text>
</a>
</g>
</g>
<!-- Node1&#45;&gt;Node5 -->
<g id="edge4_Node000001_Node000005" class="edge">
<title>Node1&#45;&gt;Node5</title>
<g id="a_edge4_Node000001_Node000005"><a xlink:title=" ">
<path fill="none" stroke="#63b8ff" d="M450.88,-173.52C443.03,-164.18 432.63,-151.82 424.25,-141.86"/>
<polygon fill="#63b8ff" stroke="#63b8ff" points="427.06,-139.76 417.95,-134.36 421.71,-144.27 427.06,-139.76"/>
</a>
</g>
</g>
<!-- Node6 -->
<g id="Node000006" class="node">
<title>Node6</title>
<g id="a_Node000006"><a xlink:title=" ">
<polygon fill="#e0e0e0" stroke="#999999" points="579.4,-132.75 453.9,-132.75 453.9,-114.25 579.4,-114.25 579.4,-132.75"/>
<text text-anchor="middle" x="516.65" y="-119.25" font-family="Helvetica,sans-Serif" font-size="10.00">QParallelAnimationGroup</text>
</a>
</g>
</g>
<!-- Node1&#45;&gt;Node6 -->
<g id="edge5_Node000001_Node000006" class="edge">
<title>Node1&#45;&gt;Node6</title>
<g id="a_edge5_Node000001_Node000006"><a xlink:title=" ">
<path fill="none" stroke="#63b8ff" d="M474.63,-173.52C482.64,-164.18 493.23,-151.82 501.77,-141.86"/>
<polygon fill="#63b8ff" stroke="#63b8ff" points="504.35,-144.23 508.2,-134.36 499.03,-139.67 504.35,-144.23"/>
</a>
</g>
</g>
<!-- Node7 -->
<g id="Node000007" class="node">
<title>Node7</title>
<g id="a_Node000007"><a xlink:title=" ">
<polygon fill="#e0e0e0" stroke="#999999" points="701.9,-132.75 597.4,-132.75 597.4,-114.25 701.9,-114.25 701.9,-132.75"/>
<text text-anchor="middle" x="649.65" y="-119.25" font-family="Helvetica,sans-Serif" font-size="10.00">QPropertyAnimation</text>
</a>
</g>
</g>
<!-- Node1&#45;&gt;Node7 -->
<g id="edge6_Node000001_Node000007" class="edge">
<title>Node1&#45;&gt;Node7</title>
<g id="a_edge6_Node000001_Node000007"><a xlink:title=" ">
<path fill="none" stroke="#63b8ff" d="M504.15,-173.52C536.73,-162.54 581.67,-147.4 612.95,-136.86"/>
<polygon fill="#63b8ff" stroke="#63b8ff" points="614.01,-140.2 622.37,-133.69 611.78,-133.57 614.01,-140.2"/>
</a>
</g>
</g>
<!-- Node8 -->
<g id="Node000008" class="node">
<title>Node8</title>
<g id="a_Node000008"><a xlink:title=" ">
<polygon fill="#e0e0e0" stroke="#999999" points="773.77,-132.75 719.52,-132.75 719.52,-114.25 773.77,-114.25 773.77,-132.75"/>
<text text-anchor="middle" x="746.65" y="-119.25" font-family="Helvetica,sans-Serif" font-size="10.00">QScreen</text>
</a>
</g>
</g>
<!-- Node1&#45;&gt;Node8 -->
<g id="edge7_Node000001_Node000008" class="edge">
<title>Node1&#45;&gt;Node8</title>
<g id="a_edge7_Node000001_Node000008"><a xlink:title=" ">
<path fill="none" stroke="#63b8ff" d="M521.16,-178.57C571.82,-170.19 646.79,-156.22 710.65,-138 711.83,-137.66 713.04,-137.3 714.25,-136.92"/>
<polygon fill="#63b8ff" stroke="#63b8ff" points="715.37,-140.24 723.7,-133.7 713.11,-133.62 715.37,-140.24"/>
</a>
</g>
</g>
<!-- Node9 -->
<g id="Node000009" class="node">
<title>Node9</title>
<g id="a_Node000009"><a xlink:title=" ">
<polygon fill="#e0e0e0" stroke="#999999" points="931.15,-132.75 792.15,-132.75 792.15,-114.25 931.15,-114.25 931.15,-132.75"/>
<text text-anchor="middle" x="861.65" y="-119.25" font-family="Helvetica,sans-Serif" font-size="10.00">QSequentialAnimationGroup</text>
</a>
</g>
</g>
<!-- Node1&#45;&gt;Node9 -->
<g id="edge8_Node000001_Node000009" class="edge">
<title>Node1&#45;&gt;Node9</title>
<g id="a_edge8_Node000001_Node000009"><a xlink:title=" ">
<path fill="none" stroke="#63b8ff" d="M521.38,-178.7C585.59,-169.01 691.51,-152.83 782.65,-138 788.34,-137.07 794.26,-136.09 800.18,-135.1"/>
<polygon fill="#63b8ff" stroke="#63b8ff" points="800.75,-138.56 810.02,-133.44 799.58,-131.65 800.75,-138.56"/>
</a>
</g>
</g>
<!-- Node10 -->
<g id="Node000010" class="node">
<title>Node10</title>
<g id="a_Node000010"><a xlink:href="create__wavelength__dialog_8h.html" target="_top" xlink:title=" ">
<polygon fill="white" stroke="#666666" points="276.27,-132.75 141.02,-132.75 141.02,-114.25 276.27,-114.25 276.27,-132.75"/>
<text text-anchor="middle" x="208.65" y="-119.25" font-family="Helvetica,sans-Serif" font-size="10.00">create_wavelength_dialog.h</text>
</a>
</g>
</g>
<!-- Node1&#45;&gt;Node10 -->
<g id="edge9_Node000001_Node000010" class="edge">
<title>Node1&#45;&gt;Node10</title>
<g id="a_edge9_Node000001_Node000010"><a xlink:title=" ">
<path fill="none" stroke="#63b8ff" d="M406.28,-173.52C360.76,-162.23 297.49,-146.54 254.91,-135.97"/>
<polygon fill="#63b8ff" stroke="#63b8ff" points="255.77,-132.58 245.22,-133.57 254.08,-139.38 255.77,-132.58"/>
</a>
</g>
</g>
<!-- Node13 -->
<g id="Node000013" class="node">
<title>Node13</title>
<g id="a_Node000013"><a xlink:href="join__wavelength__dialog_8h.html" target="_top" xlink:title=" ">
<polygon fill="white" stroke="#666666" points="122.77,-138 14.52,-138 14.52,-109 122.77,-109 122.77,-138"/>
<text text-anchor="start" x="22.52" y="-124.5" font-family="Helvetica,sans-Serif" font-size="10.00">../../ui/dialogs/join</text>
<text text-anchor="middle" x="68.65" y="-114" font-family="Helvetica,sans-Serif" font-size="10.00">_wavelength_dialog.h</text>
</a>
</g>
</g>
<!-- Node1&#45;&gt;Node13 -->
<g id="edge13_Node000001_Node000013" class="edge">
<title>Node1&#45;&gt;Node13</title>
<g id="a_edge13_Node000001_Node000013"><a xlink:title=" ">
<path fill="none" stroke="#63b8ff" d="M404.17,-179.88C340.28,-171.31 234.67,-156.4 134.48,-138.45"/>
<polygon fill="#63b8ff" stroke="#63b8ff" points="135.19,-135.02 124.73,-136.69 133.95,-141.91 135.19,-135.02"/>
</a>
</g>
</g>
<!-- Node14 -->
<g id="Node000014" class="node">
<title>Node14</title>
<g id="a_Node000014"><a xlink:href="overlay__widget_8h.html" target="_top" xlink:title=" ">
<polygon fill="white" stroke="#666666" points="1041.9,-138 949.4,-138 949.4,-109 1041.9,-109 1041.9,-138"/>
<text text-anchor="start" x="957.4" y="-124.5" font-family="Helvetica,sans-Serif" font-size="10.00">../widgets/overlay</text>
<text text-anchor="middle" x="995.65" y="-114" font-family="Helvetica,sans-Serif" font-size="10.00">_widget.h</text>
</a>
</g>
</g>
<!-- Node1&#45;&gt;Node14 -->
<g id="edge16_Node000001_Node000014" class="edge">
<title>Node1&#45;&gt;Node14</title>
<g id="a_edge16_Node000001_Node000014"><a xlink:title=" ">
<path fill="none" stroke="#63b8ff" d="M521.13,-184.04C609.46,-178.25 782.29,-164.71 937.77,-138.35"/>
<polygon fill="#63b8ff" stroke="#63b8ff" points="938.18,-141.83 947.44,-136.69 936.99,-134.93 938.18,-141.83"/>
</a>
</g>
</g>
<!-- Node3 -->
<g id="Node000003" class="node">
<title>Node3</title>
<g id="a_Node000003"><a xlink:title=" ">
<polygon fill="#e0e0e0" stroke="#999999" points="85.27,-18.5 34.02,-18.5 34.02,0 85.27,0 85.27,-18.5"/>
<text text-anchor="middle" x="59.65" y="-5" font-family="Helvetica,sans-Serif" font-size="10.00">QDialog</text>
</a>
</g>
</g>
<!-- Node2&#45;&gt;Node3 -->
<g id="edge2_Node000002_Node000003" class="edge">
<title>Node2&#45;&gt;Node3</title>
<g id="a_edge2_Node000002_Node000003"><a xlink:title=" ">
<path fill="none" stroke="#63b8ff" d="M59.65,-54.08C59.65,-47.58 59.65,-38.42 59.65,-30.16"/>
<polygon fill="#63b8ff" stroke="#63b8ff" points="63.15,-30.27 59.65,-20.27 56.15,-30.27 63.15,-30.27"/>
</a>
</g>
</g>
<!-- Node10&#45;&gt;Node2 -->
<g id="edge12_Node000010_Node000002" class="edge">
<title>Node10&#45;&gt;Node2</title>
<g id="a_edge12_Node000010_Node000002"><a xlink:title=" ">
<path fill="none" stroke="#63b8ff" d="M186.34,-113.85C161.54,-104.24 121.24,-88.62 92.76,-77.58"/>
<polygon fill="#63b8ff" stroke="#63b8ff" points="94.11,-74.35 83.52,-74 91.58,-80.88 94.11,-74.35"/>
</a>
</g>
</g>
<!-- Node11 -->
<g id="Node000011" class="node">
<title>Node11</title>
<g id="a_Node000011"><a xlink:title=" ">
<polygon fill="#e0e0e0" stroke="#999999" points="243.27,-73 192.02,-73 192.02,-54.5 243.27,-54.5 243.27,-73"/>
<text text-anchor="middle" x="217.65" y="-59.5" font-family="Helvetica,sans-Serif" font-size="10.00">QFuture</text>
</a>
</g>
</g>
<!-- Node10&#45;&gt;Node11 -->
<g id="edge10_Node000010_Node000011" class="edge">
<title>Node10&#45;&gt;Node11</title>
<g id="a_edge10_Node000010_Node000011"><a xlink:title=" ">
<path fill="none" stroke="#63b8ff" d="M209.98,-113.98C211.18,-106.22 213.02,-94.46 214.59,-84.38"/>
<polygon fill="#63b8ff" stroke="#63b8ff" points="218,-85.22 216.08,-74.8 211.08,-84.14 218,-85.22"/>
</a>
</g>
</g>
<!-- Node12 -->
<g id="Node000012" class="node">
<title>Node12</title>
<g id="a_Node000012"><a xlink:title=" ">
<polygon fill="#e0e0e0" stroke="#999999" points="173.77,-73 125.52,-73 125.52,-54.5 173.77,-54.5 173.77,-73"/>
<text text-anchor="middle" x="149.65" y="-59.5" font-family="Helvetica,sans-Serif" font-size="10.00">QTimer</text>
</a>
</g>
</g>
<!-- Node10&#45;&gt;Node12 -->
<g id="edge11_Node000010_Node000012" class="edge">
<title>Node10&#45;&gt;Node12</title>
<g id="a_edge11_Node000010_Node000012"><a xlink:title=" ">
<path fill="none" stroke="#63b8ff" d="M199.94,-113.98C191.14,-105.36 177.31,-91.83 166.38,-81.13"/>
<polygon fill="#63b8ff" stroke="#63b8ff" points="169.06,-78.86 159.47,-74.36 164.17,-83.86 169.06,-78.86"/>
</a>
</g>
</g>
<!-- Node13&#45;&gt;Node2 -->
<g id="edge15_Node000013_Node000002" class="edge">
<title>Node13&#45;&gt;Node2</title>
<g id="a_edge15_Node000013_Node000002"><a xlink:title=" ">
<path fill="none" stroke="#63b8ff" d="M66.47,-108.52C65.35,-101.33 63.96,-92.46 62.74,-84.58"/>
<polygon fill="#63b8ff" stroke="#63b8ff" points="66.23,-84.24 61.23,-74.9 59.31,-85.32 66.23,-84.24"/>
</a>
</g>
</g>
<!-- Node13&#45;&gt;Node12 -->
<g id="edge14_Node000013_Node000012" class="edge">
<title>Node13&#45;&gt;Node12</title>
<g id="a_edge14_Node000013_Node000012"><a xlink:title=" ">
<path fill="none" stroke="#63b8ff" d="M88.26,-108.52C100.37,-99.88 115.93,-88.79 128.35,-79.94"/>
<polygon fill="#63b8ff" stroke="#63b8ff" points="130.17,-82.94 136.28,-74.28 126.1,-77.24 130.17,-82.94"/>
</a>
</g>
</g>
<!-- Node15 -->
<g id="Node000015" class="node">
<title>Node15</title>
<g id="a_Node000015"><a xlink:title=" ">
<polygon fill="#e0e0e0" stroke="#999999" points="1022.77,-73 968.52,-73 968.52,-54.5 1022.77,-54.5 1022.77,-73"/>
<text text-anchor="middle" x="995.65" y="-59.5" font-family="Helvetica,sans-Serif" font-size="10.00">QWidget</text>
</a>
</g>
</g>
<!-- Node14&#45;&gt;Node15 -->
<g id="edge17_Node000014_Node000015" class="edge">
<title>Node14&#45;&gt;Node15</title>
<g id="a_edge17_Node000014_Node000015"><a xlink:title=" ">
<path fill="none" stroke="#63b8ff" d="M995.65,-108.52C995.65,-101.42 995.65,-92.67 995.65,-84.86"/>
<polygon fill="#63b8ff" stroke="#63b8ff" points="999.15,-84.92 995.65,-74.92 992.15,-84.92 999.15,-84.92"/>
</a>
</g>
</g>
</g>
</svg>

<g id="navigator" transform="translate(0 0)" fill="#404254">
  <rect fill="#f2f5e9" fill-opacity="0.5" stroke="#606060" stroke-width=".5" x="0" y="0" width="60" height="60"/>
  <use id="zoomplus" xlink:href="#zoomPlus" x="17" y="9" onmousedown="handleZoom(evt,'in')"/>
  <use id="zoomminus" xlink:href="#zoomMin" x="42" y="9" onmousedown="handleZoom(evt,'out')"/>
  <use id="reset" xlink:href="#resetDef" x="30" y="36" onmousedown="handleReset()"/>
   <use id="arrowup" xlink:href="#arrowUp" x="0" y="0" onmousedown="handlePan(0,-1)"/>
  <use id="arrowright" xlink:href="#arrowRight" x="0" y="0" onmousedown="handlePan(1,0)"/>
  <use id="arrowdown" xlink:href="#arrowDown" x="0" y="0" onmousedown="handlePan(0,1)"/>
  <use id="arrowleft" xlink:href="#arrowLeft" x="0" y="0" onmousedown="handlePan(-1,0)"/>
</g>
<svg viewBox="0 0 15 15" width="100%" height="30px" preserveAspectRatio="xMaxYMin meet">
 <g id="arrow_out" transform="scale(0.3 0.3)">
  <a xlink:href="animated__dialog_8cpp__incl_org.svg" target="_base">
   <rect id="button" ry="5" rx="5" y="6" x="6" height="38" width="38"
        fill="#f2f5e9" fill-opacity="0.5" stroke="#606060" stroke-width="1.0"/>
   <path id="arrow"
     d="M 11.500037,31.436501 C 11.940474,20.09759 22.043105,11.32322 32.158766,21.979434 L 37.068811,17.246167 C 37.068811,17.246167 37.088388,32 37.088388,32 L 22.160133,31.978069 C 22.160133,31.978069 26.997745,27.140456 26.997745,27.140456 C 18.528582,18.264221 13.291696,25.230495 11.500037,31.436501 z"
     style="fill:#404040;"/>
  </a>
 </g>
</svg>

<style type='text/css'>
<![CDATA[
[data-mouse-over-selected='false'] { opacity: 0.7; }
[data-mouse-over-selected='true']  { opacity: 1.0; }
]]>
</style>
<script type="application/ecmascript"><![CDATA[
document.addEventListener('DOMContentLoaded', (event) => {
  highlightEdges();
  highlightAdjacentNodes();
});
]]></script>
</svg>
