<?xml version="1.0" encoding="UTF-8" standalone="no"?>
<!DOCTYPE svg PUBLIC "-//W3C//DTD SVG 1.1//EN"
 "http://www.w3.org/Graphics/SVG/1.1/DTD/svg11.dtd">
<!-- Generated by graphviz version 12.2.1 (0)
 -->
<!-- Title: src/app/managers/app_instance_manager.cpp Pages: 1 -->
<svg width="1721pt" height="276pt"
 viewBox="0.00 0.00 1720.50 276.00" xmlns="http://www.w3.org/2000/svg" xmlns:xlink="http://www.w3.org/1999/xlink">
<g id="graph0" class="graph" transform="scale(1 1) rotate(0) translate(4 272)">
<title>src/app/managers/app_instance_manager.cpp</title>
<!-- Node1 -->
<g id="Node000001" class="node">
<title>Node1</title>
<g id="a_Node000001"><a xlink:title=" ">
<polygon fill="#999999" stroke="#666666" points="927.12,-268 807.62,-268 807.62,-239 927.12,-239 927.12,-268"/>
<text text-anchor="start" x="815.62" y="-254.5" font-family="Helvetica,sans-Serif" font-size="10.00">src/app/managers/app</text>
<text text-anchor="middle" x="867.38" y="-244" font-family="Helvetica,sans-Serif" font-size="10.00">_instance_manager.cpp</text>
</a>
</g>
</g>
<!-- Node2 -->
<g id="Node000002" class="node">
<title>Node2</title>
<g id="a_Node000002"><a xlink:href="app__instance__manager_8h.html" target="_top" xlink:title=" ">
<polygon fill="white" stroke="#666666" points="527.75,-132.75 403,-132.75 403,-114.25 527.75,-114.25 527.75,-132.75"/>
<text text-anchor="middle" x="465.38" y="-119.25" font-family="Helvetica,sans-Serif" font-size="10.00">app_instance_manager.h</text>
</a>
</g>
</g>
<!-- Node1&#45;&gt;Node2 -->
<g id="edge1_Node000001_Node000002" class="edge">
<title>Node1&#45;&gt;Node2</title>
<g id="a_edge1_Node000001_Node000002"><a xlink:title=" ">
<path fill="none" stroke="#63b8ff" d="M807.56,-242.61C761.94,-234.28 697.88,-220.85 643.38,-203 588.06,-184.89 526.54,-155.58 492.25,-138.37"/>
<polygon fill="#63b8ff" stroke="#63b8ff" points="493.97,-135.31 483.47,-133.91 490.8,-141.56 493.97,-135.31"/>
</a>
</g>
</g>
<!-- Node13 -->
<g id="Node000013" class="node">
<title>Node13</title>
<g id="a_Node000013"><a xlink:title=" ">
<polygon fill="#e0e0e0" stroke="#999999" points="746.75,-197.75 652,-197.75 652,-179.25 746.75,-179.25 746.75,-197.75"/>
<text text-anchor="middle" x="699.38" y="-184.25" font-family="Helvetica,sans-Serif" font-size="10.00">qcoreapplication.h</text>
</a>
</g>
</g>
<!-- Node1&#45;&gt;Node13 -->
<g id="edge12_Node000001_Node000013" class="edge">
<title>Node1&#45;&gt;Node13</title>
<g id="a_edge12_Node000001_Node000013"><a xlink:title=" ">
<path fill="none" stroke="#63b8ff" d="M830.09,-238.52C801.07,-227.64 761.16,-212.67 733.09,-202.14"/>
<polygon fill="#63b8ff" stroke="#63b8ff" points="734.6,-198.97 724.01,-198.74 732.14,-205.53 734.6,-198.97"/>
</a>
</g>
</g>
<!-- Node14 -->
<g id="Node000014" class="node">
<title>Node14</title>
<g id="a_Node000014"><a xlink:title=" ">
<polygon fill="#e0e0e0" stroke="#999999" points="844.25,-197.75 764.5,-197.75 764.5,-179.25 844.25,-179.25 844.25,-197.75"/>
<text text-anchor="middle" x="804.38" y="-184.25" font-family="Helvetica,sans-Serif" font-size="10.00">QMainWindow</text>
</a>
</g>
</g>
<!-- Node1&#45;&gt;Node14 -->
<g id="edge13_Node000001_Node000014" class="edge">
<title>Node1&#45;&gt;Node14</title>
<g id="a_edge13_Node000001_Node000014"><a xlink:title=" ">
<path fill="none" stroke="#63b8ff" d="M853.39,-238.52C843.86,-228.99 831.19,-216.31 821.12,-206.24"/>
<polygon fill="#63b8ff" stroke="#63b8ff" points="823.7,-203.87 814.15,-199.28 818.75,-208.82 823.7,-203.87"/>
</a>
</g>
</g>
<!-- Node15 -->
<g id="Node000015" class="node">
<title>Node15</title>
<g id="a_Node000015"><a xlink:title=" ">
<polygon fill="#e0e0e0" stroke="#999999" points="1000.88,-197.75 861.88,-197.75 861.88,-179.25 1000.88,-179.25 1000.88,-197.75"/>
<text text-anchor="middle" x="931.38" y="-184.25" font-family="Helvetica,sans-Serif" font-size="10.00">QSequentialAnimationGroup</text>
</a>
</g>
</g>
<!-- Node1&#45;&gt;Node15 -->
<g id="edge14_Node000001_Node000015" class="edge">
<title>Node1&#45;&gt;Node15</title>
<g id="a_edge14_Node000001_Node000015"><a xlink:title=" ">
<path fill="none" stroke="#63b8ff" d="M881.58,-238.52C891.26,-228.99 904.14,-216.31 914.37,-206.24"/>
<polygon fill="#63b8ff" stroke="#63b8ff" points="916.78,-208.78 921.45,-199.27 911.87,-203.79 916.78,-208.78"/>
</a>
</g>
</g>
<!-- Node16 -->
<g id="Node000016" class="node">
<title>Node16</title>
<g id="a_Node000016"><a xlink:title=" ">
<polygon fill="#e0e0e0" stroke="#999999" points="1062.25,-197.75 1018.5,-197.75 1018.5,-179.25 1062.25,-179.25 1062.25,-197.75"/>
<text text-anchor="middle" x="1040.38" y="-184.25" font-family="Helvetica,sans-Serif" font-size="10.00">QUuid</text>
</a>
</g>
</g>
<!-- Node1&#45;&gt;Node16 -->
<g id="edge15_Node000001_Node000016" class="edge">
<title>Node1&#45;&gt;Node16</title>
<g id="a_edge15_Node000001_Node000016"><a xlink:title=" ">
<path fill="none" stroke="#63b8ff" d="M910.92,-238.55C939.45,-229.14 977.41,-216.09 1010.38,-203 1010.72,-202.86 1011.07,-202.72 1011.43,-202.58"/>
<polygon fill="#63b8ff" stroke="#63b8ff" points="1012.53,-205.91 1020.37,-198.78 1009.8,-199.47 1012.53,-205.91"/>
</a>
</g>
</g>
<!-- Node17 -->
<g id="Node000017" class="node">
<title>Node17</title>
<g id="a_Node000017"><a xlink:href="blob__animation_8h.html" target="_top" xlink:title=" ">
<polygon fill="white" stroke="#666666" points="1211.75,-203 1117,-203 1117,-174 1211.75,-174 1211.75,-203"/>
<text text-anchor="start" x="1125" y="-189.5" font-family="Helvetica,sans-Serif" font-size="10.00">../../blob/core/blob</text>
<text text-anchor="middle" x="1164.38" y="-179" font-family="Helvetica,sans-Serif" font-size="10.00">_animation.h</text>
</a>
</g>
</g>
<!-- Node1&#45;&gt;Node17 -->
<g id="edge16_Node000001_Node000017" class="edge">
<title>Node1&#45;&gt;Node17</title>
<g id="a_edge16_Node000001_Node000017"><a xlink:title=" ">
<path fill="none" stroke="#63b8ff" d="M927.48,-239.75C979.43,-228.73 1054.08,-212.9 1105.63,-201.96"/>
<polygon fill="#63b8ff" stroke="#63b8ff" points="1106.05,-205.45 1115.11,-199.95 1104.6,-198.6 1106.05,-205.45"/>
</a>
</g>
</g>
<!-- Node3 -->
<g id="Node000003" class="node">
<title>Node3</title>
<g id="a_Node000003"><a xlink:title=" ">
<polygon fill="#e0e0e0" stroke="#999999" points="763.38,-73 711.38,-73 711.38,-54.5 763.38,-54.5 763.38,-73"/>
<text text-anchor="middle" x="737.38" y="-59.5" font-family="Helvetica,sans-Serif" font-size="10.00">QObject</text>
</a>
</g>
</g>
<!-- Node2&#45;&gt;Node3 -->
<g id="edge2_Node000002_Node000003" class="edge">
<title>Node2&#45;&gt;Node3</title>
<g id="a_edge2_Node000002_Node000003"><a xlink:title=" ">
<path fill="none" stroke="#63b8ff" d="M508.69,-113.8C553.94,-104.63 627.27,-89.56 699.85,-73.52"/>
<polygon fill="#63b8ff" stroke="#63b8ff" points="700.54,-76.95 709.54,-71.37 699.02,-70.12 700.54,-76.95"/>
</a>
</g>
</g>
<!-- Node4 -->
<g id="Node000004" class="node">
<title>Node4</title>
<g id="a_Node000004"><a xlink:title=" ">
<polygon fill="#e0e0e0" stroke="#999999" points="693.38,-73 641.38,-73 641.38,-54.5 693.38,-54.5 693.38,-73"/>
<text text-anchor="middle" x="667.38" y="-59.5" font-family="Helvetica,sans-Serif" font-size="10.00">QPointF</text>
</a>
</g>
</g>
<!-- Node2&#45;&gt;Node4 -->
<g id="edge3_Node000002_Node000004" class="edge">
<title>Node2&#45;&gt;Node4</title>
<g id="a_edge3_Node000002_Node000004"><a xlink:title=" ">
<path fill="none" stroke="#63b8ff" d="M495.62,-113.85C531.58,-103.57 591.59,-86.42 630.31,-75.35"/>
<polygon fill="#63b8ff" stroke="#63b8ff" points="631.01,-78.79 639.66,-72.67 629.08,-72.06 631.01,-78.79"/>
</a>
</g>
</g>
<!-- Node5 -->
<g id="Node000005" class="node">
<title>Node5</title>
<g id="a_Node000005"><a xlink:title=" ">
<polygon fill="#e0e0e0" stroke="#999999" points="489.5,-73 441.25,-73 441.25,-54.5 489.5,-54.5 489.5,-73"/>
<text text-anchor="middle" x="465.38" y="-59.5" font-family="Helvetica,sans-Serif" font-size="10.00">QSizeF</text>
</a>
</g>
</g>
<!-- Node2&#45;&gt;Node5 -->
<g id="edge4_Node000002_Node000005" class="edge">
<title>Node2&#45;&gt;Node5</title>
<g id="a_edge4_Node000002_Node000005"><a xlink:title=" ">
<path fill="none" stroke="#63b8ff" d="M465.38,-113.98C465.38,-106.3 465.38,-94.72 465.38,-84.72"/>
<polygon fill="#63b8ff" stroke="#63b8ff" points="468.88,-84.82 465.38,-74.82 461.88,-84.82 468.88,-84.82"/>
</a>
</g>
</g>
<!-- Node6 -->
<g id="Node000006" class="node">
<title>Node6</title>
<g id="a_Node000006"><a xlink:title=" ">
<polygon fill="#e0e0e0" stroke="#999999" points="556.88,-73 507.88,-73 507.88,-54.5 556.88,-54.5 556.88,-73"/>
<text text-anchor="middle" x="532.38" y="-59.5" font-family="Helvetica,sans-Serif" font-size="10.00">QString</text>
</a>
</g>
</g>
<!-- Node2&#45;&gt;Node6 -->
<g id="edge5_Node000002_Node000006" class="edge">
<title>Node2&#45;&gt;Node6</title>
<g id="a_edge5_Node000002_Node000006"><a xlink:title=" ">
<path fill="none" stroke="#63b8ff" d="M475.26,-113.98C485.36,-105.28 501.27,-91.56 513.74,-80.81"/>
<polygon fill="#63b8ff" stroke="#63b8ff" points="516.01,-83.47 521.3,-74.29 511.44,-78.17 516.01,-83.47"/>
</a>
</g>
</g>
<!-- Node7 -->
<g id="Node000007" class="node">
<title>Node7</title>
<g id="a_Node000007"><a xlink:title=" ">
<polygon fill="#e0e0e0" stroke="#999999" points="76.75,-73 0,-73 0,-54.5 76.75,-54.5 76.75,-73"/>
<text text-anchor="middle" x="38.38" y="-59.5" font-family="Helvetica,sans-Serif" font-size="10.00">QLocalSocket</text>
</a>
</g>
</g>
<!-- Node2&#45;&gt;Node7 -->
<g id="edge6_Node000002_Node000007" class="edge">
<title>Node2&#45;&gt;Node7</title>
<g id="a_edge6_Node000002_Node000007"><a xlink:title=" ">
<path fill="none" stroke="#63b8ff" d="M402.72,-115.2C329.65,-106.49 204.95,-91.04 88.34,-73.4"/>
<polygon fill="#63b8ff" stroke="#63b8ff" points="88.99,-69.96 78.58,-71.91 87.94,-76.88 88.99,-69.96"/>
</a>
</g>
</g>
<!-- Node8 -->
<g id="Node000008" class="node">
<title>Node8</title>
<g id="a_Node000008"><a xlink:title=" ">
<polygon fill="#e0e0e0" stroke="#999999" points="170,-73 94.75,-73 94.75,-54.5 170,-54.5 170,-73"/>
<text text-anchor="middle" x="132.38" y="-59.5" font-family="Helvetica,sans-Serif" font-size="10.00">QLocalServer</text>
</a>
</g>
</g>
<!-- Node2&#45;&gt;Node8 -->
<g id="edge7_Node000002_Node000008" class="edge">
<title>Node2&#45;&gt;Node8</title>
<g id="a_edge7_Node000002_Node000008"><a xlink:title=" ">
<path fill="none" stroke="#63b8ff" d="M414.74,-113.77C359.92,-104.32 269.57,-88.71 181.61,-73.39"/>
<polygon fill="#63b8ff" stroke="#63b8ff" points="182.28,-69.95 171.83,-71.68 181.08,-76.85 182.28,-69.95"/>
</a>
</g>
</g>
<!-- Node9 -->
<g id="Node000009" class="node">
<title>Node9</title>
<g id="a_Node000009"><a xlink:title=" ">
<polygon fill="#e0e0e0" stroke="#999999" points="238.62,-73 188.12,-73 188.12,-54.5 238.62,-54.5 238.62,-73"/>
<text text-anchor="middle" x="213.38" y="-59.5" font-family="Helvetica,sans-Serif" font-size="10.00">QMutex</text>
</a>
</g>
</g>
<!-- Node2&#45;&gt;Node9 -->
<g id="edge8_Node000002_Node000009" class="edge">
<title>Node2&#45;&gt;Node9</title>
<g id="a_edge8_Node000002_Node000009"><a xlink:title=" ">
<path fill="none" stroke="#63b8ff" d="M426.94,-113.82C385.76,-104.5 318.17,-89.15 249.94,-73.35"/>
<polygon fill="#63b8ff" stroke="#63b8ff" points="250.99,-70 240.46,-71.15 249.41,-76.82 250.99,-70"/>
</a>
</g>
</g>
<!-- Node10 -->
<g id="Node000010" class="node">
<title>Node10</title>
<g id="a_Node000010"><a xlink:title=" ">
<polygon fill="#e0e0e0" stroke="#999999" points="361.62,-73 257.12,-73 257.12,-54.5 361.62,-54.5 361.62,-73"/>
<text text-anchor="middle" x="309.38" y="-59.5" font-family="Helvetica,sans-Serif" font-size="10.00">QPropertyAnimation</text>
</a>
</g>
</g>
<!-- Node2&#45;&gt;Node10 -->
<g id="edge9_Node000002_Node000010" class="edge">
<title>Node2&#45;&gt;Node10</title>
<g id="a_edge9_Node000002_Node000010"><a xlink:title=" ">
<path fill="none" stroke="#63b8ff" d="M442.02,-113.85C415.94,-104.2 373.49,-88.48 343.65,-77.44"/>
<polygon fill="#63b8ff" stroke="#63b8ff" points="344.9,-74.17 334.31,-73.98 342.47,-80.73 344.9,-74.17"/>
</a>
</g>
</g>
<!-- Node11 -->
<g id="Node000011" class="node">
<title>Node11</title>
<g id="a_Node000011"><a xlink:title=" ">
<polygon fill="#e0e0e0" stroke="#999999" points="623.5,-73 575.25,-73 575.25,-54.5 623.5,-54.5 623.5,-73"/>
<text text-anchor="middle" x="599.38" y="-59.5" font-family="Helvetica,sans-Serif" font-size="10.00">QTimer</text>
</a>
</g>
</g>
<!-- Node2&#45;&gt;Node11 -->
<g id="edge10_Node000002_Node000011" class="edge">
<title>Node2&#45;&gt;Node11</title>
<g id="a_edge10_Node000002_Node000011"><a xlink:title=" ">
<path fill="none" stroke="#63b8ff" d="M485.44,-113.85C507.54,-104.33 543.34,-88.9 568.91,-77.88"/>
<polygon fill="#63b8ff" stroke="#63b8ff" points="569.99,-81.23 577.79,-74.05 567.22,-74.8 569.99,-81.23"/>
</a>
</g>
</g>
<!-- Node12 -->
<g id="Node000012" class="node">
<title>Node12</title>
<g id="a_Node000012"><a xlink:title=" ">
<polygon fill="#e0e0e0" stroke="#999999" points="422.88,-73 379.88,-73 379.88,-54.5 422.88,-54.5 422.88,-73"/>
<text text-anchor="middle" x="401.38" y="-59.5" font-family="Helvetica,sans-Serif" font-size="10.00">thread</text>
</a>
</g>
</g>
<!-- Node2&#45;&gt;Node12 -->
<g id="edge11_Node000002_Node000012" class="edge">
<title>Node2&#45;&gt;Node12</title>
<g id="a_edge11_Node000002_Node000012"><a xlink:title=" ">
<path fill="none" stroke="#63b8ff" d="M455.93,-113.98C446.29,-105.28 431.09,-91.56 419.18,-80.81"/>
<polygon fill="#63b8ff" stroke="#63b8ff" points="421.75,-78.42 411.98,-74.32 417.06,-83.62 421.75,-78.42"/>
</a>
</g>
</g>
<!-- Node18 -->
<g id="Node000018" class="node">
<title>Node18</title>
<g id="a_Node000018"><a xlink:title=" ">
<polygon fill="#e0e0e0" stroke="#999999" points="1325.88,-132.75 1240.88,-132.75 1240.88,-114.25 1325.88,-114.25 1325.88,-132.75"/>
<text text-anchor="middle" x="1283.38" y="-119.25" font-family="Helvetica,sans-Serif" font-size="10.00">QOpenGLBuffer</text>
</a>
</g>
</g>
<!-- Node17&#45;&gt;Node18 -->
<g id="edge17_Node000017_Node000018" class="edge">
<title>Node17&#45;&gt;Node18</title>
<g id="a_edge17_Node000017_Node000018"><a xlink:title=" ">
<path fill="none" stroke="#63b8ff" d="M1190.78,-173.52C1210.43,-163.12 1237.13,-148.98 1256.81,-138.57"/>
<polygon fill="#63b8ff" stroke="#63b8ff" points="1258.39,-141.69 1265.59,-133.91 1255.12,-135.5 1258.39,-141.69"/>
</a>
</g>
</g>
<!-- Node19 -->
<g id="Node000019" class="node">
<title>Node19</title>
<g id="a_Node000019"><a xlink:title=" ">
<polygon fill="#e0e0e0" stroke="#999999" points="1446.5,-132.75 1344.25,-132.75 1344.25,-114.25 1446.5,-114.25 1446.5,-132.75"/>
<text text-anchor="middle" x="1395.38" y="-119.25" font-family="Helvetica,sans-Serif" font-size="10.00">QOpenGLFunctions</text>
</a>
</g>
</g>
<!-- Node17&#45;&gt;Node19 -->
<g id="edge18_Node000017_Node000019" class="edge">
<title>Node17&#45;&gt;Node19</title>
<g id="a_edge18_Node000017_Node000019"><a xlink:title=" ">
<path fill="none" stroke="#63b8ff" d="M1212.24,-174.45C1253.58,-163.17 1312.78,-147.03 1352.57,-136.17"/>
<polygon fill="#63b8ff" stroke="#63b8ff" points="1353.32,-139.6 1362.04,-133.59 1351.47,-132.85 1353.32,-139.6"/>
</a>
</g>
</g>
<!-- Node20 -->
<g id="Node000020" class="node">
<title>Node20</title>
<g id="a_Node000020"><a xlink:title=" ">
<polygon fill="#e0e0e0" stroke="#999999" points="1603.88,-132.75 1464.88,-132.75 1464.88,-114.25 1603.88,-114.25 1603.88,-132.75"/>
<text text-anchor="middle" x="1534.38" y="-119.25" font-family="Helvetica,sans-Serif" font-size="10.00">QOpenGLVertexArrayObject</text>
</a>
</g>
</g>
<!-- Node17&#45;&gt;Node20 -->
<g id="edge19_Node000017_Node000020" class="edge">
<title>Node17&#45;&gt;Node20</title>
<g id="a_edge19_Node000017_Node000020"><a xlink:title=" ">
<path fill="none" stroke="#63b8ff" d="M1212.01,-179.41C1269.64,-169.62 1369.62,-152.62 1455.38,-138 1460.89,-137.06 1466.62,-136.08 1472.37,-135.1"/>
<polygon fill="#63b8ff" stroke="#63b8ff" points="1472.62,-138.61 1481.89,-133.47 1471.44,-131.71 1472.62,-138.61"/>
</a>
</g>
</g>
<!-- Node21 -->
<g id="Node000021" class="node">
<title>Node21</title>
<g id="a_Node000021"><a xlink:title=" ">
<polygon fill="#e0e0e0" stroke="#999999" points="1712.5,-132.75 1622.25,-132.75 1622.25,-114.25 1712.5,-114.25 1712.5,-132.75"/>
<text text-anchor="middle" x="1667.38" y="-119.25" font-family="Helvetica,sans-Serif" font-size="10.00">QOpenGLWidget</text>
</a>
</g>
</g>
<!-- Node17&#45;&gt;Node21 -->
<g id="edge20_Node000017_Node000021" class="edge">
<title>Node17&#45;&gt;Node21</title>
<g id="a_edge20_Node000017_Node000021"><a xlink:title=" ">
<path fill="none" stroke="#63b8ff" d="M1212.2,-184.36C1294.59,-178.48 1468.45,-163.98 1613.38,-138 1616.99,-137.35 1620.72,-136.6 1624.45,-135.79"/>
<polygon fill="#63b8ff" stroke="#63b8ff" points="1625.12,-139.22 1634.07,-133.56 1623.54,-132.4 1625.12,-139.22"/>
</a>
</g>
</g>
<!-- Node22 -->
<g id="Node000022" class="node">
<title>Node22</title>
<g id="a_Node000022"><a xlink:href="blob__config_8h.html" target="_top" xlink:title=" ">
<polygon fill="white" stroke="#666666" points="1449.75,-73 1367,-73 1367,-54.5 1449.75,-54.5 1449.75,-73"/>
<text text-anchor="middle" x="1408.38" y="-59.5" font-family="Helvetica,sans-Serif" font-size="10.00">../blob_config.h</text>
</a>
</g>
</g>
<!-- Node17&#45;&gt;Node22 -->
<g id="edge21_Node000017_Node000022" class="edge">
<title>Node17&#45;&gt;Node22</title>
<g id="a_edge21_Node000017_Node000022"><a xlink:title=" ">
<path fill="none" stroke="#63b8ff" d="M1172.61,-173.56C1183.84,-155.8 1205.66,-125.44 1232.38,-109 1252.86,-96.39 1311.53,-83.08 1355.54,-74.39"/>
<polygon fill="#63b8ff" stroke="#63b8ff" points="1356.03,-77.86 1365.18,-72.52 1354.7,-70.99 1356.03,-77.86"/>
</a>
</g>
</g>
<!-- Node24 -->
<g id="Node000024" class="node">
<title>Node24</title>
<g id="a_Node000024"><a xlink:href="blob__physics_8h.html" target="_top" xlink:title=" ">
<polygon fill="white" stroke="#666666" points="1027.12,-132.75 901.62,-132.75 901.62,-114.25 1027.12,-114.25 1027.12,-132.75"/>
<text text-anchor="middle" x="964.38" y="-119.25" font-family="Helvetica,sans-Serif" font-size="10.00">../physics/blob_physics.h</text>
</a>
</g>
</g>
<!-- Node17&#45;&gt;Node24 -->
<g id="edge23_Node000017_Node000024" class="edge">
<title>Node17&#45;&gt;Node24</title>
<g id="a_edge23_Node000017_Node000024"><a xlink:title=" ">
<path fill="none" stroke="#63b8ff" d="M1119.99,-173.52C1084.83,-162.44 1036.24,-147.14 1002.75,-136.59"/>
<polygon fill="#63b8ff" stroke="#63b8ff" points="1004.05,-133.33 993.46,-133.66 1001.94,-140 1004.05,-133.33"/>
</a>
</g>
</g>
<!-- Node28 -->
<g id="Node000028" class="node">
<title>Node28</title>
<g id="a_Node000028"><a xlink:href="blob__renderer_8h.html" target="_top" xlink:title=" ">
<polygon fill="white" stroke="#666666" points="1184.62,-132.75 1050.12,-132.75 1050.12,-114.25 1184.62,-114.25 1184.62,-132.75"/>
<text text-anchor="middle" x="1117.38" y="-119.25" font-family="Helvetica,sans-Serif" font-size="10.00">../rendering/blob_renderer.h</text>
</a>
</g>
</g>
<!-- Node17&#45;&gt;Node28 -->
<g id="edge27_Node000017_Node000028" class="edge">
<title>Node17&#45;&gt;Node28</title>
<g id="a_edge27_Node000017_Node000028"><a xlink:title=" ">
<path fill="none" stroke="#63b8ff" d="M1153.94,-173.52C1147.05,-164.27 1137.95,-152.08 1130.55,-142.17"/>
<polygon fill="#63b8ff" stroke="#63b8ff" points="1133.56,-140.34 1124.78,-134.42 1127.95,-144.53 1133.56,-140.34"/>
</a>
</g>
</g>
<!-- Node33 -->
<g id="Node000033" class="node">
<title>Node33</title>
<g id="a_Node000033"><a xlink:href="blob__event__handler_8h.html" target="_top" xlink:title=" ">
<polygon fill="white" stroke="#666666" points="725.12,-138 617.62,-138 617.62,-109 725.12,-109 725.12,-138"/>
<text text-anchor="start" x="625.62" y="-124.5" font-family="Helvetica,sans-Serif" font-size="10.00">dynamics/blob_event</text>
<text text-anchor="middle" x="671.38" y="-114" font-family="Helvetica,sans-Serif" font-size="10.00">_handler.h</text>
</a>
</g>
</g>
<!-- Node17&#45;&gt;Node33 -->
<g id="edge33_Node000017_Node000033" class="edge">
<title>Node17&#45;&gt;Node33</title>
<g id="a_edge33_Node000017_Node000033"><a xlink:title=" ">
<path fill="none" stroke="#63b8ff" d="M1116.63,-180.23C1102.11,-178.11 1086.1,-175.86 1071.38,-174 923.69,-155.3 885.49,-160.73 738.38,-138 737.72,-137.9 737.05,-137.79 736.39,-137.69"/>
<polygon fill="#63b8ff" stroke="#63b8ff" points="737.36,-134.3 726.91,-136.08 736.19,-141.2 737.36,-134.3"/>
</a>
</g>
</g>
<!-- Node34 -->
<g id="Node000034" class="node">
<title>Node34</title>
<g id="a_Node000034"><a xlink:href="blob__transition__manager_8h.html" target="_top" xlink:title=" ">
<polygon fill="white" stroke="#666666" points="871.38,-138 747.38,-138 747.38,-109 871.38,-109 871.38,-138"/>
<text text-anchor="start" x="755.38" y="-124.5" font-family="Helvetica,sans-Serif" font-size="10.00">dynamics/blob_transition</text>
<text text-anchor="middle" x="809.38" y="-114" font-family="Helvetica,sans-Serif" font-size="10.00">_manager.h</text>
</a>
</g>
</g>
<!-- Node17&#45;&gt;Node34 -->
<g id="edge37_Node000017_Node000034" class="edge">
<title>Node17&#45;&gt;Node34</title>
<g id="a_edge37_Node000017_Node000034"><a xlink:title=" ">
<path fill="none" stroke="#63b8ff" d="M1116.87,-179.07C1056.88,-168.42 953.04,-150 882.8,-137.53"/>
<polygon fill="#63b8ff" stroke="#63b8ff" points="883.78,-134.15 873.32,-135.85 882.56,-141.04 883.78,-134.15"/>
</a>
</g>
</g>
<!-- Node23 -->
<g id="Node000023" class="node">
<title>Node23</title>
<g id="a_Node000023"><a xlink:title=" ">
<polygon fill="#e0e0e0" stroke="#999999" points="1431.75,-18.5 1385,-18.5 1385,0 1431.75,0 1431.75,-18.5"/>
<text text-anchor="middle" x="1408.38" y="-5" font-family="Helvetica,sans-Serif" font-size="10.00">QColor</text>
</a>
</g>
</g>
<!-- Node22&#45;&gt;Node23 -->
<g id="edge22_Node000022_Node000023" class="edge">
<title>Node22&#45;&gt;Node23</title>
<g id="a_edge22_Node000022_Node000023"><a xlink:title=" ">
<path fill="none" stroke="#63b8ff" d="M1408.38,-54.08C1408.38,-47.58 1408.38,-38.42 1408.38,-30.16"/>
<polygon fill="#63b8ff" stroke="#63b8ff" points="1411.88,-30.27 1408.38,-20.27 1404.88,-30.27 1411.88,-30.27"/>
</a>
</g>
</g>
<!-- Node25 -->
<g id="Node000025" class="node">
<title>Node25</title>
<g id="a_Node000025"><a xlink:title=" ">
<polygon fill="#e0e0e0" stroke="#999999" points="996.88,-73 923.88,-73 923.88,-54.5 996.88,-54.5 996.88,-73"/>
<text text-anchor="middle" x="960.38" y="-59.5" font-family="Helvetica,sans-Serif" font-size="10.00">QThreadPool</text>
</a>
</g>
</g>
<!-- Node24&#45;&gt;Node25 -->
<g id="edge24_Node000024_Node000025" class="edge">
<title>Node24&#45;&gt;Node25</title>
<g id="a_edge24_Node000024_Node000025"><a xlink:title=" ">
<path fill="none" stroke="#63b8ff" d="M963.78,-113.98C963.25,-106.3 962.45,-94.72 961.76,-84.72"/>
<polygon fill="#63b8ff" stroke="#63b8ff" points="965.25,-84.55 961.07,-74.82 958.27,-85.03 965.25,-84.55"/>
</a>
</g>
</g>
<!-- Node26 -->
<g id="Node000026" class="node">
<title>Node26</title>
<g id="a_Node000026"><a xlink:title=" ">
<polygon fill="#e0e0e0" stroke="#999999" points="905.38,-73 841.38,-73 841.38,-54.5 905.38,-54.5 905.38,-73"/>
<text text-anchor="middle" x="873.38" y="-59.5" font-family="Helvetica,sans-Serif" font-size="10.00">QVector2D</text>
</a>
</g>
</g>
<!-- Node24&#45;&gt;Node26 -->
<g id="edge25_Node000024_Node000026" class="edge">
<title>Node24&#45;&gt;Node26</title>
<g id="a_edge25_Node000024_Node000026"><a xlink:title=" ">
<path fill="none" stroke="#63b8ff" d="M950.95,-113.98C936.65,-104.9 913.75,-90.37 896.53,-79.44"/>
<polygon fill="#63b8ff" stroke="#63b8ff" points="898.75,-76.71 888.43,-74.31 895,-82.62 898.75,-76.71"/>
</a>
</g>
</g>
<!-- Node27 -->
<g id="Node000027" class="node">
<title>Node27</title>
<g id="a_Node000027"><a xlink:title=" ">
<polygon fill="#e0e0e0" stroke="#999999" points="1092.5,-18.5 1050.25,-18.5 1050.25,0 1092.5,0 1092.5,-18.5"/>
<text text-anchor="middle" x="1071.38" y="-5" font-family="Helvetica,sans-Serif" font-size="10.00">vector</text>
</a>
</g>
</g>
<!-- Node24&#45;&gt;Node27 -->
<g id="edge26_Node000024_Node000027" class="edge">
<title>Node24&#45;&gt;Node27</title>
<g id="a_edge26_Node000024_Node000027"><a xlink:title=" ">
<path fill="none" stroke="#63b8ff" d="M972.42,-114.06C990,-95.62 1032.14,-51.41 1055.36,-27.05"/>
<polygon fill="#63b8ff" stroke="#63b8ff" points="1057.83,-29.53 1062.19,-19.88 1052.76,-24.7 1057.83,-29.53"/>
</a>
</g>
</g>
<!-- Node28&#45;&gt;Node22 -->
<g id="edge32_Node000028_Node000022" class="edge">
<title>Node28&#45;&gt;Node22</title>
<g id="a_edge32_Node000028_Node000022"><a xlink:title=" ">
<path fill="none" stroke="#63b8ff" d="M1161.26,-113.79C1213.25,-103.47 1299.81,-86.3 1355.46,-75.25"/>
<polygon fill="#63b8ff" stroke="#63b8ff" points="1355.89,-78.73 1365.02,-73.35 1354.53,-71.87 1355.89,-78.73"/>
</a>
</g>
</g>
<!-- Node29 -->
<g id="Node000029" class="node">
<title>Node29</title>
<g id="a_Node000029"><a xlink:title=" ">
<polygon fill="#e0e0e0" stroke="#999999" points="1273.62,-73 1199.12,-73 1199.12,-54.5 1273.62,-54.5 1273.62,-73"/>
<text text-anchor="middle" x="1236.38" y="-59.5" font-family="Helvetica,sans-Serif" font-size="10.00">QPainterPath</text>
</a>
</g>
</g>
<!-- Node28&#45;&gt;Node29 -->
<g id="edge28_Node000028_Node000029" class="edge">
<title>Node28&#45;&gt;Node29</title>
<g id="a_edge28_Node000028_Node000029"><a xlink:title=" ">
<path fill="none" stroke="#63b8ff" d="M1135.19,-113.85C1154.47,-104.5 1185.48,-89.45 1208.1,-78.47"/>
<polygon fill="#63b8ff" stroke="#63b8ff" points="1209.61,-81.63 1217.08,-74.12 1206.55,-75.33 1209.61,-81.63"/>
</a>
</g>
</g>
<!-- Node30 -->
<g id="Node000030" class="node">
<title>Node30</title>
<g id="a_Node000030"><a xlink:title=" ">
<polygon fill="#e0e0e0" stroke="#999999" points="1348.62,-73 1292.12,-73 1292.12,-54.5 1348.62,-54.5 1348.62,-73"/>
<text text-anchor="middle" x="1320.38" y="-59.5" font-family="Helvetica,sans-Serif" font-size="10.00">QPixmap</text>
</a>
</g>
</g>
<!-- Node28&#45;&gt;Node30 -->
<g id="edge29_Node000028_Node000030" class="edge">
<title>Node28&#45;&gt;Node30</title>
<g id="a_edge29_Node000028_Node000030"><a xlink:title=" ">
<path fill="none" stroke="#63b8ff" d="M1147.77,-113.85C1183.2,-103.77 1241.87,-87.08 1280.83,-76"/>
<polygon fill="#63b8ff" stroke="#63b8ff" points="1281.63,-79.41 1290.29,-73.31 1279.72,-72.68 1281.63,-79.41"/>
</a>
</g>
</g>
<!-- Node31 -->
<g id="Node000031" class="node">
<title>Node31</title>
<g id="a_Node000031"><a xlink:href="path__markers__manager_8h.html" target="_top" xlink:title=" ">
<polygon fill="#fff0f0" stroke="red" points="1180.88,-73 1053.88,-73 1053.88,-54.5 1180.88,-54.5 1180.88,-73"/>
<text text-anchor="middle" x="1117.38" y="-59.5" font-family="Helvetica,sans-Serif" font-size="10.00">path_markers_manager.h</text>
</a>
</g>
</g>
<!-- Node28&#45;&gt;Node31 -->
<g id="edge30_Node000028_Node000031" class="edge">
<title>Node28&#45;&gt;Node31</title>
<g id="a_edge30_Node000028_Node000031"><a xlink:title=" ">
<path fill="none" stroke="#63b8ff" d="M1117.38,-113.98C1117.38,-106.3 1117.38,-94.72 1117.38,-84.72"/>
<polygon fill="#63b8ff" stroke="#63b8ff" points="1120.88,-84.82 1117.38,-74.82 1113.88,-84.82 1120.88,-84.82"/>
</a>
</g>
</g>
<!-- Node31&#45;&gt;Node27 -->
<g id="edge31_Node000031_Node000027" class="edge">
<title>Node31&#45;&gt;Node27</title>
<g id="a_edge31_Node000031_Node000027"><a xlink:title=" ">
<path fill="none" stroke="#63b8ff" d="M1109.78,-54.08C1103.42,-46.82 1094.14,-36.23 1086.3,-27.28"/>
<polygon fill="#63b8ff" stroke="#63b8ff" points="1089.05,-25.11 1079.83,-19.9 1083.78,-29.72 1089.05,-25.11"/>
</a>
</g>
</g>
<!-- Node33&#45;&gt;Node3 -->
<g id="edge34_Node000033_Node000003" class="edge">
<title>Node33&#45;&gt;Node3</title>
<g id="a_edge34_Node000033_Node000003"><a xlink:title=" ">
<path fill="none" stroke="#63b8ff" d="M687.35,-108.52C696.93,-100.14 709.15,-89.45 719.11,-80.73"/>
<polygon fill="#63b8ff" stroke="#63b8ff" points="721.13,-83.62 726.35,-74.4 716.52,-78.35 721.13,-83.62"/>
</a>
</g>
</g>
<!-- Node33&#45;&gt;Node4 -->
<g id="edge35_Node000033_Node000004" class="edge">
<title>Node33&#45;&gt;Node4</title>
<g id="a_edge35_Node000033_Node000004"><a xlink:title=" ">
<path fill="none" stroke="#63b8ff" d="M670.41,-108.52C669.91,-101.42 669.31,-92.67 668.77,-84.86"/>
<polygon fill="#63b8ff" stroke="#63b8ff" points="672.26,-84.65 668.08,-74.91 665.28,-85.13 672.26,-84.65"/>
</a>
</g>
</g>
<!-- Node33&#45;&gt;Node11 -->
<g id="edge36_Node000033_Node000011" class="edge">
<title>Node33&#45;&gt;Node11</title>
<g id="a_edge36_Node000033_Node000011"><a xlink:title=" ">
<path fill="none" stroke="#63b8ff" d="M653.95,-108.52C643.39,-100.05 629.9,-89.23 618.97,-80.47"/>
<polygon fill="#63b8ff" stroke="#63b8ff" points="621.34,-77.88 611.34,-74.35 616.96,-83.34 621.34,-77.88"/>
</a>
</g>
</g>
<!-- Node34&#45;&gt;Node3 -->
<g id="edge39_Node000034_Node000003" class="edge">
<title>Node34&#45;&gt;Node3</title>
<g id="a_edge39_Node000034_Node000003"><a xlink:title=" ">
<path fill="none" stroke="#63b8ff" d="M791.95,-108.52C781.39,-100.05 767.9,-89.23 756.97,-80.47"/>
<polygon fill="#63b8ff" stroke="#63b8ff" points="759.34,-77.88 749.34,-74.35 754.96,-83.34 759.34,-77.88"/>
</a>
</g>
</g>
<!-- Node34&#45;&gt;Node26 -->
<g id="edge40_Node000034_Node000026" class="edge">
<title>Node34&#45;&gt;Node26</title>
<g id="a_edge40_Node000034_Node000026"><a xlink:title=" ">
<path fill="none" stroke="#63b8ff" d="M824.87,-108.52C834.06,-100.22 845.76,-89.67 855.37,-81"/>
<polygon fill="#63b8ff" stroke="#63b8ff" points="857.58,-83.72 862.66,-74.42 852.89,-78.52 857.58,-83.72"/>
</a>
</g>
</g>
<!-- Node35 -->
<g id="Node000035" class="node">
<title>Node35</title>
<g id="a_Node000035"><a xlink:title=" ">
<polygon fill="#e0e0e0" stroke="#999999" points="823.5,-73 781.25,-73 781.25,-54.5 823.5,-54.5 823.5,-73"/>
<text text-anchor="middle" x="802.38" y="-59.5" font-family="Helvetica,sans-Serif" font-size="10.00">deque</text>
</a>
</g>
</g>
<!-- Node34&#45;&gt;Node35 -->
<g id="edge38_Node000034_Node000035" class="edge">
<title>Node34&#45;&gt;Node35</title>
<g id="a_edge38_Node000034_Node000035"><a xlink:title=" ">
<path fill="none" stroke="#63b8ff" d="M807.68,-108.52C806.81,-101.33 805.73,-92.46 804.78,-84.58"/>
<polygon fill="#63b8ff" stroke="#63b8ff" points="808.28,-84.41 803.61,-74.91 801.33,-85.25 808.28,-84.41"/>
</a>
</g>
</g>
</g>
</svg>
