<?xml version="1.0" encoding="UTF-8" standalone="no"?>
<!DOCTYPE svg PUBLIC "-//W3C//DTD SVG 1.1//EN"
 "http://www.w3.org/Graphics/SVG/1.1/DTD/svg11.dtd">
<!-- Generated by graphviz version 12.2.1 (0)
 -->
<!-- Title: src/ui/settings/tabs/appearance/appearance_settings_widget.cpp Pages: 1 -->
<svg width="1141pt" height="167pt"
 viewBox="0.00 0.00 1140.75 167.00" xmlns="http://www.w3.org/2000/svg" xmlns:xlink="http://www.w3.org/1999/xlink">
<g id="graph0" class="graph" transform="scale(1 1) rotate(0) translate(4 163)">
<title>src/ui/settings/tabs/appearance/appearance_settings_widget.cpp</title>
<!-- Node1 -->
<g id="Node000001" class="node">
<title>Node1</title>
<g id="a_Node000001"><a xlink:title=" ">
<polygon fill="#999999" stroke="#666666" points="633.75,-159 511.25,-159 511.25,-119.5 633.75,-119.5 633.75,-159"/>
<text text-anchor="start" x="519.25" y="-145.5" font-family="Helvetica,sans-Serif" font-size="10.00">src/ui/settings/tabs</text>
<text text-anchor="start" x="519.25" y="-135" font-family="Helvetica,sans-Serif" font-size="10.00">/appearance/appearance</text>
<text text-anchor="middle" x="572.5" y="-124.5" font-family="Helvetica,sans-Serif" font-size="10.00">_settings_widget.cpp</text>
</a>
</g>
</g>
<!-- Node2 -->
<g id="Node000002" class="node">
<title>Node2</title>
<g id="a_Node000002"><a xlink:href="appearance__settings__widget_8h.html" target="_top" xlink:title=" ">
<polygon fill="white" stroke="#666666" points="314.5,-83.5 208.5,-83.5 208.5,-54.5 314.5,-54.5 314.5,-83.5"/>
<text text-anchor="start" x="216.5" y="-70" font-family="Helvetica,sans-Serif" font-size="10.00">appearance_settings</text>
<text text-anchor="middle" x="261.5" y="-59.5" font-family="Helvetica,sans-Serif" font-size="10.00">_widget.h</text>
</a>
</g>
</g>
<!-- Node1&#45;&gt;Node2 -->
<g id="edge1_Node000001_Node000002" class="edge">
<title>Node1&#45;&gt;Node2</title>
<g id="a_edge1_Node000001_Node000002"><a xlink:title=" ">
<path fill="none" stroke="#63b8ff" d="M511.06,-124.77C457.59,-113.03 380.37,-96.09 326.02,-84.16"/>
<polygon fill="#63b8ff" stroke="#63b8ff" points="326.78,-80.74 316.26,-82.02 325.28,-87.58 326.78,-80.74"/>
</a>
</g>
</g>
<!-- Node4 -->
<g id="Node000004" class="node">
<title>Node4</title>
<g id="a_Node000004"><a xlink:href="wavelength__config_8h.html" target="_top" xlink:title=" ">
<polygon fill="white" stroke="#666666" points="190.88,-83.5 72.12,-83.5 72.12,-54.5 190.88,-54.5 190.88,-83.5"/>
<text text-anchor="start" x="80.12" y="-70" font-family="Helvetica,sans-Serif" font-size="10.00">../../../../app/wavelength</text>
<text text-anchor="middle" x="131.5" y="-59.5" font-family="Helvetica,sans-Serif" font-size="10.00">_config.h</text>
</a>
</g>
</g>
<!-- Node1&#45;&gt;Node4 -->
<g id="edge3_Node000001_Node000004" class="edge">
<title>Node1&#45;&gt;Node4</title>
<g id="a_edge3_Node000001_Node000004"><a xlink:title=" ">
<path fill="none" stroke="#63b8ff" d="M510.97,-130.18C439.21,-120.56 316.78,-103.47 202.23,-83.92"/>
<polygon fill="#63b8ff" stroke="#63b8ff" points="203.11,-80.52 192.66,-82.28 201.93,-87.42 203.11,-80.52"/>
</a>
</g>
</g>
<!-- Node9 -->
<g id="Node000009" class="node">
<title>Node9</title>
<g id="a_Node000009"><a xlink:title=" ">
<polygon fill="#e0e0e0" stroke="#999999" points="378.88,-78.25 332.12,-78.25 332.12,-59.75 378.88,-59.75 378.88,-78.25"/>
<text text-anchor="middle" x="355.5" y="-64.75" font-family="Helvetica,sans-Serif" font-size="10.00">QLabel</text>
</a>
</g>
</g>
<!-- Node1&#45;&gt;Node9 -->
<g id="edge8_Node000001_Node000009" class="edge">
<title>Node1&#45;&gt;Node9</title>
<g id="a_edge8_Node000001_Node000009"><a xlink:title=" ">
<path fill="none" stroke="#63b8ff" d="M511.1,-121.63C475.1,-111.47 428.89,-97.73 388.5,-83.5 387.86,-83.28 387.22,-83.04 386.57,-82.81"/>
<polygon fill="#63b8ff" stroke="#63b8ff" points="387.98,-79.6 377.39,-79.29 385.47,-86.14 387.98,-79.6"/>
</a>
</g>
</g>
<!-- Node10 -->
<g id="Node000010" class="node">
<title>Node10</title>
<g id="a_Node000010"><a xlink:title=" ">
<polygon fill="#e0e0e0" stroke="#999999" points="471.75,-78.25 397.25,-78.25 397.25,-59.75 471.75,-59.75 471.75,-78.25"/>
<text text-anchor="middle" x="434.5" y="-64.75" font-family="Helvetica,sans-Serif" font-size="10.00">QPushButton</text>
</a>
</g>
</g>
<!-- Node1&#45;&gt;Node10 -->
<g id="edge9_Node000001_Node000010" class="edge">
<title>Node1&#45;&gt;Node10</title>
<g id="a_edge9_Node000001_Node000010"><a xlink:title=" ">
<path fill="none" stroke="#63b8ff" d="M533.69,-119.06C510.99,-107.83 482.85,-93.91 462.35,-83.77"/>
<polygon fill="#63b8ff" stroke="#63b8ff" points="463.98,-80.68 453.47,-79.38 460.88,-86.95 463.98,-80.68"/>
</a>
</g>
</g>
<!-- Node11 -->
<g id="Node000011" class="node">
<title>Node11</title>
<g id="a_Node000011"><a xlink:title=" ">
<polygon fill="#e0e0e0" stroke="#999999" points="565.5,-78.25 489.5,-78.25 489.5,-59.75 565.5,-59.75 565.5,-78.25"/>
<text text-anchor="middle" x="527.5" y="-64.75" font-family="Helvetica,sans-Serif" font-size="10.00">QVBoxLayout</text>
</a>
</g>
</g>
<!-- Node1&#45;&gt;Node11 -->
<g id="edge10_Node000001_Node000011" class="edge">
<title>Node1&#45;&gt;Node11</title>
<g id="a_edge10_Node000001_Node000011"><a xlink:title=" ">
<path fill="none" stroke="#63b8ff" d="M559.96,-119.24C553.47,-109.39 545.59,-97.44 539.22,-87.77"/>
<polygon fill="#63b8ff" stroke="#63b8ff" points="542.3,-86.08 533.87,-79.66 536.45,-89.94 542.3,-86.08"/>
</a>
</g>
</g>
<!-- Node12 -->
<g id="Node000012" class="node">
<title>Node12</title>
<g id="a_Node000012"><a xlink:title=" ">
<polygon fill="#e0e0e0" stroke="#999999" points="653.5,-78.25 583.5,-78.25 583.5,-59.75 653.5,-59.75 653.5,-78.25"/>
<text text-anchor="middle" x="618.5" y="-64.75" font-family="Helvetica,sans-Serif" font-size="10.00">QGridLayout</text>
</a>
</g>
</g>
<!-- Node1&#45;&gt;Node12 -->
<g id="edge11_Node000001_Node000012" class="edge">
<title>Node1&#45;&gt;Node12</title>
<g id="a_edge11_Node000001_Node000012"><a xlink:title=" ">
<path fill="none" stroke="#63b8ff" d="M585.31,-119.24C591.95,-109.39 600.01,-97.44 606.52,-87.77"/>
<polygon fill="#63b8ff" stroke="#63b8ff" points="609.31,-89.9 611.99,-79.65 603.5,-85.99 609.31,-89.9"/>
</a>
</g>
</g>
<!-- Node13 -->
<g id="Node000013" class="node">
<title>Node13</title>
<g id="a_Node000013"><a xlink:title=" ">
<polygon fill="#e0e0e0" stroke="#999999" points="745.75,-78.25 671.25,-78.25 671.25,-59.75 745.75,-59.75 745.75,-78.25"/>
<text text-anchor="middle" x="708.5" y="-64.75" font-family="Helvetica,sans-Serif" font-size="10.00">QColorDialog</text>
</a>
</g>
</g>
<!-- Node1&#45;&gt;Node13 -->
<g id="edge12_Node000001_Node000013" class="edge">
<title>Node1&#45;&gt;Node13</title>
<g id="a_edge12_Node000001_Node000013"><a xlink:title=" ">
<path fill="none" stroke="#63b8ff" d="M610.75,-119.06C633.12,-107.83 660.85,-93.91 681.06,-83.77"/>
<polygon fill="#63b8ff" stroke="#63b8ff" points="682.43,-87 689.79,-79.39 679.29,-80.74 682.43,-87"/>
</a>
</g>
</g>
<!-- Node14 -->
<g id="Node000014" class="node">
<title>Node14</title>
<g id="a_Node000014"><a xlink:title=" ">
<polygon fill="#e0e0e0" stroke="#999999" points="823.62,-78.25 763.38,-78.25 763.38,-59.75 823.62,-59.75 823.62,-78.25"/>
<text text-anchor="middle" x="793.5" y="-64.75" font-family="Helvetica,sans-Serif" font-size="10.00">QSpinBox</text>
</a>
</g>
</g>
<!-- Node1&#45;&gt;Node14 -->
<g id="edge13_Node000001_Node000014" class="edge">
<title>Node1&#45;&gt;Node14</title>
<g id="a_edge13_Node000001_Node000014"><a xlink:title=" ">
<path fill="none" stroke="#63b8ff" d="M634.19,-120.38C669.52,-109.97 714.63,-96.39 754.5,-83.5 755.66,-83.13 756.84,-82.74 758.02,-82.35"/>
<polygon fill="#63b8ff" stroke="#63b8ff" points="759,-85.71 767.36,-79.21 756.77,-79.08 759,-85.71"/>
</a>
</g>
</g>
<!-- Node15 -->
<g id="Node000015" class="node">
<title>Node15</title>
<g id="a_Node000015"><a xlink:href="translation__manager_8h.html" target="_top" xlink:title=" ">
<polygon fill="white" stroke="#666666" points="1085,-83.5 970,-83.5 970,-54.5 1085,-54.5 1085,-83.5"/>
<text text-anchor="start" x="978" y="-70" font-family="Helvetica,sans-Serif" font-size="10.00">../../../../app/managers</text>
<text text-anchor="middle" x="1027.5" y="-59.5" font-family="Helvetica,sans-Serif" font-size="10.00">/translation_manager.h</text>
</a>
</g>
</g>
<!-- Node1&#45;&gt;Node15 -->
<g id="edge14_Node000001_Node000015" class="edge">
<title>Node1&#45;&gt;Node15</title>
<g id="a_edge14_Node000001_Node000015"><a xlink:title=" ">
<path fill="none" stroke="#63b8ff" d="M634.16,-130.68C708.52,-121.31 837.56,-104.23 958.5,-83.78"/>
<polygon fill="#63b8ff" stroke="#63b8ff" points="959.03,-87.23 968.3,-82.1 957.86,-80.33 959.03,-87.23"/>
</a>
</g>
</g>
<!-- Node19 -->
<g id="Node000019" class="node">
<title>Node19</title>
<g id="a_Node000019"><a xlink:href="clickable__color__preview_8h.html" target="_top" xlink:title=" ">
<polygon fill="white" stroke="#666666" points="951.75,-83.5 841.25,-83.5 841.25,-54.5 951.75,-54.5 951.75,-83.5"/>
<text text-anchor="start" x="849.25" y="-70" font-family="Helvetica,sans-Serif" font-size="10.00">components/clickable</text>
<text text-anchor="middle" x="896.5" y="-59.5" font-family="Helvetica,sans-Serif" font-size="10.00">_color_preview.h</text>
</a>
</g>
</g>
<!-- Node1&#45;&gt;Node19 -->
<g id="edge18_Node000001_Node000019" class="edge">
<title>Node1&#45;&gt;Node19</title>
<g id="a_edge18_Node000001_Node000019"><a xlink:title=" ">
<path fill="none" stroke="#63b8ff" d="M634.23,-125.26C684.34,-114.71 757.15,-99.38 829.81,-84.07"/>
<polygon fill="#63b8ff" stroke="#63b8ff" points="830.45,-87.51 839.52,-82.02 829.01,-80.66 830.45,-87.51"/>
</a>
</g>
</g>
<!-- Node3 -->
<g id="Node000003" class="node">
<title>Node3</title>
<g id="a_Node000003"><a xlink:title=" ">
<polygon fill="#e0e0e0" stroke="#999999" points="634.62,-18.5 580.38,-18.5 580.38,0 634.62,0 634.62,-18.5"/>
<text text-anchor="middle" x="607.5" y="-5" font-family="Helvetica,sans-Serif" font-size="10.00">QWidget</text>
</a>
</g>
</g>
<!-- Node2&#45;&gt;Node3 -->
<g id="edge2_Node000002_Node000003" class="edge">
<title>Node2&#45;&gt;Node3</title>
<g id="a_edge2_Node000002_Node000003"><a xlink:title=" ">
<path fill="none" stroke="#63b8ff" d="M314.89,-56.16C317.8,-55.58 320.68,-55.03 323.5,-54.5 410.79,-38.21 513.94,-23.19 568.74,-15.54"/>
<polygon fill="#63b8ff" stroke="#63b8ff" points="569.07,-19.03 578.49,-14.19 568.11,-12.09 569.07,-19.03"/>
</a>
</g>
</g>
<!-- Node5 -->
<g id="Node000005" class="node">
<title>Node5</title>
<g id="a_Node000005"><a xlink:title=" ">
<polygon fill="#e0e0e0" stroke="#999999" points="113.88,-18.5 67.12,-18.5 67.12,0 113.88,0 113.88,-18.5"/>
<text text-anchor="middle" x="90.5" y="-5" font-family="Helvetica,sans-Serif" font-size="10.00">QColor</text>
</a>
</g>
</g>
<!-- Node4&#45;&gt;Node5 -->
<g id="edge4_Node000004_Node000005" class="edge">
<title>Node4&#45;&gt;Node5</title>
<g id="a_edge4_Node000004_Node000005"><a xlink:title=" ">
<path fill="none" stroke="#63b8ff" d="M121.58,-54.02C116.05,-46.24 109.11,-36.46 103.19,-28.13"/>
<polygon fill="#63b8ff" stroke="#63b8ff" points="106.16,-26.27 97.52,-20.14 100.45,-30.32 106.16,-26.27"/>
</a>
</g>
</g>
<!-- Node6 -->
<g id="Node000006" class="node">
<title>Node6</title>
<g id="a_Node000006"><a xlink:title=" ">
<polygon fill="#e0e0e0" stroke="#999999" points="215.25,-18.5 131.75,-18.5 131.75,0 215.25,0 215.25,-18.5"/>
<text text-anchor="middle" x="173.5" y="-5" font-family="Helvetica,sans-Serif" font-size="10.00">QKeySequence</text>
</a>
</g>
</g>
<!-- Node4&#45;&gt;Node6 -->
<g id="edge5_Node000004_Node000006" class="edge">
<title>Node4&#45;&gt;Node6</title>
<g id="a_edge5_Node000004_Node000006"><a xlink:title=" ">
<path fill="none" stroke="#63b8ff" d="M141.67,-54.02C147.33,-46.24 154.44,-36.46 160.5,-28.13"/>
<polygon fill="#63b8ff" stroke="#63b8ff" points="163.27,-30.27 166.32,-20.13 157.6,-26.16 163.27,-30.27"/>
</a>
</g>
</g>
<!-- Node7 -->
<g id="Node000007" class="node">
<title>Node7</title>
<g id="a_Node000007"><a xlink:title=" ">
<polygon fill="#e0e0e0" stroke="#999999" points="293.25,-18.5 233.75,-18.5 233.75,0 293.25,0 293.25,-18.5"/>
<text text-anchor="middle" x="263.5" y="-5" font-family="Helvetica,sans-Serif" font-size="10.00">QSettings</text>
</a>
</g>
</g>
<!-- Node4&#45;&gt;Node7 -->
<g id="edge6_Node000004_Node000007" class="edge">
<title>Node4&#45;&gt;Node7</title>
<g id="a_edge6_Node000004_Node000007"><a xlink:title=" ">
<path fill="none" stroke="#63b8ff" d="M163.45,-54.02C184.67,-44.74 212.34,-32.63 233.21,-23.5"/>
<polygon fill="#63b8ff" stroke="#63b8ff" points="234.58,-26.73 242.33,-19.51 231.77,-20.31 234.58,-26.73"/>
</a>
</g>
</g>
<!-- Node8 -->
<g id="Node000008" class="node">
<title>Node8</title>
<g id="a_Node000008"><a xlink:title=" ">
<polygon fill="#e0e0e0" stroke="#999999" points="49,-18.5 0,-18.5 0,0 49,0 49,-18.5"/>
<text text-anchor="middle" x="24.5" y="-5" font-family="Helvetica,sans-Serif" font-size="10.00">QString</text>
</a>
</g>
</g>
<!-- Node4&#45;&gt;Node8 -->
<g id="edge7_Node000004_Node000008" class="edge">
<title>Node4&#45;&gt;Node8</title>
<g id="a_edge7_Node000004_Node000008"><a xlink:title=" ">
<path fill="none" stroke="#63b8ff" d="M105.6,-54.02C88.8,-44.95 67,-33.19 50.23,-24.14"/>
<polygon fill="#63b8ff" stroke="#63b8ff" points="52.33,-21.29 41.87,-19.62 49,-27.45 52.33,-21.29"/>
</a>
</g>
</g>
<!-- Node16 -->
<g id="Node000016" class="node">
<title>Node16</title>
<g id="a_Node000016"><a xlink:title=" ">
<polygon fill="#e0e0e0" stroke="#999999" points="1064,-18.5 991,-18.5 991,0 1064,0 1064,-18.5"/>
<text text-anchor="middle" x="1027.5" y="-5" font-family="Helvetica,sans-Serif" font-size="10.00">QJsonObject</text>
</a>
</g>
</g>
<!-- Node15&#45;&gt;Node16 -->
<g id="edge15_Node000015_Node000016" class="edge">
<title>Node15&#45;&gt;Node16</title>
<g id="a_edge15_Node000015_Node000016"><a xlink:title=" ">
<path fill="none" stroke="#63b8ff" d="M1027.5,-54.02C1027.5,-46.92 1027.5,-38.17 1027.5,-30.36"/>
<polygon fill="#63b8ff" stroke="#63b8ff" points="1031,-30.42 1027.5,-20.42 1024,-30.42 1031,-30.42"/>
</a>
</g>
</g>
<!-- Node17 -->
<g id="Node000017" class="node">
<title>Node17</title>
<g id="a_Node000017"><a xlink:title=" ">
<polygon fill="#e0e0e0" stroke="#999999" points="1132.75,-18.5 1082.25,-18.5 1082.25,0 1132.75,0 1132.75,-18.5"/>
<text text-anchor="middle" x="1107.5" y="-5" font-family="Helvetica,sans-Serif" font-size="10.00">QMutex</text>
</a>
</g>
</g>
<!-- Node15&#45;&gt;Node17 -->
<g id="edge16_Node000015_Node000017" class="edge">
<title>Node15&#45;&gt;Node17</title>
<g id="a_edge16_Node000015_Node000017"><a xlink:title=" ">
<path fill="none" stroke="#63b8ff" d="M1046.87,-54.02C1058.83,-45.38 1074.2,-34.29 1086.46,-25.44"/>
<polygon fill="#63b8ff" stroke="#63b8ff" points="1088.23,-28.48 1094.29,-19.79 1084.13,-22.8 1088.23,-28.48"/>
</a>
</g>
</g>
<!-- Node18 -->
<g id="Node000018" class="node">
<title>Node18</title>
<g id="a_Node000018"><a xlink:title=" ">
<polygon fill="#e0e0e0" stroke="#999999" points="972.5,-18.5 920.5,-18.5 920.5,0 972.5,0 972.5,-18.5"/>
<text text-anchor="middle" x="946.5" y="-5" font-family="Helvetica,sans-Serif" font-size="10.00">QObject</text>
</a>
</g>
</g>
<!-- Node15&#45;&gt;Node18 -->
<g id="edge17_Node000015_Node000018" class="edge">
<title>Node15&#45;&gt;Node18</title>
<g id="a_edge17_Node000015_Node000018"><a xlink:title=" ">
<path fill="none" stroke="#63b8ff" d="M1007.89,-54.02C995.77,-45.38 980.22,-34.29 967.8,-25.44"/>
<polygon fill="#63b8ff" stroke="#63b8ff" points="970.04,-22.74 959.87,-19.78 965.98,-28.44 970.04,-22.74"/>
</a>
</g>
</g>
<!-- Node19&#45;&gt;Node3 -->
<g id="edge19_Node000019_Node000003" class="edge">
<title>Node19&#45;&gt;Node3</title>
<g id="a_edge19_Node000019_Node000003"><a xlink:title=" ">
<path fill="none" stroke="#63b8ff" d="M841.01,-56.25C838.13,-55.65 835.28,-55.07 832.5,-54.5 767.15,-41.18 690.97,-26.34 646.13,-17.68"/>
<polygon fill="#63b8ff" stroke="#63b8ff" points="646.85,-14.26 636.37,-15.8 645.53,-21.13 646.85,-14.26"/>
</a>
</g>
</g>
</g>
</svg>
