<?xml version="1.0" encoding="UTF-8" standalone="no"?>
<!DOCTYPE svg PUBLIC "-//W3C//DTD SVG 1.1//EN"
 "http://www.w3.org/Graphics/SVG/1.1/DTD/svg11.dtd">
<!-- Generated by graphviz version 12.2.1 (0)
 -->
<!-- Title: src/chat/files/attachments/attachment_data_store.h Pages: 1 -->
<svg width="186pt" height="92pt"
 viewBox="0.00 0.00 185.62 91.50" xmlns="http://www.w3.org/2000/svg" xmlns:xlink="http://www.w3.org/1999/xlink">

<svg id="main" version="1.1" xmlns="http://www.w3.org/2000/svg" xmlns:xlink="http://www.w3.org/1999/xlink" xml:space="preserve">

<style type="text/css"><![CDATA[
.node, .edge {opacity: 0.7;}
.node.selected, .edge.selected {opacity: 1;}
.edge:hover path { stroke: red; }
.edge:hover polygon { stroke: red; fill: red; }
]]></style>
<script type="application/ecmascript" xlink:href="svg.min.js"/>
<svg id="graph" class="graph">
<g id="graph0" class="graph" transform="scale(1 1) rotate(0) translate(4 87.5)">
<title>src/chat/files/attachments/attachment_data_store.h</title>
<!-- Node1 -->
<g id="Node000001" class="node">
<title>Node1</title>
<g id="a_Node000001"><a xlink:title=" ">
<polygon fill="#999999" stroke="#666666" points="149.75,-83.5 20.5,-83.5 20.5,-54.5 149.75,-54.5 149.75,-83.5"/>
<text text-anchor="start" x="28.5" y="-70" font-family="Helvetica,sans-Serif" font-size="10.00">src/chat/files/attachments</text>
<text text-anchor="middle" x="85.12" y="-59.5" font-family="Helvetica,sans-Serif" font-size="10.00">/attachment_data_store.h</text>
</a>
</g>
</g>
<!-- Node2 -->
<g id="Node000002" class="node">
<title>Node2</title>
<g id="a_Node000002"><a xlink:title=" ">
<polygon fill="#e0e0e0" stroke="#999999" points="42.25,-18.5 0,-18.5 0,0 42.25,0 42.25,-18.5"/>
<text text-anchor="middle" x="21.12" y="-5" font-family="Helvetica,sans-Serif" font-size="10.00">QMap</text>
</a>
</g>
</g>
<!-- Node1&#45;&gt;Node2 -->
<g id="edge1_Node000001_Node000002" class="edge">
<title>Node1&#45;&gt;Node2</title>
<g id="a_edge1_Node000001_Node000002"><a xlink:title=" ">
<path fill="none" stroke="#63b8ff" d="M69.63,-54.02C60.44,-45.72 48.74,-35.17 39.13,-26.5"/>
<polygon fill="#63b8ff" stroke="#63b8ff" points="41.61,-24.02 31.84,-19.92 36.92,-29.22 41.61,-24.02"/>
</a>
</g>
</g>
<!-- Node3 -->
<g id="Node000003" class="node">
<title>Node3</title>
<g id="a_Node000003"><a xlink:title=" ">
<polygon fill="#e0e0e0" stroke="#999999" points="110.38,-18.5 59.88,-18.5 59.88,0 110.38,0 110.38,-18.5"/>
<text text-anchor="middle" x="85.12" y="-5" font-family="Helvetica,sans-Serif" font-size="10.00">QMutex</text>
</a>
</g>
</g>
<!-- Node1&#45;&gt;Node3 -->
<g id="edge2_Node000001_Node000003" class="edge">
<title>Node1&#45;&gt;Node3</title>
<g id="a_edge2_Node000001_Node000003"><a xlink:title=" ">
<path fill="none" stroke="#63b8ff" d="M85.12,-54.02C85.12,-46.92 85.12,-38.17 85.12,-30.36"/>
<polygon fill="#63b8ff" stroke="#63b8ff" points="88.63,-30.42 85.13,-20.42 81.63,-30.42 88.63,-30.42"/>
</a>
</g>
</g>
<!-- Node4 -->
<g id="Node000004" class="node">
<title>Node4</title>
<g id="a_Node000004"><a xlink:title=" ">
<polygon fill="#e0e0e0" stroke="#999999" points="177.62,-18.5 128.62,-18.5 128.62,0 177.62,0 177.62,-18.5"/>
<text text-anchor="middle" x="153.12" y="-5" font-family="Helvetica,sans-Serif" font-size="10.00">QString</text>
</a>
</g>
</g>
<!-- Node1&#45;&gt;Node4 -->
<g id="edge3_Node000001_Node000004" class="edge">
<title>Node1&#45;&gt;Node4</title>
<g id="a_edge3_Node000001_Node000004"><a xlink:title=" ">
<path fill="none" stroke="#63b8ff" d="M101.59,-54.02C111.46,-45.64 124.04,-34.95 134.31,-26.23"/>
<polygon fill="#63b8ff" stroke="#63b8ff" points="136.43,-29.02 141.78,-19.88 131.89,-23.69 136.43,-29.02"/>
</a>
</g>
</g>
</g>
</svg>
</svg>

<style type='text/css'>
<![CDATA[
[data-mouse-over-selected='false'] { opacity: 0.7; }
[data-mouse-over-selected='true']  { opacity: 1.0; }
]]>
</style>
<script type="application/ecmascript"><![CDATA[
document.addEventListener('DOMContentLoaded', (event) => {
  highlightEdges();
  highlightAdjacentNodes();
});
]]></script>
</svg>
