<?xml version="1.0" encoding="UTF-8" standalone="no"?>
<!DOCTYPE svg PUBLIC "-//W3C//DTD SVG 1.1//EN"
 "http://www.w3.org/Graphics/SVG/1.1/DTD/svg11.dtd">
<!-- Generated by graphviz version 12.2.1 (0)
 -->
<!-- Title: src/ui/files/attachment_viewer.h Pages: 1 -->
<svg width="393pt" height="102pt"
 viewBox="0.00 0.00 393.00 102.00" xmlns="http://www.w3.org/2000/svg" xmlns:xlink="http://www.w3.org/1999/xlink">
<g id="graph0" class="graph" transform="scale(1 1) rotate(0) translate(4 98)">
<title>src/ui/files/attachment_viewer.h</title>
<!-- Node1 -->
<g id="Node000001" class="node">
<title>Node1</title>
<g id="a_Node000001"><a xlink:title=" ">
<polygon fill="#999999" stroke="#666666" points="263,-94 150.25,-94 150.25,-65 263,-65 263,-94"/>
<text text-anchor="start" x="158.25" y="-80.5" font-family="Helvetica,sans-Serif" font-size="10.00">src/ui/files/attachment</text>
<text text-anchor="middle" x="206.62" y="-70" font-family="Helvetica,sans-Serif" font-size="10.00">_viewer.h</text>
</a>
</g>
</g>
<!-- Node2 -->
<g id="Node000002" class="node">
<title>Node2</title>
<g id="a_Node000002"><a xlink:href="attachment__placeholder_8cpp.html" target="_top" xlink:title=" ">
<polygon fill="white" stroke="#666666" points="141.25,-29 0,-29 0,0 141.25,0 141.25,-29"/>
<text text-anchor="start" x="8" y="-15.5" font-family="Helvetica,sans-Serif" font-size="10.00">src/chat/files/attachments</text>
<text text-anchor="middle" x="70.62" y="-5" font-family="Helvetica,sans-Serif" font-size="10.00">/attachment_placeholder.cpp</text>
</a>
</g>
</g>
<!-- Node1&#45;&gt;Node2 -->
<g id="edge1_Node000001_Node000002" class="edge">
<title>Node1&#45;&gt;Node2</title>
<g id="a_edge1_Node000001_Node000002"><a xlink:title=" ">
<path fill="none" stroke="#63b8ff" d="M166.21,-59.78C145.21,-50.05 119.99,-38.37 100.72,-29.44"/>
<polygon fill="#63b8ff" stroke="#63b8ff" points="164.52,-62.85 175.07,-63.88 167.47,-56.5 164.52,-62.85"/>
</a>
</g>
</g>
<!-- Node3 -->
<g id="Node000003" class="node">
<title>Node3</title>
<g id="a_Node000003"><a xlink:href="stream__message_8cpp.html" target="_top" xlink:title=" ">
<polygon fill="white" stroke="#666666" points="254,-29 159.25,-29 159.25,0 254,0 254,-29"/>
<text text-anchor="start" x="167.25" y="-15.5" font-family="Helvetica,sans-Serif" font-size="10.00">src/ui/chat/stream</text>
<text text-anchor="middle" x="206.62" y="-5" font-family="Helvetica,sans-Serif" font-size="10.00">_message.cpp</text>
</a>
</g>
</g>
<!-- Node1&#45;&gt;Node3 -->
<g id="edge2_Node000001_Node000003" class="edge">
<title>Node1&#45;&gt;Node3</title>
<g id="a_edge2_Node000001_Node000003"><a xlink:title=" ">
<path fill="none" stroke="#63b8ff" d="M206.62,-53.01C206.62,-44.96 206.62,-36.37 206.62,-29.44"/>
<polygon fill="#63b8ff" stroke="#63b8ff" points="203.13,-53 206.63,-63 210.13,-53 203.13,-53"/>
</a>
</g>
</g>
<!-- Node4 -->
<g id="Node000004" class="node">
<title>Node4</title>
<g id="a_Node000004"><a xlink:href="attachment__viewer_8cpp.html" target="_top" xlink:title=" ">
<polygon fill="white" stroke="#666666" points="385,-29 272.25,-29 272.25,0 385,0 385,-29"/>
<text text-anchor="start" x="280.25" y="-15.5" font-family="Helvetica,sans-Serif" font-size="10.00">src/ui/files/attachment</text>
<text text-anchor="middle" x="328.62" y="-5" font-family="Helvetica,sans-Serif" font-size="10.00">_viewer.cpp</text>
</a>
</g>
</g>
<!-- Node1&#45;&gt;Node4 -->
<g id="edge3_Node000001_Node000004" class="edge">
<title>Node1&#45;&gt;Node4</title>
<g id="a_edge3_Node000001_Node000004"><a xlink:title=" ">
<path fill="none" stroke="#63b8ff" d="M243.92,-59.24C262.54,-49.62 284.66,-38.2 301.62,-29.44"/>
<polygon fill="#63b8ff" stroke="#63b8ff" points="242.32,-56.13 235.05,-63.82 245.54,-62.35 242.32,-56.13"/>
</a>
</g>
</g>
</g>
</svg>
