<?xml version="1.0" encoding="UTF-8" standalone="no"?>
<!DOCTYPE svg PUBLIC "-//W3C//DTD SVG 1.1//EN"
 "http://www.w3.org/Graphics/SVG/1.1/DTD/svg11.dtd">
<!-- Generated by graphviz version 12.2.1 (0)
 -->
<!-- Title: src/chat/files/attachments/attachment_data_store.h Pages: 1 -->
<svg width="622pt" height="102pt"
 viewBox="0.00 0.00 621.62 102.00" xmlns="http://www.w3.org/2000/svg" xmlns:xlink="http://www.w3.org/1999/xlink">
<g id="graph0" class="graph" transform="scale(1 1) rotate(0) translate(4 98)">
<title>src/chat/files/attachments/attachment_data_store.h</title>
<!-- Node1 -->
<g id="Node000001" class="node">
<title>Node1</title>
<g id="a_Node000001"><a xlink:title=" ">
<polygon fill="#999999" stroke="#666666" points="369.38,-94 240.12,-94 240.12,-65 369.38,-65 369.38,-94"/>
<text text-anchor="start" x="248.12" y="-80.5" font-family="Helvetica,sans-Serif" font-size="10.00">src/chat/files/attachments</text>
<text text-anchor="middle" x="304.75" y="-70" font-family="Helvetica,sans-Serif" font-size="10.00">/attachment_data_store.h</text>
</a>
</g>
</g>
<!-- Node2 -->
<g id="Node000002" class="node">
<title>Node2</title>
<g id="a_Node000002"><a xlink:href="attachment__data__store_8cpp.html" target="_top" xlink:title=" ">
<polygon fill="white" stroke="#666666" points="137.5,-29 0,-29 0,0 137.5,0 137.5,-29"/>
<text text-anchor="start" x="8" y="-15.5" font-family="Helvetica,sans-Serif" font-size="10.00">src/chat/files/attachments</text>
<text text-anchor="middle" x="68.75" y="-5" font-family="Helvetica,sans-Serif" font-size="10.00">/attachment_data_store.cpp</text>
</a>
</g>
</g>
<!-- Node1&#45;&gt;Node2 -->
<g id="edge1_Node000001_Node000002" class="edge">
<title>Node1&#45;&gt;Node2</title>
<g id="a_edge1_Node000001_Node000002"><a xlink:title=" ">
<path fill="none" stroke="#63b8ff" d="M241.51,-61.62C203.82,-51.56 156.54,-38.94 120.98,-29.44"/>
<polygon fill="#63b8ff" stroke="#63b8ff" points="240.35,-64.93 250.91,-64.13 242.15,-58.17 240.35,-64.93"/>
</a>
</g>
</g>
<!-- Node3 -->
<g id="Node000003" class="node">
<title>Node3</title>
<g id="a_Node000003"><a xlink:href="attachment__placeholder_8cpp.html" target="_top" xlink:title=" ">
<polygon fill="white" stroke="#666666" points="296.38,-29 155.12,-29 155.12,0 296.38,0 296.38,-29"/>
<text text-anchor="start" x="163.12" y="-15.5" font-family="Helvetica,sans-Serif" font-size="10.00">src/chat/files/attachments</text>
<text text-anchor="middle" x="225.75" y="-5" font-family="Helvetica,sans-Serif" font-size="10.00">/attachment_placeholder.cpp</text>
</a>
</g>
</g>
<!-- Node1&#45;&gt;Node3 -->
<g id="edge2_Node000001_Node000003" class="edge">
<title>Node1&#45;&gt;Node3</title>
<g id="a_edge2_Node000001_Node000003"><a xlink:title=" ">
<path fill="none" stroke="#63b8ff" d="M278.39,-57.48C266.82,-48.25 253.55,-37.67 243.23,-29.44"/>
<polygon fill="#63b8ff" stroke="#63b8ff" points="276.03,-60.08 286.03,-63.57 280.4,-54.6 276.03,-60.08"/>
</a>
</g>
</g>
<!-- Node4 -->
<g id="Node000004" class="node">
<title>Node4</title>
<g id="a_Node000004"><a xlink:href="message__formatter_8cpp.html" target="_top" xlink:title=" ">
<polygon fill="white" stroke="#666666" points="455.38,-29 314.12,-29 314.12,0 455.38,0 455.38,-29"/>
<text text-anchor="start" x="322.12" y="-15.5" font-family="Helvetica,sans-Serif" font-size="10.00">src/chat/messages/formatter</text>
<text text-anchor="middle" x="384.75" y="-5" font-family="Helvetica,sans-Serif" font-size="10.00">/message_formatter.cpp</text>
</a>
</g>
</g>
<!-- Node1&#45;&gt;Node4 -->
<g id="edge3_Node000001_Node000004" class="edge">
<title>Node1&#45;&gt;Node4</title>
<g id="a_edge3_Node000001_Node000004"><a xlink:title=" ">
<path fill="none" stroke="#63b8ff" d="M331.44,-57.48C343.16,-48.25 356.59,-37.67 367.05,-29.44"/>
<polygon fill="#63b8ff" stroke="#63b8ff" points="329.38,-54.65 323.69,-63.58 333.72,-60.14 329.38,-54.65"/>
</a>
</g>
</g>
<!-- Node5 -->
<g id="Node000005" class="node">
<title>Node5</title>
<g id="a_Node000005"><a xlink:href="message__processor_8cpp.html" target="_top" xlink:title=" ">
<polygon fill="white" stroke="#666666" points="613.62,-29 473.88,-29 473.88,0 613.62,0 613.62,-29"/>
<text text-anchor="start" x="481.88" y="-15.5" font-family="Helvetica,sans-Serif" font-size="10.00">src/chat/messages/services</text>
<text text-anchor="middle" x="543.75" y="-5" font-family="Helvetica,sans-Serif" font-size="10.00">/message_processor.cpp</text>
</a>
</g>
</g>
<!-- Node1&#45;&gt;Node5 -->
<g id="edge4_Node000001_Node000005" class="edge">
<title>Node1&#45;&gt;Node5</title>
<g id="a_edge4_Node000001_Node000005"><a xlink:title=" ">
<path fill="none" stroke="#63b8ff" d="M368.79,-61.62C406.97,-51.56 454.84,-38.94 490.86,-29.44"/>
<polygon fill="#63b8ff" stroke="#63b8ff" points="368.03,-58.2 359.26,-64.13 369.82,-64.97 368.03,-58.2"/>
</a>
</g>
</g>
</g>
</svg>
