<?xml version="1.0" encoding="UTF-8" standalone="no"?>
<!DOCTYPE svg PUBLIC "-//W3C//DTD SVG 1.1//EN"
 "http://www.w3.org/Graphics/SVG/1.1/DTD/svg11.dtd">
<!-- Generated by graphviz version 12.2.1 (0)
 -->
<!-- Title: src/chat/files/attachments/attachment_queue_manager.cpp Pages: 1 -->
<svg width="302pt" height="146pt"
 viewBox="0.00 0.00 301.75 146.00" xmlns="http://www.w3.org/2000/svg" xmlns:xlink="http://www.w3.org/1999/xlink">

<svg id="main" version="1.1" xmlns="http://www.w3.org/2000/svg" xmlns:xlink="http://www.w3.org/1999/xlink" xml:space="preserve">

<style type="text/css"><![CDATA[
.node, .edge {opacity: 0.7;}
.node.selected, .edge.selected {opacity: 1;}
.edge:hover path { stroke: red; }
.edge:hover polygon { stroke: red; fill: red; }
]]></style>
<script type="application/ecmascript" xlink:href="svg.min.js"/>
<svg id="graph" class="graph">
<g id="graph0" class="graph" transform="scale(1 1) rotate(0) translate(4 142)">
<title>src/chat/files/attachments/attachment_queue_manager.cpp</title>
<!-- Node1 -->
<g id="Node000001" class="node">
<title>Node1</title>
<g id="a_Node000001"><a xlink:title=" ">
<polygon fill="#999999" stroke="#666666" points="273.62,-138 112.88,-138 112.88,-109 273.62,-109 273.62,-138"/>
<text text-anchor="start" x="120.88" y="-124.5" font-family="Helvetica,sans-Serif" font-size="10.00">src/chat/files/attachments</text>
<text text-anchor="middle" x="193.25" y="-114" font-family="Helvetica,sans-Serif" font-size="10.00">/attachment_queue_manager.cpp</text>
</a>
</g>
</g>
<!-- Node2 -->
<g id="Node000002" class="node">
<title>Node2</title>
<g id="a_Node000002"><a xlink:href="attachment__queue__manager_8h.html" target="_top" xlink:title=" ">
<polygon fill="white" stroke="#666666" points="202.88,-73 55.62,-73 55.62,-54.5 202.88,-54.5 202.88,-73"/>
<text text-anchor="middle" x="129.25" y="-59.5" font-family="Helvetica,sans-Serif" font-size="10.00">attachment_queue_manager.h</text>
</a>
</g>
</g>
<!-- Node1&#45;&gt;Node2 -->
<g id="edge1_Node000001_Node000002" class="edge">
<title>Node1&#45;&gt;Node2</title>
<g id="a_edge1_Node000001_Node000002"><a xlink:title=" ">
<path fill="none" stroke="#63b8ff" d="M177.76,-108.52C168.56,-100.22 156.86,-89.67 147.26,-81"/>
<polygon fill="#63b8ff" stroke="#63b8ff" points="149.73,-78.52 139.96,-74.42 145.04,-83.72 149.73,-78.52"/>
</a>
</g>
</g>
<!-- Node7 -->
<g id="Node000007" class="node">
<title>Node7</title>
<g id="a_Node000007"><a xlink:title=" ">
<polygon fill="#e0e0e0" stroke="#999999" points="293.75,-73 220.75,-73 220.75,-54.5 293.75,-54.5 293.75,-73"/>
<text text-anchor="middle" x="257.25" y="-59.5" font-family="Helvetica,sans-Serif" font-size="10.00">QThreadPool</text>
</a>
</g>
</g>
<!-- Node1&#45;&gt;Node7 -->
<g id="edge6_Node000001_Node000007" class="edge">
<title>Node1&#45;&gt;Node7</title>
<g id="a_edge6_Node000001_Node000007"><a xlink:title=" ">
<path fill="none" stroke="#63b8ff" d="M208.74,-108.52C217.94,-100.22 229.64,-89.67 239.24,-81"/>
<polygon fill="#63b8ff" stroke="#63b8ff" points="241.46,-83.72 246.54,-74.42 236.77,-78.52 241.46,-83.72"/>
</a>
</g>
</g>
<!-- Node3 -->
<g id="Node000003" class="node">
<title>Node3</title>
<g id="a_Node000003"><a xlink:title=" ">
<polygon fill="#e0e0e0" stroke="#999999" points="50.5,-18.5 0,-18.5 0,0 50.5,0 50.5,-18.5"/>
<text text-anchor="middle" x="25.25" y="-5" font-family="Helvetica,sans-Serif" font-size="10.00">QMutex</text>
</a>
</g>
</g>
<!-- Node2&#45;&gt;Node3 -->
<g id="edge2_Node000002_Node000003" class="edge">
<title>Node2&#45;&gt;Node3</title>
<g id="a_edge2_Node000002_Node000003"><a xlink:title=" ">
<path fill="none" stroke="#63b8ff" d="M112.08,-54.08C95.89,-45.91 71.38,-33.54 52.52,-24.02"/>
<polygon fill="#63b8ff" stroke="#63b8ff" points="54.3,-21 43.8,-19.61 51.15,-27.25 54.3,-21"/>
</a>
</g>
</g>
<!-- Node4 -->
<g id="Node000004" class="node">
<title>Node4</title>
<g id="a_Node000004"><a xlink:title=" ">
<polygon fill="#e0e0e0" stroke="#999999" points="120.25,-18.5 68.25,-18.5 68.25,0 120.25,0 120.25,-18.5"/>
<text text-anchor="middle" x="94.25" y="-5" font-family="Helvetica,sans-Serif" font-size="10.00">QObject</text>
</a>
</g>
</g>
<!-- Node2&#45;&gt;Node4 -->
<g id="edge3_Node000002_Node000004" class="edge">
<title>Node2&#45;&gt;Node4</title>
<g id="a_edge3_Node000002_Node000004"><a xlink:title=" ">
<path fill="none" stroke="#63b8ff" d="M123.47,-54.08C118.78,-47.05 112.01,-36.9 106.17,-28.14"/>
<polygon fill="#63b8ff" stroke="#63b8ff" points="109.22,-26.4 100.76,-20.02 103.4,-30.28 109.22,-26.4"/>
</a>
</g>
</g>
<!-- Node5 -->
<g id="Node000005" class="node">
<title>Node5</title>
<g id="a_Node000005"><a xlink:title=" ">
<polygon fill="#e0e0e0" stroke="#999999" points="190.25,-18.5 138.25,-18.5 138.25,0 190.25,0 190.25,-18.5"/>
<text text-anchor="middle" x="164.25" y="-5" font-family="Helvetica,sans-Serif" font-size="10.00">QQueue</text>
</a>
</g>
</g>
<!-- Node2&#45;&gt;Node5 -->
<g id="edge4_Node000002_Node000005" class="edge">
<title>Node2&#45;&gt;Node5</title>
<g id="a_edge4_Node000002_Node000005"><a xlink:title=" ">
<path fill="none" stroke="#63b8ff" d="M135.03,-54.08C139.72,-47.05 146.49,-36.9 152.33,-28.14"/>
<polygon fill="#63b8ff" stroke="#63b8ff" points="155.1,-30.28 157.74,-20.02 149.28,-26.4 155.1,-30.28"/>
</a>
</g>
</g>
<!-- Node6 -->
<g id="Node000006" class="node">
<title>Node6</title>
<g id="a_Node000006"><a xlink:title=" ">
<polygon fill="#e0e0e0" stroke="#999999" points="272.62,-18.5 207.88,-18.5 207.88,0 272.62,0 272.62,-18.5"/>
<text text-anchor="middle" x="240.25" y="-5" font-family="Helvetica,sans-Serif" font-size="10.00">QRunnable</text>
</a>
</g>
</g>
<!-- Node2&#45;&gt;Node6 -->
<g id="edge5_Node000002_Node000006" class="edge">
<title>Node2&#45;&gt;Node6</title>
<g id="a_edge5_Node000002_Node000006"><a xlink:title=" ">
<path fill="none" stroke="#63b8ff" d="M147.58,-54.08C165.01,-45.84 191.5,-33.31 211.7,-23.75"/>
<polygon fill="#63b8ff" stroke="#63b8ff" points="212.98,-27.02 220.53,-19.58 209.99,-20.69 212.98,-27.02"/>
</a>
</g>
</g>
</g>
</svg>
</svg>

<style type='text/css'>
<![CDATA[
[data-mouse-over-selected='false'] { opacity: 0.7; }
[data-mouse-over-selected='true']  { opacity: 1.0; }
]]>
</style>
<script type="application/ecmascript"><![CDATA[
document.addEventListener('DOMContentLoaded', (event) => {
  highlightEdges();
  highlightAdjacentNodes();
});
]]></script>
</svg>
