<?xml version="1.0" encoding="UTF-8" standalone="no"?>
<!DOCTYPE svg PUBLIC "-//W3C//DTD SVG 1.1//EN"
 "http://www.w3.org/Graphics/SVG/1.1/DTD/svg11.dtd">
<!-- Generated by graphviz version 12.2.1 (0)
 -->
<!-- Title: src/blob/utils/blob_math.h Pages: 1 -->
<svg width="124pt" height="92pt"
 viewBox="0.00 0.00 124.00 91.50" xmlns="http://www.w3.org/2000/svg" xmlns:xlink="http://www.w3.org/1999/xlink">
<g id="graph0" class="graph" transform="scale(1 1) rotate(0) translate(4 87.5)">
<title>src/blob/utils/blob_math.h</title>
<!-- Node1 -->
<g id="Node000001" class="node">
<title>Node1</title>
<g id="a_Node000001"><a xlink:title=" ">
<polygon fill="#999999" stroke="#666666" points="107.12,-83.5 14.62,-83.5 14.62,-54.5 107.12,-54.5 107.12,-83.5"/>
<text text-anchor="start" x="22.62" y="-70" font-family="Helvetica,sans-Serif" font-size="10.00">src/blob/utils/blob</text>
<text text-anchor="middle" x="60.88" y="-59.5" font-family="Helvetica,sans-Serif" font-size="10.00">_math.h</text>
</a>
</g>
</g>
<!-- Node2 -->
<g id="Node000002" class="node">
<title>Node2</title>
<g id="a_Node000002"><a xlink:title=" ">
<polygon fill="#e0e0e0" stroke="#999999" points="55.75,-18.5 0,-18.5 0,0 55.75,0 55.75,-18.5"/>
<text text-anchor="middle" x="27.88" y="-5" font-family="Helvetica,sans-Serif" font-size="10.00">concepts</text>
</a>
</g>
</g>
<!-- Node1&#45;&gt;Node2 -->
<g id="edge1_Node000001_Node000002" class="edge">
<title>Node1&#45;&gt;Node2</title>
<g id="a_edge1_Node000001_Node000002"><a xlink:title=" ">
<path fill="none" stroke="#63b8ff" d="M52.89,-54.02C48.54,-46.41 43.1,-36.89 38.41,-28.68"/>
<polygon fill="#63b8ff" stroke="#63b8ff" points="41.57,-27.16 33.57,-20.22 35.49,-30.64 41.57,-27.16"/>
</a>
</g>
</g>
<!-- Node3 -->
<g id="Node000003" class="node">
<title>Node3</title>
<g id="a_Node000003"><a xlink:title=" ">
<polygon fill="#e0e0e0" stroke="#999999" points="116,-18.5 73.75,-18.5 73.75,0 116,0 116,-18.5"/>
<text text-anchor="middle" x="94.88" y="-5" font-family="Helvetica,sans-Serif" font-size="10.00">vector</text>
</a>
</g>
</g>
<!-- Node1&#45;&gt;Node3 -->
<g id="edge2_Node000001_Node000003" class="edge">
<title>Node1&#45;&gt;Node3</title>
<g id="a_edge2_Node000001_Node000003"><a xlink:title=" ">
<path fill="none" stroke="#63b8ff" d="M69.11,-54.02C73.59,-46.41 79.19,-36.89 84.02,-28.68"/>
<polygon fill="#63b8ff" stroke="#63b8ff" points="86.95,-30.6 89.01,-20.21 80.92,-27.05 86.95,-30.6"/>
</a>
</g>
</g>
</g>
</svg>
