<?xml version="1.0" encoding="UTF-8" standalone="no"?>
<!DOCTYPE svg PUBLIC "-//W3C//DTD SVG 1.1//EN"
 "http://www.w3.org/Graphics/SVG/1.1/DTD/svg11.dtd">
<!-- Generated by graphviz version 12.2.1 (0)
 -->
<!-- Title: src/blob/core/blob_animation.h Pages: 1 -->
<!--zoomable 211 -->

<svg id="main" version="1.1" xmlns="http://www.w3.org/2000/svg" xmlns:xlink="http://www.w3.org/1999/xlink" xml:space="preserve" onload="init(evt)">

<style type="text/css"><![CDATA[
.node, .edge {opacity: 0.7;}
.node.selected, .edge.selected {opacity: 1;}
.edge:hover path { stroke: red; }
.edge:hover polygon { stroke: red; fill: red; }
]]></style>

<defs>
  <circle id="rim" cx="0" cy="0" r="7"/>
  <circle id="rim2" cx="0" cy="0" r="3.5"/>
  <g id="zoomPlus">
    <use xlink:href="#rim" fill="#404040"><set attributeName="fill" to="#808080" begin="zoomplus.mouseover" end="zoomplus.mouseout"/></use>
    <path d="M-4,0h8M0,-4v8" fill="none" stroke="white" stroke-width="1.5" pointer-events="none"/>
  </g>
  <g id="zoomMin">
    <use xlink:href="#rim" fill="#404040"><set attributeName="fill" to="#808080" begin="zoomminus.mouseover" end="zoomminus.mouseout"/></use>
    <path d="M-4,0h8" fill="none" stroke="white" stroke-width="1.5" pointer-events="none"/>
  </g>
  <g id="arrowUp" transform="translate(30 24)">
    <use xlink:href="#rim"/>
    <path pointer-events="none" fill="none" stroke="white" stroke-width="1.5" d="M0,-3.0v7 M-2.5,-0.5L0,-3.0L2.5,-0.5"/>
  </g>
  <g id="arrowRight" transform="rotate(90) translate(36 -43)">
    <use xlink:href="#rim"/>
    <path pointer-events="none" fill="none" stroke="white" stroke-width="1.5" d="M0,-3.0v7 M-2.5,-0.5L0,-3.0L2.5,-0.5"/>
  </g>
  <g id="arrowDown" transform="rotate(180) translate(-30 -48)">
    <use xlink:href="#rim"/>
    <path pointer-events="none" fill="none" stroke="white" stroke-width="1.5" d="M0,-3.0v7 M-2.5,-0.5L0,-3.0L2.5,-0.5"/>
  </g>
  <g id="arrowLeft" transform="rotate(270) translate(-36 17)">
    <use xlink:href="#rim"/>
    <path pointer-events="none" fill="none" stroke="white" stroke-width="1.5" d="M0,-3.0v7 M-2.5,-0.5L0,-3.0L2.5,-0.5"/>
  </g>
  <g id="resetDef">
    <use xlink:href="#rim2" fill="#404040"><set attributeName="fill" to="#808080" begin="reset.mouseover" end="reset.mouseout"/></use>
  </g>
</defs>
<script type="application/ecmascript">
var viewWidth = 1212;
var viewHeight = 211;
var sectionId = 'dynsection-0';
</script>
<script type="application/ecmascript" xlink:href="svg.min.js"/>
<svg id="graph" class="graph">
<g id="viewport">
<title>src/blob/core/blob_animation.h</title>
<!-- Node1 -->
<g id="Node000001" class="node">
<title>Node1</title>
<g id="a_Node000001"><a xlink:title=" ">
<polygon fill="#999999" stroke="#666666" points="546.12,-203 452.88,-203 452.88,-174 546.12,-174 546.12,-203"/>
<text text-anchor="start" x="460.88" y="-189.5" font-family="Helvetica,sans-Serif" font-size="10.00">src/blob/core/blob</text>
<text text-anchor="middle" x="499.5" y="-179" font-family="Helvetica,sans-Serif" font-size="10.00">_animation.h</text>
</a>
</g>
</g>
<!-- Node2 -->
<g id="Node000002" class="node">
<title>Node2</title>
<g id="a_Node000002"><a xlink:title=" ">
<polygon fill="#e0e0e0" stroke="#999999" points="85,-132.75 0,-132.75 0,-114.25 85,-114.25 85,-132.75"/>
<text text-anchor="middle" x="42.5" y="-119.25" font-family="Helvetica,sans-Serif" font-size="10.00">QOpenGLBuffer</text>
</a>
</g>
</g>
<!-- Node1&#45;&gt;Node2 -->
<g id="edge1_Node000001_Node000002" class="edge">
<title>Node1&#45;&gt;Node2</title>
<g id="a_edge1_Node000001_Node000002"><a xlink:title=" ">
<path fill="none" stroke="#63b8ff" d="M452.42,-183.78C376.58,-177.34 222.89,-162.4 94.5,-138 91.17,-137.37 87.74,-136.64 84.3,-135.86"/>
<polygon fill="#63b8ff" stroke="#63b8ff" points="85.43,-132.54 74.89,-133.6 83.79,-139.34 85.43,-132.54"/>
</a>
</g>
</g>
<!-- Node3 -->
<g id="Node000003" class="node">
<title>Node3</title>
<g id="a_Node000003"><a xlink:title=" ">
<polygon fill="#e0e0e0" stroke="#999999" points="205.62,-132.75 103.38,-132.75 103.38,-114.25 205.62,-114.25 205.62,-132.75"/>
<text text-anchor="middle" x="154.5" y="-119.25" font-family="Helvetica,sans-Serif" font-size="10.00">QOpenGLFunctions</text>
</a>
</g>
</g>
<!-- Node1&#45;&gt;Node3 -->
<g id="edge2_Node000001_Node000003" class="edge">
<title>Node1&#45;&gt;Node3</title>
<g id="a_edge2_Node000001_Node000003"><a xlink:title=" ">
<path fill="none" stroke="#63b8ff" d="M452.47,-180.06C395.86,-170.94 297.98,-154.63 214.5,-138 210.72,-137.25 206.81,-136.44 202.89,-135.6"/>
<polygon fill="#63b8ff" stroke="#63b8ff" points="203.88,-132.24 193.37,-133.53 202.39,-139.08 203.88,-132.24"/>
</a>
</g>
</g>
<!-- Node4 -->
<g id="Node000004" class="node">
<title>Node4</title>
<g id="a_Node000004"><a xlink:title=" ">
<polygon fill="#e0e0e0" stroke="#999999" points="363,-132.75 224,-132.75 224,-114.25 363,-114.25 363,-132.75"/>
<text text-anchor="middle" x="293.5" y="-119.25" font-family="Helvetica,sans-Serif" font-size="10.00">QOpenGLVertexArrayObject</text>
</a>
</g>
</g>
<!-- Node1&#45;&gt;Node4 -->
<g id="edge3_Node000001_Node000004" class="edge">
<title>Node1&#45;&gt;Node4</title>
<g id="a_edge3_Node000001_Node000004"><a xlink:title=" ">
<path fill="none" stroke="#63b8ff" d="M453.78,-173.52C417.42,-162.4 367.08,-147 332.58,-136.45"/>
<polygon fill="#63b8ff" stroke="#63b8ff" points="334,-133.23 323.42,-133.65 331.95,-139.92 334,-133.23"/>
</a>
</g>
</g>
<!-- Node5 -->
<g id="Node000005" class="node">
<title>Node5</title>
<g id="a_Node000005"><a xlink:title=" ">
<polygon fill="#e0e0e0" stroke="#999999" points="471.62,-132.75 381.38,-132.75 381.38,-114.25 471.62,-114.25 471.62,-132.75"/>
<text text-anchor="middle" x="426.5" y="-119.25" font-family="Helvetica,sans-Serif" font-size="10.00">QOpenGLWidget</text>
</a>
</g>
</g>
<!-- Node1&#45;&gt;Node5 -->
<g id="edge4_Node000001_Node000005" class="edge">
<title>Node1&#45;&gt;Node5</title>
<g id="a_edge4_Node000001_Node000005"><a xlink:title=" ">
<path fill="none" stroke="#63b8ff" d="M483.3,-173.52C472.03,-163.79 456.98,-150.8 445.2,-140.64"/>
<polygon fill="#63b8ff" stroke="#63b8ff" points="447.59,-138.08 437.73,-134.19 443.02,-143.38 447.59,-138.08"/>
</a>
</g>
</g>
<!-- Node6 -->
<g id="Node000006" class="node">
<title>Node6</title>
<g id="a_Node000006"><a xlink:href="blob__config_8h.html" target="_top" xlink:title=" ">
<polygon fill="white" stroke="#666666" points="412.88,-73 330.12,-73 330.12,-54.5 412.88,-54.5 412.88,-73"/>
<text text-anchor="middle" x="371.5" y="-59.5" font-family="Helvetica,sans-Serif" font-size="10.00">../blob_config.h</text>
</a>
</g>
</g>
<!-- Node1&#45;&gt;Node6 -->
<g id="edge5_Node000001_Node000006" class="edge">
<title>Node1&#45;&gt;Node6</title>
<g id="a_edge5_Node000001_Node000006"><a xlink:title=" ">
<path fill="none" stroke="#63b8ff" d="M499.79,-173.59C499.41,-156.43 496.24,-127.27 480.5,-109 466.1,-92.29 444.45,-81.81 424.23,-75.26"/>
<polygon fill="#63b8ff" stroke="#63b8ff" points="425.23,-71.91 414.65,-72.45 423.26,-78.63 425.23,-71.91"/>
</a>
</g>
</g>
<!-- Node8 -->
<g id="Node000008" class="node">
<title>Node8</title>
<g id="a_Node000008"><a xlink:href="blob__physics_8h.html" target="_top" xlink:title=" ">
<polygon fill="white" stroke="#666666" points="853.25,-132.75 727.75,-132.75 727.75,-114.25 853.25,-114.25 853.25,-132.75"/>
<text text-anchor="middle" x="790.5" y="-119.25" font-family="Helvetica,sans-Serif" font-size="10.00">../physics/blob_physics.h</text>
</a>
</g>
</g>
<!-- Node1&#45;&gt;Node8 -->
<g id="edge7_Node000001_Node000008" class="edge">
<title>Node1&#45;&gt;Node8</title>
<g id="a_edge7_Node000001_Node000008"><a xlink:title=" ">
<path fill="none" stroke="#63b8ff" d="M546.58,-177.31C599.44,-165.86 684.93,-147.36 739.39,-135.57"/>
<polygon fill="#63b8ff" stroke="#63b8ff" points="740,-139.01 749.04,-133.48 738.52,-132.17 740,-139.01"/>
</a>
</g>
</g>
<!-- Node12 -->
<g id="Node000012" class="node">
<title>Node12</title>
<g id="a_Node000012"><a xlink:href="blob__renderer_8h.html" target="_top" xlink:title=" ">
<polygon fill="white" stroke="#666666" points="661.75,-132.75 527.25,-132.75 527.25,-114.25 661.75,-114.25 661.75,-132.75"/>
<text text-anchor="middle" x="594.5" y="-119.25" font-family="Helvetica,sans-Serif" font-size="10.00">../rendering/blob_renderer.h</text>
</a>
</g>
</g>
<!-- Node1&#45;&gt;Node12 -->
<g id="edge11_Node000001_Node000012" class="edge">
<title>Node1&#45;&gt;Node12</title>
<g id="a_edge11_Node000001_Node000012"><a xlink:title=" ">
<path fill="none" stroke="#63b8ff" d="M520.58,-173.52C535.83,-163.41 556.4,-149.77 571.97,-139.44"/>
<polygon fill="#63b8ff" stroke="#63b8ff" points="573.71,-142.49 580.11,-134.04 569.84,-136.65 573.71,-142.49"/>
</a>
</g>
</g>
<!-- Node17 -->
<g id="Node000017" class="node">
<title>Node17</title>
<g id="a_Node000017"><a xlink:href="blob__event__handler_8h.html" target="_top" xlink:title=" ">
<polygon fill="white" stroke="#666666" points="1157.25,-138 1049.75,-138 1049.75,-109 1157.25,-109 1157.25,-138"/>
<text text-anchor="start" x="1057.75" y="-124.5" font-family="Helvetica,sans-Serif" font-size="10.00">dynamics/blob_event</text>
<text text-anchor="middle" x="1103.5" y="-114" font-family="Helvetica,sans-Serif" font-size="10.00">_handler.h</text>
</a>
</g>
</g>
<!-- Node1&#45;&gt;Node17 -->
<g id="edge18_Node000001_Node000017" class="edge">
<title>Node1&#45;&gt;Node17</title>
<g id="a_edge18_Node000001_Node000017"><a xlink:title=" ">
<path fill="none" stroke="#63b8ff" d="M546.36,-184.46C638.82,-178.15 851.2,-162.21 1028.5,-138 1031.7,-137.56 1034.96,-137.09 1038.26,-136.58"/>
<polygon fill="#63b8ff" stroke="#63b8ff" points="1038.7,-140.06 1048.02,-135.02 1037.59,-133.15 1038.7,-140.06"/>
</a>
</g>
</g>
<!-- Node21 -->
<g id="Node000021" class="node">
<title>Node21</title>
<g id="a_Node000021"><a xlink:href="blob__transition__manager_8h.html" target="_top" xlink:title=" ">
<polygon fill="white" stroke="#666666" points="1019.5,-138 895.5,-138 895.5,-109 1019.5,-109 1019.5,-138"/>
<text text-anchor="start" x="903.5" y="-124.5" font-family="Helvetica,sans-Serif" font-size="10.00">dynamics/blob_transition</text>
<text text-anchor="middle" x="957.5" y="-114" font-family="Helvetica,sans-Serif" font-size="10.00">_manager.h</text>
</a>
</g>
</g>
<!-- Node1&#45;&gt;Node21 -->
<g id="edge22_Node000001_Node000021" class="edge">
<title>Node1&#45;&gt;Node21</title>
<g id="a_edge22_Node000001_Node000021"><a xlink:title=" ">
<path fill="none" stroke="#63b8ff" d="M546.5,-181.18C615.71,-171.85 749.11,-153.79 862.5,-138 869.43,-137.04 876.64,-136.02 883.86,-135.01"/>
<polygon fill="#63b8ff" stroke="#63b8ff" points="884.25,-138.49 893.66,-133.62 883.27,-131.55 884.25,-138.49"/>
</a>
</g>
</g>
<!-- Node7 -->
<g id="Node000007" class="node">
<title>Node7</title>
<g id="a_Node000007"><a xlink:title=" ">
<polygon fill="#e0e0e0" stroke="#999999" points="394.88,-18.5 348.12,-18.5 348.12,0 394.88,0 394.88,-18.5"/>
<text text-anchor="middle" x="371.5" y="-5" font-family="Helvetica,sans-Serif" font-size="10.00">QColor</text>
</a>
</g>
</g>
<!-- Node6&#45;&gt;Node7 -->
<g id="edge6_Node000006_Node000007" class="edge">
<title>Node6&#45;&gt;Node7</title>
<g id="a_edge6_Node000006_Node000007"><a xlink:title=" ">
<path fill="none" stroke="#63b8ff" d="M371.5,-54.08C371.5,-47.58 371.5,-38.42 371.5,-30.16"/>
<polygon fill="#63b8ff" stroke="#63b8ff" points="375,-30.27 371.5,-20.27 368,-30.27 375,-30.27"/>
</a>
</g>
</g>
<!-- Node9 -->
<g id="Node000009" class="node">
<title>Node9</title>
<g id="a_Node000009"><a xlink:title=" ">
<polygon fill="#e0e0e0" stroke="#999999" points="817,-73 744,-73 744,-54.5 817,-54.5 817,-73"/>
<text text-anchor="middle" x="780.5" y="-59.5" font-family="Helvetica,sans-Serif" font-size="10.00">QThreadPool</text>
</a>
</g>
</g>
<!-- Node8&#45;&gt;Node9 -->
<g id="edge8_Node000008_Node000009" class="edge">
<title>Node8&#45;&gt;Node9</title>
<g id="a_edge8_Node000008_Node000009"><a xlink:title=" ">
<path fill="none" stroke="#63b8ff" d="M789.02,-113.98C787.68,-106.22 785.64,-94.46 783.9,-84.38"/>
<polygon fill="#63b8ff" stroke="#63b8ff" points="787.39,-84.05 782.24,-74.8 780.5,-85.25 787.39,-84.05"/>
</a>
</g>
</g>
<!-- Node10 -->
<g id="Node000010" class="node">
<title>Node10</title>
<g id="a_Node000010"><a xlink:title=" ">
<polygon fill="#e0e0e0" stroke="#999999" points="937.5,-73 873.5,-73 873.5,-54.5 937.5,-54.5 937.5,-73"/>
<text text-anchor="middle" x="905.5" y="-59.5" font-family="Helvetica,sans-Serif" font-size="10.00">QVector2D</text>
</a>
</g>
</g>
<!-- Node8&#45;&gt;Node10 -->
<g id="edge9_Node000008_Node000010" class="edge">
<title>Node8&#45;&gt;Node10</title>
<g id="a_edge9_Node000008_Node000010"><a xlink:title=" ">
<path fill="none" stroke="#63b8ff" d="M807.47,-113.98C826.05,-104.65 856.11,-89.55 878.05,-78.53"/>
<polygon fill="#63b8ff" stroke="#63b8ff" points="879.37,-81.79 886.73,-74.17 876.22,-75.53 879.37,-81.79"/>
</a>
</g>
</g>
<!-- Node11 -->
<g id="Node000011" class="node">
<title>Node11</title>
<g id="a_Node000011"><a xlink:title=" ">
<polygon fill="#e0e0e0" stroke="#999999" points="770.62,-18.5 728.38,-18.5 728.38,0 770.62,0 770.62,-18.5"/>
<text text-anchor="middle" x="749.5" y="-5" font-family="Helvetica,sans-Serif" font-size="10.00">vector</text>
</a>
</g>
</g>
<!-- Node8&#45;&gt;Node11 -->
<g id="edge10_Node000008_Node000011" class="edge">
<title>Node8&#45;&gt;Node11</title>
<g id="a_edge10_Node000008_Node000011"><a xlink:title=" ">
<path fill="none" stroke="#63b8ff" d="M800.84,-114.01C815.34,-101.03 838.68,-75.54 826.5,-54.5 816.74,-37.64 797.87,-26.65 781.25,-19.83"/>
<polygon fill="#63b8ff" stroke="#63b8ff" points="782.78,-16.67 772.19,-16.47 780.34,-23.23 782.78,-16.67"/>
</a>
</g>
</g>
<!-- Node12&#45;&gt;Node6 -->
<g id="edge17_Node000012_Node000006" class="edge">
<title>Node12&#45;&gt;Node6</title>
<g id="a_edge17_Node000012_Node000006"><a xlink:title=" ">
<path fill="none" stroke="#63b8ff" d="M561.11,-113.85C522.52,-103.86 458.84,-87.37 416.05,-76.29"/>
<polygon fill="#63b8ff" stroke="#63b8ff" points="417.14,-72.95 406.58,-73.83 415.38,-79.73 417.14,-72.95"/>
</a>
</g>
</g>
<!-- Node13 -->
<g id="Node000013" class="node">
<title>Node13</title>
<g id="a_Node000013"><a xlink:title=" ">
<polygon fill="#e0e0e0" stroke="#999999" points="505.75,-73 431.25,-73 431.25,-54.5 505.75,-54.5 505.75,-73"/>
<text text-anchor="middle" x="468.5" y="-59.5" font-family="Helvetica,sans-Serif" font-size="10.00">QPainterPath</text>
</a>
</g>
</g>
<!-- Node12&#45;&gt;Node13 -->
<g id="edge12_Node000012_Node000013" class="edge">
<title>Node12&#45;&gt;Node13</title>
<g id="a_edge12_Node000012_Node000013"><a xlink:title=" ">
<path fill="none" stroke="#63b8ff" d="M575.64,-113.85C555.04,-104.41 521.79,-89.17 497.79,-78.17"/>
<polygon fill="#63b8ff" stroke="#63b8ff" points="499.42,-75.07 488.87,-74.09 496.5,-81.43 499.42,-75.07"/>
</a>
</g>
</g>
<!-- Node14 -->
<g id="Node000014" class="node">
<title>Node14</title>
<g id="a_Node000014"><a xlink:title=" ">
<polygon fill="#e0e0e0" stroke="#999999" points="725.75,-73 669.25,-73 669.25,-54.5 725.75,-54.5 725.75,-73"/>
<text text-anchor="middle" x="697.5" y="-59.5" font-family="Helvetica,sans-Serif" font-size="10.00">QPixmap</text>
</a>
</g>
</g>
<!-- Node12&#45;&gt;Node14 -->
<g id="edge13_Node000012_Node000014" class="edge">
<title>Node12&#45;&gt;Node14</title>
<g id="a_edge13_Node000012_Node000014"><a xlink:title=" ">
<path fill="none" stroke="#63b8ff" d="M609.7,-113.98C626.11,-104.78 652.53,-89.96 672.11,-78.99"/>
<polygon fill="#63b8ff" stroke="#63b8ff" points="673.57,-82.18 680.58,-74.24 670.15,-76.07 673.57,-82.18"/>
</a>
</g>
</g>
<!-- Node15 -->
<g id="Node000015" class="node">
<title>Node15</title>
<g id="a_Node000015"><a xlink:href="path__markers__manager_8h.html" target="_top" xlink:title=" ">
<polygon fill="white" stroke="#666666" points="651,-73 524,-73 524,-54.5 651,-54.5 651,-73"/>
<text text-anchor="middle" x="587.5" y="-59.5" font-family="Helvetica,sans-Serif" font-size="10.00">path_markers_manager.h</text>
</a>
</g>
</g>
<!-- Node12&#45;&gt;Node15 -->
<g id="edge14_Node000012_Node000015" class="edge">
<title>Node12&#45;&gt;Node15</title>
<g id="a_edge14_Node000012_Node000015"><a xlink:title=" ">
<path fill="none" stroke="#63b8ff" d="M593.47,-113.98C592.54,-106.3 591.13,-94.72 589.92,-84.72"/>
<polygon fill="#63b8ff" stroke="#63b8ff" points="593.4,-84.31 588.72,-74.81 586.45,-85.16 593.4,-84.31"/>
</a>
</g>
</g>
<!-- Node15&#45;&gt;Node11 -->
<g id="edge16_Node000015_Node000011" class="edge">
<title>Node15&#45;&gt;Node11</title>
<g id="a_edge16_Node000015_Node000011"><a xlink:title=" ">
<path fill="none" stroke="#63b8ff" d="M614.25,-54.08C642.46,-44.94 686.92,-30.53 717.1,-20.75"/>
<polygon fill="#63b8ff" stroke="#63b8ff" points="718.02,-24.13 726.46,-17.72 715.87,-17.47 718.02,-24.13"/>
</a>
</g>
</g>
<!-- Node16 -->
<g id="Node000016" class="node">
<title>Node16</title>
<g id="a_Node000016"><a xlink:title=" ">
<polygon fill="#e0e0e0" stroke="#999999" points="615,-18.5 560,-18.5 560,0 615,0 615,-18.5"/>
<text text-anchor="middle" x="587.5" y="-5" font-family="Helvetica,sans-Serif" font-size="10.00">qglobal.h</text>
</a>
</g>
</g>
<!-- Node15&#45;&gt;Node16 -->
<g id="edge15_Node000015_Node000016" class="edge">
<title>Node15&#45;&gt;Node16</title>
<g id="a_edge15_Node000015_Node000016"><a xlink:title=" ">
<path fill="none" stroke="#63b8ff" d="M587.5,-54.08C587.5,-47.58 587.5,-38.42 587.5,-30.16"/>
<polygon fill="#63b8ff" stroke="#63b8ff" points="591,-30.27 587.5,-20.27 584,-30.27 591,-30.27"/>
</a>
</g>
</g>
<!-- Node18 -->
<g id="Node000018" class="node">
<title>Node18</title>
<g id="a_Node000018"><a xlink:title=" ">
<polygon fill="#e0e0e0" stroke="#999999" points="1067.5,-73 1015.5,-73 1015.5,-54.5 1067.5,-54.5 1067.5,-73"/>
<text text-anchor="middle" x="1041.5" y="-59.5" font-family="Helvetica,sans-Serif" font-size="10.00">QObject</text>
</a>
</g>
</g>
<!-- Node17&#45;&gt;Node18 -->
<g id="edge19_Node000017_Node000018" class="edge">
<title>Node17&#45;&gt;Node18</title>
<g id="a_edge19_Node000017_Node000018"><a xlink:title=" ">
<path fill="none" stroke="#63b8ff" d="M1088.49,-108.52C1079.58,-100.22 1068.25,-89.67 1058.94,-81"/>
<polygon fill="#63b8ff" stroke="#63b8ff" points="1061.6,-78.69 1051.9,-74.44 1056.83,-83.81 1061.6,-78.69"/>
</a>
</g>
</g>
<!-- Node19 -->
<g id="Node000019" class="node">
<title>Node19</title>
<g id="a_Node000019"><a xlink:title=" ">
<polygon fill="#e0e0e0" stroke="#999999" points="1203.5,-73 1151.5,-73 1151.5,-54.5 1203.5,-54.5 1203.5,-73"/>
<text text-anchor="middle" x="1177.5" y="-59.5" font-family="Helvetica,sans-Serif" font-size="10.00">QPointF</text>
</a>
</g>
</g>
<!-- Node17&#45;&gt;Node19 -->
<g id="edge20_Node000017_Node000019" class="edge">
<title>Node17&#45;&gt;Node19</title>
<g id="a_edge20_Node000017_Node000019"><a xlink:title=" ">
<path fill="none" stroke="#63b8ff" d="M1121.41,-108.52C1132.26,-100.05 1146.13,-89.23 1157.36,-80.47"/>
<polygon fill="#63b8ff" stroke="#63b8ff" points="1159.49,-83.25 1165.22,-74.33 1155.18,-77.73 1159.49,-83.25"/>
</a>
</g>
</g>
<!-- Node20 -->
<g id="Node000020" class="node">
<title>Node20</title>
<g id="a_Node000020"><a xlink:title=" ">
<polygon fill="#e0e0e0" stroke="#999999" points="1133.62,-73 1085.38,-73 1085.38,-54.5 1133.62,-54.5 1133.62,-73"/>
<text text-anchor="middle" x="1109.5" y="-59.5" font-family="Helvetica,sans-Serif" font-size="10.00">QTimer</text>
</a>
</g>
</g>
<!-- Node17&#45;&gt;Node20 -->
<g id="edge21_Node000017_Node000020" class="edge">
<title>Node17&#45;&gt;Node20</title>
<g id="a_edge21_Node000017_Node000020"><a xlink:title=" ">
<path fill="none" stroke="#63b8ff" d="M1104.95,-108.52C1105.7,-101.33 1106.62,-92.46 1107.44,-84.58"/>
<polygon fill="#63b8ff" stroke="#63b8ff" points="1110.89,-85.22 1108.44,-74.91 1103.93,-84.49 1110.89,-85.22"/>
</a>
</g>
</g>
<!-- Node21&#45;&gt;Node10 -->
<g id="edge25_Node000021_Node000010" class="edge">
<title>Node21&#45;&gt;Node10</title>
<g id="a_edge25_Node000021_Node000010"><a xlink:title=" ">
<path fill="none" stroke="#63b8ff" d="M944.91,-108.52C937.67,-100.48 928.52,-90.32 920.86,-81.81"/>
<polygon fill="#63b8ff" stroke="#63b8ff" points="923.6,-79.62 914.3,-74.53 918.4,-84.3 923.6,-79.62"/>
</a>
</g>
</g>
<!-- Node21&#45;&gt;Node18 -->
<g id="edge24_Node000021_Node000018" class="edge">
<title>Node21&#45;&gt;Node18</title>
<g id="a_edge24_Node000021_Node000018"><a xlink:title=" ">
<path fill="none" stroke="#63b8ff" d="M977.83,-108.52C990.53,-99.8 1006.85,-88.57 1019.79,-79.67"/>
<polygon fill="#63b8ff" stroke="#63b8ff" points="1021.41,-82.81 1027.67,-74.26 1017.44,-77.04 1021.41,-82.81"/>
</a>
</g>
</g>
<!-- Node22 -->
<g id="Node000022" class="node">
<title>Node22</title>
<g id="a_Node000022"><a xlink:title=" ">
<polygon fill="#e0e0e0" stroke="#999999" points="997.62,-73 955.38,-73 955.38,-54.5 997.62,-54.5 997.62,-73"/>
<text text-anchor="middle" x="976.5" y="-59.5" font-family="Helvetica,sans-Serif" font-size="10.00">deque</text>
</a>
</g>
</g>
<!-- Node21&#45;&gt;Node22 -->
<g id="edge23_Node000021_Node000022" class="edge">
<title>Node21&#45;&gt;Node22</title>
<g id="a_edge23_Node000021_Node000022"><a xlink:title=" ">
<path fill="none" stroke="#63b8ff" d="M962.1,-108.52C964.49,-101.25 967.45,-92.24 970.07,-84.29"/>
<polygon fill="#63b8ff" stroke="#63b8ff" points="973.38,-85.43 973.18,-74.84 966.73,-83.25 973.38,-85.43"/>
</a>
</g>
</g>
</g>
</svg>

<g id="navigator" transform="translate(0 0)" fill="#404254">
  <rect fill="#f2f5e9" fill-opacity="0.5" stroke="#606060" stroke-width=".5" x="0" y="0" width="60" height="60"/>
  <use id="zoomplus" xlink:href="#zoomPlus" x="17" y="9" onmousedown="handleZoom(evt,'in')"/>
  <use id="zoomminus" xlink:href="#zoomMin" x="42" y="9" onmousedown="handleZoom(evt,'out')"/>
  <use id="reset" xlink:href="#resetDef" x="30" y="36" onmousedown="handleReset()"/>
   <use id="arrowup" xlink:href="#arrowUp" x="0" y="0" onmousedown="handlePan(0,-1)"/>
  <use id="arrowright" xlink:href="#arrowRight" x="0" y="0" onmousedown="handlePan(1,0)"/>
  <use id="arrowdown" xlink:href="#arrowDown" x="0" y="0" onmousedown="handlePan(0,1)"/>
  <use id="arrowleft" xlink:href="#arrowLeft" x="0" y="0" onmousedown="handlePan(-1,0)"/>
</g>
<svg viewBox="0 0 15 15" width="100%" height="30px" preserveAspectRatio="xMaxYMin meet">
 <g id="arrow_out" transform="scale(0.3 0.3)">
  <a xlink:href="blob__animation_8h__incl_org.svg" target="_base">
   <rect id="button" ry="5" rx="5" y="6" x="6" height="38" width="38"
        fill="#f2f5e9" fill-opacity="0.5" stroke="#606060" stroke-width="1.0"/>
   <path id="arrow"
     d="M 11.500037,31.436501 C 11.940474,20.09759 22.043105,11.32322 32.158766,21.979434 L 37.068811,17.246167 C 37.068811,17.246167 37.088388,32 37.088388,32 L 22.160133,31.978069 C 22.160133,31.978069 26.997745,27.140456 26.997745,27.140456 C 18.528582,18.264221 13.291696,25.230495 11.500037,31.436501 z"
     style="fill:#404040;"/>
  </a>
 </g>
</svg>

<style type='text/css'>
<![CDATA[
[data-mouse-over-selected='false'] { opacity: 0.7; }
[data-mouse-over-selected='true']  { opacity: 1.0; }
]]>
</style>
<script type="application/ecmascript"><![CDATA[
document.addEventListener('DOMContentLoaded', (event) => {
  highlightEdges();
  highlightAdjacentNodes();
});
]]></script>
</svg>
