<?xml version="1.0" encoding="UTF-8" standalone="no"?>
<!DOCTYPE svg PUBLIC "-//W3C//DTD SVG 1.1//EN"
 "http://www.w3.org/Graphics/SVG/1.1/DTD/svg11.dtd">
<!-- Generated by graphviz version 12.2.1 (0)
 -->
<!-- Title: src/blob/core/dynamics/blob_event_handler.h Pages: 1 -->
<svg width="196pt" height="92pt"
 viewBox="0.00 0.00 196.12 91.50" xmlns="http://www.w3.org/2000/svg" xmlns:xlink="http://www.w3.org/1999/xlink">
<g id="graph0" class="graph" transform="scale(1 1) rotate(0) translate(4 87.5)">
<title>src/blob/core/dynamics/blob_event_handler.h</title>
<!-- Node1 -->
<g id="Node000001" class="node">
<title>Node1</title>
<g id="a_Node000001"><a xlink:title=" ">
<polygon fill="#999999" stroke="#666666" points="154.62,-83.5 37.38,-83.5 37.38,-54.5 154.62,-54.5 154.62,-83.5"/>
<text text-anchor="start" x="45.38" y="-70" font-family="Helvetica,sans-Serif" font-size="10.00">src/blob/core/dynamics</text>
<text text-anchor="middle" x="96" y="-59.5" font-family="Helvetica,sans-Serif" font-size="10.00">/blob_event_handler.h</text>
</a>
</g>
</g>
<!-- Node2 -->
<g id="Node000002" class="node">
<title>Node2</title>
<g id="a_Node000002"><a xlink:title=" ">
<polygon fill="#e0e0e0" stroke="#999999" points="52,-18.5 0,-18.5 0,0 52,0 52,-18.5"/>
<text text-anchor="middle" x="26" y="-5" font-family="Helvetica,sans-Serif" font-size="10.00">QObject</text>
</a>
</g>
</g>
<!-- Node1&#45;&gt;Node2 -->
<g id="edge1_Node000001_Node000002" class="edge">
<title>Node1&#45;&gt;Node2</title>
<g id="a_edge1_Node000001_Node000002"><a xlink:title=" ">
<path fill="none" stroke="#63b8ff" d="M79.05,-54.02C68.79,-45.55 55.67,-34.73 45.05,-25.97"/>
<polygon fill="#63b8ff" stroke="#63b8ff" points="47.6,-23.53 37.66,-19.87 43.14,-28.93 47.6,-23.53"/>
</a>
</g>
</g>
<!-- Node3 -->
<g id="Node000003" class="node">
<title>Node3</title>
<g id="a_Node000003"><a xlink:title=" ">
<polygon fill="#e0e0e0" stroke="#999999" points="122,-18.5 70,-18.5 70,0 122,0 122,-18.5"/>
<text text-anchor="middle" x="96" y="-5" font-family="Helvetica,sans-Serif" font-size="10.00">QPointF</text>
</a>
</g>
</g>
<!-- Node1&#45;&gt;Node3 -->
<g id="edge2_Node000001_Node000003" class="edge">
<title>Node1&#45;&gt;Node3</title>
<g id="a_edge2_Node000001_Node000003"><a xlink:title=" ">
<path fill="none" stroke="#63b8ff" d="M96,-54.02C96,-46.92 96,-38.17 96,-30.36"/>
<polygon fill="#63b8ff" stroke="#63b8ff" points="99.5,-30.42 96,-20.42 92.5,-30.42 99.5,-30.42"/>
</a>
</g>
</g>
<!-- Node4 -->
<g id="Node000004" class="node">
<title>Node4</title>
<g id="a_Node000004"><a xlink:title=" ">
<polygon fill="#e0e0e0" stroke="#999999" points="188.12,-18.5 139.88,-18.5 139.88,0 188.12,0 188.12,-18.5"/>
<text text-anchor="middle" x="164" y="-5" font-family="Helvetica,sans-Serif" font-size="10.00">QTimer</text>
</a>
</g>
</g>
<!-- Node1&#45;&gt;Node4 -->
<g id="edge3_Node000001_Node000004" class="edge">
<title>Node1&#45;&gt;Node4</title>
<g id="a_edge3_Node000001_Node000004"><a xlink:title=" ">
<path fill="none" stroke="#63b8ff" d="M112.46,-54.02C122.33,-45.64 134.92,-34.95 145.18,-26.23"/>
<polygon fill="#63b8ff" stroke="#63b8ff" points="147.3,-29.02 152.66,-19.88 142.77,-23.69 147.3,-29.02"/>
</a>
</g>
</g>
</g>
</svg>
