<?xml version="1.0" encoding="UTF-8" standalone="no"?>
<!DOCTYPE svg PUBLIC "-//W3C//DTD SVG 1.1//EN"
 "http://www.w3.org/Graphics/SVG/1.1/DTD/svg11.dtd">
<!-- Generated by graphviz version 12.2.1 (0)
 -->
<!-- Title: src/blob/core/blob_animation.cpp Pages: 1 -->
<!--zoomable 276 -->

<svg id="main" version="1.1" xmlns="http://www.w3.org/2000/svg" xmlns:xlink="http://www.w3.org/1999/xlink" xml:space="preserve" onload="init(evt)">

<style type="text/css"><![CDATA[
.node, .edge {opacity: 0.7;}
.node.selected, .edge.selected {opacity: 1;}
.edge:hover path { stroke: red; }
.edge:hover polygon { stroke: red; fill: red; }
]]></style>

<defs>
  <circle id="rim" cx="0" cy="0" r="7"/>
  <circle id="rim2" cx="0" cy="0" r="3.5"/>
  <g id="zoomPlus">
    <use xlink:href="#rim" fill="#404040"><set attributeName="fill" to="#808080" begin="zoomplus.mouseover" end="zoomplus.mouseout"/></use>
    <path d="M-4,0h8M0,-4v8" fill="none" stroke="white" stroke-width="1.5" pointer-events="none"/>
  </g>
  <g id="zoomMin">
    <use xlink:href="#rim" fill="#404040"><set attributeName="fill" to="#808080" begin="zoomminus.mouseover" end="zoomminus.mouseout"/></use>
    <path d="M-4,0h8" fill="none" stroke="white" stroke-width="1.5" pointer-events="none"/>
  </g>
  <g id="arrowUp" transform="translate(30 24)">
    <use xlink:href="#rim"/>
    <path pointer-events="none" fill="none" stroke="white" stroke-width="1.5" d="M0,-3.0v7 M-2.5,-0.5L0,-3.0L2.5,-0.5"/>
  </g>
  <g id="arrowRight" transform="rotate(90) translate(36 -43)">
    <use xlink:href="#rim"/>
    <path pointer-events="none" fill="none" stroke="white" stroke-width="1.5" d="M0,-3.0v7 M-2.5,-0.5L0,-3.0L2.5,-0.5"/>
  </g>
  <g id="arrowDown" transform="rotate(180) translate(-30 -48)">
    <use xlink:href="#rim"/>
    <path pointer-events="none" fill="none" stroke="white" stroke-width="1.5" d="M0,-3.0v7 M-2.5,-0.5L0,-3.0L2.5,-0.5"/>
  </g>
  <g id="arrowLeft" transform="rotate(270) translate(-36 17)">
    <use xlink:href="#rim"/>
    <path pointer-events="none" fill="none" stroke="white" stroke-width="1.5" d="M0,-3.0v7 M-2.5,-0.5L0,-3.0L2.5,-0.5"/>
  </g>
  <g id="resetDef">
    <use xlink:href="#rim2" fill="#404040"><set attributeName="fill" to="#808080" begin="reset.mouseover" end="reset.mouseout"/></use>
  </g>
</defs>
<script type="application/ecmascript">
var viewWidth = 1694;
var viewHeight = 276;
var sectionId = 'dynsection-0';
</script>
<script type="application/ecmascript" xlink:href="svg.min.js"/>
<svg id="graph" class="graph">
<g id="viewport">
<title>src/blob/core/blob_animation.cpp</title>
<!-- Node1 -->
<g id="Node000001" class="node">
<title>Node1</title>
<g id="a_Node000001"><a xlink:title=" ">
<polygon fill="#999999" stroke="#666666" points="558.25,-268 465,-268 465,-239 558.25,-239 558.25,-268"/>
<text text-anchor="start" x="473" y="-254.5" font-family="Helvetica,sans-Serif" font-size="10.00">src/blob/core/blob</text>
<text text-anchor="middle" x="511.62" y="-244" font-family="Helvetica,sans-Serif" font-size="10.00">_animation.cpp</text>
</a>
</g>
</g>
<!-- Node2 -->
<g id="Node000002" class="node">
<title>Node2</title>
<g id="a_Node000002"><a xlink:href="blob__animation_8h.html" target="_top" xlink:title=" ">
<polygon fill="white" stroke="#666666" points="969.38,-197.75 879.88,-197.75 879.88,-179.25 969.38,-179.25 969.38,-197.75"/>
<text text-anchor="middle" x="924.62" y="-184.25" font-family="Helvetica,sans-Serif" font-size="10.00">blob_animation.h</text>
</a>
</g>
</g>
<!-- Node1&#45;&gt;Node2 -->
<g id="edge1_Node000001_Node000002" class="edge">
<title>Node1&#45;&gt;Node2</title>
<g id="a_edge1_Node000001_Node000002"><a xlink:title=" ">
<path fill="none" stroke="#63b8ff" d="M558.65,-247.66C627.49,-240.19 759.59,-224.47 870.62,-203 874.03,-202.34 877.53,-201.6 881.05,-200.82"/>
<polygon fill="#63b8ff" stroke="#63b8ff" points="881.79,-204.24 890.72,-198.55 880.19,-197.43 881.79,-204.24"/>
</a>
</g>
</g>
<!-- Node24 -->
<g id="Node000024" class="node">
<title>Node24</title>
<g id="a_Node000024"><a xlink:title=" ">
<polygon fill="#e0e0e0" stroke="#999999" points="188.38,-197.75 122.88,-197.75 122.88,-179.25 188.38,-179.25 188.38,-197.75"/>
<text text-anchor="middle" x="155.62" y="-184.25" font-family="Helvetica,sans-Serif" font-size="10.00">QDateTime</text>
</a>
</g>
</g>
<!-- Node1&#45;&gt;Node24 -->
<g id="edge26_Node000001_Node000024" class="edge">
<title>Node1&#45;&gt;Node24</title>
<g id="a_edge26_Node000001_Node000024"><a xlink:title=" ">
<path fill="none" stroke="#63b8ff" d="M464.73,-247.54C402.77,-240.44 290.53,-225.68 196.62,-203 194.64,-202.52 192.6,-201.99 190.56,-201.42"/>
<polygon fill="#63b8ff" stroke="#63b8ff" points="191.75,-198.12 181.17,-198.59 189.73,-204.83 191.75,-198.12"/>
</a>
</g>
</g>
<!-- Node25 -->
<g id="Node000025" class="node">
<title>Node25</title>
<g id="a_Node000025"><a xlink:title=" ">
<polygon fill="#e0e0e0" stroke="#999999" points="333.12,-197.75 206.12,-197.75 206.12,-179.25 333.12,-179.25 333.12,-197.75"/>
<text text-anchor="middle" x="269.62" y="-184.25" font-family="Helvetica,sans-Serif" font-size="10.00">QOpenGLShaderProgram</text>
</a>
</g>
</g>
<!-- Node1&#45;&gt;Node25 -->
<g id="edge27_Node000001_Node000025" class="edge">
<title>Node1&#45;&gt;Node25</title>
<g id="a_edge27_Node000001_Node000025"><a xlink:title=" ">
<path fill="none" stroke="#63b8ff" d="M464.68,-240.28C421.15,-228.95 356.84,-212.2 314.11,-201.08"/>
<polygon fill="#63b8ff" stroke="#63b8ff" points="315.23,-197.76 304.67,-198.62 313.47,-204.53 315.23,-197.76"/>
</a>
</g>
</g>
<!-- Node26 -->
<g id="Node000026" class="node">
<title>Node26</title>
<g id="a_Node000026"><a xlink:title=" ">
<polygon fill="#e0e0e0" stroke="#999999" points="405.75,-197.75 351.5,-197.75 351.5,-179.25 405.75,-179.25 405.75,-197.75"/>
<text text-anchor="middle" x="378.62" y="-184.25" font-family="Helvetica,sans-Serif" font-size="10.00">QPainter</text>
</a>
</g>
</g>
<!-- Node1&#45;&gt;Node26 -->
<g id="edge28_Node000001_Node000026" class="edge">
<title>Node1&#45;&gt;Node26</title>
<g id="a_edge28_Node000001_Node000026"><a xlink:title=" ">
<path fill="none" stroke="#63b8ff" d="M482.11,-238.52C459.85,-227.97 429.48,-213.59 407.41,-203.13"/>
<polygon fill="#63b8ff" stroke="#63b8ff" points="408.91,-199.97 398.37,-198.85 405.91,-206.3 408.91,-199.97"/>
</a>
</g>
</g>
<!-- Node27 -->
<g id="Node000027" class="node">
<title>Node27</title>
<g id="a_Node000027"><a xlink:title=" ">
<polygon fill="#e0e0e0" stroke="#999999" points="495,-197.75 424.25,-197.75 424.25,-179.25 495,-179.25 495,-197.75"/>
<text text-anchor="middle" x="459.62" y="-184.25" font-family="Helvetica,sans-Serif" font-size="10.00">QPaintEvent</text>
</a>
</g>
</g>
<!-- Node1&#45;&gt;Node27 -->
<g id="edge29_Node000001_Node000027" class="edge">
<title>Node1&#45;&gt;Node27</title>
<g id="a_edge29_Node000001_Node000027"><a xlink:title=" ">
<path fill="none" stroke="#63b8ff" d="M500.08,-238.52C492.38,-229.18 482.18,-216.82 473.95,-206.86"/>
<polygon fill="#63b8ff" stroke="#63b8ff" points="476.84,-204.86 467.77,-199.37 471.44,-209.31 476.84,-204.86"/>
</a>
</g>
</g>
<!-- Node28 -->
<g id="Node000028" class="node">
<title>Node28</title>
<g id="a_Node000028"><a xlink:title=" ">
<polygon fill="#e0e0e0" stroke="#999999" points="615.75,-197.75 513.5,-197.75 513.5,-179.25 615.75,-179.25 615.75,-197.75"/>
<text text-anchor="middle" x="564.62" y="-184.25" font-family="Helvetica,sans-Serif" font-size="10.00">QRandomGenerator</text>
</a>
</g>
</g>
<!-- Node1&#45;&gt;Node28 -->
<g id="edge30_Node000001_Node000028" class="edge">
<title>Node1&#45;&gt;Node28</title>
<g id="a_edge30_Node000001_Node000028"><a xlink:title=" ">
<path fill="none" stroke="#63b8ff" d="M523.39,-238.52C531.25,-229.18 541.64,-216.82 550.02,-206.86"/>
<polygon fill="#63b8ff" stroke="#63b8ff" points="552.57,-209.27 556.33,-199.36 547.21,-204.76 552.57,-209.27"/>
</a>
</g>
</g>
<!-- Node29 -->
<g id="Node000029" class="node">
<title>Node29</title>
<g id="a_Node000029"><a xlink:href="wavelength__config_8h.html" target="_top" xlink:title=" ">
<polygon fill="white" stroke="#666666" points="1550,-203 1449.25,-203 1449.25,-174 1550,-174 1550,-203"/>
<text text-anchor="start" x="1457.25" y="-189.5" font-family="Helvetica,sans-Serif" font-size="10.00">../../app/wavelength</text>
<text text-anchor="middle" x="1499.62" y="-179" font-family="Helvetica,sans-Serif" font-size="10.00">_config.h</text>
</a>
</g>
</g>
<!-- Node1&#45;&gt;Node29 -->
<g id="edge31_Node000001_Node000029" class="edge">
<title>Node1&#45;&gt;Node29</title>
<g id="a_edge31_Node000001_Node000029"><a xlink:title=" ">
<path fill="none" stroke="#63b8ff" d="M558.61,-249.5C720.43,-239.19 1254.65,-205.12 1437.56,-193.46"/>
<polygon fill="#63b8ff" stroke="#63b8ff" points="1437.56,-196.96 1447.32,-192.84 1437.12,-189.98 1437.56,-196.96"/>
</a>
</g>
</g>
<!-- Node33 -->
<g id="Node000033" class="node">
<title>Node33</title>
<g id="a_Node000033"><a xlink:href="idle__state_8h.html" target="_top" xlink:title=" ">
<polygon fill="white" stroke="#666666" points="105.25,-197.75 0,-197.75 0,-179.25 105.25,-179.25 105.25,-197.75"/>
<text text-anchor="middle" x="52.62" y="-184.25" font-family="Helvetica,sans-Serif" font-size="10.00">../states/idle_state.h</text>
</a>
</g>
</g>
<!-- Node1&#45;&gt;Node33 -->
<g id="edge36_Node000001_Node000033" class="edge">
<title>Node1&#45;&gt;Node33</title>
<g id="a_edge36_Node000001_Node000033"><a xlink:title=" ">
<path fill="none" stroke="#63b8ff" d="M464.54,-248.09C389.84,-240.78 239.71,-224.74 113.62,-203 109.3,-202.25 104.82,-201.41 100.34,-200.51"/>
<polygon fill="#63b8ff" stroke="#63b8ff" points="101.27,-197.13 90.77,-198.51 99.84,-203.98 101.27,-197.13"/>
</a>
</g>
</g>
<!-- Node35 -->
<g id="Node000035" class="node">
<title>Node35</title>
<g id="a_Node000035"><a xlink:href="moving__state_8h.html" target="_top" xlink:title=" ">
<polygon fill="white" stroke="#666666" points="755.5,-197.75 633.75,-197.75 633.75,-179.25 755.5,-179.25 755.5,-197.75"/>
<text text-anchor="middle" x="694.62" y="-184.25" font-family="Helvetica,sans-Serif" font-size="10.00">../states/moving_state.h</text>
</a>
</g>
</g>
<!-- Node1&#45;&gt;Node35 -->
<g id="edge41_Node000001_Node000035" class="edge">
<title>Node1&#45;&gt;Node35</title>
<g id="a_edge41_Node000001_Node000035"><a xlink:title=" ">
<path fill="none" stroke="#63b8ff" d="M552.24,-238.52C584.12,-227.54 628.1,-212.4 658.71,-201.86"/>
<polygon fill="#63b8ff" stroke="#63b8ff" points="659.59,-205.26 667.9,-198.7 657.31,-198.64 659.59,-205.26"/>
</a>
</g>
</g>
<!-- Node36 -->
<g id="Node000036" class="node">
<title>Node36</title>
<g id="a_Node000036"><a xlink:href="resizing__state_8h.html" target="_top" xlink:title=" ">
<polygon fill="white" stroke="#666666" points="861.62,-203 773.62,-203 773.62,-174 861.62,-174 861.62,-203"/>
<text text-anchor="start" x="781.62" y="-189.5" font-family="Helvetica,sans-Serif" font-size="10.00">../states/resizing</text>
<text text-anchor="middle" x="817.62" y="-179" font-family="Helvetica,sans-Serif" font-size="10.00">_state.h</text>
</a>
</g>
</g>
<!-- Node1&#45;&gt;Node36 -->
<g id="edge43_Node000001_Node000036" class="edge">
<title>Node1&#45;&gt;Node36</title>
<g id="a_edge43_Node000001_Node000036"><a xlink:title=" ">
<path fill="none" stroke="#63b8ff" d="M558.42,-244.16C607.04,-235.31 685.56,-220.52 762.32,-203.45"/>
<polygon fill="#63b8ff" stroke="#63b8ff" points="762.67,-206.96 771.66,-201.36 761.14,-200.13 762.67,-206.96"/>
</a>
</g>
</g>
<!-- Node3 -->
<g id="Node000003" class="node">
<title>Node3</title>
<g id="a_Node000003"><a xlink:title=" ">
<polygon fill="#e0e0e0" stroke="#999999" points="1243.12,-132.75 1158.12,-132.75 1158.12,-114.25 1243.12,-114.25 1243.12,-132.75"/>
<text text-anchor="middle" x="1200.62" y="-119.25" font-family="Helvetica,sans-Serif" font-size="10.00">QOpenGLBuffer</text>
</a>
</g>
</g>
<!-- Node2&#45;&gt;Node3 -->
<g id="edge2_Node000002_Node000003" class="edge">
<title>Node2&#45;&gt;Node3</title>
<g id="a_edge2_Node000002_Node000003"><a xlink:title=" ">
<path fill="none" stroke="#63b8ff" d="M966.01,-178.83C1011.05,-169.28 1085.12,-153.26 1148.62,-138 1151.36,-137.34 1154.18,-136.65 1157.01,-135.95"/>
<polygon fill="#63b8ff" stroke="#63b8ff" points="1157.64,-139.4 1166.47,-133.55 1155.92,-132.61 1157.64,-139.4"/>
</a>
</g>
</g>
<!-- Node4 -->
<g id="Node000004" class="node">
<title>Node4</title>
<g id="a_Node000004"><a xlink:title=" ">
<polygon fill="#e0e0e0" stroke="#999999" points="1363.75,-132.75 1261.5,-132.75 1261.5,-114.25 1363.75,-114.25 1363.75,-132.75"/>
<text text-anchor="middle" x="1312.62" y="-119.25" font-family="Helvetica,sans-Serif" font-size="10.00">QOpenGLFunctions</text>
</a>
</g>
</g>
<!-- Node2&#45;&gt;Node4 -->
<g id="edge3_Node000002_Node000004" class="edge">
<title>Node2&#45;&gt;Node4</title>
<g id="a_edge3_Node000002_Node000004"><a xlink:title=" ">
<path fill="none" stroke="#63b8ff" d="M969.63,-181.75C1032.99,-173.41 1152.02,-156.88 1252.62,-138 1256.64,-137.25 1260.79,-136.42 1264.96,-135.55"/>
<polygon fill="#63b8ff" stroke="#63b8ff" points="1265.38,-139.04 1274.42,-133.52 1263.91,-132.2 1265.38,-139.04"/>
</a>
</g>
</g>
<!-- Node5 -->
<g id="Node000005" class="node">
<title>Node5</title>
<g id="a_Node000005"><a xlink:title=" ">
<polygon fill="#e0e0e0" stroke="#999999" points="735.12,-132.75 596.12,-132.75 596.12,-114.25 735.12,-114.25 735.12,-132.75"/>
<text text-anchor="middle" x="665.62" y="-119.25" font-family="Helvetica,sans-Serif" font-size="10.00">QOpenGLVertexArrayObject</text>
</a>
</g>
</g>
<!-- Node2&#45;&gt;Node5 -->
<g id="edge4_Node000002_Node000005" class="edge">
<title>Node2&#45;&gt;Node5</title>
<g id="a_edge4_Node000002_Node000005"><a xlink:title=" ">
<path fill="none" stroke="#63b8ff" d="M890.07,-178.82C883.61,-177.21 876.91,-175.55 870.62,-174 816.68,-160.74 754.66,-145.81 713.09,-135.85"/>
<polygon fill="#63b8ff" stroke="#63b8ff" points="713.95,-132.45 703.41,-133.53 712.32,-139.26 713.95,-132.45"/>
</a>
</g>
</g>
<!-- Node6 -->
<g id="Node000006" class="node">
<title>Node6</title>
<g id="a_Node000006"><a xlink:title=" ">
<polygon fill="#e0e0e0" stroke="#999999" points="843.75,-132.75 753.5,-132.75 753.5,-114.25 843.75,-114.25 843.75,-132.75"/>
<text text-anchor="middle" x="798.62" y="-119.25" font-family="Helvetica,sans-Serif" font-size="10.00">QOpenGLWidget</text>
</a>
</g>
</g>
<!-- Node2&#45;&gt;Node6 -->
<g id="edge5_Node000002_Node000006" class="edge">
<title>Node2&#45;&gt;Node6</title>
<g id="a_edge5_Node000002_Node000006"><a xlink:title=" ">
<path fill="none" stroke="#63b8ff" d="M907.37,-178.87C886.47,-168.42 850.99,-150.68 826.27,-138.32"/>
<polygon fill="#63b8ff" stroke="#63b8ff" points="827.94,-135.24 817.43,-133.9 824.81,-141.51 827.94,-135.24"/>
</a>
</g>
</g>
<!-- Node7 -->
<g id="Node000007" class="node">
<title>Node7</title>
<g id="a_Node000007"><a xlink:href="blob__config_8h.html" target="_top" xlink:title=" ">
<polygon fill="white" stroke="#666666" points="1375,-73 1292.25,-73 1292.25,-54.5 1375,-54.5 1375,-73"/>
<text text-anchor="middle" x="1333.62" y="-59.5" font-family="Helvetica,sans-Serif" font-size="10.00">../blob_config.h</text>
</a>
</g>
</g>
<!-- Node2&#45;&gt;Node7 -->
<g id="edge6_Node000002_Node000007" class="edge">
<title>Node2&#45;&gt;Node7</title>
<g id="a_edge6_Node000002_Node000007"><a xlink:title=" ">
<path fill="none" stroke="#63b8ff" d="M969.67,-185.87C1077.98,-181.48 1346.03,-167.69 1372.62,-138 1387.93,-120.91 1369.1,-96.74 1352.69,-80.91"/>
<polygon fill="#63b8ff" stroke="#63b8ff" points="1355.39,-78.63 1345.63,-74.49 1350.67,-83.81 1355.39,-78.63"/>
</a>
</g>
</g>
<!-- Node9 -->
<g id="Node000009" class="node">
<title>Node9</title>
<g id="a_Node000009"><a xlink:href="blob__physics_8h.html" target="_top" xlink:title=" ">
<polygon fill="white" stroke="#666666" points="987.38,-132.75 861.88,-132.75 861.88,-114.25 987.38,-114.25 987.38,-132.75"/>
<text text-anchor="middle" x="924.62" y="-119.25" font-family="Helvetica,sans-Serif" font-size="10.00">../physics/blob_physics.h</text>
</a>
</g>
</g>
<!-- Node2&#45;&gt;Node9 -->
<g id="edge8_Node000002_Node000009" class="edge">
<title>Node2&#45;&gt;Node9</title>
<g id="a_edge8_Node000002_Node000009"><a xlink:title=" ">
<path fill="none" stroke="#63b8ff" d="M924.62,-179C924.62,-170.12 924.62,-155.88 924.62,-144.18"/>
<polygon fill="#63b8ff" stroke="#63b8ff" points="928.13,-144.38 924.63,-134.38 921.13,-144.38 928.13,-144.38"/>
</a>
</g>
</g>
<!-- Node13 -->
<g id="Node000013" class="node">
<title>Node13</title>
<g id="a_Node000013"><a xlink:href="blob__renderer_8h.html" target="_top" xlink:title=" ">
<polygon fill="white" stroke="#666666" points="1139.88,-132.75 1005.38,-132.75 1005.38,-114.25 1139.88,-114.25 1139.88,-132.75"/>
<text text-anchor="middle" x="1072.62" y="-119.25" font-family="Helvetica,sans-Serif" font-size="10.00">../rendering/blob_renderer.h</text>
</a>
</g>
</g>
<!-- Node2&#45;&gt;Node13 -->
<g id="edge12_Node000002_Node000013" class="edge">
<title>Node2&#45;&gt;Node13</title>
<g id="a_edge12_Node000002_Node000013"><a xlink:title=" ">
<path fill="none" stroke="#63b8ff" d="M944.89,-178.87C969.88,-168.23 1012.61,-150.05 1041.71,-137.66"/>
<polygon fill="#63b8ff" stroke="#63b8ff" points="1042.9,-140.96 1050.73,-133.82 1040.16,-134.51 1042.9,-140.96"/>
</a>
</g>
</g>
<!-- Node18 -->
<g id="Node000018" class="node">
<title>Node18</title>
<g id="a_Node000018"><a xlink:href="blob__event__handler_8h.html" target="_top" xlink:title=" ">
<polygon fill="white" stroke="#666666" points="348.38,-138 240.88,-138 240.88,-109 348.38,-109 348.38,-138"/>
<text text-anchor="start" x="248.88" y="-124.5" font-family="Helvetica,sans-Serif" font-size="10.00">dynamics/blob_event</text>
<text text-anchor="middle" x="294.62" y="-114" font-family="Helvetica,sans-Serif" font-size="10.00">_handler.h</text>
</a>
</g>
</g>
<!-- Node2&#45;&gt;Node18 -->
<g id="edge18_Node000002_Node000018" class="edge">
<title>Node2&#45;&gt;Node18</title>
<g id="a_edge18_Node000002_Node000018"><a xlink:title=" ">
<path fill="none" stroke="#63b8ff" d="M893.69,-178.78C886.19,-176.94 878.16,-175.2 870.62,-174 648.53,-138.72 585.94,-169.01 360.06,-138.19"/>
<polygon fill="#63b8ff" stroke="#63b8ff" points="360.72,-134.75 350.33,-136.83 359.75,-141.68 360.72,-134.75"/>
</a>
</g>
</g>
<!-- Node22 -->
<g id="Node000022" class="node">
<title>Node22</title>
<g id="a_Node000022"><a xlink:href="blob__transition__manager_8h.html" target="_top" xlink:title=" ">
<polygon fill="white" stroke="#666666" points="490.62,-138 366.62,-138 366.62,-109 490.62,-109 490.62,-138"/>
<text text-anchor="start" x="374.62" y="-124.5" font-family="Helvetica,sans-Serif" font-size="10.00">dynamics/blob_transition</text>
<text text-anchor="middle" x="428.62" y="-114" font-family="Helvetica,sans-Serif" font-size="10.00">_manager.h</text>
</a>
</g>
</g>
<!-- Node2&#45;&gt;Node22 -->
<g id="edge22_Node000002_Node000022" class="edge">
<title>Node2&#45;&gt;Node22</title>
<g id="a_edge22_Node000002_Node000022"><a xlink:title=" ">
<path fill="none" stroke="#63b8ff" d="M893.1,-178.78C885.76,-176.99 877.96,-175.27 870.62,-174 710.88,-146.44 665.55,-160.84 501.86,-138.22"/>
<polygon fill="#63b8ff" stroke="#63b8ff" points="502.8,-134.82 492.41,-136.89 501.82,-141.75 502.8,-134.82"/>
</a>
</g>
</g>
<!-- Node8 -->
<g id="Node000008" class="node">
<title>Node8</title>
<g id="a_Node000008"><a xlink:title=" ">
<polygon fill="#e0e0e0" stroke="#999999" points="1405,-18.5 1358.25,-18.5 1358.25,0 1405,0 1405,-18.5"/>
<text text-anchor="middle" x="1381.62" y="-5" font-family="Helvetica,sans-Serif" font-size="10.00">QColor</text>
</a>
</g>
</g>
<!-- Node7&#45;&gt;Node8 -->
<g id="edge7_Node000007_Node000008" class="edge">
<title>Node7&#45;&gt;Node8</title>
<g id="a_edge7_Node000007_Node000008"><a xlink:title=" ">
<path fill="none" stroke="#63b8ff" d="M1341.55,-54.08C1348.26,-46.74 1358.07,-36.01 1366.31,-27"/>
<polygon fill="#63b8ff" stroke="#63b8ff" points="1368.66,-29.62 1372.82,-19.88 1363.49,-24.89 1368.66,-29.62"/>
</a>
</g>
</g>
<!-- Node10 -->
<g id="Node000010" class="node">
<title>Node10</title>
<g id="a_Node000010"><a xlink:title=" ">
<polygon fill="#e0e0e0" stroke="#999999" points="908.12,-73 835.12,-73 835.12,-54.5 908.12,-54.5 908.12,-73"/>
<text text-anchor="middle" x="871.62" y="-59.5" font-family="Helvetica,sans-Serif" font-size="10.00">QThreadPool</text>
</a>
</g>
</g>
<!-- Node9&#45;&gt;Node10 -->
<g id="edge9_Node000009_Node000010" class="edge">
<title>Node9&#45;&gt;Node10</title>
<g id="a_edge9_Node000009_Node000010"><a xlink:title=" ">
<path fill="none" stroke="#63b8ff" d="M916.8,-113.98C909.05,-105.53 896.97,-92.36 887.24,-81.77"/>
<polygon fill="#63b8ff" stroke="#63b8ff" points="889.84,-79.42 880.5,-74.42 884.68,-84.16 889.84,-79.42"/>
</a>
</g>
</g>
<!-- Node11 -->
<g id="Node000011" class="node">
<title>Node11</title>
<g id="a_Node000011"><a xlink:title=" ">
<polygon fill="#e0e0e0" stroke="#999999" points="575.62,-73 511.62,-73 511.62,-54.5 575.62,-54.5 575.62,-73"/>
<text text-anchor="middle" x="543.62" y="-59.5" font-family="Helvetica,sans-Serif" font-size="10.00">QVector2D</text>
</a>
</g>
</g>
<!-- Node9&#45;&gt;Node11 -->
<g id="edge10_Node000009_Node000011" class="edge">
<title>Node9&#45;&gt;Node11</title>
<g id="a_edge10_Node000009_Node000011"><a xlink:title=" ">
<path fill="none" stroke="#63b8ff" d="M879.74,-113.78C870.77,-112.12 861.41,-110.45 852.62,-109 758.14,-93.38 646.85,-78.24 586.99,-70.36"/>
<polygon fill="#63b8ff" stroke="#63b8ff" points="587.59,-66.91 577.22,-69.08 586.68,-73.85 587.59,-66.91"/>
</a>
</g>
</g>
<!-- Node12 -->
<g id="Node000012" class="node">
<title>Node12</title>
<g id="a_Node000012"><a xlink:title=" ">
<polygon fill="#e0e0e0" stroke="#999999" points="827.75,-18.5 785.5,-18.5 785.5,0 827.75,0 827.75,-18.5"/>
<text text-anchor="middle" x="806.62" y="-5" font-family="Helvetica,sans-Serif" font-size="10.00">vector</text>
</a>
</g>
</g>
<!-- Node9&#45;&gt;Node12 -->
<g id="edge11_Node000009_Node000012" class="edge">
<title>Node9&#45;&gt;Node12</title>
<g id="a_edge11_Node000009_Node000012"><a xlink:title=" ">
<path fill="none" stroke="#63b8ff" d="M893.62,-113.89C872.02,-106.39 844.06,-93.46 826.62,-73 816.4,-61 811.38,-43.71 808.94,-30.32"/>
<polygon fill="#63b8ff" stroke="#63b8ff" points="812.41,-29.87 807.51,-20.48 805.48,-30.88 812.41,-29.87"/>
</a>
</g>
</g>
<!-- Node13&#45;&gt;Node7 -->
<g id="edge17_Node000013_Node000007" class="edge">
<title>Node13&#45;&gt;Node7</title>
<g id="a_edge17_Node000013_Node000007"><a xlink:title=" ">
<path fill="none" stroke="#63b8ff" d="M1111.98,-113.79C1157.69,-103.68 1233.21,-86.97 1283.19,-75.91"/>
<polygon fill="#63b8ff" stroke="#63b8ff" points="1283.89,-79.34 1292.9,-73.76 1282.38,-72.5 1283.89,-79.34"/>
</a>
</g>
</g>
<!-- Node14 -->
<g id="Node000014" class="node">
<title>Node14</title>
<g id="a_Node000014"><a xlink:title=" ">
<polygon fill="#e0e0e0" stroke="#999999" points="1220.88,-73 1146.38,-73 1146.38,-54.5 1220.88,-54.5 1220.88,-73"/>
<text text-anchor="middle" x="1183.62" y="-59.5" font-family="Helvetica,sans-Serif" font-size="10.00">QPainterPath</text>
</a>
</g>
</g>
<!-- Node13&#45;&gt;Node14 -->
<g id="edge13_Node000013_Node000014" class="edge">
<title>Node13&#45;&gt;Node14</title>
<g id="a_edge13_Node000013_Node000014"><a xlink:title=" ">
<path fill="none" stroke="#63b8ff" d="M1089,-113.98C1106.85,-104.69 1135.69,-89.69 1156.84,-78.68"/>
<polygon fill="#63b8ff" stroke="#63b8ff" points="1158.22,-81.91 1165.47,-74.19 1154.99,-75.7 1158.22,-81.91"/>
</a>
</g>
</g>
<!-- Node15 -->
<g id="Node000015" class="node">
<title>Node15</title>
<g id="a_Node000015"><a xlink:title=" ">
<polygon fill="#e0e0e0" stroke="#999999" points="1127.88,-73 1071.38,-73 1071.38,-54.5 1127.88,-54.5 1127.88,-73"/>
<text text-anchor="middle" x="1099.62" y="-59.5" font-family="Helvetica,sans-Serif" font-size="10.00">QPixmap</text>
</a>
</g>
</g>
<!-- Node13&#45;&gt;Node15 -->
<g id="edge14_Node000013_Node000015" class="edge">
<title>Node13&#45;&gt;Node15</title>
<g id="a_edge14_Node000013_Node000015"><a xlink:title=" ">
<path fill="none" stroke="#63b8ff" d="M1076.61,-113.98C1080.32,-106.05 1085.98,-93.94 1090.75,-83.72"/>
<polygon fill="#63b8ff" stroke="#63b8ff" points="1093.92,-85.22 1094.98,-74.68 1087.58,-82.25 1093.92,-85.22"/>
</a>
</g>
</g>
<!-- Node16 -->
<g id="Node000016" class="node">
<title>Node16</title>
<g id="a_Node000016"><a xlink:href="path__markers__manager_8h.html" target="_top" xlink:title=" ">
<polygon fill="#fff0f0" stroke="red" points="1053.12,-73 926.12,-73 926.12,-54.5 1053.12,-54.5 1053.12,-73"/>
<text text-anchor="middle" x="989.62" y="-59.5" font-family="Helvetica,sans-Serif" font-size="10.00">path_markers_manager.h</text>
</a>
</g>
</g>
<!-- Node13&#45;&gt;Node16 -->
<g id="edge15_Node000013_Node000016" class="edge">
<title>Node13&#45;&gt;Node16</title>
<g id="a_edge15_Node000013_Node000016"><a xlink:title=" ">
<path fill="none" stroke="#63b8ff" d="M1060.38,-113.98C1047.58,-105.07 1027.23,-90.91 1011.63,-80.06"/>
<polygon fill="#63b8ff" stroke="#63b8ff" points="1013.64,-77.2 1003.44,-74.36 1009.65,-82.94 1013.64,-77.2"/>
</a>
</g>
</g>
<!-- Node16&#45;&gt;Node12 -->
<g id="edge16_Node000016_Node000012" class="edge">
<title>Node16&#45;&gt;Node12</title>
<g id="a_edge16_Node000016_Node000012"><a xlink:title=" ">
<path fill="none" stroke="#63b8ff" d="M959.41,-54.08C926.12,-44.53 872.79,-29.23 838.76,-19.47"/>
<polygon fill="#63b8ff" stroke="#63b8ff" points="840.04,-16.2 829.47,-16.8 838.11,-22.92 840.04,-16.2"/>
</a>
</g>
</g>
<!-- Node19 -->
<g id="Node000019" class="node">
<title>Node19</title>
<g id="a_Node000019"><a xlink:title=" ">
<polygon fill="#e0e0e0" stroke="#999999" points="390.62,-73 338.62,-73 338.62,-54.5 390.62,-54.5 390.62,-73"/>
<text text-anchor="middle" x="364.62" y="-59.5" font-family="Helvetica,sans-Serif" font-size="10.00">QObject</text>
</a>
</g>
</g>
<!-- Node18&#45;&gt;Node19 -->
<g id="edge19_Node000018_Node000019" class="edge">
<title>Node18&#45;&gt;Node19</title>
<g id="a_edge19_Node000018_Node000019"><a xlink:title=" ">
<path fill="none" stroke="#63b8ff" d="M311.57,-108.52C321.83,-100.05 334.95,-89.23 345.58,-80.47"/>
<polygon fill="#63b8ff" stroke="#63b8ff" points="347.48,-83.43 352.97,-74.37 343.03,-78.03 347.48,-83.43"/>
</a>
</g>
</g>
<!-- Node20 -->
<g id="Node000020" class="node">
<title>Node20</title>
<g id="a_Node000020"><a xlink:title=" ">
<polygon fill="#e0e0e0" stroke="#999999" points="320.62,-73 268.62,-73 268.62,-54.5 320.62,-54.5 320.62,-73"/>
<text text-anchor="middle" x="294.62" y="-59.5" font-family="Helvetica,sans-Serif" font-size="10.00">QPointF</text>
</a>
</g>
</g>
<!-- Node18&#45;&gt;Node20 -->
<g id="edge20_Node000018_Node000020" class="edge">
<title>Node18&#45;&gt;Node20</title>
<g id="a_edge20_Node000018_Node000020"><a xlink:title=" ">
<path fill="none" stroke="#63b8ff" d="M294.62,-108.52C294.62,-101.42 294.62,-92.67 294.62,-84.86"/>
<polygon fill="#63b8ff" stroke="#63b8ff" points="298.13,-84.92 294.63,-74.92 291.13,-84.92 298.13,-84.92"/>
</a>
</g>
</g>
<!-- Node21 -->
<g id="Node000021" class="node">
<title>Node21</title>
<g id="a_Node000021"><a xlink:title=" ">
<polygon fill="#e0e0e0" stroke="#999999" points="250.75,-73 202.5,-73 202.5,-54.5 250.75,-54.5 250.75,-73"/>
<text text-anchor="middle" x="226.62" y="-59.5" font-family="Helvetica,sans-Serif" font-size="10.00">QTimer</text>
</a>
</g>
</g>
<!-- Node18&#45;&gt;Node21 -->
<g id="edge21_Node000018_Node000021" class="edge">
<title>Node18&#45;&gt;Node21</title>
<g id="a_edge21_Node000018_Node000021"><a xlink:title=" ">
<path fill="none" stroke="#63b8ff" d="M278.16,-108.52C268.29,-100.14 255.71,-89.45 245.44,-80.73"/>
<polygon fill="#63b8ff" stroke="#63b8ff" points="247.86,-78.19 237.97,-74.38 243.32,-83.52 247.86,-78.19"/>
</a>
</g>
</g>
<!-- Node22&#45;&gt;Node11 -->
<g id="edge25_Node000022_Node000011" class="edge">
<title>Node22&#45;&gt;Node11</title>
<g id="a_edge25_Node000022_Node000011"><a xlink:title=" ">
<path fill="none" stroke="#63b8ff" d="M456.46,-108.52C474.6,-99.41 498.17,-87.58 516.22,-78.51"/>
<polygon fill="#63b8ff" stroke="#63b8ff" points="517.67,-81.7 525.04,-74.08 514.53,-75.44 517.67,-81.7"/>
</a>
</g>
</g>
<!-- Node22&#45;&gt;Node19 -->
<g id="edge24_Node000022_Node000019" class="edge">
<title>Node22&#45;&gt;Node19</title>
<g id="a_edge24_Node000022_Node000019"><a xlink:title=" ">
<path fill="none" stroke="#63b8ff" d="M413.13,-108.52C403.94,-100.22 392.24,-89.67 382.63,-81"/>
<polygon fill="#63b8ff" stroke="#63b8ff" points="385.11,-78.52 375.34,-74.42 380.42,-83.72 385.11,-78.52"/>
</a>
</g>
</g>
<!-- Node23 -->
<g id="Node000023" class="node">
<title>Node23</title>
<g id="a_Node000023"><a xlink:title=" ">
<polygon fill="#e0e0e0" stroke="#999999" points="450.75,-73 408.5,-73 408.5,-54.5 450.75,-54.5 450.75,-73"/>
<text text-anchor="middle" x="429.62" y="-59.5" font-family="Helvetica,sans-Serif" font-size="10.00">deque</text>
</a>
</g>
</g>
<!-- Node22&#45;&gt;Node23 -->
<g id="edge23_Node000022_Node000023" class="edge">
<title>Node22&#45;&gt;Node23</title>
<g id="a_edge23_Node000022_Node000023"><a xlink:title=" ">
<path fill="none" stroke="#63b8ff" d="M428.87,-108.52C428.99,-101.42 429.14,-92.67 429.28,-84.86"/>
<polygon fill="#63b8ff" stroke="#63b8ff" points="432.78,-84.98 429.45,-74.92 425.78,-84.85 432.78,-84.98"/>
</a>
</g>
</g>
<!-- Node29&#45;&gt;Node8 -->
<g id="edge32_Node000029_Node000008" class="edge">
<title>Node29&#45;&gt;Node8</title>
<g id="a_edge32_Node000029_Node000008"><a xlink:title=" ">
<path fill="none" stroke="#63b8ff" d="M1482.66,-173.51C1472.03,-164.19 1458.52,-151.25 1448.62,-138 1422.23,-102.67 1400.44,-55.49 1389.41,-29.49"/>
<polygon fill="#63b8ff" stroke="#63b8ff" points="1392.65,-28.15 1385.59,-20.25 1386.18,-30.83 1392.65,-28.15"/>
</a>
</g>
</g>
<!-- Node30 -->
<g id="Node000030" class="node">
<title>Node30</title>
<g id="a_Node000030"><a xlink:title=" ">
<polygon fill="#e0e0e0" stroke="#999999" points="1541.38,-132.75 1457.88,-132.75 1457.88,-114.25 1541.38,-114.25 1541.38,-132.75"/>
<text text-anchor="middle" x="1499.62" y="-119.25" font-family="Helvetica,sans-Serif" font-size="10.00">QKeySequence</text>
</a>
</g>
</g>
<!-- Node29&#45;&gt;Node30 -->
<g id="edge33_Node000029_Node000030" class="edge">
<title>Node29&#45;&gt;Node30</title>
<g id="a_edge33_Node000029_Node000030"><a xlink:title=" ">
<path fill="none" stroke="#63b8ff" d="M1499.62,-173.52C1499.62,-165.04 1499.62,-154.09 1499.62,-144.69"/>
<polygon fill="#63b8ff" stroke="#63b8ff" points="1503.13,-144.72 1499.63,-134.72 1496.13,-144.72 1503.13,-144.72"/>
</a>
</g>
</g>
<!-- Node31 -->
<g id="Node000031" class="node">
<title>Node31</title>
<g id="a_Node000031"><a xlink:title=" ">
<polygon fill="#e0e0e0" stroke="#999999" points="1619.38,-132.75 1559.88,-132.75 1559.88,-114.25 1619.38,-114.25 1619.38,-132.75"/>
<text text-anchor="middle" x="1589.62" y="-119.25" font-family="Helvetica,sans-Serif" font-size="10.00">QSettings</text>
</a>
</g>
</g>
<!-- Node29&#45;&gt;Node31 -->
<g id="edge34_Node000029_Node000031" class="edge">
<title>Node29&#45;&gt;Node31</title>
<g id="a_edge34_Node000029_Node000031"><a xlink:title=" ">
<path fill="none" stroke="#63b8ff" d="M1519.6,-173.52C1533.9,-163.5 1553.16,-150.03 1567.86,-139.74"/>
<polygon fill="#63b8ff" stroke="#63b8ff" points="1569.76,-142.68 1575.95,-134.07 1565.75,-136.94 1569.76,-142.68"/>
</a>
</g>
</g>
<!-- Node32 -->
<g id="Node000032" class="node">
<title>Node32</title>
<g id="a_Node000032"><a xlink:title=" ">
<polygon fill="#e0e0e0" stroke="#999999" points="1686.12,-132.75 1637.12,-132.75 1637.12,-114.25 1686.12,-114.25 1686.12,-132.75"/>
<text text-anchor="middle" x="1661.62" y="-119.25" font-family="Helvetica,sans-Serif" font-size="10.00">QString</text>
</a>
</g>
</g>
<!-- Node29&#45;&gt;Node32 -->
<g id="edge35_Node000029_Node000032" class="edge">
<title>Node29&#45;&gt;Node32</title>
<g id="a_edge35_Node000029_Node000032"><a xlink:title=" ">
<path fill="none" stroke="#63b8ff" d="M1536.69,-173.53C1562.51,-163.73 1597.74,-150.24 1628.62,-138 1629.11,-137.81 1629.61,-137.61 1630.1,-137.41"/>
<polygon fill="#63b8ff" stroke="#63b8ff" points="1631.33,-140.69 1639.3,-133.71 1628.72,-134.2 1631.33,-140.69"/>
</a>
</g>
</g>
<!-- Node34 -->
<g id="Node000034" class="node">
<title>Node34</title>
<g id="a_Node000034"><a xlink:href="blob__state_8h.html" target="_top" xlink:title=" ">
<polygon fill="white" stroke="#666666" points="578.25,-132.75 509,-132.75 509,-114.25 578.25,-114.25 578.25,-132.75"/>
<text text-anchor="middle" x="543.62" y="-119.25" font-family="Helvetica,sans-Serif" font-size="10.00">blob_state.h</text>
</a>
</g>
</g>
<!-- Node33&#45;&gt;Node34 -->
<g id="edge37_Node000033_Node000034" class="edge">
<title>Node33&#45;&gt;Node34</title>
<g id="a_edge37_Node000033_Node000034"><a xlink:title=" ">
<path fill="none" stroke="#63b8ff" d="M88.61,-178.76C96.8,-176.98 105.48,-175.28 113.62,-174 283.85,-147.33 330.6,-171.44 499.62,-138 502.11,-137.51 504.65,-136.93 507.2,-136.3"/>
<polygon fill="#63b8ff" stroke="#63b8ff" points="508.09,-139.68 516.8,-133.65 506.23,-132.94 508.09,-139.68"/>
</a>
</g>
</g>
<!-- Node34&#45;&gt;Node7 -->
<g id="edge40_Node000034_Node000007" class="edge">
<title>Node34&#45;&gt;Node7</title>
<g id="a_edge40_Node000034_Node000007"><a xlink:title=" ">
<path fill="none" stroke="#63b8ff" d="M568.03,-113.87C574.34,-111.95 581.18,-110.15 587.62,-109 868.95,-58.72 944.5,-92.3 1229.62,-73 1246.29,-71.87 1264.44,-70.49 1280.85,-69.17"/>
<polygon fill="#63b8ff" stroke="#63b8ff" points="1280.7,-72.7 1290.38,-68.4 1280.13,-65.72 1280.7,-72.7"/>
</a>
</g>
</g>
<!-- Node34&#45;&gt;Node11 -->
<g id="edge38_Node000034_Node000011" class="edge">
<title>Node34&#45;&gt;Node11</title>
<g id="a_edge38_Node000034_Node000011"><a xlink:title=" ">
<path fill="none" stroke="#63b8ff" d="M543.62,-113.98C543.62,-106.3 543.62,-94.72 543.62,-84.72"/>
<polygon fill="#63b8ff" stroke="#63b8ff" points="547.13,-84.82 543.63,-74.82 540.13,-84.82 547.13,-84.82"/>
</a>
</g>
</g>
<!-- Node34&#45;&gt;Node12 -->
<g id="edge39_Node000034_Node000012" class="edge">
<title>Node34&#45;&gt;Node12</title>
<g id="a_edge39_Node000034_Node000012"><a xlink:title=" ">
<path fill="none" stroke="#63b8ff" d="M563.83,-113.88C609.63,-94.33 721.59,-46.54 775.98,-23.33"/>
<polygon fill="#63b8ff" stroke="#63b8ff" points="777.14,-26.64 784.96,-19.5 774.39,-20.2 777.14,-26.64"/>
</a>
</g>
</g>
<!-- Node35&#45;&gt;Node34 -->
<g id="edge42_Node000035_Node000034" class="edge">
<title>Node35&#45;&gt;Node34</title>
<g id="a_edge42_Node000035_Node000034"><a xlink:title=" ">
<path fill="none" stroke="#63b8ff" d="M673.95,-178.87C648.34,-168.19 604.47,-149.88 574.78,-137.5"/>
<polygon fill="#63b8ff" stroke="#63b8ff" points="576.51,-134.43 565.94,-133.81 573.82,-140.89 576.51,-134.43"/>
</a>
</g>
</g>
<!-- Node36&#45;&gt;Node34 -->
<g id="edge44_Node000036_Node000034" class="edge">
<title>Node36&#45;&gt;Node34</title>
<g id="a_edge44_Node000036_Node000034"><a xlink:title=" ">
<path fill="none" stroke="#63b8ff" d="M773.13,-176C770.26,-175.31 767.4,-174.64 764.62,-174 686.37,-156.09 665.42,-157.8 587.62,-138 585.62,-137.49 583.57,-136.95 581.51,-136.38"/>
<polygon fill="#63b8ff" stroke="#63b8ff" points="582.53,-133.03 571.95,-133.62 580.59,-139.76 582.53,-133.03"/>
</a>
</g>
</g>
</g>
</svg>

<g id="navigator" transform="translate(0 0)" fill="#404254">
  <rect fill="#f2f5e9" fill-opacity="0.5" stroke="#606060" stroke-width=".5" x="0" y="0" width="60" height="60"/>
  <use id="zoomplus" xlink:href="#zoomPlus" x="17" y="9" onmousedown="handleZoom(evt,'in')"/>
  <use id="zoomminus" xlink:href="#zoomMin" x="42" y="9" onmousedown="handleZoom(evt,'out')"/>
  <use id="reset" xlink:href="#resetDef" x="30" y="36" onmousedown="handleReset()"/>
   <use id="arrowup" xlink:href="#arrowUp" x="0" y="0" onmousedown="handlePan(0,-1)"/>
  <use id="arrowright" xlink:href="#arrowRight" x="0" y="0" onmousedown="handlePan(1,0)"/>
  <use id="arrowdown" xlink:href="#arrowDown" x="0" y="0" onmousedown="handlePan(0,1)"/>
  <use id="arrowleft" xlink:href="#arrowLeft" x="0" y="0" onmousedown="handlePan(-1,0)"/>
</g>
<svg viewBox="0 0 15 15" width="100%" height="30px" preserveAspectRatio="xMaxYMin meet">
 <g id="arrow_out" transform="scale(0.3 0.3)">
  <a xlink:href="blob__animation_8cpp__incl_org.svg" target="_base">
   <rect id="button" ry="5" rx="5" y="6" x="6" height="38" width="38"
        fill="#f2f5e9" fill-opacity="0.5" stroke="#606060" stroke-width="1.0"/>
   <path id="arrow"
     d="M 11.500037,31.436501 C 11.940474,20.09759 22.043105,11.32322 32.158766,21.979434 L 37.068811,17.246167 C 37.068811,17.246167 37.088388,32 37.088388,32 L 22.160133,31.978069 C 22.160133,31.978069 26.997745,27.140456 26.997745,27.140456 C 18.528582,18.264221 13.291696,25.230495 11.500037,31.436501 z"
     style="fill:#404040;"/>
  </a>
 </g>
</svg>

<style type='text/css'>
<![CDATA[
[data-mouse-over-selected='false'] { opacity: 0.7; }
[data-mouse-over-selected='true']  { opacity: 1.0; }
]]>
</style>
<script type="application/ecmascript"><![CDATA[
document.addEventListener('DOMContentLoaded', (event) => {
  highlightEdges();
  highlightAdjacentNodes();
});
]]></script>
</svg>
