<?xml version="1.0" encoding="UTF-8" standalone="no"?>
<!DOCTYPE svg PUBLIC "-//W3C//DTD SVG 1.1//EN"
 "http://www.w3.org/Graphics/SVG/1.1/DTD/svg11.dtd">
<!-- Generated by graphviz version 12.2.1 (0)
 -->
<!-- Title: src/blob/utils/blob_path.cpp Pages: 1 -->
<svg width="217pt" height="146pt"
 viewBox="0.00 0.00 217.38 146.00" xmlns="http://www.w3.org/2000/svg" xmlns:xlink="http://www.w3.org/1999/xlink">

<svg id="main" version="1.1" xmlns="http://www.w3.org/2000/svg" xmlns:xlink="http://www.w3.org/1999/xlink" xml:space="preserve">

<style type="text/css"><![CDATA[
.node, .edge {opacity: 0.7;}
.node.selected, .edge.selected {opacity: 1;}
.edge:hover path { stroke: red; }
.edge:hover polygon { stroke: red; fill: red; }
]]></style>
<script type="application/ecmascript" xlink:href="svg.min.js"/>
<svg id="graph" class="graph">
<g id="graph0" class="graph" transform="scale(1 1) rotate(0) translate(4 142)">
<title>src/blob/utils/blob_path.cpp</title>
<!-- Node1 -->
<g id="Node000001" class="node">
<title>Node1</title>
<g id="a_Node000001"><a xlink:title=" ">
<polygon fill="#999999" stroke="#666666" points="126.5,-138 34,-138 34,-109 126.5,-109 126.5,-138"/>
<text text-anchor="start" x="42" y="-124.5" font-family="Helvetica,sans-Serif" font-size="10.00">src/blob/utils/blob</text>
<text text-anchor="middle" x="80.25" y="-114" font-family="Helvetica,sans-Serif" font-size="10.00">_path.cpp</text>
</a>
</g>
</g>
<!-- Node2 -->
<g id="Node000002" class="node">
<title>Node2</title>
<g id="a_Node000002"><a xlink:href="blob__path_8h.html" target="_top" xlink:title=" ">
<polygon fill="white" stroke="#666666" points="70.38,-73 4.12,-73 4.12,-54.5 70.38,-54.5 70.38,-73"/>
<text text-anchor="middle" x="37.25" y="-59.5" font-family="Helvetica,sans-Serif" font-size="10.00">blob_path.h</text>
</a>
</g>
</g>
<!-- Node1&#45;&gt;Node2 -->
<g id="edge1_Node000001_Node000002" class="edge">
<title>Node1&#45;&gt;Node2</title>
<g id="a_edge1_Node000001_Node000002"><a xlink:title=" ">
<path fill="none" stroke="#63b8ff" d="M69.84,-108.52C64.04,-100.74 56.77,-90.96 50.56,-82.63"/>
<polygon fill="#63b8ff" stroke="#63b8ff" points="53.38,-80.55 44.6,-74.62 47.76,-84.73 53.38,-80.55"/>
</a>
</g>
</g>
<!-- Node4 -->
<g id="Node000004" class="node">
<title>Node4</title>
<g id="a_Node000004"><a xlink:href="blob__math_8h.html" target="_top" xlink:title=" ">
<polygon fill="white" stroke="#666666" points="157.88,-73 88.62,-73 88.62,-54.5 157.88,-54.5 157.88,-73"/>
<text text-anchor="middle" x="123.25" y="-59.5" font-family="Helvetica,sans-Serif" font-size="10.00">blob_math.h</text>
</a>
</g>
</g>
<!-- Node1&#45;&gt;Node4 -->
<g id="edge3_Node000001_Node000004" class="edge">
<title>Node1&#45;&gt;Node4</title>
<g id="a_edge3_Node000001_Node000004"><a xlink:title=" ">
<path fill="none" stroke="#63b8ff" d="M90.66,-108.52C96.46,-100.74 103.73,-90.96 109.94,-82.63"/>
<polygon fill="#63b8ff" stroke="#63b8ff" points="112.74,-84.73 115.9,-74.62 107.12,-80.55 112.74,-84.73"/>
</a>
</g>
</g>
<!-- Node3 -->
<g id="Node000003" class="node">
<title>Node3</title>
<g id="a_Node000003"><a xlink:title=" ">
<polygon fill="#e0e0e0" stroke="#999999" points="74.5,-18.5 0,-18.5 0,0 74.5,0 74.5,-18.5"/>
<text text-anchor="middle" x="37.25" y="-5" font-family="Helvetica,sans-Serif" font-size="10.00">QPainterPath</text>
</a>
</g>
</g>
<!-- Node2&#45;&gt;Node3 -->
<g id="edge2_Node000002_Node000003" class="edge">
<title>Node2&#45;&gt;Node3</title>
<g id="a_edge2_Node000002_Node000003"><a xlink:title=" ">
<path fill="none" stroke="#63b8ff" d="M37.25,-54.08C37.25,-47.58 37.25,-38.42 37.25,-30.16"/>
<polygon fill="#63b8ff" stroke="#63b8ff" points="40.75,-30.27 37.25,-20.27 33.75,-30.27 40.75,-30.27"/>
</a>
</g>
</g>
<!-- Node5 -->
<g id="Node000005" class="node">
<title>Node5</title>
<g id="a_Node000005"><a xlink:title=" ">
<polygon fill="#e0e0e0" stroke="#999999" points="149.12,-18.5 93.38,-18.5 93.38,0 149.12,0 149.12,-18.5"/>
<text text-anchor="middle" x="121.25" y="-5" font-family="Helvetica,sans-Serif" font-size="10.00">concepts</text>
</a>
</g>
</g>
<!-- Node4&#45;&gt;Node5 -->
<g id="edge4_Node000004_Node000005" class="edge">
<title>Node4&#45;&gt;Node5</title>
<g id="a_edge4_Node000004_Node000005"><a xlink:title=" ">
<path fill="none" stroke="#63b8ff" d="M122.92,-54.08C122.67,-47.58 122.32,-38.42 122.01,-30.16"/>
<polygon fill="#63b8ff" stroke="#63b8ff" points="125.51,-30.13 121.63,-20.27 118.52,-30.4 125.51,-30.13"/>
</a>
</g>
</g>
<!-- Node6 -->
<g id="Node000006" class="node">
<title>Node6</title>
<g id="a_Node000006"><a xlink:title=" ">
<polygon fill="#e0e0e0" stroke="#999999" points="209.38,-18.5 167.12,-18.5 167.12,0 209.38,0 209.38,-18.5"/>
<text text-anchor="middle" x="188.25" y="-5" font-family="Helvetica,sans-Serif" font-size="10.00">vector</text>
</a>
</g>
</g>
<!-- Node4&#45;&gt;Node6 -->
<g id="edge5_Node000004_Node000006" class="edge">
<title>Node4&#45;&gt;Node6</title>
<g id="a_edge5_Node000004_Node000006"><a xlink:title=" ">
<path fill="none" stroke="#63b8ff" d="M133.98,-54.08C143.45,-46.44 157.47,-35.11 168.89,-25.88"/>
<polygon fill="#63b8ff" stroke="#63b8ff" points="170.96,-28.72 176.54,-19.71 166.56,-23.27 170.96,-28.72"/>
</a>
</g>
</g>
</g>
</svg>
</svg>

<style type='text/css'>
<![CDATA[
[data-mouse-over-selected='false'] { opacity: 0.7; }
[data-mouse-over-selected='true']  { opacity: 1.0; }
]]>
</style>
<script type="application/ecmascript"><![CDATA[
document.addEventListener('DOMContentLoaded', (event) => {
  highlightEdges();
  highlightAdjacentNodes();
});
]]></script>
</svg>
