<?xml version="1.0" encoding="UTF-8" standalone="no"?>
<!DOCTYPE svg PUBLIC "-//W3C//DTD SVG 1.1//EN"
 "http://www.w3.org/Graphics/SVG/1.1/DTD/svg11.dtd">
<!-- Generated by graphviz version 12.2.1 (0)
 -->
<!-- Title: src/blob/blob_config.h Pages: 1 -->
<!--zoomable 222 -->

<svg id="main" version="1.1" xmlns="http://www.w3.org/2000/svg" xmlns:xlink="http://www.w3.org/1999/xlink" xml:space="preserve" onload="init(evt)">

<style type="text/css"><![CDATA[
.node, .edge {opacity: 0.7;}
.node.selected, .edge.selected {opacity: 1;}
.edge:hover path { stroke: red; }
.edge:hover polygon { stroke: red; fill: red; }
]]></style>

<defs>
  <circle id="rim" cx="0" cy="0" r="7"/>
  <circle id="rim2" cx="0" cy="0" r="3.5"/>
  <g id="zoomPlus">
    <use xlink:href="#rim" fill="#404040"><set attributeName="fill" to="#808080" begin="zoomplus.mouseover" end="zoomplus.mouseout"/></use>
    <path d="M-4,0h8M0,-4v8" fill="none" stroke="white" stroke-width="1.5" pointer-events="none"/>
  </g>
  <g id="zoomMin">
    <use xlink:href="#rim" fill="#404040"><set attributeName="fill" to="#808080" begin="zoomminus.mouseover" end="zoomminus.mouseout"/></use>
    <path d="M-4,0h8" fill="none" stroke="white" stroke-width="1.5" pointer-events="none"/>
  </g>
  <g id="arrowUp" transform="translate(30 24)">
    <use xlink:href="#rim"/>
    <path pointer-events="none" fill="none" stroke="white" stroke-width="1.5" d="M0,-3.0v7 M-2.5,-0.5L0,-3.0L2.5,-0.5"/>
  </g>
  <g id="arrowRight" transform="rotate(90) translate(36 -43)">
    <use xlink:href="#rim"/>
    <path pointer-events="none" fill="none" stroke="white" stroke-width="1.5" d="M0,-3.0v7 M-2.5,-0.5L0,-3.0L2.5,-0.5"/>
  </g>
  <g id="arrowDown" transform="rotate(180) translate(-30 -48)">
    <use xlink:href="#rim"/>
    <path pointer-events="none" fill="none" stroke="white" stroke-width="1.5" d="M0,-3.0v7 M-2.5,-0.5L0,-3.0L2.5,-0.5"/>
  </g>
  <g id="arrowLeft" transform="rotate(270) translate(-36 17)">
    <use xlink:href="#rim"/>
    <path pointer-events="none" fill="none" stroke="white" stroke-width="1.5" d="M0,-3.0v7 M-2.5,-0.5L0,-3.0L2.5,-0.5"/>
  </g>
  <g id="resetDef">
    <use xlink:href="#rim2" fill="#404040"><set attributeName="fill" to="#808080" begin="reset.mouseover" end="reset.mouseout"/></use>
  </g>
</defs>
<script type="application/ecmascript">
var viewWidth = 857;
var viewHeight = 222;
var sectionId = 'dynsection-1';
</script>
<script type="application/ecmascript" xlink:href="svg.min.js"/>
<svg id="graph" class="graph">
<g id="viewport">
<title>src/blob/blob_config.h</title>
<!-- Node1 -->
<g id="Node000001" class="node">
<title>Node1</title>
<g id="a_Node000001"><a xlink:title=" ">
<polygon fill="#999999" stroke="#666666" points="473.38,-213.5 362.12,-213.5 362.12,-195 473.38,-195 473.38,-213.5"/>
<text text-anchor="middle" x="417.75" y="-200" font-family="Helvetica,sans-Serif" font-size="10.00">src/blob/blob_config.h</text>
</a>
</g>
</g>
<!-- Node2 -->
<g id="Node000002" class="node">
<title>Node2</title>
<g id="a_Node000002"><a xlink:href="blob__animation_8h.html" target="_top" xlink:title=" ">
<polygon fill="white" stroke="#666666" points="294.38,-94 201.12,-94 201.12,-65 294.38,-65 294.38,-94"/>
<text text-anchor="start" x="209.12" y="-80.5" font-family="Helvetica,sans-Serif" font-size="10.00">src/blob/core/blob</text>
<text text-anchor="middle" x="247.75" y="-70" font-family="Helvetica,sans-Serif" font-size="10.00">_animation.h</text>
</a>
</g>
</g>
<!-- Node1&#45;&gt;Node2 -->
<g id="edge1_Node000001_Node000002" class="edge">
<title>Node1&#45;&gt;Node2</title>
<g id="a_edge1_Node000001_Node000002"><a xlink:title=" ">
<path fill="none" stroke="#63b8ff" d="M369.86,-191.17C348.47,-184.17 323.84,-173.76 304.75,-159 281.7,-141.18 263.77,-111.6 254.57,-94.29"/>
<polygon fill="#63b8ff" stroke="#63b8ff" points="368.67,-194.46 379.26,-194.07 370.74,-187.77 368.67,-194.46"/>
</a>
</g>
</g>
<!-- Node7 -->
<g id="Node000007" class="node">
<title>Node7</title>
<g id="a_Node000007"><a xlink:href="blob__physics_8cpp.html" target="_top" xlink:title=" ">
<polygon fill="white" stroke="#666666" points="652.5,-159 545,-159 545,-130 652.5,-130 652.5,-159"/>
<text text-anchor="start" x="553" y="-145.5" font-family="Helvetica,sans-Serif" font-size="10.00">src/blob/physics/blob</text>
<text text-anchor="middle" x="598.75" y="-135" font-family="Helvetica,sans-Serif" font-size="10.00">_physics.cpp</text>
</a>
</g>
</g>
<!-- Node1&#45;&gt;Node7 -->
<g id="edge6_Node000001_Node000007" class="edge">
<title>Node1&#45;&gt;Node7</title>
<g id="a_edge6_Node000001_Node000007"><a xlink:title=" ">
<path fill="none" stroke="#63b8ff" d="M455.75,-191.13C484.71,-181.89 524.62,-169.15 554.93,-159.48"/>
<polygon fill="#63b8ff" stroke="#63b8ff" points="454.75,-187.77 446.29,-194.14 456.88,-194.44 454.75,-187.77"/>
</a>
</g>
</g>
<!-- Node8 -->
<g id="Node000008" class="node">
<title>Node8</title>
<g id="a_Node000008"><a xlink:href="blob__renderer_8h.html" target="_top" xlink:title=" ">
<polygon fill="white" stroke="#666666" points="407.38,-159 314.12,-159 314.12,-130 407.38,-130 407.38,-159"/>
<text text-anchor="start" x="322.12" y="-145.5" font-family="Helvetica,sans-Serif" font-size="10.00">src/blob/rendering</text>
<text text-anchor="middle" x="360.75" y="-135" font-family="Helvetica,sans-Serif" font-size="10.00">/blob_renderer.h</text>
</a>
</g>
</g>
<!-- Node1&#45;&gt;Node8 -->
<g id="edge7_Node000001_Node000008" class="edge">
<title>Node1&#45;&gt;Node8</title>
<g id="a_edge7_Node000001_Node000008"><a xlink:title=" ">
<path fill="none" stroke="#63b8ff" d="M401.29,-186.57C392.8,-177.97 382.56,-167.6 374.5,-159.43"/>
<polygon fill="#63b8ff" stroke="#63b8ff" points="398.76,-188.99 408.28,-193.65 403.74,-184.08 398.76,-188.99"/>
</a>
</g>
</g>
<!-- Node10 -->
<g id="Node000010" class="node">
<title>Node10</title>
<g id="a_Node000010"><a xlink:href="blob__state_8h.html" target="_top" xlink:title=" ">
<polygon fill="white" stroke="#666666" points="526.5,-159 425,-159 425,-130 526.5,-130 526.5,-159"/>
<text text-anchor="start" x="433" y="-145.5" font-family="Helvetica,sans-Serif" font-size="10.00">src/blob/states/blob</text>
<text text-anchor="middle" x="475.75" y="-135" font-family="Helvetica,sans-Serif" font-size="10.00">_state.h</text>
</a>
</g>
</g>
<!-- Node1&#45;&gt;Node10 -->
<g id="edge10_Node000001_Node000010" class="edge">
<title>Node1&#45;&gt;Node10</title>
<g id="a_edge10_Node000001_Node000010"><a xlink:title=" ">
<path fill="none" stroke="#63b8ff" d="M434.23,-186.84C442.92,-178.19 453.47,-167.69 461.76,-159.43"/>
<polygon fill="#63b8ff" stroke="#63b8ff" points="432,-184.12 427.38,-193.66 436.94,-189.09 432,-184.12"/>
</a>
</g>
</g>
<!-- Node3 -->
<g id="Node000003" class="node">
<title>Node3</title>
<g id="a_Node000003"><a xlink:href="app__instance__manager_8cpp.html" target="_top" xlink:title=" ">
<polygon fill="white" stroke="#666666" points="119.5,-29 0,-29 0,0 119.5,0 119.5,-29"/>
<text text-anchor="start" x="8" y="-15.5" font-family="Helvetica,sans-Serif" font-size="10.00">src/app/managers/app</text>
<text text-anchor="middle" x="59.75" y="-5" font-family="Helvetica,sans-Serif" font-size="10.00">_instance_manager.cpp</text>
</a>
</g>
</g>
<!-- Node2&#45;&gt;Node3 -->
<g id="edge2_Node000002_Node000003" class="edge">
<title>Node2&#45;&gt;Node3</title>
<g id="a_edge2_Node000002_Node000003"><a xlink:title=" ">
<path fill="none" stroke="#63b8ff" d="M195.43,-60.97C165.73,-51.02 129.08,-38.73 101.36,-29.44"/>
<polygon fill="#63b8ff" stroke="#63b8ff" points="194,-64.18 204.59,-64.04 196.22,-57.54 194,-64.18"/>
</a>
</g>
</g>
<!-- Node4 -->
<g id="Node000004" class="node">
<title>Node4</title>
<g id="a_Node000004"><a xlink:href="blob__animation_8cpp.html" target="_top" xlink:title=" ">
<polygon fill="white" stroke="#666666" points="581.38,-29 488.12,-29 488.12,0 581.38,0 581.38,-29"/>
<text text-anchor="start" x="496.12" y="-15.5" font-family="Helvetica,sans-Serif" font-size="10.00">src/blob/core/blob</text>
<text text-anchor="middle" x="534.75" y="-5" font-family="Helvetica,sans-Serif" font-size="10.00">_animation.cpp</text>
</a>
</g>
</g>
<!-- Node2&#45;&gt;Node4 -->
<g id="edge3_Node000002_Node000004" class="edge">
<title>Node2&#45;&gt;Node4</title>
<g id="a_edge3_Node000002_Node000004"><a xlink:title=" ">
<path fill="none" stroke="#63b8ff" d="M305.57,-64.64C383.07,-47.54 404.58,-45.56 478.75,-29 481.68,-28.35 484.69,-27.66 487.72,-26.96"/>
<polygon fill="#63b8ff" stroke="#63b8ff" points="305.26,-61.13 296.25,-66.71 306.78,-67.96 305.26,-61.13"/>
</a>
</g>
</g>
<!-- Node5 -->
<g id="Node000005" class="node">
<title>Node5</title>
<g id="a_Node000005"><a xlink:href="resize__event__filter_8cpp.html" target="_top" xlink:title=" ">
<polygon fill="white" stroke="#666666" points="239.88,-29 137.62,-29 137.62,0 239.88,0 239.88,-29"/>
<text text-anchor="start" x="145.62" y="-15.5" font-family="Helvetica,sans-Serif" font-size="10.00">src/util/resize_event</text>
<text text-anchor="middle" x="188.75" y="-5" font-family="Helvetica,sans-Serif" font-size="10.00">_filter.cpp</text>
</a>
</g>
</g>
<!-- Node2&#45;&gt;Node5 -->
<g id="edge4_Node000002_Node000005" class="edge">
<title>Node2&#45;&gt;Node5</title>
<g id="a_edge4_Node000002_Node000005"><a xlink:title=" ">
<path fill="none" stroke="#63b8ff" d="M227.03,-56.38C218.64,-47.42 209.21,-37.35 201.81,-29.44"/>
<polygon fill="#63b8ff" stroke="#63b8ff" points="224.23,-58.51 233.62,-63.41 229.34,-53.72 224.23,-58.51"/>
</a>
</g>
</g>
<!-- Node6 -->
<g id="Node000006" class="node">
<title>Node6</title>
<g id="a_Node000006"><a xlink:href="wavelength__utilities_8cpp.html" target="_top" xlink:title=" ">
<polygon fill="white" stroke="#666666" points="353.88,-29 257.62,-29 257.62,0 353.88,0 353.88,-29"/>
<text text-anchor="start" x="265.62" y="-15.5" font-family="Helvetica,sans-Serif" font-size="10.00">src/util/wavelength</text>
<text text-anchor="middle" x="305.75" y="-5" font-family="Helvetica,sans-Serif" font-size="10.00">_utilities.cpp</text>
</a>
</g>
</g>
<!-- Node2&#45;&gt;Node6 -->
<g id="edge5_Node000002_Node000006" class="edge">
<title>Node2&#45;&gt;Node6</title>
<g id="a_edge5_Node000002_Node000006"><a xlink:title=" ">
<path fill="none" stroke="#63b8ff" d="M268.37,-56.1C276.56,-47.21 285.71,-37.27 292.91,-29.44"/>
<polygon fill="#63b8ff" stroke="#63b8ff" points="265.85,-53.68 261.65,-63.4 271,-58.42 265.85,-53.68"/>
</a>
</g>
</g>
<!-- Node8&#45;&gt;Node2 -->
<g id="edge8_Node000008_Node000002" class="edge">
<title>Node8&#45;&gt;Node2</title>
<g id="a_edge8_Node000008_Node000002"><a xlink:title=" ">
<path fill="none" stroke="#63b8ff" d="M325.97,-124.11C308.77,-114.52 288.4,-103.16 272.76,-94.44"/>
<polygon fill="#63b8ff" stroke="#63b8ff" points="323.91,-126.97 334.35,-128.78 327.32,-120.85 323.91,-126.97"/>
</a>
</g>
</g>
<!-- Node9 -->
<g id="Node000009" class="node">
<title>Node9</title>
<g id="a_Node000009"><a xlink:href="blob__renderer_8cpp.html" target="_top" xlink:title=" ">
<polygon fill="white" stroke="#666666" points="408.88,-94 312.62,-94 312.62,-65 408.88,-65 408.88,-94"/>
<text text-anchor="start" x="320.62" y="-80.5" font-family="Helvetica,sans-Serif" font-size="10.00">src/blob/rendering</text>
<text text-anchor="middle" x="360.75" y="-70" font-family="Helvetica,sans-Serif" font-size="10.00">/blob_renderer.cpp</text>
</a>
</g>
</g>
<!-- Node8&#45;&gt;Node9 -->
<g id="edge9_Node000008_Node000009" class="edge">
<title>Node8&#45;&gt;Node9</title>
<g id="a_edge9_Node000008_Node000009"><a xlink:title=" ">
<path fill="none" stroke="#63b8ff" d="M360.75,-118.01C360.75,-109.96 360.75,-101.37 360.75,-94.44"/>
<polygon fill="#63b8ff" stroke="#63b8ff" points="357.25,-118 360.75,-128 364.25,-118 357.25,-118"/>
</a>
</g>
</g>
<!-- Node11 -->
<g id="Node000011" class="node">
<title>Node11</title>
<g id="a_Node000011"><a xlink:href="idle__state_8h.html" target="_top" xlink:title=" ">
<polygon fill="white" stroke="#666666" points="525,-94 426.5,-94 426.5,-65 525,-65 525,-94"/>
<text text-anchor="start" x="434.5" y="-80.5" font-family="Helvetica,sans-Serif" font-size="10.00">src/blob/states/idle</text>
<text text-anchor="middle" x="475.75" y="-70" font-family="Helvetica,sans-Serif" font-size="10.00">_state.h</text>
</a>
</g>
</g>
<!-- Node10&#45;&gt;Node11 -->
<g id="edge11_Node000010_Node000011" class="edge">
<title>Node10&#45;&gt;Node11</title>
<g id="a_edge11_Node000010_Node000011"><a xlink:title=" ">
<path fill="none" stroke="#63b8ff" d="M475.75,-118.01C475.75,-109.96 475.75,-101.37 475.75,-94.44"/>
<polygon fill="#63b8ff" stroke="#63b8ff" points="472.25,-118 475.75,-128 479.25,-118 472.25,-118"/>
</a>
</g>
</g>
<!-- Node13 -->
<g id="Node000013" class="node">
<title>Node13</title>
<g id="a_Node000013"><a xlink:href="moving__state_8h.html" target="_top" xlink:title=" ">
<polygon fill="white" stroke="#666666" points="658.25,-94 543.25,-94 543.25,-65 658.25,-65 658.25,-94"/>
<text text-anchor="start" x="551.25" y="-80.5" font-family="Helvetica,sans-Serif" font-size="10.00">src/blob/states/moving</text>
<text text-anchor="middle" x="600.75" y="-70" font-family="Helvetica,sans-Serif" font-size="10.00">_state.h</text>
</a>
</g>
</g>
<!-- Node10&#45;&gt;Node13 -->
<g id="edge14_Node000010_Node000013" class="edge">
<title>Node10&#45;&gt;Node13</title>
<g id="a_edge14_Node000010_Node000013"><a xlink:title=" ">
<path fill="none" stroke="#63b8ff" d="M513.69,-124.38C532.83,-114.73 555.62,-103.24 573.09,-94.44"/>
<polygon fill="#63b8ff" stroke="#63b8ff" points="512.2,-121.21 504.84,-128.84 515.35,-127.46 512.2,-121.21"/>
</a>
</g>
</g>
<!-- Node15 -->
<g id="Node000015" class="node">
<title>Node15</title>
<g id="a_Node000015"><a xlink:href="resizing__state_8h.html" target="_top" xlink:title=" ">
<polygon fill="white" stroke="#666666" points="793,-94 676.5,-94 676.5,-65 793,-65 793,-94"/>
<text text-anchor="start" x="684.5" y="-80.5" font-family="Helvetica,sans-Serif" font-size="10.00">src/blob/states/resizing</text>
<text text-anchor="middle" x="734.75" y="-70" font-family="Helvetica,sans-Serif" font-size="10.00">_state.h</text>
</a>
</g>
</g>
<!-- Node10&#45;&gt;Node15 -->
<g id="edge17_Node000010_Node000015" class="edge">
<title>Node10&#45;&gt;Node15</title>
<g id="a_edge17_Node000010_Node000015"><a xlink:title=" ">
<path fill="none" stroke="#63b8ff" d="M537.95,-128.37C580.33,-118.06 636.05,-104.51 677.37,-94.46"/>
<polygon fill="#63b8ff" stroke="#63b8ff" points="537.28,-124.93 528.39,-130.7 538.93,-131.73 537.28,-124.93"/>
</a>
</g>
</g>
<!-- Node11&#45;&gt;Node4 -->
<g id="edge12_Node000011_Node000004" class="edge">
<title>Node11&#45;&gt;Node4</title>
<g id="a_edge12_Node000011_Node000004"><a xlink:title=" ">
<path fill="none" stroke="#63b8ff" d="M496.47,-56.38C504.86,-47.42 514.29,-37.35 521.69,-29.44"/>
<polygon fill="#63b8ff" stroke="#63b8ff" points="494.16,-53.72 489.88,-63.41 499.27,-58.51 494.16,-53.72"/>
</a>
</g>
</g>
<!-- Node12 -->
<g id="Node000012" class="node">
<title>Node12</title>
<g id="a_Node000012"><a xlink:href="idle__state_8cpp.html" target="_top" xlink:title=" ">
<polygon fill="white" stroke="#666666" points="470,-29 371.5,-29 371.5,0 470,0 470,-29"/>
<text text-anchor="start" x="379.5" y="-15.5" font-family="Helvetica,sans-Serif" font-size="10.00">src/blob/states/idle</text>
<text text-anchor="middle" x="420.75" y="-5" font-family="Helvetica,sans-Serif" font-size="10.00">_state.cpp</text>
</a>
</g>
</g>
<!-- Node11&#45;&gt;Node12 -->
<g id="edge13_Node000011_Node000012" class="edge">
<title>Node11&#45;&gt;Node12</title>
<g id="a_edge13_Node000011_Node000012"><a xlink:title=" ">
<path fill="none" stroke="#63b8ff" d="M456.19,-56.1C448.43,-47.21 439.75,-37.27 432.92,-29.44"/>
<polygon fill="#63b8ff" stroke="#63b8ff" points="453.34,-58.15 462.55,-63.38 458.61,-53.54 453.34,-58.15"/>
</a>
</g>
</g>
<!-- Node13&#45;&gt;Node4 -->
<g id="edge15_Node000013_Node000004" class="edge">
<title>Node13&#45;&gt;Node4</title>
<g id="a_edge15_Node000013_Node000004"><a xlink:title=" ">
<path fill="none" stroke="#63b8ff" d="M577.86,-56.65C568.41,-47.63 557.72,-37.43 549.36,-29.44"/>
<polygon fill="#63b8ff" stroke="#63b8ff" points="575.36,-59.1 585.01,-63.47 580.19,-54.04 575.36,-59.1"/>
</a>
</g>
</g>
<!-- Node14 -->
<g id="Node000014" class="node">
<title>Node14</title>
<g id="a_Node000014"><a xlink:href="moving__state_8cpp.html" target="_top" xlink:title=" ">
<polygon fill="white" stroke="#666666" points="714.25,-29 599.25,-29 599.25,0 714.25,0 714.25,-29"/>
<text text-anchor="start" x="607.25" y="-15.5" font-family="Helvetica,sans-Serif" font-size="10.00">src/blob/states/moving</text>
<text text-anchor="middle" x="656.75" y="-5" font-family="Helvetica,sans-Serif" font-size="10.00">_state.cpp</text>
</a>
</g>
</g>
<!-- Node13&#45;&gt;Node14 -->
<g id="edge16_Node000013_Node000014" class="edge">
<title>Node13&#45;&gt;Node14</title>
<g id="a_edge16_Node000013_Node000014"><a xlink:title=" ">
<path fill="none" stroke="#63b8ff" d="M620.66,-56.1C628.56,-47.21 637.4,-37.27 644.36,-29.44"/>
<polygon fill="#63b8ff" stroke="#63b8ff" points="618.21,-53.59 614.18,-63.39 623.44,-58.24 618.21,-53.59"/>
</a>
</g>
</g>
<!-- Node15&#45;&gt;Node4 -->
<g id="edge18_Node000015_Node000004" class="edge">
<title>Node15&#45;&gt;Node4</title>
<g id="a_edge18_Node000015_Node000004"><a xlink:title=" ">
<path fill="none" stroke="#63b8ff" d="M679.51,-61.1C647.84,-51.12 608.63,-38.77 579.01,-29.44"/>
<polygon fill="#63b8ff" stroke="#63b8ff" points="678.33,-64.4 688.92,-64.06 680.43,-57.72 678.33,-64.4"/>
</a>
</g>
</g>
<!-- Node16 -->
<g id="Node000016" class="node">
<title>Node16</title>
<g id="a_Node000016"><a xlink:href="resizing__state_8cpp.html" target="_top" xlink:title=" ">
<polygon fill="white" stroke="#666666" points="849,-29 732.5,-29 732.5,0 849,0 849,-29"/>
<text text-anchor="start" x="740.5" y="-15.5" font-family="Helvetica,sans-Serif" font-size="10.00">src/blob/states/resizing</text>
<text text-anchor="middle" x="790.75" y="-5" font-family="Helvetica,sans-Serif" font-size="10.00">_state.cpp</text>
</a>
</g>
</g>
<!-- Node15&#45;&gt;Node16 -->
<g id="edge19_Node000015_Node000016" class="edge">
<title>Node15&#45;&gt;Node16</title>
<g id="a_edge19_Node000015_Node000016"><a xlink:title=" ">
<path fill="none" stroke="#63b8ff" d="M754.66,-56.1C762.56,-47.21 771.4,-37.27 778.36,-29.44"/>
<polygon fill="#63b8ff" stroke="#63b8ff" points="752.21,-53.59 748.18,-63.39 757.44,-58.24 752.21,-53.59"/>
</a>
</g>
</g>
</g>
</svg>

<g id="navigator" transform="translate(0 0)" fill="#404254">
  <rect fill="#f2f5e9" fill-opacity="0.5" stroke="#606060" stroke-width=".5" x="0" y="0" width="60" height="60"/>
  <use id="zoomplus" xlink:href="#zoomPlus" x="17" y="9" onmousedown="handleZoom(evt,'in')"/>
  <use id="zoomminus" xlink:href="#zoomMin" x="42" y="9" onmousedown="handleZoom(evt,'out')"/>
  <use id="reset" xlink:href="#resetDef" x="30" y="36" onmousedown="handleReset()"/>
   <use id="arrowup" xlink:href="#arrowUp" x="0" y="0" onmousedown="handlePan(0,-1)"/>
  <use id="arrowright" xlink:href="#arrowRight" x="0" y="0" onmousedown="handlePan(1,0)"/>
  <use id="arrowdown" xlink:href="#arrowDown" x="0" y="0" onmousedown="handlePan(0,1)"/>
  <use id="arrowleft" xlink:href="#arrowLeft" x="0" y="0" onmousedown="handlePan(-1,0)"/>
</g>
<svg viewBox="0 0 15 15" width="100%" height="30px" preserveAspectRatio="xMaxYMin meet">
 <g id="arrow_out" transform="scale(0.3 0.3)">
  <a xlink:href="blob__config_8h__dep__incl_org.svg" target="_base">
   <rect id="button" ry="5" rx="5" y="6" x="6" height="38" width="38"
        fill="#f2f5e9" fill-opacity="0.5" stroke="#606060" stroke-width="1.0"/>
   <path id="arrow"
     d="M 11.500037,31.436501 C 11.940474,20.09759 22.043105,11.32322 32.158766,21.979434 L 37.068811,17.246167 C 37.068811,17.246167 37.088388,32 37.088388,32 L 22.160133,31.978069 C 22.160133,31.978069 26.997745,27.140456 26.997745,27.140456 C 18.528582,18.264221 13.291696,25.230495 11.500037,31.436501 z"
     style="fill:#404040;"/>
  </a>
 </g>
</svg>

<style type='text/css'>
<![CDATA[
[data-mouse-over-selected='false'] { opacity: 0.7; }
[data-mouse-over-selected='true']  { opacity: 1.0; }
]]>
</style>
<script type="application/ecmascript"><![CDATA[
document.addEventListener('DOMContentLoaded', (event) => {
  highlightEdges();
  highlightAdjacentNodes();
});
]]></script>
</svg>
