<?xml version="1.0" encoding="UTF-8" standalone="no"?>
<!DOCTYPE svg PUBLIC "-//W3C//DTD SVG 1.1//EN"
 "http://www.w3.org/Graphics/SVG/1.1/DTD/svg11.dtd">
<!-- Generated by graphviz version 12.2.1 (0)
 -->
<!-- Title: src/blob/core/dynamics/blob_transition_manager.cpp Pages: 1 -->
<svg width="243pt" height="146pt"
 viewBox="0.00 0.00 242.88 146.00" xmlns="http://www.w3.org/2000/svg" xmlns:xlink="http://www.w3.org/1999/xlink">
<g id="graph0" class="graph" transform="scale(1 1) rotate(0) translate(4 142)">
<title>src/blob/core/dynamics/blob_transition_manager.cpp</title>
<!-- Node1 -->
<g id="Node000001" class="node">
<title>Node1</title>
<g id="a_Node000001"><a xlink:title=" ">
<polygon fill="#999999" stroke="#666666" points="215.88,-138 72.38,-138 72.38,-109 215.88,-109 215.88,-138"/>
<text text-anchor="start" x="80.38" y="-124.5" font-family="Helvetica,sans-Serif" font-size="10.00">src/blob/core/dynamics</text>
<text text-anchor="middle" x="144.12" y="-114" font-family="Helvetica,sans-Serif" font-size="10.00">/blob_transition_manager.cpp</text>
</a>
</g>
</g>
<!-- Node2 -->
<g id="Node000002" class="node">
<title>Node2</title>
<g id="a_Node000002"><a xlink:href="blob__transition__manager_8h.html" target="_top" xlink:title=" ">
<polygon fill="white" stroke="#666666" points="151.12,-73 21.12,-73 21.12,-54.5 151.12,-54.5 151.12,-73"/>
<text text-anchor="middle" x="86.12" y="-59.5" font-family="Helvetica,sans-Serif" font-size="10.00">blob_transition_manager.h</text>
</a>
</g>
</g>
<!-- Node1&#45;&gt;Node2 -->
<g id="edge1_Node000001_Node000002" class="edge">
<title>Node1&#45;&gt;Node2</title>
<g id="a_edge1_Node000001_Node000002"><a xlink:title=" ">
<path fill="none" stroke="#63b8ff" d="M130.08,-108.52C121.84,-100.31 111.37,-89.88 102.71,-81.27"/>
<polygon fill="#63b8ff" stroke="#63b8ff" points="105.44,-79.05 95.89,-74.47 100.51,-84.01 105.44,-79.05"/>
</a>
</g>
</g>
<!-- Node6 -->
<g id="Node000006" class="node">
<title>Node6</title>
<g id="a_Node000006"><a xlink:title=" ">
<polygon fill="#e0e0e0" stroke="#999999" points="234.88,-73 169.38,-73 169.38,-54.5 234.88,-54.5 234.88,-73"/>
<text text-anchor="middle" x="202.12" y="-59.5" font-family="Helvetica,sans-Serif" font-size="10.00">QDateTime</text>
</a>
</g>
</g>
<!-- Node1&#45;&gt;Node6 -->
<g id="edge5_Node000001_Node000006" class="edge">
<title>Node1&#45;&gt;Node6</title>
<g id="a_edge5_Node000001_Node000006"><a xlink:title=" ">
<path fill="none" stroke="#63b8ff" d="M158.17,-108.52C166.41,-100.31 176.88,-89.88 185.54,-81.27"/>
<polygon fill="#63b8ff" stroke="#63b8ff" points="187.74,-84.01 192.36,-74.47 182.81,-79.05 187.74,-84.01"/>
</a>
</g>
</g>
<!-- Node3 -->
<g id="Node000003" class="node">
<title>Node3</title>
<g id="a_Node000003"><a xlink:title=" ">
<polygon fill="#e0e0e0" stroke="#999999" points="42.25,-18.5 0,-18.5 0,0 42.25,0 42.25,-18.5"/>
<text text-anchor="middle" x="21.12" y="-5" font-family="Helvetica,sans-Serif" font-size="10.00">deque</text>
</a>
</g>
</g>
<!-- Node2&#45;&gt;Node3 -->
<g id="edge2_Node000002_Node000003" class="edge">
<title>Node2&#45;&gt;Node3</title>
<g id="a_edge2_Node000002_Node000003"><a xlink:title=" ">
<path fill="none" stroke="#63b8ff" d="M75.39,-54.08C65.93,-46.44 51.9,-35.11 40.48,-25.88"/>
<polygon fill="#63b8ff" stroke="#63b8ff" points="42.81,-23.27 32.84,-19.71 38.42,-28.72 42.81,-23.27"/>
</a>
</g>
</g>
<!-- Node4 -->
<g id="Node000004" class="node">
<title>Node4</title>
<g id="a_Node000004"><a xlink:title=" ">
<polygon fill="#e0e0e0" stroke="#999999" points="112.12,-18.5 60.12,-18.5 60.12,0 112.12,0 112.12,-18.5"/>
<text text-anchor="middle" x="86.12" y="-5" font-family="Helvetica,sans-Serif" font-size="10.00">QObject</text>
</a>
</g>
</g>
<!-- Node2&#45;&gt;Node4 -->
<g id="edge3_Node000002_Node000004" class="edge">
<title>Node2&#45;&gt;Node4</title>
<g id="a_edge3_Node000002_Node000004"><a xlink:title=" ">
<path fill="none" stroke="#63b8ff" d="M86.12,-54.08C86.12,-47.58 86.12,-38.42 86.12,-30.16"/>
<polygon fill="#63b8ff" stroke="#63b8ff" points="89.63,-30.27 86.13,-20.27 82.63,-30.27 89.63,-30.27"/>
</a>
</g>
</g>
<!-- Node5 -->
<g id="Node000005" class="node">
<title>Node5</title>
<g id="a_Node000005"><a xlink:title=" ">
<polygon fill="#e0e0e0" stroke="#999999" points="194.12,-18.5 130.12,-18.5 130.12,0 194.12,0 194.12,-18.5"/>
<text text-anchor="middle" x="162.12" y="-5" font-family="Helvetica,sans-Serif" font-size="10.00">QVector2D</text>
</a>
</g>
</g>
<!-- Node2&#45;&gt;Node5 -->
<g id="edge4_Node000002_Node000005" class="edge">
<title>Node2&#45;&gt;Node5</title>
<g id="a_edge4_Node000002_Node000005"><a xlink:title=" ">
<path fill="none" stroke="#63b8ff" d="M98.67,-54.08C110.01,-46.25 126.93,-34.57 140.44,-25.23"/>
<polygon fill="#63b8ff" stroke="#63b8ff" points="142.07,-28.36 148.31,-19.79 138.09,-22.6 142.07,-28.36"/>
</a>
</g>
</g>
</g>
</svg>
