<?xml version="1.0" encoding="UTF-8" standalone="no"?>
<!DOCTYPE svg PUBLIC "-//W3C//DTD SVG 1.1//EN"
 "http://www.w3.org/Graphics/SVG/1.1/DTD/svg11.dtd">
<!-- Generated by graphviz version 12.2.1 (0)
 -->
<!-- Title: src/blob/physics/blob_physics.cpp Pages: 1 -->
<svg width="718pt" height="146pt"
 viewBox="0.00 0.00 717.88 146.00" xmlns="http://www.w3.org/2000/svg" xmlns:xlink="http://www.w3.org/1999/xlink">
<g id="graph0" class="graph" transform="scale(1 1) rotate(0) translate(4 142)">
<title>src/blob/physics/blob_physics.cpp</title>
<!-- Node1 -->
<g id="Node000001" class="node">
<title>Node1</title>
<g id="a_Node000001"><a xlink:title=" ">
<polygon fill="#999999" stroke="#666666" points="384.25,-138 276.75,-138 276.75,-109 384.25,-109 384.25,-138"/>
<text text-anchor="start" x="284.75" y="-124.5" font-family="Helvetica,sans-Serif" font-size="10.00">src/blob/physics/blob</text>
<text text-anchor="middle" x="330.5" y="-114" font-family="Helvetica,sans-Serif" font-size="10.00">_physics.cpp</text>
</a>
</g>
</g>
<!-- Node2 -->
<g id="Node000002" class="node">
<title>Node2</title>
<g id="a_Node000002"><a xlink:href="blob__physics_8h.html" target="_top" xlink:title=" ">
<polygon fill="white" stroke="#666666" points="119.75,-73 39.25,-73 39.25,-54.5 119.75,-54.5 119.75,-73"/>
<text text-anchor="middle" x="79.5" y="-59.5" font-family="Helvetica,sans-Serif" font-size="10.00">blob_physics.h</text>
</a>
</g>
</g>
<!-- Node1&#45;&gt;Node2 -->
<g id="edge1_Node000001_Node000002" class="edge">
<title>Node1&#45;&gt;Node2</title>
<g id="a_edge1_Node000001_Node000002"><a xlink:title=" ">
<path fill="none" stroke="#63b8ff" d="M276.35,-110.04C232.39,-99.93 170.94,-85.79 128.44,-76.01"/>
<polygon fill="#63b8ff" stroke="#63b8ff" points="129.26,-72.61 118.73,-73.78 127.69,-79.43 129.26,-72.61"/>
</a>
</g>
</g>
<!-- Node6 -->
<g id="Node000006" class="node">
<title>Node6</title>
<g id="a_Node000006"><a xlink:title=" ">
<polygon fill="#e0e0e0" stroke="#999999" points="191.62,-73 137.38,-73 137.38,-54.5 191.62,-54.5 191.62,-73"/>
<text text-anchor="middle" x="164.5" y="-59.5" font-family="Helvetica,sans-Serif" font-size="10.00">qfuture.h</text>
</a>
</g>
</g>
<!-- Node1&#45;&gt;Node6 -->
<g id="edge5_Node000001_Node000006" class="edge">
<title>Node1&#45;&gt;Node6</title>
<g id="a_edge5_Node000001_Node000006"><a xlink:title=" ">
<path fill="none" stroke="#63b8ff" d="M290.32,-108.52C262.78,-98.94 226.58,-86.35 200.08,-77.13"/>
<polygon fill="#63b8ff" stroke="#63b8ff" points="201.4,-73.88 190.8,-73.9 199.1,-80.49 201.4,-73.88"/>
</a>
</g>
</g>
<!-- Node7 -->
<g id="Node000007" class="node">
<title>Node7</title>
<g id="a_Node000007"><a xlink:title=" ">
<polygon fill="#e0e0e0" stroke="#999999" points="261.12,-73 209.88,-73 209.88,-54.5 261.12,-54.5 261.12,-73"/>
<text text-anchor="middle" x="235.5" y="-59.5" font-family="Helvetica,sans-Serif" font-size="10.00">qmath.h</text>
</a>
</g>
</g>
<!-- Node1&#45;&gt;Node7 -->
<g id="edge6_Node000001_Node000007" class="edge">
<title>Node1&#45;&gt;Node7</title>
<g id="a_edge6_Node000001_Node000007"><a xlink:title=" ">
<path fill="none" stroke="#63b8ff" d="M307.5,-108.52C292.87,-99.62 273.96,-88.13 259.19,-79.15"/>
<polygon fill="#63b8ff" stroke="#63b8ff" points="261.39,-76.39 251.03,-74.19 257.76,-82.38 261.39,-76.39"/>
</a>
</g>
</g>
<!-- Node8 -->
<g id="Node000008" class="node">
<title>Node8</title>
<g id="a_Node000008"><a xlink:title=" ">
<polygon fill="#e0e0e0" stroke="#999999" points="381.62,-73 279.38,-73 279.38,-54.5 381.62,-54.5 381.62,-73"/>
<text text-anchor="middle" x="330.5" y="-59.5" font-family="Helvetica,sans-Serif" font-size="10.00">QRandomGenerator</text>
</a>
</g>
</g>
<!-- Node1&#45;&gt;Node8 -->
<g id="edge7_Node000001_Node000008" class="edge">
<title>Node1&#45;&gt;Node8</title>
<g id="a_edge7_Node000001_Node000008"><a xlink:title=" ">
<path fill="none" stroke="#63b8ff" d="M330.5,-108.52C330.5,-101.42 330.5,-92.67 330.5,-84.86"/>
<polygon fill="#63b8ff" stroke="#63b8ff" points="334,-84.92 330.5,-74.92 327,-84.92 334,-84.92"/>
</a>
</g>
</g>
<!-- Node9 -->
<g id="Node000009" class="node">
<title>Node9</title>
<g id="a_Node000009"><a xlink:title=" ">
<polygon fill="#e0e0e0" stroke="#999999" points="491.38,-73 399.62,-73 399.62,-54.5 491.38,-54.5 491.38,-73"/>
<text text-anchor="middle" x="445.5" y="-59.5" font-family="Helvetica,sans-Serif" font-size="10.00">qtconcurrentrun.h</text>
</a>
</g>
</g>
<!-- Node1&#45;&gt;Node9 -->
<g id="edge8_Node000001_Node000009" class="edge">
<title>Node1&#45;&gt;Node9</title>
<g id="a_edge8_Node000001_Node000009"><a xlink:title=" ">
<path fill="none" stroke="#63b8ff" d="M358.34,-108.52C376.48,-99.41 400.04,-87.58 418.1,-78.51"/>
<polygon fill="#63b8ff" stroke="#63b8ff" points="419.55,-81.7 426.92,-74.08 416.41,-75.44 419.55,-81.7"/>
</a>
</g>
</g>
<!-- Node10 -->
<g id="Node000010" class="node">
<title>Node10</title>
<g id="a_Node000010"><a xlink:href="blob__math_8h.html" target="_top" xlink:title=" ">
<polygon fill="white" stroke="#666666" points="609.12,-73 509.88,-73 509.88,-54.5 609.12,-54.5 609.12,-73"/>
<text text-anchor="middle" x="559.5" y="-59.5" font-family="Helvetica,sans-Serif" font-size="10.00">../utils/blob_math.h</text>
</a>
</g>
</g>
<!-- Node1&#45;&gt;Node10 -->
<g id="edge9_Node000001_Node000010" class="edge">
<title>Node1&#45;&gt;Node10</title>
<g id="a_edge9_Node000001_Node000010"><a xlink:title=" ">
<path fill="none" stroke="#63b8ff" d="M384.48,-108.89C423.91,-98.94 476.77,-85.61 514.04,-76.21"/>
<polygon fill="#63b8ff" stroke="#63b8ff" points="514.77,-79.64 523.61,-73.8 513.06,-72.85 514.77,-79.64"/>
</a>
</g>
</g>
<!-- Node12 -->
<g id="Node000012" class="node">
<title>Node12</title>
<g id="a_Node000012"><a xlink:href="blob__config_8h.html" target="_top" xlink:title=" ">
<polygon fill="white" stroke="#666666" points="709.88,-73 627.12,-73 627.12,-54.5 709.88,-54.5 709.88,-73"/>
<text text-anchor="middle" x="668.5" y="-59.5" font-family="Helvetica,sans-Serif" font-size="10.00">../blob_config.h</text>
</a>
</g>
</g>
<!-- Node1&#45;&gt;Node12 -->
<g id="edge12_Node000001_Node000012" class="edge">
<title>Node1&#45;&gt;Node12</title>
<g id="a_edge12_Node000001_Node000012"><a xlink:title=" ">
<path fill="none" stroke="#63b8ff" d="M384.43,-113.29C447.86,-102.45 552.47,-84.57 615.5,-73.81"/>
<polygon fill="#63b8ff" stroke="#63b8ff" points="616,-77.27 625.27,-72.14 614.82,-70.37 616,-77.27"/>
</a>
</g>
</g>
<!-- Node3 -->
<g id="Node000003" class="node">
<title>Node3</title>
<g id="a_Node000003"><a xlink:title=" ">
<polygon fill="#e0e0e0" stroke="#999999" points="73,-18.5 0,-18.5 0,0 73,0 73,-18.5"/>
<text text-anchor="middle" x="36.5" y="-5" font-family="Helvetica,sans-Serif" font-size="10.00">QThreadPool</text>
</a>
</g>
</g>
<!-- Node2&#45;&gt;Node3 -->
<g id="edge2_Node000002_Node000003" class="edge">
<title>Node2&#45;&gt;Node3</title>
<g id="a_edge2_Node000002_Node000003"><a xlink:title=" ">
<path fill="none" stroke="#63b8ff" d="M72.4,-54.08C66.51,-46.89 57.96,-36.45 50.68,-27.57"/>
<polygon fill="#63b8ff" stroke="#63b8ff" points="53.47,-25.45 44.43,-19.93 48.06,-29.88 53.47,-25.45"/>
</a>
</g>
</g>
<!-- Node4 -->
<g id="Node000004" class="node">
<title>Node4</title>
<g id="a_Node000004"><a xlink:title=" ">
<polygon fill="#e0e0e0" stroke="#999999" points="155.5,-18.5 91.5,-18.5 91.5,0 155.5,0 155.5,-18.5"/>
<text text-anchor="middle" x="123.5" y="-5" font-family="Helvetica,sans-Serif" font-size="10.00">QVector2D</text>
</a>
</g>
</g>
<!-- Node2&#45;&gt;Node4 -->
<g id="edge3_Node000002_Node000004" class="edge">
<title>Node2&#45;&gt;Node4</title>
<g id="a_edge3_Node000002_Node000004"><a xlink:title=" ">
<path fill="none" stroke="#63b8ff" d="M86.77,-54.08C92.79,-46.89 101.54,-36.45 108.99,-27.57"/>
<polygon fill="#63b8ff" stroke="#63b8ff" points="111.66,-29.83 115.4,-19.92 106.29,-25.33 111.66,-29.83"/>
</a>
</g>
</g>
<!-- Node5 -->
<g id="Node000005" class="node">
<title>Node5</title>
<g id="a_Node000005"><a xlink:title=" ">
<polygon fill="#e0e0e0" stroke="#999999" points="364.62,-18.5 322.38,-18.5 322.38,0 364.62,0 364.62,-18.5"/>
<text text-anchor="middle" x="343.5" y="-5" font-family="Helvetica,sans-Serif" font-size="10.00">vector</text>
</a>
</g>
</g>
<!-- Node2&#45;&gt;Node5 -->
<g id="edge4_Node000002_Node000005" class="edge">
<title>Node2&#45;&gt;Node5</title>
<g id="a_edge4_Node000002_Node000005"><a xlink:title=" ">
<path fill="none" stroke="#63b8ff" d="M120.17,-54.66C172.68,-44.22 263.02,-26.25 311.13,-16.69"/>
<polygon fill="#63b8ff" stroke="#63b8ff" points="311.52,-20.18 320.64,-14.8 310.15,-13.31 311.52,-20.18"/>
</a>
</g>
</g>
<!-- Node10&#45;&gt;Node5 -->
<g id="edge11_Node000010_Node000005" class="edge">
<title>Node10&#45;&gt;Node5</title>
<g id="a_edge11_Node000010_Node000005"><a xlink:title=" ">
<path fill="none" stroke="#63b8ff" d="M523.83,-54.08C482.81,-44.11 416,-27.87 376.25,-18.21"/>
<polygon fill="#63b8ff" stroke="#63b8ff" points="377.09,-14.81 366.55,-15.85 375.44,-21.62 377.09,-14.81"/>
</a>
</g>
</g>
<!-- Node11 -->
<g id="Node000011" class="node">
<title>Node11</title>
<g id="a_Node000011"><a xlink:title=" ">
<polygon fill="#e0e0e0" stroke="#999999" points="587.38,-18.5 531.62,-18.5 531.62,0 587.38,0 587.38,-18.5"/>
<text text-anchor="middle" x="559.5" y="-5" font-family="Helvetica,sans-Serif" font-size="10.00">concepts</text>
</a>
</g>
</g>
<!-- Node10&#45;&gt;Node11 -->
<g id="edge10_Node000010_Node000011" class="edge">
<title>Node10&#45;&gt;Node11</title>
<g id="a_edge10_Node000010_Node000011"><a xlink:title=" ">
<path fill="none" stroke="#63b8ff" d="M559.5,-54.08C559.5,-47.58 559.5,-38.42 559.5,-30.16"/>
<polygon fill="#63b8ff" stroke="#63b8ff" points="563,-30.27 559.5,-20.27 556,-30.27 563,-30.27"/>
</a>
</g>
</g>
<!-- Node13 -->
<g id="Node000013" class="node">
<title>Node13</title>
<g id="a_Node000013"><a xlink:title=" ">
<polygon fill="#e0e0e0" stroke="#999999" points="691.88,-18.5 645.12,-18.5 645.12,0 691.88,0 691.88,-18.5"/>
<text text-anchor="middle" x="668.5" y="-5" font-family="Helvetica,sans-Serif" font-size="10.00">QColor</text>
</a>
</g>
</g>
<!-- Node12&#45;&gt;Node13 -->
<g id="edge13_Node000012_Node000013" class="edge">
<title>Node12&#45;&gt;Node13</title>
<g id="a_edge13_Node000012_Node000013"><a xlink:title=" ">
<path fill="none" stroke="#63b8ff" d="M668.5,-54.08C668.5,-47.58 668.5,-38.42 668.5,-30.16"/>
<polygon fill="#63b8ff" stroke="#63b8ff" points="672,-30.27 668.5,-20.27 665,-30.27 672,-30.27"/>
</a>
</g>
</g>
</g>
</svg>
