<?xml version="1.0" encoding="UTF-8" standalone="no"?>
<!DOCTYPE svg PUBLIC "-//W3C//DTD SVG 1.1//EN"
 "http://www.w3.org/Graphics/SVG/1.1/DTD/svg11.dtd">
<!-- Generated by graphviz version 12.2.1 (0)
 -->
<!-- Title: src/blob/utils/blob_math.h Pages: 1 -->
<svg width="337pt" height="102pt"
 viewBox="0.00 0.00 337.00 102.00" xmlns="http://www.w3.org/2000/svg" xmlns:xlink="http://www.w3.org/1999/xlink">
<g id="graph0" class="graph" transform="scale(1 1) rotate(0) translate(4 98)">
<title>src/blob/utils/blob_math.h</title>
<!-- Node1 -->
<g id="Node000001" class="node">
<title>Node1</title>
<g id="a_Node000001"><a xlink:title=" ">
<polygon fill="#999999" stroke="#666666" points="218,-94 125.5,-94 125.5,-65 218,-65 218,-94"/>
<text text-anchor="start" x="133.5" y="-80.5" font-family="Helvetica,sans-Serif" font-size="10.00">src/blob/utils/blob</text>
<text text-anchor="middle" x="171.75" y="-70" font-family="Helvetica,sans-Serif" font-size="10.00">_math.h</text>
</a>
</g>
</g>
<!-- Node2 -->
<g id="Node000002" class="node">
<title>Node2</title>
<g id="a_Node000002"><a xlink:href="blob__physics_8cpp.html" target="_top" xlink:title=" ">
<polygon fill="white" stroke="#666666" points="107.5,-29 0,-29 0,0 107.5,0 107.5,-29"/>
<text text-anchor="start" x="8" y="-15.5" font-family="Helvetica,sans-Serif" font-size="10.00">src/blob/physics/blob</text>
<text text-anchor="middle" x="53.75" y="-5" font-family="Helvetica,sans-Serif" font-size="10.00">_physics.cpp</text>
</a>
</g>
</g>
<!-- Node1&#45;&gt;Node2 -->
<g id="edge1_Node000001_Node000002" class="edge">
<title>Node1&#45;&gt;Node2</title>
<g id="a_edge1_Node000001_Node000002"><a xlink:title=" ">
<path fill="none" stroke="#63b8ff" d="M135.43,-59.11C117.47,-49.52 96.2,-38.16 79.86,-29.44"/>
<polygon fill="#63b8ff" stroke="#63b8ff" points="133.76,-62.18 144.23,-63.81 137.05,-56.01 133.76,-62.18"/>
</a>
</g>
</g>
<!-- Node3 -->
<g id="Node000003" class="node">
<title>Node3</title>
<g id="a_Node000003"><a xlink:href="blob__math_8cpp.html" target="_top" xlink:title=" ">
<polygon fill="white" stroke="#666666" points="218,-29 125.5,-29 125.5,0 218,0 218,-29"/>
<text text-anchor="start" x="133.5" y="-15.5" font-family="Helvetica,sans-Serif" font-size="10.00">src/blob/utils/blob</text>
<text text-anchor="middle" x="171.75" y="-5" font-family="Helvetica,sans-Serif" font-size="10.00">_math.cpp</text>
</a>
</g>
</g>
<!-- Node1&#45;&gt;Node3 -->
<g id="edge2_Node000001_Node000003" class="edge">
<title>Node1&#45;&gt;Node3</title>
<g id="a_edge2_Node000001_Node000003"><a xlink:title=" ">
<path fill="none" stroke="#63b8ff" d="M171.75,-53.01C171.75,-44.96 171.75,-36.37 171.75,-29.44"/>
<polygon fill="#63b8ff" stroke="#63b8ff" points="168.25,-53 171.75,-63 175.25,-53 168.25,-53"/>
</a>
</g>
</g>
<!-- Node4 -->
<g id="Node000004" class="node">
<title>Node4</title>
<g id="a_Node000004"><a xlink:href="blob__path_8cpp.html" target="_top" xlink:title=" ">
<polygon fill="white" stroke="#666666" points="329,-29 236.5,-29 236.5,0 329,0 329,-29"/>
<text text-anchor="start" x="244.5" y="-15.5" font-family="Helvetica,sans-Serif" font-size="10.00">src/blob/utils/blob</text>
<text text-anchor="middle" x="282.75" y="-5" font-family="Helvetica,sans-Serif" font-size="10.00">_path.cpp</text>
</a>
</g>
</g>
<!-- Node1&#45;&gt;Node4 -->
<g id="edge3_Node000001_Node000004" class="edge">
<title>Node1&#45;&gt;Node4</title>
<g id="a_edge3_Node000001_Node000004"><a xlink:title=" ">
<path fill="none" stroke="#63b8ff" d="M206.39,-58.84C223.19,-49.31 242.97,-38.08 258.18,-29.44"/>
<polygon fill="#63b8ff" stroke="#63b8ff" points="204.67,-55.79 197.7,-63.77 208.13,-61.88 204.67,-55.79"/>
</a>
</g>
</g>
</g>
</svg>
