<?xml version="1.0" encoding="UTF-8" standalone="no"?>
<!DOCTYPE svg PUBLIC "-//W3C//DTD SVG 1.1//EN"
 "http://www.w3.org/Graphics/SVG/1.1/DTD/svg11.dtd">
<!-- Generated by graphviz version 12.2.1 (0)
 -->
<!-- Title: src/blob/rendering/blob_renderer.h Pages: 1 -->
<svg width="404pt" height="146pt"
 viewBox="0.00 0.00 403.62 146.00" xmlns="http://www.w3.org/2000/svg" xmlns:xlink="http://www.w3.org/1999/xlink">
<g id="graph0" class="graph" transform="scale(1 1) rotate(0) translate(4 142)">
<title>src/blob/rendering/blob_renderer.h</title>
<!-- Node1 -->
<g id="Node000001" class="node">
<title>Node1</title>
<g id="a_Node000001"><a xlink:title=" ">
<polygon fill="#999999" stroke="#666666" points="222.88,-138 129.62,-138 129.62,-109 222.88,-109 222.88,-138"/>
<text text-anchor="start" x="137.62" y="-124.5" font-family="Helvetica,sans-Serif" font-size="10.00">src/blob/rendering</text>
<text text-anchor="middle" x="176.25" y="-114" font-family="Helvetica,sans-Serif" font-size="10.00">/blob_renderer.h</text>
</a>
</g>
</g>
<!-- Node2 -->
<g id="Node000002" class="node">
<title>Node2</title>
<g id="a_Node000002"><a xlink:title=" ">
<polygon fill="#e0e0e0" stroke="#999999" points="74.5,-73 0,-73 0,-54.5 74.5,-54.5 74.5,-73"/>
<text text-anchor="middle" x="37.25" y="-59.5" font-family="Helvetica,sans-Serif" font-size="10.00">QPainterPath</text>
</a>
</g>
</g>
<!-- Node1&#45;&gt;Node2 -->
<g id="edge1_Node000001_Node000002" class="edge">
<title>Node1&#45;&gt;Node2</title>
<g id="a_edge1_Node000001_Node000002"><a xlink:title=" ">
<path fill="none" stroke="#63b8ff" d="M142.6,-108.52C120.06,-99.15 90.58,-86.91 68.54,-77.75"/>
<polygon fill="#63b8ff" stroke="#63b8ff" points="70.05,-74.59 59.48,-73.98 67.37,-81.05 70.05,-74.59"/>
</a>
</g>
</g>
<!-- Node3 -->
<g id="Node000003" class="node">
<title>Node3</title>
<g id="a_Node000003"><a xlink:title=" ">
<polygon fill="#e0e0e0" stroke="#999999" points="149.5,-73 93,-73 93,-54.5 149.5,-54.5 149.5,-73"/>
<text text-anchor="middle" x="121.25" y="-59.5" font-family="Helvetica,sans-Serif" font-size="10.00">QPixmap</text>
</a>
</g>
</g>
<!-- Node1&#45;&gt;Node3 -->
<g id="edge2_Node000001_Node000003" class="edge">
<title>Node1&#45;&gt;Node3</title>
<g id="a_edge2_Node000001_Node000003"><a xlink:title=" ">
<path fill="none" stroke="#63b8ff" d="M162.94,-108.52C155.2,-100.39 145.39,-90.1 137.24,-81.54"/>
<polygon fill="#63b8ff" stroke="#63b8ff" points="139.97,-79.33 130.54,-74.5 134.9,-84.15 139.97,-79.33"/>
</a>
</g>
</g>
<!-- Node4 -->
<g id="Node000004" class="node">
<title>Node4</title>
<g id="a_Node000004"><a xlink:href="path__markers__manager_8h.html" target="_top" xlink:title=" ">
<polygon fill="white" stroke="#666666" points="294.75,-73 167.75,-73 167.75,-54.5 294.75,-54.5 294.75,-73"/>
<text text-anchor="middle" x="231.25" y="-59.5" font-family="Helvetica,sans-Serif" font-size="10.00">path_markers_manager.h</text>
</a>
</g>
</g>
<!-- Node1&#45;&gt;Node4 -->
<g id="edge3_Node000001_Node000004" class="edge">
<title>Node1&#45;&gt;Node4</title>
<g id="a_edge3_Node000001_Node000004"><a xlink:title=" ">
<path fill="none" stroke="#63b8ff" d="M189.56,-108.52C197.3,-100.39 207.11,-90.1 215.26,-81.54"/>
<polygon fill="#63b8ff" stroke="#63b8ff" points="217.6,-84.15 221.96,-74.5 212.53,-79.33 217.6,-84.15"/>
</a>
</g>
</g>
<!-- Node7 -->
<g id="Node000007" class="node">
<title>Node7</title>
<g id="a_Node000007"><a xlink:href="blob__config_8h.html" target="_top" xlink:title=" ">
<polygon fill="white" stroke="#666666" points="395.62,-73 312.88,-73 312.88,-54.5 395.62,-54.5 395.62,-73"/>
<text text-anchor="middle" x="354.25" y="-59.5" font-family="Helvetica,sans-Serif" font-size="10.00">../blob_config.h</text>
</a>
</g>
</g>
<!-- Node1&#45;&gt;Node7 -->
<g id="edge6_Node000001_Node000007" class="edge">
<title>Node1&#45;&gt;Node7</title>
<g id="a_edge6_Node000001_Node000007"><a xlink:title=" ">
<path fill="none" stroke="#63b8ff" d="M219.34,-108.52C249.04,-98.88 288.14,-86.2 316.59,-76.97"/>
<polygon fill="#63b8ff" stroke="#63b8ff" points="317.44,-80.37 325.88,-73.96 315.28,-73.71 317.44,-80.37"/>
</a>
</g>
</g>
<!-- Node5 -->
<g id="Node000005" class="node">
<title>Node5</title>
<g id="a_Node000005"><a xlink:title=" ">
<polygon fill="#e0e0e0" stroke="#999999" points="221.75,-18.5 166.75,-18.5 166.75,0 221.75,0 221.75,-18.5"/>
<text text-anchor="middle" x="194.25" y="-5" font-family="Helvetica,sans-Serif" font-size="10.00">qglobal.h</text>
</a>
</g>
</g>
<!-- Node4&#45;&gt;Node5 -->
<g id="edge4_Node000004_Node000005" class="edge">
<title>Node4&#45;&gt;Node5</title>
<g id="a_edge4_Node000004_Node000005"><a xlink:title=" ">
<path fill="none" stroke="#63b8ff" d="M225.14,-54.08C220.18,-47.05 213.03,-36.9 206.86,-28.14"/>
<polygon fill="#63b8ff" stroke="#63b8ff" points="209.74,-26.15 201.12,-20 204.02,-30.19 209.74,-26.15"/>
</a>
</g>
</g>
<!-- Node6 -->
<g id="Node000006" class="node">
<title>Node6</title>
<g id="a_Node000006"><a xlink:title=" ">
<polygon fill="#e0e0e0" stroke="#999999" points="282.38,-18.5 240.12,-18.5 240.12,0 282.38,0 282.38,-18.5"/>
<text text-anchor="middle" x="261.25" y="-5" font-family="Helvetica,sans-Serif" font-size="10.00">vector</text>
</a>
</g>
</g>
<!-- Node4&#45;&gt;Node6 -->
<g id="edge5_Node000004_Node000006" class="edge">
<title>Node4&#45;&gt;Node6</title>
<g id="a_edge5_Node000004_Node000006"><a xlink:title=" ">
<path fill="none" stroke="#63b8ff" d="M236.2,-54.08C240.14,-47.2 245.77,-37.34 250.7,-28.71"/>
<polygon fill="#63b8ff" stroke="#63b8ff" points="253.71,-30.49 255.64,-20.07 247.64,-27.02 253.71,-30.49"/>
</a>
</g>
</g>
<!-- Node8 -->
<g id="Node000008" class="node">
<title>Node8</title>
<g id="a_Node000008"><a xlink:title=" ">
<polygon fill="#e0e0e0" stroke="#999999" points="377.62,-18.5 330.88,-18.5 330.88,0 377.62,0 377.62,-18.5"/>
<text text-anchor="middle" x="354.25" y="-5" font-family="Helvetica,sans-Serif" font-size="10.00">QColor</text>
</a>
</g>
</g>
<!-- Node7&#45;&gt;Node8 -->
<g id="edge7_Node000007_Node000008" class="edge">
<title>Node7&#45;&gt;Node8</title>
<g id="a_edge7_Node000007_Node000008"><a xlink:title=" ">
<path fill="none" stroke="#63b8ff" d="M354.25,-54.08C354.25,-47.58 354.25,-38.42 354.25,-30.16"/>
<polygon fill="#63b8ff" stroke="#63b8ff" points="357.75,-30.27 354.25,-20.27 350.75,-30.27 357.75,-30.27"/>
</a>
</g>
</g>
</g>
</svg>
