<?xml version="1.0" encoding="UTF-8" standalone="no"?>
<!DOCTYPE svg PUBLIC "-//W3C//DTD SVG 1.1//EN"
 "http://www.w3.org/Graphics/SVG/1.1/DTD/svg11.dtd">
<!-- Generated by graphviz version 12.2.1 (0)
 -->
<!-- Title: src/ui/chat/style/chat_style.cpp Pages: 1 -->
<svg width="194pt" height="157pt"
 viewBox="0.00 0.00 194.25 156.50" xmlns="http://www.w3.org/2000/svg" xmlns:xlink="http://www.w3.org/1999/xlink">
<g id="graph0" class="graph" transform="scale(1 1) rotate(0) translate(4 152.5)">
<title>src/ui/chat/style/chat_style.cpp</title>
<!-- Node1 -->
<g id="Node000001" class="node">
<title>Node1</title>
<g id="a_Node000001"><a xlink:title=" ">
<polygon fill="#999999" stroke="#666666" points="139.38,-148.5 31.88,-148.5 31.88,-119.5 139.38,-119.5 139.38,-148.5"/>
<text text-anchor="start" x="39.88" y="-135" font-family="Helvetica,sans-Serif" font-size="10.00">src/ui/chat/style/chat</text>
<text text-anchor="middle" x="85.62" y="-124.5" font-family="Helvetica,sans-Serif" font-size="10.00">_style.cpp</text>
</a>
</g>
</g>
<!-- Node2 -->
<g id="Node000002" class="node">
<title>Node2</title>
<g id="a_Node000002"><a xlink:href="chat__style_8h.html" target="_top" xlink:title=" ">
<polygon fill="white" stroke="#666666" points="69.25,-78.25 0,-78.25 0,-59.75 69.25,-59.75 69.25,-78.25"/>
<text text-anchor="middle" x="34.62" y="-64.75" font-family="Helvetica,sans-Serif" font-size="10.00">chat_style.h</text>
</a>
</g>
</g>
<!-- Node1&#45;&gt;Node2 -->
<g id="edge1_Node000001_Node000002" class="edge">
<title>Node1&#45;&gt;Node2</title>
<g id="a_edge1_Node000001_Node000002"><a xlink:title=" ">
<path fill="none" stroke="#63b8ff" d="M74.31,-119.02C66.75,-109.68 56.75,-97.32 48.68,-87.36"/>
<polygon fill="#63b8ff" stroke="#63b8ff" points="51.64,-85.45 42.63,-79.88 46.2,-89.86 51.64,-85.45"/>
</a>
</g>
</g>
<!-- Node4 -->
<g id="Node000004" class="node">
<title>Node4</title>
<g id="a_Node000004"><a xlink:href="cyberpunk__style_8h.html" target="_top" xlink:title=" ">
<polygon fill="white" stroke="#666666" points="186.25,-83.5 87,-83.5 87,-54.5 186.25,-54.5 186.25,-83.5"/>
<text text-anchor="start" x="95" y="-70" font-family="Helvetica,sans-Serif" font-size="10.00">../../../app/style</text>
<text text-anchor="middle" x="136.62" y="-59.5" font-family="Helvetica,sans-Serif" font-size="10.00">/cyberpunk_style.h</text>
</a>
</g>
</g>
<!-- Node1&#45;&gt;Node4 -->
<g id="edge3_Node000001_Node000004" class="edge">
<title>Node1&#45;&gt;Node4</title>
<g id="a_edge3_Node000001_Node000004"><a xlink:title=" ">
<path fill="none" stroke="#63b8ff" d="M96.94,-119.02C103.22,-111.27 111.17,-101.45 118.3,-92.63"/>
<polygon fill="#63b8ff" stroke="#63b8ff" points="120.81,-95.09 124.39,-85.12 115.37,-90.69 120.81,-95.09"/>
</a>
</g>
</g>
<!-- Node3 -->
<g id="Node000003" class="node">
<title>Node3</title>
<g id="a_Node000003"><a xlink:title=" ">
<polygon fill="#e0e0e0" stroke="#999999" points="59.12,-18.5 10.12,-18.5 10.12,0 59.12,0 59.12,-18.5"/>
<text text-anchor="middle" x="34.62" y="-5" font-family="Helvetica,sans-Serif" font-size="10.00">QString</text>
</a>
</g>
</g>
<!-- Node2&#45;&gt;Node3 -->
<g id="edge2_Node000002_Node000003" class="edge">
<title>Node2&#45;&gt;Node3</title>
<g id="a_edge2_Node000002_Node000003"><a xlink:title=" ">
<path fill="none" stroke="#63b8ff" d="M34.62,-59.48C34.62,-51.8 34.62,-40.22 34.62,-30.22"/>
<polygon fill="#63b8ff" stroke="#63b8ff" points="38.13,-30.32 34.63,-20.32 31.13,-30.32 38.13,-30.32"/>
</a>
</g>
</g>
<!-- Node5 -->
<g id="Node000005" class="node">
<title>Node5</title>
<g id="a_Node000005"><a xlink:title=" ">
<polygon fill="#e0e0e0" stroke="#999999" points="160,-18.5 113.25,-18.5 113.25,0 160,0 160,-18.5"/>
<text text-anchor="middle" x="136.62" y="-5" font-family="Helvetica,sans-Serif" font-size="10.00">QColor</text>
</a>
</g>
</g>
<!-- Node4&#45;&gt;Node5 -->
<g id="edge4_Node000004_Node000005" class="edge">
<title>Node4&#45;&gt;Node5</title>
<g id="a_edge4_Node000004_Node000005"><a xlink:title=" ">
<path fill="none" stroke="#63b8ff" d="M136.62,-54.02C136.62,-46.92 136.62,-38.17 136.62,-30.36"/>
<polygon fill="#63b8ff" stroke="#63b8ff" points="140.13,-30.42 136.63,-20.42 133.13,-30.42 140.13,-30.42"/>
</a>
</g>
</g>
</g>
</svg>
