<?xml version="1.0" encoding="UTF-8" standalone="no"?>
<!DOCTYPE svg PUBLIC "-//W3C//DTD SVG 1.1//EN"
 "http://www.w3.org/Graphics/SVG/1.1/DTD/svg11.dtd">
<!-- Generated by graphviz version 12.2.1 (0)
 -->
<!-- Title: WavelengthConfig::SetTitleTextColor Pages: 1 -->
<svg width="491pt" height="84pt"
 viewBox="0.00 0.00 491.00 84.00" xmlns="http://www.w3.org/2000/svg" xmlns:xlink="http://www.w3.org/1999/xlink">
<g id="graph0" class="graph" transform="scale(1 1) rotate(0) translate(4 80)">
<title>WavelengthConfig::SetTitleTextColor</title>
<!-- Node1 -->
<g id="Node000001" class="node">
<title>Node1</title>
<g id="a_Node000001"><a xlink:title="Sets the color for the title label text. Adds the color to recent colors. Emits configChanged(&quot;title_...">
<polygon fill="#999999" stroke="#666666" points="134.5,-52 0,-52 0,-23 134.5,-23 134.5,-52"/>
<text text-anchor="start" x="8" y="-38.5" font-family="Helvetica,sans-Serif" font-size="10.00">WavelengthConfig::SetTitle</text>
<text text-anchor="middle" x="67.25" y="-28" font-family="Helvetica,sans-Serif" font-size="10.00">TextColor</text>
</a>
</g>
</g>
<!-- Node2 -->
<g id="Node000002" class="node">
<title>Node2</title>
<g id="a_Node000002"><a xlink:href="classWavelengthConfig.html#a7ebb29db2d1c1664c1fca81e52f67565" target="_top" xlink:title="Adds a color to the list of recently used colors. If the color already exists, it&#39;s moved to the fron...">
<polygon fill="white" stroke="#666666" points="319.25,-76 170.5,-76 170.5,-47 319.25,-47 319.25,-76"/>
<text text-anchor="start" x="178.5" y="-62.5" font-family="Helvetica,sans-Serif" font-size="10.00">WavelengthConfig::AddRecent</text>
<text text-anchor="middle" x="244.88" y="-52" font-family="Helvetica,sans-Serif" font-size="10.00">Color</text>
</a>
</g>
</g>
<!-- Node1&#45;&gt;Node2 -->
<g id="edge1_Node000001_Node000002" class="edge">
<title>Node1&#45;&gt;Node2</title>
<g id="a_edge1_Node000001_Node000002"><a xlink:title=" ">
<path fill="none" stroke="#63b8ff" d="M134.9,-46.61C142.75,-47.68 150.83,-48.79 158.89,-49.89"/>
<polygon fill="#63b8ff" stroke="#63b8ff" points="158.35,-53.35 168.73,-51.23 159.3,-46.41 158.35,-53.35"/>
</a>
</g>
</g>
<!-- Node4 -->
<g id="Node000004" class="node">
<title>Node4</title>
<g id="a_Node000004"><a xlink:href="classWavelengthConfig.html#abc5ccf726876bf0f8a5a842b70a2e766" target="_top" xlink:title="Emitted when a configuration setting changes.">
<polygon fill="white" stroke="#666666" points="308.38,-29 181.38,-29 181.38,0 308.38,0 308.38,-29"/>
<text text-anchor="start" x="189.38" y="-15.5" font-family="Helvetica,sans-Serif" font-size="10.00">WavelengthConfig::config</text>
<text text-anchor="middle" x="244.88" y="-5" font-family="Helvetica,sans-Serif" font-size="10.00">Changed</text>
</a>
</g>
</g>
<!-- Node1&#45;&gt;Node4 -->
<g id="edge3_Node000001_Node000004" class="edge">
<title>Node1&#45;&gt;Node4</title>
<g id="a_edge3_Node000001_Node000004"><a xlink:title=" ">
<path fill="none" stroke="#63b8ff" d="M134.9,-28.77C146.25,-27.29 158.11,-25.73 169.64,-24.22"/>
<polygon fill="#63b8ff" stroke="#63b8ff" points="170.08,-27.69 179.54,-22.93 169.17,-20.75 170.08,-27.69"/>
</a>
</g>
</g>
<!-- Node3 -->
<g id="Node000003" class="node">
<title>Node3</title>
<g id="a_Node000003"><a xlink:href="classWavelengthConfig.html#aac745a2f42099f82975e7b205aa5a6a7" target="_top" xlink:title="Emitted when the list of recent colors changes (a color was added).">
<polygon fill="white" stroke="#666666" points="483,-76 355.25,-76 355.25,-47 483,-47 483,-76"/>
<text text-anchor="start" x="363.25" y="-62.5" font-family="Helvetica,sans-Serif" font-size="10.00">WavelengthConfig::recent</text>
<text text-anchor="middle" x="419.12" y="-52" font-family="Helvetica,sans-Serif" font-size="10.00">ColorsChanged</text>
</a>
</g>
</g>
<!-- Node2&#45;&gt;Node3 -->
<g id="edge2_Node000002_Node000003" class="edge">
<title>Node2&#45;&gt;Node3</title>
<g id="a_edge2_Node000002_Node000003"><a xlink:title=" ">
<path fill="none" stroke="#63b8ff" d="M319.42,-61.5C327.35,-61.5 335.42,-61.5 343.36,-61.5"/>
<polygon fill="#63b8ff" stroke="#63b8ff" points="343.35,-65 353.35,-61.5 343.35,-58 343.35,-65"/>
</a>
</g>
</g>
</g>
</svg>
