<?xml version="1.0" encoding="UTF-8" standalone="no"?>
<!DOCTYPE svg PUBLIC "-//W3C//DTD SVG 1.1//EN"
 "http://www.w3.org/Graphics/SVG/1.1/DTD/svg11.dtd">
<!-- Generated by graphviz version 12.2.1 (0)
 -->
<!-- Title: LongTextDisplayEffect::sizeHint Pages: 1 -->
<svg width="587pt" height="59pt"
 viewBox="0.00 0.00 586.50 59.00" xmlns="http://www.w3.org/2000/svg" xmlns:xlink="http://www.w3.org/1999/xlink">
<g id="graph0" class="graph" transform="scale(1 1) rotate(0) translate(4 55)">
<title>LongTextDisplayEffect::sizeHint</title>
<!-- Node1 -->
<g id="Node000001" class="node">
<title>Node1</title>
<g id="a_Node000001"><a xlink:title="Returns the recommended size for the widget based on the processed text content. The height is calcul...">
<polygon fill="#999999" stroke="#666666" points="114.25,-29 0,-29 0,0 114.25,0 114.25,-29"/>
<text text-anchor="start" x="8" y="-15.5" font-family="Helvetica,sans-Serif" font-size="10.00">LongTextDisplayEffect</text>
<text text-anchor="middle" x="57.12" y="-5" font-family="Helvetica,sans-Serif" font-size="10.00">::sizeHint</text>
</a>
</g>
</g>
<!-- Node2 -->
<g id="Node000002" class="node">
<title>Node2</title>
<g id="a_Node000002"><a xlink:href="classLongTextDisplayEffect.html#a515b93e6788d2cbb060950762233b25a" target="_top" xlink:title="Constructs a CyberLongTextDisplay widget. Initializes the widget with default size policies,...">
<polygon fill="white" stroke="#666666" points="270.5,-51 150.25,-51 150.25,-22 270.5,-22 270.5,-51"/>
<text text-anchor="start" x="158.25" y="-37.5" font-family="Helvetica,sans-Serif" font-size="10.00">LongTextDisplayEffect</text>
<text text-anchor="middle" x="210.38" y="-27" font-family="Helvetica,sans-Serif" font-size="10.00">::LongTextDisplayEffect</text>
</a>
</g>
</g>
<!-- Node1&#45;&gt;Node2 -->
<g id="edge1_Node000001_Node000002" class="edge">
<title>Node1&#45;&gt;Node2</title>
<g id="a_edge1_Node000001_Node000002"><a xlink:title=" ">
<path fill="none" stroke="#63b8ff" d="M114.44,-22.69C122.32,-23.84 130.5,-25.03 138.6,-26.21"/>
<polygon fill="#63b8ff" stroke="#63b8ff" points="138.07,-29.67 148.47,-27.64 139.08,-22.74 138.07,-29.67"/>
</a>
</g>
</g>
<!-- Node3 -->
<g id="Node000003" class="node">
<title>Node3</title>
<g id="a_Node000003"><a xlink:href="classLongTextDisplayEffect.html#a3c62e6c78599b4e8eac2ef62cdae7319" target="_top" xlink:title="Processes the original_text_ into wrapped lines based on the current widget width....">
<polygon fill="white" stroke="#666666" points="420.75,-29 306.5,-29 306.5,0 420.75,0 420.75,-29"/>
<text text-anchor="start" x="314.5" y="-15.5" font-family="Helvetica,sans-Serif" font-size="10.00">LongTextDisplayEffect</text>
<text text-anchor="middle" x="363.62" y="-5" font-family="Helvetica,sans-Serif" font-size="10.00">::ProcessText</text>
</a>
</g>
</g>
<!-- Node1&#45;&gt;Node3 -->
<g id="edge4_Node000001_Node000003" class="edge">
<title>Node1&#45;&gt;Node3</title>
<g id="a_edge4_Node000001_Node000003"><a xlink:title=" ">
<path fill="none" stroke="#63b8ff" d="M114.64,-13.79C126.41,-13.67 138.73,-13.56 150.25,-13.5 203.69,-13.21 217.06,-13.21 270.5,-13.5 278.33,-13.54 286.53,-13.61 294.67,-13.68"/>
<polygon fill="#63b8ff" stroke="#63b8ff" points="294.56,-17.18 304.6,-13.78 294.63,-10.18 294.56,-17.18"/>
</a>
</g>
</g>
<!-- Node2&#45;&gt;Node3 -->
<g id="edge2_Node000002_Node000003" class="edge">
<title>Node2&#45;&gt;Node3</title>
<g id="a_edge2_Node000002_Node000003"><a xlink:title=" ">
<path fill="none" stroke="#63b8ff" d="M270.72,-27.87C278.71,-26.71 286.95,-25.51 295.07,-24.33"/>
<polygon fill="#63b8ff" stroke="#63b8ff" points="295.53,-27.8 304.92,-22.89 294.52,-20.87 295.53,-27.8"/>
</a>
</g>
</g>
<!-- Node4 -->
<g id="Node000004" class="node">
<title>Node4</title>
<g id="a_Node000004"><a xlink:href="classLongTextDisplayEffect.html#aa577c95b45549f021c2ca984f7e5f8b3" target="_top" xlink:title="Emitted after ProcessText() finishes, indicating the total calculated height required to display all ...">
<polygon fill="white" stroke="#666666" points="578.5,-29 456.75,-29 456.75,0 578.5,0 578.5,-29"/>
<text text-anchor="start" x="464.75" y="-15.5" font-family="Helvetica,sans-Serif" font-size="10.00">LongTextDisplayEffect</text>
<text text-anchor="middle" x="517.62" y="-5" font-family="Helvetica,sans-Serif" font-size="10.00">::contentHeightChanged</text>
</a>
</g>
</g>
<!-- Node3&#45;&gt;Node4 -->
<g id="edge3_Node000003_Node000004" class="edge">
<title>Node3&#45;&gt;Node4</title>
<g id="a_edge3_Node000003_Node000004"><a xlink:title=" ">
<path fill="none" stroke="#63b8ff" d="M421.22,-14.5C429.03,-14.5 437.12,-14.5 445.15,-14.5"/>
<polygon fill="#63b8ff" stroke="#63b8ff" points="444.9,-18 454.9,-14.5 444.9,-11 444.9,-18"/>
</a>
</g>
</g>
</g>
</svg>
