<?xml version="1.0" encoding="UTF-8" standalone="no"?>
<!DOCTYPE svg PUBLIC "-//W3C//DTD SVG 1.1//EN"
 "http://www.w3.org/Graphics/SVG/1.1/DTD/svg11.dtd">
<!-- Generated by graphviz version 12.2.1 (0)
 -->
<!-- Title: MessageService::MessageService Pages: 1 -->
<svg width="1058pt" height="421pt"
 viewBox="0.00 0.00 1058.00 421.47" xmlns="http://www.w3.org/2000/svg" xmlns:xlink="http://www.w3.org/1999/xlink">
<g id="graph0" class="graph" transform="scale(1 1) rotate(0) translate(4 417.47)">
<title>MessageService::MessageService</title>
<!-- Node1 -->
<g id="Node000001" class="node">
<title>Node1</title>
<g id="a_Node000001"><a xlink:title="Deleted copy constructor to prevent copying.">
<polygon fill="#999999" stroke="#666666" points="1050,-191.75 881,-191.75 881,-173.25 1050,-173.25 1050,-191.75"/>
<text text-anchor="middle" x="965.5" y="-178.25" font-family="Helvetica,sans-Serif" font-size="10.00">MessageService::MessageService</text>
</a>
</g>
</g>
<!-- Node1&#45;&gt;Node1 -->
<g id="edge22_Node000001_Node000001" class="edge">
<title>Node1&#45;&gt;Node1</title>
<g id="a_edge22_Node000001_Node000001"><a xlink:title=" ">
<path fill="none" stroke="#63b8ff" d="M1001.39,-201.74C998.57,-206.34 986.61,-209.75 965.5,-209.75 930.86,-209.75 920.85,-200.57 935.46,-192"/>
<polygon fill="#63b8ff" stroke="#63b8ff" points="1004.47,-200.06 996.32,-193.29 998.46,-203.67 1004.47,-200.06"/>
</a>
</g>
</g>
<!-- Node2 -->
<g id="Node000002" class="node">
<title>Node2</title>
<g id="a_Node000002"><a xlink:href="classMessageService.html#a3d9355ae6f778ed4799141d921b6e7e4" target="_top" xlink:title="Gets the singleton instance of the MessageService.">
<polygon fill="white" stroke="#666666" points="845,-210.75 696.25,-210.75 696.25,-192.25 845,-192.25 845,-210.75"/>
<text text-anchor="middle" x="770.62" y="-197.25" font-family="Helvetica,sans-Serif" font-size="10.00">MessageService::GetInstance</text>
</a>
</g>
</g>
<!-- Node1&#45;&gt;Node2 -->
<g id="edge1_Node000001_Node000002" class="edge">
<title>Node1&#45;&gt;Node2</title>
<g id="a_edge1_Node000001_Node000002"><a xlink:title=" ">
<path fill="none" stroke="#63b8ff" d="M869.36,-191.87C861.28,-192.67 853.19,-193.47 845.31,-194.24"/>
<polygon fill="#63b8ff" stroke="#63b8ff" points="869.63,-195.36 879.24,-190.9 868.94,-188.4 869.63,-195.36"/>
</a>
</g>
</g>
<!-- Node18 -->
<g id="Node000018" class="node">
<title>Node18</title>
<g id="a_Node000018"><a xlink:href="classMessageService.html#af279c5cabce53187f493ecd81025d4ea" target="_top" xlink:title="Deleted assignment operator to prevent assignment.">
<polygon fill="white" stroke="#666666" points="839,-173.75 702.25,-173.75 702.25,-155.25 839,-155.25 839,-173.75"/>
<text text-anchor="middle" x="770.62" y="-160.25" font-family="Helvetica,sans-Serif" font-size="10.00">MessageService::operator=</text>
</a>
</g>
</g>
<!-- Node1&#45;&gt;Node18 -->
<g id="edge23_Node000001_Node000018" class="edge">
<title>Node1&#45;&gt;Node18</title>
<g id="a_edge23_Node000001_Node000018"><a xlink:title=" ">
<path fill="none" stroke="#63b8ff" d="M869.35,-173.62C859.22,-172.68 849.08,-171.73 839.37,-170.82"/>
<polygon fill="#63b8ff" stroke="#63b8ff" points="868.95,-177.1 879.24,-174.54 869.61,-170.13 868.95,-177.1"/>
</a>
</g>
</g>
<!-- Node3 -->
<g id="Node000003" class="node">
<title>Node3</title>
<g id="a_Node000003"><a xlink:href="classChatView.html#a4b181808cf22581bd24eb4bab9e07e43" target="_top" xlink:title="Opens a file dialog to allow the user to select a file for sending. If a file is selected,...">
<polygon fill="white" stroke="#666666" points="635.12,-386.75 526.88,-386.75 526.88,-368.25 635.12,-368.25 635.12,-386.75"/>
<text text-anchor="middle" x="581" y="-373.25" font-family="Helvetica,sans-Serif" font-size="10.00">ChatView::AttachFile</text>
</a>
</g>
</g>
<!-- Node2&#45;&gt;Node3 -->
<g id="edge2_Node000002_Node000003" class="edge">
<title>Node2&#45;&gt;Node3</title>
<g id="a_edge2_Node000002_Node000003"><a xlink:title=" ">
<path fill="none" stroke="#63b8ff" d="M759.99,-220.88C743.59,-251.99 707.41,-313.17 660.25,-348.5 648.77,-357.1 634.47,-363.39 621.24,-367.86"/>
<polygon fill="#63b8ff" stroke="#63b8ff" points="762.98,-222.72 764.43,-212.23 756.75,-219.53 762.98,-222.72"/>
</a>
</g>
</g>
<!-- Node4 -->
<g id="Node000004" class="node">
<title>Node4</title>
<g id="a_Node000004"><a xlink:href="classChatView.html#ad2db6f12afdba4b49ec7775b2d560ad3" target="_top" xlink:title="Constructs a WavelengthChatView. Initializes the UI elements (labels, message area,...">
<polygon fill="white" stroke="#666666" points="106.75,-234.75 0,-234.75 0,-216.25 106.75,-216.25 106.75,-234.75"/>
<text text-anchor="middle" x="53.38" y="-221.25" font-family="Helvetica,sans-Serif" font-size="10.00">ChatView::ChatView</text>
</a>
</g>
</g>
<!-- Node2&#45;&gt;Node4 -->
<g id="edge5_Node000002_Node000004" class="edge">
<title>Node2&#45;&gt;Node4</title>
<g id="a_edge5_Node000002_Node000004"><a xlink:title=" ">
<path fill="none" stroke="#63b8ff" d="M758.46,-220.51C741.32,-247.59 705.69,-296.13 660.25,-315.5 443.82,-407.78 148.94,-273.33 72.87,-235.13"/>
<polygon fill="#63b8ff" stroke="#63b8ff" points="761.27,-222.63 763.5,-212.27 755.3,-218.98 761.27,-222.63"/>
</a>
</g>
</g>
<!-- Node7 -->
<g id="Node000007" class="node">
<title>Node7</title>
<g id="a_Node000007"><a xlink:href="classSessionCoordinator.html#a0a388bb572398d11b8959eac0a8e612f" target="_top" xlink:title="Connects signals between the various Wavelength components. Called during Initialize().">
<polygon fill="white" stroke="#666666" points="631.75,-306 530.25,-306 530.25,-277 631.75,-277 631.75,-306"/>
<text text-anchor="start" x="538.25" y="-292.5" font-family="Helvetica,sans-Serif" font-size="10.00">SessionCoordinator</text>
<text text-anchor="middle" x="581" y="-282" font-family="Helvetica,sans-Serif" font-size="10.00">::ConnectSignals</text>
</a>
</g>
</g>
<!-- Node2&#45;&gt;Node7 -->
<g id="edge6_Node000002_Node000007" class="edge">
<title>Node2&#45;&gt;Node7</title>
<g id="a_edge6_Node000002_Node000007"><a xlink:title=" ">
<path fill="none" stroke="#63b8ff" d="M747.23,-217.66C725.78,-232.54 692.05,-254.38 660.25,-268.5 651.32,-272.46 641.52,-275.96 631.97,-278.96"/>
<polygon fill="#63b8ff" stroke="#63b8ff" points="749.05,-220.66 755.21,-212.04 745.02,-214.94 749.05,-220.66"/>
</a>
</g>
</g>
<!-- Node9 -->
<g id="Node000009" class="node">
<title>Node9</title>
<g id="a_Node000009"><a xlink:href="classMessageProcessor.html#af12c62b3127edeb52c44b4ef1137eff7" target="_top" xlink:title="Private constructor to enforce the singleton pattern. Connects internal signals to the corresponding ...">
<polygon fill="white" stroke="#666666" points="653.88,-259 508.12,-259 508.12,-230 653.88,-230 653.88,-259"/>
<text text-anchor="start" x="516.12" y="-245.5" font-family="Helvetica,sans-Serif" font-size="10.00">MessageProcessor::Message</text>
<text text-anchor="middle" x="581" y="-235" font-family="Helvetica,sans-Serif" font-size="10.00">Processor</text>
</a>
</g>
</g>
<!-- Node2&#45;&gt;Node9 -->
<g id="edge8_Node000002_Node000009" class="edge">
<title>Node2&#45;&gt;Node9</title>
<g id="a_edge8_Node000002_Node000009"><a xlink:title=" ">
<path fill="none" stroke="#63b8ff" d="M716.59,-213.65C695.01,-218.6 669.86,-224.36 647.18,-229.56"/>
<polygon fill="#63b8ff" stroke="#63b8ff" points="717.08,-217.13 726.04,-211.49 715.51,-210.31 717.08,-217.13"/>
</a>
</g>
</g>
<!-- Node10 -->
<g id="Node000010" class="node">
<title>Node10</title>
<g id="a_Node000010"><a xlink:href="classChatView.html#a19088a1cf7c1314fcdc1bca5a0b28b81" target="_top" xlink:title="Slot called when the PTT button is pressed. Plays the PTT activation sound, sets the state to Request...">
<polygon fill="white" stroke="#666666" points="296.75,-253.75 142.75,-253.75 142.75,-235.25 296.75,-235.25 296.75,-253.75"/>
<text text-anchor="middle" x="219.75" y="-240.25" font-family="Helvetica,sans-Serif" font-size="10.00">ChatView::OnPttButtonPressed</text>
</a>
</g>
</g>
<!-- Node2&#45;&gt;Node10 -->
<g id="edge9_Node000002_Node000010" class="edge">
<title>Node2&#45;&gt;Node10</title>
<g id="a_edge9_Node000002_Node000010"><a xlink:title=" ">
<path fill="none" stroke="#63b8ff" d="M684.67,-207.69C632,-211.56 562.93,-216.71 501.75,-221.5 432.46,-226.92 353.58,-233.41 297.07,-238.11"/>
<polygon fill="#63b8ff" stroke="#63b8ff" points="684.77,-211.19 694.49,-206.97 684.26,-204.21 684.77,-211.19"/>
</a>
</g>
</g>
<!-- Node11 -->
<g id="Node000011" class="node">
<title>Node11</title>
<g id="a_Node000011"><a xlink:href="classChatView.html#ac40ec4de8eddc9ea4fc2d3e210aa6c4d" target="_top" xlink:title="Slot called when the PTT button is released. Plays the PTT deactivation sound. If transmitting,...">
<polygon fill="white" stroke="#666666" points="660.25,-173.75 501.75,-173.75 501.75,-155.25 660.25,-155.25 660.25,-173.75"/>
<text text-anchor="middle" x="581" y="-160.25" font-family="Helvetica,sans-Serif" font-size="10.00">ChatView::OnPttButtonReleased</text>
</a>
</g>
</g>
<!-- Node2&#45;&gt;Node11 -->
<g id="edge11_Node000002_Node000011" class="edge">
<title>Node2&#45;&gt;Node11</title>
<g id="a_edge11_Node000002_Node000011"><a xlink:title=" ">
<path fill="none" stroke="#63b8ff" d="M709.06,-189.56C683.92,-184.6 655.11,-178.92 631.29,-174.22"/>
<polygon fill="#63b8ff" stroke="#63b8ff" points="708.36,-192.98 718.84,-191.49 709.71,-186.12 708.36,-192.98"/>
</a>
</g>
</g>
<!-- Node15 -->
<g id="Node000015" class="node">
<title>Node15</title>
<g id="a_Node000015"><a xlink:href="classSessionCoordinator.html#a8c66229e945eb35fa8791ea88d37cdaa" target="_top" xlink:title="Sends a file to the currently active wavelength. Delegates the call to WavelengthMessageService.">
<polygon fill="white" stroke="#666666" points="631.75,-137 530.25,-137 530.25,-108 631.75,-108 631.75,-137"/>
<text text-anchor="start" x="538.25" y="-123.5" font-family="Helvetica,sans-Serif" font-size="10.00">SessionCoordinator</text>
<text text-anchor="middle" x="581" y="-113" font-family="Helvetica,sans-Serif" font-size="10.00">::SendFile</text>
</a>
</g>
</g>
<!-- Node2&#45;&gt;Node15 -->
<g id="edge18_Node000002_Node000015" class="edge">
<title>Node2&#45;&gt;Node15</title>
<g id="a_edge18_Node000002_Node000015"><a xlink:title=" ">
<path fill="none" stroke="#63b8ff" d="M707.01,-187.79C703.29,-186.21 699.67,-184.45 696.25,-182.5 676.61,-171.27 679.64,-158.16 660.25,-146.5 651.6,-141.3 641.74,-137.14 631.99,-133.84"/>
<polygon fill="#63b8ff" stroke="#63b8ff" points="705.72,-191.04 716.31,-191.25 708.17,-184.48 705.72,-191.04"/>
</a>
</g>
</g>
<!-- Node16 -->
<g id="Node000016" class="node">
<title>Node16</title>
<g id="a_Node000016"><a xlink:href="classChatView.html#a424556ba1072ba443433af3af827c5d5" target="_top" xlink:title="Sends the text message currently in the input field. Clears the input field and sends the message via...">
<polygon fill="white" stroke="#666666" points="282.88,-103.75 156.62,-103.75 156.62,-85.25 282.88,-85.25 282.88,-103.75"/>
<text text-anchor="middle" x="219.75" y="-90.25" font-family="Helvetica,sans-Serif" font-size="10.00">ChatView::SendMessage</text>
</a>
</g>
</g>
<!-- Node2&#45;&gt;Node16 -->
<g id="edge19_Node000002_Node000016" class="edge">
<title>Node2&#45;&gt;Node16</title>
<g id="a_edge19_Node000002_Node000016"><a xlink:title=" ">
<path fill="none" stroke="#63b8ff" d="M701.58,-186.51C699.72,-185.28 697.94,-183.94 696.25,-182.5 665.69,-156.37 692.51,-123.5 660.25,-99.5 533.21,-4.99 323.37,-60.4 248.42,-84.79"/>
<polygon fill="#63b8ff" stroke="#63b8ff" points="699.65,-189.44 710.1,-191.17 703,-183.3 699.65,-189.44"/>
</a>
</g>
</g>
<!-- Node17 -->
<g id="Node000017" class="node">
<title>Node17</title>
<g id="a_Node000017"><a xlink:href="classSessionCoordinator.html#a6bf70b7c88a2f73ab0510bbc97315c02" target="_top" xlink:title="Sends a text message to the currently active wavelength. Delegates the call to WavelengthMessageServi...">
<polygon fill="white" stroke="#666666" points="631.75,-29 530.25,-29 530.25,0 631.75,0 631.75,-29"/>
<text text-anchor="start" x="538.25" y="-15.5" font-family="Helvetica,sans-Serif" font-size="10.00">SessionCoordinator</text>
<text text-anchor="middle" x="581" y="-5" font-family="Helvetica,sans-Serif" font-size="10.00">::SendMessage</text>
</a>
</g>
</g>
<!-- Node2&#45;&gt;Node17 -->
<g id="edge21_Node000002_Node000017" class="edge">
<title>Node2&#45;&gt;Node17</title>
<g id="a_edge21_Node000002_Node000017"><a xlink:title=" ">
<path fill="none" stroke="#63b8ff" d="M700.01,-185.87C698.7,-184.81 697.44,-183.69 696.25,-182.5 651.12,-137.38 703.03,-90.86 660.25,-43.5 652.67,-35.11 642.45,-29.15 631.9,-24.9"/>
<polygon fill="#63b8ff" stroke="#63b8ff" points="697.79,-188.6 708.09,-191.06 701.57,-182.71 697.79,-188.6"/>
</a>
</g>
</g>
<!-- Node3&#45;&gt;Node4 -->
<g id="edge3_Node000003_Node000004" class="edge">
<title>Node3&#45;&gt;Node4</title>
<g id="a_edge3_Node000003_Node000004"><a xlink:title=" ">
<path fill="none" stroke="#63b8ff" d="M532.09,-389.87C511.78,-394.51 487.76,-399.21 465.75,-401.5 321.05,-416.53 262,-431.83 142.75,-348.5 99,-317.93 69.06,-258.5 58.54,-235.2"/>
<polygon fill="#63b8ff" stroke="#63b8ff" points="532.85,-393.29 541.79,-387.59 531.25,-386.47 532.85,-393.29"/>
</a>
</g>
</g>
<!-- Node5 -->
<g id="Node000005" class="node">
<title>Node5</title>
<g id="a_Node000005"><a xlink:href="classShortcutManager.html#a4d014d550ca996c51abb06649f71a3fa" target="_top" xlink:title="Registers shortcuts specific to the WavelengthChatView.">
<polygon fill="#fff0f0" stroke="red" points="465.75,-392 332.75,-392 332.75,-363 465.75,-363 465.75,-392"/>
<text text-anchor="start" x="340.75" y="-378.5" font-family="Helvetica,sans-Serif" font-size="10.00">ShortcutManager::Register</text>
<text text-anchor="middle" x="399.25" y="-368" font-family="Helvetica,sans-Serif" font-size="10.00">ChatViewShortcuts</text>
</a>
</g>
</g>
<!-- Node3&#45;&gt;Node5 -->
<g id="edge4_Node000003_Node000005" class="edge">
<title>Node3&#45;&gt;Node5</title>
<g id="a_edge4_Node000003_Node000005"><a xlink:title=" ">
<path fill="none" stroke="#63b8ff" d="M515.19,-377.5C499.27,-377.5 482.2,-377.5 466.22,-377.5"/>
<polygon fill="#63b8ff" stroke="#63b8ff" points="515.04,-381 525.04,-377.5 515.04,-374 515.04,-381"/>
</a>
</g>
</g>
<!-- Node8 -->
<g id="Node000008" class="node">
<title>Node8</title>
<g id="a_Node000008"><a xlink:href="classSessionCoordinator.html#a34a0ef1f02508f6cfd0b8d60164be83a" target="_top" xlink:title="Initializes the coordinator and its underlying components. Connects signals between various Wavelengt...">
<polygon fill="white" stroke="#666666" points="450,-306 348.5,-306 348.5,-277 450,-277 450,-306"/>
<text text-anchor="start" x="356.5" y="-292.5" font-family="Helvetica,sans-Serif" font-size="10.00">SessionCoordinator</text>
<text text-anchor="middle" x="399.25" y="-282" font-family="Helvetica,sans-Serif" font-size="10.00">::Initialize</text>
</a>
</g>
</g>
<!-- Node7&#45;&gt;Node8 -->
<g id="edge7_Node000007_Node000008" class="edge">
<title>Node7&#45;&gt;Node8</title>
<g id="a_edge7_Node000007_Node000008"><a xlink:title=" ">
<path fill="none" stroke="#63b8ff" d="M518.57,-291.5C496.34,-291.5 471.51,-291.5 450.36,-291.5"/>
<polygon fill="#63b8ff" stroke="#63b8ff" points="518.42,-295 528.42,-291.5 518.42,-288 518.42,-295"/>
</a>
</g>
</g>
<!-- Node10&#45;&gt;Node4 -->
<g id="edge10_Node000010_Node000004" class="edge">
<title>Node10&#45;&gt;Node4</title>
<g id="a_edge10_Node000010_Node000004"><a xlink:title=" ">
<path fill="none" stroke="#63b8ff" d="M131.16,-234.38C122.97,-233.43 114.86,-232.49 107.14,-231.6"/>
<polygon fill="#63b8ff" stroke="#63b8ff" points="130.5,-237.82 140.83,-235.49 131.3,-230.87 130.5,-237.82"/>
</a>
</g>
</g>
<!-- Node11&#45;&gt;Node4 -->
<g id="edge12_Node000011_Node000004" class="edge">
<title>Node11&#45;&gt;Node4</title>
<g id="a_edge12_Node000011_Node000004"><a xlink:title=" ">
<path fill="none" stroke="#63b8ff" d="M501.59,-175.8C489.59,-177.44 477.35,-179.05 465.75,-180.5 337.07,-196.55 185.34,-212.34 107.03,-220.25"/>
<polygon fill="#63b8ff" stroke="#63b8ff" points="502.06,-179.27 511.49,-174.44 501.1,-172.33 502.06,-179.27"/>
</a>
</g>
</g>
<!-- Node12 -->
<g id="Node000012" class="node">
<title>Node12</title>
<g id="a_Node000012"><a xlink:href="classChatView.html#ae1708fe2be43fe0f0bf4e000d968b385" target="_top" xlink:title="Slot called when the server grants the PTT request. If the frequency matches and the state is Request...">
<polygon fill="white" stroke="#666666" points="281.75,-177.75 157.75,-177.75 157.75,-159.25 281.75,-159.25 281.75,-177.75"/>
<text text-anchor="middle" x="219.75" y="-164.25" font-family="Helvetica,sans-Serif" font-size="10.00">ChatView::OnPttGranted</text>
</a>
</g>
</g>
<!-- Node11&#45;&gt;Node12 -->
<g id="edge13_Node000011_Node000012" class="edge">
<title>Node11&#45;&gt;Node12</title>
<g id="a_edge13_Node000011_Node000012"><a xlink:title=" ">
<path fill="none" stroke="#63b8ff" d="M490.15,-165.5C425.21,-166.22 339.2,-167.18 282.03,-167.82"/>
<polygon fill="#63b8ff" stroke="#63b8ff" points="490.13,-169 500.09,-165.39 490.05,-162 490.13,-169"/>
</a>
</g>
</g>
<!-- Node13 -->
<g id="Node000013" class="node">
<title>Node13</title>
<g id="a_Node000013"><a xlink:href="classChatView.html#a4cbbc74a8774cc401a3117bedf750e0f" target="_top" xlink:title="Configures the view for a specific Wavelength. Sets the header title with the frequency and optional ...">
<polygon fill="white" stroke="#666666" points="463.88,-140.75 334.62,-140.75 334.62,-122.25 463.88,-122.25 463.88,-140.75"/>
<text text-anchor="middle" x="399.25" y="-127.25" font-family="Helvetica,sans-Serif" font-size="10.00">ChatView::SetWavelength</text>
</a>
</g>
</g>
<!-- Node11&#45;&gt;Node13 -->
<g id="edge15_Node000011_Node000013" class="edge">
<title>Node11&#45;&gt;Node13</title>
<g id="a_edge15_Node000011_Node000013"><a xlink:title=" ">
<path fill="none" stroke="#63b8ff" d="M515.86,-152.72C495.31,-148.95 472.79,-144.82 453.14,-141.21"/>
<polygon fill="#63b8ff" stroke="#63b8ff" points="515.08,-156.14 525.55,-154.5 516.35,-149.26 515.08,-156.14"/>
</a>
</g>
</g>
<!-- Node14 -->
<g id="Node000014" class="node">
<title>Node14</title>
<g id="a_Node000014"><a xlink:href="classChatView.html#a119a0cb1a68f2e3a60e4153912fa43f2" target="_top" xlink:title="Starts capturing audio from the microphone if PTT state is Transmitting. Connects the readyRead signa...">
<polygon fill="white" stroke="#666666" points="465.38,-103.75 333.12,-103.75 333.12,-85.25 465.38,-85.25 465.38,-103.75"/>
<text text-anchor="middle" x="399.25" y="-90.25" font-family="Helvetica,sans-Serif" font-size="10.00">ChatView::StartAudioInput</text>
</a>
</g>
</g>
<!-- Node11&#45;&gt;Node14 -->
<g id="edge16_Node000011_Node000014" class="edge">
<title>Node11&#45;&gt;Node14</title>
<g id="a_edge16_Node000011_Node000014"><a xlink:title=" ">
<path fill="none" stroke="#63b8ff" d="M511.78,-151.1C508.32,-149.72 504.96,-148.19 501.75,-146.5 482.54,-136.4 484.67,-124.14 465.75,-113.5 459.04,-109.73 451.52,-106.65 444.02,-104.15"/>
<polygon fill="#63b8ff" stroke="#63b8ff" points="510.33,-154.3 520.92,-154.35 512.67,-147.71 510.33,-154.3"/>
</a>
</g>
</g>
<!-- Node12&#45;&gt;Node4 -->
<g id="edge14_Node000012_Node000004" class="edge">
<title>Node12&#45;&gt;Node4</title>
<g id="a_edge14_Node000012_Node000004"><a xlink:title=" ">
<path fill="none" stroke="#63b8ff" d="M175.87,-181.62C165.03,-185.05 153.43,-188.82 142.75,-192.5 121.23,-199.91 97.02,-209 79.39,-215.77"/>
<polygon fill="#63b8ff" stroke="#63b8ff" points="176.89,-184.96 185.39,-178.63 174.8,-178.29 176.89,-184.96"/>
</a>
</g>
</g>
<!-- Node14&#45;&gt;Node12 -->
<g id="edge17_Node000014_Node000012" class="edge">
<title>Node14&#45;&gt;Node12</title>
<g id="a_edge17_Node000014_Node000012"><a xlink:title=" ">
<path fill="none" stroke="#63b8ff" d="M349.55,-107.6C343.84,-109.44 338.13,-111.42 332.75,-113.5 298.21,-126.87 259.84,-146.92 238.17,-158.76"/>
<polygon fill="#63b8ff" stroke="#63b8ff" points="350.49,-110.97 359.02,-104.69 348.43,-104.28 350.49,-110.97"/>
</a>
</g>
</g>
<!-- Node16&#45;&gt;Node4 -->
<g id="edge20_Node000016_Node000004" class="edge">
<title>Node16&#45;&gt;Node4</title>
<g id="a_edge20_Node000016_Node000004"><a xlink:title=" ">
<path fill="none" stroke="#63b8ff" d="M195.89,-110.72C180.64,-121.69 160.25,-136.65 142.75,-150.5 114.19,-173.1 81.84,-201.23 65.33,-215.78"/>
<polygon fill="#63b8ff" stroke="#63b8ff" points="197.76,-113.68 203.85,-105.02 193.69,-107.99 197.76,-113.68"/>
</a>
</g>
</g>
</g>
</svg>
