<?xml version="1.0" encoding="UTF-8" standalone="no"?>
<!DOCTYPE svg PUBLIC "-//W3C//DTD SVG 1.1//EN"
 "http://www.w3.org/Graphics/SVG/1.1/DTD/svg11.dtd">
<!-- Generated by graphviz version 12.2.1 (0)
 -->
<!-- Title: WavelengthConfig::recentColorsChanged Pages: 1 -->
<svg width="523pt" height="319pt"
 viewBox="0.00 0.00 523.25 319.00" xmlns="http://www.w3.org/2000/svg" xmlns:xlink="http://www.w3.org/1999/xlink">
<g id="graph0" class="graph" transform="scale(1 1) rotate(0) translate(4 315)">
<title>WavelengthConfig::recentColorsChanged</title>
<!-- Node1 -->
<g id="Node000001" class="node">
<title>Node1</title>
<g id="a_Node000001"><a xlink:title="Emitted when the list of recent colors changes (a color was added).">
<polygon fill="#999999" stroke="#666666" points="515.25,-123 387.5,-123 387.5,-94 515.25,-94 515.25,-123"/>
<text text-anchor="start" x="395.5" y="-109.5" font-family="Helvetica,sans-Serif" font-size="10.00">WavelengthConfig::recent</text>
<text text-anchor="middle" x="451.38" y="-99" font-family="Helvetica,sans-Serif" font-size="10.00">ColorsChanged</text>
</a>
</g>
</g>
<!-- Node2 -->
<g id="Node000002" class="node">
<title>Node2</title>
<g id="a_Node000002"><a xlink:href="classWavelengthConfig.html#a7ebb29db2d1c1664c1fca81e52f67565" target="_top" xlink:title="Adds a color to the list of recently used colors. If the color already exists, it&#39;s moved to the fron...">
<polygon fill="white" stroke="#666666" points="351.5,-170 202.75,-170 202.75,-141 351.5,-141 351.5,-170"/>
<text text-anchor="start" x="210.75" y="-156.5" font-family="Helvetica,sans-Serif" font-size="10.00">WavelengthConfig::AddRecent</text>
<text text-anchor="middle" x="277.12" y="-146" font-family="Helvetica,sans-Serif" font-size="10.00">Color</text>
</a>
</g>
</g>
<!-- Node1&#45;&gt;Node2 -->
<g id="edge1_Node000001_Node000002" class="edge">
<title>Node1&#45;&gt;Node2</title>
<g id="a_edge1_Node000001_Node000002"><a xlink:title=" ">
<path fill="none" stroke="#63b8ff" d="M384.81,-126.39C367.67,-131.07 349.37,-136.06 332.86,-140.56"/>
<polygon fill="#63b8ff" stroke="#63b8ff" points="385.69,-129.78 394.41,-123.77 383.85,-123.03 385.69,-129.78"/>
</a>
</g>
</g>
<!-- Node10 -->
<g id="Node000010" class="node">
<title>Node10</title>
<g id="a_Node000010"><a xlink:href="classAppearanceSettingsWidget.html#a1ecc9de064a98ca57c7147d11116fca4" target="_top" xlink:title="Constructs the AppearanceSettingsWidget. Initializes the UI, loads current settings from WavelengthCo...">
<polygon fill="white" stroke="#666666" points="347.38,-123 206.88,-123 206.88,-94 347.38,-94 347.38,-123"/>
<text text-anchor="start" x="214.88" y="-109.5" font-family="Helvetica,sans-Serif" font-size="10.00">AppearanceSettingsWidget</text>
<text text-anchor="middle" x="277.12" y="-99" font-family="Helvetica,sans-Serif" font-size="10.00">::AppearanceSettingsWidget</text>
</a>
</g>
</g>
<!-- Node1&#45;&gt;Node10 -->
<g id="edge9_Node000001_Node000010" class="edge">
<title>Node1&#45;&gt;Node10</title>
<g id="a_edge9_Node000001_Node000010"><a xlink:title=" ">
<path fill="none" stroke="#63b8ff" d="M375.9,-108.5C366.53,-108.5 356.96,-108.5 347.67,-108.5"/>
<polygon fill="#63b8ff" stroke="#63b8ff" points="375.7,-112 385.7,-108.5 375.7,-105 375.7,-112"/>
</a>
</g>
</g>
<!-- Node11 -->
<g id="Node000011" class="node">
<title>Node11</title>
<g id="a_Node000011"><a xlink:href="classWavelengthConfig.html#a045bf9dd6f33936f8c172525958f446c" target="_top" xlink:title="Restores all configuration settings to their default values. Also clears saved shortcuts in persisten...">
<polygon fill="white" stroke="#666666" points="344.38,-76 209.88,-76 209.88,-47 344.38,-47 344.38,-76"/>
<text text-anchor="start" x="217.88" y="-62.5" font-family="Helvetica,sans-Serif" font-size="10.00">WavelengthConfig::Restore</text>
<text text-anchor="middle" x="277.12" y="-52" font-family="Helvetica,sans-Serif" font-size="10.00">Defaults</text>
</a>
</g>
</g>
<!-- Node1&#45;&gt;Node11 -->
<g id="edge10_Node000001_Node000011" class="edge">
<title>Node1&#45;&gt;Node11</title>
<g id="a_edge10_Node000001_Node000011"><a xlink:title=" ">
<path fill="none" stroke="#63b8ff" d="M384.81,-90.61C367.67,-85.93 349.37,-80.94 332.86,-76.44"/>
<polygon fill="#63b8ff" stroke="#63b8ff" points="383.85,-93.97 394.41,-93.23 385.69,-87.22 383.85,-93.97"/>
</a>
</g>
</g>
<!-- Node3 -->
<g id="Node000003" class="node">
<title>Node3</title>
<g id="a_Node000003"><a xlink:href="classWavelengthConfig.html#a5860f4c0c2e368828d9287c43b2cfcaa" target="_top" xlink:title="Sets the main background color. Adds the color to recent colors. Emits configChanged(&quot;background_colo...">
<polygon fill="white" stroke="#666666" points="166.75,-311 0,-311 0,-282 166.75,-282 166.75,-311"/>
<text text-anchor="start" x="8" y="-297.5" font-family="Helvetica,sans-Serif" font-size="10.00">WavelengthConfig::SetBackground</text>
<text text-anchor="middle" x="83.38" y="-287" font-family="Helvetica,sans-Serif" font-size="10.00">Color</text>
</a>
</g>
</g>
<!-- Node2&#45;&gt;Node3 -->
<g id="edge2_Node000002_Node000003" class="edge">
<title>Node2&#45;&gt;Node3</title>
<g id="a_edge2_Node000002_Node000003"><a xlink:title=" ">
<path fill="none" stroke="#63b8ff" d="M260,-179.7C240.86,-206.54 206.5,-249.25 166.75,-273.5 161.68,-276.59 156.18,-279.28 150.52,-281.62"/>
<polygon fill="#63b8ff" stroke="#63b8ff" points="262.86,-181.71 265.7,-171.51 257.11,-177.72 262.86,-181.71"/>
</a>
</g>
</g>
<!-- Node4 -->
<g id="Node000004" class="node">
<title>Node4</title>
<g id="a_Node000004"><a xlink:href="classWavelengthConfig.html#a0cbdae91c44d8833bc7f89be1bf9aa93" target="_top" xlink:title="Sets the color for the blob animation. Adds the color to recent colors. Emits configChanged(&quot;blob_col...">
<polygon fill="white" stroke="#666666" points="151,-264 15.75,-264 15.75,-235 151,-235 151,-264"/>
<text text-anchor="start" x="23.75" y="-250.5" font-family="Helvetica,sans-Serif" font-size="10.00">WavelengthConfig::SetBlob</text>
<text text-anchor="middle" x="83.38" y="-240" font-family="Helvetica,sans-Serif" font-size="10.00">Color</text>
</a>
</g>
</g>
<!-- Node2&#45;&gt;Node4 -->
<g id="edge3_Node000002_Node000004" class="edge">
<title>Node2&#45;&gt;Node4</title>
<g id="a_edge3_Node000002_Node000004"><a xlink:title=" ">
<path fill="none" stroke="#63b8ff" d="M247.9,-177.26C226.59,-192.81 196.1,-213.25 166.75,-226.5 160.12,-229.49 153.01,-232.18 145.84,-234.58"/>
<polygon fill="#63b8ff" stroke="#63b8ff" points="249.85,-180.17 255.8,-171.4 245.68,-174.55 249.85,-180.17"/>
</a>
</g>
</g>
<!-- Node5 -->
<g id="Node000005" class="node">
<title>Node5</title>
<g id="a_Node000005"><a xlink:href="classWavelengthConfig.html#ad10ffe62231ae9e11423239074d13c35" target="_top" xlink:title="Sets the color for the background grid lines. Adds the color to recent colors. Emits configChanged(&quot;g...">
<polygon fill="white" stroke="#666666" points="150.25,-217 16.5,-217 16.5,-188 150.25,-188 150.25,-217"/>
<text text-anchor="start" x="24.5" y="-203.5" font-family="Helvetica,sans-Serif" font-size="10.00">WavelengthConfig::SetGrid</text>
<text text-anchor="middle" x="83.38" y="-193" font-family="Helvetica,sans-Serif" font-size="10.00">Color</text>
</a>
</g>
</g>
<!-- Node2&#45;&gt;Node5 -->
<g id="edge4_Node000002_Node000005" class="edge">
<title>Node2&#45;&gt;Node5</title>
<g id="a_edge4_Node000002_Node000005"><a xlink:title=" ">
<path fill="none" stroke="#63b8ff" d="M204.02,-173.17C184.75,-177.9 164.1,-182.96 145.48,-187.52"/>
<polygon fill="#63b8ff" stroke="#63b8ff" points="204.84,-176.58 213.72,-170.8 203.17,-169.78 204.84,-176.58"/>
</a>
</g>
</g>
<!-- Node6 -->
<g id="Node000006" class="node">
<title>Node6</title>
<g id="a_Node000006"><a xlink:href="classWavelengthConfig.html#a9c3abad31355863be9a66ea30cdcbedb" target="_top" xlink:title="Sets the color for stream visualization elements. Adds the color to recent colors....">
<polygon fill="white" stroke="#666666" points="157,-170 9.75,-170 9.75,-141 157,-141 157,-170"/>
<text text-anchor="start" x="17.75" y="-156.5" font-family="Helvetica,sans-Serif" font-size="10.00">WavelengthConfig::SetStream</text>
<text text-anchor="middle" x="83.38" y="-146" font-family="Helvetica,sans-Serif" font-size="10.00">Color</text>
</a>
</g>
</g>
<!-- Node2&#45;&gt;Node6 -->
<g id="edge5_Node000002_Node000006" class="edge">
<title>Node2&#45;&gt;Node6</title>
<g id="a_edge5_Node000002_Node000006"><a xlink:title=" ">
<path fill="none" stroke="#63b8ff" d="M191.07,-155.5C179.79,-155.5 168.3,-155.5 157.25,-155.5"/>
<polygon fill="#63b8ff" stroke="#63b8ff" points="190.75,-159 200.75,-155.5 190.75,-152 190.75,-159"/>
</a>
</g>
</g>
<!-- Node7 -->
<g id="Node000007" class="node">
<title>Node7</title>
<g id="a_Node000007"><a xlink:href="classWavelengthConfig.html#a83eb31f8ab7a2b3e20599841faec5b88" target="_top" xlink:title="Sets the color for the title label border. Adds the color to recent colors. Emits configChanged(&quot;titl...">
<polygon fill="white" stroke="#666666" points="150.62,-123 16.12,-123 16.12,-94 150.62,-94 150.62,-123"/>
<text text-anchor="start" x="24.12" y="-109.5" font-family="Helvetica,sans-Serif" font-size="10.00">WavelengthConfig::SetTitle</text>
<text text-anchor="middle" x="83.38" y="-99" font-family="Helvetica,sans-Serif" font-size="10.00">BorderColor</text>
</a>
</g>
</g>
<!-- Node2&#45;&gt;Node7 -->
<g id="edge6_Node000002_Node000007" class="edge">
<title>Node2&#45;&gt;Node7</title>
<g id="a_edge6_Node000002_Node000007"><a xlink:title=" ">
<path fill="none" stroke="#63b8ff" d="M204.02,-137.83C184.75,-133.1 164.1,-128.04 145.48,-123.48"/>
<polygon fill="#63b8ff" stroke="#63b8ff" points="203.17,-141.22 213.72,-140.2 204.84,-134.42 203.17,-141.22"/>
</a>
</g>
</g>
<!-- Node8 -->
<g id="Node000008" class="node">
<title>Node8</title>
<g id="a_Node000008"><a xlink:href="classWavelengthConfig.html#a2fb848bed4ad119d39c62e7d526c2791" target="_top" xlink:title="Sets the color for the title label glow effect. Adds the color to recent colors. Emits configChanged(...">
<polygon fill="white" stroke="#666666" points="150.62,-76 16.12,-76 16.12,-47 150.62,-47 150.62,-76"/>
<text text-anchor="start" x="24.12" y="-62.5" font-family="Helvetica,sans-Serif" font-size="10.00">WavelengthConfig::SetTitle</text>
<text text-anchor="middle" x="83.38" y="-52" font-family="Helvetica,sans-Serif" font-size="10.00">GlowColor</text>
</a>
</g>
</g>
<!-- Node2&#45;&gt;Node8 -->
<g id="edge7_Node000002_Node000008" class="edge">
<title>Node2&#45;&gt;Node8</title>
<g id="a_edge7_Node000002_Node000008"><a xlink:title=" ">
<path fill="none" stroke="#63b8ff" d="M206.97,-135.26C205.53,-134.37 204.12,-133.46 202.75,-132.5 181.19,-117.42 188.46,-100.36 166.75,-85.5 161.59,-81.97 155.9,-78.95 150,-76.36"/>
<polygon fill="#63b8ff" stroke="#63b8ff" points="205.1,-138.23 215.57,-139.84 208.39,-132.05 205.1,-138.23"/>
</a>
</g>
</g>
<!-- Node9 -->
<g id="Node000009" class="node">
<title>Node9</title>
<g id="a_Node000009"><a xlink:href="classWavelengthConfig.html#ade723615fb9e9bd2bef32292b26a4837" target="_top" xlink:title="Sets the color for the title label text. Adds the color to recent colors. Emits configChanged(&quot;title_...">
<polygon fill="white" stroke="#666666" points="150.62,-29 16.12,-29 16.12,0 150.62,0 150.62,-29"/>
<text text-anchor="start" x="24.12" y="-15.5" font-family="Helvetica,sans-Serif" font-size="10.00">WavelengthConfig::SetTitle</text>
<text text-anchor="middle" x="83.38" y="-5" font-family="Helvetica,sans-Serif" font-size="10.00">TextColor</text>
</a>
</g>
</g>
<!-- Node2&#45;&gt;Node9 -->
<g id="edge8_Node000002_Node000009" class="edge">
<title>Node2&#45;&gt;Node9</title>
<g id="a_edge8_Node000002_Node000009"><a xlink:title=" ">
<path fill="none" stroke="#63b8ff" d="M204.65,-134.2C204,-133.65 203.37,-133.08 202.75,-132.5 170.15,-101.86 199.66,-68.81 166.75,-38.5 162.04,-34.16 156.59,-30.6 150.77,-27.68"/>
<polygon fill="#63b8ff" stroke="#63b8ff" points="202.33,-136.85 212.51,-139.75 206.36,-131.13 202.33,-136.85"/>
</a>
</g>
</g>
</g>
</svg>
