<?xml version="1.0" encoding="UTF-8" standalone="no"?>
<!DOCTYPE svg PUBLIC "-//W3C//DTD SVG 1.1//EN"
 "http://www.w3.org/Graphics/SVG/1.1/DTD/svg11.dtd">
<!-- Generated by graphviz version 12.2.1 (0)
 -->
<!-- Title: AttachmentViewer Pages: 1 -->
<svg width="415pt" height="979pt"
 viewBox="0.00 0.00 415.14 979.00" xmlns="http://www.w3.org/2000/svg" xmlns:xlink="http://www.w3.org/1999/xlink">
<g id="graph0" class="graph" transform="scale(1 1) rotate(0) translate(4 975)">
<title>AttachmentViewer</title>
<!-- Node1 -->
<g id="Node000001" class="node">
<title>Node1</title>
<g id="a_Node000001"><a xlink:title="A widget that displays another widget (content) with a cyberpunk&#45;themed decryption animation.">
<polygon fill="#999999" stroke="none" points="171.02,-521.5 13.52,-521.5 13.52,0 171.02,0 171.02,-521.5"/>
<text text-anchor="start" x="52.52" y="-508" font-family="Helvetica,sans-Serif" font-size="10.00">AttachmentViewer</text>
<text text-anchor="start" x="17.52" y="-493.5" font-family="Helvetica,sans-Serif" font-size="10.00">+</text>
<text text-anchor="start" x="27.52" y="-493.5" font-family="Helvetica,sans-Serif" font-size="10.00">int decryptionCounter</text>
<text text-anchor="start" x="19.02" y="-479" font-family="Helvetica,sans-Serif" font-size="10.00">&#45;</text>
<text text-anchor="start" x="27.52" y="-479" font-family="Helvetica,sans-Serif" font-size="10.00">QTimer * animation</text>
<text text-anchor="start" x="27.52" y="-468.5" font-family="Helvetica,sans-Serif" font-size="10.00">_timer_</text>
<text text-anchor="start" x="19.02" y="-454" font-family="Helvetica,sans-Serif" font-size="10.00">&#45;</text>
<text text-anchor="start" x="27.52" y="-454" font-family="Helvetica,sans-Serif" font-size="10.00">QWidget * content_container_</text>
<text text-anchor="start" x="19.02" y="-439.5" font-family="Helvetica,sans-Serif" font-size="10.00">&#45;</text>
<text text-anchor="start" x="27.52" y="-439.5" font-family="Helvetica,sans-Serif" font-size="10.00">QVBoxLayout * content</text>
<text text-anchor="start" x="27.52" y="-429" font-family="Helvetica,sans-Serif" font-size="10.00">_layout_</text>
<text text-anchor="start" x="19.02" y="-414.5" font-family="Helvetica,sans-Serif" font-size="10.00">&#45;</text>
<text text-anchor="start" x="27.52" y="-414.5" font-family="Helvetica,sans-Serif" font-size="10.00">QWidget * content_widget_</text>
<text text-anchor="start" x="19.02" y="-400" font-family="Helvetica,sans-Serif" font-size="10.00">&#45;</text>
<text text-anchor="start" x="27.52" y="-400" font-family="Helvetica,sans-Serif" font-size="10.00">int decryption_counter_</text>
<text text-anchor="start" x="19.02" y="-385.5" font-family="Helvetica,sans-Serif" font-size="10.00">&#45;</text>
<text text-anchor="start" x="27.52" y="-385.5" font-family="Helvetica,sans-Serif" font-size="10.00">bool is_decrypted_</text>
<text text-anchor="start" x="19.02" y="-371" font-family="Helvetica,sans-Serif" font-size="10.00">&#45;</text>
<text text-anchor="start" x="27.52" y="-371" font-family="Helvetica,sans-Serif" font-size="10.00">bool is_scanning_</text>
<text text-anchor="start" x="19.02" y="-356.5" font-family="Helvetica,sans-Serif" font-size="10.00">&#45;</text>
<text text-anchor="start" x="27.52" y="-356.5" font-family="Helvetica,sans-Serif" font-size="10.00">QVBoxLayout * layout_</text>
<text text-anchor="start" x="19.02" y="-342" font-family="Helvetica,sans-Serif" font-size="10.00">&#45;</text>
<text text-anchor="start" x="27.52" y="-342" font-family="Helvetica,sans-Serif" font-size="10.00">QLabel * status_label_</text>
<text text-anchor="start" x="17.52" y="-327.5" font-family="Helvetica,sans-Serif" font-size="10.00">+</text>
<text text-anchor="start" x="27.52" y="-327.5" font-family="Helvetica,sans-Serif" font-size="10.00">AttachmentViewer(QWidget</text>
<text text-anchor="start" x="27.52" y="-317" font-family="Helvetica,sans-Serif" font-size="10.00"> *parent=nullptr)</text>
<text text-anchor="start" x="17.52" y="-302.5" font-family="Helvetica,sans-Serif" font-size="10.00">+</text>
<text text-anchor="start" x="27.52" y="-302.5" font-family="Helvetica,sans-Serif" font-size="10.00">int GetDecryptionCounter</text>
<text text-anchor="start" x="27.52" y="-292" font-family="Helvetica,sans-Serif" font-size="10.00">() const</text>
<text text-anchor="start" x="17.52" y="-277.5" font-family="Helvetica,sans-Serif" font-size="10.00">+</text>
<text text-anchor="start" x="27.52" y="-277.5" font-family="Helvetica,sans-Serif" font-size="10.00">void SetContent(QWidget</text>
<text text-anchor="start" x="27.52" y="-267" font-family="Helvetica,sans-Serif" font-size="10.00"> *content)</text>
<text text-anchor="start" x="17.52" y="-252.5" font-family="Helvetica,sans-Serif" font-size="10.00">+</text>
<text text-anchor="start" x="27.52" y="-252.5" font-family="Helvetica,sans-Serif" font-size="10.00">void SetDecryptionCounter</text>
<text text-anchor="start" x="27.52" y="-242" font-family="Helvetica,sans-Serif" font-size="10.00">(int counter)</text>
<text text-anchor="start" x="17.52" y="-227.5" font-family="Helvetica,sans-Serif" font-size="10.00">+</text>
<text text-anchor="start" x="27.52" y="-227.5" font-family="Helvetica,sans-Serif" font-size="10.00">QSize sizeHint() const</text>
<text text-anchor="start" x="27.52" y="-217" font-family="Helvetica,sans-Serif" font-size="10.00"> override</text>
<text text-anchor="start" x="17.52" y="-202.5" font-family="Helvetica,sans-Serif" font-size="10.00">+</text>
<text text-anchor="start" x="27.52" y="-202.5" font-family="Helvetica,sans-Serif" font-size="10.00">void UpdateContentLayout()</text>
<text text-anchor="start" x="17.52" y="-188" font-family="Helvetica,sans-Serif" font-size="10.00">+</text>
<text text-anchor="start" x="27.52" y="-188" font-family="Helvetica,sans-Serif" font-size="10.00">~AttachmentViewer</text>
<text text-anchor="start" x="27.52" y="-177.5" font-family="Helvetica,sans-Serif" font-size="10.00">() override</text>
<text text-anchor="start" x="17.89" y="-163" font-family="Helvetica,sans-Serif" font-size="10.00">#</text>
<text text-anchor="start" x="27.52" y="-163" font-family="Helvetica,sans-Serif" font-size="10.00">void paintEvent(QPaintEvent</text>
<text text-anchor="start" x="27.52" y="-152.5" font-family="Helvetica,sans-Serif" font-size="10.00"> *event) override</text>
<text text-anchor="start" x="17.89" y="-138" font-family="Helvetica,sans-Serif" font-size="10.00">#</text>
<text text-anchor="start" x="27.52" y="-138" font-family="Helvetica,sans-Serif" font-size="10.00">void resizeEvent(QResize</text>
<text text-anchor="start" x="27.52" y="-127.5" font-family="Helvetica,sans-Serif" font-size="10.00">Event *event) override</text>
<text text-anchor="start" x="19.02" y="-113" font-family="Helvetica,sans-Serif" font-size="10.00">&#45;</text>
<text text-anchor="start" x="27.52" y="-113" font-family="Helvetica,sans-Serif" font-size="10.00">void CloseViewer()</text>
<text text-anchor="start" x="19.02" y="-98.5" font-family="Helvetica,sans-Serif" font-size="10.00">&#45;</text>
<text text-anchor="start" x="27.52" y="-98.5" font-family="Helvetica,sans-Serif" font-size="10.00">void FinishDecryption()</text>
<text text-anchor="start" x="19.02" y="-84" font-family="Helvetica,sans-Serif" font-size="10.00">&#45;</text>
<text text-anchor="start" x="27.52" y="-84" font-family="Helvetica,sans-Serif" font-size="10.00">void OnActionButtonClicked()</text>
<text text-anchor="start" x="19.02" y="-69.5" font-family="Helvetica,sans-Serif" font-size="10.00">&#45;</text>
<text text-anchor="start" x="27.52" y="-69.5" font-family="Helvetica,sans-Serif" font-size="10.00">void StartDecryptionAnimation()</text>
<text text-anchor="start" x="19.02" y="-55" font-family="Helvetica,sans-Serif" font-size="10.00">&#45;</text>
<text text-anchor="start" x="27.52" y="-55" font-family="Helvetica,sans-Serif" font-size="10.00">void StartScanningAnimation()</text>
<text text-anchor="start" x="19.02" y="-40.5" font-family="Helvetica,sans-Serif" font-size="10.00">&#45;</text>
<text text-anchor="start" x="27.52" y="-40.5" font-family="Helvetica,sans-Serif" font-size="10.00">void UpdateAnimation</text>
<text text-anchor="start" x="27.52" y="-30" font-family="Helvetica,sans-Serif" font-size="10.00">() const</text>
<text text-anchor="start" x="19.02" y="-15.5" font-family="Helvetica,sans-Serif" font-size="10.00">&#45;</text>
<text text-anchor="start" x="27.52" y="-15.5" font-family="Helvetica,sans-Serif" font-size="10.00">void UpdateDecryptionStatus</text>
<text text-anchor="start" x="27.52" y="-5" font-family="Helvetica,sans-Serif" font-size="10.00">() const</text>
<polygon fill="#666666" stroke="#666666" points="13.52,-505 13.52,-505 171.02,-505 171.02,-505 13.52,-505"/>
<polygon fill="#666666" stroke="#666666" points="13.52,-339 13.52,-339 25.52,-339 25.52,-339 13.52,-339"/>
<polygon fill="#666666" stroke="#666666" points="25.52,-339 25.52,-339 171.02,-339 171.02,-339 25.52,-339"/>
<polygon fill="none" stroke="#666666" points="13.52,0 13.52,-521.5 171.02,-521.5 171.02,0 13.52,0"/>
</a>
</g>
</g>
<!-- Node2 -->
<g id="Node000002" class="node">
<title>Node2</title>
<g id="a_Node000002"><a xlink:title=" ">
<polygon fill="white" stroke="none" points="47.39,-971 1.14,-971 1.14,-923.5 47.39,-923.5 47.39,-971"/>
<text text-anchor="start" x="5.14" y="-957.5" font-family="Helvetica,sans-Serif" font-size="10.00">QWidget</text>
<text text-anchor="start" x="22.77" y="-943" font-family="Helvetica,sans-Serif" font-size="10.00"> </text>
<text text-anchor="start" x="22.77" y="-928.5" font-family="Helvetica,sans-Serif" font-size="10.00"> </text>
<polygon fill="#666666" stroke="#666666" points="1.14,-954.5 1.14,-954.5 47.39,-954.5 47.39,-954.5 1.14,-954.5"/>
<polygon fill="#666666" stroke="#666666" points="1.14,-940 1.14,-940 47.39,-940 47.39,-940 1.14,-940"/>
<polygon fill="none" stroke="#666666" points="1.14,-923.5 1.14,-971 47.39,-971 47.39,-923.5 1.14,-923.5"/>
</a>
</g>
</g>
<!-- Node2&#45;&gt;Node1 -->
<g id="edge1_Node000001_Node000002" class="edge">
<title>Node2&#45;&gt;Node1</title>
<g id="a_edge1_Node000001_Node000002"><a xlink:title=" ">
<path fill="none" stroke="#63b8ff" d="M16.31,-912.65C14.63,-904.17 13.12,-895.04 12.27,-886.5 -1.74,-745.64 -5.77,-708.4 12.27,-568 14.23,-552.74 16.72,-537.15 19.59,-521.49"/>
<polygon fill="none" stroke="#63b8ff" points="12.84,-913.17 18.33,-922.23 19.69,-911.72 12.84,-913.17"/>
</a>
</g>
</g>
<!-- Node3 -->
<g id="Node000003" class="node">
<title>Node3</title>
<g id="a_Node000003"><a xlink:href="classMaskOverlayEffect.html" target="_top" xlink:title="A custom overlay widget that creates a &quot;reveal&quot; effect using a moving scanline.">
<polygon fill="white" stroke="none" points="163.14,-817.5 21.39,-817.5 21.39,-637 163.14,-637 163.14,-817.5"/>
<text text-anchor="start" x="51.02" y="-804" font-family="Helvetica,sans-Serif" font-size="10.00">MaskOverlayEffect</text>
<text text-anchor="start" x="26.89" y="-789.5" font-family="Helvetica,sans-Serif" font-size="10.00">&#45;</text>
<text text-anchor="start" x="35.39" y="-789.5" font-family="Helvetica,sans-Serif" font-size="10.00">int reveal_percentage_</text>
<text text-anchor="start" x="26.89" y="-775" font-family="Helvetica,sans-Serif" font-size="10.00">&#45;</text>
<text text-anchor="start" x="35.39" y="-775" font-family="Helvetica,sans-Serif" font-size="10.00">QTimer * scan_timer_</text>
<text text-anchor="start" x="26.89" y="-760.5" font-family="Helvetica,sans-Serif" font-size="10.00">&#45;</text>
<text text-anchor="start" x="35.39" y="-760.5" font-family="Helvetica,sans-Serif" font-size="10.00">int scanline_y_</text>
<text text-anchor="start" x="25.39" y="-746" font-family="Helvetica,sans-Serif" font-size="10.00">+</text>
<text text-anchor="start" x="35.39" y="-746" font-family="Helvetica,sans-Serif" font-size="10.00">MaskOverlayEffect</text>
<text text-anchor="start" x="35.39" y="-735.5" font-family="Helvetica,sans-Serif" font-size="10.00">(QWidget *parent=nullptr)</text>
<text text-anchor="start" x="25.39" y="-721" font-family="Helvetica,sans-Serif" font-size="10.00">+</text>
<text text-anchor="start" x="35.39" y="-721" font-family="Helvetica,sans-Serif" font-size="10.00">void SetRevealProgress</text>
<text text-anchor="start" x="35.39" y="-710.5" font-family="Helvetica,sans-Serif" font-size="10.00">(int percentage)</text>
<text text-anchor="start" x="25.39" y="-696" font-family="Helvetica,sans-Serif" font-size="10.00">+</text>
<text text-anchor="start" x="35.39" y="-696" font-family="Helvetica,sans-Serif" font-size="10.00">void StartScanning()</text>
<text text-anchor="start" x="25.39" y="-681.5" font-family="Helvetica,sans-Serif" font-size="10.00">+</text>
<text text-anchor="start" x="35.39" y="-681.5" font-family="Helvetica,sans-Serif" font-size="10.00">void StopScanning()</text>
<text text-anchor="start" x="25.77" y="-667" font-family="Helvetica,sans-Serif" font-size="10.00">#</text>
<text text-anchor="start" x="35.39" y="-667" font-family="Helvetica,sans-Serif" font-size="10.00">void paintEvent(QPaintEvent</text>
<text text-anchor="start" x="35.39" y="-656.5" font-family="Helvetica,sans-Serif" font-size="10.00"> *event) override</text>
<text text-anchor="start" x="26.89" y="-642" font-family="Helvetica,sans-Serif" font-size="10.00">&#45;</text>
<text text-anchor="start" x="35.39" y="-642" font-family="Helvetica,sans-Serif" font-size="10.00">void UpdateScanLine()</text>
<polygon fill="#666666" stroke="#666666" points="21.39,-801 21.39,-801 163.14,-801 163.14,-801 21.39,-801"/>
<polygon fill="#666666" stroke="#666666" points="21.39,-757.5 21.39,-757.5 33.39,-757.5 33.39,-757.5 21.39,-757.5"/>
<polygon fill="#666666" stroke="#666666" points="33.39,-757.5 33.39,-757.5 163.14,-757.5 163.14,-757.5 33.39,-757.5"/>
<polygon fill="none" stroke="#666666" points="21.39,-637 21.39,-817.5 163.14,-817.5 163.14,-637 21.39,-637"/>
</a>
</g>
</g>
<!-- Node2&#45;&gt;Node3 -->
<g id="edge3_Node000003_Node000002" class="edge">
<title>Node2&#45;&gt;Node3</title>
<g id="a_edge3_Node000003_Node000002"><a xlink:title=" ">
<path fill="none" stroke="#63b8ff" d="M34.69,-912.85C42.64,-887.36 53.97,-851.02 64.49,-817.31"/>
<polygon fill="none" stroke="#63b8ff" points="31.38,-911.71 31.74,-922.3 38.06,-913.79 31.38,-911.71"/>
</a>
</g>
</g>
<!-- Node3&#45;&gt;Node1 -->
<g id="edge2_Node000001_Node000003" class="edge">
<title>Node3&#45;&gt;Node1</title>
<g id="a_edge2_Node000001_Node000003"><a xlink:title=" ">
<path fill="none" stroke="#63b8ff" d="M92.27,-637.24C92.27,-606.83 92.27,-571.04 92.27,-533.84"/>
<polygon fill="none" stroke="#63b8ff" points="92.27,-534.08 88.27,-528.08 92.27,-522.08 96.27,-528.08 92.27,-534.08"/>
</a>
</g>
<text text-anchor="middle" x="127.89" y="-540.5" font-family="Helvetica,sans-Serif" font-size="10.00" fill="grey"> &#45;mask_overlay_</text>
</g>
<!-- Node4 -->
<g id="Node000004" class="node">
<title>Node4</title>
<g id="a_Node000004"><a xlink:href="classTranslationManager.html" target="_top" xlink:title="Manages the loading and delivery of translations for applications.">
<polygon fill="white" stroke="none" points="341.14,-886.5 181.39,-886.5 181.39,-568 341.14,-568 341.14,-886.5"/>
<text text-anchor="start" x="218.89" y="-873" font-family="Helvetica,sans-Serif" font-size="10.00">TranslationManager</text>
<text text-anchor="start" x="186.89" y="-858.5" font-family="Helvetica,sans-Serif" font-size="10.00">&#45;</text>
<text text-anchor="start" x="195.39" y="-858.5" font-family="Helvetica,sans-Serif" font-size="10.00">QString current_language</text>
<text text-anchor="start" x="195.39" y="-848" font-family="Helvetica,sans-Serif" font-size="10.00">_code_</text>
<text text-anchor="start" x="186.89" y="-833.5" font-family="Helvetica,sans-Serif" font-size="10.00">&#45;</text>
<text text-anchor="start" x="195.39" y="-833.5" font-family="Helvetica,sans-Serif" font-size="10.00">bool initialized_</text>
<text text-anchor="start" x="186.89" y="-819" font-family="Helvetica,sans-Serif" font-size="10.00">&#45;</text>
<text text-anchor="start" x="195.39" y="-819" font-family="Helvetica,sans-Serif" font-size="10.00">QJsonObject translations_</text>
<text text-anchor="start" x="186.89" y="-804.5" font-family="Helvetica,sans-Serif" font-size="10.00">&#45;</text>
<text text-anchor="start" x="195.39" y="-804.5" font-family="Helvetica,sans-Serif" font-size="10.00">static QMutex mutex_</text>
<text text-anchor="start" x="185.39" y="-790" font-family="Helvetica,sans-Serif" font-size="10.00">+</text>
<text text-anchor="start" x="195.39" y="-790" font-family="Helvetica,sans-Serif" font-size="10.00">QString GetCurrentLanguage</text>
<text text-anchor="start" x="195.39" y="-779.5" font-family="Helvetica,sans-Serif" font-size="10.00">() const</text>
<text text-anchor="start" x="185.39" y="-765" font-family="Helvetica,sans-Serif" font-size="10.00">+</text>
<text text-anchor="start" x="195.39" y="-765" font-family="Helvetica,sans-Serif" font-size="10.00">bool Initialize(const</text>
<text text-anchor="start" x="195.39" y="-754.5" font-family="Helvetica,sans-Serif" font-size="10.00"> QString &amp;language_code)</text>
<text text-anchor="start" x="185.39" y="-740" font-family="Helvetica,sans-Serif" font-size="10.00">+</text>
<text text-anchor="start" x="195.39" y="-740" font-family="Helvetica,sans-Serif" font-size="10.00">QString Translate(const</text>
<text text-anchor="start" x="195.39" y="-729.5" font-family="Helvetica,sans-Serif" font-size="10.00"> QString &amp;key, const QString</text>
<text text-anchor="start" x="195.39" y="-719" font-family="Helvetica,sans-Serif" font-size="10.00"> &amp;default_value=QString()) const</text>
<text text-anchor="start" x="185.39" y="-704.5" font-family="Helvetica,sans-Serif" font-size="10.00">+</text>
<text text-anchor="start" x="195.39" y="-704.5" font-family="Helvetica,sans-Serif" font-size="10.00">static TranslationManager</text>
<text text-anchor="start" x="195.39" y="-694" font-family="Helvetica,sans-Serif" font-size="10.00"> * GetInstance()</text>
<text text-anchor="start" x="186.89" y="-679.5" font-family="Helvetica,sans-Serif" font-size="10.00">&#45;</text>
<text text-anchor="start" x="195.39" y="-679.5" font-family="Helvetica,sans-Serif" font-size="10.00">bool LoadTranslations</text>
<text text-anchor="start" x="195.39" y="-669" font-family="Helvetica,sans-Serif" font-size="10.00">(const QString &amp;language_code)</text>
<text text-anchor="start" x="186.89" y="-654.5" font-family="Helvetica,sans-Serif" font-size="10.00">&#45;</text>
<text text-anchor="start" x="195.39" y="-654.5" font-family="Helvetica,sans-Serif" font-size="10.00">TranslationManager</text>
<text text-anchor="start" x="195.39" y="-644" font-family="Helvetica,sans-Serif" font-size="10.00"> &amp; operator=(const Translation</text>
<text text-anchor="start" x="195.39" y="-633.5" font-family="Helvetica,sans-Serif" font-size="10.00">Manager &amp;)=delete</text>
<text text-anchor="start" x="186.89" y="-619" font-family="Helvetica,sans-Serif" font-size="10.00">&#45;</text>
<text text-anchor="start" x="195.39" y="-619" font-family="Helvetica,sans-Serif" font-size="10.00">TranslationManager</text>
<text text-anchor="start" x="195.39" y="-608.5" font-family="Helvetica,sans-Serif" font-size="10.00">(const TranslationManager</text>
<text text-anchor="start" x="195.39" y="-598" font-family="Helvetica,sans-Serif" font-size="10.00"> &amp;)=delete</text>
<text text-anchor="start" x="186.89" y="-583.5" font-family="Helvetica,sans-Serif" font-size="10.00">&#45;</text>
<text text-anchor="start" x="195.39" y="-583.5" font-family="Helvetica,sans-Serif" font-size="10.00">TranslationManager</text>
<text text-anchor="start" x="195.39" y="-573" font-family="Helvetica,sans-Serif" font-size="10.00">(QObject *parent=nullptr)</text>
<polygon fill="#666666" stroke="#666666" points="181.39,-870 181.39,-870 341.14,-870 341.14,-870 181.39,-870"/>
<polygon fill="#666666" stroke="#666666" points="181.39,-801.5 181.39,-801.5 193.39,-801.5 193.39,-801.5 181.39,-801.5"/>
<polygon fill="#666666" stroke="#666666" points="193.39,-801.5 193.39,-801.5 341.14,-801.5 341.14,-801.5 193.39,-801.5"/>
<polygon fill="none" stroke="#666666" points="181.39,-568 181.39,-886.5 341.14,-886.5 341.14,-568 181.39,-568"/>
</a>
</g>
</g>
<!-- Node4&#45;&gt;Node1 -->
<g id="edge4_Node000001_Node000004" class="edge">
<title>Node4&#45;&gt;Node1</title>
<g id="a_edge4_Node000001_Node000004"><a xlink:title=" ">
<path fill="none" stroke="#63b8ff" d="M203.7,-568.02C194.53,-542.83 184.89,-516.33 175.28,-489.91"/>
<polygon fill="none" stroke="#63b8ff" points="175.28,-489.91 169.47,-485.64 171.18,-478.63 176.99,-482.9 175.28,-489.91"/>
</a>
</g>
<text text-anchor="middle" x="222.75" y="-540.5" font-family="Helvetica,sans-Serif" font-size="10.00" fill="grey"> &#45;translator_</text>
</g>
<!-- Node4&#45;&gt;Node4 -->
<g id="edge6_Node000004_Node000004" class="edge">
<title>Node4&#45;&gt;Node4</title>
<g id="a_edge6_Node000004_Node000004"><a xlink:title=" ">
<path fill="none" stroke="#63b8ff" d="M340.76,-756.99C351.78,-752.09 359.14,-742.18 359.14,-727.25 359.14,-717.69 356.12,-710.18 351.05,-704.73"/>
<polygon fill="none" stroke="#63b8ff" points="351.32,-704.92 344.11,-704.75 341.5,-698.03 348.71,-698.2 351.32,-704.92"/>
</a>
</g>
<text text-anchor="middle" x="383.14" y="-723" font-family="Helvetica,sans-Serif" font-size="10.00" fill="grey"> &#45;instance_</text>
</g>
<!-- Node5 -->
<g id="Node000005" class="node">
<title>Node5</title>
<g id="a_Node000005"><a xlink:title=" ">
<polygon fill="white" stroke="none" points="283.27,-971 239.27,-971 239.27,-923.5 283.27,-923.5 283.27,-971"/>
<text text-anchor="start" x="243.27" y="-957.5" font-family="Helvetica,sans-Serif" font-size="10.00">QObject</text>
<text text-anchor="start" x="259.77" y="-943" font-family="Helvetica,sans-Serif" font-size="10.00"> </text>
<text text-anchor="start" x="259.77" y="-928.5" font-family="Helvetica,sans-Serif" font-size="10.00"> </text>
<polygon fill="#666666" stroke="#666666" points="239.27,-954.5 239.27,-954.5 283.27,-954.5 283.27,-954.5 239.27,-954.5"/>
<polygon fill="#666666" stroke="#666666" points="239.27,-940 239.27,-940 283.27,-940 283.27,-940 239.27,-940"/>
<polygon fill="none" stroke="#666666" points="239.27,-923.5 239.27,-971 283.27,-971 283.27,-923.5 239.27,-923.5"/>
</a>
</g>
</g>
<!-- Node5&#45;&gt;Node4 -->
<g id="edge5_Node000004_Node000005" class="edge">
<title>Node5&#45;&gt;Node4</title>
<g id="a_edge5_Node000004_Node000005"><a xlink:title=" ">
<path fill="none" stroke="#63b8ff" d="M261.27,-912.38C261.27,-904.59 261.27,-895.81 261.27,-886.41"/>
<polygon fill="none" stroke="#63b8ff" points="257.77,-912.23 261.27,-922.23 264.77,-912.23 257.77,-912.23"/>
</a>
</g>
</g>
</g>
</svg>
