<?xml version="1.0" encoding="UTF-8" standalone="no"?>
<!DOCTYPE svg PUBLIC "-//W3C//DTD SVG 1.1//EN"
 "http://www.w3.org/Graphics/SVG/1.1/DTD/svg11.dtd">
<!-- Generated by graphviz version 12.2.1 (0)
 -->
<!-- Title: StreamMessage::GetNextButton Pages: 1 -->
<!--zoomable 281 -->

<svg id="main" version="1.1" xmlns="http://www.w3.org/2000/svg" xmlns:xlink="http://www.w3.org/1999/xlink" xml:space="preserve" onload="init(evt)">

<style type="text/css"><![CDATA[
.node, .edge {opacity: 0.7;}
.node.selected, .edge.selected {opacity: 1;}
.edge:hover path { stroke: red; }
.edge:hover polygon { stroke: red; fill: red; }
]]></style>

<defs>
  <circle id="rim" cx="0" cy="0" r="7"/>
  <circle id="rim2" cx="0" cy="0" r="3.5"/>
  <g id="zoomPlus">
    <use xlink:href="#rim" fill="#404040"><set attributeName="fill" to="#808080" begin="zoomplus.mouseover" end="zoomplus.mouseout"/></use>
    <path d="M-4,0h8M0,-4v8" fill="none" stroke="white" stroke-width="1.5" pointer-events="none"/>
  </g>
  <g id="zoomMin">
    <use xlink:href="#rim" fill="#404040"><set attributeName="fill" to="#808080" begin="zoomminus.mouseover" end="zoomminus.mouseout"/></use>
    <path d="M-4,0h8" fill="none" stroke="white" stroke-width="1.5" pointer-events="none"/>
  </g>
  <g id="arrowUp" transform="translate(30 24)">
    <use xlink:href="#rim"/>
    <path pointer-events="none" fill="none" stroke="white" stroke-width="1.5" d="M0,-3.0v7 M-2.5,-0.5L0,-3.0L2.5,-0.5"/>
  </g>
  <g id="arrowRight" transform="rotate(90) translate(36 -43)">
    <use xlink:href="#rim"/>
    <path pointer-events="none" fill="none" stroke="white" stroke-width="1.5" d="M0,-3.0v7 M-2.5,-0.5L0,-3.0L2.5,-0.5"/>
  </g>
  <g id="arrowDown" transform="rotate(180) translate(-30 -48)">
    <use xlink:href="#rim"/>
    <path pointer-events="none" fill="none" stroke="white" stroke-width="1.5" d="M0,-3.0v7 M-2.5,-0.5L0,-3.0L2.5,-0.5"/>
  </g>
  <g id="arrowLeft" transform="rotate(270) translate(-36 17)">
    <use xlink:href="#rim"/>
    <path pointer-events="none" fill="none" stroke="white" stroke-width="1.5" d="M0,-3.0v7 M-2.5,-0.5L0,-3.0L2.5,-0.5"/>
  </g>
  <g id="resetDef">
    <use xlink:href="#rim2" fill="#404040"><set attributeName="fill" to="#808080" begin="reset.mouseover" end="reset.mouseout"/></use>
  </g>
</defs>
<script type="application/ecmascript">
var viewWidth = 841;
var viewHeight = 281;
var sectionId = 'dynsection-13';
</script>
<script type="application/ecmascript" xlink:href="svg.min.js"/>
<svg id="graph" class="graph">
<g id="viewport">
<title>StreamMessage::GetNextButton</title>
<!-- Node1 -->
<g id="Node000001" class="node">
<title>Node1</title>
<g id="a_Node000001"><a xlink:title="Gets a pointer to the Next navigation button.">
<polygon fill="#999999" stroke="#666666" points="833,-90.35 674.5,-90.35 674.5,-71.85 833,-71.85 833,-90.35"/>
<text text-anchor="middle" x="753.75" y="-76.85" font-family="Helvetica,sans-Serif" font-size="10.00">StreamMessage::GetNextButton</text>
</a>
</g>
</g>
<!-- Node2 -->
<g id="Node000002" class="node">
<title>Node2</title>
<g id="a_Node000002"><a xlink:href="classCommunicationStream.html#aa91c3c46034a10ca7393998082e26a25" target="_top" xlink:title="Connects the necessary signals (navigation, read, hidden) from a StreamMessage widget to this Communi...">
<polygon fill="white" stroke="#666666" points="638.5,-152.6 493.5,-152.6 493.5,-123.6 638.5,-123.6 638.5,-152.6"/>
<text text-anchor="start" x="501.5" y="-139.1" font-family="Helvetica,sans-Serif" font-size="10.00">CommunicationStream</text>
<text text-anchor="middle" x="566" y="-128.6" font-family="Helvetica,sans-Serif" font-size="10.00">::ConnectSignalsForMessage</text>
</a>
</g>
</g>
<!-- Node1&#45;&gt;Node2 -->
<g id="edge1_Node000001_Node000002" class="edge">
<title>Node1&#45;&gt;Node2</title>
<g id="a_edge1_Node000001_Node000002"><a xlink:title=" ">
<path fill="none" stroke="#63b8ff" d="M710.54,-94.06C682.37,-102.7 645.25,-114.09 615.81,-123.12"/>
<polygon fill="#63b8ff" stroke="#63b8ff" points="711.26,-97.5 719.79,-91.22 709.21,-90.8 711.26,-97.5"/>
</a>
</g>
</g>
<!-- Node8 -->
<g id="Node000008" class="node">
<title>Node8</title>
<g id="a_Node000008"><a xlink:href="classCommunicationStream.html#a8a07b470a5e55591ef90260ad5ec60da" target="_top" xlink:title="Handles key presses for message navigation (Left/Right arrows) and closing (Enter).">
<polygon fill="white" stroke="#666666" points="115.75,-175.6 0,-175.6 0,-146.6 115.75,-146.6 115.75,-175.6"/>
<text text-anchor="start" x="8" y="-162.1" font-family="Helvetica,sans-Serif" font-size="10.00">CommunicationStream</text>
<text text-anchor="middle" x="57.88" y="-151.6" font-family="Helvetica,sans-Serif" font-size="10.00">::keyPressEvent</text>
</a>
</g>
</g>
<!-- Node1&#45;&gt;Node8 -->
<g id="edge15_Node000001_Node000008" class="edge">
<title>Node1&#45;&gt;Node8</title>
<g id="a_edge15_Node000001_Node000008"><a xlink:title=" ">
<path fill="none" stroke="#63b8ff" d="M717.29,-67.48C620.7,-32.69 347.11,50.25 151.75,-44.1 107.15,-65.65 77.4,-120.17 65.17,-146.47"/>
<polygon fill="#63b8ff" stroke="#63b8ff" points="715.9,-70.7 726.49,-70.85 718.31,-64.13 715.9,-70.7"/>
</a>
</g>
</g>
<!-- Node3 -->
<g id="Node000003" class="node">
<title>Node3</title>
<g id="a_Node000003"><a xlink:href="classCommunicationStream.html#ae3b9b361caa5123daac847c60475d605" target="_top" xlink:title="Adds a new standard message to the stream. Initiates the receiving animation. The message is displaye...">
<polygon fill="white" stroke="#666666" points="284.38,-128.6 168.62,-128.6 168.62,-99.6 284.38,-99.6 284.38,-128.6"/>
<text text-anchor="start" x="176.62" y="-115.1" font-family="Helvetica,sans-Serif" font-size="10.00">CommunicationStream</text>
<text text-anchor="middle" x="226.5" y="-104.6" font-family="Helvetica,sans-Serif" font-size="10.00">::AddMessage</text>
</a>
</g>
</g>
<!-- Node2&#45;&gt;Node3 -->
<g id="edge2_Node000002_Node000003" class="edge">
<title>Node2&#45;&gt;Node3</title>
<g id="a_edge2_Node000002_Node000003"><a xlink:title=" ">
<path fill="none" stroke="#63b8ff" d="M481.83,-132.19C420.59,-127.83 338.92,-122.03 284.84,-118.18"/>
<polygon fill="#63b8ff" stroke="#63b8ff" points="481.28,-135.66 491.5,-132.88 481.78,-128.68 481.28,-135.66"/>
</a>
</g>
</g>
<!-- Node4 -->
<g id="Node000004" class="node">
<title>Node4</title>
<g id="a_Node000004"><a xlink:href="classCommunicationStream.html#a10a56a4dc3eeeaf4865d0f63f077e3bf" target="_top" xlink:title="Adds a new message with attachment content to the stream. Initiates the receiving animation....">
<polygon fill="white" stroke="#666666" points="301.25,-81.6 151.75,-81.6 151.75,-52.6 301.25,-52.6 301.25,-81.6"/>
<text text-anchor="start" x="159.75" y="-68.1" font-family="Helvetica,sans-Serif" font-size="10.00">CommunicationStream</text>
<text text-anchor="middle" x="226.5" y="-57.6" font-family="Helvetica,sans-Serif" font-size="10.00">::AddMessageWithAttachment</text>
</a>
</g>
</g>
<!-- Node2&#45;&gt;Node4 -->
<g id="edge3_Node000002_Node000004" class="edge">
<title>Node2&#45;&gt;Node4</title>
<g id="a_edge3_Node000002_Node000004"><a xlink:title=" ">
<path fill="none" stroke="#63b8ff" d="M482.81,-120.81C426.44,-108.95 352.39,-93.38 298.57,-82.05"/>
<polygon fill="#63b8ff" stroke="#63b8ff" points="481.85,-124.19 492.36,-122.82 483.29,-117.34 481.85,-124.19"/>
</a>
</g>
</g>
<!-- Node5 -->
<g id="Node000005" class="node">
<title>Node5</title>
<g id="a_Node000005"><a xlink:href="classCommunicationStream.html#aba44a533978e83748764534a8682c56f" target="_top" xlink:title="Displays the message at the specified index in the messages_ list. Hides the previously displayed mes...">
<polygon fill="white" stroke="#666666" points="457.5,-195.6 337.25,-195.6 337.25,-166.6 457.5,-166.6 457.5,-195.6"/>
<text text-anchor="start" x="345.25" y="-182.1" font-family="Helvetica,sans-Serif" font-size="10.00">CommunicationStream</text>
<text text-anchor="middle" x="397.38" y="-171.6" font-family="Helvetica,sans-Serif" font-size="10.00">::ShowMessageAtIndex</text>
</a>
</g>
</g>
<!-- Node2&#45;&gt;Node5 -->
<g id="edge4_Node000002_Node000005" class="edge">
<title>Node2&#45;&gt;Node5</title>
<g id="a_edge4_Node000002_Node000005"><a xlink:title=" ">
<path fill="none" stroke="#63b8ff" d="M496.22,-155.85C482.97,-159.27 469.22,-162.82 456.36,-166.14"/>
<polygon fill="#63b8ff" stroke="#63b8ff" points="496.92,-159.29 505.72,-153.4 495.17,-152.51 496.92,-159.29"/>
</a>
</g>
</g>
<!-- Node5&#45;&gt;Node3 -->
<g id="edge5_Node000005_Node000003" class="edge">
<title>Node5&#45;&gt;Node3</title>
<g id="a_edge5_Node000005_Node000003"><a xlink:title=" ">
<path fill="none" stroke="#63b8ff" d="M355.9,-161.62C339.16,-153.88 319.44,-145.15 301.25,-138.1 293.21,-134.99 284.59,-131.93 276.17,-129.1"/>
<polygon fill="#63b8ff" stroke="#63b8ff" points="353.98,-164.59 364.52,-165.65 356.94,-158.25 353.98,-164.59"/>
</a>
</g>
</g>
<!-- Node5&#45;&gt;Node4 -->
<g id="edge6_Node000005_Node000004" class="edge">
<title>Node5&#45;&gt;Node4</title>
<g id="a_edge6_Node000005_Node000004"><a xlink:title=" ">
<path fill="none" stroke="#63b8ff" d="M376.96,-157.6C359.15,-137.41 331.08,-108.83 301.25,-91.1 295.46,-87.66 289.12,-84.65 282.67,-82.03"/>
<polygon fill="#63b8ff" stroke="#63b8ff" points="374.22,-159.78 383.4,-165.07 379.52,-155.21 374.22,-159.78"/>
</a>
</g>
</g>
<!-- Node6 -->
<g id="Node000006" class="node">
<title>Node6</title>
<g id="a_Node000006"><a xlink:href="classCommunicationStream.html#a2283a11febe30f9d2d1887c2c20e7ea3" target="_top" xlink:title="Slot triggered when a StreamMessage widget finishes its hiding animation (or is hidden)....">
<polygon fill="white" stroke="#666666" points="288.12,-272.6 164.88,-272.6 164.88,-243.6 288.12,-243.6 288.12,-272.6"/>
<text text-anchor="start" x="172.88" y="-259.1" font-family="Helvetica,sans-Serif" font-size="10.00">CommunicationStream</text>
<text text-anchor="middle" x="226.5" y="-248.6" font-family="Helvetica,sans-Serif" font-size="10.00">::HandleMessageHidden</text>
</a>
</g>
</g>
<!-- Node5&#45;&gt;Node6 -->
<g id="edge7_Node000005_Node000006" class="edge">
<title>Node5&#45;&gt;Node6</title>
<g id="a_edge7_Node000005_Node000006"><a xlink:title=" ">
<path fill="none" stroke="#63b8ff" d="M361.2,-201.63C343.53,-211.51 321.6,-223.12 301.25,-232.1 292.31,-236.05 282.56,-239.83 273.17,-243.23"/>
<polygon fill="#63b8ff" stroke="#63b8ff" points="362.77,-204.76 369.75,-196.79 359.32,-198.67 362.77,-204.76"/>
</a>
</g>
</g>
<!-- Node7 -->
<g id="Node000007" class="node">
<title>Node7</title>
<g id="a_Node000007"><a xlink:href="classCommunicationStream.html#a600acedc2f4f586b28c147077f768438" target="_top" xlink:title="Shows the next message in the list, if available.">
<polygon fill="white" stroke="#666666" points="284.38,-222.6 168.62,-222.6 168.62,-193.6 284.38,-193.6 284.38,-222.6"/>
<text text-anchor="start" x="176.62" y="-209.1" font-family="Helvetica,sans-Serif" font-size="10.00">CommunicationStream</text>
<text text-anchor="middle" x="226.5" y="-198.6" font-family="Helvetica,sans-Serif" font-size="10.00">::ShowNextMessage</text>
</a>
</g>
</g>
<!-- Node5&#45;&gt;Node7 -->
<g id="edge9_Node000005_Node000007" class="edge">
<title>Node5&#45;&gt;Node7</title>
<g id="a_edge9_Node000005_Node000007"><a xlink:title=" ">
<path fill="none" stroke="#63b8ff" d="M325.57,-192.42C311.97,-194.6 297.9,-196.85 284.8,-198.94"/>
<polygon fill="#63b8ff" stroke="#63b8ff" points="326.02,-195.9 335.34,-190.86 324.91,-188.98 326.02,-195.9"/>
</a>
</g>
</g>
<!-- Node9 -->
<g id="Node000009" class="node">
<title>Node9</title>
<g id="a_Node000009"><a xlink:href="classCommunicationStream.html#a918c54f07703dce3733f2aec5b09503d" target="_top" xlink:title="Shows the previous message in the list, if available.">
<polygon fill="white" stroke="#666666" points="288.88,-175.6 164.12,-175.6 164.12,-146.6 288.88,-146.6 288.88,-175.6"/>
<text text-anchor="start" x="172.12" y="-162.1" font-family="Helvetica,sans-Serif" font-size="10.00">CommunicationStream</text>
<text text-anchor="middle" x="226.5" y="-151.6" font-family="Helvetica,sans-Serif" font-size="10.00">::ShowPreviousMessage</text>
</a>
</g>
</g>
<!-- Node5&#45;&gt;Node9 -->
<g id="edge12_Node000005_Node000009" class="edge">
<title>Node5&#45;&gt;Node9</title>
<g id="a_edge12_Node000005_Node000009"><a xlink:title=" ">
<path fill="none" stroke="#63b8ff" d="M325.48,-172.71C313.48,-171.29 301.1,-169.82 289.36,-168.43"/>
<polygon fill="#63b8ff" stroke="#63b8ff" points="324.99,-176.17 335.33,-173.87 325.81,-169.22 324.99,-176.17"/>
</a>
</g>
</g>
<!-- Node6&#45;&gt;Node2 -->
<g id="edge8_Node000006_Node000002" class="edge">
<title>Node6&#45;&gt;Node2</title>
<g id="a_edge8_Node000006_Node000002"><a xlink:title=" ">
<path fill="none" stroke="#63b8ff" d="M299.78,-258.02C346.51,-255.6 407.68,-247.88 457.5,-226.1 496.84,-208.91 533.44,-173.08 552.1,-152.84"/>
<polygon fill="#63b8ff" stroke="#63b8ff" points="299.88,-254.51 290.04,-258.45 300.19,-261.5 299.88,-254.51"/>
</a>
</g>
</g>
<!-- Node7&#45;&gt;Node2 -->
<g id="edge10_Node000007_Node000002" class="edge">
<title>Node7&#45;&gt;Node2</title>
<g id="a_edge10_Node000007_Node000002"><a xlink:title=" ">
<path fill="none" stroke="#63b8ff" d="M295.99,-216.71C342.5,-220.27 404.86,-220.54 457.5,-205.1 492.74,-194.77 527.75,-169.41 547.83,-153.02"/>
<polygon fill="#63b8ff" stroke="#63b8ff" points="296.3,-213.22 286.04,-215.87 295.71,-220.2 296.3,-213.22"/>
</a>
</g>
</g>
<!-- Node7&#45;&gt;Node8 -->
<g id="edge11_Node000007_Node000008" class="edge">
<title>Node7&#45;&gt;Node8</title>
<g id="a_edge11_Node000007_Node000008"><a xlink:title=" ">
<path fill="none" stroke="#63b8ff" d="M162.07,-190.21C145.49,-185.54 127.8,-180.54 111.83,-176.04"/>
<polygon fill="#63b8ff" stroke="#63b8ff" points="160.75,-193.47 171.32,-192.82 162.65,-186.74 160.75,-193.47"/>
</a>
</g>
</g>
<!-- Node9&#45;&gt;Node2 -->
<g id="edge13_Node000009_Node000002" class="edge">
<title>Node9&#45;&gt;Node2</title>
<g id="a_edge13_Node000009_Node000002"><a xlink:title=" ">
<path fill="none" stroke="#63b8ff" d="M300.64,-156.12C357.63,-152.23 436.32,-146.87 493.01,-143.01"/>
<polygon fill="#63b8ff" stroke="#63b8ff" points="300.44,-152.62 290.7,-156.8 300.91,-159.61 300.44,-152.62"/>
</a>
</g>
</g>
<!-- Node9&#45;&gt;Node8 -->
<g id="edge14_Node000009_Node000008" class="edge">
<title>Node9&#45;&gt;Node8</title>
<g id="a_edge14_Node000009_Node000008"><a xlink:title=" ">
<path fill="none" stroke="#63b8ff" d="M152.76,-161.1C140.47,-161.1 127.87,-161.1 116.05,-161.1"/>
<polygon fill="#63b8ff" stroke="#63b8ff" points="152.41,-164.6 162.41,-161.1 152.41,-157.6 152.41,-164.6"/>
</a>
</g>
</g>
</g>
</svg>

<g id="navigator" transform="translate(0 0)" fill="#404254">
  <rect fill="#f2f5e9" fill-opacity="0.5" stroke="#606060" stroke-width=".5" x="0" y="0" width="60" height="60"/>
  <use id="zoomplus" xlink:href="#zoomPlus" x="17" y="9" onmousedown="handleZoom(evt,'in')"/>
  <use id="zoomminus" xlink:href="#zoomMin" x="42" y="9" onmousedown="handleZoom(evt,'out')"/>
  <use id="reset" xlink:href="#resetDef" x="30" y="36" onmousedown="handleReset()"/>
   <use id="arrowup" xlink:href="#arrowUp" x="0" y="0" onmousedown="handlePan(0,-1)"/>
  <use id="arrowright" xlink:href="#arrowRight" x="0" y="0" onmousedown="handlePan(1,0)"/>
  <use id="arrowdown" xlink:href="#arrowDown" x="0" y="0" onmousedown="handlePan(0,1)"/>
  <use id="arrowleft" xlink:href="#arrowLeft" x="0" y="0" onmousedown="handlePan(-1,0)"/>
</g>
<svg viewBox="0 0 15 15" width="100%" height="30px" preserveAspectRatio="xMaxYMin meet">
 <g id="arrow_out" transform="scale(0.3 0.3)">
  <a xlink:href="classStreamMessage_adb6463258367b6d672096da549b66b3c_icgraph_org.svg" target="_base">
   <rect id="button" ry="5" rx="5" y="6" x="6" height="38" width="38"
        fill="#f2f5e9" fill-opacity="0.5" stroke="#606060" stroke-width="1.0"/>
   <path id="arrow"
     d="M 11.500037,31.436501 C 11.940474,20.09759 22.043105,11.32322 32.158766,21.979434 L 37.068811,17.246167 C 37.068811,17.246167 37.088388,32 37.088388,32 L 22.160133,31.978069 C 22.160133,31.978069 26.997745,27.140456 26.997745,27.140456 C 18.528582,18.264221 13.291696,25.230495 11.500037,31.436501 z"
     style="fill:#404040;"/>
  </a>
 </g>
</svg>

<style type='text/css'>
<![CDATA[
[data-mouse-over-selected='false'] { opacity: 0.7; }
[data-mouse-over-selected='true']  { opacity: 1.0; }
]]>
</style>
<script type="application/ecmascript"><![CDATA[
document.addEventListener('DOMContentLoaded', (event) => {
  highlightEdges();
  highlightAdjacentNodes();
});
]]></script>
</svg>
