<?xml version="1.0" encoding="UTF-8" standalone="no"?>
<!DOCTYPE svg PUBLIC "-//W3C//DTD SVG 1.1//EN"
 "http://www.w3.org/Graphics/SVG/1.1/DTD/svg11.dtd">
<!-- Generated by graphviz version 12.2.1 (0)
 -->
<!-- Title: AppInstanceManager::ConnectToServer Pages: 1 -->
<!--zoomable 191 -->

<svg id="main" version="1.1" xmlns="http://www.w3.org/2000/svg" xmlns:xlink="http://www.w3.org/1999/xlink" xml:space="preserve" onload="init(evt)">

<style type="text/css"><![CDATA[
.node, .edge {opacity: 0.7;}
.node.selected, .edge.selected {opacity: 1;}
.edge:hover path { stroke: red; }
.edge:hover polygon { stroke: red; fill: red; }
]]></style>

<defs>
  <circle id="rim" cx="0" cy="0" r="7"/>
  <circle id="rim2" cx="0" cy="0" r="3.5"/>
  <g id="zoomPlus">
    <use xlink:href="#rim" fill="#404040"><set attributeName="fill" to="#808080" begin="zoomplus.mouseover" end="zoomplus.mouseout"/></use>
    <path d="M-4,0h8M0,-4v8" fill="none" stroke="white" stroke-width="1.5" pointer-events="none"/>
  </g>
  <g id="zoomMin">
    <use xlink:href="#rim" fill="#404040"><set attributeName="fill" to="#808080" begin="zoomminus.mouseover" end="zoomminus.mouseout"/></use>
    <path d="M-4,0h8" fill="none" stroke="white" stroke-width="1.5" pointer-events="none"/>
  </g>
  <g id="arrowUp" transform="translate(30 24)">
    <use xlink:href="#rim"/>
    <path pointer-events="none" fill="none" stroke="white" stroke-width="1.5" d="M0,-3.0v7 M-2.5,-0.5L0,-3.0L2.5,-0.5"/>
  </g>
  <g id="arrowRight" transform="rotate(90) translate(36 -43)">
    <use xlink:href="#rim"/>
    <path pointer-events="none" fill="none" stroke="white" stroke-width="1.5" d="M0,-3.0v7 M-2.5,-0.5L0,-3.0L2.5,-0.5"/>
  </g>
  <g id="arrowDown" transform="rotate(180) translate(-30 -48)">
    <use xlink:href="#rim"/>
    <path pointer-events="none" fill="none" stroke="white" stroke-width="1.5" d="M0,-3.0v7 M-2.5,-0.5L0,-3.0L2.5,-0.5"/>
  </g>
  <g id="arrowLeft" transform="rotate(270) translate(-36 17)">
    <use xlink:href="#rim"/>
    <path pointer-events="none" fill="none" stroke="white" stroke-width="1.5" d="M0,-3.0v7 M-2.5,-0.5L0,-3.0L2.5,-0.5"/>
  </g>
  <g id="resetDef">
    <use xlink:href="#rim2" fill="#404040"><set attributeName="fill" to="#808080" begin="reset.mouseover" end="reset.mouseout"/></use>
  </g>
</defs>
<script type="application/ecmascript">
var viewWidth = 723;
var viewHeight = 191;
var sectionId = 'dynsection-7';
</script>
<script type="application/ecmascript" xlink:href="svg.min.js"/>
<svg id="graph" class="graph">
<g id="viewport">
<title>AppInstanceManager::ConnectToServer</title>
<!-- Node1 -->
<g id="Node000001" class="node">
<title>Node1</title>
<g id="a_Node000001"><a xlink:title="Establishes a connection to the server instance for a client instance.">
<polygon fill="#999999" stroke="#666666" points="108.25,-48 0,-48 0,-19 108.25,-19 108.25,-48"/>
<text text-anchor="start" x="8" y="-34.5" font-family="Helvetica,sans-Serif" font-size="10.00">AppInstanceManager</text>
<text text-anchor="middle" x="54.12" y="-24" font-family="Helvetica,sans-Serif" font-size="10.00">::ConnectToServer</text>
</a>
</g>
</g>
<!-- Node2 -->
<g id="Node000002" class="node">
<title>Node2</title>
<g id="a_Node000002"><a xlink:href="classAppInstanceManager.html#a8087ee7ea64e087b39c66048becc8574" target="_top" xlink:title="Slot called when a connected socket disconnects. Handles cleanup and potential role change (the clien...">
<polygon fill="white" stroke="#666666" points="252.5,-89 144.25,-89 144.25,-60 252.5,-60 252.5,-89"/>
<text text-anchor="start" x="152.25" y="-75.5" font-family="Helvetica,sans-Serif" font-size="10.00">AppInstanceManager</text>
<text text-anchor="middle" x="198.38" y="-65" font-family="Helvetica,sans-Serif" font-size="10.00">::clientDisconnected</text>
</a>
</g>
</g>
<!-- Node1&#45;&gt;Node2 -->
<g id="edge1_Node000001_Node000002" class="edge">
<title>Node1&#45;&gt;Node2</title>
<g id="a_edge1_Node000001_Node000002"><a xlink:title=" ">
<path fill="none" stroke="#63b8ff" d="M106.88,-48.42C115.9,-51.02 125.38,-53.75 134.65,-56.42"/>
<polygon fill="#63b8ff" stroke="#63b8ff" points="133.38,-59.7 143.96,-59.11 135.32,-52.97 133.38,-59.7"/>
</a>
</g>
</g>
<!-- Node7 -->
<g id="Node000007" class="node">
<title>Node7</title>
<g id="a_Node000007"><a xlink:href="classAppInstanceManager.html#ab7fe0e77dca903fa23d78139dd68e84b" target="_top" xlink:title="Slot called when data can be read from a connected socket.">
<polygon fill="#fff0f0" stroke="red" points="714.5,-29 606.25,-29 606.25,0 714.5,0 714.5,-29"/>
<text text-anchor="start" x="614.25" y="-15.5" font-family="Helvetica,sans-Serif" font-size="10.00">AppInstanceManager</text>
<text text-anchor="middle" x="660.38" y="-5" font-family="Helvetica,sans-Serif" font-size="10.00">::readData</text>
</a>
</g>
</g>
<!-- Node1&#45;&gt;Node7 -->
<g id="edge8_Node000001_Node000007" class="edge">
<title>Node1&#45;&gt;Node7</title>
<g id="a_edge8_Node000001_Node000007"><a xlink:title=" ">
<path fill="none" stroke="#63b8ff" d="M108.74,-30.02C186.53,-25.17 335.27,-16.61 462,-13.5 510.1,-12.32 522.14,-13.23 570.25,-13.5 578.14,-13.54 586.42,-13.61 594.62,-13.69"/>
<polygon fill="#63b8ff" stroke="#63b8ff" points="594.57,-17.19 604.61,-13.79 594.64,-10.19 594.57,-17.19"/>
</a>
</g>
</g>
<!-- Node3 -->
<g id="Node000003" class="node">
<title>Node3</title>
<g id="a_Node000003"><a xlink:href="classAppInstanceManager.html#a1ac17dc2cb4f3ae1f968109a180acd2e" target="_top" xlink:title="Emitted when a client instance disconnects (on the server) or when the connection to the server is lo...">
<polygon fill="white" stroke="#666666" points="416.62,-183 297.88,-183 297.88,-154 416.62,-154 416.62,-183"/>
<text text-anchor="start" x="305.88" y="-169.5" font-family="Helvetica,sans-Serif" font-size="10.00">AppInstanceManager</text>
<text text-anchor="middle" x="357.25" y="-159" font-family="Helvetica,sans-Serif" font-size="10.00">::instanceDisconnected</text>
</a>
</g>
</g>
<!-- Node2&#45;&gt;Node3 -->
<g id="edge2_Node000002_Node000003" class="edge">
<title>Node2&#45;&gt;Node3</title>
<g id="a_edge2_Node000002_Node000003"><a xlink:title=" ">
<path fill="none" stroke="#63b8ff" d="M214.6,-89.39C231.46,-105.18 260.03,-129.95 288.5,-145.5 290.71,-146.71 293,-147.87 295.34,-148.99"/>
<polygon fill="#63b8ff" stroke="#63b8ff" points="293.88,-152.17 304.44,-152.97 296.68,-145.75 293.88,-152.17"/>
</a>
</g>
</g>
<!-- Node4 -->
<g id="Node000004" class="node">
<title>Node4</title>
<g id="a_Node000004"><a xlink:href="classAppInstanceManager.html#acb57c2842c3eff0de2fe0c4009f8cdcb" target="_top" xlink:title="Statically checks if another instance of the application is already running.">
<polygon fill="white" stroke="#666666" points="426,-136 288.5,-136 288.5,-107 426,-107 426,-136"/>
<text text-anchor="start" x="296.5" y="-122.5" font-family="Helvetica,sans-Serif" font-size="10.00">AppInstanceManager</text>
<text text-anchor="middle" x="357.25" y="-112" font-family="Helvetica,sans-Serif" font-size="10.00">::IsAnotherInstanceRunning</text>
</a>
</g>
</g>
<!-- Node2&#45;&gt;Node4 -->
<g id="edge3_Node000002_Node000004" class="edge">
<title>Node2&#45;&gt;Node4</title>
<g id="a_edge3_Node000002_Node000004"><a xlink:title=" ">
<path fill="none" stroke="#63b8ff" d="M249.01,-89.37C263.75,-93.79 280.06,-98.67 295.42,-103.27"/>
<polygon fill="#63b8ff" stroke="#63b8ff" points="294.36,-106.61 304.95,-106.13 296.37,-99.91 294.36,-106.61"/>
</a>
</g>
</g>
<!-- Node5 -->
<g id="Node000005" class="node">
<title>Node5</title>
<g id="a_Node000005"><a xlink:href="classAppInstanceManager.html#af09b098118800e025bcdce635b382ddd" target="_top" xlink:title="Sets up the QLocalServer for the creator instance.">
<polygon fill="white" stroke="#666666" points="411.38,-89 303.12,-89 303.12,-60 411.38,-60 411.38,-89"/>
<text text-anchor="start" x="311.12" y="-75.5" font-family="Helvetica,sans-Serif" font-size="10.00">AppInstanceManager</text>
<text text-anchor="middle" x="357.25" y="-65" font-family="Helvetica,sans-Serif" font-size="10.00">::SetupServer</text>
</a>
</g>
</g>
<!-- Node2&#45;&gt;Node5 -->
<g id="edge4_Node000002_Node000005" class="edge">
<title>Node2&#45;&gt;Node5</title>
<g id="a_edge4_Node000002_Node000005"><a xlink:title=" ">
<path fill="none" stroke="#63b8ff" d="M252.92,-74.5C265.22,-74.5 278.44,-74.5 291.16,-74.5"/>
<polygon fill="#63b8ff" stroke="#63b8ff" points="291.16,-78 301.16,-74.5 291.16,-71 291.16,-78"/>
</a>
</g>
</g>
<!-- Node6 -->
<g id="Node000006" class="node">
<title>Node6</title>
<g id="a_Node000006"><a xlink:href="classAppInstanceManager.html#af7e9143a1ff0af2932c1d0afc1f31231" target="_top" xlink:title="Slot called when a new client attempts to connect to the server.">
<polygon fill="white" stroke="#666666" points="570.25,-51 462,-51 462,-22 570.25,-22 570.25,-51"/>
<text text-anchor="start" x="470" y="-37.5" font-family="Helvetica,sans-Serif" font-size="10.00">AppInstanceManager</text>
<text text-anchor="middle" x="516.12" y="-27" font-family="Helvetica,sans-Serif" font-size="10.00">::onNewConnection</text>
</a>
</g>
</g>
<!-- Node5&#45;&gt;Node6 -->
<g id="edge5_Node000005_Node000006" class="edge">
<title>Node5&#45;&gt;Node6</title>
<g id="a_edge5_Node000005_Node000006"><a xlink:title=" ">
<path fill="none" stroke="#63b8ff" d="M411.8,-61.53C424.22,-58.52 437.58,-55.28 450.43,-52.17"/>
<polygon fill="#63b8ff" stroke="#63b8ff" points="451.19,-55.59 460.08,-49.83 449.54,-48.79 451.19,-55.59"/>
</a>
</g>
</g>
<!-- Node6&#45;&gt;Node2 -->
<g id="edge6_Node000006_Node000002" class="edge">
<title>Node6&#45;&gt;Node2</title>
<g id="a_edge6_Node000006_Node000002"><a xlink:title=" ">
<path fill="none" stroke="#63b8ff" d="M461.69,-37.23C415.57,-38.53 347.29,-42.05 288.5,-51.5 279.64,-52.92 270.38,-54.83 261.31,-56.94"/>
<polygon fill="#63b8ff" stroke="#63b8ff" points="260.76,-53.47 251.87,-59.23 262.42,-60.27 260.76,-53.47"/>
</a>
</g>
</g>
<!-- Node6&#45;&gt;Node7 -->
<g id="edge7_Node000006_Node000007" class="edge">
<title>Node6&#45;&gt;Node7</title>
<g id="a_edge7_Node000006_Node000007"><a xlink:title=" ">
<path fill="none" stroke="#63b8ff" d="M570.5,-28.25C578.43,-27.02 586.67,-25.74 594.8,-24.49"/>
<polygon fill="#63b8ff" stroke="#63b8ff" points="595.33,-27.95 604.68,-22.96 594.26,-21.03 595.33,-27.95"/>
</a>
</g>
</g>
</g>
</svg>

<g id="navigator" transform="translate(0 0)" fill="#404254">
  <rect fill="#f2f5e9" fill-opacity="0.5" stroke="#606060" stroke-width=".5" x="0" y="0" width="60" height="60"/>
  <use id="zoomplus" xlink:href="#zoomPlus" x="17" y="9" onmousedown="handleZoom(evt,'in')"/>
  <use id="zoomminus" xlink:href="#zoomMin" x="42" y="9" onmousedown="handleZoom(evt,'out')"/>
  <use id="reset" xlink:href="#resetDef" x="30" y="36" onmousedown="handleReset()"/>
   <use id="arrowup" xlink:href="#arrowUp" x="0" y="0" onmousedown="handlePan(0,-1)"/>
  <use id="arrowright" xlink:href="#arrowRight" x="0" y="0" onmousedown="handlePan(1,0)"/>
  <use id="arrowdown" xlink:href="#arrowDown" x="0" y="0" onmousedown="handlePan(0,1)"/>
  <use id="arrowleft" xlink:href="#arrowLeft" x="0" y="0" onmousedown="handlePan(-1,0)"/>
</g>
<svg viewBox="0 0 15 15" width="100%" height="30px" preserveAspectRatio="xMaxYMin meet">
 <g id="arrow_out" transform="scale(0.3 0.3)">
  <a xlink:href="classAppInstanceManager_a6aa626dd1ea5e5c57860d532bdb85d5e_cgraph_org.svg" target="_base">
   <rect id="button" ry="5" rx="5" y="6" x="6" height="38" width="38"
        fill="#f2f5e9" fill-opacity="0.5" stroke="#606060" stroke-width="1.0"/>
   <path id="arrow"
     d="M 11.500037,31.436501 C 11.940474,20.09759 22.043105,11.32322 32.158766,21.979434 L 37.068811,17.246167 C 37.068811,17.246167 37.088388,32 37.088388,32 L 22.160133,31.978069 C 22.160133,31.978069 26.997745,27.140456 26.997745,27.140456 C 18.528582,18.264221 13.291696,25.230495 11.500037,31.436501 z"
     style="fill:#404040;"/>
  </a>
 </g>
</svg>

<style type='text/css'>
<![CDATA[
[data-mouse-over-selected='false'] { opacity: 0.7; }
[data-mouse-over-selected='true']  { opacity: 1.0; }
]]>
</style>
<script type="application/ecmascript"><![CDATA[
document.addEventListener('DOMContentLoaded', (event) => {
  highlightEdges();
  highlightAdjacentNodes();
});
]]></script>
</svg>
