<?xml version="1.0" encoding="UTF-8" standalone="no"?>
<!DOCTYPE svg PUBLIC "-//W3C//DTD SVG 1.1//EN"
 "http://www.w3.org/Graphics/SVG/1.1/DTD/svg11.dtd">
<!-- Generated by graphviz version 12.2.1 (0)
 -->
<!-- Title: SessionCoordinator::IsWavelengthPasswordProtected Pages: 1 -->
<!--zoomable 107 -->

<svg id="main" version="1.1" xmlns="http://www.w3.org/2000/svg" xmlns:xlink="http://www.w3.org/1999/xlink" xml:space="preserve" onload="init(evt)">

<style type="text/css"><![CDATA[
.node, .edge {opacity: 0.7;}
.node.selected, .edge.selected {opacity: 1;}
.edge:hover path { stroke: red; }
.edge:hover polygon { stroke: red; fill: red; }
]]></style>

<defs>
  <circle id="rim" cx="0" cy="0" r="7"/>
  <circle id="rim2" cx="0" cy="0" r="3.5"/>
  <g id="zoomPlus">
    <use xlink:href="#rim" fill="#404040"><set attributeName="fill" to="#808080" begin="zoomplus.mouseover" end="zoomplus.mouseout"/></use>
    <path d="M-4,0h8M0,-4v8" fill="none" stroke="white" stroke-width="1.5" pointer-events="none"/>
  </g>
  <g id="zoomMin">
    <use xlink:href="#rim" fill="#404040"><set attributeName="fill" to="#808080" begin="zoomminus.mouseover" end="zoomminus.mouseout"/></use>
    <path d="M-4,0h8" fill="none" stroke="white" stroke-width="1.5" pointer-events="none"/>
  </g>
  <g id="arrowUp" transform="translate(30 24)">
    <use xlink:href="#rim"/>
    <path pointer-events="none" fill="none" stroke="white" stroke-width="1.5" d="M0,-3.0v7 M-2.5,-0.5L0,-3.0L2.5,-0.5"/>
  </g>
  <g id="arrowRight" transform="rotate(90) translate(36 -43)">
    <use xlink:href="#rim"/>
    <path pointer-events="none" fill="none" stroke="white" stroke-width="1.5" d="M0,-3.0v7 M-2.5,-0.5L0,-3.0L2.5,-0.5"/>
  </g>
  <g id="arrowDown" transform="rotate(180) translate(-30 -48)">
    <use xlink:href="#rim"/>
    <path pointer-events="none" fill="none" stroke="white" stroke-width="1.5" d="M0,-3.0v7 M-2.5,-0.5L0,-3.0L2.5,-0.5"/>
  </g>
  <g id="arrowLeft" transform="rotate(270) translate(-36 17)">
    <use xlink:href="#rim"/>
    <path pointer-events="none" fill="none" stroke="white" stroke-width="1.5" d="M0,-3.0v7 M-2.5,-0.5L0,-3.0L2.5,-0.5"/>
  </g>
  <g id="resetDef">
    <use xlink:href="#rim2" fill="#404040"><set attributeName="fill" to="#808080" begin="reset.mouseover" end="reset.mouseout"/></use>
  </g>
</defs>
<script type="application/ecmascript">
var viewWidth = 684;
var viewHeight = 107;
var sectionId = 'dynsection-27';
</script>
<script type="application/ecmascript" xlink:href="svg.min.js"/>
<svg id="graph" class="graph">
<g id="viewport">
<title>SessionCoordinator::IsWavelengthPasswordProtected</title>
<!-- Node1 -->
<g id="Node000001" class="node">
<title>Node1</title>
<g id="a_Node000001"><a xlink:title="Checks if a specific wavelength is password protected. Delegates the call to WavelengthStateManager.">
<polygon fill="#999999" stroke="#666666" points="165.25,-75 0,-75 0,-46 165.25,-46 165.25,-75"/>
<text text-anchor="start" x="8" y="-61.5" font-family="Helvetica,sans-Serif" font-size="10.00">SessionCoordinator</text>
<text text-anchor="middle" x="82.62" y="-51" font-family="Helvetica,sans-Serif" font-size="10.00">::IsWavelengthPasswordProtected</text>
</a>
</g>
</g>
<!-- Node2 -->
<g id="Node000002" class="node">
<title>Node2</title>
<g id="a_Node000002"><a xlink:href="classWavelengthStateManager.html#a080b15c4486a3ac1c341a464dbf197ad" target="_top" xlink:title="Gets the singleton instance of the WavelengthStateManager.">
<polygon fill="white" stroke="#666666" points="347.38,-99 220.38,-99 220.38,-70 347.38,-70 347.38,-99"/>
<text text-anchor="start" x="228.38" y="-85.5" font-family="Helvetica,sans-Serif" font-size="10.00">WavelengthStateManager</text>
<text text-anchor="middle" x="283.88" y="-75" font-family="Helvetica,sans-Serif" font-size="10.00">::GetInstance</text>
</a>
</g>
</g>
<!-- Node1&#45;&gt;Node2 -->
<g id="edge1_Node000001_Node000002" class="edge">
<title>Node1&#45;&gt;Node2</title>
<g id="a_edge1_Node000001_Node000002"><a xlink:title=" ">
<path fill="none" stroke="#63b8ff" d="M165.53,-70.37C179.93,-72.1 194.84,-73.9 209,-75.6"/>
<polygon fill="#63b8ff" stroke="#63b8ff" points="208.32,-79.05 218.67,-76.77 209.16,-72.1 208.32,-79.05"/>
</a>
</g>
</g>
<!-- Node4 -->
<g id="Node000004" class="node">
<title>Node4</title>
<g id="a_Node000004"><a xlink:href="classWavelengthStateManager.html#a7fdc767c6e09c46297e53fdc4c75110e" target="_top" xlink:title="Checks if a specific wavelength is password protected.">
<polygon fill="white" stroke="#666666" points="366.5,-52 201.25,-52 201.25,-23 366.5,-23 366.5,-52"/>
<text text-anchor="start" x="209.25" y="-38.5" font-family="Helvetica,sans-Serif" font-size="10.00">WavelengthStateManager</text>
<text text-anchor="middle" x="283.88" y="-28" font-family="Helvetica,sans-Serif" font-size="10.00">::IsWavelengthPasswordProtected</text>
</a>
</g>
</g>
<!-- Node1&#45;&gt;Node4 -->
<g id="edge3_Node000001_Node000004" class="edge">
<title>Node1&#45;&gt;Node4</title>
<g id="a_edge3_Node000001_Node000004"><a xlink:title=" ">
<path fill="none" stroke="#63b8ff" d="M165.53,-51.05C173.48,-50.13 181.59,-49.19 189.64,-48.26"/>
<polygon fill="#63b8ff" stroke="#63b8ff" points="189.93,-51.75 199.46,-47.13 189.13,-44.8 189.93,-51.75"/>
</a>
</g>
</g>
<!-- Node3 -->
<g id="Node000003" class="node">
<title>Node3</title>
<g id="a_Node000003"><a xlink:href="classWavelengthStateManager.html#a9076f87f6e875d36b2853b946d94ce29" target="_top" xlink:title="Private constructor to enforce the singleton pattern.">
<polygon fill="white" stroke="#666666" points="535.5,-99 402.5,-99 402.5,-70 535.5,-70 535.5,-99"/>
<text text-anchor="start" x="410.5" y="-85.5" font-family="Helvetica,sans-Serif" font-size="10.00">WavelengthStateManager</text>
<text text-anchor="middle" x="469" y="-75" font-family="Helvetica,sans-Serif" font-size="10.00">::WavelengthStateManager</text>
</a>
</g>
</g>
<!-- Node2&#45;&gt;Node3 -->
<g id="edge2_Node000002_Node000003" class="edge">
<title>Node2&#45;&gt;Node3</title>
<g id="a_edge2_Node000002_Node000003"><a xlink:title=" ">
<path fill="none" stroke="#63b8ff" d="M347.64,-84.5C361.53,-84.5 376.4,-84.5 390.79,-84.5"/>
<polygon fill="#63b8ff" stroke="#63b8ff" points="390.68,-88 400.68,-84.5 390.68,-81 390.68,-88"/>
</a>
</g>
</g>
<!-- Node5 -->
<g id="Node000005" class="node">
<title>Node5</title>
<g id="a_Node000005"><a xlink:href="classWavelengthStateManager.html#af929daf75947f30826d1f7b192f3f1b3" target="_top" xlink:title="Retrieves detailed information about a specific wavelength from the registry.">
<polygon fill="white" stroke="#666666" points="532.5,-52 405.5,-52 405.5,-23 532.5,-23 532.5,-52"/>
<text text-anchor="start" x="413.5" y="-38.5" font-family="Helvetica,sans-Serif" font-size="10.00">WavelengthStateManager</text>
<text text-anchor="middle" x="469" y="-28" font-family="Helvetica,sans-Serif" font-size="10.00">::GetWavelengthInfo</text>
</a>
</g>
</g>
<!-- Node4&#45;&gt;Node5 -->
<g id="edge4_Node000004_Node000005" class="edge">
<title>Node4&#45;&gt;Node5</title>
<g id="a_edge4_Node000004_Node000005"><a xlink:title=" ">
<path fill="none" stroke="#63b8ff" d="M366.8,-37.5C375.74,-37.5 384.8,-37.5 393.64,-37.5"/>
<polygon fill="#63b8ff" stroke="#63b8ff" points="393.59,-41 403.59,-37.5 393.59,-34 393.59,-41"/>
</a>
</g>
</g>
<!-- Node6 -->
<g id="Node000006" class="node">
<title>Node6</title>
<g id="a_Node000006"><a xlink:href="classWavelengthRegistry.html#a84a25c38915431306681e96df429f20f" target="_top" xlink:title="Gets the singleton instance of the WavelengthRegistry.">
<polygon fill="#fff0f0" stroke="red" points="675.25,-76 572.25,-76 572.25,-47 675.25,-47 675.25,-76"/>
<text text-anchor="start" x="580.25" y="-62.5" font-family="Helvetica,sans-Serif" font-size="10.00">WavelengthRegistry</text>
<text text-anchor="middle" x="623.75" y="-52" font-family="Helvetica,sans-Serif" font-size="10.00">::GetInstance</text>
</a>
</g>
</g>
<!-- Node5&#45;&gt;Node6 -->
<g id="edge5_Node000005_Node000006" class="edge">
<title>Node5&#45;&gt;Node6</title>
<g id="a_edge5_Node000005_Node000006"><a xlink:title=" ">
<path fill="none" stroke="#63b8ff" d="M532.57,-47.33C541.94,-48.8 551.6,-50.32 560.96,-51.79"/>
<polygon fill="#63b8ff" stroke="#63b8ff" points="560.26,-55.22 570.68,-53.32 561.35,-48.31 560.26,-55.22"/>
</a>
</g>
</g>
<!-- Node8 -->
<g id="Node000008" class="node">
<title>Node8</title>
<g id="a_Node000008"><a xlink:href="classWavelengthRegistry.html#a022bb5799d095b75026019791ebf5e34" target="_top" xlink:title="Retrieves the WavelengthInfo for a specific frequency.">
<polygon fill="#fff0f0" stroke="red" points="676,-29 571.5,-29 571.5,0 676,0 676,-29"/>
<text text-anchor="start" x="579.5" y="-15.5" font-family="Helvetica,sans-Serif" font-size="10.00">WavelengthRegistry</text>
<text text-anchor="middle" x="623.75" y="-5" font-family="Helvetica,sans-Serif" font-size="10.00">::GetWavelengthInfo</text>
</a>
</g>
</g>
<!-- Node5&#45;&gt;Node8 -->
<g id="edge6_Node000005_Node000008" class="edge">
<title>Node5&#45;&gt;Node8</title>
<g id="a_edge6_Node000005_Node000008"><a xlink:title=" ">
<path fill="none" stroke="#63b8ff" d="M532.57,-28.08C541.61,-26.72 550.91,-25.32 559.95,-23.96"/>
<polygon fill="#63b8ff" stroke="#63b8ff" points="560.36,-27.43 569.73,-22.48 559.32,-20.51 560.36,-27.43"/>
</a>
</g>
</g>
</g>
</svg>

<g id="navigator" transform="translate(0 0)" fill="#404254">
  <rect fill="#f2f5e9" fill-opacity="0.5" stroke="#606060" stroke-width=".5" x="0" y="0" width="60" height="60"/>
  <use id="zoomplus" xlink:href="#zoomPlus" x="17" y="9" onmousedown="handleZoom(evt,'in')"/>
  <use id="zoomminus" xlink:href="#zoomMin" x="42" y="9" onmousedown="handleZoom(evt,'out')"/>
  <use id="reset" xlink:href="#resetDef" x="30" y="36" onmousedown="handleReset()"/>
   <use id="arrowup" xlink:href="#arrowUp" x="0" y="0" onmousedown="handlePan(0,-1)"/>
  <use id="arrowright" xlink:href="#arrowRight" x="0" y="0" onmousedown="handlePan(1,0)"/>
  <use id="arrowdown" xlink:href="#arrowDown" x="0" y="0" onmousedown="handlePan(0,1)"/>
  <use id="arrowleft" xlink:href="#arrowLeft" x="0" y="0" onmousedown="handlePan(-1,0)"/>
</g>
<svg viewBox="0 0 15 15" width="100%" height="30px" preserveAspectRatio="xMaxYMin meet">
 <g id="arrow_out" transform="scale(0.3 0.3)">
  <a xlink:href="classSessionCoordinator_aa0256473933f5d5f8001feff315aac38_cgraph_org.svg" target="_base">
   <rect id="button" ry="5" rx="5" y="6" x="6" height="38" width="38"
        fill="#f2f5e9" fill-opacity="0.5" stroke="#606060" stroke-width="1.0"/>
   <path id="arrow"
     d="M 11.500037,31.436501 C 11.940474,20.09759 22.043105,11.32322 32.158766,21.979434 L 37.068811,17.246167 C 37.068811,17.246167 37.088388,32 37.088388,32 L 22.160133,31.978069 C 22.160133,31.978069 26.997745,27.140456 26.997745,27.140456 C 18.528582,18.264221 13.291696,25.230495 11.500037,31.436501 z"
     style="fill:#404040;"/>
  </a>
 </g>
</svg>

<style type='text/css'>
<![CDATA[
[data-mouse-over-selected='false'] { opacity: 0.7; }
[data-mouse-over-selected='true']  { opacity: 1.0; }
]]>
</style>
<script type="application/ecmascript"><![CDATA[
document.addEventListener('DOMContentLoaded', (event) => {
  highlightEdges();
  highlightAdjacentNodes();
});
]]></script>
</svg>
