<?xml version="1.0" encoding="UTF-8" standalone="no"?>
<!DOCTYPE svg PUBLIC "-//W3C//DTD SVG 1.1//EN"
 "http://www.w3.org/Graphics/SVG/1.1/DTD/svg11.dtd">
<!-- Generated by graphviz version 12.2.1 (0)
 -->
<!-- Title: WavelengthLeaver::wavelengthClosed Pages: 1 -->
<svg width="681pt" height="84pt"
 viewBox="0.00 0.00 681.00 84.00" xmlns="http://www.w3.org/2000/svg" xmlns:xlink="http://www.w3.org/1999/xlink">
<g id="graph0" class="graph" transform="scale(1 1) rotate(0) translate(4 80)">
<title>WavelengthLeaver::wavelengthClosed</title>
<!-- Node1 -->
<g id="Node000001" class="node">
<title>Node1</title>
<g id="a_Node000001"><a xlink:title="Emitted after the host successfully closes a specific wavelength via CloseWavelength().">
<polygon fill="#999999" stroke="#666666" points="673,-52 524.25,-52 524.25,-23 673,-23 673,-52"/>
<text text-anchor="start" x="532.25" y="-38.5" font-family="Helvetica,sans-Serif" font-size="10.00">WavelengthLeaver::wavelength</text>
<text text-anchor="middle" x="598.62" y="-28" font-family="Helvetica,sans-Serif" font-size="10.00">Closed</text>
</a>
</g>
</g>
<!-- Node2 -->
<g id="Node000002" class="node">
<title>Node2</title>
<g id="a_Node000002"><a xlink:href="classWavelengthLeaver.html#af9c574c0d19226e480a7af8edd48f759" target="_top" xlink:title="Closes a specific wavelength (only if the current user is the host). Checks if the user is the host f...">
<polygon fill="white" stroke="#666666" points="488.25,-68.75 311.75,-68.75 311.75,-50.25 488.25,-50.25 488.25,-68.75"/>
<text text-anchor="middle" x="400" y="-55.25" font-family="Helvetica,sans-Serif" font-size="10.00">WavelengthLeaver::CloseWavelength</text>
</a>
</g>
</g>
<!-- Node1&#45;&gt;Node2 -->
<g id="edge1_Node000001_Node000002" class="edge">
<title>Node1&#45;&gt;Node2</title>
<g id="a_edge1_Node000001_Node000002"><a xlink:title=" ">
<path fill="none" stroke="#63b8ff" d="M512.52,-47.02C504.43,-47.93 496.22,-48.85 488.11,-49.75"/>
<polygon fill="#63b8ff" stroke="#63b8ff" points="512.8,-50.51 522.35,-45.92 512.02,-43.56 512.8,-50.51"/>
</a>
</g>
</g>
<!-- Node6 -->
<g id="Node000006" class="node">
<title>Node6</title>
<g id="a_Node000006"><a xlink:href="classSessionCoordinator.html#a0a388bb572398d11b8959eac0a8e612f" target="_top" xlink:title="Connects signals between the various Wavelength components. Called during Initialize().">
<polygon fill="white" stroke="#666666" points="450.75,-31 349.25,-31 349.25,-2 450.75,-2 450.75,-31"/>
<text text-anchor="start" x="357.25" y="-17.5" font-family="Helvetica,sans-Serif" font-size="10.00">SessionCoordinator</text>
<text text-anchor="middle" x="400" y="-7" font-family="Helvetica,sans-Serif" font-size="10.00">::ConnectSignals</text>
</a>
</g>
</g>
<!-- Node1&#45;&gt;Node6 -->
<g id="edge4_Node000001_Node000006" class="edge">
<title>Node1&#45;&gt;Node6</title>
<g id="a_edge4_Node000001_Node000006"><a xlink:title=" ">
<path fill="none" stroke="#63b8ff" d="M512.62,-28.42C491.59,-26.18 469.74,-23.84 451.01,-21.84"/>
<polygon fill="#63b8ff" stroke="#63b8ff" points="512.03,-31.88 522.34,-29.46 512.77,-24.92 512.03,-31.88"/>
</a>
</g>
</g>
<!-- Node3 -->
<g id="Node000003" class="node">
<title>Node3</title>
<g id="a_Node000003"><a xlink:href="classSessionCoordinator.html#a0dd567ac5a1ab2f57e17698c1dc93a1b" target="_top" xlink:title="Closes a specific wavelength (only if the current user is the host). Unregisters the wavelength local...">
<polygon fill="white" stroke="#666666" points="275.75,-76 174.25,-76 174.25,-47 275.75,-47 275.75,-76"/>
<text text-anchor="start" x="182.25" y="-62.5" font-family="Helvetica,sans-Serif" font-size="10.00">SessionCoordinator</text>
<text text-anchor="middle" x="225" y="-52" font-family="Helvetica,sans-Serif" font-size="10.00">::CloseWavelength</text>
</a>
</g>
</g>
<!-- Node2&#45;&gt;Node3 -->
<g id="edge2_Node000002_Node000003" class="edge">
<title>Node2&#45;&gt;Node3</title>
<g id="a_edge2_Node000002_Node000003"><a xlink:title=" ">
<path fill="none" stroke="#63b8ff" d="M300.05,-60.64C291.72,-60.74 283.54,-60.83 275.84,-60.92"/>
<polygon fill="#63b8ff" stroke="#63b8ff" points="300.01,-64.14 309.97,-60.53 299.93,-57.15 300.01,-64.14"/>
</a>
</g>
</g>
<!-- Node4 -->
<g id="Node000004" class="node">
<title>Node4</title>
<g id="a_Node000004"><a xlink:href="classChatView.html#a23a3ce66f4af487f1f0571e72aaca9aa" target="_top" xlink:title="Initiates the process of leaving or closing the current Wavelength. Updates the status indicator,...">
<polygon fill="#fff0f0" stroke="red" points="138.25,-70.75 0,-70.75 0,-52.25 138.25,-52.25 138.25,-70.75"/>
<text text-anchor="middle" x="69.12" y="-57.25" font-family="Helvetica,sans-Serif" font-size="10.00">ChatView::AbortWavelength</text>
</a>
</g>
</g>
<!-- Node3&#45;&gt;Node4 -->
<g id="edge3_Node000003_Node000004" class="edge">
<title>Node3&#45;&gt;Node4</title>
<g id="a_edge3_Node000003_Node000004"><a xlink:title=" ">
<path fill="none" stroke="#63b8ff" d="M162.65,-61.5C154.74,-61.5 146.59,-61.5 138.57,-61.5"/>
<polygon fill="#63b8ff" stroke="#63b8ff" points="162.53,-65 172.53,-61.5 162.53,-58 162.53,-65"/>
</a>
</g>
</g>
<!-- Node7 -->
<g id="Node000007" class="node">
<title>Node7</title>
<g id="a_Node000007"><a xlink:href="classSessionCoordinator.html#a34a0ef1f02508f6cfd0b8d60164be83a" target="_top" xlink:title="Initializes the coordinator and its underlying components. Connects signals between various Wavelengt...">
<polygon fill="white" stroke="#666666" points="275.75,-29 174.25,-29 174.25,0 275.75,0 275.75,-29"/>
<text text-anchor="start" x="182.25" y="-15.5" font-family="Helvetica,sans-Serif" font-size="10.00">SessionCoordinator</text>
<text text-anchor="middle" x="225" y="-5" font-family="Helvetica,sans-Serif" font-size="10.00">::Initialize</text>
</a>
</g>
</g>
<!-- Node6&#45;&gt;Node7 -->
<g id="edge5_Node000006_Node000007" class="edge">
<title>Node6&#45;&gt;Node7</title>
<g id="a_edge5_Node000006_Node000007"><a xlink:title=" ">
<path fill="none" stroke="#63b8ff" d="M337.7,-15.79C317.56,-15.56 295.44,-15.3 276.23,-15.08"/>
<polygon fill="#63b8ff" stroke="#63b8ff" points="337.41,-19.29 347.45,-15.9 337.49,-12.29 337.41,-19.29"/>
</a>
</g>
</g>
</g>
</svg>
