<?xml version="1.0" encoding="UTF-8" standalone="no"?>
<!DOCTYPE svg PUBLIC "-//W3C//DTD SVG 1.1//EN"
 "http://www.w3.org/Graphics/SVG/1.1/DTD/svg11.dtd">
<!-- Generated by graphviz version 12.2.1 (0)
 -->
<!-- Title: BlobRenderer::DrawGlowEffect Pages: 1 -->
<svg width="502pt" height="27pt"
 viewBox="0.00 0.00 501.50 26.50" xmlns="http://www.w3.org/2000/svg" xmlns:xlink="http://www.w3.org/1999/xlink">
<g id="graph0" class="graph" transform="scale(1 1) rotate(0) translate(4 22.5)">
<title>BlobRenderer::DrawGlowEffect</title>
<!-- Node1 -->
<g id="Node000001" class="node">
<title>Node1</title>
<g id="a_Node000001"><a xlink:title="Draws the glow effect around the blob path. Uses internal caching (glow_buffer_) to optimize renderin...">
<polygon fill="#999999" stroke="#666666" points="493.5,-18.5 341.75,-18.5 341.75,0 493.5,0 493.5,-18.5"/>
<text text-anchor="middle" x="417.62" y="-5" font-family="Helvetica,sans-Serif" font-size="10.00">BlobRenderer::DrawGlowEffect</text>
</a>
</g>
</g>
<!-- Node2 -->
<g id="Node000002" class="node">
<title>Node2</title>
<g id="a_Node000002"><a xlink:href="classBlobRenderer.html#ac41f68d45bee143775f351676f901986" target="_top" xlink:title="Renders the blob shape itself (filling, border, glow).">
<polygon fill="white" stroke="#666666" points="305.75,-18.5 175,-18.5 175,0 305.75,0 305.75,-18.5"/>
<text text-anchor="middle" x="240.38" y="-5" font-family="Helvetica,sans-Serif" font-size="10.00">BlobRenderer::RenderBlob</text>
</a>
</g>
</g>
<!-- Node1&#45;&gt;Node2 -->
<g id="edge1_Node000001_Node000002" class="edge">
<title>Node1&#45;&gt;Node2</title>
<g id="a_edge1_Node000001_Node000002"><a xlink:title=" ">
<path fill="none" stroke="#63b8ff" d="M329.99,-9.25C321.98,-9.25 313.95,-9.25 306.18,-9.25"/>
<polygon fill="#63b8ff" stroke="#63b8ff" points="329.77,-12.75 339.77,-9.25 329.77,-5.75 329.77,-12.75"/>
</a>
</g>
</g>
<!-- Node3 -->
<g id="Node000003" class="node">
<title>Node3</title>
<g id="a_Node000003"><a xlink:href="classBlobRenderer.html#aae648021f032b685785a809f615ec0be" target="_top" xlink:title="Renders the entire scene, including a background, blob, and potentially HUD. Orchestrates the drawing...">
<polygon fill="white" stroke="#666666" points="139,-18.5 0,-18.5 0,0 139,0 139,-18.5"/>
<text text-anchor="middle" x="69.5" y="-5" font-family="Helvetica,sans-Serif" font-size="10.00">BlobRenderer::RenderScene</text>
</a>
</g>
</g>
<!-- Node2&#45;&gt;Node3 -->
<g id="edge2_Node000002_Node000003" class="edge">
<title>Node2&#45;&gt;Node3</title>
<g id="a_edge2_Node000002_Node000003"><a xlink:title=" ">
<path fill="none" stroke="#63b8ff" d="M163.08,-9.25C155.17,-9.25 147.16,-9.25 139.34,-9.25"/>
<polygon fill="#63b8ff" stroke="#63b8ff" points="163.05,-12.75 173.05,-9.25 163.05,-5.75 163.05,-12.75"/>
</a>
</g>
</g>
</g>
</svg>
