<?xml version="1.0" encoding="UTF-8" standalone="no"?>
<!DOCTYPE svg PUBLIC "-//W3C//DTD SVG 1.1//EN"
 "http://www.w3.org/Graphics/SVG/1.1/DTD/svg11.dtd">
<!-- Generated by graphviz version 12.2.1 (0)
 -->
<!-- Title: SessionCoordinator::onWavelengthClosed Pages: 1 -->
<!--zoomable 131 -->

<svg id="main" version="1.1" xmlns="http://www.w3.org/2000/svg" xmlns:xlink="http://www.w3.org/1999/xlink" xml:space="preserve" onload="init(evt)">

<style type="text/css"><![CDATA[
.node, .edge {opacity: 0.7;}
.node.selected, .edge.selected {opacity: 1;}
.edge:hover path { stroke: red; }
.edge:hover polygon { stroke: red; fill: red; }
]]></style>

<defs>
  <circle id="rim" cx="0" cy="0" r="7"/>
  <circle id="rim2" cx="0" cy="0" r="3.5"/>
  <g id="zoomPlus">
    <use xlink:href="#rim" fill="#404040"><set attributeName="fill" to="#808080" begin="zoomplus.mouseover" end="zoomplus.mouseout"/></use>
    <path d="M-4,0h8M0,-4v8" fill="none" stroke="white" stroke-width="1.5" pointer-events="none"/>
  </g>
  <g id="zoomMin">
    <use xlink:href="#rim" fill="#404040"><set attributeName="fill" to="#808080" begin="zoomminus.mouseover" end="zoomminus.mouseout"/></use>
    <path d="M-4,0h8" fill="none" stroke="white" stroke-width="1.5" pointer-events="none"/>
  </g>
  <g id="arrowUp" transform="translate(30 24)">
    <use xlink:href="#rim"/>
    <path pointer-events="none" fill="none" stroke="white" stroke-width="1.5" d="M0,-3.0v7 M-2.5,-0.5L0,-3.0L2.5,-0.5"/>
  </g>
  <g id="arrowRight" transform="rotate(90) translate(36 -43)">
    <use xlink:href="#rim"/>
    <path pointer-events="none" fill="none" stroke="white" stroke-width="1.5" d="M0,-3.0v7 M-2.5,-0.5L0,-3.0L2.5,-0.5"/>
  </g>
  <g id="arrowDown" transform="rotate(180) translate(-30 -48)">
    <use xlink:href="#rim"/>
    <path pointer-events="none" fill="none" stroke="white" stroke-width="1.5" d="M0,-3.0v7 M-2.5,-0.5L0,-3.0L2.5,-0.5"/>
  </g>
  <g id="arrowLeft" transform="rotate(270) translate(-36 17)">
    <use xlink:href="#rim"/>
    <path pointer-events="none" fill="none" stroke="white" stroke-width="1.5" d="M0,-3.0v7 M-2.5,-0.5L0,-3.0L2.5,-0.5"/>
  </g>
  <g id="resetDef">
    <use xlink:href="#rim2" fill="#404040"><set attributeName="fill" to="#808080" begin="reset.mouseover" end="reset.mouseout"/></use>
  </g>
</defs>
<script type="application/ecmascript">
var viewWidth = 592;
var viewHeight = 131;
var sectionId = 'dynsection-58';
</script>
<script type="application/ecmascript" xlink:href="svg.min.js"/>
<svg id="graph" class="graph">
<g id="viewport">
<title>SessionCoordinator::onWavelengthClosed</title>
<!-- Node1 -->
<g id="Node000001" class="node">
<title>Node1</title>
<g id="a_Node000001"><a xlink:title="Slot triggered when a wavelength is closed. Relays the signal and publishes the event via WavelengthE...">
<polygon fill="#999999" stroke="#666666" points="113.5,-76 0,-76 0,-47 113.5,-47 113.5,-76"/>
<text text-anchor="start" x="8" y="-62.5" font-family="Helvetica,sans-Serif" font-size="10.00">SessionCoordinator</text>
<text text-anchor="middle" x="56.75" y="-52" font-family="Helvetica,sans-Serif" font-size="10.00">::onWavelengthClosed</text>
</a>
</g>
</g>
<!-- Node2 -->
<g id="Node000002" class="node">
<title>Node2</title>
<g id="a_Node000002"><a xlink:href="classWavelengthEventBroker.html#ac5c82b2b8f57045b0700c350549a6b39" target="_top" xlink:title="Gets the singleton instance of the WavelengthEventBroker.">
<polygon fill="white" stroke="#666666" points="268.25,-123 149.5,-123 149.5,-94 268.25,-94 268.25,-123"/>
<text text-anchor="start" x="157.5" y="-109.5" font-family="Helvetica,sans-Serif" font-size="10.00">WavelengthEventBroker</text>
<text text-anchor="middle" x="208.88" y="-99" font-family="Helvetica,sans-Serif" font-size="10.00">::GetInstance</text>
</a>
</g>
</g>
<!-- Node1&#45;&gt;Node2 -->
<g id="edge1_Node000001_Node000002" class="edge">
<title>Node1&#45;&gt;Node2</title>
<g id="a_edge1_Node000001_Node000002"><a xlink:title=" ">
<path fill="none" stroke="#63b8ff" d="M105.25,-76.37C119.21,-80.74 134.66,-85.58 149.23,-90.14"/>
<polygon fill="#63b8ff" stroke="#63b8ff" points="148.13,-93.46 158.72,-93.11 150.23,-86.78 148.13,-93.46"/>
</a>
</g>
</g>
<!-- Node4 -->
<g id="Node000004" class="node">
<title>Node4</title>
<g id="a_Node000004"><a xlink:href="classWavelengthEventBroker.html#a16c13a8b8494fdc39af37f50115ac1f7" target="_top" xlink:title="Publishes a &quot;wavelength_closed&quot; event. Data: {&quot;frequency&quot;: QString}.">
<polygon fill="white" stroke="#666666" points="268.25,-76 149.5,-76 149.5,-47 268.25,-47 268.25,-76"/>
<text text-anchor="start" x="157.5" y="-62.5" font-family="Helvetica,sans-Serif" font-size="10.00">WavelengthEventBroker</text>
<text text-anchor="middle" x="208.88" y="-52" font-family="Helvetica,sans-Serif" font-size="10.00">::WavelengthClosed</text>
</a>
</g>
</g>
<!-- Node1&#45;&gt;Node4 -->
<g id="edge3_Node000001_Node000004" class="edge">
<title>Node1&#45;&gt;Node4</title>
<g id="a_edge3_Node000001_Node000004"><a xlink:title=" ">
<path fill="none" stroke="#63b8ff" d="M113.65,-61.5C121.53,-61.5 129.7,-61.5 137.8,-61.5"/>
<polygon fill="#63b8ff" stroke="#63b8ff" points="137.65,-65 147.65,-61.5 137.65,-58 137.65,-65"/>
</a>
</g>
</g>
<!-- Node7 -->
<g id="Node000007" class="node">
<title>Node7</title>
<g id="a_Node000007"><a xlink:href="classSessionCoordinator.html#aab01bf5b4cda8552cf7eb818e114e3e2" target="_top" xlink:title="Emitted when a wavelength is closed (by host or server). Relayed from multiple components.">
<polygon fill="white" stroke="#666666" points="259.62,-29 158.12,-29 158.12,0 259.62,0 259.62,-29"/>
<text text-anchor="start" x="166.12" y="-15.5" font-family="Helvetica,sans-Serif" font-size="10.00">SessionCoordinator</text>
<text text-anchor="middle" x="208.88" y="-5" font-family="Helvetica,sans-Serif" font-size="10.00">::wavelengthClosed</text>
</a>
</g>
</g>
<!-- Node1&#45;&gt;Node7 -->
<g id="edge6_Node000001_Node000007" class="edge">
<title>Node1&#45;&gt;Node7</title>
<g id="a_edge6_Node000001_Node000007"><a xlink:title=" ">
<path fill="none" stroke="#63b8ff" d="M105.25,-46.63C119.21,-42.26 134.66,-37.42 149.23,-32.86"/>
<polygon fill="#63b8ff" stroke="#63b8ff" points="150.23,-36.22 158.72,-29.89 148.13,-29.54 150.23,-36.22"/>
</a>
</g>
</g>
<!-- Node3 -->
<g id="Node000003" class="node">
<title>Node3</title>
<g id="a_Node000003"><a xlink:href="classWavelengthEventBroker.html#abf06dfa4e2d26e0d3acd5c028be9eb31" target="_top" xlink:title="Private constructor to enforce the singleton pattern.">
<polygon fill="white" stroke="#666666" points="429,-123 304.25,-123 304.25,-94 429,-94 429,-123"/>
<text text-anchor="start" x="312.25" y="-109.5" font-family="Helvetica,sans-Serif" font-size="10.00">WavelengthEventBroker</text>
<text text-anchor="middle" x="366.62" y="-99" font-family="Helvetica,sans-Serif" font-size="10.00">::WavelengthEventBroker</text>
</a>
</g>
</g>
<!-- Node2&#45;&gt;Node3 -->
<g id="edge2_Node000002_Node000003" class="edge">
<title>Node2&#45;&gt;Node3</title>
<g id="a_edge2_Node000002_Node000003"><a xlink:title=" ">
<path fill="none" stroke="#63b8ff" d="M268.31,-108.5C276.23,-108.5 284.44,-108.5 292.58,-108.5"/>
<polygon fill="#63b8ff" stroke="#63b8ff" points="292.48,-112 302.48,-108.5 292.48,-105 292.48,-112"/>
</a>
</g>
</g>
<!-- Node5 -->
<g id="Node000005" class="node">
<title>Node5</title>
<g id="a_Node000005"><a xlink:href="classWavelengthEventBroker.html#ac664ef807bf6e0f08cf8e6435e7dbbc5" target="_top" xlink:title="Publishes an event of a specific type with associated data. Emits the eventPublished signal,...">
<polygon fill="white" stroke="#666666" points="426,-76 307.25,-76 307.25,-47 426,-47 426,-76"/>
<text text-anchor="start" x="315.25" y="-62.5" font-family="Helvetica,sans-Serif" font-size="10.00">WavelengthEventBroker</text>
<text text-anchor="middle" x="366.62" y="-52" font-family="Helvetica,sans-Serif" font-size="10.00">::PublishEvent</text>
</a>
</g>
</g>
<!-- Node4&#45;&gt;Node5 -->
<g id="edge4_Node000004_Node000005" class="edge">
<title>Node4&#45;&gt;Node5</title>
<g id="a_edge4_Node000004_Node000005"><a xlink:title=" ">
<path fill="none" stroke="#63b8ff" d="M268.31,-61.5C277.17,-61.5 286.39,-61.5 295.47,-61.5"/>
<polygon fill="#63b8ff" stroke="#63b8ff" points="295.35,-65 305.35,-61.5 295.35,-58 295.35,-65"/>
</a>
</g>
</g>
<!-- Node6 -->
<g id="Node000006" class="node">
<title>Node6</title>
<g id="a_Node000006"><a xlink:href="classWavelengthEventBroker.html#ae8c0f4012e86117405db97a0d461ad94" target="_top" xlink:title="Signal emitted whenever any event is published via PublishEvent(). Subscribed components connect to t...">
<polygon fill="white" stroke="#666666" points="583.75,-76 465,-76 465,-47 583.75,-47 583.75,-76"/>
<text text-anchor="start" x="473" y="-62.5" font-family="Helvetica,sans-Serif" font-size="10.00">WavelengthEventBroker</text>
<text text-anchor="middle" x="524.38" y="-52" font-family="Helvetica,sans-Serif" font-size="10.00">::eventPublished</text>
</a>
</g>
</g>
<!-- Node5&#45;&gt;Node6 -->
<g id="edge5_Node000005_Node000006" class="edge">
<title>Node5&#45;&gt;Node6</title>
<g id="a_edge5_Node000005_Node000006"><a xlink:title=" ">
<path fill="none" stroke="#63b8ff" d="M426.06,-61.5C434.92,-61.5 444.14,-61.5 453.22,-61.5"/>
<polygon fill="#63b8ff" stroke="#63b8ff" points="453.1,-65 463.1,-61.5 453.1,-58 453.1,-65"/>
</a>
</g>
</g>
</g>
</svg>

<g id="navigator" transform="translate(0 0)" fill="#404254">
  <rect fill="#f2f5e9" fill-opacity="0.5" stroke="#606060" stroke-width=".5" x="0" y="0" width="60" height="60"/>
  <use id="zoomplus" xlink:href="#zoomPlus" x="17" y="9" onmousedown="handleZoom(evt,'in')"/>
  <use id="zoomminus" xlink:href="#zoomMin" x="42" y="9" onmousedown="handleZoom(evt,'out')"/>
  <use id="reset" xlink:href="#resetDef" x="30" y="36" onmousedown="handleReset()"/>
   <use id="arrowup" xlink:href="#arrowUp" x="0" y="0" onmousedown="handlePan(0,-1)"/>
  <use id="arrowright" xlink:href="#arrowRight" x="0" y="0" onmousedown="handlePan(1,0)"/>
  <use id="arrowdown" xlink:href="#arrowDown" x="0" y="0" onmousedown="handlePan(0,1)"/>
  <use id="arrowleft" xlink:href="#arrowLeft" x="0" y="0" onmousedown="handlePan(-1,0)"/>
</g>
<svg viewBox="0 0 15 15" width="100%" height="30px" preserveAspectRatio="xMaxYMin meet">
 <g id="arrow_out" transform="scale(0.3 0.3)">
  <a xlink:href="classSessionCoordinator_a7bfbd709b035beb0038e20f558480d03_cgraph_org.svg" target="_base">
   <rect id="button" ry="5" rx="5" y="6" x="6" height="38" width="38"
        fill="#f2f5e9" fill-opacity="0.5" stroke="#606060" stroke-width="1.0"/>
   <path id="arrow"
     d="M 11.500037,31.436501 C 11.940474,20.09759 22.043105,11.32322 32.158766,21.979434 L 37.068811,17.246167 C 37.068811,17.246167 37.088388,32 37.088388,32 L 22.160133,31.978069 C 22.160133,31.978069 26.997745,27.140456 26.997745,27.140456 C 18.528582,18.264221 13.291696,25.230495 11.500037,31.436501 z"
     style="fill:#404040;"/>
  </a>
 </g>
</svg>

<style type='text/css'>
<![CDATA[
[data-mouse-over-selected='false'] { opacity: 0.7; }
[data-mouse-over-selected='true']  { opacity: 1.0; }
]]>
</style>
<script type="application/ecmascript"><![CDATA[
document.addEventListener('DOMContentLoaded', (event) => {
  highlightEdges();
  highlightAdjacentNodes();
});
]]></script>
</svg>
