<?xml version="1.0" encoding="UTF-8" standalone="no"?>
<!DOCTYPE svg PUBLIC "-//W3C//DTD SVG 1.1//EN"
 "http://www.w3.org/Graphics/SVG/1.1/DTD/svg11.dtd">
<!-- Generated by graphviz version 12.2.1 (0)
 -->
<!-- Title: TranslationManager::Translate Pages: 1 -->
<!--zoomable 581 -->

<svg id="main" version="1.1" xmlns="http://www.w3.org/2000/svg" xmlns:xlink="http://www.w3.org/1999/xlink" xml:space="preserve" onload="init(evt)">

<style type="text/css"><![CDATA[
.node, .edge {opacity: 0.7;}
.node.selected, .edge.selected {opacity: 1;}
.edge:hover path { stroke: red; }
.edge:hover polygon { stroke: red; fill: red; }
]]></style>

<defs>
  <circle id="rim" cx="0" cy="0" r="7"/>
  <circle id="rim2" cx="0" cy="0" r="3.5"/>
  <g id="zoomPlus">
    <use xlink:href="#rim" fill="#404040"><set attributeName="fill" to="#808080" begin="zoomplus.mouseover" end="zoomplus.mouseout"/></use>
    <path d="M-4,0h8M0,-4v8" fill="none" stroke="white" stroke-width="1.5" pointer-events="none"/>
  </g>
  <g id="zoomMin">
    <use xlink:href="#rim" fill="#404040"><set attributeName="fill" to="#808080" begin="zoomminus.mouseover" end="zoomminus.mouseout"/></use>
    <path d="M-4,0h8" fill="none" stroke="white" stroke-width="1.5" pointer-events="none"/>
  </g>
  <g id="arrowUp" transform="translate(30 24)">
    <use xlink:href="#rim"/>
    <path pointer-events="none" fill="none" stroke="white" stroke-width="1.5" d="M0,-3.0v7 M-2.5,-0.5L0,-3.0L2.5,-0.5"/>
  </g>
  <g id="arrowRight" transform="rotate(90) translate(36 -43)">
    <use xlink:href="#rim"/>
    <path pointer-events="none" fill="none" stroke="white" stroke-width="1.5" d="M0,-3.0v7 M-2.5,-0.5L0,-3.0L2.5,-0.5"/>
  </g>
  <g id="arrowDown" transform="rotate(180) translate(-30 -48)">
    <use xlink:href="#rim"/>
    <path pointer-events="none" fill="none" stroke="white" stroke-width="1.5" d="M0,-3.0v7 M-2.5,-0.5L0,-3.0L2.5,-0.5"/>
  </g>
  <g id="arrowLeft" transform="rotate(270) translate(-36 17)">
    <use xlink:href="#rim"/>
    <path pointer-events="none" fill="none" stroke="white" stroke-width="1.5" d="M0,-3.0v7 M-2.5,-0.5L0,-3.0L2.5,-0.5"/>
  </g>
  <g id="resetDef">
    <use xlink:href="#rim2" fill="#404040"><set attributeName="fill" to="#808080" begin="reset.mouseover" end="reset.mouseout"/></use>
  </g>
</defs>
<script type="application/ecmascript">
var viewWidth = 677;
var viewHeight = 581;
var sectionId = 'dynsection-9';
</script>
<script type="application/ecmascript" xlink:href="svg.min.js"/>
<svg id="graph" class="graph">
<g id="viewport">
<title>TranslationManager::Translate</title>
<!-- Node1 -->
<g id="Node000001" class="node">
<title>Node1</title>
<g id="a_Node000001"><a xlink:title="Retrieves the translated string for the specified key.">
<polygon fill="#999999" stroke="#666666" points="668.5,-291 567.75,-291 567.75,-262 668.5,-262 668.5,-291"/>
<text text-anchor="start" x="575.75" y="-277.5" font-family="Helvetica,sans-Serif" font-size="10.00">TranslationManager</text>
<text text-anchor="middle" x="618.12" y="-267" font-family="Helvetica,sans-Serif" font-size="10.00">::Translate</text>
</a>
</g>
</g>
<!-- Node2 -->
<g id="Node000002" class="node">
<title>Node2</title>
<g id="a_Node000002"><a xlink:href="classAutoScalingAttachment.html#a1fefb825e29bd915fa4e157f53975651" target="_top" xlink:title="Constructs an AutoScalingAttachment widget. Sets up the layout, installs event filters,...">
<polygon fill="white" stroke="#666666" points="519.75,-573 395,-573 395,-544 519.75,-544 519.75,-573"/>
<text text-anchor="start" x="403" y="-559.5" font-family="Helvetica,sans-Serif" font-size="10.00">AutoScalingAttachment</text>
<text text-anchor="middle" x="457.38" y="-549" font-family="Helvetica,sans-Serif" font-size="10.00">::AutoScalingAttachment</text>
</a>
</g>
</g>
<!-- Node1&#45;&gt;Node2 -->
<g id="edge1_Node000001_Node000002" class="edge">
<title>Node1&#45;&gt;Node2</title>
<g id="a_edge1_Node000001_Node000002"><a xlink:title=" ">
<path fill="none" stroke="#63b8ff" d="M616.09,-302.63C612.61,-354.43 597.48,-470.72 531.75,-535.5 528.33,-538.87 524.42,-541.75 520.22,-544.21"/>
<polygon fill="#63b8ff" stroke="#63b8ff" points="619.58,-302.89 616.65,-292.71 612.59,-302.49 619.58,-302.89"/>
</a>
</g>
</g>
<!-- Node3 -->
<g id="Node000003" class="node">
<title>Node3</title>
<g id="a_Node000003"><a xlink:href="classCommunicationStream.html#a4fe34ce867f3ece68bda3e512c544e18" target="_top" xlink:title="Constructs a CommunicationStream widget. Initializes OpenGL format, timers for animation and glitches...">
<polygon fill="white" stroke="#666666" points="518.25,-526 396.5,-526 396.5,-497 518.25,-497 518.25,-526"/>
<text text-anchor="start" x="404.5" y="-512.5" font-family="Helvetica,sans-Serif" font-size="10.00">CommunicationStream</text>
<text text-anchor="middle" x="457.38" y="-502" font-family="Helvetica,sans-Serif" font-size="10.00">::CommunicationStream</text>
</a>
</g>
</g>
<!-- Node1&#45;&gt;Node3 -->
<g id="edge2_Node000001_Node000003" class="edge">
<title>Node1&#45;&gt;Node3</title>
<g id="a_edge2_Node000001_Node000003"><a xlink:title=" ">
<path fill="none" stroke="#63b8ff" d="M613.88,-302.5C606.96,-346.99 586.63,-437.8 531.75,-488.5 527.83,-492.12 523.34,-495.18 518.56,-497.75"/>
<polygon fill="#63b8ff" stroke="#63b8ff" points="617.33,-303.15 615.28,-292.75 610.4,-302.15 617.33,-303.15"/>
</a>
</g>
</g>
<!-- Node4 -->
<g id="Node000004" class="node">
<title>Node4</title>
<g id="a_Node000004"><a xlink:href="classFingerprintLayer.html#ac3c17d23030e0f5de68c4c4472692559" target="_top" xlink:title="Constructs a FingerprintLayer. Initializes the UI elements (title, fingerprint image label,...">
<polygon fill="white" stroke="#666666" points="526.5,-479 388.25,-479 388.25,-450 526.5,-450 526.5,-479"/>
<text text-anchor="start" x="396.25" y="-465.5" font-family="Helvetica,sans-Serif" font-size="10.00">FingerprintLayer::Fingerprint</text>
<text text-anchor="middle" x="457.38" y="-455" font-family="Helvetica,sans-Serif" font-size="10.00">Layer</text>
</a>
</g>
</g>
<!-- Node1&#45;&gt;Node4 -->
<g id="edge3_Node000001_Node000004" class="edge">
<title>Node1&#45;&gt;Node4</title>
<g id="a_edge3_Node000001_Node000004"><a xlink:title=" ">
<path fill="none" stroke="#63b8ff" d="M610.56,-302.35C600.03,-338.65 575.91,-404.42 531.75,-441.5 528.07,-444.59 523.97,-447.27 519.65,-449.58"/>
<polygon fill="#63b8ff" stroke="#63b8ff" points="613.94,-303.29 613.22,-292.72 607.19,-301.43 613.94,-303.29"/>
</a>
</g>
</g>
<!-- Node5 -->
<g id="Node000005" class="node">
<title>Node5</title>
<g id="a_Node000005"><a xlink:href="classMessageFormatter.html#af3a717bfa398187a653410d3febeb9cb" target="_top" xlink:title="Formats a message represented by a JSON object into an HTML string.">
<polygon fill="white" stroke="#666666" points="524.62,-432 390.12,-432 390.12,-403 524.62,-403 524.62,-432"/>
<text text-anchor="start" x="398.12" y="-418.5" font-family="Helvetica,sans-Serif" font-size="10.00">MessageFormatter::Format</text>
<text text-anchor="middle" x="457.38" y="-408" font-family="Helvetica,sans-Serif" font-size="10.00">Message</text>
</a>
</g>
</g>
<!-- Node1&#45;&gt;Node5 -->
<g id="edge4_Node000001_Node000005" class="edge">
<title>Node1&#45;&gt;Node5</title>
<g id="a_edge4_Node000001_Node000005"><a xlink:title=" ">
<path fill="none" stroke="#63b8ff" d="M605.32,-301.27C591.36,-328.03 565.65,-370.08 531.75,-394.5 527.42,-397.62 522.65,-400.33 517.68,-402.67"/>
<polygon fill="#63b8ff" stroke="#63b8ff" points="608.36,-303.03 609.74,-292.53 602.11,-299.88 608.36,-303.03"/>
</a>
</g>
</g>
<!-- Node15 -->
<g id="Node000015" class="node">
<title>Node15</title>
<g id="a_Node000015"><a xlink:href="classShortcutsSettingsWidget.html#abd6356975cd52a17fca64cd942f5b9a8" target="_top" xlink:title="Static utility function to get a user&#45;friendly description for a given shortcut action ID.">
<polygon fill="white" stroke="#666666" points="520.12,-385 394.62,-385 394.62,-356 520.12,-356 520.12,-385"/>
<text text-anchor="start" x="402.62" y="-371.5" font-family="Helvetica,sans-Serif" font-size="10.00">ShortcutsSettingsWidget</text>
<text text-anchor="middle" x="457.38" y="-361" font-family="Helvetica,sans-Serif" font-size="10.00">::GetActionDescription</text>
</a>
</g>
</g>
<!-- Node1&#45;&gt;Node15 -->
<g id="edge7_Node000001_Node000015" class="edge">
<title>Node1&#45;&gt;Node15</title>
<g id="a_edge7_Node000001_Node000015"><a xlink:title=" ">
<path fill="none" stroke="#63b8ff" d="M595.2,-298.9C578.93,-314.42 555.54,-334.54 531.75,-347.5 526.24,-350.5 520.28,-353.18 514.22,-355.54"/>
<polygon fill="#63b8ff" stroke="#63b8ff" points="597.22,-301.82 601.94,-292.33 592.34,-296.81 597.22,-301.82"/>
</a>
</g>
</g>
<!-- Node18 -->
<g id="Node000018" class="node">
<title>Node18</title>
<g id="a_Node000018"><a xlink:href="classMessageService.html#a4396f2ede94cf2d9a36cf51407db7e14" target="_top" xlink:title="Slot connected to the sendJsonViaSocket signal. Performs the actual sending of a JSON message....">
<polygon fill="white" stroke="#666666" points="531.75,-338 383,-338 383,-309 531.75,-309 531.75,-338"/>
<text text-anchor="start" x="391" y="-324.5" font-family="Helvetica,sans-Serif" font-size="10.00">MessageService::HandleSend</text>
<text text-anchor="middle" x="457.38" y="-314" font-family="Helvetica,sans-Serif" font-size="10.00">JsonViaSocket</text>
</a>
</g>
</g>
<!-- Node1&#45;&gt;Node18 -->
<g id="edge10_Node000001_Node000018" class="edge">
<title>Node1&#45;&gt;Node18</title>
<g id="a_edge10_Node000001_Node000018"><a xlink:title=" ">
<path fill="none" stroke="#63b8ff" d="M556.61,-294.42C540.83,-299.09 524,-304.07 508.81,-308.57"/>
<polygon fill="#63b8ff" stroke="#63b8ff" points="557.28,-297.87 565.88,-291.67 555.3,-291.15 557.28,-297.87"/>
</a>
</g>
</g>
<!-- Node20 -->
<g id="Node000020" class="node">
<title>Node20</title>
<g id="a_Node000020"><a xlink:href="classHandprintLayer.html#a8ad520d9a942969b2095fdad95a0c989" target="_top" xlink:title="Constructs a HandprintLayer. Initializes the UI elements (title, handprint image label,...">
<polygon fill="white" stroke="#666666" points="522,-291 392.75,-291 392.75,-262 522,-262 522,-291"/>
<text text-anchor="start" x="400.75" y="-277.5" font-family="Helvetica,sans-Serif" font-size="10.00">HandprintLayer::Handprint</text>
<text text-anchor="middle" x="457.38" y="-267" font-family="Helvetica,sans-Serif" font-size="10.00">Layer</text>
</a>
</g>
</g>
<!-- Node1&#45;&gt;Node20 -->
<g id="edge12_Node000001_Node000020" class="edge">
<title>Node1&#45;&gt;Node20</title>
<g id="a_edge12_Node000001_Node000020"><a xlink:title=" ">
<path fill="none" stroke="#63b8ff" d="M556.03,-276.5C544.98,-276.5 533.42,-276.5 522.29,-276.5"/>
<polygon fill="#63b8ff" stroke="#63b8ff" points="555.82,-280 565.82,-276.5 555.82,-273 555.82,-280"/>
</a>
</g>
</g>
<!-- Node21 -->
<g id="Node000021" class="node">
<title>Node21</title>
<g id="a_Node000021"><a xlink:href="classNavbar.html#a04ffab38c9324469760999c0e5822992" target="_top" xlink:title="Constructs the Navbar. Initializes the toolbar&#39;s appearance and behavior (non&#45;movable,...">
<polygon fill="white" stroke="#666666" points="499.88,-243.75 414.88,-243.75 414.88,-225.25 499.88,-225.25 499.88,-243.75"/>
<text text-anchor="middle" x="457.38" y="-230.25" font-family="Helvetica,sans-Serif" font-size="10.00">Navbar::Navbar</text>
</a>
</g>
</g>
<!-- Node1&#45;&gt;Node21 -->
<g id="edge13_Node000001_Node000021" class="edge">
<title>Node1&#45;&gt;Node21</title>
<g id="a_edge13_Node000001_Node000021"><a xlink:title=" ">
<path fill="none" stroke="#63b8ff" d="M556.62,-260.12C548.27,-257.88 539.8,-255.63 531.75,-253.5 520.17,-250.44 507.55,-247.16 496.1,-244.19"/>
<polygon fill="#63b8ff" stroke="#63b8ff" points="555.46,-263.43 566.03,-262.65 557.28,-256.67 555.46,-263.43"/>
</a>
</g>
</g>
<!-- Node22 -->
<g id="Node000022" class="node">
<title>Node22</title>
<g id="a_Node000022"><a xlink:href="classRetinaScanLayer.html#a967482762796522d275e6ed7f40d1c7f" target="_top" xlink:title="Constructs a RetinaScanLayer. Initializes the UI elements (title, eye image container,...">
<polygon fill="white" stroke="#666666" points="530.25,-207 384.5,-207 384.5,-178 530.25,-178 530.25,-207"/>
<text text-anchor="start" x="392.5" y="-193.5" font-family="Helvetica,sans-Serif" font-size="10.00">RetinaScanLayer::RetinaScan</text>
<text text-anchor="middle" x="457.38" y="-183" font-family="Helvetica,sans-Serif" font-size="10.00">Layer</text>
</a>
</g>
</g>
<!-- Node1&#45;&gt;Node22 -->
<g id="edge14_Node000001_Node000022" class="edge">
<title>Node1&#45;&gt;Node22</title>
<g id="a_edge14_Node000001_Node000022"><a xlink:title=" ">
<path fill="none" stroke="#63b8ff" d="M590.58,-254.74C574.35,-242.25 552.74,-227.01 531.75,-216.5 525.04,-213.14 517.75,-210.1 510.46,-207.4"/>
<polygon fill="#63b8ff" stroke="#63b8ff" points="588.25,-257.37 598.28,-260.79 592.57,-251.86 588.25,-257.37"/>
</a>
</g>
</g>
<!-- Node23 -->
<g id="Node000023" class="node">
<title>Node23</title>
<g id="a_Node000023"><a xlink:href="classMessageService.html#aff7ad6c0302f5f9b4864074eb6675931" target="_top" xlink:title="Initiates the process of sending a file to the currently active frequency. Reads the file,...">
<polygon fill="white" stroke="#666666" points="524.25,-159.75 390.5,-159.75 390.5,-141.25 524.25,-141.25 524.25,-159.75"/>
<text text-anchor="middle" x="457.38" y="-146.25" font-family="Helvetica,sans-Serif" font-size="10.00">MessageService::SendFile</text>
</a>
</g>
</g>
<!-- Node1&#45;&gt;Node23 -->
<g id="edge15_Node000001_Node000023" class="edge">
<title>Node1&#45;&gt;Node23</title>
<g id="a_edge15_Node000001_Node000023"><a xlink:title=" ">
<path fill="none" stroke="#63b8ff" d="M603.84,-251.83C589.34,-227.27 563.85,-190.32 531.75,-169.5 525.9,-165.71 519.33,-162.67 512.58,-160.24"/>
<polygon fill="#63b8ff" stroke="#63b8ff" points="600.62,-253.25 608.62,-260.2 606.7,-249.78 600.62,-253.25"/>
</a>
</g>
</g>
<!-- Node29 -->
<g id="Node000029" class="node">
<title>Node29</title>
<g id="a_Node000029"><a xlink:href="classMessageService.html#ab976b50ce98805f188d946de438ee976" target="_top" xlink:title="Sends a pre&#45;formatted JSON message (typically containing file data) to the server....">
<polygon fill="white" stroke="#666666" points="524.25,-123 390.5,-123 390.5,-94 524.25,-94 524.25,-123"/>
<text text-anchor="start" x="398.5" y="-109.5" font-family="Helvetica,sans-Serif" font-size="10.00">MessageService::SendFile</text>
<text text-anchor="middle" x="457.38" y="-99" font-family="Helvetica,sans-Serif" font-size="10.00">ToServer</text>
</a>
</g>
</g>
<!-- Node1&#45;&gt;Node29 -->
<g id="edge20_Node000001_Node000029" class="edge">
<title>Node1&#45;&gt;Node29</title>
<g id="a_edge20_Node000001_Node000029"><a xlink:title=" ">
<path fill="none" stroke="#63b8ff" d="M608.53,-251.2C596.37,-219.08 571.13,-164.08 531.75,-132.5 527.36,-128.98 522.43,-125.97 517.27,-123.39"/>
<polygon fill="#63b8ff" stroke="#63b8ff" points="605.2,-252.28 611.91,-260.48 611.78,-249.89 605.2,-252.28"/>
</a>
</g>
</g>
<!-- Node30 -->
<g id="Node000030" class="node">
<title>Node30</title>
<g id="a_Node000030"><a xlink:href="classNetworkSettingsWidget.html#a3961ca9db7ae5a6ef6c10072f47f5c1b" target="_top" xlink:title="Creates and arranges all the UI elements (labels, inputs, layouts) for the widget.">
<polygon fill="white" stroke="#666666" points="517.12,-76 397.62,-76 397.62,-47 517.12,-47 517.12,-76"/>
<text text-anchor="start" x="405.62" y="-62.5" font-family="Helvetica,sans-Serif" font-size="10.00">NetworkSettingsWidget</text>
<text text-anchor="middle" x="457.38" y="-52" font-family="Helvetica,sans-Serif" font-size="10.00">::SetupUi</text>
</a>
</g>
</g>
<!-- Node1&#45;&gt;Node30 -->
<g id="edge21_Node000001_Node000030" class="edge">
<title>Node1&#45;&gt;Node30</title>
<g id="a_edge21_Node000001_Node000030"><a xlink:title=" ">
<path fill="none" stroke="#63b8ff" d="M612.5,-250.53C603.87,-209.65 581.5,-130.32 531.75,-85.5 527.47,-81.64 522.55,-78.4 517.34,-75.68"/>
<polygon fill="#63b8ff" stroke="#63b8ff" points="609.04,-251.06 614.41,-260.19 615.9,-249.7 609.04,-251.06"/>
</a>
</g>
</g>
<!-- Node32 -->
<g id="Node000032" class="node">
<title>Node32</title>
<g id="a_Node000032"><a xlink:href="classTypingTestLayer.html#a0e7b55d536094d7b8eb20c03d8662a85" target="_top" xlink:title="Constructs a TypingTestLayer. Initializes the UI elements (title, instructions, text display panel,...">
<polygon fill="white" stroke="#666666" points="527.25,-29 387.5,-29 387.5,0 527.25,0 527.25,-29"/>
<text text-anchor="start" x="395.5" y="-15.5" font-family="Helvetica,sans-Serif" font-size="10.00">TypingTestLayer::TypingTest</text>
<text text-anchor="middle" x="457.38" y="-5" font-family="Helvetica,sans-Serif" font-size="10.00">Layer</text>
</a>
</g>
</g>
<!-- Node1&#45;&gt;Node32 -->
<g id="edge23_Node000001_Node000032" class="edge">
<title>Node1&#45;&gt;Node32</title>
<g id="a_edge23_Node000001_Node000032"><a xlink:title=" ">
<path fill="none" stroke="#63b8ff" d="M615.1,-250.18C609.95,-201.54 592.12,-97.19 531.75,-38.5 528.1,-34.95 523.91,-31.93 519.44,-29.35"/>
<polygon fill="#63b8ff" stroke="#63b8ff" points="611.61,-250.42 616.03,-260.04 618.58,-249.76 611.61,-250.42"/>
</a>
</g>
</g>
<!-- Node6 -->
<g id="Node000006" class="node">
<title>Node6</title>
<g id="a_Node000006"><a xlink:href="classMessageProcessor.html#a2a7686af1fb4bdbfb0ac9af65bcb85ac" target="_top" xlink:title="Processes messages of type &quot;message&quot; or &quot;send_message&quot;. Checks for duplicates, handles attachments (s...">
<polygon fill="white" stroke="#666666" points="333.5,-432 191.5,-432 191.5,-403 333.5,-403 333.5,-432"/>
<text text-anchor="start" x="199.5" y="-418.5" font-family="Helvetica,sans-Serif" font-size="10.00">MessageProcessor::Process</text>
<text text-anchor="middle" x="262.5" y="-408" font-family="Helvetica,sans-Serif" font-size="10.00">MessageContent</text>
</a>
</g>
</g>
<!-- Node5&#45;&gt;Node6 -->
<g id="edge5_Node000005_Node000006" class="edge">
<title>Node5&#45;&gt;Node6</title>
<g id="a_edge5_Node000005_Node000006"><a xlink:title=" ">
<path fill="none" stroke="#63b8ff" d="M378.55,-417.5C363.74,-417.5 348.32,-417.5 333.76,-417.5"/>
<polygon fill="#63b8ff" stroke="#63b8ff" points="378.21,-421 388.21,-417.5 378.21,-414 378.21,-421"/>
</a>
</g>
</g>
<!-- Node7 -->
<g id="Node000007" class="node">
<title>Node7</title>
<g id="a_Node000007"><a xlink:href="classMessageProcessor.html#abdfefd4e6d33731ee50463441ea1a368" target="_top" xlink:title="Processes an incoming text message (JSON) received from the WebSocket. Parses the JSON,...">
<polygon fill="#fff0f0" stroke="red" points="142,-432 0,-432 0,-403 142,-403 142,-432"/>
<text text-anchor="start" x="8" y="-418.5" font-family="Helvetica,sans-Serif" font-size="10.00">MessageProcessor::Process</text>
<text text-anchor="middle" x="71" y="-408" font-family="Helvetica,sans-Serif" font-size="10.00">IncomingMessage</text>
</a>
</g>
</g>
<!-- Node6&#45;&gt;Node7 -->
<g id="edge6_Node000006_Node000007" class="edge">
<title>Node6&#45;&gt;Node7</title>
<g id="a_edge6_Node000006_Node000007"><a xlink:title=" ">
<path fill="none" stroke="#63b8ff" d="M179.89,-417.5C167.44,-417.5 154.68,-417.5 142.5,-417.5"/>
<polygon fill="#63b8ff" stroke="#63b8ff" points="179.69,-421 189.69,-417.5 179.69,-414 179.69,-421"/>
</a>
</g>
</g>
<!-- Node16 -->
<g id="Node000016" class="node">
<title>Node16</title>
<g id="a_Node000016"><a xlink:href="classShortcutsSettingsWidget.html#a03e62190f2d0499e7f5d0ab6c1d79c16" target="_top" xlink:title="Creates and arranges all the UI elements (labels, input fields, layouts, button) for the widget....">
<polygon fill="white" stroke="#666666" points="325.25,-385 199.75,-385 199.75,-356 325.25,-356 325.25,-385"/>
<text text-anchor="start" x="207.75" y="-371.5" font-family="Helvetica,sans-Serif" font-size="10.00">ShortcutsSettingsWidget</text>
<text text-anchor="middle" x="262.5" y="-361" font-family="Helvetica,sans-Serif" font-size="10.00">::SetupUi</text>
</a>
</g>
</g>
<!-- Node15&#45;&gt;Node16 -->
<g id="edge8_Node000015_Node000016" class="edge">
<title>Node15&#45;&gt;Node16</title>
<g id="a_edge8_Node000015_Node000016"><a xlink:title=" ">
<path fill="none" stroke="#63b8ff" d="M382.98,-370.5C364.02,-370.5 343.79,-370.5 325.47,-370.5"/>
<polygon fill="#63b8ff" stroke="#63b8ff" points="382.77,-374 392.77,-370.5 382.77,-367 382.77,-374"/>
</a>
</g>
</g>
<!-- Node17 -->
<g id="Node000017" class="node">
<title>Node17</title>
<g id="a_Node000017"><a xlink:href="classShortcutsSettingsWidget.html#a8efdd7e928247903bf7212cd6e05ca21" target="_top" xlink:title="Constructs the ShortcutsSettingsWidget. Initializes the UI, loads current shortcut settings from Wave...">
<polygon fill="white" stroke="#666666" points="136.75,-385 5.25,-385 5.25,-356 136.75,-356 136.75,-385"/>
<text text-anchor="start" x="13.25" y="-371.5" font-family="Helvetica,sans-Serif" font-size="10.00">ShortcutsSettingsWidget</text>
<text text-anchor="middle" x="71" y="-361" font-family="Helvetica,sans-Serif" font-size="10.00">::ShortcutsSettingsWidget</text>
</a>
</g>
</g>
<!-- Node16&#45;&gt;Node17 -->
<g id="edge9_Node000016_Node000017" class="edge">
<title>Node16&#45;&gt;Node17</title>
<g id="a_edge9_Node000016_Node000017"><a xlink:title=" ">
<path fill="none" stroke="#63b8ff" d="M188.01,-370.5C171.23,-370.5 153.52,-370.5 137.12,-370.5"/>
<polygon fill="#63b8ff" stroke="#63b8ff" points="187.94,-374 197.94,-370.5 187.94,-367 187.94,-374"/>
</a>
</g>
</g>
<!-- Node19 -->
<g id="Node000019" class="node">
<title>Node19</title>
<g id="a_Node000019"><a xlink:href="classMessageService.html#ad74bc604024156fff3b840942187037e" target="_top" xlink:title="Private constructor to enforce the singleton pattern. Connects the internal sendJsonViaSocket signal ...">
<polygon fill="white" stroke="#666666" points="347,-332.75 178,-332.75 178,-314.25 347,-314.25 347,-332.75"/>
<text text-anchor="middle" x="262.5" y="-319.25" font-family="Helvetica,sans-Serif" font-size="10.00">MessageService::MessageService</text>
</a>
</g>
</g>
<!-- Node18&#45;&gt;Node19 -->
<g id="edge11_Node000018_Node000019" class="edge">
<title>Node18&#45;&gt;Node19</title>
<g id="a_edge11_Node000018_Node000019"><a xlink:title=" ">
<path fill="none" stroke="#63b8ff" d="M371.37,-323.5C363.34,-323.5 355.21,-323.5 347.19,-323.5"/>
<polygon fill="#63b8ff" stroke="#63b8ff" points="371.12,-327 381.12,-323.5 371.12,-320 371.12,-327"/>
</a>
</g>
</g>
<!-- Node24 -->
<g id="Node000024" class="node">
<title>Node24</title>
<g id="a_Node000024"><a xlink:href="classChatView.html#a4b181808cf22581bd24eb4bab9e07e43" target="_top" xlink:title="Opens a file dialog to allow the user to select a file for sending. If a file is selected,...">
<polygon fill="white" stroke="#666666" points="316.62,-180.75 208.38,-180.75 208.38,-162.25 316.62,-162.25 316.62,-180.75"/>
<text text-anchor="middle" x="262.5" y="-167.25" font-family="Helvetica,sans-Serif" font-size="10.00">ChatView::AttachFile</text>
</a>
</g>
</g>
<!-- Node23&#45;&gt;Node24 -->
<g id="edge16_Node000023_Node000024" class="edge">
<title>Node23&#45;&gt;Node24</title>
<g id="a_edge16_Node000023_Node000024"><a xlink:title=" ">
<path fill="none" stroke="#63b8ff" d="M378.9,-158.94C358.16,-161.19 336.2,-163.58 317.07,-165.67"/>
<polygon fill="#63b8ff" stroke="#63b8ff" points="379.2,-162.42 388.76,-157.86 378.44,-155.46 379.2,-162.42"/>
</a>
</g>
</g>
<!-- Node28 -->
<g id="Node000028" class="node">
<title>Node28</title>
<g id="a_Node000028"><a xlink:href="classSessionCoordinator.html#a8c66229e945eb35fa8791ea88d37cdaa" target="_top" xlink:title="Sends a file to the currently active wavelength. Delegates the call to WavelengthMessageService.">
<polygon fill="white" stroke="#666666" points="313.25,-144 211.75,-144 211.75,-115 313.25,-115 313.25,-144"/>
<text text-anchor="start" x="219.75" y="-130.5" font-family="Helvetica,sans-Serif" font-size="10.00">SessionCoordinator</text>
<text text-anchor="middle" x="262.5" y="-120" font-family="Helvetica,sans-Serif" font-size="10.00">::SendFile</text>
</a>
</g>
</g>
<!-- Node23&#45;&gt;Node28 -->
<g id="edge19_Node000023_Node000028" class="edge">
<title>Node23&#45;&gt;Node28</title>
<g id="a_edge19_Node000023_Node000028"><a xlink:title=" ">
<path fill="none" stroke="#63b8ff" d="M378.92,-142.07C356.94,-139.67 333.59,-137.13 313.68,-134.96"/>
<polygon fill="#63b8ff" stroke="#63b8ff" points="378.44,-145.54 388.76,-143.14 379.2,-138.58 378.44,-145.54"/>
</a>
</g>
</g>
<!-- Node25 -->
<g id="Node000025" class="node">
<title>Node25</title>
<g id="a_Node000025"><a xlink:href="classChatView.html#ad2db6f12afdba4b49ec7775b2d560ad3" target="_top" xlink:title="Constructs a WavelengthChatView. Initializes the UI elements (labels, message area,...">
<polygon fill="white" stroke="#666666" points="124.38,-201.75 17.62,-201.75 17.62,-183.25 124.38,-183.25 124.38,-201.75"/>
<text text-anchor="middle" x="71" y="-188.25" font-family="Helvetica,sans-Serif" font-size="10.00">ChatView::ChatView</text>
</a>
</g>
</g>
<!-- Node24&#45;&gt;Node25 -->
<g id="edge17_Node000024_Node000025" class="edge">
<title>Node24&#45;&gt;Node25</title>
<g id="a_edge17_Node000024_Node000025"><a xlink:title=" ">
<path fill="none" stroke="#63b8ff" d="M196.69,-178.68C173.23,-181.28 147.05,-184.18 124.76,-186.65"/>
<polygon fill="#63b8ff" stroke="#63b8ff" points="196.9,-182.18 206.45,-177.6 196.13,-175.22 196.9,-182.18"/>
</a>
</g>
</g>
<!-- Node26 -->
<g id="Node000026" class="node">
<title>Node26</title>
<g id="a_Node000026"><a xlink:href="classShortcutManager.html#a4d014d550ca996c51abb06649f71a3fa" target="_top" xlink:title="Registers shortcuts specific to the WavelengthChatView.">
<polygon fill="#fff0f0" stroke="red" points="137.5,-165 4.5,-165 4.5,-136 137.5,-136 137.5,-165"/>
<text text-anchor="start" x="12.5" y="-151.5" font-family="Helvetica,sans-Serif" font-size="10.00">ShortcutManager::Register</text>
<text text-anchor="middle" x="71" y="-141" font-family="Helvetica,sans-Serif" font-size="10.00">ChatViewShortcuts</text>
</a>
</g>
</g>
<!-- Node24&#45;&gt;Node26 -->
<g id="edge18_Node000024_Node000026" class="edge">
<title>Node24&#45;&gt;Node26</title>
<g id="a_edge18_Node000024_Node000026"><a xlink:title=" ">
<path fill="none" stroke="#63b8ff" d="M196.71,-164.32C177.72,-162.22 156.94,-159.91 137.89,-157.8"/>
<polygon fill="#63b8ff" stroke="#63b8ff" points="196.13,-167.78 206.45,-165.4 196.9,-160.82 196.13,-167.78"/>
</a>
</g>
</g>
<!-- Node31 -->
<g id="Node000031" class="node">
<title>Node31</title>
<g id="a_Node000031"><a xlink:href="classNetworkSettingsWidget.html#a39abac87779221db1e891712b4dc8db0" target="_top" xlink:title="Constructs the NetworkSettingsWidget. Initializes the UI, loads current settings from WavelengthConfi...">
<polygon fill="white" stroke="#666666" points="325.25,-76 199.75,-76 199.75,-47 325.25,-47 325.25,-76"/>
<text text-anchor="start" x="207.75" y="-62.5" font-family="Helvetica,sans-Serif" font-size="10.00">NetworkSettingsWidget</text>
<text text-anchor="middle" x="262.5" y="-52" font-family="Helvetica,sans-Serif" font-size="10.00">::NetworkSettingsWidget</text>
</a>
</g>
</g>
<!-- Node30&#45;&gt;Node31 -->
<g id="edge22_Node000030_Node000031" class="edge">
<title>Node30&#45;&gt;Node31</title>
<g id="a_edge22_Node000030_Node000031"><a xlink:title=" ">
<path fill="none" stroke="#63b8ff" d="M385.79,-61.5C366.06,-61.5 344.77,-61.5 325.57,-61.5"/>
<polygon fill="#63b8ff" stroke="#63b8ff" points="385.68,-65 395.68,-61.5 385.68,-58 385.68,-65"/>
</a>
</g>
</g>
</g>
</svg>

<g id="navigator" transform="translate(0 0)" fill="#404254">
  <rect fill="#f2f5e9" fill-opacity="0.5" stroke="#606060" stroke-width=".5" x="0" y="0" width="60" height="60"/>
  <use id="zoomplus" xlink:href="#zoomPlus" x="17" y="9" onmousedown="handleZoom(evt,'in')"/>
  <use id="zoomminus" xlink:href="#zoomMin" x="42" y="9" onmousedown="handleZoom(evt,'out')"/>
  <use id="reset" xlink:href="#resetDef" x="30" y="36" onmousedown="handleReset()"/>
   <use id="arrowup" xlink:href="#arrowUp" x="0" y="0" onmousedown="handlePan(0,-1)"/>
  <use id="arrowright" xlink:href="#arrowRight" x="0" y="0" onmousedown="handlePan(1,0)"/>
  <use id="arrowdown" xlink:href="#arrowDown" x="0" y="0" onmousedown="handlePan(0,1)"/>
  <use id="arrowleft" xlink:href="#arrowLeft" x="0" y="0" onmousedown="handlePan(-1,0)"/>
</g>
<svg viewBox="0 0 15 15" width="100%" height="30px" preserveAspectRatio="xMaxYMin meet">
 <g id="arrow_out" transform="scale(0.3 0.3)">
  <a xlink:href="classTranslationManager_ab6435893ce84a82ab11a7604aa9746d6_icgraph_org.svg" target="_base">
   <rect id="button" ry="5" rx="5" y="6" x="6" height="38" width="38"
        fill="#f2f5e9" fill-opacity="0.5" stroke="#606060" stroke-width="1.0"/>
   <path id="arrow"
     d="M 11.500037,31.436501 C 11.940474,20.09759 22.043105,11.32322 32.158766,21.979434 L 37.068811,17.246167 C 37.068811,17.246167 37.088388,32 37.088388,32 L 22.160133,31.978069 C 22.160133,31.978069 26.997745,27.140456 26.997745,27.140456 C 18.528582,18.264221 13.291696,25.230495 11.500037,31.436501 z"
     style="fill:#404040;"/>
  </a>
 </g>
</svg>

<style type='text/css'>
<![CDATA[
[data-mouse-over-selected='false'] { opacity: 0.7; }
[data-mouse-over-selected='true']  { opacity: 1.0; }
]]>
</style>
<script type="application/ecmascript"><![CDATA[
document.addEventListener('DOMContentLoaded', (event) => {
  highlightEdges();
  highlightAdjacentNodes();
});
]]></script>
</svg>
