<?xml version="1.0" encoding="UTF-8" standalone="no"?>
<!DOCTYPE svg PUBLIC "-//W3C//DTD SVG 1.1//EN"
 "http://www.w3.org/Graphics/SVG/1.1/DTD/svg11.dtd">
<!-- Generated by graphviz version 12.2.1 (0)
 -->
<!-- Title: SessionCoordinator::CreateWavelength Pages: 1 -->
<svg width="1078pt" height="1205pt"
 viewBox="0.00 0.00 1077.50 1205.00" xmlns="http://www.w3.org/2000/svg" xmlns:xlink="http://www.w3.org/1999/xlink">
<g id="graph0" class="graph" transform="scale(1 1) rotate(0) translate(4 1201)">
<title>SessionCoordinator::CreateWavelength</title>
<!-- Node1 -->
<g id="Node000001" class="node">
<title>Node1</title>
<g id="a_Node000001"><a xlink:title="Initiates the creation of a new wavelength. Delegates the call to WavelengthCreator and registers the...">
<polygon fill="#999999" stroke="#666666" points="101.5,-99 0,-99 0,-70 101.5,-70 101.5,-99"/>
<text text-anchor="start" x="8" y="-85.5" font-family="Helvetica,sans-Serif" font-size="10.00">SessionCoordinator</text>
<text text-anchor="middle" x="50.75" y="-75" font-family="Helvetica,sans-Serif" font-size="10.00">::CreateWavelength</text>
</a>
</g>
</g>
<!-- Node2 -->
<g id="Node000002" class="node">
<title>Node2</title>
<g id="a_Node000002"><a xlink:href="classWavelengthCreator.html#aceda419aab0bae7f3323bedfcb0ad6d1" target="_top" xlink:title="Attempts to create and register a new wavelength with the relay server. Checks if the wavelength alre...">
<polygon fill="white" stroke="#666666" points="258.12,-641 153.62,-641 153.62,-612 258.12,-612 258.12,-641"/>
<text text-anchor="start" x="161.62" y="-627.5" font-family="Helvetica,sans-Serif" font-size="10.00">WavelengthCreator::</text>
<text text-anchor="middle" x="205.88" y="-617" font-family="Helvetica,sans-Serif" font-size="10.00">CreateWavelength</text>
</a>
</g>
</g>
<!-- Node1&#45;&gt;Node2 -->
<g id="edge1_Node000001_Node000002" class="edge">
<title>Node1&#45;&gt;Node2</title>
<g id="a_edge1_Node000001_Node000002"><a xlink:title=" ">
<path fill="none" stroke="#63b8ff" d="M55.93,-99.28C76.89,-173.47 170.7,-505.53 197.63,-600.84"/>
<polygon fill="#63b8ff" stroke="#63b8ff" points="194.21,-601.61 200.29,-610.28 200.94,-599.7 194.21,-601.61"/>
</a>
</g>
</g>
<!-- Node65 -->
<g id="Node000065" class="node">
<title>Node65</title>
<g id="a_Node000065"><a xlink:href="classWavelengthCreator.html#ad22fb997ce9c23c1008b6d0ea206a2ac" target="_top" xlink:title="Gets the singleton instance of the WavelengthCreator.">
<polygon fill="white" stroke="#666666" points="258.12,-123 153.62,-123 153.62,-94 258.12,-94 258.12,-123"/>
<text text-anchor="start" x="161.62" y="-109.5" font-family="Helvetica,sans-Serif" font-size="10.00">WavelengthCreator::</text>
<text text-anchor="middle" x="205.88" y="-99" font-family="Helvetica,sans-Serif" font-size="10.00">GetInstance</text>
</a>
</g>
</g>
<!-- Node1&#45;&gt;Node65 -->
<g id="edge48_Node000001_Node000065" class="edge">
<title>Node1&#45;&gt;Node65</title>
<g id="a_edge48_Node000001_Node000065"><a xlink:title=" ">
<path fill="none" stroke="#63b8ff" d="M101.89,-92.36C114.77,-94.38 128.78,-96.57 142.21,-98.68"/>
<polygon fill="#63b8ff" stroke="#63b8ff" points="141.39,-102.09 151.82,-100.18 142.48,-95.18 141.39,-102.09"/>
</a>
</g>
</g>
<!-- Node67 -->
<g id="Node000067" class="node">
<title>Node67</title>
<g id="a_Node000067"><a xlink:href="classWavelengthStateManager.html#a080b15c4486a3ac1c341a464dbf197ad" target="_top" xlink:title="Gets the singleton instance of the WavelengthStateManager.">
<polygon fill="white" stroke="#666666" points="269.38,-76 142.38,-76 142.38,-47 269.38,-47 269.38,-76"/>
<text text-anchor="start" x="150.38" y="-62.5" font-family="Helvetica,sans-Serif" font-size="10.00">WavelengthStateManager</text>
<text text-anchor="middle" x="205.88" y="-52" font-family="Helvetica,sans-Serif" font-size="10.00">::GetInstance</text>
</a>
</g>
</g>
<!-- Node1&#45;&gt;Node67 -->
<g id="edge50_Node000001_Node000067" class="edge">
<title>Node1&#45;&gt;Node67</title>
<g id="a_edge50_Node000001_Node000067"><a xlink:title=" ">
<path fill="none" stroke="#63b8ff" d="M101.89,-76.97C111.1,-75.58 120.9,-74.11 130.65,-72.65"/>
<polygon fill="#63b8ff" stroke="#63b8ff" points="131.16,-76.11 140.53,-71.16 130.12,-69.19 131.16,-76.11"/>
</a>
</g>
</g>
<!-- Node69 -->
<g id="Node000069" class="node">
<title>Node69</title>
<g id="a_Node000069"><a xlink:href="classWavelengthStateManager.html#aba761e8fce28f89388d6100d9efc0e72" target="_top" xlink:title="Registers that the user has successfully joined a specific wavelength. Adds the frequency to an inter...">
<polygon fill="white" stroke="#666666" points="274.25,-29 137.5,-29 137.5,0 274.25,0 274.25,-29"/>
<text text-anchor="start" x="145.5" y="-15.5" font-family="Helvetica,sans-Serif" font-size="10.00">WavelengthStateManager</text>
<text text-anchor="middle" x="205.88" y="-5" font-family="Helvetica,sans-Serif" font-size="10.00">::RegisterJoinedWavelength</text>
</a>
</g>
</g>
<!-- Node1&#45;&gt;Node69 -->
<g id="edge52_Node000001_Node000069" class="edge">
<title>Node1&#45;&gt;Node69</title>
<g id="a_edge52_Node000001_Node000069"><a xlink:title=" ">
<path fill="none" stroke="#63b8ff" d="M76.31,-69.56C93.16,-59.68 116.22,-46.88 137.5,-37.5 140.62,-36.12 143.86,-34.78 147.14,-33.47"/>
<polygon fill="#63b8ff" stroke="#63b8ff" points="148.21,-36.81 156.31,-29.97 145.71,-30.27 148.21,-36.81"/>
</a>
</g>
</g>
<!-- Node3 -->
<g id="Node000003" class="node">
<title>Node3</title>
<g id="a_Node000003"><a xlink:href="classWavelengthRegistry.html#abbd95bb75f643979258d9a3d99c5fdee" target="_top" xlink:title="Marks a frequency as having a pending registration attempt. Used to prevent duplicate registration at...">
<polygon fill="white" stroke="#666666" points="452.62,-829 327.12,-829 327.12,-800 452.62,-800 452.62,-829"/>
<text text-anchor="start" x="335.12" y="-815.5" font-family="Helvetica,sans-Serif" font-size="10.00">WavelengthRegistry</text>
<text text-anchor="middle" x="389.88" y="-805" font-family="Helvetica,sans-Serif" font-size="10.00">::AddPendingRegistration</text>
</a>
</g>
</g>
<!-- Node2&#45;&gt;Node3 -->
<g id="edge2_Node000002_Node000003" class="edge">
<title>Node2&#45;&gt;Node3</title>
<g id="a_edge2_Node000002_Node000003"><a xlink:title=" ">
<path fill="none" stroke="#63b8ff" d="M211.99,-641.36C223.9,-673.72 256.61,-750.91 310.25,-791.5 312.28,-793.03 314.4,-794.47 316.61,-795.8"/>
<polygon fill="#63b8ff" stroke="#63b8ff" points="314.86,-798.84 325.34,-800.37 318.11,-792.64 314.86,-798.84"/>
</a>
</g>
</g>
<!-- Node4 -->
<g id="Node000004" class="node">
<title>Node4</title>
<g id="a_Node000004"><a xlink:href="classWavelengthRegistry.html#a998a355d30053edcff8aac04c7d7dc55" target="_top" xlink:title="Checks if a wavelength with the given frequency exists in the registry.">
<polygon fill="white" stroke="#666666" points="632.5,-782 529.5,-782 529.5,-753 632.5,-753 632.5,-782"/>
<text text-anchor="start" x="537.5" y="-768.5" font-family="Helvetica,sans-Serif" font-size="10.00">WavelengthRegistry</text>
<text text-anchor="middle" x="581" y="-758" font-family="Helvetica,sans-Serif" font-size="10.00">::HasWavelength</text>
</a>
</g>
</g>
<!-- Node2&#45;&gt;Node4 -->
<g id="edge27_Node000002_Node000004" class="edge">
<title>Node2&#45;&gt;Node4</title>
<g id="a_edge27_Node000002_Node000004"><a xlink:title=" ">
<path fill="none" stroke="#63b8ff" d="M208.8,-641.3C214.92,-681.62 238.02,-793.36 310.25,-838.5 370.27,-876.01 401.59,-858.44 469.5,-838.5 501.9,-828.99 533.79,-806.72 554.92,-789.64"/>
<polygon fill="#63b8ff" stroke="#63b8ff" points="556.95,-792.51 562.4,-783.43 552.47,-787.13 556.95,-792.51"/>
</a>
</g>
</g>
<!-- Node5 -->
<g id="Node000005" class="node">
<title>Node5</title>
<g id="a_Node000005"><a xlink:href="classWavelengthRegistry.html#af95ec67f51b8ebff79d7bc127c42daae" target="_top" xlink:title="Adds a new wavelength and its information to the registry. Removes any pending registration for the s...">
<polygon fill="white" stroke="#666666" points="441.38,-915 338.38,-915 338.38,-886 441.38,-886 441.38,-915"/>
<text text-anchor="start" x="346.38" y="-901.5" font-family="Helvetica,sans-Serif" font-size="10.00">WavelengthRegistry</text>
<text text-anchor="middle" x="389.88" y="-891" font-family="Helvetica,sans-Serif" font-size="10.00">::AddWavelength</text>
</a>
</g>
</g>
<!-- Node2&#45;&gt;Node5 -->
<g id="edge4_Node000002_Node000005" class="edge">
<title>Node2&#45;&gt;Node5</title>
<g id="a_edge4_Node000002_Node000005"><a xlink:title=" ">
<path fill="none" stroke="#63b8ff" d="M208.95,-641.2C215.61,-683.15 240.31,-804.7 310.25,-871.5 315.36,-876.38 321.36,-880.45 327.73,-883.85"/>
<polygon fill="#63b8ff" stroke="#63b8ff" points="326.06,-886.93 336.6,-888 329.03,-880.59 326.06,-886.93"/>
</a>
</g>
</g>
<!-- Node7 -->
<g id="Node000007" class="node">
<title>Node7</title>
<g id="a_Node000007"><a xlink:href="classWavelengthCreator.html#aa0259c9f69bc46516a43440e908022cf" target="_top" xlink:title="Emitted if an error occurs during the connection or registration process.">
<polygon fill="white" stroke="#666666" points="442.12,-594 337.62,-594 337.62,-565 442.12,-565 442.12,-594"/>
<text text-anchor="start" x="345.62" y="-580.5" font-family="Helvetica,sans-Serif" font-size="10.00">WavelengthCreator::</text>
<text text-anchor="middle" x="389.88" y="-570" font-family="Helvetica,sans-Serif" font-size="10.00">connectionError</text>
</a>
</g>
</g>
<!-- Node2&#45;&gt;Node7 -->
<g id="edge7_Node000002_Node000007" class="edge">
<title>Node2&#45;&gt;Node7</title>
<g id="a_edge7_Node000002_Node000007"><a xlink:title=" ">
<path fill="none" stroke="#63b8ff" d="M258.54,-613.16C279.67,-607.7 304.3,-601.34 326.42,-595.63"/>
<polygon fill="#63b8ff" stroke="#63b8ff" points="327.12,-599.06 335.93,-593.17 325.37,-592.28 327.12,-599.06"/>
</a>
</g>
</g>
<!-- Node8 -->
<g id="Node000008" class="node">
<title>Node8</title>
<g id="a_Node000008"><a xlink:href="classAuthenticationManager.html#a746a91c33a014dad53ab34565fe5e64e" target="_top" xlink:title="Generates a unique client identifier.">
<polygon fill="white" stroke="#666666" points="447.75,-547 332,-547 332,-518 447.75,-518 447.75,-547"/>
<text text-anchor="start" x="340" y="-533.5" font-family="Helvetica,sans-Serif" font-size="10.00">AuthenticationManager</text>
<text text-anchor="middle" x="389.88" y="-523" font-family="Helvetica,sans-Serif" font-size="10.00">::GenerateClientId</text>
</a>
</g>
</g>
<!-- Node2&#45;&gt;Node8 -->
<g id="edge8_Node000002_Node000008" class="edge">
<title>Node2&#45;&gt;Node8</title>
<g id="a_edge8_Node000002_Node000008"><a xlink:title=" ">
<path fill="none" stroke="#63b8ff" d="M225.27,-611.53C245.18,-595.95 278.37,-571.73 310.25,-556.5 314.01,-554.7 317.94,-553 321.95,-551.4"/>
<polygon fill="#63b8ff" stroke="#63b8ff" points="323.12,-554.7 331.26,-547.92 320.67,-548.14 323.12,-554.7"/>
</a>
</g>
</g>
<!-- Node9 -->
<g id="Node000009" class="node">
<title>Node9</title>
<g id="a_Node000009"><a xlink:href="classWavelengthRegistry.html#a6ce8627bbb1db084bf76053aa92f9a47" target="_top" xlink:title="Gets the identifier of the currently active wavelength.">
<polygon fill="white" stroke="#666666" points="447.38,-500 332.38,-500 332.38,-471 447.38,-471 447.38,-500"/>
<text text-anchor="start" x="340.38" y="-486.5" font-family="Helvetica,sans-Serif" font-size="10.00">WavelengthRegistry</text>
<text text-anchor="middle" x="389.88" y="-476" font-family="Helvetica,sans-Serif" font-size="10.00">::GetActiveWavelength</text>
</a>
</g>
</g>
<!-- Node2&#45;&gt;Node9 -->
<g id="edge9_Node000002_Node000009" class="edge">
<title>Node2&#45;&gt;Node9</title>
<g id="a_edge9_Node000002_Node000009"><a xlink:title=" ">
<path fill="none" stroke="#63b8ff" d="M216.07,-611.56C232.11,-586.71 267.62,-536.92 310.25,-509.5 313.93,-507.14 317.85,-504.99 321.9,-503.05"/>
<polygon fill="#63b8ff" stroke="#63b8ff" points="323,-506.39 330.81,-499.24 320.24,-499.96 323,-506.39"/>
</a>
</g>
</g>
<!-- Node10 -->
<g id="Node000010" class="node">
<title>Node10</title>
<g id="a_Node000010"><a xlink:href="classAuthenticationManager.html#abb3d14d1e380282208dbb4f533d129af" target="_top" xlink:title="Gets the singleton instance of the AuthenticationManager.">
<polygon fill="white" stroke="#666666" points="447.75,-453 332,-453 332,-424 447.75,-424 447.75,-453"/>
<text text-anchor="start" x="340" y="-439.5" font-family="Helvetica,sans-Serif" font-size="10.00">AuthenticationManager</text>
<text text-anchor="middle" x="389.88" y="-429" font-family="Helvetica,sans-Serif" font-size="10.00">::GetInstance</text>
</a>
</g>
</g>
<!-- Node2&#45;&gt;Node10 -->
<g id="edge10_Node000002_Node000010" class="edge">
<title>Node2&#45;&gt;Node10</title>
<g id="a_edge10_Node000002_Node000010"><a xlink:title=" ">
<path fill="none" stroke="#63b8ff" d="M212.05,-611.78C224.08,-579.7 257.03,-503.16 310.25,-462.5 313.72,-459.85 317.49,-457.48 321.43,-455.38"/>
<polygon fill="#63b8ff" stroke="#63b8ff" points="322.57,-458.72 330.15,-451.31 319.61,-452.37 322.57,-458.72"/>
</a>
</g>
</g>
<!-- Node12 -->
<g id="Node000012" class="node">
<title>Node12</title>
<g id="a_Node000012"><a xlink:href="classMessageHandler.html#afa8afa05bb7b07783162bf420a91ac92" target="_top" xlink:title="Gets the singleton instance of the MessageHandler.">
<polygon fill="white" stroke="#666666" points="852.88,-429.75 704.12,-429.75 704.12,-411.25 852.88,-411.25 852.88,-429.75"/>
<text text-anchor="middle" x="778.5" y="-416.25" font-family="Helvetica,sans-Serif" font-size="10.00">MessageHandler::GetInstance</text>
</a>
</g>
</g>
<!-- Node2&#45;&gt;Node12 -->
<g id="edge12_Node000002_Node000012" class="edge">
<title>Node2&#45;&gt;Node12</title>
<g id="a_edge12_Node000002_Node000012"><a xlink:title=" ">
<path fill="none" stroke="#63b8ff" d="M208.82,-611.76C215.01,-571.63 238.26,-460.4 310.25,-415.5 370.31,-378.05 399.14,-407.78 469.5,-415.5 485.79,-417.29 489.21,-421.71 505.5,-423.5 572.21,-430.82 589.39,-424.33 656.5,-423.5 668.12,-423.36 680.37,-423.13 692.44,-422.87"/>
<polygon fill="#63b8ff" stroke="#63b8ff" points="692.49,-426.37 702.41,-422.65 692.33,-419.38 692.49,-426.37"/>
</a>
</g>
</g>
<!-- Node14 -->
<g id="Node000014" class="node">
<title>Node14</title>
<g id="a_Node000014"><a xlink:href="classMessageProcessor.html#a26caf4168e131060a69bec30612f7596" target="_top" xlink:title="Gets the singleton instance of the MessageProcessor.">
<polygon fill="white" stroke="#666666" points="469.5,-243.75 310.25,-243.75 310.25,-225.25 469.5,-225.25 469.5,-243.75"/>
<text text-anchor="middle" x="389.88" y="-230.25" font-family="Helvetica,sans-Serif" font-size="10.00">MessageProcessor::GetInstance</text>
</a>
</g>
</g>
<!-- Node2&#45;&gt;Node14 -->
<g id="edge14_Node000002_Node000014" class="edge">
<title>Node2&#45;&gt;Node14</title>
<g id="a_edge14_Node000002_Node000014"><a xlink:title=" ">
<path fill="none" stroke="#63b8ff" d="M206.3,-611.72C205,-556.6 208.05,-360.88 310.25,-257.5 313.28,-254.44 316.69,-251.78 320.35,-249.47"/>
<polygon fill="#63b8ff" stroke="#63b8ff" points="321.96,-252.58 329.2,-244.84 318.72,-246.37 321.96,-252.58"/>
</a>
</g>
</g>
<!-- Node16 -->
<g id="Node000016" class="node">
<title>Node16</title>
<g id="a_Node000016"><a xlink:href="classWavelengthConfig.html#abe95f3b7789e1e60f7bd535352644c0d" target="_top" xlink:title="Gets the singleton instance of the WavelengthConfig.">
<polygon fill="white" stroke="#666666" points="466.88,-206.75 312.88,-206.75 312.88,-188.25 466.88,-188.25 466.88,-206.75"/>
<text text-anchor="middle" x="389.88" y="-193.25" font-family="Helvetica,sans-Serif" font-size="10.00">WavelengthConfig::GetInstance</text>
</a>
</g>
</g>
<!-- Node2&#45;&gt;Node16 -->
<g id="edge17_Node000002_Node000016" class="edge">
<title>Node2&#45;&gt;Node16</title>
<g id="a_edge17_Node000002_Node000016"><a xlink:title=" ">
<path fill="none" stroke="#63b8ff" d="M208.58,-611.59C216.5,-544.87 251.83,-274.35 310.25,-216.5 311.32,-215.44 312.43,-214.44 313.59,-213.49"/>
<polygon fill="#63b8ff" stroke="#63b8ff" points="315.48,-216.44 321.92,-208.03 311.64,-210.59 315.48,-216.44"/>
</a>
</g>
</g>
<!-- Node18 -->
<g id="Node000018" class="node">
<title>Node18</title>
<g id="a_Node000018"><a xlink:href="classWavelengthRegistry.html#a84a25c38915431306681e96df429f20f" target="_top" xlink:title="Gets the singleton instance of the WavelengthRegistry.">
<polygon fill="white" stroke="#666666" points="441.38,-170 338.38,-170 338.38,-141 441.38,-141 441.38,-170"/>
<text text-anchor="start" x="346.38" y="-156.5" font-family="Helvetica,sans-Serif" font-size="10.00">WavelengthRegistry</text>
<text text-anchor="middle" x="389.88" y="-146" font-family="Helvetica,sans-Serif" font-size="10.00">::GetInstance</text>
</a>
</g>
</g>
<!-- Node2&#45;&gt;Node18 -->
<g id="edge20_Node000002_Node000018" class="edge">
<title>Node2&#45;&gt;Node18</title>
<g id="a_edge20_Node000002_Node000018"><a xlink:title=" ">
<path fill="none" stroke="#63b8ff" d="M208.32,-611.77C215.44,-541.98 248.97,-245.16 310.25,-179.5 315.11,-174.3 321.06,-170.21 327.49,-167"/>
<polygon fill="#63b8ff" stroke="#63b8ff" points="328.63,-170.32 336.5,-163.23 325.93,-163.86 328.63,-170.32"/>
</a>
</g>
</g>
<!-- Node20 -->
<g id="Node000020" class="node">
<title>Node20</title>
<g id="a_Node000020"><a xlink:href="classMessageHandler.html#a524902c0c6c8f96fae5a696fb550e6ac" target="_top" xlink:title="Extracts the message type string from a parsed message object.">
<polygon fill="white" stroke="#666666" points="864.5,-355.75 692.5,-355.75 692.5,-337.25 864.5,-337.25 864.5,-355.75"/>
<text text-anchor="middle" x="778.5" y="-342.25" font-family="Helvetica,sans-Serif" font-size="10.00">MessageHandler::GetMessageType</text>
</a>
</g>
</g>
<!-- Node2&#45;&gt;Node20 -->
<g id="edge22_Node000002_Node000020" class="edge">
<title>Node2&#45;&gt;Node20</title>
<g id="a_edge22_Node000002_Node000020"><a xlink:title=" ">
<path fill="none" stroke="#63b8ff" d="M206.62,-611.67C206.65,-561.53 214.35,-397.66 310.25,-329.5 373.18,-284.77 600.56,-315.9 713.26,-334.85"/>
<polygon fill="#63b8ff" stroke="#63b8ff" points="712.52,-338.27 722.97,-336.5 713.7,-331.37 712.52,-338.27"/>
</a>
</g>
</g>
<!-- Node21 -->
<g id="Node000021" class="node">
<title>Node21</title>
<g id="a_Node000021"><a xlink:href="classWavelengthConfig.html#adf2ecac39e18de2b5ed81eb8fde47d8a" target="_top" xlink:title="Gets the configured relay server address.">
<polygon fill="white" stroke="#666666" points="460.5,-1197 319.25,-1197 319.25,-1168 460.5,-1168 460.5,-1197"/>
<text text-anchor="start" x="327.25" y="-1183.5" font-family="Helvetica,sans-Serif" font-size="10.00">WavelengthConfig::GetRelay</text>
<text text-anchor="middle" x="389.88" y="-1173" font-family="Helvetica,sans-Serif" font-size="10.00">ServerAddress</text>
</a>
</g>
</g>
<!-- Node2&#45;&gt;Node21 -->
<g id="edge23_Node000002_Node000021" class="edge">
<title>Node2&#45;&gt;Node21</title>
<g id="a_edge23_Node000002_Node000021"><a xlink:title=" ">
<path fill="none" stroke="#63b8ff" d="M207.72,-641.38C212.42,-719.34 237.88,-1080.07 310.25,-1159.5 310.51,-1159.79 310.77,-1160.07 311.04,-1160.35"/>
<polygon fill="#63b8ff" stroke="#63b8ff" points="308.52,-1162.8 318.44,-1166.54 313.02,-1157.44 308.52,-1162.8"/>
</a>
</g>
</g>
<!-- Node22 -->
<g id="Node000022" class="node">
<title>Node22</title>
<g id="a_Node000022"><a xlink:href="classWavelengthConfig.html#a4102c95b0ba46a067d7ca8161bcd7916" target="_top" xlink:title="Gets the configured relay server port.">
<polygon fill="white" stroke="#666666" points="460.5,-1150 319.25,-1150 319.25,-1121 460.5,-1121 460.5,-1150"/>
<text text-anchor="start" x="327.25" y="-1136.5" font-family="Helvetica,sans-Serif" font-size="10.00">WavelengthConfig::GetRelay</text>
<text text-anchor="middle" x="389.88" y="-1126" font-family="Helvetica,sans-Serif" font-size="10.00">ServerPort</text>
</a>
</g>
</g>
<!-- Node2&#45;&gt;Node22 -->
<g id="edge24_Node000002_Node000022" class="edge">
<title>Node2&#45;&gt;Node22</title>
<g id="a_edge24_Node000002_Node000022"><a xlink:title=" ">
<path fill="none" stroke="#63b8ff" d="M207.99,-641.03C213.88,-714.11 243.66,-1040.72 310.25,-1112.5 310.61,-1112.89 310.98,-1113.28 311.36,-1113.65"/>
<polygon fill="#63b8ff" stroke="#63b8ff" points="308.88,-1116.15 318.85,-1119.73 313.29,-1110.71 308.88,-1116.15"/>
</a>
</g>
</g>
<!-- Node23 -->
<g id="Node000023" class="node">
<title>Node23</title>
<g id="a_Node000023"><a xlink:href="classWavelengthRegistry.html#a022bb5799d095b75026019791ebf5e34" target="_top" xlink:title="Retrieves the WavelengthInfo for a specific frequency.">
<polygon fill="white" stroke="#666666" points="442.12,-782 337.62,-782 337.62,-753 442.12,-753 442.12,-782"/>
<text text-anchor="start" x="345.62" y="-768.5" font-family="Helvetica,sans-Serif" font-size="10.00">WavelengthRegistry</text>
<text text-anchor="middle" x="389.88" y="-758" font-family="Helvetica,sans-Serif" font-size="10.00">::GetWavelengthInfo</text>
</a>
</g>
</g>
<!-- Node2&#45;&gt;Node23 -->
<g id="edge25_Node000002_Node000023" class="edge">
<title>Node2&#45;&gt;Node23</title>
<g id="a_edge25_Node000002_Node000023"><a xlink:title=" ">
<path fill="none" stroke="#63b8ff" d="M215.75,-641.22C231.57,-666.23 267.09,-716.96 310.25,-744.5 315.35,-747.75 320.92,-750.56 326.66,-752.98"/>
<polygon fill="#63b8ff" stroke="#63b8ff" points="325.13,-756.14 335.72,-756.39 327.6,-749.59 325.13,-756.14"/>
</a>
</g>
</g>
<!-- Node24 -->
<g id="Node000024" class="node">
<title>Node24</title>
<g id="a_Node000024"><a xlink:href="classWavelengthRegistry.html#ace33a6ab8fbbac0f279de726f120d758" target="_top" xlink:title="Checks if a frequency is currently marked as having a pending registration.">
<polygon fill="white" stroke="#666666" points="448.12,-1103 331.62,-1103 331.62,-1074 448.12,-1074 448.12,-1103"/>
<text text-anchor="start" x="339.62" y="-1089.5" font-family="Helvetica,sans-Serif" font-size="10.00">WavelengthRegistry</text>
<text text-anchor="middle" x="389.88" y="-1079" font-family="Helvetica,sans-Serif" font-size="10.00">::IsPendingRegistration</text>
</a>
</g>
</g>
<!-- Node2&#45;&gt;Node24 -->
<g id="edge28_Node000002_Node000024" class="edge">
<title>Node2&#45;&gt;Node24</title>
<g id="a_edge28_Node000002_Node000024"><a xlink:title=" ">
<path fill="none" stroke="#63b8ff" d="M208.39,-641.44C215.72,-710.9 249.65,-1001.57 310.25,-1065.5 313.55,-1068.98 317.35,-1071.95 321.46,-1074.47"/>
<polygon fill="#63b8ff" stroke="#63b8ff" points="319.66,-1077.48 330.16,-1078.9 322.84,-1071.24 319.66,-1077.48"/>
</a>
</g>
</g>
<!-- Node25 -->
<g id="Node000025" class="node">
<title>Node25</title>
<g id="a_Node000025"><a xlink:href="classMessageHandler.html#aad5bdf02a351f87acd5a9d84bb1f3ce8" target="_top" xlink:title="Parses a JSON string message into a QJsonObject.">
<polygon fill="white" stroke="#666666" points="859.25,-318.75 697.75,-318.75 697.75,-300.25 859.25,-300.25 859.25,-318.75"/>
<text text-anchor="middle" x="778.5" y="-305.25" font-family="Helvetica,sans-Serif" font-size="10.00">MessageHandler::ParseMessage</text>
</a>
</g>
</g>
<!-- Node2&#45;&gt;Node25 -->
<g id="edge29_Node000002_Node000025" class="edge">
<title>Node2&#45;&gt;Node25</title>
<g id="a_edge29_Node000002_Node000025"><a xlink:title=" ">
<path fill="none" stroke="#63b8ff" d="M209.26,-611.75C218.98,-553.52 257.69,-340.9 310.25,-302.5 371.11,-258.03 589.78,-281.81 705.12,-298.18"/>
<polygon fill="#63b8ff" stroke="#63b8ff" points="704.39,-301.61 714.79,-299.58 705.39,-294.69 704.39,-301.61"/>
</a>
</g>
</g>
<!-- Node26 -->
<g id="Node000026" class="node">
<title>Node26</title>
<g id="a_Node000026"><a xlink:href="classWavelengthRegistry.html#a57050adca24a493719c884b1145e8f2e" target="_top" xlink:title="Removes a frequency from the pending registration list.">
<polygon fill="white" stroke="#666666" points="461.62,-1056 318.12,-1056 318.12,-1027 461.62,-1027 461.62,-1056"/>
<text text-anchor="start" x="326.12" y="-1042.5" font-family="Helvetica,sans-Serif" font-size="10.00">WavelengthRegistry</text>
<text text-anchor="middle" x="389.88" y="-1032" font-family="Helvetica,sans-Serif" font-size="10.00">::RemovePendingRegistration</text>
</a>
</g>
</g>
<!-- Node2&#45;&gt;Node26 -->
<g id="edge30_Node000002_Node000026" class="edge">
<title>Node2&#45;&gt;Node26</title>
<g id="a_edge30_Node000002_Node000026"><a xlink:title=" ">
<path fill="none" stroke="#63b8ff" d="M208.8,-641.12C217.53,-705.4 255.38,-962.15 310.25,-1018.5 310.62,-1018.88 311,-1019.26 311.38,-1019.63"/>
<polygon fill="#63b8ff" stroke="#63b8ff" points="308.97,-1022.18 319,-1025.59 313.28,-1016.67 308.97,-1022.18"/>
</a>
</g>
</g>
<!-- Node27 -->
<g id="Node000027" class="node">
<title>Node27</title>
<g id="a_Node000027"><a xlink:href="classWavelengthRegistry.html#a21547e9bcb55b4b6ac50a276c01cab84" target="_top" xlink:title="Removes a wavelength from the registry. If the removed wavelength was the active one,...">
<polygon fill="white" stroke="#666666" points="443.62,-735 336.12,-735 336.12,-706 443.62,-706 443.62,-735"/>
<text text-anchor="start" x="344.12" y="-721.5" font-family="Helvetica,sans-Serif" font-size="10.00">WavelengthRegistry</text>
<text text-anchor="middle" x="389.88" y="-711" font-family="Helvetica,sans-Serif" font-size="10.00">::RemoveWavelength</text>
</a>
</g>
</g>
<!-- Node2&#45;&gt;Node27 -->
<g id="edge31_Node000002_Node000027" class="edge">
<title>Node2&#45;&gt;Node27</title>
<g id="a_edge31_Node000002_Node000027"><a xlink:title=" ">
<path fill="none" stroke="#63b8ff" d="M224.83,-641.49C244.64,-657.36 277.99,-682.19 310.25,-697.5 315.06,-699.78 320.14,-701.89 325.31,-703.82"/>
<polygon fill="#63b8ff" stroke="#63b8ff" points="323.97,-707.06 334.56,-707.05 326.27,-700.45 323.97,-707.06"/>
</a>
</g>
</g>
<!-- Node29 -->
<g id="Node000029" class="node">
<title>Node29</title>
<g id="a_Node000029"><a xlink:href="classWavelengthRegistry.html#a4548037308651c141a62473296dc2b1e" target="_top" xlink:title="Sets the specified frequency as the currently active wavelength. If the frequency does not exist in t...">
<polygon fill="white" stroke="#666666" points="447,-688 332.75,-688 332.75,-659 447,-659 447,-688"/>
<text text-anchor="start" x="340.75" y="-674.5" font-family="Helvetica,sans-Serif" font-size="10.00">WavelengthRegistry</text>
<text text-anchor="middle" x="389.88" y="-664" font-family="Helvetica,sans-Serif" font-size="10.00">::SetActiveWavelength</text>
</a>
</g>
</g>
<!-- Node2&#45;&gt;Node29 -->
<g id="edge34_Node000002_Node000029" class="edge">
<title>Node2&#45;&gt;Node29</title>
<g id="a_edge34_Node000002_Node000029"><a xlink:title=" ">
<path fill="none" stroke="#63b8ff" d="M258.54,-639.84C278.05,-644.88 300.55,-650.69 321.3,-656.05"/>
<polygon fill="#63b8ff" stroke="#63b8ff" points="320.27,-659.4 330.83,-658.51 322.02,-652.62 320.27,-659.4"/>
</a>
</g>
</g>
<!-- Node31 -->
<g id="Node000031" class="node">
<title>Node31</title>
<g id="a_Node000031"><a xlink:href="classMessageProcessor.html#ae0f85d4a5a3c92b0873e7889dfb79862" target="_top" xlink:title="Connects the appropriate slots of this processor to the signals of a given QWebSocket....">
<polygon fill="white" stroke="#666666" points="465.38,-367 314.38,-367 314.38,-338 465.38,-338 465.38,-367"/>
<text text-anchor="start" x="322.38" y="-353.5" font-family="Helvetica,sans-Serif" font-size="10.00">MessageProcessor::SetSocket</text>
<text text-anchor="middle" x="389.88" y="-343" font-family="Helvetica,sans-Serif" font-size="10.00">MessageHandlers</text>
</a>
</g>
</g>
<!-- Node2&#45;&gt;Node31 -->
<g id="edge37_Node000002_Node000031" class="edge">
<title>Node2&#45;&gt;Node31</title>
<g id="a_edge37_Node000002_Node000031"><a xlink:title=" ">
<path fill="none" stroke="#63b8ff" d="M208.95,-611.8C215.61,-569.85 240.31,-448.3 310.25,-381.5 313.53,-378.37 317.18,-375.57 321.05,-373.07"/>
<polygon fill="#63b8ff" stroke="#63b8ff" points="322.75,-376.13 329.76,-368.18 319.33,-370.02 322.75,-376.13"/>
</a>
</g>
</g>
<!-- Node61 -->
<g id="Node000061" class="node">
<title>Node61</title>
<g id="a_Node000061"><a xlink:href="classWavelengthRegistry.html#a393a9a26745ef2bfa734c7889c7e8e8e" target="_top" xlink:title="Updates the information for an existing wavelength. Emits wavelengthUpdated signal.">
<polygon fill="white" stroke="#666666" points="441.75,-641 338,-641 338,-612 441.75,-612 441.75,-641"/>
<text text-anchor="start" x="346" y="-627.5" font-family="Helvetica,sans-Serif" font-size="10.00">WavelengthRegistry</text>
<text text-anchor="middle" x="389.88" y="-617" font-family="Helvetica,sans-Serif" font-size="10.00">::UpdateWavelength</text>
</a>
</g>
</g>
<!-- Node2&#45;&gt;Node61 -->
<g id="edge43_Node000002_Node000061" class="edge">
<title>Node2&#45;&gt;Node61</title>
<g id="a_edge43_Node000002_Node000061"><a xlink:title=" ">
<path fill="none" stroke="#63b8ff" d="M258.54,-626.5C279.66,-626.5 304.28,-626.5 326.4,-626.5"/>
<polygon fill="#63b8ff" stroke="#63b8ff" points="326.2,-630 336.2,-626.5 326.2,-623 326.2,-630"/>
</a>
</g>
</g>
<!-- Node63 -->
<g id="Node000063" class="node">
<title>Node63</title>
<g id="a_Node000063"><a xlink:href="classWavelengthCreator.html#a87de5870fa66a47c64774326799b8a37" target="_top" xlink:title="Emitted if the WebSocket connection for the wavelength is closed unexpectedly (e.g....">
<polygon fill="white" stroke="#666666" points="442.12,-1009 337.62,-1009 337.62,-980 442.12,-980 442.12,-1009"/>
<text text-anchor="start" x="345.62" y="-995.5" font-family="Helvetica,sans-Serif" font-size="10.00">WavelengthCreator::</text>
<text text-anchor="middle" x="389.88" y="-985" font-family="Helvetica,sans-Serif" font-size="10.00">wavelengthClosed</text>
</a>
</g>
</g>
<!-- Node2&#45;&gt;Node63 -->
<g id="edge46_Node000002_Node000063" class="edge">
<title>Node2&#45;&gt;Node63</title>
<g id="a_edge46_Node000002_Node000063"><a xlink:title=" ">
<path fill="none" stroke="#63b8ff" d="M206.64,-641.42C206.64,-694.47 213.99,-875.87 310.25,-971.5 315.03,-976.25 320.74,-980.03 326.87,-983.04"/>
<polygon fill="#63b8ff" stroke="#63b8ff" points="325.5,-986.26 336.08,-986.83 328.16,-979.79 325.5,-986.26"/>
</a>
</g>
</g>
<!-- Node64 -->
<g id="Node000064" class="node">
<title>Node64</title>
<g id="a_Node000064"><a xlink:href="classWavelengthCreator.html#a0f1f67f3f02cd486d02666bc91aff7e7" target="_top" xlink:title="Emitted when the wavelength has been successfully created and registered with the server.">
<polygon fill="white" stroke="#666666" points="442.12,-962 337.62,-962 337.62,-933 442.12,-933 442.12,-962"/>
<text text-anchor="start" x="345.62" y="-948.5" font-family="Helvetica,sans-Serif" font-size="10.00">WavelengthCreator::</text>
<text text-anchor="middle" x="389.88" y="-938" font-family="Helvetica,sans-Serif" font-size="10.00">wavelengthCreated</text>
</a>
</g>
</g>
<!-- Node2&#45;&gt;Node64 -->
<g id="edge47_Node000002_Node000064" class="edge">
<title>Node2&#45;&gt;Node64</title>
<g id="a_edge47_Node000002_Node000064"><a xlink:title=" ">
<path fill="none" stroke="#63b8ff" d="M207.46,-641.41C210.16,-689.75 225.37,-843.7 310.25,-924.5 315.07,-929.09 320.75,-932.76 326.82,-935.71"/>
<polygon fill="#63b8ff" stroke="#63b8ff" points="325.33,-938.89 335.91,-939.44 327.99,-932.41 325.33,-938.89"/>
</a>
</g>
</g>
<!-- Node3&#45;&gt;Node4 -->
<g id="edge3_Node000003_Node000004" class="edge">
<title>Node3&#45;&gt;Node4</title>
<g id="a_edge3_Node000003_Node000004"><a xlink:title=" ">
<path fill="none" stroke="#63b8ff" d="M450.98,-799.56C472.44,-794.23 496.64,-788.22 518.24,-782.85"/>
<polygon fill="#63b8ff" stroke="#63b8ff" points="518.94,-786.28 527.8,-780.47 517.25,-779.49 518.94,-786.28"/>
</a>
</g>
</g>
<!-- Node5&#45;&gt;Node4 -->
<g id="edge5_Node000005_Node000004" class="edge">
<title>Node5&#45;&gt;Node4</title>
<g id="a_edge5_Node000005_Node000004"><a xlink:title=" ">
<path fill="none" stroke="#63b8ff" d="M440.54,-885.64C450.48,-881.72 460.59,-877.01 469.5,-871.5 505.49,-849.22 539.83,-813.94 560.42,-790.76"/>
<polygon fill="#63b8ff" stroke="#63b8ff" points="562.93,-793.2 566.86,-783.36 557.65,-788.6 562.93,-793.2"/>
</a>
</g>
</g>
<!-- Node6 -->
<g id="Node000006" class="node">
<title>Node6</title>
<g id="a_Node000006"><a xlink:href="classWavelengthRegistry.html#a1c7cecfc90d7c53ea641329c53b70c62" target="_top" xlink:title="Emitted when a new wavelength is successfully added to the registry.">
<polygon fill="white" stroke="#666666" points="632.5,-915 529.5,-915 529.5,-886 632.5,-886 632.5,-915"/>
<text text-anchor="start" x="537.5" y="-901.5" font-family="Helvetica,sans-Serif" font-size="10.00">WavelengthRegistry</text>
<text text-anchor="middle" x="581" y="-891" font-family="Helvetica,sans-Serif" font-size="10.00">::wavelengthAdded</text>
</a>
</g>
</g>
<!-- Node5&#45;&gt;Node6 -->
<g id="edge6_Node000005_Node000006" class="edge">
<title>Node5&#45;&gt;Node6</title>
<g id="a_edge6_Node000005_Node000006"><a xlink:title=" ">
<path fill="none" stroke="#63b8ff" d="M441.56,-900.5C464.98,-900.5 493.02,-900.5 517.73,-900.5"/>
<polygon fill="#63b8ff" stroke="#63b8ff" points="517.66,-904 527.66,-900.5 517.66,-897 517.66,-904"/>
</a>
</g>
</g>
<!-- Node11 -->
<g id="Node000011" class="node">
<title>Node11</title>
<g id="a_Node000011"><a xlink:href="classAuthenticationManager.html#a3a24c8dc18303d4ad65c17aff6cdd705" target="_top" xlink:title="Private constructor to enforce the singleton pattern.">
<polygon fill="white" stroke="#666666" points="641.88,-500 520.12,-500 520.12,-471 641.88,-471 641.88,-500"/>
<text text-anchor="start" x="528.12" y="-486.5" font-family="Helvetica,sans-Serif" font-size="10.00">AuthenticationManager</text>
<text text-anchor="middle" x="581" y="-476" font-family="Helvetica,sans-Serif" font-size="10.00">::AuthenticationManager</text>
</a>
</g>
</g>
<!-- Node10&#45;&gt;Node11 -->
<g id="edge11_Node000010_Node000011" class="edge">
<title>Node10&#45;&gt;Node11</title>
<g id="a_edge11_Node000010_Node000011"><a xlink:title=" ">
<path fill="none" stroke="#63b8ff" d="M448.13,-452.73C467.21,-457.47 488.71,-462.81 508.72,-467.79"/>
<polygon fill="#63b8ff" stroke="#63b8ff" points="507.64,-471.12 518.19,-470.14 509.33,-464.33 507.64,-471.12"/>
</a>
</g>
</g>
<!-- Node13 -->
<g id="Node000013" class="node">
<title>Node13</title>
<g id="a_Node000013"><a xlink:href="classMessageHandler.html#ad3b43ca875118c1bafa19f354678cbec" target="_top" xlink:title="Private constructor to enforce the singleton pattern.">
<polygon fill="white" stroke="#666666" points="1069.5,-429.75 900.5,-429.75 900.5,-411.25 1069.5,-411.25 1069.5,-429.75"/>
<text text-anchor="middle" x="985" y="-416.25" font-family="Helvetica,sans-Serif" font-size="10.00">MessageHandler::MessageHandler</text>
</a>
</g>
</g>
<!-- Node12&#45;&gt;Node13 -->
<g id="edge13_Node000012_Node000013" class="edge">
<title>Node12&#45;&gt;Node13</title>
<g id="a_edge13_Node000012_Node000013"><a xlink:title=" ">
<path fill="none" stroke="#63b8ff" d="M853.33,-420.5C864.86,-420.5 876.92,-420.5 888.84,-420.5"/>
<polygon fill="#63b8ff" stroke="#63b8ff" points="888.7,-424 898.7,-420.5 888.7,-417 888.7,-424"/>
</a>
</g>
</g>
<!-- Node15 -->
<g id="Node000015" class="node">
<title>Node15</title>
<g id="a_Node000015"><a xlink:href="classMessageProcessor.html#af073515175802398f049574a52fe9795" target="_top" xlink:title="Deleted copy constructor to prevent copying.">
<polygon fill="white" stroke="#666666" points="653.88,-225 508.12,-225 508.12,-196 653.88,-196 653.88,-225"/>
<text text-anchor="start" x="516.12" y="-211.5" font-family="Helvetica,sans-Serif" font-size="10.00">MessageProcessor::Message</text>
<text text-anchor="middle" x="581" y="-201" font-family="Helvetica,sans-Serif" font-size="10.00">Processor</text>
</a>
</g>
</g>
<!-- Node14&#45;&gt;Node15 -->
<g id="edge15_Node000014_Node000015" class="edge">
<title>Node14&#45;&gt;Node15</title>
<g id="a_edge15_Node000014_Node000015"><a xlink:title=" ">
<path fill="none" stroke="#63b8ff" d="M467.53,-224.77C477.09,-223.56 486.92,-222.31 496.58,-221.09"/>
<polygon fill="#63b8ff" stroke="#63b8ff" points="496.85,-224.58 506.32,-219.85 495.96,-217.64 496.85,-224.58"/>
</a>
</g>
</g>
<!-- Node15&#45;&gt;Node15 -->
<g id="edge16_Node000015_Node000015" class="edge">
<title>Node15&#45;&gt;Node15</title>
<g id="a_edge16_Node000015_Node000015"><a xlink:title=" ">
<path fill="none" stroke="#63b8ff" d="M547.69,-225.21C539.66,-234.32 550.76,-243 581,-243 597.54,-243 608.35,-240.41 613.44,-236.56"/>
<polygon fill="#63b8ff" stroke="#63b8ff" points="616.92,-236.95 614.19,-226.72 609.94,-236.42 616.92,-236.95"/>
</a>
</g>
</g>
<!-- Node17 -->
<g id="Node000017" class="node">
<title>Node17</title>
<g id="a_Node000017"><a xlink:href="classWavelengthConfig.html#a85e6819278b90f10a1afe5e91ce05cbe" target="_top" xlink:title="Deleted copy constructor.">
<polygon fill="white" stroke="#666666" points="656.5,-160 505.5,-160 505.5,-131 656.5,-131 656.5,-160"/>
<text text-anchor="start" x="513.5" y="-146.5" font-family="Helvetica,sans-Serif" font-size="10.00">WavelengthConfig::Wavelength</text>
<text text-anchor="middle" x="581" y="-136" font-family="Helvetica,sans-Serif" font-size="10.00">Config</text>
</a>
</g>
</g>
<!-- Node16&#45;&gt;Node17 -->
<g id="edge18_Node000016_Node000017" class="edge">
<title>Node16&#45;&gt;Node17</title>
<g id="a_edge18_Node000016_Node000017"><a xlink:title=" ">
<path fill="none" stroke="#63b8ff" d="M435.92,-187.79C446.94,-185.24 458.68,-182.4 469.5,-179.5 486.99,-174.81 505.88,-169.21 523.01,-163.91"/>
<polygon fill="#63b8ff" stroke="#63b8ff" points="524.03,-167.26 532.54,-160.94 521.95,-160.58 524.03,-167.26"/>
</a>
</g>
</g>
<!-- Node17&#45;&gt;Node17 -->
<g id="edge19_Node000017_Node000017" class="edge">
<title>Node17&#45;&gt;Node17</title>
<g id="a_edge19_Node000017_Node000017"><a xlink:title=" ">
<path fill="none" stroke="#63b8ff" d="M547.69,-160.21C539.66,-169.32 550.76,-178 581,-178 597.54,-178 608.35,-175.41 613.44,-171.56"/>
<polygon fill="#63b8ff" stroke="#63b8ff" points="616.92,-171.95 614.19,-161.72 609.94,-171.42 616.92,-171.95"/>
</a>
</g>
</g>
<!-- Node19 -->
<g id="Node000019" class="node">
<title>Node19</title>
<g id="a_Node000019"><a xlink:href="classWavelengthRegistry.html#a5ad0b9c059e6c70af54fd27e35035e64" target="_top" xlink:title="Private constructor to enforce the singleton pattern. Initializes active_wavelength_ to &quot;&#45;1&quot;.">
<polygon fill="white" stroke="#666666" points="635.5,-113 526.5,-113 526.5,-84 635.5,-84 635.5,-113"/>
<text text-anchor="start" x="534.5" y="-99.5" font-family="Helvetica,sans-Serif" font-size="10.00">WavelengthRegistry</text>
<text text-anchor="middle" x="581" y="-89" font-family="Helvetica,sans-Serif" font-size="10.00">::WavelengthRegistry</text>
</a>
</g>
</g>
<!-- Node18&#45;&gt;Node19 -->
<g id="edge21_Node000018_Node000019" class="edge">
<title>Node18&#45;&gt;Node19</title>
<g id="a_edge21_Node000018_Node000019"><a xlink:title=" ">
<path fill="none" stroke="#63b8ff" d="M441.66,-140.76C450.93,-138.03 460.51,-135.2 469.5,-132.5 486.3,-127.46 504.5,-121.9 521.19,-116.76"/>
<polygon fill="#63b8ff" stroke="#63b8ff" points="521.94,-120.19 530.46,-113.9 519.87,-113.5 521.94,-120.19"/>
</a>
</g>
</g>
<!-- Node23&#45;&gt;Node4 -->
<g id="edge26_Node000023_Node000004" class="edge">
<title>Node23&#45;&gt;Node4</title>
<g id="a_edge26_Node000023_Node000004"><a xlink:title=" ">
<path fill="none" stroke="#63b8ff" d="M442.55,-767.5C465.78,-767.5 493.39,-767.5 517.74,-767.5"/>
<polygon fill="#63b8ff" stroke="#63b8ff" points="517.52,-771 527.52,-767.5 517.52,-764 517.52,-771"/>
</a>
</g>
</g>
<!-- Node27&#45;&gt;Node4 -->
<g id="edge32_Node000027_Node000004" class="edge">
<title>Node27&#45;&gt;Node4</title>
<g id="a_edge32_Node000027_Node000004"><a xlink:title=" ">
<path fill="none" stroke="#63b8ff" d="M444.06,-733.72C467.07,-739.44 494.16,-746.17 518.07,-752.11"/>
<polygon fill="#63b8ff" stroke="#63b8ff" points="517.15,-755.49 527.7,-754.5 518.84,-748.69 517.15,-755.49"/>
</a>
</g>
</g>
<!-- Node28 -->
<g id="Node000028" class="node">
<title>Node28</title>
<g id="a_Node000028"><a xlink:href="classWavelengthRegistry.html#a28770c18c4d884809355dbe9e851e7a4" target="_top" xlink:title="Emitted when a wavelength is successfully removed from the registry.">
<polygon fill="white" stroke="#666666" points="636.25,-735 525.75,-735 525.75,-706 636.25,-706 636.25,-735"/>
<text text-anchor="start" x="533.75" y="-721.5" font-family="Helvetica,sans-Serif" font-size="10.00">WavelengthRegistry</text>
<text text-anchor="middle" x="581" y="-711" font-family="Helvetica,sans-Serif" font-size="10.00">::wavelengthRemoved</text>
</a>
</g>
</g>
<!-- Node27&#45;&gt;Node28 -->
<g id="edge33_Node000027_Node000028" class="edge">
<title>Node27&#45;&gt;Node28</title>
<g id="a_edge33_Node000027_Node000028"><a xlink:title=" ">
<path fill="none" stroke="#63b8ff" d="M444.06,-720.5C465.84,-720.5 491.26,-720.5 514.19,-720.5"/>
<polygon fill="#63b8ff" stroke="#63b8ff" points="514.06,-724 524.06,-720.5 514.06,-717 514.06,-724"/>
</a>
</g>
</g>
<!-- Node29&#45;&gt;Node4 -->
<g id="edge36_Node000029_Node000004" class="edge">
<title>Node29&#45;&gt;Node4</title>
<g id="a_edge36_Node000029_Node000004"><a xlink:title=" ">
<path fill="none" stroke="#63b8ff" d="M447.43,-686.05C455.21,-689.1 462.82,-692.86 469.5,-697.5 491.12,-712.5 483.91,-729.46 505.5,-744.5 509.61,-747.36 514.09,-749.88 518.74,-752.09"/>
<polygon fill="#63b8ff" stroke="#63b8ff" points="517.17,-755.22 527.74,-755.86 519.88,-748.77 517.17,-755.22"/>
</a>
</g>
</g>
<!-- Node30 -->
<g id="Node000030" class="node">
<title>Node30</title>
<g id="a_Node000030"><a xlink:href="classWavelengthRegistry.html#ac86f04e6e88b2ba0dee509b7fbdc6e40" target="_top" xlink:title="Emitted when the active wavelength changes via SetActiveWavelength().">
<polygon fill="white" stroke="#666666" points="649.38,-688 512.62,-688 512.62,-659 649.38,-659 649.38,-688"/>
<text text-anchor="start" x="520.62" y="-674.5" font-family="Helvetica,sans-Serif" font-size="10.00">WavelengthRegistry</text>
<text text-anchor="middle" x="581" y="-664" font-family="Helvetica,sans-Serif" font-size="10.00">::activeWavelengthChanged</text>
</a>
</g>
</g>
<!-- Node29&#45;&gt;Node30 -->
<g id="edge35_Node000029_Node000030" class="edge">
<title>Node29&#45;&gt;Node30</title>
<g id="a_edge35_Node000029_Node000030"><a xlink:title=" ">
<path fill="none" stroke="#63b8ff" d="M447.36,-673.5C464.23,-673.5 483.03,-673.5 501.06,-673.5"/>
<polygon fill="#63b8ff" stroke="#63b8ff" points="500.95,-677 510.95,-673.5 500.95,-670 500.95,-677"/>
</a>
</g>
</g>
<!-- Node32 -->
<g id="Node000032" class="node">
<title>Node32</title>
<g id="a_Node000032"><a xlink:href="classMessageProcessor.html#ac4a5f8904c91e407b72ecb3fd5bc17f3" target="_top" xlink:title="Processes an incoming binary message (expected to be audio data) received from the WebSocket....">
<polygon fill="#fff0f0" stroke="red" points="652,-367 510,-367 510,-338 652,-338 652,-367"/>
<text text-anchor="start" x="518" y="-353.5" font-family="Helvetica,sans-Serif" font-size="10.00">MessageProcessor::Process</text>
<text text-anchor="middle" x="581" y="-343" font-family="Helvetica,sans-Serif" font-size="10.00">IncomingBinaryMessage</text>
</a>
</g>
</g>
<!-- Node31&#45;&gt;Node32 -->
<g id="edge38_Node000031_Node000032" class="edge">
<title>Node31&#45;&gt;Node32</title>
<g id="a_edge38_Node000031_Node000032"><a xlink:title=" ">
<path fill="none" stroke="#63b8ff" d="M465.62,-352.5C476.43,-352.5 487.59,-352.5 498.52,-352.5"/>
<polygon fill="#63b8ff" stroke="#63b8ff" points="498.29,-356 508.29,-352.5 498.29,-349 498.29,-356"/>
</a>
</g>
</g>
<!-- Node34 -->
<g id="Node000034" class="node">
<title>Node34</title>
<g id="a_Node000034"><a xlink:href="classMessageProcessor.html#abdfefd4e6d33731ee50463441ea1a368" target="_top" xlink:title="Processes an incoming text message (JSON) received from the WebSocket. Parses the JSON,...">
<polygon fill="#fff0f0" stroke="red" points="652,-414 510,-414 510,-385 652,-385 652,-414"/>
<text text-anchor="start" x="518" y="-400.5" font-family="Helvetica,sans-Serif" font-size="10.00">MessageProcessor::Process</text>
<text text-anchor="middle" x="581" y="-390" font-family="Helvetica,sans-Serif" font-size="10.00">IncomingMessage</text>
</a>
</g>
</g>
<!-- Node31&#45;&gt;Node34 -->
<g id="edge39_Node000031_Node000034" class="edge">
<title>Node31&#45;&gt;Node34</title>
<g id="a_edge39_Node000031_Node000034"><a xlink:title=" ">
<path fill="none" stroke="#63b8ff" d="M450.98,-367.44C469.33,-372 489.69,-377.06 508.71,-381.78"/>
<polygon fill="#63b8ff" stroke="#63b8ff" points="507.71,-385.14 518.26,-384.16 509.4,-378.35 507.71,-385.14"/>
</a>
</g>
</g>
<!-- Node34&#45;&gt;Node12 -->
<g id="edge40_Node000034_Node000012" class="edge">
<title>Node34&#45;&gt;Node12</title>
<g id="a_edge40_Node000034_Node000012"><a xlink:title=" ">
<path fill="none" stroke="#63b8ff" d="M652.3,-407.05C665.39,-408.46 679.19,-409.94 692.65,-411.39"/>
<polygon fill="#63b8ff" stroke="#63b8ff" points="692.04,-414.84 702.36,-412.43 692.79,-407.88 692.04,-414.84"/>
</a>
</g>
</g>
<!-- Node34&#45;&gt;Node20 -->
<g id="edge41_Node000034_Node000020" class="edge">
<title>Node34&#45;&gt;Node20</title>
<g id="a_edge41_Node000034_Node000020"><a xlink:title=" ">
<path fill="none" stroke="#63b8ff" d="M637.24,-384.52C666.84,-376.5 702.91,-366.72 731.06,-359.09"/>
<polygon fill="#63b8ff" stroke="#63b8ff" points="731.62,-362.57 740.35,-356.57 729.79,-355.81 731.62,-362.57"/>
</a>
</g>
</g>
<!-- Node34&#45;&gt;Node25 -->
<g id="edge42_Node000034_Node000025" class="edge">
<title>Node34&#45;&gt;Node25</title>
<g id="a_edge42_Node000034_Node000025"><a xlink:title=" ">
<path fill="none" stroke="#63b8ff" d="M642.16,-384.67C647.21,-382.32 652.07,-379.62 656.5,-376.5 678.31,-361.15 670.1,-342.97 692.5,-328.5 695.39,-326.63 698.44,-324.95 701.6,-323.42"/>
<polygon fill="#63b8ff" stroke="#63b8ff" points="702.7,-326.76 710.58,-319.68 700.01,-320.3 702.7,-326.76"/>
</a>
</g>
</g>
<!-- Node61&#45;&gt;Node4 -->
<g id="edge44_Node000061_Node000004" class="edge">
<title>Node61&#45;&gt;Node4</title>
<g id="a_edge44_Node000061_Node000004"><a xlink:title=" ">
<path fill="none" stroke="#63b8ff" d="M441.88,-634.72C451.95,-638.25 461.78,-643.3 469.5,-650.5 502.21,-681.02 472.84,-713.93 505.5,-744.5 509.49,-748.23 514.08,-751.36 518.97,-753.98"/>
<polygon fill="#63b8ff" stroke="#63b8ff" points="517.42,-757.12 527.97,-758.06 520.3,-750.75 517.42,-757.12"/>
</a>
</g>
</g>
<!-- Node62 -->
<g id="Node000062" class="node">
<title>Node62</title>
<g id="a_Node000062"><a xlink:href="classWavelengthRegistry.html#a46b3b0f51da19b9ec9d912cc79f1a633" target="_top" xlink:title="Emitted when the information for an existing wavelength is updated.">
<polygon fill="white" stroke="#666666" points="634.38,-641 527.62,-641 527.62,-612 634.38,-612 634.38,-641"/>
<text text-anchor="start" x="535.62" y="-627.5" font-family="Helvetica,sans-Serif" font-size="10.00">WavelengthRegistry</text>
<text text-anchor="middle" x="581" y="-617" font-family="Helvetica,sans-Serif" font-size="10.00">::wavelengthUpdated</text>
</a>
</g>
</g>
<!-- Node61&#45;&gt;Node62 -->
<g id="edge45_Node000061_Node000062" class="edge">
<title>Node61&#45;&gt;Node62</title>
<g id="a_edge45_Node000061_Node000062"><a xlink:title=" ">
<path fill="none" stroke="#63b8ff" d="M442.05,-626.5C464.81,-626.5 491.86,-626.5 515.94,-626.5"/>
<polygon fill="#63b8ff" stroke="#63b8ff" points="515.62,-630 525.62,-626.5 515.62,-623 515.62,-630"/>
</a>
</g>
</g>
<!-- Node66 -->
<g id="Node000066" class="node">
<title>Node66</title>
<g id="a_Node000066"><a xlink:href="classWavelengthCreator.html#a24c3f985c15ca20fd55863ddf0cbcece" target="_top" xlink:title="Private constructor to enforce the singleton pattern.">
<polygon fill="white" stroke="#666666" points="442.12,-123 337.62,-123 337.62,-94 442.12,-94 442.12,-123"/>
<text text-anchor="start" x="345.62" y="-109.5" font-family="Helvetica,sans-Serif" font-size="10.00">WavelengthCreator::</text>
<text text-anchor="middle" x="389.88" y="-99" font-family="Helvetica,sans-Serif" font-size="10.00">WavelengthCreator</text>
</a>
</g>
</g>
<!-- Node65&#45;&gt;Node66 -->
<g id="edge49_Node000065_Node000066" class="edge">
<title>Node65&#45;&gt;Node66</title>
<g id="a_edge49_Node000065_Node000066"><a xlink:title=" ">
<path fill="none" stroke="#63b8ff" d="M258.54,-108.5C279.57,-108.5 304.07,-108.5 326.12,-108.5"/>
<polygon fill="#63b8ff" stroke="#63b8ff" points="325.88,-112 335.88,-108.5 325.88,-105 325.88,-112"/>
</a>
</g>
</g>
<!-- Node68 -->
<g id="Node000068" class="node">
<title>Node68</title>
<g id="a_Node000068"><a xlink:href="classWavelengthStateManager.html#a9076f87f6e875d36b2853b946d94ce29" target="_top" xlink:title="Private constructor to enforce the singleton pattern.">
<polygon fill="white" stroke="#666666" points="456.38,-76 323.38,-76 323.38,-47 456.38,-47 456.38,-76"/>
<text text-anchor="start" x="331.38" y="-62.5" font-family="Helvetica,sans-Serif" font-size="10.00">WavelengthStateManager</text>
<text text-anchor="middle" x="389.88" y="-52" font-family="Helvetica,sans-Serif" font-size="10.00">::WavelengthStateManager</text>
</a>
</g>
</g>
<!-- Node67&#45;&gt;Node68 -->
<g id="edge51_Node000067_Node000068" class="edge">
<title>Node67&#45;&gt;Node68</title>
<g id="a_edge51_Node000067_Node000068"><a xlink:title=" ">
<path fill="none" stroke="#63b8ff" d="M269.76,-61.5C283.3,-61.5 297.76,-61.5 311.77,-61.5"/>
<polygon fill="#63b8ff" stroke="#63b8ff" points="311.37,-65 321.37,-61.5 311.37,-58 311.37,-65"/>
</a>
</g>
</g>
</g>
</svg>
