<?xml version="1.0" encoding="UTF-8" standalone="no"?>
<!DOCTYPE svg PUBLIC "-//W3C//DTD SVG 1.1//EN"
 "http://www.w3.org/Graphics/SVG/1.1/DTD/svg11.dtd">
<!-- Generated by graphviz version 12.2.1 (0)
 -->
<!-- Title: CommunicationStream::CommunicationStream Pages: 1 -->
<svg width="445pt" height="272pt"
 viewBox="0.00 0.00 444.50 272.00" xmlns="http://www.w3.org/2000/svg" xmlns:xlink="http://www.w3.org/1999/xlink">
<g id="graph0" class="graph" transform="scale(1 1) rotate(0) translate(4 268)">
<title>CommunicationStream::CommunicationStream</title>
<!-- Node1 -->
<g id="Node000001" class="node">
<title>Node1</title>
<g id="a_Node000001"><a xlink:title="Constructs a CommunicationStream widget. Initializes OpenGL format, timers for animation and glitches...">
<polygon fill="#999999" stroke="#666666" points="121.75,-146 0,-146 0,-117 121.75,-117 121.75,-146"/>
<text text-anchor="start" x="8" y="-132.5" font-family="Helvetica,sans-Serif" font-size="10.00">CommunicationStream</text>
<text text-anchor="middle" x="60.88" y="-122" font-family="Helvetica,sans-Serif" font-size="10.00">::CommunicationStream</text>
</a>
</g>
</g>
<!-- Node2 -->
<g id="Node000002" class="node">
<title>Node2</title>
<g id="a_Node000002"><a xlink:href="classWavelengthConfig.html#abc5ccf726876bf0f8a5a842b70a2e766" target="_top" xlink:title="Emitted when a configuration setting changes.">
<polygon fill="white" stroke="#666666" points="284.75,-264 157.75,-264 157.75,-235 284.75,-235 284.75,-264"/>
<text text-anchor="start" x="165.75" y="-250.5" font-family="Helvetica,sans-Serif" font-size="10.00">WavelengthConfig::config</text>
<text text-anchor="middle" x="221.25" y="-240" font-family="Helvetica,sans-Serif" font-size="10.00">Changed</text>
</a>
</g>
</g>
<!-- Node1&#45;&gt;Node2 -->
<g id="edge1_Node000001_Node000002" class="edge">
<title>Node1&#45;&gt;Node2</title>
<g id="a_edge1_Node000001_Node000002"><a xlink:title=" ">
<path fill="none" stroke="#63b8ff" d="M73.35,-146.35C89.95,-166.93 122.56,-204.11 157.75,-226.5 159.36,-227.52 161.02,-228.51 162.72,-229.46"/>
<polygon fill="#63b8ff" stroke="#63b8ff" points="160.93,-232.48 171.44,-233.84 164.07,-226.23 160.93,-232.48"/>
</a>
</g>
</g>
<!-- Node3 -->
<g id="Node000003" class="node">
<title>Node3</title>
<g id="a_Node000003"><a xlink:href="classTranslationManager.html#a370292d4133519fccf401a6b27b2f6a6" target="_top" xlink:title="Returns an instance of the TranslationManager singleton.">
<polygon fill="white" stroke="#666666" points="271.62,-217 170.88,-217 170.88,-188 271.62,-188 271.62,-217"/>
<text text-anchor="start" x="178.88" y="-203.5" font-family="Helvetica,sans-Serif" font-size="10.00">TranslationManager</text>
<text text-anchor="middle" x="221.25" y="-193" font-family="Helvetica,sans-Serif" font-size="10.00">::GetInstance</text>
</a>
</g>
</g>
<!-- Node1&#45;&gt;Node3 -->
<g id="edge2_Node000001_Node000003" class="edge">
<title>Node1&#45;&gt;Node3</title>
<g id="a_edge2_Node000001_Node000003"><a xlink:title=" ">
<path fill="none" stroke="#63b8ff" d="M89.59,-146.41C108.53,-156.34 134.35,-169.37 157.75,-179.5 160.73,-180.79 163.82,-182.08 166.94,-183.34"/>
<polygon fill="#63b8ff" stroke="#63b8ff" points="165.64,-186.59 176.23,-186.99 168.2,-180.08 165.64,-186.59"/>
</a>
</g>
</g>
<!-- Node5 -->
<g id="Node000005" class="node">
<title>Node5</title>
<g id="a_Node000005"><a xlink:href="classTranslationManager.html#ab6435893ce84a82ab11a7604aa9746d6" target="_top" xlink:title="Retrieves the translated string for the specified key.">
<polygon fill="white" stroke="#666666" points="271.62,-170 170.88,-170 170.88,-141 271.62,-141 271.62,-170"/>
<text text-anchor="start" x="178.88" y="-156.5" font-family="Helvetica,sans-Serif" font-size="10.00">TranslationManager</text>
<text text-anchor="middle" x="221.25" y="-146" font-family="Helvetica,sans-Serif" font-size="10.00">::Translate</text>
</a>
</g>
</g>
<!-- Node1&#45;&gt;Node5 -->
<g id="edge4_Node000001_Node000005" class="edge">
<title>Node1&#45;&gt;Node5</title>
<g id="a_edge4_Node000001_Node000005"><a xlink:title=" ">
<path fill="none" stroke="#63b8ff" d="M122.2,-140.64C134.26,-142.47 146.93,-144.39 159.02,-146.22"/>
<polygon fill="#63b8ff" stroke="#63b8ff" points="158.48,-149.68 168.89,-147.72 159.53,-142.76 158.48,-149.68"/>
</a>
</g>
</g>
<!-- Node6 -->
<g id="Node000006" class="node">
<title>Node6</title>
<g id="a_Node000006"><a xlink:href="classCommunicationStream.html#a1d9429e136bd752ee9cf57c4987f626c" target="_top" xlink:title="Slot called by glitch_timer_ to trigger random glitch effects during the Idle state.">
<polygon fill="white" stroke="#666666" points="279.12,-123 163.38,-123 163.38,-94 279.12,-94 279.12,-123"/>
<text text-anchor="start" x="171.38" y="-109.5" font-family="Helvetica,sans-Serif" font-size="10.00">CommunicationStream</text>
<text text-anchor="middle" x="221.25" y="-99" font-family="Helvetica,sans-Serif" font-size="10.00">::TriggerRandomGlitch</text>
</a>
</g>
</g>
<!-- Node1&#45;&gt;Node6 -->
<g id="edge5_Node000001_Node000006" class="edge">
<title>Node1&#45;&gt;Node6</title>
<g id="a_edge5_Node000001_Node000006"><a xlink:title=" ">
<path fill="none" stroke="#63b8ff" d="M122.2,-122.74C131.81,-121.34 141.82,-119.89 151.61,-118.47"/>
<polygon fill="#63b8ff" stroke="#63b8ff" points="152.07,-121.94 161.46,-117.04 151.06,-115.01 152.07,-121.94"/>
</a>
</g>
</g>
<!-- Node8 -->
<g id="Node000008" class="node">
<title>Node8</title>
<g id="a_Node000008"><a xlink:href="classCommunicationStream.html#ac554fcee7b44289519e0033a0c5f5f37" target="_top" xlink:title="Slot called by animation_timer_ to update animation time and parameters. Advances time offset,...">
<polygon fill="white" stroke="#666666" points="279.12,-76 163.38,-76 163.38,-47 279.12,-47 279.12,-76"/>
<text text-anchor="start" x="171.38" y="-62.5" font-family="Helvetica,sans-Serif" font-size="10.00">CommunicationStream</text>
<text text-anchor="middle" x="221.25" y="-52" font-family="Helvetica,sans-Serif" font-size="10.00">::UpdateAnimation</text>
</a>
</g>
</g>
<!-- Node1&#45;&gt;Node8 -->
<g id="edge7_Node000001_Node000008" class="edge">
<title>Node1&#45;&gt;Node8</title>
<g id="a_edge7_Node000001_Node000008"><a xlink:title=" ">
<path fill="none" stroke="#63b8ff" d="M91.39,-116.58C110.2,-107.26 135.2,-95.22 157.75,-85.5 161.55,-83.86 165.5,-82.22 169.49,-80.6"/>
<polygon fill="#63b8ff" stroke="#63b8ff" points="170.65,-83.9 178.64,-76.95 168.05,-77.4 170.65,-83.9"/>
</a>
</g>
</g>
<!-- Node9 -->
<g id="Node000009" class="node">
<title>Node9</title>
<g id="a_Node000009"><a xlink:href="classCommunicationStream.html#ae3e174a5a1078bf4ec8d1ae97d8e674a" target="_top" xlink:title="Slot called when a configuration setting changes in WavelengthConfig. Updates the stream color if the...">
<polygon fill="white" stroke="#666666" points="279.12,-29 163.38,-29 163.38,0 279.12,0 279.12,-29"/>
<text text-anchor="start" x="171.38" y="-15.5" font-family="Helvetica,sans-Serif" font-size="10.00">CommunicationStream</text>
<text text-anchor="middle" x="221.25" y="-5" font-family="Helvetica,sans-Serif" font-size="10.00">::UpdateStreamColor</text>
</a>
</g>
</g>
<!-- Node1&#45;&gt;Node9 -->
<g id="edge8_Node000001_Node000009" class="edge">
<title>Node1&#45;&gt;Node9</title>
<g id="a_edge8_Node000001_Node000009"><a xlink:title=" ">
<path fill="none" stroke="#63b8ff" d="M73.75,-116.71C90.57,-96.59 123.16,-60.59 157.75,-38.5 159.98,-37.07 162.31,-35.71 164.7,-34.41"/>
<polygon fill="#63b8ff" stroke="#63b8ff" points="166.02,-37.67 173.44,-30.11 162.93,-31.39 166.02,-37.67"/>
</a>
</g>
</g>
<!-- Node4 -->
<g id="Node000004" class="node">
<title>Node4</title>
<g id="a_Node000004"><a xlink:href="classTranslationManager.html#afcf7f2ccfdf410f09d0a740c1826a1f3" target="_top" xlink:title="Private constructor to enforce the singleton pattern.">
<polygon fill="white" stroke="#666666" points="432,-217 325.25,-217 325.25,-188 432,-188 432,-217"/>
<text text-anchor="start" x="333.25" y="-203.5" font-family="Helvetica,sans-Serif" font-size="10.00">TranslationManager</text>
<text text-anchor="middle" x="378.62" y="-193" font-family="Helvetica,sans-Serif" font-size="10.00">::TranslationManager</text>
</a>
</g>
</g>
<!-- Node3&#45;&gt;Node4 -->
<g id="edge3_Node000003_Node000004" class="edge">
<title>Node3&#45;&gt;Node4</title>
<g id="a_edge3_Node000003_Node000004"><a xlink:title=" ">
<path fill="none" stroke="#63b8ff" d="M271.84,-202.5C285.02,-202.5 299.45,-202.5 313.3,-202.5"/>
<polygon fill="#63b8ff" stroke="#63b8ff" points="313.24,-206 323.24,-202.5 313.24,-199 313.24,-206"/>
</a>
</g>
</g>
<!-- Node7 -->
<g id="Node000007" class="node">
<title>Node7</title>
<g id="a_Node000007"><a xlink:href="classCommunicationStream.html#afb372e0e2c10a955c7627d1cbe7ba408" target="_top" xlink:title="Starts a short, intense glitch animation.">
<polygon fill="white" stroke="#666666" points="436.5,-123 320.75,-123 320.75,-94 436.5,-94 436.5,-123"/>
<text text-anchor="start" x="328.75" y="-109.5" font-family="Helvetica,sans-Serif" font-size="10.00">CommunicationStream</text>
<text text-anchor="middle" x="378.62" y="-99" font-family="Helvetica,sans-Serif" font-size="10.00">::StartGlitchAnimation</text>
</a>
</g>
</g>
<!-- Node6&#45;&gt;Node7 -->
<g id="edge6_Node000006_Node000007" class="edge">
<title>Node6&#45;&gt;Node7</title>
<g id="a_edge6_Node000006_Node000007"><a xlink:title=" ">
<path fill="none" stroke="#63b8ff" d="M279.22,-108.5C288.87,-108.5 298.98,-108.5 308.89,-108.5"/>
<polygon fill="#63b8ff" stroke="#63b8ff" points="308.88,-112 318.88,-108.5 308.88,-105 308.88,-112"/>
</a>
</g>
</g>
</g>
</svg>
