<?xml version="1.0" encoding="UTF-8" standalone="no"?>
<!DOCTYPE svg PUBLIC "-//W3C//DTD SVG 1.1//EN"
 "http://www.w3.org/Graphics/SVG/1.1/DTD/svg11.dtd">
<!-- Generated by graphviz version 12.2.1 (0)
 -->
<!-- Title: MessageProcessor::GetInstance Pages: 1 -->
<svg width="349pt" height="55pt"
 viewBox="0.00 0.00 349.00 55.00" xmlns="http://www.w3.org/2000/svg" xmlns:xlink="http://www.w3.org/1999/xlink">
<g id="graph0" class="graph" transform="scale(1 1) rotate(0) translate(4 51)">
<title>MessageProcessor::GetInstance</title>
<!-- Node1 -->
<g id="Node000001" class="node">
<title>Node1</title>
<g id="a_Node000001"><a xlink:title="Gets the singleton instance of the MessageProcessor.">
<polygon fill="#999999" stroke="#666666" points="159.25,-23.75 0,-23.75 0,-5.25 159.25,-5.25 159.25,-23.75"/>
<text text-anchor="middle" x="79.62" y="-10.25" font-family="Helvetica,sans-Serif" font-size="10.00">MessageProcessor::GetInstance</text>
</a>
</g>
</g>
<!-- Node2 -->
<g id="Node000002" class="node">
<title>Node2</title>
<g id="a_Node000002"><a xlink:href="classMessageProcessor.html#af073515175802398f049574a52fe9795" target="_top" xlink:title="Deleted copy constructor to prevent copying.">
<polygon fill="white" stroke="#666666" points="341,-29 195.25,-29 195.25,0 341,0 341,-29"/>
<text text-anchor="start" x="203.25" y="-15.5" font-family="Helvetica,sans-Serif" font-size="10.00">MessageProcessor::Message</text>
<text text-anchor="middle" x="268.12" y="-5" font-family="Helvetica,sans-Serif" font-size="10.00">Processor</text>
</a>
</g>
</g>
<!-- Node1&#45;&gt;Node2 -->
<g id="edge1_Node000001_Node000002" class="edge">
<title>Node1&#45;&gt;Node2</title>
<g id="a_edge1_Node000001_Node000002"><a xlink:title=" ">
<path fill="none" stroke="#63b8ff" d="M159.72,-14.5C167.59,-14.5 175.6,-14.5 183.51,-14.5"/>
<polygon fill="#63b8ff" stroke="#63b8ff" points="183.5,-18 193.5,-14.5 183.5,-11 183.5,-18"/>
</a>
</g>
</g>
<!-- Node2&#45;&gt;Node2 -->
<g id="edge2_Node000002_Node000002" class="edge">
<title>Node2&#45;&gt;Node2</title>
<g id="a_edge2_Node000002_Node000002"><a xlink:title=" ">
<path fill="none" stroke="#63b8ff" d="M235.27,-29.21C227.35,-38.32 238.3,-47 268.12,-47 284.43,-47 295.1,-44.41 300.12,-40.56"/>
<polygon fill="#63b8ff" stroke="#63b8ff" points="303.6,-40.95 300.86,-30.72 296.62,-40.42 303.6,-40.95"/>
</a>
</g>
</g>
</g>
</svg>
