<?xml version="1.0" encoding="UTF-8" standalone="no"?>
<!DOCTYPE svg PUBLIC "-//W3C//DTD SVG 1.1//EN"
 "http://www.w3.org/Graphics/SVG/1.1/DTD/svg11.dtd">
<!-- Generated by graphviz version 12.2.1 (0)
 -->
<!-- Title: StreamMessage::StartShutdownAnimation Pages: 1 -->
<svg width="734pt" height="111pt"
 viewBox="0.00 0.00 734.25 110.50" xmlns="http://www.w3.org/2000/svg" xmlns:xlink="http://www.w3.org/1999/xlink">
<g id="graph0" class="graph" transform="scale(1 1) rotate(0) translate(4 106.5)">
<title>StreamMessage::StartShutdownAnimation</title>
<!-- Node1 -->
<g id="Node000001" class="node">
<title>Node1</title>
<g id="a_Node000001"><a xlink:title="Starts the electronic shutdown closing animation. Applies the ElectronicShutdownEffect and animates i...">
<polygon fill="#999999" stroke="#666666" points="726.25,-65.75 567.75,-65.75 567.75,-36.75 726.25,-36.75 726.25,-65.75"/>
<text text-anchor="start" x="575.75" y="-52.25" font-family="Helvetica,sans-Serif" font-size="10.00">StreamMessage::StartShutdown</text>
<text text-anchor="middle" x="647" y="-41.75" font-family="Helvetica,sans-Serif" font-size="10.00">Animation</text>
</a>
</g>
</g>
<!-- Node2 -->
<g id="Node000002" class="node">
<title>Node2</title>
<g id="a_Node000002"><a xlink:href="classStreamMessage.html#ad759a905d0a2cc1874d4781c97b9a2fc" target="_top" xlink:title="Marks the message as read, triggers the appropriate closing animation (Electronic Shutdown or a simpl...">
<polygon fill="white" stroke="#666666" points="531.75,-60.5 381.5,-60.5 381.5,-42 531.75,-42 531.75,-60.5"/>
<text text-anchor="middle" x="456.62" y="-47" font-family="Helvetica,sans-Serif" font-size="10.00">StreamMessage::MarkAsRead</text>
</a>
</g>
</g>
<!-- Node1&#45;&gt;Node2 -->
<g id="edge1_Node000001_Node000002" class="edge">
<title>Node1&#45;&gt;Node2</title>
<g id="a_edge1_Node000001_Node000002"><a xlink:title=" ">
<path fill="none" stroke="#63b8ff" d="M556.15,-51.25C548.09,-51.25 540,-51.25 532.1,-51.25"/>
<polygon fill="#63b8ff" stroke="#63b8ff" points="555.96,-54.75 565.96,-51.25 555.96,-47.75 555.96,-54.75"/>
</a>
</g>
</g>
<!-- Node3 -->
<g id="Node000003" class="node">
<title>Node3</title>
<g id="a_Node000003"><a xlink:href="classStreamMessage.html#a0f7169a7adfa4c161d395db0cc3fa244" target="_top" xlink:title="Overridden key press event handler. Handles Space/Enter to mark as read, and Left/Right arrows for na...">
<polygon fill="white" stroke="#666666" points="342.5,-102.5 184,-102.5 184,-84 342.5,-84 342.5,-102.5"/>
<text text-anchor="middle" x="263.25" y="-89" font-family="Helvetica,sans-Serif" font-size="10.00">StreamMessage::keyPressEvent</text>
</a>
</g>
</g>
<!-- Node2&#45;&gt;Node3 -->
<g id="edge2_Node000002_Node000003" class="edge">
<title>Node2&#45;&gt;Node3</title>
<g id="a_edge2_Node000002_Node000003"><a xlink:title=" ">
<path fill="none" stroke="#63b8ff" d="M400.37,-63.38C371.15,-69.79 335.76,-77.56 308.4,-83.56"/>
<polygon fill="#63b8ff" stroke="#63b8ff" points="400.74,-66.88 409.76,-61.32 399.24,-60.04 400.74,-66.88"/>
</a>
</g>
</g>
<!-- Node4 -->
<g id="Node000004" class="node">
<title>Node4</title>
<g id="a_Node000004"><a xlink:href="classCommunicationStream.html#a7cf62e4c83ddbf85a1bb47ddb8d9422b" target="_top" xlink:title="Slot triggered when the user requests to close the current message (e.g., clicks &quot;Read&quot; or presses En...">
<polygon fill="white" stroke="#666666" points="321.12,-65.75 205.38,-65.75 205.38,-36.75 321.12,-36.75 321.12,-65.75"/>
<text text-anchor="start" x="213.38" y="-52.25" font-family="Helvetica,sans-Serif" font-size="10.00">CommunicationStream</text>
<text text-anchor="middle" x="263.25" y="-41.75" font-family="Helvetica,sans-Serif" font-size="10.00">::OnMessageRead</text>
</a>
</g>
</g>
<!-- Node2&#45;&gt;Node4 -->
<g id="edge3_Node000002_Node000004" class="edge">
<title>Node2&#45;&gt;Node4</title>
<g id="a_edge3_Node000002_Node000004"><a xlink:title=" ">
<path fill="none" stroke="#63b8ff" d="M369.82,-51.25C353.42,-51.25 336.62,-51.25 321.4,-51.25"/>
<polygon fill="#63b8ff" stroke="#63b8ff" points="369.57,-54.75 379.57,-51.25 369.57,-47.75 369.57,-54.75"/>
</a>
</g>
</g>
<!-- Node13 -->
<g id="Node000013" class="node">
<title>Node13</title>
<g id="a_Node000013"><a xlink:href="classStreamMessage.html#a9857276cff1cb0de012614e87fee1ac4" target="_top" xlink:title="Constructs a StreamMessage widget. Initializes UI elements (layout, text display/label/scroll area),...">
<polygon fill="white" stroke="#666666" points="345.5,-18.5 181,-18.5 181,0 345.5,0 345.5,-18.5"/>
<text text-anchor="middle" x="263.25" y="-5" font-family="Helvetica,sans-Serif" font-size="10.00">StreamMessage::StreamMessage</text>
</a>
</g>
</g>
<!-- Node2&#45;&gt;Node13 -->
<g id="edge6_Node000002_Node000013" class="edge">
<title>Node2&#45;&gt;Node13</title>
<g id="a_edge6_Node000002_Node000013"><a xlink:title=" ">
<path fill="none" stroke="#63b8ff" d="M400.37,-39.12C371.15,-32.71 335.76,-24.94 308.4,-18.94"/>
<polygon fill="#63b8ff" stroke="#63b8ff" points="399.24,-42.46 409.76,-41.18 400.74,-35.62 399.24,-42.46"/>
</a>
</g>
</g>
<!-- Node5 -->
<g id="Node000005" class="node">
<title>Node5</title>
<g id="a_Node000005"><a xlink:href="classCommunicationStream.html#aa91c3c46034a10ca7393998082e26a25" target="_top" xlink:title="Connects the necessary signals (navigation, read, hidden) from a StreamMessage widget to this Communi...">
<polygon fill="#fff0f0" stroke="red" points="145,-88.75 0,-88.75 0,-59.75 145,-59.75 145,-88.75"/>
<text text-anchor="start" x="8" y="-75.25" font-family="Helvetica,sans-Serif" font-size="10.00">CommunicationStream</text>
<text text-anchor="middle" x="72.5" y="-64.75" font-family="Helvetica,sans-Serif" font-size="10.00">::ConnectSignalsForMessage</text>
</a>
</g>
</g>
<!-- Node4&#45;&gt;Node5 -->
<g id="edge4_Node000004_Node000005" class="edge">
<title>Node4&#45;&gt;Node5</title>
<g id="a_edge4_Node000004_Node000005"><a xlink:title=" ">
<path fill="none" stroke="#63b8ff" d="M193.87,-59.58C178.14,-61.5 161.37,-63.54 145.5,-65.48"/>
<polygon fill="#63b8ff" stroke="#63b8ff" points="194.1,-63.08 203.6,-58.4 193.25,-56.13 194.1,-63.08"/>
</a>
</g>
</g>
<!-- Node11 -->
<g id="Node000011" class="node">
<title>Node11</title>
<g id="a_Node000011"><a xlink:href="classCommunicationStream.html#a8a07b470a5e55591ef90260ad5ec60da" target="_top" xlink:title="Handles key presses for message navigation (Left/Right arrows) and closing (Enter).">
<polygon fill="white" stroke="#666666" points="130.38,-41.75 14.62,-41.75 14.62,-12.75 130.38,-12.75 130.38,-41.75"/>
<text text-anchor="start" x="22.62" y="-28.25" font-family="Helvetica,sans-Serif" font-size="10.00">CommunicationStream</text>
<text text-anchor="middle" x="72.5" y="-17.75" font-family="Helvetica,sans-Serif" font-size="10.00">::keyPressEvent</text>
</a>
</g>
</g>
<!-- Node4&#45;&gt;Node11 -->
<g id="edge5_Node000004_Node000011" class="edge">
<title>Node4&#45;&gt;Node11</title>
<g id="a_edge5_Node000004_Node000011"><a xlink:title=" ">
<path fill="none" stroke="#63b8ff" d="M193.83,-42.55C173.14,-39.92 150.65,-37.06 130.77,-34.53"/>
<polygon fill="#63b8ff" stroke="#63b8ff" points="193.24,-46 203.61,-43.79 194.13,-39.06 193.24,-46"/>
</a>
</g>
</g>
</g>
</svg>
