<?xml version="1.0" encoding="UTF-8" standalone="no"?>
<!DOCTYPE svg PUBLIC "-//W3C//DTD SVG 1.1//EN"
 "http://www.w3.org/Graphics/SVG/1.1/DTD/svg11.dtd">
<!-- Generated by graphviz version 12.2.1 (0)
 -->
<!-- Title: SessionCoordinator::LoadConfig Pages: 1 -->
<svg width="491pt" height="218pt"
 viewBox="0.00 0.00 491.00 218.00" xmlns="http://www.w3.org/2000/svg" xmlns:xlink="http://www.w3.org/1999/xlink">
<g id="graph0" class="graph" transform="scale(1 1) rotate(0) translate(4 214)">
<title>SessionCoordinator::LoadConfig</title>
<!-- Node1 -->
<g id="Node000001" class="node">
<title>Node1</title>
<g id="a_Node000001"><a xlink:title="Loads the application configuration using WavelengthConfig. Sets default values if the configuration ...">
<polygon fill="#999999" stroke="#666666" points="101.5,-118 0,-118 0,-89 101.5,-89 101.5,-118"/>
<text text-anchor="start" x="8" y="-104.5" font-family="Helvetica,sans-Serif" font-size="10.00">SessionCoordinator</text>
<text text-anchor="middle" x="50.75" y="-94" font-family="Helvetica,sans-Serif" font-size="10.00">::LoadConfig</text>
</a>
</g>
</g>
<!-- Node2 -->
<g id="Node000002" class="node">
<title>Node2</title>
<g id="a_Node000002"><a xlink:href="classWavelengthConfig.html#abe95f3b7789e1e60f7bd535352644c0d" target="_top" xlink:title="Gets the singleton instance of the WavelengthConfig.">
<polygon fill="white" stroke="#666666" points="293.75,-186.75 139.75,-186.75 139.75,-168.25 293.75,-168.25 293.75,-186.75"/>
<text text-anchor="middle" x="216.75" y="-173.25" font-family="Helvetica,sans-Serif" font-size="10.00">WavelengthConfig::GetInstance</text>
</a>
</g>
</g>
<!-- Node1&#45;&gt;Node2 -->
<g id="edge1_Node000001_Node000002" class="edge">
<title>Node1&#45;&gt;Node2</title>
<g id="a_edge1_Node000001_Node000002"><a xlink:title=" ">
<path fill="none" stroke="#63b8ff" d="M70.8,-118.37C87.52,-130.75 112.95,-148 137.5,-158.5 142.96,-160.84 148.77,-162.92 154.65,-164.77"/>
<polygon fill="#63b8ff" stroke="#63b8ff" points="153.24,-168.01 163.82,-167.44 155.19,-161.29 153.24,-168.01"/>
</a>
</g>
</g>
<!-- Node4 -->
<g id="Node000004" class="node">
<title>Node4</title>
<g id="a_Node000004"><a xlink:href="classWavelengthConfig.html#a2a5e77de67d363e23434a5c45c65ab78" target="_top" xlink:title="Gets a configuration setting value by its key. This provides a generic way to access settings,...">
<polygon fill="white" stroke="#666666" points="290.38,-149.75 143.12,-149.75 143.12,-131.25 290.38,-131.25 290.38,-149.75"/>
<text text-anchor="middle" x="216.75" y="-136.25" font-family="Helvetica,sans-Serif" font-size="10.00">WavelengthConfig::GetSetting</text>
</a>
</g>
</g>
<!-- Node1&#45;&gt;Node4 -->
<g id="edge4_Node000001_Node000004" class="edge">
<title>Node1&#45;&gt;Node4</title>
<g id="a_edge4_Node000001_Node000004"><a xlink:title=" ">
<path fill="none" stroke="#63b8ff" d="M101.85,-114.8C120.75,-119.07 142.32,-123.93 161.58,-128.28"/>
<polygon fill="#63b8ff" stroke="#63b8ff" points="160.61,-131.65 171.13,-130.43 162.15,-124.82 160.61,-131.65"/>
</a>
</g>
</g>
<!-- Node5 -->
<g id="Node000005" class="node">
<title>Node5</title>
<g id="a_Node000005"><a xlink:href="classWavelengthConfig.html#a1707a439a9504cd61ab2a43917c152ca" target="_top" xlink:title="Saves all current configuration settings to persistent storage (QSettings).">
<polygon fill="white" stroke="#666666" points="296,-112.75 137.5,-112.75 137.5,-94.25 296,-94.25 296,-112.75"/>
<text text-anchor="middle" x="216.75" y="-99.25" font-family="Helvetica,sans-Serif" font-size="10.00">WavelengthConfig::SaveSettings</text>
</a>
</g>
</g>
<!-- Node1&#45;&gt;Node5 -->
<g id="edge5_Node000001_Node000005" class="edge">
<title>Node1&#45;&gt;Node5</title>
<g id="a_edge5_Node000001_Node000005"><a xlink:title=" ">
<path fill="none" stroke="#63b8ff" d="M101.85,-103.5C109.55,-103.5 117.71,-103.5 125.96,-103.5"/>
<polygon fill="#63b8ff" stroke="#63b8ff" points="125.75,-107 135.75,-103.5 125.75,-100 125.75,-107"/>
</a>
</g>
</g>
<!-- Node6 -->
<g id="Node000006" class="node">
<title>Node6</title>
<g id="a_Node000006"><a xlink:href="classWavelengthConfig.html#a0ae0d877107f207bf625e2ca33ea64c0" target="_top" xlink:title="Sets the relay server address. Emits configChanged(&quot;relayServerAddress&quot;) if the value changes.">
<polygon fill="white" stroke="#666666" points="287,-76 146.5,-76 146.5,-47 287,-47 287,-76"/>
<text text-anchor="start" x="154.5" y="-62.5" font-family="Helvetica,sans-Serif" font-size="10.00">WavelengthConfig::SetRelay</text>
<text text-anchor="middle" x="216.75" y="-52" font-family="Helvetica,sans-Serif" font-size="10.00">ServerAddress</text>
</a>
</g>
</g>
<!-- Node1&#45;&gt;Node6 -->
<g id="edge6_Node000001_Node000006" class="edge">
<title>Node1&#45;&gt;Node6</title>
<g id="a_edge6_Node000001_Node000006"><a xlink:title=" ">
<path fill="none" stroke="#63b8ff" d="M101.85,-90.67C115.95,-87.06 131.53,-83.07 146.54,-79.22"/>
<polygon fill="#63b8ff" stroke="#63b8ff" points="147.05,-82.71 155.86,-76.84 145.31,-75.93 147.05,-82.71"/>
</a>
</g>
</g>
<!-- Node8 -->
<g id="Node000008" class="node">
<title>Node8</title>
<g id="a_Node000008"><a xlink:href="classWavelengthConfig.html#a20c80f355264bab3a33a956ed52d92ed" target="_top" xlink:title="Sets the relay server port. Emits configChanged(&quot;relayServerPort&quot;) if the value changes.">
<polygon fill="white" stroke="#666666" points="287,-29 146.5,-29 146.5,0 287,0 287,-29"/>
<text text-anchor="start" x="154.5" y="-15.5" font-family="Helvetica,sans-Serif" font-size="10.00">WavelengthConfig::SetRelay</text>
<text text-anchor="middle" x="216.75" y="-5" font-family="Helvetica,sans-Serif" font-size="10.00">ServerPort</text>
</a>
</g>
</g>
<!-- Node1&#45;&gt;Node8 -->
<g id="edge8_Node000001_Node000008" class="edge">
<title>Node1&#45;&gt;Node8</title>
<g id="a_edge8_Node000001_Node000008"><a xlink:title=" ">
<path fill="none" stroke="#63b8ff" d="M67.66,-88.68C84.05,-74.1 110.89,-52.12 137.5,-38.5 140.96,-36.73 144.57,-35.07 148.26,-33.5"/>
<polygon fill="#63b8ff" stroke="#63b8ff" points="149.38,-36.82 157.41,-29.92 146.82,-30.31 149.38,-36.82"/>
</a>
</g>
</g>
<!-- Node3 -->
<g id="Node000003" class="node">
<title>Node3</title>
<g id="a_Node000003"><a xlink:href="classWavelengthConfig.html#a85e6819278b90f10a1afe5e91ce05cbe" target="_top" xlink:title="Deleted copy constructor.">
<polygon fill="white" stroke="#666666" points="483,-192 332,-192 332,-163 483,-163 483,-192"/>
<text text-anchor="start" x="340" y="-178.5" font-family="Helvetica,sans-Serif" font-size="10.00">WavelengthConfig::Wavelength</text>
<text text-anchor="middle" x="407.5" y="-168" font-family="Helvetica,sans-Serif" font-size="10.00">Config</text>
</a>
</g>
</g>
<!-- Node2&#45;&gt;Node3 -->
<g id="edge2_Node000002_Node000003" class="edge">
<title>Node2&#45;&gt;Node3</title>
<g id="a_edge2_Node000002_Node000003"><a xlink:title=" ">
<path fill="none" stroke="#63b8ff" d="M294.25,-177.5C302.85,-177.5 311.65,-177.5 320.36,-177.5"/>
<polygon fill="#63b8ff" stroke="#63b8ff" points="320.21,-181 330.21,-177.5 320.21,-174 320.21,-181"/>
</a>
</g>
</g>
<!-- Node3&#45;&gt;Node3 -->
<g id="edge3_Node000003_Node000003" class="edge">
<title>Node3&#45;&gt;Node3</title>
<g id="a_edge3_Node000003_Node000003"><a xlink:title=" ">
<path fill="none" stroke="#63b8ff" d="M374.26,-192.21C366.24,-201.32 377.32,-210 407.5,-210 424,-210 434.8,-207.41 439.88,-203.56"/>
<polygon fill="#63b8ff" stroke="#63b8ff" points="443.36,-203.95 440.63,-193.72 436.38,-203.42 443.36,-203.95"/>
</a>
</g>
</g>
<!-- Node7 -->
<g id="Node000007" class="node">
<title>Node7</title>
<g id="a_Node000007"><a xlink:href="classWavelengthConfig.html#abc5ccf726876bf0f8a5a842b70a2e766" target="_top" xlink:title="Emitted when a configuration setting changes.">
<polygon fill="white" stroke="#666666" points="471,-53 344,-53 344,-24 471,-24 471,-53"/>
<text text-anchor="start" x="352" y="-39.5" font-family="Helvetica,sans-Serif" font-size="10.00">WavelengthConfig::config</text>
<text text-anchor="middle" x="407.5" y="-29" font-family="Helvetica,sans-Serif" font-size="10.00">Changed</text>
</a>
</g>
</g>
<!-- Node6&#45;&gt;Node7 -->
<g id="edge7_Node000006_Node000007" class="edge">
<title>Node6&#45;&gt;Node7</title>
<g id="a_edge7_Node000006_Node000007"><a xlink:title=" ">
<path fill="none" stroke="#63b8ff" d="M287.5,-53C302.14,-51.22 317.64,-49.33 332.43,-47.53"/>
<polygon fill="#63b8ff" stroke="#63b8ff" points="332.58,-51.03 342.08,-46.35 331.73,-44.08 332.58,-51.03"/>
</a>
</g>
</g>
<!-- Node8&#45;&gt;Node7 -->
<g id="edge9_Node000008_Node000007" class="edge">
<title>Node8&#45;&gt;Node7</title>
<g id="a_edge9_Node000008_Node000007"><a xlink:title=" ">
<path fill="none" stroke="#63b8ff" d="M287.5,-23.37C302.14,-25.23 317.64,-27.2 332.43,-29.08"/>
<polygon fill="#63b8ff" stroke="#63b8ff" points="331.72,-32.52 342.09,-30.31 332.61,-25.58 331.72,-32.52"/>
</a>
</g>
</g>
</g>
</svg>
