<?xml version="1.0" encoding="UTF-8" standalone="no"?>
<!DOCTYPE svg PUBLIC "-//W3C//DTD SVG 1.1//EN"
 "http://www.w3.org/Graphics/SVG/1.1/DTD/svg11.dtd">
<!-- Generated by graphviz version 12.2.1 (0)
 -->
<!-- Title: ChatView::SendMessage Pages: 1 -->
<svg width="729pt" height="398pt"
 viewBox="0.00 0.00 729.00 398.13" xmlns="http://www.w3.org/2000/svg" xmlns:xlink="http://www.w3.org/1999/xlink">
<g id="graph0" class="graph" transform="scale(1 1) rotate(0) translate(4 394.13)">
<title>ChatView::SendMessage</title>
<!-- Node1 -->
<g id="Node000001" class="node">
<title>Node1</title>
<g id="a_Node000001"><a xlink:title="Sends the text message currently in the input field. Clears the input field and sends the message via...">
<polygon fill="#999999" stroke="#666666" points="126.25,-210.13 0,-210.13 0,-191.63 126.25,-191.63 126.25,-210.13"/>
<text text-anchor="middle" x="63.12" y="-196.63" font-family="Helvetica,sans-Serif" font-size="10.00">ChatView::SendMessage</text>
</a>
</g>
</g>
<!-- Node2 -->
<g id="Node000002" class="node">
<title>Node2</title>
<g id="a_Node000002"><a xlink:href="classMessageService.html#a3d9355ae6f778ed4799141d921b6e7e4" target="_top" xlink:title="Gets the singleton instance of the MessageService.">
<polygon fill="white" stroke="#666666" points="311,-301.13 162.25,-301.13 162.25,-282.63 311,-282.63 311,-301.13"/>
<text text-anchor="middle" x="236.62" y="-287.63" font-family="Helvetica,sans-Serif" font-size="10.00">MessageService::GetInstance</text>
</a>
</g>
</g>
<!-- Node1&#45;&gt;Node2 -->
<g id="edge1_Node000001_Node000002" class="edge">
<title>Node1&#45;&gt;Node2</title>
<g id="a_edge1_Node000001_Node000002"><a xlink:title=" ">
<path fill="none" stroke="#63b8ff" d="M82.48,-210.62C112.39,-226.49 171.87,-258.05 207.25,-276.83"/>
<polygon fill="#63b8ff" stroke="#63b8ff" points="205.59,-279.91 216.07,-281.5 208.87,-273.72 205.59,-279.91"/>
</a>
</g>
</g>
<!-- Node4 -->
<g id="Node000004" class="node">
<title>Node4</title>
<g id="a_Node000004"><a xlink:href="classMessageService.html#ac1041f89fa4eed1b98556cc3f93c2077" target="_top" xlink:title="Sends a text message to the currently active frequency. Retrieves the active frequency and socket fro...">
<polygon fill="white" stroke="#666666" points="305,-194.38 168.25,-194.38 168.25,-165.38 305,-165.38 305,-194.38"/>
<text text-anchor="start" x="176.25" y="-180.88" font-family="Helvetica,sans-Serif" font-size="10.00">MessageService::SendText</text>
<text text-anchor="middle" x="236.62" y="-170.38" font-family="Helvetica,sans-Serif" font-size="10.00">Message</text>
</a>
</g>
</g>
<!-- Node1&#45;&gt;Node4 -->
<g id="edge4_Node000001_Node000004" class="edge">
<title>Node1&#45;&gt;Node4</title>
<g id="a_edge4_Node000001_Node000004"><a xlink:title=" ">
<path fill="none" stroke="#63b8ff" d="M126.53,-193.24C136.27,-192.05 146.44,-190.8 156.5,-189.57"/>
<polygon fill="#63b8ff" stroke="#63b8ff" points="156.77,-193.06 166.27,-188.37 155.92,-186.12 156.77,-193.06"/>
</a>
</g>
</g>
<!-- Node3 -->
<g id="Node000003" class="node">
<title>Node3</title>
<g id="a_Node000003"><a xlink:href="classMessageService.html#a2a6e9a079ac7a537b6342e1fb63a52dc" target="_top" xlink:title="Deleted copy constructor to prevent copying.">
<polygon fill="white" stroke="#666666" points="516,-372.13 347,-372.13 347,-353.63 516,-353.63 516,-372.13"/>
<text text-anchor="middle" x="431.5" y="-358.63" font-family="Helvetica,sans-Serif" font-size="10.00">MessageService::MessageService</text>
</a>
</g>
</g>
<!-- Node2&#45;&gt;Node3 -->
<g id="edge2_Node000002_Node000003" class="edge">
<title>Node2&#45;&gt;Node3</title>
<g id="a_edge2_Node000002_Node000003"><a xlink:title=" ">
<path fill="none" stroke="#63b8ff" d="M254.14,-301.44C275.11,-313.2 312.69,-333.06 347,-344.88 353.02,-346.95 359.37,-348.84 365.76,-350.54"/>
<polygon fill="#63b8ff" stroke="#63b8ff" points="364.51,-353.83 375.06,-352.86 366.2,-347.04 364.51,-353.83"/>
</a>
</g>
</g>
<!-- Node3&#45;&gt;Node3 -->
<g id="edge3_Node000003_Node000003" class="edge">
<title>Node3&#45;&gt;Node3</title>
<g id="a_edge3_Node000003_Node000003"><a xlink:title=" ">
<path fill="none" stroke="#63b8ff" d="M401.46,-372.38C386.85,-380.95 396.86,-390.13 431.5,-390.13 452.61,-390.13 464.57,-386.72 467.39,-382.12"/>
<polygon fill="#63b8ff" stroke="#63b8ff" points="470.47,-380.44 462.32,-373.67 464.46,-384.05 470.47,-380.44"/>
</a>
</g>
</g>
<!-- Node5 -->
<g id="Node000005" class="node">
<title>Node5</title>
<g id="a_Node000005"><a xlink:href="classAuthenticationManager.html#a746a91c33a014dad53ab34565fe5e64e" target="_top" xlink:title="Generates a unique client identifier.">
<polygon fill="white" stroke="#666666" points="489.38,-335.38 373.62,-335.38 373.62,-306.38 489.38,-306.38 489.38,-335.38"/>
<text text-anchor="start" x="381.62" y="-321.88" font-family="Helvetica,sans-Serif" font-size="10.00">AuthenticationManager</text>
<text text-anchor="middle" x="431.5" y="-311.38" font-family="Helvetica,sans-Serif" font-size="10.00">::GenerateClientId</text>
</a>
</g>
</g>
<!-- Node4&#45;&gt;Node5 -->
<g id="edge5_Node000004_Node000005" class="edge">
<title>Node4&#45;&gt;Node5</title>
<g id="a_edge5_Node000004_Node000005"><a xlink:title=" ">
<path fill="none" stroke="#63b8ff" d="M247.18,-194.66C264.17,-219.76 302.12,-270.61 347,-297.88 351.93,-300.88 357.26,-303.5 362.76,-305.78"/>
<polygon fill="#63b8ff" stroke="#63b8ff" points="361.47,-309.03 372.07,-309.24 363.91,-302.47 361.47,-309.03"/>
</a>
</g>
</g>
<!-- Node6 -->
<g id="Node000006" class="node">
<title>Node6</title>
<g id="a_Node000006"><a xlink:href="classMessageHandler.html#a0bd569db12a0dbcd30db0dc412691f0d" target="_top" xlink:title="Generates a unique message identifier using UUID.">
<polygon fill="white" stroke="#666666" points="499.12,-288.38 363.88,-288.38 363.88,-259.38 499.12,-259.38 499.12,-288.38"/>
<text text-anchor="start" x="371.88" y="-274.88" font-family="Helvetica,sans-Serif" font-size="10.00">MessageHandler::Generate</text>
<text text-anchor="middle" x="431.5" y="-264.38" font-family="Helvetica,sans-Serif" font-size="10.00">MessageId</text>
</a>
</g>
</g>
<!-- Node4&#45;&gt;Node6 -->
<g id="edge6_Node000004_Node000006" class="edge">
<title>Node4&#45;&gt;Node6</title>
<g id="a_edge6_Node000004_Node000006"><a xlink:title=" ">
<path fill="none" stroke="#63b8ff" d="M256.34,-194.61C277.34,-210.5 312.93,-235.57 347,-250.88 350.36,-252.39 353.84,-253.82 357.39,-255.18"/>
<polygon fill="#63b8ff" stroke="#63b8ff" points="356.17,-258.46 366.76,-258.5 358.51,-251.86 356.17,-258.46"/>
</a>
</g>
</g>
<!-- Node7 -->
<g id="Node000007" class="node">
<title>Node7</title>
<g id="a_Node000007"><a xlink:href="classWavelengthRegistry.html#a6ce8627bbb1db084bf76053aa92f9a47" target="_top" xlink:title="Gets the identifier of the currently active wavelength.">
<polygon fill="white" stroke="#666666" points="489,-241.38 374,-241.38 374,-212.38 489,-212.38 489,-241.38"/>
<text text-anchor="start" x="382" y="-227.88" font-family="Helvetica,sans-Serif" font-size="10.00">WavelengthRegistry</text>
<text text-anchor="middle" x="431.5" y="-217.38" font-family="Helvetica,sans-Serif" font-size="10.00">::GetActiveWavelength</text>
</a>
</g>
</g>
<!-- Node4&#45;&gt;Node7 -->
<g id="edge7_Node000004_Node000007" class="edge">
<title>Node4&#45;&gt;Node7</title>
<g id="a_edge7_Node000004_Node000007"><a xlink:title=" ">
<path fill="none" stroke="#63b8ff" d="M298.92,-194.82C319.21,-199.76 341.9,-205.29 362.65,-210.35"/>
<polygon fill="#63b8ff" stroke="#63b8ff" points="361.61,-213.7 372.16,-212.66 363.27,-206.9 361.61,-213.7"/>
</a>
</g>
</g>
<!-- Node8 -->
<g id="Node000008" class="node">
<title>Node8</title>
<g id="a_Node000008"><a xlink:href="classAuthenticationManager.html#abb3d14d1e380282208dbb4f533d129af" target="_top" xlink:title="Gets the singleton instance of the AuthenticationManager.">
<polygon fill="white" stroke="#666666" points="489.38,-194.38 373.62,-194.38 373.62,-165.38 489.38,-165.38 489.38,-194.38"/>
<text text-anchor="start" x="381.62" y="-180.88" font-family="Helvetica,sans-Serif" font-size="10.00">AuthenticationManager</text>
<text text-anchor="middle" x="431.5" y="-170.38" font-family="Helvetica,sans-Serif" font-size="10.00">::GetInstance</text>
</a>
</g>
</g>
<!-- Node4&#45;&gt;Node8 -->
<g id="edge8_Node000004_Node000008" class="edge">
<title>Node4&#45;&gt;Node8</title>
<g id="a_edge8_Node000004_Node000008"><a xlink:title=" ">
<path fill="none" stroke="#63b8ff" d="M305.35,-179.88C323.61,-179.88 343.37,-179.88 361.68,-179.88"/>
<polygon fill="#63b8ff" stroke="#63b8ff" points="361.65,-183.38 371.65,-179.88 361.65,-176.38 361.65,-183.38"/>
</a>
</g>
</g>
<!-- Node10 -->
<g id="Node000010" class="node">
<title>Node10</title>
<g id="a_Node000010"><a xlink:href="classMessageHandler.html#afa8afa05bb7b07783162bf420a91ac92" target="_top" xlink:title="Gets the singleton instance of the MessageHandler.">
<polygon fill="white" stroke="#666666" points="505.88,-147.13 357.12,-147.13 357.12,-128.63 505.88,-128.63 505.88,-147.13"/>
<text text-anchor="middle" x="431.5" y="-133.63" font-family="Helvetica,sans-Serif" font-size="10.00">MessageHandler::GetInstance</text>
</a>
</g>
</g>
<!-- Node4&#45;&gt;Node10 -->
<g id="edge10_Node000004_Node000010" class="edge">
<title>Node4&#45;&gt;Node10</title>
<g id="a_edge10_Node000004_Node000010"><a xlink:title=" ">
<path fill="none" stroke="#63b8ff" d="M305.35,-165.13C328.09,-160.18 353.17,-154.72 374.87,-149.99"/>
<polygon fill="#63b8ff" stroke="#63b8ff" points="375.38,-153.47 384.41,-147.92 373.89,-146.63 375.38,-153.47"/>
</a>
</g>
</g>
<!-- Node12 -->
<g id="Node000012" class="node">
<title>Node12</title>
<g id="a_Node000012"><a xlink:href="classWavelengthRegistry.html#a84a25c38915431306681e96df429f20f" target="_top" xlink:title="Gets the singleton instance of the WavelengthRegistry.">
<polygon fill="white" stroke="#666666" points="483,-110.38 380,-110.38 380,-81.38 483,-81.38 483,-110.38"/>
<text text-anchor="start" x="388" y="-96.88" font-family="Helvetica,sans-Serif" font-size="10.00">WavelengthRegistry</text>
<text text-anchor="middle" x="431.5" y="-86.38" font-family="Helvetica,sans-Serif" font-size="10.00">::GetInstance</text>
</a>
</g>
</g>
<!-- Node4&#45;&gt;Node12 -->
<g id="edge12_Node000004_Node000012" class="edge">
<title>Node4&#45;&gt;Node12</title>
<g id="a_edge12_Node000004_Node000012"><a xlink:title=" ">
<path fill="none" stroke="#63b8ff" d="M261.19,-164.95C282.85,-151.72 316.16,-132.59 347,-119.88 353.93,-117.02 361.32,-114.37 368.73,-111.95"/>
<polygon fill="#63b8ff" stroke="#63b8ff" points="369.6,-115.35 378.1,-109.03 367.51,-108.67 369.6,-115.35"/>
</a>
</g>
</g>
<!-- Node14 -->
<g id="Node000014" class="node">
<title>Node14</title>
<g id="a_Node000014"><a xlink:href="classWavelengthRegistry.html#a022bb5799d095b75026019791ebf5e34" target="_top" xlink:title="Retrieves the WavelengthInfo for a specific frequency.">
<polygon fill="white" stroke="#666666" points="483.75,-63.38 379.25,-63.38 379.25,-34.38 483.75,-34.38 483.75,-63.38"/>
<text text-anchor="start" x="387.25" y="-49.88" font-family="Helvetica,sans-Serif" font-size="10.00">WavelengthRegistry</text>
<text text-anchor="middle" x="431.5" y="-39.38" font-family="Helvetica,sans-Serif" font-size="10.00">::GetWavelengthInfo</text>
</a>
</g>
</g>
<!-- Node4&#45;&gt;Node14 -->
<g id="edge14_Node000004_Node000014" class="edge">
<title>Node4&#45;&gt;Node14</title>
<g id="a_edge14_Node000004_Node000014"><a xlink:title=" ">
<path fill="none" stroke="#63b8ff" d="M248.69,-165.09C266.74,-141.99 304.76,-97.47 347,-72.88 353.57,-69.06 360.79,-65.81 368.14,-63.06"/>
<polygon fill="#63b8ff" stroke="#63b8ff" points="369.19,-66.4 377.53,-59.86 366.94,-59.77 369.19,-66.4"/>
</a>
</g>
</g>
<!-- Node15 -->
<g id="Node000015" class="node">
<title>Node15</title>
<g id="a_Node000015"><a xlink:href="classWavelengthRegistry.html#a998a355d30053edcff8aac04c7d7dc55" target="_top" xlink:title="Checks if a wavelength with the given frequency exists in the registry.">
<polygon fill="white" stroke="#666666" points="688,-42.38 585,-42.38 585,-13.38 688,-13.38 688,-42.38"/>
<text text-anchor="start" x="593" y="-28.88" font-family="Helvetica,sans-Serif" font-size="10.00">WavelengthRegistry</text>
<text text-anchor="middle" x="636.5" y="-18.38" font-family="Helvetica,sans-Serif" font-size="10.00">::HasWavelength</text>
</a>
</g>
</g>
<!-- Node4&#45;&gt;Node15 -->
<g id="edge16_Node000004_Node000015" class="edge">
<title>Node4&#45;&gt;Node15</title>
<g id="a_edge16_Node000004_Node000015"><a xlink:title=" ">
<path fill="none" stroke="#63b8ff" d="M242.67,-165.32C254.75,-133.04 288.72,-55.97 347,-25.88 417.91,10.73 512.31,0.99 573.49,-11.58"/>
<polygon fill="#63b8ff" stroke="#63b8ff" points="572.52,-14.95 583.04,-13.63 574,-8.11 572.52,-14.95"/>
</a>
</g>
</g>
<!-- Node9 -->
<g id="Node000009" class="node">
<title>Node9</title>
<g id="a_Node000009"><a xlink:href="classAuthenticationManager.html#a3a24c8dc18303d4ad65c17aff6cdd705" target="_top" xlink:title="Private constructor to enforce the singleton pattern.">
<polygon fill="white" stroke="#666666" points="697.38,-194.38 575.62,-194.38 575.62,-165.38 697.38,-165.38 697.38,-194.38"/>
<text text-anchor="start" x="583.62" y="-180.88" font-family="Helvetica,sans-Serif" font-size="10.00">AuthenticationManager</text>
<text text-anchor="middle" x="636.5" y="-170.38" font-family="Helvetica,sans-Serif" font-size="10.00">::AuthenticationManager</text>
</a>
</g>
</g>
<!-- Node8&#45;&gt;Node9 -->
<g id="edge9_Node000008_Node000009" class="edge">
<title>Node8&#45;&gt;Node9</title>
<g id="a_edge9_Node000008_Node000009"><a xlink:title=" ">
<path fill="none" stroke="#63b8ff" d="M489.86,-179.88C512.93,-179.88 539.79,-179.88 564.11,-179.88"/>
<polygon fill="#63b8ff" stroke="#63b8ff" points="563.94,-183.38 573.94,-179.88 563.94,-176.38 563.94,-183.38"/>
</a>
</g>
</g>
<!-- Node11 -->
<g id="Node000011" class="node">
<title>Node11</title>
<g id="a_Node000011"><a xlink:href="classMessageHandler.html#ad3b43ca875118c1bafa19f354678cbec" target="_top" xlink:title="Private constructor to enforce the singleton pattern.">
<polygon fill="white" stroke="#666666" points="721,-147.13 552,-147.13 552,-128.63 721,-128.63 721,-147.13"/>
<text text-anchor="middle" x="636.5" y="-133.63" font-family="Helvetica,sans-Serif" font-size="10.00">MessageHandler::MessageHandler</text>
</a>
</g>
</g>
<!-- Node10&#45;&gt;Node11 -->
<g id="edge11_Node000010_Node000011" class="edge">
<title>Node10&#45;&gt;Node11</title>
<g id="a_edge11_Node000010_Node000011"><a xlink:title=" ">
<path fill="none" stroke="#63b8ff" d="M506.36,-137.88C517.41,-137.88 528.94,-137.88 540.36,-137.88"/>
<polygon fill="#63b8ff" stroke="#63b8ff" points="540.21,-141.38 550.21,-137.88 540.21,-134.38 540.21,-141.38"/>
</a>
</g>
</g>
<!-- Node13 -->
<g id="Node000013" class="node">
<title>Node13</title>
<g id="a_Node000013"><a xlink:href="classWavelengthRegistry.html#a5ad0b9c059e6c70af54fd27e35035e64" target="_top" xlink:title="Private constructor to enforce the singleton pattern. Initializes active_wavelength_ to &quot;&#45;1&quot;.">
<polygon fill="white" stroke="#666666" points="691,-110.38 582,-110.38 582,-81.38 691,-81.38 691,-110.38"/>
<text text-anchor="start" x="590" y="-96.88" font-family="Helvetica,sans-Serif" font-size="10.00">WavelengthRegistry</text>
<text text-anchor="middle" x="636.5" y="-86.38" font-family="Helvetica,sans-Serif" font-size="10.00">::WavelengthRegistry</text>
</a>
</g>
</g>
<!-- Node12&#45;&gt;Node13 -->
<g id="edge13_Node000012_Node000013" class="edge">
<title>Node12&#45;&gt;Node13</title>
<g id="a_edge13_Node000012_Node000013"><a xlink:title=" ">
<path fill="none" stroke="#63b8ff" d="M483.46,-95.88C509.79,-95.88 542.2,-95.88 570.32,-95.88"/>
<polygon fill="#63b8ff" stroke="#63b8ff" points="570.16,-99.38 580.16,-95.88 570.16,-92.38 570.16,-99.38"/>
</a>
</g>
</g>
<!-- Node14&#45;&gt;Node15 -->
<g id="edge15_Node000014_Node000015" class="edge">
<title>Node14&#45;&gt;Node15</title>
<g id="a_edge15_Node000014_Node000015"><a xlink:title=" ">
<path fill="none" stroke="#63b8ff" d="M483.99,-43.56C511.26,-40.73 544.95,-37.25 573.64,-34.28"/>
<polygon fill="#63b8ff" stroke="#63b8ff" points="573.68,-37.8 583.26,-33.29 572.96,-30.83 573.68,-37.8"/>
</a>
</g>
</g>
</g>
</svg>
