<?xml version="1.0" encoding="UTF-8" standalone="no"?>
<!DOCTYPE svg PUBLIC "-//W3C//DTD SVG 1.1//EN"
 "http://www.w3.org/Graphics/SVG/1.1/DTD/svg11.dtd">
<!-- Generated by graphviz version 12.2.1 (0)
 -->
<!-- Title: AttachmentPlaceholder::ShowFullSizeDialog Pages: 1 -->
<svg width="310pt" height="222pt"
 viewBox="0.00 0.00 310.00 221.75" xmlns="http://www.w3.org/2000/svg" xmlns:xlink="http://www.w3.org/1999/xlink">

<svg id="main" version="1.1" xmlns="http://www.w3.org/2000/svg" xmlns:xlink="http://www.w3.org/1999/xlink" xml:space="preserve">

<style type="text/css"><![CDATA[
.node, .edge {opacity: 0.7;}
.node.selected, .edge.selected {opacity: 1;}
.edge:hover path { stroke: red; }
.edge:hover polygon { stroke: red; fill: red; }
]]></style>
<script type="application/ecmascript" xlink:href="svg.min.js"/>
<svg id="graph" class="graph">
<g id="graph0" class="graph" transform="scale(1 1) rotate(0) translate(4 217.75)">
<title>AttachmentPlaceholder::ShowFullSizeDialog</title>
<!-- Node1 -->
<g id="Node000001" class="node">
<title>Node1</title>
<g id="a_Node000001"><a xlink:title="Creates and shows a non&#45;modal dialog to display the full&#45;size attachment (image or GIF)....">
<polygon fill="#999999" stroke="#666666" points="117.25,-115.75 0,-115.75 0,-86.75 117.25,-86.75 117.25,-115.75"/>
<text text-anchor="start" x="8" y="-102.25" font-family="Helvetica,sans-Serif" font-size="10.00">AttachmentPlaceholder</text>
<text text-anchor="middle" x="58.62" y="-91.75" font-family="Helvetica,sans-Serif" font-size="10.00">::ShowFullSizeDialog</text>
</a>
</g>
</g>
<!-- Node2 -->
<g id="Node000002" class="node">
<title>Node2</title>
<g id="a_Node000002"><a xlink:href="classAttachmentPlaceholder.html#a255e1bdfbb4daf874ce90b167fe12910" target="_top" xlink:title="Adjusts the size and position of the full&#45;size dialog and shows it. Calculates the preferred dialog s...">
<polygon fill="white" stroke="#666666" points="287.38,-213.75 167.88,-213.75 167.88,-184.75 287.38,-184.75 287.38,-213.75"/>
<text text-anchor="start" x="175.88" y="-200.25" font-family="Helvetica,sans-Serif" font-size="10.00">AttachmentPlaceholder</text>
<text text-anchor="middle" x="227.62" y="-189.75" font-family="Helvetica,sans-Serif" font-size="10.00">::AdjustAndShowDialog</text>
</a>
</g>
</g>
<!-- Node1&#45;&gt;Node2 -->
<g id="edge1_Node000001_Node000002" class="edge">
<title>Node1&#45;&gt;Node2</title>
<g id="a_edge1_Node000001_Node000002"><a xlink:title=" ">
<path fill="none" stroke="#63b8ff" d="M74.97,-116.23C92.57,-132.7 122.94,-158.99 153.25,-175.25 156.44,-176.96 159.77,-178.58 163.18,-180.1"/>
<polygon fill="#63b8ff" stroke="#63b8ff" points="161.6,-183.24 172.18,-183.82 164.27,-176.77 161.6,-183.24"/>
</a>
</g>
</g>
<!-- Node3 -->
<g id="Node000003" class="node">
<title>Node3</title>
<g id="a_Node000003"><a xlink:href="classGifPlayer.html#a9d015c1250b0652d7d04a9f1e6a87b4f" target="_top" xlink:title="Emitted after the GIF information (dimensions, duration, etc.) has been successfully received from th...">
<polygon fill="white" stroke="#666666" points="279.5,-166.5 175.75,-166.5 175.75,-148 279.5,-148 279.5,-166.5"/>
<text text-anchor="middle" x="227.62" y="-153" font-family="Helvetica,sans-Serif" font-size="10.00">GifPlayer::gifLoaded</text>
</a>
</g>
</g>
<!-- Node1&#45;&gt;Node3 -->
<g id="edge2_Node000001_Node000003" class="edge">
<title>Node1&#45;&gt;Node3</title>
<g id="a_edge2_Node000001_Node000003"><a xlink:title=" ">
<path fill="none" stroke="#63b8ff" d="M94.38,-116.16C111.85,-123.36 133.47,-131.81 153.25,-138.25 160.15,-140.5 167.47,-142.66 174.73,-144.66"/>
<polygon fill="#63b8ff" stroke="#63b8ff" points="173.59,-147.98 184.15,-147.19 175.4,-141.22 173.59,-147.98"/>
</a>
</g>
</g>
<!-- Node4 -->
<g id="Node000004" class="node">
<title>Node4</title>
<g id="a_Node000004"><a xlink:href="classImageViewer.html#a592fe08df0615189242b4b68a77fa504" target="_top" xlink:title="Emitted after the image information (dimensions, alpha) has been successfully received from the decod...">
<polygon fill="white" stroke="#666666" points="302,-129.5 153.25,-129.5 153.25,-111 302,-111 302,-129.5"/>
<text text-anchor="middle" x="227.62" y="-116" font-family="Helvetica,sans-Serif" font-size="10.00">ImageViewer::imageInfoReady</text>
</a>
</g>
</g>
<!-- Node1&#45;&gt;Node4 -->
<g id="edge3_Node000001_Node000004" class="edge">
<title>Node1&#45;&gt;Node4</title>
<g id="a_edge3_Node000001_Node000004"><a xlink:title=" ">
<path fill="none" stroke="#63b8ff" d="M117.56,-107.84C125.31,-108.72 133.39,-109.64 141.48,-110.56"/>
<polygon fill="#63b8ff" stroke="#63b8ff" points="141.07,-114.04 151.4,-111.69 141.86,-107.08 141.07,-114.04"/>
</a>
</g>
</g>
<!-- Node5 -->
<g id="Node000005" class="node">
<title>Node5</title>
<g id="a_Node000005"><a xlink:href="classImageViewer.html#a4dc697303dccbc44c425fd91f2bf2077" target="_top" xlink:title="Emitted after the image has been successfully decoded and set in the QLabel. Can be used by parent wi...">
<polygon fill="white" stroke="#666666" points="295.62,-92.5 159.62,-92.5 159.62,-74 295.62,-74 295.62,-92.5"/>
<text text-anchor="middle" x="227.62" y="-79" font-family="Helvetica,sans-Serif" font-size="10.00">ImageViewer::imageLoaded</text>
</a>
</g>
</g>
<!-- Node1&#45;&gt;Node5 -->
<g id="edge4_Node000001_Node000005" class="edge">
<title>Node1&#45;&gt;Node5</title>
<g id="a_edge4_Node000001_Node000005"><a xlink:title=" ">
<path fill="none" stroke="#63b8ff" d="M117.56,-95C127.46,-93.94 137.88,-92.82 148.2,-91.7"/>
<polygon fill="#63b8ff" stroke="#63b8ff" points="148.25,-95.22 157.82,-90.67 147.5,-88.26 148.25,-95.22"/>
</a>
</g>
</g>
<!-- Node6 -->
<g id="Node000006" class="node">
<title>Node6</title>
<g id="a_Node000006"><a xlink:href="classGifPlayer.html#a535a67f0bced639155af15997528b7cd" target="_top" xlink:title="Provides a size hint based on the original dimensions of the GIF. Returns the actual GIF width and he...">
<polygon fill="white" stroke="#666666" points="276.12,-55.5 179.12,-55.5 179.12,-37 276.12,-37 276.12,-55.5"/>
<text text-anchor="middle" x="227.62" y="-42" font-family="Helvetica,sans-Serif" font-size="10.00">GifPlayer::sizeHint</text>
</a>
</g>
</g>
<!-- Node1&#45;&gt;Node6 -->
<g id="edge5_Node000001_Node000006" class="edge">
<title>Node1&#45;&gt;Node6</title>
<g id="a_edge5_Node000001_Node000006"><a xlink:title=" ">
<path fill="none" stroke="#63b8ff" d="M95.74,-86.26C112.99,-79.39 134.01,-71.42 153.25,-65.25 160.16,-63.04 167.49,-60.89 174.75,-58.9"/>
<polygon fill="#63b8ff" stroke="#63b8ff" points="175.42,-62.34 184.17,-56.38 173.61,-55.58 175.42,-62.34"/>
</a>
</g>
</g>
<!-- Node7 -->
<g id="Node000007" class="node">
<title>Node7</title>
<g id="a_Node000007"><a xlink:href="classGifPlayer.html#a8e9d8e851a0d476b74fdf082b7519d35" target="_top" xlink:title="Starts or resumes GIF playback. Sets the is_playing_ flag and calls Resume() on the GifDecoder....">
<polygon fill="white" stroke="#666666" points="289.62,-18.5 165.62,-18.5 165.62,0 289.62,0 289.62,-18.5"/>
<text text-anchor="middle" x="227.62" y="-5" font-family="Helvetica,sans-Serif" font-size="10.00">GifPlayer::StartPlayback</text>
</a>
</g>
</g>
<!-- Node1&#45;&gt;Node7 -->
<g id="edge6_Node000001_Node000007" class="edge">
<title>Node1&#45;&gt;Node7</title>
<g id="a_edge6_Node000001_Node000007"><a xlink:title=" ">
<path fill="none" stroke="#63b8ff" d="M74.51,-86.43C91.94,-69.89 122.37,-43.46 153.25,-28.25 157.5,-26.16 162,-24.28 166.61,-22.59"/>
<polygon fill="#63b8ff" stroke="#63b8ff" points="167.63,-25.94 176.03,-19.48 165.43,-19.29 167.63,-25.94"/>
</a>
</g>
</g>
</g>
</svg>
</svg>

<style type='text/css'>
<![CDATA[
[data-mouse-over-selected='false'] { opacity: 0.7; }
[data-mouse-over-selected='true']  { opacity: 1.0; }
]]>
</style>
<script type="application/ecmascript"><![CDATA[
document.addEventListener('DOMContentLoaded', (event) => {
  highlightEdges();
  highlightAdjacentNodes();
});
]]></script>
</svg>
