<?xml version="1.0" encoding="UTF-8" standalone="no"?>
<!DOCTYPE svg PUBLIC "-//W3C//DTD SVG 1.1//EN"
 "http://www.w3.org/Graphics/SVG/1.1/DTD/svg11.dtd">
<!-- Generated by graphviz version 12.2.1 (0)
 -->
<!-- Title: MessageProcessor::ProcessWavelengthClosed Pages: 1 -->
<svg width="896pt" height="79pt"
 viewBox="0.00 0.00 895.75 79.00" xmlns="http://www.w3.org/2000/svg" xmlns:xlink="http://www.w3.org/1999/xlink">
<g id="graph0" class="graph" transform="scale(1 1) rotate(0) translate(4 75)">
<title>MessageProcessor::ProcessWavelengthClosed</title>
<!-- Node1 -->
<g id="Node000001" class="node">
<title>Node1</title>
<g id="a_Node000001"><a xlink:title="Processes messages indicating a wavelength was closed (e.g., &quot;wavelength_closed&quot;, &quot;close_wavelength&quot; ...">
<polygon fill="#999999" stroke="#666666" points="887.75,-50 745.75,-50 745.75,-21 887.75,-21 887.75,-50"/>
<text text-anchor="start" x="753.75" y="-36.5" font-family="Helvetica,sans-Serif" font-size="10.00">MessageProcessor::Process</text>
<text text-anchor="middle" x="816.75" y="-26" font-family="Helvetica,sans-Serif" font-size="10.00">WavelengthClosed</text>
</a>
</g>
</g>
<!-- Node2 -->
<g id="Node000002" class="node">
<title>Node2</title>
<g id="a_Node000002"><a xlink:href="classMessageProcessor.html#abdfefd4e6d33731ee50463441ea1a368" target="_top" xlink:title="Processes an incoming text message (JSON) received from the WebSocket. Parses the JSON,...">
<polygon fill="white" stroke="#666666" points="531.75,-50 389.75,-50 389.75,-21 531.75,-21 531.75,-50"/>
<text text-anchor="start" x="397.75" y="-36.5" font-family="Helvetica,sans-Serif" font-size="10.00">MessageProcessor::Process</text>
<text text-anchor="middle" x="460.75" y="-26" font-family="Helvetica,sans-Serif" font-size="10.00">IncomingMessage</text>
</a>
</g>
</g>
<!-- Node1&#45;&gt;Node2 -->
<g id="edge1_Node000001_Node000002" class="edge">
<title>Node1&#45;&gt;Node2</title>
<g id="a_edge1_Node000001_Node000002"><a xlink:title=" ">
<path fill="none" stroke="#63b8ff" d="M733.86,-38.05C725.71,-38.23 717.57,-38.39 709.75,-38.5 646.65,-39.39 630.85,-39.39 567.75,-38.5 556.24,-38.34 544.04,-38.08 532.16,-37.77"/>
<polygon fill="#63b8ff" stroke="#63b8ff" points="733.91,-41.55 743.83,-37.81 733.74,-34.55 733.91,-41.55"/>
</a>
</g>
</g>
<!-- Node10 -->
<g id="Node000010" class="node">
<title>Node10</title>
<g id="a_Node000010"><a xlink:href="classMessageProcessor.html#a901206afb9503ef54fdba2a2a594b5df" target="_top" xlink:title="Processes messages of type &quot;system_command&quot;. Handles commands like &quot;ping&quot;, &quot;close_wavelength&quot;,...">
<polygon fill="white" stroke="#666666" points="709.75,-29 567.75,-29 567.75,0 709.75,0 709.75,-29"/>
<text text-anchor="start" x="575.75" y="-15.5" font-family="Helvetica,sans-Serif" font-size="10.00">MessageProcessor::Process</text>
<text text-anchor="middle" x="638.75" y="-5" font-family="Helvetica,sans-Serif" font-size="10.00">SystemCommand</text>
</a>
</g>
</g>
<!-- Node1&#45;&gt;Node10 -->
<g id="edge5_Node000001_Node000010" class="edge">
<title>Node1&#45;&gt;Node10</title>
<g id="a_edge5_Node000001_Node000010"><a xlink:title=" ">
<path fill="none" stroke="#63b8ff" d="M734.2,-25.77C726.19,-24.81 718.12,-23.85 710.24,-22.91"/>
<polygon fill="#63b8ff" stroke="#63b8ff" points="733.58,-29.22 743.93,-26.93 734.41,-22.27 733.58,-29.22"/>
</a>
</g>
</g>
<!-- Node3 -->
<g id="Node000003" class="node">
<title>Node3</title>
<g id="a_Node000003"><a xlink:href="classMessageProcessor.html#ae0f85d4a5a3c92b0873e7889dfb79862" target="_top" xlink:title="Connects the appropriate slots of this processor to the signals of a given QWebSocket....">
<polygon fill="white" stroke="#666666" points="353.75,-50 202.75,-50 202.75,-21 353.75,-21 353.75,-50"/>
<text text-anchor="start" x="210.75" y="-36.5" font-family="Helvetica,sans-Serif" font-size="10.00">MessageProcessor::SetSocket</text>
<text text-anchor="middle" x="278.25" y="-26" font-family="Helvetica,sans-Serif" font-size="10.00">MessageHandlers</text>
</a>
</g>
</g>
<!-- Node2&#45;&gt;Node3 -->
<g id="edge2_Node000002_Node000003" class="edge">
<title>Node2&#45;&gt;Node3</title>
<g id="a_edge2_Node000002_Node000003"><a xlink:title=" ">
<path fill="none" stroke="#63b8ff" d="M378.2,-35.5C370.19,-35.5 362.08,-35.5 354.13,-35.5"/>
<polygon fill="#63b8ff" stroke="#63b8ff" points="377.93,-39 387.93,-35.5 377.93,-32 377.93,-39"/>
</a>
</g>
</g>
<!-- Node4 -->
<g id="Node000004" class="node">
<title>Node4</title>
<g id="a_Node000004"><a xlink:href="classWavelengthCreator.html#aceda419aab0bae7f3323bedfcb0ad6d1" target="_top" xlink:title="Attempts to create and register a new wavelength with the relay server. Checks if the wavelength alre...">
<polygon fill="#fff0f0" stroke="red" points="135.62,-71 31.12,-71 31.12,-42 135.62,-42 135.62,-71"/>
<text text-anchor="start" x="39.12" y="-57.5" font-family="Helvetica,sans-Serif" font-size="10.00">WavelengthCreator::</text>
<text text-anchor="middle" x="83.38" y="-47" font-family="Helvetica,sans-Serif" font-size="10.00">CreateWavelength</text>
</a>
</g>
</g>
<!-- Node3&#45;&gt;Node4 -->
<g id="edge3_Node000003_Node000004" class="edge">
<title>Node3&#45;&gt;Node4</title>
<g id="a_edge3_Node000003_Node000004"><a xlink:title=" ">
<path fill="none" stroke="#63b8ff" d="M191.09,-44.88C172.25,-46.93 152.89,-49.04 135.91,-50.89"/>
<polygon fill="#63b8ff" stroke="#63b8ff" points="191.34,-48.37 200.9,-43.81 190.58,-41.42 191.34,-48.37"/>
</a>
</g>
</g>
<!-- Node6 -->
<g id="Node000006" class="node">
<title>Node6</title>
<g id="a_Node000006"><a xlink:href="classWavelengthJoiner.html#a10830ee7f998cc18b6df1949455ae98e" target="_top" xlink:title="Attempts to join an existing wavelength hosted on the relay server. Checks if the wavelength is alrea...">
<polygon fill="#fff0f0" stroke="red" points="166.75,-23.75 0,-23.75 0,-5.25 166.75,-5.25 166.75,-23.75"/>
<text text-anchor="middle" x="83.38" y="-10.25" font-family="Helvetica,sans-Serif" font-size="10.00">WavelengthJoiner::JoinWavelength</text>
</a>
</g>
</g>
<!-- Node3&#45;&gt;Node6 -->
<g id="edge4_Node000003_Node000006" class="edge">
<title>Node3&#45;&gt;Node6</title>
<g id="a_edge4_Node000003_Node000006"><a xlink:title=" ">
<path fill="none" stroke="#63b8ff" d="M191.2,-26.13C183.22,-25.26 175.14,-24.38 167.18,-23.52"/>
<polygon fill="#63b8ff" stroke="#63b8ff" points="190.58,-29.58 200.9,-27.19 191.34,-22.63 190.58,-29.58"/>
</a>
</g>
</g>
<!-- Node10&#45;&gt;Node2 -->
<g id="edge6_Node000010_Node000002" class="edge">
<title>Node10&#45;&gt;Node2</title>
<g id="a_edge6_Node000010_Node000002"><a xlink:title=" ">
<path fill="none" stroke="#63b8ff" d="M556.2,-24.23C548.19,-25.19 540.12,-26.15 532.24,-27.09"/>
<polygon fill="#63b8ff" stroke="#63b8ff" points="556.41,-27.73 565.93,-23.07 555.58,-20.78 556.41,-27.73"/>
</a>
</g>
</g>
</g>
</svg>
