<?xml version="1.0" encoding="UTF-8" standalone="no"?>
<!DOCTYPE svg PUBLIC "-//W3C//DTD SVG 1.1//EN"
 "http://www.w3.org/Graphics/SVG/1.1/DTD/svg11.dtd">
<!-- Generated by graphviz version 12.2.1 (0)
 -->
<!-- Title: AppInstanceManager::onNewConnection Pages: 1 -->
<svg width="693pt" height="80pt"
 viewBox="0.00 0.00 693.25 80.00" xmlns="http://www.w3.org/2000/svg" xmlns:xlink="http://www.w3.org/1999/xlink">
<g id="graph0" class="graph" transform="scale(1 1) rotate(0) translate(4 76)">
<title>AppInstanceManager::onNewConnection</title>
<!-- Node1 -->
<g id="Node000001" class="node">
<title>Node1</title>
<g id="a_Node000001"><a xlink:title="Slot called when a new client attempts to connect to the server.">
<polygon fill="#999999" stroke="#666666" points="685.25,-50 577,-50 577,-21 685.25,-21 685.25,-50"/>
<text text-anchor="start" x="585" y="-36.5" font-family="Helvetica,sans-Serif" font-size="10.00">AppInstanceManager</text>
<text text-anchor="middle" x="631.12" y="-26" font-family="Helvetica,sans-Serif" font-size="10.00">::onNewConnection</text>
</a>
</g>
</g>
<!-- Node2 -->
<g id="Node000002" class="node">
<title>Node2</title>
<g id="a_Node000002"><a xlink:href="classAppInstanceManager.html#af09b098118800e025bcdce635b382ddd" target="_top" xlink:title="Sets up the QLocalServer for the creator instance.">
<polygon fill="white" stroke="#666666" points="541,-29 432.75,-29 432.75,0 541,0 541,-29"/>
<text text-anchor="start" x="440.75" y="-15.5" font-family="Helvetica,sans-Serif" font-size="10.00">AppInstanceManager</text>
<text text-anchor="middle" x="486.88" y="-5" font-family="Helvetica,sans-Serif" font-size="10.00">::SetupServer</text>
</a>
</g>
</g>
<!-- Node1&#45;&gt;Node2 -->
<g id="edge1_Node000001_Node000002" class="edge">
<title>Node1&#45;&gt;Node2</title>
<g id="a_edge1_Node000001_Node000002"><a xlink:title=" ">
<path fill="none" stroke="#63b8ff" d="M565.38,-25.94C557.24,-24.74 549,-23.52 541.07,-22.35"/>
<polygon fill="#63b8ff" stroke="#63b8ff" points="564.85,-29.4 575.25,-27.4 565.87,-22.48 564.85,-29.4"/>
</a>
</g>
</g>
<!-- Node3 -->
<g id="Node000003" class="node">
<title>Node3</title>
<g id="a_Node000003"><a xlink:href="classAppInstanceManager.html#a8087ee7ea64e087b39c66048becc8574" target="_top" xlink:title="Slot called when a connected socket disconnects. Handles cleanup and potential role change (the clien...">
<polygon fill="white" stroke="#666666" points="396.75,-72 288.5,-72 288.5,-43 396.75,-43 396.75,-72"/>
<text text-anchor="start" x="296.5" y="-58.5" font-family="Helvetica,sans-Serif" font-size="10.00">AppInstanceManager</text>
<text text-anchor="middle" x="342.62" y="-48" font-family="Helvetica,sans-Serif" font-size="10.00">::clientDisconnected</text>
</a>
</g>
</g>
<!-- Node2&#45;&gt;Node3 -->
<g id="edge2_Node000002_Node000003" class="edge">
<title>Node2&#45;&gt;Node3</title>
<g id="a_edge2_Node000002_Node000003"><a xlink:title=" ">
<path fill="none" stroke="#63b8ff" d="M425.73,-32.68C414.78,-35.99 403.48,-39.41 392.89,-42.61"/>
<polygon fill="#63b8ff" stroke="#63b8ff" points="426.51,-36.1 435.07,-29.86 424.49,-29.4 426.51,-36.1"/>
</a>
</g>
</g>
<!-- Node5 -->
<g id="Node000005" class="node">
<title>Node5</title>
<g id="a_Node000005"><a xlink:href="classAppInstanceManager.html#a1ecdc08b00d9aae9d33976f8ce90d6f5" target="_top" xlink:title="Starts the instance manager.">
<polygon fill="white" stroke="#666666" points="108.25,-50 0,-50 0,-21 108.25,-21 108.25,-50"/>
<text text-anchor="start" x="8" y="-36.5" font-family="Helvetica,sans-Serif" font-size="10.00">AppInstanceManager</text>
<text text-anchor="middle" x="54.12" y="-26" font-family="Helvetica,sans-Serif" font-size="10.00">::Start</text>
</a>
</g>
</g>
<!-- Node2&#45;&gt;Node5 -->
<g id="edge6_Node000002_Node000005" class="edge">
<title>Node2&#45;&gt;Node5</title>
<g id="a_edge6_Node000002_Node000005"><a xlink:title=" ">
<path fill="none" stroke="#63b8ff" d="M421.29,-17.65C336.12,-21.8 187.8,-29.03 108.59,-32.89"/>
<polygon fill="#63b8ff" stroke="#63b8ff" points="421.3,-21.15 431.11,-17.17 420.95,-14.16 421.3,-21.15"/>
</a>
</g>
</g>
<!-- Node3&#45;&gt;Node1 -->
<g id="edge5_Node000003_Node000001" class="edge">
<title>Node3&#45;&gt;Node1</title>
<g id="a_edge5_Node000003_Node000001"><a xlink:title=" ">
<path fill="none" stroke="#63b8ff" d="M408.09,-52.55C458.88,-48.65 528.84,-43.28 576.57,-39.61"/>
<polygon fill="#63b8ff" stroke="#63b8ff" points="408.13,-49.04 398.42,-53.29 408.66,-56.02 408.13,-49.04"/>
</a>
</g>
</g>
<!-- Node4 -->
<g id="Node000004" class="node">
<title>Node4</title>
<g id="a_Node000004"><a xlink:href="classAppInstanceManager.html#a6aa626dd1ea5e5c57860d532bdb85d5e" target="_top" xlink:title="Establishes a connection to the server instance for a client instance.">
<polygon fill="white" stroke="#666666" points="252.5,-72 144.25,-72 144.25,-43 252.5,-43 252.5,-72"/>
<text text-anchor="start" x="152.25" y="-58.5" font-family="Helvetica,sans-Serif" font-size="10.00">AppInstanceManager</text>
<text text-anchor="middle" x="198.38" y="-48" font-family="Helvetica,sans-Serif" font-size="10.00">::ConnectToServer</text>
</a>
</g>
</g>
<!-- Node3&#45;&gt;Node4 -->
<g id="edge3_Node000003_Node000004" class="edge">
<title>Node3&#45;&gt;Node4</title>
<g id="a_edge3_Node000003_Node000004"><a xlink:title=" ">
<path fill="none" stroke="#63b8ff" d="M276.88,-57.5C268.74,-57.5 260.5,-57.5 252.57,-57.5"/>
<polygon fill="#63b8ff" stroke="#63b8ff" points="276.74,-61 286.74,-57.5 276.74,-54 276.74,-61"/>
</a>
</g>
</g>
<!-- Node4&#45;&gt;Node5 -->
<g id="edge4_Node000004_Node000005" class="edge">
<title>Node4&#45;&gt;Node5</title>
<g id="a_edge4_Node000004_Node000005"><a xlink:title=" ">
<path fill="none" stroke="#63b8ff" d="M132.63,-47.49C124.49,-46.23 116.25,-44.95 108.32,-43.73"/>
<polygon fill="#63b8ff" stroke="#63b8ff" points="132.09,-50.94 142.51,-49.01 133.16,-44.03 132.09,-50.94"/>
</a>
</g>
</g>
</g>
</svg>
