<?xml version="1.0" encoding="UTF-8" standalone="no"?>
<!DOCTYPE svg PUBLIC "-//W3C//DTD SVG 1.1//EN"
 "http://www.w3.org/Graphics/SVG/1.1/DTD/svg11.dtd">
<!-- Generated by graphviz version 12.2.1 (0)
 -->
<!-- Title: CommunicationStream::OnMessageRead Pages: 1 -->
<!--zoomable 279 -->

<svg id="main" version="1.1" xmlns="http://www.w3.org/2000/svg" xmlns:xlink="http://www.w3.org/1999/xlink" xml:space="preserve" onload="init(evt)">

<style type="text/css"><![CDATA[
.node, .edge {opacity: 0.7;}
.node.selected, .edge.selected {opacity: 1;}
.edge:hover path { stroke: red; }
.edge:hover polygon { stroke: red; fill: red; }
]]></style>

<defs>
  <circle id="rim" cx="0" cy="0" r="7"/>
  <circle id="rim2" cx="0" cy="0" r="3.5"/>
  <g id="zoomPlus">
    <use xlink:href="#rim" fill="#404040"><set attributeName="fill" to="#808080" begin="zoomplus.mouseover" end="zoomplus.mouseout"/></use>
    <path d="M-4,0h8M0,-4v8" fill="none" stroke="white" stroke-width="1.5" pointer-events="none"/>
  </g>
  <g id="zoomMin">
    <use xlink:href="#rim" fill="#404040"><set attributeName="fill" to="#808080" begin="zoomminus.mouseover" end="zoomminus.mouseout"/></use>
    <path d="M-4,0h8" fill="none" stroke="white" stroke-width="1.5" pointer-events="none"/>
  </g>
  <g id="arrowUp" transform="translate(30 24)">
    <use xlink:href="#rim"/>
    <path pointer-events="none" fill="none" stroke="white" stroke-width="1.5" d="M0,-3.0v7 M-2.5,-0.5L0,-3.0L2.5,-0.5"/>
  </g>
  <g id="arrowRight" transform="rotate(90) translate(36 -43)">
    <use xlink:href="#rim"/>
    <path pointer-events="none" fill="none" stroke="white" stroke-width="1.5" d="M0,-3.0v7 M-2.5,-0.5L0,-3.0L2.5,-0.5"/>
  </g>
  <g id="arrowDown" transform="rotate(180) translate(-30 -48)">
    <use xlink:href="#rim"/>
    <path pointer-events="none" fill="none" stroke="white" stroke-width="1.5" d="M0,-3.0v7 M-2.5,-0.5L0,-3.0L2.5,-0.5"/>
  </g>
  <g id="arrowLeft" transform="rotate(270) translate(-36 17)">
    <use xlink:href="#rim"/>
    <path pointer-events="none" fill="none" stroke="white" stroke-width="1.5" d="M0,-3.0v7 M-2.5,-0.5L0,-3.0L2.5,-0.5"/>
  </g>
  <g id="resetDef">
    <use xlink:href="#rim2" fill="#404040"><set attributeName="fill" to="#808080" begin="reset.mouseover" end="reset.mouseout"/></use>
  </g>
</defs>
<script type="application/ecmascript">
var viewWidth = 798;
var viewHeight = 279;
var sectionId = 'dynsection-14';
</script>
<script type="application/ecmascript" xlink:href="svg.min.js"/>
<svg id="graph" class="graph">
<g id="viewport">
<title>CommunicationStream::OnMessageRead</title>
<!-- Node1 -->
<g id="Node000001" class="node">
<title>Node1</title>
<g id="a_Node000001"><a xlink:title="Slot triggered when the user requests to close the current message (e.g., clicks &quot;Read&quot; or presses En...">
<polygon fill="#999999" stroke="#666666" points="790.25,-93.66 674.5,-93.66 674.5,-64.66 790.25,-64.66 790.25,-93.66"/>
<text text-anchor="start" x="682.5" y="-80.16" font-family="Helvetica,sans-Serif" font-size="10.00">CommunicationStream</text>
<text text-anchor="middle" x="732.38" y="-69.66" font-family="Helvetica,sans-Serif" font-size="10.00">::OnMessageRead</text>
</a>
</g>
</g>
<!-- Node2 -->
<g id="Node000002" class="node">
<title>Node2</title>
<g id="a_Node000002"><a xlink:href="classCommunicationStream.html#aa91c3c46034a10ca7393998082e26a25" target="_top" xlink:title="Connects the necessary signals (navigation, read, hidden) from a StreamMessage widget to this Communi...">
<polygon fill="white" stroke="#666666" points="638.5,-150.66 493.5,-150.66 493.5,-121.66 638.5,-121.66 638.5,-150.66"/>
<text text-anchor="start" x="501.5" y="-137.16" font-family="Helvetica,sans-Serif" font-size="10.00">CommunicationStream</text>
<text text-anchor="middle" x="566" y="-126.66" font-family="Helvetica,sans-Serif" font-size="10.00">::ConnectSignalsForMessage</text>
</a>
</g>
</g>
<!-- Node1&#45;&gt;Node2 -->
<g id="edge1_Node000001_Node000002" class="edge">
<title>Node1&#45;&gt;Node2</title>
<g id="a_edge1_Node000001_Node000002"><a xlink:title=" ">
<path fill="none" stroke="#63b8ff" d="M677.42,-97.86C655.61,-105.43 630.77,-114.04 610.18,-121.18"/>
<polygon fill="#63b8ff" stroke="#63b8ff" points="678.46,-101.21 686.76,-94.63 676.16,-94.6 678.46,-101.21"/>
</a>
</g>
</g>
<!-- Node8 -->
<g id="Node000008" class="node">
<title>Node8</title>
<g id="a_Node000008"><a xlink:href="classCommunicationStream.html#a8a07b470a5e55591ef90260ad5ec60da" target="_top" xlink:title="Handles key presses for message navigation (Left/Right arrows) and closing (Enter).">
<polygon fill="white" stroke="#666666" points="115.75,-173.66 0,-173.66 0,-144.66 115.75,-144.66 115.75,-173.66"/>
<text text-anchor="start" x="8" y="-160.16" font-family="Helvetica,sans-Serif" font-size="10.00">CommunicationStream</text>
<text text-anchor="middle" x="57.88" y="-149.66" font-family="Helvetica,sans-Serif" font-size="10.00">::keyPressEvent</text>
</a>
</g>
</g>
<!-- Node1&#45;&gt;Node8 -->
<g id="edge15_Node000001_Node000008" class="edge">
<title>Node1&#45;&gt;Node8</title>
<g id="a_edge15_Node000001_Node000008"><a xlink:title=" ">
<path fill="none" stroke="#63b8ff" d="M681.82,-60.44C577.62,-24.29 330.69,44.26 151.75,-42.16 107.15,-63.7 77.4,-118.22 65.17,-144.52"/>
<polygon fill="#63b8ff" stroke="#63b8ff" points="680.61,-63.72 691.2,-63.75 682.94,-57.12 680.61,-63.72"/>
</a>
</g>
</g>
<!-- Node3 -->
<g id="Node000003" class="node">
<title>Node3</title>
<g id="a_Node000003"><a xlink:href="classCommunicationStream.html#ae3b9b361caa5123daac847c60475d605" target="_top" xlink:title="Adds a new standard message to the stream. Initiates the receiving animation. The message is displaye...">
<polygon fill="white" stroke="#666666" points="284.38,-126.66 168.62,-126.66 168.62,-97.66 284.38,-97.66 284.38,-126.66"/>
<text text-anchor="start" x="176.62" y="-113.16" font-family="Helvetica,sans-Serif" font-size="10.00">CommunicationStream</text>
<text text-anchor="middle" x="226.5" y="-102.66" font-family="Helvetica,sans-Serif" font-size="10.00">::AddMessage</text>
</a>
</g>
</g>
<!-- Node2&#45;&gt;Node3 -->
<g id="edge2_Node000002_Node000003" class="edge">
<title>Node2&#45;&gt;Node3</title>
<g id="a_edge2_Node000002_Node000003"><a xlink:title=" ">
<path fill="none" stroke="#63b8ff" d="M481.83,-130.24C420.59,-125.89 338.92,-120.08 284.84,-116.23"/>
<polygon fill="#63b8ff" stroke="#63b8ff" points="481.28,-133.71 491.5,-130.93 481.78,-126.73 481.28,-133.71"/>
</a>
</g>
</g>
<!-- Node4 -->
<g id="Node000004" class="node">
<title>Node4</title>
<g id="a_Node000004"><a xlink:href="classCommunicationStream.html#a10a56a4dc3eeeaf4865d0f63f077e3bf" target="_top" xlink:title="Adds a new message with attachment content to the stream. Initiates the receiving animation....">
<polygon fill="white" stroke="#666666" points="301.25,-79.66 151.75,-79.66 151.75,-50.66 301.25,-50.66 301.25,-79.66"/>
<text text-anchor="start" x="159.75" y="-66.16" font-family="Helvetica,sans-Serif" font-size="10.00">CommunicationStream</text>
<text text-anchor="middle" x="226.5" y="-55.66" font-family="Helvetica,sans-Serif" font-size="10.00">::AddMessageWithAttachment</text>
</a>
</g>
</g>
<!-- Node2&#45;&gt;Node4 -->
<g id="edge3_Node000002_Node000004" class="edge">
<title>Node2&#45;&gt;Node4</title>
<g id="a_edge3_Node000002_Node000004"><a xlink:title=" ">
<path fill="none" stroke="#63b8ff" d="M482.81,-118.87C426.44,-107.01 352.39,-91.43 298.57,-80.11"/>
<polygon fill="#63b8ff" stroke="#63b8ff" points="481.85,-122.24 492.36,-120.87 483.29,-115.39 481.85,-122.24"/>
</a>
</g>
</g>
<!-- Node5 -->
<g id="Node000005" class="node">
<title>Node5</title>
<g id="a_Node000005"><a xlink:href="classCommunicationStream.html#aba44a533978e83748764534a8682c56f" target="_top" xlink:title="Displays the message at the specified index in the messages_ list. Hides the previously displayed mes...">
<polygon fill="white" stroke="#666666" points="457.5,-193.66 337.25,-193.66 337.25,-164.66 457.5,-164.66 457.5,-193.66"/>
<text text-anchor="start" x="345.25" y="-180.16" font-family="Helvetica,sans-Serif" font-size="10.00">CommunicationStream</text>
<text text-anchor="middle" x="397.38" y="-169.66" font-family="Helvetica,sans-Serif" font-size="10.00">::ShowMessageAtIndex</text>
</a>
</g>
</g>
<!-- Node2&#45;&gt;Node5 -->
<g id="edge4_Node000002_Node000005" class="edge">
<title>Node2&#45;&gt;Node5</title>
<g id="a_edge4_Node000002_Node000005"><a xlink:title=" ">
<path fill="none" stroke="#63b8ff" d="M496.22,-153.91C482.97,-157.32 469.22,-160.87 456.36,-164.19"/>
<polygon fill="#63b8ff" stroke="#63b8ff" points="496.92,-157.34 505.72,-151.45 495.17,-150.56 496.92,-157.34"/>
</a>
</g>
</g>
<!-- Node5&#45;&gt;Node3 -->
<g id="edge5_Node000005_Node000003" class="edge">
<title>Node5&#45;&gt;Node3</title>
<g id="a_edge5_Node000005_Node000003"><a xlink:title=" ">
<path fill="none" stroke="#63b8ff" d="M355.9,-159.67C339.16,-151.93 319.44,-143.2 301.25,-136.16 293.21,-133.04 284.59,-129.99 276.17,-127.15"/>
<polygon fill="#63b8ff" stroke="#63b8ff" points="353.98,-162.64 364.52,-163.7 356.94,-156.3 353.98,-162.64"/>
</a>
</g>
</g>
<!-- Node5&#45;&gt;Node4 -->
<g id="edge6_Node000005_Node000004" class="edge">
<title>Node5&#45;&gt;Node4</title>
<g id="a_edge6_Node000005_Node000004"><a xlink:title=" ">
<path fill="none" stroke="#63b8ff" d="M376.96,-155.65C359.15,-135.46 331.08,-106.88 301.25,-89.16 295.46,-85.72 289.12,-82.7 282.67,-80.09"/>
<polygon fill="#63b8ff" stroke="#63b8ff" points="374.22,-157.83 383.4,-163.12 379.52,-153.26 374.22,-157.83"/>
</a>
</g>
</g>
<!-- Node6 -->
<g id="Node000006" class="node">
<title>Node6</title>
<g id="a_Node000006"><a xlink:href="classCommunicationStream.html#a2283a11febe30f9d2d1887c2c20e7ea3" target="_top" xlink:title="Slot triggered when a StreamMessage widget finishes its hiding animation (or is hidden)....">
<polygon fill="white" stroke="#666666" points="288.12,-270.66 164.88,-270.66 164.88,-241.66 288.12,-241.66 288.12,-270.66"/>
<text text-anchor="start" x="172.88" y="-257.16" font-family="Helvetica,sans-Serif" font-size="10.00">CommunicationStream</text>
<text text-anchor="middle" x="226.5" y="-246.66" font-family="Helvetica,sans-Serif" font-size="10.00">::HandleMessageHidden</text>
</a>
</g>
</g>
<!-- Node5&#45;&gt;Node6 -->
<g id="edge7_Node000005_Node000006" class="edge">
<title>Node5&#45;&gt;Node6</title>
<g id="a_edge7_Node000005_Node000006"><a xlink:title=" ">
<path fill="none" stroke="#63b8ff" d="M361.2,-199.68C343.53,-209.56 321.6,-221.18 301.25,-230.16 292.31,-234.1 282.56,-237.88 273.17,-241.28"/>
<polygon fill="#63b8ff" stroke="#63b8ff" points="362.77,-202.81 369.75,-194.84 359.32,-196.72 362.77,-202.81"/>
</a>
</g>
</g>
<!-- Node7 -->
<g id="Node000007" class="node">
<title>Node7</title>
<g id="a_Node000007"><a xlink:href="classCommunicationStream.html#a600acedc2f4f586b28c147077f768438" target="_top" xlink:title="Shows the next message in the list, if available.">
<polygon fill="white" stroke="#666666" points="284.38,-220.66 168.62,-220.66 168.62,-191.66 284.38,-191.66 284.38,-220.66"/>
<text text-anchor="start" x="176.62" y="-207.16" font-family="Helvetica,sans-Serif" font-size="10.00">CommunicationStream</text>
<text text-anchor="middle" x="226.5" y="-196.66" font-family="Helvetica,sans-Serif" font-size="10.00">::ShowNextMessage</text>
</a>
</g>
</g>
<!-- Node5&#45;&gt;Node7 -->
<g id="edge9_Node000005_Node000007" class="edge">
<title>Node5&#45;&gt;Node7</title>
<g id="a_edge9_Node000005_Node000007"><a xlink:title=" ">
<path fill="none" stroke="#63b8ff" d="M325.57,-190.48C311.97,-192.65 297.9,-194.9 284.8,-196.99"/>
<polygon fill="#63b8ff" stroke="#63b8ff" points="326.02,-193.95 335.34,-188.91 324.91,-187.04 326.02,-193.95"/>
</a>
</g>
</g>
<!-- Node9 -->
<g id="Node000009" class="node">
<title>Node9</title>
<g id="a_Node000009"><a xlink:href="classCommunicationStream.html#a918c54f07703dce3733f2aec5b09503d" target="_top" xlink:title="Shows the previous message in the list, if available.">
<polygon fill="white" stroke="#666666" points="288.88,-173.66 164.12,-173.66 164.12,-144.66 288.88,-144.66 288.88,-173.66"/>
<text text-anchor="start" x="172.12" y="-160.16" font-family="Helvetica,sans-Serif" font-size="10.00">CommunicationStream</text>
<text text-anchor="middle" x="226.5" y="-149.66" font-family="Helvetica,sans-Serif" font-size="10.00">::ShowPreviousMessage</text>
</a>
</g>
</g>
<!-- Node5&#45;&gt;Node9 -->
<g id="edge12_Node000005_Node000009" class="edge">
<title>Node5&#45;&gt;Node9</title>
<g id="a_edge12_Node000005_Node000009"><a xlink:title=" ">
<path fill="none" stroke="#63b8ff" d="M325.48,-170.76C313.48,-169.34 301.1,-167.87 289.36,-166.48"/>
<polygon fill="#63b8ff" stroke="#63b8ff" points="324.99,-174.23 335.33,-171.93 325.81,-167.27 324.99,-174.23"/>
</a>
</g>
</g>
<!-- Node6&#45;&gt;Node2 -->
<g id="edge8_Node000006_Node000002" class="edge">
<title>Node6&#45;&gt;Node2</title>
<g id="a_edge8_Node000006_Node000002"><a xlink:title=" ">
<path fill="none" stroke="#63b8ff" d="M299.78,-256.07C346.51,-253.65 407.68,-245.94 457.5,-224.16 496.84,-206.96 533.44,-171.13 552.1,-150.9"/>
<polygon fill="#63b8ff" stroke="#63b8ff" points="299.88,-252.56 290.04,-256.5 300.19,-259.56 299.88,-252.56"/>
</a>
</g>
</g>
<!-- Node7&#45;&gt;Node2 -->
<g id="edge10_Node000007_Node000002" class="edge">
<title>Node7&#45;&gt;Node2</title>
<g id="a_edge10_Node000007_Node000002"><a xlink:title=" ">
<path fill="none" stroke="#63b8ff" d="M295.99,-214.76C342.5,-218.32 404.86,-218.59 457.5,-203.16 492.74,-192.82 527.75,-167.46 547.83,-151.07"/>
<polygon fill="#63b8ff" stroke="#63b8ff" points="296.3,-211.28 286.04,-213.92 295.71,-218.25 296.3,-211.28"/>
</a>
</g>
</g>
<!-- Node7&#45;&gt;Node8 -->
<g id="edge11_Node000007_Node000008" class="edge">
<title>Node7&#45;&gt;Node8</title>
<g id="a_edge11_Node000007_Node000008"><a xlink:title=" ">
<path fill="none" stroke="#63b8ff" d="M162.07,-188.26C145.49,-183.59 127.8,-178.6 111.83,-174.09"/>
<polygon fill="#63b8ff" stroke="#63b8ff" points="160.75,-191.53 171.32,-190.87 162.65,-184.79 160.75,-191.53"/>
</a>
</g>
</g>
<!-- Node9&#45;&gt;Node2 -->
<g id="edge13_Node000009_Node000002" class="edge">
<title>Node9&#45;&gt;Node2</title>
<g id="a_edge13_Node000009_Node000002"><a xlink:title=" ">
<path fill="none" stroke="#63b8ff" d="M300.64,-154.17C357.63,-150.29 436.32,-144.92 493.01,-141.06"/>
<polygon fill="#63b8ff" stroke="#63b8ff" points="300.44,-150.68 290.7,-154.85 300.91,-157.66 300.44,-150.68"/>
</a>
</g>
</g>
<!-- Node9&#45;&gt;Node8 -->
<g id="edge14_Node000009_Node000008" class="edge">
<title>Node9&#45;&gt;Node8</title>
<g id="a_edge14_Node000009_Node000008"><a xlink:title=" ">
<path fill="none" stroke="#63b8ff" d="M152.76,-159.16C140.47,-159.16 127.87,-159.16 116.05,-159.16"/>
<polygon fill="#63b8ff" stroke="#63b8ff" points="152.41,-162.66 162.41,-159.16 152.41,-155.66 152.41,-162.66"/>
</a>
</g>
</g>
</g>
</svg>

<g id="navigator" transform="translate(0 0)" fill="#404254">
  <rect fill="#f2f5e9" fill-opacity="0.5" stroke="#606060" stroke-width=".5" x="0" y="0" width="60" height="60"/>
  <use id="zoomplus" xlink:href="#zoomPlus" x="17" y="9" onmousedown="handleZoom(evt,'in')"/>
  <use id="zoomminus" xlink:href="#zoomMin" x="42" y="9" onmousedown="handleZoom(evt,'out')"/>
  <use id="reset" xlink:href="#resetDef" x="30" y="36" onmousedown="handleReset()"/>
   <use id="arrowup" xlink:href="#arrowUp" x="0" y="0" onmousedown="handlePan(0,-1)"/>
  <use id="arrowright" xlink:href="#arrowRight" x="0" y="0" onmousedown="handlePan(1,0)"/>
  <use id="arrowdown" xlink:href="#arrowDown" x="0" y="0" onmousedown="handlePan(0,1)"/>
  <use id="arrowleft" xlink:href="#arrowLeft" x="0" y="0" onmousedown="handlePan(-1,0)"/>
</g>
<svg viewBox="0 0 15 15" width="100%" height="30px" preserveAspectRatio="xMaxYMin meet">
 <g id="arrow_out" transform="scale(0.3 0.3)">
  <a xlink:href="classCommunicationStream_a7cf62e4c83ddbf85a1bb47ddb8d9422b_icgraph_org.svg" target="_base">
   <rect id="button" ry="5" rx="5" y="6" x="6" height="38" width="38"
        fill="#f2f5e9" fill-opacity="0.5" stroke="#606060" stroke-width="1.0"/>
   <path id="arrow"
     d="M 11.500037,31.436501 C 11.940474,20.09759 22.043105,11.32322 32.158766,21.979434 L 37.068811,17.246167 C 37.068811,17.246167 37.088388,32 37.088388,32 L 22.160133,31.978069 C 22.160133,31.978069 26.997745,27.140456 26.997745,27.140456 C 18.528582,18.264221 13.291696,25.230495 11.500037,31.436501 z"
     style="fill:#404040;"/>
  </a>
 </g>
</svg>

<style type='text/css'>
<![CDATA[
[data-mouse-over-selected='false'] { opacity: 0.7; }
[data-mouse-over-selected='true']  { opacity: 1.0; }
]]>
</style>
<script type="application/ecmascript"><![CDATA[
document.addEventListener('DOMContentLoaded', (event) => {
  highlightEdges();
  highlightAdjacentNodes();
});
]]></script>
</svg>
