<?xml version="1.0" encoding="UTF-8" standalone="no"?>
<!DOCTYPE svg PUBLIC "-//W3C//DTD SVG 1.1//EN"
 "http://www.w3.org/Graphics/SVG/1.1/DTD/svg11.dtd">
<!-- Generated by graphviz version 12.2.1 (0)
 -->
<!-- Title: WavelengthEventBroker::ConnectionError Pages: 1 -->
<svg width="436pt" height="37pt"
 viewBox="0.00 0.00 436.25 37.00" xmlns="http://www.w3.org/2000/svg" xmlns:xlink="http://www.w3.org/1999/xlink">
<g id="graph0" class="graph" transform="scale(1 1) rotate(0) translate(4 33)">
<title>WavelengthEventBroker::ConnectionError</title>
<!-- Node1 -->
<g id="Node000001" class="node">
<title>Node1</title>
<g id="a_Node000001"><a xlink:title="Publishes a &quot;connection_error&quot; event. Data: {&quot;error&quot;: QString}.">
<polygon fill="#999999" stroke="#666666" points="118.75,-29 0,-29 0,0 118.75,0 118.75,-29"/>
<text text-anchor="start" x="8" y="-15.5" font-family="Helvetica,sans-Serif" font-size="10.00">WavelengthEventBroker</text>
<text text-anchor="middle" x="59.38" y="-5" font-family="Helvetica,sans-Serif" font-size="10.00">::ConnectionError</text>
</a>
</g>
</g>
<!-- Node2 -->
<g id="Node000002" class="node">
<title>Node2</title>
<g id="a_Node000002"><a xlink:href="classWavelengthEventBroker.html#ac664ef807bf6e0f08cf8e6435e7dbbc5" target="_top" xlink:title="Publishes an event of a specific type with associated data. Emits the eventPublished signal,...">
<polygon fill="white" stroke="#666666" points="273.5,-29 154.75,-29 154.75,0 273.5,0 273.5,-29"/>
<text text-anchor="start" x="162.75" y="-15.5" font-family="Helvetica,sans-Serif" font-size="10.00">WavelengthEventBroker</text>
<text text-anchor="middle" x="214.12" y="-5" font-family="Helvetica,sans-Serif" font-size="10.00">::PublishEvent</text>
</a>
</g>
</g>
<!-- Node1&#45;&gt;Node2 -->
<g id="edge1_Node000001_Node000002" class="edge">
<title>Node1&#45;&gt;Node2</title>
<g id="a_edge1_Node000001_Node000002"><a xlink:title=" ">
<path fill="none" stroke="#63b8ff" d="M119,-14.5C126.89,-14.5 135.05,-14.5 143.11,-14.5"/>
<polygon fill="#63b8ff" stroke="#63b8ff" points="142.9,-18 152.9,-14.5 142.9,-11 142.9,-18"/>
</a>
</g>
</g>
<!-- Node3 -->
<g id="Node000003" class="node">
<title>Node3</title>
<g id="a_Node000003"><a xlink:href="classWavelengthEventBroker.html#ae8c0f4012e86117405db97a0d461ad94" target="_top" xlink:title="Signal emitted whenever any event is published via PublishEvent(). Subscribed components connect to t...">
<polygon fill="white" stroke="#666666" points="428.25,-29 309.5,-29 309.5,0 428.25,0 428.25,-29"/>
<text text-anchor="start" x="317.5" y="-15.5" font-family="Helvetica,sans-Serif" font-size="10.00">WavelengthEventBroker</text>
<text text-anchor="middle" x="368.88" y="-5" font-family="Helvetica,sans-Serif" font-size="10.00">::eventPublished</text>
</a>
</g>
</g>
<!-- Node2&#45;&gt;Node3 -->
<g id="edge2_Node000002_Node000003" class="edge">
<title>Node2&#45;&gt;Node3</title>
<g id="a_edge2_Node000002_Node000003"><a xlink:title=" ">
<path fill="none" stroke="#63b8ff" d="M273.75,-14.5C281.64,-14.5 289.8,-14.5 297.86,-14.5"/>
<polygon fill="#63b8ff" stroke="#63b8ff" points="297.65,-18 307.65,-14.5 297.65,-11 297.65,-18"/>
</a>
</g>
</g>
</g>
</svg>
