<?xml version="1.0" encoding="UTF-8" standalone="no"?>
<!DOCTYPE svg PUBLIC "-//W3C//DTD SVG 1.1//EN"
 "http://www.w3.org/Graphics/SVG/1.1/DTD/svg11.dtd">
<!-- Generated by graphviz version 12.2.1 (0)
 -->
<!-- Title: WavelengthConfig::operator= Pages: 1 -->
<svg width="337pt" height="55pt"
 viewBox="0.00 0.00 337.00 55.00" xmlns="http://www.w3.org/2000/svg" xmlns:xlink="http://www.w3.org/1999/xlink">
<g id="graph0" class="graph" transform="scale(1 1) rotate(0) translate(4 51)">
<title>WavelengthConfig::operator=</title>
<!-- Node1 -->
<g id="Node000001" class="node">
<title>Node1</title>
<g id="a_Node000001"><a xlink:title="Deleted assignment operator.">
<polygon fill="#999999" stroke="#666666" points="142,-23.75 0,-23.75 0,-5.25 142,-5.25 142,-23.75"/>
<text text-anchor="middle" x="71" y="-10.25" font-family="Helvetica,sans-Serif" font-size="10.00">WavelengthConfig::operator=</text>
</a>
</g>
</g>
<!-- Node2 -->
<g id="Node000002" class="node">
<title>Node2</title>
<g id="a_Node000002"><a xlink:href="classWavelengthConfig.html#a85e6819278b90f10a1afe5e91ce05cbe" target="_top" xlink:title="Deleted copy constructor.">
<polygon fill="white" stroke="#666666" points="329,-29 178,-29 178,0 329,0 329,-29"/>
<text text-anchor="start" x="186" y="-15.5" font-family="Helvetica,sans-Serif" font-size="10.00">WavelengthConfig::Wavelength</text>
<text text-anchor="middle" x="253.5" y="-5" font-family="Helvetica,sans-Serif" font-size="10.00">Config</text>
</a>
</g>
</g>
<!-- Node1&#45;&gt;Node2 -->
<g id="edge1_Node000001_Node000002" class="edge">
<title>Node1&#45;&gt;Node2</title>
<g id="a_edge1_Node000001_Node000002"><a xlink:title=" ">
<path fill="none" stroke="#63b8ff" d="M142.3,-14.5C150.17,-14.5 158.26,-14.5 166.3,-14.5"/>
<polygon fill="#63b8ff" stroke="#63b8ff" points="166.1,-18 176.1,-14.5 166.1,-11 166.1,-18"/>
</a>
</g>
</g>
<!-- Node2&#45;&gt;Node2 -->
<g id="edge2_Node000002_Node000002" class="edge">
<title>Node2&#45;&gt;Node2</title>
<g id="a_edge2_Node000002_Node000002"><a xlink:title=" ">
<path fill="none" stroke="#63b8ff" d="M221.7,-29.21C214.03,-38.32 224.63,-47 253.5,-47 269.29,-47 279.61,-44.41 284.48,-40.56"/>
<polygon fill="#63b8ff" stroke="#63b8ff" points="287.96,-40.94 285.19,-30.72 280.98,-40.43 287.96,-40.94"/>
</a>
</g>
</g>
</g>
</svg>
