<?xml version="1.0" encoding="UTF-8" standalone="no"?>
<!DOCTYPE svg PUBLIC "-//W3C//DTD SVG 1.1//EN"
 "http://www.w3.org/Graphics/SVG/1.1/DTD/svg11.dtd">
<!-- Generated by graphviz version 12.2.1 (0)
 -->
<!-- Title: MessageProcessor::MessageProcessor Pages: 1 -->
<svg width="700pt" height="178pt"
 viewBox="0.00 0.00 699.75 178.00" xmlns="http://www.w3.org/2000/svg" xmlns:xlink="http://www.w3.org/1999/xlink">
<g id="graph0" class="graph" transform="scale(1 1) rotate(0) translate(4 174)">
<title>MessageProcessor::MessageProcessor</title>
<!-- Node1 -->
<g id="Node000001" class="node">
<title>Node1</title>
<g id="a_Node000001"><a xlink:title="Deleted copy constructor to prevent copying.">
<polygon fill="#999999" stroke="#666666" points="691.75,-104 546,-104 546,-75 691.75,-75 691.75,-104"/>
<text text-anchor="start" x="554" y="-90.5" font-family="Helvetica,sans-Serif" font-size="10.00">MessageProcessor::Message</text>
<text text-anchor="middle" x="618.88" y="-80" font-family="Helvetica,sans-Serif" font-size="10.00">Processor</text>
</a>
</g>
</g>
<!-- Node1&#45;&gt;Node1 -->
<g id="edge9_Node000001_Node000001" class="edge">
<title>Node1&#45;&gt;Node1</title>
<g id="a_edge9_Node000001_Node000001"><a xlink:title=" ">
<path fill="none" stroke="#63b8ff" d="M650.87,-115.56C645.85,-119.41 635.18,-122 618.88,-122 589.05,-122 578.1,-113.32 586.02,-104.21"/>
<polygon fill="#63b8ff" stroke="#63b8ff" points="654.35,-115.95 651.61,-105.72 647.37,-115.42 654.35,-115.95"/>
</a>
</g>
</g>
<!-- Node2 -->
<g id="Node000002" class="node">
<title>Node2</title>
<g id="a_Node000002"><a xlink:href="classMessageProcessor.html#a26caf4168e131060a69bec30612f7596" target="_top" xlink:title="Gets the singleton instance of the MessageProcessor.">
<polygon fill="white" stroke="#666666" points="510,-117.75 350.75,-117.75 350.75,-99.25 510,-99.25 510,-117.75"/>
<text text-anchor="middle" x="430.38" y="-104.25" font-family="Helvetica,sans-Serif" font-size="10.00">MessageProcessor::GetInstance</text>
</a>
</g>
</g>
<!-- Node1&#45;&gt;Node2 -->
<g id="edge1_Node000001_Node000002" class="edge">
<title>Node1&#45;&gt;Node2</title>
<g id="a_edge1_Node000001_Node000002"><a xlink:title=" ">
<path fill="none" stroke="#63b8ff" d="M534.27,-98.02C526.26,-98.83 518.16,-99.66 510.2,-100.47"/>
<polygon fill="#63b8ff" stroke="#63b8ff" points="534.4,-101.52 544,-97.03 533.69,-94.56 534.4,-101.52"/>
</a>
</g>
</g>
<!-- Node11 -->
<g id="Node000011" class="node">
<title>Node11</title>
<g id="a_Node000011"><a xlink:href="classMessageProcessor.html#a8703a2eb9fada1fddf7a7a1805490e6f" target="_top" xlink:title="Deleted assignment operator to prevent assignment.">
<polygon fill="white" stroke="#666666" points="504,-80.75 356.75,-80.75 356.75,-62.25 504,-62.25 504,-80.75"/>
<text text-anchor="middle" x="430.38" y="-67.25" font-family="Helvetica,sans-Serif" font-size="10.00">MessageProcessor::operator=</text>
</a>
</g>
</g>
<!-- Node1&#45;&gt;Node11 -->
<g id="edge10_Node000001_Node000011" class="edge">
<title>Node1&#45;&gt;Node11</title>
<g id="a_edge10_Node000001_Node000011"><a xlink:title=" ">
<path fill="none" stroke="#63b8ff" d="M534.3,-81.43C524.3,-80.47 514.15,-79.49 504.32,-78.54"/>
<polygon fill="#63b8ff" stroke="#63b8ff" points="533.71,-84.89 544,-82.37 534.38,-77.92 533.71,-84.89"/>
</a>
</g>
</g>
<!-- Node3 -->
<g id="Node000003" class="node">
<title>Node3</title>
<g id="a_Node000003"><a xlink:href="classSessionCoordinator.html#a0a388bb572398d11b8959eac0a8e612f" target="_top" xlink:title="Connects signals between the various Wavelength components. Called during Initialize().">
<polygon fill="white" stroke="#666666" points="282.12,-170 180.62,-170 180.62,-141 282.12,-141 282.12,-170"/>
<text text-anchor="start" x="188.62" y="-156.5" font-family="Helvetica,sans-Serif" font-size="10.00">SessionCoordinator</text>
<text text-anchor="middle" x="231.38" y="-146" font-family="Helvetica,sans-Serif" font-size="10.00">::ConnectSignals</text>
</a>
</g>
</g>
<!-- Node2&#45;&gt;Node3 -->
<g id="edge2_Node000002_Node000003" class="edge">
<title>Node2&#45;&gt;Node3</title>
<g id="a_edge2_Node000002_Node000003"><a xlink:title=" ">
<path fill="none" stroke="#63b8ff" d="M377.68,-120.83C348.31,-127.84 311.71,-136.57 282.59,-143.52"/>
<polygon fill="#63b8ff" stroke="#63b8ff" points="378.17,-124.31 387.08,-118.59 376.54,-117.51 378.17,-124.31"/>
</a>
</g>
</g>
<!-- Node5 -->
<g id="Node000005" class="node">
<title>Node5</title>
<g id="a_Node000005"><a xlink:href="classWavelengthCreator.html#aceda419aab0bae7f3323bedfcb0ad6d1" target="_top" xlink:title="Attempts to create and register a new wavelength with the relay server. Checks if the wavelength alre...">
<polygon fill="white" stroke="#666666" points="283.62,-123 179.12,-123 179.12,-94 283.62,-94 283.62,-123"/>
<text text-anchor="start" x="187.12" y="-109.5" font-family="Helvetica,sans-Serif" font-size="10.00">WavelengthCreator::</text>
<text text-anchor="middle" x="231.38" y="-99" font-family="Helvetica,sans-Serif" font-size="10.00">CreateWavelength</text>
</a>
</g>
</g>
<!-- Node2&#45;&gt;Node5 -->
<g id="edge4_Node000002_Node000005" class="edge">
<title>Node2&#45;&gt;Node5</title>
<g id="a_edge4_Node000002_Node000005"><a xlink:title=" ">
<path fill="none" stroke="#63b8ff" d="M339.01,-108.5C320.12,-108.5 300.83,-108.5 283.94,-108.5"/>
<polygon fill="#63b8ff" stroke="#63b8ff" points="338.87,-112 348.87,-108.5 338.87,-105 338.87,-112"/>
</a>
</g>
</g>
<!-- Node7 -->
<g id="Node000007" class="node">
<title>Node7</title>
<g id="a_Node000007"><a xlink:href="classWavelengthJoiner.html#a10830ee7f998cc18b6df1949455ae98e" target="_top" xlink:title="Attempts to join an existing wavelength hosted on the relay server. Checks if the wavelength is alrea...">
<polygon fill="white" stroke="#666666" points="314.75,-70.75 148,-70.75 148,-52.25 314.75,-52.25 314.75,-70.75"/>
<text text-anchor="middle" x="231.38" y="-57.25" font-family="Helvetica,sans-Serif" font-size="10.00">WavelengthJoiner::JoinWavelength</text>
</a>
</g>
</g>
<!-- Node2&#45;&gt;Node7 -->
<g id="edge6_Node000002_Node000007" class="edge">
<title>Node2&#45;&gt;Node7</title>
<g id="a_edge6_Node000002_Node000007"><a xlink:title=" ">
<path fill="none" stroke="#63b8ff" d="M377.42,-96.11C344.82,-88.33 303.37,-78.44 273.14,-71.23"/>
<polygon fill="#63b8ff" stroke="#63b8ff" points="376.54,-99.49 387.08,-98.41 378.17,-92.69 376.54,-99.49"/>
</a>
</g>
</g>
<!-- Node4 -->
<g id="Node000004" class="node">
<title>Node4</title>
<g id="a_Node000004"><a xlink:href="classSessionCoordinator.html#a34a0ef1f02508f6cfd0b8d60164be83a" target="_top" xlink:title="Initializes the coordinator and its underlying components. Connects signals between various Wavelengt...">
<polygon fill="white" stroke="#666666" points="106.75,-170 5.25,-170 5.25,-141 106.75,-141 106.75,-170"/>
<text text-anchor="start" x="13.25" y="-156.5" font-family="Helvetica,sans-Serif" font-size="10.00">SessionCoordinator</text>
<text text-anchor="middle" x="56" y="-146" font-family="Helvetica,sans-Serif" font-size="10.00">::Initialize</text>
</a>
</g>
</g>
<!-- Node3&#45;&gt;Node4 -->
<g id="edge3_Node000003_Node000004" class="edge">
<title>Node3&#45;&gt;Node4</title>
<g id="a_edge3_Node000003_Node000004"><a xlink:title=" ">
<path fill="none" stroke="#63b8ff" d="M168.89,-155.5C148.62,-155.5 126.34,-155.5 107.03,-155.5"/>
<polygon fill="#63b8ff" stroke="#63b8ff" points="168.71,-159 178.71,-155.5 168.71,-152 168.71,-159"/>
</a>
</g>
</g>
<!-- Node6 -->
<g id="Node000006" class="node">
<title>Node6</title>
<g id="a_Node000006"><a xlink:href="classSessionCoordinator.html#ad439996ffc2f1a6fc57835502c69ce7d" target="_top" xlink:title="Initiates the creation of a new wavelength. Delegates the call to WavelengthCreator and registers the...">
<polygon fill="white" stroke="#666666" points="106.75,-123 5.25,-123 5.25,-94 106.75,-94 106.75,-123"/>
<text text-anchor="start" x="13.25" y="-109.5" font-family="Helvetica,sans-Serif" font-size="10.00">SessionCoordinator</text>
<text text-anchor="middle" x="56" y="-99" font-family="Helvetica,sans-Serif" font-size="10.00">::CreateWavelength</text>
</a>
</g>
</g>
<!-- Node5&#45;&gt;Node6 -->
<g id="edge5_Node000005_Node000006" class="edge">
<title>Node5&#45;&gt;Node6</title>
<g id="a_edge5_Node000005_Node000006"><a xlink:title=" ">
<path fill="none" stroke="#63b8ff" d="M167.4,-108.5C147.58,-108.5 125.96,-108.5 107.16,-108.5"/>
<polygon fill="#63b8ff" stroke="#63b8ff" points="167.31,-112 177.31,-108.5 167.31,-105 167.31,-112"/>
</a>
</g>
</g>
<!-- Node8 -->
<g id="Node000008" class="node">
<title>Node8</title>
<g id="a_Node000008"><a xlink:href="classSessionCoordinator.html#a78a62f7f321920c128757ee20568a972" target="_top" xlink:title="Initiates joining an existing wavelength. Delegates the call to WavelengthJoiner and registers the wa...">
<polygon fill="white" stroke="#666666" points="106.75,-76 5.25,-76 5.25,-47 106.75,-47 106.75,-76"/>
<text text-anchor="start" x="13.25" y="-62.5" font-family="Helvetica,sans-Serif" font-size="10.00">SessionCoordinator</text>
<text text-anchor="middle" x="56" y="-52" font-family="Helvetica,sans-Serif" font-size="10.00">::JoinWavelength</text>
</a>
</g>
</g>
<!-- Node7&#45;&gt;Node8 -->
<g id="edge7_Node000007_Node000008" class="edge">
<title>Node7&#45;&gt;Node8</title>
<g id="a_edge7_Node000007_Node000008"><a xlink:title=" ">
<path fill="none" stroke="#63b8ff" d="M136.3,-61.5C126.18,-61.5 116.2,-61.5 106.91,-61.5"/>
<polygon fill="#63b8ff" stroke="#63b8ff" points="136.24,-65 146.24,-61.5 136.24,-58 136.24,-65"/>
</a>
</g>
</g>
<!-- Node9 -->
<g id="Node000009" class="node">
<title>Node9</title>
<g id="a_Node000009"><a xlink:href="classJoinWavelengthDialog.html#a0cb74ecdcc726cea2ce437c85cd75185" target="_top" xlink:title="Attempts to join the wavelength using the entered frequency and password. Shows a wait cursor,...">
<polygon fill="#fff0f0" stroke="red" points="112,-29 0,-29 0,0 112,0 112,-29"/>
<text text-anchor="start" x="8" y="-15.5" font-family="Helvetica,sans-Serif" font-size="10.00">JoinWavelengthDialog</text>
<text text-anchor="middle" x="56" y="-5" font-family="Helvetica,sans-Serif" font-size="10.00">::TryJoin</text>
</a>
</g>
</g>
<!-- Node7&#45;&gt;Node9 -->
<g id="edge8_Node000007_Node000009" class="edge">
<title>Node7&#45;&gt;Node9</title>
<g id="a_edge8_Node000007_Node000009"><a xlink:title=" ">
<path fill="none" stroke="#63b8ff" d="M183.37,-48.76C161.34,-42.79 134.96,-35.63 112.01,-29.41"/>
<polygon fill="#63b8ff" stroke="#63b8ff" points="182.42,-52.13 192.99,-51.37 184.25,-45.37 182.42,-52.13"/>
</a>
</g>
</g>
</g>
</svg>
