<?xml version="1.0" encoding="UTF-8" standalone="no"?>
<!DOCTYPE svg PUBLIC "-//W3C//DTD SVG 1.1//EN"
 "http://www.w3.org/Graphics/SVG/1.1/DTD/svg11.dtd">
<!-- Generated by graphviz version 12.2.1 (0)
 -->
<!-- Title: DatabaseManager::DatabaseManager Pages: 1 -->
<svg width="340pt" height="111pt"
 viewBox="0.00 0.00 340.00 110.75" xmlns="http://www.w3.org/2000/svg" xmlns:xlink="http://www.w3.org/1999/xlink">
<g id="graph0" class="graph" transform="scale(1 1) rotate(0) translate(4 106.75)">
<title>DatabaseManager::DatabaseManager</title>
<!-- Node1 -->
<g id="Node000001" class="node">
<title>Node1</title>
<g id="a_Node000001"><a xlink:title="Private constructor to enforce the singleton pattern. Attempts to establish the connection to the Pos...">
<polygon fill="#999999" stroke="#666666" points="332,-60.75 190,-60.75 190,-31.75 332,-31.75 332,-60.75"/>
<text text-anchor="start" x="198" y="-47.25" font-family="Helvetica,sans-Serif" font-size="10.00">DatabaseManager::Database</text>
<text text-anchor="middle" x="261" y="-36.75" font-family="Helvetica,sans-Serif" font-size="10.00">Manager</text>
</a>
</g>
</g>
<!-- Node2 -->
<g id="Node000002" class="node">
<title>Node2</title>
<g id="a_Node000002"><a xlink:href="classDatabaseManager.html#aefa3d6eae7782904f5d758462b573b1e" target="_top" xlink:title="Deleted copy constructor to prevent copying.">
<polygon fill="white" stroke="#666666" points="148,-102.75 6,-102.75 6,-73.75 148,-73.75 148,-102.75"/>
<text text-anchor="start" x="14" y="-89.25" font-family="Helvetica,sans-Serif" font-size="10.00">DatabaseManager::Database</text>
<text text-anchor="middle" x="77" y="-78.75" font-family="Helvetica,sans-Serif" font-size="10.00">Manager</text>
</a>
</g>
</g>
<!-- Node1&#45;&gt;Node2 -->
<g id="edge1_Node000001_Node000002" class="edge">
<title>Node1&#45;&gt;Node2</title>
<g id="a_edge1_Node000001_Node000002"><a xlink:title=" ">
<path fill="none" stroke="#63b8ff" d="M184.19,-63.74C170.47,-66.91 156.28,-70.19 142.91,-73.27"/>
<polygon fill="#63b8ff" stroke="#63b8ff" points="184.63,-67.23 193.59,-61.58 183.06,-60.41 184.63,-67.23"/>
</a>
</g>
</g>
<!-- Node3 -->
<g id="Node000003" class="node">
<title>Node3</title>
<g id="a_Node000003"><a xlink:href="classDatabaseManager.html#a5ade7662722395bc4e0017153ded028b" target="_top" xlink:title="Gets the singleton instance of the DatabaseManager.">
<polygon fill="white" stroke="#666666" points="154,-55.5 0,-55.5 0,-37 154,-37 154,-55.5"/>
<text text-anchor="middle" x="77" y="-42" font-family="Helvetica,sans-Serif" font-size="10.00">DatabaseManager::GetInstance</text>
</a>
</g>
</g>
<!-- Node1&#45;&gt;Node3 -->
<g id="edge2_Node000001_Node000003" class="edge">
<title>Node1&#45;&gt;Node3</title>
<g id="a_edge2_Node000001_Node000003"><a xlink:title=" ">
<path fill="none" stroke="#63b8ff" d="M178.37,-46.25C170.33,-46.25 162.19,-46.25 154.22,-46.25"/>
<polygon fill="#63b8ff" stroke="#63b8ff" points="178.12,-49.75 188.12,-46.25 178.12,-42.75 178.12,-49.75"/>
</a>
</g>
</g>
<!-- Node4 -->
<g id="Node000004" class="node">
<title>Node4</title>
<g id="a_Node000004"><a xlink:href="classDatabaseManager.html#ab5a4c00314aae0887ac7a1495f6b803c" target="_top" xlink:title="Deleted assignment operator to prevent assignment.">
<polygon fill="white" stroke="#666666" points="148,-18.5 6,-18.5 6,0 148,0 148,-18.5"/>
<text text-anchor="middle" x="77" y="-5" font-family="Helvetica,sans-Serif" font-size="10.00">DatabaseManager::operator=</text>
</a>
</g>
</g>
<!-- Node1&#45;&gt;Node4 -->
<g id="edge3_Node000001_Node000004" class="edge">
<title>Node1&#45;&gt;Node4</title>
<g id="a_edge3_Node000001_Node000004"><a xlink:title=" ">
<path fill="none" stroke="#63b8ff" d="M178.53,-29.69C160.56,-26.03 142.08,-22.28 125.95,-19"/>
<polygon fill="#63b8ff" stroke="#63b8ff" points="177.65,-33.08 188.15,-31.64 179.05,-26.22 177.65,-33.08"/>
</a>
</g>
</g>
</g>
</svg>
