<?xml version="1.0" encoding="UTF-8" standalone="no"?>
<!DOCTYPE svg PUBLIC "-//W3C//DTD SVG 1.1//EN"
 "http://www.w3.org/Graphics/SVG/1.1/DTD/svg11.dtd">
<!-- Generated by graphviz version 12.2.1 (0)
 -->
<!-- Title: RetinaScanLayer::Initialize Pages: 1 -->
<svg width="315pt" height="121pt"
 viewBox="0.00 0.00 314.50 121.00" xmlns="http://www.w3.org/2000/svg" xmlns:xlink="http://www.w3.org/1999/xlink">
<g id="graph0" class="graph" transform="scale(1 1) rotate(0) translate(4 117)">
<title>RetinaScanLayer::Initialize</title>
<!-- Node1 -->
<g id="Node000001" class="node">
<title>Node1</title>
<g id="a_Node000001"><a xlink:title="Initializes the layer for display. Resets the layer state, generates a new random eye image,...">
<polygon fill="#999999" stroke="#666666" points="130.75,-65.75 0,-65.75 0,-47.25 130.75,-47.25 130.75,-65.75"/>
<text text-anchor="middle" x="65.38" y="-52.25" font-family="Helvetica,sans-Serif" font-size="10.00">RetinaScanLayer::Initialize</text>
</a>
</g>
</g>
<!-- Node2 -->
<g id="Node000002" class="node">
<title>Node2</title>
<g id="a_Node000002"><a xlink:href="classRetinaScanLayer.html#a586e2ddf905f181954614724467b1128" target="_top" xlink:title="Generates a random eye image (iris color, patterns, reflections) and draws it onto base_eye_image_....">
<polygon fill="white" stroke="#666666" points="304.25,-113 169,-113 169,-84 304.25,-84 304.25,-113"/>
<text text-anchor="start" x="177" y="-99.5" font-family="Helvetica,sans-Serif" font-size="10.00">RetinaScanLayer::Generate</text>
<text text-anchor="middle" x="236.62" y="-89" font-family="Helvetica,sans-Serif" font-size="10.00">EyeImage</text>
</a>
</g>
</g>
<!-- Node1&#45;&gt;Node2 -->
<g id="edge1_Node000001_Node000002" class="edge">
<title>Node1&#45;&gt;Node2</title>
<g id="a_edge1_Node000001_Node000002"><a xlink:title=" ">
<path fill="none" stroke="#63b8ff" d="M105.63,-66.24C123.1,-70.58 144.23,-75.82 164.33,-80.81"/>
<polygon fill="#63b8ff" stroke="#63b8ff" points="163.34,-84.17 173.89,-83.18 165.03,-77.37 163.34,-84.17"/>
</a>
</g>
</g>
<!-- Node3 -->
<g id="Node000003" class="node">
<title>Node3</title>
<g id="a_Node000003"><a xlink:href="classRetinaScanLayer.html#a50fb6cea0c9adac90fe96fc7451ccbd0" target="_top" xlink:title="Resets the layer to its initial state. Stops timers, resets the scanline position and progress bar,...">
<polygon fill="white" stroke="#666666" points="297.12,-65.75 176.12,-65.75 176.12,-47.25 297.12,-47.25 297.12,-65.75"/>
<text text-anchor="middle" x="236.62" y="-52.25" font-family="Helvetica,sans-Serif" font-size="10.00">RetinaScanLayer::Reset</text>
</a>
</g>
</g>
<!-- Node1&#45;&gt;Node3 -->
<g id="edge2_Node000001_Node000003" class="edge">
<title>Node1&#45;&gt;Node3</title>
<g id="a_edge2_Node000001_Node000003"><a xlink:title=" ">
<path fill="none" stroke="#63b8ff" d="M130.84,-56.5C141.8,-56.5 153.23,-56.5 164.35,-56.5"/>
<polygon fill="#63b8ff" stroke="#63b8ff" points="164.27,-60 174.27,-56.5 164.27,-53 164.27,-60"/>
</a>
</g>
</g>
<!-- Node4 -->
<g id="Node000004" class="node">
<title>Node4</title>
<g id="a_Node000004"><a xlink:href="classRetinaScanLayer.html#a407213631665f40eebbbeef64656a0b9" target="_top" xlink:title="Starts the scan animation timers (scan_timer_ and complete_timer_).">
<polygon fill="white" stroke="#666666" points="306.5,-29 166.75,-29 166.75,0 306.5,0 306.5,-29"/>
<text text-anchor="start" x="174.75" y="-15.5" font-family="Helvetica,sans-Serif" font-size="10.00">RetinaScanLayer::StartScan</text>
<text text-anchor="middle" x="236.62" y="-5" font-family="Helvetica,sans-Serif" font-size="10.00">Animation</text>
</a>
</g>
</g>
<!-- Node1&#45;&gt;Node4 -->
<g id="edge3_Node000001_Node000004" class="edge">
<title>Node1&#45;&gt;Node4</title>
<g id="a_edge3_Node000001_Node000004"><a xlink:title=" ">
<path fill="none" stroke="#63b8ff" d="M105.63,-46.76C123.1,-42.42 144.23,-37.18 164.33,-32.19"/>
<polygon fill="#63b8ff" stroke="#63b8ff" points="165.03,-35.63 173.89,-29.82 163.34,-28.83 165.03,-35.63"/>
</a>
</g>
</g>
</g>
</svg>
