<?xml version="1.0" encoding="UTF-8" standalone="no"?>
<!DOCTYPE svg PUBLIC "-//W3C//DTD SVG 1.1//EN"
 "http://www.w3.org/Graphics/SVG/1.1/DTD/svg11.dtd">
<!-- Generated by graphviz version 12.2.1 (0)
 -->
<!-- Title: MessageFormatter Pages: 1 -->
<svg width="181pt" height="127pt"
 viewBox="0.00 0.00 181.25 126.50" xmlns="http://www.w3.org/2000/svg" xmlns:xlink="http://www.w3.org/1999/xlink">
<g id="graph0" class="graph" transform="scale(1 1) rotate(0) translate(4 122.5)">
<title>MessageFormatter</title>
<!-- Node1 -->
<g id="Node000001" class="node">
<title>Node1</title>
<g id="a_Node000001"><a xlink:title="Provides static utility functions for formatting messages into HTML strings.">
<polygon fill="#999999" stroke="none" points="173.25,-118.5 0,-118.5 0,0 173.25,0 173.25,-118.5"/>
<text text-anchor="start" x="45.75" y="-105" font-family="Helvetica,sans-Serif" font-size="10.00">MessageFormatter</text>
<text text-anchor="start" x="85.12" y="-90.5" font-family="Helvetica,sans-Serif" font-size="10.00"> </text>
<text text-anchor="start" x="4" y="-76" font-family="Helvetica,sans-Serif" font-size="10.00">+</text>
<text text-anchor="start" x="14" y="-76" font-family="Helvetica,sans-Serif" font-size="10.00">static QString FormatFile</text>
<text text-anchor="start" x="14" y="-65.5" font-family="Helvetica,sans-Serif" font-size="10.00">Size(qint64 size_in_bytes)</text>
<text text-anchor="start" x="4" y="-51" font-family="Helvetica,sans-Serif" font-size="10.00">+</text>
<text text-anchor="start" x="14" y="-51" font-family="Helvetica,sans-Serif" font-size="10.00">static QString FormatMessage</text>
<text text-anchor="start" x="14" y="-40.5" font-family="Helvetica,sans-Serif" font-size="10.00">(const QJsonObject &amp;message</text>
<text text-anchor="start" x="14" y="-30" font-family="Helvetica,sans-Serif" font-size="10.00">_object, const QString &amp;frequency)</text>
<text text-anchor="start" x="4" y="-15.5" font-family="Helvetica,sans-Serif" font-size="10.00">+</text>
<text text-anchor="start" x="14" y="-15.5" font-family="Helvetica,sans-Serif" font-size="10.00">static QString FormatSystem</text>
<text text-anchor="start" x="14" y="-5" font-family="Helvetica,sans-Serif" font-size="10.00">Message(const QString &amp;message)</text>
<polygon fill="#666666" stroke="#666666" points="0,-102 0,-102 173.25,-102 173.25,-102 0,-102"/>
<polygon fill="#666666" stroke="#666666" points="0,-87.5 0,-87.5 173.25,-87.5 173.25,-87.5 0,-87.5"/>
<polygon fill="none" stroke="#666666" points="0,0 0,-118.5 173.25,-118.5 173.25,0 0,0"/>
</a>
</g>
</g>
</g>
</svg>
