<?xml version="1.0" encoding="UTF-8" standalone="no"?>
<!DOCTYPE svg PUBLIC "-//W3C//DTD SVG 1.1//EN"
 "http://www.w3.org/Graphics/SVG/1.1/DTD/svg11.dtd">
<!-- Generated by graphviz version 12.2.1 (0)
 -->
<!-- Title: BlobAnimation::ResetBlobToCenter Pages: 1 -->
<svg width="524pt" height="74pt"
 viewBox="0.00 0.00 524.00 73.75" xmlns="http://www.w3.org/2000/svg" xmlns:xlink="http://www.w3.org/1999/xlink">
<g id="graph0" class="graph" transform="scale(1 1) rotate(0) translate(4 69.75)">
<title>BlobAnimation::ResetBlobToCenter</title>
<!-- Node1 -->
<g id="Node000001" class="node">
<title>Node1</title>
<g id="a_Node000001"><a xlink:title="Resets the blob&#39;s position to the center of the widget and regenerates its shape. Clears velocities a...">
<polygon fill="#999999" stroke="#666666" points="516,-44.75 386,-44.75 386,-15.75 516,-15.75 516,-44.75"/>
<text text-anchor="start" x="394" y="-31.25" font-family="Helvetica,sans-Serif" font-size="10.00">BlobAnimation::ResetBlob</text>
<text text-anchor="middle" x="451" y="-20.75" font-family="Helvetica,sans-Serif" font-size="10.00">ToCenter</text>
</a>
</g>
</g>
<!-- Node2 -->
<g id="Node000002" class="node">
<title>Node2</title>
<g id="a_Node000002"><a xlink:href="classBlobAnimation.html#a36a2a04ace71e1fefc7c1c0cfd1f9e18" target="_top" xlink:title="Slot connected to resize_debounce_timer_. Called after a short delay following resize events....">
<polygon fill="white" stroke="#666666" points="339.5,-65.75 194.5,-65.75 194.5,-36.75 339.5,-36.75 339.5,-65.75"/>
<text text-anchor="start" x="202.5" y="-52.25" font-family="Helvetica,sans-Serif" font-size="10.00">BlobAnimation::HandleResize</text>
<text text-anchor="middle" x="267" y="-41.75" font-family="Helvetica,sans-Serif" font-size="10.00">Timeout</text>
</a>
</g>
</g>
<!-- Node1&#45;&gt;Node2 -->
<g id="edge1_Node000001_Node000002" class="edge">
<title>Node1&#45;&gt;Node2</title>
<g id="a_edge1_Node000001_Node000002"><a xlink:title=" ">
<path fill="none" stroke="#63b8ff" d="M374.29,-38.99C362.87,-40.3 351.11,-41.66 339.77,-42.97"/>
<polygon fill="#63b8ff" stroke="#63b8ff" points="374.54,-42.48 384.07,-37.86 373.74,-35.53 374.54,-42.48"/>
</a>
</g>
</g>
<!-- Node4 -->
<g id="Node000004" class="node">
<title>Node4</title>
<g id="a_Node000004"><a xlink:href="classBlobAnimation.html#a2221a2cb550dcf7497bf8911cef6c209" target="_top" xlink:title="Resets the entire blob visualization to its initial state. Resets blob position, shape,...">
<polygon fill="white" stroke="#666666" points="350,-18.5 184,-18.5 184,0 350,0 350,-18.5"/>
<text text-anchor="middle" x="267" y="-5" font-family="Helvetica,sans-Serif" font-size="10.00">BlobAnimation::ResetVisualization</text>
</a>
</g>
</g>
<!-- Node1&#45;&gt;Node4 -->
<g id="edge3_Node000001_Node000004" class="edge">
<title>Node1&#45;&gt;Node4</title>
<g id="a_edge3_Node000001_Node000004"><a xlink:title=" ">
<path fill="none" stroke="#63b8ff" d="M374.41,-21.53C366.41,-20.61 358.26,-19.66 350.19,-18.73"/>
<polygon fill="#63b8ff" stroke="#63b8ff" points="373.74,-24.97 384.07,-22.64 374.54,-18.02 373.74,-24.97"/>
</a>
</g>
</g>
<!-- Node3 -->
<g id="Node000003" class="node">
<title>Node3</title>
<g id="a_Node000003"><a xlink:href="classBlobAnimation.html#a376419bc52ad64329b0ce5e2a2579043" target="_top" xlink:title="Constructs the BlobAnimation widget. Initializes parameters, states, event handlers,...">
<polygon fill="white" stroke="#666666" points="148,-60.5 0,-60.5 0,-42 148,-42 148,-60.5"/>
<text text-anchor="middle" x="74" y="-47" font-family="Helvetica,sans-Serif" font-size="10.00">BlobAnimation::BlobAnimation</text>
</a>
</g>
</g>
<!-- Node2&#45;&gt;Node3 -->
<g id="edge2_Node000002_Node000003" class="edge">
<title>Node2&#45;&gt;Node3</title>
<g id="a_edge2_Node000002_Node000003"><a xlink:title=" ">
<path fill="none" stroke="#63b8ff" d="M182.75,-51.25C171.34,-51.25 159.68,-51.25 148.46,-51.25"/>
<polygon fill="#63b8ff" stroke="#63b8ff" points="182.55,-54.75 192.55,-51.25 182.55,-47.75 182.55,-54.75"/>
</a>
</g>
</g>
</g>
</svg>
