<?xml version="1.0" encoding="UTF-8" standalone="no"?>
<!DOCTYPE svg PUBLIC "-//W3C//DTD SVG 1.1//EN"
 "http://www.w3.org/Graphics/SVG/1.1/DTD/svg11.dtd">
<!-- Generated by graphviz version 12.2.1 (0)
 -->
<!-- Title: ChatView::StopAudioOutput Pages: 1 -->
<!--zoomable 64 -->

<svg id="main" version="1.1" xmlns="http://www.w3.org/2000/svg" xmlns:xlink="http://www.w3.org/1999/xlink" xml:space="preserve" onload="init(evt)">

<style type="text/css"><![CDATA[
.node, .edge {opacity: 0.7;}
.node.selected, .edge.selected {opacity: 1;}
.edge:hover path { stroke: red; }
.edge:hover polygon { stroke: red; fill: red; }
]]></style>

<defs>
  <circle id="rim" cx="0" cy="0" r="7"/>
  <circle id="rim2" cx="0" cy="0" r="3.5"/>
  <g id="zoomPlus">
    <use xlink:href="#rim" fill="#404040"><set attributeName="fill" to="#808080" begin="zoomplus.mouseover" end="zoomplus.mouseout"/></use>
    <path d="M-4,0h8M0,-4v8" fill="none" stroke="white" stroke-width="1.5" pointer-events="none"/>
  </g>
  <g id="zoomMin">
    <use xlink:href="#rim" fill="#404040"><set attributeName="fill" to="#808080" begin="zoomminus.mouseover" end="zoomminus.mouseout"/></use>
    <path d="M-4,0h8" fill="none" stroke="white" stroke-width="1.5" pointer-events="none"/>
  </g>
  <g id="arrowUp" transform="translate(30 24)">
    <use xlink:href="#rim"/>
    <path pointer-events="none" fill="none" stroke="white" stroke-width="1.5" d="M0,-3.0v7 M-2.5,-0.5L0,-3.0L2.5,-0.5"/>
  </g>
  <g id="arrowRight" transform="rotate(90) translate(36 -43)">
    <use xlink:href="#rim"/>
    <path pointer-events="none" fill="none" stroke="white" stroke-width="1.5" d="M0,-3.0v7 M-2.5,-0.5L0,-3.0L2.5,-0.5"/>
  </g>
  <g id="arrowDown" transform="rotate(180) translate(-30 -48)">
    <use xlink:href="#rim"/>
    <path pointer-events="none" fill="none" stroke="white" stroke-width="1.5" d="M0,-3.0v7 M-2.5,-0.5L0,-3.0L2.5,-0.5"/>
  </g>
  <g id="arrowLeft" transform="rotate(270) translate(-36 17)">
    <use xlink:href="#rim"/>
    <path pointer-events="none" fill="none" stroke="white" stroke-width="1.5" d="M0,-3.0v7 M-2.5,-0.5L0,-3.0L2.5,-0.5"/>
  </g>
  <g id="resetDef">
    <use xlink:href="#rim2" fill="#404040"><set attributeName="fill" to="#808080" begin="reset.mouseover" end="reset.mouseout"/></use>
  </g>
</defs>
<script type="application/ecmascript">
var viewWidth = 843;
var viewHeight = 64;
var sectionId = 'dynsection-39';
</script>
<script type="application/ecmascript" xlink:href="svg.min.js"/>
<svg id="graph" class="graph">
<g id="viewport">
<title>ChatView::StopAudioOutput</title>
<!-- Node1 -->
<g id="Node000001" class="node">
<title>Node1</title>
<g id="a_Node000001"><a xlink:title="Stops audio playback. Resets the output device pointer.">
<polygon fill="#999999" stroke="#666666" points="835.25,-36.5 697,-36.5 697,-18 835.25,-18 835.25,-36.5"/>
<text text-anchor="middle" x="766.12" y="-23" font-family="Helvetica,sans-Serif" font-size="10.00">ChatView::StopAudioOutput</text>
</a>
</g>
</g>
<!-- Node2 -->
<g id="Node000002" class="node">
<title>Node2</title>
<g id="a_Node000002"><a xlink:href="classChatView.html#aabba720d117ae8d235dfc9b27d66881f" target="_top" xlink:title="Slot called when the remote user stops transmitting PTT. If the frequency matches and the state is Re...">
<polygon fill="white" stroke="#666666" points="661,-55.5 508.5,-55.5 508.5,-37 661,-37 661,-55.5"/>
<text text-anchor="middle" x="584.75" y="-42" font-family="Helvetica,sans-Serif" font-size="10.00">ChatView::OnPttStopReceiving</text>
</a>
</g>
</g>
<!-- Node1&#45;&gt;Node2 -->
<g id="edge1_Node000001_Node000002" class="edge">
<title>Node1&#45;&gt;Node2</title>
<g id="a_edge1_Node000001_Node000002"><a xlink:title=" ">
<path fill="none" stroke="#63b8ff" d="M685.12,-35.72C677.26,-36.56 669.29,-37.4 661.47,-38.23"/>
<polygon fill="#63b8ff" stroke="#63b8ff" points="685.46,-39.21 695.04,-34.67 684.73,-32.25 685.46,-39.21"/>
</a>
</g>
</g>
<!-- Node6 -->
<g id="Node000006" class="node">
<title>Node6</title>
<g id="a_Node000006"><a xlink:href="classChatView.html#a7fb02c0ac57330d91ab4afb26da50514" target="_top" xlink:title="Destructor. Stops audio input/output and cleans up audio resources.">
<polygon fill="white" stroke="#666666" points="641.12,-18.5 528.38,-18.5 528.38,0 641.12,0 641.12,-18.5"/>
<text text-anchor="middle" x="584.75" y="-5" font-family="Helvetica,sans-Serif" font-size="10.00">ChatView::~ChatView</text>
</a>
</g>
</g>
<!-- Node1&#45;&gt;Node6 -->
<g id="edge6_Node000001_Node000006" class="edge">
<title>Node1&#45;&gt;Node6</title>
<g id="a_edge6_Node000001_Node000006"><a xlink:title=" ">
<path fill="none" stroke="#63b8ff" d="M685.33,-19.24C670.54,-17.76 655.38,-16.24 641.5,-14.84"/>
<polygon fill="#63b8ff" stroke="#63b8ff" points="684.74,-22.7 695.04,-20.22 685.44,-15.74 684.74,-22.7"/>
</a>
</g>
</g>
<!-- Node3 -->
<g id="Node000003" class="node">
<title>Node3</title>
<g id="a_Node000003"><a xlink:href="classChatView.html#ad2db6f12afdba4b49ec7775b2d560ad3" target="_top" xlink:title="Constructs a WavelengthChatView. Initializes the UI elements (labels, message area,...">
<polygon fill="white" stroke="#666666" points="106.75,-54.5 0,-54.5 0,-36 106.75,-36 106.75,-54.5"/>
<text text-anchor="middle" x="53.38" y="-41" font-family="Helvetica,sans-Serif" font-size="10.00">ChatView::ChatView</text>
</a>
</g>
</g>
<!-- Node2&#45;&gt;Node3 -->
<g id="edge2_Node000002_Node000003" class="edge">
<title>Node2&#45;&gt;Node3</title>
<g id="a_edge2_Node000002_Node000003"><a xlink:title=" ">
<path fill="none" stroke="#63b8ff" d="M496.72,-46.09C385.92,-45.88 197.97,-45.52 106.92,-45.35"/>
<polygon fill="#63b8ff" stroke="#63b8ff" points="496.66,-49.59 506.67,-46.1 496.68,-42.59 496.66,-49.59"/>
</a>
</g>
</g>
<!-- Node4 -->
<g id="Node000004" class="node">
<title>Node4</title>
<g id="a_Node000004"><a xlink:href="classChatView.html#afb21e71849031ae941a3f44e9f697c39" target="_top" xlink:title="Starts audio playback if PTT state is Receiving. Prepares the audio output device to receive data.">
<polygon fill="white" stroke="#666666" points="472.5,-36.5 332.75,-36.5 332.75,-18 472.5,-18 472.5,-36.5"/>
<text text-anchor="middle" x="402.62" y="-23" font-family="Helvetica,sans-Serif" font-size="10.00">ChatView::StartAudioOutput</text>
</a>
</g>
</g>
<!-- Node2&#45;&gt;Node4 -->
<g id="edge3_Node000002_Node000004" class="edge">
<title>Node2&#45;&gt;Node4</title>
<g id="a_edge3_Node000002_Node000004"><a xlink:title=" ">
<path fill="none" stroke="#63b8ff" d="M496.78,-37.08C488.71,-36.22 480.6,-35.37 472.72,-34.54"/>
<polygon fill="#63b8ff" stroke="#63b8ff" points="496.33,-40.55 506.64,-38.12 497.06,-33.59 496.33,-40.55"/>
</a>
</g>
</g>
<!-- Node5 -->
<g id="Node000005" class="node">
<title>Node5</title>
<g id="a_Node000005"><a xlink:href="classChatView.html#aad17ec29d4babcf3177b49eea7c48065" target="_top" xlink:title="Slot called when another user starts transmitting PTT on the current Wavelength. If the state is Idle...">
<polygon fill="white" stroke="#666666" points="296.75,-36.5 142.75,-36.5 142.75,-18 296.75,-18 296.75,-36.5"/>
<text text-anchor="middle" x="219.75" y="-23" font-family="Helvetica,sans-Serif" font-size="10.00">ChatView::OnPttStartReceiving</text>
</a>
</g>
</g>
<!-- Node4&#45;&gt;Node5 -->
<g id="edge4_Node000004_Node000005" class="edge">
<title>Node4&#45;&gt;Node5</title>
<g id="a_edge4_Node000004_Node000005"><a xlink:title=" ">
<path fill="none" stroke="#63b8ff" d="M321.23,-27.25C313.21,-27.25 305.08,-27.25 297.1,-27.25"/>
<polygon fill="#63b8ff" stroke="#63b8ff" points="320.96,-30.75 330.96,-27.25 320.96,-23.75 320.96,-30.75"/>
</a>
</g>
</g>
<!-- Node5&#45;&gt;Node3 -->
<g id="edge5_Node000005_Node000003" class="edge">
<title>Node5&#45;&gt;Node3</title>
<g id="a_edge5_Node000005_Node000003"><a xlink:title=" ">
<path fill="none" stroke="#63b8ff" d="M131.16,-36.84C122.97,-37.74 114.86,-38.63 107.14,-39.47"/>
<polygon fill="#63b8ff" stroke="#63b8ff" points="131.27,-40.35 140.83,-35.78 130.51,-33.39 131.27,-40.35"/>
</a>
</g>
</g>
</g>
</svg>

<g id="navigator" transform="translate(0 0)" fill="#404254">
  <rect fill="#f2f5e9" fill-opacity="0.5" stroke="#606060" stroke-width=".5" x="0" y="0" width="60" height="60"/>
  <use id="zoomplus" xlink:href="#zoomPlus" x="17" y="9" onmousedown="handleZoom(evt,'in')"/>
  <use id="zoomminus" xlink:href="#zoomMin" x="42" y="9" onmousedown="handleZoom(evt,'out')"/>
  <use id="reset" xlink:href="#resetDef" x="30" y="36" onmousedown="handleReset()"/>
   <use id="arrowup" xlink:href="#arrowUp" x="0" y="0" onmousedown="handlePan(0,-1)"/>
  <use id="arrowright" xlink:href="#arrowRight" x="0" y="0" onmousedown="handlePan(1,0)"/>
  <use id="arrowdown" xlink:href="#arrowDown" x="0" y="0" onmousedown="handlePan(0,1)"/>
  <use id="arrowleft" xlink:href="#arrowLeft" x="0" y="0" onmousedown="handlePan(-1,0)"/>
</g>
<svg viewBox="0 0 15 15" width="100%" height="30px" preserveAspectRatio="xMaxYMin meet">
 <g id="arrow_out" transform="scale(0.3 0.3)">
  <a xlink:href="classChatView_a3caa164d3775d977cedb7757e932f2dd_icgraph_org.svg" target="_base">
   <rect id="button" ry="5" rx="5" y="6" x="6" height="38" width="38"
        fill="#f2f5e9" fill-opacity="0.5" stroke="#606060" stroke-width="1.0"/>
   <path id="arrow"
     d="M 11.500037,31.436501 C 11.940474,20.09759 22.043105,11.32322 32.158766,21.979434 L 37.068811,17.246167 C 37.068811,17.246167 37.088388,32 37.088388,32 L 22.160133,31.978069 C 22.160133,31.978069 26.997745,27.140456 26.997745,27.140456 C 18.528582,18.264221 13.291696,25.230495 11.500037,31.436501 z"
     style="fill:#404040;"/>
  </a>
 </g>
</svg>

<style type='text/css'>
<![CDATA[
[data-mouse-over-selected='false'] { opacity: 0.7; }
[data-mouse-over-selected='true']  { opacity: 1.0; }
]]>
</style>
<script type="application/ecmascript"><![CDATA[
document.addEventListener('DOMContentLoaded', (event) => {
  highlightEdges();
  highlightAdjacentNodes();
});
]]></script>
</svg>
