<?xml version="1.0" encoding="UTF-8" standalone="no"?>
<!DOCTYPE svg PUBLIC "-//W3C//DTD SVG 1.1//EN"
 "http://www.w3.org/Graphics/SVG/1.1/DTD/svg11.dtd">
<!-- Generated by graphviz version 12.2.1 (0)
 -->
<!-- Title: FingerprintLayer::FingerprintLayer Pages: 1 -->
<!--zoomable 191 -->

<svg id="main" version="1.1" xmlns="http://www.w3.org/2000/svg" xmlns:xlink="http://www.w3.org/1999/xlink" xml:space="preserve" onload="init(evt)">

<style type="text/css"><![CDATA[
.node, .edge {opacity: 0.7;}
.node.selected, .edge.selected {opacity: 1;}
.edge:hover path { stroke: red; }
.edge:hover polygon { stroke: red; fill: red; }
]]></style>

<defs>
  <circle id="rim" cx="0" cy="0" r="7"/>
  <circle id="rim2" cx="0" cy="0" r="3.5"/>
  <g id="zoomPlus">
    <use xlink:href="#rim" fill="#404040"><set attributeName="fill" to="#808080" begin="zoomplus.mouseover" end="zoomplus.mouseout"/></use>
    <path d="M-4,0h8M0,-4v8" fill="none" stroke="white" stroke-width="1.5" pointer-events="none"/>
  </g>
  <g id="zoomMin">
    <use xlink:href="#rim" fill="#404040"><set attributeName="fill" to="#808080" begin="zoomminus.mouseover" end="zoomminus.mouseout"/></use>
    <path d="M-4,0h8" fill="none" stroke="white" stroke-width="1.5" pointer-events="none"/>
  </g>
  <g id="arrowUp" transform="translate(30 24)">
    <use xlink:href="#rim"/>
    <path pointer-events="none" fill="none" stroke="white" stroke-width="1.5" d="M0,-3.0v7 M-2.5,-0.5L0,-3.0L2.5,-0.5"/>
  </g>
  <g id="arrowRight" transform="rotate(90) translate(36 -43)">
    <use xlink:href="#rim"/>
    <path pointer-events="none" fill="none" stroke="white" stroke-width="1.5" d="M0,-3.0v7 M-2.5,-0.5L0,-3.0L2.5,-0.5"/>
  </g>
  <g id="arrowDown" transform="rotate(180) translate(-30 -48)">
    <use xlink:href="#rim"/>
    <path pointer-events="none" fill="none" stroke="white" stroke-width="1.5" d="M0,-3.0v7 M-2.5,-0.5L0,-3.0L2.5,-0.5"/>
  </g>
  <g id="arrowLeft" transform="rotate(270) translate(-36 17)">
    <use xlink:href="#rim"/>
    <path pointer-events="none" fill="none" stroke="white" stroke-width="1.5" d="M0,-3.0v7 M-2.5,-0.5L0,-3.0L2.5,-0.5"/>
  </g>
  <g id="resetDef">
    <use xlink:href="#rim2" fill="#404040"><set attributeName="fill" to="#808080" begin="reset.mouseover" end="reset.mouseout"/></use>
  </g>
</defs>
<script type="application/ecmascript">
var viewWidth = 671;
var viewHeight = 191;
var sectionId = 'dynsection-2';
</script>
<script type="application/ecmascript" xlink:href="svg.min.js"/>
<svg id="graph" class="graph">
<g id="viewport">
<title>FingerprintLayer::FingerprintLayer</title>
<!-- Node1 -->
<g id="Node000001" class="node">
<title>Node1</title>
<g id="a_Node000001"><a xlink:title="Constructs a FingerprintLayer. Initializes the UI elements (title, fingerprint image label,...">
<polygon fill="#999999" stroke="#666666" points="138.25,-120 0,-120 0,-91 138.25,-91 138.25,-120"/>
<text text-anchor="start" x="8" y="-106.5" font-family="Helvetica,sans-Serif" font-size="10.00">FingerprintLayer::Fingerprint</text>
<text text-anchor="middle" x="69.12" y="-96" font-family="Helvetica,sans-Serif" font-size="10.00">Layer</text>
</a>
</g>
</g>
<!-- Node2 -->
<g id="Node000002" class="node">
<title>Node2</title>
<g id="a_Node000002"><a xlink:href="classTranslationManager.html#a370292d4133519fccf401a6b27b2f6a6" target="_top" xlink:title="Returns an instance of the TranslationManager singleton.">
<polygon fill="white" stroke="#666666" points="294.88,-183 194.12,-183 194.12,-154 294.88,-154 294.88,-183"/>
<text text-anchor="start" x="202.12" y="-169.5" font-family="Helvetica,sans-Serif" font-size="10.00">TranslationManager</text>
<text text-anchor="middle" x="244.5" y="-159" font-family="Helvetica,sans-Serif" font-size="10.00">::GetInstance</text>
</a>
</g>
</g>
<!-- Node1&#45;&gt;Node2 -->
<g id="edge1_Node000001_Node000002" class="edge">
<title>Node1&#45;&gt;Node2</title>
<g id="a_edge1_Node000001_Node000002"><a xlink:title=" ">
<path fill="none" stroke="#63b8ff" d="M109.1,-120.36C128.62,-127.73 152.64,-136.71 174.25,-144.5 179.15,-146.27 184.26,-148.08 189.38,-149.89"/>
<polygon fill="#63b8ff" stroke="#63b8ff" points="187.83,-153.05 198.42,-153.06 190.14,-146.45 187.83,-153.05"/>
</a>
</g>
</g>
<!-- Node4 -->
<g id="Node000004" class="node">
<title>Node4</title>
<g id="a_Node000004"><a xlink:href="classSecurityLayer.html#adc79fa2453a0034a739a7cfcc225db42" target="_top" xlink:title="Constructs a SecurityLayer.">
<polygon fill="white" stroke="#666666" points="314.75,-135.75 174.25,-135.75 174.25,-117.25 314.75,-117.25 314.75,-135.75"/>
<text text-anchor="middle" x="244.5" y="-122.25" font-family="Helvetica,sans-Serif" font-size="10.00">SecurityLayer::SecurityLayer</text>
</a>
</g>
</g>
<!-- Node1&#45;&gt;Node4 -->
<g id="edge3_Node000001_Node000004" class="edge">
<title>Node1&#45;&gt;Node4</title>
<g id="a_edge3_Node000001_Node000004"><a xlink:title=" ">
<path fill="none" stroke="#63b8ff" d="M138.65,-113.8C146.5,-114.75 154.55,-115.73 162.54,-116.69"/>
<polygon fill="#63b8ff" stroke="#63b8ff" points="161.92,-120.14 172.27,-117.87 162.76,-113.19 161.92,-120.14"/>
</a>
</g>
</g>
<!-- Node5 -->
<g id="Node000005" class="node">
<title>Node5</title>
<g id="a_Node000005"><a xlink:href="classTranslationManager.html#ab6435893ce84a82ab11a7604aa9746d6" target="_top" xlink:title="Retrieves the translated string for the specified key.">
<polygon fill="white" stroke="#666666" points="294.88,-99 194.12,-99 194.12,-70 294.88,-70 294.88,-99"/>
<text text-anchor="start" x="202.12" y="-85.5" font-family="Helvetica,sans-Serif" font-size="10.00">TranslationManager</text>
<text text-anchor="middle" x="244.5" y="-75" font-family="Helvetica,sans-Serif" font-size="10.00">::Translate</text>
</a>
</g>
</g>
<!-- Node1&#45;&gt;Node5 -->
<g id="edge4_Node000001_Node000005" class="edge">
<title>Node1&#45;&gt;Node5</title>
<g id="a_edge4_Node000001_Node000005"><a xlink:title=" ">
<path fill="none" stroke="#63b8ff" d="M138.65,-97.2C153.14,-95.45 168.33,-93.6 182.52,-91.89"/>
<polygon fill="#63b8ff" stroke="#63b8ff" points="182.64,-95.4 192.15,-90.72 181.8,-88.45 182.64,-95.4"/>
</a>
</g>
</g>
<!-- Node6 -->
<g id="Node000006" class="node">
<title>Node6</title>
<g id="a_Node000006"><a xlink:href="classFingerprintLayer.html#ac63e2235cb171874d2647bd8dbf9d5cd" target="_top" xlink:title="Slot called periodically by fingerprint_timer_ when the user is holding the mouse button....">
<polygon fill="white" stroke="#666666" points="306.12,-52 182.88,-52 182.88,-23 306.12,-23 306.12,-52"/>
<text text-anchor="start" x="190.88" y="-38.5" font-family="Helvetica,sans-Serif" font-size="10.00">FingerprintLayer::Update</text>
<text text-anchor="middle" x="244.5" y="-28" font-family="Helvetica,sans-Serif" font-size="10.00">Progress</text>
</a>
</g>
</g>
<!-- Node1&#45;&gt;Node6 -->
<g id="edge5_Node000001_Node000006" class="edge">
<title>Node1&#45;&gt;Node6</title>
<g id="a_edge5_Node000001_Node000006"><a xlink:title=" ">
<path fill="none" stroke="#63b8ff" d="M103.66,-90.66C123.95,-81.85 150.43,-70.65 174.25,-61.5 178.85,-59.73 183.64,-57.95 188.47,-56.2"/>
<polygon fill="#63b8ff" stroke="#63b8ff" points="189.35,-59.6 197.59,-52.94 186.99,-53.01 189.35,-59.6"/>
</a>
</g>
</g>
<!-- Node3 -->
<g id="Node000003" class="node">
<title>Node3</title>
<g id="a_Node000003"><a xlink:href="classTranslationManager.html#afcf7f2ccfdf410f09d0a740c1826a1f3" target="_top" xlink:title="Private constructor to enforce the singleton pattern.">
<polygon fill="white" stroke="#666666" points="468,-183 361.25,-183 361.25,-154 468,-154 468,-183"/>
<text text-anchor="start" x="369.25" y="-169.5" font-family="Helvetica,sans-Serif" font-size="10.00">TranslationManager</text>
<text text-anchor="middle" x="414.62" y="-159" font-family="Helvetica,sans-Serif" font-size="10.00">::TranslationManager</text>
</a>
</g>
</g>
<!-- Node2&#45;&gt;Node3 -->
<g id="edge2_Node000002_Node000003" class="edge">
<title>Node2&#45;&gt;Node3</title>
<g id="a_edge2_Node000002_Node000003"><a xlink:title=" ">
<path fill="none" stroke="#63b8ff" d="M295.03,-168.5C312.12,-168.5 331.51,-168.5 349.58,-168.5"/>
<polygon fill="#63b8ff" stroke="#63b8ff" points="349.42,-172 359.42,-168.5 349.42,-165 349.42,-172"/>
</a>
</g>
</g>
<!-- Node7 -->
<g id="Node000007" class="node">
<title>Node7</title>
<g id="a_Node000007"><a xlink:href="classFingerprintLayer.html#a8010338395204b1737a32235a799a1e1" target="_top" xlink:title="Handles the completion of the fingerprint scan. Changes the UI element styles (border,...">
<polygon fill="white" stroke="#666666" points="478.5,-76 350.75,-76 350.75,-47 478.5,-47 478.5,-76"/>
<text text-anchor="start" x="358.75" y="-62.5" font-family="Helvetica,sans-Serif" font-size="10.00">FingerprintLayer::Process</text>
<text text-anchor="middle" x="414.62" y="-52" font-family="Helvetica,sans-Serif" font-size="10.00">Fingerprint</text>
</a>
</g>
</g>
<!-- Node6&#45;&gt;Node7 -->
<g id="edge6_Node000006_Node000007" class="edge">
<title>Node6&#45;&gt;Node7</title>
<g id="a_edge6_Node000006_Node000007"><a xlink:title=" ">
<path fill="none" stroke="#63b8ff" d="M306.2,-46.16C316.88,-47.69 328.1,-49.29 339.11,-50.86"/>
<polygon fill="#63b8ff" stroke="#63b8ff" points="338.58,-54.32 348.97,-52.27 339.56,-47.39 338.58,-54.32"/>
</a>
</g>
</g>
<!-- Node9 -->
<g id="Node000009" class="node">
<title>Node9</title>
<g id="a_Node000009"><a xlink:href="classFingerprintLayer.html#a4cca78c85ba146785ac7b4b9f410c7b7" target="_top" xlink:title="Updates the visual appearance of the fingerprint image during the scan. Renders the SVG and applies a...">
<polygon fill="white" stroke="#666666" points="476.25,-29 353,-29 353,0 476.25,0 476.25,-29"/>
<text text-anchor="start" x="361" y="-15.5" font-family="Helvetica,sans-Serif" font-size="10.00">FingerprintLayer::Update</text>
<text text-anchor="middle" x="414.62" y="-5" font-family="Helvetica,sans-Serif" font-size="10.00">FingerprintScan</text>
</a>
</g>
</g>
<!-- Node6&#45;&gt;Node9 -->
<g id="edge8_Node000006_Node000009" class="edge">
<title>Node6&#45;&gt;Node9</title>
<g id="a_edge8_Node000006_Node000009"><a xlink:title=" ">
<path fill="none" stroke="#63b8ff" d="M306.2,-29.2C317.67,-27.63 329.78,-25.97 341.56,-24.36"/>
<polygon fill="#63b8ff" stroke="#63b8ff" points="341.8,-27.86 351.24,-23.04 340.85,-20.92 341.8,-27.86"/>
</a>
</g>
</g>
<!-- Node8 -->
<g id="Node000008" class="node">
<title>Node8</title>
<g id="a_Node000008"><a xlink:href="classSecurityLayer.html#a6b6759d7fd1e729ff63ea9be3c121878" target="_top" xlink:title="Emitted when the user successfully completes the security challenge presented by this layer.">
<polygon fill="white" stroke="#666666" points="663.25,-70.75 514.5,-70.75 514.5,-52.25 663.25,-52.25 663.25,-70.75"/>
<text text-anchor="middle" x="588.88" y="-57.25" font-family="Helvetica,sans-Serif" font-size="10.00">SecurityLayer::layerCompleted</text>
</a>
</g>
</g>
<!-- Node7&#45;&gt;Node8 -->
<g id="edge7_Node000007_Node000008" class="edge">
<title>Node7&#45;&gt;Node8</title>
<g id="a_edge7_Node000007_Node000008"><a xlink:title=" ">
<path fill="none" stroke="#63b8ff" d="M478.79,-61.5C486.62,-61.5 494.72,-61.5 502.81,-61.5"/>
<polygon fill="#63b8ff" stroke="#63b8ff" points="502.7,-65 512.7,-61.5 502.7,-58 502.7,-65"/>
</a>
</g>
</g>
</g>
</svg>

<g id="navigator" transform="translate(0 0)" fill="#404254">
  <rect fill="#f2f5e9" fill-opacity="0.5" stroke="#606060" stroke-width=".5" x="0" y="0" width="60" height="60"/>
  <use id="zoomplus" xlink:href="#zoomPlus" x="17" y="9" onmousedown="handleZoom(evt,'in')"/>
  <use id="zoomminus" xlink:href="#zoomMin" x="42" y="9" onmousedown="handleZoom(evt,'out')"/>
  <use id="reset" xlink:href="#resetDef" x="30" y="36" onmousedown="handleReset()"/>
   <use id="arrowup" xlink:href="#arrowUp" x="0" y="0" onmousedown="handlePan(0,-1)"/>
  <use id="arrowright" xlink:href="#arrowRight" x="0" y="0" onmousedown="handlePan(1,0)"/>
  <use id="arrowdown" xlink:href="#arrowDown" x="0" y="0" onmousedown="handlePan(0,1)"/>
  <use id="arrowleft" xlink:href="#arrowLeft" x="0" y="0" onmousedown="handlePan(-1,0)"/>
</g>
<svg viewBox="0 0 15 15" width="100%" height="30px" preserveAspectRatio="xMaxYMin meet">
 <g id="arrow_out" transform="scale(0.3 0.3)">
  <a xlink:href="classFingerprintLayer_ac3c17d23030e0f5de68c4c4472692559_cgraph_org.svg" target="_base">
   <rect id="button" ry="5" rx="5" y="6" x="6" height="38" width="38"
        fill="#f2f5e9" fill-opacity="0.5" stroke="#606060" stroke-width="1.0"/>
   <path id="arrow"
     d="M 11.500037,31.436501 C 11.940474,20.09759 22.043105,11.32322 32.158766,21.979434 L 37.068811,17.246167 C 37.068811,17.246167 37.088388,32 37.088388,32 L 22.160133,31.978069 C 22.160133,31.978069 26.997745,27.140456 26.997745,27.140456 C 18.528582,18.264221 13.291696,25.230495 11.500037,31.436501 z"
     style="fill:#404040;"/>
  </a>
 </g>
</svg>

<style type='text/css'>
<![CDATA[
[data-mouse-over-selected='false'] { opacity: 0.7; }
[data-mouse-over-selected='true']  { opacity: 1.0; }
]]>
</style>
<script type="application/ecmascript"><![CDATA[
document.addEventListener('DOMContentLoaded', (event) => {
  highlightEdges();
  highlightAdjacentNodes();
});
]]></script>
</svg>
