<?xml version="1.0" encoding="UTF-8" standalone="no"?>
<!DOCTYPE svg PUBLIC "-//W3C//DTD SVG 1.1//EN"
 "http://www.w3.org/Graphics/SVG/1.1/DTD/svg11.dtd">
<!-- Generated by graphviz version 12.2.1 (0)
 -->
<!-- Title: AttachmentViewer::SetContent Pages: 1 -->
<svg width="543pt" height="84pt"
 viewBox="0.00 0.00 542.75 84.00" xmlns="http://www.w3.org/2000/svg" xmlns:xlink="http://www.w3.org/1999/xlink">
<g id="graph0" class="graph" transform="scale(1 1) rotate(0) translate(4 80)">
<title>AttachmentViewer::SetContent</title>
<!-- Node1 -->
<g id="Node000001" class="node">
<title>Node1</title>
<g id="a_Node000001"><a xlink:title="Sets the widget to be displayed after the decryption animation. Removes any previous content,...">
<polygon fill="#999999" stroke="#666666" points="151,-46.75 0,-46.75 0,-28.25 151,-28.25 151,-46.75"/>
<text text-anchor="middle" x="75.5" y="-33.25" font-family="Helvetica,sans-Serif" font-size="10.00">AttachmentViewer::SetContent</text>
</a>
</g>
</g>
<!-- Node2 -->
<g id="Node000002" class="node">
<title>Node2</title>
<g id="a_Node000002"><a xlink:href="classAttachmentViewer.html#a586152c0b840192e11c1453cbfd20926" target="_top" xlink:title="Sets the decryption progress counter (0&#45;100). Updates the internal value, updates the status label te...">
<polygon fill="white" stroke="#666666" points="351.5,-52 187,-52 187,-23 351.5,-23 351.5,-52"/>
<text text-anchor="start" x="195" y="-38.5" font-family="Helvetica,sans-Serif" font-size="10.00">AttachmentViewer::SetDecryption</text>
<text text-anchor="middle" x="269.25" y="-28" font-family="Helvetica,sans-Serif" font-size="10.00">Counter</text>
</a>
</g>
</g>
<!-- Node1&#45;&gt;Node2 -->
<g id="edge1_Node000001_Node000002" class="edge">
<title>Node1&#45;&gt;Node2</title>
<g id="a_edge1_Node000001_Node000002"><a xlink:title=" ">
<path fill="none" stroke="#63b8ff" d="M151.46,-37.5C159.31,-37.5 167.36,-37.5 175.38,-37.5"/>
<polygon fill="#63b8ff" stroke="#63b8ff" points="175.17,-41 185.17,-37.5 175.17,-34 175.17,-41"/>
</a>
</g>
</g>
<!-- Node3 -->
<g id="Node000003" class="node">
<title>Node3</title>
<g id="a_Node000003"><a xlink:href="classAttachmentViewer.html#a37125c2f6e7eda53cd7a02ff5de60a97" target="_top" xlink:title="Emitted when the decryptionCounter property changes. Connected to the MaskOverlay&#39;s SetRevealProgress...">
<polygon fill="white" stroke="#666666" points="534.75,-76 387.5,-76 387.5,-47 534.75,-47 534.75,-76"/>
<text text-anchor="start" x="395.5" y="-62.5" font-family="Helvetica,sans-Serif" font-size="10.00">AttachmentViewer::decryption</text>
<text text-anchor="middle" x="461.12" y="-52" font-family="Helvetica,sans-Serif" font-size="10.00">CounterChanged</text>
</a>
</g>
</g>
<!-- Node2&#45;&gt;Node3 -->
<g id="edge2_Node000002_Node000003" class="edge">
<title>Node2&#45;&gt;Node3</title>
<g id="a_edge2_Node000002_Node000003"><a xlink:title=" ">
<path fill="none" stroke="#63b8ff" d="M351.88,-47.82C359.87,-48.83 367.99,-49.85 376.01,-50.87"/>
<polygon fill="#63b8ff" stroke="#63b8ff" points="375.39,-54.32 385.75,-52.1 376.27,-47.37 375.39,-54.32"/>
</a>
</g>
</g>
<!-- Node4 -->
<g id="Node000004" class="node">
<title>Node4</title>
<g id="a_Node000004"><a xlink:href="classAttachmentViewer.html#a0ec55f1bb4c15bac94e09814d0bf844f" target="_top" xlink:title="Updates the status label text to show the current decryption percentage.">
<polygon fill="white" stroke="#666666" points="527.62,-29 394.62,-29 394.62,0 527.62,0 527.62,-29"/>
<text text-anchor="start" x="402.62" y="-15.5" font-family="Helvetica,sans-Serif" font-size="10.00">AttachmentViewer::Update</text>
<text text-anchor="middle" x="461.12" y="-5" font-family="Helvetica,sans-Serif" font-size="10.00">DecryptionStatus</text>
</a>
</g>
</g>
<!-- Node2&#45;&gt;Node4 -->
<g id="edge3_Node000002_Node000004" class="edge">
<title>Node2&#45;&gt;Node4</title>
<g id="a_edge3_Node000002_Node000004"><a xlink:title=" ">
<path fill="none" stroke="#63b8ff" d="M351.88,-27.61C362.17,-26.37 372.68,-25.09 382.91,-23.85"/>
<polygon fill="#63b8ff" stroke="#63b8ff" points="383.3,-27.33 392.8,-22.65 382.46,-20.38 383.3,-27.33"/>
</a>
</g>
</g>
</g>
</svg>
