<?xml version="1.0" encoding="UTF-8" standalone="no"?>
<!DOCTYPE svg PUBLIC "-//W3C//DTD SVG 1.1//EN"
 "http://www.w3.org/Graphics/SVG/1.1/DTD/svg11.dtd">
<!-- Generated by graphviz version 12.2.1 (0)
 -->
<!-- Title: WavelengthRegistry::RemoveWavelength Pages: 1 -->
<svg width="1376pt" height="262pt"
 viewBox="0.00 0.00 1375.75 262.00" xmlns="http://www.w3.org/2000/svg" xmlns:xlink="http://www.w3.org/1999/xlink">
<g id="graph0" class="graph" transform="scale(1 1) rotate(0) translate(4 258)">
<title>WavelengthRegistry::RemoveWavelength</title>
<!-- Node1 -->
<g id="Node000001" class="node">
<title>Node1</title>
<g id="a_Node000001"><a xlink:title="Removes a wavelength from the registry. If the removed wavelength was the active one,...">
<polygon fill="#999999" stroke="#666666" points="1367.75,-175 1260.25,-175 1260.25,-146 1367.75,-146 1367.75,-175"/>
<text text-anchor="start" x="1268.25" y="-161.5" font-family="Helvetica,sans-Serif" font-size="10.00">WavelengthRegistry</text>
<text text-anchor="middle" x="1314" y="-151" font-family="Helvetica,sans-Serif" font-size="10.00">::RemoveWavelength</text>
</a>
</g>
</g>
<!-- Node2 -->
<g id="Node000002" class="node">
<title>Node2</title>
<g id="a_Node000002"><a xlink:href="classWavelengthRegistry.html#aba212440f21719a2d6540cd60b40577b" target="_top" xlink:title="Removes all wavelengths and pending registrations from the registry. Sets the active wavelength to &quot;&#45;...">
<polygon fill="white" stroke="#666666" points="1192,-254 1080,-254 1080,-225 1192,-225 1192,-254"/>
<text text-anchor="start" x="1088" y="-240.5" font-family="Helvetica,sans-Serif" font-size="10.00">WavelengthRegistry</text>
<text text-anchor="middle" x="1136" y="-230" font-family="Helvetica,sans-Serif" font-size="10.00">::ClearAllWavelengths</text>
</a>
</g>
</g>
<!-- Node1&#45;&gt;Node2 -->
<g id="edge1_Node000001_Node000002" class="edge">
<title>Node1&#45;&gt;Node2</title>
<g id="a_edge1_Node000001_Node000002"><a xlink:title=" ">
<path fill="none" stroke="#63b8ff" d="M1283.53,-181.74C1266.8,-193.03 1245.08,-206.41 1224.25,-215.5 1214.17,-219.9 1203.08,-223.69 1192.29,-226.87"/>
<polygon fill="#63b8ff" stroke="#63b8ff" points="1285.27,-184.79 1291.52,-176.24 1281.3,-179.03 1285.27,-184.79"/>
</a>
</g>
</g>
<!-- Node3 -->
<g id="Node000003" class="node">
<title>Node3</title>
<g id="a_Node000003"><a xlink:href="classWavelengthLeaver.html#af9c574c0d19226e480a7af8edd48f759" target="_top" xlink:title="Closes a specific wavelength (only if the current user is the host). Checks if the user is the host f...">
<polygon fill="white" stroke="#666666" points="1224.25,-206.75 1047.75,-206.75 1047.75,-188.25 1224.25,-188.25 1224.25,-206.75"/>
<text text-anchor="middle" x="1136" y="-193.25" font-family="Helvetica,sans-Serif" font-size="10.00">WavelengthLeaver::CloseWavelength</text>
</a>
</g>
</g>
<!-- Node1&#45;&gt;Node3 -->
<g id="edge2_Node000001_Node000003" class="edge">
<title>Node1&#45;&gt;Node3</title>
<g id="a_edge2_Node000001_Node000003"><a xlink:title=" ">
<path fill="none" stroke="#63b8ff" d="M1249.03,-173.95C1227.24,-178.53 1203.32,-183.56 1183.2,-187.79"/>
<polygon fill="#63b8ff" stroke="#63b8ff" points="1249.65,-177.4 1258.71,-171.91 1248.21,-170.54 1249.65,-177.4"/>
</a>
</g>
</g>
<!-- Node7 -->
<g id="Node000007" class="node">
<title>Node7</title>
<g id="a_Node000007"><a xlink:href="classWavelengthCreator.html#aceda419aab0bae7f3323bedfcb0ad6d1" target="_top" xlink:title="Attempts to create and register a new wavelength with the relay server. Checks if the wavelength alre...">
<polygon fill="white" stroke="#666666" points="437.62,-127 333.12,-127 333.12,-98 437.62,-98 437.62,-127"/>
<text text-anchor="start" x="341.12" y="-113.5" font-family="Helvetica,sans-Serif" font-size="10.00">WavelengthCreator::</text>
<text text-anchor="middle" x="385.38" y="-103" font-family="Helvetica,sans-Serif" font-size="10.00">CreateWavelength</text>
</a>
</g>
</g>
<!-- Node1&#45;&gt;Node7 -->
<g id="edge5_Node000001_Node000007" class="edge">
<title>Node1&#45;&gt;Node7</title>
<g id="a_edge5_Node000001_Node000007"><a xlink:title=" ">
<path fill="none" stroke="#63b8ff" d="M1248.38,-160.5C1174.32,-160.5 1049.27,-160.5 941.75,-160.5 941.75,-160.5 941.75,-160.5 761.75,-160.5 645.3,-160.5 510.15,-137.49 438.03,-123.33"/>
<polygon fill="#63b8ff" stroke="#63b8ff" points="1248.31,-164 1258.31,-160.5 1248.31,-157 1248.31,-164"/>
</a>
</g>
</g>
<!-- Node9 -->
<g id="Node000009" class="node">
<title>Node9</title>
<g id="a_Node000009"><a xlink:href="classWavelengthJoiner.html#a10830ee7f998cc18b6df1949455ae98e" target="_top" xlink:title="Attempts to join an existing wavelength hosted on the relay server. Checks if the wavelength is alrea...">
<polygon fill="white" stroke="#666666" points="468.75,-62.75 302,-62.75 302,-44.25 468.75,-44.25 468.75,-62.75"/>
<text text-anchor="middle" x="385.38" y="-49.25" font-family="Helvetica,sans-Serif" font-size="10.00">WavelengthJoiner::JoinWavelength</text>
</a>
</g>
</g>
<!-- Node1&#45;&gt;Node9 -->
<g id="edge7_Node000001_Node000009" class="edge">
<title>Node1&#45;&gt;Node9</title>
<g id="a_edge7_Node000001_Node000009"><a xlink:title=" ">
<path fill="none" stroke="#63b8ff" d="M1289.52,-138.52C1272.61,-123.88 1248.58,-105.39 1224.25,-94.5 1107.27,-42.12 1069.92,-36.5 941.75,-36.5 941.75,-36.5 941.75,-36.5 761.75,-36.5 660.96,-36.5 545.1,-42.69 469.08,-47.6"/>
<polygon fill="#63b8ff" stroke="#63b8ff" points="1286.75,-140.73 1296.55,-144.76 1291.4,-135.5 1286.75,-140.73"/>
</a>
</g>
</g>
<!-- Node13 -->
<g id="Node000013" class="node">
<title>Node13</title>
<g id="a_Node000013"><a xlink:href="classMessageProcessor.html#a8cc47128d254eb378c4988551725ba95" target="_top" xlink:title="Processes messages indicating a wavelength was closed (e.g., &quot;wavelength_closed&quot;, &quot;close_wavelength&quot; ...">
<polygon fill="white" stroke="#666666" points="1207,-132 1065,-132 1065,-103 1207,-103 1207,-132"/>
<text text-anchor="start" x="1073" y="-118.5" font-family="Helvetica,sans-Serif" font-size="10.00">MessageProcessor::Process</text>
<text text-anchor="middle" x="1136" y="-108" font-family="Helvetica,sans-Serif" font-size="10.00">WavelengthClosed</text>
</a>
</g>
</g>
<!-- Node1&#45;&gt;Node13 -->
<g id="edge11_Node000001_Node000013" class="edge">
<title>Node1&#45;&gt;Node13</title>
<g id="a_edge11_Node000001_Node000013"><a xlink:title=" ">
<path fill="none" stroke="#63b8ff" d="M1249.42,-144.97C1232.7,-140.88 1214.7,-136.48 1198.12,-132.43"/>
<polygon fill="#63b8ff" stroke="#63b8ff" points="1248.18,-148.27 1258.72,-147.24 1249.84,-141.47 1248.18,-148.27"/>
</a>
</g>
</g>
<!-- Node4 -->
<g id="Node000004" class="node">
<title>Node4</title>
<g id="a_Node000004"><a xlink:href="classSessionCoordinator.html#a0dd567ac5a1ab2f57e17698c1dc93a1b" target="_top" xlink:title="Closes a specific wavelength (only if the current user is the host). Unregisters the wavelength local...">
<polygon fill="white" stroke="#666666" points="991.5,-218 890,-218 890,-189 991.5,-189 991.5,-218"/>
<text text-anchor="start" x="898" y="-204.5" font-family="Helvetica,sans-Serif" font-size="10.00">SessionCoordinator</text>
<text text-anchor="middle" x="940.75" y="-194" font-family="Helvetica,sans-Serif" font-size="10.00">::CloseWavelength</text>
</a>
</g>
</g>
<!-- Node3&#45;&gt;Node4 -->
<g id="edge3_Node000003_Node000004" class="edge">
<title>Node3&#45;&gt;Node4</title>
<g id="a_edge3_Node000003_Node000004"><a xlink:title=" ">
<path fill="none" stroke="#63b8ff" d="M1036.21,-200.57C1020.81,-201.05 1005.48,-201.52 991.78,-201.95"/>
<polygon fill="#63b8ff" stroke="#63b8ff" points="1036.02,-204.07 1045.91,-200.27 1035.81,-197.08 1036.02,-204.07"/>
</a>
</g>
</g>
<!-- Node5 -->
<g id="Node000005" class="node">
<title>Node5</title>
<g id="a_Node000005"><a xlink:href="classChatView.html#a23a3ce66f4af487f1f0571e72aaca9aa" target="_top" xlink:title="Initiates the process of leaving or closing the current Wavelength. Updates the status indicator,...">
<polygon fill="#fff0f0" stroke="red" points="831.88,-212.75 693.62,-212.75 693.62,-194.25 831.88,-194.25 831.88,-212.75"/>
<text text-anchor="middle" x="762.75" y="-199.25" font-family="Helvetica,sans-Serif" font-size="10.00">ChatView::AbortWavelength</text>
</a>
</g>
</g>
<!-- Node4&#45;&gt;Node5 -->
<g id="edge4_Node000004_Node000005" class="edge">
<title>Node4&#45;&gt;Node5</title>
<g id="a_edge4_Node000004_Node000005"><a xlink:title=" ">
<path fill="none" stroke="#63b8ff" d="M878.6,-203.5C863.63,-203.5 847.52,-203.5 832.24,-203.5"/>
<polygon fill="#63b8ff" stroke="#63b8ff" points="878.27,-207 888.27,-203.5 878.27,-200 878.27,-207"/>
</a>
</g>
</g>
<!-- Node8 -->
<g id="Node000008" class="node">
<title>Node8</title>
<g id="a_Node000008"><a xlink:href="classSessionCoordinator.html#ad439996ffc2f1a6fc57835502c69ce7d" target="_top" xlink:title="Initiates the creation of a new wavelength. Delegates the call to WavelengthCreator and registers the...">
<polygon fill="white" stroke="#666666" points="260.75,-127 159.25,-127 159.25,-98 260.75,-98 260.75,-127"/>
<text text-anchor="start" x="167.25" y="-113.5" font-family="Helvetica,sans-Serif" font-size="10.00">SessionCoordinator</text>
<text text-anchor="middle" x="210" y="-103" font-family="Helvetica,sans-Serif" font-size="10.00">::CreateWavelength</text>
</a>
</g>
</g>
<!-- Node7&#45;&gt;Node8 -->
<g id="edge6_Node000007_Node000008" class="edge">
<title>Node7&#45;&gt;Node8</title>
<g id="a_edge6_Node000007_Node000008"><a xlink:title=" ">
<path fill="none" stroke="#63b8ff" d="M321.4,-112.5C301.58,-112.5 279.96,-112.5 261.16,-112.5"/>
<polygon fill="#63b8ff" stroke="#63b8ff" points="321.31,-116 331.31,-112.5 321.31,-109 321.31,-116"/>
</a>
</g>
</g>
<!-- Node10 -->
<g id="Node000010" class="node">
<title>Node10</title>
<g id="a_Node000010"><a xlink:href="classSessionCoordinator.html#a78a62f7f321920c128757ee20568a972" target="_top" xlink:title="Initiates joining an existing wavelength. Delegates the call to WavelengthJoiner and registers the wa...">
<polygon fill="white" stroke="#666666" points="260.75,-29 159.25,-29 159.25,0 260.75,0 260.75,-29"/>
<text text-anchor="start" x="167.25" y="-15.5" font-family="Helvetica,sans-Serif" font-size="10.00">SessionCoordinator</text>
<text text-anchor="middle" x="210" y="-5" font-family="Helvetica,sans-Serif" font-size="10.00">::JoinWavelength</text>
</a>
</g>
</g>
<!-- Node9&#45;&gt;Node10 -->
<g id="edge8_Node000009_Node000010" class="edge">
<title>Node9&#45;&gt;Node10</title>
<g id="a_edge8_Node000009_Node000010"><a xlink:title=" ">
<path fill="none" stroke="#63b8ff" d="M329.9,-41.25C307.89,-36.3 282.66,-30.62 261.12,-25.77"/>
<polygon fill="#63b8ff" stroke="#63b8ff" points="329.07,-44.65 339.6,-43.43 330.61,-37.82 329.07,-44.65"/>
</a>
</g>
</g>
<!-- Node11 -->
<g id="Node000011" class="node">
<title>Node11</title>
<g id="a_Node000011"><a xlink:href="classJoinWavelengthDialog.html#a0cb74ecdcc726cea2ce437c85cd75185" target="_top" xlink:title="Attempts to join the wavelength using the entered frequency and password. Shows a wait cursor,...">
<polygon fill="white" stroke="#666666" points="266,-76 154,-76 154,-47 266,-47 266,-76"/>
<text text-anchor="start" x="162" y="-62.5" font-family="Helvetica,sans-Serif" font-size="10.00">JoinWavelengthDialog</text>
<text text-anchor="middle" x="210" y="-52" font-family="Helvetica,sans-Serif" font-size="10.00">::TryJoin</text>
</a>
</g>
</g>
<!-- Node9&#45;&gt;Node11 -->
<g id="edge9_Node000009_Node000011" class="edge">
<title>Node9&#45;&gt;Node11</title>
<g id="a_edge9_Node000009_Node000011"><a xlink:title=" ">
<path fill="none" stroke="#63b8ff" d="M290.46,-57.83C282.21,-58.21 274.04,-58.59 266.26,-58.95"/>
<polygon fill="#63b8ff" stroke="#63b8ff" points="290.41,-61.34 300.24,-57.38 290.09,-54.35 290.41,-61.34"/>
</a>
</g>
</g>
<!-- Node12 -->
<g id="Node000012" class="node">
<title>Node12</title>
<g id="a_Node000012"><a xlink:href="classJoinWavelengthDialog.html#a22f6a3f4da1054f306ee566edf3f2d74" target="_top" xlink:title="Constructs a JoinWavelengthDialog. Sets up the UI elements (labels, input fields, buttons),...">
<polygon fill="white" stroke="#666666" points="118,-76 0,-76 0,-47 118,-47 118,-76"/>
<text text-anchor="start" x="8" y="-62.5" font-family="Helvetica,sans-Serif" font-size="10.00">JoinWavelengthDialog</text>
<text text-anchor="middle" x="59" y="-52" font-family="Helvetica,sans-Serif" font-size="10.00">::JoinWavelengthDialog</text>
</a>
</g>
</g>
<!-- Node11&#45;&gt;Node12 -->
<g id="edge10_Node000011_Node000012" class="edge">
<title>Node11&#45;&gt;Node12</title>
<g id="a_edge10_Node000011_Node000012"><a xlink:title=" ">
<path fill="none" stroke="#63b8ff" d="M142.03,-61.5C134.1,-61.5 126.06,-61.5 118.27,-61.5"/>
<polygon fill="#63b8ff" stroke="#63b8ff" points="142,-65 152,-61.5 142,-58 142,-65"/>
</a>
</g>
</g>
<!-- Node14 -->
<g id="Node000014" class="node">
<title>Node14</title>
<g id="a_Node000014"><a xlink:href="classMessageProcessor.html#abdfefd4e6d33731ee50463441ea1a368" target="_top" xlink:title="Processes an incoming text message (JSON) received from the WebSocket. Parses the JSON,...">
<polygon fill="white" stroke="#666666" points="833.75,-111 691.75,-111 691.75,-82 833.75,-82 833.75,-111"/>
<text text-anchor="start" x="699.75" y="-97.5" font-family="Helvetica,sans-Serif" font-size="10.00">MessageProcessor::Process</text>
<text text-anchor="middle" x="762.75" y="-87" font-family="Helvetica,sans-Serif" font-size="10.00">IncomingMessage</text>
</a>
</g>
</g>
<!-- Node13&#45;&gt;Node14 -->
<g id="edge12_Node000013_Node000014" class="edge">
<title>Node13&#45;&gt;Node14</title>
<g id="a_edge12_Node000013_Node000014"><a xlink:title=" ">
<path fill="none" stroke="#63b8ff" d="M1053.36,-113.47C1000.9,-110.81 931.29,-107.16 869.75,-103.5 858.24,-102.82 846.04,-102.05 834.16,-101.28"/>
<polygon fill="#63b8ff" stroke="#63b8ff" points="1052.94,-116.95 1063.11,-113.96 1053.3,-109.96 1052.94,-116.95"/>
</a>
</g>
</g>
<!-- Node16 -->
<g id="Node000016" class="node">
<title>Node16</title>
<g id="a_Node000016"><a xlink:href="classMessageProcessor.html#a901206afb9503ef54fdba2a2a594b5df" target="_top" xlink:title="Processes messages of type &quot;system_command&quot;. Handles commands like &quot;ping&quot;, &quot;close_wavelength&quot;,...">
<polygon fill="white" stroke="#666666" points="1011.75,-94 869.75,-94 869.75,-65 1011.75,-65 1011.75,-94"/>
<text text-anchor="start" x="877.75" y="-80.5" font-family="Helvetica,sans-Serif" font-size="10.00">MessageProcessor::Process</text>
<text text-anchor="middle" x="940.75" y="-70" font-family="Helvetica,sans-Serif" font-size="10.00">SystemCommand</text>
</a>
</g>
</g>
<!-- Node13&#45;&gt;Node16 -->
<g id="edge16_Node000013_Node000016" class="edge">
<title>Node13&#45;&gt;Node16</title>
<g id="a_edge16_Node000013_Node000016"><a xlink:title=" ">
<path fill="none" stroke="#63b8ff" d="M1053.69,-101.51C1039.84,-98.79 1025.55,-95.98 1012.01,-93.32"/>
<polygon fill="#63b8ff" stroke="#63b8ff" points="1052.71,-104.89 1063.2,-103.38 1054.06,-98.02 1052.71,-104.89"/>
</a>
</g>
</g>
<!-- Node15 -->
<g id="Node000015" class="node">
<title>Node15</title>
<g id="a_Node000015"><a xlink:href="classMessageProcessor.html#ae0f85d4a5a3c92b0873e7889dfb79862" target="_top" xlink:title="Connects the appropriate slots of this processor to the signals of a given QWebSocket....">
<polygon fill="white" stroke="#666666" points="655.75,-111 504.75,-111 504.75,-82 655.75,-82 655.75,-111"/>
<text text-anchor="start" x="512.75" y="-97.5" font-family="Helvetica,sans-Serif" font-size="10.00">MessageProcessor::SetSocket</text>
<text text-anchor="middle" x="580.25" y="-87" font-family="Helvetica,sans-Serif" font-size="10.00">MessageHandlers</text>
</a>
</g>
</g>
<!-- Node14&#45;&gt;Node15 -->
<g id="edge13_Node000014_Node000015" class="edge">
<title>Node14&#45;&gt;Node15</title>
<g id="a_edge13_Node000014_Node000015"><a xlink:title=" ">
<path fill="none" stroke="#63b8ff" d="M680.2,-96.5C672.19,-96.5 664.08,-96.5 656.13,-96.5"/>
<polygon fill="#63b8ff" stroke="#63b8ff" points="679.93,-100 689.93,-96.5 679.93,-93 679.93,-100"/>
</a>
</g>
</g>
<!-- Node15&#45;&gt;Node7 -->
<g id="edge14_Node000015_Node000007" class="edge">
<title>Node15&#45;&gt;Node7</title>
<g id="a_edge14_Node000015_Node000007"><a xlink:title=" ">
<path fill="none" stroke="#63b8ff" d="M493.09,-103.65C474.25,-105.21 454.89,-106.82 437.91,-108.22"/>
<polygon fill="#63b8ff" stroke="#63b8ff" points="493.22,-107.15 502.9,-102.83 492.64,-100.17 493.22,-107.15"/>
</a>
</g>
</g>
<!-- Node15&#45;&gt;Node9 -->
<g id="edge15_Node000015_Node000009" class="edge">
<title>Node15&#45;&gt;Node9</title>
<g id="a_edge15_Node000015_Node000009"><a xlink:title=" ">
<path fill="none" stroke="#63b8ff" d="M501.07,-79.07C476.87,-73.67 451.07,-67.92 430.08,-63.24"/>
<polygon fill="#63b8ff" stroke="#63b8ff" points="500.06,-82.43 510.59,-81.19 501.59,-75.6 500.06,-82.43"/>
</a>
</g>
</g>
<!-- Node16&#45;&gt;Node14 -->
<g id="edge17_Node000016_Node000014" class="edge">
<title>Node16&#45;&gt;Node14</title>
<g id="a_edge17_Node000016_Node000014"><a xlink:title=" ">
<path fill="none" stroke="#63b8ff" d="M858.2,-87.38C850.19,-88.15 842.12,-88.93 834.24,-89.69"/>
<polygon fill="#63b8ff" stroke="#63b8ff" points="858.31,-90.88 867.92,-86.44 857.63,-83.92 858.31,-90.88"/>
</a>
</g>
</g>
</g>
</svg>
