<?xml version="1.0" encoding="UTF-8" standalone="no"?>
<!DOCTYPE svg PUBLIC "-//W3C//DTD SVG 1.1//EN"
 "http://www.w3.org/Graphics/SVG/1.1/DTD/svg11.dtd">
<!-- Generated by graphviz version 12.2.1 (0)
 -->
<!-- Title: GLTransitionWidget::transitionFinished Pages: 1 -->
<svg width="274pt" height="84pt"
 viewBox="0.00 0.00 274.00 84.00" xmlns="http://www.w3.org/2000/svg" xmlns:xlink="http://www.w3.org/1999/xlink">
<g id="graph0" class="graph" transform="scale(1 1) rotate(0) translate(4 80)">
<title>GLTransitionWidget::transitionFinished</title>
<!-- Node1 -->
<g id="Node000001" class="node">
<title>Node1</title>
<g id="a_Node000001"><a xlink:title="Emitted when the transition animation (QPropertyAnimation) finishes.">
<polygon fill="#999999" stroke="#666666" points="266,-52 165.25,-52 165.25,-23 266,-23 266,-52"/>
<text text-anchor="start" x="173.25" y="-38.5" font-family="Helvetica,sans-Serif" font-size="10.00">GLTransitionWidget</text>
<text text-anchor="middle" x="215.62" y="-28" font-family="Helvetica,sans-Serif" font-size="10.00">::transitionFinished</text>
</a>
</g>
</g>
<!-- Node2 -->
<g id="Node000002" class="node">
<title>Node2</title>
<g id="a_Node000002"><a xlink:href="classAnimatedStackedWidget.html#a73649a355934e1882b3dffea8473b393" target="_top" xlink:title="Constructs an AnimatedStackedWidget. Initializes the animation group, sound effect,...">
<polygon fill="white" stroke="#666666" points="129.25,-76 0,-76 0,-47 129.25,-47 129.25,-76"/>
<text text-anchor="start" x="8" y="-62.5" font-family="Helvetica,sans-Serif" font-size="10.00">AnimatedStackedWidget</text>
<text text-anchor="middle" x="64.62" y="-52" font-family="Helvetica,sans-Serif" font-size="10.00">::AnimatedStackedWidget</text>
</a>
</g>
</g>
<!-- Node1&#45;&gt;Node2 -->
<g id="edge1_Node000001_Node000002" class="edge">
<title>Node1&#45;&gt;Node2</title>
<g id="a_edge1_Node000001_Node000002"><a xlink:title=" ">
<path fill="none" stroke="#63b8ff" d="M153.88,-47.28C145.88,-48.57 137.66,-49.9 129.6,-51.2"/>
<polygon fill="#63b8ff" stroke="#63b8ff" points="154.2,-50.78 163.52,-45.73 153.09,-43.87 154.2,-50.78"/>
</a>
</g>
</g>
<!-- Node3 -->
<g id="Node000003" class="node">
<title>Node3</title>
<g id="a_Node000003"><a xlink:href="classGLTransitionWidget.html#a62a181b46c7076b392874b2578ec0871" target="_top" xlink:title="Constructs a GLTransitionWidget. Initializes the QPropertyAnimation for the offset and sets widget at...">
<polygon fill="white" stroke="#666666" points="118,-29 11.25,-29 11.25,0 118,0 118,-29"/>
<text text-anchor="start" x="19.25" y="-15.5" font-family="Helvetica,sans-Serif" font-size="10.00">GLTransitionWidget</text>
<text text-anchor="middle" x="64.62" y="-5" font-family="Helvetica,sans-Serif" font-size="10.00">::GLTransitionWidget</text>
</a>
</g>
</g>
<!-- Node1&#45;&gt;Node3 -->
<g id="edge2_Node000001_Node000003" class="edge">
<title>Node1&#45;&gt;Node3</title>
<g id="a_edge2_Node000001_Node000003"><a xlink:title=" ">
<path fill="none" stroke="#63b8ff" d="M153.9,-28.13C142.11,-26.31 129.85,-24.41 118.35,-22.64"/>
<polygon fill="#63b8ff" stroke="#63b8ff" points="153.1,-31.54 163.51,-29.61 154.17,-24.63 153.1,-31.54"/>
</a>
</g>
</g>
</g>
</svg>
