<?xml version="1.0" encoding="UTF-8" standalone="no"?>
<!DOCTYPE svg PUBLIC "-//W3C//DTD SVG 1.1//EN"
 "http://www.w3.org/Graphics/SVG/1.1/DTD/svg11.dtd">
<!-- Generated by graphviz version 12.2.1 (0)
 -->
<!-- Title: ChatView::StartAudioOutput Pages: 1 -->
<svg width="511pt" height="74pt"
 viewBox="0.00 0.00 510.50 73.75" xmlns="http://www.w3.org/2000/svg" xmlns:xlink="http://www.w3.org/1999/xlink">
<g id="graph0" class="graph" transform="scale(1 1) rotate(0) translate(4 69.75)">
<title>ChatView::StartAudioOutput</title>
<!-- Node1 -->
<g id="Node000001" class="node">
<title>Node1</title>
<g id="a_Node000001"><a xlink:title="Starts audio playback if PTT state is Receiving. Prepares the audio output device to receive data.">
<polygon fill="#999999" stroke="#666666" points="139.75,-44.75 0,-44.75 0,-26.25 139.75,-26.25 139.75,-44.75"/>
<text text-anchor="middle" x="69.88" y="-31.25" font-family="Helvetica,sans-Serif" font-size="10.00">ChatView::StartAudioOutput</text>
</a>
</g>
</g>
<!-- Node2 -->
<g id="Node000002" class="node">
<title>Node2</title>
<g id="a_Node000002"><a xlink:href="classChatView.html#aabba720d117ae8d235dfc9b27d66881f" target="_top" xlink:title="Slot called when the remote user stops transmitting PTT. If the frequency matches and the state is Re...">
<polygon fill="white" stroke="#666666" points="328.25,-44.75 175.75,-44.75 175.75,-26.25 328.25,-26.25 328.25,-44.75"/>
<text text-anchor="middle" x="252" y="-31.25" font-family="Helvetica,sans-Serif" font-size="10.00">ChatView::OnPttStopReceiving</text>
</a>
</g>
</g>
<!-- Node1&#45;&gt;Node2 -->
<g id="edge1_Node000001_Node000002" class="edge">
<title>Node1&#45;&gt;Node2</title>
<g id="a_edge1_Node000001_Node000002"><a xlink:title=" ">
<path fill="none" stroke="#63b8ff" d="M140,-35.5C147.89,-35.5 156.01,-35.5 164.09,-35.5"/>
<polygon fill="#63b8ff" stroke="#63b8ff" points="163.95,-39 173.95,-35.5 163.95,-32 163.95,-39"/>
</a>
</g>
</g>
<!-- Node3 -->
<g id="Node000003" class="node">
<title>Node3</title>
<g id="a_Node000003"><a xlink:href="classChatView.html#a3caa164d3775d977cedb7757e932f2dd" target="_top" xlink:title="Stops audio playback. Resets the output device pointer.">
<polygon fill="white" stroke="#666666" points="502.5,-65.75 364.25,-65.75 364.25,-47.25 502.5,-47.25 502.5,-65.75"/>
<text text-anchor="middle" x="433.38" y="-52.25" font-family="Helvetica,sans-Serif" font-size="10.00">ChatView::StopAudioOutput</text>
</a>
</g>
</g>
<!-- Node2&#45;&gt;Node3 -->
<g id="edge2_Node000002_Node000003" class="edge">
<title>Node2&#45;&gt;Node3</title>
<g id="a_edge2_Node000002_Node000003"><a xlink:title=" ">
<path fill="none" stroke="#63b8ff" d="M328.55,-44.35C336.49,-45.27 344.58,-46.22 352.57,-47.16"/>
<polygon fill="#63b8ff" stroke="#63b8ff" points="351.92,-50.6 362.26,-48.29 352.73,-43.65 351.92,-50.6"/>
</a>
</g>
</g>
<!-- Node4 -->
<g id="Node000004" class="node">
<title>Node4</title>
<g id="a_Node000004"><a xlink:href="classChatView.html#a5d0b4d046c069b49e17f1eabdf350455" target="_top" xlink:title="Updates the appearance and enabled state of the PTT button based on the current ptt_state_....">
<polygon fill="white" stroke="#666666" points="501.75,-29 365,-29 365,0 501.75,0 501.75,-29"/>
<text text-anchor="start" x="373" y="-15.5" font-family="Helvetica,sans-Serif" font-size="10.00">ChatView::UpdatePttButton</text>
<text text-anchor="middle" x="433.38" y="-5" font-family="Helvetica,sans-Serif" font-size="10.00">State</text>
</a>
</g>
</g>
<!-- Node2&#45;&gt;Node4 -->
<g id="edge3_Node000002_Node000004" class="edge">
<title>Node2&#45;&gt;Node4</title>
<g id="a_edge3_Node000002_Node000004"><a xlink:title=" ">
<path fill="none" stroke="#63b8ff" d="M328.55,-26.65C336.78,-25.69 345.17,-24.71 353.44,-23.74"/>
<polygon fill="#63b8ff" stroke="#63b8ff" points="353.58,-27.25 363.1,-22.61 352.77,-20.3 353.58,-27.25"/>
</a>
</g>
</g>
</g>
</svg>
