<?xml version="1.0" encoding="UTF-8" standalone="no"?>
<!DOCTYPE svg PUBLIC "-//W3C//DTD SVG 1.1//EN"
 "http://www.w3.org/Graphics/SVG/1.1/DTD/svg11.dtd">
<!-- Generated by graphviz version 12.2.1 (0)
 -->
<!-- Title: AppearanceSettingsWidget Pages: 1 -->
<svg width="542pt" height="1310pt"
 viewBox="0.00 0.00 542.00 1309.50" xmlns="http://www.w3.org/2000/svg" xmlns:xlink="http://www.w3.org/1999/xlink">
<g id="graph0" class="graph" transform="scale(1 1) rotate(0) translate(4 1305.5)">
<title>AppearanceSettingsWidget</title>
<!-- Node1 -->
<g id="Node000001" class="node">
<title>Node1</title>
<g id="a_Node000001"><a xlink:title="A widget for configuring the application&#39;s appearance settings.">
<polygon fill="#999999" stroke="none" points="221.75,-578 66.5,-578 66.5,0 221.75,0 221.75,-578"/>
<text text-anchor="start" x="84.88" y="-564.5" font-family="Helvetica,sans-Serif" font-size="10.00">AppearanceSettingsWidget</text>
<text text-anchor="start" x="72" y="-550" font-family="Helvetica,sans-Serif" font-size="10.00">&#45;</text>
<text text-anchor="start" x="80.5" y="-550" font-family="Helvetica,sans-Serif" font-size="10.00">QWidget * bg_color</text>
<text text-anchor="start" x="80.5" y="-539.5" font-family="Helvetica,sans-Serif" font-size="10.00">_preview_</text>
<text text-anchor="start" x="72" y="-525" font-family="Helvetica,sans-Serif" font-size="10.00">&#45;</text>
<text text-anchor="start" x="80.5" y="-525" font-family="Helvetica,sans-Serif" font-size="10.00">QWidget * blob_color</text>
<text text-anchor="start" x="80.5" y="-514.5" font-family="Helvetica,sans-Serif" font-size="10.00">_preview_</text>
<text text-anchor="start" x="72" y="-500" font-family="Helvetica,sans-Serif" font-size="10.00">&#45;</text>
<text text-anchor="start" x="80.5" y="-500" font-family="Helvetica,sans-Serif" font-size="10.00">QWidget * grid_color</text>
<text text-anchor="start" x="80.5" y="-489.5" font-family="Helvetica,sans-Serif" font-size="10.00">_preview_</text>
<text text-anchor="start" x="72" y="-475" font-family="Helvetica,sans-Serif" font-size="10.00">&#45;</text>
<text text-anchor="start" x="80.5" y="-475" font-family="Helvetica,sans-Serif" font-size="10.00">QSpinBox * grid_spacing</text>
<text text-anchor="start" x="80.5" y="-464.5" font-family="Helvetica,sans-Serif" font-size="10.00">_spin_box_</text>
<text text-anchor="start" x="72" y="-450" font-family="Helvetica,sans-Serif" font-size="10.00">&#45;</text>
<text text-anchor="start" x="80.5" y="-450" font-family="Helvetica,sans-Serif" font-size="10.00">QList&lt; QPushButton</text>
<text text-anchor="start" x="80.5" y="-439.5" font-family="Helvetica,sans-Serif" font-size="10.00"> * &gt; recent_color_buttons_</text>
<text text-anchor="start" x="72" y="-425" font-family="Helvetica,sans-Serif" font-size="10.00">&#45;</text>
<text text-anchor="start" x="80.5" y="-425" font-family="Helvetica,sans-Serif" font-size="10.00">QHBoxLayout * recent</text>
<text text-anchor="start" x="80.5" y="-414.5" font-family="Helvetica,sans-Serif" font-size="10.00">_colors_layout_</text>
<text text-anchor="start" x="72" y="-400" font-family="Helvetica,sans-Serif" font-size="10.00">&#45;</text>
<text text-anchor="start" x="80.5" y="-400" font-family="Helvetica,sans-Serif" font-size="10.00">QColor selected_background</text>
<text text-anchor="start" x="80.5" y="-389.5" font-family="Helvetica,sans-Serif" font-size="10.00">_color_</text>
<text text-anchor="start" x="72" y="-375" font-family="Helvetica,sans-Serif" font-size="10.00">&#45;</text>
<text text-anchor="start" x="80.5" y="-375" font-family="Helvetica,sans-Serif" font-size="10.00">QColor selected_blob</text>
<text text-anchor="start" x="80.5" y="-364.5" font-family="Helvetica,sans-Serif" font-size="10.00">_color_</text>
<text text-anchor="start" x="72" y="-350" font-family="Helvetica,sans-Serif" font-size="10.00">&#45;</text>
<text text-anchor="start" x="80.5" y="-350" font-family="Helvetica,sans-Serif" font-size="10.00">QColor selected_grid</text>
<text text-anchor="start" x="80.5" y="-339.5" font-family="Helvetica,sans-Serif" font-size="10.00">_color_</text>
<text text-anchor="start" x="72" y="-325" font-family="Helvetica,sans-Serif" font-size="10.00">&#45;</text>
<text text-anchor="start" x="80.5" y="-325" font-family="Helvetica,sans-Serif" font-size="10.00">int selected_grid_spacing_</text>
<text text-anchor="start" x="80.5" y="-310.5" font-family="Helvetica,sans-Serif" font-size="10.00">and 8 more...</text>
<text text-anchor="start" x="70.5" y="-296" font-family="Helvetica,sans-Serif" font-size="10.00">+</text>
<text text-anchor="start" x="80.5" y="-296" font-family="Helvetica,sans-Serif" font-size="10.00">AppearanceSettingsWidget</text>
<text text-anchor="start" x="80.5" y="-285.5" font-family="Helvetica,sans-Serif" font-size="10.00">(QWidget *parent=nullptr)</text>
<text text-anchor="start" x="70.5" y="-271" font-family="Helvetica,sans-Serif" font-size="10.00">+</text>
<text text-anchor="start" x="80.5" y="-271" font-family="Helvetica,sans-Serif" font-size="10.00">void LoadSettings()</text>
<text text-anchor="start" x="70.5" y="-256.5" font-family="Helvetica,sans-Serif" font-size="10.00">+</text>
<text text-anchor="start" x="80.5" y="-256.5" font-family="Helvetica,sans-Serif" font-size="10.00">void SaveSettings()</text>
<text text-anchor="start" x="80.5" y="-246" font-family="Helvetica,sans-Serif" font-size="10.00"> const</text>
<text text-anchor="start" x="70.5" y="-231.5" font-family="Helvetica,sans-Serif" font-size="10.00">+</text>
<text text-anchor="start" x="80.5" y="-231.5" font-family="Helvetica,sans-Serif" font-size="10.00">~AppearanceSettingsWidget</text>
<text text-anchor="start" x="80.5" y="-221" font-family="Helvetica,sans-Serif" font-size="10.00">() override=default</text>
<text text-anchor="start" x="72" y="-206.5" font-family="Helvetica,sans-Serif" font-size="10.00">&#45;</text>
<text text-anchor="start" x="80.5" y="-206.5" font-family="Helvetica,sans-Serif" font-size="10.00">void SetupUi()</text>
<text text-anchor="start" x="72" y="-192" font-family="Helvetica,sans-Serif" font-size="10.00">&#45;</text>
<text text-anchor="start" x="80.5" y="-192" font-family="Helvetica,sans-Serif" font-size="10.00">static void UpdateColorPreview</text>
<text text-anchor="start" x="80.5" y="-181.5" font-family="Helvetica,sans-Serif" font-size="10.00">(QWidget *preview_widget,</text>
<text text-anchor="start" x="80.5" y="-171" font-family="Helvetica,sans-Serif" font-size="10.00"> const QColor &amp;color)</text>
<text text-anchor="start" x="72" y="-156.5" font-family="Helvetica,sans-Serif" font-size="10.00">&#45;</text>
<text text-anchor="start" x="80.5" y="-156.5" font-family="Helvetica,sans-Serif" font-size="10.00">void ChooseBackgroundColor()</text>
<text text-anchor="start" x="72" y="-142" font-family="Helvetica,sans-Serif" font-size="10.00">&#45;</text>
<text text-anchor="start" x="80.5" y="-142" font-family="Helvetica,sans-Serif" font-size="10.00">void ChooseBlobColor()</text>
<text text-anchor="start" x="72" y="-127.5" font-family="Helvetica,sans-Serif" font-size="10.00">&#45;</text>
<text text-anchor="start" x="80.5" y="-127.5" font-family="Helvetica,sans-Serif" font-size="10.00">void ChooseGridColor()</text>
<text text-anchor="start" x="72" y="-113" font-family="Helvetica,sans-Serif" font-size="10.00">&#45;</text>
<text text-anchor="start" x="80.5" y="-113" font-family="Helvetica,sans-Serif" font-size="10.00">void ChooseStreamColor()</text>
<text text-anchor="start" x="72" y="-98.5" font-family="Helvetica,sans-Serif" font-size="10.00">&#45;</text>
<text text-anchor="start" x="80.5" y="-98.5" font-family="Helvetica,sans-Serif" font-size="10.00">void ChooseTitleBorderColor()</text>
<text text-anchor="start" x="72" y="-84" font-family="Helvetica,sans-Serif" font-size="10.00">&#45;</text>
<text text-anchor="start" x="80.5" y="-84" font-family="Helvetica,sans-Serif" font-size="10.00">void ChooseTitleGlowColor()</text>
<text text-anchor="start" x="72" y="-69.5" font-family="Helvetica,sans-Serif" font-size="10.00">&#45;</text>
<text text-anchor="start" x="80.5" y="-69.5" font-family="Helvetica,sans-Serif" font-size="10.00">void ChooseTitleTextColor()</text>
<text text-anchor="start" x="72" y="-55" font-family="Helvetica,sans-Serif" font-size="10.00">&#45;</text>
<text text-anchor="start" x="80.5" y="-55" font-family="Helvetica,sans-Serif" font-size="10.00">void GridSpacingChanged</text>
<text text-anchor="start" x="80.5" y="-44.5" font-family="Helvetica,sans-Serif" font-size="10.00">(int value)</text>
<text text-anchor="start" x="72" y="-30" font-family="Helvetica,sans-Serif" font-size="10.00">&#45;</text>
<text text-anchor="start" x="80.5" y="-30" font-family="Helvetica,sans-Serif" font-size="10.00">void SelectRecentColor</text>
<text text-anchor="start" x="80.5" y="-19.5" font-family="Helvetica,sans-Serif" font-size="10.00">(const QColor &amp;color) const</text>
<text text-anchor="start" x="72" y="-5" font-family="Helvetica,sans-Serif" font-size="10.00">&#45;</text>
<text text-anchor="start" x="80.5" y="-5" font-family="Helvetica,sans-Serif" font-size="10.00">void UpdateRecentColorsUI()</text>
<polygon fill="#666666" stroke="#666666" points="66.5,-561.5 66.5,-561.5 221.75,-561.5 221.75,-561.5 66.5,-561.5"/>
<polygon fill="#666666" stroke="#666666" points="66.5,-307.5 66.5,-307.5 78.5,-307.5 78.5,-307.5 66.5,-307.5"/>
<polygon fill="#666666" stroke="#666666" points="78.5,-307.5 78.5,-307.5 221.75,-307.5 221.75,-307.5 78.5,-307.5"/>
<polygon fill="none" stroke="#666666" points="66.5,0 66.5,-578 221.75,-578 221.75,0 66.5,0"/>
</a>
</g>
</g>
<!-- Node2 -->
<g id="Node000002" class="node">
<title>Node2</title>
<g id="a_Node000002"><a xlink:title=" ">
<polygon fill="white" stroke="none" points="46.25,-944.5 0,-944.5 0,-897 46.25,-897 46.25,-944.5"/>
<text text-anchor="start" x="4" y="-931" font-family="Helvetica,sans-Serif" font-size="10.00">QWidget</text>
<text text-anchor="start" x="21.62" y="-916.5" font-family="Helvetica,sans-Serif" font-size="10.00"> </text>
<text text-anchor="start" x="21.62" y="-902" font-family="Helvetica,sans-Serif" font-size="10.00"> </text>
<polygon fill="#666666" stroke="#666666" points="0,-928 0,-928 46.25,-928 46.25,-928 0,-928"/>
<polygon fill="#666666" stroke="#666666" points="0,-913.5 0,-913.5 46.25,-913.5 46.25,-913.5 0,-913.5"/>
<polygon fill="none" stroke="#666666" points="0,-897 0,-944.5 46.25,-944.5 46.25,-897 0,-897"/>
</a>
</g>
</g>
<!-- Node2&#45;&gt;Node1 -->
<g id="edge1_Node000001_Node000002" class="edge">
<title>Node2&#45;&gt;Node1</title>
<g id="a_edge1_Node000001_Node000002"><a xlink:title=" ">
<path fill="none" stroke="#63b8ff" d="M25.09,-886.21C28.69,-831.19 37.64,-718.47 55.12,-624.5 58.51,-606.33 62.36,-587.7 66.52,-568.99"/>
<polygon fill="none" stroke="#63b8ff" points="21.62,-885.65 24.48,-895.85 28.61,-886.09 21.62,-885.65"/>
</a>
</g>
</g>
<!-- Node3 -->
<g id="Node000003" class="node">
<title>Node3</title>
<g id="a_Node000003"><a xlink:href="classWavelengthConfig.html" target="_top" xlink:title="Manages application configuration settings using a singleton pattern.">
<polygon fill="white" stroke="none" points="224,-1217 64.25,-1217 64.25,-624.5 224,-624.5 224,-1217"/>
<text text-anchor="start" x="104.75" y="-1203.5" font-family="Helvetica,sans-Serif" font-size="10.00">WavelengthConfig</text>
<text text-anchor="start" x="69.75" y="-1189" font-family="Helvetica,sans-Serif" font-size="10.00">&#45;</text>
<text text-anchor="start" x="78.25" y="-1189" font-family="Helvetica,sans-Serif" font-size="10.00">QColor background_color_</text>
<text text-anchor="start" x="69.75" y="-1174.5" font-family="Helvetica,sans-Serif" font-size="10.00">&#45;</text>
<text text-anchor="start" x="78.25" y="-1174.5" font-family="Helvetica,sans-Serif" font-size="10.00">QColor blob_color_</text>
<text text-anchor="start" x="69.75" y="-1160" font-family="Helvetica,sans-Serif" font-size="10.00">&#45;</text>
<text text-anchor="start" x="78.25" y="-1160" font-family="Helvetica,sans-Serif" font-size="10.00">int connection_timeout_</text>
<text text-anchor="start" x="69.75" y="-1145.5" font-family="Helvetica,sans-Serif" font-size="10.00">&#45;</text>
<text text-anchor="start" x="78.25" y="-1145.5" font-family="Helvetica,sans-Serif" font-size="10.00">bool debug_mode_</text>
<text text-anchor="start" x="69.75" y="-1131" font-family="Helvetica,sans-Serif" font-size="10.00">&#45;</text>
<text text-anchor="start" x="78.25" y="-1131" font-family="Helvetica,sans-Serif" font-size="10.00">QMap&lt; QString, QKeySequence</text>
<text text-anchor="start" x="78.25" y="-1120.5" font-family="Helvetica,sans-Serif" font-size="10.00"> &gt; default_shortcuts_</text>
<text text-anchor="start" x="69.75" y="-1106" font-family="Helvetica,sans-Serif" font-size="10.00">&#45;</text>
<text text-anchor="start" x="78.25" y="-1106" font-family="Helvetica,sans-Serif" font-size="10.00">QColor grid_color_</text>
<text text-anchor="start" x="69.75" y="-1091.5" font-family="Helvetica,sans-Serif" font-size="10.00">&#45;</text>
<text text-anchor="start" x="78.25" y="-1091.5" font-family="Helvetica,sans-Serif" font-size="10.00">int grid_spacing_</text>
<text text-anchor="start" x="69.75" y="-1077" font-family="Helvetica,sans-Serif" font-size="10.00">&#45;</text>
<text text-anchor="start" x="78.25" y="-1077" font-family="Helvetica,sans-Serif" font-size="10.00">int keep_alive_interval_</text>
<text text-anchor="start" x="69.75" y="-1062.5" font-family="Helvetica,sans-Serif" font-size="10.00">&#45;</text>
<text text-anchor="start" x="78.25" y="-1062.5" font-family="Helvetica,sans-Serif" font-size="10.00">const QString kShortcuts</text>
<text text-anchor="start" x="78.25" y="-1052" font-family="Helvetica,sans-Serif" font-size="10.00">Prefix</text>
<text text-anchor="start" x="69.75" y="-1037.5" font-family="Helvetica,sans-Serif" font-size="10.00">&#45;</text>
<text text-anchor="start" x="78.25" y="-1037.5" font-family="Helvetica,sans-Serif" font-size="10.00">QString language_code_</text>
<text text-anchor="start" x="78.25" y="-1023" font-family="Helvetica,sans-Serif" font-size="10.00">and 11 more...</text>
<text text-anchor="start" x="69.75" y="-1008.5" font-family="Helvetica,sans-Serif" font-size="10.00">&#45;</text>
<text text-anchor="start" x="78.25" y="-1008.5" font-family="Helvetica,sans-Serif" font-size="10.00">static constexpr int</text>
<text text-anchor="start" x="78.25" y="-998" font-family="Helvetica,sans-Serif" font-size="10.00"> kMaxRecentColors</text>
<text text-anchor="start" x="68.25" y="-983.5" font-family="Helvetica,sans-Serif" font-size="10.00">+</text>
<text text-anchor="start" x="78.25" y="-983.5" font-family="Helvetica,sans-Serif" font-size="10.00">void AddRecentColor</text>
<text text-anchor="start" x="78.25" y="-973" font-family="Helvetica,sans-Serif" font-size="10.00">(const QColor &amp;color)</text>
<text text-anchor="start" x="68.25" y="-958.5" font-family="Helvetica,sans-Serif" font-size="10.00">+</text>
<text text-anchor="start" x="78.25" y="-958.5" font-family="Helvetica,sans-Serif" font-size="10.00">QMap&lt; QString, QKeySequence</text>
<text text-anchor="start" x="78.25" y="-948" font-family="Helvetica,sans-Serif" font-size="10.00"> &gt; GetAllShortcuts() const</text>
<text text-anchor="start" x="68.25" y="-933.5" font-family="Helvetica,sans-Serif" font-size="10.00">+</text>
<text text-anchor="start" x="78.25" y="-933.5" font-family="Helvetica,sans-Serif" font-size="10.00">QColor GetBackgroundColor</text>
<text text-anchor="start" x="78.25" y="-923" font-family="Helvetica,sans-Serif" font-size="10.00">() const</text>
<text text-anchor="start" x="68.25" y="-908.5" font-family="Helvetica,sans-Serif" font-size="10.00">+</text>
<text text-anchor="start" x="78.25" y="-908.5" font-family="Helvetica,sans-Serif" font-size="10.00">QColor GetBlobColor</text>
<text text-anchor="start" x="78.25" y="-898" font-family="Helvetica,sans-Serif" font-size="10.00">() const</text>
<text text-anchor="start" x="68.25" y="-883.5" font-family="Helvetica,sans-Serif" font-size="10.00">+</text>
<text text-anchor="start" x="78.25" y="-883.5" font-family="Helvetica,sans-Serif" font-size="10.00">int GetConnectionTimeout</text>
<text text-anchor="start" x="78.25" y="-873" font-family="Helvetica,sans-Serif" font-size="10.00">() const</text>
<text text-anchor="start" x="68.25" y="-858.5" font-family="Helvetica,sans-Serif" font-size="10.00">+</text>
<text text-anchor="start" x="78.25" y="-858.5" font-family="Helvetica,sans-Serif" font-size="10.00">QMap&lt; QString, QKeySequence</text>
<text text-anchor="start" x="78.25" y="-848" font-family="Helvetica,sans-Serif" font-size="10.00"> &gt; GetDefaultShortcutsMap</text>
<text text-anchor="start" x="78.25" y="-837.5" font-family="Helvetica,sans-Serif" font-size="10.00">() const</text>
<text text-anchor="start" x="68.25" y="-823" font-family="Helvetica,sans-Serif" font-size="10.00">+</text>
<text text-anchor="start" x="78.25" y="-823" font-family="Helvetica,sans-Serif" font-size="10.00">QColor GetGridColor</text>
<text text-anchor="start" x="78.25" y="-812.5" font-family="Helvetica,sans-Serif" font-size="10.00">() const</text>
<text text-anchor="start" x="68.25" y="-798" font-family="Helvetica,sans-Serif" font-size="10.00">+</text>
<text text-anchor="start" x="78.25" y="-798" font-family="Helvetica,sans-Serif" font-size="10.00">int GetGridSpacing</text>
<text text-anchor="start" x="78.25" y="-787.5" font-family="Helvetica,sans-Serif" font-size="10.00">() const</text>
<text text-anchor="start" x="68.25" y="-773" font-family="Helvetica,sans-Serif" font-size="10.00">+</text>
<text text-anchor="start" x="78.25" y="-773" font-family="Helvetica,sans-Serif" font-size="10.00">int GetKeepAliveInterval</text>
<text text-anchor="start" x="78.25" y="-762.5" font-family="Helvetica,sans-Serif" font-size="10.00">() const</text>
<text text-anchor="start" x="68.25" y="-748" font-family="Helvetica,sans-Serif" font-size="10.00">+</text>
<text text-anchor="start" x="78.25" y="-748" font-family="Helvetica,sans-Serif" font-size="10.00">QString GetLanguageCode</text>
<text text-anchor="start" x="78.25" y="-737.5" font-family="Helvetica,sans-Serif" font-size="10.00">() const</text>
<text text-anchor="start" x="78.25" y="-723" font-family="Helvetica,sans-Serif" font-size="10.00">and 35 more...</text>
<text text-anchor="start" x="68.25" y="-708.5" font-family="Helvetica,sans-Serif" font-size="10.00">+</text>
<text text-anchor="start" x="78.25" y="-708.5" font-family="Helvetica,sans-Serif" font-size="10.00">static WavelengthConfig</text>
<text text-anchor="start" x="78.25" y="-698" font-family="Helvetica,sans-Serif" font-size="10.00"> * GetInstance()</text>
<text text-anchor="start" x="69.75" y="-683.5" font-family="Helvetica,sans-Serif" font-size="10.00">&#45;</text>
<text text-anchor="start" x="78.25" y="-683.5" font-family="Helvetica,sans-Serif" font-size="10.00">void LoadDefaults()</text>
<text text-anchor="start" x="69.75" y="-669" font-family="Helvetica,sans-Serif" font-size="10.00">&#45;</text>
<text text-anchor="start" x="78.25" y="-669" font-family="Helvetica,sans-Serif" font-size="10.00">void LoadDefaultShortcuts()</text>
<text text-anchor="start" x="69.75" y="-654.5" font-family="Helvetica,sans-Serif" font-size="10.00">&#45;</text>
<text text-anchor="start" x="78.25" y="-654.5" font-family="Helvetica,sans-Serif" font-size="10.00">void LoadSettings()</text>
<text text-anchor="start" x="69.75" y="-640" font-family="Helvetica,sans-Serif" font-size="10.00">&#45;</text>
<text text-anchor="start" x="78.25" y="-640" font-family="Helvetica,sans-Serif" font-size="10.00">WavelengthConfig(QObject</text>
<text text-anchor="start" x="78.25" y="-629.5" font-family="Helvetica,sans-Serif" font-size="10.00"> *parent=nullptr)</text>
<polygon fill="#666666" stroke="#666666" points="64.25,-1200.5 64.25,-1200.5 224,-1200.5 224,-1200.5 64.25,-1200.5"/>
<polygon fill="#666666" stroke="#666666" points="64.25,-995 64.25,-995 76.25,-995 76.25,-995 64.25,-995"/>
<polygon fill="#666666" stroke="#666666" points="76.25,-995 76.25,-995 224,-995 224,-995 76.25,-995"/>
<polygon fill="none" stroke="#666666" points="64.25,-624.5 64.25,-1217 224,-1217 224,-624.5 64.25,-624.5"/>
</a>
</g>
</g>
<!-- Node3&#45;&gt;Node1 -->
<g id="edge2_Node000001_Node000003" class="edge">
<title>Node3&#45;&gt;Node1</title>
<g id="a_edge2_Node000001_Node000003"><a xlink:title=" ">
<path fill="none" stroke="#63b8ff" d="M144.12,-624.7C144.12,-613.31 144.12,-601.89 144.12,-590.49"/>
<polygon fill="none" stroke="#63b8ff" points="144.13,-590.54 140.13,-584.54 144.13,-578.54 148.13,-584.54 144.13,-590.54"/>
</a>
</g>
<text text-anchor="middle" x="167" y="-597" font-family="Helvetica,sans-Serif" font-size="10.00" fill="grey"> &#45;m_config</text>
</g>
<!-- Node3&#45;&gt;Node3 -->
<g id="edge4_Node000003_Node000003" class="edge">
<title>Node3&#45;&gt;Node3</title>
<g id="a_edge4_Node000003_Node000003"><a xlink:title=" ">
<path fill="none" stroke="#63b8ff" d="M223.62,-973.41C234.64,-964.74 242,-947.18 242,-920.75 242,-901.96 238.28,-887.65 232.17,-877.84"/>
<polygon fill="none" stroke="#63b8ff" points="232.13,-877.79 225.16,-875.91 224.21,-868.77 231.18,-870.64 232.13,-877.79"/>
</a>
</g>
<text text-anchor="middle" x="266" y="-916.5" font-family="Helvetica,sans-Serif" font-size="10.00" fill="grey"> &#45;instance_</text>
</g>
<!-- Node4 -->
<g id="Node000004" class="node">
<title>Node4</title>
<g id="a_Node000004"><a xlink:title=" ">
<polygon fill="white" stroke="none" points="287.12,-1301.5 243.12,-1301.5 243.12,-1254 287.12,-1254 287.12,-1301.5"/>
<text text-anchor="start" x="247.12" y="-1288" font-family="Helvetica,sans-Serif" font-size="10.00">QObject</text>
<text text-anchor="start" x="263.62" y="-1273.5" font-family="Helvetica,sans-Serif" font-size="10.00"> </text>
<text text-anchor="start" x="263.62" y="-1259" font-family="Helvetica,sans-Serif" font-size="10.00"> </text>
<polygon fill="#666666" stroke="#666666" points="243.12,-1285 243.12,-1285 287.12,-1285 287.12,-1285 243.12,-1285"/>
<polygon fill="#666666" stroke="#666666" points="243.12,-1270.5 243.12,-1270.5 287.12,-1270.5 287.12,-1270.5 243.12,-1270.5"/>
<polygon fill="none" stroke="#666666" points="243.12,-1254 243.12,-1301.5 287.12,-1301.5 287.12,-1254 243.12,-1254"/>
</a>
</g>
</g>
<!-- Node4&#45;&gt;Node3 -->
<g id="edge3_Node000003_Node000004" class="edge">
<title>Node4&#45;&gt;Node3</title>
<g id="a_edge3_Node000003_Node000004"><a xlink:title=" ">
<path fill="none" stroke="#63b8ff" d="M253.72,-1243.3C246.19,-1221.21 235.58,-1190.07 223.9,-1155.79"/>
<polygon fill="none" stroke="#63b8ff" points="250.34,-1244.23 256.88,-1252.57 256.97,-1241.98 250.34,-1244.23"/>
</a>
</g>
</g>
<!-- Node5 -->
<g id="Node000005" class="node">
<title>Node5</title>
<g id="a_Node000005"><a xlink:href="classTranslationManager.html" target="_top" xlink:title="Manages the loading and delivery of translations for applications.">
<polygon fill="white" stroke="none" points="468,-1080 308.25,-1080 308.25,-761.5 468,-761.5 468,-1080"/>
<text text-anchor="start" x="345.75" y="-1066.5" font-family="Helvetica,sans-Serif" font-size="10.00">TranslationManager</text>
<text text-anchor="start" x="313.75" y="-1052" font-family="Helvetica,sans-Serif" font-size="10.00">&#45;</text>
<text text-anchor="start" x="322.25" y="-1052" font-family="Helvetica,sans-Serif" font-size="10.00">QString current_language</text>
<text text-anchor="start" x="322.25" y="-1041.5" font-family="Helvetica,sans-Serif" font-size="10.00">_code_</text>
<text text-anchor="start" x="313.75" y="-1027" font-family="Helvetica,sans-Serif" font-size="10.00">&#45;</text>
<text text-anchor="start" x="322.25" y="-1027" font-family="Helvetica,sans-Serif" font-size="10.00">bool initialized_</text>
<text text-anchor="start" x="313.75" y="-1012.5" font-family="Helvetica,sans-Serif" font-size="10.00">&#45;</text>
<text text-anchor="start" x="322.25" y="-1012.5" font-family="Helvetica,sans-Serif" font-size="10.00">QJsonObject translations_</text>
<text text-anchor="start" x="313.75" y="-998" font-family="Helvetica,sans-Serif" font-size="10.00">&#45;</text>
<text text-anchor="start" x="322.25" y="-998" font-family="Helvetica,sans-Serif" font-size="10.00">static QMutex mutex_</text>
<text text-anchor="start" x="312.25" y="-983.5" font-family="Helvetica,sans-Serif" font-size="10.00">+</text>
<text text-anchor="start" x="322.25" y="-983.5" font-family="Helvetica,sans-Serif" font-size="10.00">QString GetCurrentLanguage</text>
<text text-anchor="start" x="322.25" y="-973" font-family="Helvetica,sans-Serif" font-size="10.00">() const</text>
<text text-anchor="start" x="312.25" y="-958.5" font-family="Helvetica,sans-Serif" font-size="10.00">+</text>
<text text-anchor="start" x="322.25" y="-958.5" font-family="Helvetica,sans-Serif" font-size="10.00">bool Initialize(const</text>
<text text-anchor="start" x="322.25" y="-948" font-family="Helvetica,sans-Serif" font-size="10.00"> QString &amp;language_code)</text>
<text text-anchor="start" x="312.25" y="-933.5" font-family="Helvetica,sans-Serif" font-size="10.00">+</text>
<text text-anchor="start" x="322.25" y="-933.5" font-family="Helvetica,sans-Serif" font-size="10.00">QString Translate(const</text>
<text text-anchor="start" x="322.25" y="-923" font-family="Helvetica,sans-Serif" font-size="10.00"> QString &amp;key, const QString</text>
<text text-anchor="start" x="322.25" y="-912.5" font-family="Helvetica,sans-Serif" font-size="10.00"> &amp;default_value=QString()) const</text>
<text text-anchor="start" x="312.25" y="-898" font-family="Helvetica,sans-Serif" font-size="10.00">+</text>
<text text-anchor="start" x="322.25" y="-898" font-family="Helvetica,sans-Serif" font-size="10.00">static TranslationManager</text>
<text text-anchor="start" x="322.25" y="-887.5" font-family="Helvetica,sans-Serif" font-size="10.00"> * GetInstance()</text>
<text text-anchor="start" x="313.75" y="-873" font-family="Helvetica,sans-Serif" font-size="10.00">&#45;</text>
<text text-anchor="start" x="322.25" y="-873" font-family="Helvetica,sans-Serif" font-size="10.00">bool LoadTranslations</text>
<text text-anchor="start" x="322.25" y="-862.5" font-family="Helvetica,sans-Serif" font-size="10.00">(const QString &amp;language_code)</text>
<text text-anchor="start" x="313.75" y="-848" font-family="Helvetica,sans-Serif" font-size="10.00">&#45;</text>
<text text-anchor="start" x="322.25" y="-848" font-family="Helvetica,sans-Serif" font-size="10.00">TranslationManager</text>
<text text-anchor="start" x="322.25" y="-837.5" font-family="Helvetica,sans-Serif" font-size="10.00"> &amp; operator=(const Translation</text>
<text text-anchor="start" x="322.25" y="-827" font-family="Helvetica,sans-Serif" font-size="10.00">Manager &amp;)=delete</text>
<text text-anchor="start" x="313.75" y="-812.5" font-family="Helvetica,sans-Serif" font-size="10.00">&#45;</text>
<text text-anchor="start" x="322.25" y="-812.5" font-family="Helvetica,sans-Serif" font-size="10.00">TranslationManager</text>
<text text-anchor="start" x="322.25" y="-802" font-family="Helvetica,sans-Serif" font-size="10.00">(const TranslationManager</text>
<text text-anchor="start" x="322.25" y="-791.5" font-family="Helvetica,sans-Serif" font-size="10.00"> &amp;)=delete</text>
<text text-anchor="start" x="313.75" y="-777" font-family="Helvetica,sans-Serif" font-size="10.00">&#45;</text>
<text text-anchor="start" x="322.25" y="-777" font-family="Helvetica,sans-Serif" font-size="10.00">TranslationManager</text>
<text text-anchor="start" x="322.25" y="-766.5" font-family="Helvetica,sans-Serif" font-size="10.00">(QObject *parent=nullptr)</text>
<polygon fill="#666666" stroke="#666666" points="308.25,-1063.5 308.25,-1063.5 468,-1063.5 468,-1063.5 308.25,-1063.5"/>
<polygon fill="#666666" stroke="#666666" points="308.25,-995 308.25,-995 320.25,-995 320.25,-995 308.25,-995"/>
<polygon fill="#666666" stroke="#666666" points="320.25,-995 320.25,-995 468,-995 468,-995 320.25,-995"/>
<polygon fill="none" stroke="#666666" points="308.25,-761.5 308.25,-1080 468,-1080 468,-761.5 308.25,-761.5"/>
</a>
</g>
</g>
<!-- Node4&#45;&gt;Node5 -->
<g id="edge6_Node000005_Node000004" class="edge">
<title>Node4&#45;&gt;Node5</title>
<g id="a_edge6_Node000005_Node000004"><a xlink:title=" ">
<path fill="none" stroke="#63b8ff" d="M285.31,-1244.36C290.23,-1235.67 295.2,-1226.15 299.12,-1217 317.74,-1173.58 334.1,-1125.01 347.55,-1080"/>
<polygon fill="none" stroke="#63b8ff" points="282.4,-1242.4 280.38,-1252.8 288.44,-1245.93 282.4,-1242.4"/>
</a>
</g>
</g>
<!-- Node5&#45;&gt;Node1 -->
<g id="edge5_Node000001_Node000005" class="edge">
<title>Node5&#45;&gt;Node1</title>
<g id="a_edge5_Node000001_Node000005"><a xlink:title=" ">
<path fill="none" stroke="#63b8ff" d="M344.96,-761.69C331.53,-716.91 315.82,-668.41 299.12,-624.5 278.04,-569.04 251.9,-509.89 227.13,-456.99"/>
<polygon fill="none" stroke="#63b8ff" points="227.2,-457.12 221.02,-453.39 222.09,-446.26 228.26,-449.99 227.2,-457.12"/>
</a>
</g>
<text text-anchor="middle" x="317.84" y="-597" font-family="Helvetica,sans-Serif" font-size="10.00" fill="grey"> &#45;translator_</text>
</g>
<!-- Node5&#45;&gt;Node5 -->
<g id="edge7_Node000005_Node000005" class="edge">
<title>Node5&#45;&gt;Node5</title>
<g id="a_edge7_Node000005_Node000005"><a xlink:title=" ">
<path fill="none" stroke="#63b8ff" d="M467.62,-973.41C478.64,-964.74 486,-947.18 486,-920.75 486,-901.96 482.28,-887.65 476.17,-877.84"/>
<polygon fill="none" stroke="#63b8ff" points="476.13,-877.79 469.16,-875.91 468.21,-868.77 475.18,-870.64 476.13,-877.79"/>
</a>
</g>
<text text-anchor="middle" x="510" y="-916.5" font-family="Helvetica,sans-Serif" font-size="10.00" fill="grey"> &#45;instance_</text>
</g>
</g>
</svg>
