<?xml version="1.0" encoding="UTF-8" standalone="no"?>
<!DOCTYPE svg PUBLIC "-//W3C//DTD SVG 1.1//EN"
 "http://www.w3.org/Graphics/SVG/1.1/DTD/svg11.dtd">
<!-- Generated by graphviz version 12.2.1 (0)
 -->
<!-- Title: SecurityCodeLayer::SetInputValidators Pages: 1 -->
<svg width="534pt" height="84pt"
 viewBox="0.00 0.00 534.00 84.00" xmlns="http://www.w3.org/2000/svg" xmlns:xlink="http://www.w3.org/1999/xlink">
<g id="graph0" class="graph" transform="scale(1 1) rotate(0) translate(4 80)">
<title>SecurityCodeLayer::SetInputValidators</title>
<!-- Node1 -->
<g id="Node000001" class="node">
<title>Node1</title>
<g id="a_Node000001"><a xlink:title="Sets the input validators for all code input fields based on whether the current code is numeric.">
<polygon fill="#999999" stroke="#666666" points="526,-52 421.5,-52 421.5,-23 526,-23 526,-52"/>
<text text-anchor="start" x="429.5" y="-38.5" font-family="Helvetica,sans-Serif" font-size="10.00">SecurityCodeLayer::</text>
<text text-anchor="middle" x="473.75" y="-28" font-family="Helvetica,sans-Serif" font-size="10.00">SetInputValidators</text>
</a>
</g>
</g>
<!-- Node2 -->
<g id="Node000002" class="node">
<title>Node2</title>
<g id="a_Node000002"><a xlink:href="classSecurityCodeLayer.html#ac91e905c2b4ccef623f0539ed4a922ab" target="_top" xlink:title="Initializes the layer for display. Resets the input fields, selects a new random security code and hi...">
<polygon fill="white" stroke="#666666" points="385.5,-76 281,-76 281,-47 385.5,-47 385.5,-76"/>
<text text-anchor="start" x="289" y="-62.5" font-family="Helvetica,sans-Serif" font-size="10.00">SecurityCodeLayer::</text>
<text text-anchor="middle" x="333.25" y="-52" font-family="Helvetica,sans-Serif" font-size="10.00">Initialize</text>
</a>
</g>
</g>
<!-- Node1&#45;&gt;Node2 -->
<g id="edge1_Node000001_Node000002" class="edge">
<title>Node1&#45;&gt;Node2</title>
<g id="a_edge1_Node000001_Node000002"><a xlink:title=" ">
<path fill="none" stroke="#63b8ff" d="M409.92,-48.39C401.87,-49.78 393.71,-51.2 385.87,-52.56"/>
<polygon fill="#63b8ff" stroke="#63b8ff" points="410.43,-51.85 419.69,-46.7 409.24,-44.95 410.43,-51.85"/>
</a>
</g>
</g>
<!-- Node3 -->
<g id="Node000003" class="node">
<title>Node3</title>
<g id="a_Node000003"><a xlink:href="classSecurityCodeLayer.html#a1f24bdfc759b707fe364b4a6d377bab5" target="_top" xlink:title="Triggers a visual error effect on the input fields. Temporarily changes the background and border col...">
<polygon fill="white" stroke="#666666" points="385.5,-29 281,-29 281,0 385.5,0 385.5,-29"/>
<text text-anchor="start" x="289" y="-15.5" font-family="Helvetica,sans-Serif" font-size="10.00">SecurityCodeLayer::</text>
<text text-anchor="middle" x="333.25" y="-5" font-family="Helvetica,sans-Serif" font-size="10.00">ShowErrorEffect</text>
</a>
</g>
</g>
<!-- Node1&#45;&gt;Node3 -->
<g id="edge2_Node000001_Node000003" class="edge">
<title>Node1&#45;&gt;Node3</title>
<g id="a_edge2_Node000001_Node000003"><a xlink:title=" ">
<path fill="none" stroke="#63b8ff" d="M409.92,-27.07C401.87,-25.73 393.71,-24.37 385.87,-23.07"/>
<polygon fill="#63b8ff" stroke="#63b8ff" points="409.25,-30.5 419.68,-28.69 410.39,-23.6 409.25,-30.5"/>
</a>
</g>
</g>
<!-- Node4 -->
<g id="Node000004" class="node">
<title>Node4</title>
<g id="a_Node000004"><a xlink:href="classSecurityCodeLayer.html#ae952b967add30cb12c1a68adaaa3ec54" target="_top" xlink:title="Checks if the entered code matches the current security code. Called when all input fields are filled...">
<polygon fill="white" stroke="#666666" points="245,-29 140.5,-29 140.5,0 245,0 245,-29"/>
<text text-anchor="start" x="148.5" y="-15.5" font-family="Helvetica,sans-Serif" font-size="10.00">SecurityCodeLayer::</text>
<text text-anchor="middle" x="192.75" y="-5" font-family="Helvetica,sans-Serif" font-size="10.00">CheckSecurityCode</text>
</a>
</g>
</g>
<!-- Node3&#45;&gt;Node4 -->
<g id="edge3_Node000003_Node000004" class="edge">
<title>Node3&#45;&gt;Node4</title>
<g id="a_edge3_Node000003_Node000004"><a xlink:title=" ">
<path fill="none" stroke="#63b8ff" d="M269.42,-14.5C261.37,-14.5 253.21,-14.5 245.37,-14.5"/>
<polygon fill="#63b8ff" stroke="#63b8ff" points="269.16,-18 279.16,-14.5 269.16,-11 269.16,-18"/>
</a>
</g>
</g>
<!-- Node5 -->
<g id="Node000005" class="node">
<title>Node5</title>
<g id="a_Node000005"><a xlink:href="classSecurityCodeLayer.html#ab9379c05ccc6373b0611fbb64502e074" target="_top" xlink:title="Slot called when the text in any input field changes. Handles automatic focus progression to the next...">
<polygon fill="#fff0f0" stroke="red" points="104.5,-29 0,-29 0,0 104.5,0 104.5,-29"/>
<text text-anchor="start" x="8" y="-15.5" font-family="Helvetica,sans-Serif" font-size="10.00">SecurityCodeLayer::</text>
<text text-anchor="middle" x="52.25" y="-5" font-family="Helvetica,sans-Serif" font-size="10.00">OnDigitEntered</text>
</a>
</g>
</g>
<!-- Node4&#45;&gt;Node5 -->
<g id="edge4_Node000004_Node000005" class="edge">
<title>Node4&#45;&gt;Node5</title>
<g id="a_edge4_Node000004_Node000005"><a xlink:title=" ">
<path fill="none" stroke="#63b8ff" d="M128.92,-14.5C120.87,-14.5 112.71,-14.5 104.87,-14.5"/>
<polygon fill="#63b8ff" stroke="#63b8ff" points="128.66,-18 138.66,-14.5 128.66,-11 128.66,-18"/>
</a>
</g>
</g>
</g>
</svg>
