<?xml version="1.0" encoding="UTF-8" standalone="no"?>
<!DOCTYPE svg PUBLIC "-//W3C//DTD SVG 1.1//EN"
 "http://www.w3.org/Graphics/SVG/1.1/DTD/svg11.dtd">
<!-- Generated by graphviz version 12.2.1 (0)
 -->
<!-- Title: DatabaseManager Pages: 1 -->
<svg width="153pt" height="310pt"
 viewBox="0.00 0.00 152.75 310.00" xmlns="http://www.w3.org/2000/svg" xmlns:xlink="http://www.w3.org/1999/xlink">
<g id="graph0" class="graph" transform="scale(1 1) rotate(0) translate(4 306)">
<title>DatabaseManager</title>
<!-- Node1 -->
<g id="Node000001" class="node">
<title>Node1</title>
<g id="a_Node000001"><a xlink:title="Singleton class responsible for managing the connection to the PostgreSQL database.">
<polygon fill="#999999" stroke="none" points="144.75,-218.5 0,-218.5 0,0 144.75,0 144.75,-218.5"/>
<text text-anchor="start" x="33" y="-205" font-family="Helvetica,sans-Serif" font-size="10.00">DatabaseManager</text>
<text text-anchor="start" x="5.5" y="-190.5" font-family="Helvetica,sans-Serif" font-size="10.00">&#45;</text>
<text text-anchor="start" x="14" y="-190.5" font-family="Helvetica,sans-Serif" font-size="10.00">std::unique_ptr&lt; pqxx</text>
<text text-anchor="start" x="14" y="-180" font-family="Helvetica,sans-Serif" font-size="10.00">::connection &gt; connection_</text>
<text text-anchor="start" x="5.5" y="-165.5" font-family="Helvetica,sans-Serif" font-size="10.00">&#45;</text>
<text text-anchor="start" x="14" y="-165.5" font-family="Helvetica,sans-Serif" font-size="10.00">bool is_connected_</text>
<text text-anchor="start" x="4" y="-151" font-family="Helvetica,sans-Serif" font-size="10.00">+</text>
<text text-anchor="start" x="14" y="-151" font-family="Helvetica,sans-Serif" font-size="10.00">bool IsConnected()</text>
<text text-anchor="start" x="14" y="-140.5" font-family="Helvetica,sans-Serif" font-size="10.00"> const</text>
<text text-anchor="start" x="4" y="-126" font-family="Helvetica,sans-Serif" font-size="10.00">+</text>
<text text-anchor="start" x="14" y="-126" font-family="Helvetica,sans-Serif" font-size="10.00">static DatabaseManager</text>
<text text-anchor="start" x="14" y="-115.5" font-family="Helvetica,sans-Serif" font-size="10.00"> * GetInstance()</text>
<text text-anchor="start" x="5.5" y="-101" font-family="Helvetica,sans-Serif" font-size="10.00">&#45;</text>
<text text-anchor="start" x="14" y="-101" font-family="Helvetica,sans-Serif" font-size="10.00">DatabaseManager(const</text>
<text text-anchor="start" x="14" y="-90.5" font-family="Helvetica,sans-Serif" font-size="10.00"> DatabaseManager &amp;)=delete</text>
<text text-anchor="start" x="5.5" y="-76" font-family="Helvetica,sans-Serif" font-size="10.00">&#45;</text>
<text text-anchor="start" x="14" y="-76" font-family="Helvetica,sans-Serif" font-size="10.00">DatabaseManager(QObject</text>
<text text-anchor="start" x="14" y="-65.5" font-family="Helvetica,sans-Serif" font-size="10.00"> *parent=nullptr)</text>
<text text-anchor="start" x="5.5" y="-51" font-family="Helvetica,sans-Serif" font-size="10.00">&#45;</text>
<text text-anchor="start" x="14" y="-51" font-family="Helvetica,sans-Serif" font-size="10.00">DatabaseManager &amp; operator</text>
<text text-anchor="start" x="14" y="-40.5" font-family="Helvetica,sans-Serif" font-size="10.00">=(const DatabaseManager</text>
<text text-anchor="start" x="14" y="-30" font-family="Helvetica,sans-Serif" font-size="10.00"> &amp;)=delete</text>
<text text-anchor="start" x="5.5" y="-15.5" font-family="Helvetica,sans-Serif" font-size="10.00">&#45;</text>
<text text-anchor="start" x="14" y="-15.5" font-family="Helvetica,sans-Serif" font-size="10.00">~DatabaseManager()</text>
<text text-anchor="start" x="14" y="-5" font-family="Helvetica,sans-Serif" font-size="10.00"> override=default</text>
<polygon fill="#666666" stroke="#666666" points="0,-202 0,-202 144.75,-202 144.75,-202 0,-202"/>
<polygon fill="#666666" stroke="#666666" points="0,-162.5 0,-162.5 12,-162.5 12,-162.5 0,-162.5"/>
<polygon fill="#666666" stroke="#666666" points="12,-162.5 12,-162.5 144.75,-162.5 144.75,-162.5 12,-162.5"/>
<polygon fill="none" stroke="#666666" points="0,0 0,-218.5 144.75,-218.5 144.75,0 0,0"/>
</a>
</g>
</g>
<!-- Node2 -->
<g id="Node000002" class="node">
<title>Node2</title>
<g id="a_Node000002"><a xlink:title=" ">
<polygon fill="white" stroke="none" points="94.38,-302 50.38,-302 50.38,-254.5 94.38,-254.5 94.38,-302"/>
<text text-anchor="start" x="54.38" y="-288.5" font-family="Helvetica,sans-Serif" font-size="10.00">QObject</text>
<text text-anchor="start" x="70.88" y="-274" font-family="Helvetica,sans-Serif" font-size="10.00"> </text>
<text text-anchor="start" x="70.88" y="-259.5" font-family="Helvetica,sans-Serif" font-size="10.00"> </text>
<polygon fill="#666666" stroke="#666666" points="50.38,-285.5 50.38,-285.5 94.38,-285.5 94.38,-285.5 50.38,-285.5"/>
<polygon fill="#666666" stroke="#666666" points="50.38,-271 50.38,-271 94.38,-271 94.38,-271 50.38,-271"/>
<polygon fill="none" stroke="#666666" points="50.38,-254.5 50.38,-302 94.38,-302 94.38,-254.5 50.38,-254.5"/>
</a>
</g>
</g>
<!-- Node2&#45;&gt;Node1 -->
<g id="edge1_Node000001_Node000002" class="edge">
<title>Node2&#45;&gt;Node1</title>
<g id="a_edge1_Node000001_Node000002"><a xlink:title=" ">
<path fill="none" stroke="#63b8ff" d="M72.38,-243.23C72.38,-235.65 72.38,-227.22 72.38,-218.39"/>
<polygon fill="none" stroke="#63b8ff" points="68.88,-243.21 72.38,-253.21 75.88,-243.21 68.88,-243.21"/>
</a>
</g>
</g>
</g>
</svg>
