<?xml version="1.0" encoding="UTF-8" standalone="no"?>
<!DOCTYPE svg PUBLIC "-//W3C//DTD SVG 1.1//EN"
 "http://www.w3.org/Graphics/SVG/1.1/DTD/svg11.dtd">
<!-- Generated by graphviz version 12.2.1 (0)
 -->
<!-- Title: AttachmentViewer::decryptionCounterChanged Pages: 1 -->
<!--zoomable 94 -->

<svg id="main" version="1.1" xmlns="http://www.w3.org/2000/svg" xmlns:xlink="http://www.w3.org/1999/xlink" xml:space="preserve" onload="init(evt)">

<style type="text/css"><![CDATA[
.node, .edge {opacity: 0.7;}
.node.selected, .edge.selected {opacity: 1;}
.edge:hover path { stroke: red; }
.edge:hover polygon { stroke: red; fill: red; }
]]></style>

<defs>
  <circle id="rim" cx="0" cy="0" r="7"/>
  <circle id="rim2" cx="0" cy="0" r="3.5"/>
  <g id="zoomPlus">
    <use xlink:href="#rim" fill="#404040"><set attributeName="fill" to="#808080" begin="zoomplus.mouseover" end="zoomplus.mouseout"/></use>
    <path d="M-4,0h8M0,-4v8" fill="none" stroke="white" stroke-width="1.5" pointer-events="none"/>
  </g>
  <g id="zoomMin">
    <use xlink:href="#rim" fill="#404040"><set attributeName="fill" to="#808080" begin="zoomminus.mouseover" end="zoomminus.mouseout"/></use>
    <path d="M-4,0h8" fill="none" stroke="white" stroke-width="1.5" pointer-events="none"/>
  </g>
  <g id="arrowUp" transform="translate(30 24)">
    <use xlink:href="#rim"/>
    <path pointer-events="none" fill="none" stroke="white" stroke-width="1.5" d="M0,-3.0v7 M-2.5,-0.5L0,-3.0L2.5,-0.5"/>
  </g>
  <g id="arrowRight" transform="rotate(90) translate(36 -43)">
    <use xlink:href="#rim"/>
    <path pointer-events="none" fill="none" stroke="white" stroke-width="1.5" d="M0,-3.0v7 M-2.5,-0.5L0,-3.0L2.5,-0.5"/>
  </g>
  <g id="arrowDown" transform="rotate(180) translate(-30 -48)">
    <use xlink:href="#rim"/>
    <path pointer-events="none" fill="none" stroke="white" stroke-width="1.5" d="M0,-3.0v7 M-2.5,-0.5L0,-3.0L2.5,-0.5"/>
  </g>
  <g id="arrowLeft" transform="rotate(270) translate(-36 17)">
    <use xlink:href="#rim"/>
    <path pointer-events="none" fill="none" stroke="white" stroke-width="1.5" d="M0,-3.0v7 M-2.5,-0.5L0,-3.0L2.5,-0.5"/>
  </g>
  <g id="resetDef">
    <use xlink:href="#rim2" fill="#404040"><set attributeName="fill" to="#808080" begin="reset.mouseover" end="reset.mouseout"/></use>
  </g>
</defs>
<script type="application/ecmascript">
var viewWidth = 921;
var viewHeight = 94;
var sectionId = 'dynsection-5';
</script>
<script type="application/ecmascript" xlink:href="svg.min.js"/>
<svg id="graph" class="graph">
<g id="viewport">
<title>AttachmentViewer::decryptionCounterChanged</title>
<!-- Node1 -->
<g id="Node000001" class="node">
<title>Node1</title>
<g id="a_Node000001"><a xlink:title="Emitted when the decryptionCounter property changes. Connected to the MaskOverlay&#39;s SetRevealProgress...">
<polygon fill="#999999" stroke="#666666" points="913.25,-86 766,-86 766,-57 913.25,-57 913.25,-86"/>
<text text-anchor="start" x="774" y="-72.5" font-family="Helvetica,sans-Serif" font-size="10.00">AttachmentViewer::decryption</text>
<text text-anchor="middle" x="839.62" y="-62" font-family="Helvetica,sans-Serif" font-size="10.00">CounterChanged</text>
</a>
</g>
</g>
<!-- Node2 -->
<g id="Node000002" class="node">
<title>Node2</title>
<g id="a_Node000002"><a xlink:href="classAttachmentViewer.html#a725b0a8c1d40b97e2d6cdf59ceb93b38" target="_top" xlink:title="Constructs a CyberAttachmentViewer. Initializes the layout, status label, content container,...">
<polygon fill="white" stroke="#666666" points="151.75,-68 0,-68 0,-39 151.75,-39 151.75,-68"/>
<text text-anchor="start" x="8" y="-54.5" font-family="Helvetica,sans-Serif" font-size="10.00">AttachmentViewer::Attachment</text>
<text text-anchor="middle" x="75.88" y="-44" font-family="Helvetica,sans-Serif" font-size="10.00">Viewer</text>
</a>
</g>
</g>
<!-- Node1&#45;&gt;Node2 -->
<g id="edge1_Node000001_Node000002" class="edge">
<title>Node1&#45;&gt;Node2</title>
<g id="a_edge1_Node000001_Node000002"><a xlink:title=" ">
<path fill="none" stroke="#63b8ff" d="M754.1,-74.06C745.96,-74.24 737.82,-74.39 730,-74.5 568.13,-76.73 527.53,-80.37 365.75,-74.5 293.14,-71.86 210.46,-65.51 152.21,-60.48"/>
<polygon fill="#63b8ff" stroke="#63b8ff" points="754.16,-77.56 764.08,-73.83 754,-70.56 754.16,-77.56"/>
</a>
</g>
</g>
<!-- Node3 -->
<g id="Node000003" class="node">
<title>Node3</title>
<g id="a_Node000003"><a xlink:href="classAttachmentViewer.html#a586152c0b840192e11c1453cbfd20926" target="_top" xlink:title="Sets the decryption progress counter (0&#45;100). Updates the internal value, updates the status label te...">
<polygon fill="white" stroke="#666666" points="730,-65 565.5,-65 565.5,-36 730,-36 730,-65"/>
<text text-anchor="start" x="573.5" y="-51.5" font-family="Helvetica,sans-Serif" font-size="10.00">AttachmentViewer::SetDecryption</text>
<text text-anchor="middle" x="647.75" y="-41" font-family="Helvetica,sans-Serif" font-size="10.00">Counter</text>
</a>
</g>
</g>
<!-- Node1&#45;&gt;Node3 -->
<g id="edge2_Node000001_Node000003" class="edge">
<title>Node1&#45;&gt;Node3</title>
<g id="a_edge2_Node000001_Node000003"><a xlink:title=" ">
<path fill="none" stroke="#63b8ff" d="M754.48,-62.19C746.44,-61.3 738.3,-60.4 730.28,-59.52"/>
<polygon fill="#63b8ff" stroke="#63b8ff" points="753.93,-65.65 764.25,-63.27 754.7,-58.7 753.93,-65.65"/>
</a>
</g>
</g>
<!-- Node4 -->
<g id="Node000004" class="node">
<title>Node4</title>
<g id="a_Node000004"><a xlink:href="classAttachmentViewer.html#a6e5885d1dc1476a3dcff4b76e2e95df1" target="_top" xlink:title="Sets the widget to be displayed after the decryption animation. Removes any previous content,...">
<polygon fill="white" stroke="#666666" points="523.12,-65.75 372.12,-65.75 372.12,-47.25 523.12,-47.25 523.12,-65.75"/>
<text text-anchor="middle" x="447.62" y="-52.25" font-family="Helvetica,sans-Serif" font-size="10.00">AttachmentViewer::SetContent</text>
</a>
</g>
</g>
<!-- Node3&#45;&gt;Node4 -->
<g id="edge3_Node000003_Node000004" class="edge">
<title>Node3&#45;&gt;Node4</title>
<g id="a_edge3_Node000003_Node000004"><a xlink:title=" ">
<path fill="none" stroke="#63b8ff" d="M553.66,-53.32C543.55,-53.63 533.35,-53.93 523.49,-54.23"/>
<polygon fill="#63b8ff" stroke="#63b8ff" points="553.62,-56.82 563.51,-53.02 553.41,-49.83 553.62,-56.82"/>
</a>
</g>
</g>
<!-- Node5 -->
<g id="Node000005" class="node">
<title>Node5</title>
<g id="a_Node000005"><a xlink:href="classAttachmentViewer.html#a847f3bd1aea14895c10cdc6a50a07765" target="_top" xlink:title="Starts the visual scanning phase. Updates the status label, ensures the MaskOverlay is visible and an...">
<polygon fill="white" stroke="#666666" points="529.5,-29 365.75,-29 365.75,0 529.5,0 529.5,-29"/>
<text text-anchor="start" x="373.75" y="-15.5" font-family="Helvetica,sans-Serif" font-size="10.00">AttachmentViewer::StartScanning</text>
<text text-anchor="middle" x="447.62" y="-5" font-family="Helvetica,sans-Serif" font-size="10.00">Animation</text>
</a>
</g>
</g>
<!-- Node3&#45;&gt;Node5 -->
<g id="edge4_Node000003_Node000005" class="edge">
<title>Node3&#45;&gt;Node5</title>
<g id="a_edge4_Node000003_Node000005"><a xlink:title=" ">
<path fill="none" stroke="#63b8ff" d="M553.78,-33.61C545.78,-32.15 537.74,-30.69 529.85,-29.26"/>
<polygon fill="#63b8ff" stroke="#63b8ff" points="553.07,-37.03 563.53,-35.38 554.32,-30.15 553.07,-37.03"/>
</a>
</g>
</g>
<!-- Node6 -->
<g id="Node000006" class="node">
<title>Node6</title>
<g id="a_Node000006"><a xlink:href="classAttachmentViewer.html#a7f2dccdaa47930c6103f9392da17c17b" target="_top" xlink:title="Slot triggered automatically after a short delay or potentially by a user action (though currently au...">
<polygon fill="white" stroke="#666666" points="329.75,-47 187.75,-47 187.75,-18 329.75,-18 329.75,-47"/>
<text text-anchor="start" x="195.75" y="-33.5" font-family="Helvetica,sans-Serif" font-size="10.00">AttachmentViewer::OnAction</text>
<text text-anchor="middle" x="258.75" y="-23" font-family="Helvetica,sans-Serif" font-size="10.00">ButtonClicked</text>
</a>
</g>
</g>
<!-- Node5&#45;&gt;Node6 -->
<g id="edge5_Node000005_Node000006" class="edge">
<title>Node5&#45;&gt;Node6</title>
<g id="a_edge5_Node000005_Node000006"><a xlink:title=" ">
<path fill="none" stroke="#63b8ff" d="M354.06,-23.42C345.96,-24.2 337.86,-24.98 329.99,-25.73"/>
<polygon fill="#63b8ff" stroke="#63b8ff" points="354.35,-26.9 363.97,-22.46 353.68,-19.94 354.35,-26.9"/>
</a>
</g>
</g>
<!-- Node6&#45;&gt;Node2 -->
<g id="edge6_Node000006_Node000002" class="edge">
<title>Node6&#45;&gt;Node2</title>
<g id="a_edge6_Node000006_Node000002"><a xlink:title=" ">
<path fill="none" stroke="#63b8ff" d="M176.13,-41.98C168.17,-42.9 160.11,-43.84 152.22,-44.75"/>
<polygon fill="#63b8ff" stroke="#63b8ff" points="176.27,-45.48 185.8,-40.85 175.46,-38.53 176.27,-45.48"/>
</a>
</g>
</g>
</g>
</svg>

<g id="navigator" transform="translate(0 0)" fill="#404254">
  <rect fill="#f2f5e9" fill-opacity="0.5" stroke="#606060" stroke-width=".5" x="0" y="0" width="60" height="60"/>
  <use id="zoomplus" xlink:href="#zoomPlus" x="17" y="9" onmousedown="handleZoom(evt,'in')"/>
  <use id="zoomminus" xlink:href="#zoomMin" x="42" y="9" onmousedown="handleZoom(evt,'out')"/>
  <use id="reset" xlink:href="#resetDef" x="30" y="36" onmousedown="handleReset()"/>
   <use id="arrowup" xlink:href="#arrowUp" x="0" y="0" onmousedown="handlePan(0,-1)"/>
  <use id="arrowright" xlink:href="#arrowRight" x="0" y="0" onmousedown="handlePan(1,0)"/>
  <use id="arrowdown" xlink:href="#arrowDown" x="0" y="0" onmousedown="handlePan(0,1)"/>
  <use id="arrowleft" xlink:href="#arrowLeft" x="0" y="0" onmousedown="handlePan(-1,0)"/>
</g>
<svg viewBox="0 0 15 15" width="100%" height="30px" preserveAspectRatio="xMaxYMin meet">
 <g id="arrow_out" transform="scale(0.3 0.3)">
  <a xlink:href="classAttachmentViewer_a37125c2f6e7eda53cd7a02ff5de60a97_icgraph_org.svg" target="_base">
   <rect id="button" ry="5" rx="5" y="6" x="6" height="38" width="38"
        fill="#f2f5e9" fill-opacity="0.5" stroke="#606060" stroke-width="1.0"/>
   <path id="arrow"
     d="M 11.500037,31.436501 C 11.940474,20.09759 22.043105,11.32322 32.158766,21.979434 L 37.068811,17.246167 C 37.068811,17.246167 37.088388,32 37.088388,32 L 22.160133,31.978069 C 22.160133,31.978069 26.997745,27.140456 26.997745,27.140456 C 18.528582,18.264221 13.291696,25.230495 11.500037,31.436501 z"
     style="fill:#404040;"/>
  </a>
 </g>
</svg>

<style type='text/css'>
<![CDATA[
[data-mouse-over-selected='false'] { opacity: 0.7; }
[data-mouse-over-selected='true']  { opacity: 1.0; }
]]>
</style>
<script type="application/ecmascript"><![CDATA[
document.addEventListener('DOMContentLoaded', (event) => {
  highlightEdges();
  highlightAdjacentNodes();
});
]]></script>
</svg>
