<?xml version="1.0" encoding="UTF-8" standalone="no"?>
<!DOCTYPE svg PUBLIC "-//W3C//DTD SVG 1.1//EN"
 "http://www.w3.org/Graphics/SVG/1.1/DTD/svg11.dtd">
<!-- Generated by graphviz version 12.2.1 (0)
 -->
<!-- Title: WavelengthStateManager::GetActiveWavelength Pages: 1 -->
<svg width="617pt" height="131pt"
 viewBox="0.00 0.00 616.50 131.00" xmlns="http://www.w3.org/2000/svg" xmlns:xlink="http://www.w3.org/1999/xlink">
<g id="graph0" class="graph" transform="scale(1 1) rotate(0) translate(4 127)">
<title>WavelengthStateManager::GetActiveWavelength</title>
<!-- Node1 -->
<g id="Node000001" class="node">
<title>Node1</title>
<g id="a_Node000001"><a xlink:title="Gets the frequency identifier of the currently active wavelength.">
<polygon fill="#999999" stroke="#666666" points="608.5,-76 481.5,-76 481.5,-47 608.5,-47 608.5,-76"/>
<text text-anchor="start" x="489.5" y="-62.5" font-family="Helvetica,sans-Serif" font-size="10.00">WavelengthStateManager</text>
<text text-anchor="middle" x="545" y="-52" font-family="Helvetica,sans-Serif" font-size="10.00">::GetActiveWavelength</text>
</a>
</g>
</g>
<!-- Node2 -->
<g id="Node000002" class="node">
<title>Node2</title>
<g id="a_Node000002"><a xlink:href="classSessionCoordinator.html#a2ef17a4eda8f62b1b2f8be524770e96f" target="_top" xlink:title="Gets the frequency identifier of the currently active wavelength. Delegates the call to WavelengthSta...">
<polygon fill="white" stroke="#666666" points="438.75,-123 323.75,-123 323.75,-94 438.75,-94 438.75,-123"/>
<text text-anchor="start" x="331.75" y="-109.5" font-family="Helvetica,sans-Serif" font-size="10.00">SessionCoordinator</text>
<text text-anchor="middle" x="381.25" y="-99" font-family="Helvetica,sans-Serif" font-size="10.00">::GetActiveWavelength</text>
</a>
</g>
</g>
<!-- Node1&#45;&gt;Node2 -->
<g id="edge1_Node000001_Node000002" class="edge">
<title>Node1&#45;&gt;Node2</title>
<g id="a_edge1_Node000001_Node000002"><a xlink:title=" ">
<path fill="none" stroke="#63b8ff" d="M481.97,-79.52C466.01,-84.16 449.01,-89.1 433.65,-93.56"/>
<polygon fill="#63b8ff" stroke="#63b8ff" points="482.74,-82.94 491.37,-76.79 480.79,-76.22 482.74,-82.94"/>
</a>
</g>
</g>
<!-- Node3 -->
<g id="Node000003" class="node">
<title>Node3</title>
<g id="a_Node000003"><a xlink:href="classWavelengthStateManager.html#aa0ec9ff3f23e40a6984ddd46ee5a72af" target="_top" xlink:title="Checks if the current user is the host of the currently active wavelength.">
<polygon fill="white" stroke="#666666" points="445.5,-76 317,-76 317,-47 445.5,-47 445.5,-76"/>
<text text-anchor="start" x="325" y="-62.5" font-family="Helvetica,sans-Serif" font-size="10.00">WavelengthStateManager</text>
<text text-anchor="middle" x="381.25" y="-52" font-family="Helvetica,sans-Serif" font-size="10.00">::IsActiveWavelengthHost</text>
</a>
</g>
</g>
<!-- Node1&#45;&gt;Node3 -->
<g id="edge2_Node000001_Node000003" class="edge">
<title>Node1&#45;&gt;Node3</title>
<g id="a_edge2_Node000001_Node000003"><a xlink:title=" ">
<path fill="none" stroke="#63b8ff" d="M469.52,-61.5C461.62,-61.5 453.64,-61.5 445.88,-61.5"/>
<polygon fill="#63b8ff" stroke="#63b8ff" points="469.49,-65 479.49,-61.5 469.49,-58 469.49,-65"/>
</a>
</g>
</g>
<!-- Node5 -->
<g id="Node000005" class="node">
<title>Node5</title>
<g id="a_Node000005"><a xlink:href="classSessionCoordinator.html#ad7c56b7b495b53ea905a6157e2bc5e93" target="_top" xlink:title="Leaves the currently active wavelength. Unregisters the wavelength locally and delegates the call to ...">
<polygon fill="white" stroke="#666666" points="432,-29 330.5,-29 330.5,0 432,0 432,-29"/>
<text text-anchor="start" x="338.5" y="-15.5" font-family="Helvetica,sans-Serif" font-size="10.00">SessionCoordinator</text>
<text text-anchor="middle" x="381.25" y="-5" font-family="Helvetica,sans-Serif" font-size="10.00">::LeaveWavelength</text>
</a>
</g>
</g>
<!-- Node1&#45;&gt;Node5 -->
<g id="edge4_Node000001_Node000005" class="edge">
<title>Node1&#45;&gt;Node5</title>
<g id="a_edge4_Node000001_Node000005"><a xlink:title=" ">
<path fill="none" stroke="#63b8ff" d="M482.17,-43.53C465.67,-38.74 448.05,-33.62 432.27,-29.03"/>
<polygon fill="#63b8ff" stroke="#63b8ff" points="480.79,-46.78 491.37,-46.21 482.74,-40.06 480.79,-46.78"/>
</a>
</g>
</g>
<!-- Node4 -->
<g id="Node000004" class="node">
<title>Node4</title>
<g id="a_Node000004"><a xlink:href="classSessionCoordinator.html#a668b71b01c108671a17924cb0ed55fff" target="_top" xlink:title="Checks if the current user is the host of the currently active wavelength. Delegates the call to Wave...">
<polygon fill="white" stroke="#666666" points="276.12,-76 147.62,-76 147.62,-47 276.12,-47 276.12,-76"/>
<text text-anchor="start" x="155.62" y="-62.5" font-family="Helvetica,sans-Serif" font-size="10.00">SessionCoordinator</text>
<text text-anchor="middle" x="211.88" y="-52" font-family="Helvetica,sans-Serif" font-size="10.00">::IsActiveWavelengthHost</text>
</a>
</g>
</g>
<!-- Node3&#45;&gt;Node4 -->
<g id="edge3_Node000003_Node000004" class="edge">
<title>Node3&#45;&gt;Node4</title>
<g id="a_edge3_Node000003_Node000004"><a xlink:title=" ">
<path fill="none" stroke="#63b8ff" d="M305.66,-61.5C295.94,-61.5 286.04,-61.5 276.52,-61.5"/>
<polygon fill="#63b8ff" stroke="#63b8ff" points="305.46,-65 315.46,-61.5 305.46,-58 305.46,-65"/>
</a>
</g>
</g>
<!-- Node6 -->
<g id="Node000006" class="node">
<title>Node6</title>
<g id="a_Node000006"><a xlink:href="classChatView.html#a23a3ce66f4af487f1f0571e72aaca9aa" target="_top" xlink:title="Initiates the process of leaving or closing the current Wavelength. Updates the status indicator,...">
<polygon fill="white" stroke="#666666" points="281,-23.75 142.75,-23.75 142.75,-5.25 281,-5.25 281,-23.75"/>
<text text-anchor="middle" x="211.88" y="-10.25" font-family="Helvetica,sans-Serif" font-size="10.00">ChatView::AbortWavelength</text>
</a>
</g>
</g>
<!-- Node5&#45;&gt;Node6 -->
<g id="edge5_Node000005_Node000006" class="edge">
<title>Node5&#45;&gt;Node6</title>
<g id="a_edge5_Node000005_Node000006"><a xlink:title=" ">
<path fill="none" stroke="#63b8ff" d="M318.63,-14.5C306.49,-14.5 293.67,-14.5 281.32,-14.5"/>
<polygon fill="#63b8ff" stroke="#63b8ff" points="318.52,-18 328.52,-14.5 318.52,-11 318.52,-18"/>
</a>
</g>
</g>
<!-- Node7 -->
<g id="Node000007" class="node">
<title>Node7</title>
<g id="a_Node000007"><a xlink:href="classChatView.html#ad2db6f12afdba4b49ec7775b2d560ad3" target="_top" xlink:title="Constructs a WavelengthChatView. Initializes the UI elements (labels, message area,...">
<polygon fill="white" stroke="#666666" points="106.75,-23.75 0,-23.75 0,-5.25 106.75,-5.25 106.75,-23.75"/>
<text text-anchor="middle" x="53.38" y="-10.25" font-family="Helvetica,sans-Serif" font-size="10.00">ChatView::ChatView</text>
</a>
</g>
</g>
<!-- Node6&#45;&gt;Node7 -->
<g id="edge6_Node000006_Node000007" class="edge">
<title>Node6&#45;&gt;Node7</title>
<g id="a_edge6_Node000006_Node000007"><a xlink:title=" ">
<path fill="none" stroke="#63b8ff" d="M131.35,-14.5C123.03,-14.5 114.72,-14.5 106.8,-14.5"/>
<polygon fill="#63b8ff" stroke="#63b8ff" points="131.17,-18 141.17,-14.5 131.17,-11 131.17,-18"/>
</a>
</g>
</g>
</g>
</svg>
