<?xml version="1.0" encoding="UTF-8" standalone="no"?>
<!DOCTYPE svg PUBLIC "-//W3C//DTD SVG 1.1//EN"
 "http://www.w3.org/Graphics/SVG/1.1/DTD/svg11.dtd">
<!-- Generated by graphviz version 12.2.1 (0)
 -->
<!-- Title: ShortcutManager::RegisterShortcuts Pages: 1 -->
<svg width="682pt" height="215pt"
 viewBox="0.00 0.00 681.75 214.50" xmlns="http://www.w3.org/2000/svg" xmlns:xlink="http://www.w3.org/1999/xlink">
<g id="graph0" class="graph" transform="scale(1 1) rotate(0) translate(4 210.5)">
<title>ShortcutManager::RegisterShortcuts</title>
<!-- Node1 -->
<g id="Node000001" class="node">
<title>Node1</title>
<g id="a_Node000001"><a xlink:title="Registers shortcuts specific to the provided parent widget.">
<polygon fill="#999999" stroke="#666666" points="133,-146.75 0,-146.75 0,-117.75 133,-117.75 133,-146.75"/>
<text text-anchor="start" x="8" y="-133.25" font-family="Helvetica,sans-Serif" font-size="10.00">ShortcutManager::Register</text>
<text text-anchor="middle" x="66.5" y="-122.75" font-family="Helvetica,sans-Serif" font-size="10.00">Shortcuts</text>
</a>
</g>
</g>
<!-- Node2 -->
<g id="Node000002" class="node">
<title>Node2</title>
<g id="a_Node000002"><a xlink:href="classShortcutManager.html#a4d014d550ca996c51abb06649f71a3fa" target="_top" xlink:title="Registers shortcuts specific to the WavelengthChatView.">
<polygon fill="white" stroke="#666666" points="302,-193.75 169,-193.75 169,-164.75 302,-164.75 302,-193.75"/>
<text text-anchor="start" x="177" y="-180.25" font-family="Helvetica,sans-Serif" font-size="10.00">ShortcutManager::Register</text>
<text text-anchor="middle" x="235.5" y="-169.75" font-family="Helvetica,sans-Serif" font-size="10.00">ChatViewShortcuts</text>
</a>
</g>
</g>
<!-- Node1&#45;&gt;Node2 -->
<g id="edge1_Node000001_Node000002" class="edge">
<title>Node1&#45;&gt;Node2</title>
<g id="a_edge1_Node000001_Node000002"><a xlink:title=" ">
<path fill="none" stroke="#63b8ff" d="M120.34,-147.12C136.33,-151.62 154.06,-156.61 170.69,-161.29"/>
<polygon fill="#63b8ff" stroke="#63b8ff" points="169.4,-164.56 179.97,-163.9 171.3,-157.83 169.4,-164.56"/>
</a>
</g>
</g>
<!-- Node27 -->
<g id="Node000027" class="node">
<title>Node27</title>
<g id="a_Node000027"><a xlink:href="classShortcutManager.html#a1da8274438f6c05921ba4e029b4015c6" target="_top" xlink:title="Registers shortcuts specific to the main application window.">
<polygon fill="white" stroke="#666666" points="302,-99.75 169,-99.75 169,-70.75 302,-70.75 302,-99.75"/>
<text text-anchor="start" x="177" y="-86.25" font-family="Helvetica,sans-Serif" font-size="10.00">ShortcutManager::Register</text>
<text text-anchor="middle" x="235.5" y="-75.75" font-family="Helvetica,sans-Serif" font-size="10.00">MainWindowShortcuts</text>
</a>
</g>
</g>
<!-- Node1&#45;&gt;Node27 -->
<g id="edge6_Node000001_Node000027" class="edge">
<title>Node1&#45;&gt;Node27</title>
<g id="a_edge6_Node000001_Node000027"><a xlink:title=" ">
<path fill="none" stroke="#63b8ff" d="M120.34,-117.38C136.33,-112.88 154.06,-107.89 170.69,-103.21"/>
<polygon fill="#63b8ff" stroke="#63b8ff" points="171.3,-106.67 179.97,-100.6 169.4,-99.94 171.3,-106.67"/>
</a>
</g>
</g>
<!-- Node31 -->
<g id="Node000031" class="node">
<title>Node31</title>
<g id="a_Node000031"><a xlink:href="classShortcutManager.html#ade860152de6a9bd0e34796a400ffe4dc" target="_top" xlink:title="Registers shortcuts specific to the SettingsView.">
<polygon fill="white" stroke="#666666" points="302,-146.75 169,-146.75 169,-117.75 302,-117.75 302,-146.75"/>
<text text-anchor="start" x="177" y="-133.25" font-family="Helvetica,sans-Serif" font-size="10.00">ShortcutManager::Register</text>
<text text-anchor="middle" x="235.5" y="-122.75" font-family="Helvetica,sans-Serif" font-size="10.00">SettingsViewShortcuts</text>
</a>
</g>
</g>
<!-- Node1&#45;&gt;Node31 -->
<g id="edge11_Node000001_Node000031" class="edge">
<title>Node1&#45;&gt;Node31</title>
<g id="a_edge11_Node000001_Node000031"><a xlink:title=" ">
<path fill="none" stroke="#63b8ff" d="M133.02,-132.25C140.97,-132.25 149.15,-132.25 157.25,-132.25"/>
<polygon fill="#63b8ff" stroke="#63b8ff" points="157.1,-135.75 167.1,-132.25 157.1,-128.75 157.1,-135.75"/>
</a>
</g>
</g>
<!-- Node3 -->
<g id="Node000003" class="node">
<title>Node3</title>
<g id="a_Node000003"><a xlink:href="classChatView.html#a4b181808cf22581bd24eb4bab9e07e43" target="_top" xlink:title="Opens a file dialog to allow the user to select a file for sending. If a file is selected,...">
<polygon fill="white" stroke="#666666" points="467.62,-188.5 359.38,-188.5 359.38,-170 467.62,-170 467.62,-188.5"/>
<text text-anchor="middle" x="413.5" y="-175" font-family="Helvetica,sans-Serif" font-size="10.00">ChatView::AttachFile</text>
</a>
</g>
</g>
<!-- Node2&#45;&gt;Node3 -->
<g id="edge2_Node000002_Node000003" class="edge">
<title>Node2&#45;&gt;Node3</title>
<g id="a_edge2_Node000002_Node000003"><a xlink:title=" ">
<path fill="none" stroke="#63b8ff" d="M302.29,-179.25C317.22,-179.25 333.08,-179.25 347.96,-179.25"/>
<polygon fill="#63b8ff" stroke="#63b8ff" points="347.61,-182.75 357.61,-179.25 347.61,-175.75 347.61,-182.75"/>
</a>
</g>
</g>
<!-- Node26 -->
<g id="Node000026" class="node">
<title>Node26</title>
<g id="a_Node000026"><a xlink:href="classShortcutManager.html#a6305ee4ce31c956ea2c1d63b907e21cf" target="_top" xlink:title="Template helper function to create and connect a QShortcut.">
<polygon fill="white" stroke="#666666" points="485.25,-149.75 341.75,-149.75 341.75,-120.75 485.25,-120.75 485.25,-149.75"/>
<text text-anchor="start" x="349.75" y="-136.25" font-family="Helvetica,sans-Serif" font-size="10.00">ShortcutManager::CreateAnd</text>
<text text-anchor="middle" x="413.5" y="-125.75" font-family="Helvetica,sans-Serif" font-size="10.00">ConnectShortcut</text>
</a>
</g>
</g>
<!-- Node2&#45;&gt;Node26 -->
<g id="edge5_Node000002_Node000026" class="edge">
<title>Node2&#45;&gt;Node26</title>
<g id="a_edge5_Node000002_Node000026"><a xlink:title=" ">
<path fill="none" stroke="#63b8ff" d="M296.09,-164.35C310.77,-160.68 326.64,-156.72 341.79,-152.93"/>
<polygon fill="#63b8ff" stroke="#63b8ff" points="342.36,-156.39 351.21,-150.57 340.66,-149.6 342.36,-156.39"/>
</a>
</g>
</g>
<!-- Node4 -->
<g id="Node000004" class="node">
<title>Node4</title>
<g id="a_Node000004"><a xlink:href="classMessageService.html#a3d9355ae6f778ed4799141d921b6e7e4" target="_top" xlink:title="Gets the singleton instance of the MessageService.">
<polygon fill="#fff0f0" stroke="red" points="673.75,-206.5 525,-206.5 525,-188 673.75,-188 673.75,-206.5"/>
<text text-anchor="middle" x="599.38" y="-193" font-family="Helvetica,sans-Serif" font-size="10.00">MessageService::GetInstance</text>
</a>
</g>
</g>
<!-- Node3&#45;&gt;Node4 -->
<g id="edge3_Node000003_Node000004" class="edge">
<title>Node3&#45;&gt;Node4</title>
<g id="a_edge3_Node000003_Node000004"><a xlink:title=" ">
<path fill="none" stroke="#63b8ff" d="M467.68,-184.46C482.02,-185.86 497.9,-187.41 513.51,-188.94"/>
<polygon fill="#63b8ff" stroke="#63b8ff" points="512.99,-192.41 523.29,-189.9 513.68,-185.44 512.99,-192.41"/>
</a>
</g>
</g>
<!-- Node6 -->
<g id="Node000006" class="node">
<title>Node6</title>
<g id="a_Node000006"><a xlink:href="classMessageService.html#aff7ad6c0302f5f9b4864074eb6675931" target="_top" xlink:title="Initiates the process of sending a file to the currently active frequency. Reads the file,...">
<polygon fill="#fff0f0" stroke="red" points="666.25,-169.5 532.5,-169.5 532.5,-151 666.25,-151 666.25,-169.5"/>
<text text-anchor="middle" x="599.38" y="-156" font-family="Helvetica,sans-Serif" font-size="10.00">MessageService::SendFile</text>
</a>
</g>
</g>
<!-- Node3&#45;&gt;Node6 -->
<g id="edge4_Node000003_Node000006" class="edge">
<title>Node3&#45;&gt;Node6</title>
<g id="a_edge4_Node000003_Node000006"><a xlink:title=" ">
<path fill="none" stroke="#63b8ff" d="M467.68,-173.75C484.29,-172.04 502.97,-170.11 520.89,-168.26"/>
<polygon fill="#63b8ff" stroke="#63b8ff" points="521.14,-171.75 530.73,-167.24 520.42,-164.79 521.14,-171.75"/>
</a>
</g>
</g>
<!-- Node27&#45;&gt;Node26 -->
<g id="edge7_Node000027_Node000026" class="edge">
<title>Node27&#45;&gt;Node26</title>
<g id="a_edge7_Node000027_Node000026"><a xlink:title=" ">
<path fill="none" stroke="#63b8ff" d="M288.83,-100.12C307.64,-105.46 329.06,-111.55 348.73,-117.13"/>
<polygon fill="#63b8ff" stroke="#63b8ff" points="347.73,-120.49 358.31,-119.85 349.65,-113.75 347.73,-120.49"/>
</a>
</g>
</g>
<!-- Node28 -->
<g id="Node000028" class="node">
<title>Node28</title>
<g id="a_Node000028"><a xlink:href="classNavbar.html#a35a159d5b981d7027d65c0b4d2e80669" target="_top" xlink:title="Emitted when the &quot;Generate Wavelength&quot; button is clicked.">
<polygon fill="white" stroke="#666666" points="478.88,-102.75 348.12,-102.75 348.12,-73.75 478.88,-73.75 478.88,-102.75"/>
<text text-anchor="start" x="356.12" y="-89.25" font-family="Helvetica,sans-Serif" font-size="10.00">Navbar::createWavelength</text>
<text text-anchor="middle" x="413.5" y="-78.75" font-family="Helvetica,sans-Serif" font-size="10.00">Clicked</text>
</a>
</g>
</g>
<!-- Node27&#45;&gt;Node28 -->
<g id="edge8_Node000027_Node000028" class="edge">
<title>Node27&#45;&gt;Node28</title>
<g id="a_edge8_Node000027_Node000028"><a xlink:title=" ">
<path fill="none" stroke="#63b8ff" d="M302.29,-86.37C313.42,-86.56 325.05,-86.76 336.42,-86.95"/>
<polygon fill="#63b8ff" stroke="#63b8ff" points="336.1,-90.45 346.16,-87.12 336.22,-83.45 336.1,-90.45"/>
</a>
</g>
</g>
<!-- Node29 -->
<g id="Node000029" class="node">
<title>Node29</title>
<g id="a_Node000029"><a xlink:href="classNavbar.html#a2300661cc6485278de90db3a5b572e0f" target="_top" xlink:title="Emitted when the &quot;Merge Wavelength&quot; button is clicked.">
<polygon fill="white" stroke="#666666" points="489,-55.5 338,-55.5 338,-37 489,-37 489,-55.5"/>
<text text-anchor="middle" x="413.5" y="-42" font-family="Helvetica,sans-Serif" font-size="10.00">Navbar::joinWavelengthClicked</text>
</a>
</g>
</g>
<!-- Node27&#45;&gt;Node29 -->
<g id="edge9_Node000027_Node000029" class="edge">
<title>Node27&#45;&gt;Node29</title>
<g id="a_edge9_Node000027_Node000029"><a xlink:title=" ">
<path fill="none" stroke="#63b8ff" d="M302.29,-70.67C320.47,-66.64 340,-62.31 357.5,-58.44"/>
<polygon fill="#63b8ff" stroke="#63b8ff" points="358.19,-61.87 367.19,-56.29 356.67,-55.04 358.19,-61.87"/>
</a>
</g>
</g>
<!-- Node30 -->
<g id="Node000030" class="node">
<title>Node30</title>
<g id="a_Node000030"><a xlink:href="classNavbar.html#ae5174435c781910c3a3a7a335d831a9e" target="_top" xlink:title="Emitted when the &quot;Settings&quot; button is clicked.">
<polygon fill="white" stroke="#666666" points="473.62,-18.5 353.38,-18.5 353.38,0 473.62,0 473.62,-18.5"/>
<text text-anchor="middle" x="413.5" y="-5" font-family="Helvetica,sans-Serif" font-size="10.00">Navbar::settingsClicked</text>
</a>
</g>
</g>
<!-- Node27&#45;&gt;Node30 -->
<g id="edge10_Node000027_Node000030" class="edge">
<title>Node27&#45;&gt;Node30</title>
<g id="a_edge10_Node000027_Node000030"><a xlink:title=" ">
<path fill="none" stroke="#63b8ff" d="M259.02,-70.32C279.04,-57.62 309.48,-39.66 338,-28.25 343.65,-25.99 349.66,-23.93 355.71,-22.07"/>
<polygon fill="#63b8ff" stroke="#63b8ff" points="356.49,-25.49 365.13,-19.36 354.55,-18.76 356.49,-25.49"/>
</a>
</g>
</g>
<!-- Node31&#45;&gt;Node26 -->
<g id="edge12_Node000031_Node000026" class="edge">
<title>Node31&#45;&gt;Node26</title>
<g id="a_edge12_Node000031_Node000026"><a xlink:title=" ">
<path fill="none" stroke="#63b8ff" d="M302.29,-133.37C311.38,-133.53 320.81,-133.69 330.16,-133.85"/>
<polygon fill="#63b8ff" stroke="#63b8ff" points="329.92,-137.34 339.97,-134.01 330.04,-130.34 329.92,-137.34"/>
</a>
</g>
</g>
</g>
</svg>
