<?xml version="1.0" encoding="UTF-8" standalone="no"?>
<!DOCTYPE svg PUBLIC "-//W3C//DTD SVG 1.1//EN"
 "http://www.w3.org/Graphics/SVG/1.1/DTD/svg11.dtd">
<!-- Generated by graphviz version 12.2.1 (0)
 -->
<!-- Title: TextDisplayEffect::SetText Pages: 1 -->
<svg width="513pt" height="131pt"
 viewBox="0.00 0.00 513.00 131.00" xmlns="http://www.w3.org/2000/svg" xmlns:xlink="http://www.w3.org/1999/xlink">
<g id="graph0" class="graph" transform="scale(1 1) rotate(0) translate(4 127)">
<title>TextDisplayEffect::SetText</title>
<!-- Node1 -->
<g id="Node000001" class="node">
<title>Node1</title>
<g id="a_Node000001"><a xlink:title="Sets new text content for the widget. Updates the internal text, removes HTML, recalculates required ...">
<polygon fill="#999999" stroke="#666666" points="99.25,-76 0,-76 0,-47 99.25,-47 99.25,-76"/>
<text text-anchor="start" x="8" y="-62.5" font-family="Helvetica,sans-Serif" font-size="10.00">TextDisplayEffect::</text>
<text text-anchor="middle" x="49.62" y="-52" font-family="Helvetica,sans-Serif" font-size="10.00">SetText</text>
</a>
</g>
</g>
<!-- Node2 -->
<g id="Node000002" class="node">
<title>Node2</title>
<g id="a_Node000002"><a xlink:href="classTextDisplayEffect.html#a11d1fbc1c104ee6c184d9b4ac0ba3fa5" target="_top" xlink:title="Recalculates the required height for the widget based on the plain_text_ content and current width....">
<polygon fill="white" stroke="#666666" points="234.5,-123 135.25,-123 135.25,-94 234.5,-94 234.5,-123"/>
<text text-anchor="start" x="143.25" y="-109.5" font-family="Helvetica,sans-Serif" font-size="10.00">TextDisplayEffect::</text>
<text text-anchor="middle" x="184.88" y="-99" font-family="Helvetica,sans-Serif" font-size="10.00">RecalculateHeight</text>
</a>
</g>
</g>
<!-- Node1&#45;&gt;Node2 -->
<g id="edge1_Node000001_Node000002" class="edge">
<title>Node1&#45;&gt;Node2</title>
<g id="a_edge1_Node000001_Node000002"><a xlink:title=" ">
<path fill="none" stroke="#63b8ff" d="M92.79,-76.37C104.82,-80.61 118.08,-85.29 130.68,-89.74"/>
<polygon fill="#63b8ff" stroke="#63b8ff" points="129.51,-93.04 140.1,-93.06 131.84,-86.43 129.51,-93.04"/>
</a>
</g>
</g>
<!-- Node3 -->
<g id="Node000003" class="node">
<title>Node3</title>
<g id="a_Node000003"><a xlink:href="classTextDisplayEffect.html#a138685dd012160ea0013a628897b3acd" target="_top" xlink:title="Static utility function to remove basic HTML tags and decode common entities from a string.">
<polygon fill="white" stroke="#666666" points="234.5,-76 135.25,-76 135.25,-47 234.5,-47 234.5,-76"/>
<text text-anchor="start" x="143.25" y="-62.5" font-family="Helvetica,sans-Serif" font-size="10.00">TextDisplayEffect::</text>
<text text-anchor="middle" x="184.88" y="-52" font-family="Helvetica,sans-Serif" font-size="10.00">RemoveHtml</text>
</a>
</g>
</g>
<!-- Node1&#45;&gt;Node3 -->
<g id="edge2_Node000001_Node000003" class="edge">
<title>Node1&#45;&gt;Node3</title>
<g id="a_edge2_Node000001_Node000003"><a xlink:title=" ">
<path fill="none" stroke="#63b8ff" d="M99.49,-61.5C107.36,-61.5 115.59,-61.5 123.7,-61.5"/>
<polygon fill="#63b8ff" stroke="#63b8ff" points="123.51,-65 133.51,-61.5 123.51,-58 123.51,-65"/>
</a>
</g>
</g>
<!-- Node4 -->
<g id="Node000004" class="node">
<title>Node4</title>
<g id="a_Node000004"><a xlink:href="classTextDisplayEffect.html#ad9da8cfd5969d6509d622fc708957fb3" target="_top" xlink:title="Starts or restarts the text revealing animation from the beginning. If the text has been fully reveal...">
<polygon fill="white" stroke="#666666" points="234.5,-29 135.25,-29 135.25,0 234.5,0 234.5,-29"/>
<text text-anchor="start" x="143.25" y="-15.5" font-family="Helvetica,sans-Serif" font-size="10.00">TextDisplayEffect::</text>
<text text-anchor="middle" x="184.88" y="-5" font-family="Helvetica,sans-Serif" font-size="10.00">StartReveal</text>
</a>
</g>
</g>
<!-- Node1&#45;&gt;Node4 -->
<g id="edge3_Node000001_Node000004" class="edge">
<title>Node1&#45;&gt;Node4</title>
<g id="a_edge3_Node000001_Node000004"><a xlink:title=" ">
<path fill="none" stroke="#63b8ff" d="M92.79,-46.63C104.82,-42.39 118.08,-37.71 130.68,-33.26"/>
<polygon fill="#63b8ff" stroke="#63b8ff" points="131.84,-36.57 140.1,-29.94 129.51,-29.96 131.84,-36.57"/>
</a>
</g>
</g>
<!-- Node5 -->
<g id="Node000005" class="node">
<title>Node5</title>
<g id="a_Node000005"><a xlink:href="classTextDisplayEffect.html#a743994a8ebe09bd1d4536a2e2ce4ee23" target="_top" xlink:title="Sets the number of revealed characters. Updates the internal count, triggers a repaint,...">
<polygon fill="white" stroke="#666666" points="369.75,-29 270.5,-29 270.5,0 369.75,0 369.75,-29"/>
<text text-anchor="start" x="278.5" y="-15.5" font-family="Helvetica,sans-Serif" font-size="10.00">TextDisplayEffect::</text>
<text text-anchor="middle" x="320.12" y="-5" font-family="Helvetica,sans-Serif" font-size="10.00">SetRevealedChars</text>
</a>
</g>
</g>
<!-- Node4&#45;&gt;Node5 -->
<g id="edge4_Node000004_Node000005" class="edge">
<title>Node4&#45;&gt;Node5</title>
<g id="a_edge4_Node000004_Node000005"><a xlink:title=" ">
<path fill="none" stroke="#63b8ff" d="M234.74,-14.5C242.61,-14.5 250.84,-14.5 258.95,-14.5"/>
<polygon fill="#63b8ff" stroke="#63b8ff" points="258.76,-18 268.76,-14.5 258.76,-11 258.76,-18"/>
</a>
</g>
</g>
<!-- Node6 -->
<g id="Node000006" class="node">
<title>Node6</title>
<g id="a_Node000006"><a xlink:href="classTextDisplayEffect.html#af2538be2d26c4f11de6f1198063f67e2" target="_top" xlink:title="Emitted exactly once when the text revealing animation completes for the first time after StartReveal...">
<polygon fill="white" stroke="#666666" points="505,-29 405.75,-29 405.75,0 505,0 505,-29"/>
<text text-anchor="start" x="413.75" y="-15.5" font-family="Helvetica,sans-Serif" font-size="10.00">TextDisplayEffect::</text>
<text text-anchor="middle" x="455.38" y="-5" font-family="Helvetica,sans-Serif" font-size="10.00">fullTextRevealed</text>
</a>
</g>
</g>
<!-- Node5&#45;&gt;Node6 -->
<g id="edge5_Node000005_Node000006" class="edge">
<title>Node5&#45;&gt;Node6</title>
<g id="a_edge5_Node000005_Node000006"><a xlink:title=" ">
<path fill="none" stroke="#63b8ff" d="M369.99,-14.5C377.86,-14.5 386.09,-14.5 394.2,-14.5"/>
<polygon fill="#63b8ff" stroke="#63b8ff" points="394.01,-18 404.01,-14.5 394.01,-11 394.01,-18"/>
</a>
</g>
</g>
</g>
</svg>
