<?xml version="1.0" encoding="UTF-8" standalone="no"?>
<!DOCTYPE svg PUBLIC "-//W3C//DTD SVG 1.1//EN"
 "http://www.w3.org/Graphics/SVG/1.1/DTD/svg11.dtd">
<!-- Generated by graphviz version 12.2.1 (0)
 -->
<!-- Title: ShortcutManager Pages: 1 -->
<!--zoomable 1092 -->

<svg id="main" version="1.1" xmlns="http://www.w3.org/2000/svg" xmlns:xlink="http://www.w3.org/1999/xlink" xml:space="preserve" onload="init(evt)">

<style type="text/css"><![CDATA[
.node, .edge {opacity: 0.7;}
.node.selected, .edge.selected {opacity: 1;}
.edge:hover path { stroke: red; }
.edge:hover polygon { stroke: red; fill: red; }
]]></style>

<defs>
  <circle id="rim" cx="0" cy="0" r="7"/>
  <circle id="rim2" cx="0" cy="0" r="3.5"/>
  <g id="zoomPlus">
    <use xlink:href="#rim" fill="#404040"><set attributeName="fill" to="#808080" begin="zoomplus.mouseover" end="zoomplus.mouseout"/></use>
    <path d="M-4,0h8M0,-4v8" fill="none" stroke="white" stroke-width="1.5" pointer-events="none"/>
  </g>
  <g id="zoomMin">
    <use xlink:href="#rim" fill="#404040"><set attributeName="fill" to="#808080" begin="zoomminus.mouseover" end="zoomminus.mouseout"/></use>
    <path d="M-4,0h8" fill="none" stroke="white" stroke-width="1.5" pointer-events="none"/>
  </g>
  <g id="arrowUp" transform="translate(30 24)">
    <use xlink:href="#rim"/>
    <path pointer-events="none" fill="none" stroke="white" stroke-width="1.5" d="M0,-3.0v7 M-2.5,-0.5L0,-3.0L2.5,-0.5"/>
  </g>
  <g id="arrowRight" transform="rotate(90) translate(36 -43)">
    <use xlink:href="#rim"/>
    <path pointer-events="none" fill="none" stroke="white" stroke-width="1.5" d="M0,-3.0v7 M-2.5,-0.5L0,-3.0L2.5,-0.5"/>
  </g>
  <g id="arrowDown" transform="rotate(180) translate(-30 -48)">
    <use xlink:href="#rim"/>
    <path pointer-events="none" fill="none" stroke="white" stroke-width="1.5" d="M0,-3.0v7 M-2.5,-0.5L0,-3.0L2.5,-0.5"/>
  </g>
  <g id="arrowLeft" transform="rotate(270) translate(-36 17)">
    <use xlink:href="#rim"/>
    <path pointer-events="none" fill="none" stroke="white" stroke-width="1.5" d="M0,-3.0v7 M-2.5,-0.5L0,-3.0L2.5,-0.5"/>
  </g>
  <g id="resetDef">
    <use xlink:href="#rim2" fill="#404040"><set attributeName="fill" to="#808080" begin="reset.mouseover" end="reset.mouseout"/></use>
  </g>
</defs>
<script type="application/ecmascript">
var viewWidth = 333;
var viewHeight = 1092;
var sectionId = 'dynsection-1';
</script>
<script type="application/ecmascript" xlink:href="svg.min.js"/>
<svg id="graph" class="graph">
<g id="viewport">
<title>ShortcutManager</title>
<!-- Node1 -->
<g id="Node000001" class="node">
<title>Node1</title>
<g id="a_Node000001"><a xlink:title="Manages application&#45;wide keyboard shortcuts using a singleton pattern.">
<polygon fill="#999999" stroke="none" points="173.25,-360.5 0,-360.5 0,0 173.25,0 173.25,-360.5"/>
<text text-anchor="start" x="49.12" y="-347" font-family="Helvetica,sans-Serif" font-size="10.00">ShortcutManager</text>
<text text-anchor="start" x="5.5" y="-332.5" font-family="Helvetica,sans-Serif" font-size="10.00">&#45;</text>
<text text-anchor="start" x="14" y="-332.5" font-family="Helvetica,sans-Serif" font-size="10.00">QMap&lt; QWidget *, QMap</text>
<text text-anchor="start" x="14" y="-322" font-family="Helvetica,sans-Serif" font-size="10.00">&lt; QString, QShortcut</text>
<text text-anchor="start" x="14" y="-311.5" font-family="Helvetica,sans-Serif" font-size="10.00"> * &gt; &gt; registered_shortcuts_</text>
<text text-anchor="start" x="4" y="-297" font-family="Helvetica,sans-Serif" font-size="10.00">+</text>
<text text-anchor="start" x="14" y="-297" font-family="Helvetica,sans-Serif" font-size="10.00">ShortcutManager &amp; operator</text>
<text text-anchor="start" x="14" y="-286.5" font-family="Helvetica,sans-Serif" font-size="10.00">=(const ShortcutManager</text>
<text text-anchor="start" x="14" y="-276" font-family="Helvetica,sans-Serif" font-size="10.00"> &amp;)=delete</text>
<text text-anchor="start" x="4" y="-261.5" font-family="Helvetica,sans-Serif" font-size="10.00">+</text>
<text text-anchor="start" x="14" y="-261.5" font-family="Helvetica,sans-Serif" font-size="10.00">void RegisterShortcuts</text>
<text text-anchor="start" x="14" y="-251" font-family="Helvetica,sans-Serif" font-size="10.00">(QWidget *parent)</text>
<text text-anchor="start" x="4" y="-236.5" font-family="Helvetica,sans-Serif" font-size="10.00">+</text>
<text text-anchor="start" x="14" y="-236.5" font-family="Helvetica,sans-Serif" font-size="10.00">ShortcutManager(const</text>
<text text-anchor="start" x="14" y="-226" font-family="Helvetica,sans-Serif" font-size="10.00"> ShortcutManager &amp;)=delete</text>
<text text-anchor="start" x="4" y="-211.5" font-family="Helvetica,sans-Serif" font-size="10.00">+</text>
<text text-anchor="start" x="14" y="-211.5" font-family="Helvetica,sans-Serif" font-size="10.00">static ShortcutManager</text>
<text text-anchor="start" x="14" y="-201" font-family="Helvetica,sans-Serif" font-size="10.00"> * GetInstance()</text>
<text text-anchor="start" x="4" y="-186.5" font-family="Helvetica,sans-Serif" font-size="10.00">+</text>
<text text-anchor="start" x="14" y="-186.5" font-family="Helvetica,sans-Serif" font-size="10.00">void updateRegisteredShortcuts()</text>
<text text-anchor="start" x="5.5" y="-172" font-family="Helvetica,sans-Serif" font-size="10.00">&#45;</text>
<text text-anchor="start" x="14" y="-172" font-family="Helvetica,sans-Serif" font-size="10.00">void CreateAndConnectShortcut</text>
<text text-anchor="start" x="14" y="-161.5" font-family="Helvetica,sans-Serif" font-size="10.00">(const QString &amp;action_id,</text>
<text text-anchor="start" x="14" y="-151" font-family="Helvetica,sans-Serif" font-size="10.00"> QWidget *parent, Func lambda)</text>
<text text-anchor="start" x="5.5" y="-136.5" font-family="Helvetica,sans-Serif" font-size="10.00">&#45;</text>
<text text-anchor="start" x="14" y="-136.5" font-family="Helvetica,sans-Serif" font-size="10.00">void RegisterChatViewShortcuts</text>
<text text-anchor="start" x="14" y="-126" font-family="Helvetica,sans-Serif" font-size="10.00">(ChatView *chat_view)</text>
<text text-anchor="start" x="5.5" y="-111.5" font-family="Helvetica,sans-Serif" font-size="10.00">&#45;</text>
<text text-anchor="start" x="14" y="-111.5" font-family="Helvetica,sans-Serif" font-size="10.00">void RegisterMainWindowShortcuts</text>
<text text-anchor="start" x="14" y="-101" font-family="Helvetica,sans-Serif" font-size="10.00">(QMainWindow *window, Navbar</text>
<text text-anchor="start" x="14" y="-90.5" font-family="Helvetica,sans-Serif" font-size="10.00"> *navbar)</text>
<text text-anchor="start" x="5.5" y="-76" font-family="Helvetica,sans-Serif" font-size="10.00">&#45;</text>
<text text-anchor="start" x="14" y="-76" font-family="Helvetica,sans-Serif" font-size="10.00">void RegisterSettingsView</text>
<text text-anchor="start" x="14" y="-65.5" font-family="Helvetica,sans-Serif" font-size="10.00">Shortcuts(SettingsView</text>
<text text-anchor="start" x="14" y="-55" font-family="Helvetica,sans-Serif" font-size="10.00"> *settings_view)</text>
<text text-anchor="start" x="5.5" y="-40.5" font-family="Helvetica,sans-Serif" font-size="10.00">&#45;</text>
<text text-anchor="start" x="14" y="-40.5" font-family="Helvetica,sans-Serif" font-size="10.00">ShortcutManager(QObject</text>
<text text-anchor="start" x="14" y="-30" font-family="Helvetica,sans-Serif" font-size="10.00"> *parent=nullptr)</text>
<text text-anchor="start" x="5.5" y="-15.5" font-family="Helvetica,sans-Serif" font-size="10.00">&#45;</text>
<text text-anchor="start" x="14" y="-15.5" font-family="Helvetica,sans-Serif" font-size="10.00">~ShortcutManager()</text>
<text text-anchor="start" x="14" y="-5" font-family="Helvetica,sans-Serif" font-size="10.00"> override=default</text>
<polygon fill="#666666" stroke="#666666" points="0,-344 0,-344 173.25,-344 173.25,-344 0,-344"/>
<polygon fill="#666666" stroke="#666666" points="0,-308.5 0,-308.5 12,-308.5 12,-308.5 0,-308.5"/>
<polygon fill="#666666" stroke="#666666" points="12,-308.5 12,-308.5 173.25,-308.5 173.25,-308.5 12,-308.5"/>
<polygon fill="none" stroke="#666666" points="0,0 0,-360.5 173.25,-360.5 173.25,0 0,0"/>
</a>
</g>
</g>
<!-- Node2 -->
<g id="Node000002" class="node">
<title>Node2</title>
<g id="a_Node000002"><a xlink:title=" ">
<polygon fill="white" stroke="none" points="104.62,-1084 60.62,-1084 60.62,-1036.5 104.62,-1036.5 104.62,-1084"/>
<text text-anchor="start" x="64.62" y="-1070.5" font-family="Helvetica,sans-Serif" font-size="10.00">QObject</text>
<text text-anchor="start" x="81.12" y="-1056" font-family="Helvetica,sans-Serif" font-size="10.00"> </text>
<text text-anchor="start" x="81.12" y="-1041.5" font-family="Helvetica,sans-Serif" font-size="10.00"> </text>
<polygon fill="#666666" stroke="#666666" points="60.62,-1067.5 60.62,-1067.5 104.62,-1067.5 104.62,-1067.5 60.62,-1067.5"/>
<polygon fill="#666666" stroke="#666666" points="60.62,-1053 60.62,-1053 104.62,-1053 104.62,-1053 60.62,-1053"/>
<polygon fill="none" stroke="#666666" points="60.62,-1036.5 60.62,-1084 104.62,-1084 104.62,-1036.5 60.62,-1036.5"/>
</a>
</g>
</g>
<!-- Node2&#45;&gt;Node1 -->
<g id="edge1_Node000001_Node000002" class="edge">
<title>Node2&#45;&gt;Node1</title>
<g id="a_edge1_Node000001_Node000002"><a xlink:title=" ">
<path fill="none" stroke="#63b8ff" d="M82.78,-1025.19C83.27,-916.71 84.84,-573.92 85.81,-360.05"/>
<polygon fill="none" stroke="#63b8ff" points="79.28,-1025.13 82.73,-1035.15 86.28,-1025.17 79.28,-1025.13"/>
</a>
</g>
</g>
<!-- Node3 -->
<g id="Node000003" class="node">
<title>Node3</title>
<g id="a_Node000003"><a xlink:href="classWavelengthConfig.html" target="_top" xlink:title="Manages application configuration settings using a singleton pattern.">
<polygon fill="white" stroke="none" points="258.5,-999.5 98.75,-999.5 98.75,-407 258.5,-407 258.5,-999.5"/>
<text text-anchor="start" x="139.25" y="-986" font-family="Helvetica,sans-Serif" font-size="10.00">WavelengthConfig</text>
<text text-anchor="start" x="104.25" y="-971.5" font-family="Helvetica,sans-Serif" font-size="10.00">&#45;</text>
<text text-anchor="start" x="112.75" y="-971.5" font-family="Helvetica,sans-Serif" font-size="10.00">QColor background_color_</text>
<text text-anchor="start" x="104.25" y="-957" font-family="Helvetica,sans-Serif" font-size="10.00">&#45;</text>
<text text-anchor="start" x="112.75" y="-957" font-family="Helvetica,sans-Serif" font-size="10.00">QColor blob_color_</text>
<text text-anchor="start" x="104.25" y="-942.5" font-family="Helvetica,sans-Serif" font-size="10.00">&#45;</text>
<text text-anchor="start" x="112.75" y="-942.5" font-family="Helvetica,sans-Serif" font-size="10.00">int connection_timeout_</text>
<text text-anchor="start" x="104.25" y="-928" font-family="Helvetica,sans-Serif" font-size="10.00">&#45;</text>
<text text-anchor="start" x="112.75" y="-928" font-family="Helvetica,sans-Serif" font-size="10.00">bool debug_mode_</text>
<text text-anchor="start" x="104.25" y="-913.5" font-family="Helvetica,sans-Serif" font-size="10.00">&#45;</text>
<text text-anchor="start" x="112.75" y="-913.5" font-family="Helvetica,sans-Serif" font-size="10.00">QMap&lt; QString, QKeySequence</text>
<text text-anchor="start" x="112.75" y="-903" font-family="Helvetica,sans-Serif" font-size="10.00"> &gt; default_shortcuts_</text>
<text text-anchor="start" x="104.25" y="-888.5" font-family="Helvetica,sans-Serif" font-size="10.00">&#45;</text>
<text text-anchor="start" x="112.75" y="-888.5" font-family="Helvetica,sans-Serif" font-size="10.00">QColor grid_color_</text>
<text text-anchor="start" x="104.25" y="-874" font-family="Helvetica,sans-Serif" font-size="10.00">&#45;</text>
<text text-anchor="start" x="112.75" y="-874" font-family="Helvetica,sans-Serif" font-size="10.00">int grid_spacing_</text>
<text text-anchor="start" x="104.25" y="-859.5" font-family="Helvetica,sans-Serif" font-size="10.00">&#45;</text>
<text text-anchor="start" x="112.75" y="-859.5" font-family="Helvetica,sans-Serif" font-size="10.00">int keep_alive_interval_</text>
<text text-anchor="start" x="104.25" y="-845" font-family="Helvetica,sans-Serif" font-size="10.00">&#45;</text>
<text text-anchor="start" x="112.75" y="-845" font-family="Helvetica,sans-Serif" font-size="10.00">const QString kShortcuts</text>
<text text-anchor="start" x="112.75" y="-834.5" font-family="Helvetica,sans-Serif" font-size="10.00">Prefix</text>
<text text-anchor="start" x="104.25" y="-820" font-family="Helvetica,sans-Serif" font-size="10.00">&#45;</text>
<text text-anchor="start" x="112.75" y="-820" font-family="Helvetica,sans-Serif" font-size="10.00">QString language_code_</text>
<text text-anchor="start" x="112.75" y="-805.5" font-family="Helvetica,sans-Serif" font-size="10.00">and 11 more...</text>
<text text-anchor="start" x="104.25" y="-791" font-family="Helvetica,sans-Serif" font-size="10.00">&#45;</text>
<text text-anchor="start" x="112.75" y="-791" font-family="Helvetica,sans-Serif" font-size="10.00">static constexpr int</text>
<text text-anchor="start" x="112.75" y="-780.5" font-family="Helvetica,sans-Serif" font-size="10.00"> kMaxRecentColors</text>
<text text-anchor="start" x="102.75" y="-766" font-family="Helvetica,sans-Serif" font-size="10.00">+</text>
<text text-anchor="start" x="112.75" y="-766" font-family="Helvetica,sans-Serif" font-size="10.00">void AddRecentColor</text>
<text text-anchor="start" x="112.75" y="-755.5" font-family="Helvetica,sans-Serif" font-size="10.00">(const QColor &amp;color)</text>
<text text-anchor="start" x="102.75" y="-741" font-family="Helvetica,sans-Serif" font-size="10.00">+</text>
<text text-anchor="start" x="112.75" y="-741" font-family="Helvetica,sans-Serif" font-size="10.00">QMap&lt; QString, QKeySequence</text>
<text text-anchor="start" x="112.75" y="-730.5" font-family="Helvetica,sans-Serif" font-size="10.00"> &gt; GetAllShortcuts() const</text>
<text text-anchor="start" x="102.75" y="-716" font-family="Helvetica,sans-Serif" font-size="10.00">+</text>
<text text-anchor="start" x="112.75" y="-716" font-family="Helvetica,sans-Serif" font-size="10.00">QColor GetBackgroundColor</text>
<text text-anchor="start" x="112.75" y="-705.5" font-family="Helvetica,sans-Serif" font-size="10.00">() const</text>
<text text-anchor="start" x="102.75" y="-691" font-family="Helvetica,sans-Serif" font-size="10.00">+</text>
<text text-anchor="start" x="112.75" y="-691" font-family="Helvetica,sans-Serif" font-size="10.00">QColor GetBlobColor</text>
<text text-anchor="start" x="112.75" y="-680.5" font-family="Helvetica,sans-Serif" font-size="10.00">() const</text>
<text text-anchor="start" x="102.75" y="-666" font-family="Helvetica,sans-Serif" font-size="10.00">+</text>
<text text-anchor="start" x="112.75" y="-666" font-family="Helvetica,sans-Serif" font-size="10.00">int GetConnectionTimeout</text>
<text text-anchor="start" x="112.75" y="-655.5" font-family="Helvetica,sans-Serif" font-size="10.00">() const</text>
<text text-anchor="start" x="102.75" y="-641" font-family="Helvetica,sans-Serif" font-size="10.00">+</text>
<text text-anchor="start" x="112.75" y="-641" font-family="Helvetica,sans-Serif" font-size="10.00">QMap&lt; QString, QKeySequence</text>
<text text-anchor="start" x="112.75" y="-630.5" font-family="Helvetica,sans-Serif" font-size="10.00"> &gt; GetDefaultShortcutsMap</text>
<text text-anchor="start" x="112.75" y="-620" font-family="Helvetica,sans-Serif" font-size="10.00">() const</text>
<text text-anchor="start" x="102.75" y="-605.5" font-family="Helvetica,sans-Serif" font-size="10.00">+</text>
<text text-anchor="start" x="112.75" y="-605.5" font-family="Helvetica,sans-Serif" font-size="10.00">QColor GetGridColor</text>
<text text-anchor="start" x="112.75" y="-595" font-family="Helvetica,sans-Serif" font-size="10.00">() const</text>
<text text-anchor="start" x="102.75" y="-580.5" font-family="Helvetica,sans-Serif" font-size="10.00">+</text>
<text text-anchor="start" x="112.75" y="-580.5" font-family="Helvetica,sans-Serif" font-size="10.00">int GetGridSpacing</text>
<text text-anchor="start" x="112.75" y="-570" font-family="Helvetica,sans-Serif" font-size="10.00">() const</text>
<text text-anchor="start" x="102.75" y="-555.5" font-family="Helvetica,sans-Serif" font-size="10.00">+</text>
<text text-anchor="start" x="112.75" y="-555.5" font-family="Helvetica,sans-Serif" font-size="10.00">int GetKeepAliveInterval</text>
<text text-anchor="start" x="112.75" y="-545" font-family="Helvetica,sans-Serif" font-size="10.00">() const</text>
<text text-anchor="start" x="102.75" y="-530.5" font-family="Helvetica,sans-Serif" font-size="10.00">+</text>
<text text-anchor="start" x="112.75" y="-530.5" font-family="Helvetica,sans-Serif" font-size="10.00">QString GetLanguageCode</text>
<text text-anchor="start" x="112.75" y="-520" font-family="Helvetica,sans-Serif" font-size="10.00">() const</text>
<text text-anchor="start" x="112.75" y="-505.5" font-family="Helvetica,sans-Serif" font-size="10.00">and 35 more...</text>
<text text-anchor="start" x="102.75" y="-491" font-family="Helvetica,sans-Serif" font-size="10.00">+</text>
<text text-anchor="start" x="112.75" y="-491" font-family="Helvetica,sans-Serif" font-size="10.00">static WavelengthConfig</text>
<text text-anchor="start" x="112.75" y="-480.5" font-family="Helvetica,sans-Serif" font-size="10.00"> * GetInstance()</text>
<text text-anchor="start" x="104.25" y="-466" font-family="Helvetica,sans-Serif" font-size="10.00">&#45;</text>
<text text-anchor="start" x="112.75" y="-466" font-family="Helvetica,sans-Serif" font-size="10.00">void LoadDefaults()</text>
<text text-anchor="start" x="104.25" y="-451.5" font-family="Helvetica,sans-Serif" font-size="10.00">&#45;</text>
<text text-anchor="start" x="112.75" y="-451.5" font-family="Helvetica,sans-Serif" font-size="10.00">void LoadDefaultShortcuts()</text>
<text text-anchor="start" x="104.25" y="-437" font-family="Helvetica,sans-Serif" font-size="10.00">&#45;</text>
<text text-anchor="start" x="112.75" y="-437" font-family="Helvetica,sans-Serif" font-size="10.00">void LoadSettings()</text>
<text text-anchor="start" x="104.25" y="-422.5" font-family="Helvetica,sans-Serif" font-size="10.00">&#45;</text>
<text text-anchor="start" x="112.75" y="-422.5" font-family="Helvetica,sans-Serif" font-size="10.00">WavelengthConfig(QObject</text>
<text text-anchor="start" x="112.75" y="-412" font-family="Helvetica,sans-Serif" font-size="10.00"> *parent=nullptr)</text>
<polygon fill="#666666" stroke="#666666" points="98.75,-983 98.75,-983 258.5,-983 258.5,-983 98.75,-983"/>
<polygon fill="#666666" stroke="#666666" points="98.75,-777.5 98.75,-777.5 110.75,-777.5 110.75,-777.5 98.75,-777.5"/>
<polygon fill="#666666" stroke="#666666" points="110.75,-777.5 110.75,-777.5 258.5,-777.5 258.5,-777.5 110.75,-777.5"/>
<polygon fill="none" stroke="#666666" points="98.75,-407 98.75,-999.5 258.5,-999.5 258.5,-407 98.75,-407"/>
</a>
</g>
</g>
<!-- Node2&#45;&gt;Node3 -->
<g id="edge3_Node000003_Node000002" class="edge">
<title>Node2&#45;&gt;Node3</title>
<g id="a_edge3_Node000003_Node000002"><a xlink:title=" ">
<path fill="none" stroke="#63b8ff" d="M91.71,-1025.64C93.8,-1017.91 96.19,-1009.08 98.81,-999.39"/>
<polygon fill="none" stroke="#63b8ff" points="88.4,-1024.48 89.17,-1035.04 95.16,-1026.3 88.4,-1024.48"/>
</a>
</g>
</g>
<!-- Node3&#45;&gt;Node1 -->
<g id="edge2_Node000001_Node000003" class="edge">
<title>Node3&#45;&gt;Node1</title>
<g id="a_edge2_Node000001_Node000003"><a xlink:title=" ">
<path fill="none" stroke="#63b8ff" d="M126.51,-407.12C124.47,-395.59 122.45,-384.15 120.47,-372.9"/>
<polygon fill="none" stroke="#63b8ff" points="120.48,-372.99 115.5,-367.77 118.4,-361.17 123.38,-366.38 120.48,-372.99"/>
</a>
</g>
<text text-anchor="middle" x="140.43" y="-379.5" font-family="Helvetica,sans-Serif" font-size="10.00" fill="grey"> &#45;config_</text>
</g>
<!-- Node3&#45;&gt;Node3 -->
<g id="edge4_Node000003_Node000003" class="edge">
<title>Node3&#45;&gt;Node3</title>
<g id="a_edge4_Node000003_Node000003"><a xlink:title=" ">
<path fill="none" stroke="#63b8ff" d="M258.12,-755.91C269.14,-747.24 276.5,-729.68 276.5,-703.25 276.5,-684.46 272.78,-670.15 266.67,-660.34"/>
<polygon fill="none" stroke="#63b8ff" points="266.63,-660.29 259.66,-658.41 258.71,-651.27 265.68,-653.14 266.63,-660.29"/>
</a>
</g>
<text text-anchor="middle" x="300.5" y="-699" font-family="Helvetica,sans-Serif" font-size="10.00" fill="grey"> &#45;instance_</text>
</g>
</g>
</svg>

<g id="navigator" transform="translate(0 0)" fill="#404254">
  <rect fill="#f2f5e9" fill-opacity="0.5" stroke="#606060" stroke-width=".5" x="0" y="0" width="60" height="60"/>
  <use id="zoomplus" xlink:href="#zoomPlus" x="17" y="9" onmousedown="handleZoom(evt,'in')"/>
  <use id="zoomminus" xlink:href="#zoomMin" x="42" y="9" onmousedown="handleZoom(evt,'out')"/>
  <use id="reset" xlink:href="#resetDef" x="30" y="36" onmousedown="handleReset()"/>
   <use id="arrowup" xlink:href="#arrowUp" x="0" y="0" onmousedown="handlePan(0,-1)"/>
  <use id="arrowright" xlink:href="#arrowRight" x="0" y="0" onmousedown="handlePan(1,0)"/>
  <use id="arrowdown" xlink:href="#arrowDown" x="0" y="0" onmousedown="handlePan(0,1)"/>
  <use id="arrowleft" xlink:href="#arrowLeft" x="0" y="0" onmousedown="handlePan(-1,0)"/>
</g>
<svg viewBox="0 0 15 15" width="100%" height="30px" preserveAspectRatio="xMaxYMin meet">
 <g id="arrow_out" transform="scale(0.3 0.3)">
  <a xlink:href="classShortcutManager__coll__graph_org.svg" target="_base">
   <rect id="button" ry="5" rx="5" y="6" x="6" height="38" width="38"
        fill="#f2f5e9" fill-opacity="0.5" stroke="#606060" stroke-width="1.0"/>
   <path id="arrow"
     d="M 11.500037,31.436501 C 11.940474,20.09759 22.043105,11.32322 32.158766,21.979434 L 37.068811,17.246167 C 37.068811,17.246167 37.088388,32 37.088388,32 L 22.160133,31.978069 C 22.160133,31.978069 26.997745,27.140456 26.997745,27.140456 C 18.528582,18.264221 13.291696,25.230495 11.500037,31.436501 z"
     style="fill:#404040;"/>
  </a>
 </g>
</svg>

<style type='text/css'>
<![CDATA[
[data-mouse-over-selected='false'] { opacity: 0.7; }
[data-mouse-over-selected='true']  { opacity: 1.0; }
]]>
</style>
<script type="application/ecmascript"><![CDATA[
document.addEventListener('DOMContentLoaded', (event) => {
  highlightEdges();
  highlightAdjacentNodes();
});
]]></script>
</svg>
