<?xml version="1.0" encoding="UTF-8" standalone="no"?>
<!DOCTYPE svg PUBLIC "-//W3C//DTD SVG 1.1//EN"
 "http://www.w3.org/Graphics/SVG/1.1/DTD/svg11.dtd">
<!-- Generated by graphviz version 12.2.1 (0)
 -->
<!-- Title: BlobAnimation::eventFilter Pages: 1 -->
<svg width="282pt" height="45pt"
 viewBox="0.00 0.00 282.25 44.50" xmlns="http://www.w3.org/2000/svg" xmlns:xlink="http://www.w3.org/1999/xlink">
<g id="graph0" class="graph" transform="scale(1 1) rotate(0) translate(4 40.5)">
<title>BlobAnimation::eventFilter</title>
<!-- Node1 -->
<g id="Node000001" class="node">
<title>Node1</title>
<g id="a_Node000001"><a xlink:title="Overridden event filter. Delegates filtering primarily to BlobEventHandler.">
<polygon fill="#999999" stroke="#666666" points="130,-18.5 0,-18.5 0,0 130,0 130,-18.5"/>
<text text-anchor="middle" x="65" y="-5" font-family="Helvetica,sans-Serif" font-size="10.00">BlobAnimation::eventFilter</text>
</a>
</g>
</g>
<!-- Node2 -->
<g id="Node000002" class="node">
<title>Node2</title>
<g id="a_Node000002"><a xlink:href="classBlobAnimation.html#ae5180933d2c5bc51e08f3a57f229a0f8" target="_top" xlink:title="Overridden generic event handler.">
<polygon fill="white" stroke="#666666" points="274.25,-18.5 166,-18.5 166,0 274.25,0 274.25,-18.5"/>
<text text-anchor="middle" x="220.12" y="-5" font-family="Helvetica,sans-Serif" font-size="10.00">BlobAnimation::event</text>
</a>
</g>
</g>
<!-- Node1&#45;&gt;Node2 -->
<g id="edge1_Node000001_Node000002" class="edge">
<title>Node1&#45;&gt;Node2</title>
<g id="a_edge1_Node000001_Node000002"><a xlink:title=" ">
<path fill="none" stroke="#63b8ff" d="M130.49,-9.25C138.4,-9.25 146.49,-9.25 154.4,-9.25"/>
<polygon fill="#63b8ff" stroke="#63b8ff" points="154.31,-12.75 164.31,-9.25 154.31,-5.75 154.31,-12.75"/>
</a>
</g>
</g>
<!-- Node2&#45;&gt;Node2 -->
<g id="edge2_Node000002_Node000002" class="edge">
<title>Node2&#45;&gt;Node2</title>
<g id="a_edge2_Node000002_Node000002"><a xlink:title=" ">
<path fill="none" stroke="#63b8ff" d="M196.22,-18.75C184.58,-27.32 192.55,-36.5 220.12,-36.5 235.63,-36.5 244.94,-33.59 248.05,-29.53"/>
<polygon fill="#63b8ff" stroke="#63b8ff" points="251.33,-28.32 244.56,-20.16 244.77,-30.76 251.33,-28.32"/>
</a>
</g>
</g>
</g>
</svg>
