<?xml version="1.0" encoding="UTF-8" standalone="no"?>
<!DOCTYPE svg PUBLIC "-//W3C//DTD SVG 1.1//EN"
 "http://www.w3.org/Graphics/SVG/1.1/DTD/svg11.dtd">
<!-- Generated by graphviz version 12.2.1 (0)
 -->
<!-- Title: MessageService::SendPttRequest Pages: 1 -->
<svg width="638pt" height="105pt"
 viewBox="0.00 0.00 637.50 105.00" xmlns="http://www.w3.org/2000/svg" xmlns:xlink="http://www.w3.org/1999/xlink">
<g id="graph0" class="graph" transform="scale(1 1) rotate(0) translate(4 101)">
<title>MessageService::SendPttRequest</title>
<!-- Node1 -->
<g id="Node000001" class="node">
<title>Node1</title>
<g id="a_Node000001"><a xlink:title="Sends a Push&#45;to&#45;Talk (PTT) request message for the specified frequency. Constructs a JSON message of ...">
<polygon fill="#999999" stroke="#666666" points="166.75,-44.75 0,-44.75 0,-26.25 166.75,-26.25 166.75,-44.75"/>
<text text-anchor="middle" x="83.38" y="-31.25" font-family="Helvetica,sans-Serif" font-size="10.00">MessageService::SendPttRequest</text>
</a>
</g>
</g>
<!-- Node2 -->
<g id="Node000002" class="node">
<title>Node2</title>
<g id="a_Node000002"><a xlink:href="classMessageService.html#ac47c8ae3b3defb430c71fcc9b0636615" target="_top" xlink:title="Helper function to retrieve the active WebSocket connection for a given frequency....">
<polygon fill="white" stroke="#666666" points="344,-50 202.75,-50 202.75,-21 344,-21 344,-50"/>
<text text-anchor="start" x="210.75" y="-36.5" font-family="Helvetica,sans-Serif" font-size="10.00">MessageService::GetSocket</text>
<text text-anchor="middle" x="273.38" y="-26" font-family="Helvetica,sans-Serif" font-size="10.00">ForFrequency</text>
</a>
</g>
</g>
<!-- Node1&#45;&gt;Node2 -->
<g id="edge1_Node000001_Node000002" class="edge">
<title>Node1&#45;&gt;Node2</title>
<g id="a_edge1_Node000001_Node000002"><a xlink:title=" ">
<path fill="none" stroke="#63b8ff" d="M167.11,-35.5C175.05,-35.5 183.1,-35.5 191.03,-35.5"/>
<polygon fill="#63b8ff" stroke="#63b8ff" points="191.02,-39 201.02,-35.5 191.02,-32 191.02,-39"/>
</a>
</g>
</g>
<!-- Node3 -->
<g id="Node000003" class="node">
<title>Node3</title>
<g id="a_Node000003"><a xlink:href="classWavelengthRegistry.html#a84a25c38915431306681e96df429f20f" target="_top" xlink:title="Gets the singleton instance of the WavelengthRegistry.">
<polygon fill="white" stroke="#666666" points="483.75,-97 380.75,-97 380.75,-68 483.75,-68 483.75,-97"/>
<text text-anchor="start" x="388.75" y="-83.5" font-family="Helvetica,sans-Serif" font-size="10.00">WavelengthRegistry</text>
<text text-anchor="middle" x="432.25" y="-73" font-family="Helvetica,sans-Serif" font-size="10.00">::GetInstance</text>
</a>
</g>
</g>
<!-- Node2&#45;&gt;Node3 -->
<g id="edge2_Node000002_Node000003" class="edge">
<title>Node2&#45;&gt;Node3</title>
<g id="a_edge2_Node000002_Node000003"><a xlink:title=" ">
<path fill="none" stroke="#63b8ff" d="M324.01,-50.37C338.75,-54.79 355.06,-59.67 370.42,-64.27"/>
<polygon fill="#63b8ff" stroke="#63b8ff" points="369.36,-67.61 379.95,-67.13 371.37,-60.91 369.36,-67.61"/>
</a>
</g>
</g>
<!-- Node5 -->
<g id="Node000005" class="node">
<title>Node5</title>
<g id="a_Node000005"><a xlink:href="classWavelengthRegistry.html#a022bb5799d095b75026019791ebf5e34" target="_top" xlink:title="Retrieves the WavelengthInfo for a specific frequency.">
<polygon fill="white" stroke="#666666" points="484.5,-50 380,-50 380,-21 484.5,-21 484.5,-50"/>
<text text-anchor="start" x="388" y="-36.5" font-family="Helvetica,sans-Serif" font-size="10.00">WavelengthRegistry</text>
<text text-anchor="middle" x="432.25" y="-26" font-family="Helvetica,sans-Serif" font-size="10.00">::GetWavelengthInfo</text>
</a>
</g>
</g>
<!-- Node2&#45;&gt;Node5 -->
<g id="edge4_Node000002_Node000005" class="edge">
<title>Node2&#45;&gt;Node5</title>
<g id="a_edge4_Node000002_Node000005"><a xlink:title=" ">
<path fill="none" stroke="#63b8ff" d="M344.1,-35.5C352.12,-35.5 360.27,-35.5 368.21,-35.5"/>
<polygon fill="#63b8ff" stroke="#63b8ff" points="368.12,-39 378.12,-35.5 368.12,-32 368.12,-39"/>
</a>
</g>
</g>
<!-- Node6 -->
<g id="Node000006" class="node">
<title>Node6</title>
<g id="a_Node000006"><a xlink:href="classWavelengthRegistry.html#a998a355d30053edcff8aac04c7d7dc55" target="_top" xlink:title="Checks if a wavelength with the given frequency exists in the registry.">
<polygon fill="white" stroke="#666666" points="626.5,-29 523.5,-29 523.5,0 626.5,0 626.5,-29"/>
<text text-anchor="start" x="531.5" y="-15.5" font-family="Helvetica,sans-Serif" font-size="10.00">WavelengthRegistry</text>
<text text-anchor="middle" x="575" y="-5" font-family="Helvetica,sans-Serif" font-size="10.00">::HasWavelength</text>
</a>
</g>
</g>
<!-- Node2&#45;&gt;Node6 -->
<g id="edge6_Node000002_Node000006" class="edge">
<title>Node2&#45;&gt;Node6</title>
<g id="a_edge6_Node000002_Node000006"><a xlink:title=" ">
<path fill="none" stroke="#63b8ff" d="M332.4,-20.53C347.77,-17.21 364.42,-14.18 380,-12.5 426.18,-7.53 438.06,-11.98 484.5,-12.5 493.35,-12.6 502.69,-12.75 511.87,-12.93"/>
<polygon fill="#63b8ff" stroke="#63b8ff" points="511.77,-16.43 521.84,-13.14 511.92,-9.43 511.77,-16.43"/>
</a>
</g>
</g>
<!-- Node4 -->
<g id="Node000004" class="node">
<title>Node4</title>
<g id="a_Node000004"><a xlink:href="classWavelengthRegistry.html#a5ad0b9c059e6c70af54fd27e35035e64" target="_top" xlink:title="Private constructor to enforce the singleton pattern. Initializes active_wavelength_ to &quot;&#45;1&quot;.">
<polygon fill="white" stroke="#666666" points="629.5,-97 520.5,-97 520.5,-68 629.5,-68 629.5,-97"/>
<text text-anchor="start" x="528.5" y="-83.5" font-family="Helvetica,sans-Serif" font-size="10.00">WavelengthRegistry</text>
<text text-anchor="middle" x="575" y="-73" font-family="Helvetica,sans-Serif" font-size="10.00">::WavelengthRegistry</text>
</a>
</g>
</g>
<!-- Node3&#45;&gt;Node4 -->
<g id="edge3_Node000003_Node000004" class="edge">
<title>Node3&#45;&gt;Node4</title>
<g id="a_edge3_Node000003_Node000004"><a xlink:title=" ">
<path fill="none" stroke="#63b8ff" d="M484.06,-82.5C492.18,-82.5 500.68,-82.5 509.08,-82.5"/>
<polygon fill="#63b8ff" stroke="#63b8ff" points="508.9,-86 518.9,-82.5 508.9,-79 508.9,-86"/>
</a>
</g>
</g>
<!-- Node5&#45;&gt;Node6 -->
<g id="edge5_Node000005_Node000006" class="edge">
<title>Node5&#45;&gt;Node6</title>
<g id="a_edge5_Node000005_Node000006"><a xlink:title=" ">
<path fill="none" stroke="#63b8ff" d="M484.86,-27.8C493.69,-26.48 502.94,-25.1 512,-23.75"/>
<polygon fill="#63b8ff" stroke="#63b8ff" points="512.46,-27.22 521.84,-22.28 511.43,-20.3 512.46,-27.22"/>
</a>
</g>
</g>
</g>
</svg>
