<?xml version="1.0" encoding="UTF-8" standalone="no"?>
<!DOCTYPE svg PUBLIC "-//W3C//DTD SVG 1.1//EN"
 "http://www.w3.org/Graphics/SVG/1.1/DTD/svg11.dtd">
<!-- Generated by graphviz version 12.2.1 (0)
 -->
<!-- Title: GifPlayer Pages: 1 -->
<svg width="497pt" height="1488pt"
 viewBox="0.00 0.00 497.12 1488.00" xmlns="http://www.w3.org/2000/svg" xmlns:xlink="http://www.w3.org/1999/xlink">
<g id="graph0" class="graph" transform="scale(1 1) rotate(0) translate(4 1484)">
<title>GifPlayer</title>
<!-- Node1 -->
<g id="Node000001" class="node">
<title>Node1</title>
<g id="a_Node000001"><a xlink:title="A widget for displaying and playing animated GIFs within a chat interface.">
<polygon fill="#999999" stroke="none" points="248,-438.5 102.5,-438.5 102.5,0 248,0 248,-438.5"/>
<text text-anchor="start" x="155.38" y="-425" font-family="Helvetica,sans-Serif" font-size="10.00">GifPlayer</text>
<text text-anchor="start" x="108" y="-410.5" font-family="Helvetica,sans-Serif" font-size="10.00">&#45;</text>
<text text-anchor="start" x="116.5" y="-410.5" font-family="Helvetica,sans-Serif" font-size="10.00">double current_position_</text>
<text text-anchor="start" x="108" y="-396" font-family="Helvetica,sans-Serif" font-size="10.00">&#45;</text>
<text text-anchor="start" x="116.5" y="-396" font-family="Helvetica,sans-Serif" font-size="10.00">double frame_rate_</text>
<text text-anchor="start" x="108" y="-381.5" font-family="Helvetica,sans-Serif" font-size="10.00">&#45;</text>
<text text-anchor="start" x="116.5" y="-381.5" font-family="Helvetica,sans-Serif" font-size="10.00">QByteArray gif_data_</text>
<text text-anchor="start" x="108" y="-367" font-family="Helvetica,sans-Serif" font-size="10.00">&#45;</text>
<text text-anchor="start" x="116.5" y="-367" font-family="Helvetica,sans-Serif" font-size="10.00">double gif_duration_</text>
<text text-anchor="start" x="108" y="-352.5" font-family="Helvetica,sans-Serif" font-size="10.00">&#45;</text>
<text text-anchor="start" x="116.5" y="-352.5" font-family="Helvetica,sans-Serif" font-size="10.00">int gif_height_</text>
<text text-anchor="start" x="108" y="-338" font-family="Helvetica,sans-Serif" font-size="10.00">&#45;</text>
<text text-anchor="start" x="116.5" y="-338" font-family="Helvetica,sans-Serif" font-size="10.00">QLabel * gif_label_</text>
<text text-anchor="start" x="108" y="-323.5" font-family="Helvetica,sans-Serif" font-size="10.00">&#45;</text>
<text text-anchor="start" x="116.5" y="-323.5" font-family="Helvetica,sans-Serif" font-size="10.00">int gif_width_</text>
<text text-anchor="start" x="108" y="-309" font-family="Helvetica,sans-Serif" font-size="10.00">&#45;</text>
<text text-anchor="start" x="116.5" y="-309" font-family="Helvetica,sans-Serif" font-size="10.00">bool is_playing_</text>
<text text-anchor="start" x="108" y="-294.5" font-family="Helvetica,sans-Serif" font-size="10.00">&#45;</text>
<text text-anchor="start" x="116.5" y="-294.5" font-family="Helvetica,sans-Serif" font-size="10.00">QPixmap thumbnail_pixmap_</text>
<text text-anchor="start" x="106.5" y="-280" font-family="Helvetica,sans-Serif" font-size="10.00">+</text>
<text text-anchor="start" x="116.5" y="-280" font-family="Helvetica,sans-Serif" font-size="10.00">GifPlayer(const QByteArray</text>
<text text-anchor="start" x="116.5" y="-269.5" font-family="Helvetica,sans-Serif" font-size="10.00"> &amp;gif_data, QWidget *parent</text>
<text text-anchor="start" x="116.5" y="-259" font-family="Helvetica,sans-Serif" font-size="10.00">=nullptr)</text>
<text text-anchor="start" x="106.5" y="-244.5" font-family="Helvetica,sans-Serif" font-size="10.00">+</text>
<text text-anchor="start" x="116.5" y="-244.5" font-family="Helvetica,sans-Serif" font-size="10.00">void ReleaseResources()</text>
<text text-anchor="start" x="106.5" y="-230" font-family="Helvetica,sans-Serif" font-size="10.00">+</text>
<text text-anchor="start" x="116.5" y="-230" font-family="Helvetica,sans-Serif" font-size="10.00">QSize sizeHint() const</text>
<text text-anchor="start" x="116.5" y="-219.5" font-family="Helvetica,sans-Serif" font-size="10.00"> override</text>
<text text-anchor="start" x="106.5" y="-205" font-family="Helvetica,sans-Serif" font-size="10.00">+</text>
<text text-anchor="start" x="116.5" y="-205" font-family="Helvetica,sans-Serif" font-size="10.00">void StartPlayback()</text>
<text text-anchor="start" x="106.5" y="-190.5" font-family="Helvetica,sans-Serif" font-size="10.00">+</text>
<text text-anchor="start" x="116.5" y="-190.5" font-family="Helvetica,sans-Serif" font-size="10.00">void StopPlayback()</text>
<text text-anchor="start" x="106.5" y="-176" font-family="Helvetica,sans-Serif" font-size="10.00">+</text>
<text text-anchor="start" x="116.5" y="-176" font-family="Helvetica,sans-Serif" font-size="10.00">~GifPlayer() override</text>
<text text-anchor="start" x="106.88" y="-161.5" font-family="Helvetica,sans-Serif" font-size="10.00">#</text>
<text text-anchor="start" x="116.5" y="-161.5" font-family="Helvetica,sans-Serif" font-size="10.00">void enterEvent(QEvent</text>
<text text-anchor="start" x="116.5" y="-151" font-family="Helvetica,sans-Serif" font-size="10.00"> *event) override</text>
<text text-anchor="start" x="106.88" y="-136.5" font-family="Helvetica,sans-Serif" font-size="10.00">#</text>
<text text-anchor="start" x="116.5" y="-136.5" font-family="Helvetica,sans-Serif" font-size="10.00">void leaveEvent(QEvent</text>
<text text-anchor="start" x="116.5" y="-126" font-family="Helvetica,sans-Serif" font-size="10.00"> *event) override</text>
<text text-anchor="start" x="108" y="-111.5" font-family="Helvetica,sans-Serif" font-size="10.00">&#45;</text>
<text text-anchor="start" x="116.5" y="-111.5" font-family="Helvetica,sans-Serif" font-size="10.00">void DisplayThumbnail</text>
<text text-anchor="start" x="116.5" y="-101" font-family="Helvetica,sans-Serif" font-size="10.00">(const QImage &amp;frame)</text>
<text text-anchor="start" x="108" y="-86.5" font-family="Helvetica,sans-Serif" font-size="10.00">&#45;</text>
<text text-anchor="start" x="116.5" y="-86.5" font-family="Helvetica,sans-Serif" font-size="10.00">void HandleError(const</text>
<text text-anchor="start" x="116.5" y="-76" font-family="Helvetica,sans-Serif" font-size="10.00"> QString &amp;message)</text>
<text text-anchor="start" x="108" y="-61.5" font-family="Helvetica,sans-Serif" font-size="10.00">&#45;</text>
<text text-anchor="start" x="116.5" y="-61.5" font-family="Helvetica,sans-Serif" font-size="10.00">void HandleGifInfo</text>
<text text-anchor="start" x="116.5" y="-51" font-family="Helvetica,sans-Serif" font-size="10.00">(int width, int height,</text>
<text text-anchor="start" x="116.5" y="-40.5" font-family="Helvetica,sans-Serif" font-size="10.00"> double duration, double</text>
<text text-anchor="start" x="116.5" y="-30" font-family="Helvetica,sans-Serif" font-size="10.00"> frame_rate)</text>
<text text-anchor="start" x="108" y="-15.5" font-family="Helvetica,sans-Serif" font-size="10.00">&#45;</text>
<text text-anchor="start" x="116.5" y="-15.5" font-family="Helvetica,sans-Serif" font-size="10.00">void UpdateFrame(const</text>
<text text-anchor="start" x="116.5" y="-5" font-family="Helvetica,sans-Serif" font-size="10.00"> QImage &amp;frame) const</text>
<polygon fill="#666666" stroke="#666666" points="102.5,-422 102.5,-422 248,-422 248,-422 102.5,-422"/>
<polygon fill="#666666" stroke="#666666" points="102.5,-291.5 102.5,-291.5 114.5,-291.5 114.5,-291.5 102.5,-291.5"/>
<polygon fill="#666666" stroke="#666666" points="114.5,-291.5 114.5,-291.5 248,-291.5 248,-291.5 114.5,-291.5"/>
<polygon fill="none" stroke="#666666" points="102.5,0 102.5,-438.5 248,-438.5 248,0 102.5,0"/>
</a>
</g>
</g>
<!-- Node2 -->
<g id="Node000002" class="node">
<title>Node2</title>
<g id="a_Node000002"><a xlink:title=" ">
<polygon fill="white" stroke="none" points="86.88,-668 43.62,-668 43.62,-620.5 86.88,-620.5 86.88,-668"/>
<text text-anchor="start" x="47.62" y="-654.5" font-family="Helvetica,sans-Serif" font-size="10.00">QFrame</text>
<text text-anchor="start" x="63.75" y="-640" font-family="Helvetica,sans-Serif" font-size="10.00"> </text>
<text text-anchor="start" x="63.75" y="-625.5" font-family="Helvetica,sans-Serif" font-size="10.00"> </text>
<polygon fill="#666666" stroke="#666666" points="43.62,-651.5 43.62,-651.5 86.88,-651.5 86.88,-651.5 43.62,-651.5"/>
<polygon fill="#666666" stroke="#666666" points="43.62,-637 43.62,-637 86.88,-637 86.88,-637 43.62,-637"/>
<polygon fill="none" stroke="#666666" points="43.62,-620.5 43.62,-668 86.88,-668 86.88,-620.5 43.62,-620.5"/>
</a>
</g>
</g>
<!-- Node2&#45;&gt;Node1 -->
<g id="edge1_Node000001_Node000002" class="edge">
<title>Node2&#45;&gt;Node1</title>
<g id="a_edge1_Node000001_Node000002"><a xlink:title=" ">
<path fill="none" stroke="#63b8ff" d="M70.88,-609.55C76.48,-577.37 85.75,-527.61 96.25,-485 100.01,-469.75 104.1,-454.07 108.38,-438.31"/>
<polygon fill="none" stroke="#63b8ff" points="67.49,-608.62 69.24,-619.07 74.39,-609.81 67.49,-608.62"/>
</a>
</g>
</g>
<!-- Node3 -->
<g id="Node000003" class="node">
<title>Node3</title>
<g id="a_Node000003"><a xlink:title=" ">
<polygon fill="white" stroke="none" points="245.62,-668 104.88,-668 104.88,-620.5 245.62,-620.5 245.62,-668"/>
<text text-anchor="start" x="108.88" y="-654.5" font-family="Helvetica,sans-Serif" font-size="10.00">std::shared_ptr&lt; GifDecoder &gt;</text>
<text text-anchor="start" x="173.75" y="-640" font-family="Helvetica,sans-Serif" font-size="10.00"> </text>
<text text-anchor="start" x="112.19" y="-625.5" font-family="Helvetica,sans-Serif" font-size="10.00">+</text>
<text text-anchor="start" x="125.5" y="-625.5" font-family="Helvetica,sans-Serif" font-size="10.00">GifDecoder * operator&#45;&gt;()</text>
<polygon fill="#666666" stroke="#666666" points="104.88,-651.5 104.88,-651.5 245.62,-651.5 245.62,-651.5 104.88,-651.5"/>
<polygon fill="#666666" stroke="#666666" points="104.88,-637 104.88,-637 245.62,-637 245.62,-637 104.88,-637"/>
<polygon fill="none" stroke="#666666" points="104.88,-620.5 104.88,-668 245.62,-668 245.62,-620.5 104.88,-620.5"/>
</a>
</g>
</g>
<!-- Node3&#45;&gt;Node1 -->
<g id="edge2_Node000001_Node000003" class="edge">
<title>Node3&#45;&gt;Node1</title>
<g id="a_edge2_Node000001_Node000003"><a xlink:title=" ">
<path fill="none" stroke="#63b8ff" d="M175.25,-620.51C175.25,-586.91 175.25,-520.46 175.25,-451.21"/>
<polygon fill="none" stroke="#63b8ff" points="175.25,-451.16 171.25,-445.16 175.25,-439.16 179.25,-445.16 175.25,-451.16"/>
</a>
</g>
<text text-anchor="middle" x="198.12" y="-457.5" font-family="Helvetica,sans-Serif" font-size="10.00" fill="grey"> &#45;decoder_</text>
</g>
<!-- Node4 -->
<g id="Node000004" class="node">
<title>Node4</title>
<g id="a_Node000004"><a xlink:href="classGifDecoder.html" target="_top" xlink:title="Decodes GIF data frame by frame using FFmpeg libraries in a separate thread.">
<polygon fill="white" stroke="none" points="148.5,-1386 0,-1386 0,-850 148.5,-850 148.5,-1386"/>
<text text-anchor="start" x="49.5" y="-1372.5" font-family="Helvetica,sans-Serif" font-size="10.00">GifDecoder</text>
<text text-anchor="start" x="5.5" y="-1358" font-family="Helvetica,sans-Serif" font-size="10.00">&#45;</text>
<text text-anchor="start" x="14" y="-1358" font-family="Helvetica,sans-Serif" font-size="10.00">uint8_t * buffer_</text>
<text text-anchor="start" x="5.5" y="-1343.5" font-family="Helvetica,sans-Serif" font-size="10.00">&#45;</text>
<text text-anchor="start" x="14" y="-1343.5" font-family="Helvetica,sans-Serif" font-size="10.00">int buffer_size_</text>
<text text-anchor="start" x="5.5" y="-1329" font-family="Helvetica,sans-Serif" font-size="10.00">&#45;</text>
<text text-anchor="start" x="14" y="-1329" font-family="Helvetica,sans-Serif" font-size="10.00">AVCodecContext * codec</text>
<text text-anchor="start" x="14" y="-1318.5" font-family="Helvetica,sans-Serif" font-size="10.00">_context_</text>
<text text-anchor="start" x="5.5" y="-1304" font-family="Helvetica,sans-Serif" font-size="10.00">&#45;</text>
<text text-anchor="start" x="14" y="-1304" font-family="Helvetica,sans-Serif" font-size="10.00">double current_position_</text>
<text text-anchor="start" x="5.5" y="-1289.5" font-family="Helvetica,sans-Serif" font-size="10.00">&#45;</text>
<text text-anchor="start" x="14" y="-1289.5" font-family="Helvetica,sans-Serif" font-size="10.00">AVFormatContext * format</text>
<text text-anchor="start" x="14" y="-1279" font-family="Helvetica,sans-Serif" font-size="10.00">_context_</text>
<text text-anchor="start" x="5.5" y="-1264.5" font-family="Helvetica,sans-Serif" font-size="10.00">&#45;</text>
<text text-anchor="start" x="14" y="-1264.5" font-family="Helvetica,sans-Serif" font-size="10.00">AVFrame * frame_</text>
<text text-anchor="start" x="5.5" y="-1250" font-family="Helvetica,sans-Serif" font-size="10.00">&#45;</text>
<text text-anchor="start" x="14" y="-1250" font-family="Helvetica,sans-Serif" font-size="10.00">double frame_delay_</text>
<text text-anchor="start" x="5.5" y="-1235.5" font-family="Helvetica,sans-Serif" font-size="10.00">&#45;</text>
<text text-anchor="start" x="14" y="-1235.5" font-family="Helvetica,sans-Serif" font-size="10.00">double frame_rate_</text>
<text text-anchor="start" x="5.5" y="-1221" font-family="Helvetica,sans-Serif" font-size="10.00">&#45;</text>
<text text-anchor="start" x="14" y="-1221" font-family="Helvetica,sans-Serif" font-size="10.00">AVFrame * frame_rgb_</text>
<text text-anchor="start" x="5.5" y="-1206.5" font-family="Helvetica,sans-Serif" font-size="10.00">&#45;</text>
<text text-anchor="start" x="14" y="-1206.5" font-family="Helvetica,sans-Serif" font-size="10.00">QElapsedTimer frame</text>
<text text-anchor="start" x="14" y="-1196" font-family="Helvetica,sans-Serif" font-size="10.00">_timer_</text>
<text text-anchor="start" x="14" y="-1181.5" font-family="Helvetica,sans-Serif" font-size="10.00">and 13 more...</text>
<text text-anchor="start" x="4" y="-1167" font-family="Helvetica,sans-Serif" font-size="10.00">+</text>
<text text-anchor="start" x="14" y="-1167" font-family="Helvetica,sans-Serif" font-size="10.00">double GetDuration</text>
<text text-anchor="start" x="14" y="-1156.5" font-family="Helvetica,sans-Serif" font-size="10.00">() const</text>
<text text-anchor="start" x="4" y="-1142" font-family="Helvetica,sans-Serif" font-size="10.00">+</text>
<text text-anchor="start" x="14" y="-1142" font-family="Helvetica,sans-Serif" font-size="10.00">GifDecoder(const QByteArray</text>
<text text-anchor="start" x="14" y="-1131.5" font-family="Helvetica,sans-Serif" font-size="10.00"> &amp;gif_data, QObject *parent</text>
<text text-anchor="start" x="14" y="-1121" font-family="Helvetica,sans-Serif" font-size="10.00">=nullptr)</text>
<text text-anchor="start" x="4" y="-1106.5" font-family="Helvetica,sans-Serif" font-size="10.00">+</text>
<text text-anchor="start" x="14" y="-1106.5" font-family="Helvetica,sans-Serif" font-size="10.00">bool Initialize()</text>
<text text-anchor="start" x="4" y="-1092" font-family="Helvetica,sans-Serif" font-size="10.00">+</text>
<text text-anchor="start" x="14" y="-1092" font-family="Helvetica,sans-Serif" font-size="10.00">bool IsDecoderRunning</text>
<text text-anchor="start" x="14" y="-1081.5" font-family="Helvetica,sans-Serif" font-size="10.00">() const</text>
<text text-anchor="start" x="4" y="-1067" font-family="Helvetica,sans-Serif" font-size="10.00">+</text>
<text text-anchor="start" x="14" y="-1067" font-family="Helvetica,sans-Serif" font-size="10.00">bool IsPaused() const</text>
<text text-anchor="start" x="4" y="-1052.5" font-family="Helvetica,sans-Serif" font-size="10.00">+</text>
<text text-anchor="start" x="14" y="-1052.5" font-family="Helvetica,sans-Serif" font-size="10.00">void Pause()</text>
<text text-anchor="start" x="4" y="-1038" font-family="Helvetica,sans-Serif" font-size="10.00">+</text>
<text text-anchor="start" x="14" y="-1038" font-family="Helvetica,sans-Serif" font-size="10.00">bool Reinitialize()</text>
<text text-anchor="start" x="4" y="-1023.5" font-family="Helvetica,sans-Serif" font-size="10.00">+</text>
<text text-anchor="start" x="14" y="-1023.5" font-family="Helvetica,sans-Serif" font-size="10.00">void ReleaseResources()</text>
<text text-anchor="start" x="4" y="-1009" font-family="Helvetica,sans-Serif" font-size="10.00">+</text>
<text text-anchor="start" x="14" y="-1009" font-family="Helvetica,sans-Serif" font-size="10.00">void Reset()</text>
<text text-anchor="start" x="4" y="-994.5" font-family="Helvetica,sans-Serif" font-size="10.00">+</text>
<text text-anchor="start" x="14" y="-994.5" font-family="Helvetica,sans-Serif" font-size="10.00">void Resume()</text>
<text text-anchor="start" x="4" y="-980" font-family="Helvetica,sans-Serif" font-size="10.00">+</text>
<text text-anchor="start" x="14" y="-980" font-family="Helvetica,sans-Serif" font-size="10.00">void Stop()</text>
<text text-anchor="start" x="4" y="-965.5" font-family="Helvetica,sans-Serif" font-size="10.00">+</text>
<text text-anchor="start" x="14" y="-965.5" font-family="Helvetica,sans-Serif" font-size="10.00">~GifDecoder() override</text>
<text text-anchor="start" x="4.38" y="-951" font-family="Helvetica,sans-Serif" font-size="10.00">#</text>
<text text-anchor="start" x="14" y="-951" font-family="Helvetica,sans-Serif" font-size="10.00">void run() override</text>
<text text-anchor="start" x="5.5" y="-936.5" font-family="Helvetica,sans-Serif" font-size="10.00">&#45;</text>
<text text-anchor="start" x="14" y="-936.5" font-family="Helvetica,sans-Serif" font-size="10.00">void ExtractAndEmitFirst</text>
<text text-anchor="start" x="14" y="-926" font-family="Helvetica,sans-Serif" font-size="10.00">FrameInternal()</text>
<text text-anchor="start" x="5.5" y="-911.5" font-family="Helvetica,sans-Serif" font-size="10.00">&#45;</text>
<text text-anchor="start" x="14" y="-911.5" font-family="Helvetica,sans-Serif" font-size="10.00">static int ReadPacket</text>
<text text-anchor="start" x="14" y="-901" font-family="Helvetica,sans-Serif" font-size="10.00">(void *opaque, uint8</text>
<text text-anchor="start" x="14" y="-890.5" font-family="Helvetica,sans-Serif" font-size="10.00">_t *buf, int buf_size)</text>
<text text-anchor="start" x="5.5" y="-876" font-family="Helvetica,sans-Serif" font-size="10.00">&#45;</text>
<text text-anchor="start" x="14" y="-876" font-family="Helvetica,sans-Serif" font-size="10.00">static int64_t SeekPacket</text>
<text text-anchor="start" x="14" y="-865.5" font-family="Helvetica,sans-Serif" font-size="10.00">(void *opaque, int64_t</text>
<text text-anchor="start" x="14" y="-855" font-family="Helvetica,sans-Serif" font-size="10.00"> offset, int whence)</text>
<polygon fill="#666666" stroke="#666666" points="0,-1369.5 0,-1369.5 148.5,-1369.5 148.5,-1369.5 0,-1369.5"/>
<polygon fill="#666666" stroke="#666666" points="0,-1178.5 0,-1178.5 12,-1178.5 12,-1178.5 0,-1178.5"/>
<polygon fill="#666666" stroke="#666666" points="12,-1178.5 12,-1178.5 148.5,-1178.5 148.5,-1178.5 12,-1178.5"/>
<polygon fill="none" stroke="#666666" points="0,-850 0,-1386 148.5,-1386 148.5,-850 0,-850"/>
</a>
</g>
</g>
<!-- Node4&#45;&gt;Node3 -->
<g id="edge3_Node000003_Node000004" class="edge">
<title>Node4&#45;&gt;Node3</title>
<g id="a_edge3_Node000003_Node000004"><a xlink:title=" ">
<path fill="none" stroke="#63b8ff" d="M131.39,-850.11C145.88,-782.41 159.63,-718.18 167.76,-680.26"/>
<polygon fill="none" stroke="#63b8ff" points="167.68,-680.59 165.03,-673.88 170.2,-668.85 172.85,-675.56 167.68,-680.59"/>
</a>
</g>
<text text-anchor="middle" x="146.89" y="-822.5" font-family="Helvetica,sans-Serif" font-size="10.00" fill="grey"> +ptr</text>
</g>
<!-- Node5 -->
<g id="Node000005" class="node">
<title>Node5</title>
<g id="a_Node000005"><a xlink:title=" ">
<polygon fill="white" stroke="none" points="97,-1480 51.5,-1480 51.5,-1432.5 97,-1432.5 97,-1480"/>
<text text-anchor="start" x="55.5" y="-1466.5" font-family="Helvetica,sans-Serif" font-size="10.00">QThread</text>
<text text-anchor="start" x="72.75" y="-1452" font-family="Helvetica,sans-Serif" font-size="10.00"> </text>
<text text-anchor="start" x="72.75" y="-1437.5" font-family="Helvetica,sans-Serif" font-size="10.00"> </text>
<polygon fill="#666666" stroke="#666666" points="51.5,-1463.5 51.5,-1463.5 97,-1463.5 97,-1463.5 51.5,-1463.5"/>
<polygon fill="#666666" stroke="#666666" points="51.5,-1449 51.5,-1449 97,-1449 97,-1449 51.5,-1449"/>
<polygon fill="none" stroke="#666666" points="51.5,-1432.5 51.5,-1480 97,-1480 97,-1432.5 51.5,-1432.5"/>
</a>
</g>
</g>
<!-- Node5&#45;&gt;Node4 -->
<g id="edge4_Node000004_Node000005" class="edge">
<title>Node5&#45;&gt;Node4</title>
<g id="a_edge4_Node000004_Node000005"><a xlink:title=" ">
<path fill="none" stroke="#63b8ff" d="M74.25,-1421.26C74.25,-1411.13 74.25,-1399.15 74.25,-1385.9"/>
<polygon fill="none" stroke="#63b8ff" points="70.75,-1421.15 74.25,-1431.15 77.75,-1421.15 70.75,-1421.15"/>
</a>
</g>
</g>
<!-- Node6 -->
<g id="Node000006" class="node">
<title>Node6</title>
<g id="a_Node000006"><a xlink:title=" ">
<polygon fill="white" stroke="none" points="263.88,-1141.75 166.62,-1141.75 166.62,-1094.25 263.88,-1094.25 263.88,-1141.75"/>
<text text-anchor="start" x="170.62" y="-1128.25" font-family="Helvetica,sans-Serif" font-size="10.00">std::shared_ptr&lt; T &gt;</text>
<text text-anchor="start" x="213.75" y="-1113.75" font-family="Helvetica,sans-Serif" font-size="10.00"> </text>
<text text-anchor="start" x="173.94" y="-1099.25" font-family="Helvetica,sans-Serif" font-size="10.00">+</text>
<text text-anchor="start" x="187.25" y="-1099.25" font-family="Helvetica,sans-Serif" font-size="10.00">T * operator&#45;&gt;()</text>
<polygon fill="#666666" stroke="#666666" points="166.62,-1125.25 166.62,-1125.25 263.88,-1125.25 263.88,-1125.25 166.62,-1125.25"/>
<polygon fill="#666666" stroke="#666666" points="166.62,-1110.75 166.62,-1110.75 263.88,-1110.75 263.88,-1110.75 166.62,-1110.75"/>
<polygon fill="none" stroke="#666666" points="166.62,-1094.25 166.62,-1141.75 263.88,-1141.75 263.88,-1094.25 166.62,-1094.25"/>
</a>
</g>
</g>
<!-- Node6&#45;&gt;Node3 -->
<g id="edge5_Node000003_Node000006" class="edge">
<title>Node6&#45;&gt;Node3</title>
<g id="a_edge5_Node000003_Node000006"><a xlink:title=" ">
<path fill="none" stroke="orange" d="M212.39,-1083.31C204.69,-992.45 183.63,-744.09 177.16,-667.82"/>
<polygon fill="orange" stroke="orange" points="208.89,-1083.39 213.22,-1093.06 215.86,-1082.8 208.89,-1083.39"/>
</a>
</g>
<text text-anchor="middle" x="225.74" y="-822.5" font-family="Helvetica,sans-Serif" font-size="10.00" fill="grey"> &lt; GifDecoder &gt;</text>
</g>
<!-- Node7 -->
<g id="Node000007" class="node">
<title>Node7</title>
<g id="a_Node000007"><a xlink:title=" ">
<polygon fill="white" stroke="none" points="222.25,-1480 208.25,-1480 208.25,-1432.5 222.25,-1432.5 222.25,-1480"/>
<text text-anchor="start" x="212.25" y="-1466.5" font-family="Helvetica,sans-Serif" font-size="10.00">T</text>
<text text-anchor="start" x="213.75" y="-1452" font-family="Helvetica,sans-Serif" font-size="10.00"> </text>
<text text-anchor="start" x="213.75" y="-1437.5" font-family="Helvetica,sans-Serif" font-size="10.00"> </text>
<polygon fill="#666666" stroke="#666666" points="208.25,-1463.5 208.25,-1463.5 222.25,-1463.5 222.25,-1463.5 208.25,-1463.5"/>
<polygon fill="#666666" stroke="#666666" points="208.25,-1449 208.25,-1449 222.25,-1449 222.25,-1449 208.25,-1449"/>
<polygon fill="none" stroke="#666666" points="208.25,-1432.5 208.25,-1480 222.25,-1480 222.25,-1432.5 208.25,-1432.5"/>
</a>
</g>
</g>
<!-- Node7&#45;&gt;Node6 -->
<g id="edge6_Node000006_Node000007" class="edge">
<title>Node7&#45;&gt;Node6</title>
<g id="a_edge6_Node000006_Node000007"><a xlink:title=" ">
<path fill="none" stroke="#63b8ff" d="M215.25,-1432.67C215.25,-1375.24 215.25,-1223.3 215.25,-1154.16"/>
<polygon fill="none" stroke="#63b8ff" points="215.25,-1154.39 211.25,-1148.39 215.25,-1142.39 219.25,-1148.39 215.25,-1154.39"/>
</a>
</g>
<text text-anchor="middle" x="225.38" y="-1405" font-family="Helvetica,sans-Serif" font-size="10.00" fill="grey"> +ptr</text>
</g>
<!-- Node8 -->
<g id="Node000008" class="node">
<title>Node8</title>
<g id="a_Node000008"><a xlink:href="classTranslationManager.html" target="_top" xlink:title="Manages the loading and delivery of translations for applications.">
<polygon fill="white" stroke="none" points="423.12,-803.5 263.38,-803.5 263.38,-485 423.12,-485 423.12,-803.5"/>
<text text-anchor="start" x="300.88" y="-790" font-family="Helvetica,sans-Serif" font-size="10.00">TranslationManager</text>
<text text-anchor="start" x="268.88" y="-775.5" font-family="Helvetica,sans-Serif" font-size="10.00">&#45;</text>
<text text-anchor="start" x="277.38" y="-775.5" font-family="Helvetica,sans-Serif" font-size="10.00">QString current_language</text>
<text text-anchor="start" x="277.38" y="-765" font-family="Helvetica,sans-Serif" font-size="10.00">_code_</text>
<text text-anchor="start" x="268.88" y="-750.5" font-family="Helvetica,sans-Serif" font-size="10.00">&#45;</text>
<text text-anchor="start" x="277.38" y="-750.5" font-family="Helvetica,sans-Serif" font-size="10.00">bool initialized_</text>
<text text-anchor="start" x="268.88" y="-736" font-family="Helvetica,sans-Serif" font-size="10.00">&#45;</text>
<text text-anchor="start" x="277.38" y="-736" font-family="Helvetica,sans-Serif" font-size="10.00">QJsonObject translations_</text>
<text text-anchor="start" x="268.88" y="-721.5" font-family="Helvetica,sans-Serif" font-size="10.00">&#45;</text>
<text text-anchor="start" x="277.38" y="-721.5" font-family="Helvetica,sans-Serif" font-size="10.00">static QMutex mutex_</text>
<text text-anchor="start" x="267.38" y="-707" font-family="Helvetica,sans-Serif" font-size="10.00">+</text>
<text text-anchor="start" x="277.38" y="-707" font-family="Helvetica,sans-Serif" font-size="10.00">QString GetCurrentLanguage</text>
<text text-anchor="start" x="277.38" y="-696.5" font-family="Helvetica,sans-Serif" font-size="10.00">() const</text>
<text text-anchor="start" x="267.38" y="-682" font-family="Helvetica,sans-Serif" font-size="10.00">+</text>
<text text-anchor="start" x="277.38" y="-682" font-family="Helvetica,sans-Serif" font-size="10.00">bool Initialize(const</text>
<text text-anchor="start" x="277.38" y="-671.5" font-family="Helvetica,sans-Serif" font-size="10.00"> QString &amp;language_code)</text>
<text text-anchor="start" x="267.38" y="-657" font-family="Helvetica,sans-Serif" font-size="10.00">+</text>
<text text-anchor="start" x="277.38" y="-657" font-family="Helvetica,sans-Serif" font-size="10.00">QString Translate(const</text>
<text text-anchor="start" x="277.38" y="-646.5" font-family="Helvetica,sans-Serif" font-size="10.00"> QString &amp;key, const QString</text>
<text text-anchor="start" x="277.38" y="-636" font-family="Helvetica,sans-Serif" font-size="10.00"> &amp;default_value=QString()) const</text>
<text text-anchor="start" x="267.38" y="-621.5" font-family="Helvetica,sans-Serif" font-size="10.00">+</text>
<text text-anchor="start" x="277.38" y="-621.5" font-family="Helvetica,sans-Serif" font-size="10.00">static TranslationManager</text>
<text text-anchor="start" x="277.38" y="-611" font-family="Helvetica,sans-Serif" font-size="10.00"> * GetInstance()</text>
<text text-anchor="start" x="268.88" y="-596.5" font-family="Helvetica,sans-Serif" font-size="10.00">&#45;</text>
<text text-anchor="start" x="277.38" y="-596.5" font-family="Helvetica,sans-Serif" font-size="10.00">bool LoadTranslations</text>
<text text-anchor="start" x="277.38" y="-586" font-family="Helvetica,sans-Serif" font-size="10.00">(const QString &amp;language_code)</text>
<text text-anchor="start" x="268.88" y="-571.5" font-family="Helvetica,sans-Serif" font-size="10.00">&#45;</text>
<text text-anchor="start" x="277.38" y="-571.5" font-family="Helvetica,sans-Serif" font-size="10.00">TranslationManager</text>
<text text-anchor="start" x="277.38" y="-561" font-family="Helvetica,sans-Serif" font-size="10.00"> &amp; operator=(const Translation</text>
<text text-anchor="start" x="277.38" y="-550.5" font-family="Helvetica,sans-Serif" font-size="10.00">Manager &amp;)=delete</text>
<text text-anchor="start" x="268.88" y="-536" font-family="Helvetica,sans-Serif" font-size="10.00">&#45;</text>
<text text-anchor="start" x="277.38" y="-536" font-family="Helvetica,sans-Serif" font-size="10.00">TranslationManager</text>
<text text-anchor="start" x="277.38" y="-525.5" font-family="Helvetica,sans-Serif" font-size="10.00">(const TranslationManager</text>
<text text-anchor="start" x="277.38" y="-515" font-family="Helvetica,sans-Serif" font-size="10.00"> &amp;)=delete</text>
<text text-anchor="start" x="268.88" y="-500.5" font-family="Helvetica,sans-Serif" font-size="10.00">&#45;</text>
<text text-anchor="start" x="277.38" y="-500.5" font-family="Helvetica,sans-Serif" font-size="10.00">TranslationManager</text>
<text text-anchor="start" x="277.38" y="-490" font-family="Helvetica,sans-Serif" font-size="10.00">(QObject *parent=nullptr)</text>
<polygon fill="#666666" stroke="#666666" points="263.38,-787 263.38,-787 423.12,-787 423.12,-787 263.38,-787"/>
<polygon fill="#666666" stroke="#666666" points="263.38,-718.5 263.38,-718.5 275.38,-718.5 275.38,-718.5 263.38,-718.5"/>
<polygon fill="#666666" stroke="#666666" points="275.38,-718.5 275.38,-718.5 423.12,-718.5 423.12,-718.5 275.38,-718.5"/>
<polygon fill="none" stroke="#666666" points="263.38,-485 263.38,-803.5 423.12,-803.5 423.12,-485 263.38,-485"/>
</a>
</g>
</g>
<!-- Node8&#45;&gt;Node1 -->
<g id="edge7_Node000001_Node000008" class="edge">
<title>Node8&#45;&gt;Node1</title>
<g id="a_edge7_Node000001_Node000008"><a xlink:title=" ">
<path fill="none" stroke="#63b8ff" d="M280.45,-485.14C271.36,-462.25 261.92,-438.48 252.59,-414.98"/>
<polygon fill="none" stroke="#63b8ff" points="252.63,-415.09 246.7,-410.99 248.2,-403.93 254.13,-408.03 252.63,-415.09"/>
</a>
</g>
<text text-anchor="middle" x="295.18" y="-457.5" font-family="Helvetica,sans-Serif" font-size="10.00" fill="grey"> &#45;translator_</text>
</g>
<!-- Node8&#45;&gt;Node8 -->
<g id="edge9_Node000008_Node000008" class="edge">
<title>Node8&#45;&gt;Node8</title>
<g id="a_edge9_Node000008_Node000008"><a xlink:title=" ">
<path fill="none" stroke="#63b8ff" d="M422.74,-674.78C433.76,-669.76 441.12,-659.58 441.12,-644.25 441.12,-634.43 438.1,-626.73 433.03,-621.13"/>
<polygon fill="none" stroke="#63b8ff" points="433.21,-621.26 426,-621 423.48,-614.24 430.68,-614.51 433.21,-621.26"/>
</a>
</g>
<text text-anchor="middle" x="465.12" y="-640" font-family="Helvetica,sans-Serif" font-size="10.00" fill="grey"> &#45;instance_</text>
</g>
<!-- Node9 -->
<g id="Node000009" class="node">
<title>Node9</title>
<g id="a_Node000009"><a xlink:title=" ">
<polygon fill="white" stroke="none" points="365.25,-1141.75 321.25,-1141.75 321.25,-1094.25 365.25,-1094.25 365.25,-1141.75"/>
<text text-anchor="start" x="325.25" y="-1128.25" font-family="Helvetica,sans-Serif" font-size="10.00">QObject</text>
<text text-anchor="start" x="341.75" y="-1113.75" font-family="Helvetica,sans-Serif" font-size="10.00"> </text>
<text text-anchor="start" x="341.75" y="-1099.25" font-family="Helvetica,sans-Serif" font-size="10.00"> </text>
<polygon fill="#666666" stroke="#666666" points="321.25,-1125.25 321.25,-1125.25 365.25,-1125.25 365.25,-1125.25 321.25,-1125.25"/>
<polygon fill="#666666" stroke="#666666" points="321.25,-1110.75 321.25,-1110.75 365.25,-1110.75 365.25,-1110.75 321.25,-1110.75"/>
<polygon fill="none" stroke="#666666" points="321.25,-1094.25 321.25,-1141.75 365.25,-1141.75 365.25,-1094.25 321.25,-1094.25"/>
</a>
</g>
</g>
<!-- Node9&#45;&gt;Node8 -->
<g id="edge8_Node000008_Node000009" class="edge">
<title>Node9&#45;&gt;Node8</title>
<g id="a_edge8_Node000008_Node000009"><a xlink:title=" ">
<path fill="none" stroke="#63b8ff" d="M343.25,-1083.21C343.25,-1025.35 343.25,-903.8 343.25,-803.4"/>
<polygon fill="none" stroke="#63b8ff" points="339.75,-1083.05 343.25,-1093.05 346.75,-1083.05 339.75,-1083.05"/>
</a>
</g>
</g>
</g>
</svg>
