<?xml version="1.0" encoding="UTF-8" standalone="no"?>
<!DOCTYPE svg PUBLIC "-//W3C//DTD SVG 1.1//EN"
 "http://www.w3.org/Graphics/SVG/1.1/DTD/svg11.dtd">
<!-- Generated by graphviz version 12.2.1 (0)
 -->
<!-- Title: SettingsView::settingsChanged Pages: 1 -->
<svg width="669pt" height="64pt"
 viewBox="0.00 0.00 669.00 63.50" xmlns="http://www.w3.org/2000/svg" xmlns:xlink="http://www.w3.org/1999/xlink">
<g id="graph0" class="graph" transform="scale(1 1) rotate(0) translate(4 59.5)">
<title>SettingsView::settingsChanged</title>
<!-- Node1 -->
<g id="Node000001" class="node">
<title>Node1</title>
<g id="a_Node000001"><a xlink:title="Emitted when settings are saved or restored to defaults, indicating that other parts of the applicati...">
<polygon fill="#999999" stroke="#666666" points="661,-36.5 508.5,-36.5 508.5,-18 661,-18 661,-36.5"/>
<text text-anchor="middle" x="584.75" y="-23" font-family="Helvetica,sans-Serif" font-size="10.00">SettingsView::settingsChanged</text>
</a>
</g>
</g>
<!-- Node2 -->
<g id="Node000002" class="node">
<title>Node2</title>
<g id="a_Node000002"><a xlink:href="classSettingsView.html#af70830edb09631a2fb953acd08632d6a" target="_top" xlink:title="Restores all settings across all tabs to their default values. Prompts the user for confirmation befo...">
<polygon fill="white" stroke="#666666" points="472.5,-55.5 323,-55.5 323,-37 472.5,-37 472.5,-55.5"/>
<text text-anchor="middle" x="397.75" y="-42" font-family="Helvetica,sans-Serif" font-size="10.00">SettingsView::RestoreDefaults</text>
</a>
</g>
</g>
<!-- Node1&#45;&gt;Node2 -->
<g id="edge1_Node000001_Node000002" class="edge">
<title>Node1&#45;&gt;Node2</title>
<g id="a_edge1_Node000001_Node000002"><a xlink:title=" ">
<path fill="none" stroke="#63b8ff" d="M496.91,-36.17C488.86,-37 480.75,-37.83 472.83,-38.64"/>
<polygon fill="#63b8ff" stroke="#63b8ff" points="497.14,-39.66 506.73,-35.16 496.43,-32.7 497.14,-39.66"/>
</a>
</g>
</g>
<!-- Node5 -->
<g id="Node000005" class="node">
<title>Node5</title>
<g id="a_Node000005"><a xlink:href="classSettingsView.html#a53de2b196fd35488e2fcb3efd091e04d" target="_top" xlink:title="Saves all current settings from the various tabs to the WavelengthConfig object and persists them....">
<polygon fill="white" stroke="#666666" points="466.12,-18.5 329.38,-18.5 329.38,0 466.12,0 466.12,-18.5"/>
<text text-anchor="middle" x="397.75" y="-5" font-family="Helvetica,sans-Serif" font-size="10.00">SettingsView::SaveSettings</text>
</a>
</g>
</g>
<!-- Node1&#45;&gt;Node5 -->
<g id="edge4_Node000001_Node000005" class="edge">
<title>Node1&#45;&gt;Node5</title>
<g id="a_edge4_Node000001_Node000005"><a xlink:title=" ">
<path fill="none" stroke="#63b8ff" d="M496.84,-18.79C486.68,-17.81 476.44,-16.81 466.59,-15.85"/>
<polygon fill="#63b8ff" stroke="#63b8ff" points="496.44,-22.27 506.73,-19.76 497.12,-15.3 496.44,-22.27"/>
</a>
</g>
</g>
<!-- Node3 -->
<g id="Node000003" class="node">
<title>Node3</title>
<g id="a_Node000003"><a xlink:href="classSettingsView.html#a88aeaa2ebb222180310ba66f0dba95d5" target="_top" xlink:title="Creates and arranges the main UI elements of the SettingsView. Sets up the main layout,...">
<polygon fill="white" stroke="#666666" points="287,-36.5 172.75,-36.5 172.75,-18 287,-18 287,-36.5"/>
<text text-anchor="middle" x="229.88" y="-23" font-family="Helvetica,sans-Serif" font-size="10.00">SettingsView::SetupUi</text>
</a>
</g>
</g>
<!-- Node2&#45;&gt;Node3 -->
<g id="edge2_Node000002_Node000003" class="edge">
<title>Node2&#45;&gt;Node3</title>
<g id="a_edge2_Node000002_Node000003"><a xlink:title=" ">
<path fill="none" stroke="#63b8ff" d="M311.34,-36.47C303.12,-35.53 294.93,-34.59 287.1,-33.69"/>
<polygon fill="#63b8ff" stroke="#63b8ff" points="310.71,-39.92 321.04,-37.58 311.5,-32.96 310.71,-39.92"/>
</a>
</g>
</g>
<!-- Node4 -->
<g id="Node000004" class="node">
<title>Node4</title>
<g id="a_Node000004"><a xlink:href="classSettingsView.html#a4b22f39018ca1c051b4d88f6d2636683" target="_top" xlink:title="Constructs the SettingsView. Initializes the UI, sets up all tabs including the security layers for t...">
<polygon fill="white" stroke="#666666" points="136.75,-36.5 0,-36.5 0,-18 136.75,-18 136.75,-36.5"/>
<text text-anchor="middle" x="68.38" y="-23" font-family="Helvetica,sans-Serif" font-size="10.00">SettingsView::SettingsView</text>
</a>
</g>
</g>
<!-- Node3&#45;&gt;Node4 -->
<g id="edge3_Node000003_Node000004" class="edge">
<title>Node3&#45;&gt;Node4</title>
<g id="a_edge3_Node000003_Node000004"><a xlink:title=" ">
<path fill="none" stroke="#63b8ff" d="M161.15,-27.25C153.2,-27.25 145.08,-27.25 137.13,-27.25"/>
<polygon fill="#63b8ff" stroke="#63b8ff" points="161.13,-30.75 171.13,-27.25 161.13,-23.75 161.13,-30.75"/>
</a>
</g>
</g>
<!-- Node5&#45;&gt;Node3 -->
<g id="edge5_Node000005_Node000003" class="edge">
<title>Node5&#45;&gt;Node3</title>
<g id="a_edge5_Node000005_Node000003"><a xlink:title=" ">
<path fill="none" stroke="#63b8ff" d="M318.11,-17.78C307.75,-18.91 297.3,-20.04 287.41,-21.12"/>
<polygon fill="#63b8ff" stroke="#63b8ff" points="318.21,-21.29 327.78,-16.73 317.46,-14.33 318.21,-21.29"/>
</a>
</g>
</g>
</g>
</svg>
