<?xml version="1.0" encoding="UTF-8" standalone="no"?>
<!DOCTYPE svg PUBLIC "-//W3C//DTD SVG 1.1//EN"
 "http://www.w3.org/Graphics/SVG/1.1/DTD/svg11.dtd">
<!-- Generated by graphviz version 12.2.1 (0)
 -->
<!-- Title: MessageHandler::GenerateMessageId Pages: 1 -->
<!--zoomable 163 -->

<svg id="main" version="1.1" xmlns="http://www.w3.org/2000/svg" xmlns:xlink="http://www.w3.org/1999/xlink" xml:space="preserve" onload="init(evt)">

<style type="text/css"><![CDATA[
.node, .edge {opacity: 0.7;}
.node.selected, .edge.selected {opacity: 1;}
.edge:hover path { stroke: red; }
.edge:hover polygon { stroke: red; fill: red; }
]]></style>

<defs>
  <circle id="rim" cx="0" cy="0" r="7"/>
  <circle id="rim2" cx="0" cy="0" r="3.5"/>
  <g id="zoomPlus">
    <use xlink:href="#rim" fill="#404040"><set attributeName="fill" to="#808080" begin="zoomplus.mouseover" end="zoomplus.mouseout"/></use>
    <path d="M-4,0h8M0,-4v8" fill="none" stroke="white" stroke-width="1.5" pointer-events="none"/>
  </g>
  <g id="zoomMin">
    <use xlink:href="#rim" fill="#404040"><set attributeName="fill" to="#808080" begin="zoomminus.mouseover" end="zoomminus.mouseout"/></use>
    <path d="M-4,0h8" fill="none" stroke="white" stroke-width="1.5" pointer-events="none"/>
  </g>
  <g id="arrowUp" transform="translate(30 24)">
    <use xlink:href="#rim"/>
    <path pointer-events="none" fill="none" stroke="white" stroke-width="1.5" d="M0,-3.0v7 M-2.5,-0.5L0,-3.0L2.5,-0.5"/>
  </g>
  <g id="arrowRight" transform="rotate(90) translate(36 -43)">
    <use xlink:href="#rim"/>
    <path pointer-events="none" fill="none" stroke="white" stroke-width="1.5" d="M0,-3.0v7 M-2.5,-0.5L0,-3.0L2.5,-0.5"/>
  </g>
  <g id="arrowDown" transform="rotate(180) translate(-30 -48)">
    <use xlink:href="#rim"/>
    <path pointer-events="none" fill="none" stroke="white" stroke-width="1.5" d="M0,-3.0v7 M-2.5,-0.5L0,-3.0L2.5,-0.5"/>
  </g>
  <g id="arrowLeft" transform="rotate(270) translate(-36 17)">
    <use xlink:href="#rim"/>
    <path pointer-events="none" fill="none" stroke="white" stroke-width="1.5" d="M0,-3.0v7 M-2.5,-0.5L0,-3.0L2.5,-0.5"/>
  </g>
  <g id="resetDef">
    <use xlink:href="#rim2" fill="#404040"><set attributeName="fill" to="#808080" begin="reset.mouseover" end="reset.mouseout"/></use>
  </g>
</defs>
<script type="application/ecmascript">
var viewWidth = 647;
var viewHeight = 163;
var sectionId = 'dynsection-4';
</script>
<script type="application/ecmascript" xlink:href="svg.min.js"/>
<svg id="graph" class="graph">
<g id="viewport">
<title>MessageHandler::GenerateMessageId</title>
<!-- Node1 -->
<g id="Node000001" class="node">
<title>Node1</title>
<g id="a_Node000001"><a xlink:title="Generates a unique message identifier using UUID.">
<polygon fill="#999999" stroke="#666666" points="639.25,-92 504,-92 504,-63 639.25,-63 639.25,-92"/>
<text text-anchor="start" x="512" y="-78.5" font-family="Helvetica,sans-Serif" font-size="10.00">MessageHandler::Generate</text>
<text text-anchor="middle" x="571.62" y="-68" font-family="Helvetica,sans-Serif" font-size="10.00">MessageId</text>
</a>
</g>
</g>
<!-- Node2 -->
<g id="Node000002" class="node">
<title>Node2</title>
<g id="a_Node000002"><a xlink:href="classMessageService.html#aff7ad6c0302f5f9b4864074eb6675931" target="_top" xlink:title="Initiates the process of sending a file to the currently active frequency. Reads the file,...">
<polygon fill="white" stroke="#666666" points="466.5,-107.75 332.75,-107.75 332.75,-89.25 466.5,-89.25 466.5,-107.75"/>
<text text-anchor="middle" x="399.62" y="-94.25" font-family="Helvetica,sans-Serif" font-size="10.00">MessageService::SendFile</text>
</a>
</g>
</g>
<!-- Node1&#45;&gt;Node2 -->
<g id="edge1_Node000001_Node000002" class="edge">
<title>Node1&#45;&gt;Node2</title>
<g id="a_edge1_Node000001_Node000002"><a xlink:title=" ">
<path fill="none" stroke="#63b8ff" d="M492.67,-87.13C484.04,-88.2 475.32,-89.27 466.85,-90.32"/>
<polygon fill="#63b8ff" stroke="#63b8ff" points="492.93,-90.62 502.42,-85.93 492.07,-83.68 492.93,-90.62"/>
</a>
</g>
</g>
<!-- Node8 -->
<g id="Node000008" class="node">
<title>Node8</title>
<g id="a_Node000008"><a xlink:href="classMessageService.html#ac1041f89fa4eed1b98556cc3f93c2077" target="_top" xlink:title="Sends a text message to the currently active frequency. Retrieves the active frequency and socket fro...">
<polygon fill="white" stroke="#666666" points="468,-71 331.25,-71 331.25,-42 468,-42 468,-71"/>
<text text-anchor="start" x="339.25" y="-57.5" font-family="Helvetica,sans-Serif" font-size="10.00">MessageService::SendText</text>
<text text-anchor="middle" x="399.62" y="-47" font-family="Helvetica,sans-Serif" font-size="10.00">Message</text>
</a>
</g>
</g>
<!-- Node1&#45;&gt;Node8 -->
<g id="edge6_Node000001_Node000008" class="edge">
<title>Node1&#45;&gt;Node8</title>
<g id="a_edge6_Node000001_Node000008"><a xlink:title=" ">
<path fill="none" stroke="#63b8ff" d="M492.54,-67.85C484.43,-66.85 476.23,-65.84 468.25,-64.85"/>
<polygon fill="#63b8ff" stroke="#63b8ff" points="492.07,-71.32 502.42,-69.07 492.93,-64.38 492.07,-71.32"/>
</a>
</g>
</g>
<!-- Node3 -->
<g id="Node000003" class="node">
<title>Node3</title>
<g id="a_Node000003"><a xlink:href="classChatView.html#a4b181808cf22581bd24eb4bab9e07e43" target="_top" xlink:title="Opens a file dialog to allow the user to select a file for sending. If a file is selected,...">
<polygon fill="white" stroke="#666666" points="286.25,-149.75 178,-149.75 178,-131.25 286.25,-131.25 286.25,-149.75"/>
<text text-anchor="middle" x="232.12" y="-136.25" font-family="Helvetica,sans-Serif" font-size="10.00">ChatView::AttachFile</text>
</a>
</g>
</g>
<!-- Node2&#45;&gt;Node3 -->
<g id="edge2_Node000002_Node000003" class="edge">
<title>Node2&#45;&gt;Node3</title>
<g id="a_edge2_Node000002_Node000003"><a xlink:title=" ">
<path fill="none" stroke="#63b8ff" d="M349.16,-111.05C324.23,-117.38 294.45,-124.94 271.3,-130.81"/>
<polygon fill="#63b8ff" stroke="#63b8ff" points="349.94,-114.47 358.77,-108.61 348.22,-107.68 349.94,-114.47"/>
</a>
</g>
</g>
<!-- Node7 -->
<g id="Node000007" class="node">
<title>Node7</title>
<g id="a_Node000007"><a xlink:href="classSessionCoordinator.html#a8c66229e945eb35fa8791ea88d37cdaa" target="_top" xlink:title="Sends a file to the currently active wavelength. Delegates the call to WavelengthMessageService.">
<polygon fill="white" stroke="#666666" points="282.88,-113 181.38,-113 181.38,-84 282.88,-84 282.88,-113"/>
<text text-anchor="start" x="189.38" y="-99.5" font-family="Helvetica,sans-Serif" font-size="10.00">SessionCoordinator</text>
<text text-anchor="middle" x="232.12" y="-89" font-family="Helvetica,sans-Serif" font-size="10.00">::SendFile</text>
</a>
</g>
</g>
<!-- Node2&#45;&gt;Node7 -->
<g id="edge5_Node000002_Node000007" class="edge">
<title>Node2&#45;&gt;Node7</title>
<g id="a_edge5_Node000002_Node000007"><a xlink:title=" ">
<path fill="none" stroke="#63b8ff" d="M321.03,-98.5C308.17,-98.5 295.14,-98.5 283.19,-98.5"/>
<polygon fill="#63b8ff" stroke="#63b8ff" points="320.75,-102 330.75,-98.5 320.75,-95 320.75,-102"/>
</a>
</g>
</g>
<!-- Node4 -->
<g id="Node000004" class="node">
<title>Node4</title>
<g id="a_Node000004"><a xlink:href="classChatView.html#ad2db6f12afdba4b49ec7775b2d560ad3" target="_top" xlink:title="Constructs a WavelengthChatView. Initializes the UI elements (labels, message area,...">
<polygon fill="white" stroke="#666666" points="119.88,-86.75 13.12,-86.75 13.12,-68.25 119.88,-68.25 119.88,-86.75"/>
<text text-anchor="middle" x="66.5" y="-73.25" font-family="Helvetica,sans-Serif" font-size="10.00">ChatView::ChatView</text>
</a>
</g>
</g>
<!-- Node3&#45;&gt;Node4 -->
<g id="edge3_Node000003_Node000004" class="edge">
<title>Node3&#45;&gt;Node4</title>
<g id="a_edge3_Node000003_Node000004"><a xlink:title=" ">
<path fill="none" stroke="#63b8ff" d="M183.6,-127.45C178.64,-125.87 173.7,-124.21 169,-122.5 139.84,-111.87 107.22,-96.81 87.01,-87.1"/>
<polygon fill="#63b8ff" stroke="#63b8ff" points="182.36,-130.73 192.95,-130.31 184.41,-124.04 182.36,-130.73"/>
</a>
</g>
</g>
<!-- Node5 -->
<g id="Node000005" class="node">
<title>Node5</title>
<g id="a_Node000005"><a xlink:href="classShortcutManager.html#a4d014d550ca996c51abb06649f71a3fa" target="_top" xlink:title="Registers shortcuts specific to the WavelengthChatView.">
<polygon fill="#fff0f0" stroke="red" points="133,-155 0,-155 0,-126 133,-126 133,-155"/>
<text text-anchor="start" x="8" y="-141.5" font-family="Helvetica,sans-Serif" font-size="10.00">ShortcutManager::Register</text>
<text text-anchor="middle" x="66.5" y="-131" font-family="Helvetica,sans-Serif" font-size="10.00">ChatViewShortcuts</text>
</a>
</g>
</g>
<!-- Node3&#45;&gt;Node5 -->
<g id="edge4_Node000003_Node000005" class="edge">
<title>Node3&#45;&gt;Node5</title>
<g id="a_edge4_Node000003_Node000005"><a xlink:title=" ">
<path fill="none" stroke="#63b8ff" d="M166.1,-140.5C155.37,-140.5 144.24,-140.5 133.49,-140.5"/>
<polygon fill="#63b8ff" stroke="#63b8ff" points="166.03,-144 176.03,-140.5 166.03,-137 166.03,-144"/>
</a>
</g>
</g>
<!-- Node9 -->
<g id="Node000009" class="node">
<title>Node9</title>
<g id="a_Node000009"><a xlink:href="classChatView.html#a424556ba1072ba443433af3af827c5d5" target="_top" xlink:title="Sends the text message currently in the input field. Clears the input field and sends the message via...">
<polygon fill="white" stroke="#666666" points="295.25,-65.75 169,-65.75 169,-47.25 295.25,-47.25 295.25,-65.75"/>
<text text-anchor="middle" x="232.12" y="-52.25" font-family="Helvetica,sans-Serif" font-size="10.00">ChatView::SendMessage</text>
</a>
</g>
</g>
<!-- Node8&#45;&gt;Node9 -->
<g id="edge7_Node000008_Node000009" class="edge">
<title>Node8&#45;&gt;Node9</title>
<g id="a_edge7_Node000008_Node000009"><a xlink:title=" ">
<path fill="none" stroke="#63b8ff" d="M319.5,-56.5C311.44,-56.5 303.33,-56.5 295.49,-56.5"/>
<polygon fill="#63b8ff" stroke="#63b8ff" points="319.32,-60 329.32,-56.5 319.32,-53 319.32,-60"/>
</a>
</g>
</g>
<!-- Node10 -->
<g id="Node000010" class="node">
<title>Node10</title>
<g id="a_Node000010"><a xlink:href="classSessionCoordinator.html#a6bf70b7c88a2f73ab0510bbc97315c02" target="_top" xlink:title="Sends a text message to the currently active wavelength. Delegates the call to WavelengthMessageServi...">
<polygon fill="white" stroke="#666666" points="282.88,-29 181.38,-29 181.38,0 282.88,0 282.88,-29"/>
<text text-anchor="start" x="189.38" y="-15.5" font-family="Helvetica,sans-Serif" font-size="10.00">SessionCoordinator</text>
<text text-anchor="middle" x="232.12" y="-5" font-family="Helvetica,sans-Serif" font-size="10.00">::SendMessage</text>
</a>
</g>
</g>
<!-- Node8&#45;&gt;Node10 -->
<g id="edge9_Node000008_Node000010" class="edge">
<title>Node8&#45;&gt;Node10</title>
<g id="a_edge9_Node000008_Node000010"><a xlink:title=" ">
<path fill="none" stroke="#63b8ff" d="M328.81,-38.78C313.51,-34.9 297.61,-30.86 283.26,-27.22"/>
<polygon fill="#63b8ff" stroke="#63b8ff" points="327.79,-42.13 338.34,-41.2 329.51,-35.35 327.79,-42.13"/>
</a>
</g>
</g>
<!-- Node9&#45;&gt;Node4 -->
<g id="edge8_Node000009_Node000004" class="edge">
<title>Node9&#45;&gt;Node4</title>
<g id="a_edge8_Node000009_Node000004"><a xlink:title=" ">
<path fill="none" stroke="#63b8ff" d="M157.42,-65.96C144.91,-67.56 132.15,-69.2 120.32,-70.72"/>
<polygon fill="#63b8ff" stroke="#63b8ff" points="157.82,-69.44 167.3,-64.69 156.93,-62.49 157.82,-69.44"/>
</a>
</g>
</g>
</g>
</svg>

<g id="navigator" transform="translate(0 0)" fill="#404254">
  <rect fill="#f2f5e9" fill-opacity="0.5" stroke="#606060" stroke-width=".5" x="0" y="0" width="60" height="60"/>
  <use id="zoomplus" xlink:href="#zoomPlus" x="17" y="9" onmousedown="handleZoom(evt,'in')"/>
  <use id="zoomminus" xlink:href="#zoomMin" x="42" y="9" onmousedown="handleZoom(evt,'out')"/>
  <use id="reset" xlink:href="#resetDef" x="30" y="36" onmousedown="handleReset()"/>
   <use id="arrowup" xlink:href="#arrowUp" x="0" y="0" onmousedown="handlePan(0,-1)"/>
  <use id="arrowright" xlink:href="#arrowRight" x="0" y="0" onmousedown="handlePan(1,0)"/>
  <use id="arrowdown" xlink:href="#arrowDown" x="0" y="0" onmousedown="handlePan(0,1)"/>
  <use id="arrowleft" xlink:href="#arrowLeft" x="0" y="0" onmousedown="handlePan(-1,0)"/>
</g>
<svg viewBox="0 0 15 15" width="100%" height="30px" preserveAspectRatio="xMaxYMin meet">
 <g id="arrow_out" transform="scale(0.3 0.3)">
  <a xlink:href="classMessageHandler_a0bd569db12a0dbcd30db0dc412691f0d_icgraph_org.svg" target="_base">
   <rect id="button" ry="5" rx="5" y="6" x="6" height="38" width="38"
        fill="#f2f5e9" fill-opacity="0.5" stroke="#606060" stroke-width="1.0"/>
   <path id="arrow"
     d="M 11.500037,31.436501 C 11.940474,20.09759 22.043105,11.32322 32.158766,21.979434 L 37.068811,17.246167 C 37.068811,17.246167 37.088388,32 37.088388,32 L 22.160133,31.978069 C 22.160133,31.978069 26.997745,27.140456 26.997745,27.140456 C 18.528582,18.264221 13.291696,25.230495 11.500037,31.436501 z"
     style="fill:#404040;"/>
  </a>
 </g>
</svg>

<style type='text/css'>
<![CDATA[
[data-mouse-over-selected='false'] { opacity: 0.7; }
[data-mouse-over-selected='true']  { opacity: 1.0; }
]]>
</style>
<script type="application/ecmascript"><![CDATA[
document.addEventListener('DOMContentLoaded', (event) => {
  highlightEdges();
  highlightAdjacentNodes();
});
]]></script>
</svg>
