<?xml version="1.0" encoding="UTF-8" standalone="no"?>
<!DOCTYPE svg PUBLIC "-//W3C//DTD SVG 1.1//EN"
 "http://www.w3.org/Graphics/SVG/1.1/DTD/svg11.dtd">
<!-- Generated by graphviz version 12.2.1 (0)
 -->
<!-- Title: NetworkStatusWidget::NetworkStatusWidget Pages: 1 -->
<svg width="725pt" height="105pt"
 viewBox="0.00 0.00 724.75 105.00" xmlns="http://www.w3.org/2000/svg" xmlns:xlink="http://www.w3.org/1999/xlink">
<g id="graph0" class="graph" transform="scale(1 1) rotate(0) translate(4 101)">
<title>NetworkStatusWidget::NetworkStatusWidget</title>
<!-- Node1 -->
<g id="Node000001" class="node">
<title>Node1</title>
<g id="a_Node000001"><a xlink:title="Constructs a NetworkStatusWidget. Initializes UI elements (labels, layout), sets appearance (size,...">
<polygon fill="#999999" stroke="#666666" points="118,-52 0,-52 0,-23 118,-23 118,-52"/>
<text text-anchor="start" x="8" y="-38.5" font-family="Helvetica,sans-Serif" font-size="10.00">NetworkStatusWidget</text>
<text text-anchor="middle" x="59" y="-28" font-family="Helvetica,sans-Serif" font-size="10.00">::NetworkStatusWidget</text>
</a>
</g>
</g>
<!-- Node2 -->
<g id="Node000002" class="node">
<title>Node2</title>
<g id="a_Node000002"><a xlink:href="classNetworkStatusWidget.html#a621b931ee58720e3e35b0a4a6a56e74a" target="_top" xlink:title="Performs a network status check. Sends a network request, measures the response time (ping),...">
<polygon fill="white" stroke="#666666" points="269.75,-76 154,-76 154,-47 269.75,-47 269.75,-76"/>
<text text-anchor="start" x="162" y="-62.5" font-family="Helvetica,sans-Serif" font-size="10.00">NetworkStatusWidget</text>
<text text-anchor="middle" x="211.88" y="-52" font-family="Helvetica,sans-Serif" font-size="10.00">::CheckNetworkStatus</text>
</a>
</g>
</g>
<!-- Node1&#45;&gt;Node2 -->
<g id="edge1_Node000001_Node000002" class="edge">
<title>Node1&#45;&gt;Node2</title>
<g id="a_edge1_Node000001_Node000002"><a xlink:title=" ">
<path fill="none" stroke="#63b8ff" d="M118.33,-46.78C126.22,-48.03 134.38,-49.33 142.42,-50.61"/>
<polygon fill="#63b8ff" stroke="#63b8ff" points="141.77,-54.05 152.2,-52.17 142.87,-47.14 141.77,-54.05"/>
</a>
</g>
</g>
<!-- Node6 -->
<g id="Node000006" class="node">
<title>Node6</title>
<g id="a_Node000006"><a xlink:href="classTranslationManager.html#a370292d4133519fccf401a6b27b2f6a6" target="_top" xlink:title="Returns an instance of the TranslationManager singleton.">
<polygon fill="white" stroke="#666666" points="262.25,-29 161.5,-29 161.5,0 262.25,0 262.25,-29"/>
<text text-anchor="start" x="169.5" y="-15.5" font-family="Helvetica,sans-Serif" font-size="10.00">TranslationManager</text>
<text text-anchor="middle" x="211.88" y="-5" font-family="Helvetica,sans-Serif" font-size="10.00">::GetInstance</text>
</a>
</g>
</g>
<!-- Node1&#45;&gt;Node6 -->
<g id="edge6_Node000001_Node000006" class="edge">
<title>Node1&#45;&gt;Node6</title>
<g id="a_edge6_Node000001_Node000006"><a xlink:title=" ">
<path fill="none" stroke="#63b8ff" d="M118.33,-28.61C128.68,-27.03 139.49,-25.38 149.91,-23.79"/>
<polygon fill="#63b8ff" stroke="#63b8ff" points="150.18,-27.29 159.54,-22.33 149.12,-20.37 150.18,-27.29"/>
</a>
</g>
</g>
<!-- Node3 -->
<g id="Node000003" class="node">
<title>Node3</title>
<g id="a_Node000003"><a xlink:href="classNetworkStatusWidget.html#ae67562eeae82707e25e7d1c3a883de3b" target="_top" xlink:title="Updates the text of the status and ping labels, the icon, and the border color based on the current_q...">
<polygon fill="white" stroke="#666666" points="420.75,-76 305.75,-76 305.75,-47 420.75,-47 420.75,-76"/>
<text text-anchor="start" x="313.75" y="-62.5" font-family="Helvetica,sans-Serif" font-size="10.00">NetworkStatusWidget</text>
<text text-anchor="middle" x="363.25" y="-52" font-family="Helvetica,sans-Serif" font-size="10.00">::UpdateStatusDisplay</text>
</a>
</g>
</g>
<!-- Node2&#45;&gt;Node3 -->
<g id="edge2_Node000002_Node000003" class="edge">
<title>Node2&#45;&gt;Node3</title>
<g id="a_edge2_Node000002_Node000003"><a xlink:title=" ">
<path fill="none" stroke="#63b8ff" d="M270.2,-61.5C277.94,-61.5 285.94,-61.5 293.85,-61.5"/>
<polygon fill="#63b8ff" stroke="#63b8ff" points="293.81,-65 303.81,-61.5 293.81,-58 293.81,-65"/>
</a>
</g>
</g>
<!-- Node4 -->
<g id="Node000004" class="node">
<title>Node4</title>
<g id="a_Node000004"><a xlink:href="classNetworkStatusWidget.html#aff2fa82e8167c32a69998f2438f60f2f" target="_top" xlink:title="Generates the WiFi&#45;style icon as a QPixmap based on the network quality. Draws a series of arcs,...">
<polygon fill="white" stroke="#666666" points="568.75,-97 456.75,-97 456.75,-68 568.75,-68 568.75,-97"/>
<text text-anchor="start" x="464.75" y="-83.5" font-family="Helvetica,sans-Serif" font-size="10.00">NetworkStatusWidget</text>
<text text-anchor="middle" x="512.75" y="-73" font-family="Helvetica,sans-Serif" font-size="10.00">::CreateNetworkIcon</text>
</a>
</g>
</g>
<!-- Node3&#45;&gt;Node4 -->
<g id="edge3_Node000003_Node000004" class="edge">
<title>Node3&#45;&gt;Node4</title>
<g id="a_edge3_Node000003_Node000004"><a xlink:title=" ">
<path fill="none" stroke="#63b8ff" d="M420.86,-69.56C428.81,-70.69 437.04,-71.86 445.16,-73.02"/>
<polygon fill="#63b8ff" stroke="#63b8ff" points="444.62,-76.48 455.01,-74.42 445.61,-69.55 444.62,-76.48"/>
</a>
</g>
</g>
<!-- Node5 -->
<g id="Node000005" class="node">
<title>Node5</title>
<g id="a_Node000005"><a xlink:href="classNetworkStatusWidget.html#a558c920e0f92e05a73bbe9245c85e065" target="_top" xlink:title="Static utility function to get the appropriate color for a given network quality level....">
<polygon fill="white" stroke="#666666" points="716.75,-75 604.75,-75 604.75,-46 716.75,-46 716.75,-75"/>
<text text-anchor="start" x="612.75" y="-61.5" font-family="Helvetica,sans-Serif" font-size="10.00">NetworkStatusWidget</text>
<text text-anchor="middle" x="660.75" y="-51" font-family="Helvetica,sans-Serif" font-size="10.00">::GetQualityColor</text>
</a>
</g>
</g>
<!-- Node3&#45;&gt;Node5 -->
<g id="edge5_Node000003_Node000005" class="edge">
<title>Node3&#45;&gt;Node5</title>
<g id="a_edge5_Node000003_Node000005"><a xlink:title=" ">
<path fill="none" stroke="#63b8ff" d="M420.99,-60.08C432.81,-59.84 445.19,-59.63 456.75,-59.5 506.52,-58.96 518.97,-59.23 568.75,-59.5 576.59,-59.54 584.81,-59.61 592.96,-59.68"/>
<polygon fill="#63b8ff" stroke="#63b8ff" points="592.86,-63.18 602.9,-59.78 592.93,-56.18 592.86,-63.18"/>
</a>
</g>
</g>
<!-- Node4&#45;&gt;Node5 -->
<g id="edge4_Node000004_Node000005" class="edge">
<title>Node4&#45;&gt;Node5</title>
<g id="a_edge4_Node000004_Node000005"><a xlink:title=" ">
<path fill="none" stroke="#63b8ff" d="M568.95,-74.18C576.85,-72.99 585.05,-71.76 593.14,-70.54"/>
<polygon fill="#63b8ff" stroke="#63b8ff" points="593.61,-74.01 602.98,-69.05 592.57,-67.08 593.61,-74.01"/>
</a>
</g>
</g>
<!-- Node7 -->
<g id="Node000007" class="node">
<title>Node7</title>
<g id="a_Node000007"><a xlink:href="classTranslationManager.html#afcf7f2ccfdf410f09d0a740c1826a1f3" target="_top" xlink:title="Private constructor to enforce the singleton pattern.">
<polygon fill="white" stroke="#666666" points="416.62,-29 309.88,-29 309.88,0 416.62,0 416.62,-29"/>
<text text-anchor="start" x="317.88" y="-15.5" font-family="Helvetica,sans-Serif" font-size="10.00">TranslationManager</text>
<text text-anchor="middle" x="363.25" y="-5" font-family="Helvetica,sans-Serif" font-size="10.00">::TranslationManager</text>
</a>
</g>
</g>
<!-- Node6&#45;&gt;Node7 -->
<g id="edge7_Node000006_Node000007" class="edge">
<title>Node6&#45;&gt;Node7</title>
<g id="a_edge7_Node000006_Node000007"><a xlink:title=" ">
<path fill="none" stroke="#63b8ff" d="M262.61,-14.5C274,-14.5 286.26,-14.5 298.15,-14.5"/>
<polygon fill="#63b8ff" stroke="#63b8ff" points="297.88,-18 307.88,-14.5 297.88,-11 297.88,-18"/>
</a>
</g>
</g>
</g>
</svg>
