<?xml version="1.0" encoding="UTF-8" standalone="no"?>
<!DOCTYPE svg PUBLIC "-//W3C//DTD SVG 1.1//EN"
 "http://www.w3.org/Graphics/SVG/1.1/DTD/svg11.dtd">
<!-- Generated by graphviz version 12.2.1 (0)
 -->
<!-- Title: CreateWavelengthDialog::ValidateInputs Pages: 1 -->
<svg width="615pt" height="96pt"
 viewBox="0.00 0.00 615.00 96.00" xmlns="http://www.w3.org/2000/svg" xmlns:xlink="http://www.w3.org/1999/xlink">
<g id="graph0" class="graph" transform="scale(1 1) rotate(0) translate(4 92)">
<title>CreateWavelengthDialog::ValidateInputs</title>
<!-- Node1 -->
<g id="Node000001" class="node">
<title>Node1</title>
<g id="a_Node000001"><a xlink:title="Validates the input fields (currently just the password if protection is enabled)....">
<polygon fill="#999999" stroke="#666666" points="607,-88 483.75,-88 483.75,-59 607,-59 607,-88"/>
<text text-anchor="start" x="491.75" y="-74.5" font-family="Helvetica,sans-Serif" font-size="10.00">CreateWavelengthDialog</text>
<text text-anchor="middle" x="545.38" y="-64" font-family="Helvetica,sans-Serif" font-size="10.00">::ValidateInputs</text>
</a>
</g>
</g>
<!-- Node2 -->
<g id="Node000002" class="node">
<title>Node2</title>
<g id="a_Node000002"><a xlink:href="classCreateWavelengthDialog.html#acb82ee7ee77da3a02fbd18f622f3c660" target="_top" xlink:title="Constructs a WavelengthDialog. Sets up the UI elements (labels, input fields, buttons,...">
<polygon fill="white" stroke="#666666" points="129.25,-72 0,-72 0,-43 129.25,-43 129.25,-72"/>
<text text-anchor="start" x="8" y="-58.5" font-family="Helvetica,sans-Serif" font-size="10.00">CreateWavelengthDialog</text>
<text text-anchor="middle" x="64.62" y="-48" font-family="Helvetica,sans-Serif" font-size="10.00">::CreateWavelengthDialog</text>
</a>
</g>
</g>
<!-- Node1&#45;&gt;Node2 -->
<g id="edge1_Node000001_Node000002" class="edge">
<title>Node1&#45;&gt;Node2</title>
<g id="a_edge1_Node000001_Node000002"><a xlink:title=" ">
<path fill="none" stroke="#63b8ff" d="M471.86,-75.99C463.73,-76.2 455.56,-76.38 447.75,-76.5 322.17,-78.45 290.42,-79.77 165.25,-69.5 153.7,-68.55 141.43,-67.29 129.59,-65.93"/>
<polygon fill="#63b8ff" stroke="#63b8ff" points="471.89,-79.5 481.79,-75.72 471.7,-72.5 471.89,-79.5"/>
</a>
</g>
</g>
<!-- Node3 -->
<g id="Node000003" class="node">
<title>Node3</title>
<g id="a_Node000003"><a xlink:href="classCreateWavelengthDialog.html#a187675567db20379b9bec8d57da522b0" target="_top" xlink:title="Slot triggered when the frequency search (FindLowestAvailableFrequency) completes....">
<polygon fill="white" stroke="#666666" points="447.75,-67 324.5,-67 324.5,-38 447.75,-38 447.75,-67"/>
<text text-anchor="start" x="332.5" y="-53.5" font-family="Helvetica,sans-Serif" font-size="10.00">CreateWavelengthDialog</text>
<text text-anchor="middle" x="386.12" y="-43" font-family="Helvetica,sans-Serif" font-size="10.00">::OnFrequencyFound</text>
</a>
</g>
</g>
<!-- Node1&#45;&gt;Node3 -->
<g id="edge2_Node000001_Node000003" class="edge">
<title>Node1&#45;&gt;Node3</title>
<g id="a_edge2_Node000001_Node000003"><a xlink:title=" ">
<path fill="none" stroke="#63b8ff" d="M472.23,-63.87C464.14,-62.78 455.95,-61.69 448.02,-60.63"/>
<polygon fill="#63b8ff" stroke="#63b8ff" points="471.7,-67.33 482.08,-65.18 472.63,-60.39 471.7,-67.33"/>
</a>
</g>
</g>
<!-- Node3&#45;&gt;Node2 -->
<g id="edge3_Node000003_Node000002" class="edge">
<title>Node3&#45;&gt;Node2</title>
<g id="a_edge3_Node000003_Node000002"><a xlink:title=" ">
<path fill="none" stroke="#63b8ff" d="M312.83,-53.63C257.7,-54.49 182.47,-55.67 129.53,-56.5"/>
<polygon fill="#63b8ff" stroke="#63b8ff" points="312.82,-57.13 322.76,-53.48 312.71,-50.13 312.82,-57.13"/>
</a>
</g>
</g>
<!-- Node4 -->
<g id="Node000004" class="node">
<title>Node4</title>
<g id="a_Node000004"><a xlink:href="classCreateWavelengthDialog.html#aac53c51a52d92e2ccc1a0f945aaec449" target="_top" xlink:title="Starts the asynchronous process of finding the lowest available frequency via the relay server....">
<polygon fill="white" stroke="#666666" points="288.5,-29 165.25,-29 165.25,0 288.5,0 288.5,-29"/>
<text text-anchor="start" x="173.25" y="-15.5" font-family="Helvetica,sans-Serif" font-size="10.00">CreateWavelengthDialog</text>
<text text-anchor="middle" x="226.88" y="-5" font-family="Helvetica,sans-Serif" font-size="10.00">::StartFrequencySearch</text>
</a>
</g>
</g>
<!-- Node3&#45;&gt;Node4 -->
<g id="edge4_Node000003_Node000004" class="edge">
<title>Node3&#45;&gt;Node4</title>
<g id="a_edge4_Node000003_Node000004"><a xlink:title=" ">
<path fill="none" stroke="#63b8ff" d="M313.26,-35.13C305.08,-33.16 296.79,-31.15 288.77,-29.22"/>
<polygon fill="#63b8ff" stroke="#63b8ff" points="312.31,-38.51 322.86,-37.45 313.96,-31.7 312.31,-38.51"/>
</a>
</g>
</g>
<!-- Node4&#45;&gt;Node2 -->
<g id="edge5_Node000004_Node000002" class="edge">
<title>Node4&#45;&gt;Node2</title>
<g id="a_edge5_Node000004_Node000002"><a xlink:title=" ">
<path fill="none" stroke="#63b8ff" d="M159.34,-32.35C146.72,-35.74 133.64,-39.25 121.4,-42.53"/>
<polygon fill="#63b8ff" stroke="#63b8ff" points="160.06,-35.78 168.82,-29.81 158.25,-29.02 160.06,-35.78"/>
</a>
</g>
</g>
</g>
</svg>
