<?xml version="1.0" encoding="UTF-8" standalone="no"?>
<!DOCTYPE svg PUBLIC "-//W3C//DTD SVG 1.1//EN"
 "http://www.w3.org/Graphics/SVG/1.1/DTD/svg11.dtd">
<!-- Generated by graphviz version 12.2.1 (0)
 -->
<!-- Title: SecurityLayer::layerCompleted Pages: 1 -->
<!--zoomable 454 -->

<svg id="main" version="1.1" xmlns="http://www.w3.org/2000/svg" xmlns:xlink="http://www.w3.org/1999/xlink" xml:space="preserve" onload="init(evt)">

<style type="text/css"><![CDATA[
.node, .edge {opacity: 0.7;}
.node.selected, .edge.selected {opacity: 1;}
.edge:hover path { stroke: red; }
.edge:hover polygon { stroke: red; fill: red; }
]]></style>

<defs>
  <circle id="rim" cx="0" cy="0" r="7"/>
  <circle id="rim2" cx="0" cy="0" r="3.5"/>
  <g id="zoomPlus">
    <use xlink:href="#rim" fill="#404040"><set attributeName="fill" to="#808080" begin="zoomplus.mouseover" end="zoomplus.mouseout"/></use>
    <path d="M-4,0h8M0,-4v8" fill="none" stroke="white" stroke-width="1.5" pointer-events="none"/>
  </g>
  <g id="zoomMin">
    <use xlink:href="#rim" fill="#404040"><set attributeName="fill" to="#808080" begin="zoomminus.mouseover" end="zoomminus.mouseout"/></use>
    <path d="M-4,0h8" fill="none" stroke="white" stroke-width="1.5" pointer-events="none"/>
  </g>
  <g id="arrowUp" transform="translate(30 24)">
    <use xlink:href="#rim"/>
    <path pointer-events="none" fill="none" stroke="white" stroke-width="1.5" d="M0,-3.0v7 M-2.5,-0.5L0,-3.0L2.5,-0.5"/>
  </g>
  <g id="arrowRight" transform="rotate(90) translate(36 -43)">
    <use xlink:href="#rim"/>
    <path pointer-events="none" fill="none" stroke="white" stroke-width="1.5" d="M0,-3.0v7 M-2.5,-0.5L0,-3.0L2.5,-0.5"/>
  </g>
  <g id="arrowDown" transform="rotate(180) translate(-30 -48)">
    <use xlink:href="#rim"/>
    <path pointer-events="none" fill="none" stroke="white" stroke-width="1.5" d="M0,-3.0v7 M-2.5,-0.5L0,-3.0L2.5,-0.5"/>
  </g>
  <g id="arrowLeft" transform="rotate(270) translate(-36 17)">
    <use xlink:href="#rim"/>
    <path pointer-events="none" fill="none" stroke="white" stroke-width="1.5" d="M0,-3.0v7 M-2.5,-0.5L0,-3.0L2.5,-0.5"/>
  </g>
  <g id="resetDef">
    <use xlink:href="#rim2" fill="#404040"><set attributeName="fill" to="#808080" begin="reset.mouseover" end="reset.mouseout"/></use>
  </g>
</defs>
<script type="application/ecmascript">
var viewWidth = 744;
var viewHeight = 454;
var sectionId = 'dynsection-3';
</script>
<script type="application/ecmascript" xlink:href="svg.min.js"/>
<svg id="graph" class="graph">
<g id="viewport">
<title>SecurityLayer::layerCompleted</title>
<!-- Node1 -->
<g id="Node000001" class="node">
<title>Node1</title>
<g id="a_Node000001"><a xlink:title="Emitted when the user successfully completes the security challenge presented by this layer.">
<polygon fill="#999999" stroke="#666666" points="736,-207.5 587.25,-207.5 587.25,-189 736,-189 736,-207.5"/>
<text text-anchor="middle" x="661.62" y="-194" font-family="Helvetica,sans-Serif" font-size="10.00">SecurityLayer::layerCompleted</text>
</a>
</g>
</g>
<!-- Node2 -->
<g id="Node000002" class="node">
<title>Node2</title>
<g id="a_Node000002"><a xlink:href="classSecurityQuestionLayer.html#aa5b46caeaad623e6486e0817266fe213" target="_top" xlink:title="Checks the security answer (always accepts in this implementation). Called when the user presses Ente...">
<polygon fill="white" stroke="#666666" points="528,-439.75 409.25,-439.75 409.25,-410.75 528,-410.75 528,-439.75"/>
<text text-anchor="start" x="417.25" y="-426.25" font-family="Helvetica,sans-Serif" font-size="10.00">SecurityQuestionLayer</text>
<text text-anchor="middle" x="468.62" y="-415.75" font-family="Helvetica,sans-Serif" font-size="10.00">::CheckSecurityAnswer</text>
</a>
</g>
</g>
<!-- Node1&#45;&gt;Node2 -->
<g id="edge1_Node000001_Node000002" class="edge">
<title>Node1&#45;&gt;Node2</title>
<g id="a_edge1_Node000001_Node000002"><a xlink:title=" ">
<path fill="none" stroke="#63b8ff" d="M654.87,-218.69C642.55,-258.73 609.91,-347.91 551.25,-397.25 544.49,-402.94 536.5,-407.49 528.22,-411.13"/>
<polygon fill="#63b8ff" stroke="#63b8ff" points="658.2,-219.76 657.67,-209.18 651.48,-217.78 658.2,-219.76"/>
</a>
</g>
</g>
<!-- Node4 -->
<g id="Node000004" class="node">
<title>Node4</title>
<g id="a_Node000004"><a xlink:href="classSecurityCodeLayer.html#ae952b967add30cb12c1a68adaaa3ec54" target="_top" xlink:title="Checks if the entered code matches the current security code. Called when all input fields are filled...">
<polygon fill="white" stroke="#666666" points="520.88,-387.75 416.38,-387.75 416.38,-358.75 520.88,-358.75 520.88,-387.75"/>
<text text-anchor="start" x="424.38" y="-374.25" font-family="Helvetica,sans-Serif" font-size="10.00">SecurityCodeLayer::</text>
<text text-anchor="middle" x="468.62" y="-363.75" font-family="Helvetica,sans-Serif" font-size="10.00">CheckSecurityCode</text>
</a>
</g>
</g>
<!-- Node1&#45;&gt;Node4 -->
<g id="edge3_Node000001_Node000004" class="edge">
<title>Node1&#45;&gt;Node4</title>
<g id="a_edge3_Node000001_Node000004"><a xlink:title=" ">
<path fill="none" stroke="#63b8ff" d="M649.83,-217.67C632.51,-247.27 595.88,-303.87 551.25,-338.25 540.62,-346.44 527.79,-353.1 515.48,-358.33"/>
<polygon fill="#63b8ff" stroke="#63b8ff" points="652.83,-219.48 654.75,-209.06 646.75,-216.01 652.83,-219.48"/>
</a>
</g>
</g>
<!-- Node7 -->
<g id="Node000007" class="node">
<title>Node7</title>
<g id="a_Node000007"><a xlink:href="classSnakeGameLayer.html#af2e6b78d4d5f24e0df450f63b378392a" target="_top" xlink:title="Handles the end of the game (success or failure). Stops timers. On success, updates UI to green,...">
<polygon fill="white" stroke="#666666" points="544.12,-329.5 393.12,-329.5 393.12,-311 544.12,-311 544.12,-329.5"/>
<text text-anchor="middle" x="468.62" y="-316" font-family="Helvetica,sans-Serif" font-size="10.00">SnakeGameLayer::FinishGame</text>
</a>
</g>
</g>
<!-- Node1&#45;&gt;Node7 -->
<g id="edge6_Node000001_Node000007" class="edge">
<title>Node1&#45;&gt;Node7</title>
<g id="a_edge6_Node000001_Node000007"><a xlink:title=" ">
<path fill="none" stroke="#63b8ff" d="M640.96,-215.14C619.71,-232.9 584.43,-261.02 551.25,-281.25 532.48,-292.69 509.82,-303.29 493.15,-310.53"/>
<polygon fill="#63b8ff" stroke="#63b8ff" points="643.14,-217.87 648.52,-208.75 638.62,-212.53 643.14,-217.87"/>
</a>
</g>
</g>
<!-- Node11 -->
<g id="Node000011" class="node">
<title>Node11</title>
<g id="a_Node000011"><a xlink:href="classVoiceRecognitionLayer.html#ae8357c2294de9d555370995ae5e0c30e" target="_top" xlink:title="Slot called when the recognition process completes (either by progress reaching 100% or recognition_t...">
<polygon fill="white" stroke="#666666" points="525.75,-271.75 411.5,-271.75 411.5,-242.75 525.75,-242.75 525.75,-271.75"/>
<text text-anchor="start" x="419.5" y="-258.25" font-family="Helvetica,sans-Serif" font-size="10.00">VoiceRecognitionLayer</text>
<text text-anchor="middle" x="468.62" y="-247.75" font-family="Helvetica,sans-Serif" font-size="10.00">::FinishRecognition</text>
</a>
</g>
</g>
<!-- Node1&#45;&gt;Node11 -->
<g id="edge9_Node000001_Node000011" class="edge">
<title>Node1&#45;&gt;Node11</title>
<g id="a_edge9_Node000001_Node000011"><a xlink:title=" ">
<path fill="none" stroke="#63b8ff" d="M618.25,-211.34C588.61,-220.49 548.95,-232.75 518.06,-242.29"/>
<polygon fill="#63b8ff" stroke="#63b8ff" points="619.12,-214.73 627.64,-208.44 617.05,-208.05 619.12,-214.73"/>
</a>
</g>
</g>
<!-- Node14 -->
<g id="Node000014" class="node">
<title>Node14</title>
<g id="a_Node000014"><a xlink:href="classRetinaScanLayer.html#a6b4dfb9d13e9c9e6328441272084276a" target="_top" xlink:title="Slot called when the scan completes (either by timer or scanline finishing). Changes the UI element s...">
<polygon fill="white" stroke="#666666" points="540.75,-207.5 396.5,-207.5 396.5,-189 540.75,-189 540.75,-207.5"/>
<text text-anchor="middle" x="468.62" y="-194" font-family="Helvetica,sans-Serif" font-size="10.00">RetinaScanLayer::FinishScan</text>
</a>
</g>
</g>
<!-- Node1&#45;&gt;Node14 -->
<g id="edge13_Node000001_Node000014" class="edge">
<title>Node1&#45;&gt;Node14</title>
<g id="a_edge13_Node000001_Node000014"><a xlink:title=" ">
<path fill="none" stroke="#63b8ff" d="M575.4,-198.25C563.94,-198.25 552.27,-198.25 541.08,-198.25"/>
<polygon fill="#63b8ff" stroke="#63b8ff" points="575.27,-201.75 585.27,-198.25 575.27,-194.75 575.27,-201.75"/>
</a>
</g>
</g>
<!-- Node17 -->
<g id="Node000017" class="node">
<title>Node17</title>
<g id="a_Node000017"><a xlink:href="classTypingTestLayer.html#ac3e556568f03d6283a4749ea641d8354" target="_top" xlink:title="Slot called when the text in the hidden_input_ field changes. Validates the entered text against the ...">
<polygon fill="white" stroke="#666666" points="549.75,-168.5 387.5,-168.5 387.5,-150 549.75,-150 549.75,-168.5"/>
<text text-anchor="middle" x="468.62" y="-155" font-family="Helvetica,sans-Serif" font-size="10.00">TypingTestLayer::OnTextChanged</text>
</a>
</g>
</g>
<!-- Node1&#45;&gt;Node17 -->
<g id="edge17_Node000001_Node000017" class="edge">
<title>Node1&#45;&gt;Node17</title>
<g id="a_edge17_Node000001_Node000017"><a xlink:title=" ">
<path fill="none" stroke="#63b8ff" d="M601.96,-186.27C574.71,-180.71 542.74,-174.18 517.05,-168.93"/>
<polygon fill="#63b8ff" stroke="#63b8ff" points="600.94,-189.64 611.44,-188.21 602.34,-182.78 600.94,-189.64"/>
</a>
</g>
</g>
<!-- Node19 -->
<g id="Node000019" class="node">
<title>Node19</title>
<g id="a_Node000019"><a xlink:href="classFingerprintLayer.html#a8010338395204b1737a32235a799a1e1" target="_top" xlink:title="Handles the completion of the fingerprint scan. Changes the UI element styles (border,...">
<polygon fill="white" stroke="#666666" points="532.5,-126.75 404.75,-126.75 404.75,-97.75 532.5,-97.75 532.5,-126.75"/>
<text text-anchor="start" x="412.75" y="-113.25" font-family="Helvetica,sans-Serif" font-size="10.00">FingerprintLayer::Process</text>
<text text-anchor="middle" x="468.62" y="-102.75" font-family="Helvetica,sans-Serif" font-size="10.00">Fingerprint</text>
</a>
</g>
</g>
<!-- Node1&#45;&gt;Node19 -->
<g id="edge19_Node000001_Node000019" class="edge">
<title>Node1&#45;&gt;Node19</title>
<g id="a_edge19_Node000001_Node000019"><a xlink:title=" ">
<path fill="none" stroke="#63b8ff" d="M634.08,-183.09C612.24,-170.94 580.27,-153.89 551.25,-141.25 539.67,-136.2 526.9,-131.35 514.97,-127.1"/>
<polygon fill="#63b8ff" stroke="#63b8ff" points="632.18,-186.03 642.61,-187.88 635.6,-179.93 632.18,-186.03"/>
</a>
</g>
</g>
<!-- Node22 -->
<g id="Node000022" class="node">
<title>Node22</title>
<g id="a_Node000022"><a xlink:href="classHandprintLayer.html#a8bfdc6419e93709149f942109421218b" target="_top" xlink:title="Handles the completion of the handprint scan. Changes the UI element styles (border,...">
<polygon fill="white" stroke="#666666" points="551.25,-69.5 386,-69.5 386,-51 551.25,-51 551.25,-69.5"/>
<text text-anchor="middle" x="468.62" y="-56" font-family="Helvetica,sans-Serif" font-size="10.00">HandprintLayer::ProcessHandprint</text>
</a>
</g>
</g>
<!-- Node1&#45;&gt;Node22 -->
<g id="edge22_Node000001_Node000022" class="edge">
<title>Node1&#45;&gt;Node22</title>
<g id="a_edge22_Node000001_Node000022"><a xlink:title=" ">
<path fill="none" stroke="#63b8ff" d="M646.59,-179.89C627.43,-155.97 590.91,-114.26 551.25,-89.25 538.02,-80.91 522.07,-74.56 507.79,-69.96"/>
<polygon fill="#63b8ff" stroke="#63b8ff" points="643.62,-181.78 652.55,-187.49 649.13,-177.46 643.62,-181.78"/>
</a>
</g>
</g>
<!-- Node25 -->
<g id="Node000025" class="node">
<title>Node25</title>
<g id="a_Node000025"><a xlink:href="classSettingsView.html#a1e089a2a90ea4b3e13e3a06c99933c39" target="_top" xlink:title="Creates and configures the &quot;CLASSIFIED&quot; tab. Sets up the stacked widget containing all the security l...">
<polygon fill="white" stroke="#666666" points="550.5,-32.5 386.75,-32.5 386.75,-14 550.5,-14 550.5,-32.5"/>
<text text-anchor="middle" x="468.62" y="-19" font-family="Helvetica,sans-Serif" font-size="10.00">SettingsView::SetupClassifiedTab</text>
</a>
</g>
</g>
<!-- Node1&#45;&gt;Node25 -->
<g id="edge25_Node000001_Node000025" class="edge">
<title>Node1&#45;&gt;Node25</title>
<g id="a_edge25_Node000001_Node000025"><a xlink:title=" ">
<path fill="none" stroke="#63b8ff" d="M652.45,-178.36C637.56,-144.76 602.74,-77.03 551.25,-42.25 545.58,-38.42 539.25,-35.36 532.67,-32.91"/>
<polygon fill="#63b8ff" stroke="#63b8ff" points="649.13,-179.51 656.28,-187.32 655.56,-176.75 649.13,-179.51"/>
</a>
</g>
</g>
<!-- Node3 -->
<g id="Node000003" class="node">
<title>Node3</title>
<g id="a_Node000003"><a xlink:href="classSecurityQuestionLayer.html#a538c6acd1a8bcc50dd1502a7110a2603" target="_top" xlink:title="Constructs a SecurityQuestionLayer. Initializes the UI elements (title, instructions,...">
<polygon fill="white" stroke="#666666" points="331.25,-445.75 211,-445.75 211,-416.75 331.25,-416.75 331.25,-445.75"/>
<text text-anchor="start" x="219" y="-432.25" font-family="Helvetica,sans-Serif" font-size="10.00">SecurityQuestionLayer</text>
<text text-anchor="middle" x="271.12" y="-421.75" font-family="Helvetica,sans-Serif" font-size="10.00">::SecurityQuestionLayer</text>
</a>
</g>
</g>
<!-- Node2&#45;&gt;Node3 -->
<g id="edge2_Node000002_Node000003" class="edge">
<title>Node2&#45;&gt;Node3</title>
<g id="a_edge2_Node000002_Node000003"><a xlink:title=" ">
<path fill="none" stroke="#63b8ff" d="M397.52,-427.4C375.87,-428.07 352.26,-428.79 331.42,-429.43"/>
<polygon fill="#63b8ff" stroke="#63b8ff" points="397.57,-430.9 407.46,-427.1 397.35,-423.91 397.57,-430.9"/>
</a>
</g>
</g>
<!-- Node5 -->
<g id="Node000005" class="node">
<title>Node5</title>
<g id="a_Node000005"><a xlink:href="classSecurityCodeLayer.html#ab9379c05ccc6373b0611fbb64502e074" target="_top" xlink:title="Slot called when the text in any input field changes. Handles automatic focus progression to the next...">
<polygon fill="white" stroke="#666666" points="323.38,-398.75 218.88,-398.75 218.88,-369.75 323.38,-369.75 323.38,-398.75"/>
<text text-anchor="start" x="226.88" y="-385.25" font-family="Helvetica,sans-Serif" font-size="10.00">SecurityCodeLayer::</text>
<text text-anchor="middle" x="271.12" y="-374.75" font-family="Helvetica,sans-Serif" font-size="10.00">OnDigitEntered</text>
</a>
</g>
</g>
<!-- Node4&#45;&gt;Node5 -->
<g id="edge4_Node000004_Node000005" class="edge">
<title>Node4&#45;&gt;Node5</title>
<g id="a_edge4_Node000004_Node000005"><a xlink:title=" ">
<path fill="none" stroke="#63b8ff" d="M404.67,-376.79C378.51,-378.26 348.52,-379.95 323.7,-381.35"/>
<polygon fill="#63b8ff" stroke="#63b8ff" points="404.71,-380.3 414.49,-376.24 404.31,-373.31 404.71,-380.3"/>
</a>
</g>
</g>
<!-- Node6 -->
<g id="Node000006" class="node">
<title>Node6</title>
<g id="a_Node000006"><a xlink:href="classSecurityCodeLayer.html#ac8d540d84842278f2a8b55710743fb09" target="_top" xlink:title="Constructs a SecurityCodeLayer. Initializes the UI elements (title, instructions, input fields,...">
<polygon fill="white" stroke="#666666" points="130.38,-398.75 25.88,-398.75 25.88,-369.75 130.38,-369.75 130.38,-398.75"/>
<text text-anchor="start" x="33.88" y="-385.25" font-family="Helvetica,sans-Serif" font-size="10.00">SecurityCodeLayer::</text>
<text text-anchor="middle" x="78.12" y="-374.75" font-family="Helvetica,sans-Serif" font-size="10.00">SecurityCodeLayer</text>
</a>
</g>
</g>
<!-- Node5&#45;&gt;Node6 -->
<g id="edge5_Node000005_Node000006" class="edge">
<title>Node5&#45;&gt;Node6</title>
<g id="a_edge5_Node000005_Node000006"><a xlink:title=" ">
<path fill="none" stroke="#63b8ff" d="M206.98,-384.25C182.29,-384.25 154.32,-384.25 130.85,-384.25"/>
<polygon fill="#63b8ff" stroke="#63b8ff" points="206.92,-387.75 216.92,-384.25 206.92,-380.75 206.92,-387.75"/>
</a>
</g>
</g>
<!-- Node8 -->
<g id="Node000008" class="node">
<title>Node8</title>
<g id="a_Node000008"><a xlink:href="classSnakeGameLayer.html#a2b11869c78eead91d7124948615fea73" target="_top" xlink:title="Moves the snake one step in the current direction_. Calculates the new head position,...">
<polygon fill="white" stroke="#666666" points="345.5,-351.5 196.75,-351.5 196.75,-333 345.5,-333 345.5,-351.5"/>
<text text-anchor="middle" x="271.12" y="-338" font-family="Helvetica,sans-Serif" font-size="10.00">SnakeGameLayer::MoveSnake</text>
</a>
</g>
</g>
<!-- Node7&#45;&gt;Node8 -->
<g id="edge7_Node000007_Node000008" class="edge">
<title>Node7&#45;&gt;Node8</title>
<g id="a_edge7_Node000007_Node000008"><a xlink:title=" ">
<path fill="none" stroke="#63b8ff" d="M381.56,-329.94C369.65,-331.27 357.52,-332.64 345.86,-333.95"/>
<polygon fill="#63b8ff" stroke="#63b8ff" points="381.83,-333.43 391.37,-328.83 381.05,-326.47 381.83,-333.43"/>
</a>
</g>
</g>
<!-- Node9 -->
<g id="Node000009" class="node">
<title>Node9</title>
<g id="a_Node000009"><a xlink:href="classSnakeGameLayer.html#a602655706fe1871a80f00e427d0bfb48" target="_top" xlink:title="Slot called periodically by game_timer_ to update the game state. Calls MoveSnake() if the game is no...">
<polygon fill="#fff0f0" stroke="red" points="156.25,-351.5 0,-351.5 0,-333 156.25,-333 156.25,-351.5"/>
<text text-anchor="middle" x="78.12" y="-338" font-family="Helvetica,sans-Serif" font-size="10.00">SnakeGameLayer::UpdateGame</text>
</a>
</g>
</g>
<!-- Node8&#45;&gt;Node9 -->
<g id="edge8_Node000008_Node000009" class="edge">
<title>Node8&#45;&gt;Node9</title>
<g id="a_edge8_Node000008_Node000009"><a xlink:title=" ">
<path fill="none" stroke="#63b8ff" d="M184.87,-342.25C175.45,-342.25 165.89,-342.25 156.57,-342.25"/>
<polygon fill="#63b8ff" stroke="#63b8ff" points="184.77,-345.75 194.77,-342.25 184.77,-338.75 184.77,-345.75"/>
</a>
</g>
</g>
<!-- Node12 -->
<g id="Node000012" class="node">
<title>Node12</title>
<g id="a_Node000012"><a xlink:href="classVoiceRecognitionLayer.html#a49b97cb50c3d5533e70b68d0af5258c5" target="_top" xlink:title="Slot called periodically by progress_timer_ to update the recognition progress bar....">
<polygon fill="white" stroke="#666666" points="328.25,-314.75 214,-314.75 214,-285.75 328.25,-285.75 328.25,-314.75"/>
<text text-anchor="start" x="222" y="-301.25" font-family="Helvetica,sans-Serif" font-size="10.00">VoiceRecognitionLayer</text>
<text text-anchor="middle" x="271.12" y="-290.75" font-family="Helvetica,sans-Serif" font-size="10.00">::UpdateProgress</text>
</a>
</g>
</g>
<!-- Node11&#45;&gt;Node12 -->
<g id="edge10_Node000011_Node000012" class="edge">
<title>Node11&#45;&gt;Node12</title>
<g id="a_edge10_Node000011_Node000012"><a xlink:title=" ">
<path fill="none" stroke="#63b8ff" d="M399.88,-272.15C376.61,-277.27 350.82,-282.94 328.54,-287.84"/>
<polygon fill="#63b8ff" stroke="#63b8ff" points="400.59,-275.58 409.6,-270.01 399.08,-268.74 400.59,-275.58"/>
</a>
</g>
</g>
<!-- Node13 -->
<g id="Node000013" class="node">
<title>Node13</title>
<g id="a_Node000013"><a xlink:href="classVoiceRecognitionLayer.html#afe92e691948df9da5e2da29444995f99" target="_top" xlink:title="Constructs a VoiceRecognitionLayer. Initializes the UI elements (title, audio visualizer,...">
<polygon fill="white" stroke="#666666" points="138.25,-292.75 18,-292.75 18,-263.75 138.25,-263.75 138.25,-292.75"/>
<text text-anchor="start" x="26" y="-279.25" font-family="Helvetica,sans-Serif" font-size="10.00">VoiceRecognitionLayer</text>
<text text-anchor="middle" x="78.12" y="-268.75" font-family="Helvetica,sans-Serif" font-size="10.00">::VoiceRecognitionLayer</text>
</a>
</g>
</g>
<!-- Node11&#45;&gt;Node13 -->
<g id="edge12_Node000011_Node000013" class="edge">
<title>Node11&#45;&gt;Node13</title>
<g id="a_edge12_Node000011_Node000013"><a xlink:title=" ">
<path fill="none" stroke="#63b8ff" d="M399.66,-260.92C325.78,-264.92 208.9,-271.24 138.55,-275.04"/>
<polygon fill="#63b8ff" stroke="#63b8ff" points="399.83,-264.42 409.62,-260.39 399.45,-257.43 399.83,-264.42"/>
</a>
</g>
</g>
<!-- Node12&#45;&gt;Node13 -->
<g id="edge11_Node000012_Node000013" class="edge">
<title>Node12&#45;&gt;Node13</title>
<g id="a_edge11_Node000012_Node000013"><a xlink:title=" ">
<path fill="none" stroke="#63b8ff" d="M202.25,-292.43C181.44,-290.03 158.7,-287.42 138.5,-285.09"/>
<polygon fill="#63b8ff" stroke="#63b8ff" points="201.76,-295.9 212.09,-293.57 202.56,-288.94 201.76,-295.9"/>
</a>
</g>
</g>
<!-- Node15 -->
<g id="Node000015" class="node">
<title>Node15</title>
<g id="a_Node000015"><a xlink:href="classRetinaScanLayer.html#a967482762796522d275e6ed7f40d1c7f" target="_top" xlink:title="Constructs a RetinaScanLayer. Initializes the UI elements (title, eye image container,...">
<polygon fill="white" stroke="#666666" points="151,-214.75 5.25,-214.75 5.25,-185.75 151,-185.75 151,-214.75"/>
<text text-anchor="start" x="13.25" y="-201.25" font-family="Helvetica,sans-Serif" font-size="10.00">RetinaScanLayer::RetinaScan</text>
<text text-anchor="middle" x="78.12" y="-190.75" font-family="Helvetica,sans-Serif" font-size="10.00">Layer</text>
</a>
</g>
</g>
<!-- Node14&#45;&gt;Node15 -->
<g id="edge14_Node000014_Node000015" class="edge">
<title>Node14&#45;&gt;Node15</title>
<g id="a_edge14_Node000014_Node000015"><a xlink:title=" ">
<path fill="none" stroke="#63b8ff" d="M384.93,-199.83C373.21,-200.01 361.3,-200.15 350,-200.25 282.64,-200.82 205.85,-200.75 151.27,-200.58"/>
<polygon fill="#63b8ff" stroke="#63b8ff" points="384.64,-203.34 394.58,-199.68 384.53,-196.34 384.64,-203.34"/>
</a>
</g>
</g>
<!-- Node16 -->
<g id="Node000016" class="node">
<title>Node16</title>
<g id="a_Node000016"><a xlink:href="classRetinaScanLayer.html#a52b3474809f40e8accf0e6f50d3c52f6" target="_top" xlink:title="Slot called periodically by scan_timer_ to update the scan animation. Increments the progress bar,...">
<polygon fill="white" stroke="#666666" points="345.88,-191.5 196.38,-191.5 196.38,-173 345.88,-173 345.88,-191.5"/>
<text text-anchor="middle" x="271.12" y="-178" font-family="Helvetica,sans-Serif" font-size="10.00">RetinaScanLayer::UpdateScan</text>
</a>
</g>
</g>
<!-- Node14&#45;&gt;Node16 -->
<g id="edge15_Node000014_Node000016" class="edge">
<title>Node14&#45;&gt;Node16</title>
<g id="a_edge15_Node000014_Node000016"><a xlink:title=" ">
<path fill="none" stroke="#63b8ff" d="M385.03,-191.49C372.17,-190.44 358.95,-189.36 346.3,-188.32"/>
<polygon fill="#63b8ff" stroke="#63b8ff" points="384.45,-194.95 394.71,-192.28 385.03,-187.98 384.45,-194.95"/>
</a>
</g>
</g>
<!-- Node16&#45;&gt;Node15 -->
<g id="edge16_Node000016_Node000015" class="edge">
<title>Node16&#45;&gt;Node15</title>
<g id="a_edge16_Node000016_Node000015"><a xlink:title=" ">
<path fill="none" stroke="#63b8ff" d="M184.89,-190.28C173.68,-191.34 162.28,-192.41 151.32,-193.45"/>
<polygon fill="#63b8ff" stroke="#63b8ff" points="184.87,-193.8 194.5,-189.38 184.21,-186.83 184.87,-193.8"/>
</a>
</g>
</g>
<!-- Node18 -->
<g id="Node000018" class="node">
<title>Node18</title>
<g id="a_Node000018"><a xlink:href="classTypingTestLayer.html#a0e7b55d536094d7b8eb20c03d8662a85" target="_top" xlink:title="Constructs a TypingTestLayer. Initializes the UI elements (title, instructions, text display panel,...">
<polygon fill="white" stroke="#666666" points="341,-154.75 201.25,-154.75 201.25,-125.75 341,-125.75 341,-154.75"/>
<text text-anchor="start" x="209.25" y="-141.25" font-family="Helvetica,sans-Serif" font-size="10.00">TypingTestLayer::TypingTest</text>
<text text-anchor="middle" x="271.12" y="-130.75" font-family="Helvetica,sans-Serif" font-size="10.00">Layer</text>
</a>
</g>
</g>
<!-- Node17&#45;&gt;Node18 -->
<g id="edge18_Node000017_Node000018" class="edge">
<title>Node17&#45;&gt;Node18</title>
<g id="a_edge18_Node000017_Node000018"><a xlink:title=" ">
<path fill="none" stroke="#63b8ff" d="M376.09,-150.35C364.37,-149.21 352.53,-148.06 341.25,-146.97"/>
<polygon fill="#63b8ff" stroke="#63b8ff" points="375.46,-153.81 385.75,-151.29 376.14,-146.84 375.46,-153.81"/>
</a>
</g>
</g>
<!-- Node20 -->
<g id="Node000020" class="node">
<title>Node20</title>
<g id="a_Node000020"><a xlink:href="classFingerprintLayer.html#ac63e2235cb171874d2647bd8dbf9d5cd" target="_top" xlink:title="Slot called periodically by fingerprint_timer_ when the user is holding the mouse button....">
<polygon fill="white" stroke="#666666" points="332.75,-107.75 209.5,-107.75 209.5,-78.75 332.75,-78.75 332.75,-107.75"/>
<text text-anchor="start" x="217.5" y="-94.25" font-family="Helvetica,sans-Serif" font-size="10.00">FingerprintLayer::Update</text>
<text text-anchor="middle" x="271.12" y="-83.75" font-family="Helvetica,sans-Serif" font-size="10.00">Progress</text>
</a>
</g>
</g>
<!-- Node19&#45;&gt;Node20 -->
<g id="edge20_Node000019_Node000020" class="edge">
<title>Node19&#45;&gt;Node20</title>
<g id="a_edge20_Node000019_Node000020"><a xlink:title=" ">
<path fill="none" stroke="#63b8ff" d="M393.24,-105.02C373.38,-103.09 352.16,-101.03 333.11,-99.18"/>
<polygon fill="#63b8ff" stroke="#63b8ff" points="392.62,-108.48 402.92,-105.96 393.3,-101.51 392.62,-108.48"/>
</a>
</g>
</g>
<!-- Node21 -->
<g id="Node000021" class="node">
<title>Node21</title>
<g id="a_Node000021"><a xlink:href="classFingerprintLayer.html#ac3c17d23030e0f5de68c4c4472692559" target="_top" xlink:title="Constructs a FingerprintLayer. Initializes the UI elements (title, fingerprint image label,...">
<polygon fill="white" stroke="#666666" points="147.25,-112.75 9,-112.75 9,-83.75 147.25,-83.75 147.25,-112.75"/>
<text text-anchor="start" x="17" y="-99.25" font-family="Helvetica,sans-Serif" font-size="10.00">FingerprintLayer::Fingerprint</text>
<text text-anchor="middle" x="78.12" y="-88.75" font-family="Helvetica,sans-Serif" font-size="10.00">Layer</text>
</a>
</g>
</g>
<!-- Node20&#45;&gt;Node21 -->
<g id="edge21_Node000020_Node000021" class="edge">
<title>Node20&#45;&gt;Node21</title>
<g id="a_edge21_Node000020_Node000021"><a xlink:title=" ">
<path fill="none" stroke="#63b8ff" d="M197.9,-95.14C181.36,-95.57 163.83,-96.03 147.46,-96.46"/>
<polygon fill="#63b8ff" stroke="#63b8ff" points="197.75,-98.65 207.65,-94.89 197.57,-91.65 197.75,-98.65"/>
</a>
</g>
</g>
<!-- Node23 -->
<g id="Node000023" class="node">
<title>Node23</title>
<g id="a_Node000023"><a xlink:href="classHandprintLayer.html#a7153d3b1fcc6d838df1f335be5f124d4" target="_top" xlink:title="Slot called periodically by handprint_timer_ when the user is holding the mouse button....">
<polygon fill="white" stroke="#666666" points="350,-60.5 192.25,-60.5 192.25,-42 350,-42 350,-60.5"/>
<text text-anchor="middle" x="271.12" y="-47" font-family="Helvetica,sans-Serif" font-size="10.00">HandprintLayer::UpdateProgress</text>
</a>
</g>
</g>
<!-- Node22&#45;&gt;Node23 -->
<g id="edge23_Node000022_Node000023" class="edge">
<title>Node22&#45;&gt;Node23</title>
<g id="a_edge23_Node000022_Node000023"><a xlink:title=" ">
<path fill="none" stroke="#63b8ff" d="M374.25,-55.95C366.21,-55.58 358.13,-55.21 350.23,-54.85"/>
<polygon fill="#63b8ff" stroke="#63b8ff" points="373.9,-59.44 384.05,-56.4 374.22,-52.45 373.9,-59.44"/>
</a>
</g>
</g>
<!-- Node24 -->
<g id="Node000024" class="node">
<title>Node24</title>
<g id="a_Node000024"><a xlink:href="classHandprintLayer.html#a8ad520d9a942969b2095fdad95a0c989" target="_top" xlink:title="Constructs a HandprintLayer. Initializes the UI elements (title, handprint image label,...">
<polygon fill="white" stroke="#666666" points="142.75,-65.75 13.5,-65.75 13.5,-36.75 142.75,-36.75 142.75,-65.75"/>
<text text-anchor="start" x="21.5" y="-52.25" font-family="Helvetica,sans-Serif" font-size="10.00">HandprintLayer::Handprint</text>
<text text-anchor="middle" x="78.12" y="-41.75" font-family="Helvetica,sans-Serif" font-size="10.00">Layer</text>
</a>
</g>
</g>
<!-- Node23&#45;&gt;Node24 -->
<g id="edge24_Node000023_Node000024" class="edge">
<title>Node23&#45;&gt;Node24</title>
<g id="a_edge24_Node000023_Node000024"><a xlink:title=" ">
<path fill="none" stroke="#63b8ff" d="M180.74,-51.25C167.99,-51.25 155.09,-51.25 142.96,-51.25"/>
<polygon fill="#63b8ff" stroke="#63b8ff" points="180.37,-54.75 190.37,-51.25 180.37,-47.75 180.37,-54.75"/>
</a>
</g>
</g>
<!-- Node26 -->
<g id="Node000026" class="node">
<title>Node26</title>
<g id="a_Node000026"><a xlink:href="classSettingsView.html#a88aeaa2ebb222180310ba66f0dba95d5" target="_top" xlink:title="Creates and arranges the main UI elements of the SettingsView. Sets up the main layout,...">
<polygon fill="white" stroke="#666666" points="328.25,-21.5 214,-21.5 214,-3 328.25,-3 328.25,-21.5"/>
<text text-anchor="middle" x="271.12" y="-8" font-family="Helvetica,sans-Serif" font-size="10.00">SettingsView::SetupUi</text>
</a>
</g>
</g>
<!-- Node25&#45;&gt;Node26 -->
<g id="edge26_Node000025_Node000026" class="edge">
<title>Node25&#45;&gt;Node26</title>
<g id="a_edge26_Node000025_Node000026"><a xlink:title=" ">
<path fill="none" stroke="#63b8ff" d="M374.96,-18.04C359.16,-17.15 343.18,-16.25 328.68,-15.43"/>
<polygon fill="#63b8ff" stroke="#63b8ff" points="374.72,-21.53 384.9,-18.6 375.12,-14.54 374.72,-21.53"/>
</a>
</g>
</g>
<!-- Node27 -->
<g id="Node000027" class="node">
<title>Node27</title>
<g id="a_Node000027"><a xlink:href="classSettingsView.html#a4b22f39018ca1c051b4d88f6d2636683" target="_top" xlink:title="Constructs the SettingsView. Initializes the UI, sets up all tabs including the security layers for t...">
<polygon fill="white" stroke="#666666" points="146.5,-18.5 9.75,-18.5 9.75,0 146.5,0 146.5,-18.5"/>
<text text-anchor="middle" x="78.12" y="-5" font-family="Helvetica,sans-Serif" font-size="10.00">SettingsView::SettingsView</text>
</a>
</g>
</g>
<!-- Node26&#45;&gt;Node27 -->
<g id="edge27_Node000026_Node000027" class="edge">
<title>Node26&#45;&gt;Node27</title>
<g id="a_edge27_Node000026_Node000027"><a xlink:title=" ">
<path fill="none" stroke="#63b8ff" d="M202.32,-11.19C184.35,-10.9 164.95,-10.6 146.98,-10.32"/>
<polygon fill="#63b8ff" stroke="#63b8ff" points="202.03,-14.68 212.08,-11.34 202.14,-7.68 202.03,-14.68"/>
</a>
</g>
</g>
</g>
</svg>

<g id="navigator" transform="translate(0 0)" fill="#404254">
  <rect fill="#f2f5e9" fill-opacity="0.5" stroke="#606060" stroke-width=".5" x="0" y="0" width="60" height="60"/>
  <use id="zoomplus" xlink:href="#zoomPlus" x="17" y="9" onmousedown="handleZoom(evt,'in')"/>
  <use id="zoomminus" xlink:href="#zoomMin" x="42" y="9" onmousedown="handleZoom(evt,'out')"/>
  <use id="reset" xlink:href="#resetDef" x="30" y="36" onmousedown="handleReset()"/>
   <use id="arrowup" xlink:href="#arrowUp" x="0" y="0" onmousedown="handlePan(0,-1)"/>
  <use id="arrowright" xlink:href="#arrowRight" x="0" y="0" onmousedown="handlePan(1,0)"/>
  <use id="arrowdown" xlink:href="#arrowDown" x="0" y="0" onmousedown="handlePan(0,1)"/>
  <use id="arrowleft" xlink:href="#arrowLeft" x="0" y="0" onmousedown="handlePan(-1,0)"/>
</g>
<svg viewBox="0 0 15 15" width="100%" height="30px" preserveAspectRatio="xMaxYMin meet">
 <g id="arrow_out" transform="scale(0.3 0.3)">
  <a xlink:href="classSecurityLayer_a6b6759d7fd1e729ff63ea9be3c121878_icgraph_org.svg" target="_base">
   <rect id="button" ry="5" rx="5" y="6" x="6" height="38" width="38"
        fill="#f2f5e9" fill-opacity="0.5" stroke="#606060" stroke-width="1.0"/>
   <path id="arrow"
     d="M 11.500037,31.436501 C 11.940474,20.09759 22.043105,11.32322 32.158766,21.979434 L 37.068811,17.246167 C 37.068811,17.246167 37.088388,32 37.088388,32 L 22.160133,31.978069 C 22.160133,31.978069 26.997745,27.140456 26.997745,27.140456 C 18.528582,18.264221 13.291696,25.230495 11.500037,31.436501 z"
     style="fill:#404040;"/>
  </a>
 </g>
</svg>

<style type='text/css'>
<![CDATA[
[data-mouse-over-selected='false'] { opacity: 0.7; }
[data-mouse-over-selected='true']  { opacity: 1.0; }
]]>
</style>
<script type="application/ecmascript"><![CDATA[
document.addEventListener('DOMContentLoaded', (event) => {
  highlightEdges();
  highlightAdjacentNodes();
});
]]></script>
</svg>
