<?xml version="1.0" encoding="UTF-8" standalone="no"?>
<!DOCTYPE svg PUBLIC "-//W3C//DTD SVG 1.1//EN"
 "http://www.w3.org/Graphics/SVG/1.1/DTD/svg11.dtd">
<!-- Generated by graphviz version 12.2.1 (0)
 -->
<!-- Title: TextDisplayEffect::StartReveal Pages: 1 -->
<!--zoomable 225 -->

<svg id="main" version="1.1" xmlns="http://www.w3.org/2000/svg" xmlns:xlink="http://www.w3.org/1999/xlink" xml:space="preserve" onload="init(evt)">

<style type="text/css"><![CDATA[
.node, .edge {opacity: 0.7;}
.node.selected, .edge.selected {opacity: 1;}
.edge:hover path { stroke: red; }
.edge:hover polygon { stroke: red; fill: red; }
]]></style>

<defs>
  <circle id="rim" cx="0" cy="0" r="7"/>
  <circle id="rim2" cx="0" cy="0" r="3.5"/>
  <g id="zoomPlus">
    <use xlink:href="#rim" fill="#404040"><set attributeName="fill" to="#808080" begin="zoomplus.mouseover" end="zoomplus.mouseout"/></use>
    <path d="M-4,0h8M0,-4v8" fill="none" stroke="white" stroke-width="1.5" pointer-events="none"/>
  </g>
  <g id="zoomMin">
    <use xlink:href="#rim" fill="#404040"><set attributeName="fill" to="#808080" begin="zoomminus.mouseover" end="zoomminus.mouseout"/></use>
    <path d="M-4,0h8" fill="none" stroke="white" stroke-width="1.5" pointer-events="none"/>
  </g>
  <g id="arrowUp" transform="translate(30 24)">
    <use xlink:href="#rim"/>
    <path pointer-events="none" fill="none" stroke="white" stroke-width="1.5" d="M0,-3.0v7 M-2.5,-0.5L0,-3.0L2.5,-0.5"/>
  </g>
  <g id="arrowRight" transform="rotate(90) translate(36 -43)">
    <use xlink:href="#rim"/>
    <path pointer-events="none" fill="none" stroke="white" stroke-width="1.5" d="M0,-3.0v7 M-2.5,-0.5L0,-3.0L2.5,-0.5"/>
  </g>
  <g id="arrowDown" transform="rotate(180) translate(-30 -48)">
    <use xlink:href="#rim"/>
    <path pointer-events="none" fill="none" stroke="white" stroke-width="1.5" d="M0,-3.0v7 M-2.5,-0.5L0,-3.0L2.5,-0.5"/>
  </g>
  <g id="arrowLeft" transform="rotate(270) translate(-36 17)">
    <use xlink:href="#rim"/>
    <path pointer-events="none" fill="none" stroke="white" stroke-width="1.5" d="M0,-3.0v7 M-2.5,-0.5L0,-3.0L2.5,-0.5"/>
  </g>
  <g id="resetDef">
    <use xlink:href="#rim2" fill="#404040"><set attributeName="fill" to="#808080" begin="reset.mouseover" end="reset.mouseout"/></use>
  </g>
</defs>
<script type="application/ecmascript">
var viewWidth = 608;
var viewHeight = 225;
var sectionId = 'dynsection-17';
</script>
<script type="application/ecmascript" xlink:href="svg.min.js"/>
<svg id="graph" class="graph">
<g id="viewport">
<title>TextDisplayEffect::StartReveal</title>
<!-- Node1 -->
<g id="Node000001" class="node">
<title>Node1</title>
<g id="a_Node000001"><a xlink:title="Starts or restarts the text revealing animation from the beginning. If the text has been fully reveal...">
<polygon fill="#999999" stroke="#666666" points="600.25,-102 501,-102 501,-73 600.25,-73 600.25,-102"/>
<text text-anchor="start" x="509" y="-88.5" font-family="Helvetica,sans-Serif" font-size="10.00">TextDisplayEffect::</text>
<text text-anchor="middle" x="550.62" y="-78" font-family="Helvetica,sans-Serif" font-size="10.00">StartReveal</text>
</a>
</g>
</g>
<!-- Node2 -->
<g id="Node000002" class="node">
<title>Node2</title>
<g id="a_Node000002"><a xlink:href="classStreamMessage.html#a34d536edeb897ec7e7c6cc1a4bd34e2e" target="_top" xlink:title="Starts the fade&#45;in animation (opacity and glow). Also triggers the text reveal animation (CyberTextDi...">
<polygon fill="white" stroke="#666666" points="465,-117.75 341.75,-117.75 341.75,-99.25 465,-99.25 465,-117.75"/>
<text text-anchor="middle" x="403.38" y="-104.25" font-family="Helvetica,sans-Serif" font-size="10.00">StreamMessage::FadeIn</text>
</a>
</g>
</g>
<!-- Node1&#45;&gt;Node2 -->
<g id="edge1_Node000001_Node000002" class="edge">
<title>Node1&#45;&gt;Node2</title>
<g id="a_edge1_Node000001_Node000002"><a xlink:title=" ">
<path fill="none" stroke="#63b8ff" d="M489.7,-96.16C481.68,-97.32 473.44,-98.51 465.4,-99.68"/>
<polygon fill="#63b8ff" stroke="#63b8ff" points="489.96,-99.66 499.36,-94.77 488.96,-92.73 489.96,-99.66"/>
</a>
</g>
</g>
<!-- Node11 -->
<g id="Node000011" class="node">
<title>Node11</title>
<g id="a_Node000011"><a xlink:href="classTextDisplayEffect.html#a08a497134c49a1068add82b03ea21712" target="_top" xlink:title="Sets new text content for the widget. Updates the internal text, removes HTML, recalculates required ...">
<polygon fill="white" stroke="#666666" points="453,-81 353.75,-81 353.75,-52 453,-52 453,-81"/>
<text text-anchor="start" x="361.75" y="-67.5" font-family="Helvetica,sans-Serif" font-size="10.00">TextDisplayEffect::</text>
<text text-anchor="middle" x="403.38" y="-57" font-family="Helvetica,sans-Serif" font-size="10.00">SetText</text>
</a>
</g>
</g>
<!-- Node1&#45;&gt;Node11 -->
<g id="edge8_Node000001_Node000011" class="edge">
<title>Node1&#45;&gt;Node11</title>
<g id="a_edge8_Node000001_Node000011"><a xlink:title=" ">
<path fill="none" stroke="#63b8ff" d="M489.48,-78.8C477.42,-77.06 464.89,-75.25 453.26,-73.57"/>
<polygon fill="#63b8ff" stroke="#63b8ff" points="488.96,-82.27 499.36,-80.23 489.96,-75.34 488.96,-82.27"/>
</a>
</g>
</g>
<!-- Node3 -->
<g id="Node000003" class="node">
<title>Node3</title>
<g id="a_Node000003"><a xlink:href="classCommunicationStream.html#aba44a533978e83748764534a8682c56f" target="_top" xlink:title="Displays the message at the specified index in the messages_ list. Hides the previously displayed mes...">
<polygon fill="white" stroke="#666666" points="305.75,-123 185.5,-123 185.5,-94 305.75,-94 305.75,-123"/>
<text text-anchor="start" x="193.5" y="-109.5" font-family="Helvetica,sans-Serif" font-size="10.00">CommunicationStream</text>
<text text-anchor="middle" x="245.62" y="-99" font-family="Helvetica,sans-Serif" font-size="10.00">::ShowMessageAtIndex</text>
</a>
</g>
</g>
<!-- Node2&#45;&gt;Node3 -->
<g id="edge2_Node000002_Node000003" class="edge">
<title>Node2&#45;&gt;Node3</title>
<g id="a_edge2_Node000002_Node000003"><a xlink:title=" ">
<path fill="none" stroke="#63b8ff" d="M330,-108.5C321.98,-108.5 313.87,-108.5 306.03,-108.5"/>
<polygon fill="#63b8ff" stroke="#63b8ff" points="329.75,-112 339.75,-108.5 329.75,-105 329.75,-112"/>
</a>
</g>
</g>
<!-- Node4 -->
<g id="Node000004" class="node">
<title>Node4</title>
<g id="a_Node000004"><a xlink:href="classCommunicationStream.html#ae3b9b361caa5123daac847c60475d605" target="_top" xlink:title="Adds a new standard message to the stream. Initiates the receiving animation. The message is displaye...">
<polygon fill="white" stroke="#666666" points="132.62,-217 16.88,-217 16.88,-188 132.62,-188 132.62,-217"/>
<text text-anchor="start" x="24.88" y="-203.5" font-family="Helvetica,sans-Serif" font-size="10.00">CommunicationStream</text>
<text text-anchor="middle" x="74.75" y="-193" font-family="Helvetica,sans-Serif" font-size="10.00">::AddMessage</text>
</a>
</g>
</g>
<!-- Node3&#45;&gt;Node4 -->
<g id="edge3_Node000003_Node000004" class="edge">
<title>Node3&#45;&gt;Node4</title>
<g id="a_edge3_Node000003_Node000004"><a xlink:title=" ">
<path fill="none" stroke="#63b8ff" d="M219.68,-130.85C201.35,-146.3 175.25,-166.36 149.5,-179.5 143.65,-182.49 137.33,-185.17 130.95,-187.56"/>
<polygon fill="#63b8ff" stroke="#63b8ff" points="221.81,-133.63 227.12,-124.45 217.25,-128.32 221.81,-133.63"/>
</a>
</g>
</g>
<!-- Node5 -->
<g id="Node000005" class="node">
<title>Node5</title>
<g id="a_Node000005"><a xlink:href="classCommunicationStream.html#a10a56a4dc3eeeaf4865d0f63f077e3bf" target="_top" xlink:title="Adds a new message with attachment content to the stream. Initiates the receiving animation....">
<polygon fill="white" stroke="#666666" points="149.5,-170 0,-170 0,-141 149.5,-141 149.5,-170"/>
<text text-anchor="start" x="8" y="-156.5" font-family="Helvetica,sans-Serif" font-size="10.00">CommunicationStream</text>
<text text-anchor="middle" x="74.75" y="-146" font-family="Helvetica,sans-Serif" font-size="10.00">::AddMessageWithAttachment</text>
</a>
</g>
</g>
<!-- Node3&#45;&gt;Node5 -->
<g id="edge4_Node000003_Node000005" class="edge">
<title>Node3&#45;&gt;Node5</title>
<g id="a_edge4_Node000003_Node000005"><a xlink:title=" ">
<path fill="none" stroke="#63b8ff" d="M180.34,-126.39C163.54,-131.07 145.6,-136.06 129.42,-140.56"/>
<polygon fill="#63b8ff" stroke="#63b8ff" points="181.04,-129.83 189.73,-123.78 179.16,-123.09 181.04,-129.83"/>
</a>
</g>
</g>
<!-- Node6 -->
<g id="Node000006" class="node">
<title>Node6</title>
<g id="a_Node000006"><a xlink:href="classCommunicationStream.html#a2283a11febe30f9d2d1887c2c20e7ea3" target="_top" xlink:title="Slot triggered when a StreamMessage widget finishes its hiding animation (or is hidden)....">
<polygon fill="#fff0f0" stroke="red" points="136.38,-123 13.12,-123 13.12,-94 136.38,-94 136.38,-123"/>
<text text-anchor="start" x="21.12" y="-109.5" font-family="Helvetica,sans-Serif" font-size="10.00">CommunicationStream</text>
<text text-anchor="middle" x="74.75" y="-99" font-family="Helvetica,sans-Serif" font-size="10.00">::HandleMessageHidden</text>
</a>
</g>
</g>
<!-- Node3&#45;&gt;Node6 -->
<g id="edge5_Node000003_Node000006" class="edge">
<title>Node3&#45;&gt;Node6</title>
<g id="a_edge5_Node000003_Node000006"><a xlink:title=" ">
<path fill="none" stroke="#63b8ff" d="M173.89,-108.5C161.55,-108.5 148.8,-108.5 136.75,-108.5"/>
<polygon fill="#63b8ff" stroke="#63b8ff" points="173.57,-112 183.57,-108.5 173.57,-105 173.57,-112"/>
</a>
</g>
</g>
<!-- Node8 -->
<g id="Node000008" class="node">
<title>Node8</title>
<g id="a_Node000008"><a xlink:href="classCommunicationStream.html#a600acedc2f4f586b28c147077f768438" target="_top" xlink:title="Shows the next message in the list, if available.">
<polygon fill="#fff0f0" stroke="red" points="132.62,-76 16.88,-76 16.88,-47 132.62,-47 132.62,-76"/>
<text text-anchor="start" x="24.88" y="-62.5" font-family="Helvetica,sans-Serif" font-size="10.00">CommunicationStream</text>
<text text-anchor="middle" x="74.75" y="-52" font-family="Helvetica,sans-Serif" font-size="10.00">::ShowNextMessage</text>
</a>
</g>
</g>
<!-- Node3&#45;&gt;Node8 -->
<g id="edge6_Node000003_Node000008" class="edge">
<title>Node3&#45;&gt;Node8</title>
<g id="a_edge6_Node000003_Node000008"><a xlink:title=" ">
<path fill="none" stroke="#63b8ff" d="M180.34,-90.61C163.54,-85.93 145.6,-80.94 129.42,-76.44"/>
<polygon fill="#63b8ff" stroke="#63b8ff" points="179.16,-93.91 189.73,-93.22 181.04,-87.17 179.16,-93.91"/>
</a>
</g>
</g>
<!-- Node10 -->
<g id="Node000010" class="node">
<title>Node10</title>
<g id="a_Node000010"><a xlink:href="classCommunicationStream.html#a918c54f07703dce3733f2aec5b09503d" target="_top" xlink:title="Shows the previous message in the list, if available.">
<polygon fill="#fff0f0" stroke="red" points="137.12,-29 12.38,-29 12.38,0 137.12,0 137.12,-29"/>
<text text-anchor="start" x="20.38" y="-15.5" font-family="Helvetica,sans-Serif" font-size="10.00">CommunicationStream</text>
<text text-anchor="middle" x="74.75" y="-5" font-family="Helvetica,sans-Serif" font-size="10.00">::ShowPreviousMessage</text>
</a>
</g>
</g>
<!-- Node3&#45;&gt;Node10 -->
<g id="edge7_Node000003_Node000010" class="edge">
<title>Node3&#45;&gt;Node10</title>
<g id="a_edge7_Node000003_Node000010"><a xlink:title=" ">
<path fill="none" stroke="#63b8ff" d="M219.24,-86.3C200.88,-71.16 174.93,-51.56 149.5,-38.5 142.91,-35.12 135.75,-32.08 128.57,-29.39"/>
<polygon fill="#63b8ff" stroke="#63b8ff" points="216.79,-88.82 226.7,-92.57 221.29,-83.46 216.79,-88.82"/>
</a>
</g>
</g>
</g>
</svg>

<g id="navigator" transform="translate(0 0)" fill="#404254">
  <rect fill="#f2f5e9" fill-opacity="0.5" stroke="#606060" stroke-width=".5" x="0" y="0" width="60" height="60"/>
  <use id="zoomplus" xlink:href="#zoomPlus" x="17" y="9" onmousedown="handleZoom(evt,'in')"/>
  <use id="zoomminus" xlink:href="#zoomMin" x="42" y="9" onmousedown="handleZoom(evt,'out')"/>
  <use id="reset" xlink:href="#resetDef" x="30" y="36" onmousedown="handleReset()"/>
   <use id="arrowup" xlink:href="#arrowUp" x="0" y="0" onmousedown="handlePan(0,-1)"/>
  <use id="arrowright" xlink:href="#arrowRight" x="0" y="0" onmousedown="handlePan(1,0)"/>
  <use id="arrowdown" xlink:href="#arrowDown" x="0" y="0" onmousedown="handlePan(0,1)"/>
  <use id="arrowleft" xlink:href="#arrowLeft" x="0" y="0" onmousedown="handlePan(-1,0)"/>
</g>
<svg viewBox="0 0 15 15" width="100%" height="30px" preserveAspectRatio="xMaxYMin meet">
 <g id="arrow_out" transform="scale(0.3 0.3)">
  <a xlink:href="classTextDisplayEffect_ad9da8cfd5969d6509d622fc708957fb3_icgraph_org.svg" target="_base">
   <rect id="button" ry="5" rx="5" y="6" x="6" height="38" width="38"
        fill="#f2f5e9" fill-opacity="0.5" stroke="#606060" stroke-width="1.0"/>
   <path id="arrow"
     d="M 11.500037,31.436501 C 11.940474,20.09759 22.043105,11.32322 32.158766,21.979434 L 37.068811,17.246167 C 37.068811,17.246167 37.088388,32 37.088388,32 L 22.160133,31.978069 C 22.160133,31.978069 26.997745,27.140456 26.997745,27.140456 C 18.528582,18.264221 13.291696,25.230495 11.500037,31.436501 z"
     style="fill:#404040;"/>
  </a>
 </g>
</svg>

<style type='text/css'>
<![CDATA[
[data-mouse-over-selected='false'] { opacity: 0.7; }
[data-mouse-over-selected='true']  { opacity: 1.0; }
]]>
</style>
<script type="application/ecmascript"><![CDATA[
document.addEventListener('DOMContentLoaded', (event) => {
  highlightEdges();
  highlightAdjacentNodes();
});
]]></script>
</svg>
