<?xml version="1.0" encoding="UTF-8" standalone="no"?>
<!DOCTYPE svg PUBLIC "-//W3C//DTD SVG 1.1//EN"
 "http://www.w3.org/Graphics/SVG/1.1/DTD/svg11.dtd">
<!-- Generated by graphviz version 12.2.1 (0)
 -->
<!-- Title: SessionCoordinator::onWavelengthCreated Pages: 1 -->
<svg width="596pt" height="131pt"
 viewBox="0.00 0.00 595.50 131.00" xmlns="http://www.w3.org/2000/svg" xmlns:xlink="http://www.w3.org/1999/xlink">
<g id="graph0" class="graph" transform="scale(1 1) rotate(0) translate(4 127)">
<title>SessionCoordinator::onWavelengthCreated</title>
<!-- Node1 -->
<g id="Node000001" class="node">
<title>Node1</title>
<g id="a_Node000001"><a xlink:title="Slot triggered when a wavelength is created. Relays the signal and publishes the event via Wavelength...">
<polygon fill="#999999" stroke="#666666" points="117.25,-76 0,-76 0,-47 117.25,-47 117.25,-76"/>
<text text-anchor="start" x="8" y="-62.5" font-family="Helvetica,sans-Serif" font-size="10.00">SessionCoordinator</text>
<text text-anchor="middle" x="58.62" y="-52" font-family="Helvetica,sans-Serif" font-size="10.00">::onWavelengthCreated</text>
</a>
</g>
</g>
<!-- Node2 -->
<g id="Node000002" class="node">
<title>Node2</title>
<g id="a_Node000002"><a xlink:href="classWavelengthEventBroker.html#ac5c82b2b8f57045b0700c350549a6b39" target="_top" xlink:title="Gets the singleton instance of the WavelengthEventBroker.">
<polygon fill="white" stroke="#666666" points="272,-123 153.25,-123 153.25,-94 272,-94 272,-123"/>
<text text-anchor="start" x="161.25" y="-109.5" font-family="Helvetica,sans-Serif" font-size="10.00">WavelengthEventBroker</text>
<text text-anchor="middle" x="212.62" y="-99" font-family="Helvetica,sans-Serif" font-size="10.00">::GetInstance</text>
</a>
</g>
</g>
<!-- Node1&#45;&gt;Node2 -->
<g id="edge1_Node000001_Node000002" class="edge">
<title>Node1&#45;&gt;Node2</title>
<g id="a_edge1_Node000001_Node000002"><a xlink:title=" ">
<path fill="none" stroke="#63b8ff" d="M107.72,-76.37C122,-80.79 137.8,-85.67 152.68,-90.27"/>
<polygon fill="#63b8ff" stroke="#63b8ff" points="151.29,-93.51 161.88,-93.12 153.36,-86.82 151.29,-93.51"/>
</a>
</g>
</g>
<!-- Node4 -->
<g id="Node000004" class="node">
<title>Node4</title>
<g id="a_Node000004"><a xlink:href="classWavelengthEventBroker.html#a9d17783d116d9732ded0fa0140d0bb11" target="_top" xlink:title="Publishes a &quot;wavelength_created&quot; event. Data: {&quot;frequency&quot;: QString}.">
<polygon fill="white" stroke="#666666" points="272,-76 153.25,-76 153.25,-47 272,-47 272,-76"/>
<text text-anchor="start" x="161.25" y="-62.5" font-family="Helvetica,sans-Serif" font-size="10.00">WavelengthEventBroker</text>
<text text-anchor="middle" x="212.62" y="-52" font-family="Helvetica,sans-Serif" font-size="10.00">::WavelengthCreated</text>
</a>
</g>
</g>
<!-- Node1&#45;&gt;Node4 -->
<g id="edge3_Node000001_Node000004" class="edge">
<title>Node1&#45;&gt;Node4</title>
<g id="a_edge3_Node000001_Node000004"><a xlink:title=" ">
<path fill="none" stroke="#63b8ff" d="M117.52,-61.5C125.39,-61.5 133.54,-61.5 141.59,-61.5"/>
<polygon fill="#63b8ff" stroke="#63b8ff" points="141.37,-65 151.37,-61.5 141.37,-58 141.37,-65"/>
</a>
</g>
</g>
<!-- Node7 -->
<g id="Node000007" class="node">
<title>Node7</title>
<g id="a_Node000007"><a xlink:href="classSessionCoordinator.html#a0cf6d25477b3c1ad8545aeffd67597f6" target="_top" xlink:title="Emitted when a wavelength is successfully created. Relayed from WavelengthCreator.">
<polygon fill="white" stroke="#666666" points="264.88,-29 160.38,-29 160.38,0 264.88,0 264.88,-29"/>
<text text-anchor="start" x="168.38" y="-15.5" font-family="Helvetica,sans-Serif" font-size="10.00">SessionCoordinator</text>
<text text-anchor="middle" x="212.62" y="-5" font-family="Helvetica,sans-Serif" font-size="10.00">::wavelengthCreated</text>
</a>
</g>
</g>
<!-- Node1&#45;&gt;Node7 -->
<g id="edge6_Node000001_Node000007" class="edge">
<title>Node1&#45;&gt;Node7</title>
<g id="a_edge6_Node000001_Node000007"><a xlink:title=" ">
<path fill="none" stroke="#63b8ff" d="M107.72,-46.63C122,-42.21 137.8,-37.33 152.68,-32.73"/>
<polygon fill="#63b8ff" stroke="#63b8ff" points="153.36,-36.18 161.88,-29.88 151.29,-29.49 153.36,-36.18"/>
</a>
</g>
</g>
<!-- Node3 -->
<g id="Node000003" class="node">
<title>Node3</title>
<g id="a_Node000003"><a xlink:href="classWavelengthEventBroker.html#abf06dfa4e2d26e0d3acd5c028be9eb31" target="_top" xlink:title="Private constructor to enforce the singleton pattern.">
<polygon fill="white" stroke="#666666" points="432.75,-123 308,-123 308,-94 432.75,-94 432.75,-123"/>
<text text-anchor="start" x="316" y="-109.5" font-family="Helvetica,sans-Serif" font-size="10.00">WavelengthEventBroker</text>
<text text-anchor="middle" x="370.38" y="-99" font-family="Helvetica,sans-Serif" font-size="10.00">::WavelengthEventBroker</text>
</a>
</g>
</g>
<!-- Node2&#45;&gt;Node3 -->
<g id="edge2_Node000002_Node000003" class="edge">
<title>Node2&#45;&gt;Node3</title>
<g id="a_edge2_Node000002_Node000003"><a xlink:title=" ">
<path fill="none" stroke="#63b8ff" d="M272.06,-108.5C279.98,-108.5 288.19,-108.5 296.33,-108.5"/>
<polygon fill="#63b8ff" stroke="#63b8ff" points="296.23,-112 306.23,-108.5 296.23,-105 296.23,-112"/>
</a>
</g>
</g>
<!-- Node5 -->
<g id="Node000005" class="node">
<title>Node5</title>
<g id="a_Node000005"><a xlink:href="classWavelengthEventBroker.html#ac664ef807bf6e0f08cf8e6435e7dbbc5" target="_top" xlink:title="Publishes an event of a specific type with associated data. Emits the eventPublished signal,...">
<polygon fill="white" stroke="#666666" points="429.75,-76 311,-76 311,-47 429.75,-47 429.75,-76"/>
<text text-anchor="start" x="319" y="-62.5" font-family="Helvetica,sans-Serif" font-size="10.00">WavelengthEventBroker</text>
<text text-anchor="middle" x="370.38" y="-52" font-family="Helvetica,sans-Serif" font-size="10.00">::PublishEvent</text>
</a>
</g>
</g>
<!-- Node4&#45;&gt;Node5 -->
<g id="edge4_Node000004_Node000005" class="edge">
<title>Node4&#45;&gt;Node5</title>
<g id="a_edge4_Node000004_Node000005"><a xlink:title=" ">
<path fill="none" stroke="#63b8ff" d="M272.06,-61.5C280.92,-61.5 290.14,-61.5 299.22,-61.5"/>
<polygon fill="#63b8ff" stroke="#63b8ff" points="299.1,-65 309.1,-61.5 299.1,-58 299.1,-65"/>
</a>
</g>
</g>
<!-- Node6 -->
<g id="Node000006" class="node">
<title>Node6</title>
<g id="a_Node000006"><a xlink:href="classWavelengthEventBroker.html#ae8c0f4012e86117405db97a0d461ad94" target="_top" xlink:title="Signal emitted whenever any event is published via PublishEvent(). Subscribed components connect to t...">
<polygon fill="white" stroke="#666666" points="587.5,-76 468.75,-76 468.75,-47 587.5,-47 587.5,-76"/>
<text text-anchor="start" x="476.75" y="-62.5" font-family="Helvetica,sans-Serif" font-size="10.00">WavelengthEventBroker</text>
<text text-anchor="middle" x="528.12" y="-52" font-family="Helvetica,sans-Serif" font-size="10.00">::eventPublished</text>
</a>
</g>
</g>
<!-- Node5&#45;&gt;Node6 -->
<g id="edge5_Node000005_Node000006" class="edge">
<title>Node5&#45;&gt;Node6</title>
<g id="a_edge5_Node000005_Node000006"><a xlink:title=" ">
<path fill="none" stroke="#63b8ff" d="M429.81,-61.5C438.67,-61.5 447.89,-61.5 456.97,-61.5"/>
<polygon fill="#63b8ff" stroke="#63b8ff" points="456.85,-65 466.85,-61.5 456.85,-58 456.85,-65"/>
</a>
</g>
</g>
</g>
</svg>
