<?xml version="1.0" encoding="UTF-8" standalone="no"?>
<!DOCTYPE svg PUBLIC "-//W3C//DTD SVG 1.1//EN"
 "http://www.w3.org/Graphics/SVG/1.1/DTD/svg11.dtd">
<!-- Generated by graphviz version 12.2.1 (0)
 -->
<!-- Title: VoiceRecognitionLayer::StopRecording Pages: 1 -->
<!--zoomable 172 -->

<svg id="main" version="1.1" xmlns="http://www.w3.org/2000/svg" xmlns:xlink="http://www.w3.org/1999/xlink" xml:space="preserve" onload="init(evt)">

<style type="text/css"><![CDATA[
.node, .edge {opacity: 0.7;}
.node.selected, .edge.selected {opacity: 1;}
.edge:hover path { stroke: red; }
.edge:hover polygon { stroke: red; fill: red; }
]]></style>

<defs>
  <circle id="rim" cx="0" cy="0" r="7"/>
  <circle id="rim2" cx="0" cy="0" r="3.5"/>
  <g id="zoomPlus">
    <use xlink:href="#rim" fill="#404040"><set attributeName="fill" to="#808080" begin="zoomplus.mouseover" end="zoomplus.mouseout"/></use>
    <path d="M-4,0h8M0,-4v8" fill="none" stroke="white" stroke-width="1.5" pointer-events="none"/>
  </g>
  <g id="zoomMin">
    <use xlink:href="#rim" fill="#404040"><set attributeName="fill" to="#808080" begin="zoomminus.mouseover" end="zoomminus.mouseout"/></use>
    <path d="M-4,0h8" fill="none" stroke="white" stroke-width="1.5" pointer-events="none"/>
  </g>
  <g id="arrowUp" transform="translate(30 24)">
    <use xlink:href="#rim"/>
    <path pointer-events="none" fill="none" stroke="white" stroke-width="1.5" d="M0,-3.0v7 M-2.5,-0.5L0,-3.0L2.5,-0.5"/>
  </g>
  <g id="arrowRight" transform="rotate(90) translate(36 -43)">
    <use xlink:href="#rim"/>
    <path pointer-events="none" fill="none" stroke="white" stroke-width="1.5" d="M0,-3.0v7 M-2.5,-0.5L0,-3.0L2.5,-0.5"/>
  </g>
  <g id="arrowDown" transform="rotate(180) translate(-30 -48)">
    <use xlink:href="#rim"/>
    <path pointer-events="none" fill="none" stroke="white" stroke-width="1.5" d="M0,-3.0v7 M-2.5,-0.5L0,-3.0L2.5,-0.5"/>
  </g>
  <g id="arrowLeft" transform="rotate(270) translate(-36 17)">
    <use xlink:href="#rim"/>
    <path pointer-events="none" fill="none" stroke="white" stroke-width="1.5" d="M0,-3.0v7 M-2.5,-0.5L0,-3.0L2.5,-0.5"/>
  </g>
  <g id="resetDef">
    <use xlink:href="#rim2" fill="#404040"><set attributeName="fill" to="#808080" begin="reset.mouseover" end="reset.mouseout"/></use>
  </g>
</defs>
<script type="application/ecmascript">
var viewWidth = 591;
var viewHeight = 172;
var sectionId = 'dynsection-12';
</script>
<script type="application/ecmascript" xlink:href="svg.min.js"/>
<svg id="graph" class="graph">
<g id="viewport">
<title>VoiceRecognitionLayer::StopRecording</title>
<!-- Node1 -->
<g id="Node000001" class="node">
<title>Node1</title>
<g id="a_Node000001"><a xlink:title="Stops capturing audio and processing. Stops the QAudioInput, deletes the audio input object,...">
<polygon fill="#999999" stroke="#666666" points="583,-76 468.75,-76 468.75,-47 583,-47 583,-76"/>
<text text-anchor="start" x="476.75" y="-62.5" font-family="Helvetica,sans-Serif" font-size="10.00">VoiceRecognitionLayer</text>
<text text-anchor="middle" x="525.88" y="-52" font-family="Helvetica,sans-Serif" font-size="10.00">::StopRecording</text>
</a>
</g>
</g>
<!-- Node2 -->
<g id="Node000002" class="node">
<title>Node2</title>
<g id="a_Node000002"><a xlink:href="classVoiceRecognitionLayer.html#ae8357c2294de9d555370995ae5e0c30e" target="_top" xlink:title="Slot called when the recognition process completes (either by progress reaching 100% or recognition_t...">
<polygon fill="white" stroke="#666666" points="426.75,-123 312.5,-123 312.5,-94 426.75,-94 426.75,-123"/>
<text text-anchor="start" x="320.5" y="-109.5" font-family="Helvetica,sans-Serif" font-size="10.00">VoiceRecognitionLayer</text>
<text text-anchor="middle" x="369.62" y="-99" font-family="Helvetica,sans-Serif" font-size="10.00">::FinishRecognition</text>
</a>
</g>
</g>
<!-- Node1&#45;&gt;Node2 -->
<g id="edge1_Node000001_Node000002" class="edge">
<title>Node1&#45;&gt;Node2</title>
<g id="a_edge1_Node000001_Node000002"><a xlink:title=" ">
<path fill="none" stroke="#63b8ff" d="M465.28,-79.66C450.19,-84.26 434.15,-89.14 419.64,-93.56"/>
<polygon fill="#63b8ff" stroke="#63b8ff" points="466.08,-83.08 474.62,-76.81 464.04,-76.38 466.08,-83.08"/>
</a>
</g>
</g>
<!-- Node5 -->
<g id="Node000005" class="node">
<title>Node5</title>
<g id="a_Node000005"><a xlink:href="classVoiceRecognitionLayer.html#a480b7354b4fe82a5b24f30ac1a02194d" target="_top" xlink:title="Resets the layer to its initial state. Stops recording and timers, resets progress,...">
<polygon fill="white" stroke="#666666" points="426.75,-76 312.5,-76 312.5,-47 426.75,-47 426.75,-76"/>
<text text-anchor="start" x="320.5" y="-62.5" font-family="Helvetica,sans-Serif" font-size="10.00">VoiceRecognitionLayer</text>
<text text-anchor="middle" x="369.62" y="-52" font-family="Helvetica,sans-Serif" font-size="10.00">::Reset</text>
</a>
</g>
</g>
<!-- Node1&#45;&gt;Node5 -->
<g id="edge5_Node000001_Node000005" class="edge">
<title>Node1&#45;&gt;Node5</title>
<g id="a_edge5_Node000001_Node000005"><a xlink:title=" ">
<path fill="none" stroke="#63b8ff" d="M456.82,-61.5C446.92,-61.5 436.82,-61.5 427.18,-61.5"/>
<polygon fill="#63b8ff" stroke="#63b8ff" points="456.8,-65 466.8,-61.5 456.8,-58 456.8,-65"/>
</a>
</g>
</g>
<!-- Node7 -->
<g id="Node000007" class="node">
<title>Node7</title>
<g id="a_Node000007"><a xlink:href="classVoiceRecognitionLayer.html#a5a97d1313c8ec7a8b3efaff8120fe0ae" target="_top" xlink:title="Destructor. Stops audio recording and processing, stops and deletes timers.">
<polygon fill="white" stroke="#666666" points="432.75,-29 306.5,-29 306.5,0 432.75,0 432.75,-29"/>
<text text-anchor="start" x="314.5" y="-15.5" font-family="Helvetica,sans-Serif" font-size="10.00">VoiceRecognitionLayer</text>
<text text-anchor="middle" x="369.62" y="-5" font-family="Helvetica,sans-Serif" font-size="10.00">::~VoiceRecognitionLayer</text>
</a>
</g>
</g>
<!-- Node1&#45;&gt;Node7 -->
<g id="edge7_Node000001_Node000007" class="edge">
<title>Node1&#45;&gt;Node7</title>
<g id="a_edge7_Node000001_Node000007"><a xlink:title=" ">
<path fill="none" stroke="#63b8ff" d="M465.28,-43.34C450.19,-38.74 434.15,-33.86 419.64,-29.44"/>
<polygon fill="#63b8ff" stroke="#63b8ff" points="464.04,-46.62 474.62,-46.19 466.08,-39.92 464.04,-46.62"/>
</a>
</g>
</g>
<!-- Node3 -->
<g id="Node000003" class="node">
<title>Node3</title>
<g id="a_Node000003"><a xlink:href="classVoiceRecognitionLayer.html#a49b97cb50c3d5533e70b68d0af5258c5" target="_top" xlink:title="Slot called periodically by progress_timer_ to update the recognition progress bar....">
<polygon fill="white" stroke="#666666" points="270.5,-164 156.25,-164 156.25,-135 270.5,-135 270.5,-164"/>
<text text-anchor="start" x="164.25" y="-150.5" font-family="Helvetica,sans-Serif" font-size="10.00">VoiceRecognitionLayer</text>
<text text-anchor="middle" x="213.38" y="-140" font-family="Helvetica,sans-Serif" font-size="10.00">::UpdateProgress</text>
</a>
</g>
</g>
<!-- Node2&#45;&gt;Node3 -->
<g id="edge2_Node000002_Node000003" class="edge">
<title>Node2&#45;&gt;Node3</title>
<g id="a_edge2_Node000002_Node000003"><a xlink:title=" ">
<path fill="none" stroke="#63b8ff" d="M301.49,-126.34C291.22,-129.07 280.72,-131.87 270.72,-134.52"/>
<polygon fill="#63b8ff" stroke="#63b8ff" points="302.27,-129.76 311.04,-123.81 300.47,-122.99 302.27,-129.76"/>
</a>
</g>
</g>
<!-- Node4 -->
<g id="Node000004" class="node">
<title>Node4</title>
<g id="a_Node000004"><a xlink:href="classVoiceRecognitionLayer.html#afe92e691948df9da5e2da29444995f99" target="_top" xlink:title="Constructs a VoiceRecognitionLayer. Initializes the UI elements (title, audio visualizer,...">
<polygon fill="white" stroke="#666666" points="120.25,-142 0,-142 0,-113 120.25,-113 120.25,-142"/>
<text text-anchor="start" x="8" y="-128.5" font-family="Helvetica,sans-Serif" font-size="10.00">VoiceRecognitionLayer</text>
<text text-anchor="middle" x="60.12" y="-118" font-family="Helvetica,sans-Serif" font-size="10.00">::VoiceRecognitionLayer</text>
</a>
</g>
</g>
<!-- Node2&#45;&gt;Node4 -->
<g id="edge4_Node000002_Node000004" class="edge">
<title>Node2&#45;&gt;Node4</title>
<g id="a_edge4_Node000002_Node000004"><a xlink:title=" ">
<path fill="none" stroke="#63b8ff" d="M301.05,-112.68C247.1,-116.01 172.26,-120.63 120.58,-123.83"/>
<polygon fill="#63b8ff" stroke="#63b8ff" points="300.95,-116.19 310.71,-112.08 300.52,-109.2 300.95,-116.19"/>
</a>
</g>
</g>
<!-- Node3&#45;&gt;Node4 -->
<g id="edge3_Node000003_Node000004" class="edge">
<title>Node3&#45;&gt;Node4</title>
<g id="a_edge3_Node000003_Node000004"><a xlink:title=" ">
<path fill="none" stroke="#63b8ff" d="M144.76,-139.66C136.68,-138.49 128.48,-137.3 120.53,-136.14"/>
<polygon fill="#63b8ff" stroke="#63b8ff" points="144.16,-143.11 154.56,-141.09 145.17,-136.19 144.16,-143.11"/>
</a>
</g>
</g>
<!-- Node6 -->
<g id="Node000006" class="node">
<title>Node6</title>
<g id="a_Node000006"><a xlink:href="classVoiceRecognitionLayer.html#ae71584992dd14f1917a17bb72e516287" target="_top" xlink:title="Initializes the layer for display. Resets the layer state, ensures the layer is fully opaque,...">
<polygon fill="white" stroke="#666666" points="270.5,-76 156.25,-76 156.25,-47 270.5,-47 270.5,-76"/>
<text text-anchor="start" x="164.25" y="-62.5" font-family="Helvetica,sans-Serif" font-size="10.00">VoiceRecognitionLayer</text>
<text text-anchor="middle" x="213.38" y="-52" font-family="Helvetica,sans-Serif" font-size="10.00">::Initialize</text>
</a>
</g>
</g>
<!-- Node5&#45;&gt;Node6 -->
<g id="edge6_Node000005_Node000006" class="edge">
<title>Node5&#45;&gt;Node6</title>
<g id="a_edge6_Node000005_Node000006"><a xlink:title=" ">
<path fill="none" stroke="#63b8ff" d="M300.57,-61.5C290.67,-61.5 280.57,-61.5 270.93,-61.5"/>
<polygon fill="#63b8ff" stroke="#63b8ff" points="300.55,-65 310.55,-61.5 300.55,-58 300.55,-65"/>
</a>
</g>
</g>
</g>
</svg>

<g id="navigator" transform="translate(0 0)" fill="#404254">
  <rect fill="#f2f5e9" fill-opacity="0.5" stroke="#606060" stroke-width=".5" x="0" y="0" width="60" height="60"/>
  <use id="zoomplus" xlink:href="#zoomPlus" x="17" y="9" onmousedown="handleZoom(evt,'in')"/>
  <use id="zoomminus" xlink:href="#zoomMin" x="42" y="9" onmousedown="handleZoom(evt,'out')"/>
  <use id="reset" xlink:href="#resetDef" x="30" y="36" onmousedown="handleReset()"/>
   <use id="arrowup" xlink:href="#arrowUp" x="0" y="0" onmousedown="handlePan(0,-1)"/>
  <use id="arrowright" xlink:href="#arrowRight" x="0" y="0" onmousedown="handlePan(1,0)"/>
  <use id="arrowdown" xlink:href="#arrowDown" x="0" y="0" onmousedown="handlePan(0,1)"/>
  <use id="arrowleft" xlink:href="#arrowLeft" x="0" y="0" onmousedown="handlePan(-1,0)"/>
</g>
<svg viewBox="0 0 15 15" width="100%" height="30px" preserveAspectRatio="xMaxYMin meet">
 <g id="arrow_out" transform="scale(0.3 0.3)">
  <a xlink:href="classVoiceRecognitionLayer_afa3f6710eb25231a7bfb5b20b720ed09_icgraph_org.svg" target="_base">
   <rect id="button" ry="5" rx="5" y="6" x="6" height="38" width="38"
        fill="#f2f5e9" fill-opacity="0.5" stroke="#606060" stroke-width="1.0"/>
   <path id="arrow"
     d="M 11.500037,31.436501 C 11.940474,20.09759 22.043105,11.32322 32.158766,21.979434 L 37.068811,17.246167 C 37.068811,17.246167 37.088388,32 37.088388,32 L 22.160133,31.978069 C 22.160133,31.978069 26.997745,27.140456 26.997745,27.140456 C 18.528582,18.264221 13.291696,25.230495 11.500037,31.436501 z"
     style="fill:#404040;"/>
  </a>
 </g>
</svg>

<style type='text/css'>
<![CDATA[
[data-mouse-over-selected='false'] { opacity: 0.7; }
[data-mouse-over-selected='true']  { opacity: 1.0; }
]]>
</style>
<script type="application/ecmascript"><![CDATA[
document.addEventListener('DOMContentLoaded', (event) => {
  highlightEdges();
  highlightAdjacentNodes();
});
]]></script>
</svg>
