<?xml version="1.0" encoding="UTF-8" standalone="no"?>
<!DOCTYPE svg PUBLIC "-//W3C//DTD SVG 1.1//EN"
 "http://www.w3.org/Graphics/SVG/1.1/DTD/svg11.dtd">
<!-- Generated by graphviz version 12.2.1 (0)
 -->
<!-- Title: AttachmentViewer::UpdateDecryptionStatus Pages: 1 -->
<!--zoomable 74 -->

<svg id="main" version="1.1" xmlns="http://www.w3.org/2000/svg" xmlns:xlink="http://www.w3.org/1999/xlink" xml:space="preserve" onload="init(evt)">

<style type="text/css"><![CDATA[
.node, .edge {opacity: 0.7;}
.node.selected, .edge.selected {opacity: 1;}
.edge:hover path { stroke: red; }
.edge:hover polygon { stroke: red; fill: red; }
]]></style>

<defs>
  <circle id="rim" cx="0" cy="0" r="7"/>
  <circle id="rim2" cx="0" cy="0" r="3.5"/>
  <g id="zoomPlus">
    <use xlink:href="#rim" fill="#404040"><set attributeName="fill" to="#808080" begin="zoomplus.mouseover" end="zoomplus.mouseout"/></use>
    <path d="M-4,0h8M0,-4v8" fill="none" stroke="white" stroke-width="1.5" pointer-events="none"/>
  </g>
  <g id="zoomMin">
    <use xlink:href="#rim" fill="#404040"><set attributeName="fill" to="#808080" begin="zoomminus.mouseover" end="zoomminus.mouseout"/></use>
    <path d="M-4,0h8" fill="none" stroke="white" stroke-width="1.5" pointer-events="none"/>
  </g>
  <g id="arrowUp" transform="translate(30 24)">
    <use xlink:href="#rim"/>
    <path pointer-events="none" fill="none" stroke="white" stroke-width="1.5" d="M0,-3.0v7 M-2.5,-0.5L0,-3.0L2.5,-0.5"/>
  </g>
  <g id="arrowRight" transform="rotate(90) translate(36 -43)">
    <use xlink:href="#rim"/>
    <path pointer-events="none" fill="none" stroke="white" stroke-width="1.5" d="M0,-3.0v7 M-2.5,-0.5L0,-3.0L2.5,-0.5"/>
  </g>
  <g id="arrowDown" transform="rotate(180) translate(-30 -48)">
    <use xlink:href="#rim"/>
    <path pointer-events="none" fill="none" stroke="white" stroke-width="1.5" d="M0,-3.0v7 M-2.5,-0.5L0,-3.0L2.5,-0.5"/>
  </g>
  <g id="arrowLeft" transform="rotate(270) translate(-36 17)">
    <use xlink:href="#rim"/>
    <path pointer-events="none" fill="none" stroke="white" stroke-width="1.5" d="M0,-3.0v7 M-2.5,-0.5L0,-3.0L2.5,-0.5"/>
  </g>
  <g id="resetDef">
    <use xlink:href="#rim2" fill="#404040"><set attributeName="fill" to="#808080" begin="reset.mouseover" end="reset.mouseout"/></use>
  </g>
</defs>
<script type="application/ecmascript">
var viewWidth = 719;
var viewHeight = 74;
var sectionId = 'dynsection-18';
</script>
<script type="application/ecmascript" xlink:href="svg.min.js"/>
<svg id="graph" class="graph">
<g id="viewport">
<title>AttachmentViewer::UpdateDecryptionStatus</title>
<!-- Node1 -->
<g id="Node000001" class="node">
<title>Node1</title>
<g id="a_Node000001"><a xlink:title="Updates the status label text to show the current decryption percentage.">
<polygon fill="#999999" stroke="#666666" points="711.25,-50 578.25,-50 578.25,-21 711.25,-21 711.25,-50"/>
<text text-anchor="start" x="586.25" y="-36.5" font-family="Helvetica,sans-Serif" font-size="10.00">AttachmentViewer::Update</text>
<text text-anchor="middle" x="644.75" y="-26" font-family="Helvetica,sans-Serif" font-size="10.00">DecryptionStatus</text>
</a>
</g>
</g>
<!-- Node2 -->
<g id="Node000002" class="node">
<title>Node2</title>
<g id="a_Node000002"><a xlink:href="classAttachmentViewer.html#a586152c0b840192e11c1453cbfd20926" target="_top" xlink:title="Sets the decryption progress counter (0&#45;100). Updates the internal value, updates the status label te...">
<polygon fill="white" stroke="#666666" points="542.25,-50 377.75,-50 377.75,-21 542.25,-21 542.25,-50"/>
<text text-anchor="start" x="385.75" y="-36.5" font-family="Helvetica,sans-Serif" font-size="10.00">AttachmentViewer::SetDecryption</text>
<text text-anchor="middle" x="460" y="-26" font-family="Helvetica,sans-Serif" font-size="10.00">Counter</text>
</a>
</g>
</g>
<!-- Node1&#45;&gt;Node2 -->
<g id="edge1_Node000001_Node000002" class="edge">
<title>Node1&#45;&gt;Node2</title>
<g id="a_edge1_Node000001_Node000002"><a xlink:title=" ">
<path fill="none" stroke="#63b8ff" d="M566.34,-35.5C558.45,-35.5 550.42,-35.5 542.49,-35.5"/>
<polygon fill="#63b8ff" stroke="#63b8ff" points="566.26,-39 576.26,-35.5 566.26,-32 566.26,-39"/>
</a>
</g>
</g>
<!-- Node3 -->
<g id="Node000003" class="node">
<title>Node3</title>
<g id="a_Node000003"><a xlink:href="classAttachmentViewer.html#a6e5885d1dc1476a3dcff4b76e2e95df1" target="_top" xlink:title="Sets the widget to be displayed after the decryption animation. Removes any previous content,...">
<polygon fill="white" stroke="#666666" points="335.38,-65.75 184.38,-65.75 184.38,-47.25 335.38,-47.25 335.38,-65.75"/>
<text text-anchor="middle" x="259.88" y="-52.25" font-family="Helvetica,sans-Serif" font-size="10.00">AttachmentViewer::SetContent</text>
</a>
</g>
</g>
<!-- Node2&#45;&gt;Node3 -->
<g id="edge2_Node000002_Node000003" class="edge">
<title>Node2&#45;&gt;Node3</title>
<g id="a_edge2_Node000002_Node000003"><a xlink:title=" ">
<path fill="none" stroke="#63b8ff" d="M365.91,-45.37C355.8,-46.44 345.6,-47.52 335.74,-48.56"/>
<polygon fill="#63b8ff" stroke="#63b8ff" points="366.19,-48.86 375.77,-44.32 365.45,-41.9 366.19,-48.86"/>
</a>
</g>
</g>
<!-- Node4 -->
<g id="Node000004" class="node">
<title>Node4</title>
<g id="a_Node000004"><a xlink:href="classAttachmentViewer.html#a847f3bd1aea14895c10cdc6a50a07765" target="_top" xlink:title="Starts the visual scanning phase. Updates the status label, ensures the MaskOverlay is visible and an...">
<polygon fill="white" stroke="#666666" points="341.75,-29 178,-29 178,0 341.75,0 341.75,-29"/>
<text text-anchor="start" x="186" y="-15.5" font-family="Helvetica,sans-Serif" font-size="10.00">AttachmentViewer::StartScanning</text>
<text text-anchor="middle" x="259.88" y="-5" font-family="Helvetica,sans-Serif" font-size="10.00">Animation</text>
</a>
</g>
</g>
<!-- Node2&#45;&gt;Node4 -->
<g id="edge3_Node000002_Node000004" class="edge">
<title>Node2&#45;&gt;Node4</title>
<g id="a_edge3_Node000002_Node000004"><a xlink:title=" ">
<path fill="none" stroke="#63b8ff" d="M366.03,-25.65C358.03,-24.8 349.99,-23.95 342.1,-23.11"/>
<polygon fill="#63b8ff" stroke="#63b8ff" points="365.45,-29.1 375.77,-26.68 366.19,-22.14 365.45,-29.1"/>
</a>
</g>
</g>
<!-- Node5 -->
<g id="Node000005" class="node">
<title>Node5</title>
<g id="a_Node000005"><a xlink:href="classAttachmentViewer.html#a7f2dccdaa47930c6103f9392da17c17b" target="_top" xlink:title="Slot triggered automatically after a short delay or potentially by a user action (though currently au...">
<polygon fill="#fff0f0" stroke="red" points="142,-29 0,-29 0,0 142,0 142,-29"/>
<text text-anchor="start" x="8" y="-15.5" font-family="Helvetica,sans-Serif" font-size="10.00">AttachmentViewer::OnAction</text>
<text text-anchor="middle" x="71" y="-5" font-family="Helvetica,sans-Serif" font-size="10.00">ButtonClicked</text>
</a>
</g>
</g>
<!-- Node4&#45;&gt;Node5 -->
<g id="edge4_Node000004_Node000005" class="edge">
<title>Node4&#45;&gt;Node5</title>
<g id="a_edge4_Node000004_Node000005"><a xlink:title=" ">
<path fill="none" stroke="#63b8ff" d="M166.31,-14.5C158.21,-14.5 150.11,-14.5 142.24,-14.5"/>
<polygon fill="#63b8ff" stroke="#63b8ff" points="166.21,-18 176.21,-14.5 166.21,-11 166.21,-18"/>
</a>
</g>
</g>
</g>
</svg>

<g id="navigator" transform="translate(0 0)" fill="#404254">
  <rect fill="#f2f5e9" fill-opacity="0.5" stroke="#606060" stroke-width=".5" x="0" y="0" width="60" height="60"/>
  <use id="zoomplus" xlink:href="#zoomPlus" x="17" y="9" onmousedown="handleZoom(evt,'in')"/>
  <use id="zoomminus" xlink:href="#zoomMin" x="42" y="9" onmousedown="handleZoom(evt,'out')"/>
  <use id="reset" xlink:href="#resetDef" x="30" y="36" onmousedown="handleReset()"/>
   <use id="arrowup" xlink:href="#arrowUp" x="0" y="0" onmousedown="handlePan(0,-1)"/>
  <use id="arrowright" xlink:href="#arrowRight" x="0" y="0" onmousedown="handlePan(1,0)"/>
  <use id="arrowdown" xlink:href="#arrowDown" x="0" y="0" onmousedown="handlePan(0,1)"/>
  <use id="arrowleft" xlink:href="#arrowLeft" x="0" y="0" onmousedown="handlePan(-1,0)"/>
</g>
<svg viewBox="0 0 15 15" width="100%" height="30px" preserveAspectRatio="xMaxYMin meet">
 <g id="arrow_out" transform="scale(0.3 0.3)">
  <a xlink:href="classAttachmentViewer_a0ec55f1bb4c15bac94e09814d0bf844f_icgraph_org.svg" target="_base">
   <rect id="button" ry="5" rx="5" y="6" x="6" height="38" width="38"
        fill="#f2f5e9" fill-opacity="0.5" stroke="#606060" stroke-width="1.0"/>
   <path id="arrow"
     d="M 11.500037,31.436501 C 11.940474,20.09759 22.043105,11.32322 32.158766,21.979434 L 37.068811,17.246167 C 37.068811,17.246167 37.088388,32 37.088388,32 L 22.160133,31.978069 C 22.160133,31.978069 26.997745,27.140456 26.997745,27.140456 C 18.528582,18.264221 13.291696,25.230495 11.500037,31.436501 z"
     style="fill:#404040;"/>
  </a>
 </g>
</svg>

<style type='text/css'>
<![CDATA[
[data-mouse-over-selected='false'] { opacity: 0.7; }
[data-mouse-over-selected='true']  { opacity: 1.0; }
]]>
</style>
<script type="application/ecmascript"><![CDATA[
document.addEventListener('DOMContentLoaded', (event) => {
  highlightEdges();
  highlightAdjacentNodes();
});
]]></script>
</svg>
