<?xml version="1.0" encoding="UTF-8" standalone="no"?>
<!DOCTYPE svg PUBLIC "-//W3C//DTD SVG 1.1//EN"
 "http://www.w3.org/Graphics/SVG/1.1/DTD/svg11.dtd">
<!-- Generated by graphviz version 12.2.1 (0)
 -->
<!-- Title: VideoDecoder::playbackFinished Pages: 1 -->
<!--zoomable 124 -->

<svg id="main" version="1.1" xmlns="http://www.w3.org/2000/svg" xmlns:xlink="http://www.w3.org/1999/xlink" xml:space="preserve" onload="init(evt)">

<style type="text/css"><![CDATA[
.node, .edge {opacity: 0.7;}
.node.selected, .edge.selected {opacity: 1;}
.edge:hover path { stroke: red; }
.edge:hover polygon { stroke: red; fill: red; }
]]></style>

<defs>
  <circle id="rim" cx="0" cy="0" r="7"/>
  <circle id="rim2" cx="0" cy="0" r="3.5"/>
  <g id="zoomPlus">
    <use xlink:href="#rim" fill="#404040"><set attributeName="fill" to="#808080" begin="zoomplus.mouseover" end="zoomplus.mouseout"/></use>
    <path d="M-4,0h8M0,-4v8" fill="none" stroke="white" stroke-width="1.5" pointer-events="none"/>
  </g>
  <g id="zoomMin">
    <use xlink:href="#rim" fill="#404040"><set attributeName="fill" to="#808080" begin="zoomminus.mouseover" end="zoomminus.mouseout"/></use>
    <path d="M-4,0h8" fill="none" stroke="white" stroke-width="1.5" pointer-events="none"/>
  </g>
  <g id="arrowUp" transform="translate(30 24)">
    <use xlink:href="#rim"/>
    <path pointer-events="none" fill="none" stroke="white" stroke-width="1.5" d="M0,-3.0v7 M-2.5,-0.5L0,-3.0L2.5,-0.5"/>
  </g>
  <g id="arrowRight" transform="rotate(90) translate(36 -43)">
    <use xlink:href="#rim"/>
    <path pointer-events="none" fill="none" stroke="white" stroke-width="1.5" d="M0,-3.0v7 M-2.5,-0.5L0,-3.0L2.5,-0.5"/>
  </g>
  <g id="arrowDown" transform="rotate(180) translate(-30 -48)">
    <use xlink:href="#rim"/>
    <path pointer-events="none" fill="none" stroke="white" stroke-width="1.5" d="M0,-3.0v7 M-2.5,-0.5L0,-3.0L2.5,-0.5"/>
  </g>
  <g id="arrowLeft" transform="rotate(270) translate(-36 17)">
    <use xlink:href="#rim"/>
    <path pointer-events="none" fill="none" stroke="white" stroke-width="1.5" d="M0,-3.0v7 M-2.5,-0.5L0,-3.0L2.5,-0.5"/>
  </g>
  <g id="resetDef">
    <use xlink:href="#rim2" fill="#404040"><set attributeName="fill" to="#808080" begin="reset.mouseover" end="reset.mouseout"/></use>
  </g>
</defs>
<script type="application/ecmascript">
var viewWidth = 683;
var viewHeight = 124;
var sectionId = 'dynsection-15';
</script>
<script type="application/ecmascript" xlink:href="svg.min.js"/>
<svg id="graph" class="graph">
<g id="viewport">
<title>VideoDecoder::playbackFinished</title>
<!-- Node1 -->
<g id="Node000001" class="node">
<title>Node1</title>
<g id="a_Node000001"><a xlink:title="Emitted when both video and audio (if present) streams reach the end.">
<polygon fill="#999999" stroke="#666666" points="674.5,-67.68 515.25,-67.68 515.25,-49.18 674.5,-49.18 674.5,-67.68"/>
<text text-anchor="middle" x="594.88" y="-54.18" font-family="Helvetica,sans-Serif" font-size="10.00">VideoDecoder::playbackFinished</text>
</a>
</g>
</g>
<!-- Node2 -->
<g id="Node000002" class="node">
<title>Node2</title>
<g id="a_Node000002"><a xlink:href="classVideoDecoder.html#a2d72ecfc50eab41a6e14a1a46feaa7df" target="_top" xlink:title="Slot connected to the internal AudioDecoder&#39;s playbackFinished signal. Sets the audio_finished_ flag ...">
<polygon fill="white" stroke="#666666" points="479.25,-115.93 340.25,-115.93 340.25,-86.93 479.25,-86.93 479.25,-115.93"/>
<text text-anchor="start" x="348.25" y="-102.43" font-family="Helvetica,sans-Serif" font-size="10.00">VideoDecoder::HandleAudio</text>
<text text-anchor="middle" x="409.75" y="-91.93" font-family="Helvetica,sans-Serif" font-size="10.00">Finished</text>
</a>
</g>
</g>
<!-- Node1&#45;&gt;Node2 -->
<g id="edge1_Node000001_Node000002" class="edge">
<title>Node1&#45;&gt;Node2</title>
<g id="a_edge1_Node000001_Node000002"><a xlink:title=" ">
<path fill="none" stroke="#63b8ff" d="M541.82,-70.65C520.83,-75.58 496.4,-81.32 474.36,-86.49"/>
<polygon fill="#63b8ff" stroke="#63b8ff" points="542.37,-74.12 551.3,-68.43 540.77,-67.3 542.37,-74.12"/>
</a>
</g>
</g>
<!-- Node4 -->
<g id="Node000004" class="node">
<title>Node4</title>
<g id="a_Node000004"><a xlink:href="classVideoDecoder.html#a134b48e98d0b9db4011cfea08d0924da" target="_top" xlink:title="The main function executed by the QThread. Contains the loop that reads packets, decodes video frames...">
<polygon fill="white" stroke="#666666" points="111.25,-76.68 14.25,-76.68 14.25,-58.18 111.25,-58.18 111.25,-76.68"/>
<text text-anchor="middle" x="62.75" y="-63.18" font-family="Helvetica,sans-Serif" font-size="10.00">VideoDecoder::run</text>
</a>
</g>
</g>
<!-- Node1&#45;&gt;Node4 -->
<g id="edge8_Node000001_Node000004" class="edge">
<title>Node1&#45;&gt;Node4</title>
<g id="a_edge8_Node000001_Node000004"><a xlink:title=" ">
<path fill="none" stroke="#63b8ff" d="M503.4,-59.97C390.07,-61.89 200.04,-65.12 111.66,-66.62"/>
<polygon fill="#63b8ff" stroke="#63b8ff" points="503.34,-63.47 513.28,-59.8 503.23,-56.47 503.34,-63.47"/>
</a>
</g>
</g>
<!-- Node5 -->
<g id="Node000005" class="node">
<title>Node5</title>
<g id="a_Node000005"><a xlink:href="classVideoPlayer.html#a6f8d803263d342bf12f9cf29c40536de" target="_top" xlink:title="Initializes the VideoDecoder instance and connects its signals. Creates the decoder,...">
<polygon fill="white" stroke="#666666" points="477.75,-30.68 341.75,-30.68 341.75,-12.18 477.75,-12.18 477.75,-30.68"/>
<text text-anchor="middle" x="409.75" y="-17.18" font-family="Helvetica,sans-Serif" font-size="10.00">VideoPlayer::InitializePlayer</text>
</a>
</g>
</g>
<!-- Node1&#45;&gt;Node5 -->
<g id="edge4_Node000001_Node000005" class="edge">
<title>Node1&#45;&gt;Node5</title>
<g id="a_edge4_Node000001_Node000005"><a xlink:title=" ">
<path fill="none" stroke="#63b8ff" d="M534.77,-46.49C510.22,-41.53 482.11,-35.85 458.86,-31.15"/>
<polygon fill="#63b8ff" stroke="#63b8ff" points="533.78,-49.86 544.28,-48.41 535.17,-43 533.78,-49.86"/>
</a>
</g>
</g>
<!-- Node3 -->
<g id="Node000003" class="node">
<title>Node3</title>
<g id="a_Node000003"><a xlink:href="classVideoDecoder.html#aa8f8aabbe65727acd5ef5cfdc5f3b69b" target="_top" xlink:title="Initializes the FFmpeg components for decoding the video and potentially audio. Opens the input strea...">
<polygon fill="white" stroke="#666666" points="292.25,-107.68 173.5,-107.68 173.5,-89.18 292.25,-89.18 292.25,-107.68"/>
<text text-anchor="middle" x="232.88" y="-94.18" font-family="Helvetica,sans-Serif" font-size="10.00">VideoDecoder::Initialize</text>
</a>
</g>
</g>
<!-- Node2&#45;&gt;Node3 -->
<g id="edge2_Node000002_Node000003" class="edge">
<title>Node2&#45;&gt;Node3</title>
<g id="a_edge2_Node000002_Node000003"><a xlink:title=" ">
<path fill="none" stroke="#63b8ff" d="M328.38,-100.05C316.29,-99.84 304.02,-99.63 292.5,-99.44"/>
<polygon fill="#63b8ff" stroke="#63b8ff" points="328.31,-103.55 338.37,-100.22 328.43,-96.55 328.31,-103.55"/>
</a>
</g>
</g>
<!-- Node3&#45;&gt;Node4 -->
<g id="edge3_Node000003_Node000004" class="edge">
<title>Node3&#45;&gt;Node4</title>
<g id="a_edge3_Node000003_Node000004"><a xlink:title=" ">
<path fill="none" stroke="#63b8ff" d="M168.03,-86.66C149.35,-83.21 129.25,-79.51 111.73,-76.28"/>
<polygon fill="#63b8ff" stroke="#63b8ff" points="167.18,-90.06 177.65,-88.43 168.45,-83.18 167.18,-90.06"/>
</a>
</g>
</g>
<!-- Node6 -->
<g id="Node000006" class="node">
<title>Node6</title>
<g id="a_Node000006"><a xlink:href="classVideoPlayer.html#aee93bdf909227c7d4f7c48eca8874af6" target="_top" xlink:title="Toggles the playback state (play/pause) or resets if finished. If finished, resets the decoder....">
<polygon fill="white" stroke="#666666" points="304.25,-30.68 161.5,-30.68 161.5,-12.18 304.25,-12.18 304.25,-30.68"/>
<text text-anchor="middle" x="232.88" y="-17.18" font-family="Helvetica,sans-Serif" font-size="10.00">VideoPlayer::TogglePlayback</text>
</a>
</g>
</g>
<!-- Node5&#45;&gt;Node6 -->
<g id="edge5_Node000005_Node000006" class="edge">
<title>Node5&#45;&gt;Node6</title>
<g id="a_edge5_Node000005_Node000006"><a xlink:title=" ">
<path fill="none" stroke="#63b8ff" d="M329.99,-21.43C321.55,-21.43 313.01,-21.43 304.68,-21.43"/>
<polygon fill="#63b8ff" stroke="#63b8ff" points="329.88,-24.93 339.88,-21.43 329.88,-17.93 329.88,-24.93"/>
</a>
</g>
</g>
<!-- Node7 -->
<g id="Node000007" class="node">
<title>Node7</title>
<g id="a_Node000007"><a xlink:href="classVideoPlayer.html#a6ee50b34775069f86b0cace600c3923c" target="_top" xlink:title="Constructs a VideoPlayerOverlay dialog. Initializes the cyberpunk UI elements, sets window properties...">
<polygon fill="white" stroke="#666666" points="125.5,-21.68 0,-21.68 0,-3.18 125.5,-3.18 125.5,-21.68"/>
<text text-anchor="middle" x="62.75" y="-8.18" font-family="Helvetica,sans-Serif" font-size="10.00">VideoPlayer::VideoPlayer</text>
</a>
</g>
</g>
<!-- Node5&#45;&gt;Node7 -->
<g id="edge7_Node000005_Node000007" class="edge">
<title>Node5&#45;&gt;Node7</title>
<g id="a_edge7_Node000005_Node000007"><a xlink:title=" ">
<path fill="none" stroke="#63b8ff" d="M351.09,-9.69C335.92,-7.1 319.52,-4.74 304.25,-3.43 241.04,1.97 224.88,-0.52 161.5,-3.43 149.92,-3.96 137.6,-4.85 125.74,-5.86"/>
<polygon fill="#63b8ff" stroke="#63b8ff" points="350.46,-13.13 360.92,-11.44 351.69,-6.24 350.46,-13.13"/>
</a>
</g>
</g>
<!-- Node6&#45;&gt;Node7 -->
<g id="edge6_Node000006_Node000007" class="edge">
<title>Node6&#45;&gt;Node7</title>
<g id="a_edge6_Node000006_Node000007"><a xlink:title=" ">
<path fill="none" stroke="#63b8ff" d="M149.77,-17.04C141.76,-16.61 133.72,-16.18 125.94,-15.76"/>
<polygon fill="#63b8ff" stroke="#63b8ff" points="149.38,-20.52 159.55,-17.56 149.75,-13.53 149.38,-20.52"/>
</a>
</g>
</g>
</g>
</svg>

<g id="navigator" transform="translate(0 0)" fill="#404254">
  <rect fill="#f2f5e9" fill-opacity="0.5" stroke="#606060" stroke-width=".5" x="0" y="0" width="60" height="60"/>
  <use id="zoomplus" xlink:href="#zoomPlus" x="17" y="9" onmousedown="handleZoom(evt,'in')"/>
  <use id="zoomminus" xlink:href="#zoomMin" x="42" y="9" onmousedown="handleZoom(evt,'out')"/>
  <use id="reset" xlink:href="#resetDef" x="30" y="36" onmousedown="handleReset()"/>
   <use id="arrowup" xlink:href="#arrowUp" x="0" y="0" onmousedown="handlePan(0,-1)"/>
  <use id="arrowright" xlink:href="#arrowRight" x="0" y="0" onmousedown="handlePan(1,0)"/>
  <use id="arrowdown" xlink:href="#arrowDown" x="0" y="0" onmousedown="handlePan(0,1)"/>
  <use id="arrowleft" xlink:href="#arrowLeft" x="0" y="0" onmousedown="handlePan(-1,0)"/>
</g>
<svg viewBox="0 0 15 15" width="100%" height="30px" preserveAspectRatio="xMaxYMin meet">
 <g id="arrow_out" transform="scale(0.3 0.3)">
  <a xlink:href="classVideoDecoder_a4b36980122d8771e7aff1ed0c1db8420_icgraph_org.svg" target="_base">
   <rect id="button" ry="5" rx="5" y="6" x="6" height="38" width="38"
        fill="#f2f5e9" fill-opacity="0.5" stroke="#606060" stroke-width="1.0"/>
   <path id="arrow"
     d="M 11.500037,31.436501 C 11.940474,20.09759 22.043105,11.32322 32.158766,21.979434 L 37.068811,17.246167 C 37.068811,17.246167 37.088388,32 37.088388,32 L 22.160133,31.978069 C 22.160133,31.978069 26.997745,27.140456 26.997745,27.140456 C 18.528582,18.264221 13.291696,25.230495 11.500037,31.436501 z"
     style="fill:#404040;"/>
  </a>
 </g>
</svg>

<style type='text/css'>
<![CDATA[
[data-mouse-over-selected='false'] { opacity: 0.7; }
[data-mouse-over-selected='true']  { opacity: 1.0; }
]]>
</style>
<script type="application/ecmascript"><![CDATA[
document.addEventListener('DOMContentLoaded', (event) => {
  highlightEdges();
  highlightAdjacentNodes();
});
]]></script>
</svg>
