<?xml version="1.0" encoding="UTF-8" standalone="no"?>
<!DOCTYPE svg PUBLIC "-//W3C//DTD SVG 1.1//EN"
 "http://www.w3.org/Graphics/SVG/1.1/DTD/svg11.dtd">
<!-- Generated by graphviz version 12.2.1 (0)
 -->
<!-- Title: VoiceRecognitionLayer::VoiceRecognitionLayer Pages: 1 -->
<svg width="646pt" height="206pt"
 viewBox="0.00 0.00 645.75 206.00" xmlns="http://www.w3.org/2000/svg" xmlns:xlink="http://www.w3.org/1999/xlink">
<g id="graph0" class="graph" transform="scale(1 1) rotate(0) translate(4 202)">
<title>VoiceRecognitionLayer::VoiceRecognitionLayer</title>
<!-- Node1 -->
<g id="Node000001" class="node">
<title>Node1</title>
<g id="a_Node000001"><a xlink:title="Constructs a VoiceRecognitionLayer. Initializes the UI elements (title, audio visualizer,...">
<polygon fill="#999999" stroke="#666666" points="120.25,-108 0,-108 0,-79 120.25,-79 120.25,-108"/>
<text text-anchor="start" x="8" y="-94.5" font-family="Helvetica,sans-Serif" font-size="10.00">VoiceRecognitionLayer</text>
<text text-anchor="middle" x="60.12" y="-84" font-family="Helvetica,sans-Serif" font-size="10.00">::VoiceRecognitionLayer</text>
</a>
</g>
</g>
<!-- Node2 -->
<g id="Node000002" class="node">
<title>Node2</title>
<g id="a_Node000002"><a xlink:href="classVoiceRecognitionLayer.html#ae8357c2294de9d555370995ae5e0c30e" target="_top" xlink:title="Slot called when the recognition process completes (either by progress reaching 100% or recognition_t...">
<polygon fill="white" stroke="#666666" points="450,-129 335.75,-129 335.75,-100 450,-100 450,-129"/>
<text text-anchor="start" x="343.75" y="-115.5" font-family="Helvetica,sans-Serif" font-size="10.00">VoiceRecognitionLayer</text>
<text text-anchor="middle" x="392.88" y="-105" font-family="Helvetica,sans-Serif" font-size="10.00">::FinishRecognition</text>
</a>
</g>
</g>
<!-- Node1&#45;&gt;Node2 -->
<g id="edge1_Node000001_Node000002" class="edge">
<title>Node1&#45;&gt;Node2</title>
<g id="a_edge1_Node000001_Node000002"><a xlink:title=" ">
<path fill="none" stroke="#63b8ff" d="M120.64,-97.28C177.86,-100.91 264.26,-106.4 324.1,-110.2"/>
<polygon fill="#63b8ff" stroke="#63b8ff" points="323.61,-113.67 333.81,-110.81 324.06,-106.69 323.61,-113.67"/>
</a>
</g>
</g>
<!-- Node5 -->
<g id="Node000005" class="node">
<title>Node5</title>
<g id="a_Node000005"><a xlink:href="classTranslationManager.html#a370292d4133519fccf401a6b27b2f6a6" target="_top" xlink:title="Returns an instance of the TranslationManager singleton.">
<polygon fill="white" stroke="#666666" points="276.88,-198 176.12,-198 176.12,-169 276.88,-169 276.88,-198"/>
<text text-anchor="start" x="184.12" y="-184.5" font-family="Helvetica,sans-Serif" font-size="10.00">TranslationManager</text>
<text text-anchor="middle" x="226.5" y="-174" font-family="Helvetica,sans-Serif" font-size="10.00">::GetInstance</text>
</a>
</g>
</g>
<!-- Node1&#45;&gt;Node5 -->
<g id="edge4_Node000001_Node000005" class="edge">
<title>Node1&#45;&gt;Node5</title>
<g id="a_edge4_Node000001_Node000005"><a xlink:title=" ">
<path fill="none" stroke="#63b8ff" d="M78.71,-108.28C97.07,-123.13 127.21,-145.85 156.25,-160.5 159.26,-162.02 162.4,-163.47 165.6,-164.86"/>
<polygon fill="#63b8ff" stroke="#63b8ff" points="163.98,-167.98 174.57,-168.47 166.6,-161.48 163.98,-167.98"/>
</a>
</g>
</g>
<!-- Node7 -->
<g id="Node000007" class="node">
<title>Node7</title>
<g id="a_Node000007"><a xlink:href="classVoiceRecognitionLayer.html#ae6055906297bcb0590c41015a9cabbb6" target="_top" xlink:title="Slot called periodically by audio_process_timer_ to read and process available audio data....">
<polygon fill="white" stroke="#666666" points="283.62,-29 169.38,-29 169.38,0 283.62,0 283.62,-29"/>
<text text-anchor="start" x="177.38" y="-15.5" font-family="Helvetica,sans-Serif" font-size="10.00">VoiceRecognitionLayer</text>
<text text-anchor="middle" x="226.5" y="-5" font-family="Helvetica,sans-Serif" font-size="10.00">::ProcessAudioInput</text>
</a>
</g>
</g>
<!-- Node1&#45;&gt;Node7 -->
<g id="edge6_Node000001_Node000007" class="edge">
<title>Node1&#45;&gt;Node7</title>
<g id="a_edge6_Node000001_Node000007"><a xlink:title=" ">
<path fill="none" stroke="#63b8ff" d="M83.92,-78.66C102.79,-66.79 130.57,-50.24 156.25,-38.5 160,-36.79 163.91,-35.12 167.88,-33.52"/>
<polygon fill="#63b8ff" stroke="#63b8ff" points="168.97,-36.85 177.05,-29.99 166.46,-30.32 168.97,-36.85"/>
</a>
</g>
</g>
<!-- Node9 -->
<g id="Node000009" class="node">
<title>Node9</title>
<g id="a_Node000009"><a xlink:href="classSecurityLayer.html#adc79fa2453a0034a739a7cfcc225db42" target="_top" xlink:title="Constructs a SecurityLayer.">
<polygon fill="white" stroke="#666666" points="296.75,-65.75 156.25,-65.75 156.25,-47.25 296.75,-47.25 296.75,-65.75"/>
<text text-anchor="middle" x="226.5" y="-52.25" font-family="Helvetica,sans-Serif" font-size="10.00">SecurityLayer::SecurityLayer</text>
</a>
</g>
</g>
<!-- Node1&#45;&gt;Node9 -->
<g id="edge8_Node000001_Node000009" class="edge">
<title>Node1&#45;&gt;Node9</title>
<g id="a_edge8_Node000001_Node000009"><a xlink:title=" ">
<path fill="none" stroke="#63b8ff" d="M120.47,-80.14C137.06,-76.41 154.99,-72.37 171.27,-68.71"/>
<polygon fill="#63b8ff" stroke="#63b8ff" points="171.77,-72.18 180.76,-66.57 170.23,-65.35 171.77,-72.18"/>
</a>
</g>
</g>
<!-- Node10 -->
<g id="Node000010" class="node">
<title>Node10</title>
<g id="a_Node000010"><a xlink:href="classVoiceRecognitionLayer.html#a49b97cb50c3d5533e70b68d0af5258c5" target="_top" xlink:title="Slot called periodically by progress_timer_ to update the recognition progress bar....">
<polygon fill="white" stroke="#666666" points="283.62,-151 169.38,-151 169.38,-122 283.62,-122 283.62,-151"/>
<text text-anchor="start" x="177.38" y="-137.5" font-family="Helvetica,sans-Serif" font-size="10.00">VoiceRecognitionLayer</text>
<text text-anchor="middle" x="226.5" y="-127" font-family="Helvetica,sans-Serif" font-size="10.00">::UpdateProgress</text>
</a>
</g>
</g>
<!-- Node1&#45;&gt;Node10 -->
<g id="edge9_Node000001_Node000010" class="edge">
<title>Node1&#45;&gt;Node10</title>
<g id="a_edge9_Node000001_Node000010"><a xlink:title=" ">
<path fill="none" stroke="#63b8ff" d="M118.15,-108.42C131.05,-111.79 144.86,-115.4 158.13,-118.88"/>
<polygon fill="#63b8ff" stroke="#63b8ff" points="157.1,-122.23 167.66,-121.37 158.87,-115.45 157.1,-122.23"/>
</a>
</g>
</g>
<!-- Node3 -->
<g id="Node000003" class="node">
<title>Node3</title>
<g id="a_Node000003"><a xlink:href="classSecurityLayer.html#a6b6759d7fd1e729ff63ea9be3c121878" target="_top" xlink:title="Emitted when the user successfully completes the security challenge presented by this layer.">
<polygon fill="white" stroke="#666666" points="637.75,-144.75 489,-144.75 489,-126.25 637.75,-126.25 637.75,-144.75"/>
<text text-anchor="middle" x="563.38" y="-131.25" font-family="Helvetica,sans-Serif" font-size="10.00">SecurityLayer::layerCompleted</text>
</a>
</g>
</g>
<!-- Node2&#45;&gt;Node3 -->
<g id="edge2_Node000002_Node000003" class="edge">
<title>Node2&#45;&gt;Node3</title>
<g id="a_edge2_Node000002_Node000003"><a xlink:title=" ">
<path fill="none" stroke="#63b8ff" d="M450.45,-121.55C459.15,-122.64 468.3,-123.77 477.45,-124.92"/>
<polygon fill="#63b8ff" stroke="#63b8ff" points="476.73,-128.35 487.09,-126.12 477.6,-121.41 476.73,-128.35"/>
</a>
</g>
</g>
<!-- Node4 -->
<g id="Node000004" class="node">
<title>Node4</title>
<g id="a_Node000004"><a xlink:href="classVoiceRecognitionLayer.html#afa3f6710eb25231a7bfb5b20b720ed09" target="_top" xlink:title="Stops capturing audio and processing. Stops the QAudioInput, deletes the audio input object,...">
<polygon fill="white" stroke="#666666" points="620.5,-108 506.25,-108 506.25,-79 620.5,-79 620.5,-108"/>
<text text-anchor="start" x="514.25" y="-94.5" font-family="Helvetica,sans-Serif" font-size="10.00">VoiceRecognitionLayer</text>
<text text-anchor="middle" x="563.38" y="-84" font-family="Helvetica,sans-Serif" font-size="10.00">::StopRecording</text>
</a>
</g>
</g>
<!-- Node2&#45;&gt;Node4 -->
<g id="edge3_Node000002_Node000004" class="edge">
<title>Node2&#45;&gt;Node4</title>
<g id="a_edge3_Node000002_Node000004"><a xlink:title=" ">
<path fill="none" stroke="#63b8ff" d="M450.45,-107.45C464.7,-105.67 480.13,-103.75 494.86,-101.91"/>
<polygon fill="#63b8ff" stroke="#63b8ff" points="494.96,-105.43 504.45,-100.72 494.09,-98.48 494.96,-105.43"/>
</a>
</g>
</g>
<!-- Node6 -->
<g id="Node000006" class="node">
<title>Node6</title>
<g id="a_Node000006"><a xlink:href="classTranslationManager.html#afcf7f2ccfdf410f09d0a740c1826a1f3" target="_top" xlink:title="Private constructor to enforce the singleton pattern.">
<polygon fill="white" stroke="#666666" points="446.25,-198 339.5,-198 339.5,-169 446.25,-169 446.25,-198"/>
<text text-anchor="start" x="347.5" y="-184.5" font-family="Helvetica,sans-Serif" font-size="10.00">TranslationManager</text>
<text text-anchor="middle" x="392.88" y="-174" font-family="Helvetica,sans-Serif" font-size="10.00">::TranslationManager</text>
</a>
</g>
</g>
<!-- Node5&#45;&gt;Node6 -->
<g id="edge5_Node000005_Node000006" class="edge">
<title>Node5&#45;&gt;Node6</title>
<g id="a_edge5_Node000005_Node000006"><a xlink:title=" ">
<path fill="none" stroke="#63b8ff" d="M277.26,-183.5C293.16,-183.5 310.97,-183.5 327.74,-183.5"/>
<polygon fill="#63b8ff" stroke="#63b8ff" points="327.63,-187 337.63,-183.5 327.63,-180 327.63,-187"/>
</a>
</g>
</g>
<!-- Node8 -->
<g id="Node000008" class="node">
<title>Node8</title>
<g id="a_Node000008"><a xlink:href="classVoiceRecognitionLayer.html#a40f32b30534b60b480311a5dbb6571e7" target="_top" xlink:title="Updates the audio_visualizer_label_ with a waveform representation of the audio data....">
<polygon fill="white" stroke="#666666" points="453,-29 332.75,-29 332.75,0 453,0 453,-29"/>
<text text-anchor="start" x="340.75" y="-15.5" font-family="Helvetica,sans-Serif" font-size="10.00">VoiceRecognitionLayer</text>
<text text-anchor="middle" x="392.88" y="-5" font-family="Helvetica,sans-Serif" font-size="10.00">::UpdateAudioVisualizer</text>
</a>
</g>
</g>
<!-- Node7&#45;&gt;Node8 -->
<g id="edge7_Node000007_Node000008" class="edge">
<title>Node7&#45;&gt;Node8</title>
<g id="a_edge7_Node000007_Node000008"><a xlink:title=" ">
<path fill="none" stroke="#63b8ff" d="M284.07,-14.5C296.01,-14.5 308.76,-14.5 321.15,-14.5"/>
<polygon fill="#63b8ff" stroke="#63b8ff" points="320.89,-18 330.89,-14.5 320.89,-11 320.89,-18"/>
</a>
</g>
</g>
<!-- Node10&#45;&gt;Node2 -->
<g id="edge10_Node000010_Node000002" class="edge">
<title>Node10&#45;&gt;Node2</title>
<g id="a_edge10_Node000010_Node000002"><a xlink:title=" ">
<path fill="none" stroke="#63b8ff" d="M284.07,-128.93C297.06,-127.19 310.99,-125.33 324.39,-123.53"/>
<polygon fill="#63b8ff" stroke="#63b8ff" points="324.53,-127.04 333.98,-122.25 323.6,-120.11 324.53,-127.04"/>
</a>
</g>
</g>
</g>
</svg>
