<?xml version="1.0" encoding="UTF-8" standalone="no"?>
<!DOCTYPE svg PUBLIC "-//W3C//DTD SVG 1.1//EN"
 "http://www.w3.org/Graphics/SVG/1.1/DTD/svg11.dtd">
<!-- Generated by graphviz version 12.2.1 (0)
 -->
<!-- Title: AudioDecoder::error Pages: 1 -->
<svg width="630pt" height="212pt"
 viewBox="0.00 0.00 630.00 211.50" xmlns="http://www.w3.org/2000/svg" xmlns:xlink="http://www.w3.org/1999/xlink">
<g id="graph0" class="graph" transform="scale(1 1) rotate(0) translate(4 207.5)">
<title>AudioDecoder::error</title>
<!-- Node1 -->
<g id="Node000001" class="node">
<title>Node1</title>
<g id="a_Node000001"><a xlink:title="Emitted when an error occurs during initialization or decoding.">
<polygon fill="#999999" stroke="#666666" points="622,-92.5 519,-92.5 519,-74 622,-74 622,-92.5"/>
<text text-anchor="middle" x="570.5" y="-79" font-family="Helvetica,sans-Serif" font-size="10.00">AudioDecoder::error</text>
</a>
</g>
</g>
<!-- Node2 -->
<g id="Node000002" class="node">
<title>Node2</title>
<g id="a_Node000002"><a xlink:href="classAudioDecoder.html#a5cf09a96a04ce8afd751d985c71e4211" target="_top" xlink:title="Constructs an AudioDecoder object. Initializes internal state, allocates memory for FFmpeg&#39;s custom I...">
<polygon fill="white" stroke="#666666" points="483,-166.5 338,-166.5 338,-148 483,-148 483,-166.5"/>
<text text-anchor="middle" x="410.5" y="-153" font-family="Helvetica,sans-Serif" font-size="10.00">AudioDecoder::AudioDecoder</text>
</a>
</g>
</g>
<!-- Node1&#45;&gt;Node2 -->
<g id="edge1_Node000001_Node000002" class="edge">
<title>Node1&#45;&gt;Node2</title>
<g id="a_edge1_Node000001_Node000002"><a xlink:title=" ">
<path fill="none" stroke="#63b8ff" d="M545.71,-99.22C528.75,-110.12 505.13,-124.32 483,-134.25 471.58,-139.38 458.67,-143.89 446.99,-147.54"/>
<polygon fill="#63b8ff" stroke="#63b8ff" points="547.61,-102.16 554.07,-93.76 543.78,-96.3 547.61,-102.16"/>
</a>
</g>
</g>
<!-- Node4 -->
<g id="Node000004" class="node">
<title>Node4</title>
<g id="a_Node000004"><a xlink:href="classAudioDecoder.html#a6948c3168d8c0c5a3badeeacf88f59bc" target="_top" xlink:title="Reinitializes the decoder after it has been stopped or encountered an error. Releases existing resour...">
<polygon fill="white" stroke="#666666" points="130,-166.5 0,-166.5 0,-148 130,-148 130,-166.5"/>
<text text-anchor="middle" x="65" y="-153" font-family="Helvetica,sans-Serif" font-size="10.00">AudioDecoder::Reinitialize</text>
</a>
</g>
</g>
<!-- Node1&#45;&gt;Node4 -->
<g id="edge13_Node000001_Node000004" class="edge">
<title>Node1&#45;&gt;Node4</title>
<g id="a_edge13_Node000001_Node000004"><a xlink:title=" ">
<path fill="none" stroke="#63b8ff" d="M515.54,-95.22C504.79,-97.4 493.56,-99.52 483,-101.25 342.97,-124.17 306.33,-118.23 166,-139.25 149.95,-141.65 132.52,-144.66 116.78,-147.51"/>
<polygon fill="#63b8ff" stroke="#63b8ff" points="515.95,-98.71 525.04,-93.26 514.53,-91.86 515.95,-98.71"/>
</a>
</g>
</g>
<!-- Node6 -->
<g id="Node000006" class="node">
<title>Node6</title>
<g id="a_Node000006"><a xlink:href="classAudioPlayer.html#a4da9701f61a9eb8e270edbf995c72755" target="_top" xlink:title="Constructs an InlineAudioPlayer widget. Initializes UI elements (labels, buttons, sliders,...">
<polygon fill="white" stroke="#666666" points="473.25,-92.5 347.75,-92.5 347.75,-74 473.25,-74 473.25,-92.5"/>
<text text-anchor="middle" x="410.5" y="-79" font-family="Helvetica,sans-Serif" font-size="10.00">AudioPlayer::AudioPlayer</text>
</a>
</g>
</g>
<!-- Node1&#45;&gt;Node6 -->
<g id="edge8_Node000001_Node000006" class="edge">
<title>Node1&#45;&gt;Node6</title>
<g id="a_edge8_Node000001_Node000006"><a xlink:title=" ">
<path fill="none" stroke="#63b8ff" d="M507.3,-83.25C496.22,-83.25 484.68,-83.25 473.6,-83.25"/>
<polygon fill="#63b8ff" stroke="#63b8ff" points="507.12,-86.75 517.12,-83.25 507.12,-79.75 507.12,-86.75"/>
</a>
</g>
</g>
<!-- Node7 -->
<g id="Node000007" class="node">
<title>Node7</title>
<g id="a_Node000007"><a xlink:href="classAudioDecoder.html#a412416ae8d5a2153c14c6023a47ceb52" target="_top" xlink:title="Initializes the FFmpeg components and QAudioOutput for playback. Opens the input stream using the cus...">
<polygon fill="white" stroke="#666666" points="469.88,-55.5 351.12,-55.5 351.12,-37 469.88,-37 469.88,-55.5"/>
<text text-anchor="middle" x="410.5" y="-42" font-family="Helvetica,sans-Serif" font-size="10.00">AudioDecoder::Initialize</text>
</a>
</g>
</g>
<!-- Node1&#45;&gt;Node7 -->
<g id="edge9_Node000001_Node000007" class="edge">
<title>Node1&#45;&gt;Node7</title>
<g id="a_edge9_Node000001_Node000007"><a xlink:title=" ">
<path fill="none" stroke="#63b8ff" d="M516.78,-70.9C496.02,-66.04 472.53,-60.54 453.01,-55.97"/>
<polygon fill="#63b8ff" stroke="#63b8ff" points="515.98,-74.31 526.51,-73.18 517.58,-67.5 515.98,-74.31"/>
</a>
</g>
</g>
<!-- Node9 -->
<g id="Node000009" class="node">
<title>Node9</title>
<g id="a_Node000009"><a xlink:href="classVideoDecoder.html#aa8f8aabbe65727acd5ef5cfdc5f3b69b" target="_top" xlink:title="Initializes the FFmpeg components for decoding the video and potentially audio. Opens the input strea...">
<polygon fill="white" stroke="#666666" points="469.88,-18.5 351.12,-18.5 351.12,0 469.88,0 469.88,-18.5"/>
<text text-anchor="middle" x="410.5" y="-5" font-family="Helvetica,sans-Serif" font-size="10.00">VideoDecoder::Initialize</text>
</a>
</g>
</g>
<!-- Node1&#45;&gt;Node9 -->
<g id="edge11_Node000001_Node000009" class="edge">
<title>Node1&#45;&gt;Node9</title>
<g id="a_edge11_Node000001_Node000009"><a xlink:title=" ">
<path fill="none" stroke="#63b8ff" d="M548.01,-66.94C531.12,-54.79 506.57,-38.58 483,-28.25 474.65,-24.59 465.43,-21.5 456.47,-18.94"/>
<polygon fill="#63b8ff" stroke="#63b8ff" points="545.66,-69.56 555.79,-72.66 549.8,-63.91 545.66,-69.56"/>
</a>
</g>
</g>
<!-- Node3 -->
<g id="Node000003" class="node">
<title>Node3</title>
<g id="a_Node000003"><a xlink:href="classAudioDecoder.html#afbc8e3bdffc473d8ca7a059dc30ce268" target="_top" xlink:title="Custom read function for FFmpeg&#39;s AVIOContext. Reads data from the internal audio_data_ QByteArray bu...">
<polygon fill="white" stroke="#666666" points="302,-203.5 166,-203.5 166,-185 302,-185 302,-203.5"/>
<text text-anchor="middle" x="234" y="-190" font-family="Helvetica,sans-Serif" font-size="10.00">AudioDecoder::ReadPacket</text>
</a>
</g>
</g>
<!-- Node2&#45;&gt;Node3 -->
<g id="edge2_Node000002_Node000003" class="edge">
<title>Node2&#45;&gt;Node3</title>
<g id="a_edge2_Node000002_Node000003"><a xlink:title=" ">
<path fill="none" stroke="#63b8ff" d="M326.47,-168.11C301.45,-173.33 275.97,-179.39 258.28,-184.54"/>
<polygon fill="#63b8ff" stroke="#63b8ff" points="326.94,-171.59 336.03,-166.16 325.54,-164.73 326.94,-171.59"/>
</a>
</g>
</g>
<!-- Node5 -->
<g id="Node000005" class="node">
<title>Node5</title>
<g id="a_Node000005"><a xlink:href="classAudioDecoder.html#a5f63aa27abafaeded80d3688638ace64" target="_top" xlink:title="Custom seek function for FFmpeg&#39;s AVIOContext. Adjusts the internal read_position_ based on the offse...">
<polygon fill="white" stroke="#666666" points="302,-166.5 166,-166.5 166,-148 302,-148 302,-166.5"/>
<text text-anchor="middle" x="234" y="-153" font-family="Helvetica,sans-Serif" font-size="10.00">AudioDecoder::SeekPacket</text>
</a>
</g>
</g>
<!-- Node2&#45;&gt;Node5 -->
<g id="edge5_Node000002_Node000005" class="edge">
<title>Node2&#45;&gt;Node5</title>
<g id="a_edge5_Node000002_Node000005"><a xlink:title=" ">
<path fill="none" stroke="#63b8ff" d="M326.24,-150.51C318.23,-150.48 310.17,-150.53 302.33,-150.66"/>
<polygon fill="#63b8ff" stroke="#63b8ff" points="325.98,-154 336,-150.58 326.03,-147 325.98,-154"/>
</a>
</g>
</g>
<!-- Node3&#45;&gt;Node2 -->
<g id="edge3_Node000003_Node000002" class="edge">
<title>Node3&#45;&gt;Node2</title>
<g id="a_edge3_Node000003_Node000002"><a xlink:title=" ">
<path fill="none" stroke="#63b8ff" d="M313.6,-184.3C340.06,-178.88 367.59,-172.38 386.33,-166.92"/>
<polygon fill="#63b8ff" stroke="#63b8ff" points="312.96,-180.86 303.84,-186.26 314.34,-187.73 312.96,-180.86"/>
</a>
</g>
</g>
<!-- Node3&#45;&gt;Node4 -->
<g id="edge4_Node000003_Node000004" class="edge">
<title>Node3&#45;&gt;Node4</title>
<g id="a_edge4_Node000003_Node000004"><a xlink:title=" ">
<path fill="none" stroke="#63b8ff" d="M177.88,-182.04C155.79,-177.14 130.69,-171.58 109.87,-166.97"/>
<polygon fill="#63b8ff" stroke="#63b8ff" points="177.12,-185.46 187.65,-184.2 178.64,-178.62 177.12,-185.46"/>
</a>
</g>
</g>
<!-- Node5&#45;&gt;Node2 -->
<g id="edge6_Node000005_Node000002" class="edge">
<title>Node5&#45;&gt;Node2</title>
<g id="a_edge6_Node000005_Node000002"><a xlink:title=" ">
<path fill="none" stroke="#63b8ff" d="M313.81,-163.97C321.7,-164.02 329.7,-164 337.52,-163.91"/>
<polygon fill="#63b8ff" stroke="#63b8ff" points="313.89,-160.47 303.85,-163.86 313.81,-167.47 313.89,-160.47"/>
</a>
</g>
</g>
<!-- Node5&#45;&gt;Node4 -->
<g id="edge7_Node000005_Node000004" class="edge">
<title>Node5&#45;&gt;Node4</title>
<g id="a_edge7_Node000005_Node000004"><a xlink:title=" ">
<path fill="none" stroke="#63b8ff" d="M154.04,-157.25C146.14,-157.25 138.18,-157.25 130.45,-157.25"/>
<polygon fill="#63b8ff" stroke="#63b8ff" points="154.04,-160.75 164.04,-157.25 154.04,-153.75 154.04,-160.75"/>
</a>
</g>
</g>
<!-- Node8 -->
<g id="Node000008" class="node">
<title>Node8</title>
<g id="a_Node000008"><a xlink:href="classAudioDecoder.html#a46043f6510cb80d1c4c14a18f23ecee2" target="_top" xlink:title="The main function executed by the QThread. Contains the loop that reads packets, decodes frames,...">
<polygon fill="white" stroke="#666666" points="282.5,-55.5 185.5,-55.5 185.5,-37 282.5,-37 282.5,-55.5"/>
<text text-anchor="middle" x="234" y="-42" font-family="Helvetica,sans-Serif" font-size="10.00">AudioDecoder::run</text>
</a>
</g>
</g>
<!-- Node7&#45;&gt;Node8 -->
<g id="edge10_Node000007_Node000008" class="edge">
<title>Node7&#45;&gt;Node8</title>
<g id="a_edge10_Node000007_Node000008"><a xlink:title=" ">
<path fill="none" stroke="#63b8ff" d="M339.58,-46.25C320.59,-46.25 300.47,-46.25 282.99,-46.25"/>
<polygon fill="#63b8ff" stroke="#63b8ff" points="339.4,-49.75 349.4,-46.25 339.4,-42.75 339.4,-49.75"/>
</a>
</g>
</g>
<!-- Node10 -->
<g id="Node000010" class="node">
<title>Node10</title>
<g id="a_Node000010"><a xlink:href="classVideoDecoder.html#a134b48e98d0b9db4011cfea08d0924da" target="_top" xlink:title="The main function executed by the QThread. Contains the loop that reads packets, decodes video frames...">
<polygon fill="white" stroke="#666666" points="282.5,-18.5 185.5,-18.5 185.5,0 282.5,0 282.5,-18.5"/>
<text text-anchor="middle" x="234" y="-5" font-family="Helvetica,sans-Serif" font-size="10.00">VideoDecoder::run</text>
</a>
</g>
</g>
<!-- Node9&#45;&gt;Node10 -->
<g id="edge12_Node000009_Node000010" class="edge">
<title>Node9&#45;&gt;Node10</title>
<g id="a_edge12_Node000009_Node000010"><a xlink:title=" ">
<path fill="none" stroke="#63b8ff" d="M339.58,-9.25C320.59,-9.25 300.47,-9.25 282.99,-9.25"/>
<polygon fill="#63b8ff" stroke="#63b8ff" points="339.4,-12.75 349.4,-9.25 339.4,-5.75 339.4,-12.75"/>
</a>
</g>
</g>
</g>
</svg>
