<?xml version="1.0" encoding="UTF-8" standalone="no"?>
<!DOCTYPE svg PUBLIC "-//W3C//DTD SVG 1.1//EN"
 "http://www.w3.org/Graphics/SVG/1.1/DTD/svg11.dtd">
<!-- Generated by graphviz version 12.2.1 (0)
 -->
<!-- Title: VideoPlayer::InitializePlayer Pages: 1 -->
<svg width="339pt" height="333pt"
 viewBox="0.00 0.00 339.25 332.50" xmlns="http://www.w3.org/2000/svg" xmlns:xlink="http://www.w3.org/1999/xlink">
<g id="graph0" class="graph" transform="scale(1 1) rotate(0) translate(4 328.5)">
<title>VideoPlayer::InitializePlayer</title>
<!-- Node1 -->
<g id="Node000001" class="node">
<title>Node1</title>
<g id="a_Node000001"><a xlink:title="Initializes the VideoDecoder instance and connects its signals. Creates the decoder,...">
<polygon fill="#999999" stroke="#666666" points="136,-176.5 0,-176.5 0,-158 136,-158 136,-176.5"/>
<text text-anchor="middle" x="68" y="-163" font-family="Helvetica,sans-Serif" font-size="10.00">VideoPlayer::InitializePlayer</text>
</a>
</g>
</g>
<!-- Node2 -->
<g id="Node000002" class="node">
<title>Node2</title>
<g id="a_Node000002"><a xlink:href="classVideoDecoder.html#a51e7a40e369cc4e80033f1dd9068cdd4" target="_top" xlink:title="Emitted when an error occurs during initialization or decoding.">
<polygon fill="white" stroke="#666666" points="303.12,-324.5 200.12,-324.5 200.12,-306 303.12,-306 303.12,-324.5"/>
<text text-anchor="middle" x="251.62" y="-311" font-family="Helvetica,sans-Serif" font-size="10.00">VideoDecoder::error</text>
</a>
</g>
</g>
<!-- Node1&#45;&gt;Node2 -->
<g id="edge1_Node000001_Node000002" class="edge">
<title>Node1&#45;&gt;Node2</title>
<g id="a_edge1_Node000001_Node000002"><a xlink:title=" ">
<path fill="none" stroke="#63b8ff" d="M73.73,-176.81C86.21,-200.95 122.44,-264.69 172,-296.25 177.26,-299.6 183.05,-302.36 189.04,-304.63"/>
<polygon fill="#63b8ff" stroke="#63b8ff" points="187.93,-307.95 198.53,-307.74 190.12,-301.3 187.93,-307.95"/>
</a>
</g>
</g>
<!-- Node3 -->
<g id="Node000003" class="node">
<title>Node3</title>
<g id="a_Node000003"><a xlink:href="classVideoDecoder.html#ac2d7b995099a90908cf02630f9ce71ce" target="_top" xlink:title="Emitted for each decoded video frame.">
<polygon fill="white" stroke="#666666" points="319.62,-287.5 183.62,-287.5 183.62,-269 319.62,-269 319.62,-287.5"/>
<text text-anchor="middle" x="251.62" y="-274" font-family="Helvetica,sans-Serif" font-size="10.00">VideoDecoder::frameReady</text>
</a>
</g>
</g>
<!-- Node1&#45;&gt;Node3 -->
<g id="edge2_Node000001_Node000003" class="edge">
<title>Node1&#45;&gt;Node3</title>
<g id="a_edge2_Node000001_Node000003"><a xlink:title=" ">
<path fill="none" stroke="#63b8ff" d="M76.7,-176.73C92.51,-195.52 130.6,-237.53 172,-259.25 175.94,-261.32 180.12,-263.17 184.4,-264.82"/>
<polygon fill="#63b8ff" stroke="#63b8ff" points="183.2,-268.1 193.79,-268.03 185.47,-261.48 183.2,-268.1"/>
</a>
</g>
</g>
<!-- Node4 -->
<g id="Node000004" class="node">
<title>Node4</title>
<g id="a_Node000004"><a xlink:href="classVideoPlayer.html#a28a1008317bdb86d8a95822d97fb0a22" target="_top" xlink:title="Slot connected to the decoder&#39;s error signal. Logs the error and displays it in the status_label_ and...">
<polygon fill="white" stroke="#666666" points="314.38,-250.5 188.88,-250.5 188.88,-232 314.38,-232 314.38,-250.5"/>
<text text-anchor="middle" x="251.62" y="-237" font-family="Helvetica,sans-Serif" font-size="10.00">VideoPlayer::HandleError</text>
</a>
</g>
</g>
<!-- Node1&#45;&gt;Node4 -->
<g id="edge3_Node000001_Node000004" class="edge">
<title>Node1&#45;&gt;Node4</title>
<g id="a_edge3_Node000001_Node000004"><a xlink:title=" ">
<path fill="none" stroke="#63b8ff" d="M84.13,-176.91C103.71,-189.04 139.23,-209.77 172,-222.25 178.14,-224.59 184.66,-226.7 191.21,-228.6"/>
<polygon fill="#63b8ff" stroke="#63b8ff" points="190.19,-231.95 200.76,-231.2 192.03,-225.2 190.19,-231.95"/>
</a>
</g>
</g>
<!-- Node5 -->
<g id="Node000005" class="node">
<title>Node5</title>
<g id="a_Node000005"><a xlink:href="classVideoPlayer.html#aa5e9a37abf6b5479169ac6f92517c2a0" target="_top" xlink:title="Slot connected to the decoder&#39;s videoInfo signal. Stores video dimensions, duration,...">
<polygon fill="white" stroke="#666666" points="324.5,-213.5 178.75,-213.5 178.75,-195 324.5,-195 324.5,-213.5"/>
<text text-anchor="middle" x="251.62" y="-200" font-family="Helvetica,sans-Serif" font-size="10.00">VideoPlayer::HandleVideoInfo</text>
</a>
</g>
</g>
<!-- Node1&#45;&gt;Node5 -->
<g id="edge4_Node000001_Node000005" class="edge">
<title>Node1&#45;&gt;Node5</title>
<g id="a_edge4_Node000001_Node000005"><a xlink:title=" ">
<path fill="none" stroke="#63b8ff" d="M116.72,-176.97C139.68,-181.65 167.41,-187.3 191.68,-192.24"/>
<polygon fill="#63b8ff" stroke="#63b8ff" points="190.93,-195.66 201.43,-194.23 192.33,-188.8 190.93,-195.66"/>
</a>
</g>
</g>
<!-- Node6 -->
<g id="Node000006" class="node">
<title>Node6</title>
<g id="a_Node000006"><a xlink:href="classVideoDecoder.html#a4b36980122d8771e7aff1ed0c1db8420" target="_top" xlink:title="Emitted when both video and audio (if present) streams reach the end.">
<polygon fill="white" stroke="#666666" points="331.25,-176.5 172,-176.5 172,-158 331.25,-158 331.25,-176.5"/>
<text text-anchor="middle" x="251.62" y="-163" font-family="Helvetica,sans-Serif" font-size="10.00">VideoDecoder::playbackFinished</text>
</a>
</g>
</g>
<!-- Node1&#45;&gt;Node6 -->
<g id="edge5_Node000001_Node000006" class="edge">
<title>Node1&#45;&gt;Node6</title>
<g id="a_edge5_Node000001_Node000006"><a xlink:title=" ">
<path fill="none" stroke="#63b8ff" d="M136.37,-167.25C144.19,-167.25 152.27,-167.25 160.33,-167.25"/>
<polygon fill="#63b8ff" stroke="#63b8ff" points="160.19,-170.75 170.19,-167.25 160.19,-163.75 160.19,-170.75"/>
</a>
</g>
</g>
<!-- Node7 -->
<g id="Node000007" class="node">
<title>Node7</title>
<g id="a_Node000007"><a xlink:href="classVideoDecoder.html#a72403db422317c2377fbf95fedd14077" target="_top" xlink:title="Emitted periodically during playback to indicate the current position (based on audio if available,...">
<polygon fill="white" stroke="#666666" points="329.75,-139.5 173.5,-139.5 173.5,-121 329.75,-121 329.75,-139.5"/>
<text text-anchor="middle" x="251.62" y="-126" font-family="Helvetica,sans-Serif" font-size="10.00">VideoDecoder::positionChanged</text>
</a>
</g>
</g>
<!-- Node1&#45;&gt;Node7 -->
<g id="edge6_Node000001_Node000007" class="edge">
<title>Node1&#45;&gt;Node7</title>
<g id="a_edge6_Node000001_Node000007"><a xlink:title=" ">
<path fill="none" stroke="#63b8ff" d="M116.72,-157.53C139.68,-152.85 167.41,-147.2 191.68,-142.26"/>
<polygon fill="#63b8ff" stroke="#63b8ff" points="192.33,-145.7 201.43,-140.27 190.93,-138.84 192.33,-145.7"/>
</a>
</g>
</g>
<!-- Node8 -->
<g id="Node000008" class="node">
<title>Node8</title>
<g id="a_Node000008"><a xlink:href="classVideoPlayer.html#a2ddaf785e9a0b2cb177e62261e5261e3" target="_top" xlink:title="Slot connected to the decoder&#39;s frameReady signal. Displays the received video frame in the video_lab...">
<polygon fill="white" stroke="#666666" points="318.12,-102.5 185.12,-102.5 185.12,-84 318.12,-84 318.12,-102.5"/>
<text text-anchor="middle" x="251.62" y="-89" font-family="Helvetica,sans-Serif" font-size="10.00">VideoPlayer::UpdateFrame</text>
</a>
</g>
</g>
<!-- Node1&#45;&gt;Node8 -->
<g id="edge7_Node000001_Node000008" class="edge">
<title>Node1&#45;&gt;Node8</title>
<g id="a_edge7_Node000001_Node000008"><a xlink:title=" ">
<path fill="none" stroke="#63b8ff" d="M84.13,-157.59C103.71,-145.46 139.23,-124.73 172,-112.25 178.14,-109.91 184.66,-107.8 191.21,-105.9"/>
<polygon fill="#63b8ff" stroke="#63b8ff" points="192.03,-109.3 200.76,-103.3 190.19,-102.55 192.03,-109.3"/>
</a>
</g>
</g>
<!-- Node9 -->
<g id="Node000009" class="node">
<title>Node9</title>
<g id="a_Node000009"><a xlink:href="classVideoPlayer.html#a497bfcdf3da4ed1d16db8130197b9588" target="_top" xlink:title="Slot connected to the decoder&#39;s positionChanged signal. Updates the progress slider&#39;s position and th...">
<polygon fill="white" stroke="#666666" points="316.62,-65.75 186.62,-65.75 186.62,-36.75 316.62,-36.75 316.62,-65.75"/>
<text text-anchor="start" x="194.62" y="-52.25" font-family="Helvetica,sans-Serif" font-size="10.00">VideoPlayer::UpdateSlider</text>
<text text-anchor="middle" x="251.62" y="-41.75" font-family="Helvetica,sans-Serif" font-size="10.00">Position</text>
</a>
</g>
</g>
<!-- Node1&#45;&gt;Node9 -->
<g id="edge8_Node000001_Node000009" class="edge">
<title>Node1&#45;&gt;Node9</title>
<g id="a_edge8_Node000001_Node000009"><a xlink:title=" ">
<path fill="none" stroke="#63b8ff" d="M77.07,-157.69C93.22,-139.13 131.47,-98.07 172,-75.25 174.95,-73.59 178.03,-72.03 181.19,-70.57"/>
<polygon fill="#63b8ff" stroke="#63b8ff" points="182.24,-73.92 190.1,-66.81 179.52,-67.47 182.24,-73.92"/>
</a>
</g>
</g>
<!-- Node10 -->
<g id="Node000010" class="node">
<title>Node10</title>
<g id="a_Node000010"><a xlink:href="classVideoDecoder.html#a0680707eda3a8c22786559ff45bdb46e" target="_top" xlink:title="Emitted after successful initialization, providing video stream details.">
<polygon fill="white" stroke="#666666" points="313.25,-18.5 190,-18.5 190,0 313.25,0 313.25,-18.5"/>
<text text-anchor="middle" x="251.62" y="-5" font-family="Helvetica,sans-Serif" font-size="10.00">VideoDecoder::videoInfo</text>
</a>
</g>
</g>
<!-- Node1&#45;&gt;Node10 -->
<g id="edge9_Node000001_Node000010" class="edge">
<title>Node1&#45;&gt;Node10</title>
<g id="a_edge9_Node000001_Node000010"><a xlink:title=" ">
<path fill="none" stroke="#63b8ff" d="M73.18,-157.7C84.81,-132.28 120.17,-62.59 172,-28.25 174.69,-26.47 177.53,-24.85 180.47,-23.39"/>
<polygon fill="#63b8ff" stroke="#63b8ff" points="181.58,-26.72 189.4,-19.57 178.83,-20.29 181.58,-26.72"/>
</a>
</g>
</g>
</g>
</svg>
