<?xml version="1.0" encoding="UTF-8" standalone="no"?>
<!DOCTYPE svg PUBLIC "-//W3C//DTD SVG 1.1//EN"
 "http://www.w3.org/Graphics/SVG/1.1/DTD/svg11.dtd">
<!-- Generated by graphviz version 12.2.1 (0)
 -->
<!-- Title: AppInstanceManager::SetupServer Pages: 1 -->
<!--zoomable 99 -->

<svg id="main" version="1.1" xmlns="http://www.w3.org/2000/svg" xmlns:xlink="http://www.w3.org/1999/xlink" xml:space="preserve" onload="init(evt)">

<style type="text/css"><![CDATA[
.node, .edge {opacity: 0.7;}
.node.selected, .edge.selected {opacity: 1;}
.edge:hover path { stroke: red; }
.edge:hover polygon { stroke: red; fill: red; }
]]></style>

<defs>
  <circle id="rim" cx="0" cy="0" r="7"/>
  <circle id="rim2" cx="0" cy="0" r="3.5"/>
  <g id="zoomPlus">
    <use xlink:href="#rim" fill="#404040"><set attributeName="fill" to="#808080" begin="zoomplus.mouseover" end="zoomplus.mouseout"/></use>
    <path d="M-4,0h8M0,-4v8" fill="none" stroke="white" stroke-width="1.5" pointer-events="none"/>
  </g>
  <g id="zoomMin">
    <use xlink:href="#rim" fill="#404040"><set attributeName="fill" to="#808080" begin="zoomminus.mouseover" end="zoomminus.mouseout"/></use>
    <path d="M-4,0h8" fill="none" stroke="white" stroke-width="1.5" pointer-events="none"/>
  </g>
  <g id="arrowUp" transform="translate(30 24)">
    <use xlink:href="#rim"/>
    <path pointer-events="none" fill="none" stroke="white" stroke-width="1.5" d="M0,-3.0v7 M-2.5,-0.5L0,-3.0L2.5,-0.5"/>
  </g>
  <g id="arrowRight" transform="rotate(90) translate(36 -43)">
    <use xlink:href="#rim"/>
    <path pointer-events="none" fill="none" stroke="white" stroke-width="1.5" d="M0,-3.0v7 M-2.5,-0.5L0,-3.0L2.5,-0.5"/>
  </g>
  <g id="arrowDown" transform="rotate(180) translate(-30 -48)">
    <use xlink:href="#rim"/>
    <path pointer-events="none" fill="none" stroke="white" stroke-width="1.5" d="M0,-3.0v7 M-2.5,-0.5L0,-3.0L2.5,-0.5"/>
  </g>
  <g id="arrowLeft" transform="rotate(270) translate(-36 17)">
    <use xlink:href="#rim"/>
    <path pointer-events="none" fill="none" stroke="white" stroke-width="1.5" d="M0,-3.0v7 M-2.5,-0.5L0,-3.0L2.5,-0.5"/>
  </g>
  <g id="resetDef">
    <use xlink:href="#rim2" fill="#404040"><set attributeName="fill" to="#808080" begin="reset.mouseover" end="reset.mouseout"/></use>
  </g>
</defs>
<script type="application/ecmascript">
var viewWidth = 549;
var viewHeight = 99;
var sectionId = 'dynsection-27';
</script>
<script type="application/ecmascript" xlink:href="svg.min.js"/>
<svg id="graph" class="graph">
<g id="viewport">
<title>AppInstanceManager::SetupServer</title>
<!-- Node1 -->
<g id="Node000001" class="node">
<title>Node1</title>
<g id="a_Node000001"><a xlink:title="Sets up the QLocalServer for the creator instance.">
<polygon fill="#999999" stroke="#666666" points="541,-40.74 432.75,-40.74 432.75,-11.74 541,-11.74 541,-40.74"/>
<text text-anchor="start" x="440.75" y="-27.24" font-family="Helvetica,sans-Serif" font-size="10.00">AppInstanceManager</text>
<text text-anchor="middle" x="486.88" y="-16.74" font-family="Helvetica,sans-Serif" font-size="10.00">::SetupServer</text>
</a>
</g>
</g>
<!-- Node2 -->
<g id="Node000002" class="node">
<title>Node2</title>
<g id="a_Node000002"><a xlink:href="classAppInstanceManager.html#a8087ee7ea64e087b39c66048becc8574" target="_top" xlink:title="Slot called when a connected socket disconnects. Handles cleanup and potential role change (the clien...">
<polygon fill="white" stroke="#666666" points="396.75,-83.74 288.5,-83.74 288.5,-54.74 396.75,-54.74 396.75,-83.74"/>
<text text-anchor="start" x="296.5" y="-70.24" font-family="Helvetica,sans-Serif" font-size="10.00">AppInstanceManager</text>
<text text-anchor="middle" x="342.62" y="-59.74" font-family="Helvetica,sans-Serif" font-size="10.00">::clientDisconnected</text>
</a>
</g>
</g>
<!-- Node1&#45;&gt;Node2 -->
<g id="edge1_Node000001_Node000002" class="edge">
<title>Node1&#45;&gt;Node2</title>
<g id="a_edge1_Node000001_Node000002"><a xlink:title=" ">
<path fill="none" stroke="#63b8ff" d="M425.73,-44.42C414.78,-47.73 403.48,-51.15 392.89,-54.35"/>
<polygon fill="#63b8ff" stroke="#63b8ff" points="426.51,-47.84 435.07,-41.59 424.49,-41.14 426.51,-47.84"/>
</a>
</g>
</g>
<!-- Node4 -->
<g id="Node000004" class="node">
<title>Node4</title>
<g id="a_Node000004"><a xlink:href="classAppInstanceManager.html#a1ecdc08b00d9aae9d33976f8ce90d6f5" target="_top" xlink:title="Starts the instance manager.">
<polygon fill="white" stroke="#666666" points="108.25,-45.74 0,-45.74 0,-16.74 108.25,-16.74 108.25,-45.74"/>
<text text-anchor="start" x="8" y="-32.24" font-family="Helvetica,sans-Serif" font-size="10.00">AppInstanceManager</text>
<text text-anchor="middle" x="54.12" y="-21.74" font-family="Helvetica,sans-Serif" font-size="10.00">::Start</text>
</a>
</g>
</g>
<!-- Node1&#45;&gt;Node4 -->
<g id="edge6_Node000001_Node000004" class="edge">
<title>Node1&#45;&gt;Node4</title>
<g id="a_edge6_Node000001_Node000004"><a xlink:title=" ">
<path fill="none" stroke="#63b8ff" d="M421.27,-15C352.36,-4.75 240.15,6.96 144.25,-6.24 129.28,-8.3 113.29,-12.21 99.05,-16.35"/>
<polygon fill="#63b8ff" stroke="#63b8ff" points="420.46,-18.41 430.87,-16.46 421.51,-11.49 420.46,-18.41"/>
</a>
</g>
</g>
<!-- Node3 -->
<g id="Node000003" class="node">
<title>Node3</title>
<g id="a_Node000003"><a xlink:href="classAppInstanceManager.html#a6aa626dd1ea5e5c57860d532bdb85d5e" target="_top" xlink:title="Establishes a connection to the server instance for a client instance.">
<polygon fill="white" stroke="#666666" points="252.5,-90.74 144.25,-90.74 144.25,-61.74 252.5,-61.74 252.5,-90.74"/>
<text text-anchor="start" x="152.25" y="-77.24" font-family="Helvetica,sans-Serif" font-size="10.00">AppInstanceManager</text>
<text text-anchor="middle" x="198.38" y="-66.74" font-family="Helvetica,sans-Serif" font-size="10.00">::ConnectToServer</text>
</a>
</g>
</g>
<!-- Node2&#45;&gt;Node3 -->
<g id="edge2_Node000002_Node000003" class="edge">
<title>Node2&#45;&gt;Node3</title>
<g id="a_edge2_Node000002_Node000003"><a xlink:title=" ">
<path fill="none" stroke="#63b8ff" d="M276.88,-72.42C268.74,-72.82 260.5,-73.23 252.57,-73.62"/>
<polygon fill="#63b8ff" stroke="#63b8ff" points="276.92,-75.93 286.74,-71.94 276.58,-68.93 276.92,-75.93"/>
</a>
</g>
</g>
<!-- Node5 -->
<g id="Node000005" class="node">
<title>Node5</title>
<g id="a_Node000005"><a xlink:href="classAppInstanceManager.html#af7e9143a1ff0af2932c1d0afc1f31231" target="_top" xlink:title="Slot called when a new client attempts to connect to the server.">
<polygon fill="white" stroke="#666666" points="252.5,-43.74 144.25,-43.74 144.25,-14.74 252.5,-14.74 252.5,-43.74"/>
<text text-anchor="start" x="152.25" y="-30.24" font-family="Helvetica,sans-Serif" font-size="10.00">AppInstanceManager</text>
<text text-anchor="middle" x="198.38" y="-19.74" font-family="Helvetica,sans-Serif" font-size="10.00">::onNewConnection</text>
</a>
</g>
</g>
<!-- Node2&#45;&gt;Node5 -->
<g id="edge4_Node000002_Node000005" class="edge">
<title>Node2&#45;&gt;Node5</title>
<g id="a_edge4_Node000002_Node000005"><a xlink:title=" ">
<path fill="none" stroke="#63b8ff" d="M277.67,-51.25C269.21,-48.88 260.63,-46.46 252.39,-44.14"/>
<polygon fill="#63b8ff" stroke="#63b8ff" points="276.63,-54.6 287.2,-53.93 278.52,-47.86 276.63,-54.6"/>
</a>
</g>
</g>
<!-- Node3&#45;&gt;Node4 -->
<g id="edge3_Node000003_Node000004" class="edge">
<title>Node3&#45;&gt;Node4</title>
<g id="a_edge3_Node000003_Node000004"><a xlink:title=" ">
<path fill="none" stroke="#63b8ff" d="M139.35,-57.88C127.02,-53.98 114.15,-49.91 102.29,-46.16"/>
<polygon fill="#63b8ff" stroke="#63b8ff" points="137.97,-61.12 148.56,-60.8 140.09,-54.44 137.97,-61.12"/>
</a>
</g>
</g>
<!-- Node5&#45;&gt;Node1 -->
<g id="edge5_Node000005_Node000001" class="edge">
<title>Node5&#45;&gt;Node1</title>
<g id="a_edge5_Node000005_Node000001"><a xlink:title=" ">
<path fill="none" stroke="#63b8ff" d="M264.16,-28.56C314.92,-28.03 384.69,-27.3 432.32,-26.8"/>
<polygon fill="#63b8ff" stroke="#63b8ff" points="264.14,-25.06 254.18,-28.66 264.21,-32.06 264.14,-25.06"/>
</a>
</g>
</g>
</g>
</svg>

<g id="navigator" transform="translate(0 0)" fill="#404254">
  <rect fill="#f2f5e9" fill-opacity="0.5" stroke="#606060" stroke-width=".5" x="0" y="0" width="60" height="60"/>
  <use id="zoomplus" xlink:href="#zoomPlus" x="17" y="9" onmousedown="handleZoom(evt,'in')"/>
  <use id="zoomminus" xlink:href="#zoomMin" x="42" y="9" onmousedown="handleZoom(evt,'out')"/>
  <use id="reset" xlink:href="#resetDef" x="30" y="36" onmousedown="handleReset()"/>
   <use id="arrowup" xlink:href="#arrowUp" x="0" y="0" onmousedown="handlePan(0,-1)"/>
  <use id="arrowright" xlink:href="#arrowRight" x="0" y="0" onmousedown="handlePan(1,0)"/>
  <use id="arrowdown" xlink:href="#arrowDown" x="0" y="0" onmousedown="handlePan(0,1)"/>
  <use id="arrowleft" xlink:href="#arrowLeft" x="0" y="0" onmousedown="handlePan(-1,0)"/>
</g>
<svg viewBox="0 0 15 15" width="100%" height="30px" preserveAspectRatio="xMaxYMin meet">
 <g id="arrow_out" transform="scale(0.3 0.3)">
  <a xlink:href="classAppInstanceManager_af09b098118800e025bcdce635b382ddd_icgraph_org.svg" target="_base">
   <rect id="button" ry="5" rx="5" y="6" x="6" height="38" width="38"
        fill="#f2f5e9" fill-opacity="0.5" stroke="#606060" stroke-width="1.0"/>
   <path id="arrow"
     d="M 11.500037,31.436501 C 11.940474,20.09759 22.043105,11.32322 32.158766,21.979434 L 37.068811,17.246167 C 37.068811,17.246167 37.088388,32 37.088388,32 L 22.160133,31.978069 C 22.160133,31.978069 26.997745,27.140456 26.997745,27.140456 C 18.528582,18.264221 13.291696,25.230495 11.500037,31.436501 z"
     style="fill:#404040;"/>
  </a>
 </g>
</svg>

<style type='text/css'>
<![CDATA[
[data-mouse-over-selected='false'] { opacity: 0.7; }
[data-mouse-over-selected='true']  { opacity: 1.0; }
]]>
</style>
<script type="application/ecmascript"><![CDATA[
document.addEventListener('DOMContentLoaded', (event) => {
  highlightEdges();
  highlightAdjacentNodes();
});
]]></script>
</svg>
