<?xml version="1.0" encoding="UTF-8" standalone="no"?>
<!DOCTYPE svg PUBLIC "-//W3C//DTD SVG 1.1//EN"
 "http://www.w3.org/Graphics/SVG/1.1/DTD/svg11.dtd">
<!-- Generated by graphviz version 12.2.1 (0)
 -->
<!-- Title: AttachmentDataStore::AttachmentDataStore Pages: 1 -->
<!--zoomable 131 -->

<svg id="main" version="1.1" xmlns="http://www.w3.org/2000/svg" xmlns:xlink="http://www.w3.org/1999/xlink" xml:space="preserve" onload="init(evt)">

<style type="text/css"><![CDATA[
.node, .edge {opacity: 0.7;}
.node.selected, .edge.selected {opacity: 1;}
.edge:hover path { stroke: red; }
.edge:hover polygon { stroke: red; fill: red; }
]]></style>

<defs>
  <circle id="rim" cx="0" cy="0" r="7"/>
  <circle id="rim2" cx="0" cy="0" r="3.5"/>
  <g id="zoomPlus">
    <use xlink:href="#rim" fill="#404040"><set attributeName="fill" to="#808080" begin="zoomplus.mouseover" end="zoomplus.mouseout"/></use>
    <path d="M-4,0h8M0,-4v8" fill="none" stroke="white" stroke-width="1.5" pointer-events="none"/>
  </g>
  <g id="zoomMin">
    <use xlink:href="#rim" fill="#404040"><set attributeName="fill" to="#808080" begin="zoomminus.mouseover" end="zoomminus.mouseout"/></use>
    <path d="M-4,0h8" fill="none" stroke="white" stroke-width="1.5" pointer-events="none"/>
  </g>
  <g id="arrowUp" transform="translate(30 24)">
    <use xlink:href="#rim"/>
    <path pointer-events="none" fill="none" stroke="white" stroke-width="1.5" d="M0,-3.0v7 M-2.5,-0.5L0,-3.0L2.5,-0.5"/>
  </g>
  <g id="arrowRight" transform="rotate(90) translate(36 -43)">
    <use xlink:href="#rim"/>
    <path pointer-events="none" fill="none" stroke="white" stroke-width="1.5" d="M0,-3.0v7 M-2.5,-0.5L0,-3.0L2.5,-0.5"/>
  </g>
  <g id="arrowDown" transform="rotate(180) translate(-30 -48)">
    <use xlink:href="#rim"/>
    <path pointer-events="none" fill="none" stroke="white" stroke-width="1.5" d="M0,-3.0v7 M-2.5,-0.5L0,-3.0L2.5,-0.5"/>
  </g>
  <g id="arrowLeft" transform="rotate(270) translate(-36 17)">
    <use xlink:href="#rim"/>
    <path pointer-events="none" fill="none" stroke="white" stroke-width="1.5" d="M0,-3.0v7 M-2.5,-0.5L0,-3.0L2.5,-0.5"/>
  </g>
  <g id="resetDef">
    <use xlink:href="#rim2" fill="#404040"><set attributeName="fill" to="#808080" begin="reset.mouseover" end="reset.mouseout"/></use>
  </g>
</defs>
<script type="application/ecmascript">
var viewWidth = 624;
var viewHeight = 131;
var sectionId = 'dynsection-1';
</script>
<script type="application/ecmascript" xlink:href="svg.min.js"/>
<svg id="graph" class="graph">
<g id="viewport">
<title>AttachmentDataStore::AttachmentDataStore</title>
<!-- Node1 -->
<g id="Node000001" class="node">
<title>Node1</title>
<g id="a_Node000001"><a xlink:title="Private default constructor to enforce the singleton pattern.">
<polygon fill="#999999" stroke="#666666" points="616,-76 500.25,-76 500.25,-47 616,-47 616,-76"/>
<text text-anchor="start" x="508.25" y="-62.5" font-family="Helvetica,sans-Serif" font-size="10.00">AttachmentDataStore</text>
<text text-anchor="middle" x="558.12" y="-52" font-family="Helvetica,sans-Serif" font-size="10.00">::AttachmentDataStore</text>
</a>
</g>
</g>
<!-- Node2 -->
<g id="Node000002" class="node">
<title>Node2</title>
<g id="a_Node000002"><a xlink:href="classAttachmentDataStore.html#a0d93dafc03e5e57aa61f0b26aef99b5e" target="_top" xlink:title="Deleted copy constructor to prevent copying.">
<polygon fill="white" stroke="#666666" points="464.25,-123 348.5,-123 348.5,-94 464.25,-94 464.25,-123"/>
<text text-anchor="start" x="356.5" y="-109.5" font-family="Helvetica,sans-Serif" font-size="10.00">AttachmentDataStore</text>
<text text-anchor="middle" x="406.38" y="-99" font-family="Helvetica,sans-Serif" font-size="10.00">::AttachmentDataStore</text>
</a>
</g>
</g>
<!-- Node1&#45;&gt;Node2 -->
<g id="edge1_Node000001_Node000002" class="edge">
<title>Node1&#45;&gt;Node2</title>
<g id="a_edge1_Node000001_Node000002"><a xlink:title=" ">
<path fill="none" stroke="#63b8ff" d="M498.84,-79.79C484.31,-84.35 468.91,-89.19 454.96,-93.56"/>
<polygon fill="#63b8ff" stroke="#63b8ff" points="499.81,-83.16 508.3,-76.82 497.71,-76.48 499.81,-83.16"/>
</a>
</g>
</g>
<!-- Node3 -->
<g id="Node000003" class="node">
<title>Node3</title>
<g id="a_Node000003"><a xlink:href="classAttachmentDataStore.html#a954fe97d063ada489bb0b29ad4f4f4e0" target="_top" xlink:title="Gets the singleton instance of the AttachmentDataStore.">
<polygon fill="white" stroke="#666666" points="461.25,-76 351.5,-76 351.5,-47 461.25,-47 461.25,-76"/>
<text text-anchor="start" x="359.5" y="-62.5" font-family="Helvetica,sans-Serif" font-size="10.00">AttachmentDataStore</text>
<text text-anchor="middle" x="406.38" y="-52" font-family="Helvetica,sans-Serif" font-size="10.00">::GetInstance</text>
</a>
</g>
</g>
<!-- Node1&#45;&gt;Node3 -->
<g id="edge2_Node000001_Node000003" class="edge">
<title>Node1&#45;&gt;Node3</title>
<g id="a_edge2_Node000001_Node000003"><a xlink:title=" ">
<path fill="none" stroke="#63b8ff" d="M488.6,-61.5C479.44,-61.5 470.16,-61.5 461.3,-61.5"/>
<polygon fill="#63b8ff" stroke="#63b8ff" points="488.57,-65 498.57,-61.5 488.57,-58 488.57,-65"/>
</a>
</g>
</g>
<!-- Node16 -->
<g id="Node000016" class="node">
<title>Node16</title>
<g id="a_Node000016"><a xlink:href="classAttachmentDataStore.html#a1a1f12a776bb00661246b7ab553f284d" target="_top" xlink:title="Deleted assignment operator to prevent assignment.">
<polygon fill="white" stroke="#666666" points="461.25,-29 351.5,-29 351.5,0 461.25,0 461.25,-29"/>
<text text-anchor="start" x="359.5" y="-15.5" font-family="Helvetica,sans-Serif" font-size="10.00">AttachmentDataStore</text>
<text text-anchor="middle" x="406.38" y="-5" font-family="Helvetica,sans-Serif" font-size="10.00">::operator=</text>
</a>
</g>
</g>
<!-- Node1&#45;&gt;Node16 -->
<g id="edge8_Node000001_Node000016" class="edge">
<title>Node1&#45;&gt;Node16</title>
<g id="a_edge8_Node000001_Node000016"><a xlink:title=" ">
<path fill="none" stroke="#63b8ff" d="M498.84,-43.21C484.31,-38.65 468.91,-33.81 454.96,-29.44"/>
<polygon fill="#63b8ff" stroke="#63b8ff" points="497.71,-46.52 508.3,-46.18 499.81,-39.84 497.71,-46.52"/>
</a>
</g>
</g>
<!-- Node4 -->
<g id="Node000004" class="node">
<title>Node4</title>
<g id="a_Node000004"><a xlink:href="classMessageFormatter.html#af3a717bfa398187a653410d3febeb9cb" target="_top" xlink:title="Formats a message represented by a JSON object into an HTML string.">
<polygon fill="white" stroke="#666666" points="312.5,-119 178,-119 178,-90 312.5,-90 312.5,-119"/>
<text text-anchor="start" x="186" y="-105.5" font-family="Helvetica,sans-Serif" font-size="10.00">MessageFormatter::Format</text>
<text text-anchor="middle" x="245.25" y="-95" font-family="Helvetica,sans-Serif" font-size="10.00">Message</text>
</a>
</g>
</g>
<!-- Node3&#45;&gt;Node4 -->
<g id="edge3_Node000003_Node000004" class="edge">
<title>Node3&#45;&gt;Node4</title>
<g id="a_edge3_Node000003_Node000004"><a xlink:title=" ">
<path fill="none" stroke="#63b8ff" d="M340.03,-79.16C327.29,-82.6 314.05,-86.18 301.67,-89.52"/>
<polygon fill="#63b8ff" stroke="#63b8ff" points="340.86,-82.56 349.6,-76.57 339.03,-75.8 340.86,-82.56"/>
</a>
</g>
</g>
<!-- Node5 -->
<g id="Node000005" class="node">
<title>Node5</title>
<g id="a_Node000005"><a xlink:href="classMessageProcessor.html#a2a7686af1fb4bdbfb0ac9af65bcb85ac" target="_top" xlink:title="Processes messages of type &quot;message&quot; or &quot;send_message&quot;. Checks for duplicates, handles attachments (s...">
<polygon fill="#fff0f0" stroke="red" points="142,-99 0,-99 0,-70 142,-70 142,-99"/>
<text text-anchor="start" x="8" y="-85.5" font-family="Helvetica,sans-Serif" font-size="10.00">MessageProcessor::Process</text>
<text text-anchor="middle" x="71" y="-75" font-family="Helvetica,sans-Serif" font-size="10.00">MessageContent</text>
</a>
</g>
</g>
<!-- Node3&#45;&gt;Node5 -->
<g id="edge7_Node000003_Node000005" class="edge">
<title>Node3&#45;&gt;Node5</title>
<g id="a_edge7_Node000003_Node000005"><a xlink:title=" ">
<path fill="none" stroke="#63b8ff" d="M339.67,-66.03C282.71,-69.96 200.49,-75.64 142.24,-79.65"/>
<polygon fill="#63b8ff" stroke="#63b8ff" points="339.83,-69.53 349.56,-65.35 339.34,-62.55 339.83,-69.53"/>
</a>
</g>
</g>
<!-- Node14 -->
<g id="Node000014" class="node">
<title>Node14</title>
<g id="a_Node000014"><a xlink:href="classAttachmentPlaceholder.html#a8d2443eb9d37bbbc16b5c7a8ead875e2" target="_top" xlink:title="Slot triggered when the load/retry button is clicked or automatically after initialization....">
<polygon fill="white" stroke="#666666" points="303.88,-33 186.62,-33 186.62,-4 303.88,-4 303.88,-33"/>
<text text-anchor="start" x="194.62" y="-19.5" font-family="Helvetica,sans-Serif" font-size="10.00">AttachmentPlaceholder</text>
<text text-anchor="middle" x="245.25" y="-9" font-family="Helvetica,sans-Serif" font-size="10.00">::onLoadButtonClicked</text>
</a>
</g>
</g>
<!-- Node3&#45;&gt;Node14 -->
<g id="edge5_Node000003_Node000014" class="edge">
<title>Node3&#45;&gt;Node14</title>
<g id="a_edge5_Node000003_Node000014"><a xlink:title=" ">
<path fill="none" stroke="#63b8ff" d="M340.03,-43.84C327.29,-40.4 314.05,-36.82 301.67,-33.48"/>
<polygon fill="#63b8ff" stroke="#63b8ff" points="339.03,-47.2 349.6,-46.43 340.86,-40.44 339.03,-47.2"/>
</a>
</g>
</g>
<!-- Node4&#45;&gt;Node5 -->
<g id="edge4_Node000004_Node000005" class="edge">
<title>Node4&#45;&gt;Node5</title>
<g id="a_edge4_Node000004_Node000005"><a xlink:title=" ">
<path fill="none" stroke="#63b8ff" d="M166.43,-95.46C158.43,-94.54 150.33,-93.59 142.41,-92.68"/>
<polygon fill="#63b8ff" stroke="#63b8ff" points="165.81,-98.92 176.15,-96.59 166.62,-91.96 165.81,-98.92"/>
</a>
</g>
</g>
<!-- Node15 -->
<g id="Node000015" class="node">
<title>Node15</title>
<g id="a_Node000015"><a xlink:href="classAttachmentPlaceholder.html#a75277d4204ecadbc370f7a4c393cd0be" target="_top" xlink:title="Constructs an AttachmentPlaceholder widget. Initializes the UI elements (labels, button,...">
<polygon fill="white" stroke="#666666" points="132.62,-33 9.38,-33 9.38,-4 132.62,-4 132.62,-33"/>
<text text-anchor="start" x="17.38" y="-19.5" font-family="Helvetica,sans-Serif" font-size="10.00">AttachmentPlaceholder</text>
<text text-anchor="middle" x="71" y="-9" font-family="Helvetica,sans-Serif" font-size="10.00">::AttachmentPlaceholder</text>
</a>
</g>
</g>
<!-- Node14&#45;&gt;Node15 -->
<g id="edge6_Node000014_Node000015" class="edge">
<title>Node14&#45;&gt;Node15</title>
<g id="a_edge6_Node000014_Node000015"><a xlink:title=" ">
<path fill="none" stroke="#63b8ff" d="M174.92,-18.5C161.02,-18.5 146.51,-18.5 132.93,-18.5"/>
<polygon fill="#63b8ff" stroke="#63b8ff" points="174.9,-22 184.9,-18.5 174.9,-15 174.9,-22"/>
</a>
</g>
</g>
</g>
</svg>

<g id="navigator" transform="translate(0 0)" fill="#404254">
  <rect fill="#f2f5e9" fill-opacity="0.5" stroke="#606060" stroke-width=".5" x="0" y="0" width="60" height="60"/>
  <use id="zoomplus" xlink:href="#zoomPlus" x="17" y="9" onmousedown="handleZoom(evt,'in')"/>
  <use id="zoomminus" xlink:href="#zoomMin" x="42" y="9" onmousedown="handleZoom(evt,'out')"/>
  <use id="reset" xlink:href="#resetDef" x="30" y="36" onmousedown="handleReset()"/>
   <use id="arrowup" xlink:href="#arrowUp" x="0" y="0" onmousedown="handlePan(0,-1)"/>
  <use id="arrowright" xlink:href="#arrowRight" x="0" y="0" onmousedown="handlePan(1,0)"/>
  <use id="arrowdown" xlink:href="#arrowDown" x="0" y="0" onmousedown="handlePan(0,1)"/>
  <use id="arrowleft" xlink:href="#arrowLeft" x="0" y="0" onmousedown="handlePan(-1,0)"/>
</g>
<svg viewBox="0 0 15 15" width="100%" height="30px" preserveAspectRatio="xMaxYMin meet">
 <g id="arrow_out" transform="scale(0.3 0.3)">
  <a xlink:href="classAttachmentDataStore_a8eaf2333a11d901e4d62a0a7c9f4c2c4_icgraph_org.svg" target="_base">
   <rect id="button" ry="5" rx="5" y="6" x="6" height="38" width="38"
        fill="#f2f5e9" fill-opacity="0.5" stroke="#606060" stroke-width="1.0"/>
   <path id="arrow"
     d="M 11.500037,31.436501 C 11.940474,20.09759 22.043105,11.32322 32.158766,21.979434 L 37.068811,17.246167 C 37.068811,17.246167 37.088388,32 37.088388,32 L 22.160133,31.978069 C 22.160133,31.978069 26.997745,27.140456 26.997745,27.140456 C 18.528582,18.264221 13.291696,25.230495 11.500037,31.436501 z"
     style="fill:#404040;"/>
  </a>
 </g>
</svg>

<style type='text/css'>
<![CDATA[
[data-mouse-over-selected='false'] { opacity: 0.7; }
[data-mouse-over-selected='true']  { opacity: 1.0; }
]]>
</style>
<script type="application/ecmascript"><![CDATA[
document.addEventListener('DOMContentLoaded', (event) => {
  highlightEdges();
  highlightAdjacentNodes();
});
]]></script>
</svg>
