<?xml version="1.0" encoding="UTF-8" standalone="no"?>
<!DOCTYPE svg PUBLIC "-//W3C//DTD SVG 1.1//EN"
 "http://www.w3.org/Graphics/SVG/1.1/DTD/svg11.dtd">
<!-- Generated by graphviz version 12.2.1 (0)
 -->
<!-- Title: ShortcutManager::operator= Pages: 1 -->
<svg width="317pt" height="55pt"
 viewBox="0.00 0.00 316.75 55.00" xmlns="http://www.w3.org/2000/svg" xmlns:xlink="http://www.w3.org/1999/xlink">
<g id="graph0" class="graph" transform="scale(1 1) rotate(0) translate(4 51)">
<title>ShortcutManager::operator=</title>
<!-- Node1 -->
<g id="Node000001" class="node">
<title>Node1</title>
<g id="a_Node000001"><a xlink:title="Deleted assignment operator to prevent assignment.">
<polygon fill="#999999" stroke="#666666" points="138.25,-23.75 0,-23.75 0,-5.25 138.25,-5.25 138.25,-23.75"/>
<text text-anchor="middle" x="69.12" y="-10.25" font-family="Helvetica,sans-Serif" font-size="10.00">ShortcutManager::operator=</text>
</a>
</g>
</g>
<!-- Node2 -->
<g id="Node000002" class="node">
<title>Node2</title>
<g id="a_Node000002"><a xlink:href="classShortcutManager.html#a3bfcb924aeb88b7e4baded8bd37ed3c4" target="_top" xlink:title="Deleted copy constructor to prevent copying.">
<polygon fill="white" stroke="#666666" points="308.75,-29 174.25,-29 174.25,0 308.75,0 308.75,-29"/>
<text text-anchor="start" x="182.25" y="-15.5" font-family="Helvetica,sans-Serif" font-size="10.00">ShortcutManager::Shortcut</text>
<text text-anchor="middle" x="241.5" y="-5" font-family="Helvetica,sans-Serif" font-size="10.00">Manager</text>
</a>
</g>
</g>
<!-- Node1&#45;&gt;Node2 -->
<g id="edge1_Node000001_Node000002" class="edge">
<title>Node1&#45;&gt;Node2</title>
<g id="a_edge1_Node000001_Node000002"><a xlink:title=" ">
<path fill="none" stroke="#63b8ff" d="M138.44,-14.5C146.37,-14.5 154.5,-14.5 162.55,-14.5"/>
<polygon fill="#63b8ff" stroke="#63b8ff" points="162.32,-18 172.32,-14.5 162.32,-11 162.32,-18"/>
</a>
</g>
</g>
<!-- Node2&#45;&gt;Node2 -->
<g id="edge2_Node000002_Node000002" class="edge">
<title>Node2&#45;&gt;Node2</title>
<g id="a_edge2_Node000002_Node000002"><a xlink:title=" ">
<path fill="none" stroke="#63b8ff" d="M211.46,-29.21C204.22,-38.32 214.23,-47 241.5,-47 256.41,-47 266.17,-44.41 270.76,-40.56"/>
<polygon fill="#63b8ff" stroke="#63b8ff" points="274.24,-40.93 271.44,-30.72 267.26,-40.45 274.24,-40.93"/>
</a>
</g>
</g>
</g>
</svg>
