<?xml version="1.0" encoding="UTF-8" standalone="no"?>
<!DOCTYPE svg PUBLIC "-//W3C//DTD SVG 1.1//EN"
 "http://www.w3.org/Graphics/SVG/1.1/DTD/svg11.dtd">
<!-- Generated by graphviz version 12.2.1 (0)
 -->
<!-- Title: WavelengthJoiner Pages: 1 -->
<svg width="161pt" height="296pt"
 viewBox="0.00 0.00 161.00 295.50" xmlns="http://www.w3.org/2000/svg" xmlns:xlink="http://www.w3.org/1999/xlink">
<g id="graph0" class="graph" transform="scale(1 1) rotate(0) translate(4 291.5)">
<title>WavelengthJoiner</title>
<!-- Node1 -->
<g id="Node000001" class="node">
<title>Node1</title>
<g id="a_Node000001"><a xlink:title="Singleton class responsible for initiating the process of joining an existing wavelength.">
<polygon fill="#999999" stroke="none" points="153,-204 0,-204 0,0 153,0 153,-204"/>
<text text-anchor="start" x="38.25" y="-190.5" font-family="Helvetica,sans-Serif" font-size="10.00">WavelengthJoiner</text>
<text text-anchor="start" x="75" y="-176" font-family="Helvetica,sans-Serif" font-size="10.00"> </text>
<text text-anchor="start" x="4" y="-161.5" font-family="Helvetica,sans-Serif" font-size="10.00">+</text>
<text text-anchor="start" x="14" y="-161.5" font-family="Helvetica,sans-Serif" font-size="10.00">JoinResult JoinWavelength</text>
<text text-anchor="start" x="14" y="-151" font-family="Helvetica,sans-Serif" font-size="10.00">(QString frequency, const</text>
<text text-anchor="start" x="14" y="-140.5" font-family="Helvetica,sans-Serif" font-size="10.00"> QString &amp;password=QString())</text>
<text text-anchor="start" x="4" y="-126" font-family="Helvetica,sans-Serif" font-size="10.00">+</text>
<text text-anchor="start" x="14" y="-126" font-family="Helvetica,sans-Serif" font-size="10.00">static WavelengthJoiner</text>
<text text-anchor="start" x="14" y="-115.5" font-family="Helvetica,sans-Serif" font-size="10.00"> * GetInstance()</text>
<text text-anchor="start" x="5.5" y="-101" font-family="Helvetica,sans-Serif" font-size="10.00">&#45;</text>
<text text-anchor="start" x="14" y="-101" font-family="Helvetica,sans-Serif" font-size="10.00">WavelengthJoiner &amp;</text>
<text text-anchor="start" x="14" y="-90.5" font-family="Helvetica,sans-Serif" font-size="10.00"> operator=(const Wavelength</text>
<text text-anchor="start" x="14" y="-80" font-family="Helvetica,sans-Serif" font-size="10.00">Joiner &amp;)=delete</text>
<text text-anchor="start" x="5.5" y="-65.5" font-family="Helvetica,sans-Serif" font-size="10.00">&#45;</text>
<text text-anchor="start" x="14" y="-65.5" font-family="Helvetica,sans-Serif" font-size="10.00">WavelengthJoiner(const</text>
<text text-anchor="start" x="14" y="-55" font-family="Helvetica,sans-Serif" font-size="10.00"> WavelengthJoiner &amp;)=delete</text>
<text text-anchor="start" x="5.5" y="-40.5" font-family="Helvetica,sans-Serif" font-size="10.00">&#45;</text>
<text text-anchor="start" x="14" y="-40.5" font-family="Helvetica,sans-Serif" font-size="10.00">WavelengthJoiner(QObject</text>
<text text-anchor="start" x="14" y="-30" font-family="Helvetica,sans-Serif" font-size="10.00"> *parent=nullptr)</text>
<text text-anchor="start" x="5.5" y="-15.5" font-family="Helvetica,sans-Serif" font-size="10.00">&#45;</text>
<text text-anchor="start" x="14" y="-15.5" font-family="Helvetica,sans-Serif" font-size="10.00">~WavelengthJoiner</text>
<text text-anchor="start" x="14" y="-5" font-family="Helvetica,sans-Serif" font-size="10.00">() override=default</text>
<polygon fill="#666666" stroke="#666666" points="0,-187.5 0,-187.5 153,-187.5 153,-187.5 0,-187.5"/>
<polygon fill="#666666" stroke="#666666" points="0,-173 0,-173 153,-173 153,-173 0,-173"/>
<polygon fill="none" stroke="#666666" points="0,0 0,-204 153,-204 153,0 0,0"/>
</a>
</g>
</g>
<!-- Node2 -->
<g id="Node000002" class="node">
<title>Node2</title>
<g id="a_Node000002"><a xlink:title=" ">
<polygon fill="white" stroke="none" points="98.5,-287.5 54.5,-287.5 54.5,-240 98.5,-240 98.5,-287.5"/>
<text text-anchor="start" x="58.5" y="-274" font-family="Helvetica,sans-Serif" font-size="10.00">QObject</text>
<text text-anchor="start" x="75" y="-259.5" font-family="Helvetica,sans-Serif" font-size="10.00"> </text>
<text text-anchor="start" x="75" y="-245" font-family="Helvetica,sans-Serif" font-size="10.00"> </text>
<polygon fill="#666666" stroke="#666666" points="54.5,-271 54.5,-271 98.5,-271 98.5,-271 54.5,-271"/>
<polygon fill="#666666" stroke="#666666" points="54.5,-256.5 54.5,-256.5 98.5,-256.5 98.5,-256.5 54.5,-256.5"/>
<polygon fill="none" stroke="#666666" points="54.5,-240 54.5,-287.5 98.5,-287.5 98.5,-240 54.5,-240"/>
</a>
</g>
</g>
<!-- Node2&#45;&gt;Node1 -->
<g id="edge1_Node000001_Node000002" class="edge">
<title>Node2&#45;&gt;Node1</title>
<g id="a_edge1_Node000001_Node000002"><a xlink:title=" ">
<path fill="none" stroke="#63b8ff" d="M76.5,-228.88C76.5,-221.18 76.5,-212.61 76.5,-203.67"/>
<polygon fill="none" stroke="#63b8ff" points="73,-228.69 76.5,-238.69 80,-228.69 73,-228.69"/>
</a>
</g>
</g>
</g>
</svg>
