<?xml version="1.0" encoding="UTF-8" standalone="no"?>
<!DOCTYPE svg PUBLIC "-//W3C//DTD SVG 1.1//EN"
 "http://www.w3.org/Graphics/SVG/1.1/DTD/svg11.dtd">
<!-- Generated by graphviz version 12.2.1 (0)
 -->
<!-- Title: WavelengthCreator::WavelengthCreator Pages: 1 -->
<svg width="528pt" height="154pt"
 viewBox="0.00 0.00 528.00 154.00" xmlns="http://www.w3.org/2000/svg" xmlns:xlink="http://www.w3.org/1999/xlink">
<g id="graph0" class="graph" transform="scale(1 1) rotate(0) translate(4 150)">
<title>WavelengthCreator::WavelengthCreator</title>
<!-- Node1 -->
<g id="Node000001" class="node">
<title>Node1</title>
<g id="a_Node000001"><a xlink:title="Private constructor to enforce the singleton pattern.">
<polygon fill="#999999" stroke="#666666" points="520,-76 415.5,-76 415.5,-47 520,-47 520,-76"/>
<text text-anchor="start" x="423.5" y="-62.5" font-family="Helvetica,sans-Serif" font-size="10.00">WavelengthCreator::</text>
<text text-anchor="middle" x="467.75" y="-52" font-family="Helvetica,sans-Serif" font-size="10.00">WavelengthCreator</text>
</a>
</g>
</g>
<!-- Node2 -->
<g id="Node000002" class="node">
<title>Node2</title>
<g id="a_Node000002"><a xlink:href="classWavelengthCreator.html#ad22fb997ce9c23c1008b6d0ea206a2ac" target="_top" xlink:title="Gets the singleton instance of the WavelengthCreator.">
<polygon fill="white" stroke="#666666" points="379.5,-123 275,-123 275,-94 379.5,-94 379.5,-123"/>
<text text-anchor="start" x="283" y="-109.5" font-family="Helvetica,sans-Serif" font-size="10.00">WavelengthCreator::</text>
<text text-anchor="middle" x="327.25" y="-99" font-family="Helvetica,sans-Serif" font-size="10.00">GetInstance</text>
</a>
</g>
</g>
<!-- Node1&#45;&gt;Node2 -->
<g id="edge1_Node000001_Node000002" class="edge">
<title>Node1&#45;&gt;Node2</title>
<g id="a_edge1_Node000001_Node000002"><a xlink:title=" ">
<path fill="none" stroke="#63b8ff" d="M412.05,-80.06C398.85,-84.54 384.91,-89.27 372.26,-93.56"/>
<polygon fill="#63b8ff" stroke="#63b8ff" points="413.15,-83.39 421.49,-76.86 410.9,-76.76 413.15,-83.39"/>
</a>
</g>
</g>
<!-- Node6 -->
<g id="Node000006" class="node">
<title>Node6</title>
<g id="a_Node000006"><a xlink:href="classWavelengthCreator.html#a4103a99dda7e0da6321b0802201cf7d0" target="_top" xlink:title="Deleted assignment operator to prevent assignment.">
<polygon fill="white" stroke="#666666" points="379.5,-76 275,-76 275,-47 379.5,-47 379.5,-76"/>
<text text-anchor="start" x="283" y="-62.5" font-family="Helvetica,sans-Serif" font-size="10.00">WavelengthCreator::</text>
<text text-anchor="middle" x="327.25" y="-52" font-family="Helvetica,sans-Serif" font-size="10.00">operator=</text>
</a>
</g>
</g>
<!-- Node1&#45;&gt;Node6 -->
<g id="edge5_Node000001_Node000006" class="edge">
<title>Node1&#45;&gt;Node6</title>
<g id="a_edge5_Node000001_Node000006"><a xlink:title=" ">
<path fill="none" stroke="#63b8ff" d="M403.92,-61.5C395.87,-61.5 387.71,-61.5 379.87,-61.5"/>
<polygon fill="#63b8ff" stroke="#63b8ff" points="403.66,-65 413.66,-61.5 403.66,-58 403.66,-65"/>
</a>
</g>
</g>
<!-- Node7 -->
<g id="Node000007" class="node">
<title>Node7</title>
<g id="a_Node000007"><a xlink:href="classWavelengthCreator.html#af5ba910da88c996248c6b79f995a0efe" target="_top" xlink:title="Deleted copy constructor to prevent copying.">
<polygon fill="white" stroke="#666666" points="379.5,-29 275,-29 275,0 379.5,0 379.5,-29"/>
<text text-anchor="start" x="283" y="-15.5" font-family="Helvetica,sans-Serif" font-size="10.00">WavelengthCreator::</text>
<text text-anchor="middle" x="327.25" y="-5" font-family="Helvetica,sans-Serif" font-size="10.00">WavelengthCreator</text>
</a>
</g>
</g>
<!-- Node1&#45;&gt;Node7 -->
<g id="edge6_Node000001_Node000007" class="edge">
<title>Node1&#45;&gt;Node7</title>
<g id="a_edge6_Node000001_Node000007"><a xlink:title=" ">
<path fill="none" stroke="#63b8ff" d="M412.05,-42.94C398.85,-38.46 384.91,-33.73 372.26,-29.44"/>
<polygon fill="#63b8ff" stroke="#63b8ff" points="410.9,-46.24 421.49,-46.14 413.15,-39.61 410.9,-46.24"/>
</a>
</g>
</g>
<!-- Node3 -->
<g id="Node000003" class="node">
<title>Node3</title>
<g id="a_Node000003"><a xlink:href="classSessionCoordinator.html#a0a388bb572398d11b8959eac0a8e612f" target="_top" xlink:title="Connects signals between the various Wavelength components. Called during Initialize().">
<polygon fill="white" stroke="#666666" points="239,-146 137.5,-146 137.5,-117 239,-117 239,-146"/>
<text text-anchor="start" x="145.5" y="-132.5" font-family="Helvetica,sans-Serif" font-size="10.00">SessionCoordinator</text>
<text text-anchor="middle" x="188.25" y="-122" font-family="Helvetica,sans-Serif" font-size="10.00">::ConnectSignals</text>
</a>
</g>
</g>
<!-- Node2&#45;&gt;Node3 -->
<g id="edge2_Node000002_Node000003" class="edge">
<title>Node2&#45;&gt;Node3</title>
<g id="a_edge2_Node000002_Node000003"><a xlink:title=" ">
<path fill="none" stroke="#63b8ff" d="M263.72,-119C255.48,-120.38 247.12,-121.79 239.12,-123.13"/>
<polygon fill="#63b8ff" stroke="#63b8ff" points="264.07,-122.49 273.35,-117.38 262.91,-115.58 264.07,-122.49"/>
</a>
</g>
</g>
<!-- Node5 -->
<g id="Node000005" class="node">
<title>Node5</title>
<g id="a_Node000005"><a xlink:href="classSessionCoordinator.html#ad439996ffc2f1a6fc57835502c69ce7d" target="_top" xlink:title="Initiates the creation of a new wavelength. Delegates the call to WavelengthCreator and registers the...">
<polygon fill="white" stroke="#666666" points="239,-99 137.5,-99 137.5,-70 239,-70 239,-99"/>
<text text-anchor="start" x="145.5" y="-85.5" font-family="Helvetica,sans-Serif" font-size="10.00">SessionCoordinator</text>
<text text-anchor="middle" x="188.25" y="-75" font-family="Helvetica,sans-Serif" font-size="10.00">::CreateWavelength</text>
</a>
</g>
</g>
<!-- Node2&#45;&gt;Node5 -->
<g id="edge4_Node000002_Node000005" class="edge">
<title>Node2&#45;&gt;Node5</title>
<g id="a_edge4_Node000002_Node000005"><a xlink:title=" ">
<path fill="none" stroke="#63b8ff" d="M263.72,-97.55C255.48,-96.1 247.12,-94.64 239.12,-93.24"/>
<polygon fill="#63b8ff" stroke="#63b8ff" points="262.9,-100.96 273.36,-99.23 264.11,-94.06 262.9,-100.96"/>
</a>
</g>
</g>
<!-- Node4 -->
<g id="Node000004" class="node">
<title>Node4</title>
<g id="a_Node000004"><a xlink:href="classSessionCoordinator.html#a34a0ef1f02508f6cfd0b8d60164be83a" target="_top" xlink:title="Initializes the coordinator and its underlying components. Connects signals between various Wavelengt...">
<polygon fill="white" stroke="#666666" points="101.5,-146 0,-146 0,-117 101.5,-117 101.5,-146"/>
<text text-anchor="start" x="8" y="-132.5" font-family="Helvetica,sans-Serif" font-size="10.00">SessionCoordinator</text>
<text text-anchor="middle" x="50.75" y="-122" font-family="Helvetica,sans-Serif" font-size="10.00">::Initialize</text>
</a>
</g>
</g>
<!-- Node3&#45;&gt;Node4 -->
<g id="edge3_Node000003_Node000004" class="edge">
<title>Node3&#45;&gt;Node4</title>
<g id="a_edge3_Node000003_Node000004"><a xlink:title=" ">
<path fill="none" stroke="#63b8ff" d="M125.84,-131.5C117.73,-131.5 109.5,-131.5 101.61,-131.5"/>
<polygon fill="#63b8ff" stroke="#63b8ff" points="125.67,-135 135.67,-131.5 125.67,-128 125.67,-135"/>
</a>
</g>
</g>
</g>
</svg>
