<?xml version="1.0" encoding="UTF-8" standalone="no"?>
<!DOCTYPE svg PUBLIC "-//W3C//DTD SVG 1.1//EN"
 "http://www.w3.org/Graphics/SVG/1.1/DTD/svg11.dtd">
<!-- Generated by graphviz version 12.2.1 (0)
 -->
<!-- Title: BlobTransitionManager::movementStopped Pages: 1 -->
<svg width="307pt" height="74pt"
 viewBox="0.00 0.00 307.00 73.75" xmlns="http://www.w3.org/2000/svg" xmlns:xlink="http://www.w3.org/1999/xlink">
<g id="graph0" class="graph" transform="scale(1 1) rotate(0) translate(4 69.75)">
<title>BlobTransitionManager::movementStopped</title>
<!-- Node1 -->
<g id="Node000001" class="node">
<title>Node1</title>
<g id="a_Node000001"><a xlink:title="Emitted when the inactivity counter exceeds a threshold, indicating that window movement has stopped.">
<polygon fill="#999999" stroke="#666666" points="299,-50 184,-50 184,-21 299,-21 299,-50"/>
<text text-anchor="start" x="192" y="-36.5" font-family="Helvetica,sans-Serif" font-size="10.00">BlobTransitionManager</text>
<text text-anchor="middle" x="241.5" y="-26" font-family="Helvetica,sans-Serif" font-size="10.00">::movementStopped</text>
</a>
</g>
</g>
<!-- Node2 -->
<g id="Node000002" class="node">
<title>Node2</title>
<g id="a_Node000002"><a xlink:href="classBlobAnimation.html#a376419bc52ad64329b0ce5e2a2579043" target="_top" xlink:title="Constructs the BlobAnimation widget. Initializes parameters, states, event handlers,...">
<polygon fill="white" stroke="#666666" points="148,-65.75 0,-65.75 0,-47.25 148,-47.25 148,-65.75"/>
<text text-anchor="middle" x="74" y="-52.25" font-family="Helvetica,sans-Serif" font-size="10.00">BlobAnimation::BlobAnimation</text>
</a>
</g>
</g>
<!-- Node1&#45;&gt;Node2 -->
<g id="edge1_Node000001_Node000002" class="edge">
<title>Node1&#45;&gt;Node2</title>
<g id="a_edge1_Node000001_Node000002"><a xlink:title=" ">
<path fill="none" stroke="#63b8ff" d="M172.21,-44.17C164.36,-45.16 156.34,-46.18 148.43,-47.18"/>
<polygon fill="#63b8ff" stroke="#63b8ff" points="172.56,-47.65 182.04,-42.92 171.68,-40.7 172.56,-47.65"/>
</a>
</g>
</g>
<!-- Node3 -->
<g id="Node000003" class="node">
<title>Node3</title>
<g id="a_Node000003"><a xlink:href="classBlobTransitionManager.html#af5c3a65c7bcfc785cb2c26e705702b33" target="_top" xlink:title="Processes the buffered window movement samples to calculate velocity and apply inertia.">
<polygon fill="white" stroke="#666666" points="138.25,-29 9.75,-29 9.75,0 138.25,0 138.25,-29"/>
<text text-anchor="start" x="17.75" y="-15.5" font-family="Helvetica,sans-Serif" font-size="10.00">BlobTransitionManager</text>
<text text-anchor="middle" x="74" y="-5" font-family="Helvetica,sans-Serif" font-size="10.00">::ProcessMovementBuffer</text>
</a>
</g>
</g>
<!-- Node1&#45;&gt;Node3 -->
<g id="edge2_Node000001_Node000003" class="edge">
<title>Node1&#45;&gt;Node3</title>
<g id="a_edge2_Node000001_Node000003"><a xlink:title=" ">
<path fill="none" stroke="#63b8ff" d="M172.14,-26.83C161.03,-25.42 149.57,-23.96 138.59,-22.57"/>
<polygon fill="#63b8ff" stroke="#63b8ff" points="171.68,-30.3 182.04,-28.08 172.56,-23.35 171.68,-30.3"/>
</a>
</g>
</g>
</g>
</svg>
