<?xml version="1.0" encoding="UTF-8" standalone="no"?>
<!DOCTYPE svg PUBLIC "-//W3C//DTD SVG 1.1//EN"
 "http://www.w3.org/Graphics/SVG/1.1/DTD/svg11.dtd">
<!-- Generated by graphviz version 12.2.1 (0)
 -->
<!-- Title: AuthenticationManager Pages: 1 -->
<!--zoomable 690 -->

<svg id="main" version="1.1" xmlns="http://www.w3.org/2000/svg" xmlns:xlink="http://www.w3.org/1999/xlink" xml:space="preserve" onload="init(evt)">

<style type="text/css"><![CDATA[
.node, .edge {opacity: 0.7;}
.node.selected, .edge.selected {opacity: 1;}
.edge:hover path { stroke: red; }
.edge:hover polygon { stroke: red; fill: red; }
]]></style>

<defs>
  <circle id="rim" cx="0" cy="0" r="7"/>
  <circle id="rim2" cx="0" cy="0" r="3.5"/>
  <g id="zoomPlus">
    <use xlink:href="#rim" fill="#404040"><set attributeName="fill" to="#808080" begin="zoomplus.mouseover" end="zoomplus.mouseout"/></use>
    <path d="M-4,0h8M0,-4v8" fill="none" stroke="white" stroke-width="1.5" pointer-events="none"/>
  </g>
  <g id="zoomMin">
    <use xlink:href="#rim" fill="#404040"><set attributeName="fill" to="#808080" begin="zoomminus.mouseover" end="zoomminus.mouseout"/></use>
    <path d="M-4,0h8" fill="none" stroke="white" stroke-width="1.5" pointer-events="none"/>
  </g>
  <g id="arrowUp" transform="translate(30 24)">
    <use xlink:href="#rim"/>
    <path pointer-events="none" fill="none" stroke="white" stroke-width="1.5" d="M0,-3.0v7 M-2.5,-0.5L0,-3.0L2.5,-0.5"/>
  </g>
  <g id="arrowRight" transform="rotate(90) translate(36 -43)">
    <use xlink:href="#rim"/>
    <path pointer-events="none" fill="none" stroke="white" stroke-width="1.5" d="M0,-3.0v7 M-2.5,-0.5L0,-3.0L2.5,-0.5"/>
  </g>
  <g id="arrowDown" transform="rotate(180) translate(-30 -48)">
    <use xlink:href="#rim"/>
    <path pointer-events="none" fill="none" stroke="white" stroke-width="1.5" d="M0,-3.0v7 M-2.5,-0.5L0,-3.0L2.5,-0.5"/>
  </g>
  <g id="arrowLeft" transform="rotate(270) translate(-36 17)">
    <use xlink:href="#rim"/>
    <path pointer-events="none" fill="none" stroke="white" stroke-width="1.5" d="M0,-3.0v7 M-2.5,-0.5L0,-3.0L2.5,-0.5"/>
  </g>
  <g id="resetDef">
    <use xlink:href="#rim2" fill="#404040"><set attributeName="fill" to="#808080" begin="reset.mouseover" end="reset.mouseout"/></use>
  </g>
</defs>
<script type="application/ecmascript">
var viewWidth = 176;
var viewHeight = 690;
var sectionId = 'dynsection-0';
</script>
<script type="application/ecmascript" xlink:href="svg.min.js"/>
<svg id="graph" class="graph">
<g id="viewport">
<title>AuthenticationManager</title>
<!-- Node1 -->
<g id="Node000001" class="node">
<title>Node1</title>
<g id="a_Node000001"><a xlink:title="Manages authentication and session handling for Wavelength frequencies using a singleton pattern.">
<polygon fill="#999999" stroke="none" points="168,-598.5 0,-598.5 0,0 168,0 168,-598.5"/>
<text text-anchor="start" x="34.12" y="-585" font-family="Helvetica,sans-Serif" font-size="10.00">AuthenticationManager</text>
<text text-anchor="start" x="5.5" y="-570.5" font-family="Helvetica,sans-Serif" font-size="10.00">&#45;</text>
<text text-anchor="start" x="14" y="-570.5" font-family="Helvetica,sans-Serif" font-size="10.00">QMap&lt; QString, SessionInfo</text>
<text text-anchor="start" x="14" y="-560" font-family="Helvetica,sans-Serif" font-size="10.00"> &gt; sessions_</text>
<text text-anchor="start" x="5.5" y="-545.5" font-family="Helvetica,sans-Serif" font-size="10.00">&#45;</text>
<text text-anchor="start" x="14" y="-545.5" font-family="Helvetica,sans-Serif" font-size="10.00">QMap&lt; QString, QString</text>
<text text-anchor="start" x="14" y="-535" font-family="Helvetica,sans-Serif" font-size="10.00"> &gt; wavelength_passwords_</text>
<text text-anchor="start" x="4" y="-520.5" font-family="Helvetica,sans-Serif" font-size="10.00">+</text>
<text text-anchor="start" x="14" y="-520.5" font-family="Helvetica,sans-Serif" font-size="10.00">void CleanupExpiredSessions()</text>
<text text-anchor="start" x="4" y="-506" font-family="Helvetica,sans-Serif" font-size="10.00">+</text>
<text text-anchor="start" x="14" y="-506" font-family="Helvetica,sans-Serif" font-size="10.00">void DeactivateClientSessions</text>
<text text-anchor="start" x="14" y="-495.5" font-family="Helvetica,sans-Serif" font-size="10.00">(const QString &amp;client_id)</text>
<text text-anchor="start" x="4" y="-481" font-family="Helvetica,sans-Serif" font-size="10.00">+</text>
<text text-anchor="start" x="14" y="-481" font-family="Helvetica,sans-Serif" font-size="10.00">void DeactivateFrequency</text>
<text text-anchor="start" x="14" y="-470.5" font-family="Helvetica,sans-Serif" font-size="10.00">Sessions(const QString</text>
<text text-anchor="start" x="14" y="-460" font-family="Helvetica,sans-Serif" font-size="10.00"> &amp;frequency)</text>
<text text-anchor="start" x="4" y="-445.5" font-family="Helvetica,sans-Serif" font-size="10.00">+</text>
<text text-anchor="start" x="14" y="-445.5" font-family="Helvetica,sans-Serif" font-size="10.00">void DeactivateSession</text>
<text text-anchor="start" x="14" y="-435" font-family="Helvetica,sans-Serif" font-size="10.00">(const QString &amp;session</text>
<text text-anchor="start" x="14" y="-424.5" font-family="Helvetica,sans-Serif" font-size="10.00">_token)</text>
<text text-anchor="start" x="4" y="-410" font-family="Helvetica,sans-Serif" font-size="10.00">+</text>
<text text-anchor="start" x="14" y="-410" font-family="Helvetica,sans-Serif" font-size="10.00">void RegisterPassword</text>
<text text-anchor="start" x="14" y="-399.5" font-family="Helvetica,sans-Serif" font-size="10.00">(const QString &amp;frequency,</text>
<text text-anchor="start" x="14" y="-389" font-family="Helvetica,sans-Serif" font-size="10.00"> const QString &amp;password)</text>
<text text-anchor="start" x="4" y="-374.5" font-family="Helvetica,sans-Serif" font-size="10.00">+</text>
<text text-anchor="start" x="14" y="-374.5" font-family="Helvetica,sans-Serif" font-size="10.00">void RemovePassword</text>
<text text-anchor="start" x="14" y="-364" font-family="Helvetica,sans-Serif" font-size="10.00">(const QString &amp;frequency)</text>
<text text-anchor="start" x="4" y="-349.5" font-family="Helvetica,sans-Serif" font-size="10.00">+</text>
<text text-anchor="start" x="14" y="-349.5" font-family="Helvetica,sans-Serif" font-size="10.00">bool StoreSession(const</text>
<text text-anchor="start" x="14" y="-339" font-family="Helvetica,sans-Serif" font-size="10.00"> QString &amp;frequency, const</text>
<text text-anchor="start" x="14" y="-328.5" font-family="Helvetica,sans-Serif" font-size="10.00"> QString &amp;client_id, const</text>
<text text-anchor="start" x="14" y="-318" font-family="Helvetica,sans-Serif" font-size="10.00"> QString &amp;session_token)</text>
<text text-anchor="start" x="4" y="-303.5" font-family="Helvetica,sans-Serif" font-size="10.00">+</text>
<text text-anchor="start" x="14" y="-303.5" font-family="Helvetica,sans-Serif" font-size="10.00">bool ValidateSession</text>
<text text-anchor="start" x="14" y="-293" font-family="Helvetica,sans-Serif" font-size="10.00">(const QString &amp;session</text>
<text text-anchor="start" x="14" y="-282.5" font-family="Helvetica,sans-Serif" font-size="10.00">_token, const QString &amp;frequency)</text>
<text text-anchor="start" x="4" y="-268" font-family="Helvetica,sans-Serif" font-size="10.00">+</text>
<text text-anchor="start" x="14" y="-268" font-family="Helvetica,sans-Serif" font-size="10.00">bool VerifyPassword</text>
<text text-anchor="start" x="14" y="-257.5" font-family="Helvetica,sans-Serif" font-size="10.00">(const QString &amp;frequency,</text>
<text text-anchor="start" x="14" y="-247" font-family="Helvetica,sans-Serif" font-size="10.00"> const QString &amp;provided</text>
<text text-anchor="start" x="14" y="-236.5" font-family="Helvetica,sans-Serif" font-size="10.00">_password)</text>
<text text-anchor="start" x="4" y="-222" font-family="Helvetica,sans-Serif" font-size="10.00">+</text>
<text text-anchor="start" x="14" y="-222" font-family="Helvetica,sans-Serif" font-size="10.00">static QString CreateAuth</text>
<text text-anchor="start" x="14" y="-211.5" font-family="Helvetica,sans-Serif" font-size="10.00">Response(bool success,</text>
<text text-anchor="start" x="14" y="-201" font-family="Helvetica,sans-Serif" font-size="10.00"> const QString &amp;error_message</text>
<text text-anchor="start" x="14" y="-190.5" font-family="Helvetica,sans-Serif" font-size="10.00">=QString())</text>
<text text-anchor="start" x="4" y="-176" font-family="Helvetica,sans-Serif" font-size="10.00">+</text>
<text text-anchor="start" x="14" y="-176" font-family="Helvetica,sans-Serif" font-size="10.00">static QString GenerateClientId()</text>
<text text-anchor="start" x="4" y="-161.5" font-family="Helvetica,sans-Serif" font-size="10.00">+</text>
<text text-anchor="start" x="14" y="-161.5" font-family="Helvetica,sans-Serif" font-size="10.00">static QString GenerateSession</text>
<text text-anchor="start" x="14" y="-151" font-family="Helvetica,sans-Serif" font-size="10.00">Token()</text>
<text text-anchor="start" x="4" y="-136.5" font-family="Helvetica,sans-Serif" font-size="10.00">+</text>
<text text-anchor="start" x="14" y="-136.5" font-family="Helvetica,sans-Serif" font-size="10.00">static AuthenticationManager</text>
<text text-anchor="start" x="14" y="-126" font-family="Helvetica,sans-Serif" font-size="10.00"> * GetInstance()</text>
<text text-anchor="start" x="5.5" y="-111.5" font-family="Helvetica,sans-Serif" font-size="10.00">&#45;</text>
<text text-anchor="start" x="14" y="-111.5" font-family="Helvetica,sans-Serif" font-size="10.00">AuthenticationManager</text>
<text text-anchor="start" x="14" y="-101" font-family="Helvetica,sans-Serif" font-size="10.00">(const AuthenticationManager</text>
<text text-anchor="start" x="14" y="-90.5" font-family="Helvetica,sans-Serif" font-size="10.00"> &amp;)=delete</text>
<text text-anchor="start" x="5.5" y="-76" font-family="Helvetica,sans-Serif" font-size="10.00">&#45;</text>
<text text-anchor="start" x="14" y="-76" font-family="Helvetica,sans-Serif" font-size="10.00">AuthenticationManager</text>
<text text-anchor="start" x="14" y="-65.5" font-family="Helvetica,sans-Serif" font-size="10.00">(QObject *parent=nullptr)</text>
<text text-anchor="start" x="5.5" y="-51" font-family="Helvetica,sans-Serif" font-size="10.00">&#45;</text>
<text text-anchor="start" x="14" y="-51" font-family="Helvetica,sans-Serif" font-size="10.00">AuthenticationManager</text>
<text text-anchor="start" x="14" y="-40.5" font-family="Helvetica,sans-Serif" font-size="10.00"> &amp; operator=(const Authentication</text>
<text text-anchor="start" x="14" y="-30" font-family="Helvetica,sans-Serif" font-size="10.00">Manager &amp;)=delete</text>
<text text-anchor="start" x="5.5" y="-15.5" font-family="Helvetica,sans-Serif" font-size="10.00">&#45;</text>
<text text-anchor="start" x="14" y="-15.5" font-family="Helvetica,sans-Serif" font-size="10.00">~AuthenticationManager</text>
<text text-anchor="start" x="14" y="-5" font-family="Helvetica,sans-Serif" font-size="10.00">() override=default</text>
<polygon fill="#666666" stroke="#666666" points="0,-582 0,-582 168,-582 168,-582 0,-582"/>
<polygon fill="#666666" stroke="#666666" points="0,-532 0,-532 12,-532 12,-532 0,-532"/>
<polygon fill="#666666" stroke="#666666" points="12,-532 12,-532 168,-532 168,-532 12,-532"/>
<polygon fill="none" stroke="#666666" points="0,0 0,-598.5 168,-598.5 168,0 0,0"/>
</a>
</g>
</g>
<!-- Node2 -->
<g id="Node000002" class="node">
<title>Node2</title>
<g id="a_Node000002"><a xlink:title=" ">
<polygon fill="white" stroke="none" points="106,-682 62,-682 62,-634.5 106,-634.5 106,-682"/>
<text text-anchor="start" x="66" y="-668.5" font-family="Helvetica,sans-Serif" font-size="10.00">QObject</text>
<text text-anchor="start" x="82.5" y="-654" font-family="Helvetica,sans-Serif" font-size="10.00"> </text>
<text text-anchor="start" x="82.5" y="-639.5" font-family="Helvetica,sans-Serif" font-size="10.00"> </text>
<polygon fill="#666666" stroke="#666666" points="62,-665.5 62,-665.5 106,-665.5 106,-665.5 62,-665.5"/>
<polygon fill="#666666" stroke="#666666" points="62,-651 62,-651 106,-651 106,-651 62,-651"/>
<polygon fill="none" stroke="#666666" points="62,-634.5 62,-682 106,-682 106,-634.5 62,-634.5"/>
</a>
</g>
</g>
<!-- Node2&#45;&gt;Node1 -->
<g id="edge1_Node000001_Node000002" class="edge">
<title>Node2&#45;&gt;Node1</title>
<g id="a_edge1_Node000001_Node000002"><a xlink:title=" ">
<path fill="none" stroke="#63b8ff" d="M84,-623.23C84,-615.88 84,-607.54 84,-598.43"/>
<polygon fill="none" stroke="#63b8ff" points="80.5,-623.13 84,-633.13 87.5,-623.13 80.5,-623.13"/>
</a>
</g>
</g>
</g>
</svg>

<g id="navigator" transform="translate(0 0)" fill="#404254">
  <rect fill="#f2f5e9" fill-opacity="0.5" stroke="#606060" stroke-width=".5" x="0" y="0" width="60" height="60"/>
  <use id="zoomplus" xlink:href="#zoomPlus" x="17" y="9" onmousedown="handleZoom(evt,'in')"/>
  <use id="zoomminus" xlink:href="#zoomMin" x="42" y="9" onmousedown="handleZoom(evt,'out')"/>
  <use id="reset" xlink:href="#resetDef" x="30" y="36" onmousedown="handleReset()"/>
   <use id="arrowup" xlink:href="#arrowUp" x="0" y="0" onmousedown="handlePan(0,-1)"/>
  <use id="arrowright" xlink:href="#arrowRight" x="0" y="0" onmousedown="handlePan(1,0)"/>
  <use id="arrowdown" xlink:href="#arrowDown" x="0" y="0" onmousedown="handlePan(0,1)"/>
  <use id="arrowleft" xlink:href="#arrowLeft" x="0" y="0" onmousedown="handlePan(-1,0)"/>
</g>
<svg viewBox="0 0 15 15" width="100%" height="30px" preserveAspectRatio="xMaxYMin meet">
 <g id="arrow_out" transform="scale(0.3 0.3)">
  <a xlink:href="classAuthenticationManager__inherit__graph_org.svg" target="_base">
   <rect id="button" ry="5" rx="5" y="6" x="6" height="38" width="38"
        fill="#f2f5e9" fill-opacity="0.5" stroke="#606060" stroke-width="1.0"/>
   <path id="arrow"
     d="M 11.500037,31.436501 C 11.940474,20.09759 22.043105,11.32322 32.158766,21.979434 L 37.068811,17.246167 C 37.068811,17.246167 37.088388,32 37.088388,32 L 22.160133,31.978069 C 22.160133,31.978069 26.997745,27.140456 26.997745,27.140456 C 18.528582,18.264221 13.291696,25.230495 11.500037,31.436501 z"
     style="fill:#404040;"/>
  </a>
 </g>
</svg>

<style type='text/css'>
<![CDATA[
[data-mouse-over-selected='false'] { opacity: 0.7; }
[data-mouse-over-selected='true']  { opacity: 1.0; }
]]>
</style>
<script type="application/ecmascript"><![CDATA[
document.addEventListener('DOMContentLoaded', (event) => {
  highlightEdges();
  highlightAdjacentNodes();
});
]]></script>
</svg>
