<?xml version="1.0" encoding="UTF-8" standalone="no"?>
<!DOCTYPE svg PUBLIC "-//W3C//DTD SVG 1.1//EN"
 "http://www.w3.org/Graphics/SVG/1.1/DTD/svg11.dtd">
<!-- Generated by graphviz version 12.2.1 (0)
 -->
<!-- Title: MessageHandler::MarkMessageAsProcessed Pages: 1 -->
<svg width="709pt" height="37pt"
 viewBox="0.00 0.00 708.75 37.00" xmlns="http://www.w3.org/2000/svg" xmlns:xlink="http://www.w3.org/1999/xlink">
<g id="graph0" class="graph" transform="scale(1 1) rotate(0) translate(4 33)">
<title>MessageHandler::MarkMessageAsProcessed</title>
<!-- Node1 -->
<g id="Node000001" class="node">
<title>Node1</title>
<g id="a_Node000001"><a xlink:title="Marks a message ID as processed by adding it to the internal set. Also manages the size of the proces...">
<polygon fill="#999999" stroke="#666666" points="700.75,-29 543,-29 543,0 700.75,0 700.75,-29"/>
<text text-anchor="start" x="551" y="-15.5" font-family="Helvetica,sans-Serif" font-size="10.00">MessageHandler::MarkMessage</text>
<text text-anchor="middle" x="621.88" y="-5" font-family="Helvetica,sans-Serif" font-size="10.00">AsProcessed</text>
</a>
</g>
</g>
<!-- Node2 -->
<g id="Node000002" class="node">
<title>Node2</title>
<g id="a_Node000002"><a xlink:href="classMessageProcessor.html#a2a7686af1fb4bdbfb0ac9af65bcb85ac" target="_top" xlink:title="Processes messages of type &quot;message&quot; or &quot;send_message&quot;. Checks for duplicates, handles attachments (s...">
<polygon fill="white" stroke="#666666" points="507,-29 365,-29 365,0 507,0 507,-29"/>
<text text-anchor="start" x="373" y="-15.5" font-family="Helvetica,sans-Serif" font-size="10.00">MessageProcessor::Process</text>
<text text-anchor="middle" x="436" y="-5" font-family="Helvetica,sans-Serif" font-size="10.00">MessageContent</text>
</a>
</g>
</g>
<!-- Node1&#45;&gt;Node2 -->
<g id="edge1_Node000001_Node000002" class="edge">
<title>Node1&#45;&gt;Node2</title>
<g id="a_edge1_Node000001_Node000002"><a xlink:title=" ">
<path fill="none" stroke="#63b8ff" d="M531.29,-14.5C523.24,-14.5 515.17,-14.5 507.31,-14.5"/>
<polygon fill="#63b8ff" stroke="#63b8ff" points="531.12,-18 541.12,-14.5 531.12,-11 531.12,-18"/>
</a>
</g>
</g>
<!-- Node3 -->
<g id="Node000003" class="node">
<title>Node3</title>
<g id="a_Node000003"><a xlink:href="classMessageProcessor.html#abdfefd4e6d33731ee50463441ea1a368" target="_top" xlink:title="Processes an incoming text message (JSON) received from the WebSocket. Parses the JSON,...">
<polygon fill="white" stroke="#666666" points="329,-29 187,-29 187,0 329,0 329,-29"/>
<text text-anchor="start" x="195" y="-15.5" font-family="Helvetica,sans-Serif" font-size="10.00">MessageProcessor::Process</text>
<text text-anchor="middle" x="258" y="-5" font-family="Helvetica,sans-Serif" font-size="10.00">IncomingMessage</text>
</a>
</g>
</g>
<!-- Node2&#45;&gt;Node3 -->
<g id="edge2_Node000002_Node000003" class="edge">
<title>Node2&#45;&gt;Node3</title>
<g id="a_edge2_Node000002_Node000003"><a xlink:title=" ">
<path fill="none" stroke="#63b8ff" d="M353.17,-14.5C345.26,-14.5 337.28,-14.5 329.49,-14.5"/>
<polygon fill="#63b8ff" stroke="#63b8ff" points="353.17,-18 363.17,-14.5 353.17,-11 353.17,-18"/>
</a>
</g>
</g>
<!-- Node4 -->
<g id="Node000004" class="node">
<title>Node4</title>
<g id="a_Node000004"><a xlink:href="classMessageProcessor.html#ae0f85d4a5a3c92b0873e7889dfb79862" target="_top" xlink:title="Connects the appropriate slots of this processor to the signals of a given QWebSocket....">
<polygon fill="#fff0f0" stroke="red" points="151,-29 0,-29 0,0 151,0 151,-29"/>
<text text-anchor="start" x="8" y="-15.5" font-family="Helvetica,sans-Serif" font-size="10.00">MessageProcessor::SetSocket</text>
<text text-anchor="middle" x="75.5" y="-5" font-family="Helvetica,sans-Serif" font-size="10.00">MessageHandlers</text>
</a>
</g>
</g>
<!-- Node3&#45;&gt;Node4 -->
<g id="edge3_Node000003_Node000004" class="edge">
<title>Node3&#45;&gt;Node4</title>
<g id="a_edge3_Node000003_Node000004"><a xlink:title=" ">
<path fill="none" stroke="#63b8ff" d="M175.45,-14.5C167.44,-14.5 159.33,-14.5 151.38,-14.5"/>
<polygon fill="#63b8ff" stroke="#63b8ff" points="175.18,-18 185.18,-14.5 175.18,-11 175.18,-18"/>
</a>
</g>
</g>
</g>
</svg>
