<?xml version="1.0" encoding="UTF-8" standalone="no"?>
<!DOCTYPE svg PUBLIC "-//W3C//DTD SVG 1.1//EN"
 "http://www.w3.org/Graphics/SVG/1.1/DTD/svg11.dtd">
<!-- Generated by graphviz version 12.2.1 (0)
 -->
<!-- Title: AnimatedStackedWidget::SlideToNextIndex Pages: 1 -->
<!--zoomable 178 -->

<svg id="main" version="1.1" xmlns="http://www.w3.org/2000/svg" xmlns:xlink="http://www.w3.org/1999/xlink" xml:space="preserve" onload="init(evt)">

<style type="text/css"><![CDATA[
.node, .edge {opacity: 0.7;}
.node.selected, .edge.selected {opacity: 1;}
.edge:hover path { stroke: red; }
.edge:hover polygon { stroke: red; fill: red; }
]]></style>

<defs>
  <circle id="rim" cx="0" cy="0" r="7"/>
  <circle id="rim2" cx="0" cy="0" r="3.5"/>
  <g id="zoomPlus">
    <use xlink:href="#rim" fill="#404040"><set attributeName="fill" to="#808080" begin="zoomplus.mouseover" end="zoomplus.mouseout"/></use>
    <path d="M-4,0h8M0,-4v8" fill="none" stroke="white" stroke-width="1.5" pointer-events="none"/>
  </g>
  <g id="zoomMin">
    <use xlink:href="#rim" fill="#404040"><set attributeName="fill" to="#808080" begin="zoomminus.mouseover" end="zoomminus.mouseout"/></use>
    <path d="M-4,0h8" fill="none" stroke="white" stroke-width="1.5" pointer-events="none"/>
  </g>
  <g id="arrowUp" transform="translate(30 24)">
    <use xlink:href="#rim"/>
    <path pointer-events="none" fill="none" stroke="white" stroke-width="1.5" d="M0,-3.0v7 M-2.5,-0.5L0,-3.0L2.5,-0.5"/>
  </g>
  <g id="arrowRight" transform="rotate(90) translate(36 -43)">
    <use xlink:href="#rim"/>
    <path pointer-events="none" fill="none" stroke="white" stroke-width="1.5" d="M0,-3.0v7 M-2.5,-0.5L0,-3.0L2.5,-0.5"/>
  </g>
  <g id="arrowDown" transform="rotate(180) translate(-30 -48)">
    <use xlink:href="#rim"/>
    <path pointer-events="none" fill="none" stroke="white" stroke-width="1.5" d="M0,-3.0v7 M-2.5,-0.5L0,-3.0L2.5,-0.5"/>
  </g>
  <g id="arrowLeft" transform="rotate(270) translate(-36 17)">
    <use xlink:href="#rim"/>
    <path pointer-events="none" fill="none" stroke="white" stroke-width="1.5" d="M0,-3.0v7 M-2.5,-0.5L0,-3.0L2.5,-0.5"/>
  </g>
  <g id="resetDef">
    <use xlink:href="#rim2" fill="#404040"><set attributeName="fill" to="#808080" begin="reset.mouseover" end="reset.mouseout"/></use>
  </g>
</defs>
<script type="application/ecmascript">
var viewWidth = 609;
var viewHeight = 178;
var sectionId = 'dynsection-13';
</script>
<script type="application/ecmascript" xlink:href="svg.min.js"/>
<svg id="graph" class="graph">
<g id="viewport">
<title>AnimatedStackedWidget::SlideToNextIndex</title>
<!-- Node1 -->
<g id="Node000001" class="node">
<title>Node1</title>
<g id="a_Node000001"><a xlink:title="Initiates an animated transition to the next widget in the stack (wraps around). Useful for creating ...">
<polygon fill="#999999" stroke="#666666" points="123.25,-122 0,-122 0,-93 123.25,-93 123.25,-122"/>
<text text-anchor="start" x="8" y="-108.5" font-family="Helvetica,sans-Serif" font-size="10.00">AnimatedStackedWidget</text>
<text text-anchor="middle" x="61.62" y="-98" font-family="Helvetica,sans-Serif" font-size="10.00">::SlideToNextIndex</text>
</a>
</g>
</g>
<!-- Node2 -->
<g id="Node000002" class="node">
<title>Node2</title>
<g id="a_Node000002"><a xlink:href="classAnimatedStackedWidget.html#a0a9829357f507ac7b5e0a7daf69b279f" target="_top" xlink:title="Initiates an animated transition to the widget at the specified index. Plays a sound effect and start...">
<polygon fill="white" stroke="#666666" points="282.5,-122 159.25,-122 159.25,-93 282.5,-93 282.5,-122"/>
<text text-anchor="start" x="167.25" y="-108.5" font-family="Helvetica,sans-Serif" font-size="10.00">AnimatedStackedWidget</text>
<text text-anchor="middle" x="220.88" y="-98" font-family="Helvetica,sans-Serif" font-size="10.00">::SlideToIndex</text>
</a>
</g>
</g>
<!-- Node1&#45;&gt;Node2 -->
<g id="edge1_Node000001_Node000002" class="edge">
<title>Node1&#45;&gt;Node2</title>
<g id="a_edge1_Node000001_Node000002"><a xlink:title=" ">
<path fill="none" stroke="#63b8ff" d="M123.42,-107.5C131.35,-107.5 139.54,-107.5 147.63,-107.5"/>
<polygon fill="#63b8ff" stroke="#63b8ff" points="147.47,-111 157.47,-107.5 147.47,-104 147.47,-111"/>
</a>
</g>
</g>
<!-- Node3 -->
<g id="Node000003" class="node">
<title>Node3</title>
<g id="a_Node000003"><a xlink:href="classAnimatedStackedWidget.html#a57cdf55739292d948ecdd6f97cba09c0" target="_top" xlink:title="Cleans up graphics effects and resets widget geometries after an animation finishes....">
<polygon fill="white" stroke="#666666" points="441.75,-146 318.5,-146 318.5,-117 441.75,-117 441.75,-146"/>
<text text-anchor="start" x="326.5" y="-132.5" font-family="Helvetica,sans-Serif" font-size="10.00">AnimatedStackedWidget</text>
<text text-anchor="middle" x="380.12" y="-122" font-family="Helvetica,sans-Serif" font-size="10.00">::CleanupAfterAnimation</text>
</a>
</g>
</g>
<!-- Node2&#45;&gt;Node3 -->
<g id="edge2_Node000002_Node000003" class="edge">
<title>Node2&#45;&gt;Node3</title>
<g id="a_edge2_Node000002_Node000003"><a xlink:title=" ">
<path fill="none" stroke="#63b8ff" d="M282.67,-116.78C290.6,-117.99 298.79,-119.24 306.88,-120.47"/>
<polygon fill="#63b8ff" stroke="#63b8ff" points="306.32,-123.93 316.73,-121.98 307.38,-117.01 306.32,-123.93"/>
</a>
</g>
</g>
<!-- Node4 -->
<g id="Node000004" class="node">
<title>Node4</title>
<g id="a_Node000004"><a xlink:href="classAnimatedStackedWidget.html#ab948154ce1b983eefb9338d97cb58976" target="_top" xlink:title="Prepares the appropriate animation based on animation_type_. Calls the corresponding Animate* method ...">
<polygon fill="white" stroke="#666666" points="441.75,-99 318.5,-99 318.5,-70 441.75,-70 441.75,-99"/>
<text text-anchor="start" x="326.5" y="-85.5" font-family="Helvetica,sans-Serif" font-size="10.00">AnimatedStackedWidget</text>
<text text-anchor="middle" x="380.12" y="-75" font-family="Helvetica,sans-Serif" font-size="10.00">::PrepareAnimation</text>
</a>
</g>
</g>
<!-- Node2&#45;&gt;Node4 -->
<g id="edge3_Node000002_Node000004" class="edge">
<title>Node2&#45;&gt;Node4</title>
<g id="a_edge3_Node000002_Node000004"><a xlink:title=" ">
<path fill="none" stroke="#63b8ff" d="M282.67,-98.61C290.6,-97.45 298.79,-96.25 306.88,-95.07"/>
<polygon fill="#63b8ff" stroke="#63b8ff" points="307.34,-98.54 316.73,-93.63 306.33,-91.61 307.34,-98.54"/>
</a>
</g>
</g>
<!-- Node5 -->
<g id="Node000005" class="node">
<title>Node5</title>
<g id="a_Node000005"><a xlink:href="classAnimatedStackedWidget.html#acf39fd97b7aa80907c98d6e5ee925e3d" target="_top" xlink:title="Configures and adds animations to the animation_group_ for a fade transition.">
<polygon fill="white" stroke="#666666" points="601,-170 477.75,-170 477.75,-141 601,-141 601,-170"/>
<text text-anchor="start" x="485.75" y="-156.5" font-family="Helvetica,sans-Serif" font-size="10.00">AnimatedStackedWidget</text>
<text text-anchor="middle" x="539.38" y="-146" font-family="Helvetica,sans-Serif" font-size="10.00">::AnimateFade</text>
</a>
</g>
</g>
<!-- Node4&#45;&gt;Node5 -->
<g id="edge4_Node000004_Node000005" class="edge">
<title>Node4&#45;&gt;Node5</title>
<g id="a_edge4_Node000004_Node000005"><a xlink:title=" ">
<path fill="none" stroke="#63b8ff" d="M422.42,-99.48C428.99,-102.26 435.63,-105.3 441.75,-108.5 458.78,-117.42 460.65,-123.7 477.75,-132.5 480.11,-133.72 482.56,-134.91 485.05,-136.06"/>
<polygon fill="#63b8ff" stroke="#63b8ff" points="483.5,-139.2 494.06,-140 486.3,-132.79 483.5,-139.2"/>
</a>
</g>
</g>
<!-- Node6 -->
<g id="Node000006" class="node">
<title>Node6</title>
<g id="a_Node000006"><a xlink:href="classAnimatedStackedWidget.html#ab5df18702b0ae21b22c85c308011ff2c" target="_top" xlink:title="Configures and adds animations to the animation_group_ for a push transition.">
<polygon fill="white" stroke="#666666" points="601,-123 477.75,-123 477.75,-94 601,-94 601,-123"/>
<text text-anchor="start" x="485.75" y="-109.5" font-family="Helvetica,sans-Serif" font-size="10.00">AnimatedStackedWidget</text>
<text text-anchor="middle" x="539.38" y="-99" font-family="Helvetica,sans-Serif" font-size="10.00">::AnimatePush</text>
</a>
</g>
</g>
<!-- Node4&#45;&gt;Node6 -->
<g id="edge5_Node000004_Node000006" class="edge">
<title>Node4&#45;&gt;Node6</title>
<g id="a_edge5_Node000004_Node000006"><a xlink:title=" ">
<path fill="none" stroke="#63b8ff" d="M441.92,-93.78C449.85,-94.99 458.04,-96.24 466.13,-97.47"/>
<polygon fill="#63b8ff" stroke="#63b8ff" points="465.57,-100.93 475.98,-98.98 466.63,-94.01 465.57,-100.93"/>
</a>
</g>
</g>
<!-- Node7 -->
<g id="Node000007" class="node">
<title>Node7</title>
<g id="a_Node000007"><a xlink:href="classAnimatedStackedWidget.html#a45b1363a258c139ac53df8fece2a9396" target="_top" xlink:title="Configures and adds animations to the animation_group_ for a slide transition (CPU fallback).">
<polygon fill="white" stroke="#666666" points="601,-76 477.75,-76 477.75,-47 601,-47 601,-76"/>
<text text-anchor="start" x="485.75" y="-62.5" font-family="Helvetica,sans-Serif" font-size="10.00">AnimatedStackedWidget</text>
<text text-anchor="middle" x="539.38" y="-52" font-family="Helvetica,sans-Serif" font-size="10.00">::AnimateSlide</text>
</a>
</g>
</g>
<!-- Node4&#45;&gt;Node7 -->
<g id="edge6_Node000004_Node000007" class="edge">
<title>Node4&#45;&gt;Node7</title>
<g id="a_edge6_Node000004_Node000007"><a xlink:title=" ">
<path fill="none" stroke="#63b8ff" d="M441.92,-75.61C449.85,-74.45 458.04,-73.25 466.13,-72.07"/>
<polygon fill="#63b8ff" stroke="#63b8ff" points="466.59,-75.54 475.98,-70.63 465.58,-68.61 466.59,-75.54"/>
</a>
</g>
</g>
<!-- Node8 -->
<g id="Node000008" class="node">
<title>Node8</title>
<g id="a_Node000008"><a xlink:href="classAnimatedStackedWidget.html#a0b881672aa2d68cbb0c4e37f1f7d74dd" target="_top" xlink:title="Configures and adds animations to the animation_group_ for a combined slide and fade transition.">
<polygon fill="white" stroke="#666666" points="601,-29 477.75,-29 477.75,0 601,0 601,-29"/>
<text text-anchor="start" x="485.75" y="-15.5" font-family="Helvetica,sans-Serif" font-size="10.00">AnimatedStackedWidget</text>
<text text-anchor="middle" x="539.38" y="-5" font-family="Helvetica,sans-Serif" font-size="10.00">::AnimateSlideAndFade</text>
</a>
</g>
</g>
<!-- Node4&#45;&gt;Node8 -->
<g id="edge7_Node000004_Node000008" class="edge">
<title>Node4&#45;&gt;Node8</title>
<g id="a_edge7_Node000004_Node000008"><a xlink:title=" ">
<path fill="none" stroke="#63b8ff" d="M410.92,-69.68C429.9,-60.39 455.09,-48.36 477.75,-38.5 481.34,-36.94 485.06,-35.36 488.81,-33.8"/>
<polygon fill="#63b8ff" stroke="#63b8ff" points="490.07,-37.07 498,-30.05 487.42,-30.59 490.07,-37.07"/>
</a>
</g>
</g>
</g>
</svg>

<g id="navigator" transform="translate(0 0)" fill="#404254">
  <rect fill="#f2f5e9" fill-opacity="0.5" stroke="#606060" stroke-width=".5" x="0" y="0" width="60" height="60"/>
  <use id="zoomplus" xlink:href="#zoomPlus" x="17" y="9" onmousedown="handleZoom(evt,'in')"/>
  <use id="zoomminus" xlink:href="#zoomMin" x="42" y="9" onmousedown="handleZoom(evt,'out')"/>
  <use id="reset" xlink:href="#resetDef" x="30" y="36" onmousedown="handleReset()"/>
   <use id="arrowup" xlink:href="#arrowUp" x="0" y="0" onmousedown="handlePan(0,-1)"/>
  <use id="arrowright" xlink:href="#arrowRight" x="0" y="0" onmousedown="handlePan(1,0)"/>
  <use id="arrowdown" xlink:href="#arrowDown" x="0" y="0" onmousedown="handlePan(0,1)"/>
  <use id="arrowleft" xlink:href="#arrowLeft" x="0" y="0" onmousedown="handlePan(-1,0)"/>
</g>
<svg viewBox="0 0 15 15" width="100%" height="30px" preserveAspectRatio="xMaxYMin meet">
 <g id="arrow_out" transform="scale(0.3 0.3)">
  <a xlink:href="classAnimatedStackedWidget_a4f2d6e971acad290609ecf9881a604dd_cgraph_org.svg" target="_base">
   <rect id="button" ry="5" rx="5" y="6" x="6" height="38" width="38"
        fill="#f2f5e9" fill-opacity="0.5" stroke="#606060" stroke-width="1.0"/>
   <path id="arrow"
     d="M 11.500037,31.436501 C 11.940474,20.09759 22.043105,11.32322 32.158766,21.979434 L 37.068811,17.246167 C 37.068811,17.246167 37.088388,32 37.088388,32 L 22.160133,31.978069 C 22.160133,31.978069 26.997745,27.140456 26.997745,27.140456 C 18.528582,18.264221 13.291696,25.230495 11.500037,31.436501 z"
     style="fill:#404040;"/>
  </a>
 </g>
</svg>

<style type='text/css'>
<![CDATA[
[data-mouse-over-selected='false'] { opacity: 0.7; }
[data-mouse-over-selected='true']  { opacity: 1.0; }
]]>
</style>
<script type="application/ecmascript"><![CDATA[
document.addEventListener('DOMContentLoaded', (event) => {
  highlightEdges();
  highlightAdjacentNodes();
});
]]></script>
</svg>
