<?xml version="1.0" encoding="UTF-8" standalone="no"?>
<!DOCTYPE svg PUBLIC "-//W3C//DTD SVG 1.1//EN"
 "http://www.w3.org/Graphics/SVG/1.1/DTD/svg11.dtd">
<!-- Generated by graphviz version 12.2.1 (0)
 -->
<!-- Title: AttachmentQueueManager::AddTask Pages: 1 -->
<svg width="309pt" height="74pt"
 viewBox="0.00 0.00 308.50 73.75" xmlns="http://www.w3.org/2000/svg" xmlns:xlink="http://www.w3.org/1999/xlink">
<g id="graph0" class="graph" transform="scale(1 1) rotate(0) translate(4 69.75)">
<title>AttachmentQueueManager::AddTask</title>
<!-- Node1 -->
<g id="Node000001" class="node">
<title>Node1</title>
<g id="a_Node000001"><a xlink:title="Adds a new task (represented by a std::function) to the execution queue. Creates an AttachmentTask wr...">
<polygon fill="#999999" stroke="#666666" points="132.25,-50 0,-50 0,-21 132.25,-21 132.25,-50"/>
<text text-anchor="start" x="8" y="-36.5" font-family="Helvetica,sans-Serif" font-size="10.00">AttachmentQueueManager</text>
<text text-anchor="middle" x="66.12" y="-26" font-family="Helvetica,sans-Serif" font-size="10.00">::AddTask</text>
</a>
</g>
</g>
<!-- Node2 -->
<g id="Node000002" class="node">
<title>Node2</title>
<g id="a_Node000002"><a xlink:href="classAttachmentTask.html#a08ea014777b2a92f1863c8bca688e0e9" target="_top" xlink:title="Emitted after the task function (TaskFunc_) has finished executing.">
<polygon fill="white" stroke="#666666" points="297.5,-65.75 171.25,-65.75 171.25,-47.25 297.5,-47.25 297.5,-65.75"/>
<text text-anchor="middle" x="234.38" y="-52.25" font-family="Helvetica,sans-Serif" font-size="10.00">AttachmentTask::finished</text>
</a>
</g>
</g>
<!-- Node1&#45;&gt;Node2 -->
<g id="edge1_Node000001_Node000002" class="edge">
<title>Node1&#45;&gt;Node2</title>
<g id="a_edge1_Node000001_Node000002"><a xlink:title=" ">
<path fill="none" stroke="#63b8ff" d="M132.35,-43.74C141.24,-44.86 150.42,-46.02 159.45,-47.16"/>
<polygon fill="#63b8ff" stroke="#63b8ff" points="158.92,-50.62 169.28,-48.4 159.8,-43.68 158.92,-50.62"/>
</a>
</g>
</g>
<!-- Node3 -->
<g id="Node000003" class="node">
<title>Node3</title>
<g id="a_Node000003"><a xlink:href="classAttachmentQueueManager.html#aab8e65b34981358a309208cf2118febe" target="_top" xlink:title="Processes the task queue, starting new tasks if slots are available. Checks if the number of active t...">
<polygon fill="white" stroke="#666666" points="300.5,-29 168.25,-29 168.25,0 300.5,0 300.5,-29"/>
<text text-anchor="start" x="176.25" y="-15.5" font-family="Helvetica,sans-Serif" font-size="10.00">AttachmentQueueManager</text>
<text text-anchor="middle" x="234.38" y="-5" font-family="Helvetica,sans-Serif" font-size="10.00">::ProcessQueue</text>
</a>
</g>
</g>
<!-- Node1&#45;&gt;Node3 -->
<g id="edge2_Node000001_Node000003" class="edge">
<title>Node1&#45;&gt;Node3</title>
<g id="a_edge2_Node000001_Node000003"><a xlink:title=" ">
<path fill="none" stroke="#63b8ff" d="M132.35,-27.26C140.27,-26.26 148.41,-25.23 156.47,-24.21"/>
<polygon fill="#63b8ff" stroke="#63b8ff" points="156.8,-27.7 166.29,-22.97 155.93,-20.76 156.8,-27.7"/>
</a>
</g>
</g>
</g>
</svg>
