<?xml version="1.0" encoding="UTF-8" standalone="no"?>
<!DOCTYPE svg PUBLIC "-//W3C//DTD SVG 1.1//EN"
 "http://www.w3.org/Graphics/SVG/1.1/DTD/svg11.dtd">
<!-- Generated by graphviz version 12.2.1 (0)
 -->
<!-- Title: NetworkSettingsWidget Pages: 1 -->
<svg width="458pt" height="965pt"
 viewBox="0.00 0.00 458.00 964.50" xmlns="http://www.w3.org/2000/svg" xmlns:xlink="http://www.w3.org/1999/xlink">
<g id="graph0" class="graph" transform="scale(1 1) rotate(0) translate(4 960.5)">
<title>NetworkSettingsWidget</title>
<!-- Node1 -->
<g id="Node000001" class="node">
<title>Node1</title>
<g id="a_Node000001"><a xlink:title="A widget for configuring advanced network settings for the application.">
<polygon fill="#999999" stroke="none" points="213.88,-233 74.38,-233 74.38,0 213.88,0 213.88,-233"/>
<text text-anchor="start" x="92.38" y="-219.5" font-family="Helvetica,sans-Serif" font-size="10.00">NetworkSettingsWidget</text>
<text text-anchor="start" x="79.88" y="-205" font-family="Helvetica,sans-Serif" font-size="10.00">&#45;</text>
<text text-anchor="start" x="88.38" y="-205" font-family="Helvetica,sans-Serif" font-size="10.00">QSpinBox * connection</text>
<text text-anchor="start" x="88.38" y="-194.5" font-family="Helvetica,sans-Serif" font-size="10.00">_timeout_edit_</text>
<text text-anchor="start" x="79.88" y="-180" font-family="Helvetica,sans-Serif" font-size="10.00">&#45;</text>
<text text-anchor="start" x="88.38" y="-180" font-family="Helvetica,sans-Serif" font-size="10.00">QSpinBox * keep_alive</text>
<text text-anchor="start" x="88.38" y="-169.5" font-family="Helvetica,sans-Serif" font-size="10.00">_interval_edit_</text>
<text text-anchor="start" x="79.88" y="-155" font-family="Helvetica,sans-Serif" font-size="10.00">&#45;</text>
<text text-anchor="start" x="88.38" y="-155" font-family="Helvetica,sans-Serif" font-size="10.00">QSpinBox * max_reconnect</text>
<text text-anchor="start" x="88.38" y="-144.5" font-family="Helvetica,sans-Serif" font-size="10.00">_attempts_edit_</text>
<text text-anchor="start" x="79.88" y="-130" font-family="Helvetica,sans-Serif" font-size="10.00">&#45;</text>
<text text-anchor="start" x="88.38" y="-130" font-family="Helvetica,sans-Serif" font-size="10.00">QSpinBox * server_port</text>
<text text-anchor="start" x="88.38" y="-119.5" font-family="Helvetica,sans-Serif" font-size="10.00">_edit_</text>
<text text-anchor="start" x="78.38" y="-105" font-family="Helvetica,sans-Serif" font-size="10.00">+</text>
<text text-anchor="start" x="88.38" y="-105" font-family="Helvetica,sans-Serif" font-size="10.00">void LoadSettings()</text>
<text text-anchor="start" x="88.38" y="-94.5" font-family="Helvetica,sans-Serif" font-size="10.00"> const</text>
<text text-anchor="start" x="78.38" y="-80" font-family="Helvetica,sans-Serif" font-size="10.00">+</text>
<text text-anchor="start" x="88.38" y="-80" font-family="Helvetica,sans-Serif" font-size="10.00">NetworkSettingsWidget</text>
<text text-anchor="start" x="88.38" y="-69.5" font-family="Helvetica,sans-Serif" font-size="10.00">(QWidget *parent=nullptr)</text>
<text text-anchor="start" x="78.38" y="-55" font-family="Helvetica,sans-Serif" font-size="10.00">+</text>
<text text-anchor="start" x="88.38" y="-55" font-family="Helvetica,sans-Serif" font-size="10.00">void SaveSettings()</text>
<text text-anchor="start" x="88.38" y="-44.5" font-family="Helvetica,sans-Serif" font-size="10.00"> const</text>
<text text-anchor="start" x="78.38" y="-30" font-family="Helvetica,sans-Serif" font-size="10.00">+</text>
<text text-anchor="start" x="88.38" y="-30" font-family="Helvetica,sans-Serif" font-size="10.00">~NetworkSettingsWidget</text>
<text text-anchor="start" x="88.38" y="-19.5" font-family="Helvetica,sans-Serif" font-size="10.00">() override=default</text>
<text text-anchor="start" x="79.88" y="-5" font-family="Helvetica,sans-Serif" font-size="10.00">&#45;</text>
<text text-anchor="start" x="88.38" y="-5" font-family="Helvetica,sans-Serif" font-size="10.00">void SetupUi()</text>
<polygon fill="#666666" stroke="#666666" points="74.38,-216.5 74.38,-216.5 213.88,-216.5 213.88,-216.5 74.38,-216.5"/>
<polygon fill="#666666" stroke="#666666" points="74.38,-116.5 74.38,-116.5 86.38,-116.5 86.38,-116.5 74.38,-116.5"/>
<polygon fill="#666666" stroke="#666666" points="86.38,-116.5 86.38,-116.5 213.88,-116.5 213.88,-116.5 86.38,-116.5"/>
<polygon fill="none" stroke="#666666" points="74.38,0 74.38,-233 213.88,-233 213.88,0 74.38,0"/>
</a>
</g>
</g>
<!-- Node2 -->
<g id="Node000002" class="node">
<title>Node2</title>
<g id="a_Node000002"><a xlink:title=" ">
<polygon fill="white" stroke="none" points="46.25,-599.5 0,-599.5 0,-552 46.25,-552 46.25,-599.5"/>
<text text-anchor="start" x="4" y="-586" font-family="Helvetica,sans-Serif" font-size="10.00">QWidget</text>
<text text-anchor="start" x="21.62" y="-571.5" font-family="Helvetica,sans-Serif" font-size="10.00"> </text>
<text text-anchor="start" x="21.62" y="-557" font-family="Helvetica,sans-Serif" font-size="10.00"> </text>
<polygon fill="#666666" stroke="#666666" points="0,-583 0,-583 46.25,-583 46.25,-583 0,-583"/>
<polygon fill="#666666" stroke="#666666" points="0,-568.5 0,-568.5 46.25,-568.5 46.25,-568.5 0,-568.5"/>
<polygon fill="none" stroke="#666666" points="0,-552 0,-599.5 46.25,-599.5 46.25,-552 0,-552"/>
</a>
</g>
</g>
<!-- Node2&#45;&gt;Node1 -->
<g id="edge1_Node000001_Node000002" class="edge">
<title>Node2&#45;&gt;Node1</title>
<g id="a_edge1_Node000001_Node000002"><a xlink:title=" ">
<path fill="none" stroke="#63b8ff" d="M22.53,-540.99C22.48,-485.21 26.33,-370.9 55.12,-279.5 60.19,-263.43 66.92,-247.14 74.41,-231.39"/>
<polygon fill="none" stroke="#63b8ff" points="19.03,-540.8 22.59,-550.78 26.03,-540.76 19.03,-540.8"/>
</a>
</g>
</g>
<!-- Node3 -->
<g id="Node000003" class="node">
<title>Node3</title>
<g id="a_Node000003"><a xlink:href="classWavelengthConfig.html" target="_top" xlink:title="Manages application configuration settings using a singleton pattern.">
<polygon fill="white" stroke="none" points="224,-872 64.25,-872 64.25,-279.5 224,-279.5 224,-872"/>
<text text-anchor="start" x="104.75" y="-858.5" font-family="Helvetica,sans-Serif" font-size="10.00">WavelengthConfig</text>
<text text-anchor="start" x="69.75" y="-844" font-family="Helvetica,sans-Serif" font-size="10.00">&#45;</text>
<text text-anchor="start" x="78.25" y="-844" font-family="Helvetica,sans-Serif" font-size="10.00">QColor background_color_</text>
<text text-anchor="start" x="69.75" y="-829.5" font-family="Helvetica,sans-Serif" font-size="10.00">&#45;</text>
<text text-anchor="start" x="78.25" y="-829.5" font-family="Helvetica,sans-Serif" font-size="10.00">QColor blob_color_</text>
<text text-anchor="start" x="69.75" y="-815" font-family="Helvetica,sans-Serif" font-size="10.00">&#45;</text>
<text text-anchor="start" x="78.25" y="-815" font-family="Helvetica,sans-Serif" font-size="10.00">int connection_timeout_</text>
<text text-anchor="start" x="69.75" y="-800.5" font-family="Helvetica,sans-Serif" font-size="10.00">&#45;</text>
<text text-anchor="start" x="78.25" y="-800.5" font-family="Helvetica,sans-Serif" font-size="10.00">bool debug_mode_</text>
<text text-anchor="start" x="69.75" y="-786" font-family="Helvetica,sans-Serif" font-size="10.00">&#45;</text>
<text text-anchor="start" x="78.25" y="-786" font-family="Helvetica,sans-Serif" font-size="10.00">QMap&lt; QString, QKeySequence</text>
<text text-anchor="start" x="78.25" y="-775.5" font-family="Helvetica,sans-Serif" font-size="10.00"> &gt; default_shortcuts_</text>
<text text-anchor="start" x="69.75" y="-761" font-family="Helvetica,sans-Serif" font-size="10.00">&#45;</text>
<text text-anchor="start" x="78.25" y="-761" font-family="Helvetica,sans-Serif" font-size="10.00">QColor grid_color_</text>
<text text-anchor="start" x="69.75" y="-746.5" font-family="Helvetica,sans-Serif" font-size="10.00">&#45;</text>
<text text-anchor="start" x="78.25" y="-746.5" font-family="Helvetica,sans-Serif" font-size="10.00">int grid_spacing_</text>
<text text-anchor="start" x="69.75" y="-732" font-family="Helvetica,sans-Serif" font-size="10.00">&#45;</text>
<text text-anchor="start" x="78.25" y="-732" font-family="Helvetica,sans-Serif" font-size="10.00">int keep_alive_interval_</text>
<text text-anchor="start" x="69.75" y="-717.5" font-family="Helvetica,sans-Serif" font-size="10.00">&#45;</text>
<text text-anchor="start" x="78.25" y="-717.5" font-family="Helvetica,sans-Serif" font-size="10.00">const QString kShortcuts</text>
<text text-anchor="start" x="78.25" y="-707" font-family="Helvetica,sans-Serif" font-size="10.00">Prefix</text>
<text text-anchor="start" x="69.75" y="-692.5" font-family="Helvetica,sans-Serif" font-size="10.00">&#45;</text>
<text text-anchor="start" x="78.25" y="-692.5" font-family="Helvetica,sans-Serif" font-size="10.00">QString language_code_</text>
<text text-anchor="start" x="78.25" y="-678" font-family="Helvetica,sans-Serif" font-size="10.00">and 11 more...</text>
<text text-anchor="start" x="69.75" y="-663.5" font-family="Helvetica,sans-Serif" font-size="10.00">&#45;</text>
<text text-anchor="start" x="78.25" y="-663.5" font-family="Helvetica,sans-Serif" font-size="10.00">static constexpr int</text>
<text text-anchor="start" x="78.25" y="-653" font-family="Helvetica,sans-Serif" font-size="10.00"> kMaxRecentColors</text>
<text text-anchor="start" x="68.25" y="-638.5" font-family="Helvetica,sans-Serif" font-size="10.00">+</text>
<text text-anchor="start" x="78.25" y="-638.5" font-family="Helvetica,sans-Serif" font-size="10.00">void AddRecentColor</text>
<text text-anchor="start" x="78.25" y="-628" font-family="Helvetica,sans-Serif" font-size="10.00">(const QColor &amp;color)</text>
<text text-anchor="start" x="68.25" y="-613.5" font-family="Helvetica,sans-Serif" font-size="10.00">+</text>
<text text-anchor="start" x="78.25" y="-613.5" font-family="Helvetica,sans-Serif" font-size="10.00">QMap&lt; QString, QKeySequence</text>
<text text-anchor="start" x="78.25" y="-603" font-family="Helvetica,sans-Serif" font-size="10.00"> &gt; GetAllShortcuts() const</text>
<text text-anchor="start" x="68.25" y="-588.5" font-family="Helvetica,sans-Serif" font-size="10.00">+</text>
<text text-anchor="start" x="78.25" y="-588.5" font-family="Helvetica,sans-Serif" font-size="10.00">QColor GetBackgroundColor</text>
<text text-anchor="start" x="78.25" y="-578" font-family="Helvetica,sans-Serif" font-size="10.00">() const</text>
<text text-anchor="start" x="68.25" y="-563.5" font-family="Helvetica,sans-Serif" font-size="10.00">+</text>
<text text-anchor="start" x="78.25" y="-563.5" font-family="Helvetica,sans-Serif" font-size="10.00">QColor GetBlobColor</text>
<text text-anchor="start" x="78.25" y="-553" font-family="Helvetica,sans-Serif" font-size="10.00">() const</text>
<text text-anchor="start" x="68.25" y="-538.5" font-family="Helvetica,sans-Serif" font-size="10.00">+</text>
<text text-anchor="start" x="78.25" y="-538.5" font-family="Helvetica,sans-Serif" font-size="10.00">int GetConnectionTimeout</text>
<text text-anchor="start" x="78.25" y="-528" font-family="Helvetica,sans-Serif" font-size="10.00">() const</text>
<text text-anchor="start" x="68.25" y="-513.5" font-family="Helvetica,sans-Serif" font-size="10.00">+</text>
<text text-anchor="start" x="78.25" y="-513.5" font-family="Helvetica,sans-Serif" font-size="10.00">QMap&lt; QString, QKeySequence</text>
<text text-anchor="start" x="78.25" y="-503" font-family="Helvetica,sans-Serif" font-size="10.00"> &gt; GetDefaultShortcutsMap</text>
<text text-anchor="start" x="78.25" y="-492.5" font-family="Helvetica,sans-Serif" font-size="10.00">() const</text>
<text text-anchor="start" x="68.25" y="-478" font-family="Helvetica,sans-Serif" font-size="10.00">+</text>
<text text-anchor="start" x="78.25" y="-478" font-family="Helvetica,sans-Serif" font-size="10.00">QColor GetGridColor</text>
<text text-anchor="start" x="78.25" y="-467.5" font-family="Helvetica,sans-Serif" font-size="10.00">() const</text>
<text text-anchor="start" x="68.25" y="-453" font-family="Helvetica,sans-Serif" font-size="10.00">+</text>
<text text-anchor="start" x="78.25" y="-453" font-family="Helvetica,sans-Serif" font-size="10.00">int GetGridSpacing</text>
<text text-anchor="start" x="78.25" y="-442.5" font-family="Helvetica,sans-Serif" font-size="10.00">() const</text>
<text text-anchor="start" x="68.25" y="-428" font-family="Helvetica,sans-Serif" font-size="10.00">+</text>
<text text-anchor="start" x="78.25" y="-428" font-family="Helvetica,sans-Serif" font-size="10.00">int GetKeepAliveInterval</text>
<text text-anchor="start" x="78.25" y="-417.5" font-family="Helvetica,sans-Serif" font-size="10.00">() const</text>
<text text-anchor="start" x="68.25" y="-403" font-family="Helvetica,sans-Serif" font-size="10.00">+</text>
<text text-anchor="start" x="78.25" y="-403" font-family="Helvetica,sans-Serif" font-size="10.00">QString GetLanguageCode</text>
<text text-anchor="start" x="78.25" y="-392.5" font-family="Helvetica,sans-Serif" font-size="10.00">() const</text>
<text text-anchor="start" x="78.25" y="-378" font-family="Helvetica,sans-Serif" font-size="10.00">and 35 more...</text>
<text text-anchor="start" x="68.25" y="-363.5" font-family="Helvetica,sans-Serif" font-size="10.00">+</text>
<text text-anchor="start" x="78.25" y="-363.5" font-family="Helvetica,sans-Serif" font-size="10.00">static WavelengthConfig</text>
<text text-anchor="start" x="78.25" y="-353" font-family="Helvetica,sans-Serif" font-size="10.00"> * GetInstance()</text>
<text text-anchor="start" x="69.75" y="-338.5" font-family="Helvetica,sans-Serif" font-size="10.00">&#45;</text>
<text text-anchor="start" x="78.25" y="-338.5" font-family="Helvetica,sans-Serif" font-size="10.00">void LoadDefaults()</text>
<text text-anchor="start" x="69.75" y="-324" font-family="Helvetica,sans-Serif" font-size="10.00">&#45;</text>
<text text-anchor="start" x="78.25" y="-324" font-family="Helvetica,sans-Serif" font-size="10.00">void LoadDefaultShortcuts()</text>
<text text-anchor="start" x="69.75" y="-309.5" font-family="Helvetica,sans-Serif" font-size="10.00">&#45;</text>
<text text-anchor="start" x="78.25" y="-309.5" font-family="Helvetica,sans-Serif" font-size="10.00">void LoadSettings()</text>
<text text-anchor="start" x="69.75" y="-295" font-family="Helvetica,sans-Serif" font-size="10.00">&#45;</text>
<text text-anchor="start" x="78.25" y="-295" font-family="Helvetica,sans-Serif" font-size="10.00">WavelengthConfig(QObject</text>
<text text-anchor="start" x="78.25" y="-284.5" font-family="Helvetica,sans-Serif" font-size="10.00"> *parent=nullptr)</text>
<polygon fill="#666666" stroke="#666666" points="64.25,-855.5 64.25,-855.5 224,-855.5 224,-855.5 64.25,-855.5"/>
<polygon fill="#666666" stroke="#666666" points="64.25,-650 64.25,-650 76.25,-650 76.25,-650 64.25,-650"/>
<polygon fill="#666666" stroke="#666666" points="76.25,-650 76.25,-650 224,-650 224,-650 76.25,-650"/>
<polygon fill="none" stroke="#666666" points="64.25,-279.5 64.25,-872 224,-872 224,-279.5 64.25,-279.5"/>
</a>
</g>
</g>
<!-- Node3&#45;&gt;Node1 -->
<g id="edge2_Node000001_Node000003" class="edge">
<title>Node3&#45;&gt;Node1</title>
<g id="a_edge2_Node000001_Node000003"><a xlink:title=" ">
<path fill="none" stroke="#63b8ff" d="M144.12,-279.67C144.12,-268.02 144.12,-256.61 144.12,-245.6"/>
<polygon fill="none" stroke="#63b8ff" points="144.13,-245.76 140.13,-239.76 144.13,-233.76 148.13,-239.76 144.13,-245.76"/>
</a>
</g>
<text text-anchor="middle" x="162.88" y="-252" font-family="Helvetica,sans-Serif" font-size="10.00" fill="grey"> &#45;config_</text>
</g>
<!-- Node3&#45;&gt;Node3 -->
<g id="edge4_Node000003_Node000003" class="edge">
<title>Node3&#45;&gt;Node3</title>
<g id="a_edge4_Node000003_Node000003"><a xlink:title=" ">
<path fill="none" stroke="#63b8ff" d="M223.62,-628.41C234.64,-619.74 242,-602.18 242,-575.75 242,-556.96 238.28,-542.65 232.17,-532.84"/>
<polygon fill="none" stroke="#63b8ff" points="232.13,-532.79 225.16,-530.91 224.21,-523.77 231.18,-525.64 232.13,-532.79"/>
</a>
</g>
<text text-anchor="middle" x="266" y="-571.5" font-family="Helvetica,sans-Serif" font-size="10.00" fill="grey"> &#45;instance_</text>
</g>
<!-- Node4 -->
<g id="Node000004" class="node">
<title>Node4</title>
<g id="a_Node000004"><a xlink:title=" ">
<polygon fill="white" stroke="none" points="166.12,-956.5 122.12,-956.5 122.12,-909 166.12,-909 166.12,-956.5"/>
<text text-anchor="start" x="126.12" y="-943" font-family="Helvetica,sans-Serif" font-size="10.00">QObject</text>
<text text-anchor="start" x="142.62" y="-928.5" font-family="Helvetica,sans-Serif" font-size="10.00"> </text>
<text text-anchor="start" x="142.62" y="-914" font-family="Helvetica,sans-Serif" font-size="10.00"> </text>
<polygon fill="#666666" stroke="#666666" points="122.12,-940 122.12,-940 166.12,-940 166.12,-940 122.12,-940"/>
<polygon fill="#666666" stroke="#666666" points="122.12,-925.5 122.12,-925.5 166.12,-925.5 166.12,-925.5 122.12,-925.5"/>
<polygon fill="none" stroke="#666666" points="122.12,-909 122.12,-956.5 166.12,-956.5 166.12,-909 122.12,-909"/>
</a>
</g>
</g>
<!-- Node4&#45;&gt;Node3 -->
<g id="edge3_Node000003_Node000004" class="edge">
<title>Node4&#45;&gt;Node3</title>
<g id="a_edge3_Node000003_Node000004"><a xlink:title=" ">
<path fill="none" stroke="#63b8ff" d="M144.12,-897.6C144.12,-890 144.12,-881.35 144.12,-871.89"/>
<polygon fill="none" stroke="#63b8ff" points="140.63,-897.49 144.13,-907.49 147.63,-897.49 140.63,-897.49"/>
</a>
</g>
</g>
<!-- Node5 -->
<g id="Node000005" class="node">
<title>Node5</title>
<g id="a_Node000005"><a xlink:href="classCyberLineEdit.html" target="_top" xlink:title="A custom QLineEdit styled with a cyberpunk aesthetic.">
<polygon fill="white" stroke="none" points="450,-769.25 308.25,-769.25 308.25,-382.25 450,-382.25 450,-769.25"/>
<text text-anchor="start" x="348.38" y="-755.75" font-family="Helvetica,sans-Serif" font-size="10.00">CyberLineEdit</text>
<text text-anchor="start" x="312.25" y="-741.25" font-family="Helvetica,sans-Serif" font-size="10.00">+</text>
<text text-anchor="start" x="322.25" y="-741.25" font-family="Helvetica,sans-Serif" font-size="10.00">double glowIntensity</text>
<text text-anchor="start" x="313.75" y="-726.75" font-family="Helvetica,sans-Serif" font-size="10.00">&#45;</text>
<text text-anchor="start" x="322.25" y="-726.75" font-family="Helvetica,sans-Serif" font-size="10.00">QTimer * cursor_blink</text>
<text text-anchor="start" x="322.25" y="-716.25" font-family="Helvetica,sans-Serif" font-size="10.00">_timer_</text>
<text text-anchor="start" x="313.75" y="-701.75" font-family="Helvetica,sans-Serif" font-size="10.00">&#45;</text>
<text text-anchor="start" x="322.25" y="-701.75" font-family="Helvetica,sans-Serif" font-size="10.00">bool cursor_visible_</text>
<text text-anchor="start" x="313.75" y="-687.25" font-family="Helvetica,sans-Serif" font-size="10.00">&#45;</text>
<text text-anchor="start" x="322.25" y="-687.25" font-family="Helvetica,sans-Serif" font-size="10.00">double glow_intensity_</text>
<text text-anchor="start" x="312.25" y="-672.75" font-family="Helvetica,sans-Serif" font-size="10.00">+</text>
<text text-anchor="start" x="322.25" y="-672.75" font-family="Helvetica,sans-Serif" font-size="10.00">QRect CyberCursorRect</text>
<text text-anchor="start" x="322.25" y="-662.25" font-family="Helvetica,sans-Serif" font-size="10.00">() const</text>
<text text-anchor="start" x="312.25" y="-647.75" font-family="Helvetica,sans-Serif" font-size="10.00">+</text>
<text text-anchor="start" x="322.25" y="-647.75" font-family="Helvetica,sans-Serif" font-size="10.00">CyberLineEdit(QWidget</text>
<text text-anchor="start" x="322.25" y="-637.25" font-family="Helvetica,sans-Serif" font-size="10.00"> *parent=nullptr)</text>
<text text-anchor="start" x="312.25" y="-622.75" font-family="Helvetica,sans-Serif" font-size="10.00">+</text>
<text text-anchor="start" x="322.25" y="-622.75" font-family="Helvetica,sans-Serif" font-size="10.00">double GetGlowIntensity</text>
<text text-anchor="start" x="322.25" y="-612.25" font-family="Helvetica,sans-Serif" font-size="10.00">() const</text>
<text text-anchor="start" x="312.25" y="-597.75" font-family="Helvetica,sans-Serif" font-size="10.00">+</text>
<text text-anchor="start" x="322.25" y="-597.75" font-family="Helvetica,sans-Serif" font-size="10.00">void SetGlowIntensity</text>
<text text-anchor="start" x="322.25" y="-587.25" font-family="Helvetica,sans-Serif" font-size="10.00">(double intensity)</text>
<text text-anchor="start" x="312.25" y="-572.75" font-family="Helvetica,sans-Serif" font-size="10.00">+</text>
<text text-anchor="start" x="322.25" y="-572.75" font-family="Helvetica,sans-Serif" font-size="10.00">QSize sizeHint() const</text>
<text text-anchor="start" x="322.25" y="-562.25" font-family="Helvetica,sans-Serif" font-size="10.00"> override</text>
<text text-anchor="start" x="312.25" y="-547.75" font-family="Helvetica,sans-Serif" font-size="10.00">+</text>
<text text-anchor="start" x="322.25" y="-547.75" font-family="Helvetica,sans-Serif" font-size="10.00">~CyberLineEdit() override</text>
<text text-anchor="start" x="312.62" y="-533.25" font-family="Helvetica,sans-Serif" font-size="10.00">#</text>
<text text-anchor="start" x="322.25" y="-533.25" font-family="Helvetica,sans-Serif" font-size="10.00">void enterEvent(QEvent</text>
<text text-anchor="start" x="322.25" y="-522.75" font-family="Helvetica,sans-Serif" font-size="10.00"> *event) override</text>
<text text-anchor="start" x="312.62" y="-508.25" font-family="Helvetica,sans-Serif" font-size="10.00">#</text>
<text text-anchor="start" x="322.25" y="-508.25" font-family="Helvetica,sans-Serif" font-size="10.00">void focusInEvent(QFocus</text>
<text text-anchor="start" x="322.25" y="-497.75" font-family="Helvetica,sans-Serif" font-size="10.00">Event *event) override</text>
<text text-anchor="start" x="312.62" y="-483.25" font-family="Helvetica,sans-Serif" font-size="10.00">#</text>
<text text-anchor="start" x="322.25" y="-483.25" font-family="Helvetica,sans-Serif" font-size="10.00">void focusOutEvent</text>
<text text-anchor="start" x="322.25" y="-472.75" font-family="Helvetica,sans-Serif" font-size="10.00">(QFocusEvent *event)</text>
<text text-anchor="start" x="322.25" y="-462.25" font-family="Helvetica,sans-Serif" font-size="10.00"> override</text>
<text text-anchor="start" x="312.62" y="-447.75" font-family="Helvetica,sans-Serif" font-size="10.00">#</text>
<text text-anchor="start" x="322.25" y="-447.75" font-family="Helvetica,sans-Serif" font-size="10.00">void keyPressEvent</text>
<text text-anchor="start" x="322.25" y="-437.25" font-family="Helvetica,sans-Serif" font-size="10.00">(QKeyEvent *event) override</text>
<text text-anchor="start" x="312.62" y="-422.75" font-family="Helvetica,sans-Serif" font-size="10.00">#</text>
<text text-anchor="start" x="322.25" y="-422.75" font-family="Helvetica,sans-Serif" font-size="10.00">void leaveEvent(QEvent</text>
<text text-anchor="start" x="322.25" y="-412.25" font-family="Helvetica,sans-Serif" font-size="10.00"> *event) override</text>
<text text-anchor="start" x="312.62" y="-397.75" font-family="Helvetica,sans-Serif" font-size="10.00">#</text>
<text text-anchor="start" x="322.25" y="-397.75" font-family="Helvetica,sans-Serif" font-size="10.00">void paintEvent(QPaintEvent</text>
<text text-anchor="start" x="322.25" y="-387.25" font-family="Helvetica,sans-Serif" font-size="10.00"> *event) override</text>
<polygon fill="#666666" stroke="#666666" points="308.25,-752.75 308.25,-752.75 450,-752.75 450,-752.75 308.25,-752.75"/>
<polygon fill="#666666" stroke="#666666" points="308.25,-684.25 308.25,-684.25 320.25,-684.25 320.25,-684.25 308.25,-684.25"/>
<polygon fill="#666666" stroke="#666666" points="320.25,-684.25 320.25,-684.25 450,-684.25 450,-684.25 320.25,-684.25"/>
<polygon fill="none" stroke="#666666" points="308.25,-382.25 308.25,-769.25 450,-769.25 450,-382.25 308.25,-382.25"/>
</a>
</g>
</g>
<!-- Node5&#45;&gt;Node1 -->
<g id="edge5_Node000001_Node000005" class="edge">
<title>Node5&#45;&gt;Node1</title>
<g id="a_edge5_Node000001_Node000005"><a xlink:title=" ">
<path fill="none" stroke="#63b8ff" d="M342.03,-382.59C331.05,-347.04 317.01,-311.18 299.12,-279.5 279.44,-244.63 250.55,-211.63 223.02,-184.62"/>
<polygon fill="none" stroke="#63b8ff" points="223.05,-184.64 215.95,-183.36 214.41,-176.32 221.5,-177.6 223.05,-184.64"/>
</a>
</g>
<text text-anchor="middle" x="335.86" y="-252" font-family="Helvetica,sans-Serif" font-size="10.00" fill="grey"> &#45;server_address_edit_</text>
</g>
<!-- Node6 -->
<g id="Node000006" class="node">
<title>Node6</title>
<g id="a_Node000006"><a xlink:title=" ">
<polygon fill="white" stroke="none" points="404.5,-956.5 353.75,-956.5 353.75,-909 404.5,-909 404.5,-956.5"/>
<text text-anchor="start" x="357.75" y="-943" font-family="Helvetica,sans-Serif" font-size="10.00">QLineEdit</text>
<text text-anchor="start" x="377.62" y="-928.5" font-family="Helvetica,sans-Serif" font-size="10.00"> </text>
<text text-anchor="start" x="377.62" y="-914" font-family="Helvetica,sans-Serif" font-size="10.00"> </text>
<polygon fill="#666666" stroke="#666666" points="353.75,-940 353.75,-940 404.5,-940 404.5,-940 353.75,-940"/>
<polygon fill="#666666" stroke="#666666" points="353.75,-925.5 353.75,-925.5 404.5,-925.5 404.5,-925.5 353.75,-925.5"/>
<polygon fill="none" stroke="#666666" points="353.75,-909 353.75,-956.5 404.5,-956.5 404.5,-909 353.75,-909"/>
</a>
</g>
</g>
<!-- Node6&#45;&gt;Node5 -->
<g id="edge6_Node000005_Node000006" class="edge">
<title>Node6&#45;&gt;Node5</title>
<g id="a_edge6_Node000005_Node000006"><a xlink:title=" ">
<path fill="none" stroke="#63b8ff" d="M379.12,-897.66C379.12,-866.8 379.12,-818.68 379.12,-769.01"/>
<polygon fill="none" stroke="#63b8ff" points="375.63,-897.49 379.13,-907.49 382.63,-897.49 375.63,-897.49"/>
</a>
</g>
</g>
</g>
</svg>
