<?xml version="1.0" encoding="UTF-8" standalone="no"?>
<!DOCTYPE svg PUBLIC "-//W3C//DTD SVG 1.1//EN"
 "http://www.w3.org/Graphics/SVG/1.1/DTD/svg11.dtd">
<!-- Generated by graphviz version 12.2.1 (0)
 -->
<!-- Title: IdleState Pages: 1 -->
<!--zoomable 597 -->

<svg id="main" version="1.1" xmlns="http://www.w3.org/2000/svg" xmlns:xlink="http://www.w3.org/1999/xlink" xml:space="preserve" onload="init(evt)">

<style type="text/css"><![CDATA[
.node, .edge {opacity: 0.7;}
.node.selected, .edge.selected {opacity: 1;}
.edge:hover path { stroke: red; }
.edge:hover polygon { stroke: red; fill: red; }
]]></style>

<defs>
  <circle id="rim" cx="0" cy="0" r="7"/>
  <circle id="rim2" cx="0" cy="0" r="3.5"/>
  <g id="zoomPlus">
    <use xlink:href="#rim" fill="#404040"><set attributeName="fill" to="#808080" begin="zoomplus.mouseover" end="zoomplus.mouseout"/></use>
    <path d="M-4,0h8M0,-4v8" fill="none" stroke="white" stroke-width="1.5" pointer-events="none"/>
  </g>
  <g id="zoomMin">
    <use xlink:href="#rim" fill="#404040"><set attributeName="fill" to="#808080" begin="zoomminus.mouseover" end="zoomminus.mouseout"/></use>
    <path d="M-4,0h8" fill="none" stroke="white" stroke-width="1.5" pointer-events="none"/>
  </g>
  <g id="arrowUp" transform="translate(30 24)">
    <use xlink:href="#rim"/>
    <path pointer-events="none" fill="none" stroke="white" stroke-width="1.5" d="M0,-3.0v7 M-2.5,-0.5L0,-3.0L2.5,-0.5"/>
  </g>
  <g id="arrowRight" transform="rotate(90) translate(36 -43)">
    <use xlink:href="#rim"/>
    <path pointer-events="none" fill="none" stroke="white" stroke-width="1.5" d="M0,-3.0v7 M-2.5,-0.5L0,-3.0L2.5,-0.5"/>
  </g>
  <g id="arrowDown" transform="rotate(180) translate(-30 -48)">
    <use xlink:href="#rim"/>
    <path pointer-events="none" fill="none" stroke="white" stroke-width="1.5" d="M0,-3.0v7 M-2.5,-0.5L0,-3.0L2.5,-0.5"/>
  </g>
  <g id="arrowLeft" transform="rotate(270) translate(-36 17)">
    <use xlink:href="#rim"/>
    <path pointer-events="none" fill="none" stroke="white" stroke-width="1.5" d="M0,-3.0v7 M-2.5,-0.5L0,-3.0L2.5,-0.5"/>
  </g>
  <g id="resetDef">
    <use xlink:href="#rim2" fill="#404040"><set attributeName="fill" to="#808080" begin="reset.mouseover" end="reset.mouseout"/></use>
  </g>
</defs>
<script type="application/ecmascript">
var viewWidth = 356;
var viewHeight = 597;
var sectionId = 'dynsection-1';
</script>
<script type="application/ecmascript" xlink:href="svg.min.js"/>
<svg id="graph" class="graph">
<g id="viewport">
<title>IdleState</title>
<!-- Node1 -->
<g id="Node000001" class="node">
<title>Node1</title>
<g id="a_Node000001"><a xlink:title="Implements the Idle state behavior for the Blob animation.">
<polygon fill="#999999" stroke="none" points="332.12,-339.5 51.62,-339.5 51.62,0 332.12,0 332.12,-339.5"/>
<text text-anchor="start" x="172.38" y="-326" font-family="Helvetica,sans-Serif" font-size="10.00">IdleState</text>
<text text-anchor="start" x="57.12" y="-311.5" font-family="Helvetica,sans-Serif" font-size="10.00">&#45;</text>
<text text-anchor="start" x="65.62" y="-311.5" font-family="Helvetica,sans-Serif" font-size="10.00">int heartbeat_count_</text>
<text text-anchor="start" x="57.12" y="-297" font-family="Helvetica,sans-Serif" font-size="10.00">&#45;</text>
<text text-anchor="start" x="65.62" y="-297" font-family="Helvetica,sans-Serif" font-size="10.00">double heartbeat_phase_</text>
<text text-anchor="start" x="57.12" y="-282.5" font-family="Helvetica,sans-Serif" font-size="10.00">&#45;</text>
<text text-anchor="start" x="65.62" y="-282.5" font-family="Helvetica,sans-Serif" font-size="10.00">bool is_initializing_</text>
<text text-anchor="start" x="57.12" y="-268" font-family="Helvetica,sans-Serif" font-size="10.00">&#45;</text>
<text text-anchor="start" x="65.62" y="-268" font-family="Helvetica,sans-Serif" font-size="10.00">double rotation_phase_</text>
<text text-anchor="start" x="57.12" y="-253.5" font-family="Helvetica,sans-Serif" font-size="10.00">&#45;</text>
<text text-anchor="start" x="65.62" y="-253.5" font-family="Helvetica,sans-Serif" font-size="10.00">double second_phase_</text>
<text text-anchor="start" x="57.12" y="-239" font-family="Helvetica,sans-Serif" font-size="10.00">&#45;</text>
<text text-anchor="start" x="65.62" y="-239" font-family="Helvetica,sans-Serif" font-size="10.00">static constexpr int</text>
<text text-anchor="start" x="65.62" y="-228.5" font-family="Helvetica,sans-Serif" font-size="10.00"> kRequiredHeartbeats</text>
<text text-anchor="start" x="55.62" y="-214" font-family="Helvetica,sans-Serif" font-size="10.00">+</text>
<text text-anchor="start" x="65.62" y="-214" font-family="Helvetica,sans-Serif" font-size="10.00">void Apply(std::vector</text>
<text text-anchor="start" x="65.62" y="-203.5" font-family="Helvetica,sans-Serif" font-size="10.00">&lt; QPointF &gt; &amp;control_points,</text>
<text text-anchor="start" x="65.62" y="-193" font-family="Helvetica,sans-Serif" font-size="10.00"> std::vector&lt; QPointF &gt; &amp;velocity,</text>
<text text-anchor="start" x="65.62" y="-182.5" font-family="Helvetica,sans-Serif" font-size="10.00"> QPointF &amp;blob_center, const BlobConfig</text>
<text text-anchor="start" x="65.62" y="-172" font-family="Helvetica,sans-Serif" font-size="10.00">::BlobParameters &amp;params) override</text>
<text text-anchor="start" x="55.62" y="-157.5" font-family="Helvetica,sans-Serif" font-size="10.00">+</text>
<text text-anchor="start" x="65.62" y="-157.5" font-family="Helvetica,sans-Serif" font-size="10.00">void ApplyForce(const</text>
<text text-anchor="start" x="65.62" y="-147" font-family="Helvetica,sans-Serif" font-size="10.00"> QVector2D &amp;force, std</text>
<text text-anchor="start" x="65.62" y="-136.5" font-family="Helvetica,sans-Serif" font-size="10.00">::vector&lt; QPointF &gt; &amp;velocity,</text>
<text text-anchor="start" x="65.62" y="-126" font-family="Helvetica,sans-Serif" font-size="10.00"> QPointF &amp;blob_center, const</text>
<text text-anchor="start" x="65.62" y="-115.5" font-family="Helvetica,sans-Serif" font-size="10.00"> std::vector&lt; QPointF &gt; &amp;control</text>
<text text-anchor="start" x="65.62" y="-105" font-family="Helvetica,sans-Serif" font-size="10.00">_points, double blob_radius) override</text>
<text text-anchor="start" x="55.62" y="-90.5" font-family="Helvetica,sans-Serif" font-size="10.00">+</text>
<text text-anchor="start" x="65.62" y="-90.5" font-family="Helvetica,sans-Serif" font-size="10.00">void ApplyHeartbeatEffect</text>
<text text-anchor="start" x="65.62" y="-80" font-family="Helvetica,sans-Serif" font-size="10.00">(const std::vector&lt; QPointF</text>
<text text-anchor="start" x="65.62" y="-69.5" font-family="Helvetica,sans-Serif" font-size="10.00"> &gt; &amp;control_points, std::vector</text>
<text text-anchor="start" x="65.62" y="-59" font-family="Helvetica,sans-Serif" font-size="10.00">&lt; QPointF &gt; &amp;velocity, const QPointF</text>
<text text-anchor="start" x="65.62" y="-48.5" font-family="Helvetica,sans-Serif" font-size="10.00"> &amp;blob_center, const BlobConfig::BlobParameters &amp;params)</text>
<text text-anchor="start" x="55.62" y="-34" font-family="Helvetica,sans-Serif" font-size="10.00">+</text>
<text text-anchor="start" x="65.62" y="-34" font-family="Helvetica,sans-Serif" font-size="10.00">IdleState()</text>
<text text-anchor="start" x="55.62" y="-19.5" font-family="Helvetica,sans-Serif" font-size="10.00">+</text>
<text text-anchor="start" x="65.62" y="-19.5" font-family="Helvetica,sans-Serif" font-size="10.00">void ResetInitialization()</text>
<text text-anchor="start" x="55.62" y="-5" font-family="Helvetica,sans-Serif" font-size="10.00">+</text>
<text text-anchor="start" x="65.62" y="-5" font-family="Helvetica,sans-Serif" font-size="10.00">void UpdatePhases()</text>
<polygon fill="#666666" stroke="#666666" points="51.62,-323 51.62,-323 332.12,-323 332.12,-323 51.62,-323"/>
<polygon fill="#666666" stroke="#666666" points="51.62,-225.5 51.62,-225.5 63.62,-225.5 63.62,-225.5 51.62,-225.5"/>
<polygon fill="#666666" stroke="#666666" points="63.62,-225.5 63.62,-225.5 332.12,-225.5 332.12,-225.5 63.62,-225.5"/>
<polygon fill="none" stroke="#666666" points="51.62,0 51.62,-339.5 332.12,-339.5 332.12,0 51.62,0"/>
</a>
</g>
</g>
<!-- Node2 -->
<g id="Node000002" class="node">
<title>Node2</title>
<g id="a_Node000002"><a xlink:href="classBlobState.html" target="_top" xlink:title="Abstract base class defining the interface for different blob animation states.">
<polygon fill="white" stroke="none" points="201.75,-588.5 0,-588.5 0,-386 201.75,-386 201.75,-588.5"/>
<text text-anchor="start" x="79.5" y="-575" font-family="Helvetica,sans-Serif" font-size="10.00">BlobState</text>
<text text-anchor="start" x="99.38" y="-560.5" font-family="Helvetica,sans-Serif" font-size="10.00"> </text>
<text text-anchor="start" x="4" y="-546" font-family="Helvetica,sans-Serif" font-size="10.00">+</text>
<text text-anchor="start" x="14" y="-546" font-family="Helvetica,sans-Serif" font-size="10.00">virtual void Apply</text>
<text text-anchor="start" x="14" y="-535.5" font-family="Helvetica,sans-Serif" font-size="10.00">(std::vector&lt; QPointF</text>
<text text-anchor="start" x="14" y="-525" font-family="Helvetica,sans-Serif" font-size="10.00"> &gt; &amp;control_points, std</text>
<text text-anchor="start" x="14" y="-514.5" font-family="Helvetica,sans-Serif" font-size="10.00">::vector&lt; QPointF &gt; &amp;velocity,</text>
<text text-anchor="start" x="14" y="-504" font-family="Helvetica,sans-Serif" font-size="10.00"> QPointF &amp;blob_center, const</text>
<text text-anchor="start" x="14" y="-493.5" font-family="Helvetica,sans-Serif" font-size="10.00"> BlobConfig::BlobParameters &amp;params)=0</text>
<text text-anchor="start" x="4" y="-479" font-family="Helvetica,sans-Serif" font-size="10.00">+</text>
<text text-anchor="start" x="14" y="-479" font-family="Helvetica,sans-Serif" font-size="10.00">virtual void ApplyForce</text>
<text text-anchor="start" x="14" y="-468.5" font-family="Helvetica,sans-Serif" font-size="10.00">(const QVector2D &amp;force,</text>
<text text-anchor="start" x="14" y="-458" font-family="Helvetica,sans-Serif" font-size="10.00"> std::vector&lt; QPointF &gt;</text>
<text text-anchor="start" x="14" y="-447.5" font-family="Helvetica,sans-Serif" font-size="10.00"> &amp;velocity, QPointF &amp;blob</text>
<text text-anchor="start" x="14" y="-437" font-family="Helvetica,sans-Serif" font-size="10.00">_center, const std::vector</text>
<text text-anchor="start" x="14" y="-426.5" font-family="Helvetica,sans-Serif" font-size="10.00">&lt; QPointF &gt; &amp;control_points,</text>
<text text-anchor="start" x="14" y="-416" font-family="Helvetica,sans-Serif" font-size="10.00"> double blob_radius)=0</text>
<text text-anchor="start" x="4" y="-401.5" font-family="Helvetica,sans-Serif" font-size="10.00">+</text>
<text text-anchor="start" x="14" y="-401.5" font-family="Helvetica,sans-Serif" font-size="10.00">virtual ~BlobState</text>
<text text-anchor="start" x="14" y="-391" font-family="Helvetica,sans-Serif" font-size="10.00">()=default</text>
<polygon fill="#666666" stroke="#666666" points="0,-572 0,-572 201.75,-572 201.75,-572 0,-572"/>
<polygon fill="#666666" stroke="#666666" points="0,-557.5 0,-557.5 201.75,-557.5 201.75,-557.5 0,-557.5"/>
<polygon fill="none" stroke="#666666" points="0,-386 0,-588.5 201.75,-588.5 201.75,-386 0,-386"/>
</a>
</g>
</g>
<!-- Node2&#45;&gt;Node1 -->
<g id="edge1_Node000001_Node000002" class="edge">
<title>Node2&#45;&gt;Node1</title>
<g id="a_edge1_Node000001_Node000002"><a xlink:title=" ">
<path fill="none" stroke="#63b8ff" d="M132.76,-375.7C136.17,-363.89 139.68,-351.7 143.23,-339.41"/>
<polygon fill="none" stroke="#63b8ff" points="129.5,-374.39 130.09,-384.97 136.22,-376.33 129.5,-374.39"/>
</a>
</g>
</g>
<!-- Node3 -->
<g id="Node000003" class="node">
<title>Node3</title>
<g id="a_Node000003"><a xlink:href="structBlobConfig_1_1IdleParameters.html" target="_top" xlink:title="Structure holding parameters specific to the Idle state animation.">
<polygon fill="white" stroke="none" points="348.25,-525.5 219.5,-525.5 219.5,-449 348.25,-449 348.25,-525.5"/>
<text text-anchor="start" x="223.5" y="-512" font-family="Helvetica,sans-Serif" font-size="10.00">BlobConfig::IdleParameters</text>
<text text-anchor="start" x="225.88" y="-497.5" font-family="Helvetica,sans-Serif" font-size="10.00">+</text>
<text text-anchor="start" x="238.25" y="-497.5" font-family="Helvetica,sans-Serif" font-size="10.00">double wave_amplitude</text>
<text text-anchor="start" x="225.88" y="-483" font-family="Helvetica,sans-Serif" font-size="10.00">+</text>
<text text-anchor="start" x="238.25" y="-483" font-family="Helvetica,sans-Serif" font-size="10.00">double wave_frequency</text>
<text text-anchor="start" x="225.88" y="-468.5" font-family="Helvetica,sans-Serif" font-size="10.00">+</text>
<text text-anchor="start" x="238.25" y="-468.5" font-family="Helvetica,sans-Serif" font-size="10.00">double wave_phase</text>
<text text-anchor="start" x="282.38" y="-454" font-family="Helvetica,sans-Serif" font-size="10.00"> </text>
<polygon fill="#666666" stroke="#666666" points="219.5,-509 219.5,-509 348.25,-509 348.25,-509 219.5,-509"/>
<polygon fill="#666666" stroke="#666666" points="219.5,-465.5 219.5,-465.5 236.25,-465.5 236.25,-465.5 219.5,-465.5"/>
<polygon fill="#666666" stroke="#666666" points="236.25,-465.5 236.25,-465.5 348.25,-465.5 348.25,-465.5 236.25,-465.5"/>
<polygon fill="none" stroke="#666666" points="219.5,-449 219.5,-525.5 348.25,-525.5 348.25,-449 219.5,-449"/>
</a>
</g>
</g>
<!-- Node3&#45;&gt;Node1 -->
<g id="edge2_Node000001_Node000003" class="edge">
<title>Node3&#45;&gt;Node1</title>
<g id="a_edge2_Node000001_Node000003"><a xlink:title=" ">
<path fill="none" stroke="#63b8ff" d="M273.05,-449.13C265.7,-423.92 255.38,-388.52 244.55,-351.39"/>
<polygon fill="none" stroke="#63b8ff" points="244.63,-351.67 239.11,-347.03 241.27,-340.15 246.79,-344.79 244.63,-351.67"/>
</a>
</g>
<text text-anchor="middle" x="280.7" y="-358.5" font-family="Helvetica,sans-Serif" font-size="10.00" fill="grey"> &#45;idle_params_</text>
</g>
</g>
</svg>

<g id="navigator" transform="translate(0 0)" fill="#404254">
  <rect fill="#f2f5e9" fill-opacity="0.5" stroke="#606060" stroke-width=".5" x="0" y="0" width="60" height="60"/>
  <use id="zoomplus" xlink:href="#zoomPlus" x="17" y="9" onmousedown="handleZoom(evt,'in')"/>
  <use id="zoomminus" xlink:href="#zoomMin" x="42" y="9" onmousedown="handleZoom(evt,'out')"/>
  <use id="reset" xlink:href="#resetDef" x="30" y="36" onmousedown="handleReset()"/>
   <use id="arrowup" xlink:href="#arrowUp" x="0" y="0" onmousedown="handlePan(0,-1)"/>
  <use id="arrowright" xlink:href="#arrowRight" x="0" y="0" onmousedown="handlePan(1,0)"/>
  <use id="arrowdown" xlink:href="#arrowDown" x="0" y="0" onmousedown="handlePan(0,1)"/>
  <use id="arrowleft" xlink:href="#arrowLeft" x="0" y="0" onmousedown="handlePan(-1,0)"/>
</g>
<svg viewBox="0 0 15 15" width="100%" height="30px" preserveAspectRatio="xMaxYMin meet">
 <g id="arrow_out" transform="scale(0.3 0.3)">
  <a xlink:href="classIdleState__coll__graph_org.svg" target="_base">
   <rect id="button" ry="5" rx="5" y="6" x="6" height="38" width="38"
        fill="#f2f5e9" fill-opacity="0.5" stroke="#606060" stroke-width="1.0"/>
   <path id="arrow"
     d="M 11.500037,31.436501 C 11.940474,20.09759 22.043105,11.32322 32.158766,21.979434 L 37.068811,17.246167 C 37.068811,17.246167 37.088388,32 37.088388,32 L 22.160133,31.978069 C 22.160133,31.978069 26.997745,27.140456 26.997745,27.140456 C 18.528582,18.264221 13.291696,25.230495 11.500037,31.436501 z"
     style="fill:#404040;"/>
  </a>
 </g>
</svg>

<style type='text/css'>
<![CDATA[
[data-mouse-over-selected='false'] { opacity: 0.7; }
[data-mouse-over-selected='true']  { opacity: 1.0; }
]]>
</style>
<script type="application/ecmascript"><![CDATA[
document.addEventListener('DOMContentLoaded', (event) => {
  highlightEdges();
  highlightAdjacentNodes();
});
]]></script>
</svg>
