<?xml version="1.0" encoding="UTF-8" standalone="no"?>
<!DOCTYPE svg PUBLIC "-//W3C//DTD SVG 1.1//EN"
 "http://www.w3.org/Graphics/SVG/1.1/DTD/svg11.dtd">
<!-- Generated by graphviz version 12.2.1 (0)
 -->
<!-- Title: CommunicationStream::HandleMessageHidden Pages: 1 -->
<!--zoomable 187 -->

<svg id="main" version="1.1" xmlns="http://www.w3.org/2000/svg" xmlns:xlink="http://www.w3.org/1999/xlink" xml:space="preserve" onload="init(evt)">

<style type="text/css"><![CDATA[
.node, .edge {opacity: 0.7;}
.node.selected, .edge.selected {opacity: 1;}
.edge:hover path { stroke: red; }
.edge:hover polygon { stroke: red; fill: red; }
]]></style>

<defs>
  <circle id="rim" cx="0" cy="0" r="7"/>
  <circle id="rim2" cx="0" cy="0" r="3.5"/>
  <g id="zoomPlus">
    <use xlink:href="#rim" fill="#404040"><set attributeName="fill" to="#808080" begin="zoomplus.mouseover" end="zoomplus.mouseout"/></use>
    <path d="M-4,0h8M0,-4v8" fill="none" stroke="white" stroke-width="1.5" pointer-events="none"/>
  </g>
  <g id="zoomMin">
    <use xlink:href="#rim" fill="#404040"><set attributeName="fill" to="#808080" begin="zoomminus.mouseover" end="zoomminus.mouseout"/></use>
    <path d="M-4,0h8" fill="none" stroke="white" stroke-width="1.5" pointer-events="none"/>
  </g>
  <g id="arrowUp" transform="translate(30 24)">
    <use xlink:href="#rim"/>
    <path pointer-events="none" fill="none" stroke="white" stroke-width="1.5" d="M0,-3.0v7 M-2.5,-0.5L0,-3.0L2.5,-0.5"/>
  </g>
  <g id="arrowRight" transform="rotate(90) translate(36 -43)">
    <use xlink:href="#rim"/>
    <path pointer-events="none" fill="none" stroke="white" stroke-width="1.5" d="M0,-3.0v7 M-2.5,-0.5L0,-3.0L2.5,-0.5"/>
  </g>
  <g id="arrowDown" transform="rotate(180) translate(-30 -48)">
    <use xlink:href="#rim"/>
    <path pointer-events="none" fill="none" stroke="white" stroke-width="1.5" d="M0,-3.0v7 M-2.5,-0.5L0,-3.0L2.5,-0.5"/>
  </g>
  <g id="arrowLeft" transform="rotate(270) translate(-36 17)">
    <use xlink:href="#rim"/>
    <path pointer-events="none" fill="none" stroke="white" stroke-width="1.5" d="M0,-3.0v7 M-2.5,-0.5L0,-3.0L2.5,-0.5"/>
  </g>
  <g id="resetDef">
    <use xlink:href="#rim2" fill="#404040"><set attributeName="fill" to="#808080" begin="reset.mouseover" end="reset.mouseout"/></use>
  </g>
</defs>
<script type="application/ecmascript">
var viewWidth = 654;
var viewHeight = 187;
var sectionId = 'dynsection-11';
</script>
<script type="application/ecmascript" xlink:href="svg.min.js"/>
<svg id="graph" class="graph">
<g id="viewport">
<title>CommunicationStream::HandleMessageHidden</title>
<!-- Node1 -->
<g id="Node000001" class="node">
<title>Node1</title>
<g id="a_Node000001"><a xlink:title="Slot triggered when a StreamMessage widget finishes its hiding animation (or is hidden)....">
<polygon fill="#999999" stroke="#666666" points="646,-83 522.75,-83 522.75,-54 646,-54 646,-83"/>
<text text-anchor="start" x="530.75" y="-69.5" font-family="Helvetica,sans-Serif" font-size="10.00">CommunicationStream</text>
<text text-anchor="middle" x="584.38" y="-59" font-family="Helvetica,sans-Serif" font-size="10.00">::HandleMessageHidden</text>
</a>
</g>
</g>
<!-- Node2 -->
<g id="Node000002" class="node">
<title>Node2</title>
<g id="a_Node000002"><a xlink:href="classCommunicationStream.html#aa91c3c46034a10ca7393998082e26a25" target="_top" xlink:title="Connects the necessary signals (navigation, read, hidden) from a StreamMessage widget to this Communi...">
<polygon fill="white" stroke="#666666" points="486.75,-105 341.75,-105 341.75,-76 486.75,-76 486.75,-105"/>
<text text-anchor="start" x="349.75" y="-91.5" font-family="Helvetica,sans-Serif" font-size="10.00">CommunicationStream</text>
<text text-anchor="middle" x="414.25" y="-81" font-family="Helvetica,sans-Serif" font-size="10.00">::ConnectSignalsForMessage</text>
</a>
</g>
</g>
<!-- Node1&#45;&gt;Node2 -->
<g id="edge1_Node000001_Node000002" class="edge">
<title>Node1&#45;&gt;Node2</title>
<g id="a_edge1_Node000001_Node000002"><a xlink:title=" ">
<path fill="none" stroke="#63b8ff" d="M511.4,-77.92C503.32,-78.98 495.09,-80.05 487.02,-81.11"/>
<polygon fill="#63b8ff" stroke="#63b8ff" points="511.72,-81.41 521.18,-76.64 510.81,-74.47 511.72,-81.41"/>
</a>
</g>
</g>
<!-- Node3 -->
<g id="Node000003" class="node">
<title>Node3</title>
<g id="a_Node000003"><a xlink:href="classCommunicationStream.html#ae3b9b361caa5123daac847c60475d605" target="_top" xlink:title="Adds a new standard message to the stream. Initiates the receiving animation. The message is displaye...">
<polygon fill="white" stroke="#666666" points="132.62,-81 16.88,-81 16.88,-52 132.62,-52 132.62,-81"/>
<text text-anchor="start" x="24.88" y="-67.5" font-family="Helvetica,sans-Serif" font-size="10.00">CommunicationStream</text>
<text text-anchor="middle" x="74.75" y="-57" font-family="Helvetica,sans-Serif" font-size="10.00">::AddMessage</text>
</a>
</g>
</g>
<!-- Node2&#45;&gt;Node3 -->
<g id="edge2_Node000002_Node000003" class="edge">
<title>Node2&#45;&gt;Node3</title>
<g id="a_edge2_Node000002_Node000003"><a xlink:title=" ">
<path fill="none" stroke="#63b8ff" d="M330.08,-84.59C268.84,-80.23 187.17,-74.42 133.09,-70.58"/>
<polygon fill="#63b8ff" stroke="#63b8ff" points="329.53,-88.06 339.75,-85.27 330.03,-81.07 329.53,-88.06"/>
</a>
</g>
</g>
<!-- Node4 -->
<g id="Node000004" class="node">
<title>Node4</title>
<g id="a_Node000004"><a xlink:href="classCommunicationStream.html#a10a56a4dc3eeeaf4865d0f63f077e3bf" target="_top" xlink:title="Adds a new message with attachment content to the stream. Initiates the receiving animation....">
<polygon fill="white" stroke="#666666" points="149.5,-179 0,-179 0,-150 149.5,-150 149.5,-179"/>
<text text-anchor="start" x="8" y="-165.5" font-family="Helvetica,sans-Serif" font-size="10.00">CommunicationStream</text>
<text text-anchor="middle" x="74.75" y="-155" font-family="Helvetica,sans-Serif" font-size="10.00">::AddMessageWithAttachment</text>
</a>
</g>
</g>
<!-- Node2&#45;&gt;Node4 -->
<g id="edge3_Node000002_Node000004" class="edge">
<title>Node2&#45;&gt;Node4</title>
<g id="a_edge3_Node000002_Node000004"><a xlink:title=" ">
<path fill="none" stroke="#63b8ff" d="M344.49,-108.25C331.64,-111.43 318.3,-114.64 305.75,-117.5 253.89,-129.31 195.14,-141.29 149.99,-150.2"/>
<polygon fill="#63b8ff" stroke="#63b8ff" points="345.3,-111.66 354.15,-105.84 343.6,-104.87 345.3,-111.66"/>
</a>
</g>
</g>
<!-- Node5 -->
<g id="Node000005" class="node">
<title>Node5</title>
<g id="a_Node000005"><a xlink:href="classCommunicationStream.html#aba44a533978e83748764534a8682c56f" target="_top" xlink:title="Displays the message at the specified index in the messages_ list. Hides the previously displayed mes...">
<polygon fill="white" stroke="#666666" points="305.75,-62 185.5,-62 185.5,-33 305.75,-33 305.75,-62"/>
<text text-anchor="start" x="193.5" y="-48.5" font-family="Helvetica,sans-Serif" font-size="10.00">CommunicationStream</text>
<text text-anchor="middle" x="245.62" y="-38" font-family="Helvetica,sans-Serif" font-size="10.00">::ShowMessageAtIndex</text>
</a>
</g>
</g>
<!-- Node2&#45;&gt;Node5 -->
<g id="edge4_Node000002_Node000005" class="edge">
<title>Node2&#45;&gt;Node5</title>
<g id="a_edge4_Node000002_Node000005"><a xlink:title=" ">
<path fill="none" stroke="#63b8ff" d="M344.47,-72.75C331.22,-69.33 317.47,-65.78 304.61,-62.47"/>
<polygon fill="#63b8ff" stroke="#63b8ff" points="343.42,-76.09 353.97,-75.2 345.17,-69.32 343.42,-76.09"/>
</a>
</g>
</g>
<!-- Node5&#45;&gt;Node1 -->
<g id="edge7_Node000005_Node000001" class="edge">
<title>Node5&#45;&gt;Node1</title>
<g id="a_edge7_Node000005_Node000001"><a xlink:title=" ">
<path fill="none" stroke="#63b8ff" d="M317.43,-51.92C378.14,-55.7 464.7,-61.1 522.39,-64.7"/>
<polygon fill="#63b8ff" stroke="#63b8ff" points="317.73,-48.43 307.53,-51.3 317.3,-55.41 317.73,-48.43"/>
</a>
</g>
</g>
<!-- Node5&#45;&gt;Node3 -->
<g id="edge5_Node000005_Node000003" class="edge">
<title>Node5&#45;&gt;Node3</title>
<g id="a_edge5_Node000005_Node000003"><a xlink:title=" ">
<path fill="none" stroke="#63b8ff" d="M173.82,-55.47C160.22,-57 146.15,-58.58 133.05,-60.05"/>
<polygon fill="#63b8ff" stroke="#63b8ff" points="174.04,-58.96 183.58,-54.37 173.25,-52.01 174.04,-58.96"/>
</a>
</g>
</g>
<!-- Node5&#45;&gt;Node4 -->
<g id="edge6_Node000005_Node000004" class="edge">
<title>Node5&#45;&gt;Node4</title>
<g id="a_edge6_Node000005_Node000004"><a xlink:title=" ">
<path fill="none" stroke="#63b8ff" d="M226.21,-70.83C208.56,-91.76 180.14,-121.95 149.5,-140.5 143.86,-143.92 137.67,-146.9 131.36,-149.5"/>
<polygon fill="#63b8ff" stroke="#63b8ff" points="228.69,-73.32 232.35,-63.38 223.28,-68.87 228.69,-73.32"/>
</a>
</g>
</g>
<!-- Node6 -->
<g id="Node000006" class="node">
<title>Node6</title>
<g id="a_Node000006"><a xlink:href="classCommunicationStream.html#a600acedc2f4f586b28c147077f768438" target="_top" xlink:title="Shows the next message in the list, if available.">
<polygon fill="#fff0f0" stroke="red" points="132.62,-131 16.88,-131 16.88,-102 132.62,-102 132.62,-131"/>
<text text-anchor="start" x="24.88" y="-117.5" font-family="Helvetica,sans-Serif" font-size="10.00">CommunicationStream</text>
<text text-anchor="middle" x="74.75" y="-107" font-family="Helvetica,sans-Serif" font-size="10.00">::ShowNextMessage</text>
</a>
</g>
</g>
<!-- Node5&#45;&gt;Node6 -->
<g id="edge8_Node000005_Node000006" class="edge">
<title>Node5&#45;&gt;Node6</title>
<g id="a_edge8_Node000005_Node000006"><a xlink:title=" ">
<path fill="none" stroke="#63b8ff" d="M203.2,-67.16C186.64,-74.77 167.3,-83.36 149.5,-90.5 140.05,-94.29 129.81,-98.1 120.05,-101.58"/>
<polygon fill="#63b8ff" stroke="#63b8ff" points="204.66,-70.33 212.27,-62.95 201.72,-63.98 204.66,-70.33"/>
</a>
</g>
</g>
<!-- Node8 -->
<g id="Node000008" class="node">
<title>Node8</title>
<g id="a_Node000008"><a xlink:href="classCommunicationStream.html#a918c54f07703dce3733f2aec5b09503d" target="_top" xlink:title="Shows the previous message in the list, if available.">
<polygon fill="#fff0f0" stroke="red" points="137.12,-29 12.38,-29 12.38,0 137.12,0 137.12,-29"/>
<text text-anchor="start" x="20.38" y="-15.5" font-family="Helvetica,sans-Serif" font-size="10.00">CommunicationStream</text>
<text text-anchor="middle" x="74.75" y="-5" font-family="Helvetica,sans-Serif" font-size="10.00">::ShowPreviousMessage</text>
</a>
</g>
</g>
<!-- Node5&#45;&gt;Node8 -->
<g id="edge10_Node000005_Node000008" class="edge">
<title>Node5&#45;&gt;Node8</title>
<g id="a_edge10_Node000005_Node000008"><a xlink:title=" ">
<path fill="none" stroke="#63b8ff" d="M174.1,-33.72C161.98,-31.35 149.48,-28.91 137.61,-26.59"/>
<polygon fill="#63b8ff" stroke="#63b8ff" points="173.11,-37.09 183.6,-35.58 174.46,-30.22 173.11,-37.09"/>
</a>
</g>
</g>
<!-- Node6&#45;&gt;Node2 -->
<g id="edge9_Node000006_Node000002" class="edge">
<title>Node6&#45;&gt;Node2</title>
<g id="a_edge9_Node000006_Node000002"><a xlink:title=" ">
<path fill="none" stroke="#63b8ff" d="M144.21,-111.23C201.5,-106.81 283,-100.53 341.26,-96.05"/>
<polygon fill="#63b8ff" stroke="#63b8ff" points="144.3,-107.71 134.6,-111.97 144.84,-114.69 144.3,-107.71"/>
</a>
</g>
</g>
<!-- Node8&#45;&gt;Node2 -->
<g id="edge11_Node000008_Node000002" class="edge">
<title>Node8&#45;&gt;Node2</title>
<g id="a_edge11_Node000008_Node000002"><a xlink:title=" ">
<path fill="none" stroke="#63b8ff" d="M148.61,-7.93C194.66,-6.06 254.87,-7.86 305.75,-23.5 340.85,-34.29 375.91,-59.52 396.03,-75.75"/>
<polygon fill="#63b8ff" stroke="#63b8ff" points="148.56,-4.43 138.74,-8.41 148.89,-11.42 148.56,-4.43"/>
</a>
</g>
</g>
</g>
</svg>

<g id="navigator" transform="translate(0 0)" fill="#404254">
  <rect fill="#f2f5e9" fill-opacity="0.5" stroke="#606060" stroke-width=".5" x="0" y="0" width="60" height="60"/>
  <use id="zoomplus" xlink:href="#zoomPlus" x="17" y="9" onmousedown="handleZoom(evt,'in')"/>
  <use id="zoomminus" xlink:href="#zoomMin" x="42" y="9" onmousedown="handleZoom(evt,'out')"/>
  <use id="reset" xlink:href="#resetDef" x="30" y="36" onmousedown="handleReset()"/>
   <use id="arrowup" xlink:href="#arrowUp" x="0" y="0" onmousedown="handlePan(0,-1)"/>
  <use id="arrowright" xlink:href="#arrowRight" x="0" y="0" onmousedown="handlePan(1,0)"/>
  <use id="arrowdown" xlink:href="#arrowDown" x="0" y="0" onmousedown="handlePan(0,1)"/>
  <use id="arrowleft" xlink:href="#arrowLeft" x="0" y="0" onmousedown="handlePan(-1,0)"/>
</g>
<svg viewBox="0 0 15 15" width="100%" height="30px" preserveAspectRatio="xMaxYMin meet">
 <g id="arrow_out" transform="scale(0.3 0.3)">
  <a xlink:href="classCommunicationStream_a2283a11febe30f9d2d1887c2c20e7ea3_icgraph_org.svg" target="_base">
   <rect id="button" ry="5" rx="5" y="6" x="6" height="38" width="38"
        fill="#f2f5e9" fill-opacity="0.5" stroke="#606060" stroke-width="1.0"/>
   <path id="arrow"
     d="M 11.500037,31.436501 C 11.940474,20.09759 22.043105,11.32322 32.158766,21.979434 L 37.068811,17.246167 C 37.068811,17.246167 37.088388,32 37.088388,32 L 22.160133,31.978069 C 22.160133,31.978069 26.997745,27.140456 26.997745,27.140456 C 18.528582,18.264221 13.291696,25.230495 11.500037,31.436501 z"
     style="fill:#404040;"/>
  </a>
 </g>
</svg>

<style type='text/css'>
<![CDATA[
[data-mouse-over-selected='false'] { opacity: 0.7; }
[data-mouse-over-selected='true']  { opacity: 1.0; }
]]>
</style>
<script type="application/ecmascript"><![CDATA[
document.addEventListener('DOMContentLoaded', (event) => {
  highlightEdges();
  highlightAdjacentNodes();
});
]]></script>
</svg>
