<?xml version="1.0" encoding="UTF-8" standalone="no"?>
<!DOCTYPE svg PUBLIC "-//W3C//DTD SVG 1.1//EN"
 "http://www.w3.org/Graphics/SVG/1.1/DTD/svg11.dtd">
<!-- Generated by graphviz version 12.2.1 (0)
 -->
<!-- Title: BlobAnimation::SwitchToState Pages: 1 -->
<svg width="728pt" height="218pt"
 viewBox="0.00 0.00 727.50 217.76" xmlns="http://www.w3.org/2000/svg" xmlns:xlink="http://www.w3.org/1999/xlink">
<g id="graph0" class="graph" transform="scale(1 1) rotate(0) translate(4 213.76)">
<title>BlobAnimation::SwitchToState</title>
<!-- Node1 -->
<g id="Node000001" class="node">
<title>Node1</title>
<g id="a_Node000001"><a xlink:title="Switches the blob&#39;s current animation state (Idle, Moving, Resizing). Updates the current_blob_state_...">
<polygon fill="#999999" stroke="#666666" points="719.5,-126.5 570.75,-126.5 570.75,-108 719.5,-108 719.5,-126.5"/>
<text text-anchor="middle" x="645.12" y="-113" font-family="Helvetica,sans-Serif" font-size="10.00">BlobAnimation::SwitchToState</text>
</a>
</g>
</g>
<!-- Node2 -->
<g id="Node000002" class="node">
<title>Node2</title>
<g id="a_Node000002"><a xlink:href="classBlobAnimation.html#a376419bc52ad64329b0ce5e2a2579043" target="_top" xlink:title="Constructs the BlobAnimation widget. Initializes parameters, states, event handlers,...">
<polygon fill="white" stroke="#666666" points="148,-176.5 0,-176.5 0,-158 148,-158 148,-176.5"/>
<text text-anchor="middle" x="74" y="-163" font-family="Helvetica,sans-Serif" font-size="10.00">BlobAnimation::BlobAnimation</text>
</a>
</g>
</g>
<!-- Node1&#45;&gt;Node2 -->
<g id="edge1_Node000001_Node000002" class="edge">
<title>Node1&#45;&gt;Node2</title>
<g id="a_edge1_Node000001_Node000002"><a xlink:title=" ">
<path fill="none" stroke="#63b8ff" d="M625.38,-134.35C604.87,-151.8 570.17,-177.76 534.75,-188.25 383.25,-233.11 191.47,-196.13 112.05,-176.98"/>
<polygon fill="#63b8ff" stroke="#63b8ff" points="627.65,-137.02 632.86,-127.8 623.03,-131.75 627.65,-137.02"/>
</a>
</g>
</g>
<!-- Node3 -->
<g id="Node000003" class="node">
<title>Node3</title>
<g id="a_Node000003"><a xlink:href="classBlobAnimation.html#aa14ab827c77e7ca4e2869e5141ce27ea" target="_top" xlink:title="Slot connected to state_reset_timer_. Called after a period of inactivity in Moving or Resizing state...">
<polygon fill="white" stroke="#666666" points="532.5,-178.75 388.25,-178.75 388.25,-149.75 532.5,-149.75 532.5,-178.75"/>
<text text-anchor="start" x="396.25" y="-165.25" font-family="Helvetica,sans-Serif" font-size="10.00">BlobAnimation::onStateReset</text>
<text text-anchor="middle" x="460.38" y="-154.75" font-family="Helvetica,sans-Serif" font-size="10.00">Timeout</text>
</a>
</g>
</g>
<!-- Node1&#45;&gt;Node3 -->
<g id="edge2_Node000001_Node000003" class="edge">
<title>Node1&#45;&gt;Node3</title>
<g id="a_edge2_Node000001_Node000003"><a xlink:title=" ">
<path fill="none" stroke="#63b8ff" d="M595.22,-129.83C571.87,-135.83 543.77,-143.06 519.36,-149.34"/>
<polygon fill="#63b8ff" stroke="#63b8ff" points="595.98,-133.25 604.79,-127.37 594.24,-126.47 595.98,-133.25"/>
</a>
</g>
</g>
<!-- Node4 -->
<g id="Node000004" class="node">
<title>Node4</title>
<g id="a_Node000004"><a xlink:href="classBlobAnimation.html#ac42c30bf37d875ab1424d3ff382afcbe" target="_top" xlink:title="Pauses all event tracking mechanisms (window move/resize). Stops timers, clears movement buffers,...">
<polygon fill="white" stroke="#666666" points="534.75,-131.75 386,-131.75 386,-102.75 534.75,-102.75 534.75,-131.75"/>
<text text-anchor="start" x="394" y="-118.25" font-family="Helvetica,sans-Serif" font-size="10.00">BlobAnimation::PauseAllEvent</text>
<text text-anchor="middle" x="460.38" y="-107.75" font-family="Helvetica,sans-Serif" font-size="10.00">Tracking</text>
</a>
</g>
</g>
<!-- Node1&#45;&gt;Node4 -->
<g id="edge4_Node000001_Node000004" class="edge">
<title>Node1&#45;&gt;Node4</title>
<g id="a_edge4_Node000001_Node000004"><a xlink:title=" ">
<path fill="none" stroke="#63b8ff" d="M558.81,-117.25C550.91,-117.25 542.94,-117.25 535.16,-117.25"/>
<polygon fill="#63b8ff" stroke="#63b8ff" points="558.81,-120.75 568.81,-117.25 558.81,-113.75 558.81,-120.75"/>
</a>
</g>
</g>
<!-- Node6 -->
<g id="Node000006" class="node">
<title>Node6</title>
<g id="a_Node000006"><a xlink:href="classBlobAnimation.html#a883189070c4bbe6054d084c4d4184c0a" target="_top" xlink:title="Resets the blob&#39;s position to the center of the widget and regenerates its shape. Clears velocities a...">
<polygon fill="white" stroke="#666666" points="525.38,-84.75 395.38,-84.75 395.38,-55.75 525.38,-55.75 525.38,-84.75"/>
<text text-anchor="start" x="403.38" y="-71.25" font-family="Helvetica,sans-Serif" font-size="10.00">BlobAnimation::ResetBlob</text>
<text text-anchor="middle" x="460.38" y="-60.75" font-family="Helvetica,sans-Serif" font-size="10.00">ToCenter</text>
</a>
</g>
</g>
<!-- Node1&#45;&gt;Node6 -->
<g id="edge6_Node000001_Node000006" class="edge">
<title>Node1&#45;&gt;Node6</title>
<g id="a_edge6_Node000001_Node000006"><a xlink:title=" ">
<path fill="none" stroke="#63b8ff" d="M595.22,-104.67C571.87,-98.67 543.77,-91.44 519.36,-85.16"/>
<polygon fill="#63b8ff" stroke="#63b8ff" points="594.24,-108.03 604.79,-107.13 595.98,-101.25 594.24,-108.03"/>
</a>
</g>
</g>
<!-- Node9 -->
<g id="Node000009" class="node">
<title>Node9</title>
<g id="a_Node000009"><a xlink:href="classBlobAnimation.html#aea443f68ce3f9a932a56a96e44b367d6" target="_top" xlink:title="Resumes all event tracking mechanisms after being paused. Restarts timers, enables the event handler,...">
<polygon fill="white" stroke="#666666" points="526.5,-31.75 394.25,-31.75 394.25,-2.75 526.5,-2.75 526.5,-31.75"/>
<text text-anchor="start" x="402.25" y="-18.25" font-family="Helvetica,sans-Serif" font-size="10.00">BlobAnimation::ResumeAll</text>
<text text-anchor="middle" x="460.38" y="-7.75" font-family="Helvetica,sans-Serif" font-size="10.00">EventTracking</text>
</a>
</g>
</g>
<!-- Node1&#45;&gt;Node9 -->
<g id="edge10_Node000001_Node000009" class="edge">
<title>Node1&#45;&gt;Node9</title>
<g id="a_edge10_Node000001_Node000009"><a xlink:title=" ">
<path fill="none" stroke="#63b8ff" d="M621.49,-101.04C599.86,-85.97 566.02,-63.48 534.75,-47.25 524.24,-41.8 512.52,-36.62 501.57,-32.16"/>
<polygon fill="#63b8ff" stroke="#63b8ff" points="619.36,-103.82 629.55,-106.71 623.39,-98.1 619.36,-103.82"/>
</a>
</g>
</g>
<!-- Node3&#45;&gt;Node2 -->
<g id="edge3_Node000003_Node000002" class="edge">
<title>Node3&#45;&gt;Node2</title>
<g id="a_edge3_Node000003_Node000002"><a xlink:title=" ">
<path fill="none" stroke="#63b8ff" d="M376.48,-164.9C308.59,-165.43 213.44,-166.17 148.3,-166.68"/>
<polygon fill="#63b8ff" stroke="#63b8ff" points="376.49,-168.4 386.46,-164.82 376.44,-161.4 376.49,-168.4"/>
</a>
</g>
</g>
<!-- Node5 -->
<g id="Node000005" class="node">
<title>Node5</title>
<g id="a_Node000005"><a xlink:href="classBlobAnimation.html#a390f9dabfe7b7ceac870b19ea4dc1038" target="_top" xlink:title="Hides the animation widget and pauses event tracking.">
<polygon fill="white" stroke="#666666" points="340.25,-139.5 193.75,-139.5 193.75,-121 340.25,-121 340.25,-139.5"/>
<text text-anchor="middle" x="267" y="-126" font-family="Helvetica,sans-Serif" font-size="10.00">BlobAnimation::hideAnimation</text>
</a>
</g>
</g>
<!-- Node4&#45;&gt;Node5 -->
<g id="edge5_Node000004_Node000005" class="edge">
<title>Node4&#45;&gt;Node5</title>
<g id="a_edge5_Node000004_Node000005"><a xlink:title=" ">
<path fill="none" stroke="#63b8ff" d="M374.49,-123.02C363.23,-123.78 351.76,-124.56 340.73,-125.31"/>
<polygon fill="#63b8ff" stroke="#63b8ff" points="374.41,-126.53 384.15,-122.36 373.93,-119.55 374.41,-126.53"/>
</a>
</g>
</g>
<!-- Node7 -->
<g id="Node000007" class="node">
<title>Node7</title>
<g id="a_Node000007"><a xlink:href="classBlobAnimation.html#a36a2a04ace71e1fefc7c1c0cfd1f9e18" target="_top" xlink:title="Slot connected to resize_debounce_timer_. Called after a short delay following resize events....">
<polygon fill="white" stroke="#666666" points="339.5,-102.75 194.5,-102.75 194.5,-73.75 339.5,-73.75 339.5,-102.75"/>
<text text-anchor="start" x="202.5" y="-89.25" font-family="Helvetica,sans-Serif" font-size="10.00">BlobAnimation::HandleResize</text>
<text text-anchor="middle" x="267" y="-78.75" font-family="Helvetica,sans-Serif" font-size="10.00">Timeout</text>
</a>
</g>
</g>
<!-- Node6&#45;&gt;Node7 -->
<g id="edge7_Node000006_Node000007" class="edge">
<title>Node6&#45;&gt;Node7</title>
<g id="a_edge7_Node000006_Node000007"><a xlink:title=" ">
<path fill="none" stroke="#63b8ff" d="M383.73,-77.37C369.32,-78.72 354.28,-80.13 340,-81.48"/>
<polygon fill="#63b8ff" stroke="#63b8ff" points="383.98,-80.86 393.61,-76.44 383.33,-73.89 383.98,-80.86"/>
</a>
</g>
</g>
<!-- Node8 -->
<g id="Node000008" class="node">
<title>Node8</title>
<g id="a_Node000008"><a xlink:href="classBlobAnimation.html#a2221a2cb550dcf7497bf8911cef6c209" target="_top" xlink:title="Resets the entire blob visualization to its initial state. Resets blob position, shape,...">
<polygon fill="white" stroke="#666666" points="350,-55.5 184,-55.5 184,-37 350,-37 350,-55.5"/>
<text text-anchor="middle" x="267" y="-42" font-family="Helvetica,sans-Serif" font-size="10.00">BlobAnimation::ResetVisualization</text>
</a>
</g>
</g>
<!-- Node6&#45;&gt;Node8 -->
<g id="edge9_Node000006_Node000008" class="edge">
<title>Node6&#45;&gt;Node8</title>
<g id="a_edge9_Node000006_Node000008"><a xlink:title=" ">
<path fill="none" stroke="#63b8ff" d="M383.78,-60.77C371.27,-59.2 358.27,-57.57 345.7,-55.99"/>
<polygon fill="#63b8ff" stroke="#63b8ff" points="383.26,-64.23 393.62,-62 384.13,-57.29 383.26,-64.23"/>
</a>
</g>
</g>
<!-- Node7&#45;&gt;Node2 -->
<g id="edge8_Node000007_Node000002" class="edge">
<title>Node7&#45;&gt;Node2</title>
<g id="a_edge8_Node000007_Node000002"><a xlink:title=" ">
<path fill="none" stroke="#63b8ff" d="M199.25,-106.67C194.05,-108.44 188.92,-110.31 184,-112.25 150.09,-125.64 112.54,-145.86 91.55,-157.7"/>
<polygon fill="#63b8ff" stroke="#63b8ff" points="200.11,-110.07 208.52,-103.64 197.93,-103.42 200.11,-110.07"/>
</a>
</g>
</g>
<!-- Node10 -->
<g id="Node000010" class="node">
<title>Node10</title>
<g id="a_Node000010"><a xlink:href="classBlobAnimation.html#a6dd0c09acbfa1be7967d6d7114719fbf" target="_top" xlink:title="Makes the animation widget visible and resumes event tracking.">
<polygon fill="white" stroke="#666666" points="342.88,-18.5 191.12,-18.5 191.12,0 342.88,0 342.88,-18.5"/>
<text text-anchor="middle" x="267" y="-5" font-family="Helvetica,sans-Serif" font-size="10.00">BlobAnimation::showAnimation</text>
</a>
</g>
</g>
<!-- Node9&#45;&gt;Node10 -->
<g id="edge11_Node000009_Node000010" class="edge">
<title>Node9&#45;&gt;Node10</title>
<g id="a_edge11_Node000009_Node000010"><a xlink:title=" ">
<path fill="none" stroke="#63b8ff" d="M382.5,-14.04C369.5,-13.49 356.01,-12.93 343.05,-12.39"/>
<polygon fill="#63b8ff" stroke="#63b8ff" points="382.13,-17.52 392.27,-14.44 382.43,-10.53 382.13,-17.52"/>
</a>
</g>
</g>
</g>
</svg>
