<?xml version="1.0" encoding="UTF-8" standalone="no"?>
<!DOCTYPE svg PUBLIC "-//W3C//DTD SVG 1.1//EN"
 "http://www.w3.org/Graphics/SVG/1.1/DTD/svg11.dtd">
<!-- Generated by graphviz version 12.2.1 (0)
 -->
<!-- Title: FloatingEnergySphereWidget::initializeGL Pages: 1 -->
<!--zoomable 201 -->

<svg id="main" version="1.1" xmlns="http://www.w3.org/2000/svg" xmlns:xlink="http://www.w3.org/1999/xlink" xml:space="preserve" onload="init(evt)">

<style type="text/css"><![CDATA[
.node, .edge {opacity: 0.7;}
.node.selected, .edge.selected {opacity: 1;}
.edge:hover path { stroke: red; }
.edge:hover polygon { stroke: red; fill: red; }
]]></style>

<defs>
  <circle id="rim" cx="0" cy="0" r="7"/>
  <circle id="rim2" cx="0" cy="0" r="3.5"/>
  <g id="zoomPlus">
    <use xlink:href="#rim" fill="#404040"><set attributeName="fill" to="#808080" begin="zoomplus.mouseover" end="zoomplus.mouseout"/></use>
    <path d="M-4,0h8M0,-4v8" fill="none" stroke="white" stroke-width="1.5" pointer-events="none"/>
  </g>
  <g id="zoomMin">
    <use xlink:href="#rim" fill="#404040"><set attributeName="fill" to="#808080" begin="zoomminus.mouseover" end="zoomminus.mouseout"/></use>
    <path d="M-4,0h8" fill="none" stroke="white" stroke-width="1.5" pointer-events="none"/>
  </g>
  <g id="arrowUp" transform="translate(30 24)">
    <use xlink:href="#rim"/>
    <path pointer-events="none" fill="none" stroke="white" stroke-width="1.5" d="M0,-3.0v7 M-2.5,-0.5L0,-3.0L2.5,-0.5"/>
  </g>
  <g id="arrowRight" transform="rotate(90) translate(36 -43)">
    <use xlink:href="#rim"/>
    <path pointer-events="none" fill="none" stroke="white" stroke-width="1.5" d="M0,-3.0v7 M-2.5,-0.5L0,-3.0L2.5,-0.5"/>
  </g>
  <g id="arrowDown" transform="rotate(180) translate(-30 -48)">
    <use xlink:href="#rim"/>
    <path pointer-events="none" fill="none" stroke="white" stroke-width="1.5" d="M0,-3.0v7 M-2.5,-0.5L0,-3.0L2.5,-0.5"/>
  </g>
  <g id="arrowLeft" transform="rotate(270) translate(-36 17)">
    <use xlink:href="#rim"/>
    <path pointer-events="none" fill="none" stroke="white" stroke-width="1.5" d="M0,-3.0v7 M-2.5,-0.5L0,-3.0L2.5,-0.5"/>
  </g>
  <g id="resetDef">
    <use xlink:href="#rim2" fill="#404040"><set attributeName="fill" to="#808080" begin="reset.mouseover" end="reset.mouseout"/></use>
  </g>
</defs>
<script type="application/ecmascript">
var viewWidth = 687;
var viewHeight = 201;
var sectionId = 'dynsection-9';
</script>
<script type="application/ecmascript" xlink:href="svg.min.js"/>
<svg id="graph" class="graph">
<g id="viewport">
<title>FloatingEnergySphereWidget::initializeGL</title>
<!-- Node1 -->
<g id="Node000001" class="node">
<title>Node1</title>
<g id="a_Node000001"><a xlink:title="Initializes OpenGL resources (functions, shaders, geometry, VAO/VBO) and audio setup....">
<polygon fill="#999999" stroke="#666666" points="142.75,-76 0,-76 0,-47 142.75,-47 142.75,-76"/>
<text text-anchor="start" x="8" y="-62.5" font-family="Helvetica,sans-Serif" font-size="10.00">FloatingEnergySphereWidget</text>
<text text-anchor="middle" x="71.38" y="-52" font-family="Helvetica,sans-Serif" font-size="10.00">::initializeGL</text>
</a>
</g>
</g>
<!-- Node2 -->
<g id="Node000002" class="node">
<title>Node2</title>
<g id="a_Node000002"><a xlink:href="classFloatingEnergySphereWidget.html#ad35420b1d445bfab1078548c35b92b96" target="_top" xlink:title="Initializes audio components (QMediaPlayer, QAudioDecoder), connects signals, selects the appropriate...">
<polygon fill="white" stroke="#666666" points="321.5,-123 178.75,-123 178.75,-94 321.5,-94 321.5,-123"/>
<text text-anchor="start" x="186.75" y="-109.5" font-family="Helvetica,sans-Serif" font-size="10.00">FloatingEnergySphereWidget</text>
<text text-anchor="middle" x="250.12" y="-99" font-family="Helvetica,sans-Serif" font-size="10.00">::SetupAudio</text>
</a>
</g>
</g>
<!-- Node1&#45;&gt;Node2 -->
<g id="edge1_Node000001_Node000002" class="edge">
<title>Node1&#45;&gt;Node2</title>
<g id="a_edge1_Node000001_Node000002"><a xlink:title=" ">
<path fill="none" stroke="#63b8ff" d="M128.3,-76.37C145.31,-80.89 164.17,-85.91 181.84,-90.61"/>
<polygon fill="#63b8ff" stroke="#63b8ff" points="180.93,-93.99 191.49,-93.18 182.73,-87.22 180.93,-93.99"/>
</a>
</g>
</g>
<!-- Node8 -->
<g id="Node000008" class="node">
<title>Node8</title>
<g id="a_Node000008"><a xlink:href="classFloatingEnergySphereWidget.html#a4b018c3be823549091b2a232cc992212" target="_top" xlink:title="Compiles and links the vertex and fragment shaders into shader_program_.">
<polygon fill="white" stroke="#666666" points="321.5,-76 178.75,-76 178.75,-47 321.5,-47 321.5,-76"/>
<text text-anchor="start" x="186.75" y="-62.5" font-family="Helvetica,sans-Serif" font-size="10.00">FloatingEnergySphereWidget</text>
<text text-anchor="middle" x="250.12" y="-52" font-family="Helvetica,sans-Serif" font-size="10.00">::SetupShaders</text>
</a>
</g>
</g>
<!-- Node1&#45;&gt;Node8 -->
<g id="edge7_Node000001_Node000008" class="edge">
<title>Node1&#45;&gt;Node8</title>
<g id="a_edge7_Node000001_Node000008"><a xlink:title=" ">
<path fill="none" stroke="#63b8ff" d="M143.25,-61.5C151.15,-61.5 159.24,-61.5 167.26,-61.5"/>
<polygon fill="#63b8ff" stroke="#63b8ff" points="167.01,-65 177.01,-61.5 167.01,-58 167.01,-65"/>
</a>
</g>
</g>
<!-- Node9 -->
<g id="Node000009" class="node">
<title>Node9</title>
<g id="a_Node000009"><a xlink:href="classFloatingEnergySphereWidget.html#aba5376ecc7b3bd26466ffb1e24939be4" target="_top" xlink:title="Creates the vertex data (positions) for the sphere geometry using rings and sectors....">
<polygon fill="white" stroke="#666666" points="321.5,-29 178.75,-29 178.75,0 321.5,0 321.5,-29"/>
<text text-anchor="start" x="186.75" y="-15.5" font-family="Helvetica,sans-Serif" font-size="10.00">FloatingEnergySphereWidget</text>
<text text-anchor="middle" x="250.12" y="-5" font-family="Helvetica,sans-Serif" font-size="10.00">::SetupSphereGeometry</text>
</a>
</g>
</g>
<!-- Node1&#45;&gt;Node9 -->
<g id="edge8_Node000001_Node000009" class="edge">
<title>Node1&#45;&gt;Node9</title>
<g id="a_edge8_Node000001_Node000009"><a xlink:title=" ">
<path fill="none" stroke="#63b8ff" d="M128.3,-46.63C145.31,-42.11 164.17,-37.09 181.84,-32.39"/>
<polygon fill="#63b8ff" stroke="#63b8ff" points="182.73,-35.78 191.49,-29.82 180.93,-29.01 182.73,-35.78"/>
</a>
</g>
</g>
<!-- Node3 -->
<g id="Node000003" class="node">
<title>Node3</title>
<g id="a_Node000003"><a xlink:href="classFloatingEnergySphereWidget.html#a1e3d19f3f35298cdafa9b2aad74d82d7" target="_top" xlink:title="Slot called by the audio decoder when it finishes decoding the entire source file.">
<polygon fill="white" stroke="#666666" points="500.25,-193 357.5,-193 357.5,-164 500.25,-164 500.25,-193"/>
<text text-anchor="start" x="365.5" y="-179.5" font-family="Helvetica,sans-Serif" font-size="10.00">FloatingEnergySphereWidget</text>
<text text-anchor="middle" x="428.88" y="-169" font-family="Helvetica,sans-Serif" font-size="10.00">::AudioDecodingFinished</text>
</a>
</g>
</g>
<!-- Node2&#45;&gt;Node3 -->
<g id="edge2_Node000002_Node000003" class="edge">
<title>Node2&#45;&gt;Node3</title>
<g id="a_edge2_Node000002_Node000003"><a xlink:title=" ">
<path fill="none" stroke="#63b8ff" d="M282.43,-123.32C303.44,-133.02 331.86,-145.67 357.5,-155.5 361.33,-156.97 365.29,-158.42 369.3,-159.85"/>
<polygon fill="#63b8ff" stroke="#63b8ff" points="367.93,-163.08 378.52,-163.05 370.22,-156.47 367.93,-163.08"/>
</a>
</g>
</g>
<!-- Node4 -->
<g id="Node000004" class="node">
<title>Node4</title>
<g id="a_Node000004"><a xlink:href="classFloatingEnergySphereWidget.html#a43b09697cd4078bf3e083e3cf549f9e7" target="_top" xlink:title="Slot called when the QAudioDecoder encounters an error. Logs the error.">
<polygon fill="white" stroke="#666666" points="500.25,-146 357.5,-146 357.5,-117 500.25,-117 500.25,-146"/>
<text text-anchor="start" x="365.5" y="-132.5" font-family="Helvetica,sans-Serif" font-size="10.00">FloatingEnergySphereWidget</text>
<text text-anchor="middle" x="428.88" y="-122" font-family="Helvetica,sans-Serif" font-size="10.00">::HandleAudioDecoderError</text>
</a>
</g>
</g>
<!-- Node2&#45;&gt;Node4 -->
<g id="edge3_Node000002_Node000004" class="edge">
<title>Node2&#45;&gt;Node4</title>
<g id="a_edge3_Node000002_Node000004"><a xlink:title=" ">
<path fill="none" stroke="#63b8ff" d="M322,-117.72C329.9,-118.75 337.99,-119.8 346.01,-120.85"/>
<polygon fill="#63b8ff" stroke="#63b8ff" points="345.41,-124.3 355.77,-122.12 346.31,-117.36 345.41,-124.3"/>
</a>
</g>
</g>
<!-- Node5 -->
<g id="Node000005" class="node">
<title>Node5</title>
<g id="a_Node000005"><a xlink:href="classFloatingEnergySphereWidget.html#a4ef04ca2391c5e03d46ae913cbca8c57" target="_top" xlink:title="Slot called when the QMediaPlayer encounters an error. Logs the error.">
<polygon fill="white" stroke="#666666" points="500.25,-99 357.5,-99 357.5,-70 500.25,-70 500.25,-99"/>
<text text-anchor="start" x="365.5" y="-85.5" font-family="Helvetica,sans-Serif" font-size="10.00">FloatingEnergySphereWidget</text>
<text text-anchor="middle" x="428.88" y="-75" font-family="Helvetica,sans-Serif" font-size="10.00">::HandleMediaPlayerError</text>
</a>
</g>
</g>
<!-- Node2&#45;&gt;Node5 -->
<g id="edge4_Node000002_Node000005" class="edge">
<title>Node2&#45;&gt;Node5</title>
<g id="a_edge4_Node000002_Node000005"><a xlink:title=" ">
<path fill="none" stroke="#63b8ff" d="M322,-98.88C329.9,-97.8 337.99,-96.71 346.01,-95.62"/>
<polygon fill="#63b8ff" stroke="#63b8ff" points="346.34,-99.1 355.77,-94.29 345.39,-92.17 346.34,-99.1"/>
</a>
</g>
</g>
<!-- Node6 -->
<g id="Node000006" class="node">
<title>Node6</title>
<g id="a_Node000006"><a xlink:href="classFloatingEnergySphereWidget.html#aa6db8829f808c65a41208aa024dfe183" target="_top" xlink:title="Slot called by the audio decoder when a new buffer of decoded audio data is ready....">
<polygon fill="white" stroke="#666666" points="500.25,-52 357.5,-52 357.5,-23 500.25,-23 500.25,-52"/>
<text text-anchor="start" x="365.5" y="-38.5" font-family="Helvetica,sans-Serif" font-size="10.00">FloatingEnergySphereWidget</text>
<text text-anchor="middle" x="428.88" y="-28" font-family="Helvetica,sans-Serif" font-size="10.00">::ProcessAudioBuffer</text>
</a>
</g>
</g>
<!-- Node2&#45;&gt;Node6 -->
<g id="edge5_Node000002_Node000006" class="edge">
<title>Node2&#45;&gt;Node6</title>
<g id="a_edge5_Node000002_Node000006"><a xlink:title=" ">
<path fill="none" stroke="#63b8ff" d="M302.51,-93.52C309.01,-91.1 315.49,-88.42 321.5,-85.5 338.8,-77.1 340.26,-70.01 357.5,-61.5 360.96,-59.79 364.58,-58.16 368.26,-56.6"/>
<polygon fill="#63b8ff" stroke="#63b8ff" points="369.35,-59.93 377.34,-52.98 366.76,-53.43 369.35,-59.93"/>
</a>
</g>
</g>
<!-- Node7 -->
<g id="Node000007" class="node">
<title>Node7</title>
<g id="a_Node000007"><a xlink:href="classFloatingEnergySphereWidget.html#aff040b4cbf22e0cd620795c85af1aa0e" target="_top" xlink:title="Calculates the Root Mean Square (RMS) amplitude for a given audio buffer. Used to quantify the energy...">
<polygon fill="white" stroke="#666666" points="679,-52 536.25,-52 536.25,-23 679,-23 679,-52"/>
<text text-anchor="start" x="544.25" y="-38.5" font-family="Helvetica,sans-Serif" font-size="10.00">FloatingEnergySphereWidget</text>
<text text-anchor="middle" x="607.62" y="-28" font-family="Helvetica,sans-Serif" font-size="10.00">::CalculateRMSAmplitude</text>
</a>
</g>
</g>
<!-- Node6&#45;&gt;Node7 -->
<g id="edge6_Node000006_Node000007" class="edge">
<title>Node6&#45;&gt;Node7</title>
<g id="a_edge6_Node000006_Node000007"><a xlink:title=" ">
<path fill="none" stroke="#63b8ff" d="M500.75,-37.5C508.65,-37.5 516.74,-37.5 524.76,-37.5"/>
<polygon fill="#63b8ff" stroke="#63b8ff" points="524.51,-41 534.51,-37.5 524.51,-34 524.51,-41"/>
</a>
</g>
</g>
</g>
</svg>

<g id="navigator" transform="translate(0 0)" fill="#404254">
  <rect fill="#f2f5e9" fill-opacity="0.5" stroke="#606060" stroke-width=".5" x="0" y="0" width="60" height="60"/>
  <use id="zoomplus" xlink:href="#zoomPlus" x="17" y="9" onmousedown="handleZoom(evt,'in')"/>
  <use id="zoomminus" xlink:href="#zoomMin" x="42" y="9" onmousedown="handleZoom(evt,'out')"/>
  <use id="reset" xlink:href="#resetDef" x="30" y="36" onmousedown="handleReset()"/>
   <use id="arrowup" xlink:href="#arrowUp" x="0" y="0" onmousedown="handlePan(0,-1)"/>
  <use id="arrowright" xlink:href="#arrowRight" x="0" y="0" onmousedown="handlePan(1,0)"/>
  <use id="arrowdown" xlink:href="#arrowDown" x="0" y="0" onmousedown="handlePan(0,1)"/>
  <use id="arrowleft" xlink:href="#arrowLeft" x="0" y="0" onmousedown="handlePan(-1,0)"/>
</g>
<svg viewBox="0 0 15 15" width="100%" height="30px" preserveAspectRatio="xMaxYMin meet">
 <g id="arrow_out" transform="scale(0.3 0.3)">
  <a xlink:href="classFloatingEnergySphereWidget_ac8fbc3182f94c6322cfc6e494375a146_cgraph_org.svg" target="_base">
   <rect id="button" ry="5" rx="5" y="6" x="6" height="38" width="38"
        fill="#f2f5e9" fill-opacity="0.5" stroke="#606060" stroke-width="1.0"/>
   <path id="arrow"
     d="M 11.500037,31.436501 C 11.940474,20.09759 22.043105,11.32322 32.158766,21.979434 L 37.068811,17.246167 C 37.068811,17.246167 37.088388,32 37.088388,32 L 22.160133,31.978069 C 22.160133,31.978069 26.997745,27.140456 26.997745,27.140456 C 18.528582,18.264221 13.291696,25.230495 11.500037,31.436501 z"
     style="fill:#404040;"/>
  </a>
 </g>
</svg>

<style type='text/css'>
<![CDATA[
[data-mouse-over-selected='false'] { opacity: 0.7; }
[data-mouse-over-selected='true']  { opacity: 1.0; }
]]>
</style>
<script type="application/ecmascript"><![CDATA[
document.addEventListener('DOMContentLoaded', (event) => {
  highlightEdges();
  highlightAdjacentNodes();
});
]]></script>
</svg>
