<?xml version="1.0" encoding="UTF-8" standalone="no"?>
<!DOCTYPE svg PUBLIC "-//W3C//DTD SVG 1.1//EN"
 "http://www.w3.org/Graphics/SVG/1.1/DTD/svg11.dtd">
<!-- Generated by graphviz version 12.2.1 (0)
 -->
<!-- Title: BlobEventHandler::ProcessResizeEvent Pages: 1 -->
<svg width="327pt" height="131pt"
 viewBox="0.00 0.00 327.25 131.00" xmlns="http://www.w3.org/2000/svg" xmlns:xlink="http://www.w3.org/1999/xlink">
<g id="graph0" class="graph" transform="scale(1 1) rotate(0) translate(4 127)">
<title>BlobEventHandler::ProcessResizeEvent</title>
<!-- Node1 -->
<g id="Node000001" class="node">
<title>Node1</title>
<g id="a_Node000001"><a xlink:title="Processes a resize event for the parent widget. Applies throttling and checks for significant size ch...">
<polygon fill="#999999" stroke="#666666" points="136,-76 0,-76 0,-47 136,-47 136,-76"/>
<text text-anchor="start" x="8" y="-62.5" font-family="Helvetica,sans-Serif" font-size="10.00">BlobEventHandler::Process</text>
<text text-anchor="middle" x="68" y="-52" font-family="Helvetica,sans-Serif" font-size="10.00">ResizeEvent</text>
</a>
</g>
</g>
<!-- Node2 -->
<g id="Node000002" class="node">
<title>Node2</title>
<g id="a_Node000002"><a xlink:href="classBlobEventHandler.html#adee9e347de86d1914b6671935d9bd758" target="_top" xlink:title="Emitted during a resize event to request a specific &quot;resizing&quot; state in the Blob animation.">
<polygon fill="white" stroke="#666666" points="308.38,-123 182.88,-123 182.88,-94 308.38,-94 308.38,-123"/>
<text text-anchor="start" x="190.88" y="-109.5" font-family="Helvetica,sans-Serif" font-size="10.00">BlobEventHandler::resize</text>
<text text-anchor="middle" x="245.62" y="-99" font-family="Helvetica,sans-Serif" font-size="10.00">StateRequested</text>
</a>
</g>
</g>
<!-- Node1&#45;&gt;Node2 -->
<g id="edge1_Node000001_Node000002" class="edge">
<title>Node1&#45;&gt;Node2</title>
<g id="a_edge1_Node000001_Node000002"><a xlink:title=" ">
<path fill="none" stroke="#63b8ff" d="M124.57,-76.37C141.55,-80.91 160.39,-85.96 178.02,-90.68"/>
<polygon fill="#63b8ff" stroke="#63b8ff" points="176.79,-93.97 187.35,-93.17 178.6,-87.21 176.79,-93.97"/>
</a>
</g>
</g>
<!-- Node3 -->
<g id="Node000003" class="node">
<title>Node3</title>
<g id="a_Node000003"><a xlink:href="classBlobEventHandler.html#a608f7c9b14093c8e0a02be39d780af3d" target="_top" xlink:title="Emitted when a significant resize event is detected after throttling.">
<polygon fill="white" stroke="#666666" points="317.75,-76 173.5,-76 173.5,-47 317.75,-47 317.75,-76"/>
<text text-anchor="start" x="181.5" y="-62.5" font-family="Helvetica,sans-Serif" font-size="10.00">BlobEventHandler::significant</text>
<text text-anchor="middle" x="245.62" y="-52" font-family="Helvetica,sans-Serif" font-size="10.00">ResizeDetected</text>
</a>
</g>
</g>
<!-- Node1&#45;&gt;Node3 -->
<g id="edge2_Node000001_Node000003" class="edge">
<title>Node1&#45;&gt;Node3</title>
<g id="a_edge2_Node000001_Node000003"><a xlink:title=" ">
<path fill="none" stroke="#63b8ff" d="M136.4,-61.5C144.65,-61.5 153.15,-61.5 161.59,-61.5"/>
<polygon fill="#63b8ff" stroke="#63b8ff" points="161.52,-65 171.52,-61.5 161.52,-58 161.52,-65"/>
</a>
</g>
</g>
<!-- Node4 -->
<g id="Node000004" class="node">
<title>Node4</title>
<g id="a_Node000004"><a xlink:href="classBlobEventHandler.html#aad7907b15e659d39275aa21d97a0665c" target="_top" xlink:title="Emitted after a resize event to request resetting any temporary state timers.">
<polygon fill="white" stroke="#666666" points="319.25,-29 172,-29 172,0 319.25,0 319.25,-29"/>
<text text-anchor="start" x="180" y="-15.5" font-family="Helvetica,sans-Serif" font-size="10.00">BlobEventHandler::stateReset</text>
<text text-anchor="middle" x="245.62" y="-5" font-family="Helvetica,sans-Serif" font-size="10.00">TimerRequested</text>
</a>
</g>
</g>
<!-- Node1&#45;&gt;Node4 -->
<g id="edge3_Node000001_Node000004" class="edge">
<title>Node1&#45;&gt;Node4</title>
<g id="a_edge3_Node000001_Node000004"><a xlink:title=" ">
<path fill="none" stroke="#63b8ff" d="M124.57,-46.63C141.55,-42.09 160.39,-37.04 178.02,-32.32"/>
<polygon fill="#63b8ff" stroke="#63b8ff" points="178.6,-35.79 187.35,-29.83 176.79,-29.03 178.6,-35.79"/>
</a>
</g>
</g>
</g>
</svg>
