<?xml version="1.0" encoding="UTF-8" standalone="no"?>
<!DOCTYPE svg PUBLIC "-//W3C//DTD SVG 1.1//EN"
 "http://www.w3.org/Graphics/SVG/1.1/DTD/svg11.dtd">
<!-- Generated by graphviz version 12.2.1 (0)
 -->
<!-- Title: AppInstanceManager::IsAnotherInstanceRunning Pages: 1 -->
<svg width="723pt" height="131pt"
 viewBox="0.00 0.00 722.50 131.00" xmlns="http://www.w3.org/2000/svg" xmlns:xlink="http://www.w3.org/1999/xlink">
<g id="graph0" class="graph" transform="scale(1 1) rotate(0) translate(4 127)">
<title>AppInstanceManager::IsAnotherInstanceRunning</title>
<!-- Node1 -->
<g id="Node000001" class="node">
<title>Node1</title>
<g id="a_Node000001"><a xlink:title="Statically checks if another instance of the application is already running.">
<polygon fill="#999999" stroke="#666666" points="714.5,-29 577,-29 577,0 714.5,0 714.5,-29"/>
<text text-anchor="start" x="585" y="-15.5" font-family="Helvetica,sans-Serif" font-size="10.00">AppInstanceManager</text>
<text text-anchor="middle" x="645.75" y="-5" font-family="Helvetica,sans-Serif" font-size="10.00">::IsAnotherInstanceRunning</text>
</a>
</g>
</g>
<!-- Node2 -->
<g id="Node000002" class="node">
<title>Node2</title>
<g id="a_Node000002"><a xlink:href="classAppInstanceManager.html#a8087ee7ea64e087b39c66048becc8574" target="_top" xlink:title="Slot called when a connected socket disconnects. Handles cleanup and potential role change (the clien...">
<polygon fill="white" stroke="#666666" points="541,-70 432.75,-70 432.75,-41 541,-41 541,-70"/>
<text text-anchor="start" x="440.75" y="-56.5" font-family="Helvetica,sans-Serif" font-size="10.00">AppInstanceManager</text>
<text text-anchor="middle" x="486.88" y="-46" font-family="Helvetica,sans-Serif" font-size="10.00">::clientDisconnected</text>
</a>
</g>
</g>
<!-- Node1&#45;&gt;Node2 -->
<g id="edge1_Node000001_Node000002" class="edge">
<title>Node1&#45;&gt;Node2</title>
<g id="a_edge1_Node000001_Node000002"><a xlink:title=" ">
<path fill="none" stroke="#63b8ff" d="M576.86,-32.24C564.95,-35.36 552.7,-38.56 541.26,-41.55"/>
<polygon fill="#63b8ff" stroke="#63b8ff" points="577.42,-35.72 586.21,-29.8 575.65,-28.94 577.42,-35.72"/>
</a>
</g>
</g>
<!-- Node4 -->
<g id="Node000004" class="node">
<title>Node4</title>
<g id="a_Node000004"><a xlink:href="classAppInstanceManager.html#a1ecdc08b00d9aae9d33976f8ce90d6f5" target="_top" xlink:title="Starts the instance manager.">
<polygon fill="white" stroke="#666666" points="108.25,-68 0,-68 0,-39 108.25,-39 108.25,-68"/>
<text text-anchor="start" x="8" y="-54.5" font-family="Helvetica,sans-Serif" font-size="10.00">AppInstanceManager</text>
<text text-anchor="middle" x="54.12" y="-44" font-family="Helvetica,sans-Serif" font-size="10.00">::Start</text>
</a>
</g>
</g>
<!-- Node1&#45;&gt;Node4 -->
<g id="edge8_Node000001_Node000004" class="edge">
<title>Node1&#45;&gt;Node4</title>
<g id="a_edge8_Node000001_Node000004"><a xlink:title=" ">
<path fill="none" stroke="#63b8ff" d="M565.33,-11.67C466.23,-9.36 291.81,-9.37 144.25,-30.5 131.44,-32.34 117.81,-35.31 105.17,-38.52"/>
<polygon fill="#63b8ff" stroke="#63b8ff" points="565.15,-15.16 575.23,-11.91 565.32,-8.17 565.15,-15.16"/>
</a>
</g>
</g>
<!-- Node3 -->
<g id="Node000003" class="node">
<title>Node3</title>
<g id="a_Node000003"><a xlink:href="classAppInstanceManager.html#a6aa626dd1ea5e5c57860d532bdb85d5e" target="_top" xlink:title="Establishes a connection to the server instance for a client instance.">
<polygon fill="white" stroke="#666666" points="252.5,-123 144.25,-123 144.25,-94 252.5,-94 252.5,-123"/>
<text text-anchor="start" x="152.25" y="-109.5" font-family="Helvetica,sans-Serif" font-size="10.00">AppInstanceManager</text>
<text text-anchor="middle" x="198.38" y="-99" font-family="Helvetica,sans-Serif" font-size="10.00">::ConnectToServer</text>
</a>
</g>
</g>
<!-- Node2&#45;&gt;Node3 -->
<g id="edge2_Node000002_Node000003" class="edge">
<title>Node2&#45;&gt;Node3</title>
<g id="a_edge2_Node000002_Node000003"><a xlink:title=" ">
<path fill="none" stroke="#63b8ff" d="M451.9,-75.85C435.77,-84.46 415.87,-93.62 396.75,-98.5 349.05,-110.68 292.8,-112.35 252.59,-111.46"/>
<polygon fill="#63b8ff" stroke="#63b8ff" points="453.53,-78.95 460.59,-71.05 450.14,-72.82 453.53,-78.95"/>
</a>
</g>
</g>
<!-- Node5 -->
<g id="Node000005" class="node">
<title>Node5</title>
<g id="a_Node000005"><a xlink:href="classAppInstanceManager.html#af7e9143a1ff0af2932c1d0afc1f31231" target="_top" xlink:title="Slot called when a new client attempts to connect to the server.">
<polygon fill="white" stroke="#666666" points="396.75,-89 288.5,-89 288.5,-60 396.75,-60 396.75,-89"/>
<text text-anchor="start" x="296.5" y="-75.5" font-family="Helvetica,sans-Serif" font-size="10.00">AppInstanceManager</text>
<text text-anchor="middle" x="342.62" y="-65" font-family="Helvetica,sans-Serif" font-size="10.00">::onNewConnection</text>
</a>
</g>
</g>
<!-- Node2&#45;&gt;Node5 -->
<g id="edge4_Node000002_Node000005" class="edge">
<title>Node2&#45;&gt;Node5</title>
<g id="a_edge4_Node000002_Node000005"><a xlink:title=" ">
<path fill="none" stroke="#63b8ff" d="M421.13,-64.15C412.99,-65.23 404.75,-66.34 396.82,-67.39"/>
<polygon fill="#63b8ff" stroke="#63b8ff" points="421.55,-67.62 431,-62.83 420.63,-60.68 421.55,-67.62"/>
</a>
</g>
</g>
<!-- Node3&#45;&gt;Node4 -->
<g id="edge3_Node000003_Node000004" class="edge">
<title>Node3&#45;&gt;Node4</title>
<g id="a_edge3_Node000003_Node000004"><a xlink:title=" ">
<path fill="none" stroke="#63b8ff" d="M148.34,-89.54C130.45,-82.63 110.5,-74.91 93.65,-68.4"/>
<polygon fill="#63b8ff" stroke="#63b8ff" points="146.88,-92.73 157.47,-93.07 149.4,-86.2 146.88,-92.73"/>
</a>
</g>
</g>
<!-- Node6 -->
<g id="Node000006" class="node">
<title>Node6</title>
<g id="a_Node000006"><a xlink:href="classAppInstanceManager.html#af09b098118800e025bcdce635b382ddd" target="_top" xlink:title="Sets up the QLocalServer for the creator instance.">
<polygon fill="white" stroke="#666666" points="252.5,-68 144.25,-68 144.25,-39 252.5,-39 252.5,-68"/>
<text text-anchor="start" x="152.25" y="-54.5" font-family="Helvetica,sans-Serif" font-size="10.00">AppInstanceManager</text>
<text text-anchor="middle" x="198.38" y="-44" font-family="Helvetica,sans-Serif" font-size="10.00">::SetupServer</text>
</a>
</g>
</g>
<!-- Node5&#45;&gt;Node6 -->
<g id="edge5_Node000005_Node000006" class="edge">
<title>Node5&#45;&gt;Node6</title>
<g id="a_edge5_Node000005_Node000006"><a xlink:title=" ">
<path fill="none" stroke="#63b8ff" d="M276.88,-64.94C268.74,-63.74 260.5,-62.52 252.57,-61.35"/>
<polygon fill="#63b8ff" stroke="#63b8ff" points="276.35,-68.4 286.75,-66.4 277.37,-61.48 276.35,-68.4"/>
</a>
</g>
</g>
<!-- Node6&#45;&gt;Node2 -->
<g id="edge6_Node000006_Node000002" class="edge">
<title>Node6&#45;&gt;Node2</title>
<g id="a_edge6_Node000006_Node000002"><a xlink:title=" ">
<path fill="none" stroke="#63b8ff" d="M264.06,-51.78C302.6,-51.03 352.47,-50.51 396.75,-51.5 408.36,-51.76 420.82,-52.21 432.63,-52.72"/>
<polygon fill="#63b8ff" stroke="#63b8ff" points="264.43,-48.28 254.51,-51.98 264.58,-55.27 264.43,-48.28"/>
</a>
</g>
</g>
<!-- Node6&#45;&gt;Node4 -->
<g id="edge7_Node000006_Node000004" class="edge">
<title>Node6&#45;&gt;Node4</title>
<g id="a_edge7_Node000006_Node000004"><a xlink:title=" ">
<path fill="none" stroke="#63b8ff" d="M132.63,-53.5C124.49,-53.5 116.25,-53.5 108.32,-53.5"/>
<polygon fill="#63b8ff" stroke="#63b8ff" points="132.49,-57 142.49,-53.5 132.49,-50 132.49,-57"/>
</a>
</g>
</g>
</g>
</svg>
