<?xml version="1.0" encoding="UTF-8" standalone="no"?>
<!DOCTYPE svg PUBLIC "-//W3C//DTD SVG 1.1//EN"
 "http://www.w3.org/Graphics/SVG/1.1/DTD/svg11.dtd">
<!-- Generated by graphviz version 12.2.1 (0)
 -->
<!-- Title: ResizeEventFilter Pages: 1 -->
<svg width="156pt" height="210pt"
 viewBox="0.00 0.00 155.75 210.00" xmlns="http://www.w3.org/2000/svg" xmlns:xlink="http://www.w3.org/1999/xlink">

<svg id="main" version="1.1" xmlns="http://www.w3.org/2000/svg" xmlns:xlink="http://www.w3.org/1999/xlink" xml:space="preserve">

<style type="text/css"><![CDATA[
.node, .edge {opacity: 0.7;}
.node.selected, .edge.selected {opacity: 1;}
.edge:hover path { stroke: red; }
.edge:hover polygon { stroke: red; fill: red; }
]]></style>
<script type="application/ecmascript" xlink:href="svg.min.js"/>
<svg id="graph" class="graph">
<g id="graph0" class="graph" transform="scale(1 1) rotate(0) translate(4 206)">
<title>ResizeEventFilter</title>
<!-- Node1 -->
<g id="Node000001" class="node">
<title>Node1</title>
<g id="a_Node000001"><a xlink:title="An event filter specifically designed to center a QLabel within a BlobAnimation widget whenever the B...">
<polygon fill="#999999" stroke="none" points="147.75,-118.5 0,-118.5 0,0 147.75,0 147.75,-118.5"/>
<text text-anchor="start" x="36" y="-105" font-family="Helvetica,sans-Serif" font-size="10.00">ResizeEventFilter</text>
<text text-anchor="start" x="5.5" y="-90.5" font-family="Helvetica,sans-Serif" font-size="10.00">&#45;</text>
<text text-anchor="start" x="14" y="-90.5" font-family="Helvetica,sans-Serif" font-size="10.00">BlobAnimation * animation_</text>
<text text-anchor="start" x="5.5" y="-76" font-family="Helvetica,sans-Serif" font-size="10.00">&#45;</text>
<text text-anchor="start" x="14" y="-76" font-family="Helvetica,sans-Serif" font-size="10.00">QLabel * label_</text>
<text text-anchor="start" x="4" y="-61.5" font-family="Helvetica,sans-Serif" font-size="10.00">+</text>
<text text-anchor="start" x="14" y="-61.5" font-family="Helvetica,sans-Serif" font-size="10.00">ResizeEventFilter</text>
<text text-anchor="start" x="14" y="-51" font-family="Helvetica,sans-Serif" font-size="10.00">(QLabel *label, BlobAnimation</text>
<text text-anchor="start" x="14" y="-40.5" font-family="Helvetica,sans-Serif" font-size="10.00"> *animation)</text>
<text text-anchor="start" x="4.38" y="-26" font-family="Helvetica,sans-Serif" font-size="10.00">#</text>
<text text-anchor="start" x="14" y="-26" font-family="Helvetica,sans-Serif" font-size="10.00">bool eventFilter(QObject</text>
<text text-anchor="start" x="14" y="-15.5" font-family="Helvetica,sans-Serif" font-size="10.00"> *watched, QEvent *event)</text>
<text text-anchor="start" x="14" y="-5" font-family="Helvetica,sans-Serif" font-size="10.00"> override</text>
<polygon fill="#666666" stroke="#666666" points="0,-102 0,-102 147.75,-102 147.75,-102 0,-102"/>
<polygon fill="#666666" stroke="#666666" points="0,-73 0,-73 12,-73 12,-73 0,-73"/>
<polygon fill="#666666" stroke="#666666" points="12,-73 12,-73 147.75,-73 147.75,-73 12,-73"/>
<polygon fill="none" stroke="#666666" points="0,0 0,-118.5 147.75,-118.5 147.75,0 0,0"/>
</a>
</g>
</g>
<!-- Node2 -->
<g id="Node000002" class="node">
<title>Node2</title>
<g id="a_Node000002"><a xlink:title=" ">
<polygon fill="white" stroke="none" points="95.88,-202 51.88,-202 51.88,-154.5 95.88,-154.5 95.88,-202"/>
<text text-anchor="start" x="55.88" y="-188.5" font-family="Helvetica,sans-Serif" font-size="10.00">QObject</text>
<text text-anchor="start" x="72.38" y="-174" font-family="Helvetica,sans-Serif" font-size="10.00"> </text>
<text text-anchor="start" x="72.38" y="-159.5" font-family="Helvetica,sans-Serif" font-size="10.00"> </text>
<polygon fill="#666666" stroke="#666666" points="51.88,-185.5 51.88,-185.5 95.88,-185.5 95.88,-185.5 51.88,-185.5"/>
<polygon fill="#666666" stroke="#666666" points="51.88,-171 51.88,-171 95.88,-171 95.88,-171 51.88,-171"/>
<polygon fill="none" stroke="#666666" points="51.88,-154.5 51.88,-202 95.88,-202 95.88,-154.5 51.88,-154.5"/>
</a>
</g>
</g>
<!-- Node2&#45;&gt;Node1 -->
<g id="edge1_Node000001_Node000002" class="edge">
<title>Node2&#45;&gt;Node1</title>
<g id="a_edge1_Node000001_Node000002"><a xlink:title=" ">
<path fill="none" stroke="#63b8ff" d="M73.88,-143.36C73.88,-135.46 73.88,-126.83 73.88,-118.21"/>
<polygon fill="none" stroke="#63b8ff" points="70.38,-143.18 73.88,-153.18 77.38,-143.18 70.38,-143.18"/>
</a>
</g>
</g>
</g>
</svg>
</svg>

<style type='text/css'>
<![CDATA[
[data-mouse-over-selected='false'] { opacity: 0.7; }
[data-mouse-over-selected='true']  { opacity: 1.0; }
]]>
</style>
<script type="application/ecmascript"><![CDATA[
document.addEventListener('DOMContentLoaded', (event) => {
  highlightEdges();
  highlightAdjacentNodes();
});
]]></script>
</svg>
