<?xml version="1.0" encoding="UTF-8" standalone="no"?>
<!DOCTYPE svg PUBLIC "-//W3C//DTD SVG 1.1//EN"
 "http://www.w3.org/Graphics/SVG/1.1/DTD/svg11.dtd">
<!-- Generated by graphviz version 12.2.1 (0)
 -->
<!-- Title: SessionCoordinator::GetRelayServerUrl Pages: 1 -->
<svg width="489pt" height="97pt"
 viewBox="0.00 0.00 488.75 97.00" xmlns="http://www.w3.org/2000/svg" xmlns:xlink="http://www.w3.org/1999/xlink">
<g id="graph0" class="graph" transform="scale(1 1) rotate(0) translate(4 93)">
<title>SessionCoordinator::GetRelayServerUrl</title>
<!-- Node1 -->
<g id="Node000001" class="node">
<title>Node1</title>
<g id="a_Node000001"><a xlink:title="Gets the full URL (ws://address:port) of the relay server. Delegates the call to WavelengthConfig.">
<polygon fill="#999999" stroke="#666666" points="103.75,-50 0,-50 0,-21 103.75,-21 103.75,-50"/>
<text text-anchor="start" x="8" y="-36.5" font-family="Helvetica,sans-Serif" font-size="10.00">SessionCoordinator</text>
<text text-anchor="middle" x="51.88" y="-26" font-family="Helvetica,sans-Serif" font-size="10.00">::GetRelayServerUrl</text>
</a>
</g>
</g>
<!-- Node2 -->
<g id="Node000002" class="node">
<title>Node2</title>
<g id="a_Node000002"><a xlink:href="classWavelengthConfig.html#abe95f3b7789e1e60f7bd535352644c0d" target="_top" xlink:title="Gets the singleton instance of the WavelengthConfig.">
<polygon fill="white" stroke="#666666" points="293.75,-65.75 139.75,-65.75 139.75,-47.25 293.75,-47.25 293.75,-65.75"/>
<text text-anchor="middle" x="216.75" y="-52.25" font-family="Helvetica,sans-Serif" font-size="10.00">WavelengthConfig::GetInstance</text>
</a>
</g>
</g>
<!-- Node1&#45;&gt;Node2 -->
<g id="edge1_Node000001_Node000002" class="edge">
<title>Node1&#45;&gt;Node2</title>
<g id="a_edge1_Node000001_Node000002"><a xlink:title=" ">
<path fill="none" stroke="#63b8ff" d="M103.96,-42.09C112.01,-43.12 120.51,-44.22 129.09,-45.33"/>
<polygon fill="#63b8ff" stroke="#63b8ff" points="128.52,-48.78 138.89,-46.59 129.42,-41.84 128.52,-48.78"/>
</a>
</g>
</g>
<!-- Node4 -->
<g id="Node000004" class="node">
<title>Node4</title>
<g id="a_Node000004"><a xlink:href="classWavelengthConfig.html#ac3f5f3c2cab54bb6150234946ee30341" target="_top" xlink:title="Constructs the full WebSocket URL for the relay server.">
<polygon fill="white" stroke="#666666" points="287.38,-29 146.12,-29 146.12,0 287.38,0 287.38,-29"/>
<text text-anchor="start" x="154.12" y="-15.5" font-family="Helvetica,sans-Serif" font-size="10.00">WavelengthConfig::GetRelay</text>
<text text-anchor="middle" x="216.75" y="-5" font-family="Helvetica,sans-Serif" font-size="10.00">ServerUrl</text>
</a>
</g>
</g>
<!-- Node1&#45;&gt;Node4 -->
<g id="edge4_Node000001_Node000004" class="edge">
<title>Node1&#45;&gt;Node4</title>
<g id="a_edge4_Node000001_Node000004"><a xlink:title=" ">
<path fill="none" stroke="#63b8ff" d="M103.96,-28.91C113.69,-27.66 124.09,-26.32 134.49,-24.98"/>
<polygon fill="#63b8ff" stroke="#63b8ff" points="134.77,-28.47 144.24,-23.72 133.88,-21.53 134.77,-28.47"/>
</a>
</g>
</g>
<!-- Node3 -->
<g id="Node000003" class="node">
<title>Node3</title>
<g id="a_Node000003"><a xlink:href="classWavelengthConfig.html#a85e6819278b90f10a1afe5e91ce05cbe" target="_top" xlink:title="Deleted copy constructor.">
<polygon fill="white" stroke="#666666" points="480.75,-71 329.75,-71 329.75,-42 480.75,-42 480.75,-71"/>
<text text-anchor="start" x="337.75" y="-57.5" font-family="Helvetica,sans-Serif" font-size="10.00">WavelengthConfig::Wavelength</text>
<text text-anchor="middle" x="405.25" y="-47" font-family="Helvetica,sans-Serif" font-size="10.00">Config</text>
</a>
</g>
</g>
<!-- Node2&#45;&gt;Node3 -->
<g id="edge2_Node000002_Node000003" class="edge">
<title>Node2&#45;&gt;Node3</title>
<g id="a_edge2_Node000002_Node000003"><a xlink:title=" ">
<path fill="none" stroke="#63b8ff" d="M294.14,-56.5C302.08,-56.5 310.18,-56.5 318.2,-56.5"/>
<polygon fill="#63b8ff" stroke="#63b8ff" points="317.97,-60 327.97,-56.5 317.97,-53 317.97,-60"/>
</a>
</g>
</g>
<!-- Node3&#45;&gt;Node3 -->
<g id="edge3_Node000003_Node000003" class="edge">
<title>Node3&#45;&gt;Node3</title>
<g id="a_edge3_Node000003_Node000003"><a xlink:title=" ">
<path fill="none" stroke="#63b8ff" d="M372.4,-71.21C364.48,-80.32 375.43,-89 405.25,-89 421.56,-89 432.22,-86.41 437.24,-82.56"/>
<polygon fill="#63b8ff" stroke="#63b8ff" points="440.72,-82.95 437.99,-72.72 433.74,-82.42 440.72,-82.95"/>
</a>
</g>
</g>
</g>
</svg>
