<?xml version="1.0" encoding="UTF-8" standalone="no"?>
<!DOCTYPE svg PUBLIC "-//W3C//DTD SVG 1.1//EN"
 "http://www.w3.org/Graphics/SVG/1.1/DTD/svg11.dtd">
<!-- Generated by graphviz version 12.2.1 (0)
 -->
<!-- Title: CommunicationStream::keyPressEvent Pages: 1 -->
<!--zoomable 524 -->

<svg id="main" version="1.1" xmlns="http://www.w3.org/2000/svg" xmlns:xlink="http://www.w3.org/1999/xlink" xml:space="preserve" onload="init(evt)">

<style type="text/css"><![CDATA[
.node, .edge {opacity: 0.7;}
.node.selected, .edge.selected {opacity: 1;}
.edge:hover path { stroke: red; }
.edge:hover polygon { stroke: red; fill: red; }
]]></style>

<defs>
  <circle id="rim" cx="0" cy="0" r="7"/>
  <circle id="rim2" cx="0" cy="0" r="3.5"/>
  <g id="zoomPlus">
    <use xlink:href="#rim" fill="#404040"><set attributeName="fill" to="#808080" begin="zoomplus.mouseover" end="zoomplus.mouseout"/></use>
    <path d="M-4,0h8M0,-4v8" fill="none" stroke="white" stroke-width="1.5" pointer-events="none"/>
  </g>
  <g id="zoomMin">
    <use xlink:href="#rim" fill="#404040"><set attributeName="fill" to="#808080" begin="zoomminus.mouseover" end="zoomminus.mouseout"/></use>
    <path d="M-4,0h8" fill="none" stroke="white" stroke-width="1.5" pointer-events="none"/>
  </g>
  <g id="arrowUp" transform="translate(30 24)">
    <use xlink:href="#rim"/>
    <path pointer-events="none" fill="none" stroke="white" stroke-width="1.5" d="M0,-3.0v7 M-2.5,-0.5L0,-3.0L2.5,-0.5"/>
  </g>
  <g id="arrowRight" transform="rotate(90) translate(36 -43)">
    <use xlink:href="#rim"/>
    <path pointer-events="none" fill="none" stroke="white" stroke-width="1.5" d="M0,-3.0v7 M-2.5,-0.5L0,-3.0L2.5,-0.5"/>
  </g>
  <g id="arrowDown" transform="rotate(180) translate(-30 -48)">
    <use xlink:href="#rim"/>
    <path pointer-events="none" fill="none" stroke="white" stroke-width="1.5" d="M0,-3.0v7 M-2.5,-0.5L0,-3.0L2.5,-0.5"/>
  </g>
  <g id="arrowLeft" transform="rotate(270) translate(-36 17)">
    <use xlink:href="#rim"/>
    <path pointer-events="none" fill="none" stroke="white" stroke-width="1.5" d="M0,-3.0v7 M-2.5,-0.5L0,-3.0L2.5,-0.5"/>
  </g>
  <g id="resetDef">
    <use xlink:href="#rim2" fill="#404040"><set attributeName="fill" to="#808080" begin="reset.mouseover" end="reset.mouseout"/></use>
  </g>
</defs>
<script type="application/ecmascript">
var viewWidth = 1207;
var viewHeight = 524;
var sectionId = 'dynsection-12';
</script>
<script type="application/ecmascript" xlink:href="svg.min.js"/>
<svg id="graph" class="graph">
<g id="viewport">
<title>CommunicationStream::keyPressEvent</title>
<!-- Node1 -->
<g id="Node000001" class="node">
<title>Node1</title>
<g id="a_Node000001"><a xlink:title="Handles key presses for message navigation (Left/Right arrows) and closing (Enter).">
<polygon fill="#999999" stroke="#666666" points="115.75,-450.98 0,-450.98 0,-421.98 115.75,-421.98 115.75,-450.98"/>
<text text-anchor="start" x="8" y="-437.48" font-family="Helvetica,sans-Serif" font-size="10.00">CommunicationStream</text>
<text text-anchor="middle" x="57.88" y="-426.98" font-family="Helvetica,sans-Serif" font-size="10.00">::keyPressEvent</text>
</a>
</g>
</g>
<!-- Node2 -->
<g id="Node000002" class="node">
<title>Node2</title>
<g id="a_Node000002"><a xlink:href="classStreamMessage.html#adb6463258367b6d672096da549b66b3c" target="_top" xlink:title="Gets a pointer to the Next navigation button.">
<polygon fill="white" stroke="#666666" points="812,-515.73 653.5,-515.73 653.5,-497.23 812,-497.23 812,-515.73"/>
<text text-anchor="middle" x="732.75" y="-502.23" font-family="Helvetica,sans-Serif" font-size="10.00">StreamMessage::GetNextButton</text>
</a>
</g>
</g>
<!-- Node1&#45;&gt;Node2 -->
<g id="edge1_Node000001_Node000002" class="edge">
<title>Node1&#45;&gt;Node2</title>
<g id="a_edge1_Node000001_Node000002"><a xlink:title=" ">
<path fill="none" stroke="#63b8ff" d="M94.86,-451.38C111.83,-457.76 132.52,-464.61 151.75,-468.48 322.64,-502.87 527,-508.15 641.85,-507.95"/>
<polygon fill="#63b8ff" stroke="#63b8ff" points="641.52,-511.45 651.5,-507.91 641.49,-504.45 641.52,-511.45"/>
</a>
</g>
</g>
<!-- Node3 -->
<g id="Node000003" class="node">
<title>Node3</title>
<g id="a_Node000003"><a xlink:href="classStreamMessage.html#ac27d661cfaa66160fc573acd3db4746e" target="_top" xlink:title="Gets a pointer to the Previous navigation button.">
<polygon fill="white" stroke="#666666" points="811.62,-468.73 653.88,-468.73 653.88,-450.23 811.62,-450.23 811.62,-468.73"/>
<text text-anchor="middle" x="732.75" y="-455.23" font-family="Helvetica,sans-Serif" font-size="10.00">StreamMessage::GetPrevButton</text>
</a>
</g>
</g>
<!-- Node1&#45;&gt;Node3 -->
<g id="edge2_Node000001_Node000003" class="edge">
<title>Node1&#45;&gt;Node3</title>
<g id="a_edge2_Node000001_Node000003"><a xlink:title=" ">
<path fill="none" stroke="#63b8ff" d="M116.2,-446.35C127.93,-448.02 140.21,-449.52 151.75,-450.48 324.95,-464.81 528.21,-463.91 642.29,-461.8"/>
<polygon fill="#63b8ff" stroke="#63b8ff" points="642.28,-465.3 652.21,-461.61 642.14,-458.3 642.28,-465.3"/>
</a>
</g>
</g>
<!-- Node4 -->
<g id="Node000004" class="node">
<title>Node4</title>
<g id="a_Node000004"><a xlink:href="classCommunicationStream.html#a7cf62e4c83ddbf85a1bb47ddb8d9422b" target="_top" xlink:title="Slot triggered when the user requests to close the current message (e.g., clicks &quot;Read&quot; or presses En...">
<polygon fill="white" stroke="#666666" points="790.62,-412.98 674.88,-412.98 674.88,-383.98 790.62,-383.98 790.62,-412.98"/>
<text text-anchor="start" x="682.88" y="-399.48" font-family="Helvetica,sans-Serif" font-size="10.00">CommunicationStream</text>
<text text-anchor="middle" x="732.75" y="-388.98" font-family="Helvetica,sans-Serif" font-size="10.00">::OnMessageRead</text>
</a>
</g>
</g>
<!-- Node1&#45;&gt;Node4 -->
<g id="edge3_Node000001_Node000004" class="edge">
<title>Node1&#45;&gt;Node4</title>
<g id="a_edge3_Node000001_Node000004"><a xlink:title=" ">
<path fill="none" stroke="#63b8ff" d="M116.14,-436.99C217.49,-437.36 435,-435.68 617.5,-417.48 632.33,-416 648.15,-413.78 663.14,-411.38"/>
<polygon fill="#63b8ff" stroke="#63b8ff" points="663.62,-414.85 672.92,-409.77 662.48,-407.94 663.62,-414.85"/>
</a>
</g>
</g>
<!-- Node10 -->
<g id="Node000010" class="node">
<title>Node10</title>
<g id="a_Node000010"><a xlink:href="classCommunicationStream.html#a600acedc2f4f586b28c147077f768438" target="_top" xlink:title="Shows the next message in the list, if available.">
<polygon fill="white" stroke="#666666" points="267.5,-279.98 151.75,-279.98 151.75,-250.98 267.5,-250.98 267.5,-279.98"/>
<text text-anchor="start" x="159.75" y="-266.48" font-family="Helvetica,sans-Serif" font-size="10.00">CommunicationStream</text>
<text text-anchor="middle" x="209.62" y="-255.98" font-family="Helvetica,sans-Serif" font-size="10.00">::ShowNextMessage</text>
</a>
</g>
</g>
<!-- Node1&#45;&gt;Node10 -->
<g id="edge8_Node000001_Node000010" class="edge">
<title>Node1&#45;&gt;Node10</title>
<g id="a_edge8_Node000001_Node000010"><a xlink:title=" ">
<path fill="none" stroke="#63b8ff" d="M71.9,-421.6C98.01,-391.79 156.91,-324.53 188.2,-288.8"/>
<polygon fill="#63b8ff" stroke="#63b8ff" points="190.57,-291.41 194.52,-281.58 185.3,-286.8 190.57,-291.41"/>
</a>
</g>
</g>
<!-- Node17 -->
<g id="Node000017" class="node">
<title>Node17</title>
<g id="a_Node000017"><a xlink:href="classCommunicationStream.html#a918c54f07703dce3733f2aec5b09503d" target="_top" xlink:title="Shows the previous message in the list, if available.">
<polygon fill="white" stroke="#666666" points="795.12,-233.98 670.38,-233.98 670.38,-204.98 795.12,-204.98 795.12,-233.98"/>
<text text-anchor="start" x="678.38" y="-220.48" font-family="Helvetica,sans-Serif" font-size="10.00">CommunicationStream</text>
<text text-anchor="middle" x="732.75" y="-209.98" font-family="Helvetica,sans-Serif" font-size="10.00">::ShowPreviousMessage</text>
</a>
</g>
</g>
<!-- Node1&#45;&gt;Node17 -->
<g id="edge25_Node000001_Node000017" class="edge">
<title>Node1&#45;&gt;Node17</title>
<g id="a_edge25_Node000001_Node000017"><a xlink:title=" ">
<path fill="none" stroke="#63b8ff" d="M116.07,-427.66C249.45,-406.83 573.2,-354.57 617.5,-331.48 658.52,-310.09 694.52,-269.13 714.67,-243.11"/>
<polygon fill="#63b8ff" stroke="#63b8ff" points="717.21,-245.56 720.45,-235.47 711.63,-241.34 717.21,-245.56"/>
</a>
</g>
</g>
<!-- Node5 -->
<g id="Node000005" class="node">
<title>Node5</title>
<g id="a_Node000005"><a xlink:href="classStreamMessage.html#ad759a905d0a2cc1874d4781c97b9a2fc" target="_top" xlink:title="Marks the message as read, triggers the appropriate closing animation (Electronic Shutdown or a simpl...">
<polygon fill="white" stroke="#666666" points="1001.25,-407.73 851,-407.73 851,-389.23 1001.25,-389.23 1001.25,-407.73"/>
<text text-anchor="middle" x="926.12" y="-394.23" font-family="Helvetica,sans-Serif" font-size="10.00">StreamMessage::MarkAsRead</text>
</a>
</g>
</g>
<!-- Node4&#45;&gt;Node5 -->
<g id="edge4_Node000004_Node000005" class="edge">
<title>Node4&#45;&gt;Node5</title>
<g id="a_edge4_Node000004_Node000005"><a xlink:title=" ">
<path fill="none" stroke="#63b8ff" d="M790.91,-398.48C806.12,-398.48 822.9,-398.48 839.28,-398.48"/>
<polygon fill="#63b8ff" stroke="#63b8ff" points="839.02,-401.98 849.02,-398.48 839.02,-394.98 839.02,-401.98"/>
</a>
</g>
</g>
<!-- Node6 -->
<g id="Node000006" class="node">
<title>Node6</title>
<g id="a_Node000006"><a xlink:href="classStreamMessage.html#ab76d3005cedeb795654afd453108593f" target="_top" xlink:title="Emitted when the message is marked as read (MarkAsRead() is called).">
<polygon fill="white" stroke="#666666" points="1197.25,-449.73 1041.75,-449.73 1041.75,-431.23 1197.25,-431.23 1197.25,-449.73"/>
<text text-anchor="middle" x="1119.5" y="-436.23" font-family="Helvetica,sans-Serif" font-size="10.00">StreamMessage::messageRead</text>
</a>
</g>
</g>
<!-- Node5&#45;&gt;Node6 -->
<g id="edge5_Node000005_Node000006" class="edge">
<title>Node5&#45;&gt;Node6</title>
<g id="a_edge5_Node000005_Node000006"><a xlink:title=" ">
<path fill="none" stroke="#63b8ff" d="M971.51,-408.22C998.81,-414.21 1034.01,-421.93 1063.12,-428.32"/>
<polygon fill="#63b8ff" stroke="#63b8ff" points="1062.36,-431.74 1072.88,-430.46 1063.86,-424.9 1062.36,-431.74"/>
</a>
</g>
</g>
<!-- Node7 -->
<g id="Node000007" class="node">
<title>Node7</title>
<g id="a_Node000007"><a xlink:href="classStreamMessage.html#a54a074c315a53d482650cd24d3e57d60" target="_top" xlink:title="Starts a simpler closing animation (glitch/fade) used specifically for long messages displayed in a s...">
<polygon fill="#fff0f0" stroke="red" points="1187.5,-412.98 1051.5,-412.98 1051.5,-383.98 1187.5,-383.98 1187.5,-412.98"/>
<text text-anchor="start" x="1059.5" y="-399.48" font-family="Helvetica,sans-Serif" font-size="10.00">StreamMessage::StartLong</text>
<text text-anchor="middle" x="1119.5" y="-388.98" font-family="Helvetica,sans-Serif" font-size="10.00">MessageClosingAnimation</text>
</a>
</g>
</g>
<!-- Node5&#45;&gt;Node7 -->
<g id="edge6_Node000005_Node000007" class="edge">
<title>Node5&#45;&gt;Node7</title>
<g id="a_edge6_Node000005_Node000007"><a xlink:title=" ">
<path fill="none" stroke="#63b8ff" d="M1001.66,-398.48C1014.12,-398.48 1027.08,-398.48 1039.63,-398.48"/>
<polygon fill="#63b8ff" stroke="#63b8ff" points="1039.52,-401.98 1049.52,-398.48 1039.52,-394.98 1039.52,-401.98"/>
</a>
</g>
</g>
<!-- Node9 -->
<g id="Node000009" class="node">
<title>Node9</title>
<g id="a_Node000009"><a xlink:href="classStreamMessage.html#a8bbf535db654d1c7c94546c61fdc936c" target="_top" xlink:title="Starts the electronic shutdown closing animation. Applies the ElectronicShutdownEffect and animates i...">
<polygon fill="#fff0f0" stroke="red" points="1198.75,-365.98 1040.25,-365.98 1040.25,-336.98 1198.75,-336.98 1198.75,-365.98"/>
<text text-anchor="start" x="1048.25" y="-352.48" font-family="Helvetica,sans-Serif" font-size="10.00">StreamMessage::StartShutdown</text>
<text text-anchor="middle" x="1119.5" y="-341.98" font-family="Helvetica,sans-Serif" font-size="10.00">Animation</text>
</a>
</g>
</g>
<!-- Node5&#45;&gt;Node9 -->
<g id="edge7_Node000005_Node000009" class="edge">
<title>Node5&#45;&gt;Node9</title>
<g id="a_edge7_Node000005_Node000009"><a xlink:title=" ">
<path fill="none" stroke="#63b8ff" d="M966.78,-388.74C989.87,-383.07 1019.69,-375.74 1046.77,-369.09"/>
<polygon fill="#63b8ff" stroke="#63b8ff" points="1047.44,-372.53 1056.31,-366.75 1045.77,-365.73 1047.44,-372.53"/>
</a>
</g>
</g>
<!-- Node11 -->
<g id="Node000011" class="node">
<title>Node11</title>
<g id="a_Node000011"><a xlink:href="classCommunicationStream.html#a3dacb87ca5d81ace1a6c96d8d6dfbdfd" target="_top" xlink:title="Temporarily reduces the background animation frame rate during message transitions for smoother UI pe...">
<polygon fill="white" stroke="#666666" points="1004.25,-52.98 848,-52.98 848,-23.98 1004.25,-23.98 1004.25,-52.98"/>
<text text-anchor="start" x="856" y="-39.48" font-family="Helvetica,sans-Serif" font-size="10.00">CommunicationStream</text>
<text text-anchor="middle" x="926.12" y="-28.98" font-family="Helvetica,sans-Serif" font-size="10.00">::OptimizeForMessageTransition</text>
</a>
</g>
</g>
<!-- Node10&#45;&gt;Node11 -->
<g id="edge9_Node000010_Node000011" class="edge">
<title>Node10&#45;&gt;Node11</title>
<g id="a_edge9_Node000010_Node000011"><a xlink:title=" ">
<path fill="none" stroke="#63b8ff" d="M220.51,-250.53C250.33,-206.95 344.46,-80.23 459.75,-33.48 590.52,19.55 759.46,-2.1 853.63,-21.22"/>
<polygon fill="#63b8ff" stroke="#63b8ff" points="852.75,-24.61 863.25,-23.22 854.18,-17.76 852.75,-24.61"/>
</a>
</g>
</g>
<!-- Node12 -->
<g id="Node000012" class="node">
<title>Node12</title>
<g id="a_Node000012"><a xlink:href="classCommunicationStream.html#aba44a533978e83748764534a8682c56f" target="_top" xlink:title="Displays the message at the specified index in the messages_ list. Hides the previously displayed mes...">
<polygon fill="white" stroke="#666666" points="423.75,-237.98 303.5,-237.98 303.5,-208.98 423.75,-208.98 423.75,-237.98"/>
<text text-anchor="start" x="311.5" y="-224.48" font-family="Helvetica,sans-Serif" font-size="10.00">CommunicationStream</text>
<text text-anchor="middle" x="363.62" y="-213.98" font-family="Helvetica,sans-Serif" font-size="10.00">::ShowMessageAtIndex</text>
</a>
</g>
</g>
<!-- Node10&#45;&gt;Node12 -->
<g id="edge10_Node000010_Node000012" class="edge">
<title>Node10&#45;&gt;Node12</title>
<g id="a_edge10_Node000010_Node000012"><a xlink:title=" ">
<path fill="none" stroke="#63b8ff" d="M264.64,-250.55C275.33,-247.6 286.65,-244.47 297.66,-241.43"/>
<polygon fill="#63b8ff" stroke="#63b8ff" points="298.36,-244.87 307.07,-238.83 296.5,-238.12 298.36,-244.87"/>
</a>
</g>
</g>
<!-- Node12&#45;&gt;Node11 -->
<g id="edge21_Node000012_Node000011" class="edge">
<title>Node12&#45;&gt;Node11</title>
<g id="a_edge21_Node000012_Node000011"><a xlink:title=" ">
<path fill="none" stroke="#63b8ff" d="M368.7,-208.77C378.41,-176.9 406.18,-101.74 459.75,-69.48 521.01,-32.59 719.25,-31.85 836.31,-34.93"/>
<polygon fill="#63b8ff" stroke="#63b8ff" points="836.11,-38.43 846.21,-35.21 836.31,-31.43 836.11,-38.43"/>
</a>
</g>
</g>
<!-- Node13 -->
<g id="Node000013" class="node">
<title>Node13</title>
<g id="a_Node000013"><a xlink:href="classCommunicationStream.html#aa91c3c46034a10ca7393998082e26a25" target="_top" xlink:title="Connects the necessary signals (navigation, read, hidden) from a StreamMessage widget to this Communi...">
<polygon fill="#fff0f0" stroke="red" points="611.12,-407.98 466.12,-407.98 466.12,-378.98 611.12,-378.98 611.12,-407.98"/>
<text text-anchor="start" x="474.12" y="-394.48" font-family="Helvetica,sans-Serif" font-size="10.00">CommunicationStream</text>
<text text-anchor="middle" x="538.62" y="-383.98" font-family="Helvetica,sans-Serif" font-size="10.00">::ConnectSignalsForMessage</text>
</a>
</g>
</g>
<!-- Node12&#45;&gt;Node13 -->
<g id="edge11_Node000012_Node000013" class="edge">
<title>Node12&#45;&gt;Node13</title>
<g id="a_edge11_Node000012_Node000013"><a xlink:title=" ">
<path fill="none" stroke="#63b8ff" d="M384.25,-238.41C396.4,-248.2 411.89,-261.69 423.75,-275.48 443.05,-297.91 439.91,-309.52 459.75,-331.48 473.47,-346.66 491.16,-361.06 506.21,-372.16"/>
<polygon fill="#63b8ff" stroke="#63b8ff" points="503.8,-374.73 513.96,-377.73 507.89,-369.05 503.8,-374.73"/>
</a>
</g>
</g>
<!-- Node15 -->
<g id="Node000015" class="node">
<title>Node15</title>
<g id="a_Node000015"><a xlink:href="classCommunicationStream.html#a26fe6873c1da55aaa2b9f82c69ace778" target="_top" xlink:title="Disconnects all signals originating from the given StreamMessage widget that are connected to this Co...">
<polygon fill="white" stroke="#666666" points="617.5,-321.98 459.75,-321.98 459.75,-292.98 617.5,-292.98 617.5,-321.98"/>
<text text-anchor="start" x="467.75" y="-308.48" font-family="Helvetica,sans-Serif" font-size="10.00">CommunicationStream</text>
<text text-anchor="middle" x="538.62" y="-297.98" font-family="Helvetica,sans-Serif" font-size="10.00">::DisconnectSignalsForMessage</text>
</a>
</g>
</g>
<!-- Node12&#45;&gt;Node15 -->
<g id="edge19_Node000012_Node000015" class="edge">
<title>Node12&#45;&gt;Node15</title>
<g id="a_edge19_Node000012_Node000015"><a xlink:title=" ">
<path fill="none" stroke="#63b8ff" d="M384.52,-238.22C403.18,-251.51 432.25,-270.84 459.75,-283.48 463.69,-285.29 467.8,-287.01 471.98,-288.63"/>
<polygon fill="#63b8ff" stroke="#63b8ff" points="470.47,-291.8 481.06,-291.96 472.87,-285.23 470.47,-291.8"/>
</a>
</g>
</g>
<!-- Node18 -->
<g id="Node000018" class="node">
<title>Node18</title>
<g id="a_Node000018"><a xlink:href="classStreamMessage.html#a34d536edeb897ec7e7c6cc1a4bd34e2e" target="_top" xlink:title="Starts the fade&#45;in animation (opacity and glow). Also triggers the text reveal animation (CyberTextDi...">
<polygon fill="#fff0f0" stroke="red" points="600.25,-274.73 477,-274.73 477,-256.23 600.25,-256.23 600.25,-274.73"/>
<text text-anchor="middle" x="538.62" y="-261.23" font-family="Helvetica,sans-Serif" font-size="10.00">StreamMessage::FadeIn</text>
</a>
</g>
</g>
<!-- Node12&#45;&gt;Node18 -->
<g id="edge20_Node000012_Node000018" class="edge">
<title>Node12&#45;&gt;Node18</title>
<g id="a_edge20_Node000012_Node000018"><a xlink:title=" ">
<path fill="none" stroke="#63b8ff" d="M424.16,-237.93C444.42,-242.85 466.88,-248.3 486.43,-253.05"/>
<polygon fill="#63b8ff" stroke="#63b8ff" points="485.55,-256.44 496.1,-255.39 487.21,-249.63 485.55,-256.44"/>
</a>
</g>
</g>
<!-- Node16 -->
<g id="Node000016" class="node">
<title>Node16</title>
<g id="a_Node000016"><a xlink:href="classCommunicationStream.html#a1924054445cb48103b7422b7789cb1d9" target="_top" xlink:title="Initiates the animation returning the wave to the &quot;Idle&quot; state. Animates amplitude,...">
<polygon fill="white" stroke="#666666" points="598.38,-237.98 478.88,-237.98 478.88,-208.98 598.38,-208.98 598.38,-237.98"/>
<text text-anchor="start" x="486.88" y="-224.48" font-family="Helvetica,sans-Serif" font-size="10.00">CommunicationStream</text>
<text text-anchor="middle" x="538.62" y="-213.98" font-family="Helvetica,sans-Serif" font-size="10.00">::ReturnToIdleAnimation</text>
</a>
</g>
</g>
<!-- Node12&#45;&gt;Node16 -->
<g id="edge22_Node000012_Node000016" class="edge">
<title>Node12&#45;&gt;Node16</title>
<g id="a_edge22_Node000012_Node000016"><a xlink:title=" ">
<path fill="none" stroke="#63b8ff" d="M424.16,-223.48C438.04,-223.48 452.96,-223.48 467.26,-223.48"/>
<polygon fill="#63b8ff" stroke="#63b8ff" points="467.05,-226.98 477.05,-223.48 467.05,-219.98 467.05,-226.98"/>
</a>
</g>
</g>
<!-- Node22 -->
<g id="Node000022" class="node">
<title>Node22</title>
<g id="a_Node000022"><a xlink:href="classCommunicationStream.html#abc68c909fea5d149eba5ceca8dcf5894" target="_top" xlink:title="Updates the position of the currently displayed message to keep it centered.">
<polygon fill="white" stroke="#666666" points="602.88,-190.98 474.38,-190.98 474.38,-161.98 602.88,-161.98 602.88,-190.98"/>
<text text-anchor="start" x="482.38" y="-177.48" font-family="Helvetica,sans-Serif" font-size="10.00">CommunicationStream</text>
<text text-anchor="middle" x="538.62" y="-166.98" font-family="Helvetica,sans-Serif" font-size="10.00">::UpdateMessagePosition</text>
</a>
</g>
</g>
<!-- Node12&#45;&gt;Node22 -->
<g id="edge23_Node000012_Node000022" class="edge">
<title>Node12&#45;&gt;Node22</title>
<g id="a_edge23_Node000012_Node000022"><a xlink:title=" ">
<path fill="none" stroke="#63b8ff" d="M419.36,-208.61C436.09,-204.06 454.65,-199.02 472.02,-194.3"/>
<polygon fill="#63b8ff" stroke="#63b8ff" points="472.46,-197.81 481.19,-191.81 470.62,-191.05 472.46,-197.81"/>
</a>
</g>
</g>
<!-- Node23 -->
<g id="Node000023" class="node">
<title>Node23</title>
<g id="a_Node000023"><a xlink:href="classCommunicationStream.html#a1b1a57ca6f1ccaac8e413cacdd3e69f6" target="_top" xlink:title="Updates the visibility of the &quot;Next&quot; and &quot;Previous&quot; buttons on the currently displayed message based ...">
<polygon fill="#fff0f0" stroke="red" points="612.62,-144.23 464.62,-144.23 464.62,-104.73 612.62,-104.73 612.62,-144.23"/>
<text text-anchor="start" x="472.62" y="-130.73" font-family="Helvetica,sans-Serif" font-size="10.00">CommunicationStream</text>
<text text-anchor="start" x="472.62" y="-120.23" font-family="Helvetica,sans-Serif" font-size="10.00">::UpdateNavigationButtonsFor</text>
<text text-anchor="middle" x="538.62" y="-109.73" font-family="Helvetica,sans-Serif" font-size="10.00">CurrentMessage</text>
</a>
</g>
</g>
<!-- Node12&#45;&gt;Node23 -->
<g id="edge24_Node000012_Node000023" class="edge">
<title>Node12&#45;&gt;Node23</title>
<g id="a_edge24_Node000012_Node000023"><a xlink:title=" ">
<path fill="none" stroke="#63b8ff" d="M381.12,-208.76C399.31,-193.11 429.98,-168.48 459.75,-152.48 461.7,-151.43 463.69,-150.41 465.72,-149.41"/>
<polygon fill="#63b8ff" stroke="#63b8ff" points="467.08,-152.64 474.71,-145.28 464.16,-146.28 467.08,-152.64"/>
</a>
</g>
</g>
<!-- Node13&#45;&gt;Node2 -->
<g id="edge12_Node000013_Node000002" class="edge">
<title>Node13&#45;&gt;Node2</title>
<g id="a_edge12_Node000013_Node000002"><a xlink:title=" ">
<path fill="none" stroke="#63b8ff" d="M556.35,-408.19C577.7,-426.38 616.32,-457.4 653.5,-477.48 664.63,-483.49 677.26,-488.77 689.08,-493.12"/>
<polygon fill="#63b8ff" stroke="#63b8ff" points="687.62,-496.32 698.22,-496.35 689.95,-489.72 687.62,-496.32"/>
</a>
</g>
</g>
<!-- Node13&#45;&gt;Node3 -->
<g id="edge13_Node000013_Node000003" class="edge">
<title>Node13&#45;&gt;Node3</title>
<g id="a_edge13_Node000013_Node000003"><a xlink:title=" ">
<path fill="none" stroke="#63b8ff" d="M583.22,-408.45C616.2,-419.78 661.08,-435.2 692.85,-446.11"/>
<polygon fill="#63b8ff" stroke="#63b8ff" points="691.47,-449.34 702.07,-449.28 693.75,-442.72 691.47,-449.34"/>
</a>
</g>
</g>
<!-- Node13&#45;&gt;Node4 -->
<g id="edge14_Node000013_Node000004" class="edge">
<title>Node13&#45;&gt;Node4</title>
<g id="a_edge14_Node000013_Node000004"><a xlink:title=" ">
<path fill="none" stroke="#63b8ff" d="M611.44,-395.35C628.33,-395.78 646.28,-396.25 663.03,-396.69"/>
<polygon fill="#63b8ff" stroke="#63b8ff" points="662.8,-400.18 672.89,-396.94 662.98,-393.19 662.8,-400.18"/>
</a>
</g>
</g>
<!-- Node13&#45;&gt;Node10 -->
<g id="edge15_Node000013_Node000010" class="edge">
<title>Node13&#45;&gt;Node10</title>
<g id="a_edge15_Node000013_Node000010"><a xlink:title=" ">
<path fill="none" stroke="#63b8ff" d="M499.46,-378.54C439.85,-355.2 324.7,-310.13 259.23,-284.5"/>
<polygon fill="#63b8ff" stroke="#63b8ff" points="260.77,-281.35 250.19,-280.96 258.22,-287.87 260.77,-281.35"/>
</a>
</g>
</g>
<!-- Node13&#45;&gt;Node17 -->
<g id="edge16_Node000013_Node000017" class="edge">
<title>Node13&#45;&gt;Node17</title>
<g id="a_edge16_Node000013_Node000017"><a xlink:title=" ">
<path fill="none" stroke="#63b8ff" d="M591.93,-378.54C600.9,-374.73 609.81,-370.09 617.5,-364.48 662.64,-331.57 699.27,-276.26 718.06,-244.3"/>
<polygon fill="#63b8ff" stroke="#63b8ff" points="721.03,-246.15 722.98,-235.74 714.96,-242.67 721.03,-246.15"/>
</a>
</g>
</g>
<!-- Node17&#45;&gt;Node11 -->
<g id="edge17_Node000017_Node000011" class="edge">
<title>Node17&#45;&gt;Node11</title>
<g id="a_edge17_Node000017_Node000011"><a xlink:title=" ">
<path fill="none" stroke="#63b8ff" d="M749.41,-204.66C782.86,-173.03 861.45,-98.7 901.2,-61.11"/>
<polygon fill="#63b8ff" stroke="#63b8ff" points="903.56,-63.69 908.42,-54.28 898.75,-58.61 903.56,-63.69"/>
</a>
</g>
</g>
<!-- Node17&#45;&gt;Node12 -->
<g id="edge18_Node000017_Node000012" class="edge">
<title>Node17&#45;&gt;Node12</title>
<g id="a_edge18_Node000017_Node000012"><a xlink:title=" ">
<path fill="none" stroke="#63b8ff" d="M723.8,-204.76C707.9,-177.12 669.24,-118.16 617.5,-95.48 553.29,-67.33 522.39,-63.98 459.75,-95.48 417.01,-116.96 388.63,-167.75 374.7,-198.5"/>
<polygon fill="#63b8ff" stroke="#63b8ff" points="371.59,-196.88 370.82,-207.45 378.01,-199.66 371.59,-196.88"/>
</a>
</g>
</g>
</g>
</svg>

<g id="navigator" transform="translate(0 0)" fill="#404254">
  <rect fill="#f2f5e9" fill-opacity="0.5" stroke="#606060" stroke-width=".5" x="0" y="0" width="60" height="60"/>
  <use id="zoomplus" xlink:href="#zoomPlus" x="17" y="9" onmousedown="handleZoom(evt,'in')"/>
  <use id="zoomminus" xlink:href="#zoomMin" x="42" y="9" onmousedown="handleZoom(evt,'out')"/>
  <use id="reset" xlink:href="#resetDef" x="30" y="36" onmousedown="handleReset()"/>
   <use id="arrowup" xlink:href="#arrowUp" x="0" y="0" onmousedown="handlePan(0,-1)"/>
  <use id="arrowright" xlink:href="#arrowRight" x="0" y="0" onmousedown="handlePan(1,0)"/>
  <use id="arrowdown" xlink:href="#arrowDown" x="0" y="0" onmousedown="handlePan(0,1)"/>
  <use id="arrowleft" xlink:href="#arrowLeft" x="0" y="0" onmousedown="handlePan(-1,0)"/>
</g>
<svg viewBox="0 0 15 15" width="100%" height="30px" preserveAspectRatio="xMaxYMin meet">
 <g id="arrow_out" transform="scale(0.3 0.3)">
  <a xlink:href="classCommunicationStream_a8a07b470a5e55591ef90260ad5ec60da_cgraph_org.svg" target="_base">
   <rect id="button" ry="5" rx="5" y="6" x="6" height="38" width="38"
        fill="#f2f5e9" fill-opacity="0.5" stroke="#606060" stroke-width="1.0"/>
   <path id="arrow"
     d="M 11.500037,31.436501 C 11.940474,20.09759 22.043105,11.32322 32.158766,21.979434 L 37.068811,17.246167 C 37.068811,17.246167 37.088388,32 37.088388,32 L 22.160133,31.978069 C 22.160133,31.978069 26.997745,27.140456 26.997745,27.140456 C 18.528582,18.264221 13.291696,25.230495 11.500037,31.436501 z"
     style="fill:#404040;"/>
  </a>
 </g>
</svg>

<style type='text/css'>
<![CDATA[
[data-mouse-over-selected='false'] { opacity: 0.7; }
[data-mouse-over-selected='true']  { opacity: 1.0; }
]]>
</style>
<script type="application/ecmascript"><![CDATA[
document.addEventListener('DOMContentLoaded', (event) => {
  highlightEdges();
  highlightAdjacentNodes();
});
]]></script>
</svg>
