<?xml version="1.0" encoding="UTF-8" standalone="no"?>
<!DOCTYPE svg PUBLIC "-//W3C//DTD SVG 1.1//EN"
 "http://www.w3.org/Graphics/SVG/1.1/DTD/svg11.dtd">
<!-- Generated by graphviz version 12.2.1 (0)
 -->
<!-- Title: MessageService::SendPttRelease Pages: 1 -->
<svg width="637pt" height="105pt"
 viewBox="0.00 0.00 636.75 105.00" xmlns="http://www.w3.org/2000/svg" xmlns:xlink="http://www.w3.org/1999/xlink">
<g id="graph0" class="graph" transform="scale(1 1) rotate(0) translate(4 101)">
<title>MessageService::SendPttRelease</title>
<!-- Node1 -->
<g id="Node000001" class="node">
<title>Node1</title>
<g id="a_Node000001"><a xlink:title="Sends a Push&#45;to&#45;Talk (PTT) release message for the specified frequency. Constructs a JSON message of ...">
<polygon fill="#999999" stroke="#666666" points="166,-44.75 0,-44.75 0,-26.25 166,-26.25 166,-44.75"/>
<text text-anchor="middle" x="83" y="-31.25" font-family="Helvetica,sans-Serif" font-size="10.00">MessageService::SendPttRelease</text>
</a>
</g>
</g>
<!-- Node2 -->
<g id="Node000002" class="node">
<title>Node2</title>
<g id="a_Node000002"><a xlink:href="classMessageService.html#ac47c8ae3b3defb430c71fcc9b0636615" target="_top" xlink:title="Helper function to retrieve the active WebSocket connection for a given frequency....">
<polygon fill="white" stroke="#666666" points="343.25,-50 202,-50 202,-21 343.25,-21 343.25,-50"/>
<text text-anchor="start" x="210" y="-36.5" font-family="Helvetica,sans-Serif" font-size="10.00">MessageService::GetSocket</text>
<text text-anchor="middle" x="272.62" y="-26" font-family="Helvetica,sans-Serif" font-size="10.00">ForFrequency</text>
</a>
</g>
</g>
<!-- Node1&#45;&gt;Node2 -->
<g id="edge1_Node000001_Node000002" class="edge">
<title>Node1&#45;&gt;Node2</title>
<g id="a_edge1_Node000001_Node000002"><a xlink:title=" ">
<path fill="none" stroke="#63b8ff" d="M166.3,-35.5C174.23,-35.5 182.28,-35.5 190.21,-35.5"/>
<polygon fill="#63b8ff" stroke="#63b8ff" points="190.21,-39 200.21,-35.5 190.21,-32 190.21,-39"/>
</a>
</g>
</g>
<!-- Node3 -->
<g id="Node000003" class="node">
<title>Node3</title>
<g id="a_Node000003"><a xlink:href="classWavelengthRegistry.html#a84a25c38915431306681e96df429f20f" target="_top" xlink:title="Gets the singleton instance of the WavelengthRegistry.">
<polygon fill="white" stroke="#666666" points="483,-97 380,-97 380,-68 483,-68 483,-97"/>
<text text-anchor="start" x="388" y="-83.5" font-family="Helvetica,sans-Serif" font-size="10.00">WavelengthRegistry</text>
<text text-anchor="middle" x="431.5" y="-73" font-family="Helvetica,sans-Serif" font-size="10.00">::GetInstance</text>
</a>
</g>
</g>
<!-- Node2&#45;&gt;Node3 -->
<g id="edge2_Node000002_Node000003" class="edge">
<title>Node2&#45;&gt;Node3</title>
<g id="a_edge2_Node000002_Node000003"><a xlink:title=" ">
<path fill="none" stroke="#63b8ff" d="M323.26,-50.37C338,-54.79 354.31,-59.67 369.67,-64.27"/>
<polygon fill="#63b8ff" stroke="#63b8ff" points="368.61,-67.61 379.2,-67.13 370.62,-60.91 368.61,-67.61"/>
</a>
</g>
</g>
<!-- Node5 -->
<g id="Node000005" class="node">
<title>Node5</title>
<g id="a_Node000005"><a xlink:href="classWavelengthRegistry.html#a022bb5799d095b75026019791ebf5e34" target="_top" xlink:title="Retrieves the WavelengthInfo for a specific frequency.">
<polygon fill="white" stroke="#666666" points="483.75,-50 379.25,-50 379.25,-21 483.75,-21 483.75,-50"/>
<text text-anchor="start" x="387.25" y="-36.5" font-family="Helvetica,sans-Serif" font-size="10.00">WavelengthRegistry</text>
<text text-anchor="middle" x="431.5" y="-26" font-family="Helvetica,sans-Serif" font-size="10.00">::GetWavelengthInfo</text>
</a>
</g>
</g>
<!-- Node2&#45;&gt;Node5 -->
<g id="edge4_Node000002_Node000005" class="edge">
<title>Node2&#45;&gt;Node5</title>
<g id="a_edge4_Node000002_Node000005"><a xlink:title=" ">
<path fill="none" stroke="#63b8ff" d="M343.35,-35.5C351.37,-35.5 359.52,-35.5 367.46,-35.5"/>
<polygon fill="#63b8ff" stroke="#63b8ff" points="367.37,-39 377.37,-35.5 367.37,-32 367.37,-39"/>
</a>
</g>
</g>
<!-- Node6 -->
<g id="Node000006" class="node">
<title>Node6</title>
<g id="a_Node000006"><a xlink:href="classWavelengthRegistry.html#a998a355d30053edcff8aac04c7d7dc55" target="_top" xlink:title="Checks if a wavelength with the given frequency exists in the registry.">
<polygon fill="white" stroke="#666666" points="625.75,-29 522.75,-29 522.75,0 625.75,0 625.75,-29"/>
<text text-anchor="start" x="530.75" y="-15.5" font-family="Helvetica,sans-Serif" font-size="10.00">WavelengthRegistry</text>
<text text-anchor="middle" x="574.25" y="-5" font-family="Helvetica,sans-Serif" font-size="10.00">::HasWavelength</text>
</a>
</g>
</g>
<!-- Node2&#45;&gt;Node6 -->
<g id="edge6_Node000002_Node000006" class="edge">
<title>Node2&#45;&gt;Node6</title>
<g id="a_edge6_Node000002_Node000006"><a xlink:title=" ">
<path fill="none" stroke="#63b8ff" d="M331.65,-20.53C347.02,-17.21 363.67,-14.18 379.25,-12.5 425.43,-7.53 437.31,-11.98 483.75,-12.5 492.6,-12.6 501.94,-12.75 511.12,-12.93"/>
<polygon fill="#63b8ff" stroke="#63b8ff" points="511.02,-16.43 521.09,-13.14 511.17,-9.43 511.02,-16.43"/>
</a>
</g>
</g>
<!-- Node4 -->
<g id="Node000004" class="node">
<title>Node4</title>
<g id="a_Node000004"><a xlink:href="classWavelengthRegistry.html#a5ad0b9c059e6c70af54fd27e35035e64" target="_top" xlink:title="Private constructor to enforce the singleton pattern. Initializes active_wavelength_ to &quot;&#45;1&quot;.">
<polygon fill="white" stroke="#666666" points="628.75,-97 519.75,-97 519.75,-68 628.75,-68 628.75,-97"/>
<text text-anchor="start" x="527.75" y="-83.5" font-family="Helvetica,sans-Serif" font-size="10.00">WavelengthRegistry</text>
<text text-anchor="middle" x="574.25" y="-73" font-family="Helvetica,sans-Serif" font-size="10.00">::WavelengthRegistry</text>
</a>
</g>
</g>
<!-- Node3&#45;&gt;Node4 -->
<g id="edge3_Node000003_Node000004" class="edge">
<title>Node3&#45;&gt;Node4</title>
<g id="a_edge3_Node000003_Node000004"><a xlink:title=" ">
<path fill="none" stroke="#63b8ff" d="M483.31,-82.5C491.43,-82.5 499.93,-82.5 508.33,-82.5"/>
<polygon fill="#63b8ff" stroke="#63b8ff" points="508.15,-86 518.15,-82.5 508.15,-79 508.15,-86"/>
</a>
</g>
</g>
<!-- Node5&#45;&gt;Node6 -->
<g id="edge5_Node000005_Node000006" class="edge">
<title>Node5&#45;&gt;Node6</title>
<g id="a_edge5_Node000005_Node000006"><a xlink:title=" ">
<path fill="none" stroke="#63b8ff" d="M484.11,-27.8C492.94,-26.48 502.19,-25.1 511.25,-23.75"/>
<polygon fill="#63b8ff" stroke="#63b8ff" points="511.71,-27.22 521.09,-22.28 510.68,-20.3 511.71,-27.22"/>
</a>
</g>
</g>
</g>
</svg>
