<?xml version="1.0" encoding="UTF-8" standalone="no"?>
<!DOCTYPE svg PUBLIC "-//W3C//DTD SVG 1.1//EN"
 "http://www.w3.org/Graphics/SVG/1.1/DTD/svg11.dtd">
<!-- Generated by graphviz version 12.2.1 (0)
 -->
<!-- Title: StreamMessage::AddAttachment Pages: 1 -->
<svg width="558pt" height="171pt"
 viewBox="0.00 0.00 557.75 170.50" xmlns="http://www.w3.org/2000/svg" xmlns:xlink="http://www.w3.org/1999/xlink">
<g id="graph0" class="graph" transform="scale(1 1) rotate(0) translate(4 166.5)">
<title>StreamMessage::AddAttachment</title>
<!-- Node1 -->
<g id="Node000001" class="node">
<title>Node1</title>
<g id="a_Node000001"><a xlink:title="Parses HTML content to find an attachment placeholder and adds the corresponding AttachmentPlaceholde...">
<polygon fill="#999999" stroke="#666666" points="160.75,-76.5 0,-76.5 0,-58 160.75,-58 160.75,-76.5"/>
<text text-anchor="middle" x="80.38" y="-63" font-family="Helvetica,sans-Serif" font-size="10.00">StreamMessage::AddAttachment</text>
</a>
</g>
</g>
<!-- Node2 -->
<g id="Node000002" class="node">
<title>Node2</title>
<g id="a_Node000002"><a xlink:href="classStreamMessage.html#a1a3ebf623b6477e510efeab5af62f390" target="_top" xlink:title="Adjusts the size of the message widget to fit its content, especially after an attachment has loaded....">
<polygon fill="white" stroke="#666666" points="348.5,-149.75 208.75,-149.75 208.75,-120.75 348.5,-120.75 348.5,-149.75"/>
<text text-anchor="start" x="216.75" y="-136.25" font-family="Helvetica,sans-Serif" font-size="10.00">StreamMessage::AdjustSize</text>
<text text-anchor="middle" x="278.62" y="-125.75" font-family="Helvetica,sans-Serif" font-size="10.00">ToContent</text>
</a>
</g>
</g>
<!-- Node1&#45;&gt;Node2 -->
<g id="edge1_Node000001_Node000002" class="edge">
<title>Node1&#45;&gt;Node2</title>
<g id="a_edge1_Node000001_Node000002"><a xlink:title=" ">
<path fill="none" stroke="#63b8ff" d="M104.13,-76.86C127.23,-86.45 164.15,-101.28 196.75,-112.25 201.68,-113.91 206.8,-115.55 211.97,-117.15"/>
<polygon fill="#63b8ff" stroke="#63b8ff" points="210.56,-120.38 221.15,-119.92 212.59,-113.68 210.56,-120.38"/>
</a>
</g>
</g>
<!-- Node5 -->
<g id="Node000005" class="node">
<title>Node5</title>
<g id="a_Node000005"><a xlink:href="classAttachmentPlaceholder.html#ab83f0cf3a4db5e16cc136fa515d91a75" target="_top" xlink:title="Emitted after the attachment content has been successfully loaded, set, and the layout updated.">
<polygon fill="white" stroke="#666666" points="337.25,-102.75 220,-102.75 220,-73.75 337.25,-73.75 337.25,-102.75"/>
<text text-anchor="start" x="228" y="-89.25" font-family="Helvetica,sans-Serif" font-size="10.00">AttachmentPlaceholder</text>
<text text-anchor="middle" x="278.62" y="-78.75" font-family="Helvetica,sans-Serif" font-size="10.00">::attachmentLoaded</text>
</a>
</g>
</g>
<!-- Node1&#45;&gt;Node5 -->
<g id="edge4_Node000001_Node000005" class="edge">
<title>Node1&#45;&gt;Node5</title>
<g id="a_edge4_Node000001_Node000005"><a xlink:title=" ">
<path fill="none" stroke="#63b8ff" d="M161.2,-75.79C176.76,-77.46 192.95,-79.19 208.15,-80.82"/>
<polygon fill="#63b8ff" stroke="#63b8ff" points="207.72,-84.29 218.04,-81.87 208.46,-77.33 207.72,-84.29"/>
</a>
</g>
</g>
<!-- Node6 -->
<g id="Node000006" class="node">
<title>Node6</title>
<g id="a_Node000006"><a xlink:href="classStreamMessage.html#a59f8dedec8dffa79dad2b202ddd8dbf6" target="_top" xlink:title="Cleans the message content by removing HTML tags and placeholders, and decoding HTML entities....">
<polygon fill="white" stroke="#666666" points="360.5,-55.5 196.75,-55.5 196.75,-37 360.5,-37 360.5,-55.5"/>
<text text-anchor="middle" x="278.62" y="-42" font-family="Helvetica,sans-Serif" font-size="10.00">StreamMessage::CleanupContent</text>
</a>
</g>
</g>
<!-- Node1&#45;&gt;Node6 -->
<g id="edge5_Node000001_Node000006" class="edge">
<title>Node1&#45;&gt;Node6</title>
<g id="a_edge5_Node000001_Node000006"><a xlink:title=" ">
<path fill="none" stroke="#63b8ff" d="M161.2,-58.71C169.06,-57.87 177.08,-57.01 185.06,-56.16"/>
<polygon fill="#63b8ff" stroke="#63b8ff" points="185.2,-59.66 194.77,-55.12 184.46,-52.7 185.2,-59.66"/>
</a>
</g>
</g>
<!-- Node7 -->
<g id="Node000007" class="node">
<title>Node7</title>
<g id="a_Node000007"><a xlink:href="classStreamMessage.html#a7b45f69684874de644b83da9078864eb" target="_top" xlink:title="Static utility function to extract the value of an HTML attribute from a string.">
<polygon fill="white" stroke="#666666" points="359.38,-18.5 197.88,-18.5 197.88,0 359.38,0 359.38,-18.5"/>
<text text-anchor="middle" x="278.62" y="-5" font-family="Helvetica,sans-Serif" font-size="10.00">StreamMessage::ExtractAttribute</text>
</a>
</g>
</g>
<!-- Node1&#45;&gt;Node7 -->
<g id="edge6_Node000001_Node000007" class="edge">
<title>Node1&#45;&gt;Node7</title>
<g id="a_edge6_Node000001_Node000007"><a xlink:title=" ">
<path fill="none" stroke="#63b8ff" d="M107.73,-57.54C130.97,-49.17 165.85,-37.08 196.75,-28.25 204.85,-25.94 213.46,-23.69 221.93,-21.6"/>
<polygon fill="#63b8ff" stroke="#63b8ff" points="222.56,-25.05 231.46,-19.3 220.92,-18.24 222.56,-25.05"/>
</a>
</g>
</g>
<!-- Node3 -->
<g id="Node000003" class="node">
<title>Node3</title>
<g id="a_Node000003"><a xlink:href="classAttachmentViewer.html#a8e9e8d50bde441b62f513f5f4d6100c9" target="_top" xlink:title="Returns the recommended size for the viewer based on its content and layout. Calculates the size need...">
<polygon fill="white" stroke="#666666" points="541.5,-162.5 404.75,-162.5 404.75,-144 541.5,-144 541.5,-162.5"/>
<text text-anchor="middle" x="473.12" y="-149" font-family="Helvetica,sans-Serif" font-size="10.00">AttachmentViewer::sizeHint</text>
</a>
</g>
</g>
<!-- Node2&#45;&gt;Node3 -->
<g id="edge2_Node000002_Node000003" class="edge">
<title>Node2&#45;&gt;Node3</title>
<g id="a_edge2_Node000002_Node000003"><a xlink:title=" ">
<path fill="none" stroke="#63b8ff" d="M348.85,-141.72C363.28,-143.07 378.59,-144.5 393.34,-145.88"/>
<polygon fill="#63b8ff" stroke="#63b8ff" points="392.69,-149.34 402.97,-146.78 393.34,-142.37 392.69,-149.34"/>
</a>
</g>
</g>
<!-- Node4 -->
<g id="Node000004" class="node">
<title>Node4</title>
<g id="a_Node000004"><a xlink:href="classStreamMessage.html#a520ebf30923492083e94819640a79323" target="_top" xlink:title="Updates the position of the navigation and mark read buttons based on the widget&#39;s current size.">
<polygon fill="white" stroke="#666666" points="549.75,-125.5 396.5,-125.5 396.5,-107 549.75,-107 549.75,-125.5"/>
<text text-anchor="middle" x="473.12" y="-112" font-family="Helvetica,sans-Serif" font-size="10.00">StreamMessage::UpdateLayout</text>
</a>
</g>
</g>
<!-- Node2&#45;&gt;Node4 -->
<g id="edge3_Node000002_Node000004" class="edge">
<title>Node2&#45;&gt;Node4</title>
<g id="a_edge3_Node000002_Node000004"><a xlink:title=" ">
<path fill="none" stroke="#63b8ff" d="M348.85,-128.42C360.45,-127.27 372.62,-126.07 384.6,-124.89"/>
<polygon fill="#63b8ff" stroke="#63b8ff" points="384.9,-128.38 394.51,-123.91 384.22,-121.41 384.9,-128.38"/>
</a>
</g>
</g>
</g>
</svg>
