<?xml version="1.0" encoding="UTF-8" standalone="no"?>
<!DOCTYPE svg PUBLIC "-//W3C//DTD SVG 1.1//EN"
 "http://www.w3.org/Graphics/SVG/1.1/DTD/svg11.dtd">
<!-- Generated by graphviz version 12.2.1 (0)
 -->
<!-- Title: VideoDecoder::positionChanged Pages: 1 -->
<svg width="680pt" height="106pt"
 viewBox="0.00 0.00 680.25 105.75" xmlns="http://www.w3.org/2000/svg" xmlns:xlink="http://www.w3.org/1999/xlink">
<g id="graph0" class="graph" transform="scale(1 1) rotate(0) translate(4 101.75)">
<title>VideoDecoder::positionChanged</title>
<!-- Node1 -->
<g id="Node000001" class="node">
<title>Node1</title>
<g id="a_Node000001"><a xlink:title="Emitted periodically during playback to indicate the current position (based on audio if available,...">
<polygon fill="#999999" stroke="#666666" points="672.25,-44.75 516,-44.75 516,-26.25 672.25,-26.25 672.25,-44.75"/>
<text text-anchor="middle" x="594.12" y="-31.25" font-family="Helvetica,sans-Serif" font-size="10.00">VideoDecoder::positionChanged</text>
</a>
</g>
</g>
<!-- Node2 -->
<g id="Node000002" class="node">
<title>Node2</title>
<g id="a_Node000002"><a xlink:href="classVideoPlayer.html#a6f8d803263d342bf12f9cf29c40536de" target="_top" xlink:title="Initializes the VideoDecoder instance and connects its signals. Creates the decoder,...">
<polygon fill="white" stroke="#666666" points="478.12,-65.75 342.12,-65.75 342.12,-47.25 478.12,-47.25 478.12,-65.75"/>
<text text-anchor="middle" x="410.12" y="-52.25" font-family="Helvetica,sans-Serif" font-size="10.00">VideoPlayer::InitializePlayer</text>
</a>
</g>
</g>
<!-- Node1&#45;&gt;Node2 -->
<g id="edge1_Node000001_Node000002" class="edge">
<title>Node1&#45;&gt;Node2</title>
<g id="a_edge1_Node000001_Node000002"><a xlink:title=" ">
<path fill="none" stroke="#63b8ff" d="M504.29,-45.75C495.59,-46.75 486.87,-47.76 478.44,-48.73"/>
<polygon fill="#63b8ff" stroke="#63b8ff" points="504.64,-49.23 514.17,-44.61 503.84,-42.28 504.64,-49.23"/>
</a>
</g>
</g>
<!-- Node5 -->
<g id="Node000005" class="node">
<title>Node5</title>
<g id="a_Node000005"><a xlink:href="classVideoDecoder.html#aef861f701b488c253cb44f72eeb93831" target="_top" xlink:title="Slot connected to the internal AudioDecoder&#39;s positionChanged signal. Updates the internal current_au...">
<polygon fill="white" stroke="#666666" points="480,-29 340.25,-29 340.25,0 480,0 480,-29"/>
<text text-anchor="start" x="348.25" y="-15.5" font-family="Helvetica,sans-Serif" font-size="10.00">VideoDecoder::UpdateAudio</text>
<text text-anchor="middle" x="410.12" y="-5" font-family="Helvetica,sans-Serif" font-size="10.00">Position</text>
</a>
</g>
</g>
<!-- Node1&#45;&gt;Node5 -->
<g id="edge5_Node000001_Node000005" class="edge">
<title>Node1&#45;&gt;Node5</title>
<g id="a_edge5_Node000001_Node000005"><a xlink:title=" ">
<path fill="none" stroke="#63b8ff" d="M504.36,-25.26C496.32,-24.33 488.27,-23.4 480.44,-22.5"/>
<polygon fill="#63b8ff" stroke="#63b8ff" points="503.84,-28.72 514.17,-26.39 504.64,-21.77 503.84,-28.72"/>
</a>
</g>
</g>
<!-- Node3 -->
<g id="Node000003" class="node">
<title>Node3</title>
<g id="a_Node000003"><a xlink:href="classVideoPlayer.html#aee93bdf909227c7d4f7c48eca8874af6" target="_top" xlink:title="Toggles the playback state (play/pause) or resets if finished. If finished, resets the decoder....">
<polygon fill="white" stroke="#666666" points="304.25,-97.75 161.5,-97.75 161.5,-79.25 304.25,-79.25 304.25,-97.75"/>
<text text-anchor="middle" x="232.88" y="-84.25" font-family="Helvetica,sans-Serif" font-size="10.00">VideoPlayer::TogglePlayback</text>
</a>
</g>
</g>
<!-- Node2&#45;&gt;Node3 -->
<g id="edge2_Node000002_Node000003" class="edge">
<title>Node2&#45;&gt;Node3</title>
<g id="a_edge2_Node000002_Node000003"><a xlink:title=" ">
<path fill="none" stroke="#63b8ff" d="M344.8,-68.25C325.81,-71.71 305.25,-75.47 287.05,-78.79"/>
<polygon fill="#63b8ff" stroke="#63b8ff" points="345.37,-71.7 354.58,-66.46 344.11,-64.81 345.37,-71.7"/>
</a>
</g>
</g>
<!-- Node4 -->
<g id="Node000004" class="node">
<title>Node4</title>
<g id="a_Node000004"><a xlink:href="classVideoPlayer.html#a6ee50b34775069f86b0cace600c3923c" target="_top" xlink:title="Constructs a VideoPlayerOverlay dialog. Initializes the cyberpunk UI elements, sets window properties...">
<polygon fill="white" stroke="#666666" points="125.5,-78.75 0,-78.75 0,-60.25 125.5,-60.25 125.5,-78.75"/>
<text text-anchor="middle" x="62.75" y="-65.25" font-family="Helvetica,sans-Serif" font-size="10.00">VideoPlayer::VideoPlayer</text>
</a>
</g>
</g>
<!-- Node2&#45;&gt;Node4 -->
<g id="edge4_Node000002_Node000004" class="edge">
<title>Node2&#45;&gt;Node4</title>
<g id="a_edge4_Node000002_Node000004"><a xlink:title=" ">
<path fill="none" stroke="#63b8ff" d="M330.41,-59.46C268.36,-61.8 183.04,-65.01 125.77,-67.17"/>
<polygon fill="#63b8ff" stroke="#63b8ff" points="330.34,-62.97 340.2,-59.09 330.08,-55.97 330.34,-62.97"/>
</a>
</g>
</g>
<!-- Node3&#45;&gt;Node4 -->
<g id="edge3_Node000003_Node000004" class="edge">
<title>Node3&#45;&gt;Node4</title>
<g id="a_edge3_Node000003_Node000004"><a xlink:title=" ">
<path fill="none" stroke="#63b8ff" d="M149.77,-79.22C141.76,-78.32 133.72,-77.41 125.94,-76.53"/>
<polygon fill="#63b8ff" stroke="#63b8ff" points="149.23,-82.68 159.56,-80.33 150.01,-75.73 149.23,-82.68"/>
</a>
</g>
</g>
<!-- Node6 -->
<g id="Node000006" class="node">
<title>Node6</title>
<g id="a_Node000006"><a xlink:href="classVideoDecoder.html#aa8f8aabbe65727acd5ef5cfdc5f3b69b" target="_top" xlink:title="Initializes the FFmpeg components for decoding the video and potentially audio. Opens the input strea...">
<polygon fill="white" stroke="#666666" points="292.25,-23.75 173.5,-23.75 173.5,-5.25 292.25,-5.25 292.25,-23.75"/>
<text text-anchor="middle" x="232.88" y="-10.25" font-family="Helvetica,sans-Serif" font-size="10.00">VideoDecoder::Initialize</text>
</a>
</g>
</g>
<!-- Node5&#45;&gt;Node6 -->
<g id="edge6_Node000005_Node000006" class="edge">
<title>Node5&#45;&gt;Node6</title>
<g id="a_edge6_Node000005_Node000006"><a xlink:title=" ">
<path fill="none" stroke="#63b8ff" d="M328.42,-14.5C316.39,-14.5 304.2,-14.5 292.74,-14.5"/>
<polygon fill="#63b8ff" stroke="#63b8ff" points="328.35,-18 338.35,-14.5 328.35,-11 328.35,-18"/>
</a>
</g>
</g>
<!-- Node7 -->
<g id="Node000007" class="node">
<title>Node7</title>
<g id="a_Node000007"><a xlink:href="classVideoDecoder.html#a134b48e98d0b9db4011cfea08d0924da" target="_top" xlink:title="The main function executed by the QThread. Contains the loop that reads packets, decodes video frames...">
<polygon fill="white" stroke="#666666" points="111.25,-23.75 14.25,-23.75 14.25,-5.25 111.25,-5.25 111.25,-23.75"/>
<text text-anchor="middle" x="62.75" y="-10.25" font-family="Helvetica,sans-Serif" font-size="10.00">VideoDecoder::run</text>
</a>
</g>
</g>
<!-- Node6&#45;&gt;Node7 -->
<g id="edge7_Node000006_Node000007" class="edge">
<title>Node6&#45;&gt;Node7</title>
<g id="a_edge7_Node000006_Node000007"><a xlink:title=" ">
<path fill="none" stroke="#63b8ff" d="M161.59,-14.5C144.78,-14.5 127.22,-14.5 111.69,-14.5"/>
<polygon fill="#63b8ff" stroke="#63b8ff" points="161.56,-18 171.56,-14.5 161.56,-11 161.56,-18"/>
</a>
</g>
</g>
</g>
</svg>
