<?xml version="1.0" encoding="UTF-8" standalone="no"?>
<!DOCTYPE svg PUBLIC "-//W3C//DTD SVG 1.1//EN"
 "http://www.w3.org/Graphics/SVG/1.1/DTD/svg11.dtd">
<!-- Generated by graphviz version 12.2.1 (0)
 -->
<!-- Title: WavelengthRegistry::GetWavelengthInfo Pages: 1 -->
<!--zoomable 694 -->

<svg id="main" version="1.1" xmlns="http://www.w3.org/2000/svg" xmlns:xlink="http://www.w3.org/1999/xlink" xml:space="preserve" onload="init(evt)">

<style type="text/css"><![CDATA[
.node, .edge {opacity: 0.7;}
.node.selected, .edge.selected {opacity: 1;}
.edge:hover path { stroke: red; }
.edge:hover polygon { stroke: red; fill: red; }
]]></style>

<defs>
  <circle id="rim" cx="0" cy="0" r="7"/>
  <circle id="rim2" cx="0" cy="0" r="3.5"/>
  <g id="zoomPlus">
    <use xlink:href="#rim" fill="#404040"><set attributeName="fill" to="#808080" begin="zoomplus.mouseover" end="zoomplus.mouseout"/></use>
    <path d="M-4,0h8M0,-4v8" fill="none" stroke="white" stroke-width="1.5" pointer-events="none"/>
  </g>
  <g id="zoomMin">
    <use xlink:href="#rim" fill="#404040"><set attributeName="fill" to="#808080" begin="zoomminus.mouseover" end="zoomminus.mouseout"/></use>
    <path d="M-4,0h8" fill="none" stroke="white" stroke-width="1.5" pointer-events="none"/>
  </g>
  <g id="arrowUp" transform="translate(30 24)">
    <use xlink:href="#rim"/>
    <path pointer-events="none" fill="none" stroke="white" stroke-width="1.5" d="M0,-3.0v7 M-2.5,-0.5L0,-3.0L2.5,-0.5"/>
  </g>
  <g id="arrowRight" transform="rotate(90) translate(36 -43)">
    <use xlink:href="#rim"/>
    <path pointer-events="none" fill="none" stroke="white" stroke-width="1.5" d="M0,-3.0v7 M-2.5,-0.5L0,-3.0L2.5,-0.5"/>
  </g>
  <g id="arrowDown" transform="rotate(180) translate(-30 -48)">
    <use xlink:href="#rim"/>
    <path pointer-events="none" fill="none" stroke="white" stroke-width="1.5" d="M0,-3.0v7 M-2.5,-0.5L0,-3.0L2.5,-0.5"/>
  </g>
  <g id="arrowLeft" transform="rotate(270) translate(-36 17)">
    <use xlink:href="#rim"/>
    <path pointer-events="none" fill="none" stroke="white" stroke-width="1.5" d="M0,-3.0v7 M-2.5,-0.5L0,-3.0L2.5,-0.5"/>
  </g>
  <g id="resetDef">
    <use xlink:href="#rim2" fill="#404040"><set attributeName="fill" to="#808080" begin="reset.mouseover" end="reset.mouseout"/></use>
  </g>
</defs>
<script type="application/ecmascript">
var viewWidth = 874;
var viewHeight = 694;
var sectionId = 'dynsection-14';
</script>
<script type="application/ecmascript" xlink:href="svg.min.js"/>
<svg id="graph" class="graph">
<g id="viewport">
<title>WavelengthRegistry::GetWavelengthInfo</title>
<!-- Node1 -->
<g id="Node000001" class="node">
<title>Node1</title>
<g id="a_Node000001"><a xlink:title="Retrieves the WavelengthInfo for a specific frequency.">
<polygon fill="#999999" stroke="#666666" points="866,-218 761.5,-218 761.5,-189 866,-189 866,-218"/>
<text text-anchor="start" x="769.5" y="-204.5" font-family="Helvetica,sans-Serif" font-size="10.00">WavelengthRegistry</text>
<text text-anchor="middle" x="813.75" y="-194" font-family="Helvetica,sans-Serif" font-size="10.00">::GetWavelengthInfo</text>
</a>
</g>
</g>
<!-- Node2 -->
<g id="Node000002" class="node">
<title>Node2</title>
<g id="a_Node000002"><a xlink:href="classWavelengthLeaver.html#af9c574c0d19226e480a7af8edd48f759" target="_top" xlink:title="Closes a specific wavelength (only if the current user is the host). Checks if the user is the host f...">
<polygon fill="white" stroke="#666666" points="725.5,-23.75 549,-23.75 549,-5.25 725.5,-5.25 725.5,-23.75"/>
<text text-anchor="middle" x="637.25" y="-10.25" font-family="Helvetica,sans-Serif" font-size="10.00">WavelengthLeaver::CloseWavelength</text>
</a>
</g>
</g>
<!-- Node1&#45;&gt;Node2 -->
<g id="edge1_Node000001_Node000002" class="edge">
<title>Node1&#45;&gt;Node2</title>
<g id="a_edge1_Node000001_Node000002"><a xlink:title=" ">
<path fill="none" stroke="#63b8ff" d="M806.99,-177.93C797.1,-140.21 773.2,-70.18 725.5,-33.5 720.58,-29.72 715.07,-26.66 709.28,-24.18"/>
<polygon fill="#63b8ff" stroke="#63b8ff" points="803.55,-178.62 809.35,-187.49 810.35,-176.94 803.55,-178.62"/>
</a>
</g>
</g>
<!-- Node6 -->
<g id="Node000006" class="node">
<title>Node6</title>
<g id="a_Node000006"><a xlink:href="classWavelengthCreator.html#aceda419aab0bae7f3323bedfcb0ad6d1" target="_top" xlink:title="Attempts to create and register a new wavelength with the relay server. Checks if the wavelength alre...">
<polygon fill="white" stroke="#666666" points="689.5,-613 585,-613 585,-584 689.5,-584 689.5,-613"/>
<text text-anchor="start" x="593" y="-599.5" font-family="Helvetica,sans-Serif" font-size="10.00">WavelengthCreator::</text>
<text text-anchor="middle" x="637.25" y="-589" font-family="Helvetica,sans-Serif" font-size="10.00">CreateWavelength</text>
</a>
</g>
</g>
<!-- Node1&#45;&gt;Node6 -->
<g id="edge5_Node000001_Node000006" class="edge">
<title>Node1&#45;&gt;Node6</title>
<g id="a_edge5_Node000001_Node000006"><a xlink:title=" ">
<path fill="none" stroke="#63b8ff" d="M812.24,-229.72C809.83,-290.32 796.58,-442.43 725.5,-541.5 712.21,-560.02 690.87,-574.12 672.62,-583.66"/>
<polygon fill="#63b8ff" stroke="#63b8ff" points="815.74,-229.85 812.56,-219.75 808.74,-229.63 815.74,-229.85"/>
</a>
</g>
</g>
<!-- Node8 -->
<g id="Node000008" class="node">
<title>Node8</title>
<g id="a_Node000008"><a xlink:href="classMessageFormatter.html#af3a717bfa398187a653410d3febeb9cb" target="_top" xlink:title="Formats a message represented by a JSON object into an HTML string.">
<polygon fill="white" stroke="#666666" points="704.5,-677 570,-677 570,-648 704.5,-648 704.5,-677"/>
<text text-anchor="start" x="578" y="-663.5" font-family="Helvetica,sans-Serif" font-size="10.00">MessageFormatter::Format</text>
<text text-anchor="middle" x="637.25" y="-653" font-family="Helvetica,sans-Serif" font-size="10.00">Message</text>
</a>
</g>
</g>
<!-- Node1&#45;&gt;Node8 -->
<g id="edge7_Node000001_Node000008" class="edge">
<title>Node1&#45;&gt;Node8</title>
<g id="a_edge7_Node000001_Node000008"><a xlink:title=" ">
<path fill="none" stroke="#63b8ff" d="M810.37,-229.68C802.49,-311.5 774.85,-560.61 725.5,-622.5 716.67,-633.57 704.08,-641.7 691.21,-647.62"/>
<polygon fill="#63b8ff" stroke="#63b8ff" points="813.84,-230.24 811.29,-219.96 806.87,-229.59 813.84,-230.24"/>
</a>
</g>
</g>
<!-- Node16 -->
<g id="Node000016" class="node">
<title>Node16</title>
<g id="a_Node000016"><a xlink:href="classMessageService.html#ac47c8ae3b3defb430c71fcc9b0636615" target="_top" xlink:title="Helper function to retrieve the active WebSocket connection for a given frequency....">
<polygon fill="white" stroke="#666666" points="707.88,-532 566.62,-532 566.62,-503 707.88,-503 707.88,-532"/>
<text text-anchor="start" x="574.62" y="-518.5" font-family="Helvetica,sans-Serif" font-size="10.00">MessageService::GetSocket</text>
<text text-anchor="middle" x="637.25" y="-508" font-family="Helvetica,sans-Serif" font-size="10.00">ForFrequency</text>
</a>
</g>
</g>
<!-- Node1&#45;&gt;Node16 -->
<g id="edge10_Node000001_Node000016" class="edge">
<title>Node1&#45;&gt;Node16</title>
<g id="a_edge10_Node000001_Node000016"><a xlink:title=" ">
<path fill="none" stroke="#63b8ff" d="M799.15,-227.97C764.58,-290.18 674.1,-453 646.41,-502.81"/>
<polygon fill="#63b8ff" stroke="#63b8ff" points="802.03,-229.99 803.83,-219.55 795.92,-226.59 802.03,-229.99"/>
</a>
</g>
</g>
<!-- Node25 -->
<g id="Node000025" class="node">
<title>Node25</title>
<g id="a_Node000025"><a xlink:href="classWavelengthStateManager.html#af929daf75947f30826d1f7b192f3f1b3" target="_top" xlink:title="Retrieves detailed information about a specific wavelength from the registry.">
<polygon fill="white" stroke="#666666" points="700.75,-340 573.75,-340 573.75,-311 700.75,-311 700.75,-340"/>
<text text-anchor="start" x="581.75" y="-326.5" font-family="Helvetica,sans-Serif" font-size="10.00">WavelengthStateManager</text>
<text text-anchor="middle" x="637.25" y="-316" font-family="Helvetica,sans-Serif" font-size="10.00">::GetWavelengthInfo</text>
</a>
</g>
</g>
<!-- Node1&#45;&gt;Node25 -->
<g id="edge18_Node000001_Node000025" class="edge">
<title>Node1&#45;&gt;Node25</title>
<g id="a_edge18_Node000001_Node000025"><a xlink:title=" ">
<path fill="none" stroke="#63b8ff" d="M782.05,-224.97C746.88,-249.55 690.19,-289.19 659.55,-310.61"/>
<polygon fill="#63b8ff" stroke="#63b8ff" points="783.92,-227.93 790.11,-219.33 779.91,-222.19 783.92,-227.93"/>
</a>
</g>
</g>
<!-- Node36 -->
<g id="Node000036" class="node">
<title>Node36</title>
<g id="a_Node000036"><a xlink:href="classMessageService.html#a4396f2ede94cf2d9a36cf51407db7e14" target="_top" xlink:title="Slot connected to the sendJsonViaSocket signal. Performs the actual sending of a JSON message....">
<polygon fill="white" stroke="#666666" points="711.62,-118 562.88,-118 562.88,-89 711.62,-89 711.62,-118"/>
<text text-anchor="start" x="570.88" y="-104.5" font-family="Helvetica,sans-Serif" font-size="10.00">MessageService::HandleSend</text>
<text text-anchor="middle" x="637.25" y="-94" font-family="Helvetica,sans-Serif" font-size="10.00">JsonViaSocket</text>
</a>
</g>
</g>
<!-- Node1&#45;&gt;Node36 -->
<g id="edge30_Node000001_Node000036" class="edge">
<title>Node1&#45;&gt;Node36</title>
<g id="a_edge30_Node000001_Node000036"><a xlink:title=" ">
<path fill="none" stroke="#63b8ff" d="M791.87,-180.41C775.38,-163.49 750.97,-141.17 725.5,-127.5 718.99,-124.01 711.94,-120.99 704.75,-118.39"/>
<polygon fill="#63b8ff" stroke="#63b8ff" points="789.27,-182.76 798.69,-187.6 794.34,-177.94 789.27,-182.76"/>
</a>
</g>
</g>
<!-- Node12 -->
<g id="Node000012" class="node">
<title>Node12</title>
<g id="a_Node000012"><a xlink:href="classWavelengthJoiner.html#a10830ee7f998cc18b6df1949455ae98e" target="_top" xlink:title="Attempts to join an existing wavelength hosted on the relay server. Checks if the wavelength is alrea...">
<polygon fill="#fff0f0" stroke="red" points="720.62,-154.75 553.88,-154.75 553.88,-136.25 720.62,-136.25 720.62,-154.75"/>
<text text-anchor="middle" x="637.25" y="-141.25" font-family="Helvetica,sans-Serif" font-size="10.00">WavelengthJoiner::JoinWavelength</text>
</a>
</g>
</g>
<!-- Node1&#45;&gt;Node12 -->
<g id="edge32_Node000001_Node000012" class="edge">
<title>Node1&#45;&gt;Node12</title>
<g id="a_edge32_Node000001_Node000012"><a xlink:title=" ">
<path fill="none" stroke="#63b8ff" d="M773.21,-183.75C758.49,-176.96 741.48,-169.75 725.5,-164.5 714.6,-160.92 702.71,-157.82 691.32,-155.23"/>
<polygon fill="#63b8ff" stroke="#63b8ff" points="771.56,-186.85 782.1,-187.94 774.55,-180.51 771.56,-186.85"/>
</a>
</g>
</g>
<!-- Node38 -->
<g id="Node000038" class="node">
<title>Node38</title>
<g id="a_Node000038"><a xlink:href="classWavelengthLeaver.html#a11a552cbede70a46b0f5cb9a509328d7" target="_top" xlink:title="Leaves the currently active wavelength. Retrieves the active frequency from the registry....">
<polygon fill="white" stroke="#666666" points="725.5,-191.75 549,-191.75 549,-173.25 725.5,-173.25 725.5,-191.75"/>
<text text-anchor="middle" x="637.25" y="-178.25" font-family="Helvetica,sans-Serif" font-size="10.00">WavelengthLeaver::LeaveWavelength</text>
</a>
</g>
</g>
<!-- Node1&#45;&gt;Node38 -->
<g id="edge33_Node000001_Node000038" class="edge">
<title>Node1&#45;&gt;Node38</title>
<g id="a_edge33_Node000001_Node000038"><a xlink:title=" ">
<path fill="none" stroke="#63b8ff" d="M750.18,-195.97C740.1,-194.76 729.53,-193.48 719.08,-192.23"/>
<polygon fill="#63b8ff" stroke="#63b8ff" points="749.49,-199.41 759.84,-197.13 750.33,-192.46 749.49,-199.41"/>
</a>
</g>
</g>
<!-- Node40 -->
<g id="Node000040" class="node">
<title>Node40</title>
<g id="a_Node000040"><a xlink:href="classMessageService.html#ab976b50ce98805f188d946de438ee976" target="_top" xlink:title="Sends a pre&#45;formatted JSON message (typically containing file data) to the server....">
<polygon fill="white" stroke="#666666" points="704.12,-71 570.38,-71 570.38,-42 704.12,-42 704.12,-71"/>
<text text-anchor="start" x="578.38" y="-57.5" font-family="Helvetica,sans-Serif" font-size="10.00">MessageService::SendFile</text>
<text text-anchor="middle" x="637.25" y="-47" font-family="Helvetica,sans-Serif" font-size="10.00">ToServer</text>
</a>
</g>
</g>
<!-- Node1&#45;&gt;Node40 -->
<g id="edge36_Node000001_Node000040" class="edge">
<title>Node1&#45;&gt;Node40</title>
<g id="a_edge36_Node000001_Node000040"><a xlink:title=" ">
<path fill="none" stroke="#63b8ff" d="M801.61,-178.7C787.76,-150.68 761.47,-105.7 725.5,-80.5 719.07,-75.99 711.82,-72.33 704.32,-69.36"/>
<polygon fill="#63b8ff" stroke="#63b8ff" points="798.35,-179.99 805.81,-187.51 804.67,-176.98 798.35,-179.99"/>
</a>
</g>
</g>
<!-- Node41 -->
<g id="Node000041" class="node">
<title>Node41</title>
<g id="a_Node000041"><a xlink:href="classMessageService.html#ac1041f89fa4eed1b98556cc3f93c2077" target="_top" xlink:title="Sends a text message to the currently active frequency. Retrieves the active frequency and socket fro...">
<polygon fill="white" stroke="#666666" points="705.62,-239 568.88,-239 568.88,-210 705.62,-210 705.62,-239"/>
<text text-anchor="start" x="576.88" y="-225.5" font-family="Helvetica,sans-Serif" font-size="10.00">MessageService::SendText</text>
<text text-anchor="middle" x="637.25" y="-215" font-family="Helvetica,sans-Serif" font-size="10.00">Message</text>
</a>
</g>
</g>
<!-- Node1&#45;&gt;Node41 -->
<g id="edge37_Node000001_Node000041" class="edge">
<title>Node1&#45;&gt;Node41</title>
<g id="a_edge37_Node000001_Node000041"><a xlink:title=" ">
<path fill="none" stroke="#63b8ff" d="M750.12,-211.04C735.85,-212.75 720.61,-214.59 706.12,-216.33"/>
<polygon fill="#63b8ff" stroke="#63b8ff" points="750.33,-214.54 759.84,-209.87 749.49,-207.59 750.33,-214.54"/>
</a>
</g>
</g>
<!-- Node3 -->
<g id="Node000003" class="node">
<title>Node3</title>
<g id="a_Node000003"><a xlink:href="classSessionCoordinator.html#a0dd567ac5a1ab2f57e17698c1dc93a1b" target="_top" xlink:title="Closes a specific wavelength (only if the current user is the host). Unregisters the wavelength local...">
<polygon fill="white" stroke="#666666" points="479.25,-29 377.75,-29 377.75,0 479.25,0 479.25,-29"/>
<text text-anchor="start" x="385.75" y="-15.5" font-family="Helvetica,sans-Serif" font-size="10.00">SessionCoordinator</text>
<text text-anchor="middle" x="428.5" y="-5" font-family="Helvetica,sans-Serif" font-size="10.00">::CloseWavelength</text>
</a>
</g>
</g>
<!-- Node2&#45;&gt;Node3 -->
<g id="edge2_Node000002_Node000003" class="edge">
<title>Node2&#45;&gt;Node3</title>
<g id="a_edge2_Node000002_Node000003"><a xlink:title=" ">
<path fill="none" stroke="#63b8ff" d="M537.19,-14.5C517.22,-14.5 497.03,-14.5 479.62,-14.5"/>
<polygon fill="#63b8ff" stroke="#63b8ff" points="537.06,-18 547.06,-14.5 537.06,-11 537.06,-18"/>
</a>
</g>
</g>
<!-- Node4 -->
<g id="Node000004" class="node">
<title>Node4</title>
<g id="a_Node000004"><a xlink:href="classChatView.html#a23a3ce66f4af487f1f0571e72aaca9aa" target="_top" xlink:title="Initiates the process of leaving or closing the current Wavelength. Updates the status indicator,...">
<polygon fill="white" stroke="#666666" points="294.5,-158.75 156.25,-158.75 156.25,-140.25 294.5,-140.25 294.5,-158.75"/>
<text text-anchor="middle" x="225.38" y="-145.25" font-family="Helvetica,sans-Serif" font-size="10.00">ChatView::AbortWavelength</text>
</a>
</g>
</g>
<!-- Node3&#45;&gt;Node4 -->
<g id="edge3_Node000003_Node000004" class="edge">
<title>Node3&#45;&gt;Node4</title>
<g id="a_edge3_Node000003_Node000004"><a xlink:title=" ">
<path fill="none" stroke="#63b8ff" d="M366.63,-28.27C358.77,-31.11 351.03,-34.49 344,-38.5 295.22,-66.31 250.86,-118.42 233.79,-139.88"/>
<polygon fill="#63b8ff" stroke="#63b8ff" points="367.52,-31.66 375.92,-25.2 365.33,-25.02 367.52,-31.66"/>
</a>
</g>
</g>
<!-- Node5 -->
<g id="Node000005" class="node">
<title>Node5</title>
<g id="a_Node000005"><a xlink:href="classChatView.html#ad2db6f12afdba4b49ec7775b2d560ad3" target="_top" xlink:title="Constructs a WavelengthChatView. Initializes the UI elements (labels, message area,...">
<polygon fill="white" stroke="#666666" points="106.75,-399.75 0,-399.75 0,-381.25 106.75,-381.25 106.75,-399.75"/>
<text text-anchor="middle" x="53.38" y="-386.25" font-family="Helvetica,sans-Serif" font-size="10.00">ChatView::ChatView</text>
</a>
</g>
</g>
<!-- Node4&#45;&gt;Node5 -->
<g id="edge4_Node000004_Node000005" class="edge">
<title>Node4&#45;&gt;Node5</title>
<g id="a_edge4_Node000004_Node000005"><a xlink:title=" ">
<path fill="none" stroke="#63b8ff" d="M187,-163.85C171.74,-171.18 154.88,-181.36 142.75,-194.5 88.58,-253.2 63.22,-350.73 56.36,-381.14"/>
<polygon fill="#63b8ff" stroke="#63b8ff" points="188.17,-167.16 195.84,-159.86 185.29,-160.78 188.17,-167.16"/>
</a>
</g>
</g>
<!-- Node7 -->
<g id="Node000007" class="node">
<title>Node7</title>
<g id="a_Node000007"><a xlink:href="classSessionCoordinator.html#ad439996ffc2f1a6fc57835502c69ce7d" target="_top" xlink:title="Initiates the creation of a new wavelength. Delegates the call to WavelengthCreator and registers the...">
<polygon fill="white" stroke="#666666" points="479.25,-639 377.75,-639 377.75,-610 479.25,-610 479.25,-639"/>
<text text-anchor="start" x="385.75" y="-625.5" font-family="Helvetica,sans-Serif" font-size="10.00">SessionCoordinator</text>
<text text-anchor="middle" x="428.5" y="-615" font-family="Helvetica,sans-Serif" font-size="10.00">::CreateWavelength</text>
</a>
</g>
</g>
<!-- Node6&#45;&gt;Node7 -->
<g id="edge6_Node000006_Node000007" class="edge">
<title>Node6&#45;&gt;Node7</title>
<g id="a_edge6_Node000006_Node000007"><a xlink:title=" ">
<path fill="none" stroke="#63b8ff" d="M573.36,-606.41C543.23,-610.2 507.65,-614.67 479.41,-618.22"/>
<polygon fill="#63b8ff" stroke="#63b8ff" points="573.62,-609.9 583.11,-605.18 572.75,-602.96 573.62,-609.9"/>
</a>
</g>
</g>
<!-- Node9 -->
<g id="Node000009" class="node">
<title>Node9</title>
<g id="a_Node000009"><a xlink:href="classMessageProcessor.html#a2a7686af1fb4bdbfb0ac9af65bcb85ac" target="_top" xlink:title="Processes messages of type &quot;message&quot; or &quot;send_message&quot;. Checks for duplicates, handles attachments (s...">
<polygon fill="white" stroke="#666666" points="499.5,-686 357.5,-686 357.5,-657 499.5,-657 499.5,-686"/>
<text text-anchor="start" x="365.5" y="-672.5" font-family="Helvetica,sans-Serif" font-size="10.00">MessageProcessor::Process</text>
<text text-anchor="middle" x="428.5" y="-662" font-family="Helvetica,sans-Serif" font-size="10.00">MessageContent</text>
</a>
</g>
</g>
<!-- Node8&#45;&gt;Node9 -->
<g id="edge8_Node000008_Node000009" class="edge">
<title>Node8&#45;&gt;Node9</title>
<g id="a_edge8_Node000008_Node000009"><a xlink:title=" ">
<path fill="none" stroke="#63b8ff" d="M558.25,-665.9C539.07,-666.73 518.65,-667.62 499.85,-668.44"/>
<polygon fill="#63b8ff" stroke="#63b8ff" points="558.34,-669.39 568.18,-665.46 558.04,-662.4 558.34,-669.39"/>
</a>
</g>
</g>
<!-- Node10 -->
<g id="Node000010" class="node">
<title>Node10</title>
<g id="a_Node000010"><a xlink:href="classMessageProcessor.html#abdfefd4e6d33731ee50463441ea1a368" target="_top" xlink:title="Processes an incoming text message (JSON) received from the WebSocket. Parses the JSON,...">
<polygon fill="#fff0f0" stroke="red" points="296.38,-686 154.38,-686 154.38,-657 296.38,-657 296.38,-686"/>
<text text-anchor="start" x="162.38" y="-672.5" font-family="Helvetica,sans-Serif" font-size="10.00">MessageProcessor::Process</text>
<text text-anchor="middle" x="225.38" y="-662" font-family="Helvetica,sans-Serif" font-size="10.00">IncomingMessage</text>
</a>
</g>
</g>
<!-- Node9&#45;&gt;Node10 -->
<g id="edge9_Node000009_Node000010" class="edge">
<title>Node9&#45;&gt;Node10</title>
<g id="a_edge9_Node000009_Node000010"><a xlink:title=" ">
<path fill="none" stroke="#63b8ff" d="M345.98,-671.5C329.64,-671.5 312.6,-671.5 296.68,-671.5"/>
<polygon fill="#63b8ff" stroke="#63b8ff" points="345.64,-675 355.64,-671.5 345.64,-668 345.64,-675"/>
</a>
</g>
</g>
<!-- Node17 -->
<g id="Node000017" class="node">
<title>Node17</title>
<g id="a_Node000017"><a xlink:href="classMessageService.html#aa7fee176b576b103691c4fcc39aaac9e" target="_top" xlink:title="Sends raw audio data as a binary message for the specified frequency. Used for transmitting audio dur...">
<polygon fill="white" stroke="#666666" points="510,-517.75 347,-517.75 347,-499.25 510,-499.25 510,-517.75"/>
<text text-anchor="middle" x="428.5" y="-504.25" font-family="Helvetica,sans-Serif" font-size="10.00">MessageService::SendAudioData</text>
</a>
</g>
</g>
<!-- Node16&#45;&gt;Node17 -->
<g id="edge11_Node000016_Node000017" class="edge">
<title>Node16&#45;&gt;Node17</title>
<g id="a_edge11_Node000016_Node000017"><a xlink:title=" ">
<path fill="none" stroke="#63b8ff" d="M555.17,-513.97C540.48,-513.33 525.16,-512.66 510.48,-512.03"/>
<polygon fill="#63b8ff" stroke="#63b8ff" points="554.6,-517.45 564.74,-514.39 554.9,-510.46 554.6,-517.45"/>
</a>
</g>
</g>
<!-- Node18 -->
<g id="Node000018" class="node">
<title>Node18</title>
<g id="a_Node000018"><a xlink:href="classMessageService.html#a75fb7423ceb5f01542eb53c93c332df7" target="_top" xlink:title="Sends a Push&#45;to&#45;Talk (PTT) release message for the specified frequency. Constructs a JSON message of ...">
<polygon fill="white" stroke="#666666" points="511.5,-591.75 345.5,-591.75 345.5,-573.25 511.5,-573.25 511.5,-591.75"/>
<text text-anchor="middle" x="428.5" y="-578.25" font-family="Helvetica,sans-Serif" font-size="10.00">MessageService::SendPttRelease</text>
</a>
</g>
</g>
<!-- Node16&#45;&gt;Node18 -->
<g id="edge12_Node000016_Node000018" class="edge">
<title>Node16&#45;&gt;Node18</title>
<g id="a_edge12_Node000016_Node000018"><a xlink:title=" ">
<path fill="none" stroke="#63b8ff" d="M589.58,-536.6C566.74,-545.51 538.69,-555.82 513,-563.5 501.46,-566.95 488.87,-570.12 477.04,-572.84"/>
<polygon fill="#63b8ff" stroke="#63b8ff" points="590.59,-539.96 598.6,-533.04 588.02,-533.45 590.59,-539.96"/>
</a>
</g>
</g>
<!-- Node23 -->
<g id="Node000023" class="node">
<title>Node23</title>
<g id="a_Node000023"><a xlink:href="classMessageService.html#a630325196d5dd1c14713691505301d74" target="_top" xlink:title="Sends a Push&#45;to&#45;Talk (PTT) request message for the specified frequency. Constructs a JSON message of ...">
<polygon fill="white" stroke="#666666" points="511.88,-554.75 345.12,-554.75 345.12,-536.25 511.88,-536.25 511.88,-554.75"/>
<text text-anchor="middle" x="428.5" y="-541.25" font-family="Helvetica,sans-Serif" font-size="10.00">MessageService::SendPttRequest</text>
</a>
</g>
</g>
<!-- Node16&#45;&gt;Node23 -->
<g id="edge15_Node000016_Node000023" class="edge">
<title>Node16&#45;&gt;Node23</title>
<g id="a_edge15_Node000016_Node000023"><a xlink:title=" ">
<path fill="none" stroke="#63b8ff" d="M555.03,-528.5C537.25,-530.91 518.56,-533.44 501.19,-535.79"/>
<polygon fill="#63b8ff" stroke="#63b8ff" points="555.31,-531.99 564.75,-527.18 554.37,-525.06 555.31,-531.99"/>
</a>
</g>
</g>
<!-- Node19 -->
<g id="Node000019" class="node">
<title>Node19</title>
<g id="a_Node000019"><a xlink:href="classChatView.html#ac40ec4de8eddc9ea4fc2d3e210aa6c4d" target="_top" xlink:title="Slot called when the PTT button is released. Plays the PTT deactivation sound. If transmitting,...">
<polygon fill="#fff0f0" stroke="red" points="304.62,-573.75 146.12,-573.75 146.12,-555.25 304.62,-555.25 304.62,-573.75"/>
<text text-anchor="middle" x="225.38" y="-560.25" font-family="Helvetica,sans-Serif" font-size="10.00">ChatView::OnPttButtonReleased</text>
</a>
</g>
</g>
<!-- Node18&#45;&gt;Node19 -->
<g id="edge13_Node000018_Node000019" class="edge">
<title>Node18&#45;&gt;Node19</title>
<g id="a_edge13_Node000018_Node000019"><a xlink:title=" ">
<path fill="none" stroke="#63b8ff" d="M333.87,-574.12C324.23,-573.26 314.51,-572.39 305.06,-571.54"/>
<polygon fill="#63b8ff" stroke="#63b8ff" points="333.33,-577.59 343.61,-574.99 333.96,-570.61 333.33,-577.59"/>
</a>
</g>
</g>
<!-- Node19&#45;&gt;Node5 -->
<g id="edge14_Node000019_Node000005" class="edge">
<title>Node19&#45;&gt;Node5</title>
<g id="a_edge14_Node000019_Node000005"><a xlink:title=" ">
<path fill="none" stroke="#63b8ff" d="M167.78,-550.9C158.84,-547.16 150.13,-542.45 142.75,-536.5 94.77,-497.82 66.42,-425.61 57.47,-399.89"/>
<polygon fill="#63b8ff" stroke="#63b8ff" points="166.31,-554.08 176.9,-554.31 168.76,-547.53 166.31,-554.08"/>
</a>
</g>
</g>
<!-- Node24 -->
<g id="Node000024" class="node">
<title>Node24</title>
<g id="a_Node000024"><a xlink:href="classChatView.html#a19088a1cf7c1314fcdc1bca5a0b28b81" target="_top" xlink:title="Slot called when the PTT button is pressed. Plays the PTT activation sound, sets the state to Request...">
<polygon fill="white" stroke="#666666" points="302.38,-527.75 148.38,-527.75 148.38,-509.25 302.38,-509.25 302.38,-527.75"/>
<text text-anchor="middle" x="225.38" y="-514.25" font-family="Helvetica,sans-Serif" font-size="10.00">ChatView::OnPttButtonPressed</text>
</a>
</g>
</g>
<!-- Node23&#45;&gt;Node24 -->
<g id="edge16_Node000023_Node000024" class="edge">
<title>Node23&#45;&gt;Node24</title>
<g id="a_edge16_Node000023_Node000024"><a xlink:title=" ">
<path fill="none" stroke="#63b8ff" d="M343.64,-534.24C328.77,-532.25 313.4,-530.18 298.88,-528.23"/>
<polygon fill="#63b8ff" stroke="#63b8ff" points="343.01,-537.69 353.39,-535.55 343.94,-530.75 343.01,-537.69"/>
</a>
</g>
</g>
<!-- Node24&#45;&gt;Node5 -->
<g id="edge17_Node000024_Node000005" class="edge">
<title>Node24&#45;&gt;Node5</title>
<g id="a_edge17_Node000024_Node000005"><a xlink:title=" ">
<path fill="none" stroke="#63b8ff" d="M172.39,-505.18C162.1,-501.32 151.72,-496.49 142.75,-490.5 104.98,-465.28 73.24,-420.06 60.44,-400.25"/>
<polygon fill="#63b8ff" stroke="#63b8ff" points="170.99,-508.4 181.58,-508.36 173.27,-501.78 170.99,-508.4"/>
</a>
</g>
</g>
<!-- Node26 -->
<g id="Node000026" class="node">
<title>Node26</title>
<g id="a_Node000026"><a xlink:href="classWavelengthStateManager.html#a670856cf048444edfe50b5e491435427" target="_top" xlink:title="Gets the creation timestamp of a specific wavelength.">
<polygon fill="white" stroke="#666666" points="501.38,-387 355.62,-387 355.62,-358 501.38,-358 501.38,-387"/>
<text text-anchor="start" x="363.62" y="-373.5" font-family="Helvetica,sans-Serif" font-size="10.00">WavelengthStateManager</text>
<text text-anchor="middle" x="428.5" y="-363" font-family="Helvetica,sans-Serif" font-size="10.00">::GetWavelengthCreationTime</text>
</a>
</g>
</g>
<!-- Node25&#45;&gt;Node26 -->
<g id="edge19_Node000025_Node000026" class="edge">
<title>Node25&#45;&gt;Node26</title>
<g id="a_edge19_Node000025_Node000026"><a xlink:title=" ">
<path fill="none" stroke="#63b8ff" d="M562.15,-342.34C540.31,-347.31 516.58,-352.7 495.3,-357.54"/>
<polygon fill="#63b8ff" stroke="#63b8ff" points="562.92,-345.76 571.9,-340.13 561.37,-338.93 562.92,-345.76"/>
</a>
</g>
</g>
<!-- Node27 -->
<g id="Node000027" class="node">
<title>Node27</title>
<g id="a_Node000027"><a xlink:href="classSessionCoordinator.html#a4628044d476e4292e2150e251998b2c1" target="_top" xlink:title="Retrieves detailed information about a specific wavelength. Delegates the call to WavelengthStateMana...">
<polygon fill="white" stroke="#666666" points="480.75,-246 376.25,-246 376.25,-217 480.75,-217 480.75,-246"/>
<text text-anchor="start" x="384.25" y="-232.5" font-family="Helvetica,sans-Serif" font-size="10.00">SessionCoordinator</text>
<text text-anchor="middle" x="428.5" y="-222" font-family="Helvetica,sans-Serif" font-size="10.00">::GetWavelengthInfo</text>
</a>
</g>
</g>
<!-- Node25&#45;&gt;Node27 -->
<g id="edge20_Node000025_Node000027" class="edge">
<title>Node25&#45;&gt;Node27</title>
<g id="a_edge20_Node000025_Node000027"><a xlink:title=" ">
<path fill="none" stroke="#63b8ff" d="M604.5,-304.68C580.22,-289.46 545.5,-269.17 513,-255.5 502.85,-251.23 491.7,-247.44 480.94,-244.21"/>
<polygon fill="#63b8ff" stroke="#63b8ff" points="602.31,-307.44 612.63,-309.84 606.06,-301.53 602.31,-307.44"/>
</a>
</g>
</g>
<!-- Node28 -->
<g id="Node000028" class="node">
<title>Node28</title>
<g id="a_Node000028"><a xlink:href="classWavelengthStateManager.html#aa0ec9ff3f23e40a6984ddd46ee5a72af" target="_top" xlink:title="Checks if the current user is the host of the currently active wavelength.">
<polygon fill="white" stroke="#666666" points="492.75,-340 364.25,-340 364.25,-311 492.75,-311 492.75,-340"/>
<text text-anchor="start" x="372.25" y="-326.5" font-family="Helvetica,sans-Serif" font-size="10.00">WavelengthStateManager</text>
<text text-anchor="middle" x="428.5" y="-316" font-family="Helvetica,sans-Serif" font-size="10.00">::IsActiveWavelengthHost</text>
</a>
</g>
</g>
<!-- Node25&#45;&gt;Node28 -->
<g id="edge22_Node000025_Node000028" class="edge">
<title>Node25&#45;&gt;Node28</title>
<g id="a_edge22_Node000025_Node000028"><a xlink:title=" ">
<path fill="none" stroke="#63b8ff" d="M562.13,-325.5C539.56,-325.5 514.96,-325.5 493.15,-325.5"/>
<polygon fill="#63b8ff" stroke="#63b8ff" points="561.86,-329 571.86,-325.5 561.86,-322 561.86,-329"/>
</a>
</g>
</g>
<!-- Node30 -->
<g id="Node000030" class="node">
<title>Node30</title>
<g id="a_Node000030"><a xlink:href="classWavelengthStateManager.html#a1bec41b38f90afbe8d57ec5c71549750" target="_top" xlink:title="Checks if the WebSocket connection for a specific wavelength is currently established and valid.">
<polygon fill="white" stroke="#666666" points="492.38,-293 364.62,-293 364.62,-264 492.38,-264 492.38,-293"/>
<text text-anchor="start" x="372.62" y="-279.5" font-family="Helvetica,sans-Serif" font-size="10.00">WavelengthStateManager</text>
<text text-anchor="middle" x="428.5" y="-269" font-family="Helvetica,sans-Serif" font-size="10.00">::IsWavelengthConnected</text>
</a>
</g>
</g>
<!-- Node25&#45;&gt;Node30 -->
<g id="edge24_Node000025_Node000030" class="edge">
<title>Node25&#45;&gt;Node30</title>
<g id="a_edge24_Node000025_Node000030"><a xlink:title=" ">
<path fill="none" stroke="#63b8ff" d="M562.39,-308.71C539.62,-303.53 514.77,-297.89 492.79,-292.89"/>
<polygon fill="#63b8ff" stroke="#63b8ff" points="561.37,-312.07 571.9,-310.87 562.92,-305.24 561.37,-312.07"/>
</a>
</g>
</g>
<!-- Node32 -->
<g id="Node000032" class="node">
<title>Node32</title>
<g id="a_Node000032"><a xlink:href="classWavelengthStateManager.html#aee0d046c58fb88b38ff063413c846733" target="_top" xlink:title="Checks if the current user is the host of a specific wavelength.">
<polygon fill="white" stroke="#666666" points="492,-481 365,-481 365,-452 492,-452 492,-481"/>
<text text-anchor="start" x="373" y="-467.5" font-family="Helvetica,sans-Serif" font-size="10.00">WavelengthStateManager</text>
<text text-anchor="middle" x="428.5" y="-457" font-family="Helvetica,sans-Serif" font-size="10.00">::IsWavelengthHost</text>
</a>
</g>
</g>
<!-- Node25&#45;&gt;Node32 -->
<g id="edge26_Node000025_Node000032" class="edge">
<title>Node25&#45;&gt;Node32</title>
<g id="a_edge26_Node000025_Node000032"><a xlink:title=" ">
<path fill="none" stroke="#63b8ff" d="M617.98,-348.95C595.92,-375.71 556.33,-418.91 513,-443.5 506.59,-447.14 499.58,-450.22 492.42,-452.84"/>
<polygon fill="#63b8ff" stroke="#63b8ff" points="620.51,-351.39 624.08,-341.41 615.07,-346.99 620.51,-351.39"/>
</a>
</g>
</g>
<!-- Node34 -->
<g id="Node000034" class="node">
<title>Node34</title>
<g id="a_Node000034"><a xlink:href="classWavelengthStateManager.html#a7fdc767c6e09c46297e53fdc4c75110e" target="_top" xlink:title="Checks if a specific wavelength is password protected.">
<polygon fill="white" stroke="#666666" points="511.12,-434 345.88,-434 345.88,-405 511.12,-405 511.12,-434"/>
<text text-anchor="start" x="353.88" y="-420.5" font-family="Helvetica,sans-Serif" font-size="10.00">WavelengthStateManager</text>
<text text-anchor="middle" x="428.5" y="-410" font-family="Helvetica,sans-Serif" font-size="10.00">::IsWavelengthPasswordProtected</text>
</a>
</g>
</g>
<!-- Node25&#45;&gt;Node34 -->
<g id="edge28_Node000025_Node000034" class="edge">
<title>Node25&#45;&gt;Node34</title>
<g id="a_edge28_Node000025_Node000034"><a xlink:title=" ">
<path fill="none" stroke="#63b8ff" d="M605.03,-346.46C580.78,-362 545.84,-382.78 513,-396.5 505.92,-399.46 498.35,-402.15 490.77,-404.56"/>
<polygon fill="#63b8ff" stroke="#63b8ff" points="606.66,-349.57 613.15,-341.19 602.85,-343.7 606.66,-349.57"/>
</a>
</g>
</g>
<!-- Node27&#45;&gt;Node4 -->
<g id="edge21_Node000027_Node000004" class="edge">
<title>Node27&#45;&gt;Node4</title>
<g id="a_edge21_Node000027_Node000004"><a xlink:title=" ">
<path fill="none" stroke="#63b8ff" d="M380.56,-212.36C339.73,-195.72 282.23,-172.27 250.24,-159.23"/>
<polygon fill="#63b8ff" stroke="#63b8ff" points="379.09,-215.54 389.68,-216.08 381.74,-209.06 379.09,-215.54"/>
</a>
</g>
</g>
<!-- Node29 -->
<g id="Node000029" class="node">
<title>Node29</title>
<g id="a_Node000029"><a xlink:href="classSessionCoordinator.html#a668b71b01c108671a17924cb0ed55fff" target="_top" xlink:title="Checks if the current user is the host of the currently active wavelength. Delegates the call to Wave...">
<polygon fill="white" stroke="#666666" points="289.62,-340 161.12,-340 161.12,-311 289.62,-311 289.62,-340"/>
<text text-anchor="start" x="169.12" y="-326.5" font-family="Helvetica,sans-Serif" font-size="10.00">SessionCoordinator</text>
<text text-anchor="middle" x="225.38" y="-316" font-family="Helvetica,sans-Serif" font-size="10.00">::IsActiveWavelengthHost</text>
</a>
</g>
</g>
<!-- Node28&#45;&gt;Node29 -->
<g id="edge23_Node000028_Node000029" class="edge">
<title>Node28&#45;&gt;Node29</title>
<g id="a_edge23_Node000028_Node000029"><a xlink:title=" ">
<path fill="none" stroke="#63b8ff" d="M352.6,-325.5C331.99,-325.5 309.84,-325.5 289.94,-325.5"/>
<polygon fill="#63b8ff" stroke="#63b8ff" points="352.35,-329 362.35,-325.5 352.35,-322 352.35,-329"/>
</a>
</g>
</g>
<!-- Node31 -->
<g id="Node000031" class="node">
<title>Node31</title>
<g id="a_Node000031"><a xlink:href="classSessionCoordinator.html#afdd26cb48cc5a63173af38deda4ae1f5" target="_top" xlink:title="Checks if the WebSocket connection for a specific wavelength is established and valid....">
<polygon fill="white" stroke="#666666" points="289.25,-293 161.5,-293 161.5,-264 289.25,-264 289.25,-293"/>
<text text-anchor="start" x="169.5" y="-279.5" font-family="Helvetica,sans-Serif" font-size="10.00">SessionCoordinator</text>
<text text-anchor="middle" x="225.38" y="-269" font-family="Helvetica,sans-Serif" font-size="10.00">::IsWavelengthConnected</text>
</a>
</g>
</g>
<!-- Node30&#45;&gt;Node31 -->
<g id="edge25_Node000030_Node000031" class="edge">
<title>Node30&#45;&gt;Node31</title>
<g id="a_edge25_Node000030_Node000031"><a xlink:title=" ">
<path fill="none" stroke="#63b8ff" d="M352.75,-278.5C331.92,-278.5 309.5,-278.5 289.42,-278.5"/>
<polygon fill="#63b8ff" stroke="#63b8ff" points="352.63,-282 362.63,-278.5 352.63,-275 352.63,-282"/>
</a>
</g>
</g>
<!-- Node33 -->
<g id="Node000033" class="node">
<title>Node33</title>
<g id="a_Node000033"><a xlink:href="classSessionCoordinator.html#af055c6e741f8bd8a9c31bbc9f33b70f0" target="_top" xlink:title="Checks if the current user is the host of a specific wavelength. Delegates the call to WavelengthStat...">
<polygon fill="white" stroke="#666666" points="276.12,-481 174.62,-481 174.62,-452 276.12,-452 276.12,-481"/>
<text text-anchor="start" x="182.62" y="-467.5" font-family="Helvetica,sans-Serif" font-size="10.00">SessionCoordinator</text>
<text text-anchor="middle" x="225.38" y="-457" font-family="Helvetica,sans-Serif" font-size="10.00">::IsWavelengthHost</text>
</a>
</g>
</g>
<!-- Node32&#45;&gt;Node33 -->
<g id="edge27_Node000032_Node000033" class="edge">
<title>Node32&#45;&gt;Node33</title>
<g id="a_edge27_Node000032_Node000033"><a xlink:title=" ">
<path fill="none" stroke="#63b8ff" d="M353.52,-466.5C327.92,-466.5 299.86,-466.5 276.62,-466.5"/>
<polygon fill="#63b8ff" stroke="#63b8ff" points="353.18,-470 363.18,-466.5 353.18,-463 353.18,-470"/>
</a>
</g>
</g>
<!-- Node35 -->
<g id="Node000035" class="node">
<title>Node35</title>
<g id="a_Node000035"><a xlink:href="classSessionCoordinator.html#aa0256473933f5d5f8001feff315aac38" target="_top" xlink:title="Checks if a specific wavelength is password protected. Delegates the call to WavelengthStateManager.">
<polygon fill="white" stroke="#666666" points="308,-434 142.75,-434 142.75,-405 308,-405 308,-434"/>
<text text-anchor="start" x="150.75" y="-420.5" font-family="Helvetica,sans-Serif" font-size="10.00">SessionCoordinator</text>
<text text-anchor="middle" x="225.38" y="-410" font-family="Helvetica,sans-Serif" font-size="10.00">::IsWavelengthPasswordProtected</text>
</a>
</g>
</g>
<!-- Node34&#45;&gt;Node35 -->
<g id="edge29_Node000034_Node000035" class="edge">
<title>Node34&#45;&gt;Node35</title>
<g id="a_edge29_Node000034_Node000035"><a xlink:title=" ">
<path fill="none" stroke="#63b8ff" d="M334.1,-419.5C325.46,-419.5 316.74,-419.5 308.21,-419.5"/>
<polygon fill="#63b8ff" stroke="#63b8ff" points="333.89,-423 343.89,-419.5 333.89,-416 333.89,-423"/>
</a>
</g>
</g>
<!-- Node37 -->
<g id="Node000037" class="node">
<title>Node37</title>
<g id="a_Node000037"><a xlink:href="classMessageService.html#ad74bc604024156fff3b840942187037e" target="_top" xlink:title="Private constructor to enforce the singleton pattern. Connects the internal sendJsonViaSocket signal ...">
<polygon fill="white" stroke="#666666" points="513,-65.75 344,-65.75 344,-47.25 513,-47.25 513,-65.75"/>
<text text-anchor="middle" x="428.5" y="-52.25" font-family="Helvetica,sans-Serif" font-size="10.00">MessageService::MessageService</text>
</a>
</g>
</g>
<!-- Node36&#45;&gt;Node37 -->
<g id="edge31_Node000036_Node000037" class="edge">
<title>Node36&#45;&gt;Node37</title>
<g id="a_edge31_Node000036_Node000037"><a xlink:title=" ">
<path fill="none" stroke="#63b8ff" d="M559.42,-86.04C529.94,-79.33 497.38,-71.93 472.22,-66.21"/>
<polygon fill="#63b8ff" stroke="#63b8ff" points="558.55,-89.42 569.07,-88.23 560.1,-82.6 558.55,-89.42"/>
</a>
</g>
</g>
<!-- Node39 -->
<g id="Node000039" class="node">
<title>Node39</title>
<g id="a_Node000039"><a xlink:href="classSessionCoordinator.html#ad7c56b7b495b53ea905a6157e2bc5e93" target="_top" xlink:title="Leaves the currently active wavelength. Unregisters the wavelength locally and delegates the call to ...">
<polygon fill="white" stroke="#666666" points="479.25,-113 377.75,-113 377.75,-84 479.25,-84 479.25,-113"/>
<text text-anchor="start" x="385.75" y="-99.5" font-family="Helvetica,sans-Serif" font-size="10.00">SessionCoordinator</text>
<text text-anchor="middle" x="428.5" y="-89" font-family="Helvetica,sans-Serif" font-size="10.00">::LeaveWavelength</text>
</a>
</g>
</g>
<!-- Node38&#45;&gt;Node39 -->
<g id="edge34_Node000038_Node000039" class="edge">
<title>Node38&#45;&gt;Node39</title>
<g id="a_edge34_Node000038_Node000039"><a xlink:title=" ">
<path fill="none" stroke="#63b8ff" d="M559.61,-168.86C555.93,-167.27 552.37,-165.49 549,-163.5 528.11,-151.19 533.48,-135.48 513,-122.5 502.94,-116.12 491.13,-111.39 479.62,-107.9"/>
<polygon fill="#63b8ff" stroke="#63b8ff" points="558.2,-172.07 568.79,-172.35 560.68,-165.53 558.2,-172.07"/>
</a>
</g>
</g>
<!-- Node39&#45;&gt;Node4 -->
<g id="edge35_Node000039_Node000004" class="edge">
<title>Node39&#45;&gt;Node4</title>
<g id="a_edge35_Node000039_Node000004"><a xlink:title=" ">
<path fill="none" stroke="#63b8ff" d="M366.32,-114.01C333.2,-122.41 293.31,-132.53 264.61,-139.81"/>
<polygon fill="#63b8ff" stroke="#63b8ff" points="366.97,-117.46 375.8,-111.61 365.25,-110.68 366.97,-117.46"/>
</a>
</g>
</g>
<!-- Node42 -->
<g id="Node000042" class="node">
<title>Node42</title>
<g id="a_Node000042"><a xlink:href="classChatView.html#a424556ba1072ba443433af3af827c5d5" target="_top" xlink:title="Sends the text message currently in the input field. Clears the input field and sends the message via...">
<polygon fill="white" stroke="#666666" points="288.5,-221.75 162.25,-221.75 162.25,-203.25 288.5,-203.25 288.5,-221.75"/>
<text text-anchor="middle" x="225.38" y="-208.25" font-family="Helvetica,sans-Serif" font-size="10.00">ChatView::SendMessage</text>
</a>
</g>
</g>
<!-- Node41&#45;&gt;Node42 -->
<g id="edge38_Node000041_Node000042" class="edge">
<title>Node41&#45;&gt;Node42</title>
<g id="a_edge38_Node000041_Node000042"><a xlink:title=" ">
<path fill="none" stroke="#63b8ff" d="M557.46,-212.73C542.72,-210.97 527.41,-209.43 513,-208.5 438.05,-203.66 419.1,-207.22 344,-208.5 326.12,-208.8 306.73,-209.37 288.94,-209.98"/>
<polygon fill="#63b8ff" stroke="#63b8ff" points="556.74,-216.17 567.09,-213.93 557.6,-209.23 556.74,-216.17"/>
</a>
</g>
</g>
<!-- Node43 -->
<g id="Node000043" class="node">
<title>Node43</title>
<g id="a_Node000043"><a xlink:href="classSessionCoordinator.html#a6bf70b7c88a2f73ab0510bbc97315c02" target="_top" xlink:title="Sends a text message to the currently active wavelength. Delegates the call to WavelengthMessageServi...">
<polygon fill="white" stroke="#666666" points="479.25,-160 377.75,-160 377.75,-131 479.25,-131 479.25,-160"/>
<text text-anchor="start" x="385.75" y="-146.5" font-family="Helvetica,sans-Serif" font-size="10.00">SessionCoordinator</text>
<text text-anchor="middle" x="428.5" y="-136" font-family="Helvetica,sans-Serif" font-size="10.00">::SendMessage</text>
</a>
</g>
</g>
<!-- Node41&#45;&gt;Node43 -->
<g id="edge40_Node000041_Node000043" class="edge">
<title>Node41&#45;&gt;Node43</title>
<g id="a_edge40_Node000041_Node000043"><a xlink:title=" ">
<path fill="none" stroke="#63b8ff" d="M561.29,-205.8C557.08,-204.16 552.95,-202.39 549,-200.5 531.2,-191.97 530.51,-183.61 513,-174.5 502.52,-169.04 490.79,-164.25 479.51,-160.21"/>
<polygon fill="#63b8ff" stroke="#63b8ff" points="559.89,-209.02 570.48,-209.13 562.27,-202.43 559.89,-209.02"/>
</a>
</g>
</g>
<!-- Node42&#45;&gt;Node5 -->
<g id="edge39_Node000042_Node000005" class="edge">
<title>Node42&#45;&gt;Node5</title>
<g id="a_edge39_Node000042_Node000005"><a xlink:title=" ">
<path fill="none" stroke="#63b8ff" d="M188.27,-226.69C173.09,-233.81 155.94,-243.5 142.75,-255.5 100.47,-293.95 69.46,-356.85 58.6,-380.81"/>
<polygon fill="#63b8ff" stroke="#63b8ff" points="189.3,-230.06 197,-222.78 186.44,-223.67 189.3,-230.06"/>
</a>
</g>
</g>
</g>
</svg>

<g id="navigator" transform="translate(0 0)" fill="#404254">
  <rect fill="#f2f5e9" fill-opacity="0.5" stroke="#606060" stroke-width=".5" x="0" y="0" width="60" height="60"/>
  <use id="zoomplus" xlink:href="#zoomPlus" x="17" y="9" onmousedown="handleZoom(evt,'in')"/>
  <use id="zoomminus" xlink:href="#zoomMin" x="42" y="9" onmousedown="handleZoom(evt,'out')"/>
  <use id="reset" xlink:href="#resetDef" x="30" y="36" onmousedown="handleReset()"/>
   <use id="arrowup" xlink:href="#arrowUp" x="0" y="0" onmousedown="handlePan(0,-1)"/>
  <use id="arrowright" xlink:href="#arrowRight" x="0" y="0" onmousedown="handlePan(1,0)"/>
  <use id="arrowdown" xlink:href="#arrowDown" x="0" y="0" onmousedown="handlePan(0,1)"/>
  <use id="arrowleft" xlink:href="#arrowLeft" x="0" y="0" onmousedown="handlePan(-1,0)"/>
</g>
<svg viewBox="0 0 15 15" width="100%" height="30px" preserveAspectRatio="xMaxYMin meet">
 <g id="arrow_out" transform="scale(0.3 0.3)">
  <a xlink:href="classWavelengthRegistry_a022bb5799d095b75026019791ebf5e34_icgraph_org.svg" target="_base">
   <rect id="button" ry="5" rx="5" y="6" x="6" height="38" width="38"
        fill="#f2f5e9" fill-opacity="0.5" stroke="#606060" stroke-width="1.0"/>
   <path id="arrow"
     d="M 11.500037,31.436501 C 11.940474,20.09759 22.043105,11.32322 32.158766,21.979434 L 37.068811,17.246167 C 37.068811,17.246167 37.088388,32 37.088388,32 L 22.160133,31.978069 C 22.160133,31.978069 26.997745,27.140456 26.997745,27.140456 C 18.528582,18.264221 13.291696,25.230495 11.500037,31.436501 z"
     style="fill:#404040;"/>
  </a>
 </g>
</svg>

<style type='text/css'>
<![CDATA[
[data-mouse-over-selected='false'] { opacity: 0.7; }
[data-mouse-over-selected='true']  { opacity: 1.0; }
]]>
</style>
<script type="application/ecmascript"><![CDATA[
document.addEventListener('DOMContentLoaded', (event) => {
  highlightEdges();
  highlightAdjacentNodes();
});
]]></script>
</svg>
