<?xml version="1.0" encoding="UTF-8" standalone="no"?>
<!DOCTYPE svg PUBLIC "-//W3C//DTD SVG 1.1//EN"
 "http://www.w3.org/Graphics/SVG/1.1/DTD/svg11.dtd">
<!-- Generated by graphviz version 12.2.1 (0)
 -->
<!-- Title: MessageProcessor::systemMessage Pages: 1 -->
<svg width="688pt" height="84pt"
 viewBox="0.00 0.00 687.75 84.00" xmlns="http://www.w3.org/2000/svg" xmlns:xlink="http://www.w3.org/1999/xlink">
<g id="graph0" class="graph" transform="scale(1 1) rotate(0) translate(4 80)">
<title>MessageProcessor::systemMessage</title>
<!-- Node1 -->
<g id="Node000001" class="node">
<title>Node1</title>
<g id="a_Node000001"><a xlink:title="Emitted when a system event message (e.g., user join/leave) is processed.">
<polygon fill="#999999" stroke="#666666" points="679.75,-52 543,-52 543,-23 679.75,-23 679.75,-52"/>
<text text-anchor="start" x="551" y="-38.5" font-family="Helvetica,sans-Serif" font-size="10.00">MessageProcessor::system</text>
<text text-anchor="middle" x="611.38" y="-28" font-family="Helvetica,sans-Serif" font-size="10.00">Message</text>
</a>
</g>
</g>
<!-- Node2 -->
<g id="Node000002" class="node">
<title>Node2</title>
<g id="a_Node000002"><a xlink:href="classMessageProcessor.html#aa940a58824294fd7b610b0f489e467b5" target="_top" xlink:title="Processes messages of type &quot;user_joined&quot;. Formats a system message indicating a user joined and emits...">
<polygon fill="white" stroke="#666666" points="507,-76 365,-76 365,-47 507,-47 507,-76"/>
<text text-anchor="start" x="373" y="-62.5" font-family="Helvetica,sans-Serif" font-size="10.00">MessageProcessor::Process</text>
<text text-anchor="middle" x="436" y="-52" font-family="Helvetica,sans-Serif" font-size="10.00">UserJoined</text>
</a>
</g>
</g>
<!-- Node1&#45;&gt;Node2 -->
<g id="edge1_Node000001_Node000002" class="edge">
<title>Node1&#45;&gt;Node2</title>
<g id="a_edge1_Node000001_Node000002"><a xlink:title=" ">
<path fill="none" stroke="#63b8ff" d="M531.58,-48.41C523.55,-49.52 515.43,-50.64 507.49,-51.74"/>
<polygon fill="#63b8ff" stroke="#63b8ff" points="531.92,-51.89 541.35,-47.06 530.96,-44.96 531.92,-51.89"/>
</a>
</g>
</g>
<!-- Node11 -->
<g id="Node000011" class="node">
<title>Node11</title>
<g id="a_Node000011"><a xlink:href="classMessageProcessor.html#aabbee5921374be8f4d7e423c5bfe07ae" target="_top" xlink:title="Processes messages of type &quot;user_left&quot;. Formats a system message indicating a user left and emits the...">
<polygon fill="white" stroke="#666666" points="507,-29 365,-29 365,0 507,0 507,-29"/>
<text text-anchor="start" x="373" y="-15.5" font-family="Helvetica,sans-Serif" font-size="10.00">MessageProcessor::Process</text>
<text text-anchor="middle" x="436" y="-5" font-family="Helvetica,sans-Serif" font-size="10.00">UserLeft</text>
</a>
</g>
</g>
<!-- Node1&#45;&gt;Node11 -->
<g id="edge4_Node000001_Node000011" class="edge">
<title>Node1&#45;&gt;Node11</title>
<g id="a_edge4_Node000001_Node000011"><a xlink:title=" ">
<path fill="none" stroke="#63b8ff" d="M531.58,-27.05C523.55,-25.98 515.43,-24.9 507.49,-23.85"/>
<polygon fill="#63b8ff" stroke="#63b8ff" points="530.97,-30.5 541.35,-28.34 531.89,-23.56 530.97,-30.5"/>
</a>
</g>
</g>
<!-- Node3 -->
<g id="Node000003" class="node">
<title>Node3</title>
<g id="a_Node000003"><a xlink:href="classMessageProcessor.html#abdfefd4e6d33731ee50463441ea1a368" target="_top" xlink:title="Processes an incoming text message (JSON) received from the WebSocket. Parses the JSON,...">
<polygon fill="white" stroke="#666666" points="329,-52 187,-52 187,-23 329,-23 329,-52"/>
<text text-anchor="start" x="195" y="-38.5" font-family="Helvetica,sans-Serif" font-size="10.00">MessageProcessor::Process</text>
<text text-anchor="middle" x="258" y="-28" font-family="Helvetica,sans-Serif" font-size="10.00">IncomingMessage</text>
</a>
</g>
</g>
<!-- Node2&#45;&gt;Node3 -->
<g id="edge2_Node000002_Node000003" class="edge">
<title>Node2&#45;&gt;Node3</title>
<g id="a_edge2_Node000002_Node000003"><a xlink:title=" ">
<path fill="none" stroke="#63b8ff" d="M353.45,-50.38C345.44,-49.29 337.37,-48.19 329.49,-47.11"/>
<polygon fill="#63b8ff" stroke="#63b8ff" points="352.8,-53.82 363.18,-51.71 353.75,-46.89 352.8,-53.82"/>
</a>
</g>
</g>
<!-- Node4 -->
<g id="Node000004" class="node">
<title>Node4</title>
<g id="a_Node000004"><a xlink:href="classMessageProcessor.html#ae0f85d4a5a3c92b0873e7889dfb79862" target="_top" xlink:title="Connects the appropriate slots of this processor to the signals of a given QWebSocket....">
<polygon fill="#fff0f0" stroke="red" points="151,-52 0,-52 0,-23 151,-23 151,-52"/>
<text text-anchor="start" x="8" y="-38.5" font-family="Helvetica,sans-Serif" font-size="10.00">MessageProcessor::SetSocket</text>
<text text-anchor="middle" x="75.5" y="-28" font-family="Helvetica,sans-Serif" font-size="10.00">MessageHandlers</text>
</a>
</g>
</g>
<!-- Node3&#45;&gt;Node4 -->
<g id="edge3_Node000003_Node000004" class="edge">
<title>Node3&#45;&gt;Node4</title>
<g id="a_edge3_Node000003_Node000004"><a xlink:title=" ">
<path fill="none" stroke="#63b8ff" d="M175.45,-37.5C167.44,-37.5 159.33,-37.5 151.38,-37.5"/>
<polygon fill="#63b8ff" stroke="#63b8ff" points="175.18,-41 185.18,-37.5 175.18,-34 175.18,-41"/>
</a>
</g>
</g>
<!-- Node11&#45;&gt;Node3 -->
<g id="edge5_Node000011_Node000003" class="edge">
<title>Node11&#45;&gt;Node3</title>
<g id="a_edge5_Node000011_Node000003"><a xlink:title=" ">
<path fill="none" stroke="#63b8ff" d="M353.45,-25.16C345.44,-26.2 337.37,-27.26 329.49,-28.29"/>
<polygon fill="#63b8ff" stroke="#63b8ff" points="353.72,-28.65 363.18,-23.89 352.81,-21.71 353.72,-28.65"/>
</a>
</g>
</g>
</g>
</svg>
