<?xml version="1.0" encoding="UTF-8" standalone="no"?>
<!DOCTYPE svg PUBLIC "-//W3C//DTD SVG 1.1//EN"
 "http://www.w3.org/Graphics/SVG/1.1/DTD/svg11.dtd">
<!-- Generated by graphviz version 12.2.1 (0)
 -->
<!-- Title: NetworkStatusWidget::CheckNetworkStatus Pages: 1 -->
<!--zoomable 59 -->

<svg id="main" version="1.1" xmlns="http://www.w3.org/2000/svg" xmlns:xlink="http://www.w3.org/1999/xlink" xml:space="preserve" onload="init(evt)">

<style type="text/css"><![CDATA[
.node, .edge {opacity: 0.7;}
.node.selected, .edge.selected {opacity: 1;}
.edge:hover path { stroke: red; }
.edge:hover polygon { stroke: red; fill: red; }
]]></style>

<defs>
  <circle id="rim" cx="0" cy="0" r="7"/>
  <circle id="rim2" cx="0" cy="0" r="3.5"/>
  <g id="zoomPlus">
    <use xlink:href="#rim" fill="#404040"><set attributeName="fill" to="#808080" begin="zoomplus.mouseover" end="zoomplus.mouseout"/></use>
    <path d="M-4,0h8M0,-4v8" fill="none" stroke="white" stroke-width="1.5" pointer-events="none"/>
  </g>
  <g id="zoomMin">
    <use xlink:href="#rim" fill="#404040"><set attributeName="fill" to="#808080" begin="zoomminus.mouseover" end="zoomminus.mouseout"/></use>
    <path d="M-4,0h8" fill="none" stroke="white" stroke-width="1.5" pointer-events="none"/>
  </g>
  <g id="arrowUp" transform="translate(30 24)">
    <use xlink:href="#rim"/>
    <path pointer-events="none" fill="none" stroke="white" stroke-width="1.5" d="M0,-3.0v7 M-2.5,-0.5L0,-3.0L2.5,-0.5"/>
  </g>
  <g id="arrowRight" transform="rotate(90) translate(36 -43)">
    <use xlink:href="#rim"/>
    <path pointer-events="none" fill="none" stroke="white" stroke-width="1.5" d="M0,-3.0v7 M-2.5,-0.5L0,-3.0L2.5,-0.5"/>
  </g>
  <g id="arrowDown" transform="rotate(180) translate(-30 -48)">
    <use xlink:href="#rim"/>
    <path pointer-events="none" fill="none" stroke="white" stroke-width="1.5" d="M0,-3.0v7 M-2.5,-0.5L0,-3.0L2.5,-0.5"/>
  </g>
  <g id="arrowLeft" transform="rotate(270) translate(-36 17)">
    <use xlink:href="#rim"/>
    <path pointer-events="none" fill="none" stroke="white" stroke-width="1.5" d="M0,-3.0v7 M-2.5,-0.5L0,-3.0L2.5,-0.5"/>
  </g>
  <g id="resetDef">
    <use xlink:href="#rim2" fill="#404040"><set attributeName="fill" to="#808080" begin="reset.mouseover" end="reset.mouseout"/></use>
  </g>
</defs>
<script type="application/ecmascript">
var viewWidth = 571;
var viewHeight = 59;
var sectionId = 'dynsection-3';
</script>
<script type="application/ecmascript" xlink:href="svg.min.js"/>
<svg id="graph" class="graph">
<g id="viewport">
<title>NetworkStatusWidget::CheckNetworkStatus</title>
<!-- Node1 -->
<g id="Node000001" class="node">
<title>Node1</title>
<g id="a_Node000001"><a xlink:title="Performs a network status check. Sends a network request, measures the response time (ping),...">
<polygon fill="#999999" stroke="#666666" points="115.75,-29 0,-29 0,0 115.75,0 115.75,-29"/>
<text text-anchor="start" x="8" y="-15.5" font-family="Helvetica,sans-Serif" font-size="10.00">NetworkStatusWidget</text>
<text text-anchor="middle" x="57.88" y="-5" font-family="Helvetica,sans-Serif" font-size="10.00">::CheckNetworkStatus</text>
</a>
</g>
</g>
<!-- Node2 -->
<g id="Node000002" class="node">
<title>Node2</title>
<g id="a_Node000002"><a xlink:href="classNetworkStatusWidget.html#ae67562eeae82707e25e7d1c3a883de3b" target="_top" xlink:title="Updates the text of the status and ping labels, the icon, and the border color based on the current_q...">
<polygon fill="white" stroke="#666666" points="266.75,-29 151.75,-29 151.75,0 266.75,0 266.75,-29"/>
<text text-anchor="start" x="159.75" y="-15.5" font-family="Helvetica,sans-Serif" font-size="10.00">NetworkStatusWidget</text>
<text text-anchor="middle" x="209.25" y="-5" font-family="Helvetica,sans-Serif" font-size="10.00">::UpdateStatusDisplay</text>
</a>
</g>
</g>
<!-- Node1&#45;&gt;Node2 -->
<g id="edge1_Node000001_Node000002" class="edge">
<title>Node1&#45;&gt;Node2</title>
<g id="a_edge1_Node000001_Node000002"><a xlink:title=" ">
<path fill="none" stroke="#63b8ff" d="M116.2,-14.5C123.94,-14.5 131.94,-14.5 139.85,-14.5"/>
<polygon fill="#63b8ff" stroke="#63b8ff" points="139.81,-18 149.81,-14.5 139.81,-11 139.81,-18"/>
</a>
</g>
</g>
<!-- Node3 -->
<g id="Node000003" class="node">
<title>Node3</title>
<g id="a_Node000003"><a xlink:href="classNetworkStatusWidget.html#aff2fa82e8167c32a69998f2438f60f2f" target="_top" xlink:title="Generates the WiFi&#45;style icon as a QPixmap based on the network quality. Draws a series of arcs,...">
<polygon fill="white" stroke="#666666" points="414.75,-51 302.75,-51 302.75,-22 414.75,-22 414.75,-51"/>
<text text-anchor="start" x="310.75" y="-37.5" font-family="Helvetica,sans-Serif" font-size="10.00">NetworkStatusWidget</text>
<text text-anchor="middle" x="358.75" y="-27" font-family="Helvetica,sans-Serif" font-size="10.00">::CreateNetworkIcon</text>
</a>
</g>
</g>
<!-- Node2&#45;&gt;Node3 -->
<g id="edge2_Node000002_Node000003" class="edge">
<title>Node2&#45;&gt;Node3</title>
<g id="a_edge2_Node000002_Node000003"><a xlink:title=" ">
<path fill="none" stroke="#63b8ff" d="M266.86,-22.94C274.81,-24.13 283.04,-25.36 291.16,-26.57"/>
<polygon fill="#63b8ff" stroke="#63b8ff" points="290.61,-30.02 301.01,-28.04 291.64,-23.1 290.61,-30.02"/>
</a>
</g>
</g>
<!-- Node4 -->
<g id="Node000004" class="node">
<title>Node4</title>
<g id="a_Node000004"><a xlink:href="classNetworkStatusWidget.html#a558c920e0f92e05a73bbe9245c85e065" target="_top" xlink:title="Static utility function to get the appropriate color for a given network quality level....">
<polygon fill="white" stroke="#666666" points="562.75,-29 450.75,-29 450.75,0 562.75,0 562.75,-29"/>
<text text-anchor="start" x="458.75" y="-15.5" font-family="Helvetica,sans-Serif" font-size="10.00">NetworkStatusWidget</text>
<text text-anchor="middle" x="506.75" y="-5" font-family="Helvetica,sans-Serif" font-size="10.00">::GetQualityColor</text>
</a>
</g>
</g>
<!-- Node2&#45;&gt;Node4 -->
<g id="edge4_Node000002_Node000004" class="edge">
<title>Node2&#45;&gt;Node4</title>
<g id="a_edge4_Node000002_Node000004"><a xlink:title=" ">
<path fill="none" stroke="#63b8ff" d="M266.99,-13.79C278.81,-13.67 291.19,-13.56 302.75,-13.5 352.53,-13.23 364.97,-13.23 414.75,-13.5 422.59,-13.54 430.81,-13.61 438.96,-13.68"/>
<polygon fill="#63b8ff" stroke="#63b8ff" points="438.86,-17.18 448.9,-13.78 438.93,-10.18 438.86,-17.18"/>
</a>
</g>
</g>
<!-- Node3&#45;&gt;Node4 -->
<g id="edge3_Node000003_Node000004" class="edge">
<title>Node3&#45;&gt;Node4</title>
<g id="a_edge3_Node000003_Node000004"><a xlink:title=" ">
<path fill="none" stroke="#63b8ff" d="M414.95,-28.18C422.85,-26.99 431.05,-25.76 439.14,-24.54"/>
<polygon fill="#63b8ff" stroke="#63b8ff" points="439.61,-28.01 448.98,-23.05 438.57,-21.08 439.61,-28.01"/>
</a>
</g>
</g>
</g>
</svg>

<g id="navigator" transform="translate(0 0)" fill="#404254">
  <rect fill="#f2f5e9" fill-opacity="0.5" stroke="#606060" stroke-width=".5" x="0" y="0" width="60" height="60"/>
  <use id="zoomplus" xlink:href="#zoomPlus" x="17" y="9" onmousedown="handleZoom(evt,'in')"/>
  <use id="zoomminus" xlink:href="#zoomMin" x="42" y="9" onmousedown="handleZoom(evt,'out')"/>
  <use id="reset" xlink:href="#resetDef" x="30" y="36" onmousedown="handleReset()"/>
   <use id="arrowup" xlink:href="#arrowUp" x="0" y="0" onmousedown="handlePan(0,-1)"/>
  <use id="arrowright" xlink:href="#arrowRight" x="0" y="0" onmousedown="handlePan(1,0)"/>
  <use id="arrowdown" xlink:href="#arrowDown" x="0" y="0" onmousedown="handlePan(0,1)"/>
  <use id="arrowleft" xlink:href="#arrowLeft" x="0" y="0" onmousedown="handlePan(-1,0)"/>
</g>
<svg viewBox="0 0 15 15" width="100%" height="30px" preserveAspectRatio="xMaxYMin meet">
 <g id="arrow_out" transform="scale(0.3 0.3)">
  <a xlink:href="classNetworkStatusWidget_a621b931ee58720e3e35b0a4a6a56e74a_cgraph_org.svg" target="_base">
   <rect id="button" ry="5" rx="5" y="6" x="6" height="38" width="38"
        fill="#f2f5e9" fill-opacity="0.5" stroke="#606060" stroke-width="1.0"/>
   <path id="arrow"
     d="M 11.500037,31.436501 C 11.940474,20.09759 22.043105,11.32322 32.158766,21.979434 L 37.068811,17.246167 C 37.068811,17.246167 37.088388,32 37.088388,32 L 22.160133,31.978069 C 22.160133,31.978069 26.997745,27.140456 26.997745,27.140456 C 18.528582,18.264221 13.291696,25.230495 11.500037,31.436501 z"
     style="fill:#404040;"/>
  </a>
 </g>
</svg>

<style type='text/css'>
<![CDATA[
[data-mouse-over-selected='false'] { opacity: 0.7; }
[data-mouse-over-selected='true']  { opacity: 1.0; }
]]>
</style>
<script type="application/ecmascript"><![CDATA[
document.addEventListener('DOMContentLoaded', (event) => {
  highlightEdges();
  highlightAdjacentNodes();
});
]]></script>
</svg>
