<?xml version="1.0" encoding="UTF-8" standalone="no"?>
<!DOCTYPE svg PUBLIC "-//W3C//DTD SVG 1.1//EN"
 "http://www.w3.org/Graphics/SVG/1.1/DTD/svg11.dtd">
<!-- Generated by graphviz version 12.2.1 (0)
 -->
<!-- Title: AppInstanceManager::CreatePositionMessage Pages: 1 -->
<svg width="575pt" height="107pt"
 viewBox="0.00 0.00 574.50 107.00" xmlns="http://www.w3.org/2000/svg" xmlns:xlink="http://www.w3.org/1999/xlink">
<g id="graph0" class="graph" transform="scale(1 1) rotate(0) translate(4 103)">
<title>AppInstanceManager::CreatePositionMessage</title>
<!-- Node1 -->
<g id="Node000001" class="node">
<title>Node1</title>
<g id="a_Node000001"><a xlink:title="Creates a QByteArray message containing the current instance&#39;s position data.">
<polygon fill="#999999" stroke="#666666" points="566.5,-52 440.25,-52 440.25,-23 566.5,-23 566.5,-52"/>
<text text-anchor="start" x="448.25" y="-38.5" font-family="Helvetica,sans-Serif" font-size="10.00">AppInstanceManager</text>
<text text-anchor="middle" x="503.38" y="-28" font-family="Helvetica,sans-Serif" font-size="10.00">::CreatePositionMessage</text>
</a>
</g>
</g>
<!-- Node2 -->
<g id="Node000002" class="node">
<title>Node2</title>
<g id="a_Node000002"><a xlink:href="classAppInstanceManager.html#a46df6d357b1a69b71bfa325166b179ea" target="_top" xlink:title="Processes an incoming message received from a socket.">
<polygon fill="white" stroke="#666666" points="403.5,-76 295.25,-76 295.25,-47 403.5,-47 403.5,-76"/>
<text text-anchor="start" x="303.25" y="-62.5" font-family="Helvetica,sans-Serif" font-size="10.00">AppInstanceManager</text>
<text text-anchor="middle" x="349.38" y="-52" font-family="Helvetica,sans-Serif" font-size="10.00">::ProcessMessage</text>
</a>
</g>
</g>
<!-- Node1&#45;&gt;Node2 -->
<g id="edge1_Node000001_Node000002" class="edge">
<title>Node1&#45;&gt;Node2</title>
<g id="a_edge1_Node000001_Node000002"><a xlink:title=" ">
<path fill="none" stroke="#63b8ff" d="M428.92,-49.1C420.36,-50.45 411.76,-51.81 403.55,-53.1"/>
<polygon fill="#63b8ff" stroke="#63b8ff" points="429.29,-52.58 438.62,-47.57 428.19,-45.67 429.29,-52.58"/>
</a>
</g>
</g>
<!-- Node9 -->
<g id="Node000009" class="node">
<title>Node9</title>
<g id="a_Node000009"><a xlink:href="classAppInstanceManager.html#ae9bddf9404ee3f9fed9e1d367bb603af" target="_top" xlink:title="Slot called periodically by position_timer_ to send the current instance&#39;s position data.">
<polygon fill="white" stroke="#666666" points="404.25,-29 294.5,-29 294.5,0 404.25,0 404.25,-29"/>
<text text-anchor="start" x="302.5" y="-15.5" font-family="Helvetica,sans-Serif" font-size="10.00">AppInstanceManager</text>
<text text-anchor="middle" x="349.38" y="-5" font-family="Helvetica,sans-Serif" font-size="10.00">::sendPositionUpdate</text>
</a>
</g>
</g>
<!-- Node1&#45;&gt;Node9 -->
<g id="edge5_Node000001_Node000009" class="edge">
<title>Node1&#45;&gt;Node9</title>
<g id="a_edge5_Node000001_Node000009"><a xlink:title=" ">
<path fill="none" stroke="#63b8ff" d="M428.95,-26.39C420.71,-25.14 412.44,-23.89 404.51,-22.69"/>
<polygon fill="#63b8ff" stroke="#63b8ff" points="428.2,-29.82 438.62,-27.85 429.25,-22.9 428.2,-29.82"/>
</a>
</g>
</g>
<!-- Node3 -->
<g id="Node000003" class="node">
<title>Node3</title>
<g id="a_Node000003"><a xlink:href="classAppInstanceManager.html#ab7fe0e77dca903fa23d78139dd68e84b" target="_top" xlink:title="Slot called when data can be read from a connected socket.">
<polygon fill="white" stroke="#666666" points="255.5,-76 147.25,-76 147.25,-47 255.5,-47 255.5,-76"/>
<text text-anchor="start" x="155.25" y="-62.5" font-family="Helvetica,sans-Serif" font-size="10.00">AppInstanceManager</text>
<text text-anchor="middle" x="201.38" y="-52" font-family="Helvetica,sans-Serif" font-size="10.00">::readData</text>
</a>
</g>
</g>
<!-- Node2&#45;&gt;Node3 -->
<g id="edge2_Node000002_Node000003" class="edge">
<title>Node2&#45;&gt;Node3</title>
<g id="a_edge2_Node000002_Node000003"><a xlink:title=" ">
<path fill="none" stroke="#63b8ff" d="M283.35,-61.5C274.18,-61.5 264.83,-61.5 255.9,-61.5"/>
<polygon fill="#63b8ff" stroke="#63b8ff" points="283.33,-65 293.33,-61.5 283.33,-58 283.33,-65"/>
</a>
</g>
</g>
<!-- Node4 -->
<g id="Node000004" class="node">
<title>Node4</title>
<g id="a_Node000004"><a xlink:href="classAppInstanceManager.html#a6aa626dd1ea5e5c57860d532bdb85d5e" target="_top" xlink:title="Establishes a connection to the server instance for a client instance.">
<polygon fill="#fff0f0" stroke="red" points="108.25,-99 0,-99 0,-70 108.25,-70 108.25,-99"/>
<text text-anchor="start" x="8" y="-85.5" font-family="Helvetica,sans-Serif" font-size="10.00">AppInstanceManager</text>
<text text-anchor="middle" x="54.12" y="-75" font-family="Helvetica,sans-Serif" font-size="10.00">::ConnectToServer</text>
</a>
</g>
</g>
<!-- Node3&#45;&gt;Node4 -->
<g id="edge3_Node000003_Node000004" class="edge">
<title>Node3&#45;&gt;Node4</title>
<g id="a_edge3_Node000003_Node000004"><a xlink:title=" ">
<path fill="none" stroke="#63b8ff" d="M135.99,-71.7C126.76,-73.16 117.36,-74.65 108.38,-76.07"/>
<polygon fill="#63b8ff" stroke="#63b8ff" points="136.29,-75.19 145.62,-70.17 135.19,-68.28 136.29,-75.19"/>
</a>
</g>
</g>
<!-- Node6 -->
<g id="Node000006" class="node">
<title>Node6</title>
<g id="a_Node000006"><a xlink:href="classAppInstanceManager.html#af7e9143a1ff0af2932c1d0afc1f31231" target="_top" xlink:title="Slot called when a new client attempts to connect to the server.">
<polygon fill="#fff0f0" stroke="red" points="108.25,-52 0,-52 0,-23 108.25,-23 108.25,-52"/>
<text text-anchor="start" x="8" y="-38.5" font-family="Helvetica,sans-Serif" font-size="10.00">AppInstanceManager</text>
<text text-anchor="middle" x="54.12" y="-28" font-family="Helvetica,sans-Serif" font-size="10.00">::onNewConnection</text>
</a>
</g>
</g>
<!-- Node3&#45;&gt;Node6 -->
<g id="edge4_Node000003_Node000006" class="edge">
<title>Node3&#45;&gt;Node6</title>
<g id="a_edge4_Node000003_Node000006"><a xlink:title=" ">
<path fill="none" stroke="#63b8ff" d="M135.99,-50.86C126.76,-49.34 117.36,-47.78 108.38,-46.3"/>
<polygon fill="#63b8ff" stroke="#63b8ff" points="135.18,-54.28 145.62,-52.45 136.33,-47.37 135.18,-54.28"/>
</a>
</g>
</g>
<!-- Node10 -->
<g id="Node000010" class="node">
<title>Node10</title>
<g id="a_Node000010"><a xlink:href="classAppInstanceManager.html#a897370674b4179edd7469b35335ef921" target="_top" xlink:title="Constructs an AppInstanceManager.">
<polygon fill="white" stroke="#666666" points="258.5,-29 144.25,-29 144.25,0 258.5,0 258.5,-29"/>
<text text-anchor="start" x="152.25" y="-15.5" font-family="Helvetica,sans-Serif" font-size="10.00">AppInstanceManager</text>
<text text-anchor="middle" x="201.38" y="-5" font-family="Helvetica,sans-Serif" font-size="10.00">::AppInstanceManager</text>
</a>
</g>
</g>
<!-- Node9&#45;&gt;Node10 -->
<g id="edge6_Node000009_Node000010" class="edge">
<title>Node9&#45;&gt;Node10</title>
<g id="a_edge6_Node000009_Node000010"><a xlink:title=" ">
<path fill="none" stroke="#63b8ff" d="M282.51,-14.5C274.57,-14.5 266.52,-14.5 258.74,-14.5"/>
<polygon fill="#63b8ff" stroke="#63b8ff" points="282.5,-18 292.5,-14.5 282.5,-11 282.5,-18"/>
</a>
</g>
</g>
</g>
</svg>
