<?xml version="1.0" encoding="UTF-8" standalone="no"?>
<!DOCTYPE svg PUBLIC "-//W3C//DTD SVG 1.1//EN"
 "http://www.w3.org/Graphics/SVG/1.1/DTD/svg11.dtd">
<!-- Generated by graphviz version 12.2.1 (0)
 -->
<!-- Title: StreamMessage::CleanupContent Pages: 1 -->
<svg width="737pt" height="106pt"
 viewBox="0.00 0.00 737.25 105.75" xmlns="http://www.w3.org/2000/svg" xmlns:xlink="http://www.w3.org/1999/xlink">
<g id="graph0" class="graph" transform="scale(1 1) rotate(0) translate(4 101.75)">
<title>StreamMessage::CleanupContent</title>
<!-- Node1 -->
<g id="Node000001" class="node">
<title>Node1</title>
<g id="a_Node000001"><a xlink:title="Cleans the message content by removing HTML tags and placeholders, and decoding HTML entities....">
<polygon fill="#999999" stroke="#666666" points="729.25,-60.75 565.5,-60.75 565.5,-42.25 729.25,-42.25 729.25,-60.75"/>
<text text-anchor="middle" x="647.38" y="-47.25" font-family="Helvetica,sans-Serif" font-size="10.00">StreamMessage::CleanupContent</text>
</a>
</g>
</g>
<!-- Node2 -->
<g id="Node000002" class="node">
<title>Node2</title>
<g id="a_Node000002"><a xlink:href="classStreamMessage.html#ab018e0c173fde148dec8f2441b5db300" target="_top" xlink:title="Parses HTML content to find an attachment placeholder and adds the corresponding AttachmentPlaceholde...">
<polygon fill="white" stroke="#666666" points="527.62,-97.75 366.88,-97.75 366.88,-79.25 527.62,-79.25 527.62,-97.75"/>
<text text-anchor="middle" x="447.25" y="-84.25" font-family="Helvetica,sans-Serif" font-size="10.00">StreamMessage::AddAttachment</text>
</a>
</g>
</g>
<!-- Node1&#45;&gt;Node2 -->
<g id="edge1_Node000001_Node000002" class="edge">
<title>Node1&#45;&gt;Node2</title>
<g id="a_edge1_Node000001_Node000002"><a xlink:title=" ">
<path fill="none" stroke="#63b8ff" d="M583.14,-63.31C556.42,-68.3 525.68,-74.04 500.3,-78.78"/>
<polygon fill="#63b8ff" stroke="#63b8ff" points="583.64,-66.78 592.83,-61.5 582.36,-59.89 583.64,-66.78"/>
</a>
</g>
</g>
<!-- Node3 -->
<g id="Node000003" class="node">
<title>Node3</title>
<g id="a_Node000003"><a xlink:href="classStreamMessage.html#a9857276cff1cb0de012614e87fee1ac4" target="_top" xlink:title="Constructs a StreamMessage widget. Initializes UI elements (layout, text display/label/scroll area),...">
<polygon fill="white" stroke="#666666" points="529.5,-60.75 365,-60.75 365,-42.25 529.5,-42.25 529.5,-60.75"/>
<text text-anchor="middle" x="447.25" y="-47.25" font-family="Helvetica,sans-Serif" font-size="10.00">StreamMessage::StreamMessage</text>
</a>
</g>
</g>
<!-- Node1&#45;&gt;Node3 -->
<g id="edge2_Node000001_Node000003" class="edge">
<title>Node1&#45;&gt;Node3</title>
<g id="a_edge2_Node000001_Node000003"><a xlink:title=" ">
<path fill="none" stroke="#63b8ff" d="M553.94,-51.5C545.92,-51.5 537.85,-51.5 529.92,-51.5"/>
<polygon fill="#63b8ff" stroke="#63b8ff" points="553.7,-55 563.7,-51.5 553.7,-48 553.7,-55"/>
</a>
</g>
</g>
<!-- Node4 -->
<g id="Node000004" class="node">
<title>Node4</title>
<g id="a_Node000004"><a xlink:href="classStreamMessage.html#a009bab0169fe961a273ffaf6783dfb15" target="_top" xlink:title="Updates the content of an existing message, typically used for progress updates. Cleans the new conte...">
<polygon fill="white" stroke="#666666" points="526.88,-23.75 367.62,-23.75 367.62,-5.25 526.88,-5.25 526.88,-23.75"/>
<text text-anchor="middle" x="447.25" y="-10.25" font-family="Helvetica,sans-Serif" font-size="10.00">StreamMessage::UpdateContent</text>
</a>
</g>
</g>
<!-- Node1&#45;&gt;Node4 -->
<g id="edge3_Node000001_Node000004" class="edge">
<title>Node1&#45;&gt;Node4</title>
<g id="a_edge3_Node000001_Node000004"><a xlink:title=" ">
<path fill="none" stroke="#63b8ff" d="M583.14,-39.69C556.42,-34.7 525.68,-28.96 500.3,-24.22"/>
<polygon fill="#63b8ff" stroke="#63b8ff" points="582.36,-43.11 592.83,-41.5 583.64,-36.22 582.36,-43.11"/>
</a>
</g>
</g>
<!-- Node5 -->
<g id="Node000005" class="node">
<title>Node5</title>
<g id="a_Node000005"><a xlink:href="classStreamDisplay.html#aba8774044f5e157e128c9429c67c5970" target="_top" xlink:title="Processes the next message from the message_queue_. Dequeues a message, checks if it&#39;s an update to a...">
<polygon fill="white" stroke="#666666" points="329,-29 186.25,-29 186.25,0 329,0 329,-29"/>
<text text-anchor="start" x="194.25" y="-15.5" font-family="Helvetica,sans-Serif" font-size="10.00">StreamDisplay::ProcessNext</text>
<text text-anchor="middle" x="257.62" y="-5" font-family="Helvetica,sans-Serif" font-size="10.00">QueuedMessage</text>
</a>
</g>
</g>
<!-- Node4&#45;&gt;Node5 -->
<g id="edge4_Node000004_Node000005" class="edge">
<title>Node4&#45;&gt;Node5</title>
<g id="a_edge4_Node000004_Node000005"><a xlink:title=" ">
<path fill="none" stroke="#63b8ff" d="M355.91,-14.5C346.95,-14.5 337.94,-14.5 329.21,-14.5"/>
<polygon fill="#63b8ff" stroke="#63b8ff" points="355.71,-18 365.71,-14.5 355.71,-11 355.71,-18"/>
</a>
</g>
</g>
<!-- Node6 -->
<g id="Node000006" class="node">
<title>Node6</title>
<g id="a_Node000006"><a xlink:href="classStreamDisplay.html#ab49c3a484e911bc8cf752e2d3791516a" target="_top" xlink:title="Constructs a WavelengthStreamDisplay widget. Creates the main layout, instantiates the CommunicationS...">
<polygon fill="white" stroke="#666666" points="150.25,-23.75 0,-23.75 0,-5.25 150.25,-5.25 150.25,-23.75"/>
<text text-anchor="middle" x="75.12" y="-10.25" font-family="Helvetica,sans-Serif" font-size="10.00">StreamDisplay::StreamDisplay</text>
</a>
</g>
</g>
<!-- Node5&#45;&gt;Node6 -->
<g id="edge5_Node000005_Node000006" class="edge">
<title>Node5&#45;&gt;Node6</title>
<g id="a_edge5_Node000005_Node000006"><a xlink:title=" ">
<path fill="none" stroke="#63b8ff" d="M174.31,-14.5C166.41,-14.5 158.43,-14.5 150.61,-14.5"/>
<polygon fill="#63b8ff" stroke="#63b8ff" points="174.29,-18 184.29,-14.5 174.29,-11 174.29,-18"/>
</a>
</g>
</g>
</g>
</svg>
