<?xml version="1.0" encoding="UTF-8" standalone="no"?>
<!DOCTYPE svg PUBLIC "-//W3C//DTD SVG 1.1//EN"
 "http://www.w3.org/Graphics/SVG/1.1/DTD/svg11.dtd">
<!-- Generated by graphviz version 12.2.1 (0)
 -->
<!-- Title: TabButton Pages: 1 -->
<svg width="150pt" height="339pt"
 viewBox="0.00 0.00 149.75 339.00" xmlns="http://www.w3.org/2000/svg" xmlns:xlink="http://www.w3.org/1999/xlink">
<g id="graph0" class="graph" transform="scale(1 1) rotate(0) translate(4 335)">
<title>TabButton</title>
<!-- Node1 -->
<g id="Node000001" class="node">
<title>Node1</title>
<g id="a_Node000001"><a xlink:title="A custom QPushButton styled as a tab button with an animated underline effect.">
<polygon fill="#999999" stroke="none" points="141.75,-247.5 0,-247.5 0,0 141.75,0 141.75,-247.5"/>
<text text-anchor="start" x="48.75" y="-234" font-family="Helvetica,sans-Serif" font-size="10.00">TabButton</text>
<text text-anchor="start" x="4" y="-219.5" font-family="Helvetica,sans-Serif" font-size="10.00">+</text>
<text text-anchor="start" x="14" y="-219.5" font-family="Helvetica,sans-Serif" font-size="10.00">double underlineOffset</text>
<text text-anchor="start" x="5.5" y="-205" font-family="Helvetica,sans-Serif" font-size="10.00">&#45;</text>
<text text-anchor="start" x="14" y="-205" font-family="Helvetica,sans-Serif" font-size="10.00">bool is_active_</text>
<text text-anchor="start" x="5.5" y="-190.5" font-family="Helvetica,sans-Serif" font-size="10.00">&#45;</text>
<text text-anchor="start" x="14" y="-190.5" font-family="Helvetica,sans-Serif" font-size="10.00">double underline_offset_</text>
<text text-anchor="start" x="4" y="-176" font-family="Helvetica,sans-Serif" font-size="10.00">+</text>
<text text-anchor="start" x="14" y="-176" font-family="Helvetica,sans-Serif" font-size="10.00">void SetActive(bool</text>
<text text-anchor="start" x="14" y="-165.5" font-family="Helvetica,sans-Serif" font-size="10.00"> active)</text>
<text text-anchor="start" x="4" y="-151" font-family="Helvetica,sans-Serif" font-size="10.00">+</text>
<text text-anchor="start" x="14" y="-151" font-family="Helvetica,sans-Serif" font-size="10.00">void SetUnderlineOffset</text>
<text text-anchor="start" x="14" y="-140.5" font-family="Helvetica,sans-Serif" font-size="10.00">(double offset)</text>
<text text-anchor="start" x="4" y="-126" font-family="Helvetica,sans-Serif" font-size="10.00">+</text>
<text text-anchor="start" x="14" y="-126" font-family="Helvetica,sans-Serif" font-size="10.00">TabButton(const QString</text>
<text text-anchor="start" x="14" y="-115.5" font-family="Helvetica,sans-Serif" font-size="10.00"> &amp;text, QWidget *parent</text>
<text text-anchor="start" x="14" y="-105" font-family="Helvetica,sans-Serif" font-size="10.00">=nullptr)</text>
<text text-anchor="start" x="4" y="-90.5" font-family="Helvetica,sans-Serif" font-size="10.00">+</text>
<text text-anchor="start" x="14" y="-90.5" font-family="Helvetica,sans-Serif" font-size="10.00">double UnderlineOffset</text>
<text text-anchor="start" x="14" y="-80" font-family="Helvetica,sans-Serif" font-size="10.00">() const</text>
<text text-anchor="start" x="4.38" y="-65.5" font-family="Helvetica,sans-Serif" font-size="10.00">#</text>
<text text-anchor="start" x="14" y="-65.5" font-family="Helvetica,sans-Serif" font-size="10.00">void enterEvent(QEvent</text>
<text text-anchor="start" x="14" y="-55" font-family="Helvetica,sans-Serif" font-size="10.00"> *event) override</text>
<text text-anchor="start" x="4.38" y="-40.5" font-family="Helvetica,sans-Serif" font-size="10.00">#</text>
<text text-anchor="start" x="14" y="-40.5" font-family="Helvetica,sans-Serif" font-size="10.00">void leaveEvent(QEvent</text>
<text text-anchor="start" x="14" y="-30" font-family="Helvetica,sans-Serif" font-size="10.00"> *event) override</text>
<text text-anchor="start" x="4.38" y="-15.5" font-family="Helvetica,sans-Serif" font-size="10.00">#</text>
<text text-anchor="start" x="14" y="-15.5" font-family="Helvetica,sans-Serif" font-size="10.00">void paintEvent(QPaintEvent</text>
<text text-anchor="start" x="14" y="-5" font-family="Helvetica,sans-Serif" font-size="10.00"> *event) override</text>
<polygon fill="#666666" stroke="#666666" points="0,-231 0,-231 141.75,-231 141.75,-231 0,-231"/>
<polygon fill="#666666" stroke="#666666" points="0,-187.5 0,-187.5 12,-187.5 12,-187.5 0,-187.5"/>
<polygon fill="#666666" stroke="#666666" points="12,-187.5 12,-187.5 141.75,-187.5 141.75,-187.5 12,-187.5"/>
<polygon fill="none" stroke="#666666" points="0,0 0,-247.5 141.75,-247.5 141.75,0 0,0"/>
</a>
</g>
</g>
<!-- Node2 -->
<g id="Node000002" class="node">
<title>Node2</title>
<g id="a_Node000002"><a xlink:title=" ">
<polygon fill="white" stroke="none" points="104.12,-331 37.62,-331 37.62,-283.5 104.12,-283.5 104.12,-331"/>
<text text-anchor="start" x="41.62" y="-317.5" font-family="Helvetica,sans-Serif" font-size="10.00">QPushButton</text>
<text text-anchor="start" x="69.38" y="-303" font-family="Helvetica,sans-Serif" font-size="10.00"> </text>
<text text-anchor="start" x="69.38" y="-288.5" font-family="Helvetica,sans-Serif" font-size="10.00"> </text>
<polygon fill="#666666" stroke="#666666" points="37.62,-314.5 37.62,-314.5 104.12,-314.5 104.12,-314.5 37.62,-314.5"/>
<polygon fill="#666666" stroke="#666666" points="37.62,-300 37.62,-300 104.12,-300 104.12,-300 37.62,-300"/>
<polygon fill="none" stroke="#666666" points="37.62,-283.5 37.62,-331 104.12,-331 104.12,-283.5 37.62,-283.5"/>
</a>
</g>
</g>
<!-- Node2&#45;&gt;Node1 -->
<g id="edge1_Node000001_Node000002" class="edge">
<title>Node2&#45;&gt;Node1</title>
<g id="a_edge1_Node000001_Node000002"><a xlink:title=" ">
<path fill="none" stroke="#63b8ff" d="M70.88,-272.21C70.88,-264.68 70.88,-256.28 70.88,-247.41"/>
<polygon fill="none" stroke="#63b8ff" points="67.38,-272.12 70.88,-282.12 74.38,-272.12 67.38,-272.12"/>
</a>
</g>
</g>
</g>
</svg>
