<?xml version="1.0" encoding="UTF-8" standalone="no"?>
<!DOCTYPE svg PUBLIC "-//W3C//DTD SVG 1.1//EN"
 "http://www.w3.org/Graphics/SVG/1.1/DTD/svg11.dtd">
<!-- Generated by graphviz version 12.2.1 (0)
 -->
<!-- Title: GifDecoder::Initialize Pages: 1 -->
<svg width="472pt" height="111pt"
 viewBox="0.00 0.00 471.50 110.50" xmlns="http://www.w3.org/2000/svg" xmlns:xlink="http://www.w3.org/1999/xlink">
<g id="graph0" class="graph" transform="scale(1 1) rotate(0) translate(4 106.5)">
<title>GifDecoder::Initialize</title>
<!-- Node1 -->
<g id="Node000001" class="node">
<title>Node1</title>
<g id="a_Node000001"><a xlink:title="Initializes the FFmpeg components for decoding the GIF. Opens the input stream using the custom I/O c...">
<polygon fill="#999999" stroke="#666666" points="106.75,-60.5 0,-60.5 0,-42 106.75,-42 106.75,-60.5"/>
<text text-anchor="middle" x="53.38" y="-47" font-family="Helvetica,sans-Serif" font-size="10.00">GifDecoder::Initialize</text>
</a>
</g>
</g>
<!-- Node2 -->
<g id="Node000002" class="node">
<title>Node2</title>
<g id="a_Node000002"><a xlink:href="classGifDecoder.html#a75ca53e116fcdd49a14551af6c00f301" target="_top" xlink:title="Emitted when an error occurs during initialization or decoding.">
<polygon fill="white" stroke="#666666" points="258.5,-102.5 167.5,-102.5 167.5,-84 258.5,-84 258.5,-102.5"/>
<text text-anchor="middle" x="213" y="-89" font-family="Helvetica,sans-Serif" font-size="10.00">GifDecoder::error</text>
</a>
</g>
</g>
<!-- Node1&#45;&gt;Node2 -->
<g id="edge1_Node000001_Node000002" class="edge">
<title>Node1&#45;&gt;Node2</title>
<g id="a_edge1_Node000001_Node000002"><a xlink:title=" ">
<path fill="none" stroke="#63b8ff" d="M89.61,-60.91C105.79,-65.33 125.23,-70.6 142.75,-75.25 149.45,-77.03 156.51,-78.89 163.47,-80.71"/>
<polygon fill="#63b8ff" stroke="#63b8ff" points="162.22,-84 172.78,-83.13 163.98,-77.22 162.22,-84"/>
</a>
</g>
</g>
<!-- Node3 -->
<g id="Node000003" class="node">
<title>Node3</title>
<g id="a_Node000003"><a xlink:href="classGifDecoder.html#a4ca17f03ef1f3dd2cc6981d287e3b3d6" target="_top" xlink:title="Internal helper function called by Initialize() to extract and emit the first frame....">
<polygon fill="white" stroke="#666666" points="283.25,-65.75 142.75,-65.75 142.75,-36.75 283.25,-36.75 283.25,-65.75"/>
<text text-anchor="start" x="150.75" y="-52.25" font-family="Helvetica,sans-Serif" font-size="10.00">GifDecoder::ExtractAndEmit</text>
<text text-anchor="middle" x="213" y="-41.75" font-family="Helvetica,sans-Serif" font-size="10.00">FirstFrameInternal</text>
</a>
</g>
</g>
<!-- Node1&#45;&gt;Node3 -->
<g id="edge2_Node000001_Node000003" class="edge">
<title>Node1&#45;&gt;Node3</title>
<g id="a_edge2_Node000001_Node000003"><a xlink:title=" ">
<path fill="none" stroke="#63b8ff" d="M106.86,-51.25C114.59,-51.25 122.7,-51.25 130.85,-51.25"/>
<polygon fill="#63b8ff" stroke="#63b8ff" points="130.84,-54.75 140.84,-51.25 130.84,-47.75 130.84,-54.75"/>
</a>
</g>
</g>
<!-- Node5 -->
<g id="Node000005" class="node">
<title>Node5</title>
<g id="a_Node000005"><a xlink:href="classGifDecoder.html#a1f914a590ac031ee8c90067ec3b51707" target="_top" xlink:title="Emitted after successful initialization, providing GIF stream details.">
<polygon fill="white" stroke="#666666" points="262.25,-18.5 163.75,-18.5 163.75,0 262.25,0 262.25,-18.5"/>
<text text-anchor="middle" x="213" y="-5" font-family="Helvetica,sans-Serif" font-size="10.00">GifDecoder::gifInfo</text>
</a>
</g>
</g>
<!-- Node1&#45;&gt;Node5 -->
<g id="edge4_Node000001_Node000005" class="edge">
<title>Node1&#45;&gt;Node5</title>
<g id="a_edge4_Node000001_Node000005"><a xlink:title=" ">
<path fill="none" stroke="#63b8ff" d="M90.93,-41.51C112.92,-35.65 141.13,-28.13 164.78,-21.83"/>
<polygon fill="#63b8ff" stroke="#63b8ff" points="165.42,-25.28 174.18,-19.33 163.61,-18.52 165.42,-25.28"/>
</a>
</g>
</g>
<!-- Node4 -->
<g id="Node000004" class="node">
<title>Node4</title>
<g id="a_Node000004"><a xlink:href="classGifDecoder.html#af56a2d4106b23043979333d001dac9c9" target="_top" xlink:title="Emitted once after successful initialization, containing the first frame. Useful for displaying a sta...">
<polygon fill="white" stroke="#666666" points="463.5,-60.5 319.25,-60.5 319.25,-42 463.5,-42 463.5,-60.5"/>
<text text-anchor="middle" x="391.38" y="-47" font-family="Helvetica,sans-Serif" font-size="10.00">GifDecoder::firstFrameReady</text>
</a>
</g>
</g>
<!-- Node3&#45;&gt;Node4 -->
<g id="edge3_Node000003_Node000004" class="edge">
<title>Node3&#45;&gt;Node4</title>
<g id="a_edge3_Node000003_Node000004"><a xlink:title=" ">
<path fill="none" stroke="#63b8ff" d="M283.71,-51.25C291.56,-51.25 299.62,-51.25 307.62,-51.25"/>
<polygon fill="#63b8ff" stroke="#63b8ff" points="307.35,-54.75 317.35,-51.25 307.35,-47.75 307.35,-54.75"/>
</a>
</g>
</g>
</g>
</svg>
