<?xml version="1.0" encoding="UTF-8" standalone="no"?>
<!DOCTYPE svg PUBLIC "-//W3C//DTD SVG 1.1//EN"
 "http://www.w3.org/Graphics/SVG/1.1/DTD/svg11.dtd">
<!-- Generated by graphviz version 12.2.1 (0)
 -->
<!-- Title: ChatView::OnPttGranted Pages: 1 -->
<!--zoomable 177 -->

<svg id="main" version="1.1" xmlns="http://www.w3.org/2000/svg" xmlns:xlink="http://www.w3.org/1999/xlink" xml:space="preserve" onload="init(evt)">

<style type="text/css"><![CDATA[
.node, .edge {opacity: 0.7;}
.node.selected, .edge.selected {opacity: 1;}
.edge:hover path { stroke: red; }
.edge:hover polygon { stroke: red; fill: red; }
]]></style>

<defs>
  <circle id="rim" cx="0" cy="0" r="7"/>
  <circle id="rim2" cx="0" cy="0" r="3.5"/>
  <g id="zoomPlus">
    <use xlink:href="#rim" fill="#404040"><set attributeName="fill" to="#808080" begin="zoomplus.mouseover" end="zoomplus.mouseout"/></use>
    <path d="M-4,0h8M0,-4v8" fill="none" stroke="white" stroke-width="1.5" pointer-events="none"/>
  </g>
  <g id="zoomMin">
    <use xlink:href="#rim" fill="#404040"><set attributeName="fill" to="#808080" begin="zoomminus.mouseover" end="zoomminus.mouseout"/></use>
    <path d="M-4,0h8" fill="none" stroke="white" stroke-width="1.5" pointer-events="none"/>
  </g>
  <g id="arrowUp" transform="translate(30 24)">
    <use xlink:href="#rim"/>
    <path pointer-events="none" fill="none" stroke="white" stroke-width="1.5" d="M0,-3.0v7 M-2.5,-0.5L0,-3.0L2.5,-0.5"/>
  </g>
  <g id="arrowRight" transform="rotate(90) translate(36 -43)">
    <use xlink:href="#rim"/>
    <path pointer-events="none" fill="none" stroke="white" stroke-width="1.5" d="M0,-3.0v7 M-2.5,-0.5L0,-3.0L2.5,-0.5"/>
  </g>
  <g id="arrowDown" transform="rotate(180) translate(-30 -48)">
    <use xlink:href="#rim"/>
    <path pointer-events="none" fill="none" stroke="white" stroke-width="1.5" d="M0,-3.0v7 M-2.5,-0.5L0,-3.0L2.5,-0.5"/>
  </g>
  <g id="arrowLeft" transform="rotate(270) translate(-36 17)">
    <use xlink:href="#rim"/>
    <path pointer-events="none" fill="none" stroke="white" stroke-width="1.5" d="M0,-3.0v7 M-2.5,-0.5L0,-3.0L2.5,-0.5"/>
  </g>
  <g id="resetDef">
    <use xlink:href="#rim2" fill="#404040"><set attributeName="fill" to="#808080" begin="reset.mouseover" end="reset.mouseout"/></use>
  </g>
</defs>
<script type="application/ecmascript">
var viewWidth = 902;
var viewHeight = 177;
var sectionId = 'dynsection-20';
</script>
<script type="application/ecmascript" xlink:href="svg.min.js"/>
<svg id="graph" class="graph">
<g id="viewport">
<title>ChatView::OnPttGranted</title>
<!-- Node1 -->
<g id="Node000001" class="node">
<title>Node1</title>
<g id="a_Node000001"><a xlink:title="Slot called when the server grants the PTT request. If the frequency matches and the state is Request...">
<polygon fill="#999999" stroke="#666666" points="124,-82.75 0,-82.75 0,-64.25 124,-64.25 124,-82.75"/>
<text text-anchor="middle" x="62" y="-69.25" font-family="Helvetica,sans-Serif" font-size="10.00">ChatView::OnPttGranted</text>
</a>
</g>
</g>
<!-- Node2 -->
<g id="Node000002" class="node">
<title>Node2</title>
<g id="a_Node000002"><a xlink:href="classChatView.html#ac40ec4de8eddc9ea4fc2d3e210aa6c4d" target="_top" xlink:title="Slot called when the PTT button is released. Plays the PTT deactivation sound. If transmitting,...">
<polygon fill="white" stroke="#666666" points="486.75,-83.75 328.25,-83.75 328.25,-65.25 486.75,-65.25 486.75,-83.75"/>
<text text-anchor="middle" x="407.5" y="-70.25" font-family="Helvetica,sans-Serif" font-size="10.00">ChatView::OnPttButtonReleased</text>
</a>
</g>
</g>
<!-- Node1&#45;&gt;Node2 -->
<g id="edge1_Node000001_Node000002" class="edge">
<title>Node1&#45;&gt;Node2</title>
<g id="a_edge1_Node000001_Node000002"><a xlink:title=" ">
<path fill="none" stroke="#63b8ff" d="M124.41,-73.68C177.8,-73.83 255.86,-74.06 316.34,-74.24"/>
<polygon fill="#63b8ff" stroke="#63b8ff" points="316.28,-77.74 326.29,-74.27 316.3,-70.74 316.28,-77.74"/>
</a>
</g>
</g>
<!-- Node14 -->
<g id="Node000014" class="node">
<title>Node14</title>
<g id="a_Node000014"><a xlink:href="classChatView.html#a5d0b4d046c069b49e17f1eabdf350455" target="_top" xlink:title="Updates the appearance and enabled state of the PTT button based on the current ptt_state_....">
<polygon fill="white" stroke="#666666" points="674.12,-29 537.38,-29 537.38,0 674.12,0 674.12,-29"/>
<text text-anchor="start" x="545.38" y="-15.5" font-family="Helvetica,sans-Serif" font-size="10.00">ChatView::UpdatePttButton</text>
<text text-anchor="middle" x="605.75" y="-5" font-family="Helvetica,sans-Serif" font-size="10.00">State</text>
</a>
</g>
</g>
<!-- Node1&#45;&gt;Node14 -->
<g id="edge13_Node000001_Node000014" class="edge">
<title>Node1&#45;&gt;Node14</title>
<g id="a_edge13_Node000001_Node000014"><a xlink:title=" ">
<path fill="none" stroke="#63b8ff" d="M124.36,-66.82C223.08,-56.07 417.13,-34.93 525.96,-23.08"/>
<polygon fill="#63b8ff" stroke="#63b8ff" points="526.12,-26.58 535.68,-22.02 525.36,-19.63 526.12,-26.58"/>
</a>
</g>
</g>
<!-- Node15 -->
<g id="Node000015" class="node">
<title>Node15</title>
<g id="a_Node000015"><a xlink:href="classChatView.html#a119a0cb1a68f2e3a60e4153912fa43f2" target="_top" xlink:title="Starts capturing audio from the microphone if PTT state is Transmitting. Connects the readyRead signa...">
<polygon fill="white" stroke="#666666" points="292.25,-119.75 160,-119.75 160,-101.25 292.25,-101.25 292.25,-119.75"/>
<text text-anchor="middle" x="226.12" y="-106.25" font-family="Helvetica,sans-Serif" font-size="10.00">ChatView::StartAudioInput</text>
</a>
</g>
</g>
<!-- Node1&#45;&gt;Node15 -->
<g id="edge10_Node000001_Node000015" class="edge">
<title>Node1&#45;&gt;Node15</title>
<g id="a_edge10_Node000001_Node000015"><a xlink:title=" ">
<path fill="none" stroke="#63b8ff" d="M105.6,-83.22C125.72,-87.81 149.95,-93.34 171.33,-98.22"/>
<polygon fill="#63b8ff" stroke="#63b8ff" points="170.53,-101.63 181.06,-100.44 172.09,-94.81 170.53,-101.63"/>
</a>
</g>
</g>
<!-- Node3 -->
<g id="Node000003" class="node">
<title>Node3</title>
<g id="a_Node000003"><a xlink:href="classMessageService.html#a3d9355ae6f778ed4799141d921b6e7e4" target="_top" xlink:title="Gets the singleton instance of the MessageService.">
<polygon fill="white" stroke="#666666" points="680.12,-65.75 531.38,-65.75 531.38,-47.25 680.12,-47.25 680.12,-65.75"/>
<text text-anchor="middle" x="605.75" y="-52.25" font-family="Helvetica,sans-Serif" font-size="10.00">MessageService::GetInstance</text>
</a>
</g>
</g>
<!-- Node2&#45;&gt;Node3 -->
<g id="edge2_Node000002_Node000003" class="edge">
<title>Node2&#45;&gt;Node3</title>
<g id="a_edge2_Node000002_Node000003"><a xlink:title=" ">
<path fill="none" stroke="#63b8ff" d="M487.19,-67.28C497.96,-66.3 509.04,-65.28 519.91,-64.28"/>
<polygon fill="#63b8ff" stroke="#63b8ff" points="519.99,-67.79 529.63,-63.39 519.35,-60.82 519.99,-67.79"/>
</a>
</g>
</g>
<!-- Node5 -->
<g id="Node000005" class="node">
<title>Node5</title>
<g id="a_Node000005"><a xlink:href="classMessageService.html#a75fb7423ceb5f01542eb53c93c332df7" target="_top" xlink:title="Sends a Push&#45;to&#45;Talk (PTT) release message for the specified frequency. Constructs a JSON message of ...">
<polygon fill="white" stroke="#666666" points="688.75,-102.75 522.75,-102.75 522.75,-84.25 688.75,-84.25 688.75,-102.75"/>
<text text-anchor="middle" x="605.75" y="-89.25" font-family="Helvetica,sans-Serif" font-size="10.00">MessageService::SendPttRelease</text>
</a>
</g>
</g>
<!-- Node2&#45;&gt;Node5 -->
<g id="edge5_Node000002_Node000005" class="edge">
<title>Node2&#45;&gt;Node5</title>
<g id="a_edge5_Node000002_Node000005"><a xlink:title=" ">
<path fill="none" stroke="#63b8ff" d="M487.19,-82.12C495.09,-82.88 503.17,-83.67 511.2,-84.44"/>
<polygon fill="#63b8ff" stroke="#63b8ff" points="510.71,-87.91 521,-85.39 511.39,-80.94 510.71,-87.91"/>
</a>
</g>
</g>
<!-- Node11 -->
<g id="Node000011" class="node">
<title>Node11</title>
<g id="a_Node000011"><a xlink:href="classChatView.html#abd9ae8e738358b9be6f5e935ea4826a3" target="_top" xlink:title="Stops capturing audio from the microphone. Disconnects signals and resets the input device pointer.">
<polygon fill="white" stroke="#666666" points="671.12,-139.75 540.38,-139.75 540.38,-121.25 671.12,-121.25 671.12,-139.75"/>
<text text-anchor="middle" x="605.75" y="-126.25" font-family="Helvetica,sans-Serif" font-size="10.00">ChatView::StopAudioInput</text>
</a>
</g>
</g>
<!-- Node2&#45;&gt;Node11 -->
<g id="edge7_Node000002_Node000011" class="edge">
<title>Node2&#45;&gt;Node11</title>
<g id="a_edge7_Node000002_Node000011"><a xlink:title=" ">
<path fill="none" stroke="#63b8ff" d="M436,-84.14C459.02,-92.03 492.81,-103.2 522.75,-111.5 531.17,-113.83 540.12,-116.11 548.91,-118.24"/>
<polygon fill="#63b8ff" stroke="#63b8ff" points="547.88,-121.59 558.42,-120.49 549.49,-114.78 547.88,-121.59"/>
</a>
</g>
</g>
<!-- Node2&#45;&gt;Node14 -->
<g id="edge9_Node000002_Node000014" class="edge">
<title>Node2&#45;&gt;Node14</title>
<g id="a_edge9_Node000002_Node000014"><a xlink:title=" ">
<path fill="none" stroke="#63b8ff" d="M438.52,-64.86C461.53,-57.51 494.1,-47.21 522.75,-38.5 529.02,-36.59 535.58,-34.63 542.12,-32.69"/>
<polygon fill="#63b8ff" stroke="#63b8ff" points="543.04,-36.07 551.63,-29.87 541.05,-29.35 543.04,-36.07"/>
</a>
</g>
</g>
<!-- Node4 -->
<g id="Node000004" class="node">
<title>Node4</title>
<g id="a_Node000004"><a xlink:href="classMessageService.html#a2a6e9a079ac7a537b6342e1fb63a52dc" target="_top" xlink:title="Deleted copy constructor to prevent copying.">
<polygon fill="white" stroke="#666666" points="893.75,-50.75 724.75,-50.75 724.75,-32.25 893.75,-32.25 893.75,-50.75"/>
<text text-anchor="middle" x="809.25" y="-37.25" font-family="Helvetica,sans-Serif" font-size="10.00">MessageService::MessageService</text>
</a>
</g>
</g>
<!-- Node3&#45;&gt;Node4 -->
<g id="edge3_Node000003_Node000004" class="edge">
<title>Node3&#45;&gt;Node4</title>
<g id="a_edge3_Node000003_Node000004"><a xlink:title=" ">
<path fill="none" stroke="#63b8ff" d="M680.35,-51.02C690.95,-50.23 701.98,-49.41 712.92,-48.6"/>
<polygon fill="#63b8ff" stroke="#63b8ff" points="713.05,-52.1 722.77,-47.86 712.53,-45.12 713.05,-52.1"/>
</a>
</g>
</g>
<!-- Node4&#45;&gt;Node4 -->
<g id="edge4_Node000004_Node000004" class="edge">
<title>Node4&#45;&gt;Node4</title>
<g id="a_edge4_Node000004_Node000004"><a xlink:title=" ">
<path fill="none" stroke="#63b8ff" d="M777.88,-51C762.63,-59.57 773.08,-68.75 809.25,-68.75 831.29,-68.75 843.78,-65.34 846.73,-60.74"/>
<polygon fill="#63b8ff" stroke="#63b8ff" points="849.7,-58.89 841.42,-52.28 843.77,-62.61 849.7,-58.89"/>
</a>
</g>
</g>
<!-- Node6 -->
<g id="Node000006" class="node">
<title>Node6</title>
<g id="a_Node000006"><a xlink:href="classMessageService.html#ac47c8ae3b3defb430c71fcc9b0636615" target="_top" xlink:title="Helper function to retrieve the active WebSocket connection for a given frequency....">
<polygon fill="#fff0f0" stroke="red" points="879.88,-116 738.62,-116 738.62,-87 879.88,-87 879.88,-116"/>
<text text-anchor="start" x="746.62" y="-102.5" font-family="Helvetica,sans-Serif" font-size="10.00">MessageService::GetSocket</text>
<text text-anchor="middle" x="809.25" y="-92" font-family="Helvetica,sans-Serif" font-size="10.00">ForFrequency</text>
</a>
</g>
</g>
<!-- Node5&#45;&gt;Node6 -->
<g id="edge6_Node000005_Node000006" class="edge">
<title>Node5&#45;&gt;Node6</title>
<g id="a_edge6_Node000005_Node000006"><a xlink:title=" ">
<path fill="none" stroke="#63b8ff" d="M689,-96.77C701.5,-97.26 714.39,-97.77 726.87,-98.27"/>
<polygon fill="#63b8ff" stroke="#63b8ff" points="726.54,-101.76 736.67,-98.66 726.82,-94.76 726.54,-101.76"/>
</a>
</g>
</g>
<!-- Node12 -->
<g id="Node000012" class="node">
<title>Node12</title>
<g id="a_Node000012"><a xlink:href="classChatView.html#a034774a31cd27434eeb01e9965736aeb" target="_top" xlink:title="Slot called when the audio input device has data ready to be read. Reads all available audio data,...">
<polygon fill="#fff0f0" stroke="red" points="883.62,-168.75 734.88,-168.75 734.88,-150.25 883.62,-150.25 883.62,-168.75"/>
<text text-anchor="middle" x="809.25" y="-155.25" font-family="Helvetica,sans-Serif" font-size="10.00">ChatView::OnReadyReadInput</text>
</a>
</g>
</g>
<!-- Node11&#45;&gt;Node12 -->
<g id="edge8_Node000011_Node000012" class="edge">
<title>Node11&#45;&gt;Node12</title>
<g id="a_edge8_Node000011_Node000012"><a xlink:title=" ">
<path fill="none" stroke="#63b8ff" d="M671.62,-139.84C690.08,-142.49 710.4,-145.42 729.59,-148.18"/>
<polygon fill="#63b8ff" stroke="#63b8ff" points="728.84,-151.61 739.23,-149.57 729.84,-144.68 728.84,-151.61"/>
</a>
</g>
</g>
<!-- Node15&#45;&gt;Node2 -->
<g id="edge11_Node000015_Node000002" class="edge">
<title>Node15&#45;&gt;Node2</title>
<g id="a_edge11_Node000015_Node000002"><a xlink:title=" ">
<path fill="none" stroke="#63b8ff" d="M275.67,-100.76C297.6,-96.36 323.73,-91.11 346.84,-86.47"/>
<polygon fill="#63b8ff" stroke="#63b8ff" points="347.32,-89.95 356.44,-84.55 345.94,-83.08 347.32,-89.95"/>
</a>
</g>
</g>
<!-- Node15&#45;&gt;Node12 -->
<g id="edge12_Node000015_Node000012" class="edge">
<title>Node15&#45;&gt;Node12</title>
<g id="a_edge12_Node000015_Node000012"><a xlink:title=" ">
<path fill="none" stroke="#63b8ff" d="M289.81,-120.21C349.53,-129.07 442.05,-141.77 522.75,-148.5 589.92,-154.1 666.22,-156.85 723.04,-158.21"/>
<polygon fill="#63b8ff" stroke="#63b8ff" points="722.91,-161.7 732.98,-158.43 723.06,-154.71 722.91,-161.7"/>
</a>
</g>
</g>
</g>
</svg>

<g id="navigator" transform="translate(0 0)" fill="#404254">
  <rect fill="#f2f5e9" fill-opacity="0.5" stroke="#606060" stroke-width=".5" x="0" y="0" width="60" height="60"/>
  <use id="zoomplus" xlink:href="#zoomPlus" x="17" y="9" onmousedown="handleZoom(evt,'in')"/>
  <use id="zoomminus" xlink:href="#zoomMin" x="42" y="9" onmousedown="handleZoom(evt,'out')"/>
  <use id="reset" xlink:href="#resetDef" x="30" y="36" onmousedown="handleReset()"/>
   <use id="arrowup" xlink:href="#arrowUp" x="0" y="0" onmousedown="handlePan(0,-1)"/>
  <use id="arrowright" xlink:href="#arrowRight" x="0" y="0" onmousedown="handlePan(1,0)"/>
  <use id="arrowdown" xlink:href="#arrowDown" x="0" y="0" onmousedown="handlePan(0,1)"/>
  <use id="arrowleft" xlink:href="#arrowLeft" x="0" y="0" onmousedown="handlePan(-1,0)"/>
</g>
<svg viewBox="0 0 15 15" width="100%" height="30px" preserveAspectRatio="xMaxYMin meet">
 <g id="arrow_out" transform="scale(0.3 0.3)">
  <a xlink:href="classChatView_ae1708fe2be43fe0f0bf4e000d968b385_cgraph_org.svg" target="_base">
   <rect id="button" ry="5" rx="5" y="6" x="6" height="38" width="38"
        fill="#f2f5e9" fill-opacity="0.5" stroke="#606060" stroke-width="1.0"/>
   <path id="arrow"
     d="M 11.500037,31.436501 C 11.940474,20.09759 22.043105,11.32322 32.158766,21.979434 L 37.068811,17.246167 C 37.068811,17.246167 37.088388,32 37.088388,32 L 22.160133,31.978069 C 22.160133,31.978069 26.997745,27.140456 26.997745,27.140456 C 18.528582,18.264221 13.291696,25.230495 11.500037,31.436501 z"
     style="fill:#404040;"/>
  </a>
 </g>
</svg>

<style type='text/css'>
<![CDATA[
[data-mouse-over-selected='false'] { opacity: 0.7; }
[data-mouse-over-selected='true']  { opacity: 1.0; }
]]>
</style>
<script type="application/ecmascript"><![CDATA[
document.addEventListener('DOMContentLoaded', (event) => {
  highlightEdges();
  highlightAdjacentNodes();
});
]]></script>
</svg>
