<?xml version="1.0" encoding="UTF-8" standalone="no"?>
<!DOCTYPE svg PUBLIC "-//W3C//DTD SVG 1.1//EN"
 "http://www.w3.org/Graphics/SVG/1.1/DTD/svg11.dtd">
<!-- Generated by graphviz version 12.2.1 (0)
 -->
<!-- Title: AnimatedStackedWidget::SlideToIndex Pages: 1 -->
<svg width="450pt" height="178pt"
 viewBox="0.00 0.00 449.75 178.00" xmlns="http://www.w3.org/2000/svg" xmlns:xlink="http://www.w3.org/1999/xlink">
<g id="graph0" class="graph" transform="scale(1 1) rotate(0) translate(4 174)">
<title>AnimatedStackedWidget::SlideToIndex</title>
<!-- Node1 -->
<g id="Node000001" class="node">
<title>Node1</title>
<g id="a_Node000001"><a xlink:title="Initiates an animated transition to the widget at the specified index. Plays a sound effect and start...">
<polygon fill="#999999" stroke="#666666" points="123.25,-122 0,-122 0,-93 123.25,-93 123.25,-122"/>
<text text-anchor="start" x="8" y="-108.5" font-family="Helvetica,sans-Serif" font-size="10.00">AnimatedStackedWidget</text>
<text text-anchor="middle" x="61.62" y="-98" font-family="Helvetica,sans-Serif" font-size="10.00">::SlideToIndex</text>
</a>
</g>
</g>
<!-- Node2 -->
<g id="Node000002" class="node">
<title>Node2</title>
<g id="a_Node000002"><a xlink:href="classAnimatedStackedWidget.html#a57cdf55739292d948ecdd6f97cba09c0" target="_top" xlink:title="Cleans up graphics effects and resets widget geometries after an animation finishes....">
<polygon fill="white" stroke="#666666" points="282.5,-146 159.25,-146 159.25,-117 282.5,-117 282.5,-146"/>
<text text-anchor="start" x="167.25" y="-132.5" font-family="Helvetica,sans-Serif" font-size="10.00">AnimatedStackedWidget</text>
<text text-anchor="middle" x="220.88" y="-122" font-family="Helvetica,sans-Serif" font-size="10.00">::CleanupAfterAnimation</text>
</a>
</g>
</g>
<!-- Node1&#45;&gt;Node2 -->
<g id="edge1_Node000001_Node000002" class="edge">
<title>Node1&#45;&gt;Node2</title>
<g id="a_edge1_Node000001_Node000002"><a xlink:title=" ">
<path fill="none" stroke="#63b8ff" d="M123.42,-116.78C131.35,-117.99 139.54,-119.24 147.63,-120.47"/>
<polygon fill="#63b8ff" stroke="#63b8ff" points="147.07,-123.93 157.48,-121.98 148.13,-117.01 147.07,-123.93"/>
</a>
</g>
</g>
<!-- Node3 -->
<g id="Node000003" class="node">
<title>Node3</title>
<g id="a_Node000003"><a xlink:href="classAnimatedStackedWidget.html#ab948154ce1b983eefb9338d97cb58976" target="_top" xlink:title="Prepares the appropriate animation based on animation_type_. Calls the corresponding Animate* method ...">
<polygon fill="white" stroke="#666666" points="282.5,-99 159.25,-99 159.25,-70 282.5,-70 282.5,-99"/>
<text text-anchor="start" x="167.25" y="-85.5" font-family="Helvetica,sans-Serif" font-size="10.00">AnimatedStackedWidget</text>
<text text-anchor="middle" x="220.88" y="-75" font-family="Helvetica,sans-Serif" font-size="10.00">::PrepareAnimation</text>
</a>
</g>
</g>
<!-- Node1&#45;&gt;Node3 -->
<g id="edge2_Node000001_Node000003" class="edge">
<title>Node1&#45;&gt;Node3</title>
<g id="a_edge2_Node000001_Node000003"><a xlink:title=" ">
<path fill="none" stroke="#63b8ff" d="M123.42,-98.61C131.35,-97.45 139.54,-96.25 147.63,-95.07"/>
<polygon fill="#63b8ff" stroke="#63b8ff" points="148.09,-98.54 157.48,-93.63 147.08,-91.61 148.09,-98.54"/>
</a>
</g>
</g>
<!-- Node4 -->
<g id="Node000004" class="node">
<title>Node4</title>
<g id="a_Node000004"><a xlink:href="classAnimatedStackedWidget.html#acf39fd97b7aa80907c98d6e5ee925e3d" target="_top" xlink:title="Configures and adds animations to the animation_group_ for a fade transition.">
<polygon fill="white" stroke="#666666" points="441.75,-170 318.5,-170 318.5,-141 441.75,-141 441.75,-170"/>
<text text-anchor="start" x="326.5" y="-156.5" font-family="Helvetica,sans-Serif" font-size="10.00">AnimatedStackedWidget</text>
<text text-anchor="middle" x="380.12" y="-146" font-family="Helvetica,sans-Serif" font-size="10.00">::AnimateFade</text>
</a>
</g>
</g>
<!-- Node3&#45;&gt;Node4 -->
<g id="edge3_Node000003_Node000004" class="edge">
<title>Node3&#45;&gt;Node4</title>
<g id="a_edge3_Node000003_Node000004"><a xlink:title=" ">
<path fill="none" stroke="#63b8ff" d="M263.17,-99.48C269.74,-102.26 276.38,-105.3 282.5,-108.5 299.53,-117.42 301.4,-123.7 318.5,-132.5 320.86,-133.72 323.31,-134.91 325.8,-136.06"/>
<polygon fill="#63b8ff" stroke="#63b8ff" points="324.25,-139.2 334.81,-140 327.05,-132.79 324.25,-139.2"/>
</a>
</g>
</g>
<!-- Node5 -->
<g id="Node000005" class="node">
<title>Node5</title>
<g id="a_Node000005"><a xlink:href="classAnimatedStackedWidget.html#ab5df18702b0ae21b22c85c308011ff2c" target="_top" xlink:title="Configures and adds animations to the animation_group_ for a push transition.">
<polygon fill="white" stroke="#666666" points="441.75,-123 318.5,-123 318.5,-94 441.75,-94 441.75,-123"/>
<text text-anchor="start" x="326.5" y="-109.5" font-family="Helvetica,sans-Serif" font-size="10.00">AnimatedStackedWidget</text>
<text text-anchor="middle" x="380.12" y="-99" font-family="Helvetica,sans-Serif" font-size="10.00">::AnimatePush</text>
</a>
</g>
</g>
<!-- Node3&#45;&gt;Node5 -->
<g id="edge4_Node000003_Node000005" class="edge">
<title>Node3&#45;&gt;Node5</title>
<g id="a_edge4_Node000003_Node000005"><a xlink:title=" ">
<path fill="none" stroke="#63b8ff" d="M282.67,-93.78C290.6,-94.99 298.79,-96.24 306.88,-97.47"/>
<polygon fill="#63b8ff" stroke="#63b8ff" points="306.32,-100.93 316.73,-98.98 307.38,-94.01 306.32,-100.93"/>
</a>
</g>
</g>
<!-- Node6 -->
<g id="Node000006" class="node">
<title>Node6</title>
<g id="a_Node000006"><a xlink:href="classAnimatedStackedWidget.html#a45b1363a258c139ac53df8fece2a9396" target="_top" xlink:title="Configures and adds animations to the animation_group_ for a slide transition (CPU fallback).">
<polygon fill="white" stroke="#666666" points="441.75,-76 318.5,-76 318.5,-47 441.75,-47 441.75,-76"/>
<text text-anchor="start" x="326.5" y="-62.5" font-family="Helvetica,sans-Serif" font-size="10.00">AnimatedStackedWidget</text>
<text text-anchor="middle" x="380.12" y="-52" font-family="Helvetica,sans-Serif" font-size="10.00">::AnimateSlide</text>
</a>
</g>
</g>
<!-- Node3&#45;&gt;Node6 -->
<g id="edge5_Node000003_Node000006" class="edge">
<title>Node3&#45;&gt;Node6</title>
<g id="a_edge5_Node000003_Node000006"><a xlink:title=" ">
<path fill="none" stroke="#63b8ff" d="M282.67,-75.61C290.6,-74.45 298.79,-73.25 306.88,-72.07"/>
<polygon fill="#63b8ff" stroke="#63b8ff" points="307.34,-75.54 316.73,-70.63 306.33,-68.61 307.34,-75.54"/>
</a>
</g>
</g>
<!-- Node7 -->
<g id="Node000007" class="node">
<title>Node7</title>
<g id="a_Node000007"><a xlink:href="classAnimatedStackedWidget.html#a0b881672aa2d68cbb0c4e37f1f7d74dd" target="_top" xlink:title="Configures and adds animations to the animation_group_ for a combined slide and fade transition.">
<polygon fill="white" stroke="#666666" points="441.75,-29 318.5,-29 318.5,0 441.75,0 441.75,-29"/>
<text text-anchor="start" x="326.5" y="-15.5" font-family="Helvetica,sans-Serif" font-size="10.00">AnimatedStackedWidget</text>
<text text-anchor="middle" x="380.12" y="-5" font-family="Helvetica,sans-Serif" font-size="10.00">::AnimateSlideAndFade</text>
</a>
</g>
</g>
<!-- Node3&#45;&gt;Node7 -->
<g id="edge6_Node000003_Node000007" class="edge">
<title>Node3&#45;&gt;Node7</title>
<g id="a_edge6_Node000003_Node000007"><a xlink:title=" ">
<path fill="none" stroke="#63b8ff" d="M251.67,-69.68C270.65,-60.39 295.84,-48.36 318.5,-38.5 322.09,-36.94 325.81,-35.36 329.56,-33.8"/>
<polygon fill="#63b8ff" stroke="#63b8ff" points="330.82,-37.07 338.75,-30.05 328.17,-30.59 330.82,-37.07"/>
</a>
</g>
</g>
</g>
</svg>
