<?xml version="1.0" encoding="UTF-8" standalone="no"?>
<!DOCTYPE svg PUBLIC "-//W3C//DTD SVG 1.1//EN"
 "http://www.w3.org/Graphics/SVG/1.1/DTD/svg11.dtd">
<!-- Generated by graphviz version 12.2.1 (0)
 -->
<!-- Title: CreateWavelengthDialog::FindLowestAvailableFrequency Pages: 1 -->
<svg width="543pt" height="191pt"
 viewBox="0.00 0.00 542.75 191.00" xmlns="http://www.w3.org/2000/svg" xmlns:xlink="http://www.w3.org/1999/xlink">
<g id="graph0" class="graph" transform="scale(1 1) rotate(0) translate(4 187)">
<title>CreateWavelengthDialog::FindLowestAvailableFrequency</title>
<!-- Node1 -->
<g id="Node000001" class="node">
<title>Node1</title>
<g id="a_Node000001"><a xlink:title="Static function executed concurrently to query the relay server for the next available frequency....">
<polygon fill="#999999" stroke="#666666" points="155.5,-99 0,-99 0,-70 155.5,-70 155.5,-99"/>
<text text-anchor="start" x="8" y="-85.5" font-family="Helvetica,sans-Serif" font-size="10.00">CreateWavelengthDialog</text>
<text text-anchor="middle" x="77.75" y="-75" font-family="Helvetica,sans-Serif" font-size="10.00">::FindLowestAvailableFrequency</text>
</a>
</g>
</g>
<!-- Node2 -->
<g id="Node000002" class="node">
<title>Node2</title>
<g id="a_Node000002"><a xlink:href="classWavelengthConfig.html#abe95f3b7789e1e60f7bd535352644c0d" target="_top" xlink:title="Gets the singleton instance of the WavelengthConfig.">
<polygon fill="white" stroke="#666666" points="346.62,-159.75 192.62,-159.75 192.62,-141.25 346.62,-141.25 346.62,-159.75"/>
<text text-anchor="middle" x="269.62" y="-146.25" font-family="Helvetica,sans-Serif" font-size="10.00">WavelengthConfig::GetInstance</text>
</a>
</g>
</g>
<!-- Node1&#45;&gt;Node2 -->
<g id="edge1_Node000001_Node000002" class="edge">
<title>Node1&#45;&gt;Node2</title>
<g id="a_edge1_Node000001_Node000002"><a xlink:title=" ">
<path fill="none" stroke="#63b8ff" d="M109.78,-99.44C132.12,-109.76 163.19,-123.25 191.5,-132.5 197.61,-134.5 204.06,-136.37 210.53,-138.09"/>
<polygon fill="#63b8ff" stroke="#63b8ff" points="209.34,-141.4 219.9,-140.46 211.07,-134.61 209.34,-141.4"/>
</a>
</g>
</g>
<!-- Node4 -->
<g id="Node000004" class="node">
<title>Node4</title>
<g id="a_Node000004"><a xlink:href="classWavelengthConfig.html#aa7656025f97129a8a7396d435d0b8054" target="_top" xlink:title="Gets the preferred starting frequency for new Wavelengths.">
<polygon fill="white" stroke="#666666" points="347.75,-123 191.5,-123 191.5,-94 347.75,-94 347.75,-123"/>
<text text-anchor="start" x="199.5" y="-109.5" font-family="Helvetica,sans-Serif" font-size="10.00">WavelengthConfig::GetPreferred</text>
<text text-anchor="middle" x="269.62" y="-99" font-family="Helvetica,sans-Serif" font-size="10.00">StartFrequency</text>
</a>
</g>
</g>
<!-- Node1&#45;&gt;Node4 -->
<g id="edge4_Node000001_Node000004" class="edge">
<title>Node1&#45;&gt;Node4</title>
<g id="a_edge4_Node000001_Node000004"><a xlink:title=" ">
<path fill="none" stroke="#63b8ff" d="M155.98,-94.26C163.87,-95.26 171.92,-96.28 179.92,-97.29"/>
<polygon fill="#63b8ff" stroke="#63b8ff" points="179.29,-100.74 189.65,-98.52 180.17,-93.79 179.29,-100.74"/>
</a>
</g>
</g>
<!-- Node5 -->
<g id="Node000005" class="node">
<title>Node5</title>
<g id="a_Node000005"><a xlink:href="classWavelengthConfig.html#adf2ecac39e18de2b5ed81eb8fde47d8a" target="_top" xlink:title="Gets the configured relay server address.">
<polygon fill="white" stroke="#666666" points="340.25,-76 199,-76 199,-47 340.25,-47 340.25,-76"/>
<text text-anchor="start" x="207" y="-62.5" font-family="Helvetica,sans-Serif" font-size="10.00">WavelengthConfig::GetRelay</text>
<text text-anchor="middle" x="269.62" y="-52" font-family="Helvetica,sans-Serif" font-size="10.00">ServerAddress</text>
</a>
</g>
</g>
<!-- Node1&#45;&gt;Node5 -->
<g id="edge5_Node000001_Node000005" class="edge">
<title>Node1&#45;&gt;Node5</title>
<g id="a_edge5_Node000001_Node000005"><a xlink:title=" ">
<path fill="none" stroke="#63b8ff" d="M155.98,-75.15C166.38,-73.88 177.08,-72.59 187.55,-71.32"/>
<polygon fill="#63b8ff" stroke="#63b8ff" points="187.79,-74.82 197.3,-70.14 186.95,-67.87 187.79,-74.82"/>
</a>
</g>
</g>
<!-- Node6 -->
<g id="Node000006" class="node">
<title>Node6</title>
<g id="a_Node000006"><a xlink:href="classWavelengthConfig.html#a4102c95b0ba46a067d7ca8161bcd7916" target="_top" xlink:title="Gets the configured relay server port.">
<polygon fill="white" stroke="#666666" points="340.25,-29 199,-29 199,0 340.25,0 340.25,-29"/>
<text text-anchor="start" x="207" y="-15.5" font-family="Helvetica,sans-Serif" font-size="10.00">WavelengthConfig::GetRelay</text>
<text text-anchor="middle" x="269.62" y="-5" font-family="Helvetica,sans-Serif" font-size="10.00">ServerPort</text>
</a>
</g>
</g>
<!-- Node1&#45;&gt;Node6 -->
<g id="edge6_Node000001_Node000006" class="edge">
<title>Node1&#45;&gt;Node6</title>
<g id="a_edge6_Node000001_Node000006"><a xlink:title=" ">
<path fill="none" stroke="#63b8ff" d="M113,-69.64C135.19,-60.22 164.84,-48.07 191.5,-38.5 196.81,-36.6 202.35,-34.7 207.93,-32.85"/>
<polygon fill="#63b8ff" stroke="#63b8ff" points="208.76,-36.26 217.19,-29.84 206.6,-29.6 208.76,-36.26"/>
</a>
</g>
</g>
<!-- Node3 -->
<g id="Node000003" class="node">
<title>Node3</title>
<g id="a_Node000003"><a xlink:href="classWavelengthConfig.html#a85e6819278b90f10a1afe5e91ce05cbe" target="_top" xlink:title="Deleted copy constructor.">
<polygon fill="white" stroke="#666666" points="534.75,-165 383.75,-165 383.75,-136 534.75,-136 534.75,-165"/>
<text text-anchor="start" x="391.75" y="-151.5" font-family="Helvetica,sans-Serif" font-size="10.00">WavelengthConfig::Wavelength</text>
<text text-anchor="middle" x="459.25" y="-141" font-family="Helvetica,sans-Serif" font-size="10.00">Config</text>
</a>
</g>
</g>
<!-- Node2&#45;&gt;Node3 -->
<g id="edge2_Node000002_Node000003" class="edge">
<title>Node2&#45;&gt;Node3</title>
<g id="a_edge2_Node000002_Node000003"><a xlink:title=" ">
<path fill="none" stroke="#63b8ff" d="M346.94,-150.5C355.24,-150.5 363.73,-150.5 372.14,-150.5"/>
<polygon fill="#63b8ff" stroke="#63b8ff" points="372.01,-154 382.01,-150.5 372.01,-147 372.01,-154"/>
</a>
</g>
</g>
<!-- Node3&#45;&gt;Node3 -->
<g id="edge3_Node000003_Node000003" class="edge">
<title>Node3&#45;&gt;Node3</title>
<g id="a_edge3_Node000003_Node000003"><a xlink:title=" ">
<path fill="none" stroke="#63b8ff" d="M426.2,-165.21C418.24,-174.32 429.25,-183 459.25,-183 475.66,-183 486.38,-180.41 491.43,-176.56"/>
<polygon fill="#63b8ff" stroke="#63b8ff" points="494.92,-176.95 492.18,-166.72 487.94,-176.42 494.92,-176.95"/>
</a>
</g>
</g>
</g>
</svg>
