<?xml version="1.0" encoding="UTF-8" standalone="no"?>
<!DOCTYPE svg PUBLIC "-//W3C//DTD SVG 1.1//EN"
 "http://www.w3.org/Graphics/SVG/1.1/DTD/svg11.dtd">
<!-- Generated by graphviz version 12.2.1 (0)
 -->
<!-- Title: BlobEventHandler Pages: 1 -->
<svg width="165pt" height="518pt"
 viewBox="0.00 0.00 164.75 518.00" xmlns="http://www.w3.org/2000/svg" xmlns:xlink="http://www.w3.org/1999/xlink">
<g id="graph0" class="graph" transform="scale(1 1) rotate(0) translate(4 514)">
<title>BlobEventHandler</title>
<!-- Node1 -->
<g id="Node000001" class="node">
<title>Node1</title>
<g id="a_Node000001"><a xlink:title="Handles and processes window events (move, resize) for the Blob animation.">
<polygon fill="#999999" stroke="none" points="156.75,-426.5 0,-426.5 0,0 156.75,0 156.75,-426.5"/>
<text text-anchor="start" x="39.38" y="-413" font-family="Helvetica,sans-Serif" font-size="10.00">BlobEventHandler</text>
<text text-anchor="start" x="5.5" y="-398.5" font-family="Helvetica,sans-Serif" font-size="10.00">&#45;</text>
<text text-anchor="start" x="14" y="-398.5" font-family="Helvetica,sans-Serif" font-size="10.00">QTimer event_re_enable</text>
<text text-anchor="start" x="14" y="-388" font-family="Helvetica,sans-Serif" font-size="10.00">_timer_</text>
<text text-anchor="start" x="5.5" y="-373.5" font-family="Helvetica,sans-Serif" font-size="10.00">&#45;</text>
<text text-anchor="start" x="14" y="-373.5" font-family="Helvetica,sans-Serif" font-size="10.00">bool events_enabled_</text>
<text text-anchor="start" x="5.5" y="-359" font-family="Helvetica,sans-Serif" font-size="10.00">&#45;</text>
<text text-anchor="start" x="14" y="-359" font-family="Helvetica,sans-Serif" font-size="10.00">bool is_resizing_</text>
<text text-anchor="start" x="5.5" y="-344.5" font-family="Helvetica,sans-Serif" font-size="10.00">&#45;</text>
<text text-anchor="start" x="14" y="-344.5" font-family="Helvetica,sans-Serif" font-size="10.00">qint64 last_processed</text>
<text text-anchor="start" x="14" y="-334" font-family="Helvetica,sans-Serif" font-size="10.00">_move_time_</text>
<text text-anchor="start" x="5.5" y="-319.5" font-family="Helvetica,sans-Serif" font-size="10.00">&#45;</text>
<text text-anchor="start" x="14" y="-319.5" font-family="Helvetica,sans-Serif" font-size="10.00">QPointF last_processed</text>
<text text-anchor="start" x="14" y="-309" font-family="Helvetica,sans-Serif" font-size="10.00">_position_</text>
<text text-anchor="start" x="5.5" y="-294.5" font-family="Helvetica,sans-Serif" font-size="10.00">&#45;</text>
<text text-anchor="start" x="14" y="-294.5" font-family="Helvetica,sans-Serif" font-size="10.00">QWidget * parent_widget_</text>
<text text-anchor="start" x="5.5" y="-280" font-family="Helvetica,sans-Serif" font-size="10.00">&#45;</text>
<text text-anchor="start" x="14" y="-280" font-family="Helvetica,sans-Serif" font-size="10.00">bool transition_in</text>
<text text-anchor="start" x="14" y="-269.5" font-family="Helvetica,sans-Serif" font-size="10.00">_progress_</text>
<text text-anchor="start" x="4" y="-255" font-family="Helvetica,sans-Serif" font-size="10.00">+</text>
<text text-anchor="start" x="14" y="-255" font-family="Helvetica,sans-Serif" font-size="10.00">bool AreEventsEnabled</text>
<text text-anchor="start" x="14" y="-244.5" font-family="Helvetica,sans-Serif" font-size="10.00">() const</text>
<text text-anchor="start" x="4" y="-230" font-family="Helvetica,sans-Serif" font-size="10.00">+</text>
<text text-anchor="start" x="14" y="-230" font-family="Helvetica,sans-Serif" font-size="10.00">BlobEventHandler(QWidget</text>
<text text-anchor="start" x="14" y="-219.5" font-family="Helvetica,sans-Serif" font-size="10.00"> *parent_widget)</text>
<text text-anchor="start" x="4" y="-205" font-family="Helvetica,sans-Serif" font-size="10.00">+</text>
<text text-anchor="start" x="14" y="-205" font-family="Helvetica,sans-Serif" font-size="10.00">void DisableEvents()</text>
<text text-anchor="start" x="4" y="-190.5" font-family="Helvetica,sans-Serif" font-size="10.00">+</text>
<text text-anchor="start" x="14" y="-190.5" font-family="Helvetica,sans-Serif" font-size="10.00">void EnableEvents()</text>
<text text-anchor="start" x="4" y="-176" font-family="Helvetica,sans-Serif" font-size="10.00">+</text>
<text text-anchor="start" x="14" y="-176" font-family="Helvetica,sans-Serif" font-size="10.00">bool eventFilter(QObject</text>
<text text-anchor="start" x="14" y="-165.5" font-family="Helvetica,sans-Serif" font-size="10.00"> *watched, QEvent *event)</text>
<text text-anchor="start" x="14" y="-155" font-family="Helvetica,sans-Serif" font-size="10.00"> override</text>
<text text-anchor="start" x="4" y="-140.5" font-family="Helvetica,sans-Serif" font-size="10.00">+</text>
<text text-anchor="start" x="14" y="-140.5" font-family="Helvetica,sans-Serif" font-size="10.00">bool IsInTransition</text>
<text text-anchor="start" x="14" y="-130" font-family="Helvetica,sans-Serif" font-size="10.00">() const</text>
<text text-anchor="start" x="4" y="-115.5" font-family="Helvetica,sans-Serif" font-size="10.00">+</text>
<text text-anchor="start" x="14" y="-115.5" font-family="Helvetica,sans-Serif" font-size="10.00">bool ProcessResizeEvent</text>
<text text-anchor="start" x="14" y="-105" font-family="Helvetica,sans-Serif" font-size="10.00">(const QResizeEvent *event)</text>
<text text-anchor="start" x="4" y="-90.5" font-family="Helvetica,sans-Serif" font-size="10.00">+</text>
<text text-anchor="start" x="14" y="-90.5" font-family="Helvetica,sans-Serif" font-size="10.00">void SetTransitionInProgress</text>
<text text-anchor="start" x="14" y="-80" font-family="Helvetica,sans-Serif" font-size="10.00">(const bool inProgress)</text>
<text text-anchor="start" x="4" y="-65.5" font-family="Helvetica,sans-Serif" font-size="10.00">+</text>
<text text-anchor="start" x="14" y="-65.5" font-family="Helvetica,sans-Serif" font-size="10.00">~BlobEventHandler</text>
<text text-anchor="start" x="14" y="-55" font-family="Helvetica,sans-Serif" font-size="10.00">() override</text>
<text text-anchor="start" x="5.5" y="-40.5" font-family="Helvetica,sans-Serif" font-size="10.00">&#45;</text>
<text text-anchor="start" x="14" y="-40.5" font-family="Helvetica,sans-Serif" font-size="10.00">void HandleMoveEvent</text>
<text text-anchor="start" x="14" y="-30" font-family="Helvetica,sans-Serif" font-size="10.00">(const QMoveEvent *move</text>
<text text-anchor="start" x="14" y="-19.5" font-family="Helvetica,sans-Serif" font-size="10.00">_event)</text>
<text text-anchor="start" x="5.5" y="-5" font-family="Helvetica,sans-Serif" font-size="10.00">&#45;</text>
<text text-anchor="start" x="14" y="-5" font-family="Helvetica,sans-Serif" font-size="10.00">void onEventReEnableTimeout()</text>
<polygon fill="#666666" stroke="#666666" points="0,-410 0,-410 156.75,-410 156.75,-410 0,-410"/>
<polygon fill="#666666" stroke="#666666" points="0,-266.5 0,-266.5 12,-266.5 12,-266.5 0,-266.5"/>
<polygon fill="#666666" stroke="#666666" points="12,-266.5 12,-266.5 156.75,-266.5 156.75,-266.5 12,-266.5"/>
<polygon fill="none" stroke="#666666" points="0,0 0,-426.5 156.75,-426.5 156.75,0 0,0"/>
</a>
</g>
</g>
<!-- Node2 -->
<g id="Node000002" class="node">
<title>Node2</title>
<g id="a_Node000002"><a xlink:title=" ">
<polygon fill="white" stroke="none" points="100.38,-510 56.38,-510 56.38,-462.5 100.38,-462.5 100.38,-510"/>
<text text-anchor="start" x="60.38" y="-496.5" font-family="Helvetica,sans-Serif" font-size="10.00">QObject</text>
<text text-anchor="start" x="76.88" y="-482" font-family="Helvetica,sans-Serif" font-size="10.00"> </text>
<text text-anchor="start" x="76.88" y="-467.5" font-family="Helvetica,sans-Serif" font-size="10.00"> </text>
<polygon fill="#666666" stroke="#666666" points="56.38,-493.5 56.38,-493.5 100.38,-493.5 100.38,-493.5 56.38,-493.5"/>
<polygon fill="#666666" stroke="#666666" points="56.38,-479 56.38,-479 100.38,-479 100.38,-479 56.38,-479"/>
<polygon fill="none" stroke="#666666" points="56.38,-462.5 56.38,-510 100.38,-510 100.38,-462.5 56.38,-462.5"/>
</a>
</g>
</g>
<!-- Node2&#45;&gt;Node1 -->
<g id="edge1_Node000001_Node000002" class="edge">
<title>Node2&#45;&gt;Node1</title>
<g id="a_edge1_Node000001_Node000002"><a xlink:title=" ">
<path fill="none" stroke="#63b8ff" d="M78.38,-451.33C78.38,-443.85 78.38,-435.39 78.38,-426.24"/>
<polygon fill="none" stroke="#63b8ff" points="74.88,-451.1 78.38,-461.1 81.88,-451.1 74.88,-451.1"/>
</a>
</g>
</g>
</g>
</svg>
