<?xml version="1.0" encoding="UTF-8" standalone="no"?>
<!DOCTYPE svg PUBLIC "-//W3C//DTD SVG 1.1//EN"
 "http://www.w3.org/Graphics/SVG/1.1/DTD/svg11.dtd">
<!-- Generated by graphviz version 12.2.1 (0)
 -->
<!-- Title: AttachmentPlaceholder::ShowCyberImage Pages: 1 -->
<svg width="618pt" height="300pt"
 viewBox="0.00 0.00 618.00 299.75" xmlns="http://www.w3.org/2000/svg" xmlns:xlink="http://www.w3.org/1999/xlink">
<g id="graph0" class="graph" transform="scale(1 1) rotate(0) translate(4 295.75)">
<title>AttachmentPlaceholder::ShowCyberImage</title>
<!-- Node1 -->
<g id="Node000001" class="node">
<title>Node1</title>
<g id="a_Node000001"><a xlink:title="Creates and displays a CyberAttachmentViewer containing an image. Wraps an InlineImageViewer in an Au...">
<polygon fill="#999999" stroke="#666666" points="117.25,-220.75 0,-220.75 0,-191.75 117.25,-191.75 117.25,-220.75"/>
<text text-anchor="start" x="8" y="-207.25" font-family="Helvetica,sans-Serif" font-size="10.00">AttachmentPlaceholder</text>
<text text-anchor="middle" x="58.62" y="-196.75" font-family="Helvetica,sans-Serif" font-size="10.00">::ShowCyberImage</text>
</a>
</g>
</g>
<!-- Node2 -->
<g id="Node000002" class="node">
<title>Node2</title>
<g id="a_Node000002"><a xlink:href="classAutoScalingAttachment.html#a7ca6d12c1c12311e3eb9dcfe185dba4d" target="_top" xlink:title="Emitted when the user clicks on the attachment container. Typically used to trigger showing the full&#45;...">
<polygon fill="white" stroke="#666666" points="272,-291.75 153.25,-291.75 153.25,-262.75 272,-262.75 272,-291.75"/>
<text text-anchor="start" x="161.25" y="-278.25" font-family="Helvetica,sans-Serif" font-size="10.00">AutoScalingAttachment</text>
<text text-anchor="middle" x="212.62" y="-267.75" font-family="Helvetica,sans-Serif" font-size="10.00">::clicked</text>
</a>
</g>
</g>
<!-- Node1&#45;&gt;Node2 -->
<g id="edge1_Node000001_Node000002" class="edge">
<title>Node1&#45;&gt;Node2</title>
<g id="a_edge1_Node000001_Node000002"><a xlink:title=" ">
<path fill="none" stroke="#63b8ff" d="M86.73,-221.04C105.24,-230.92 130.45,-243.94 153.25,-254.25 155.99,-255.49 158.83,-256.73 161.69,-257.96"/>
<polygon fill="#63b8ff" stroke="#63b8ff" points="160.18,-261.12 170.76,-261.73 162.87,-254.65 160.18,-261.12"/>
</a>
</g>
</g>
<!-- Node3 -->
<g id="Node000003" class="node">
<title>Node3</title>
<g id="a_Node000003"><a xlink:href="classAttachmentPlaceholder.html#a4fa15de6d78a0f59a6b5c15bf8784e66" target="_top" xlink:title="Sets the actual content widget to be displayed within the placeholder. Replaces any existing content,...">
<polygon fill="white" stroke="#666666" points="271.25,-244.75 154,-244.75 154,-215.75 271.25,-215.75 271.25,-244.75"/>
<text text-anchor="start" x="162" y="-231.25" font-family="Helvetica,sans-Serif" font-size="10.00">AttachmentPlaceholder</text>
<text text-anchor="middle" x="212.62" y="-220.75" font-family="Helvetica,sans-Serif" font-size="10.00">::SetContent</text>
</a>
</g>
</g>
<!-- Node1&#45;&gt;Node3 -->
<g id="edge2_Node000001_Node000003" class="edge">
<title>Node1&#45;&gt;Node3</title>
<g id="a_edge2_Node000001_Node000003"><a xlink:title=" ">
<path fill="none" stroke="#63b8ff" d="M117.52,-215.39C125.66,-216.68 134.08,-218.01 142.4,-219.32"/>
<polygon fill="#63b8ff" stroke="#63b8ff" points="141.72,-222.76 152.14,-220.86 142.81,-215.84 141.72,-222.76"/>
</a>
</g>
</g>
<!-- Node6 -->
<g id="Node000006" class="node">
<title>Node6</title>
<g id="a_Node000006"><a xlink:href="classAttachmentPlaceholder.html#a77ebd2ac2acb0920388709f2d6d1c1ec" target="_top" xlink:title="Updates the UI elements to reflect the loading state. Disables/enables the load button and shows/hide...">
<polygon fill="white" stroke="#666666" points="271.25,-197.75 154,-197.75 154,-168.75 271.25,-168.75 271.25,-197.75"/>
<text text-anchor="start" x="162" y="-184.25" font-family="Helvetica,sans-Serif" font-size="10.00">AttachmentPlaceholder</text>
<text text-anchor="middle" x="212.62" y="-173.75" font-family="Helvetica,sans-Serif" font-size="10.00">::SetLoading</text>
</a>
</g>
</g>
<!-- Node1&#45;&gt;Node6 -->
<g id="edge5_Node000001_Node000006" class="edge">
<title>Node1&#45;&gt;Node6</title>
<g id="a_edge5_Node000001_Node000006"><a xlink:title=" ">
<path fill="none" stroke="#63b8ff" d="M117.52,-197.49C125.66,-196.26 134.08,-194.98 142.4,-193.72"/>
<polygon fill="#63b8ff" stroke="#63b8ff" points="142.78,-197.21 152.14,-192.25 141.73,-190.29 142.78,-197.21"/>
</a>
</g>
</g>
<!-- Node7 -->
<g id="Node000007" class="node">
<title>Node7</title>
<g id="a_Node000007"><a xlink:href="classAttachmentPlaceholder.html#ad096d1b0e758e0cb11f758adcd8ab8a0" target="_top" xlink:title="Creates and shows a non&#45;modal dialog to display the full&#45;size attachment (image or GIF)....">
<polygon fill="white" stroke="#666666" points="271.25,-134.75 154,-134.75 154,-105.75 271.25,-105.75 271.25,-134.75"/>
<text text-anchor="start" x="162" y="-121.25" font-family="Helvetica,sans-Serif" font-size="10.00">AttachmentPlaceholder</text>
<text text-anchor="middle" x="212.62" y="-110.75" font-family="Helvetica,sans-Serif" font-size="10.00">::ShowFullSizeDialog</text>
</a>
</g>
</g>
<!-- Node1&#45;&gt;Node7 -->
<g id="edge6_Node000001_Node000007" class="edge">
<title>Node1&#45;&gt;Node7</title>
<g id="a_edge6_Node000001_Node000007"><a xlink:title=" ">
<path fill="none" stroke="#63b8ff" d="M86.1,-191.27C110.76,-177.32 147.75,-156.39 175.19,-140.86"/>
<polygon fill="#63b8ff" stroke="#63b8ff" points="176.9,-143.92 183.88,-135.95 173.45,-137.83 176.9,-143.92"/>
</a>
</g>
</g>
<!-- Node4 -->
<g id="Node000004" class="node">
<title>Node4</title>
<g id="a_Node000004"><a xlink:href="classAttachmentPlaceholder.html#a52b917064beb0822fe62d7448a1f549b" target="_top" xlink:title="Emits the attachmentLoaded signal after ensuring layout updates. Called internally after SetContent c...">
<polygon fill="white" stroke="#666666" points="441,-260.75 323.75,-260.75 323.75,-231.75 441,-231.75 441,-260.75"/>
<text text-anchor="start" x="331.75" y="-247.25" font-family="Helvetica,sans-Serif" font-size="10.00">AttachmentPlaceholder</text>
<text text-anchor="middle" x="382.38" y="-236.75" font-family="Helvetica,sans-Serif" font-size="10.00">::NotifyLoaded</text>
</a>
</g>
</g>
<!-- Node3&#45;&gt;Node4 -->
<g id="edge3_Node000003_Node000004" class="edge">
<title>Node3&#45;&gt;Node4</title>
<g id="a_edge3_Node000003_Node000004"><a xlink:title=" ">
<path fill="none" stroke="#63b8ff" d="M271.36,-235.76C284.46,-237.01 298.51,-238.35 312.04,-239.64"/>
<polygon fill="#63b8ff" stroke="#63b8ff" points="311.46,-243.1 321.75,-240.56 312.12,-236.13 311.46,-243.1"/>
</a>
</g>
</g>
<!-- Node5 -->
<g id="Node000005" class="node">
<title>Node5</title>
<g id="a_Node000005"><a xlink:href="classAttachmentPlaceholder.html#ab83f0cf3a4db5e16cc136fa515d91a75" target="_top" xlink:title="Emitted after the attachment content has been successfully loaded, set, and the layout updated.">
<polygon fill="white" stroke="#666666" points="610,-260.75 492.75,-260.75 492.75,-231.75 610,-231.75 610,-260.75"/>
<text text-anchor="start" x="500.75" y="-247.25" font-family="Helvetica,sans-Serif" font-size="10.00">AttachmentPlaceholder</text>
<text text-anchor="middle" x="551.38" y="-236.75" font-family="Helvetica,sans-Serif" font-size="10.00">::attachmentLoaded</text>
</a>
</g>
</g>
<!-- Node4&#45;&gt;Node5 -->
<g id="edge4_Node000004_Node000005" class="edge">
<title>Node4&#45;&gt;Node5</title>
<g id="a_edge4_Node000004_Node000005"><a xlink:title=" ">
<path fill="none" stroke="#63b8ff" d="M441.31,-246.25C454.07,-246.25 467.7,-246.25 480.85,-246.25"/>
<polygon fill="#63b8ff" stroke="#63b8ff" points="480.74,-249.75 490.74,-246.25 480.74,-242.75 480.74,-249.75"/>
</a>
</g>
</g>
<!-- Node8 -->
<g id="Node000008" class="node">
<title>Node8</title>
<g id="a_Node000008"><a xlink:href="classAttachmentPlaceholder.html#a255e1bdfbb4daf874ce90b167fe12910" target="_top" xlink:title="Adjusts the size and position of the full&#45;size dialog and shows it. Calculates the preferred dialog s...">
<polygon fill="white" stroke="#666666" points="442.12,-213.75 322.62,-213.75 322.62,-184.75 442.12,-184.75 442.12,-213.75"/>
<text text-anchor="start" x="330.62" y="-200.25" font-family="Helvetica,sans-Serif" font-size="10.00">AttachmentPlaceholder</text>
<text text-anchor="middle" x="382.38" y="-189.75" font-family="Helvetica,sans-Serif" font-size="10.00">::AdjustAndShowDialog</text>
</a>
</g>
</g>
<!-- Node7&#45;&gt;Node8 -->
<g id="edge7_Node000007_Node000008" class="edge">
<title>Node7&#45;&gt;Node8</title>
<g id="a_edge7_Node000007_Node000008"><a xlink:title=" ">
<path fill="none" stroke="#63b8ff" d="M236.17,-135.22C254.85,-147.17 282.39,-163.76 308,-175.25 312.01,-177.05 316.2,-178.78 320.46,-180.44"/>
<polygon fill="#63b8ff" stroke="#63b8ff" points="319.09,-183.67 329.68,-183.85 321.52,-177.1 319.09,-183.67"/>
</a>
</g>
</g>
<!-- Node9 -->
<g id="Node000009" class="node">
<title>Node9</title>
<g id="a_Node000009"><a xlink:href="classGifPlayer.html#a9d015c1250b0652d7d04a9f1e6a87b4f" target="_top" xlink:title="Emitted after the GIF information (dimensions, duration, etc.) has been successfully received from th...">
<polygon fill="white" stroke="#666666" points="434.25,-166.5 330.5,-166.5 330.5,-148 434.25,-148 434.25,-166.5"/>
<text text-anchor="middle" x="382.38" y="-153" font-family="Helvetica,sans-Serif" font-size="10.00">GifPlayer::gifLoaded</text>
</a>
</g>
</g>
<!-- Node7&#45;&gt;Node9 -->
<g id="edge8_Node000007_Node000009" class="edge">
<title>Node7&#45;&gt;Node9</title>
<g id="a_edge8_Node000007_Node000009"><a xlink:title=" ">
<path fill="none" stroke="#63b8ff" d="M271.36,-132.98C289.08,-136.89 308.54,-141.18 326.09,-145.06"/>
<polygon fill="#63b8ff" stroke="#63b8ff" points="325.32,-148.47 335.84,-147.21 326.83,-141.64 325.32,-148.47"/>
</a>
</g>
</g>
<!-- Node10 -->
<g id="Node000010" class="node">
<title>Node10</title>
<g id="a_Node000010"><a xlink:href="classImageViewer.html#a592fe08df0615189242b4b68a77fa504" target="_top" xlink:title="Emitted after the image information (dimensions, alpha) has been successfully received from the decod...">
<polygon fill="white" stroke="#666666" points="456.75,-129.5 308,-129.5 308,-111 456.75,-111 456.75,-129.5"/>
<text text-anchor="middle" x="382.38" y="-116" font-family="Helvetica,sans-Serif" font-size="10.00">ImageViewer::imageInfoReady</text>
</a>
</g>
</g>
<!-- Node7&#45;&gt;Node10 -->
<g id="edge9_Node000007_Node000010" class="edge">
<title>Node7&#45;&gt;Node10</title>
<g id="a_edge9_Node000007_Node000010"><a xlink:title=" ">
<path fill="none" stroke="#63b8ff" d="M271.36,-120.25C279.37,-120.25 287.74,-120.25 296.12,-120.25"/>
<polygon fill="#63b8ff" stroke="#63b8ff" points="296.03,-123.75 306.03,-120.25 296.03,-116.75 296.03,-123.75"/>
</a>
</g>
</g>
<!-- Node11 -->
<g id="Node000011" class="node">
<title>Node11</title>
<g id="a_Node000011"><a xlink:href="classImageViewer.html#a4dc697303dccbc44c425fd91f2bf2077" target="_top" xlink:title="Emitted after the image has been successfully decoded and set in the QLabel. Can be used by parent wi...">
<polygon fill="white" stroke="#666666" points="450.38,-92.5 314.38,-92.5 314.38,-74 450.38,-74 450.38,-92.5"/>
<text text-anchor="middle" x="382.38" y="-79" font-family="Helvetica,sans-Serif" font-size="10.00">ImageViewer::imageLoaded</text>
</a>
</g>
</g>
<!-- Node7&#45;&gt;Node11 -->
<g id="edge10_Node000007_Node000011" class="edge">
<title>Node7&#45;&gt;Node11</title>
<g id="a_edge10_Node000007_Node000011"><a xlink:title=" ">
<path fill="none" stroke="#63b8ff" d="M271.36,-107.52C289.08,-103.61 308.54,-99.32 326.09,-95.44"/>
<polygon fill="#63b8ff" stroke="#63b8ff" points="326.83,-98.86 335.84,-93.29 325.32,-92.03 326.83,-98.86"/>
</a>
</g>
</g>
<!-- Node12 -->
<g id="Node000012" class="node">
<title>Node12</title>
<g id="a_Node000012"><a xlink:href="classGifPlayer.html#a535a67f0bced639155af15997528b7cd" target="_top" xlink:title="Provides a size hint based on the original dimensions of the GIF. Returns the actual GIF width and he...">
<polygon fill="white" stroke="#666666" points="430.88,-55.5 333.88,-55.5 333.88,-37 430.88,-37 430.88,-55.5"/>
<text text-anchor="middle" x="382.38" y="-42" font-family="Helvetica,sans-Serif" font-size="10.00">GifPlayer::sizeHint</text>
</a>
</g>
</g>
<!-- Node7&#45;&gt;Node12 -->
<g id="edge11_Node000007_Node000012" class="edge">
<title>Node7&#45;&gt;Node12</title>
<g id="a_edge11_Node000007_Node000012"><a xlink:title=" ">
<path fill="none" stroke="#63b8ff" d="M235.24,-105.34C253.82,-93.1 281.7,-76.08 308,-65.25 313.34,-63.05 319,-61.05 324.72,-59.24"/>
<polygon fill="#63b8ff" stroke="#63b8ff" points="325.67,-62.61 334.27,-56.43 323.69,-55.9 325.67,-62.61"/>
</a>
</g>
</g>
<!-- Node13 -->
<g id="Node000013" class="node">
<title>Node13</title>
<g id="a_Node000013"><a xlink:href="classGifPlayer.html#a8e9d8e851a0d476b74fdf082b7519d35" target="_top" xlink:title="Starts or resumes GIF playback. Sets the is_playing_ flag and calls Resume() on the GifDecoder....">
<polygon fill="white" stroke="#666666" points="444.38,-18.5 320.38,-18.5 320.38,0 444.38,0 444.38,-18.5"/>
<text text-anchor="middle" x="382.38" y="-5" font-family="Helvetica,sans-Serif" font-size="10.00">GifPlayer::StartPlayback</text>
</a>
</g>
</g>
<!-- Node7&#45;&gt;Node13 -->
<g id="edge12_Node000007_Node000013" class="edge">
<title>Node7&#45;&gt;Node13</title>
<g id="a_edge12_Node000007_Node000013"><a xlink:title=" ">
<path fill="none" stroke="#63b8ff" d="M224.69,-105.4C240.75,-84.91 272.51,-48.24 308,-28.25 311.59,-26.23 315.41,-24.41 319.33,-22.79"/>
<polygon fill="#63b8ff" stroke="#63b8ff" points="320.3,-26.16 328.49,-19.44 317.9,-19.59 320.3,-26.16"/>
</a>
</g>
</g>
</g>
</svg>
