<?xml version="1.0" encoding="UTF-8" standalone="no"?>
<!DOCTYPE svg PUBLIC "-//W3C//DTD SVG 1.1//EN"
 "http://www.w3.org/Graphics/SVG/1.1/DTD/svg11.dtd">
<!-- Generated by graphviz version 12.2.1 (0)
 -->
<!-- Title: AppInstanceManager::ConnectToServer Pages: 1 -->
<svg width="723pt" height="191pt"
 viewBox="0.00 0.00 722.50 191.00" xmlns="http://www.w3.org/2000/svg" xmlns:xlink="http://www.w3.org/1999/xlink">
<g id="graph0" class="graph" transform="scale(1 1) rotate(0) translate(4 187)">
<title>AppInstanceManager::ConnectToServer</title>
<!-- Node1 -->
<g id="Node000001" class="node">
<title>Node1</title>
<g id="a_Node000001"><a xlink:title="Establishes a connection to the server instance for a client instance.">
<polygon fill="#999999" stroke="#666666" points="108.25,-48 0,-48 0,-19 108.25,-19 108.25,-48"/>
<text text-anchor="start" x="8" y="-34.5" font-family="Helvetica,sans-Serif" font-size="10.00">AppInstanceManager</text>
<text text-anchor="middle" x="54.12" y="-24" font-family="Helvetica,sans-Serif" font-size="10.00">::ConnectToServer</text>
</a>
</g>
</g>
<!-- Node2 -->
<g id="Node000002" class="node">
<title>Node2</title>
<g id="a_Node000002"><a xlink:href="classAppInstanceManager.html#a8087ee7ea64e087b39c66048becc8574" target="_top" xlink:title="Slot called when a connected socket disconnects. Handles cleanup and potential role change (the clien...">
<polygon fill="white" stroke="#666666" points="252.5,-89 144.25,-89 144.25,-60 252.5,-60 252.5,-89"/>
<text text-anchor="start" x="152.25" y="-75.5" font-family="Helvetica,sans-Serif" font-size="10.00">AppInstanceManager</text>
<text text-anchor="middle" x="198.38" y="-65" font-family="Helvetica,sans-Serif" font-size="10.00">::clientDisconnected</text>
</a>
</g>
</g>
<!-- Node1&#45;&gt;Node2 -->
<g id="edge1_Node000001_Node000002" class="edge">
<title>Node1&#45;&gt;Node2</title>
<g id="a_edge1_Node000001_Node000002"><a xlink:title=" ">
<path fill="none" stroke="#63b8ff" d="M106.88,-48.42C115.9,-51.02 125.38,-53.75 134.65,-56.42"/>
<polygon fill="#63b8ff" stroke="#63b8ff" points="133.38,-59.7 143.96,-59.11 135.32,-52.97 133.38,-59.7"/>
</a>
</g>
</g>
<!-- Node7 -->
<g id="Node000007" class="node">
<title>Node7</title>
<g id="a_Node000007"><a xlink:href="classAppInstanceManager.html#ab7fe0e77dca903fa23d78139dd68e84b" target="_top" xlink:title="Slot called when data can be read from a connected socket.">
<polygon fill="#fff0f0" stroke="red" points="714.5,-29 606.25,-29 606.25,0 714.5,0 714.5,-29"/>
<text text-anchor="start" x="614.25" y="-15.5" font-family="Helvetica,sans-Serif" font-size="10.00">AppInstanceManager</text>
<text text-anchor="middle" x="660.38" y="-5" font-family="Helvetica,sans-Serif" font-size="10.00">::readData</text>
</a>
</g>
</g>
<!-- Node1&#45;&gt;Node7 -->
<g id="edge8_Node000001_Node000007" class="edge">
<title>Node1&#45;&gt;Node7</title>
<g id="a_edge8_Node000001_Node000007"><a xlink:title=" ">
<path fill="none" stroke="#63b8ff" d="M108.74,-30.02C186.53,-25.17 335.27,-16.61 462,-13.5 510.1,-12.32 522.14,-13.23 570.25,-13.5 578.14,-13.54 586.42,-13.61 594.62,-13.69"/>
<polygon fill="#63b8ff" stroke="#63b8ff" points="594.57,-17.19 604.61,-13.79 594.64,-10.19 594.57,-17.19"/>
</a>
</g>
</g>
<!-- Node3 -->
<g id="Node000003" class="node">
<title>Node3</title>
<g id="a_Node000003"><a xlink:href="classAppInstanceManager.html#a1ac17dc2cb4f3ae1f968109a180acd2e" target="_top" xlink:title="Emitted when a client instance disconnects (on the server) or when the connection to the server is lo...">
<polygon fill="white" stroke="#666666" points="416.62,-183 297.88,-183 297.88,-154 416.62,-154 416.62,-183"/>
<text text-anchor="start" x="305.88" y="-169.5" font-family="Helvetica,sans-Serif" font-size="10.00">AppInstanceManager</text>
<text text-anchor="middle" x="357.25" y="-159" font-family="Helvetica,sans-Serif" font-size="10.00">::instanceDisconnected</text>
</a>
</g>
</g>
<!-- Node2&#45;&gt;Node3 -->
<g id="edge2_Node000002_Node000003" class="edge">
<title>Node2&#45;&gt;Node3</title>
<g id="a_edge2_Node000002_Node000003"><a xlink:title=" ">
<path fill="none" stroke="#63b8ff" d="M214.6,-89.39C231.46,-105.18 260.03,-129.95 288.5,-145.5 290.71,-146.71 293,-147.87 295.34,-148.99"/>
<polygon fill="#63b8ff" stroke="#63b8ff" points="293.88,-152.17 304.44,-152.97 296.68,-145.75 293.88,-152.17"/>
</a>
</g>
</g>
<!-- Node4 -->
<g id="Node000004" class="node">
<title>Node4</title>
<g id="a_Node000004"><a xlink:href="classAppInstanceManager.html#acb57c2842c3eff0de2fe0c4009f8cdcb" target="_top" xlink:title="Statically checks if another instance of the application is already running.">
<polygon fill="white" stroke="#666666" points="426,-136 288.5,-136 288.5,-107 426,-107 426,-136"/>
<text text-anchor="start" x="296.5" y="-122.5" font-family="Helvetica,sans-Serif" font-size="10.00">AppInstanceManager</text>
<text text-anchor="middle" x="357.25" y="-112" font-family="Helvetica,sans-Serif" font-size="10.00">::IsAnotherInstanceRunning</text>
</a>
</g>
</g>
<!-- Node2&#45;&gt;Node4 -->
<g id="edge3_Node000002_Node000004" class="edge">
<title>Node2&#45;&gt;Node4</title>
<g id="a_edge3_Node000002_Node000004"><a xlink:title=" ">
<path fill="none" stroke="#63b8ff" d="M249.01,-89.37C263.75,-93.79 280.06,-98.67 295.42,-103.27"/>
<polygon fill="#63b8ff" stroke="#63b8ff" points="294.36,-106.61 304.95,-106.13 296.37,-99.91 294.36,-106.61"/>
</a>
</g>
</g>
<!-- Node5 -->
<g id="Node000005" class="node">
<title>Node5</title>
<g id="a_Node000005"><a xlink:href="classAppInstanceManager.html#af09b098118800e025bcdce635b382ddd" target="_top" xlink:title="Sets up the QLocalServer for the creator instance.">
<polygon fill="white" stroke="#666666" points="411.38,-89 303.12,-89 303.12,-60 411.38,-60 411.38,-89"/>
<text text-anchor="start" x="311.12" y="-75.5" font-family="Helvetica,sans-Serif" font-size="10.00">AppInstanceManager</text>
<text text-anchor="middle" x="357.25" y="-65" font-family="Helvetica,sans-Serif" font-size="10.00">::SetupServer</text>
</a>
</g>
</g>
<!-- Node2&#45;&gt;Node5 -->
<g id="edge4_Node000002_Node000005" class="edge">
<title>Node2&#45;&gt;Node5</title>
<g id="a_edge4_Node000002_Node000005"><a xlink:title=" ">
<path fill="none" stroke="#63b8ff" d="M252.92,-74.5C265.22,-74.5 278.44,-74.5 291.16,-74.5"/>
<polygon fill="#63b8ff" stroke="#63b8ff" points="291.16,-78 301.16,-74.5 291.16,-71 291.16,-78"/>
</a>
</g>
</g>
<!-- Node6 -->
<g id="Node000006" class="node">
<title>Node6</title>
<g id="a_Node000006"><a xlink:href="classAppInstanceManager.html#af7e9143a1ff0af2932c1d0afc1f31231" target="_top" xlink:title="Slot called when a new client attempts to connect to the server.">
<polygon fill="white" stroke="#666666" points="570.25,-51 462,-51 462,-22 570.25,-22 570.25,-51"/>
<text text-anchor="start" x="470" y="-37.5" font-family="Helvetica,sans-Serif" font-size="10.00">AppInstanceManager</text>
<text text-anchor="middle" x="516.12" y="-27" font-family="Helvetica,sans-Serif" font-size="10.00">::onNewConnection</text>
</a>
</g>
</g>
<!-- Node5&#45;&gt;Node6 -->
<g id="edge5_Node000005_Node000006" class="edge">
<title>Node5&#45;&gt;Node6</title>
<g id="a_edge5_Node000005_Node000006"><a xlink:title=" ">
<path fill="none" stroke="#63b8ff" d="M411.8,-61.53C424.22,-58.52 437.58,-55.28 450.43,-52.17"/>
<polygon fill="#63b8ff" stroke="#63b8ff" points="451.19,-55.59 460.08,-49.83 449.54,-48.79 451.19,-55.59"/>
</a>
</g>
</g>
<!-- Node6&#45;&gt;Node2 -->
<g id="edge6_Node000006_Node000002" class="edge">
<title>Node6&#45;&gt;Node2</title>
<g id="a_edge6_Node000006_Node000002"><a xlink:title=" ">
<path fill="none" stroke="#63b8ff" d="M461.69,-37.23C415.57,-38.53 347.29,-42.05 288.5,-51.5 279.64,-52.92 270.38,-54.83 261.31,-56.94"/>
<polygon fill="#63b8ff" stroke="#63b8ff" points="260.76,-53.47 251.87,-59.23 262.42,-60.27 260.76,-53.47"/>
</a>
</g>
</g>
<!-- Node6&#45;&gt;Node7 -->
<g id="edge7_Node000006_Node000007" class="edge">
<title>Node6&#45;&gt;Node7</title>
<g id="a_edge7_Node000006_Node000007"><a xlink:title=" ">
<path fill="none" stroke="#63b8ff" d="M570.5,-28.25C578.43,-27.02 586.67,-25.74 594.8,-24.49"/>
<polygon fill="#63b8ff" stroke="#63b8ff" points="595.33,-27.95 604.68,-22.96 594.26,-21.03 595.33,-27.95"/>
</a>
</g>
</g>
</g>
</svg>
