<?xml version="1.0" encoding="UTF-8" standalone="no"?>
<!DOCTYPE svg PUBLIC "-//W3C//DTD SVG 1.1//EN"
 "http://www.w3.org/Graphics/SVG/1.1/DTD/svg11.dtd">
<!-- Generated by graphviz version 12.2.1 (0)
 -->
<!-- Title: SystemOverrideManager::RestoreSystemState Pages: 1 -->
<svg width="674pt" height="123pt"
 viewBox="0.00 0.00 673.50 123.00" xmlns="http://www.w3.org/2000/svg" xmlns:xlink="http://www.w3.org/1999/xlink">
<g id="graph0" class="graph" transform="scale(1 1) rotate(0) translate(4 119)">
<title>SystemOverrideManager::RestoreSystemState</title>
<!-- Node1 -->
<g id="Node000001" class="node">
<title>Node1</title>
<g id="a_Node000001"><a xlink:title="Restores the system state to normal. Uninstalls input hooks (Windows), restores the original wallpape...">
<polygon fill="#999999" stroke="#666666" points="665.5,-93 543,-93 543,-64 665.5,-64 665.5,-93"/>
<text text-anchor="start" x="551" y="-79.5" font-family="Helvetica,sans-Serif" font-size="10.00">SystemOverrideManager</text>
<text text-anchor="middle" x="604.25" y="-69" font-family="Helvetica,sans-Serif" font-size="10.00">::RestoreSystemState</text>
</a>
</g>
</g>
<!-- Node1&#45;&gt;Node1 -->
<g id="edge5_Node000001_Node000001" class="edge">
<title>Node1&#45;&gt;Node1</title>
<g id="a_edge5_Node000001_Node000001"><a xlink:title=" ">
<path fill="none" stroke="#63b8ff" d="M633.38,-104.56C628.81,-108.41 619.1,-111 604.25,-111 577.1,-111 567.13,-102.32 574.34,-93.21"/>
<polygon fill="#63b8ff" stroke="#63b8ff" points="636.86,-104.93 634.06,-94.72 629.88,-104.45 636.86,-104.93"/>
</a>
</g>
</g>
<!-- Node2 -->
<g id="Node000002" class="node">
<title>Node2</title>
<g id="a_Node000002"><a xlink:href="classSystemOverrideManager.html#a1d774843ddf2350e4b0ebd78777733bf" target="_top" xlink:title="Slot called when the FloatingEnergySphereWidget emits its widgetClosed signal. Cleans up the widget p...">
<polygon fill="white" stroke="#666666" points="507,-115 358.25,-115 358.25,-86 507,-86 507,-115"/>
<text text-anchor="start" x="366.25" y="-101.5" font-family="Helvetica,sans-Serif" font-size="10.00">SystemOverrideManager</text>
<text text-anchor="middle" x="432.62" y="-91" font-family="Helvetica,sans-Serif" font-size="10.00">::HandleFloatingWidgetClosed</text>
</a>
</g>
</g>
<!-- Node1&#45;&gt;Node2 -->
<g id="edge1_Node000001_Node000002" class="edge">
<title>Node1&#45;&gt;Node2</title>
<g id="a_edge1_Node000001_Node000002"><a xlink:title=" ">
<path fill="none" stroke="#63b8ff" d="M531.6,-81.12C520.55,-82.43 509.2,-83.93 498.31,-85.53"/>
<polygon fill="#63b8ff" stroke="#63b8ff" points="531.92,-84.6 541.47,-80 531.13,-77.65 531.92,-84.6"/>
</a>
</g>
</g>
<!-- Node3 -->
<g id="Node000003" class="node">
<title>Node3</title>
<g id="a_Node000003"><a xlink:href="classSystemOverrideManager.html#ad55be1ff40ee203da7ed94a15e7e3de5" target="_top" xlink:title="Creates, configures, positions, and shows the FloatingEnergySphereWidget. Connects the necessary sign...">
<polygon fill="white" stroke="#666666" points="322.25,-93 166.75,-93 166.75,-64 322.25,-64 322.25,-93"/>
<text text-anchor="start" x="174.75" y="-79.5" font-family="Helvetica,sans-Serif" font-size="10.00">SystemOverrideManager</text>
<text text-anchor="middle" x="244.5" y="-69" font-family="Helvetica,sans-Serif" font-size="10.00">::ShowFloatingAnimationWidget</text>
</a>
</g>
</g>
<!-- Node1&#45;&gt;Node3 -->
<g id="edge6_Node000001_Node000003" class="edge">
<title>Node1&#45;&gt;Node3</title>
<g id="a_edge6_Node000001_Node000003"><a xlink:title=" ">
<path fill="none" stroke="#63b8ff" d="M531.19,-77.67C523.03,-77.6 514.84,-77.54 507,-77.5 440.89,-77.16 424.36,-77.21 358.25,-77.5 346.7,-77.55 334.49,-77.63 322.53,-77.73"/>
<polygon fill="#63b8ff" stroke="#63b8ff" points="531.12,-81.17 541.15,-77.76 531.18,-74.17 531.12,-81.17"/>
</a>
</g>
</g>
<!-- Node5 -->
<g id="Node000005" class="node">
<title>Node5</title>
<g id="a_Node000005"><a xlink:href="classSystemOverrideManager.html#a97a21907f73c99fc8dd4defaadfd5f48" target="_top" xlink:title="Destructor. Ensures the system state is restored if the override is active. Cleans up the floating wi...">
<polygon fill="white" stroke="#666666" points="499.88,-29 365.38,-29 365.38,0 499.88,0 499.88,-29"/>
<text text-anchor="start" x="373.38" y="-15.5" font-family="Helvetica,sans-Serif" font-size="10.00">SystemOverrideManager</text>
<text text-anchor="middle" x="432.62" y="-5" font-family="Helvetica,sans-Serif" font-size="10.00">::~SystemOverrideManager</text>
</a>
</g>
</g>
<!-- Node1&#45;&gt;Node5 -->
<g id="edge7_Node000001_Node000005" class="edge">
<title>Node1&#45;&gt;Node5</title>
<g id="a_edge7_Node000001_Node000005"><a xlink:title=" ">
<path fill="none" stroke="#63b8ff" d="M553.32,-59.66C527.82,-50.04 497.22,-38.49 473.34,-29.48"/>
<polygon fill="#63b8ff" stroke="#63b8ff" points="551.9,-62.87 562.49,-63.12 554.37,-56.32 551.9,-62.87"/>
</a>
</g>
</g>
<!-- Node2&#45;&gt;Node1 -->
<g id="edge2_Node000002_Node000001" class="edge">
<title>Node2&#45;&gt;Node1</title>
<g id="a_edge2_Node000002_Node000001"><a xlink:title=" ">
<path fill="none" stroke="#63b8ff" d="M518.58,-96.23C526.81,-95.16 535.05,-94.01 542.97,-92.81"/>
<polygon fill="#63b8ff" stroke="#63b8ff" points="518.37,-92.73 508.88,-97.45 519.23,-99.68 518.37,-92.73"/>
</a>
</g>
</g>
<!-- Node2&#45;&gt;Node3 -->
<g id="edge3_Node000002_Node000003" class="edge">
<title>Node2&#45;&gt;Node3</title>
<g id="a_edge3_Node000002_Node000003"><a xlink:title=" ">
<path fill="none" stroke="#63b8ff" d="M346.58,-90.45C338.58,-89.5 330.51,-88.55 322.6,-87.61"/>
<polygon fill="#63b8ff" stroke="#63b8ff" points="345.95,-93.9 356.29,-91.6 346.77,-86.95 345.95,-93.9"/>
</a>
</g>
</g>
<!-- Node4 -->
<g id="Node000004" class="node">
<title>Node4</title>
<g id="a_Node000004"><a xlink:href="classSystemOverrideManager.html#a2c03d5744eeabdefc7d14ceea6dfdd75" target="_top" xlink:title="Initiates the full system override sequence. Installs input hooks (Windows), changes wallpaper,...">
<polygon fill="white" stroke="#666666" points="130.75,-93 0,-93 0,-64 130.75,-64 130.75,-93"/>
<text text-anchor="start" x="8" y="-79.5" font-family="Helvetica,sans-Serif" font-size="10.00">SystemOverrideManager</text>
<text text-anchor="middle" x="65.38" y="-69" font-family="Helvetica,sans-Serif" font-size="10.00">::InitiateOverrideSequence</text>
</a>
</g>
</g>
<!-- Node3&#45;&gt;Node4 -->
<g id="edge4_Node000003_Node000004" class="edge">
<title>Node3&#45;&gt;Node4</title>
<g id="a_edge4_Node000003_Node000004"><a xlink:title=" ">
<path fill="none" stroke="#63b8ff" d="M154.98,-78.5C146.94,-78.5 138.9,-78.5 131.12,-78.5"/>
<polygon fill="#63b8ff" stroke="#63b8ff" points="154.81,-82 164.81,-78.5 154.81,-75 154.81,-82"/>
</a>
</g>
</g>
</g>
</svg>
