<?xml version="1.0" encoding="UTF-8" standalone="no"?>
<!DOCTYPE svg PUBLIC "-//W3C//DTD SVG 1.1//EN"
 "http://www.w3.org/Graphics/SVG/1.1/DTD/svg11.dtd">
<!-- Generated by graphviz version 12.2.1 (0)
 -->
<!-- Title: VideoDecoder::HasAudio Pages: 1 -->
<svg width="422pt" height="138pt"
 viewBox="0.00 0.00 422.00 137.50" xmlns="http://www.w3.org/2000/svg" xmlns:xlink="http://www.w3.org/1999/xlink">
<g id="graph0" class="graph" transform="scale(1 1) rotate(0) translate(4 133.5)">
<title>VideoDecoder::HasAudio</title>
<!-- Node1 -->
<g id="Node000001" class="node">
<title>Node1</title>
<g id="a_Node000001"><a xlink:title="Checks if the video file contains an audio stream.">
<polygon fill="#999999" stroke="#666666" points="414,-73.5 287.75,-73.5 287.75,-55 414,-55 414,-73.5"/>
<text text-anchor="middle" x="350.88" y="-60" font-family="Helvetica,sans-Serif" font-size="10.00">VideoDecoder::HasAudio</text>
</a>
</g>
</g>
<!-- Node2 -->
<g id="Node000002" class="node">
<title>Node2</title>
<g id="a_Node000002"><a xlink:href="classVideoDecoder.html#aa8f8aabbe65727acd5ef5cfdc5f3b69b" target="_top" xlink:title="Initializes the FFmpeg components for decoding the video and potentially audio. Opens the input strea...">
<polygon fill="white" stroke="#666666" points="251.75,-129.5 133,-129.5 133,-111 251.75,-111 251.75,-129.5"/>
<text text-anchor="middle" x="192.38" y="-116" font-family="Helvetica,sans-Serif" font-size="10.00">VideoDecoder::Initialize</text>
</a>
</g>
</g>
<!-- Node1&#45;&gt;Node2 -->
<g id="edge1_Node000001_Node000002" class="edge">
<title>Node1&#45;&gt;Node2</title>
<g id="a_edge1_Node000001_Node000002"><a xlink:title=" ">
<path fill="none" stroke="#63b8ff" d="M312.27,-77.71C283.96,-87.84 245.82,-101.49 220.45,-110.56"/>
<polygon fill="#63b8ff" stroke="#63b8ff" points="313.31,-81.05 321.55,-74.39 310.95,-74.46 313.31,-81.05"/>
</a>
</g>
</g>
<!-- Node3 -->
<g id="Node000003" class="node">
<title>Node3</title>
<g id="a_Node000003"><a xlink:href="classVideoDecoder.html#a134b48e98d0b9db4011cfea08d0924da" target="_top" xlink:title="The main function executed by the QThread. Contains the loop that reads packets, decodes video frames...">
<polygon fill="white" stroke="#666666" points="97,-110.5 0,-110.5 0,-92 97,-92 97,-110.5"/>
<text text-anchor="middle" x="48.5" y="-97" font-family="Helvetica,sans-Serif" font-size="10.00">VideoDecoder::run</text>
</a>
</g>
</g>
<!-- Node1&#45;&gt;Node3 -->
<g id="edge4_Node000001_Node000003" class="edge">
<title>Node1&#45;&gt;Node3</title>
<g id="a_edge4_Node000001_Node000003"><a xlink:title=" ">
<path fill="none" stroke="#63b8ff" d="M276.03,-73.35C220.26,-80.22 145.34,-89.44 97.23,-95.37"/>
<polygon fill="#63b8ff" stroke="#63b8ff" points="276.27,-76.84 285.77,-72.15 275.42,-69.9 276.27,-76.84"/>
</a>
</g>
</g>
<!-- Node4 -->
<g id="Node000004" class="node">
<title>Node4</title>
<g id="a_Node000004"><a xlink:href="classVideoDecoder.html#a24223c882abedae8a754c9a2ba1df283" target="_top" xlink:title="Resets the playback position to the beginning of the video. Pauses playback, seeks both video and int...">
<polygon fill="white" stroke="#666666" points="246.88,-55.5 137.88,-55.5 137.88,-37 246.88,-37 246.88,-55.5"/>
<text text-anchor="middle" x="192.38" y="-42" font-family="Helvetica,sans-Serif" font-size="10.00">VideoDecoder::Reset</text>
</a>
</g>
</g>
<!-- Node1&#45;&gt;Node4 -->
<g id="edge3_Node000001_Node000004" class="edge">
<title>Node1&#45;&gt;Node4</title>
<g id="a_edge3_Node000001_Node000004"><a xlink:title=" ">
<path fill="none" stroke="#63b8ff" d="M276.41,-55.8C266.46,-54.66 256.4,-53.5 246.88,-52.4"/>
<polygon fill="#63b8ff" stroke="#63b8ff" points="275.73,-59.25 286.07,-56.91 276.53,-52.29 275.73,-59.25"/>
</a>
</g>
</g>
<!-- Node5 -->
<g id="Node000005" class="node">
<title>Node5</title>
<g id="a_Node000005"><a xlink:href="classVideoDecoder.html#a020f490d189f130ac41da321bb007586" target="_top" xlink:title="Seeks to a specific position in the video stream. Seeks the internal audio decoder (if present) and s...">
<polygon fill="white" stroke="#666666" points="245.38,-18.5 139.38,-18.5 139.38,0 245.38,0 245.38,-18.5"/>
<text text-anchor="middle" x="192.38" y="-5" font-family="Helvetica,sans-Serif" font-size="10.00">VideoDecoder::Seek</text>
</a>
</g>
</g>
<!-- Node1&#45;&gt;Node5 -->
<g id="edge5_Node000001_Node000005" class="edge">
<title>Node1&#45;&gt;Node5</title>
<g id="a_edge5_Node000001_Node000005"><a xlink:title=" ">
<path fill="none" stroke="#63b8ff" d="M313.56,-50.56C295.1,-43.7 272.3,-35.36 251.75,-28.25 242.79,-25.15 233,-21.91 224.05,-19"/>
<polygon fill="#63b8ff" stroke="#63b8ff" points="312.13,-53.77 322.73,-53.98 314.58,-47.21 312.13,-53.77"/>
</a>
</g>
</g>
<!-- Node2&#45;&gt;Node3 -->
<g id="edge2_Node000002_Node000003" class="edge">
<title>Node2&#45;&gt;Node3</title>
<g id="a_edge2_Node000002_Node000003"><a xlink:title=" ">
<path fill="none" stroke="#63b8ff" d="M121.59,-110.9C113.29,-109.79 104.97,-108.68 97.08,-107.62"/>
<polygon fill="#63b8ff" stroke="#63b8ff" points="120.97,-114.35 131.35,-112.21 121.9,-107.41 120.97,-114.35"/>
</a>
</g>
</g>
</g>
</svg>
