<?xml version="1.0" encoding="UTF-8" standalone="no"?>
<!DOCTYPE svg PUBLIC "-//W3C//DTD SVG 1.1//EN"
 "http://www.w3.org/Graphics/SVG/1.1/DTD/svg11.dtd">
<!-- Generated by graphviz version 12.2.1 (0)
 -->
<!-- Title: AnimatedStackedWidget Pages: 1 -->
<!--zoomable 961 -->

<svg id="main" version="1.1" xmlns="http://www.w3.org/2000/svg" xmlns:xlink="http://www.w3.org/1999/xlink" xml:space="preserve" onload="init(evt)">

<style type="text/css"><![CDATA[
.node, .edge {opacity: 0.7;}
.node.selected, .edge.selected {opacity: 1;}
.edge:hover path { stroke: red; }
.edge:hover polygon { stroke: red; fill: red; }
]]></style>

<defs>
  <circle id="rim" cx="0" cy="0" r="7"/>
  <circle id="rim2" cx="0" cy="0" r="3.5"/>
  <g id="zoomPlus">
    <use xlink:href="#rim" fill="#404040"><set attributeName="fill" to="#808080" begin="zoomplus.mouseover" end="zoomplus.mouseout"/></use>
    <path d="M-4,0h8M0,-4v8" fill="none" stroke="white" stroke-width="1.5" pointer-events="none"/>
  </g>
  <g id="zoomMin">
    <use xlink:href="#rim" fill="#404040"><set attributeName="fill" to="#808080" begin="zoomminus.mouseover" end="zoomminus.mouseout"/></use>
    <path d="M-4,0h8" fill="none" stroke="white" stroke-width="1.5" pointer-events="none"/>
  </g>
  <g id="arrowUp" transform="translate(30 24)">
    <use xlink:href="#rim"/>
    <path pointer-events="none" fill="none" stroke="white" stroke-width="1.5" d="M0,-3.0v7 M-2.5,-0.5L0,-3.0L2.5,-0.5"/>
  </g>
  <g id="arrowRight" transform="rotate(90) translate(36 -43)">
    <use xlink:href="#rim"/>
    <path pointer-events="none" fill="none" stroke="white" stroke-width="1.5" d="M0,-3.0v7 M-2.5,-0.5L0,-3.0L2.5,-0.5"/>
  </g>
  <g id="arrowDown" transform="rotate(180) translate(-30 -48)">
    <use xlink:href="#rim"/>
    <path pointer-events="none" fill="none" stroke="white" stroke-width="1.5" d="M0,-3.0v7 M-2.5,-0.5L0,-3.0L2.5,-0.5"/>
  </g>
  <g id="arrowLeft" transform="rotate(270) translate(-36 17)">
    <use xlink:href="#rim"/>
    <path pointer-events="none" fill="none" stroke="white" stroke-width="1.5" d="M0,-3.0v7 M-2.5,-0.5L0,-3.0L2.5,-0.5"/>
  </g>
  <g id="resetDef">
    <use xlink:href="#rim2" fill="#404040"><set attributeName="fill" to="#808080" begin="reset.mouseover" end="reset.mouseout"/></use>
  </g>
</defs>
<script type="application/ecmascript">
var viewWidth = 267;
var viewHeight = 961;
var sectionId = 'dynsection-1';
</script>
<script type="application/ecmascript" xlink:href="svg.min.js"/>
<svg id="graph" class="graph">
<g id="viewport">
<title>AnimatedStackedWidget</title>
<!-- Node1 -->
<g id="Node000001" class="node">
<title>Node1</title>
<g id="a_Node000001"><a xlink:title="A QStackedWidget subclass that provides animated transitions between widgets.">
<polygon fill="#999999" stroke="none" points="147.75,-545 0,-545 0,0 147.75,0 147.75,-545"/>
<text text-anchor="start" x="20.25" y="-531.5" font-family="Helvetica,sans-Serif" font-size="10.00">AnimatedStackedWidget</text>
<text text-anchor="start" x="4" y="-517" font-family="Helvetica,sans-Serif" font-size="10.00">+</text>
<text text-anchor="start" x="14" y="-517" font-family="Helvetica,sans-Serif" font-size="10.00">int duration</text>
<text text-anchor="start" x="5.5" y="-502.5" font-family="Helvetica,sans-Serif" font-size="10.00">&#45;</text>
<text text-anchor="start" x="14" y="-502.5" font-family="Helvetica,sans-Serif" font-size="10.00">QParallelAnimationGroup</text>
<text text-anchor="start" x="14" y="-492" font-family="Helvetica,sans-Serif" font-size="10.00"> * animation_group_</text>
<text text-anchor="start" x="5.5" y="-477.5" font-family="Helvetica,sans-Serif" font-size="10.00">&#45;</text>
<text text-anchor="start" x="14" y="-477.5" font-family="Helvetica,sans-Serif" font-size="10.00">bool animation_running_</text>
<text text-anchor="start" x="5.5" y="-463" font-family="Helvetica,sans-Serif" font-size="10.00">&#45;</text>
<text text-anchor="start" x="14" y="-463" font-family="Helvetica,sans-Serif" font-size="10.00">AnimationType animation</text>
<text text-anchor="start" x="14" y="-452.5" font-family="Helvetica,sans-Serif" font-size="10.00">_type_</text>
<text text-anchor="start" x="5.5" y="-438" font-family="Helvetica,sans-Serif" font-size="10.00">&#45;</text>
<text text-anchor="start" x="14" y="-438" font-family="Helvetica,sans-Serif" font-size="10.00">int duration_</text>
<text text-anchor="start" x="5.5" y="-423.5" font-family="Helvetica,sans-Serif" font-size="10.00">&#45;</text>
<text text-anchor="start" x="14" y="-423.5" font-family="Helvetica,sans-Serif" font-size="10.00">QSoundEffect * swoosh</text>
<text text-anchor="start" x="14" y="-413" font-family="Helvetica,sans-Serif" font-size="10.00">_sound_</text>
<text text-anchor="start" x="5.5" y="-398.5" font-family="Helvetica,sans-Serif" font-size="10.00">&#45;</text>
<text text-anchor="start" x="14" y="-398.5" font-family="Helvetica,sans-Serif" font-size="10.00">int target_index_</text>
<text text-anchor="start" x="4" y="-384" font-family="Helvetica,sans-Serif" font-size="10.00">+</text>
<text text-anchor="start" x="14" y="-384" font-family="Helvetica,sans-Serif" font-size="10.00">AnimatedStackedWidget</text>
<text text-anchor="start" x="14" y="-373.5" font-family="Helvetica,sans-Serif" font-size="10.00">(QWidget *parent=nullptr)</text>
<text text-anchor="start" x="4" y="-359" font-family="Helvetica,sans-Serif" font-size="10.00">+</text>
<text text-anchor="start" x="14" y="-359" font-family="Helvetica,sans-Serif" font-size="10.00">AnimationType GetAnimation</text>
<text text-anchor="start" x="14" y="-348.5" font-family="Helvetica,sans-Serif" font-size="10.00">Type() const</text>
<text text-anchor="start" x="4" y="-334" font-family="Helvetica,sans-Serif" font-size="10.00">+</text>
<text text-anchor="start" x="14" y="-334" font-family="Helvetica,sans-Serif" font-size="10.00">int GetDuration() const</text>
<text text-anchor="start" x="4" y="-319.5" font-family="Helvetica,sans-Serif" font-size="10.00">+</text>
<text text-anchor="start" x="14" y="-319.5" font-family="Helvetica,sans-Serif" font-size="10.00">bool IsAnimating()</text>
<text text-anchor="start" x="14" y="-309" font-family="Helvetica,sans-Serif" font-size="10.00"> const</text>
<text text-anchor="start" x="4" y="-294.5" font-family="Helvetica,sans-Serif" font-size="10.00">+</text>
<text text-anchor="start" x="14" y="-294.5" font-family="Helvetica,sans-Serif" font-size="10.00">void SetAnimationType</text>
<text text-anchor="start" x="14" y="-284" font-family="Helvetica,sans-Serif" font-size="10.00">(const AnimationType type)</text>
<text text-anchor="start" x="4" y="-269.5" font-family="Helvetica,sans-Serif" font-size="10.00">+</text>
<text text-anchor="start" x="14" y="-269.5" font-family="Helvetica,sans-Serif" font-size="10.00">void SetDuration(const</text>
<text text-anchor="start" x="14" y="-259" font-family="Helvetica,sans-Serif" font-size="10.00"> int duration)</text>
<text text-anchor="start" x="4" y="-244.5" font-family="Helvetica,sans-Serif" font-size="10.00">+</text>
<text text-anchor="start" x="14" y="-244.5" font-family="Helvetica,sans-Serif" font-size="10.00">~AnimatedStackedWidget</text>
<text text-anchor="start" x="14" y="-234" font-family="Helvetica,sans-Serif" font-size="10.00">() override</text>
<text text-anchor="start" x="4" y="-219.5" font-family="Helvetica,sans-Serif" font-size="10.00">+</text>
<text text-anchor="start" x="14" y="-219.5" font-family="Helvetica,sans-Serif" font-size="10.00">void SlideToIndex(int</text>
<text text-anchor="start" x="14" y="-209" font-family="Helvetica,sans-Serif" font-size="10.00"> index)</text>
<text text-anchor="start" x="4" y="-194.5" font-family="Helvetica,sans-Serif" font-size="10.00">+</text>
<text text-anchor="start" x="14" y="-194.5" font-family="Helvetica,sans-Serif" font-size="10.00">void SlideToNextIndex()</text>
<text text-anchor="start" x="4" y="-180" font-family="Helvetica,sans-Serif" font-size="10.00">+</text>
<text text-anchor="start" x="14" y="-180" font-family="Helvetica,sans-Serif" font-size="10.00">void SlideToWidget</text>
<text text-anchor="start" x="14" y="-169.5" font-family="Helvetica,sans-Serif" font-size="10.00">(QWidget *widget)</text>
<text text-anchor="start" x="4.38" y="-155" font-family="Helvetica,sans-Serif" font-size="10.00">#</text>
<text text-anchor="start" x="14" y="-155" font-family="Helvetica,sans-Serif" font-size="10.00">void AnimateFade(int</text>
<text text-anchor="start" x="14" y="-144.5" font-family="Helvetica,sans-Serif" font-size="10.00"> next_index) const</text>
<text text-anchor="start" x="4.38" y="-130" font-family="Helvetica,sans-Serif" font-size="10.00">#</text>
<text text-anchor="start" x="14" y="-130" font-family="Helvetica,sans-Serif" font-size="10.00">void AnimatePush(int</text>
<text text-anchor="start" x="14" y="-119.5" font-family="Helvetica,sans-Serif" font-size="10.00"> next_index) const</text>
<text text-anchor="start" x="4.38" y="-105" font-family="Helvetica,sans-Serif" font-size="10.00">#</text>
<text text-anchor="start" x="14" y="-105" font-family="Helvetica,sans-Serif" font-size="10.00">void AnimateSlide(int</text>
<text text-anchor="start" x="14" y="-94.5" font-family="Helvetica,sans-Serif" font-size="10.00"> next_index) const</text>
<text text-anchor="start" x="4.38" y="-80" font-family="Helvetica,sans-Serif" font-size="10.00">#</text>
<text text-anchor="start" x="14" y="-80" font-family="Helvetica,sans-Serif" font-size="10.00">void AnimateSlideAndFade</text>
<text text-anchor="start" x="14" y="-69.5" font-family="Helvetica,sans-Serif" font-size="10.00">(int next_index) const</text>
<text text-anchor="start" x="5.5" y="-55" font-family="Helvetica,sans-Serif" font-size="10.00">&#45;</text>
<text text-anchor="start" x="14" y="-55" font-family="Helvetica,sans-Serif" font-size="10.00">void CleanupAfterAnimation</text>
<text text-anchor="start" x="14" y="-44.5" font-family="Helvetica,sans-Serif" font-size="10.00">() const</text>
<text text-anchor="start" x="5.5" y="-30" font-family="Helvetica,sans-Serif" font-size="10.00">&#45;</text>
<text text-anchor="start" x="14" y="-30" font-family="Helvetica,sans-Serif" font-size="10.00">void PrepareAnimation</text>
<text text-anchor="start" x="14" y="-19.5" font-family="Helvetica,sans-Serif" font-size="10.00">(int next_index) const</text>
<text text-anchor="start" x="5.5" y="-5" font-family="Helvetica,sans-Serif" font-size="10.00">&#45;</text>
<text text-anchor="start" x="14" y="-5" font-family="Helvetica,sans-Serif" font-size="10.00">void OnGLTransitionFinished()</text>
<polygon fill="#666666" stroke="#666666" points="0,-528.5 0,-528.5 147.75,-528.5 147.75,-528.5 0,-528.5"/>
<polygon fill="#666666" stroke="#666666" points="0,-395.5 0,-395.5 12,-395.5 12,-395.5 0,-395.5"/>
<polygon fill="#666666" stroke="#666666" points="12,-395.5 12,-395.5 147.75,-395.5 147.75,-395.5 12,-395.5"/>
<polygon fill="none" stroke="#666666" points="0,0 0,-545 147.75,-545 147.75,0 0,0"/>
</a>
</g>
</g>
<!-- Node2 -->
<g id="Node000002" class="node">
<title>Node2</title>
<g id="a_Node000002"><a xlink:title=" ">
<polygon fill="white" stroke="none" points="98.62,-753.5 17.12,-753.5 17.12,-706 98.62,-706 98.62,-753.5"/>
<text text-anchor="start" x="21.12" y="-740" font-family="Helvetica,sans-Serif" font-size="10.00">QStackedWidget</text>
<text text-anchor="start" x="56.38" y="-725.5" font-family="Helvetica,sans-Serif" font-size="10.00"> </text>
<text text-anchor="start" x="56.38" y="-711" font-family="Helvetica,sans-Serif" font-size="10.00"> </text>
<polygon fill="#666666" stroke="#666666" points="17.12,-737 17.12,-737 98.62,-737 98.62,-737 17.12,-737"/>
<polygon fill="#666666" stroke="#666666" points="17.12,-722.5 17.12,-722.5 98.62,-722.5 98.62,-722.5 17.12,-722.5"/>
<polygon fill="none" stroke="#666666" points="17.12,-706 17.12,-753.5 98.62,-753.5 98.62,-706 17.12,-706"/>
</a>
</g>
</g>
<!-- Node2&#45;&gt;Node1 -->
<g id="edge1_Node000001_Node000002" class="edge">
<title>Node2&#45;&gt;Node1</title>
<g id="a_edge1_Node000001_Node000002"><a xlink:title=" ">
<path fill="none" stroke="#63b8ff" d="M59.06,-695.09C60.25,-661.1 62.22,-605.11 64.34,-544.88"/>
<polygon fill="none" stroke="#63b8ff" points="55.58,-694.54 58.72,-704.66 62.57,-694.79 55.58,-694.54"/>
</a>
</g>
</g>
<!-- Node3 -->
<g id="Node000003" class="node">
<title>Node3</title>
<g id="a_Node000003"><a xlink:href="classGLTransitionWidget.html" target="_top" xlink:title="An OpenGL widget designed to render smooth, animated slide transitions between two other widgets.">
<polygon fill="white" stroke="none" points="258.75,-868 117,-868 117,-591.5 258.75,-591.5 258.75,-868"/>
<text text-anchor="start" x="145.5" y="-854.5" font-family="Helvetica,sans-Serif" font-size="10.00">GLTransitionWidget</text>
<text text-anchor="start" x="121" y="-840" font-family="Helvetica,sans-Serif" font-size="10.00">+</text>
<text text-anchor="start" x="131" y="-840" font-family="Helvetica,sans-Serif" font-size="10.00">float offset</text>
<text text-anchor="start" x="122.5" y="-825.5" font-family="Helvetica,sans-Serif" font-size="10.00">&#45;</text>
<text text-anchor="start" x="131" y="-825.5" font-family="Helvetica,sans-Serif" font-size="10.00">QPropertyAnimation</text>
<text text-anchor="start" x="131" y="-815" font-family="Helvetica,sans-Serif" font-size="10.00"> * animation_</text>
<text text-anchor="start" x="122.5" y="-800.5" font-family="Helvetica,sans-Serif" font-size="10.00">&#45;</text>
<text text-anchor="start" x="131" y="-800.5" font-family="Helvetica,sans-Serif" font-size="10.00">QPixmap current_pixmap_</text>
<text text-anchor="start" x="122.5" y="-786" font-family="Helvetica,sans-Serif" font-size="10.00">&#45;</text>
<text text-anchor="start" x="131" y="-786" font-family="Helvetica,sans-Serif" font-size="10.00">QPixmap next_pixmap_</text>
<text text-anchor="start" x="122.5" y="-771.5" font-family="Helvetica,sans-Serif" font-size="10.00">&#45;</text>
<text text-anchor="start" x="131" y="-771.5" font-family="Helvetica,sans-Serif" font-size="10.00">float offset_</text>
<text text-anchor="start" x="121" y="-757" font-family="Helvetica,sans-Serif" font-size="10.00">+</text>
<text text-anchor="start" x="131" y="-757" font-family="Helvetica,sans-Serif" font-size="10.00">float GetOffset() const</text>
<text text-anchor="start" x="121" y="-742.5" font-family="Helvetica,sans-Serif" font-size="10.00">+</text>
<text text-anchor="start" x="131" y="-742.5" font-family="Helvetica,sans-Serif" font-size="10.00">GLTransitionWidget</text>
<text text-anchor="start" x="131" y="-732" font-family="Helvetica,sans-Serif" font-size="10.00">(QWidget *parent=nullptr)</text>
<text text-anchor="start" x="121" y="-717.5" font-family="Helvetica,sans-Serif" font-size="10.00">+</text>
<text text-anchor="start" x="131" y="-717.5" font-family="Helvetica,sans-Serif" font-size="10.00">void SetOffset(float</text>
<text text-anchor="start" x="131" y="-707" font-family="Helvetica,sans-Serif" font-size="10.00"> offset)</text>
<text text-anchor="start" x="121" y="-692.5" font-family="Helvetica,sans-Serif" font-size="10.00">+</text>
<text text-anchor="start" x="131" y="-692.5" font-family="Helvetica,sans-Serif" font-size="10.00">void SetWidgets(QWidget</text>
<text text-anchor="start" x="131" y="-682" font-family="Helvetica,sans-Serif" font-size="10.00"> *current_widget, QWidget</text>
<text text-anchor="start" x="131" y="-671.5" font-family="Helvetica,sans-Serif" font-size="10.00"> *next_widget)</text>
<text text-anchor="start" x="121" y="-657" font-family="Helvetica,sans-Serif" font-size="10.00">+</text>
<text text-anchor="start" x="131" y="-657" font-family="Helvetica,sans-Serif" font-size="10.00">void StartTransition</text>
<text text-anchor="start" x="131" y="-646.5" font-family="Helvetica,sans-Serif" font-size="10.00">(int duration)</text>
<text text-anchor="start" x="121" y="-632" font-family="Helvetica,sans-Serif" font-size="10.00">+</text>
<text text-anchor="start" x="131" y="-632" font-family="Helvetica,sans-Serif" font-size="10.00">~GLTransitionWidget</text>
<text text-anchor="start" x="131" y="-621.5" font-family="Helvetica,sans-Serif" font-size="10.00">() override</text>
<text text-anchor="start" x="121.38" y="-607" font-family="Helvetica,sans-Serif" font-size="10.00">#</text>
<text text-anchor="start" x="131" y="-607" font-family="Helvetica,sans-Serif" font-size="10.00">void paintEvent(QPaintEvent</text>
<text text-anchor="start" x="131" y="-596.5" font-family="Helvetica,sans-Serif" font-size="10.00"> *event) override</text>
<polygon fill="#666666" stroke="#666666" points="117,-851.5 117,-851.5 258.75,-851.5 258.75,-851.5 117,-851.5"/>
<polygon fill="#666666" stroke="#666666" points="117,-768.5 117,-768.5 129,-768.5 129,-768.5 117,-768.5"/>
<polygon fill="#666666" stroke="#666666" points="129,-768.5 129,-768.5 258.75,-768.5 258.75,-768.5 129,-768.5"/>
<polygon fill="none" stroke="#666666" points="117,-591.5 117,-868 258.75,-868 258.75,-591.5 117,-591.5"/>
</a>
</g>
</g>
<!-- Node3&#45;&gt;Node1 -->
<g id="edge2_Node000001_Node000003" class="edge">
<title>Node3&#45;&gt;Node1</title>
<g id="a_edge2_Node000001_Node000003"><a xlink:title=" ">
<path fill="none" stroke="#63b8ff" d="M153.52,-591.54C150.72,-580.37 147.83,-568.85 144.9,-557.12"/>
<polygon fill="none" stroke="#63b8ff" points="144.95,-557.34 139.61,-552.49 142.04,-545.7 147.37,-550.55 144.95,-557.34"/>
</a>
</g>
<text text-anchor="middle" x="196.87" y="-564" font-family="Helvetica,sans-Serif" font-size="10.00" fill="grey"> &#45;gl_transition_widget_</text>
</g>
<!-- Node4 -->
<g id="Node000004" class="node">
<title>Node4</title>
<g id="a_Node000004"><a xlink:title=" ">
<polygon fill="white" stroke="none" points="229,-952.5 146.75,-952.5 146.75,-905 229,-905 229,-952.5"/>
<text text-anchor="start" x="150.75" y="-939" font-family="Helvetica,sans-Serif" font-size="10.00">QOpenGLWidget</text>
<text text-anchor="start" x="186.38" y="-924.5" font-family="Helvetica,sans-Serif" font-size="10.00"> </text>
<text text-anchor="start" x="186.38" y="-910" font-family="Helvetica,sans-Serif" font-size="10.00"> </text>
<polygon fill="#666666" stroke="#666666" points="146.75,-936 146.75,-936 229,-936 229,-936 146.75,-936"/>
<polygon fill="#666666" stroke="#666666" points="146.75,-921.5 146.75,-921.5 229,-921.5 229,-921.5 146.75,-921.5"/>
<polygon fill="none" stroke="#666666" points="146.75,-905 146.75,-952.5 229,-952.5 229,-905 146.75,-905"/>
</a>
</g>
</g>
<!-- Node4&#45;&gt;Node3 -->
<g id="edge3_Node000003_Node000004" class="edge">
<title>Node4&#45;&gt;Node3</title>
<g id="a_edge3_Node000003_Node000004"><a xlink:title=" ">
<path fill="none" stroke="#63b8ff" d="M187.88,-893.71C187.88,-885.88 187.88,-877.08 187.88,-867.74"/>
<polygon fill="none" stroke="#63b8ff" points="184.38,-893.64 187.88,-903.64 191.38,-893.64 184.38,-893.64"/>
</a>
</g>
</g>
</g>
</svg>

<g id="navigator" transform="translate(0 0)" fill="#404254">
  <rect fill="#f2f5e9" fill-opacity="0.5" stroke="#606060" stroke-width=".5" x="0" y="0" width="60" height="60"/>
  <use id="zoomplus" xlink:href="#zoomPlus" x="17" y="9" onmousedown="handleZoom(evt,'in')"/>
  <use id="zoomminus" xlink:href="#zoomMin" x="42" y="9" onmousedown="handleZoom(evt,'out')"/>
  <use id="reset" xlink:href="#resetDef" x="30" y="36" onmousedown="handleReset()"/>
   <use id="arrowup" xlink:href="#arrowUp" x="0" y="0" onmousedown="handlePan(0,-1)"/>
  <use id="arrowright" xlink:href="#arrowRight" x="0" y="0" onmousedown="handlePan(1,0)"/>
  <use id="arrowdown" xlink:href="#arrowDown" x="0" y="0" onmousedown="handlePan(0,1)"/>
  <use id="arrowleft" xlink:href="#arrowLeft" x="0" y="0" onmousedown="handlePan(-1,0)"/>
</g>
<svg viewBox="0 0 15 15" width="100%" height="30px" preserveAspectRatio="xMaxYMin meet">
 <g id="arrow_out" transform="scale(0.3 0.3)">
  <a xlink:href="classAnimatedStackedWidget__coll__graph_org.svg" target="_base">
   <rect id="button" ry="5" rx="5" y="6" x="6" height="38" width="38"
        fill="#f2f5e9" fill-opacity="0.5" stroke="#606060" stroke-width="1.0"/>
   <path id="arrow"
     d="M 11.500037,31.436501 C 11.940474,20.09759 22.043105,11.32322 32.158766,21.979434 L 37.068811,17.246167 C 37.068811,17.246167 37.088388,32 37.088388,32 L 22.160133,31.978069 C 22.160133,31.978069 26.997745,27.140456 26.997745,27.140456 C 18.528582,18.264221 13.291696,25.230495 11.500037,31.436501 z"
     style="fill:#404040;"/>
  </a>
 </g>
</svg>

<style type='text/css'>
<![CDATA[
[data-mouse-over-selected='false'] { opacity: 0.7; }
[data-mouse-over-selected='true']  { opacity: 1.0; }
]]>
</style>
<script type="application/ecmascript"><![CDATA[
document.addEventListener('DOMContentLoaded', (event) => {
  highlightEdges();
  highlightAdjacentNodes();
});
]]></script>
</svg>
