<?xml version="1.0" encoding="UTF-8" standalone="no"?>
<!DOCTYPE svg PUBLIC "-//W3C//DTD SVG 1.1//EN"
 "http://www.w3.org/Graphics/SVG/1.1/DTD/svg11.dtd">
<!-- Generated by graphviz version 12.2.1 (0)
 -->
<!-- Title: AnimatedStackedWidget::AnimateSlide Pages: 1 -->
<svg width="609pt" height="84pt"
 viewBox="0.00 0.00 609.00 84.00" xmlns="http://www.w3.org/2000/svg" xmlns:xlink="http://www.w3.org/1999/xlink">
<g id="graph0" class="graph" transform="scale(1 1) rotate(0) translate(4 80)">
<title>AnimatedStackedWidget::AnimateSlide</title>
<!-- Node1 -->
<g id="Node000001" class="node">
<title>Node1</title>
<g id="a_Node000001"><a xlink:title="Configures and adds animations to the animation_group_ for a slide transition (CPU fallback).">
<polygon fill="#999999" stroke="#666666" points="601,-52 477.75,-52 477.75,-23 601,-23 601,-52"/>
<text text-anchor="start" x="485.75" y="-38.5" font-family="Helvetica,sans-Serif" font-size="10.00">AnimatedStackedWidget</text>
<text text-anchor="middle" x="539.38" y="-28" font-family="Helvetica,sans-Serif" font-size="10.00">::AnimateSlide</text>
</a>
</g>
</g>
<!-- Node2 -->
<g id="Node000002" class="node">
<title>Node2</title>
<g id="a_Node000002"><a xlink:href="classAnimatedStackedWidget.html#ab948154ce1b983eefb9338d97cb58976" target="_top" xlink:title="Prepares the appropriate animation based on animation_type_. Calls the corresponding Animate* method ...">
<polygon fill="white" stroke="#666666" points="441.75,-52 318.5,-52 318.5,-23 441.75,-23 441.75,-52"/>
<text text-anchor="start" x="326.5" y="-38.5" font-family="Helvetica,sans-Serif" font-size="10.00">AnimatedStackedWidget</text>
<text text-anchor="middle" x="380.12" y="-28" font-family="Helvetica,sans-Serif" font-size="10.00">::PrepareAnimation</text>
</a>
</g>
</g>
<!-- Node1&#45;&gt;Node2 -->
<g id="edge1_Node000001_Node000002" class="edge">
<title>Node1&#45;&gt;Node2</title>
<g id="a_edge1_Node000001_Node000002"><a xlink:title=" ">
<path fill="none" stroke="#63b8ff" d="M466.23,-37.5C458.14,-37.5 449.95,-37.5 442.02,-37.5"/>
<polygon fill="#63b8ff" stroke="#63b8ff" points="466.06,-41 476.06,-37.5 466.06,-34 466.06,-41"/>
</a>
</g>
</g>
<!-- Node3 -->
<g id="Node000003" class="node">
<title>Node3</title>
<g id="a_Node000003"><a xlink:href="classAnimatedStackedWidget.html#a0a9829357f507ac7b5e0a7daf69b279f" target="_top" xlink:title="Initiates an animated transition to the widget at the specified index. Plays a sound effect and start...">
<polygon fill="white" stroke="#666666" points="282.5,-52 159.25,-52 159.25,-23 282.5,-23 282.5,-52"/>
<text text-anchor="start" x="167.25" y="-38.5" font-family="Helvetica,sans-Serif" font-size="10.00">AnimatedStackedWidget</text>
<text text-anchor="middle" x="220.88" y="-28" font-family="Helvetica,sans-Serif" font-size="10.00">::SlideToIndex</text>
</a>
</g>
</g>
<!-- Node2&#45;&gt;Node3 -->
<g id="edge2_Node000002_Node000003" class="edge">
<title>Node2&#45;&gt;Node3</title>
<g id="a_edge2_Node000002_Node000003"><a xlink:title=" ">
<path fill="none" stroke="#63b8ff" d="M306.98,-37.5C298.89,-37.5 290.7,-37.5 282.77,-37.5"/>
<polygon fill="#63b8ff" stroke="#63b8ff" points="306.81,-41 316.81,-37.5 306.81,-34 306.81,-41"/>
</a>
</g>
</g>
<!-- Node4 -->
<g id="Node000004" class="node">
<title>Node4</title>
<g id="a_Node000004"><a xlink:href="classAnimatedStackedWidget.html#a4f2d6e971acad290609ecf9881a604dd" target="_top" xlink:title="Initiates an animated transition to the next widget in the stack (wraps around). Useful for creating ...">
<polygon fill="white" stroke="#666666" points="123.25,-76 0,-76 0,-47 123.25,-47 123.25,-76"/>
<text text-anchor="start" x="8" y="-62.5" font-family="Helvetica,sans-Serif" font-size="10.00">AnimatedStackedWidget</text>
<text text-anchor="middle" x="61.62" y="-52" font-family="Helvetica,sans-Serif" font-size="10.00">::SlideToNextIndex</text>
</a>
</g>
</g>
<!-- Node3&#45;&gt;Node4 -->
<g id="edge3_Node000003_Node000004" class="edge">
<title>Node3&#45;&gt;Node4</title>
<g id="a_edge3_Node000003_Node000004"><a xlink:title=" ">
<path fill="none" stroke="#63b8ff" d="M147.73,-48.51C139.64,-49.75 131.45,-51 123.52,-52.21"/>
<polygon fill="#63b8ff" stroke="#63b8ff" points="148.22,-51.98 157.58,-47.01 147.17,-45.06 148.22,-51.98"/>
</a>
</g>
</g>
<!-- Node5 -->
<g id="Node000005" class="node">
<title>Node5</title>
<g id="a_Node000005"><a xlink:href="classAnimatedStackedWidget.html#a396f55db2591170791fe0d388217de5a" target="_top" xlink:title="Initiates an animated transition to the specified widget. Convenience slot that finds the index of th...">
<polygon fill="white" stroke="#666666" points="123.25,-29 0,-29 0,0 123.25,0 123.25,-29"/>
<text text-anchor="start" x="8" y="-15.5" font-family="Helvetica,sans-Serif" font-size="10.00">AnimatedStackedWidget</text>
<text text-anchor="middle" x="61.62" y="-5" font-family="Helvetica,sans-Serif" font-size="10.00">::SlideToWidget</text>
</a>
</g>
</g>
<!-- Node3&#45;&gt;Node5 -->
<g id="edge4_Node000003_Node000005" class="edge">
<title>Node3&#45;&gt;Node5</title>
<g id="a_edge4_Node000003_Node000005"><a xlink:title=" ">
<path fill="none" stroke="#63b8ff" d="M147.73,-26.95C139.64,-25.76 131.45,-24.57 123.52,-23.41"/>
<polygon fill="#63b8ff" stroke="#63b8ff" points="147.18,-30.4 157.58,-28.39 148.19,-23.48 147.18,-30.4"/>
</a>
</g>
</g>
</g>
</svg>
