<?xml version="1.0" encoding="UTF-8" standalone="no"?>
<!DOCTYPE svg PUBLIC "-//W3C//DTD SVG 1.1//EN"
 "http://www.w3.org/Graphics/SVG/1.1/DTD/svg11.dtd">
<!-- Generated by graphviz version 12.2.1 (0)
 -->
<!-- Title: MessageService::SendFile Pages: 1 -->
<!--zoomable 560 -->

<svg id="main" version="1.1" xmlns="http://www.w3.org/2000/svg" xmlns:xlink="http://www.w3.org/1999/xlink" xml:space="preserve" onload="init(evt)">

<style type="text/css"><![CDATA[
.node, .edge {opacity: 0.7;}
.node.selected, .edge.selected {opacity: 1;}
.edge:hover path { stroke: red; }
.edge:hover polygon { stroke: red; fill: red; }
]]></style>

<defs>
  <circle id="rim" cx="0" cy="0" r="7"/>
  <circle id="rim2" cx="0" cy="0" r="3.5"/>
  <g id="zoomPlus">
    <use xlink:href="#rim" fill="#404040"><set attributeName="fill" to="#808080" begin="zoomplus.mouseover" end="zoomplus.mouseout"/></use>
    <path d="M-4,0h8M0,-4v8" fill="none" stroke="white" stroke-width="1.5" pointer-events="none"/>
  </g>
  <g id="zoomMin">
    <use xlink:href="#rim" fill="#404040"><set attributeName="fill" to="#808080" begin="zoomminus.mouseover" end="zoomminus.mouseout"/></use>
    <path d="M-4,0h8" fill="none" stroke="white" stroke-width="1.5" pointer-events="none"/>
  </g>
  <g id="arrowUp" transform="translate(30 24)">
    <use xlink:href="#rim"/>
    <path pointer-events="none" fill="none" stroke="white" stroke-width="1.5" d="M0,-3.0v7 M-2.5,-0.5L0,-3.0L2.5,-0.5"/>
  </g>
  <g id="arrowRight" transform="rotate(90) translate(36 -43)">
    <use xlink:href="#rim"/>
    <path pointer-events="none" fill="none" stroke="white" stroke-width="1.5" d="M0,-3.0v7 M-2.5,-0.5L0,-3.0L2.5,-0.5"/>
  </g>
  <g id="arrowDown" transform="rotate(180) translate(-30 -48)">
    <use xlink:href="#rim"/>
    <path pointer-events="none" fill="none" stroke="white" stroke-width="1.5" d="M0,-3.0v7 M-2.5,-0.5L0,-3.0L2.5,-0.5"/>
  </g>
  <g id="arrowLeft" transform="rotate(270) translate(-36 17)">
    <use xlink:href="#rim"/>
    <path pointer-events="none" fill="none" stroke="white" stroke-width="1.5" d="M0,-3.0v7 M-2.5,-0.5L0,-3.0L2.5,-0.5"/>
  </g>
  <g id="resetDef">
    <use xlink:href="#rim2" fill="#404040"><set attributeName="fill" to="#808080" begin="reset.mouseover" end="reset.mouseout"/></use>
  </g>
</defs>
<script type="application/ecmascript">
var viewWidth = 532;
var viewHeight = 560;
var sectionId = 'dynsection-22';
</script>
<script type="application/ecmascript" xlink:href="svg.min.js"/>
<svg id="graph" class="graph">
<g id="viewport">
<title>MessageService::SendFile</title>
<!-- Node1 -->
<g id="Node000001" class="node">
<title>Node1</title>
<g id="a_Node000001"><a xlink:title="Initiates the process of sending a file to the currently active frequency. Reads the file,...">
<polygon fill="#999999" stroke="#666666" points="133.75,-274.75 0,-274.75 0,-256.25 133.75,-256.25 133.75,-274.75"/>
<text text-anchor="middle" x="66.88" y="-261.25" font-family="Helvetica,sans-Serif" font-size="10.00">MessageService::SendFile</text>
</a>
</g>
</g>
<!-- Node2 -->
<g id="Node000002" class="node">
<title>Node2</title>
<g id="a_Node000002"><a xlink:href="classAttachmentQueueManager.html#a9fc5b79cd8dd31a11ff60fedf183f5d2" target="_top" xlink:title="Adds a new task (represented by a std::function) to the execution queue. Creates an AttachmentTask wr...">
<polygon fill="white" stroke="#666666" points="310.25,-536 178,-536 178,-507 310.25,-507 310.25,-536"/>
<text text-anchor="start" x="186" y="-522.5" font-family="Helvetica,sans-Serif" font-size="10.00">AttachmentQueueManager</text>
<text text-anchor="middle" x="244.12" y="-512" font-family="Helvetica,sans-Serif" font-size="10.00">::AddTask</text>
</a>
</g>
</g>
<!-- Node1&#45;&gt;Node2 -->
<g id="edge1_Node000001_Node000002" class="edge">
<title>Node1&#45;&gt;Node2</title>
<g id="a_edge1_Node000001_Node000002"><a xlink:title=" ">
<path fill="none" stroke="#63b8ff" d="M69.21,-275.13C74.61,-310.46 98.11,-434.23 169.75,-498.5 170.4,-499.09 171.07,-499.66 171.75,-500.21"/>
<polygon fill="#63b8ff" stroke="#63b8ff" points="169.77,-503.1 180.01,-505.8 173.69,-497.3 169.77,-503.1"/>
</a>
</g>
</g>
<!-- Node5 -->
<g id="Node000005" class="node">
<title>Node5</title>
<g id="a_Node000005"><a xlink:href="classAuthenticationManager.html#a746a91c33a014dad53ab34565fe5e64e" target="_top" xlink:title="Generates a unique client identifier.">
<polygon fill="white" stroke="#666666" points="302,-489 186.25,-489 186.25,-460 302,-460 302,-489"/>
<text text-anchor="start" x="194.25" y="-475.5" font-family="Helvetica,sans-Serif" font-size="10.00">AuthenticationManager</text>
<text text-anchor="middle" x="244.12" y="-465" font-family="Helvetica,sans-Serif" font-size="10.00">::GenerateClientId</text>
</a>
</g>
</g>
<!-- Node1&#45;&gt;Node5 -->
<g id="edge4_Node000001_Node000005" class="edge">
<title>Node1&#45;&gt;Node5</title>
<g id="a_edge4_Node000001_Node000005"><a xlink:title=" ">
<path fill="none" stroke="#63b8ff" d="M70.28,-274.84C78.57,-305.13 108.82,-401.55 169.75,-451.5 171.72,-453.12 173.81,-454.62 175.98,-456.02"/>
<polygon fill="#63b8ff" stroke="#63b8ff" points="174.19,-459.03 184.64,-460.77 177.55,-452.89 174.19,-459.03"/>
</a>
</g>
</g>
<!-- Node6 -->
<g id="Node000006" class="node">
<title>Node6</title>
<g id="a_Node000006"><a xlink:href="classMessageHandler.html#a0bd569db12a0dbcd30db0dc412691f0d" target="_top" xlink:title="Generates a unique message identifier using UUID.">
<polygon fill="white" stroke="#666666" points="311.75,-442 176.5,-442 176.5,-413 311.75,-413 311.75,-442"/>
<text text-anchor="start" x="184.5" y="-428.5" font-family="Helvetica,sans-Serif" font-size="10.00">MessageHandler::Generate</text>
<text text-anchor="middle" x="244.12" y="-418" font-family="Helvetica,sans-Serif" font-size="10.00">MessageId</text>
</a>
</g>
</g>
<!-- Node1&#45;&gt;Node6 -->
<g id="edge5_Node000001_Node000006" class="edge">
<title>Node1&#45;&gt;Node6</title>
<g id="a_edge5_Node000001_Node000006"><a xlink:title=" ">
<path fill="none" stroke="#63b8ff" d="M72.28,-275.23C84.2,-300.49 119.62,-368.64 169.75,-404.5 171.11,-405.47 172.51,-406.4 173.94,-407.29"/>
<polygon fill="#63b8ff" stroke="#63b8ff" points="172.05,-410.25 182.51,-411.93 175.38,-404.09 172.05,-410.25"/>
</a>
</g>
</g>
<!-- Node7 -->
<g id="Node000007" class="node">
<title>Node7</title>
<g id="a_Node000007"><a xlink:href="classWavelengthRegistry.html#a6ce8627bbb1db084bf76053aa92f9a47" target="_top" xlink:title="Gets the identifier of the currently active wavelength.">
<polygon fill="white" stroke="#666666" points="301.62,-395 186.62,-395 186.62,-366 301.62,-366 301.62,-395"/>
<text text-anchor="start" x="194.62" y="-381.5" font-family="Helvetica,sans-Serif" font-size="10.00">WavelengthRegistry</text>
<text text-anchor="middle" x="244.12" y="-371" font-family="Helvetica,sans-Serif" font-size="10.00">::GetActiveWavelength</text>
</a>
</g>
</g>
<!-- Node1&#45;&gt;Node7 -->
<g id="edge6_Node000001_Node000007" class="edge">
<title>Node1&#45;&gt;Node7</title>
<g id="a_edge6_Node000001_Node000007"><a xlink:title=" ">
<path fill="none" stroke="#63b8ff" d="M75.84,-275.04C91.8,-293.56 129.61,-334.56 169.75,-357.5 171.92,-358.74 174.16,-359.92 176.45,-361.04"/>
<polygon fill="#63b8ff" stroke="#63b8ff" points="174.82,-364.15 185.39,-365 177.66,-357.75 174.82,-364.15"/>
</a>
</g>
</g>
<!-- Node8 -->
<g id="Node000008" class="node">
<title>Node8</title>
<g id="a_Node000008"><a xlink:href="classAttachmentQueueManager.html#ad4882521922da9692f3ff5734761e230" target="_top" xlink:title="Gets the singleton instance of the AttachmentQueueManager.">
<polygon fill="white" stroke="#666666" points="310.25,-348 178,-348 178,-319 310.25,-319 310.25,-348"/>
<text text-anchor="start" x="186" y="-334.5" font-family="Helvetica,sans-Serif" font-size="10.00">AttachmentQueueManager</text>
<text text-anchor="middle" x="244.12" y="-324" font-family="Helvetica,sans-Serif" font-size="10.00">::GetInstance</text>
</a>
</g>
</g>
<!-- Node1&#45;&gt;Node8 -->
<g id="edge7_Node000001_Node000008" class="edge">
<title>Node1&#45;&gt;Node8</title>
<g id="a_edge7_Node000001_Node000008"><a xlink:title=" ">
<path fill="none" stroke="#63b8ff" d="M87.89,-275.14C108.24,-284.75 140.8,-299.61 169.75,-310.5 173.78,-312.02 177.96,-313.52 182.19,-314.98"/>
<polygon fill="#63b8ff" stroke="#63b8ff" points="180.71,-318.18 191.31,-318.05 182.95,-311.54 180.71,-318.18"/>
</a>
</g>
</g>
<!-- Node10 -->
<g id="Node000010" class="node">
<title>Node10</title>
<g id="a_Node000010"><a xlink:href="classAuthenticationManager.html#abb3d14d1e380282208dbb4f533d129af" target="_top" xlink:title="Gets the singleton instance of the AuthenticationManager.">
<polygon fill="white" stroke="#666666" points="302,-301 186.25,-301 186.25,-272 302,-272 302,-301"/>
<text text-anchor="start" x="194.25" y="-287.5" font-family="Helvetica,sans-Serif" font-size="10.00">AuthenticationManager</text>
<text text-anchor="middle" x="244.12" y="-277" font-family="Helvetica,sans-Serif" font-size="10.00">::GetInstance</text>
</a>
</g>
</g>
<!-- Node1&#45;&gt;Node10 -->
<g id="edge9_Node000001_Node000010" class="edge">
<title>Node1&#45;&gt;Node10</title>
<g id="a_edge9_Node000001_Node000010"><a xlink:title=" ">
<path fill="none" stroke="#63b8ff" d="M134.13,-273.44C147.46,-275.04 161.49,-276.72 174.88,-278.32"/>
<polygon fill="#63b8ff" stroke="#63b8ff" points="174.11,-281.75 184.45,-279.47 174.94,-274.8 174.11,-281.75"/>
</a>
</g>
</g>
<!-- Node12 -->
<g id="Node000012" class="node">
<title>Node12</title>
<g id="a_Node000012"><a xlink:href="classMessageHandler.html#afa8afa05bb7b07783162bf420a91ac92" target="_top" xlink:title="Gets the singleton instance of the MessageHandler.">
<polygon fill="white" stroke="#666666" points="318.5,-253.75 169.75,-253.75 169.75,-235.25 318.5,-235.25 318.5,-253.75"/>
<text text-anchor="middle" x="244.12" y="-240.25" font-family="Helvetica,sans-Serif" font-size="10.00">MessageHandler::GetInstance</text>
</a>
</g>
</g>
<!-- Node1&#45;&gt;Node12 -->
<g id="edge11_Node000001_Node000012" class="edge">
<title>Node1&#45;&gt;Node12</title>
<g id="a_edge11_Node000001_Node000012"><a xlink:title=" ">
<path fill="none" stroke="#63b8ff" d="M134.13,-257.56C141.97,-256.62 150.05,-255.65 158.11,-254.69"/>
<polygon fill="#63b8ff" stroke="#63b8ff" points="158.43,-258.17 167.94,-253.51 157.6,-251.22 158.43,-258.17"/>
</a>
</g>
</g>
<!-- Node14 -->
<g id="Node000014" class="node">
<title>Node14</title>
<g id="a_Node000014"><a xlink:href="classTranslationManager.html#a370292d4133519fccf401a6b27b2f6a6" target="_top" xlink:title="Returns an instance of the TranslationManager singleton.">
<polygon fill="white" stroke="#666666" points="294.5,-217 193.75,-217 193.75,-188 294.5,-188 294.5,-217"/>
<text text-anchor="start" x="201.75" y="-203.5" font-family="Helvetica,sans-Serif" font-size="10.00">TranslationManager</text>
<text text-anchor="middle" x="244.12" y="-193" font-family="Helvetica,sans-Serif" font-size="10.00">::GetInstance</text>
</a>
</g>
</g>
<!-- Node1&#45;&gt;Node14 -->
<g id="edge13_Node000001_Node000014" class="edge">
<title>Node1&#45;&gt;Node14</title>
<g id="a_edge13_Node000001_Node000014"><a xlink:title=" ">
<path fill="none" stroke="#63b8ff" d="M92.04,-255.86C112.6,-247.75 142.98,-236 169.75,-226.5 174.98,-224.64 180.45,-222.76 185.93,-220.9"/>
<polygon fill="#63b8ff" stroke="#63b8ff" points="186.62,-224.36 194.99,-217.87 184.4,-217.72 186.62,-224.36"/>
</a>
</g>
</g>
<!-- Node16 -->
<g id="Node000016" class="node">
<title>Node16</title>
<g id="a_Node000016"><a xlink:href="classWavelengthRegistry.html#a84a25c38915431306681e96df429f20f" target="_top" xlink:title="Gets the singleton instance of the WavelengthRegistry.">
<polygon fill="white" stroke="#666666" points="295.62,-170 192.62,-170 192.62,-141 295.62,-141 295.62,-170"/>
<text text-anchor="start" x="200.62" y="-156.5" font-family="Helvetica,sans-Serif" font-size="10.00">WavelengthRegistry</text>
<text text-anchor="middle" x="244.12" y="-146" font-family="Helvetica,sans-Serif" font-size="10.00">::GetInstance</text>
</a>
</g>
</g>
<!-- Node1&#45;&gt;Node16 -->
<g id="edge15_Node000001_Node000016" class="edge">
<title>Node1&#45;&gt;Node16</title>
<g id="a_edge15_Node000001_Node000016"><a xlink:title=" ">
<path fill="none" stroke="#63b8ff" d="M76.78,-255.85C93.43,-238.3 131.14,-201.03 169.75,-179.5 173.59,-177.36 177.65,-175.37 181.82,-173.53"/>
<polygon fill="#63b8ff" stroke="#63b8ff" points="182.95,-176.85 190.9,-169.85 180.32,-170.37 182.95,-176.85"/>
</a>
</g>
</g>
<!-- Node18 -->
<g id="Node000018" class="node">
<title>Node18</title>
<g id="a_Node000018"><a xlink:href="classMessageService.html#a4635fcf151d68e3cd873b2d7590c7efc" target="_top" xlink:title="Emitted during file processing and sending to update the status display.">
<polygon fill="white" stroke="#666666" points="310.62,-123 177.62,-123 177.62,-94 310.62,-94 310.62,-123"/>
<text text-anchor="start" x="185.62" y="-109.5" font-family="Helvetica,sans-Serif" font-size="10.00">MessageService::progress</text>
<text text-anchor="middle" x="244.12" y="-99" font-family="Helvetica,sans-Serif" font-size="10.00">MessageUpdated</text>
</a>
</g>
</g>
<!-- Node1&#45;&gt;Node18 -->
<g id="edge17_Node000001_Node000018" class="edge">
<title>Node1&#45;&gt;Node18</title>
<g id="a_edge17_Node000001_Node000018"><a xlink:title=" ">
<path fill="none" stroke="#63b8ff" d="M72.6,-255.87C85.04,-231.52 121.11,-166.98 169.75,-132.5 171.75,-131.08 173.84,-129.75 175.99,-128.48"/>
<polygon fill="#63b8ff" stroke="#63b8ff" points="177.16,-131.82 184.44,-124.12 173.95,-125.6 177.16,-131.82"/>
</a>
</g>
</g>
<!-- Node19 -->
<g id="Node000019" class="node">
<title>Node19</title>
<g id="a_Node000019"><a xlink:href="classMessageService.html#aabe00ddfe3f0fb4bcdae08fd977ecc6f" target="_top" xlink:title="Internal signal emitted by the background file processing task when the JSON message is ready to be s...">
<polygon fill="white" stroke="#666666" points="312.88,-76 175.38,-76 175.38,-47 312.88,-47 312.88,-76"/>
<text text-anchor="start" x="183.38" y="-62.5" font-family="Helvetica,sans-Serif" font-size="10.00">MessageService::sendJson</text>
<text text-anchor="middle" x="244.12" y="-52" font-family="Helvetica,sans-Serif" font-size="10.00">ViaSocket</text>
</a>
</g>
</g>
<!-- Node1&#45;&gt;Node19 -->
<g id="edge18_Node000001_Node000019" class="edge">
<title>Node1&#45;&gt;Node19</title>
<g id="a_edge18_Node000001_Node000019"><a xlink:title=" ">
<path fill="none" stroke="#63b8ff" d="M70.52,-256.07C79.34,-226.38 110.57,-133.95 169.75,-85.5 171.21,-84.3 172.73,-83.17 174.31,-82.08"/>
<polygon fill="#63b8ff" stroke="#63b8ff" points="175.66,-85.35 182.49,-77.25 172.1,-79.33 175.66,-85.35"/>
</a>
</g>
</g>
<!-- Node20 -->
<g id="Node000020" class="node">
<title>Node20</title>
<g id="a_Node000020"><a xlink:href="classTranslationManager.html#ab6435893ce84a82ab11a7604aa9746d6" target="_top" xlink:title="Retrieves the translated string for the specified key.">
<polygon fill="white" stroke="#666666" points="294.5,-29 193.75,-29 193.75,0 294.5,0 294.5,-29"/>
<text text-anchor="start" x="201.75" y="-15.5" font-family="Helvetica,sans-Serif" font-size="10.00">TranslationManager</text>
<text text-anchor="middle" x="244.12" y="-5" font-family="Helvetica,sans-Serif" font-size="10.00">::Translate</text>
</a>
</g>
</g>
<!-- Node1&#45;&gt;Node20 -->
<g id="edge19_Node000001_Node000020" class="edge">
<title>Node1&#45;&gt;Node20</title>
<g id="a_edge19_Node000001_Node000020"><a xlink:title=" ">
<path fill="none" stroke="#63b8ff" d="M69.31,-256.14C75.09,-221.81 99.74,-101.48 169.75,-38.5 173.77,-34.88 178.35,-31.81 183.21,-29.2"/>
<polygon fill="#63b8ff" stroke="#63b8ff" points="184.5,-32.45 192.12,-25.09 181.57,-26.1 184.5,-32.45"/>
</a>
</g>
</g>
<!-- Node3 -->
<g id="Node000003" class="node">
<title>Node3</title>
<g id="a_Node000003"><a xlink:href="classAttachmentTask.html#a08ea014777b2a92f1863c8bca688e0e9" target="_top" xlink:title="Emitted after the task function (TaskFunc_) has finished executing.">
<polygon fill="white" stroke="#666666" points="502.12,-551.75 375.88,-551.75 375.88,-533.25 502.12,-533.25 502.12,-551.75"/>
<text text-anchor="middle" x="439" y="-538.25" font-family="Helvetica,sans-Serif" font-size="10.00">AttachmentTask::finished</text>
</a>
</g>
</g>
<!-- Node2&#45;&gt;Node3 -->
<g id="edge2_Node000002_Node000003" class="edge">
<title>Node2&#45;&gt;Node3</title>
<g id="a_edge2_Node000002_Node000003"><a xlink:title=" ">
<path fill="none" stroke="#63b8ff" d="M310.69,-528.64C327.89,-530.51 346.56,-532.54 364.16,-534.46"/>
<polygon fill="#63b8ff" stroke="#63b8ff" points="363.72,-537.93 374.04,-535.54 364.48,-530.97 363.72,-537.93"/>
</a>
</g>
</g>
<!-- Node4 -->
<g id="Node000004" class="node">
<title>Node4</title>
<g id="a_Node000004"><a xlink:href="classAttachmentQueueManager.html#aab8e65b34981358a309208cf2118febe" target="_top" xlink:title="Processes the task queue, starting new tasks if slots are available. Checks if the number of active t...">
<polygon fill="white" stroke="#666666" points="505.12,-515 372.88,-515 372.88,-486 505.12,-486 505.12,-515"/>
<text text-anchor="start" x="380.88" y="-501.5" font-family="Helvetica,sans-Serif" font-size="10.00">AttachmentQueueManager</text>
<text text-anchor="middle" x="439" y="-491" font-family="Helvetica,sans-Serif" font-size="10.00">::ProcessQueue</text>
</a>
</g>
</g>
<!-- Node2&#45;&gt;Node4 -->
<g id="edge3_Node000002_Node000004" class="edge">
<title>Node2&#45;&gt;Node4</title>
<g id="a_edge3_Node000002_Node000004"><a xlink:title=" ">
<path fill="none" stroke="#63b8ff" d="M310.69,-514.36C326.93,-512.59 344.47,-510.68 361.2,-508.86"/>
<polygon fill="#63b8ff" stroke="#63b8ff" points="361.55,-512.34 371.11,-507.78 360.79,-505.39 361.55,-512.34"/>
</a>
</g>
</g>
<!-- Node9 -->
<g id="Node000009" class="node">
<title>Node9</title>
<g id="a_Node000009"><a xlink:href="classAttachmentQueueManager.html#a7d8e4bb17b92bb0e390215015c269349" target="_top" xlink:title="Private constructor to enforce the singleton pattern. Determines the maximum number of concurrent tas...">
<polygon fill="white" stroke="#666666" points="508.12,-348 369.88,-348 369.88,-319 508.12,-319 508.12,-348"/>
<text text-anchor="start" x="377.88" y="-334.5" font-family="Helvetica,sans-Serif" font-size="10.00">AttachmentQueueManager</text>
<text text-anchor="middle" x="439" y="-324" font-family="Helvetica,sans-Serif" font-size="10.00">::AttachmentQueueManager</text>
</a>
</g>
</g>
<!-- Node8&#45;&gt;Node9 -->
<g id="edge8_Node000008_Node000009" class="edge">
<title>Node8&#45;&gt;Node9</title>
<g id="a_edge8_Node000008_Node000009"><a xlink:title=" ">
<path fill="none" stroke="#63b8ff" d="M310.69,-333.5C325.98,-333.5 342.43,-333.5 358.26,-333.5"/>
<polygon fill="#63b8ff" stroke="#63b8ff" points="358.14,-337 368.14,-333.5 358.14,-330 358.14,-337"/>
</a>
</g>
</g>
<!-- Node11 -->
<g id="Node000011" class="node">
<title>Node11</title>
<g id="a_Node000011"><a xlink:href="classAuthenticationManager.html#a3a24c8dc18303d4ad65c17aff6cdd705" target="_top" xlink:title="Private constructor to enforce the singleton pattern.">
<polygon fill="white" stroke="#666666" points="499.88,-301 378.12,-301 378.12,-272 499.88,-272 499.88,-301"/>
<text text-anchor="start" x="386.12" y="-287.5" font-family="Helvetica,sans-Serif" font-size="10.00">AuthenticationManager</text>
<text text-anchor="middle" x="439" y="-277" font-family="Helvetica,sans-Serif" font-size="10.00">::AuthenticationManager</text>
</a>
</g>
</g>
<!-- Node10&#45;&gt;Node11 -->
<g id="edge10_Node000010_Node000011" class="edge">
<title>Node10&#45;&gt;Node11</title>
<g id="a_edge10_Node000010_Node000011"><a xlink:title=" ">
<path fill="none" stroke="#63b8ff" d="M302.47,-286.5C322.52,-286.5 345.29,-286.5 366.36,-286.5"/>
<polygon fill="#63b8ff" stroke="#63b8ff" points="366.35,-290 376.35,-286.5 366.35,-283 366.35,-290"/>
</a>
</g>
</g>
<!-- Node13 -->
<g id="Node000013" class="node">
<title>Node13</title>
<g id="a_Node000013"><a xlink:href="classMessageHandler.html#ad3b43ca875118c1bafa19f354678cbec" target="_top" xlink:title="Private constructor to enforce the singleton pattern.">
<polygon fill="white" stroke="#666666" points="523.5,-253.75 354.5,-253.75 354.5,-235.25 523.5,-235.25 523.5,-253.75"/>
<text text-anchor="middle" x="439" y="-240.25" font-family="Helvetica,sans-Serif" font-size="10.00">MessageHandler::MessageHandler</text>
</a>
</g>
</g>
<!-- Node12&#45;&gt;Node13 -->
<g id="edge12_Node000012_Node000013" class="edge">
<title>Node12&#45;&gt;Node13</title>
<g id="a_edge12_Node000012_Node000013"><a xlink:title=" ">
<path fill="none" stroke="#63b8ff" d="M318.87,-244.5C326.75,-244.5 334.84,-244.5 342.92,-244.5"/>
<polygon fill="#63b8ff" stroke="#63b8ff" points="342.8,-248 352.8,-244.5 342.8,-241 342.8,-248"/>
</a>
</g>
</g>
<!-- Node15 -->
<g id="Node000015" class="node">
<title>Node15</title>
<g id="a_Node000015"><a xlink:href="classTranslationManager.html#afcf7f2ccfdf410f09d0a740c1826a1f3" target="_top" xlink:title="Private constructor to enforce the singleton pattern.">
<polygon fill="white" stroke="#666666" points="492.38,-217 385.62,-217 385.62,-188 492.38,-188 492.38,-217"/>
<text text-anchor="start" x="393.62" y="-203.5" font-family="Helvetica,sans-Serif" font-size="10.00">TranslationManager</text>
<text text-anchor="middle" x="439" y="-193" font-family="Helvetica,sans-Serif" font-size="10.00">::TranslationManager</text>
</a>
</g>
</g>
<!-- Node14&#45;&gt;Node15 -->
<g id="edge14_Node000014_Node000015" class="edge">
<title>Node14&#45;&gt;Node15</title>
<g id="a_edge14_Node000014_Node000015"><a xlink:title=" ">
<path fill="none" stroke="#63b8ff" d="M294.8,-202.5C319,-202.5 348.4,-202.5 374.25,-202.5"/>
<polygon fill="#63b8ff" stroke="#63b8ff" points="373.95,-206 383.95,-202.5 373.95,-199 373.95,-206"/>
</a>
</g>
</g>
<!-- Node17 -->
<g id="Node000017" class="node">
<title>Node17</title>
<g id="a_Node000017"><a xlink:href="classWavelengthRegistry.html#a5ad0b9c059e6c70af54fd27e35035e64" target="_top" xlink:title="Private constructor to enforce the singleton pattern. Initializes active_wavelength_ to &quot;&#45;1&quot;.">
<polygon fill="white" stroke="#666666" points="493.5,-170 384.5,-170 384.5,-141 493.5,-141 493.5,-170"/>
<text text-anchor="start" x="392.5" y="-156.5" font-family="Helvetica,sans-Serif" font-size="10.00">WavelengthRegistry</text>
<text text-anchor="middle" x="439" y="-146" font-family="Helvetica,sans-Serif" font-size="10.00">::WavelengthRegistry</text>
</a>
</g>
</g>
<!-- Node16&#45;&gt;Node17 -->
<g id="edge16_Node000016_Node000017" class="edge">
<title>Node16&#45;&gt;Node17</title>
<g id="a_edge16_Node000016_Node000017"><a xlink:title=" ">
<path fill="none" stroke="#63b8ff" d="M296.05,-155.5C319.57,-155.5 347.78,-155.5 372.82,-155.5"/>
<polygon fill="#63b8ff" stroke="#63b8ff" points="372.57,-159 382.57,-155.5 372.57,-152 372.57,-159"/>
</a>
</g>
</g>
</g>
</svg>

<g id="navigator" transform="translate(0 0)" fill="#404254">
  <rect fill="#f2f5e9" fill-opacity="0.5" stroke="#606060" stroke-width=".5" x="0" y="0" width="60" height="60"/>
  <use id="zoomplus" xlink:href="#zoomPlus" x="17" y="9" onmousedown="handleZoom(evt,'in')"/>
  <use id="zoomminus" xlink:href="#zoomMin" x="42" y="9" onmousedown="handleZoom(evt,'out')"/>
  <use id="reset" xlink:href="#resetDef" x="30" y="36" onmousedown="handleReset()"/>
   <use id="arrowup" xlink:href="#arrowUp" x="0" y="0" onmousedown="handlePan(0,-1)"/>
  <use id="arrowright" xlink:href="#arrowRight" x="0" y="0" onmousedown="handlePan(1,0)"/>
  <use id="arrowdown" xlink:href="#arrowDown" x="0" y="0" onmousedown="handlePan(0,1)"/>
  <use id="arrowleft" xlink:href="#arrowLeft" x="0" y="0" onmousedown="handlePan(-1,0)"/>
</g>
<svg viewBox="0 0 15 15" width="100%" height="30px" preserveAspectRatio="xMaxYMin meet">
 <g id="arrow_out" transform="scale(0.3 0.3)">
  <a xlink:href="classMessageService_aff7ad6c0302f5f9b4864074eb6675931_cgraph_org.svg" target="_base">
   <rect id="button" ry="5" rx="5" y="6" x="6" height="38" width="38"
        fill="#f2f5e9" fill-opacity="0.5" stroke="#606060" stroke-width="1.0"/>
   <path id="arrow"
     d="M 11.500037,31.436501 C 11.940474,20.09759 22.043105,11.32322 32.158766,21.979434 L 37.068811,17.246167 C 37.068811,17.246167 37.088388,32 37.088388,32 L 22.160133,31.978069 C 22.160133,31.978069 26.997745,27.140456 26.997745,27.140456 C 18.528582,18.264221 13.291696,25.230495 11.500037,31.436501 z"
     style="fill:#404040;"/>
  </a>
 </g>
</svg>

<style type='text/css'>
<![CDATA[
[data-mouse-over-selected='false'] { opacity: 0.7; }
[data-mouse-over-selected='true']  { opacity: 1.0; }
]]>
</style>
<script type="application/ecmascript"><![CDATA[
document.addEventListener('DOMContentLoaded', (event) => {
  highlightEdges();
  highlightAdjacentNodes();
});
]]></script>
</svg>
