<?xml version="1.0" encoding="UTF-8" standalone="no"?>
<!DOCTYPE svg PUBLIC "-//W3C//DTD SVG 1.1//EN"
 "http://www.w3.org/Graphics/SVG/1.1/DTD/svg11.dtd">
<!-- Generated by graphviz version 12.2.1 (0)
 -->
<!-- Title: PathMarkersManager Pages: 1 -->
<!--zoomable 1055 -->

<svg id="main" version="1.1" xmlns="http://www.w3.org/2000/svg" xmlns:xlink="http://www.w3.org/1999/xlink" xml:space="preserve" onload="init(evt)">

<style type="text/css"><![CDATA[
.node, .edge {opacity: 0.7;}
.node.selected, .edge.selected {opacity: 1;}
.edge:hover path { stroke: red; }
.edge:hover polygon { stroke: red; fill: red; }
]]></style>

<defs>
  <circle id="rim" cx="0" cy="0" r="7"/>
  <circle id="rim2" cx="0" cy="0" r="3.5"/>
  <g id="zoomPlus">
    <use xlink:href="#rim" fill="#404040"><set attributeName="fill" to="#808080" begin="zoomplus.mouseover" end="zoomplus.mouseout"/></use>
    <path d="M-4,0h8M0,-4v8" fill="none" stroke="white" stroke-width="1.5" pointer-events="none"/>
  </g>
  <g id="zoomMin">
    <use xlink:href="#rim" fill="#404040"><set attributeName="fill" to="#808080" begin="zoomminus.mouseover" end="zoomminus.mouseout"/></use>
    <path d="M-4,0h8" fill="none" stroke="white" stroke-width="1.5" pointer-events="none"/>
  </g>
  <g id="arrowUp" transform="translate(30 24)">
    <use xlink:href="#rim"/>
    <path pointer-events="none" fill="none" stroke="white" stroke-width="1.5" d="M0,-3.0v7 M-2.5,-0.5L0,-3.0L2.5,-0.5"/>
  </g>
  <g id="arrowRight" transform="rotate(90) translate(36 -43)">
    <use xlink:href="#rim"/>
    <path pointer-events="none" fill="none" stroke="white" stroke-width="1.5" d="M0,-3.0v7 M-2.5,-0.5L0,-3.0L2.5,-0.5"/>
  </g>
  <g id="arrowDown" transform="rotate(180) translate(-30 -48)">
    <use xlink:href="#rim"/>
    <path pointer-events="none" fill="none" stroke="white" stroke-width="1.5" d="M0,-3.0v7 M-2.5,-0.5L0,-3.0L2.5,-0.5"/>
  </g>
  <g id="arrowLeft" transform="rotate(270) translate(-36 17)">
    <use xlink:href="#rim"/>
    <path pointer-events="none" fill="none" stroke="white" stroke-width="1.5" d="M0,-3.0v7 M-2.5,-0.5L0,-3.0L2.5,-0.5"/>
  </g>
  <g id="resetDef">
    <use xlink:href="#rim2" fill="#404040"><set attributeName="fill" to="#808080" begin="reset.mouseover" end="reset.mouseout"/></use>
  </g>
</defs>
<script type="application/ecmascript">
var viewWidth = 242;
var viewHeight = 1055;
var sectionId = 'dynsection-0';
</script>
<script type="application/ecmascript" xlink:href="svg.min.js"/>
<svg id="graph" class="graph">
<g id="viewport">
<title>PathMarkersManager</title>
<!-- Node1 -->
<g id="Node000001" class="node">
<title>Node1</title>
<g id="a_Node000001"><a xlink:title="Manages the creation, update, and rendering of animated markers along a QPainterPath.">
<polygon fill="#999999" stroke="none" points="176.25,-455 0,-455 0,0 176.25,0 176.25,-455"/>
<text text-anchor="start" x="41.25" y="-441.5" font-family="Helvetica,sans-Serif" font-size="10.00">PathMarkersManager</text>
<text text-anchor="start" x="5.5" y="-427" font-family="Helvetica,sans-Serif" font-size="10.00">&#45;</text>
<text text-anchor="start" x="14" y="-427" font-family="Helvetica,sans-Serif" font-size="10.00">qint64 last_update</text>
<text text-anchor="start" x="14" y="-416.5" font-family="Helvetica,sans-Serif" font-size="10.00">_time_</text>
<text text-anchor="start" x="4" y="-402" font-family="Helvetica,sans-Serif" font-size="10.00">+</text>
<text text-anchor="start" x="14" y="-402" font-family="Helvetica,sans-Serif" font-size="10.00">void DrawMarkers(QPainter</text>
<text text-anchor="start" x="14" y="-391.5" font-family="Helvetica,sans-Serif" font-size="10.00"> &amp;painter, const QPainterPath</text>
<text text-anchor="start" x="14" y="-381" font-family="Helvetica,sans-Serif" font-size="10.00"> &amp;blob_path, qint64 current_time)</text>
<text text-anchor="start" x="4" y="-366.5" font-family="Helvetica,sans-Serif" font-size="10.00">+</text>
<text text-anchor="start" x="14" y="-366.5" font-family="Helvetica,sans-Serif" font-size="10.00">const PathMarker &amp;</text>
<text text-anchor="start" x="14" y="-356" font-family="Helvetica,sans-Serif" font-size="10.00"> GetMarker(const size</text>
<text text-anchor="start" x="14" y="-345.5" font-family="Helvetica,sans-Serif" font-size="10.00">_t index) const</text>
<text text-anchor="start" x="4" y="-331" font-family="Helvetica,sans-Serif" font-size="10.00">+</text>
<text text-anchor="start" x="14" y="-331" font-family="Helvetica,sans-Serif" font-size="10.00">size_t GetMarkerCount</text>
<text text-anchor="start" x="14" y="-320.5" font-family="Helvetica,sans-Serif" font-size="10.00">() const</text>
<text text-anchor="start" x="4" y="-306" font-family="Helvetica,sans-Serif" font-size="10.00">+</text>
<text text-anchor="start" x="14" y="-306" font-family="Helvetica,sans-Serif" font-size="10.00">void InitializeMarkers()</text>
<text text-anchor="start" x="4" y="-291.5" font-family="Helvetica,sans-Serif" font-size="10.00">+</text>
<text text-anchor="start" x="14" y="-291.5" font-family="Helvetica,sans-Serif" font-size="10.00">PathMarkersManager()</text>
<text text-anchor="start" x="4" y="-277" font-family="Helvetica,sans-Serif" font-size="10.00">+</text>
<text text-anchor="start" x="14" y="-277" font-family="Helvetica,sans-Serif" font-size="10.00">void UpdateMarkers</text>
<text text-anchor="start" x="14" y="-266.5" font-family="Helvetica,sans-Serif" font-size="10.00">(double delta_time)</text>
<text text-anchor="start" x="5.5" y="-252" font-family="Helvetica,sans-Serif" font-size="10.00">&#45;</text>
<text text-anchor="start" x="14" y="-252" font-family="Helvetica,sans-Serif" font-size="10.00">static void CalculateTrail</text>
<text text-anchor="start" x="14" y="-241.5" font-family="Helvetica,sans-Serif" font-size="10.00">Points(PathMarker &amp;marker,</text>
<text text-anchor="start" x="14" y="-231" font-family="Helvetica,sans-Serif" font-size="10.00"> const QPainterPath &amp;blob</text>
<text text-anchor="start" x="14" y="-220.5" font-family="Helvetica,sans-Serif" font-size="10.00">_path, double position, double</text>
<text text-anchor="start" x="14" y="-210" font-family="Helvetica,sans-Serif" font-size="10.00"> path_length)</text>
<text text-anchor="start" x="5.5" y="-195.5" font-family="Helvetica,sans-Serif" font-size="10.00">&#45;</text>
<text text-anchor="start" x="14" y="-195.5" font-family="Helvetica,sans-Serif" font-size="10.00">static void DrawImpulseMarker</text>
<text text-anchor="start" x="14" y="-185" font-family="Helvetica,sans-Serif" font-size="10.00">(QPainter &amp;painter, const</text>
<text text-anchor="start" x="14" y="-174.5" font-family="Helvetica,sans-Serif" font-size="10.00"> PathMarker &amp;marker, const</text>
<text text-anchor="start" x="14" y="-164" font-family="Helvetica,sans-Serif" font-size="10.00"> QPointF &amp;position, const QColor</text>
<text text-anchor="start" x="14" y="-153.5" font-family="Helvetica,sans-Serif" font-size="10.00"> &amp;marker_color, qint64 current_time)</text>
<text text-anchor="start" x="5.5" y="-139" font-family="Helvetica,sans-Serif" font-size="10.00">&#45;</text>
<text text-anchor="start" x="14" y="-139" font-family="Helvetica,sans-Serif" font-size="10.00">static void DrawQuantumMarker</text>
<text text-anchor="start" x="14" y="-128.5" font-family="Helvetica,sans-Serif" font-size="10.00">(QPainter &amp;painter, const</text>
<text text-anchor="start" x="14" y="-118" font-family="Helvetica,sans-Serif" font-size="10.00"> PathMarker &amp;marker, const</text>
<text text-anchor="start" x="14" y="-107.5" font-family="Helvetica,sans-Serif" font-size="10.00"> QPointF &amp;position, const QColor</text>
<text text-anchor="start" x="14" y="-97" font-family="Helvetica,sans-Serif" font-size="10.00"> &amp;marker_color, qint64 current_time)</text>
<text text-anchor="start" x="5.5" y="-82.5" font-family="Helvetica,sans-Serif" font-size="10.00">&#45;</text>
<text text-anchor="start" x="14" y="-82.5" font-family="Helvetica,sans-Serif" font-size="10.00">static void DrawWaveMarker</text>
<text text-anchor="start" x="14" y="-72" font-family="Helvetica,sans-Serif" font-size="10.00">(QPainter &amp;painter, const</text>
<text text-anchor="start" x="14" y="-61.5" font-family="Helvetica,sans-Serif" font-size="10.00"> PathMarker &amp;marker, const</text>
<text text-anchor="start" x="14" y="-51" font-family="Helvetica,sans-Serif" font-size="10.00"> QPointF &amp;position, const QColor</text>
<text text-anchor="start" x="14" y="-40.5" font-family="Helvetica,sans-Serif" font-size="10.00"> &amp;marker_color)</text>
<text text-anchor="start" x="5.5" y="-26" font-family="Helvetica,sans-Serif" font-size="10.00">&#45;</text>
<text text-anchor="start" x="14" y="-26" font-family="Helvetica,sans-Serif" font-size="10.00">static QColor GetMarkerColor</text>
<text text-anchor="start" x="14" y="-15.5" font-family="Helvetica,sans-Serif" font-size="10.00">(int marker_type, double</text>
<text text-anchor="start" x="14" y="-5" font-family="Helvetica,sans-Serif" font-size="10.00"> color_phase)</text>
<polygon fill="#666666" stroke="#666666" points="0,-438.5 0,-438.5 176.25,-438.5 176.25,-438.5 0,-438.5"/>
<polygon fill="#666666" stroke="#666666" points="0,-413.5 0,-413.5 12,-413.5 12,-413.5 0,-413.5"/>
<polygon fill="#666666" stroke="#666666" points="12,-413.5 12,-413.5 176.25,-413.5 176.25,-413.5 12,-413.5"/>
<polygon fill="none" stroke="#666666" points="0,0 0,-455 176.25,-455 176.25,0 0,0"/>
</a>
</g>
</g>
<!-- Node2 -->
<g id="Node000002" class="node">
<title>Node2</title>
<g id="a_Node000002"><a xlink:title=" ">
<polygon fill="white" stroke="none" points="147.62,-559.5 28.62,-559.5 28.62,-501.5 147.62,-501.5 147.62,-559.5"/>
<text text-anchor="start" x="32.62" y="-546" font-family="Helvetica,sans-Serif" font-size="10.00">std::vector&lt; PathMarkers</text>
<text text-anchor="start" x="36.75" y="-535.5" font-family="Helvetica,sans-Serif" font-size="10.00">Manager::PathMarker &gt;</text>
<text text-anchor="start" x="86.62" y="-521" font-family="Helvetica,sans-Serif" font-size="10.00"> </text>
<text text-anchor="start" x="86.62" y="-506.5" font-family="Helvetica,sans-Serif" font-size="10.00"> </text>
<polygon fill="#666666" stroke="#666666" points="28.62,-532.5 28.62,-532.5 147.62,-532.5 147.62,-532.5 28.62,-532.5"/>
<polygon fill="#666666" stroke="#666666" points="28.62,-518 28.62,-518 147.62,-518 147.62,-518 28.62,-518"/>
<polygon fill="none" stroke="#666666" points="28.62,-501.5 28.62,-559.5 147.62,-559.5 147.62,-501.5 28.62,-501.5"/>
</a>
</g>
</g>
<!-- Node2&#45;&gt;Node1 -->
<g id="edge1_Node000001_Node000002" class="edge">
<title>Node2&#45;&gt;Node1</title>
<g id="a_edge1_Node000001_Node000002"><a xlink:title=" ">
<path fill="none" stroke="#63b8ff" d="M88.12,-501.72C88.12,-492.18 88.12,-480.61 88.12,-467.67"/>
<polygon fill="none" stroke="#63b8ff" points="88.13,-467.78 84.13,-461.78 88.13,-455.78 92.13,-461.78 88.13,-467.78"/>
</a>
</g>
<text text-anchor="middle" x="111.75" y="-474" font-family="Helvetica,sans-Serif" font-size="10.00" fill="grey"> &#45;markers_</text>
</g>
<!-- Node3 -->
<g id="Node000003" class="node">
<title>Node3</title>
<g id="a_Node000003"><a xlink:href="structPathMarkersManager_1_1PathMarker.html" target="_top" xlink:title="Structure representing a single animated marker moving along the path.">
<polygon fill="white" stroke="none" points="234.12,-848.5 96.12,-848.5 96.12,-606 234.12,-606 234.12,-848.5"/>
<text text-anchor="start" x="118.25" y="-835" font-family="Helvetica,sans-Serif" font-size="10.00">PathMarkersManager</text>
<text text-anchor="start" x="137" y="-824.5" font-family="Helvetica,sans-Serif" font-size="10.00">::PathMarker</text>
<text text-anchor="start" x="100.12" y="-810" font-family="Helvetica,sans-Serif" font-size="10.00">+</text>
<text text-anchor="start" x="110.12" y="-810" font-family="Helvetica,sans-Serif" font-size="10.00">double color_phase</text>
<text text-anchor="start" x="100.12" y="-795.5" font-family="Helvetica,sans-Serif" font-size="10.00">+</text>
<text text-anchor="start" x="110.12" y="-795.5" font-family="Helvetica,sans-Serif" font-size="10.00">double color_speed</text>
<text text-anchor="start" x="100.12" y="-781" font-family="Helvetica,sans-Serif" font-size="10.00">+</text>
<text text-anchor="start" x="110.12" y="-781" font-family="Helvetica,sans-Serif" font-size="10.00">int direction</text>
<text text-anchor="start" x="100.12" y="-766.5" font-family="Helvetica,sans-Serif" font-size="10.00">+</text>
<text text-anchor="start" x="110.12" y="-766.5" font-family="Helvetica,sans-Serif" font-size="10.00">int marker_type</text>
<text text-anchor="start" x="100.12" y="-752" font-family="Helvetica,sans-Serif" font-size="10.00">+</text>
<text text-anchor="start" x="110.12" y="-752" font-family="Helvetica,sans-Serif" font-size="10.00">double position</text>
<text text-anchor="start" x="100.12" y="-737.5" font-family="Helvetica,sans-Serif" font-size="10.00">+</text>
<text text-anchor="start" x="110.12" y="-737.5" font-family="Helvetica,sans-Serif" font-size="10.00">double quantum_offset</text>
<text text-anchor="start" x="100.12" y="-723" font-family="Helvetica,sans-Serif" font-size="10.00">+</text>
<text text-anchor="start" x="110.12" y="-723" font-family="Helvetica,sans-Serif" font-size="10.00">int quantum_state</text>
<text text-anchor="start" x="100.12" y="-708.5" font-family="Helvetica,sans-Serif" font-size="10.00">+</text>
<text text-anchor="start" x="110.12" y="-708.5" font-family="Helvetica,sans-Serif" font-size="10.00">double quantum_state</text>
<text text-anchor="start" x="110.12" y="-698" font-family="Helvetica,sans-Serif" font-size="10.00">_duration</text>
<text text-anchor="start" x="100.12" y="-683.5" font-family="Helvetica,sans-Serif" font-size="10.00">+</text>
<text text-anchor="start" x="110.12" y="-683.5" font-family="Helvetica,sans-Serif" font-size="10.00">double quantum_state_time</text>
<text text-anchor="start" x="100.12" y="-669" font-family="Helvetica,sans-Serif" font-size="10.00">+</text>
<text text-anchor="start" x="110.12" y="-669" font-family="Helvetica,sans-Serif" font-size="10.00">int size</text>
<text text-anchor="start" x="100.12" y="-654.5" font-family="Helvetica,sans-Serif" font-size="10.00">+</text>
<text text-anchor="start" x="110.12" y="-654.5" font-family="Helvetica,sans-Serif" font-size="10.00">double speed</text>
<text text-anchor="start" x="100.12" y="-640" font-family="Helvetica,sans-Serif" font-size="10.00">+</text>
<text text-anchor="start" x="110.12" y="-640" font-family="Helvetica,sans-Serif" font-size="10.00">double tail_length</text>
<text text-anchor="start" x="100.12" y="-625.5" font-family="Helvetica,sans-Serif" font-size="10.00">+</text>
<text text-anchor="start" x="110.12" y="-625.5" font-family="Helvetica,sans-Serif" font-size="10.00">double wave_phase</text>
<text text-anchor="start" x="163.62" y="-611" font-family="Helvetica,sans-Serif" font-size="10.00"> </text>
<polygon fill="#666666" stroke="#666666" points="96.12,-821.5 96.12,-821.5 234.12,-821.5 234.12,-821.5 96.12,-821.5"/>
<polygon fill="#666666" stroke="#666666" points="96.12,-622.5 96.12,-622.5 108.12,-622.5 108.12,-622.5 96.12,-622.5"/>
<polygon fill="#666666" stroke="#666666" points="108.12,-622.5 108.12,-622.5 234.12,-622.5 234.12,-622.5 108.12,-622.5"/>
<polygon fill="none" stroke="#666666" points="96.12,-606 96.12,-848.5 234.12,-848.5 234.12,-606 96.12,-606"/>
</a>
</g>
</g>
<!-- Node3&#45;&gt;Node2 -->
<g id="edge2_Node000002_Node000003" class="edge">
<title>Node3&#45;&gt;Node2</title>
<g id="a_edge2_Node000002_Node000003"><a xlink:title=" ">
<path fill="none" stroke="#63b8ff" d="M117.67,-606.24C112.75,-593.77 108.03,-581.83 103.86,-571.29"/>
<polygon fill="none" stroke="#63b8ff" points="103.82,-571.19 97.89,-567.08 99.41,-560.03 105.33,-564.14 103.82,-571.19"/>
</a>
</g>
<text text-anchor="middle" x="133.15" y="-578.5" font-family="Helvetica,sans-Serif" font-size="10.00" fill="grey"> +elements</text>
</g>
<!-- Node4 -->
<g id="Node000004" class="node">
<title>Node4</title>
<g id="a_Node000004"><a xlink:title=" ">
<polygon fill="white" stroke="none" points="211,-953 103.25,-953 103.25,-905.5 211,-905.5 211,-953"/>
<text text-anchor="start" x="107.25" y="-939.5" font-family="Helvetica,sans-Serif" font-size="10.00">std::vector&lt; QPointF &gt;</text>
<text text-anchor="start" x="110" y="-925" font-family="Helvetica,sans-Serif" font-size="10.00">+</text>
<text text-anchor="start" x="122.75" y="-925" font-family="Helvetica,sans-Serif" font-size="10.00">QPointF elements</text>
<text text-anchor="start" x="155.62" y="-910.5" font-family="Helvetica,sans-Serif" font-size="10.00"> </text>
<polygon fill="#666666" stroke="#666666" points="103.25,-936.5 103.25,-936.5 211,-936.5 211,-936.5 103.25,-936.5"/>
<polygon fill="#666666" stroke="#666666" points="103.25,-922 103.25,-922 120.75,-922 120.75,-922 103.25,-922"/>
<polygon fill="#666666" stroke="#666666" points="120.75,-922 120.75,-922 211,-922 211,-922 120.75,-922"/>
<polygon fill="none" stroke="#666666" points="103.25,-905.5 103.25,-953 211,-953 211,-905.5 103.25,-905.5"/>
</a>
</g>
</g>
<!-- Node4&#45;&gt;Node3 -->
<g id="edge3_Node000003_Node000004" class="edge">
<title>Node4&#45;&gt;Node3</title>
<g id="a_edge3_Node000003_Node000004"><a xlink:title=" ">
<path fill="none" stroke="#63b8ff" d="M158.27,-905.83C158.56,-899.88 158.87,-893.44 159.12,-887.5 159.5,-878.96 159.86,-870.16 160.23,-861.28"/>
<polygon fill="none" stroke="#63b8ff" points="160.23,-861.15 156.48,-854.99 160.71,-849.15 164.47,-855.31 160.23,-861.15"/>
</a>
</g>
<text text-anchor="middle" x="187.98" y="-872.75" font-family="Helvetica,sans-Serif" font-size="10.00" fill="grey"> +trail_points</text>
</g>
<!-- Node5 -->
<g id="Node000005" class="node">
<title>Node5</title>
<g id="a_Node000005"><a xlink:title=" ">
<polygon fill="#fff0f0" stroke="none" points="107,-1047 29.25,-1047 29.25,-999.5 107,-999.5 107,-1047"/>
<text text-anchor="start" x="33.25" y="-1033.5" font-family="Helvetica,sans-Serif" font-size="10.00">std::vector&lt; T &gt;</text>
<text text-anchor="start" x="66.62" y="-1019" font-family="Helvetica,sans-Serif" font-size="10.00"> </text>
<text text-anchor="start" x="66.62" y="-1004.5" font-family="Helvetica,sans-Serif" font-size="10.00"> </text>
<polygon fill="red" stroke="red" points="29.25,-1030.5 29.25,-1030.5 107,-1030.5 107,-1030.5 29.25,-1030.5"/>
<polygon fill="red" stroke="red" points="29.25,-1016 29.25,-1016 107,-1016 107,-1016 29.25,-1016"/>
<polygon fill="none" stroke="red" points="29.25,-999.5 29.25,-1047 107,-1047 107,-999.5 29.25,-999.5"/>
</a>
</g>
</g>
<!-- Node5&#45;&gt;Node2 -->
<g id="edge5_Node000002_Node000005" class="edge">
<title>Node5&#45;&gt;Node2</title>
<g id="a_edge5_Node000002_Node000005"><a xlink:title=" ">
<path fill="none" stroke="orange" d="M62.15,-988.72C57.62,-961.54 51.78,-922.19 49.38,-887.5 40.87,-764.7 68.7,-618.89 81.75,-559.13"/>
<polygon fill="orange" stroke="orange" points="58.67,-989.17 63.8,-998.44 65.57,-988 58.67,-989.17"/>
</a>
</g>
<text text-anchor="start" x="49.38" y="-878" font-family="Helvetica,sans-Serif" font-size="10.00" fill="grey"> &lt; PathMarkersManager</text>
<text text-anchor="middle" x="102.25" y="-867.5" font-family="Helvetica,sans-Serif" font-size="10.00" fill="grey">::PathMarker &gt;</text>
</g>
<!-- Node5&#45;&gt;Node4 -->
<g id="edge4_Node000004_Node000005" class="edge">
<title>Node5&#45;&gt;Node4</title>
<g id="a_edge4_Node000004_Node000005"><a xlink:title=" ">
<path fill="none" stroke="orange" d="M97.9,-991.48C110.16,-978.8 124.1,-964.39 135.38,-952.73"/>
<polygon fill="orange" stroke="orange" points="95.61,-988.8 91.18,-998.42 100.65,-993.67 95.61,-988.8"/>
</a>
</g>
<text text-anchor="middle" x="143.79" y="-972" font-family="Helvetica,sans-Serif" font-size="10.00" fill="grey"> &lt; QPointF &gt;</text>
</g>
</g>
</svg>

<g id="navigator" transform="translate(0 0)" fill="#404254">
  <rect fill="#f2f5e9" fill-opacity="0.5" stroke="#606060" stroke-width=".5" x="0" y="0" width="60" height="60"/>
  <use id="zoomplus" xlink:href="#zoomPlus" x="17" y="9" onmousedown="handleZoom(evt,'in')"/>
  <use id="zoomminus" xlink:href="#zoomMin" x="42" y="9" onmousedown="handleZoom(evt,'out')"/>
  <use id="reset" xlink:href="#resetDef" x="30" y="36" onmousedown="handleReset()"/>
   <use id="arrowup" xlink:href="#arrowUp" x="0" y="0" onmousedown="handlePan(0,-1)"/>
  <use id="arrowright" xlink:href="#arrowRight" x="0" y="0" onmousedown="handlePan(1,0)"/>
  <use id="arrowdown" xlink:href="#arrowDown" x="0" y="0" onmousedown="handlePan(0,1)"/>
  <use id="arrowleft" xlink:href="#arrowLeft" x="0" y="0" onmousedown="handlePan(-1,0)"/>
</g>
<svg viewBox="0 0 15 15" width="100%" height="30px" preserveAspectRatio="xMaxYMin meet">
 <g id="arrow_out" transform="scale(0.3 0.3)">
  <a xlink:href="classPathMarkersManager__coll__graph_org.svg" target="_base">
   <rect id="button" ry="5" rx="5" y="6" x="6" height="38" width="38"
        fill="#f2f5e9" fill-opacity="0.5" stroke="#606060" stroke-width="1.0"/>
   <path id="arrow"
     d="M 11.500037,31.436501 C 11.940474,20.09759 22.043105,11.32322 32.158766,21.979434 L 37.068811,17.246167 C 37.068811,17.246167 37.088388,32 37.088388,32 L 22.160133,31.978069 C 22.160133,31.978069 26.997745,27.140456 26.997745,27.140456 C 18.528582,18.264221 13.291696,25.230495 11.500037,31.436501 z"
     style="fill:#404040;"/>
  </a>
 </g>
</svg>

<style type='text/css'>
<![CDATA[
[data-mouse-over-selected='false'] { opacity: 0.7; }
[data-mouse-over-selected='true']  { opacity: 1.0; }
]]>
</style>
<script type="application/ecmascript"><![CDATA[
document.addEventListener('DOMContentLoaded', (event) => {
  highlightEdges();
  highlightAdjacentNodes();
});
]]></script>
</svg>
