<?xml version="1.0" encoding="UTF-8" standalone="no"?>
<!DOCTYPE svg PUBLIC "-//W3C//DTD SVG 1.1//EN"
 "http://www.w3.org/Graphics/SVG/1.1/DTD/svg11.dtd">
<!-- Generated by graphviz version 12.2.1 (0)
 -->
<!-- Title: BlobRenderer::RenderBlob Pages: 1 -->
<svg width="496pt" height="143pt"
 viewBox="0.00 0.00 496.25 142.75" xmlns="http://www.w3.org/2000/svg" xmlns:xlink="http://www.w3.org/1999/xlink">

<svg id="main" version="1.1" xmlns="http://www.w3.org/2000/svg" xmlns:xlink="http://www.w3.org/1999/xlink" xml:space="preserve">

<style type="text/css"><![CDATA[
.node, .edge {opacity: 0.7;}
.node.selected, .edge.selected {opacity: 1;}
.edge:hover path { stroke: red; }
.edge:hover polygon { stroke: red; fill: red; }
]]></style>
<script type="application/ecmascript" xlink:href="svg.min.js"/>
<svg id="graph" class="graph">
<g id="graph0" class="graph" transform="scale(1 1) rotate(0) translate(4 138.75)">
<title>BlobRenderer::RenderBlob</title>
<!-- Node1 -->
<g id="Node000001" class="node">
<title>Node1</title>
<g id="a_Node000001"><a xlink:title="Renders the blob shape itself (filling, border, glow).">
<polygon fill="#999999" stroke="#666666" points="130.75,-78.75 0,-78.75 0,-60.25 130.75,-60.25 130.75,-78.75"/>
<text text-anchor="middle" x="65.38" y="-65.25" font-family="Helvetica,sans-Serif" font-size="10.00">BlobRenderer::RenderBlob</text>
</a>
</g>
</g>
<!-- Node2 -->
<g id="Node000002" class="node">
<title>Node2</title>
<g id="a_Node000002"><a xlink:href="classBlobPath.html#a310778241d88d50a019a16d566cb3336" target="_top" xlink:title="Creates a closed, smooth QPainterPath using Catmull&#45;Rom&#45;like spline interpolation.">
<polygon fill="white" stroke="#666666" points="308,-134.75 177.25,-134.75 177.25,-116.25 308,-116.25 308,-134.75"/>
<text text-anchor="middle" x="242.62" y="-121.25" font-family="Helvetica,sans-Serif" font-size="10.00">BlobPath::CreateBlobPath</text>
</a>
</g>
</g>
<!-- Node1&#45;&gt;Node2 -->
<g id="edge1_Node000001_Node000002" class="edge">
<title>Node1&#45;&gt;Node2</title>
<g id="a_edge1_Node000001_Node000002"><a xlink:title=" ">
<path fill="none" stroke="#63b8ff" d="M90.47,-79.19C110.65,-87.11 140.32,-98.3 166.75,-106.5 173.98,-108.74 181.66,-110.92 189.24,-112.95"/>
<polygon fill="#63b8ff" stroke="#63b8ff" points="188.19,-116.29 198.75,-115.43 189.96,-109.52 188.19,-116.29"/>
</a>
</g>
</g>
<!-- Node4 -->
<g id="Node000004" class="node">
<title>Node4</title>
<g id="a_Node000004"><a xlink:href="classBlobRenderer.html#a6b58d545b9a731bab5d96e43af3bdedc" target="_top" xlink:title="Draws the border outline of the blob. Includes a main border and a thinner, lighter inner line for a ...">
<polygon fill="white" stroke="#666666" points="308.75,-97.75 176.5,-97.75 176.5,-79.25 308.75,-79.25 308.75,-97.75"/>
<text text-anchor="middle" x="242.62" y="-84.25" font-family="Helvetica,sans-Serif" font-size="10.00">BlobRenderer::DrawBorder</text>
</a>
</g>
</g>
<!-- Node1&#45;&gt;Node4 -->
<g id="edge3_Node000001_Node000004" class="edge">
<title>Node1&#45;&gt;Node4</title>
<g id="a_edge3_Node000001_Node000004"><a xlink:title=" ">
<path fill="none" stroke="#63b8ff" d="M131.13,-76.52C142.18,-77.72 153.74,-78.97 165.05,-80.2"/>
<polygon fill="#63b8ff" stroke="#63b8ff" points="164.43,-83.65 174.75,-81.25 165.19,-76.69 164.43,-83.65"/>
</a>
</g>
</g>
<!-- Node5 -->
<g id="Node000005" class="node">
<title>Node5</title>
<g id="a_Node000005"><a xlink:href="classBlobRenderer.html#a530eed21e0447e1bcc29483922bdcad9" target="_top" xlink:title="Draws the filling inside the blob path using a radial gradient. The gradient fades from a lighter,...">
<polygon fill="white" stroke="#666666" points="307.25,-60.75 178,-60.75 178,-42.25 307.25,-42.25 307.25,-60.75"/>
<text text-anchor="middle" x="242.62" y="-47.25" font-family="Helvetica,sans-Serif" font-size="10.00">BlobRenderer::DrawFilling</text>
</a>
</g>
</g>
<!-- Node1&#45;&gt;Node5 -->
<g id="edge4_Node000001_Node000005" class="edge">
<title>Node1&#45;&gt;Node5</title>
<g id="a_edge4_Node000001_Node000005"><a xlink:title=" ">
<path fill="none" stroke="#63b8ff" d="M131.13,-62.85C142.66,-61.66 154.76,-60.42 166.54,-59.21"/>
<polygon fill="#63b8ff" stroke="#63b8ff" points="166.62,-62.72 176.21,-58.22 165.91,-55.76 166.62,-62.72"/>
</a>
</g>
</g>
<!-- Node6 -->
<g id="Node000006" class="node">
<title>Node6</title>
<g id="a_Node000006"><a xlink:href="classBlobRenderer.html#ac6e7cd4835ad3ede2f822982470dcfda" target="_top" xlink:title="Draws the glow effect around the blob path. Uses internal caching (glow_buffer_) to optimize renderin...">
<polygon fill="white" stroke="#666666" points="318.5,-23.75 166.75,-23.75 166.75,-5.25 318.5,-5.25 318.5,-23.75"/>
<text text-anchor="middle" x="242.62" y="-10.25" font-family="Helvetica,sans-Serif" font-size="10.00">BlobRenderer::DrawGlowEffect</text>
</a>
</g>
</g>
<!-- Node1&#45;&gt;Node6 -->
<g id="edge5_Node000001_Node000006" class="edge">
<title>Node1&#45;&gt;Node6</title>
<g id="a_edge5_Node000001_Node000006"><a xlink:title=" ">
<path fill="none" stroke="#63b8ff" d="M91.31,-59.8C111.49,-52.14 140.72,-41.45 166.75,-33.5 173.99,-31.29 181.67,-29.13 189.26,-27.11"/>
<polygon fill="#63b8ff" stroke="#63b8ff" points="189.97,-30.54 198.77,-24.63 188.21,-23.76 189.97,-30.54"/>
</a>
</g>
</g>
<!-- Node3 -->
<g id="Node000003" class="node">
<title>Node3</title>
<g id="a_Node000003"><a xlink:href="classBlobMath.html#abef304a2fdf006c9238fe4a265951637" target="_top" xlink:title="Checks if a QPointF contains valid coordinate values. Verifies that coordinates are not NaN,...">
<polygon fill="white" stroke="#666666" points="478.88,-134.75 363.88,-134.75 363.88,-116.25 478.88,-116.25 478.88,-134.75"/>
<text text-anchor="middle" x="421.38" y="-121.25" font-family="Helvetica,sans-Serif" font-size="10.00">BlobMath::IsValidPoint</text>
</a>
</g>
</g>
<!-- Node2&#45;&gt;Node3 -->
<g id="edge2_Node000002_Node000003" class="edge">
<title>Node2&#45;&gt;Node3</title>
<g id="a_edge2_Node000002_Node000003"><a xlink:title=" ">
<path fill="none" stroke="#63b8ff" d="M308.44,-125.5C322.66,-125.5 337.77,-125.5 352.13,-125.5"/>
<polygon fill="#63b8ff" stroke="#63b8ff" points="351.94,-129 361.94,-125.5 351.94,-122 351.94,-129"/>
</a>
</g>
</g>
<!-- Node7 -->
<g id="Node000007" class="node">
<title>Node7</title>
<g id="a_Node000007"><a xlink:href="classBlobRenderer.html#a0572f5868bbb75fb82e403609307a793" target="_top" xlink:title="Renders the multi&#45;layered glow effect using QPainter drawPath operations with varying pen widths and ...">
<polygon fill="white" stroke="#666666" points="488.25,-29 354.5,-29 354.5,0 488.25,0 488.25,-29"/>
<text text-anchor="start" x="362.5" y="-15.5" font-family="Helvetica,sans-Serif" font-size="10.00">BlobRenderer::RenderGlow</text>
<text text-anchor="middle" x="421.38" y="-5" font-family="Helvetica,sans-Serif" font-size="10.00">Effect</text>
</a>
</g>
</g>
<!-- Node6&#45;&gt;Node7 -->
<g id="edge6_Node000006_Node000007" class="edge">
<title>Node6&#45;&gt;Node7</title>
<g id="a_edge6_Node000006_Node000007"><a xlink:title=" ">
<path fill="none" stroke="#63b8ff" d="M318.84,-14.5C326.73,-14.5 334.76,-14.5 342.68,-14.5"/>
<polygon fill="#63b8ff" stroke="#63b8ff" points="342.66,-18 352.66,-14.5 342.66,-11 342.66,-18"/>
</a>
</g>
</g>
</g>
</svg>
</svg>

<style type='text/css'>
<![CDATA[
[data-mouse-over-selected='false'] { opacity: 0.7; }
[data-mouse-over-selected='true']  { opacity: 1.0; }
]]>
</style>
<script type="application/ecmascript"><![CDATA[
document.addEventListener('DOMContentLoaded', (event) => {
  highlightEdges();
  highlightAdjacentNodes();
});
]]></script>
</svg>
