<?xml version="1.0" encoding="UTF-8" standalone="no"?>
<!DOCTYPE svg PUBLIC "-//W3C//DTD SVG 1.1//EN"
 "http://www.w3.org/Graphics/SVG/1.1/DTD/svg11.dtd">
<!-- Generated by graphviz version 12.2.1 (0)
 -->
<!-- Title: AnimatedDialog Pages: 1 -->
<svg width="251pt" height="674pt"
 viewBox="0.00 0.00 250.75 673.50" xmlns="http://www.w3.org/2000/svg" xmlns:xlink="http://www.w3.org/1999/xlink">
<g id="graph0" class="graph" transform="scale(1 1) rotate(0) translate(4 669.5)">
<title>AnimatedDialog</title>
<!-- Node1 -->
<g id="Node000001" class="node">
<title>Node1</title>
<g id="a_Node000001"><a xlink:title="A base class for QDialogs that adds animated transitions for showing and closing.">
<polygon fill="#999999" stroke="none" points="153.75,-312 0,-312 0,0 153.75,0 153.75,-312"/>
<text text-anchor="start" x="42.38" y="-298.5" font-family="Helvetica,sans-Serif" font-size="10.00">AnimatedDialog</text>
<text text-anchor="start" x="4.38" y="-284" font-family="Helvetica,sans-Serif" font-size="10.00">#</text>
<text text-anchor="start" x="14" y="-284" font-family="Helvetica,sans-Serif" font-size="10.00">double corner_glow</text>
<text text-anchor="start" x="14" y="-273.5" font-family="Helvetica,sans-Serif" font-size="10.00">_progress_</text>
<text text-anchor="start" x="4.38" y="-259" font-family="Helvetica,sans-Serif" font-size="10.00">#</text>
<text text-anchor="start" x="14" y="-259" font-family="Helvetica,sans-Serif" font-size="10.00">double digitalization</text>
<text text-anchor="start" x="14" y="-248.5" font-family="Helvetica,sans-Serif" font-size="10.00">_progress_</text>
<text text-anchor="start" x="5.5" y="-234" font-family="Helvetica,sans-Serif" font-size="10.00">&#45;</text>
<text text-anchor="start" x="14" y="-234" font-family="Helvetica,sans-Serif" font-size="10.00">AnimationType animation</text>
<text text-anchor="start" x="14" y="-223.5" font-family="Helvetica,sans-Serif" font-size="10.00">_type_</text>
<text text-anchor="start" x="5.5" y="-209" font-family="Helvetica,sans-Serif" font-size="10.00">&#45;</text>
<text text-anchor="start" x="14" y="-209" font-family="Helvetica,sans-Serif" font-size="10.00">bool closing_</text>
<text text-anchor="start" x="5.5" y="-194.5" font-family="Helvetica,sans-Serif" font-size="10.00">&#45;</text>
<text text-anchor="start" x="14" y="-194.5" font-family="Helvetica,sans-Serif" font-size="10.00">int duration_</text>
<text text-anchor="start" x="4" y="-180" font-family="Helvetica,sans-Serif" font-size="10.00">+</text>
<text text-anchor="start" x="14" y="-180" font-family="Helvetica,sans-Serif" font-size="10.00">AnimatedDialog(QWidget</text>
<text text-anchor="start" x="14" y="-169.5" font-family="Helvetica,sans-Serif" font-size="10.00"> *parent=nullptr, AnimationType</text>
<text text-anchor="start" x="14" y="-159" font-family="Helvetica,sans-Serif" font-size="10.00"> type=kSlideFromBottom)</text>
<text text-anchor="start" x="4" y="-144.5" font-family="Helvetica,sans-Serif" font-size="10.00">+</text>
<text text-anchor="start" x="14" y="-144.5" font-family="Helvetica,sans-Serif" font-size="10.00">int GetAnimationDuration</text>
<text text-anchor="start" x="14" y="-134" font-family="Helvetica,sans-Serif" font-size="10.00">() const</text>
<text text-anchor="start" x="4" y="-119.5" font-family="Helvetica,sans-Serif" font-size="10.00">+</text>
<text text-anchor="start" x="14" y="-119.5" font-family="Helvetica,sans-Serif" font-size="10.00">void SetAnimationDuration</text>
<text text-anchor="start" x="14" y="-109" font-family="Helvetica,sans-Serif" font-size="10.00">(const int duration)</text>
<text text-anchor="start" x="4" y="-94.5" font-family="Helvetica,sans-Serif" font-size="10.00">+</text>
<text text-anchor="start" x="14" y="-94.5" font-family="Helvetica,sans-Serif" font-size="10.00">~AnimatedDialog()</text>
<text text-anchor="start" x="14" y="-84" font-family="Helvetica,sans-Serif" font-size="10.00"> override</text>
<text text-anchor="start" x="4.38" y="-69.5" font-family="Helvetica,sans-Serif" font-size="10.00">#</text>
<text text-anchor="start" x="14" y="-69.5" font-family="Helvetica,sans-Serif" font-size="10.00">void closeEvent(QCloseEvent</text>
<text text-anchor="start" x="14" y="-59" font-family="Helvetica,sans-Serif" font-size="10.00"> *event) override</text>
<text text-anchor="start" x="4.38" y="-44.5" font-family="Helvetica,sans-Serif" font-size="10.00">#</text>
<text text-anchor="start" x="14" y="-44.5" font-family="Helvetica,sans-Serif" font-size="10.00">void showEvent(QShowEvent</text>
<text text-anchor="start" x="14" y="-34" font-family="Helvetica,sans-Serif" font-size="10.00"> *event) override</text>
<text text-anchor="start" x="5.5" y="-19.5" font-family="Helvetica,sans-Serif" font-size="10.00">&#45;</text>
<text text-anchor="start" x="14" y="-19.5" font-family="Helvetica,sans-Serif" font-size="10.00">void AnimateClose()</text>
<text text-anchor="start" x="5.5" y="-5" font-family="Helvetica,sans-Serif" font-size="10.00">&#45;</text>
<text text-anchor="start" x="14" y="-5" font-family="Helvetica,sans-Serif" font-size="10.00">void AnimateShow()</text>
<polygon fill="#666666" stroke="#666666" points="0,-295.5 0,-295.5 153.75,-295.5 153.75,-295.5 0,-295.5"/>
<polygon fill="#666666" stroke="#666666" points="0,-191.5 0,-191.5 12,-191.5 12,-191.5 0,-191.5"/>
<polygon fill="#666666" stroke="#666666" points="12,-191.5 12,-191.5 153.75,-191.5 153.75,-191.5 12,-191.5"/>
<polygon fill="none" stroke="#666666" points="0,0 0,-312 153.75,-312 153.75,0 0,0"/>
</a>
</g>
</g>
<!-- Node2 -->
<g id="Node000002" class="node">
<title>Node2</title>
<g id="a_Node000002"><a xlink:title=" ">
<polygon fill="white" stroke="none" points="82.5,-493.5 39.25,-493.5 39.25,-446 82.5,-446 82.5,-493.5"/>
<text text-anchor="start" x="43.25" y="-480" font-family="Helvetica,sans-Serif" font-size="10.00">QDialog</text>
<text text-anchor="start" x="59.38" y="-465.5" font-family="Helvetica,sans-Serif" font-size="10.00"> </text>
<text text-anchor="start" x="59.38" y="-451" font-family="Helvetica,sans-Serif" font-size="10.00"> </text>
<polygon fill="#666666" stroke="#666666" points="39.25,-477 39.25,-477 82.5,-477 82.5,-477 39.25,-477"/>
<polygon fill="#666666" stroke="#666666" points="39.25,-462.5 39.25,-462.5 82.5,-462.5 82.5,-462.5 39.25,-462.5"/>
<polygon fill="none" stroke="#666666" points="39.25,-446 39.25,-493.5 82.5,-493.5 82.5,-446 39.25,-446"/>
</a>
</g>
</g>
<!-- Node2&#45;&gt;Node1 -->
<g id="edge1_Node000001_Node000002" class="edge">
<title>Node2&#45;&gt;Node1</title>
<g id="a_edge1_Node000001_Node000002"><a xlink:title=" ">
<path fill="none" stroke="#63b8ff" d="M62.61,-434.94C64.16,-404.7 66.55,-358.11 68.94,-311.65"/>
<polygon fill="none" stroke="#63b8ff" points="59.13,-434.4 62.12,-444.57 66.12,-434.76 59.13,-434.4"/>
</a>
</g>
</g>
<!-- Node3 -->
<g id="Node000003" class="node">
<title>Node3</title>
<g id="a_Node000003"><a xlink:href="classOverlayWidget.html" target="_top" xlink:title="A semi&#45;transparent overlay widget used to dim the background content.">
<polygon fill="white" stroke="none" points="242.75,-581 101,-581 101,-358.5 242.75,-358.5 242.75,-581"/>
<text text-anchor="start" x="140" y="-567.5" font-family="Helvetica,sans-Serif" font-size="10.00">OverlayWidget</text>
<text text-anchor="start" x="105" y="-553" font-family="Helvetica,sans-Serif" font-size="10.00">+</text>
<text text-anchor="start" x="115" y="-553" font-family="Helvetica,sans-Serif" font-size="10.00">qreal opacity</text>
<text text-anchor="start" x="106.5" y="-538.5" font-family="Helvetica,sans-Serif" font-size="10.00">&#45;</text>
<text text-anchor="start" x="115" y="-538.5" font-family="Helvetica,sans-Serif" font-size="10.00">QRect exclude_rect_</text>
<text text-anchor="start" x="106.5" y="-524" font-family="Helvetica,sans-Serif" font-size="10.00">&#45;</text>
<text text-anchor="start" x="115" y="-524" font-family="Helvetica,sans-Serif" font-size="10.00">qreal opacity_</text>
<text text-anchor="start" x="105" y="-509.5" font-family="Helvetica,sans-Serif" font-size="10.00">+</text>
<text text-anchor="start" x="115" y="-509.5" font-family="Helvetica,sans-Serif" font-size="10.00">qreal GetOpacity()</text>
<text text-anchor="start" x="115" y="-499" font-family="Helvetica,sans-Serif" font-size="10.00"> const</text>
<text text-anchor="start" x="105" y="-484.5" font-family="Helvetica,sans-Serif" font-size="10.00">+</text>
<text text-anchor="start" x="115" y="-484.5" font-family="Helvetica,sans-Serif" font-size="10.00">OverlayWidget(QWidget</text>
<text text-anchor="start" x="115" y="-474" font-family="Helvetica,sans-Serif" font-size="10.00"> *parent=nullptr)</text>
<text text-anchor="start" x="105" y="-459.5" font-family="Helvetica,sans-Serif" font-size="10.00">+</text>
<text text-anchor="start" x="115" y="-459.5" font-family="Helvetica,sans-Serif" font-size="10.00">void SetOpacity(qreal</text>
<text text-anchor="start" x="115" y="-449" font-family="Helvetica,sans-Serif" font-size="10.00"> opacity)</text>
<text text-anchor="start" x="105" y="-434.5" font-family="Helvetica,sans-Serif" font-size="10.00">+</text>
<text text-anchor="start" x="115" y="-434.5" font-family="Helvetica,sans-Serif" font-size="10.00">void UpdateGeometry</text>
<text text-anchor="start" x="115" y="-424" font-family="Helvetica,sans-Serif" font-size="10.00">(const QRect &amp;rect)</text>
<text text-anchor="start" x="105.38" y="-409.5" font-family="Helvetica,sans-Serif" font-size="10.00">#</text>
<text text-anchor="start" x="115" y="-409.5" font-family="Helvetica,sans-Serif" font-size="10.00">bool eventFilter(QObject</text>
<text text-anchor="start" x="115" y="-399" font-family="Helvetica,sans-Serif" font-size="10.00"> *watched, QEvent *event)</text>
<text text-anchor="start" x="115" y="-388.5" font-family="Helvetica,sans-Serif" font-size="10.00"> override</text>
<text text-anchor="start" x="105.38" y="-374" font-family="Helvetica,sans-Serif" font-size="10.00">#</text>
<text text-anchor="start" x="115" y="-374" font-family="Helvetica,sans-Serif" font-size="10.00">void paintEvent(QPaintEvent</text>
<text text-anchor="start" x="115" y="-363.5" font-family="Helvetica,sans-Serif" font-size="10.00"> *event) override</text>
<polygon fill="#666666" stroke="#666666" points="101,-564.5 101,-564.5 242.75,-564.5 242.75,-564.5 101,-564.5"/>
<polygon fill="#666666" stroke="#666666" points="101,-521 101,-521 113,-521 113,-521 101,-521"/>
<polygon fill="#666666" stroke="#666666" points="113,-521 113,-521 242.75,-521 242.75,-521 113,-521"/>
<polygon fill="none" stroke="#666666" points="101,-358.5 101,-581 242.75,-581 242.75,-358.5 101,-358.5"/>
</a>
</g>
</g>
<!-- Node3&#45;&gt;Node1 -->
<g id="edge2_Node000001_Node000003" class="edge">
<title>Node3&#45;&gt;Node1</title>
<g id="a_edge2_Node000001_Node000003"><a xlink:title=" ">
<path fill="none" stroke="#63b8ff" d="M138.38,-358.84C134.93,-347.52 131.37,-335.84 127.79,-324.08"/>
<polygon fill="none" stroke="#63b8ff" points="127.81,-324.15 122.24,-319.58 124.31,-312.67 129.89,-317.25 127.81,-324.15"/>
</a>
</g>
<text text-anchor="middle" x="151.06" y="-331" font-family="Helvetica,sans-Serif" font-size="10.00" fill="grey"> &#45;overlay_</text>
</g>
<!-- Node4 -->
<g id="Node000004" class="node">
<title>Node4</title>
<g id="a_Node000004"><a xlink:title=" ">
<polygon fill="white" stroke="none" points="195,-665.5 148.75,-665.5 148.75,-618 195,-618 195,-665.5"/>
<text text-anchor="start" x="152.75" y="-652" font-family="Helvetica,sans-Serif" font-size="10.00">QWidget</text>
<text text-anchor="start" x="170.38" y="-637.5" font-family="Helvetica,sans-Serif" font-size="10.00"> </text>
<text text-anchor="start" x="170.38" y="-623" font-family="Helvetica,sans-Serif" font-size="10.00"> </text>
<polygon fill="#666666" stroke="#666666" points="148.75,-649 148.75,-649 195,-649 195,-649 148.75,-649"/>
<polygon fill="#666666" stroke="#666666" points="148.75,-634.5 148.75,-634.5 195,-634.5 195,-634.5 148.75,-634.5"/>
<polygon fill="none" stroke="#666666" points="148.75,-618 148.75,-665.5 195,-665.5 195,-618 148.75,-618"/>
</a>
</g>
</g>
<!-- Node4&#45;&gt;Node3 -->
<g id="edge3_Node000003_Node000004" class="edge">
<title>Node4&#45;&gt;Node3</title>
<g id="a_edge3_Node000003_Node000004"><a xlink:title=" ">
<path fill="none" stroke="#63b8ff" d="M171.88,-606.94C171.88,-599.02 171.88,-590.15 171.88,-580.84"/>
<polygon fill="none" stroke="#63b8ff" points="168.38,-606.66 171.88,-616.66 175.38,-606.66 168.38,-606.66"/>
</a>
</g>
</g>
</g>
</svg>
