<?xml version="1.0" encoding="UTF-8" standalone="no"?>
<!DOCTYPE svg PUBLIC "-//W3C//DTD SVG 1.1//EN"
 "http://www.w3.org/Graphics/SVG/1.1/DTD/svg11.dtd">
<!-- Generated by graphviz version 12.2.1 (0)
 -->
<!-- Title: ShortcutsSettingsWidget::LoadSettings Pages: 1 -->
<svg width="629pt" height="59pt"
 viewBox="0.00 0.00 628.50 59.00" xmlns="http://www.w3.org/2000/svg" xmlns:xlink="http://www.w3.org/1999/xlink">
<g id="graph0" class="graph" transform="scale(1 1) rotate(0) translate(4 55)">
<title>ShortcutsSettingsWidget::LoadSettings</title>
<!-- Node1 -->
<g id="Node000001" class="node">
<title>Node1</title>
<g id="a_Node000001"><a xlink:title="Loads the current shortcut settings from WavelengthConfig and updates the UI elements (QKeySequenceEd...">
<polygon fill="#999999" stroke="#666666" points="620.5,-29 495,-29 495,0 620.5,0 620.5,-29"/>
<text text-anchor="start" x="503" y="-15.5" font-family="Helvetica,sans-Serif" font-size="10.00">ShortcutsSettingsWidget</text>
<text text-anchor="middle" x="557.75" y="-5" font-family="Helvetica,sans-Serif" font-size="10.00">::LoadSettings</text>
</a>
</g>
</g>
<!-- Node2 -->
<g id="Node000002" class="node">
<title>Node2</title>
<g id="a_Node000002"><a xlink:href="classShortcutsSettingsWidget.html#a509579bc746ee811ae143dc61a4bc338" target="_top" xlink:title="Restores all keyboard shortcuts to their default values defined in WavelengthConfig....">
<polygon fill="white" stroke="#666666" points="459,-51 329,-51 329,-22 459,-22 459,-51"/>
<text text-anchor="start" x="337" y="-37.5" font-family="Helvetica,sans-Serif" font-size="10.00">ShortcutsSettingsWidget</text>
<text text-anchor="middle" x="394" y="-27" font-family="Helvetica,sans-Serif" font-size="10.00">::RestoreDefaultShortcuts</text>
</a>
</g>
</g>
<!-- Node1&#45;&gt;Node2 -->
<g id="edge1_Node000001_Node000002" class="edge">
<title>Node1&#45;&gt;Node2</title>
<g id="a_edge1_Node000001_Node000002"><a xlink:title=" ">
<path fill="none" stroke="#63b8ff" d="M483.41,-24.47C475.37,-25.57 467.24,-26.67 459.32,-27.75"/>
<polygon fill="#63b8ff" stroke="#63b8ff" points="483.74,-27.96 493.18,-23.15 482.8,-21.03 483.74,-27.96"/>
</a>
</g>
</g>
<!-- Node4 -->
<g id="Node000004" class="node">
<title>Node4</title>
<g id="a_Node000004"><a xlink:href="classShortcutsSettingsWidget.html#a8efdd7e928247903bf7212cd6e05ca21" target="_top" xlink:title="Constructs the ShortcutsSettingsWidget. Initializes the UI, loads current shortcut settings from Wave...">
<polygon fill="white" stroke="#666666" points="131.5,-29 0,-29 0,0 131.5,0 131.5,-29"/>
<text text-anchor="start" x="8" y="-15.5" font-family="Helvetica,sans-Serif" font-size="10.00">ShortcutsSettingsWidget</text>
<text text-anchor="middle" x="65.75" y="-5" font-family="Helvetica,sans-Serif" font-size="10.00">::ShortcutsSettingsWidget</text>
</a>
</g>
</g>
<!-- Node1&#45;&gt;Node4 -->
<g id="edge4_Node000001_Node000004" class="edge">
<title>Node1&#45;&gt;Node4</title>
<g id="a_edge4_Node000001_Node000004"><a xlink:title=" ">
<path fill="none" stroke="#63b8ff" d="M483.21,-13.67C475.04,-13.6 466.84,-13.54 459,-13.5 329.45,-12.84 297.05,-12.86 167.5,-13.5 155.96,-13.56 143.67,-13.65 131.79,-13.76"/>
<polygon fill="#63b8ff" stroke="#63b8ff" points="483.15,-17.17 493.18,-13.76 483.22,-10.17 483.15,-17.17"/>
</a>
</g>
</g>
<!-- Node3 -->
<g id="Node000003" class="node">
<title>Node3</title>
<g id="a_Node000003"><a xlink:href="classShortcutsSettingsWidget.html#a03e62190f2d0499e7f5d0ab6c1d79c16" target="_top" xlink:title="Creates and arranges all the UI elements (labels, input fields, layouts, button) for the widget....">
<polygon fill="white" stroke="#666666" points="293,-51 167.5,-51 167.5,-22 293,-22 293,-51"/>
<text text-anchor="start" x="175.5" y="-37.5" font-family="Helvetica,sans-Serif" font-size="10.00">ShortcutsSettingsWidget</text>
<text text-anchor="middle" x="230.25" y="-27" font-family="Helvetica,sans-Serif" font-size="10.00">::SetupUi</text>
</a>
</g>
</g>
<!-- Node2&#45;&gt;Node3 -->
<g id="edge2_Node000002_Node000003" class="edge">
<title>Node2&#45;&gt;Node3</title>
<g id="a_edge2_Node000002_Node000003"><a xlink:title=" ">
<path fill="none" stroke="#63b8ff" d="M317.32,-36.5C309.28,-36.5 301.17,-36.5 293.31,-36.5"/>
<polygon fill="#63b8ff" stroke="#63b8ff" points="317.09,-40 327.09,-36.5 317.09,-33 317.09,-40"/>
</a>
</g>
</g>
<!-- Node3&#45;&gt;Node4 -->
<g id="edge3_Node000003_Node000004" class="edge">
<title>Node3&#45;&gt;Node4</title>
<g id="a_edge3_Node000003_Node000004"><a xlink:title=" ">
<path fill="none" stroke="#63b8ff" d="M156.1,-26.6C148.06,-25.51 139.92,-24.41 131.99,-23.33"/>
<polygon fill="#63b8ff" stroke="#63b8ff" points="155.47,-30.04 165.85,-27.92 156.41,-23.11 155.47,-30.04"/>
</a>
</g>
</g>
</g>
</svg>
