<?xml version="1.0" encoding="UTF-8" standalone="no"?>
<!DOCTYPE svg PUBLIC "-//W3C//DTD SVG 1.1//EN"
 "http://www.w3.org/Graphics/SVG/1.1/DTD/svg11.dtd">
<!-- Generated by graphviz version 12.2.1 (0)
 -->
<!-- Title: ChatView::OnReadyReadInput Pages: 1 -->
<!--zoomable 139 -->

<svg id="main" version="1.1" xmlns="http://www.w3.org/2000/svg" xmlns:xlink="http://www.w3.org/1999/xlink" xml:space="preserve" onload="init(evt)">

<style type="text/css"><![CDATA[
.node, .edge {opacity: 0.7;}
.node.selected, .edge.selected {opacity: 1;}
.edge:hover path { stroke: red; }
.edge:hover polygon { stroke: red; fill: red; }
]]></style>

<defs>
  <circle id="rim" cx="0" cy="0" r="7"/>
  <circle id="rim2" cx="0" cy="0" r="3.5"/>
  <g id="zoomPlus">
    <use xlink:href="#rim" fill="#404040"><set attributeName="fill" to="#808080" begin="zoomplus.mouseover" end="zoomplus.mouseout"/></use>
    <path d="M-4,0h8M0,-4v8" fill="none" stroke="white" stroke-width="1.5" pointer-events="none"/>
  </g>
  <g id="zoomMin">
    <use xlink:href="#rim" fill="#404040"><set attributeName="fill" to="#808080" begin="zoomminus.mouseover" end="zoomminus.mouseout"/></use>
    <path d="M-4,0h8" fill="none" stroke="white" stroke-width="1.5" pointer-events="none"/>
  </g>
  <g id="arrowUp" transform="translate(30 24)">
    <use xlink:href="#rim"/>
    <path pointer-events="none" fill="none" stroke="white" stroke-width="1.5" d="M0,-3.0v7 M-2.5,-0.5L0,-3.0L2.5,-0.5"/>
  </g>
  <g id="arrowRight" transform="rotate(90) translate(36 -43)">
    <use xlink:href="#rim"/>
    <path pointer-events="none" fill="none" stroke="white" stroke-width="1.5" d="M0,-3.0v7 M-2.5,-0.5L0,-3.0L2.5,-0.5"/>
  </g>
  <g id="arrowDown" transform="rotate(180) translate(-30 -48)">
    <use xlink:href="#rim"/>
    <path pointer-events="none" fill="none" stroke="white" stroke-width="1.5" d="M0,-3.0v7 M-2.5,-0.5L0,-3.0L2.5,-0.5"/>
  </g>
  <g id="arrowLeft" transform="rotate(270) translate(-36 17)">
    <use xlink:href="#rim"/>
    <path pointer-events="none" fill="none" stroke="white" stroke-width="1.5" d="M0,-3.0v7 M-2.5,-0.5L0,-3.0L2.5,-0.5"/>
  </g>
  <g id="resetDef">
    <use xlink:href="#rim2" fill="#404040"><set attributeName="fill" to="#808080" begin="reset.mouseover" end="reset.mouseout"/></use>
  </g>
</defs>
<script type="application/ecmascript">
var viewWidth = 989;
var viewHeight = 139;
var sectionId = 'dynsection-27';
</script>
<script type="application/ecmascript" xlink:href="svg.min.js"/>
<svg id="graph" class="graph">
<g id="viewport">
<title>ChatView::OnReadyReadInput</title>
<!-- Node1 -->
<g id="Node000001" class="node">
<title>Node1</title>
<g id="a_Node000001"><a xlink:title="Slot called when the audio input device has data ready to be read. Reads all available audio data,...">
<polygon fill="#999999" stroke="#666666" points="981,-111.5 832.25,-111.5 832.25,-93 981,-93 981,-111.5"/>
<text text-anchor="middle" x="906.62" y="-98" font-family="Helvetica,sans-Serif" font-size="10.00">ChatView::OnReadyReadInput</text>
</a>
</g>
</g>
<!-- Node2 -->
<g id="Node000002" class="node">
<title>Node2</title>
<g id="a_Node000002"><a xlink:href="classChatView.html#a119a0cb1a68f2e3a60e4153912fa43f2" target="_top" xlink:title="Starts capturing audio from the microphone if PTT state is Transmitting. Connects the readyRead signa...">
<polygon fill="white" stroke="#666666" points="435,-130.5 302.75,-130.5 302.75,-112 435,-112 435,-130.5"/>
<text text-anchor="middle" x="368.88" y="-117" font-family="Helvetica,sans-Serif" font-size="10.00">ChatView::StartAudioInput</text>
</a>
</g>
</g>
<!-- Node1&#45;&gt;Node2 -->
<g id="edge1_Node000001_Node000002" class="edge">
<title>Node1&#45;&gt;Node2</title>
<g id="a_edge1_Node000001_Node000002"><a xlink:title=" ">
<path fill="none" stroke="#63b8ff" d="M820.58,-105.27C713.51,-109.06 531.92,-115.5 435.15,-118.93"/>
<polygon fill="#63b8ff" stroke="#63b8ff" points="820.59,-108.77 830.46,-104.92 820.34,-101.77 820.59,-108.77"/>
</a>
</g>
</g>
<!-- Node5 -->
<g id="Node000005" class="node">
<title>Node5</title>
<g id="a_Node000005"><a xlink:href="classChatView.html#abd9ae8e738358b9be6f5e935ea4826a3" target="_top" xlink:title="Stops capturing audio from the microphone. Disconnects signals and resets the input device pointer.">
<polygon fill="white" stroke="#666666" points="796.25,-93.5 665.5,-93.5 665.5,-75 796.25,-75 796.25,-93.5"/>
<text text-anchor="middle" x="730.88" y="-80" font-family="Helvetica,sans-Serif" font-size="10.00">ChatView::StopAudioInput</text>
</a>
</g>
</g>
<!-- Node1&#45;&gt;Node5 -->
<g id="edge4_Node000001_Node000005" class="edge">
<title>Node1&#45;&gt;Node5</title>
<g id="a_edge4_Node000001_Node000005"><a xlink:title=" ">
<path fill="none" stroke="#63b8ff" d="M820.58,-93.44C812.51,-92.6 804.43,-91.77 796.6,-90.96"/>
<polygon fill="#63b8ff" stroke="#63b8ff" points="820.13,-96.91 830.43,-94.46 820.85,-89.95 820.13,-96.91"/>
</a>
</g>
</g>
<!-- Node3 -->
<g id="Node000003" class="node">
<title>Node3</title>
<g id="a_Node000003"><a xlink:href="classChatView.html#ae1708fe2be43fe0f0bf4e000d968b385" target="_top" xlink:title="Slot called when the server grants the PTT request. If the frequency matches and the state is Request...">
<polygon fill="white" stroke="#666666" points="266.75,-93.5 142.75,-93.5 142.75,-75 266.75,-75 266.75,-93.5"/>
<text text-anchor="middle" x="204.75" y="-80" font-family="Helvetica,sans-Serif" font-size="10.00">ChatView::OnPttGranted</text>
</a>
</g>
</g>
<!-- Node2&#45;&gt;Node3 -->
<g id="edge2_Node000002_Node000003" class="edge">
<title>Node2&#45;&gt;Node3</title>
<g id="a_edge2_Node000002_Node000003"><a xlink:title=" ">
<path fill="none" stroke="#63b8ff" d="M314.07,-108.97C292.7,-104.09 268.46,-98.56 248.34,-93.97"/>
<polygon fill="#63b8ff" stroke="#63b8ff" points="313.27,-112.38 323.8,-111.19 314.83,-105.55 313.27,-112.38"/>
</a>
</g>
</g>
<!-- Node4 -->
<g id="Node000004" class="node">
<title>Node4</title>
<g id="a_Node000004"><a xlink:href="classChatView.html#ad2db6f12afdba4b49ec7775b2d560ad3" target="_top" xlink:title="Constructs a WavelengthChatView. Initializes the UI elements (labels, message area,...">
<polygon fill="white" stroke="#666666" points="106.75,-74.5 0,-74.5 0,-56 106.75,-56 106.75,-74.5"/>
<text text-anchor="middle" x="53.38" y="-61" font-family="Helvetica,sans-Serif" font-size="10.00">ChatView::ChatView</text>
</a>
</g>
</g>
<!-- Node3&#45;&gt;Node4 -->
<g id="edge3_Node000003_Node000004" class="edge">
<title>Node3&#45;&gt;Node4</title>
<g id="a_edge3_Node000003_Node000004"><a xlink:title=" ">
<path fill="none" stroke="#63b8ff" d="M131.16,-75.02C123.05,-73.98 114.9,-72.95 107.11,-71.96"/>
<polygon fill="#63b8ff" stroke="#63b8ff" points="130.7,-78.49 141.06,-76.28 131.58,-71.54 130.7,-78.49"/>
</a>
</g>
</g>
<!-- Node6 -->
<g id="Node000006" class="node">
<title>Node6</title>
<g id="a_Node000006"><a xlink:href="classChatView.html#ac40ec4de8eddc9ea4fc2d3e210aa6c4d" target="_top" xlink:title="Slot called when the PTT button is released. Plays the PTT deactivation sound. If transmitting,...">
<polygon fill="white" stroke="#666666" points="629.5,-93.5 471,-93.5 471,-75 629.5,-75 629.5,-93.5"/>
<text text-anchor="middle" x="550.25" y="-80" font-family="Helvetica,sans-Serif" font-size="10.00">ChatView::OnPttButtonReleased</text>
</a>
</g>
</g>
<!-- Node5&#45;&gt;Node6 -->
<g id="edge5_Node000005_Node000006" class="edge">
<title>Node5&#45;&gt;Node6</title>
<g id="a_edge5_Node000005_Node000006"><a xlink:title=" ">
<path fill="none" stroke="#63b8ff" d="M653.67,-84.25C645.76,-84.25 637.71,-84.25 629.77,-84.25"/>
<polygon fill="#63b8ff" stroke="#63b8ff" points="653.62,-87.75 663.62,-84.25 653.62,-80.75 653.62,-87.75"/>
</a>
</g>
</g>
<!-- Node8 -->
<g id="Node000008" class="node">
<title>Node8</title>
<g id="a_Node000008"><a xlink:href="classChatView.html#a7fb02c0ac57330d91ab4afb26da50514" target="_top" xlink:title="Destructor. Stops audio input/output and cleans up audio resources.">
<polygon fill="white" stroke="#666666" points="606.62,-56.5 493.88,-56.5 493.88,-38 606.62,-38 606.62,-56.5"/>
<text text-anchor="middle" x="550.25" y="-43" font-family="Helvetica,sans-Serif" font-size="10.00">ChatView::~ChatView</text>
</a>
</g>
</g>
<!-- Node5&#45;&gt;Node8 -->
<g id="edge10_Node000005_Node000008" class="edge">
<title>Node5&#45;&gt;Node8</title>
<g id="a_edge10_Node000005_Node000008"><a xlink:title=" ">
<path fill="none" stroke="#63b8ff" d="M671.9,-72.24C648.03,-67.3 620.75,-61.65 598.18,-56.97"/>
<polygon fill="#63b8ff" stroke="#63b8ff" points="670.96,-75.62 681.46,-74.22 672.38,-68.77 670.96,-75.62"/>
</a>
</g>
</g>
<!-- Node6&#45;&gt;Node2 -->
<g id="edge9_Node000006_Node000002" class="edge">
<title>Node6&#45;&gt;Node2</title>
<g id="a_edge9_Node000006_Node000002"><a xlink:title=" ">
<path fill="none" stroke="#63b8ff" d="M491.03,-96.26C467.06,-101.2 439.67,-106.85 417,-111.53"/>
<polygon fill="#63b8ff" stroke="#63b8ff" points="491.55,-99.73 500.64,-94.28 490.14,-92.87 491.55,-99.73"/>
</a>
</g>
</g>
<!-- Node6&#45;&gt;Node3 -->
<g id="edge7_Node000006_Node000003" class="edge">
<title>Node6&#45;&gt;Node3</title>
<g id="a_edge7_Node000006_Node000003"><a xlink:title=" ">
<path fill="none" stroke="#63b8ff" d="M459.41,-84.25C398.91,-84.25 320.71,-84.25 267.23,-84.25"/>
<polygon fill="#63b8ff" stroke="#63b8ff" points="459.36,-87.75 469.36,-84.25 459.36,-80.75 459.36,-87.75"/>
</a>
</g>
</g>
<!-- Node6&#45;&gt;Node4 -->
<g id="edge6_Node000006_Node000004" class="edge">
<title>Node6&#45;&gt;Node4</title>
<g id="a_edge6_Node000006_Node000004"><a xlink:title=" ">
<path fill="none" stroke="#63b8ff" d="M459.55,-77.18C404.05,-73.14 331.31,-68.46 266.75,-66.25 212.4,-64.39 150.17,-64.34 107.19,-64.64"/>
<polygon fill="#63b8ff" stroke="#63b8ff" points="459.03,-80.65 469.26,-77.89 459.54,-73.67 459.03,-80.65"/>
</a>
</g>
</g>
<!-- Node7 -->
<g id="Node000007" class="node">
<title>Node7</title>
<g id="a_Node000007"><a xlink:href="classChatView.html#a4cbbc74a8774cc401a3117bedf750e0f" target="_top" xlink:title="Configures the view for a specific Wavelength. Sets the header title with the frequency and optional ...">
<polygon fill="white" stroke="#666666" points="433.5,-18.5 304.25,-18.5 304.25,0 433.5,0 433.5,-18.5"/>
<text text-anchor="middle" x="368.88" y="-5" font-family="Helvetica,sans-Serif" font-size="10.00">ChatView::SetWavelength</text>
</a>
</g>
</g>
<!-- Node6&#45;&gt;Node7 -->
<g id="edge8_Node000006_Node000007" class="edge">
<title>Node6&#45;&gt;Node7</title>
<g id="a_edge8_Node000006_Node000007"><a xlink:title=" ">
<path fill="none" stroke="#63b8ff" d="M483.31,-70.86C479.06,-69.2 474.91,-67.34 471,-65.25 451.85,-55.03 453.61,-43.42 435,-32.25 425.95,-26.82 415.43,-22.4 405.52,-18.95"/>
<polygon fill="#63b8ff" stroke="#63b8ff" points="482.04,-74.12 492.64,-74.09 484.33,-67.51 482.04,-74.12"/>
</a>
</g>
</g>
</g>
</svg>

<g id="navigator" transform="translate(0 0)" fill="#404254">
  <rect fill="#f2f5e9" fill-opacity="0.5" stroke="#606060" stroke-width=".5" x="0" y="0" width="60" height="60"/>
  <use id="zoomplus" xlink:href="#zoomPlus" x="17" y="9" onmousedown="handleZoom(evt,'in')"/>
  <use id="zoomminus" xlink:href="#zoomMin" x="42" y="9" onmousedown="handleZoom(evt,'out')"/>
  <use id="reset" xlink:href="#resetDef" x="30" y="36" onmousedown="handleReset()"/>
   <use id="arrowup" xlink:href="#arrowUp" x="0" y="0" onmousedown="handlePan(0,-1)"/>
  <use id="arrowright" xlink:href="#arrowRight" x="0" y="0" onmousedown="handlePan(1,0)"/>
  <use id="arrowdown" xlink:href="#arrowDown" x="0" y="0" onmousedown="handlePan(0,1)"/>
  <use id="arrowleft" xlink:href="#arrowLeft" x="0" y="0" onmousedown="handlePan(-1,0)"/>
</g>
<svg viewBox="0 0 15 15" width="100%" height="30px" preserveAspectRatio="xMaxYMin meet">
 <g id="arrow_out" transform="scale(0.3 0.3)">
  <a xlink:href="classChatView_a034774a31cd27434eeb01e9965736aeb_icgraph_org.svg" target="_base">
   <rect id="button" ry="5" rx="5" y="6" x="6" height="38" width="38"
        fill="#f2f5e9" fill-opacity="0.5" stroke="#606060" stroke-width="1.0"/>
   <path id="arrow"
     d="M 11.500037,31.436501 C 11.940474,20.09759 22.043105,11.32322 32.158766,21.979434 L 37.068811,17.246167 C 37.068811,17.246167 37.088388,32 37.088388,32 L 22.160133,31.978069 C 22.160133,31.978069 26.997745,27.140456 26.997745,27.140456 C 18.528582,18.264221 13.291696,25.230495 11.500037,31.436501 z"
     style="fill:#404040;"/>
  </a>
 </g>
</svg>

<style type='text/css'>
<![CDATA[
[data-mouse-over-selected='false'] { opacity: 0.7; }
[data-mouse-over-selected='true']  { opacity: 1.0; }
]]>
</style>
<script type="application/ecmascript"><![CDATA[
document.addEventListener('DOMContentLoaded', (event) => {
  highlightEdges();
  highlightAdjacentNodes();
});
]]></script>
</svg>
