<?xml version="1.0" encoding="UTF-8" standalone="no"?>
<!DOCTYPE svg PUBLIC "-//W3C//DTD SVG 1.1//EN"
 "http://www.w3.org/Graphics/SVG/1.1/DTD/svg11.dtd">
<!-- Generated by graphviz version 12.2.1 (0)
 -->
<!-- Title: SecurityCodeLayer Pages: 1 -->
<svg width="378pt" height="849pt"
 viewBox="0.00 0.00 377.88 848.50" xmlns="http://www.w3.org/2000/svg" xmlns:xlink="http://www.w3.org/1999/xlink">
<g id="graph0" class="graph" transform="scale(1 1) rotate(0) translate(4 844.5)">
<title>SecurityCodeLayer</title>
<!-- Node1 -->
<g id="Node000001" class="node">
<title>Node1</title>
<g id="a_Node000001"><a xlink:title="A security layer requiring the user to enter a 4&#45;character security code.">
<polygon fill="#999999" stroke="none" points="215.75,-391 70.25,-391 70.25,0 215.75,0 215.75,-391"/>
<text text-anchor="start" x="101.75" y="-377.5" font-family="Helvetica,sans-Serif" font-size="10.00">SecurityCodeLayer</text>
<text text-anchor="start" x="75.75" y="-363" font-family="Helvetica,sans-Serif" font-size="10.00">&#45;</text>
<text text-anchor="start" x="84.25" y="-363" font-family="Helvetica,sans-Serif" font-size="10.00">QList&lt; QLineEdit *</text>
<text text-anchor="start" x="84.25" y="-352.5" font-family="Helvetica,sans-Serif" font-size="10.00"> &gt; code_inputs_</text>
<text text-anchor="start" x="75.75" y="-338" font-family="Helvetica,sans-Serif" font-size="10.00">&#45;</text>
<text text-anchor="start" x="84.25" y="-338" font-family="Helvetica,sans-Serif" font-size="10.00">QString current_security</text>
<text text-anchor="start" x="84.25" y="-327.5" font-family="Helvetica,sans-Serif" font-size="10.00">_code_</text>
<text text-anchor="start" x="75.75" y="-313" font-family="Helvetica,sans-Serif" font-size="10.00">&#45;</text>
<text text-anchor="start" x="84.25" y="-313" font-family="Helvetica,sans-Serif" font-size="10.00">bool is_current_code</text>
<text text-anchor="start" x="84.25" y="-302.5" font-family="Helvetica,sans-Serif" font-size="10.00">_numeric_</text>
<text text-anchor="start" x="75.75" y="-288" font-family="Helvetica,sans-Serif" font-size="10.00">&#45;</text>
<text text-anchor="start" x="84.25" y="-288" font-family="Helvetica,sans-Serif" font-size="10.00">QLabel * security_code</text>
<text text-anchor="start" x="84.25" y="-277.5" font-family="Helvetica,sans-Serif" font-size="10.00">_hint_</text>
<text text-anchor="start" x="75.75" y="-263" font-family="Helvetica,sans-Serif" font-size="10.00">&#45;</text>
<text text-anchor="start" x="84.25" y="-263" font-family="Helvetica,sans-Serif" font-size="10.00">QVector&lt; SecurityCode</text>
<text text-anchor="start" x="84.25" y="-252.5" font-family="Helvetica,sans-Serif" font-size="10.00"> &gt; security_codes_</text>
<text text-anchor="start" x="74.25" y="-238" font-family="Helvetica,sans-Serif" font-size="10.00">+</text>
<text text-anchor="start" x="84.25" y="-238" font-family="Helvetica,sans-Serif" font-size="10.00">void Initialize() override</text>
<text text-anchor="start" x="74.25" y="-223.5" font-family="Helvetica,sans-Serif" font-size="10.00">+</text>
<text text-anchor="start" x="84.25" y="-223.5" font-family="Helvetica,sans-Serif" font-size="10.00">void Reset() override</text>
<text text-anchor="start" x="74.25" y="-209" font-family="Helvetica,sans-Serif" font-size="10.00">+</text>
<text text-anchor="start" x="84.25" y="-209" font-family="Helvetica,sans-Serif" font-size="10.00">SecurityCodeLayer</text>
<text text-anchor="start" x="84.25" y="-198.5" font-family="Helvetica,sans-Serif" font-size="10.00">(QWidget *parent=nullptr)</text>
<text text-anchor="start" x="74.25" y="-184" font-family="Helvetica,sans-Serif" font-size="10.00">+</text>
<text text-anchor="start" x="84.25" y="-184" font-family="Helvetica,sans-Serif" font-size="10.00">~SecurityCodeLayer</text>
<text text-anchor="start" x="84.25" y="-173.5" font-family="Helvetica,sans-Serif" font-size="10.00">() override</text>
<text text-anchor="start" x="74.62" y="-159" font-family="Helvetica,sans-Serif" font-size="10.00">#</text>
<text text-anchor="start" x="84.25" y="-159" font-family="Helvetica,sans-Serif" font-size="10.00">bool eventFilter(QObject</text>
<text text-anchor="start" x="84.25" y="-148.5" font-family="Helvetica,sans-Serif" font-size="10.00"> *obj, QEvent *event) override</text>
<text text-anchor="start" x="75.75" y="-134" font-family="Helvetica,sans-Serif" font-size="10.00">&#45;</text>
<text text-anchor="start" x="84.25" y="-134" font-family="Helvetica,sans-Serif" font-size="10.00">QString GetEnteredCode</text>
<text text-anchor="start" x="84.25" y="-123.5" font-family="Helvetica,sans-Serif" font-size="10.00">() const</text>
<text text-anchor="start" x="75.75" y="-109" font-family="Helvetica,sans-Serif" font-size="10.00">&#45;</text>
<text text-anchor="start" x="84.25" y="-109" font-family="Helvetica,sans-Serif" font-size="10.00">QString GetRandomSecurity</text>
<text text-anchor="start" x="84.25" y="-98.5" font-family="Helvetica,sans-Serif" font-size="10.00">Code(QString &amp;hint, bool</text>
<text text-anchor="start" x="84.25" y="-88" font-family="Helvetica,sans-Serif" font-size="10.00"> &amp;is_numeric)</text>
<text text-anchor="start" x="75.75" y="-73.5" font-family="Helvetica,sans-Serif" font-size="10.00">&#45;</text>
<text text-anchor="start" x="84.25" y="-73.5" font-family="Helvetica,sans-Serif" font-size="10.00">void ResetInputs()</text>
<text text-anchor="start" x="75.75" y="-59" font-family="Helvetica,sans-Serif" font-size="10.00">&#45;</text>
<text text-anchor="start" x="84.25" y="-59" font-family="Helvetica,sans-Serif" font-size="10.00">void SetInputValidators</text>
<text text-anchor="start" x="84.25" y="-48.5" font-family="Helvetica,sans-Serif" font-size="10.00">(bool numeric_only)</text>
<text text-anchor="start" x="75.75" y="-34" font-family="Helvetica,sans-Serif" font-size="10.00">&#45;</text>
<text text-anchor="start" x="84.25" y="-34" font-family="Helvetica,sans-Serif" font-size="10.00">void ShowErrorEffect()</text>
<text text-anchor="start" x="75.75" y="-19.5" font-family="Helvetica,sans-Serif" font-size="10.00">&#45;</text>
<text text-anchor="start" x="84.25" y="-19.5" font-family="Helvetica,sans-Serif" font-size="10.00">void CheckSecurityCode()</text>
<text text-anchor="start" x="75.75" y="-5" font-family="Helvetica,sans-Serif" font-size="10.00">&#45;</text>
<text text-anchor="start" x="84.25" y="-5" font-family="Helvetica,sans-Serif" font-size="10.00">void OnDigitEntered()</text>
<polygon fill="#666666" stroke="#666666" points="70.25,-374.5 70.25,-374.5 215.75,-374.5 215.75,-374.5 70.25,-374.5"/>
<polygon fill="#666666" stroke="#666666" points="70.25,-249.5 70.25,-249.5 82.25,-249.5 82.25,-249.5 70.25,-249.5"/>
<polygon fill="#666666" stroke="#666666" points="82.25,-249.5 82.25,-249.5 215.75,-249.5 215.75,-249.5 82.25,-249.5"/>
<polygon fill="none" stroke="#666666" points="70.25,0 70.25,-391 215.75,-391 215.75,0 70.25,0"/>
</a>
</g>
</g>
<!-- Node2 -->
<g id="Node000002" class="node">
<title>Node2</title>
<g id="a_Node000002"><a xlink:href="classSecurityLayer.html" target="_top" xlink:title="Abstract base class for individual security challenge layers.">
<polygon fill="white" stroke="none" points="126,-652.75 0,-652.75 0,-540.75 126,-540.75 126,-652.75"/>
<text text-anchor="start" x="33.38" y="-639.25" font-family="Helvetica,sans-Serif" font-size="10.00">SecurityLayer</text>
<text text-anchor="start" x="61.5" y="-624.75" font-family="Helvetica,sans-Serif" font-size="10.00"> </text>
<text text-anchor="start" x="4" y="-610.25" font-family="Helvetica,sans-Serif" font-size="10.00">+</text>
<text text-anchor="start" x="14" y="-610.25" font-family="Helvetica,sans-Serif" font-size="10.00">virtual void Initialize()=0</text>
<text text-anchor="start" x="4" y="-595.75" font-family="Helvetica,sans-Serif" font-size="10.00">+</text>
<text text-anchor="start" x="14" y="-595.75" font-family="Helvetica,sans-Serif" font-size="10.00">virtual void Reset()=0</text>
<text text-anchor="start" x="4" y="-581.25" font-family="Helvetica,sans-Serif" font-size="10.00">+</text>
<text text-anchor="start" x="14" y="-581.25" font-family="Helvetica,sans-Serif" font-size="10.00">SecurityLayer(QWidget</text>
<text text-anchor="start" x="14" y="-570.75" font-family="Helvetica,sans-Serif" font-size="10.00"> *parent=nullptr)</text>
<text text-anchor="start" x="4" y="-556.25" font-family="Helvetica,sans-Serif" font-size="10.00">+</text>
<text text-anchor="start" x="14" y="-556.25" font-family="Helvetica,sans-Serif" font-size="10.00">~SecurityLayer() override</text>
<text text-anchor="start" x="14" y="-545.75" font-family="Helvetica,sans-Serif" font-size="10.00">=default</text>
<polygon fill="#666666" stroke="#666666" points="0,-636.25 0,-636.25 126,-636.25 126,-636.25 0,-636.25"/>
<polygon fill="#666666" stroke="#666666" points="0,-621.75 0,-621.75 126,-621.75 126,-621.75 0,-621.75"/>
<polygon fill="none" stroke="#666666" points="0,-540.75 0,-652.75 126,-652.75 126,-540.75 0,-540.75"/>
</a>
</g>
</g>
<!-- Node2&#45;&gt;Node1 -->
<g id="edge1_Node000001_Node000002" class="edge">
<title>Node2&#45;&gt;Node1</title>
<g id="a_edge1_Node000001_Node000002"><a xlink:title=" ">
<path fill="none" stroke="#63b8ff" d="M76.16,-530.07C83.86,-491.66 94.02,-440.96 104.08,-390.72"/>
<polygon fill="none" stroke="#63b8ff" points="72.79,-529.1 74.25,-539.59 79.65,-530.47 72.79,-529.1"/>
</a>
</g>
</g>
<!-- Node3 -->
<g id="Node000003" class="node">
<title>Node3</title>
<g id="a_Node000003"><a xlink:title=" ">
<polygon fill="white" stroke="none" points="86.12,-840.5 39.88,-840.5 39.88,-793 86.12,-793 86.12,-840.5"/>
<text text-anchor="start" x="43.88" y="-827" font-family="Helvetica,sans-Serif" font-size="10.00">QWidget</text>
<text text-anchor="start" x="61.5" y="-812.5" font-family="Helvetica,sans-Serif" font-size="10.00"> </text>
<text text-anchor="start" x="61.5" y="-798" font-family="Helvetica,sans-Serif" font-size="10.00"> </text>
<polygon fill="#666666" stroke="#666666" points="39.88,-824 39.88,-824 86.12,-824 86.12,-824 39.88,-824"/>
<polygon fill="#666666" stroke="#666666" points="39.88,-809.5 39.88,-809.5 86.12,-809.5 86.12,-809.5 39.88,-809.5"/>
<polygon fill="none" stroke="#666666" points="39.88,-793 39.88,-840.5 86.12,-840.5 86.12,-793 39.88,-793"/>
</a>
</g>
</g>
<!-- Node3&#45;&gt;Node2 -->
<g id="edge2_Node000002_Node000003" class="edge">
<title>Node3&#45;&gt;Node2</title>
<g id="a_edge2_Node000002_Node000003"><a xlink:title=" ">
<path fill="none" stroke="#63b8ff" d="M63,-781.88C63,-747.3 63,-693.07 63,-652.4"/>
<polygon fill="none" stroke="#63b8ff" points="59.5,-781.73 63,-791.73 66.5,-781.73 59.5,-781.73"/>
</a>
</g>
</g>
<!-- Node4 -->
<g id="Node000004" class="node">
<title>Node4</title>
<g id="a_Node000004"><a xlink:href="classTranslationManager.html" target="_top" xlink:title="Manages the loading and delivery of translations for applications.">
<polygon fill="white" stroke="none" points="303.88,-756 144.12,-756 144.12,-437.5 303.88,-437.5 303.88,-756"/>
<text text-anchor="start" x="181.62" y="-742.5" font-family="Helvetica,sans-Serif" font-size="10.00">TranslationManager</text>
<text text-anchor="start" x="149.62" y="-728" font-family="Helvetica,sans-Serif" font-size="10.00">&#45;</text>
<text text-anchor="start" x="158.12" y="-728" font-family="Helvetica,sans-Serif" font-size="10.00">QString current_language</text>
<text text-anchor="start" x="158.12" y="-717.5" font-family="Helvetica,sans-Serif" font-size="10.00">_code_</text>
<text text-anchor="start" x="149.62" y="-703" font-family="Helvetica,sans-Serif" font-size="10.00">&#45;</text>
<text text-anchor="start" x="158.12" y="-703" font-family="Helvetica,sans-Serif" font-size="10.00">bool initialized_</text>
<text text-anchor="start" x="149.62" y="-688.5" font-family="Helvetica,sans-Serif" font-size="10.00">&#45;</text>
<text text-anchor="start" x="158.12" y="-688.5" font-family="Helvetica,sans-Serif" font-size="10.00">QJsonObject translations_</text>
<text text-anchor="start" x="149.62" y="-674" font-family="Helvetica,sans-Serif" font-size="10.00">&#45;</text>
<text text-anchor="start" x="158.12" y="-674" font-family="Helvetica,sans-Serif" font-size="10.00">static QMutex mutex_</text>
<text text-anchor="start" x="148.12" y="-659.5" font-family="Helvetica,sans-Serif" font-size="10.00">+</text>
<text text-anchor="start" x="158.12" y="-659.5" font-family="Helvetica,sans-Serif" font-size="10.00">QString GetCurrentLanguage</text>
<text text-anchor="start" x="158.12" y="-649" font-family="Helvetica,sans-Serif" font-size="10.00">() const</text>
<text text-anchor="start" x="148.12" y="-634.5" font-family="Helvetica,sans-Serif" font-size="10.00">+</text>
<text text-anchor="start" x="158.12" y="-634.5" font-family="Helvetica,sans-Serif" font-size="10.00">bool Initialize(const</text>
<text text-anchor="start" x="158.12" y="-624" font-family="Helvetica,sans-Serif" font-size="10.00"> QString &amp;language_code)</text>
<text text-anchor="start" x="148.12" y="-609.5" font-family="Helvetica,sans-Serif" font-size="10.00">+</text>
<text text-anchor="start" x="158.12" y="-609.5" font-family="Helvetica,sans-Serif" font-size="10.00">QString Translate(const</text>
<text text-anchor="start" x="158.12" y="-599" font-family="Helvetica,sans-Serif" font-size="10.00"> QString &amp;key, const QString</text>
<text text-anchor="start" x="158.12" y="-588.5" font-family="Helvetica,sans-Serif" font-size="10.00"> &amp;default_value=QString()) const</text>
<text text-anchor="start" x="148.12" y="-574" font-family="Helvetica,sans-Serif" font-size="10.00">+</text>
<text text-anchor="start" x="158.12" y="-574" font-family="Helvetica,sans-Serif" font-size="10.00">static TranslationManager</text>
<text text-anchor="start" x="158.12" y="-563.5" font-family="Helvetica,sans-Serif" font-size="10.00"> * GetInstance()</text>
<text text-anchor="start" x="149.62" y="-549" font-family="Helvetica,sans-Serif" font-size="10.00">&#45;</text>
<text text-anchor="start" x="158.12" y="-549" font-family="Helvetica,sans-Serif" font-size="10.00">bool LoadTranslations</text>
<text text-anchor="start" x="158.12" y="-538.5" font-family="Helvetica,sans-Serif" font-size="10.00">(const QString &amp;language_code)</text>
<text text-anchor="start" x="149.62" y="-524" font-family="Helvetica,sans-Serif" font-size="10.00">&#45;</text>
<text text-anchor="start" x="158.12" y="-524" font-family="Helvetica,sans-Serif" font-size="10.00">TranslationManager</text>
<text text-anchor="start" x="158.12" y="-513.5" font-family="Helvetica,sans-Serif" font-size="10.00"> &amp; operator=(const Translation</text>
<text text-anchor="start" x="158.12" y="-503" font-family="Helvetica,sans-Serif" font-size="10.00">Manager &amp;)=delete</text>
<text text-anchor="start" x="149.62" y="-488.5" font-family="Helvetica,sans-Serif" font-size="10.00">&#45;</text>
<text text-anchor="start" x="158.12" y="-488.5" font-family="Helvetica,sans-Serif" font-size="10.00">TranslationManager</text>
<text text-anchor="start" x="158.12" y="-478" font-family="Helvetica,sans-Serif" font-size="10.00">(const TranslationManager</text>
<text text-anchor="start" x="158.12" y="-467.5" font-family="Helvetica,sans-Serif" font-size="10.00"> &amp;)=delete</text>
<text text-anchor="start" x="149.62" y="-453" font-family="Helvetica,sans-Serif" font-size="10.00">&#45;</text>
<text text-anchor="start" x="158.12" y="-453" font-family="Helvetica,sans-Serif" font-size="10.00">TranslationManager</text>
<text text-anchor="start" x="158.12" y="-442.5" font-family="Helvetica,sans-Serif" font-size="10.00">(QObject *parent=nullptr)</text>
<polygon fill="#666666" stroke="#666666" points="144.12,-739.5 144.12,-739.5 303.88,-739.5 303.88,-739.5 144.12,-739.5"/>
<polygon fill="#666666" stroke="#666666" points="144.12,-671 144.12,-671 156.12,-671 156.12,-671 144.12,-671"/>
<polygon fill="#666666" stroke="#666666" points="156.12,-671 156.12,-671 303.88,-671 303.88,-671 156.12,-671"/>
<polygon fill="none" stroke="#666666" points="144.12,-437.5 144.12,-756 303.88,-756 303.88,-437.5 144.12,-437.5"/>
</a>
</g>
</g>
<!-- Node4&#45;&gt;Node1 -->
<g id="edge3_Node000001_Node000004" class="edge">
<title>Node4&#45;&gt;Node1</title>
<g id="a_edge3_Node000001_Node000004"><a xlink:title=" ">
<path fill="none" stroke="#63b8ff" d="M191.93,-437.67C189.64,-426.39 187.31,-414.93 184.98,-403.43"/>
<polygon fill="none" stroke="#63b8ff" points="185.02,-403.6 179.9,-398.51 182.63,-391.84 187.74,-396.92 185.02,-403.6"/>
</a>
</g>
<text text-anchor="middle" x="213.02" y="-410" font-family="Helvetica,sans-Serif" font-size="10.00" fill="grey"> &#45;translator_</text>
</g>
<!-- Node4&#45;&gt;Node4 -->
<g id="edge5_Node000004_Node000004" class="edge">
<title>Node4&#45;&gt;Node4</title>
<g id="a_edge5_Node000004_Node000004"><a xlink:title=" ">
<path fill="none" stroke="#63b8ff" d="M303.49,-626.49C314.51,-621.59 321.88,-611.68 321.88,-596.75 321.88,-587.19 318.85,-579.68 313.78,-574.23"/>
<polygon fill="none" stroke="#63b8ff" points="314.05,-574.42 306.84,-574.25 304.23,-567.53 311.44,-567.7 314.05,-574.42"/>
</a>
</g>
<text text-anchor="middle" x="345.88" y="-592.5" font-family="Helvetica,sans-Serif" font-size="10.00" fill="grey"> &#45;instance_</text>
</g>
<!-- Node5 -->
<g id="Node000005" class="node">
<title>Node5</title>
<g id="a_Node000005"><a xlink:title=" ">
<polygon fill="white" stroke="none" points="246,-840.5 202,-840.5 202,-793 246,-793 246,-840.5"/>
<text text-anchor="start" x="206" y="-827" font-family="Helvetica,sans-Serif" font-size="10.00">QObject</text>
<text text-anchor="start" x="222.5" y="-812.5" font-family="Helvetica,sans-Serif" font-size="10.00"> </text>
<text text-anchor="start" x="222.5" y="-798" font-family="Helvetica,sans-Serif" font-size="10.00"> </text>
<polygon fill="#666666" stroke="#666666" points="202,-824 202,-824 246,-824 246,-824 202,-824"/>
<polygon fill="#666666" stroke="#666666" points="202,-809.5 202,-809.5 246,-809.5 246,-809.5 202,-809.5"/>
<polygon fill="none" stroke="#666666" points="202,-793 202,-840.5 246,-840.5 246,-793 202,-793"/>
</a>
</g>
</g>
<!-- Node5&#45;&gt;Node4 -->
<g id="edge4_Node000004_Node000005" class="edge">
<title>Node5&#45;&gt;Node4</title>
<g id="a_edge4_Node000004_Node000005"><a xlink:title=" ">
<path fill="none" stroke="#63b8ff" d="M224,-781.88C224,-774.09 224,-765.31 224,-755.91"/>
<polygon fill="none" stroke="#63b8ff" points="220.5,-781.73 224,-791.73 227.5,-781.73 220.5,-781.73"/>
</a>
</g>
</g>
</g>
</svg>
