<?xml version="1.0" encoding="UTF-8" standalone="no"?>
<!DOCTYPE svg PUBLIC "-//W3C//DTD SVG 1.1//EN"
 "http://www.w3.org/Graphics/SVG/1.1/DTD/svg11.dtd">
<!-- Generated by graphviz version 12.2.1 (0)
 -->
<!-- Title: VideoDecoder::videoInfo Pages: 1 -->
<svg width="644pt" height="83pt"
 viewBox="0.00 0.00 643.50 82.50" xmlns="http://www.w3.org/2000/svg" xmlns:xlink="http://www.w3.org/1999/xlink">
<g id="graph0" class="graph" transform="scale(1 1) rotate(0) translate(4 78.5)">
<title>VideoDecoder::videoInfo</title>
<!-- Node1 -->
<g id="Node000001" class="node">
<title>Node1</title>
<g id="a_Node000001"><a xlink:title="Emitted after successful initialization, providing video stream details.">
<polygon fill="#999999" stroke="#666666" points="635.5,-55.5 512.25,-55.5 512.25,-37 635.5,-37 635.5,-55.5"/>
<text text-anchor="middle" x="573.88" y="-42" font-family="Helvetica,sans-Serif" font-size="10.00">VideoDecoder::videoInfo</text>
</a>
</g>
</g>
<!-- Node2 -->
<g id="Node000002" class="node">
<title>Node2</title>
<g id="a_Node000002"><a xlink:href="classVideoDecoder.html#aa8f8aabbe65727acd5ef5cfdc5f3b69b" target="_top" xlink:title="Initializes the FFmpeg components for decoding the video and potentially audio. Opens the input strea...">
<polygon fill="white" stroke="#666666" points="467.62,-74.5 348.88,-74.5 348.88,-56 467.62,-56 467.62,-74.5"/>
<text text-anchor="middle" x="408.25" y="-61" font-family="Helvetica,sans-Serif" font-size="10.00">VideoDecoder::Initialize</text>
</a>
</g>
</g>
<!-- Node1&#45;&gt;Node2 -->
<g id="edge1_Node000001_Node000002" class="edge">
<title>Node1&#45;&gt;Node2</title>
<g id="a_edge1_Node000001_Node000002"><a xlink:title=" ">
<path fill="none" stroke="#63b8ff" d="M500.69,-54.63C489.78,-55.9 478.64,-57.19 468.06,-58.42"/>
<polygon fill="#63b8ff" stroke="#63b8ff" points="500.91,-58.13 510.44,-53.5 500.11,-51.18 500.91,-58.13"/>
</a>
</g>
</g>
<!-- Node4 -->
<g id="Node000004" class="node">
<title>Node4</title>
<g id="a_Node000004"><a xlink:href="classVideoPlayer.html#a6f8d803263d342bf12f9cf29c40536de" target="_top" xlink:title="Initializes the VideoDecoder instance and connects its signals. Creates the decoder,...">
<polygon fill="white" stroke="#666666" points="476.25,-37.5 340.25,-37.5 340.25,-19 476.25,-19 476.25,-37.5"/>
<text text-anchor="middle" x="408.25" y="-24" font-family="Helvetica,sans-Serif" font-size="10.00">VideoPlayer::InitializePlayer</text>
</a>
</g>
</g>
<!-- Node1&#45;&gt;Node4 -->
<g id="edge3_Node000001_Node000004" class="edge">
<title>Node1&#45;&gt;Node4</title>
<g id="a_edge3_Node000001_Node000004"><a xlink:title=" ">
<path fill="none" stroke="#63b8ff" d="M500.71,-38.31C492.68,-37.43 484.52,-36.53 476.55,-35.65"/>
<polygon fill="#63b8ff" stroke="#63b8ff" points="500.12,-41.77 510.44,-39.38 500.89,-34.81 500.12,-41.77"/>
</a>
</g>
</g>
<!-- Node3 -->
<g id="Node000003" class="node">
<title>Node3</title>
<g id="a_Node000003"><a xlink:href="classVideoDecoder.html#a134b48e98d0b9db4011cfea08d0924da" target="_top" xlink:title="The main function executed by the QThread. Contains the loop that reads packets, decodes video frames...">
<polygon fill="white" stroke="#666666" points="281.38,-74.5 184.38,-74.5 184.38,-56 281.38,-56 281.38,-74.5"/>
<text text-anchor="middle" x="232.88" y="-61" font-family="Helvetica,sans-Serif" font-size="10.00">VideoDecoder::run</text>
</a>
</g>
</g>
<!-- Node2&#45;&gt;Node3 -->
<g id="edge2_Node000002_Node000003" class="edge">
<title>Node2&#45;&gt;Node3</title>
<g id="a_edge2_Node000002_Node000003"><a xlink:title=" ">
<path fill="none" stroke="#63b8ff" d="M337.16,-65.25C318.59,-65.25 298.96,-65.25 281.86,-65.25"/>
<polygon fill="#63b8ff" stroke="#63b8ff" points="337.04,-68.75 347.04,-65.25 337.04,-61.75 337.04,-68.75"/>
</a>
</g>
</g>
<!-- Node5 -->
<g id="Node000005" class="node">
<title>Node5</title>
<g id="a_Node000005"><a xlink:href="classVideoPlayer.html#aee93bdf909227c7d4f7c48eca8874af6" target="_top" xlink:title="Toggles the playback state (play/pause) or resets if finished. If finished, resets the decoder....">
<polygon fill="white" stroke="#666666" points="304.25,-37.5 161.5,-37.5 161.5,-19 304.25,-19 304.25,-37.5"/>
<text text-anchor="middle" x="232.88" y="-24" font-family="Helvetica,sans-Serif" font-size="10.00">VideoPlayer::TogglePlayback</text>
</a>
</g>
</g>
<!-- Node4&#45;&gt;Node5 -->
<g id="edge4_Node000004_Node000005" class="edge">
<title>Node4&#45;&gt;Node5</title>
<g id="a_edge4_Node000004_Node000005"><a xlink:title=" ">
<path fill="none" stroke="#63b8ff" d="M328.92,-28.25C320.87,-28.25 312.72,-28.25 304.75,-28.25"/>
<polygon fill="#63b8ff" stroke="#63b8ff" points="328.71,-31.75 338.71,-28.25 328.71,-24.75 328.71,-31.75"/>
</a>
</g>
</g>
<!-- Node6 -->
<g id="Node000006" class="node">
<title>Node6</title>
<g id="a_Node000006"><a xlink:href="classVideoPlayer.html#a6ee50b34775069f86b0cace600c3923c" target="_top" xlink:title="Constructs a VideoPlayerOverlay dialog. Initializes the cyberpunk UI elements, sets window properties...">
<polygon fill="white" stroke="#666666" points="125.5,-18.5 0,-18.5 0,0 125.5,0 125.5,-18.5"/>
<text text-anchor="middle" x="62.75" y="-5" font-family="Helvetica,sans-Serif" font-size="10.00">VideoPlayer::VideoPlayer</text>
</a>
</g>
</g>
<!-- Node4&#45;&gt;Node6 -->
<g id="edge6_Node000004_Node000006" class="edge">
<title>Node4&#45;&gt;Node6</title>
<g id="a_edge6_Node000004_Node000006"><a xlink:title=" ">
<path fill="none" stroke="#63b8ff" d="M350.2,-16.51C335.31,-13.94 319.24,-11.58 304.25,-10.25 243.84,-4.88 174.56,-5.29 125.92,-6.64"/>
<polygon fill="#63b8ff" stroke="#63b8ff" points="349.37,-19.92 359.83,-18.25 350.61,-13.03 349.37,-19.92"/>
</a>
</g>
</g>
<!-- Node5&#45;&gt;Node6 -->
<g id="edge5_Node000005_Node000006" class="edge">
<title>Node5&#45;&gt;Node6</title>
<g id="a_edge5_Node000005_Node000006"><a xlink:title=" ">
<path fill="none" stroke="#63b8ff" d="M149.77,-18.97C141.76,-18.07 133.72,-17.16 125.94,-16.28"/>
<polygon fill="#63b8ff" stroke="#63b8ff" points="149.23,-22.43 159.56,-20.08 150.01,-15.48 149.23,-22.43"/>
</a>
</g>
</g>
</g>
</svg>
