<?xml version="1.0" encoding="UTF-8" standalone="no"?>
<!DOCTYPE svg PUBLIC "-//W3C//DTD SVG 1.1//EN"
 "http://www.w3.org/Graphics/SVG/1.1/DTD/svg11.dtd">
<!-- Generated by graphviz version 12.2.1 (0)
 -->
<!-- Title: StreamMessage::AdjustSizeToContent Pages: 1 -->
<svg width="337pt" height="64pt"
 viewBox="0.00 0.00 337.00 63.50" xmlns="http://www.w3.org/2000/svg" xmlns:xlink="http://www.w3.org/1999/xlink">
<g id="graph0" class="graph" transform="scale(1 1) rotate(0) translate(4 59.5)">
<title>StreamMessage::AdjustSizeToContent</title>
<!-- Node1 -->
<g id="Node000001" class="node">
<title>Node1</title>
<g id="a_Node000001"><a xlink:title="Adjusts the size of the message widget to fit its content, especially after an attachment has loaded....">
<polygon fill="#999999" stroke="#666666" points="139.75,-41.75 0,-41.75 0,-12.75 139.75,-12.75 139.75,-41.75"/>
<text text-anchor="start" x="8" y="-28.25" font-family="Helvetica,sans-Serif" font-size="10.00">StreamMessage::AdjustSize</text>
<text text-anchor="middle" x="69.88" y="-17.75" font-family="Helvetica,sans-Serif" font-size="10.00">ToContent</text>
</a>
</g>
</g>
<!-- Node2 -->
<g id="Node000002" class="node">
<title>Node2</title>
<g id="a_Node000002"><a xlink:href="classAttachmentViewer.html#a8e9e8d50bde441b62f513f5f4d6100c9" target="_top" xlink:title="Returns the recommended size for the viewer based on its content and layout. Calculates the size need...">
<polygon fill="white" stroke="#666666" points="320.75,-55.5 184,-55.5 184,-37 320.75,-37 320.75,-55.5"/>
<text text-anchor="middle" x="252.38" y="-42" font-family="Helvetica,sans-Serif" font-size="10.00">AttachmentViewer::sizeHint</text>
</a>
</g>
</g>
<!-- Node1&#45;&gt;Node2 -->
<g id="edge1_Node000001_Node000002" class="edge">
<title>Node1&#45;&gt;Node2</title>
<g id="a_edge1_Node000001_Node000002"><a xlink:title=" ">
<path fill="none" stroke="#63b8ff" d="M140.14,-34.54C150.77,-35.66 161.81,-36.82 172.62,-37.96"/>
<polygon fill="#63b8ff" stroke="#63b8ff" points="171.96,-41.41 182.27,-38.98 172.69,-34.45 171.96,-41.41"/>
</a>
</g>
</g>
<!-- Node3 -->
<g id="Node000003" class="node">
<title>Node3</title>
<g id="a_Node000003"><a xlink:href="classStreamMessage.html#a520ebf30923492083e94819640a79323" target="_top" xlink:title="Updates the position of the navigation and mark read buttons based on the widget&#39;s current size.">
<polygon fill="white" stroke="#666666" points="329,-18.5 175.75,-18.5 175.75,0 329,0 329,-18.5"/>
<text text-anchor="middle" x="252.38" y="-5" font-family="Helvetica,sans-Serif" font-size="10.00">StreamMessage::UpdateLayout</text>
</a>
</g>
</g>
<!-- Node1&#45;&gt;Node3 -->
<g id="edge2_Node000001_Node000003" class="edge">
<title>Node1&#45;&gt;Node3</title>
<g id="a_edge2_Node000001_Node000003"><a xlink:title=" ">
<path fill="none" stroke="#63b8ff" d="M140.14,-20.34C147.98,-19.56 156.05,-18.76 164.08,-17.96"/>
<polygon fill="#63b8ff" stroke="#63b8ff" points="164.27,-21.45 173.88,-16.98 163.58,-14.49 164.27,-21.45"/>
</a>
</g>
</g>
</g>
</svg>
