<?xml version="1.0" encoding="UTF-8" standalone="no"?>
<!DOCTYPE svg PUBLIC "-//W3C//DTD SVG 1.1//EN"
 "http://www.w3.org/Graphics/SVG/1.1/DTD/svg11.dtd">
<!-- Generated by graphviz version 12.2.1 (0)
 -->
<!-- Title: SettingsView::RestoreDefaults Pages: 1 -->
<svg width="481pt" height="27pt"
 viewBox="0.00 0.00 480.50 26.50" xmlns="http://www.w3.org/2000/svg" xmlns:xlink="http://www.w3.org/1999/xlink">
<g id="graph0" class="graph" transform="scale(1 1) rotate(0) translate(4 22.5)">
<title>SettingsView::RestoreDefaults</title>
<!-- Node1 -->
<g id="Node000001" class="node">
<title>Node1</title>
<g id="a_Node000001"><a xlink:title="Restores all settings across all tabs to their default values. Prompts the user for confirmation befo...">
<polygon fill="#999999" stroke="#666666" points="472.5,-18.5 323,-18.5 323,0 472.5,0 472.5,-18.5"/>
<text text-anchor="middle" x="397.75" y="-5" font-family="Helvetica,sans-Serif" font-size="10.00">SettingsView::RestoreDefaults</text>
</a>
</g>
</g>
<!-- Node2 -->
<g id="Node000002" class="node">
<title>Node2</title>
<g id="a_Node000002"><a xlink:href="classSettingsView.html#a88aeaa2ebb222180310ba66f0dba95d5" target="_top" xlink:title="Creates and arranges the main UI elements of the SettingsView. Sets up the main layout,...">
<polygon fill="white" stroke="#666666" points="287,-18.5 172.75,-18.5 172.75,0 287,0 287,-18.5"/>
<text text-anchor="middle" x="229.88" y="-5" font-family="Helvetica,sans-Serif" font-size="10.00">SettingsView::SetupUi</text>
</a>
</g>
</g>
<!-- Node1&#45;&gt;Node2 -->
<g id="edge1_Node000001_Node000002" class="edge">
<title>Node1&#45;&gt;Node2</title>
<g id="a_edge1_Node000001_Node000002"><a xlink:title=" ">
<path fill="none" stroke="#63b8ff" d="M311.06,-9.25C302.94,-9.25 294.85,-9.25 287.1,-9.25"/>
<polygon fill="#63b8ff" stroke="#63b8ff" points="311.03,-12.75 321.03,-9.25 311.03,-5.75 311.03,-12.75"/>
</a>
</g>
</g>
<!-- Node3 -->
<g id="Node000003" class="node">
<title>Node3</title>
<g id="a_Node000003"><a xlink:href="classSettingsView.html#a4b22f39018ca1c051b4d88f6d2636683" target="_top" xlink:title="Constructs the SettingsView. Initializes the UI, sets up all tabs including the security layers for t...">
<polygon fill="white" stroke="#666666" points="136.75,-18.5 0,-18.5 0,0 136.75,0 136.75,-18.5"/>
<text text-anchor="middle" x="68.38" y="-5" font-family="Helvetica,sans-Serif" font-size="10.00">SettingsView::SettingsView</text>
</a>
</g>
</g>
<!-- Node2&#45;&gt;Node3 -->
<g id="edge2_Node000002_Node000003" class="edge">
<title>Node2&#45;&gt;Node3</title>
<g id="a_edge2_Node000002_Node000003"><a xlink:title=" ">
<path fill="none" stroke="#63b8ff" d="M161.15,-9.25C153.2,-9.25 145.08,-9.25 137.13,-9.25"/>
<polygon fill="#63b8ff" stroke="#63b8ff" points="161.13,-12.75 171.13,-9.25 161.13,-5.75 161.13,-12.75"/>
</a>
</g>
</g>
</g>
</svg>
