<?xml version="1.0" encoding="UTF-8" standalone="no"?>
<!DOCTYPE svg PUBLIC "-//W3C//DTD SVG 1.1//EN"
 "http://www.w3.org/Graphics/SVG/1.1/DTD/svg11.dtd">
<!-- Generated by graphviz version 12.2.1 (0)
 -->
<!-- Title: Navbar Pages: 1 -->
<svg width="157pt" height="458pt"
 viewBox="0.00 0.00 156.50 457.50" xmlns="http://www.w3.org/2000/svg" xmlns:xlink="http://www.w3.org/1999/xlink">
<g id="graph0" class="graph" transform="scale(1 1) rotate(0) translate(4 453.5)">
<title>Navbar</title>
<!-- Node1 -->
<g id="Node000001" class="node">
<title>Node1</title>
<g id="a_Node000001"><a xlink:title="A custom QToolBar serving as the main navigation bar for the application.">
<polygon fill="#999999" stroke="none" points="148.5,-366 0,-366 0,0 148.5,0 148.5,-366"/>
<text text-anchor="start" x="58.5" y="-352.5" font-family="Helvetica,sans-Serif" font-size="10.00">Navbar</text>
<text text-anchor="start" x="5.5" y="-338" font-family="Helvetica,sans-Serif" font-size="10.00">&#45;</text>
<text text-anchor="start" x="14" y="-338" font-family="Helvetica,sans-Serif" font-size="10.00">QWidget * buttons_container_</text>
<text text-anchor="start" x="5.5" y="-323.5" font-family="Helvetica,sans-Serif" font-size="10.00">&#45;</text>
<text text-anchor="start" x="14" y="-323.5" font-family="Helvetica,sans-Serif" font-size="10.00">QSoundEffect * click</text>
<text text-anchor="start" x="14" y="-313" font-family="Helvetica,sans-Serif" font-size="10.00">_sound_</text>
<text text-anchor="start" x="5.5" y="-298.5" font-family="Helvetica,sans-Serif" font-size="10.00">&#45;</text>
<text text-anchor="start" x="14" y="-298.5" font-family="Helvetica,sans-Serif" font-size="10.00">QLabel * corner_element_</text>
<text text-anchor="start" x="5.5" y="-284" font-family="Helvetica,sans-Serif" font-size="10.00">&#45;</text>
<text text-anchor="start" x="14" y="-284" font-family="Helvetica,sans-Serif" font-size="10.00">CyberpunkButton * create</text>
<text text-anchor="start" x="14" y="-273.5" font-family="Helvetica,sans-Serif" font-size="10.00">_button_</text>
<text text-anchor="start" x="5.5" y="-259" font-family="Helvetica,sans-Serif" font-size="10.00">&#45;</text>
<text text-anchor="start" x="14" y="-259" font-family="Helvetica,sans-Serif" font-size="10.00">CyberpunkButton * join</text>
<text text-anchor="start" x="14" y="-248.5" font-family="Helvetica,sans-Serif" font-size="10.00">_button_</text>
<text text-anchor="start" x="5.5" y="-234" font-family="Helvetica,sans-Serif" font-size="10.00">&#45;</text>
<text text-anchor="start" x="14" y="-234" font-family="Helvetica,sans-Serif" font-size="10.00">QWidget * logo_container_</text>
<text text-anchor="start" x="5.5" y="-219.5" font-family="Helvetica,sans-Serif" font-size="10.00">&#45;</text>
<text text-anchor="start" x="14" y="-219.5" font-family="Helvetica,sans-Serif" font-size="10.00">QLabel * logo_label_</text>
<text text-anchor="start" x="5.5" y="-205" font-family="Helvetica,sans-Serif" font-size="10.00">&#45;</text>
<text text-anchor="start" x="14" y="-205" font-family="Helvetica,sans-Serif" font-size="10.00">QHBoxLayout * main</text>
<text text-anchor="start" x="14" y="-194.5" font-family="Helvetica,sans-Serif" font-size="10.00">_layout_</text>
<text text-anchor="start" x="5.5" y="-180" font-family="Helvetica,sans-Serif" font-size="10.00">&#45;</text>
<text text-anchor="start" x="14" y="-180" font-family="Helvetica,sans-Serif" font-size="10.00">NetworkStatusWidget</text>
<text text-anchor="start" x="14" y="-169.5" font-family="Helvetica,sans-Serif" font-size="10.00"> * network_status_</text>
<text text-anchor="start" x="5.5" y="-155" font-family="Helvetica,sans-Serif" font-size="10.00">&#45;</text>
<text text-anchor="start" x="14" y="-155" font-family="Helvetica,sans-Serif" font-size="10.00">CyberpunkButton * settings</text>
<text text-anchor="start" x="14" y="-144.5" font-family="Helvetica,sans-Serif" font-size="10.00">_button_</text>
<text text-anchor="start" x="5.5" y="-130" font-family="Helvetica,sans-Serif" font-size="10.00">&#45;</text>
<text text-anchor="start" x="14" y="-130" font-family="Helvetica,sans-Serif" font-size="10.00">QSpacerItem * spacer1_</text>
<text text-anchor="start" x="5.5" y="-115.5" font-family="Helvetica,sans-Serif" font-size="10.00">&#45;</text>
<text text-anchor="start" x="14" y="-115.5" font-family="Helvetica,sans-Serif" font-size="10.00">QSpacerItem * spacer2_</text>
<text text-anchor="start" x="4" y="-101" font-family="Helvetica,sans-Serif" font-size="10.00">+</text>
<text text-anchor="start" x="14" y="-101" font-family="Helvetica,sans-Serif" font-size="10.00">Navbar(QWidget *parent</text>
<text text-anchor="start" x="14" y="-90.5" font-family="Helvetica,sans-Serif" font-size="10.00">=nullptr)</text>
<text text-anchor="start" x="4" y="-76" font-family="Helvetica,sans-Serif" font-size="10.00">+</text>
<text text-anchor="start" x="14" y="-76" font-family="Helvetica,sans-Serif" font-size="10.00">void PlayClickSound</text>
<text text-anchor="start" x="14" y="-65.5" font-family="Helvetica,sans-Serif" font-size="10.00">() const</text>
<text text-anchor="start" x="4" y="-51" font-family="Helvetica,sans-Serif" font-size="10.00">+</text>
<text text-anchor="start" x="14" y="-51" font-family="Helvetica,sans-Serif" font-size="10.00">void SetChatMode(bool</text>
<text text-anchor="start" x="14" y="-40.5" font-family="Helvetica,sans-Serif" font-size="10.00"> inChat) const</text>
<text text-anchor="start" x="4.38" y="-26" font-family="Helvetica,sans-Serif" font-size="10.00">#</text>
<text text-anchor="start" x="14" y="-26" font-family="Helvetica,sans-Serif" font-size="10.00">void contextMenuEvent</text>
<text text-anchor="start" x="14" y="-15.5" font-family="Helvetica,sans-Serif" font-size="10.00">(QContextMenuEvent *event)</text>
<text text-anchor="start" x="14" y="-5" font-family="Helvetica,sans-Serif" font-size="10.00"> override</text>
<polygon fill="#666666" stroke="#666666" points="0,-349.5 0,-349.5 148.5,-349.5 148.5,-349.5 0,-349.5"/>
<polygon fill="#666666" stroke="#666666" points="0,-112.5 0,-112.5 12,-112.5 12,-112.5 0,-112.5"/>
<polygon fill="#666666" stroke="#666666" points="12,-112.5 12,-112.5 148.5,-112.5 148.5,-112.5 12,-112.5"/>
<polygon fill="none" stroke="#666666" points="0,0 0,-366 148.5,-366 148.5,0 0,0"/>
</a>
</g>
</g>
<!-- Node2 -->
<g id="Node000002" class="node">
<title>Node2</title>
<g id="a_Node000002"><a xlink:title=" ">
<polygon fill="white" stroke="none" points="98.5,-449.5 50,-449.5 50,-402 98.5,-402 98.5,-449.5"/>
<text text-anchor="start" x="54" y="-436" font-family="Helvetica,sans-Serif" font-size="10.00">QToolBar</text>
<text text-anchor="start" x="72.75" y="-421.5" font-family="Helvetica,sans-Serif" font-size="10.00"> </text>
<text text-anchor="start" x="72.75" y="-407" font-family="Helvetica,sans-Serif" font-size="10.00"> </text>
<polygon fill="#666666" stroke="#666666" points="50,-433 50,-433 98.5,-433 98.5,-433 50,-433"/>
<polygon fill="#666666" stroke="#666666" points="50,-418.5 50,-418.5 98.5,-418.5 98.5,-418.5 50,-418.5"/>
<polygon fill="none" stroke="#666666" points="50,-402 50,-449.5 98.5,-449.5 98.5,-402 50,-402"/>
</a>
</g>
</g>
<!-- Node2&#45;&gt;Node1 -->
<g id="edge1_Node000001_Node000002" class="edge">
<title>Node2&#45;&gt;Node1</title>
<g id="a_edge1_Node000001_Node000002"><a xlink:title=" ">
<path fill="none" stroke="#63b8ff" d="M74.25,-390.8C74.25,-383.31 74.25,-374.87 74.25,-365.8"/>
<polygon fill="none" stroke="#63b8ff" points="70.75,-390.59 74.25,-400.59 77.75,-390.59 70.75,-390.59"/>
</a>
</g>
</g>
</g>
</svg>
