<?xml version="1.0" encoding="UTF-8" standalone="no"?>
<!DOCTYPE svg PUBLIC "-//W3C//DTD SVG 1.1//EN"
 "http://www.w3.org/Graphics/SVG/1.1/DTD/svg11.dtd">
<!-- Generated by graphviz version 12.2.1 (0)
 -->
<!-- Title: SecurityCodeLayer::SecurityCodeLayer Pages: 1 -->
<svg width="617pt" height="126pt"
 viewBox="0.00 0.00 616.50 126.00" xmlns="http://www.w3.org/2000/svg" xmlns:xlink="http://www.w3.org/1999/xlink">
<g id="graph0" class="graph" transform="scale(1 1) rotate(0) translate(4 122)">
<title>SecurityCodeLayer::SecurityCodeLayer</title>
<!-- Node1 -->
<g id="Node000001" class="node">
<title>Node1</title>
<g id="a_Node000001"><a xlink:title="Constructs a SecurityCodeLayer. Initializes the UI elements (title, instructions, input fields,...">
<polygon fill="#999999" stroke="#666666" points="104.5,-71 0,-71 0,-42 104.5,-42 104.5,-71"/>
<text text-anchor="start" x="8" y="-57.5" font-family="Helvetica,sans-Serif" font-size="10.00">SecurityCodeLayer::</text>
<text text-anchor="middle" x="52.25" y="-47" font-family="Helvetica,sans-Serif" font-size="10.00">SecurityCodeLayer</text>
</a>
</g>
</g>
<!-- Node2 -->
<g id="Node000002" class="node">
<title>Node2</title>
<g id="a_Node000002"><a xlink:href="classTranslationManager.html#a370292d4133519fccf401a6b27b2f6a6" target="_top" xlink:title="Returns an instance of the TranslationManager singleton.">
<polygon fill="white" stroke="#666666" points="261.12,-118 160.38,-118 160.38,-89 261.12,-89 261.12,-118"/>
<text text-anchor="start" x="168.38" y="-104.5" font-family="Helvetica,sans-Serif" font-size="10.00">TranslationManager</text>
<text text-anchor="middle" x="210.75" y="-94" font-family="Helvetica,sans-Serif" font-size="10.00">::GetInstance</text>
</a>
</g>
</g>
<!-- Node1&#45;&gt;Node2 -->
<g id="edge1_Node000001_Node000002" class="edge">
<title>Node1&#45;&gt;Node2</title>
<g id="a_edge1_Node000001_Node000002"><a xlink:title=" ">
<path fill="none" stroke="#63b8ff" d="M102.77,-71.37C117.47,-75.79 133.74,-80.67 149.06,-85.27"/>
<polygon fill="#63b8ff" stroke="#63b8ff" points="147.98,-88.6 158.57,-88.13 150,-81.9 147.98,-88.6"/>
</a>
</g>
</g>
<!-- Node4 -->
<g id="Node000004" class="node">
<title>Node4</title>
<g id="a_Node000004"><a xlink:href="classSecurityCodeLayer.html#ab9379c05ccc6373b0611fbb64502e074" target="_top" xlink:title="Slot called when the text in any input field changes. Handles automatic focus progression to the next...">
<polygon fill="white" stroke="#666666" points="263,-71 158.5,-71 158.5,-42 263,-42 263,-71"/>
<text text-anchor="start" x="166.5" y="-57.5" font-family="Helvetica,sans-Serif" font-size="10.00">SecurityCodeLayer::</text>
<text text-anchor="middle" x="210.75" y="-47" font-family="Helvetica,sans-Serif" font-size="10.00">OnDigitEntered</text>
</a>
</g>
</g>
<!-- Node1&#45;&gt;Node4 -->
<g id="edge3_Node000001_Node000004" class="edge">
<title>Node1&#45;&gt;Node4</title>
<g id="a_edge3_Node000001_Node000004"><a xlink:title=" ">
<path fill="none" stroke="#63b8ff" d="M104.93,-56.5C118.28,-56.5 132.81,-56.5 146.68,-56.5"/>
<polygon fill="#63b8ff" stroke="#63b8ff" points="146.61,-60 156.61,-56.5 146.61,-53 146.61,-60"/>
</a>
</g>
</g>
<!-- Node11 -->
<g id="Node000011" class="node">
<title>Node11</title>
<g id="a_Node000011"><a xlink:href="classSecurityLayer.html#adc79fa2453a0034a739a7cfcc225db42" target="_top" xlink:title="Constructs a SecurityLayer.">
<polygon fill="white" stroke="#666666" points="281,-23.75 140.5,-23.75 140.5,-5.25 281,-5.25 281,-23.75"/>
<text text-anchor="middle" x="210.75" y="-10.25" font-family="Helvetica,sans-Serif" font-size="10.00">SecurityLayer::SecurityLayer</text>
</a>
</g>
</g>
<!-- Node1&#45;&gt;Node11 -->
<g id="edge8_Node000001_Node000011" class="edge">
<title>Node1&#45;&gt;Node11</title>
<g id="a_edge8_Node000001_Node000011"><a xlink:title=" ">
<path fill="none" stroke="#63b8ff" d="M104.93,-42.63C123.51,-37.64 144.36,-32.05 162.54,-27.17"/>
<polygon fill="#63b8ff" stroke="#63b8ff" points="163.25,-30.6 172.01,-24.63 161.44,-23.84 163.25,-30.6"/>
</a>
</g>
</g>
<!-- Node3 -->
<g id="Node000003" class="node">
<title>Node3</title>
<g id="a_Node000003"><a xlink:href="classTranslationManager.html#afcf7f2ccfdf410f09d0a740c1826a1f3" target="_top" xlink:title="Private constructor to enforce the singleton pattern.">
<polygon fill="white" stroke="#666666" points="423.75,-118 317,-118 317,-89 423.75,-89 423.75,-118"/>
<text text-anchor="start" x="325" y="-104.5" font-family="Helvetica,sans-Serif" font-size="10.00">TranslationManager</text>
<text text-anchor="middle" x="370.38" y="-94" font-family="Helvetica,sans-Serif" font-size="10.00">::TranslationManager</text>
</a>
</g>
</g>
<!-- Node2&#45;&gt;Node3 -->
<g id="edge2_Node000002_Node000003" class="edge">
<title>Node2&#45;&gt;Node3</title>
<g id="a_edge2_Node000002_Node000003"><a xlink:title=" ">
<path fill="none" stroke="#63b8ff" d="M261.62,-103.5C275.43,-103.5 290.61,-103.5 305.11,-103.5"/>
<polygon fill="#63b8ff" stroke="#63b8ff" points="305.05,-107 315.05,-103.5 305.05,-100 305.05,-107"/>
</a>
</g>
</g>
<!-- Node5 -->
<g id="Node000005" class="node">
<title>Node5</title>
<g id="a_Node000005"><a xlink:href="classSecurityCodeLayer.html#ae952b967add30cb12c1a68adaaa3ec54" target="_top" xlink:title="Checks if the entered code matches the current security code. Called when all input fields are filled...">
<polygon fill="white" stroke="#666666" points="422.62,-71 318.12,-71 318.12,-42 422.62,-42 422.62,-71"/>
<text text-anchor="start" x="326.12" y="-57.5" font-family="Helvetica,sans-Serif" font-size="10.00">SecurityCodeLayer::</text>
<text text-anchor="middle" x="370.38" y="-47" font-family="Helvetica,sans-Serif" font-size="10.00">CheckSecurityCode</text>
</a>
</g>
</g>
<!-- Node4&#45;&gt;Node5 -->
<g id="edge4_Node000004_Node000005" class="edge">
<title>Node4&#45;&gt;Node5</title>
<g id="a_edge4_Node000004_Node000005"><a xlink:title=" ">
<path fill="none" stroke="#63b8ff" d="M263.36,-56.5C277.11,-56.5 292.11,-56.5 306.39,-56.5"/>
<polygon fill="#63b8ff" stroke="#63b8ff" points="306.13,-60 316.13,-56.5 306.13,-53 306.13,-60"/>
</a>
</g>
</g>
<!-- Node6 -->
<g id="Node000006" class="node">
<title>Node6</title>
<g id="a_Node000006"><a xlink:href="classSecurityCodeLayer.html#a698e622b7e3a9e3543059f57c9b17a81" target="_top" xlink:title="Gets the code currently entered by the user by concatenating the text from all input fields.">
<polygon fill="white" stroke="#666666" points="586.38,-113 481.88,-113 481.88,-84 586.38,-84 586.38,-113"/>
<text text-anchor="start" x="489.88" y="-99.5" font-family="Helvetica,sans-Serif" font-size="10.00">SecurityCodeLayer::</text>
<text text-anchor="middle" x="534.12" y="-89" font-family="Helvetica,sans-Serif" font-size="10.00">GetEnteredCode</text>
</a>
</g>
</g>
<!-- Node5&#45;&gt;Node6 -->
<g id="edge5_Node000005_Node000006" class="edge">
<title>Node5&#45;&gt;Node6</title>
<g id="a_edge5_Node000005_Node000006"><a xlink:title=" ">
<path fill="none" stroke="#63b8ff" d="M423,-69.9C438.17,-73.84 454.93,-78.2 470.71,-82.29"/>
<polygon fill="#63b8ff" stroke="#63b8ff" points="469.41,-85.57 479.97,-84.7 471.17,-78.8 469.41,-85.57"/>
</a>
</g>
</g>
<!-- Node7 -->
<g id="Node000007" class="node">
<title>Node7</title>
<g id="a_Node000007"><a xlink:href="classSecurityLayer.html#a6b6759d7fd1e729ff63ea9be3c121878" target="_top" xlink:title="Emitted when the user successfully completes the security challenge presented by this layer.">
<polygon fill="white" stroke="#666666" points="608.5,-65.75 459.75,-65.75 459.75,-47.25 608.5,-47.25 608.5,-65.75"/>
<text text-anchor="middle" x="534.12" y="-52.25" font-family="Helvetica,sans-Serif" font-size="10.00">SecurityLayer::layerCompleted</text>
</a>
</g>
</g>
<!-- Node5&#45;&gt;Node7 -->
<g id="edge6_Node000005_Node000007" class="edge">
<title>Node5&#45;&gt;Node7</title>
<g id="a_edge6_Node000005_Node000007"><a xlink:title=" ">
<path fill="none" stroke="#63b8ff" d="M423,-56.5C431.03,-56.5 439.52,-56.5 448.06,-56.5"/>
<polygon fill="#63b8ff" stroke="#63b8ff" points="447.78,-60 457.78,-56.5 447.78,-53 447.78,-60"/>
</a>
</g>
</g>
<!-- Node8 -->
<g id="Node000008" class="node">
<title>Node8</title>
<g id="a_Node000008"><a xlink:href="classSecurityCodeLayer.html#a1f24bdfc759b707fe364b4a6d377bab5" target="_top" xlink:title="Triggers a visual error effect on the input fields. Temporarily changes the background and border col...">
<polygon fill="#fff0f0" stroke="red" points="586.38,-29 481.88,-29 481.88,0 586.38,0 586.38,-29"/>
<text text-anchor="start" x="489.88" y="-15.5" font-family="Helvetica,sans-Serif" font-size="10.00">SecurityCodeLayer::</text>
<text text-anchor="middle" x="534.12" y="-5" font-family="Helvetica,sans-Serif" font-size="10.00">ShowErrorEffect</text>
</a>
</g>
</g>
<!-- Node5&#45;&gt;Node8 -->
<g id="edge7_Node000005_Node000008" class="edge">
<title>Node5&#45;&gt;Node8</title>
<g id="a_edge7_Node000005_Node000008"><a xlink:title=" ">
<path fill="none" stroke="#63b8ff" d="M423,-43.1C438.17,-39.16 454.93,-34.8 470.71,-30.71"/>
<polygon fill="#63b8ff" stroke="#63b8ff" points="471.17,-34.2 479.97,-28.3 469.41,-27.43 471.17,-34.2"/>
</a>
</g>
</g>
</g>
</svg>
