<?xml version="1.0" encoding="UTF-8" standalone="no"?>
<!DOCTYPE svg PUBLIC "-//W3C//DTD SVG 1.1//EN"
 "http://www.w3.org/Graphics/SVG/1.1/DTD/svg11.dtd">
<!-- Generated by graphviz version 12.2.1 (0)
 -->
<!-- Title: WavelengthConfig::configChanged Pages: 1 -->
<svg width="652pt" height="855pt"
 viewBox="0.00 0.00 651.75 855.00" xmlns="http://www.w3.org/2000/svg" xmlns:xlink="http://www.w3.org/1999/xlink">
<g id="graph0" class="graph" transform="scale(1 1) rotate(0) translate(4 851)">
<title>WavelengthConfig::configChanged</title>
<!-- Node1 -->
<g id="Node000001" class="node">
<title>Node1</title>
<g id="a_Node000001"><a xlink:title="Emitted when a configuration setting changes.">
<polygon fill="#999999" stroke="#666666" points="643.75,-442 516.75,-442 516.75,-413 643.75,-413 643.75,-442"/>
<text text-anchor="start" x="524.75" y="-428.5" font-family="Helvetica,sans-Serif" font-size="10.00">WavelengthConfig::config</text>
<text text-anchor="middle" x="580.25" y="-418" font-family="Helvetica,sans-Serif" font-size="10.00">Changed</text>
</a>
</g>
</g>
<!-- Node2 -->
<g id="Node000002" class="node">
<title>Node2</title>
<g id="a_Node000002"><a xlink:href="classCommunicationStream.html#a4fe34ce867f3ece68bda3e512c544e18" target="_top" xlink:title="Constructs a CommunicationStream widget. Initializes OpenGL format, timers for animation and glitches...">
<polygon fill="white" stroke="#666666" points="451.12,-847 329.38,-847 329.38,-818 451.12,-818 451.12,-847"/>
<text text-anchor="start" x="337.38" y="-833.5" font-family="Helvetica,sans-Serif" font-size="10.00">CommunicationStream</text>
<text text-anchor="middle" x="390.25" y="-823" font-family="Helvetica,sans-Serif" font-size="10.00">::CommunicationStream</text>
</a>
</g>
</g>
<!-- Node1&#45;&gt;Node2 -->
<g id="edge1_Node000001_Node000002" class="edge">
<title>Node1&#45;&gt;Node2</title>
<g id="a_edge1_Node000001_Node000002"><a xlink:title=" ">
<path fill="none" stroke="#63b8ff" d="M575.68,-453.73C564.77,-530.36 529.58,-751.8 480.75,-803.5 472.79,-811.93 462.36,-817.92 451.44,-822.16"/>
<polygon fill="#63b8ff" stroke="#63b8ff" points="579.15,-454.21 577.07,-443.83 572.22,-453.24 579.15,-454.21"/>
</a>
</g>
</g>
<!-- Node3 -->
<g id="Node000003" class="node">
<title>Node3</title>
<g id="a_Node000003"><a xlink:href="classSessionCoordinator.html#a0a388bb572398d11b8959eac0a8e612f" target="_top" xlink:title="Connects signals between the various Wavelength components. Called during Initialize().">
<polygon fill="white" stroke="#666666" points="251.38,-557 149.88,-557 149.88,-528 251.38,-528 251.38,-557"/>
<text text-anchor="start" x="157.88" y="-543.5" font-family="Helvetica,sans-Serif" font-size="10.00">SessionCoordinator</text>
<text text-anchor="middle" x="200.62" y="-533" font-family="Helvetica,sans-Serif" font-size="10.00">::ConnectSignals</text>
</a>
</g>
</g>
<!-- Node1&#45;&gt;Node3 -->
<g id="edge2_Node000001_Node000003" class="edge">
<title>Node1&#45;&gt;Node3</title>
<g id="a_edge2_Node000001_Node000003"><a xlink:title=" ">
<path fill="none" stroke="#63b8ff" d="M575.8,-453.59C565.51,-526.83 532.56,-731.47 480.75,-770.5 416.49,-818.9 366.94,-814.73 299.75,-770.5 224.34,-720.86 206.64,-599.77 202.7,-557.42"/>
<polygon fill="#63b8ff" stroke="#63b8ff" points="579.25,-454.14 577.15,-443.76 572.32,-453.19 579.25,-454.14"/>
</a>
</g>
</g>
<!-- Node5 -->
<g id="Node000005" class="node">
<title>Node5</title>
<g id="a_Node000005"><a xlink:href="classWavelengthConfig.html#a045bf9dd6f33936f8c172525958f446c" target="_top" xlink:title="Restores all configuration settings to their default values. Also clears saved shortcuts in persisten...">
<polygon fill="white" stroke="#666666" points="457.5,-761 323,-761 323,-732 457.5,-732 457.5,-761"/>
<text text-anchor="start" x="331" y="-747.5" font-family="Helvetica,sans-Serif" font-size="10.00">WavelengthConfig::Restore</text>
<text text-anchor="middle" x="390.25" y="-737" font-family="Helvetica,sans-Serif" font-size="10.00">Defaults</text>
</a>
</g>
</g>
<!-- Node1&#45;&gt;Node5 -->
<g id="edge4_Node000001_Node000005" class="edge">
<title>Node1&#45;&gt;Node5</title>
<g id="a_edge4_Node000001_Node000005"><a xlink:title=" ">
<path fill="none" stroke="#63b8ff" d="M578.51,-453.73C575.43,-511.39 559.72,-649.85 480.75,-723.5 474.18,-729.63 466.2,-734.17 457.75,-737.54"/>
<polygon fill="#63b8ff" stroke="#63b8ff" points="582,-454.06 578.94,-443.92 575.01,-453.75 582,-454.06"/>
</a>
</g>
</g>
<!-- Node6 -->
<g id="Node000006" class="node">
<title>Node6</title>
<g id="a_Node000006"><a xlink:href="classWavelengthConfig.html#a5860f4c0c2e368828d9287c43b2cfcaa" target="_top" xlink:title="Sets the main background color. Adds the color to recent colors. Emits configChanged(&quot;background_colo...">
<polygon fill="white" stroke="#666666" points="473.62,-714 306.88,-714 306.88,-685 473.62,-685 473.62,-714"/>
<text text-anchor="start" x="314.88" y="-700.5" font-family="Helvetica,sans-Serif" font-size="10.00">WavelengthConfig::SetBackground</text>
<text text-anchor="middle" x="390.25" y="-690" font-family="Helvetica,sans-Serif" font-size="10.00">Color</text>
</a>
</g>
</g>
<!-- Node1&#45;&gt;Node6 -->
<g id="edge5_Node000001_Node000006" class="edge">
<title>Node1&#45;&gt;Node6</title>
<g id="a_edge5_Node000001_Node000006"><a xlink:title=" ">
<path fill="none" stroke="#63b8ff" d="M576.62,-453.74C570.08,-504.6 548.39,-616.84 480.75,-676.5 477.26,-679.58 473.41,-682.25 469.33,-684.58"/>
<polygon fill="#63b8ff" stroke="#63b8ff" points="580.07,-454.32 577.77,-443.98 573.12,-453.5 580.07,-454.32"/>
</a>
</g>
</g>
<!-- Node7 -->
<g id="Node000007" class="node">
<title>Node7</title>
<g id="a_Node000007"><a xlink:href="classWavelengthConfig.html#a0cbdae91c44d8833bc7f89be1bf9aa93" target="_top" xlink:title="Sets the color for the blob animation. Adds the color to recent colors. Emits configChanged(&quot;blob_col...">
<polygon fill="white" stroke="#666666" points="457.88,-667 322.62,-667 322.62,-638 457.88,-638 457.88,-667"/>
<text text-anchor="start" x="330.62" y="-653.5" font-family="Helvetica,sans-Serif" font-size="10.00">WavelengthConfig::SetBlob</text>
<text text-anchor="middle" x="390.25" y="-643" font-family="Helvetica,sans-Serif" font-size="10.00">Color</text>
</a>
</g>
</g>
<!-- Node1&#45;&gt;Node7 -->
<g id="edge6_Node000001_Node000007" class="edge">
<title>Node1&#45;&gt;Node7</title>
<g id="a_edge6_Node000001_Node000007"><a xlink:title=" ">
<path fill="none" stroke="#63b8ff" d="M573.96,-453.57C563.78,-496.87 537.28,-583.38 480.75,-629.5 474.04,-634.98 466.17,-639.17 457.94,-642.37"/>
<polygon fill="#63b8ff" stroke="#63b8ff" points="577.37,-454.34 576.13,-443.81 570.54,-452.82 577.37,-454.34"/>
</a>
</g>
</g>
<!-- Node8 -->
<g id="Node000008" class="node">
<title>Node8</title>
<g id="a_Node000008"><a xlink:href="classWavelengthConfig.html#ad0b7e3e3eeba2257aa81fcfb0550bba7" target="_top" xlink:title="Sets the connection timeout in milliseconds. Emits configChanged(&quot;connectionTimeout&quot;) if the value ch...">
<polygon fill="white" stroke="#666666" points="472.88,-620 307.62,-620 307.62,-591 472.88,-591 472.88,-620"/>
<text text-anchor="start" x="315.62" y="-606.5" font-family="Helvetica,sans-Serif" font-size="10.00">WavelengthConfig::SetConnection</text>
<text text-anchor="middle" x="390.25" y="-596" font-family="Helvetica,sans-Serif" font-size="10.00">Timeout</text>
</a>
</g>
</g>
<!-- Node1&#45;&gt;Node8 -->
<g id="edge7_Node000001_Node000008" class="edge">
<title>Node1&#45;&gt;Node8</title>
<g id="a_edge7_Node000001_Node000008"><a xlink:title=" ">
<path fill="none" stroke="#63b8ff" d="M569.85,-452.97C555.81,-487.41 526.08,-548.32 480.75,-581.5 475.95,-585.02 470.66,-588.02 465.14,-590.58"/>
<polygon fill="#63b8ff" stroke="#63b8ff" points="573.05,-454.38 573.45,-443.79 566.54,-451.82 573.05,-454.38"/>
</a>
</g>
</g>
<!-- Node9 -->
<g id="Node000009" class="node">
<title>Node9</title>
<g id="a_Node000009"><a xlink:href="classWavelengthConfig.html#a927223b2a63beecbc9569ca83ab9ffa3" target="_top" xlink:title="Enables or disables debug mode. Emits configChanged(&quot;debugMode&quot;) if the value changes.">
<polygon fill="white" stroke="#666666" points="474.38,-572.75 306.12,-572.75 306.12,-554.25 474.38,-554.25 474.38,-572.75"/>
<text text-anchor="middle" x="390.25" y="-559.25" font-family="Helvetica,sans-Serif" font-size="10.00">WavelengthConfig::SetDebugMode</text>
</a>
</g>
</g>
<!-- Node1&#45;&gt;Node9 -->
<g id="edge8_Node000001_Node000009" class="edge">
<title>Node1&#45;&gt;Node9</title>
<g id="a_edge8_Node000001_Node000009"><a xlink:title=" ">
<path fill="none" stroke="#63b8ff" d="M565.87,-451.82C549.51,-479.13 519.18,-522.63 480.75,-545.5 475.17,-548.82 469.07,-551.54 462.78,-553.77"/>
<polygon fill="#63b8ff" stroke="#63b8ff" points="568.69,-453.93 570.69,-443.53 562.64,-450.41 568.69,-453.93"/>
</a>
</g>
</g>
<!-- Node10 -->
<g id="Node000010" class="node">
<title>Node10</title>
<g id="a_Node000010"><a xlink:href="classWavelengthConfig.html#ad10ffe62231ae9e11423239074d13c35" target="_top" xlink:title="Sets the color for the background grid lines. Adds the color to recent colors. Emits configChanged(&quot;g...">
<polygon fill="white" stroke="#666666" points="457.12,-536 323.38,-536 323.38,-507 457.12,-507 457.12,-536"/>
<text text-anchor="start" x="331.38" y="-522.5" font-family="Helvetica,sans-Serif" font-size="10.00">WavelengthConfig::SetGrid</text>
<text text-anchor="middle" x="390.25" y="-512" font-family="Helvetica,sans-Serif" font-size="10.00">Color</text>
</a>
</g>
</g>
<!-- Node1&#45;&gt;Node10 -->
<g id="edge9_Node000001_Node000010" class="edge">
<title>Node1&#45;&gt;Node10</title>
<g id="a_edge9_Node000001_Node000010"><a xlink:title=" ">
<path fill="none" stroke="#63b8ff" d="M554.09,-449.71C535.12,-465.4 507.82,-485.82 480.75,-498.5 473.34,-501.97 465.33,-504.97 457.26,-507.55"/>
<polygon fill="#63b8ff" stroke="#63b8ff" points="556.16,-452.55 561.54,-443.42 551.65,-447.2 556.16,-452.55"/>
</a>
</g>
</g>
<!-- Node11 -->
<g id="Node000011" class="node">
<title>Node11</title>
<g id="a_Node000011"><a xlink:href="classWavelengthConfig.html#ab376dcd11fe15ef38fb3d6cbd847b364" target="_top" xlink:title="Sets the spacing between background grid lines. Emits configChanged(&quot;grid_spacing&quot;) if the value chan...">
<polygon fill="white" stroke="#666666" points="457.12,-489 323.38,-489 323.38,-460 457.12,-460 457.12,-489"/>
<text text-anchor="start" x="331.38" y="-475.5" font-family="Helvetica,sans-Serif" font-size="10.00">WavelengthConfig::SetGrid</text>
<text text-anchor="middle" x="390.25" y="-465" font-family="Helvetica,sans-Serif" font-size="10.00">Spacing</text>
</a>
</g>
</g>
<!-- Node1&#45;&gt;Node11 -->
<g id="edge10_Node000001_Node000011" class="edge">
<title>Node1&#45;&gt;Node11</title>
<g id="a_edge10_Node000001_Node000011"><a xlink:title=" ">
<path fill="none" stroke="#63b8ff" d="M508.56,-445.17C489.66,-449.9 469.42,-454.96 451.16,-459.52"/>
<polygon fill="#63b8ff" stroke="#63b8ff" points="509.19,-448.62 518.04,-442.8 507.49,-441.83 509.19,-448.62"/>
</a>
</g>
</g>
<!-- Node12 -->
<g id="Node000012" class="node">
<title>Node12</title>
<g id="a_Node000012"><a xlink:href="classWavelengthConfig.html#a384c6ba2e10ba5fa462392e787bbc475" target="_top" xlink:title="Sets the keep&#45;alive interval in milliseconds. Emits configChanged(&quot;keepAliveInterval&quot;) if the value c...">
<polygon fill="white" stroke="#666666" points="459,-442 321.5,-442 321.5,-413 459,-413 459,-442"/>
<text text-anchor="start" x="329.5" y="-428.5" font-family="Helvetica,sans-Serif" font-size="10.00">WavelengthConfig::SetKeep</text>
<text text-anchor="middle" x="390.25" y="-418" font-family="Helvetica,sans-Serif" font-size="10.00">AliveInterval</text>
</a>
</g>
</g>
<!-- Node1&#45;&gt;Node12 -->
<g id="edge11_Node000001_Node000012" class="edge">
<title>Node1&#45;&gt;Node12</title>
<g id="a_edge11_Node000001_Node000012"><a xlink:title=" ">
<path fill="none" stroke="#63b8ff" d="M505.01,-427.5C489.9,-427.5 474.09,-427.5 459.22,-427.5"/>
<polygon fill="#63b8ff" stroke="#63b8ff" points="504.87,-431 514.87,-427.5 504.87,-424 504.87,-431"/>
</a>
</g>
</g>
<!-- Node13 -->
<g id="Node000013" class="node">
<title>Node13</title>
<g id="a_Node000013"><a xlink:href="classWavelengthConfig.html#aa229f7aefaa6455132634b01a9ef7741" target="_top" xlink:title="Sets the application language code. Emits configChanged(&quot;languageCode&quot;) if the value changes....">
<polygon fill="white" stroke="#666666" points="480.75,-394.75 299.75,-394.75 299.75,-376.25 480.75,-376.25 480.75,-394.75"/>
<text text-anchor="middle" x="390.25" y="-381.25" font-family="Helvetica,sans-Serif" font-size="10.00">WavelengthConfig::SetLanguageCode</text>
</a>
</g>
</g>
<!-- Node1&#45;&gt;Node13 -->
<g id="edge12_Node000001_Node000013" class="edge">
<title>Node1&#45;&gt;Node13</title>
<g id="a_edge12_Node000001_Node000013"><a xlink:title=" ">
<path fill="none" stroke="#63b8ff" d="M505.56,-410.12C497.2,-408.2 488.79,-406.29 480.75,-404.5 466.8,-401.39 451.59,-398.12 437.74,-395.18"/>
<polygon fill="#63b8ff" stroke="#63b8ff" points="504.5,-413.47 515.03,-412.31 506.07,-406.65 504.5,-413.47"/>
</a>
</g>
</g>
<!-- Node14 -->
<g id="Node000014" class="node">
<title>Node14</title>
<g id="a_Node000014"><a xlink:href="classWavelengthConfig.html#ad320e542bc5422af0f4e3601b1248a7f" target="_top" xlink:title="Sets the maximum number of reconnection attempts. Emits configChanged(&quot;maxReconnectAttempts&quot;) if the ...">
<polygon fill="white" stroke="#666666" points="457.88,-358 322.62,-358 322.62,-329 457.88,-329 457.88,-358"/>
<text text-anchor="start" x="330.62" y="-344.5" font-family="Helvetica,sans-Serif" font-size="10.00">WavelengthConfig::SetMax</text>
<text text-anchor="middle" x="390.25" y="-334" font-family="Helvetica,sans-Serif" font-size="10.00">ReconnectAttempts</text>
</a>
</g>
</g>
<!-- Node1&#45;&gt;Node14 -->
<g id="edge13_Node000001_Node000014" class="edge">
<title>Node1&#45;&gt;Node14</title>
<g id="a_edge13_Node000001_Node000014"><a xlink:title=" ">
<path fill="none" stroke="#63b8ff" d="M549.41,-406.23C530.47,-393.53 505.05,-377.9 480.75,-367.5 472.76,-364.08 464.17,-361.04 455.57,-358.36"/>
<polygon fill="#63b8ff" stroke="#63b8ff" points="547.19,-408.95 557.43,-411.7 551.14,-403.17 547.19,-408.95"/>
</a>
</g>
</g>
<!-- Node15 -->
<g id="Node000015" class="node">
<title>Node15</title>
<g id="a_Node000015"><a xlink:href="classWavelengthConfig.html#adbb3b510e5b4b630167afc82f7d07d61" target="_top" xlink:title="Sets the preferred starting frequency. Validates that the frequency is a number &gt;= 130....">
<polygon fill="white" stroke="#666666" points="468,-311 312.5,-311 312.5,-282 468,-282 468,-311"/>
<text text-anchor="start" x="320.5" y="-297.5" font-family="Helvetica,sans-Serif" font-size="10.00">WavelengthConfig::SetPreferred</text>
<text text-anchor="middle" x="390.25" y="-287" font-family="Helvetica,sans-Serif" font-size="10.00">StartFrequency</text>
</a>
</g>
</g>
<!-- Node1&#45;&gt;Node15 -->
<g id="edge14_Node000001_Node000015" class="edge">
<title>Node1&#45;&gt;Node15</title>
<g id="a_edge14_Node000001_Node000015"><a xlink:title=" ">
<path fill="none" stroke="#63b8ff" d="M563.22,-403.26C545.79,-378.78 515.68,-341.65 480.75,-320.5 474.97,-317 468.68,-314 462.2,-311.44"/>
<polygon fill="#63b8ff" stroke="#63b8ff" points="560.25,-405.11 568.83,-411.34 566,-401.12 560.25,-405.11"/>
</a>
</g>
</g>
<!-- Node16 -->
<g id="Node000016" class="node">
<title>Node16</title>
<g id="a_Node000016"><a xlink:href="classWavelengthConfig.html#a0ae0d877107f207bf625e2ca33ea64c0" target="_top" xlink:title="Sets the relay server address. Emits configChanged(&quot;relayServerAddress&quot;) if the value changes.">
<polygon fill="white" stroke="#666666" points="460.5,-217 320,-217 320,-188 460.5,-188 460.5,-217"/>
<text text-anchor="start" x="328" y="-203.5" font-family="Helvetica,sans-Serif" font-size="10.00">WavelengthConfig::SetRelay</text>
<text text-anchor="middle" x="390.25" y="-193" font-family="Helvetica,sans-Serif" font-size="10.00">ServerAddress</text>
</a>
</g>
</g>
<!-- Node1&#45;&gt;Node16 -->
<g id="edge15_Node000001_Node000016" class="edge">
<title>Node1&#45;&gt;Node16</title>
<g id="a_edge15_Node000001_Node000016"><a xlink:title=" ">
<path fill="none" stroke="#63b8ff" d="M573.79,-401.3C563.42,-358.21 536.72,-272.56 480.75,-226.5 474.79,-221.59 467.91,-217.68 460.68,-214.57"/>
<polygon fill="#63b8ff" stroke="#63b8ff" points="570.37,-402.05 576.01,-411.02 577.2,-400.5 570.37,-402.05"/>
</a>
</g>
</g>
<!-- Node19 -->
<g id="Node000019" class="node">
<title>Node19</title>
<g id="a_Node000019"><a xlink:href="classWavelengthConfig.html#a20c80f355264bab3a33a956ed52d92ed" target="_top" xlink:title="Sets the relay server port. Emits configChanged(&quot;relayServerPort&quot;) if the value changes.">
<polygon fill="white" stroke="#666666" points="460.5,-264 320,-264 320,-235 460.5,-235 460.5,-264"/>
<text text-anchor="start" x="328" y="-250.5" font-family="Helvetica,sans-Serif" font-size="10.00">WavelengthConfig::SetRelay</text>
<text text-anchor="middle" x="390.25" y="-240" font-family="Helvetica,sans-Serif" font-size="10.00">ServerPort</text>
</a>
</g>
</g>
<!-- Node1&#45;&gt;Node19 -->
<g id="edge19_Node000001_Node000019" class="edge">
<title>Node1&#45;&gt;Node19</title>
<g id="a_edge19_Node000001_Node000019"><a xlink:title=" ">
<path fill="none" stroke="#63b8ff" d="M569.85,-402.03C555.81,-367.59 526.08,-306.68 480.75,-273.5 474.65,-269.03 467.77,-265.4 460.61,-262.44"/>
<polygon fill="#63b8ff" stroke="#63b8ff" points="566.54,-403.18 573.45,-411.21 573.05,-400.62 566.54,-403.18"/>
</a>
</g>
</g>
<!-- Node20 -->
<g id="Node000020" class="node">
<title>Node20</title>
<g id="a_Node000020"><a xlink:href="classWavelengthConfig.html#a9c3abad31355863be9a66ea30cdcbedb" target="_top" xlink:title="Sets the color for stream visualization elements. Adds the color to recent colors....">
<polygon fill="white" stroke="#666666" points="463.88,-170 316.62,-170 316.62,-141 463.88,-141 463.88,-170"/>
<text text-anchor="start" x="324.62" y="-156.5" font-family="Helvetica,sans-Serif" font-size="10.00">WavelengthConfig::SetStream</text>
<text text-anchor="middle" x="390.25" y="-146" font-family="Helvetica,sans-Serif" font-size="10.00">Color</text>
</a>
</g>
</g>
<!-- Node1&#45;&gt;Node20 -->
<g id="edge21_Node000001_Node000020" class="edge">
<title>Node1&#45;&gt;Node20</title>
<g id="a_edge21_Node000001_Node000020"><a xlink:title=" ">
<path fill="none" stroke="#63b8ff" d="M576.53,-401.43C569.83,-350.87 547.88,-239.26 480.75,-179.5 475.82,-175.11 470.18,-171.52 464.17,-168.57"/>
<polygon fill="#63b8ff" stroke="#63b8ff" points="573.03,-401.61 577.71,-411.12 579.97,-400.77 573.03,-401.61"/>
</a>
</g>
</g>
<!-- Node21 -->
<g id="Node000021" class="node">
<title>Node21</title>
<g id="a_Node000021"><a xlink:href="classWavelengthConfig.html#a83eb31f8ab7a2b3e20599841faec5b88" target="_top" xlink:title="Sets the color for the title label border. Adds the color to recent colors. Emits configChanged(&quot;titl...">
<polygon fill="white" stroke="#666666" points="457.5,-123 323,-123 323,-94 457.5,-94 457.5,-123"/>
<text text-anchor="start" x="331" y="-109.5" font-family="Helvetica,sans-Serif" font-size="10.00">WavelengthConfig::SetTitle</text>
<text text-anchor="middle" x="390.25" y="-99" font-family="Helvetica,sans-Serif" font-size="10.00">BorderColor</text>
</a>
</g>
</g>
<!-- Node1&#45;&gt;Node21 -->
<g id="edge22_Node000001_Node000021" class="edge">
<title>Node1&#45;&gt;Node21</title>
<g id="a_edge22_Node000001_Node000021"><a xlink:title=" ">
<path fill="none" stroke="#63b8ff" d="M578.43,-401.41C575.17,-344.07 559.13,-206.29 480.75,-132.5 474.19,-126.32 466.22,-121.7 457.77,-118.25"/>
<polygon fill="#63b8ff" stroke="#63b8ff" points="574.92,-401.34 578.89,-411.17 581.91,-401.01 574.92,-401.34"/>
</a>
</g>
</g>
<!-- Node22 -->
<g id="Node000022" class="node">
<title>Node22</title>
<g id="a_Node000022"><a xlink:href="classWavelengthConfig.html#a2fb848bed4ad119d39c62e7d526c2791" target="_top" xlink:title="Sets the color for the title label glow effect. Adds the color to recent colors. Emits configChanged(...">
<polygon fill="white" stroke="#666666" points="457.5,-76 323,-76 323,-47 457.5,-47 457.5,-76"/>
<text text-anchor="start" x="331" y="-62.5" font-family="Helvetica,sans-Serif" font-size="10.00">WavelengthConfig::SetTitle</text>
<text text-anchor="middle" x="390.25" y="-52" font-family="Helvetica,sans-Serif" font-size="10.00">GlowColor</text>
</a>
</g>
</g>
<!-- Node1&#45;&gt;Node22 -->
<g id="edge23_Node000001_Node000022" class="edge">
<title>Node1&#45;&gt;Node22</title>
<g id="a_edge23_Node000001_Node000022"><a xlink:title=" ">
<path fill="none" stroke="#63b8ff" d="M579.84,-401.3C579.79,-337.64 570.45,-173.56 480.75,-85.5 474.21,-79.08 466.14,-74.32 457.55,-70.82"/>
<polygon fill="#63b8ff" stroke="#63b8ff" points="576.34,-401.1 579.76,-411.13 583.34,-401.16 576.34,-401.1"/>
</a>
</g>
</g>
<!-- Node23 -->
<g id="Node000023" class="node">
<title>Node23</title>
<g id="a_Node000023"><a xlink:href="classWavelengthConfig.html#ade723615fb9e9bd2bef32292b26a4837" target="_top" xlink:title="Sets the color for the title label text. Adds the color to recent colors. Emits configChanged(&quot;title_...">
<polygon fill="white" stroke="#666666" points="457.5,-29 323,-29 323,0 457.5,0 457.5,-29"/>
<text text-anchor="start" x="331" y="-15.5" font-family="Helvetica,sans-Serif" font-size="10.00">WavelengthConfig::SetTitle</text>
<text text-anchor="middle" x="390.25" y="-5" font-family="Helvetica,sans-Serif" font-size="10.00">TextColor</text>
</a>
</g>
</g>
<!-- Node1&#45;&gt;Node23 -->
<g id="edge24_Node000001_Node000023" class="edge">
<title>Node1&#45;&gt;Node23</title>
<g id="a_edge24_Node000001_Node000023"><a xlink:title=" ">
<path fill="none" stroke="#63b8ff" d="M576.17,-401.71C566.3,-323.32 533.02,-89.99 480.75,-37.5 474.3,-31.02 466.28,-26.29 457.72,-22.84"/>
<polygon fill="#63b8ff" stroke="#63b8ff" points="572.67,-401.91 577.37,-411.41 579.62,-401.06 572.67,-401.91"/>
</a>
</g>
</g>
<!-- Node4 -->
<g id="Node000004" class="node">
<title>Node4</title>
<g id="a_Node000004"><a xlink:href="classSessionCoordinator.html#a34a0ef1f02508f6cfd0b8d60164be83a" target="_top" xlink:title="Initializes the coordinator and its underlying components. Connects signals between various Wavelengt...">
<polygon fill="white" stroke="#666666" points="101.5,-410 0,-410 0,-381 101.5,-381 101.5,-410"/>
<text text-anchor="start" x="8" y="-396.5" font-family="Helvetica,sans-Serif" font-size="10.00">SessionCoordinator</text>
<text text-anchor="middle" x="50.75" y="-386" font-family="Helvetica,sans-Serif" font-size="10.00">::Initialize</text>
</a>
</g>
</g>
<!-- Node3&#45;&gt;Node4 -->
<g id="edge3_Node000003_Node000004" class="edge">
<title>Node3&#45;&gt;Node4</title>
<g id="a_edge3_Node000003_Node000004"><a xlink:title=" ">
<path fill="none" stroke="#63b8ff" d="M176.64,-519.65C146.02,-489.22 92.72,-436.22 66.78,-410.44"/>
<polygon fill="#63b8ff" stroke="#63b8ff" points="174,-521.96 183.56,-526.53 178.93,-517 174,-521.96"/>
</a>
</g>
</g>
<!-- Node17 -->
<g id="Node000017" class="node">
<title>Node17</title>
<g id="a_Node000017"><a xlink:href="classSessionCoordinator.html#ad68b22d6bafb0633e47a9c29d156a1a3" target="_top" xlink:title="Loads the application configuration using WavelengthConfig. Sets default values if the configuration ...">
<polygon fill="white" stroke="#666666" points="251.38,-264 149.88,-264 149.88,-235 251.38,-235 251.38,-264"/>
<text text-anchor="start" x="157.88" y="-250.5" font-family="Helvetica,sans-Serif" font-size="10.00">SessionCoordinator</text>
<text text-anchor="middle" x="200.62" y="-240" font-family="Helvetica,sans-Serif" font-size="10.00">::LoadConfig</text>
</a>
</g>
</g>
<!-- Node16&#45;&gt;Node17 -->
<g id="edge16_Node000016_Node000017" class="edge">
<title>Node16&#45;&gt;Node17</title>
<g id="a_edge16_Node000016_Node000017"><a xlink:title=" ">
<path fill="none" stroke="#63b8ff" d="M318.53,-220.22C296.27,-225.79 272.16,-231.83 251.65,-236.97"/>
<polygon fill="#63b8ff" stroke="#63b8ff" points="319.31,-223.63 328.16,-217.8 317.61,-216.84 319.31,-223.63"/>
</a>
</g>
</g>
<!-- Node18 -->
<g id="Node000018" class="node">
<title>Node18</title>
<g id="a_Node000018"><a xlink:href="classSessionCoordinator.html#a86a0ef4beff045565949d0b9c6e6e4dd" target="_top" xlink:title="Sets the relay server address in the configuration. Delegates the call to WavelengthConfig.">
<polygon fill="white" stroke="#666666" points="263.75,-217 137.5,-217 137.5,-188 263.75,-188 263.75,-217"/>
<text text-anchor="start" x="145.5" y="-203.5" font-family="Helvetica,sans-Serif" font-size="10.00">SessionCoordinator</text>
<text text-anchor="middle" x="200.62" y="-193" font-family="Helvetica,sans-Serif" font-size="10.00">::SetRelayServerAddress</text>
</a>
</g>
</g>
<!-- Node16&#45;&gt;Node18 -->
<g id="edge18_Node000016_Node000018" class="edge">
<title>Node16&#45;&gt;Node18</title>
<g id="a_edge18_Node000016_Node000018"><a xlink:title=" ">
<path fill="none" stroke="#63b8ff" d="M308.39,-202.5C293.52,-202.5 278.21,-202.5 263.99,-202.5"/>
<polygon fill="#63b8ff" stroke="#63b8ff" points="308.14,-206 318.14,-202.5 308.14,-199 308.14,-206"/>
</a>
</g>
</g>
<!-- Node17&#45;&gt;Node4 -->
<g id="edge17_Node000017_Node000004" class="edge">
<title>Node17&#45;&gt;Node4</title>
<g id="a_edge17_Node000017_Node000004"><a xlink:title=" ">
<path fill="none" stroke="#63b8ff" d="M176.64,-272.19C146.02,-302.42 92.72,-355.05 66.78,-380.66"/>
<polygon fill="#63b8ff" stroke="#63b8ff" points="178.9,-274.88 183.56,-265.37 173.98,-269.9 178.9,-274.88"/>
</a>
</g>
</g>
<!-- Node19&#45;&gt;Node17 -->
<g id="edge20_Node000019_Node000017" class="edge">
<title>Node19&#45;&gt;Node17</title>
<g id="a_edge20_Node000019_Node000017"><a xlink:title=" ">
<path fill="none" stroke="#63b8ff" d="M308.16,-249.5C288.99,-249.5 269.1,-249.5 251.77,-249.5"/>
<polygon fill="#63b8ff" stroke="#63b8ff" points="308.14,-253 318.14,-249.5 308.14,-246 308.14,-253"/>
</a>
</g>
</g>
</g>
</svg>
