<?xml version="1.0" encoding="UTF-8" standalone="no"?>
<!DOCTYPE svg PUBLIC "-//W3C//DTD SVG 1.1//EN"
 "http://www.w3.org/Graphics/SVG/1.1/DTD/svg11.dtd">
<!-- Generated by graphviz version 12.2.1 (0)
 -->
<!-- Title: SessionCoordinator::pttStopReceiving Pages: 1 -->
<svg width="529pt" height="74pt"
 viewBox="0.00 0.00 528.75 73.75" xmlns="http://www.w3.org/2000/svg" xmlns:xlink="http://www.w3.org/1999/xlink">
<g id="graph0" class="graph" transform="scale(1 1) rotate(0) translate(4 69.75)">
<title>SessionCoordinator::pttStopReceiving</title>
<!-- Node1 -->
<g id="Node000001" class="node">
<title>Node1</title>
<g id="a_Node000001"><a xlink:title="Emitted when another user stops PTT transmission. Relayed from WavelengthMessageService.">
<polygon fill="#999999" stroke="#666666" points="520.75,-50 419.25,-50 419.25,-21 520.75,-21 520.75,-50"/>
<text text-anchor="start" x="427.25" y="-36.5" font-family="Helvetica,sans-Serif" font-size="10.00">SessionCoordinator</text>
<text text-anchor="middle" x="470" y="-26" font-family="Helvetica,sans-Serif" font-size="10.00">::pttStopReceiving</text>
</a>
</g>
</g>
<!-- Node2 -->
<g id="Node000002" class="node">
<title>Node2</title>
<g id="a_Node000002"><a xlink:href="classChatView.html#ad2db6f12afdba4b49ec7775b2d560ad3" target="_top" xlink:title="Constructs a WavelengthChatView. Initializes the UI elements (labels, message area,...">
<polygon fill="white" stroke="#666666" points="382.5,-65.75 275.75,-65.75 275.75,-47.25 382.5,-47.25 382.5,-65.75"/>
<text text-anchor="middle" x="329.12" y="-52.25" font-family="Helvetica,sans-Serif" font-size="10.00">ChatView::ChatView</text>
</a>
</g>
</g>
<!-- Node1&#45;&gt;Node2 -->
<g id="edge1_Node000001_Node000002" class="edge">
<title>Node1&#45;&gt;Node2</title>
<g id="a_edge1_Node000001_Node000002"><a xlink:title=" ">
<path fill="none" stroke="#63b8ff" d="M407.75,-44.76C399.5,-46.01 391.09,-47.28 383,-48.5"/>
<polygon fill="#63b8ff" stroke="#63b8ff" points="408,-48.26 417.37,-43.31 406.96,-41.34 408,-48.26"/>
</a>
</g>
</g>
<!-- Node3 -->
<g id="Node000003" class="node">
<title>Node3</title>
<g id="a_Node000003"><a xlink:href="classSessionCoordinator.html#ae1d1206ca1130fa419b7edf4209a2dce" target="_top" xlink:title="Relays the pttStopReceiving signal.">
<polygon fill="white" stroke="#666666" points="383.25,-29 275,-29 275,0 383.25,0 383.25,-29"/>
<text text-anchor="start" x="283" y="-15.5" font-family="Helvetica,sans-Serif" font-size="10.00">SessionCoordinator</text>
<text text-anchor="middle" x="329.12" y="-5" font-family="Helvetica,sans-Serif" font-size="10.00">::onPttStopReceiving</text>
</a>
</g>
</g>
<!-- Node1&#45;&gt;Node3 -->
<g id="edge2_Node000001_Node000003" class="edge">
<title>Node1&#45;&gt;Node3</title>
<g id="a_edge2_Node000001_Node000003"><a xlink:title=" ">
<path fill="none" stroke="#63b8ff" d="M407.62,-26.22C399.57,-25 391.37,-23.76 383.47,-22.57"/>
<polygon fill="#63b8ff" stroke="#63b8ff" points="406.96,-29.66 417.37,-27.69 408,-22.74 406.96,-29.66"/>
</a>
</g>
</g>
<!-- Node4 -->
<g id="Node000004" class="node">
<title>Node4</title>
<g id="a_Node000004"><a xlink:href="classSessionCoordinator.html#a0a388bb572398d11b8959eac0a8e612f" target="_top" xlink:title="Connects signals between the various Wavelength components. Called during Initialize().">
<polygon fill="white" stroke="#666666" points="239,-29 137.5,-29 137.5,0 239,0 239,-29"/>
<text text-anchor="start" x="145.5" y="-15.5" font-family="Helvetica,sans-Serif" font-size="10.00">SessionCoordinator</text>
<text text-anchor="middle" x="188.25" y="-5" font-family="Helvetica,sans-Serif" font-size="10.00">::ConnectSignals</text>
</a>
</g>
</g>
<!-- Node3&#45;&gt;Node4 -->
<g id="edge3_Node000003_Node000004" class="edge">
<title>Node3&#45;&gt;Node4</title>
<g id="a_edge3_Node000003_Node000004"><a xlink:title=" ">
<path fill="none" stroke="#63b8ff" d="M263.51,-14.5C255.42,-14.5 247.25,-14.5 239.44,-14.5"/>
<polygon fill="#63b8ff" stroke="#63b8ff" points="263.32,-18 273.32,-14.5 263.32,-11 263.32,-18"/>
</a>
</g>
</g>
<!-- Node5 -->
<g id="Node000005" class="node">
<title>Node5</title>
<g id="a_Node000005"><a xlink:href="classSessionCoordinator.html#a34a0ef1f02508f6cfd0b8d60164be83a" target="_top" xlink:title="Initializes the coordinator and its underlying components. Connects signals between various Wavelengt...">
<polygon fill="white" stroke="#666666" points="101.5,-29 0,-29 0,0 101.5,0 101.5,-29"/>
<text text-anchor="start" x="8" y="-15.5" font-family="Helvetica,sans-Serif" font-size="10.00">SessionCoordinator</text>
<text text-anchor="middle" x="50.75" y="-5" font-family="Helvetica,sans-Serif" font-size="10.00">::Initialize</text>
</a>
</g>
</g>
<!-- Node4&#45;&gt;Node5 -->
<g id="edge4_Node000004_Node000005" class="edge">
<title>Node4&#45;&gt;Node5</title>
<g id="a_edge4_Node000004_Node000005"><a xlink:title=" ">
<path fill="none" stroke="#63b8ff" d="M125.84,-14.5C117.73,-14.5 109.5,-14.5 101.61,-14.5"/>
<polygon fill="#63b8ff" stroke="#63b8ff" points="125.67,-18 135.67,-14.5 125.67,-11 125.67,-18"/>
</a>
</g>
</g>
</g>
</svg>
