<?xml version="1.0" encoding="UTF-8" standalone="no"?>
<!DOCTYPE svg PUBLIC "-//W3C//DTD SVG 1.1//EN"
 "http://www.w3.org/Graphics/SVG/1.1/DTD/svg11.dtd">
<!-- Generated by graphviz version 12.2.1 (0)
 -->
<!-- Title: MessageService::SendFile Pages: 1 -->
<svg width="624pt" height="95pt"
 viewBox="0.00 0.00 624.00 94.75" xmlns="http://www.w3.org/2000/svg" xmlns:xlink="http://www.w3.org/1999/xlink">
<g id="graph0" class="graph" transform="scale(1 1) rotate(0) translate(4 90.75)">
<title>MessageService::SendFile</title>
<!-- Node1 -->
<g id="Node000001" class="node">
<title>Node1</title>
<g id="a_Node000001"><a xlink:title="Initiates the process of sending a file to the currently active frequency. Reads the file,...">
<polygon fill="#999999" stroke="#666666" points="616,-44.75 482.25,-44.75 482.25,-26.25 616,-26.25 616,-44.75"/>
<text text-anchor="middle" x="549.12" y="-31.25" font-family="Helvetica,sans-Serif" font-size="10.00">MessageService::SendFile</text>
</a>
</g>
</g>
<!-- Node2 -->
<g id="Node000002" class="node">
<title>Node2</title>
<g id="a_Node000002"><a xlink:href="classChatView.html#a4b181808cf22581bd24eb4bab9e07e43" target="_top" xlink:title="Opens a file dialog to allow the user to select a file for sending. If a file is selected,...">
<polygon fill="white" stroke="#666666" points="446.25,-65.75 338,-65.75 338,-47.25 446.25,-47.25 446.25,-65.75"/>
<text text-anchor="middle" x="392.12" y="-52.25" font-family="Helvetica,sans-Serif" font-size="10.00">ChatView::AttachFile</text>
</a>
</g>
</g>
<!-- Node1&#45;&gt;Node2 -->
<g id="edge1_Node000001_Node000002" class="edge">
<title>Node1&#45;&gt;Node2</title>
<g id="a_edge1_Node000001_Node000002"><a xlink:title=" ">
<path fill="none" stroke="#63b8ff" d="M470.76,-45.98C462.54,-47.1 454.31,-48.21 446.45,-49.27"/>
<polygon fill="#63b8ff" stroke="#63b8ff" points="471,-49.48 480.44,-44.67 470.06,-42.54 471,-49.48"/>
</a>
</g>
</g>
<!-- Node6 -->
<g id="Node000006" class="node">
<title>Node6</title>
<g id="a_Node000006"><a xlink:href="classSessionCoordinator.html#a8c66229e945eb35fa8791ea88d37cdaa" target="_top" xlink:title="Sends a file to the currently active wavelength. Delegates the call to WavelengthMessageService.">
<polygon fill="white" stroke="#666666" points="442.88,-29 341.38,-29 341.38,0 442.88,0 442.88,-29"/>
<text text-anchor="start" x="349.38" y="-15.5" font-family="Helvetica,sans-Serif" font-size="10.00">SessionCoordinator</text>
<text text-anchor="middle" x="392.12" y="-5" font-family="Helvetica,sans-Serif" font-size="10.00">::SendFile</text>
</a>
</g>
</g>
<!-- Node1&#45;&gt;Node6 -->
<g id="edge5_Node000001_Node000006" class="edge">
<title>Node1&#45;&gt;Node6</title>
<g id="a_edge5_Node000001_Node000006"><a xlink:title=" ">
<path fill="none" stroke="#63b8ff" d="M470.6,-25C461.26,-23.73 451.93,-22.47 443.14,-21.28"/>
<polygon fill="#63b8ff" stroke="#63b8ff" points="470.06,-28.46 480.44,-26.33 471,-21.52 470.06,-28.46"/>
</a>
</g>
</g>
<!-- Node3 -->
<g id="Node000003" class="node">
<title>Node3</title>
<g id="a_Node000003"><a xlink:href="classChatView.html#ad2db6f12afdba4b49ec7775b2d560ad3" target="_top" xlink:title="Constructs a WavelengthChatView. Initializes the UI elements (labels, message area,...">
<polygon fill="white" stroke="#666666" points="288.88,-86.75 182.12,-86.75 182.12,-68.25 288.88,-68.25 288.88,-86.75"/>
<text text-anchor="middle" x="235.5" y="-73.25" font-family="Helvetica,sans-Serif" font-size="10.00">ChatView::ChatView</text>
</a>
</g>
</g>
<!-- Node2&#45;&gt;Node3 -->
<g id="edge2_Node000002_Node000003" class="edge">
<title>Node2&#45;&gt;Node3</title>
<g id="a_edge2_Node000002_Node000003"><a xlink:title=" ">
<path fill="none" stroke="#63b8ff" d="M326.65,-65.26C314.21,-66.95 301.31,-68.7 289.29,-70.33"/>
<polygon fill="#63b8ff" stroke="#63b8ff" points="326.97,-68.74 336.41,-63.93 326.03,-61.81 326.97,-68.74"/>
</a>
</g>
</g>
<!-- Node4 -->
<g id="Node000004" class="node">
<title>Node4</title>
<g id="a_Node000004"><a xlink:href="classShortcutManager.html#a4d014d550ca996c51abb06649f71a3fa" target="_top" xlink:title="Registers shortcuts specific to the WavelengthChatView.">
<polygon fill="white" stroke="#666666" points="302,-50 169,-50 169,-21 302,-21 302,-50"/>
<text text-anchor="start" x="177" y="-36.5" font-family="Helvetica,sans-Serif" font-size="10.00">ShortcutManager::Register</text>
<text text-anchor="middle" x="235.5" y="-26" font-family="Helvetica,sans-Serif" font-size="10.00">ChatViewShortcuts</text>
</a>
</g>
</g>
<!-- Node2&#45;&gt;Node4 -->
<g id="edge3_Node000002_Node000004" class="edge">
<title>Node2&#45;&gt;Node4</title>
<g id="a_edge3_Node000002_Node000004"><a xlink:title=" ">
<path fill="none" stroke="#63b8ff" d="M326.71,-47.75C318.67,-46.66 310.44,-45.54 302.38,-44.45"/>
<polygon fill="#63b8ff" stroke="#63b8ff" points="326.03,-51.19 336.41,-49.07 326.97,-44.26 326.03,-51.19"/>
</a>
</g>
</g>
<!-- Node5 -->
<g id="Node000005" class="node">
<title>Node5</title>
<g id="a_Node000005"><a xlink:href="classShortcutManager.html#a097d6cfc09ef1837e2e18cb88d2726cd" target="_top" xlink:title="Registers shortcuts specific to the provided parent widget.">
<polygon fill="white" stroke="#666666" points="133,-50 0,-50 0,-21 133,-21 133,-50"/>
<text text-anchor="start" x="8" y="-36.5" font-family="Helvetica,sans-Serif" font-size="10.00">ShortcutManager::Register</text>
<text text-anchor="middle" x="66.5" y="-26" font-family="Helvetica,sans-Serif" font-size="10.00">Shortcuts</text>
</a>
</g>
</g>
<!-- Node4&#45;&gt;Node5 -->
<g id="edge4_Node000004_Node000005" class="edge">
<title>Node4&#45;&gt;Node5</title>
<g id="a_edge4_Node000004_Node000005"><a xlink:title=" ">
<path fill="none" stroke="#63b8ff" d="M157.62,-35.5C149.52,-35.5 141.34,-35.5 133.38,-35.5"/>
<polygon fill="#63b8ff" stroke="#63b8ff" points="157.46,-39 167.46,-35.5 157.46,-32 157.46,-39"/>
</a>
</g>
</g>
</g>
</svg>
