<?xml version="1.0" encoding="UTF-8" standalone="no"?>
<!DOCTYPE svg PUBLIC "-//W3C//DTD SVG 1.1//EN"
 "http://www.w3.org/Graphics/SVG/1.1/DTD/svg11.dtd">
<!-- Generated by graphviz version 12.2.1 (0)
 -->
<!-- Title: SystemOverrideManager Pages: 1 -->
<svg width="170pt" height="479pt"
 viewBox="0.00 0.00 170.00 478.50" xmlns="http://www.w3.org/2000/svg" xmlns:xlink="http://www.w3.org/1999/xlink">
<g id="graph0" class="graph" transform="scale(1 1) rotate(0) translate(4 474.5)">
<title>SystemOverrideManager</title>
<!-- Node1 -->
<g id="Node000001" class="node">
<title>Node1</title>
<g id="a_Node000001"><a xlink:title="Manages a &quot;system override&quot; sequence involving visual and system&#45;level changes.">
<polygon fill="#999999" stroke="none" points="162,-387 0,-387 0,0 162,0 162,-387"/>
<text text-anchor="start" x="27.75" y="-373.5" font-family="Helvetica,sans-Serif" font-size="10.00">SystemOverrideManager</text>
<text text-anchor="start" x="5.5" y="-359" font-family="Helvetica,sans-Serif" font-size="10.00">&#45;</text>
<text text-anchor="start" x="14" y="-359" font-family="Helvetica,sans-Serif" font-size="10.00">FloatingEnergySphereWidget</text>
<text text-anchor="start" x="14" y="-348.5" font-family="Helvetica,sans-Serif" font-size="10.00"> * floating_widget_</text>
<text text-anchor="start" x="5.5" y="-334" font-family="Helvetica,sans-Serif" font-size="10.00">&#45;</text>
<text text-anchor="start" x="14" y="-334" font-family="Helvetica,sans-Serif" font-size="10.00">QString original_wallpaper</text>
<text text-anchor="start" x="14" y="-323.5" font-family="Helvetica,sans-Serif" font-size="10.00">_path_</text>
<text text-anchor="start" x="5.5" y="-309" font-family="Helvetica,sans-Serif" font-size="10.00">&#45;</text>
<text text-anchor="start" x="14" y="-309" font-family="Helvetica,sans-Serif" font-size="10.00">bool override_active_</text>
<text text-anchor="start" x="5.5" y="-294.5" font-family="Helvetica,sans-Serif" font-size="10.00">&#45;</text>
<text text-anchor="start" x="14" y="-294.5" font-family="Helvetica,sans-Serif" font-size="10.00">QString temp_black</text>
<text text-anchor="start" x="14" y="-284" font-family="Helvetica,sans-Serif" font-size="10.00">_wallpaper_path_</text>
<text text-anchor="start" x="5.5" y="-269.5" font-family="Helvetica,sans-Serif" font-size="10.00">&#45;</text>
<text text-anchor="start" x="14" y="-269.5" font-family="Helvetica,sans-Serif" font-size="10.00">QSystemTrayIcon * tray</text>
<text text-anchor="start" x="14" y="-259" font-family="Helvetica,sans-Serif" font-size="10.00">_icon_</text>
<text text-anchor="start" x="4" y="-244.5" font-family="Helvetica,sans-Serif" font-size="10.00">+</text>
<text text-anchor="start" x="14" y="-244.5" font-family="Helvetica,sans-Serif" font-size="10.00">SystemOverrideManager</text>
<text text-anchor="start" x="14" y="-234" font-family="Helvetica,sans-Serif" font-size="10.00">(QObject *parent=nullptr)</text>
<text text-anchor="start" x="4" y="-219.5" font-family="Helvetica,sans-Serif" font-size="10.00">+</text>
<text text-anchor="start" x="14" y="-219.5" font-family="Helvetica,sans-Serif" font-size="10.00">~SystemOverrideManager</text>
<text text-anchor="start" x="14" y="-209" font-family="Helvetica,sans-Serif" font-size="10.00">() override</text>
<text text-anchor="start" x="4" y="-194.5" font-family="Helvetica,sans-Serif" font-size="10.00">+</text>
<text text-anchor="start" x="14" y="-194.5" font-family="Helvetica,sans-Serif" font-size="10.00">void InitiateOverrideSequence</text>
<text text-anchor="start" x="14" y="-184" font-family="Helvetica,sans-Serif" font-size="10.00">(bool is_first_time)</text>
<text text-anchor="start" x="4" y="-169.5" font-family="Helvetica,sans-Serif" font-size="10.00">+</text>
<text text-anchor="start" x="14" y="-169.5" font-family="Helvetica,sans-Serif" font-size="10.00">void RestoreSystemState()</text>
<text text-anchor="start" x="5.5" y="-155" font-family="Helvetica,sans-Serif" font-size="10.00">&#45;</text>
<text text-anchor="start" x="14" y="-155" font-family="Helvetica,sans-Serif" font-size="10.00">bool SendSystemNotification</text>
<text text-anchor="start" x="14" y="-144.5" font-family="Helvetica,sans-Serif" font-size="10.00">(const QString &amp;title, const</text>
<text text-anchor="start" x="14" y="-134" font-family="Helvetica,sans-Serif" font-size="10.00"> QString &amp;message) const</text>
<text text-anchor="start" x="5.5" y="-119.5" font-family="Helvetica,sans-Serif" font-size="10.00">&#45;</text>
<text text-anchor="start" x="14" y="-119.5" font-family="Helvetica,sans-Serif" font-size="10.00">void ShowFloatingAnimation</text>
<text text-anchor="start" x="14" y="-109" font-family="Helvetica,sans-Serif" font-size="10.00">Widget(bool is_first_time)</text>
<text text-anchor="start" x="5.5" y="-94.5" font-family="Helvetica,sans-Serif" font-size="10.00">&#45;</text>
<text text-anchor="start" x="14" y="-94.5" font-family="Helvetica,sans-Serif" font-size="10.00">static bool ChangeWallpaper()</text>
<text text-anchor="start" x="5.5" y="-80" font-family="Helvetica,sans-Serif" font-size="10.00">&#45;</text>
<text text-anchor="start" x="14" y="-80" font-family="Helvetica,sans-Serif" font-size="10.00">static bool MinimizeAllWindows()</text>
<text text-anchor="start" x="5.5" y="-65.5" font-family="Helvetica,sans-Serif" font-size="10.00">&#45;</text>
<text text-anchor="start" x="14" y="-65.5" font-family="Helvetica,sans-Serif" font-size="10.00">static bool RelaunchNormally</text>
<text text-anchor="start" x="14" y="-55" font-family="Helvetica,sans-Serif" font-size="10.00">(const QStringList &amp;arguments</text>
<text text-anchor="start" x="14" y="-44.5" font-family="Helvetica,sans-Serif" font-size="10.00">=QStringList())</text>
<text text-anchor="start" x="5.5" y="-30" font-family="Helvetica,sans-Serif" font-size="10.00">&#45;</text>
<text text-anchor="start" x="14" y="-30" font-family="Helvetica,sans-Serif" font-size="10.00">static bool RestoreWallpaper()</text>
<text text-anchor="start" x="5.5" y="-15.5" font-family="Helvetica,sans-Serif" font-size="10.00">&#45;</text>
<text text-anchor="start" x="14" y="-15.5" font-family="Helvetica,sans-Serif" font-size="10.00">void HandleFloatingWidget</text>
<text text-anchor="start" x="14" y="-5" font-family="Helvetica,sans-Serif" font-size="10.00">Closed()</text>
<polygon fill="#666666" stroke="#666666" points="0,-370.5 0,-370.5 162,-370.5 162,-370.5 0,-370.5"/>
<polygon fill="#666666" stroke="#666666" points="0,-256 0,-256 12,-256 12,-256 0,-256"/>
<polygon fill="#666666" stroke="#666666" points="12,-256 12,-256 162,-256 162,-256 12,-256"/>
<polygon fill="none" stroke="#666666" points="0,0 0,-387 162,-387 162,0 0,0"/>
</a>
</g>
</g>
<!-- Node2 -->
<g id="Node000002" class="node">
<title>Node2</title>
<g id="a_Node000002"><a xlink:title=" ">
<polygon fill="white" stroke="none" points="103,-470.5 59,-470.5 59,-423 103,-423 103,-470.5"/>
<text text-anchor="start" x="63" y="-457" font-family="Helvetica,sans-Serif" font-size="10.00">QObject</text>
<text text-anchor="start" x="79.5" y="-442.5" font-family="Helvetica,sans-Serif" font-size="10.00"> </text>
<text text-anchor="start" x="79.5" y="-428" font-family="Helvetica,sans-Serif" font-size="10.00"> </text>
<polygon fill="#666666" stroke="#666666" points="59,-454 59,-454 103,-454 103,-454 59,-454"/>
<polygon fill="#666666" stroke="#666666" points="59,-439.5 59,-439.5 103,-439.5 103,-439.5 59,-439.5"/>
<polygon fill="none" stroke="#666666" points="59,-423 59,-470.5 103,-470.5 103,-423 59,-423"/>
</a>
</g>
</g>
<!-- Node2&#45;&gt;Node1 -->
<g id="edge1_Node000001_Node000002" class="edge">
<title>Node2&#45;&gt;Node1</title>
<g id="a_edge1_Node000001_Node000002"><a xlink:title=" ">
<path fill="none" stroke="#63b8ff" d="M81,-411.76C81,-404.31 81,-395.91 81,-386.86"/>
<polygon fill="none" stroke="#63b8ff" points="77.5,-411.5 81,-421.5 84.5,-411.5 77.5,-411.5"/>
</a>
</g>
</g>
</g>
</svg>
