<?xml version="1.0" encoding="UTF-8" standalone="no"?>
<!DOCTYPE svg PUBLIC "-//W3C//DTD SVG 1.1//EN"
 "http://www.w3.org/Graphics/SVG/1.1/DTD/svg11.dtd">
<!-- Generated by graphviz version 12.2.1 (0)
 -->
<!-- Title: WavelengthEventBroker::AuthenticationFailed Pages: 1 -->
<svg width="559pt" height="37pt"
 viewBox="0.00 0.00 558.75 37.00" xmlns="http://www.w3.org/2000/svg" xmlns:xlink="http://www.w3.org/1999/xlink">
<g id="graph0" class="graph" transform="scale(1 1) rotate(0) translate(4 33)">
<title>WavelengthEventBroker::AuthenticationFailed</title>
<!-- Node1 -->
<g id="Node000001" class="node">
<title>Node1</title>
<g id="a_Node000001"><a xlink:title="Publishes an &quot;authentication_failed&quot; event. Data: {&quot;frequency&quot;: QString}.">
<polygon fill="#999999" stroke="#666666" points="550.75,-29 432,-29 432,0 550.75,0 550.75,-29"/>
<text text-anchor="start" x="440" y="-15.5" font-family="Helvetica,sans-Serif" font-size="10.00">WavelengthEventBroker</text>
<text text-anchor="middle" x="491.38" y="-5" font-family="Helvetica,sans-Serif" font-size="10.00">::AuthenticationFailed</text>
</a>
</g>
</g>
<!-- Node2 -->
<g id="Node000002" class="node">
<title>Node2</title>
<g id="a_Node000002"><a xlink:href="classSessionCoordinator.html#a49f9948b0199f5b1cef30fcba5a4d4bb" target="_top" xlink:title="Slot triggered when authentication fails during join. Relays the signal and publishes the event via W...">
<polygon fill="white" stroke="#666666" points="396,-29 275,-29 275,0 396,0 396,-29"/>
<text text-anchor="start" x="283" y="-15.5" font-family="Helvetica,sans-Serif" font-size="10.00">SessionCoordinator</text>
<text text-anchor="middle" x="335.5" y="-5" font-family="Helvetica,sans-Serif" font-size="10.00">::onAuthenticationFailed</text>
</a>
</g>
</g>
<!-- Node1&#45;&gt;Node2 -->
<g id="edge1_Node000001_Node000002" class="edge">
<title>Node1&#45;&gt;Node2</title>
<g id="a_edge1_Node000001_Node000002"><a xlink:title=" ">
<path fill="none" stroke="#63b8ff" d="M420.52,-14.5C412.49,-14.5 404.36,-14.5 396.48,-14.5"/>
<polygon fill="#63b8ff" stroke="#63b8ff" points="420.25,-18 430.25,-14.5 420.25,-11 420.25,-18"/>
</a>
</g>
</g>
<!-- Node3 -->
<g id="Node000003" class="node">
<title>Node3</title>
<g id="a_Node000003"><a xlink:href="classSessionCoordinator.html#a0a388bb572398d11b8959eac0a8e612f" target="_top" xlink:title="Connects signals between the various Wavelength components. Called during Initialize().">
<polygon fill="white" stroke="#666666" points="239,-29 137.5,-29 137.5,0 239,0 239,-29"/>
<text text-anchor="start" x="145.5" y="-15.5" font-family="Helvetica,sans-Serif" font-size="10.00">SessionCoordinator</text>
<text text-anchor="middle" x="188.25" y="-5" font-family="Helvetica,sans-Serif" font-size="10.00">::ConnectSignals</text>
</a>
</g>
</g>
<!-- Node2&#45;&gt;Node3 -->
<g id="edge2_Node000002_Node000003" class="edge">
<title>Node2&#45;&gt;Node3</title>
<g id="a_edge2_Node000002_Node000003"><a xlink:title=" ">
<path fill="none" stroke="#63b8ff" d="M263.22,-14.5C255.14,-14.5 247.04,-14.5 239.32,-14.5"/>
<polygon fill="#63b8ff" stroke="#63b8ff" points="263.07,-18 273.07,-14.5 263.07,-11 263.07,-18"/>
</a>
</g>
</g>
<!-- Node4 -->
<g id="Node000004" class="node">
<title>Node4</title>
<g id="a_Node000004"><a xlink:href="classSessionCoordinator.html#a34a0ef1f02508f6cfd0b8d60164be83a" target="_top" xlink:title="Initializes the coordinator and its underlying components. Connects signals between various Wavelengt...">
<polygon fill="white" stroke="#666666" points="101.5,-29 0,-29 0,0 101.5,0 101.5,-29"/>
<text text-anchor="start" x="8" y="-15.5" font-family="Helvetica,sans-Serif" font-size="10.00">SessionCoordinator</text>
<text text-anchor="middle" x="50.75" y="-5" font-family="Helvetica,sans-Serif" font-size="10.00">::Initialize</text>
</a>
</g>
</g>
<!-- Node3&#45;&gt;Node4 -->
<g id="edge3_Node000003_Node000004" class="edge">
<title>Node3&#45;&gt;Node4</title>
<g id="a_edge3_Node000003_Node000004"><a xlink:title=" ">
<path fill="none" stroke="#63b8ff" d="M125.84,-14.5C117.73,-14.5 109.5,-14.5 101.61,-14.5"/>
<polygon fill="#63b8ff" stroke="#63b8ff" points="125.67,-18 135.67,-14.5 125.67,-11 125.67,-18"/>
</a>
</g>
</g>
</g>
</svg>
