<?xml version="1.0" encoding="UTF-8" standalone="no"?>
<!DOCTYPE svg PUBLIC "-//W3C//DTD SVG 1.1//EN"
 "http://www.w3.org/Graphics/SVG/1.1/DTD/svg11.dtd">
<!-- Generated by graphviz version 12.2.1 (0)
 -->
<!-- Title: VideoPlayer::VideoPlayer Pages: 1 -->
<svg width="709pt" height="423pt"
 viewBox="0.00 0.00 708.75 422.75" xmlns="http://www.w3.org/2000/svg" xmlns:xlink="http://www.w3.org/1999/xlink">
<g id="graph0" class="graph" transform="scale(1 1) rotate(0) translate(4 418.75)">
<title>VideoPlayer::VideoPlayer</title>
<!-- Node1 -->
<g id="Node000001" class="node">
<title>Node1</title>
<g id="a_Node000001"><a xlink:title="Constructs a VideoPlayerOverlay dialog. Initializes the cyberpunk UI elements, sets window properties...">
<polygon fill="#999999" stroke="#666666" points="125.5,-210.75 0,-210.75 0,-192.25 125.5,-192.25 125.5,-210.75"/>
<text text-anchor="middle" x="62.75" y="-197.25" font-family="Helvetica,sans-Serif" font-size="10.00">VideoPlayer::VideoPlayer</text>
</a>
</g>
</g>
<!-- Node2 -->
<g id="Node000002" class="node">
<title>Node2</title>
<g id="a_Node000002"><a xlink:href="classVideoPlayer.html#a476690b6a533aedfd4bc44776d309367" target="_top" xlink:title="Adjusts the playback volume via the VideoDecoder. Also updates the volume icon based on the new volum...">
<polygon fill="white" stroke="#666666" points="304.25,-388.75 170.5,-388.75 170.5,-370.25 304.25,-370.25 304.25,-388.75"/>
<text text-anchor="middle" x="237.38" y="-375.25" font-family="Helvetica,sans-Serif" font-size="10.00">VideoPlayer::AdjustVolume</text>
</a>
</g>
</g>
<!-- Node1&#45;&gt;Node2 -->
<g id="edge1_Node000001_Node000002" class="edge">
<title>Node1&#45;&gt;Node2</title>
<g id="a_edge1_Node000001_Node000002"><a xlink:title=" ">
<path fill="none" stroke="#63b8ff" d="M66.73,-211.25C75.86,-239.38 106.23,-321.27 161.5,-361.5 163.1,-362.66 164.76,-363.75 166.48,-364.77"/>
<polygon fill="#63b8ff" stroke="#63b8ff" points="164.91,-367.9 175.43,-369.21 168.02,-361.63 164.91,-367.9"/>
</a>
</g>
</g>
<!-- Node4 -->
<g id="Node000004" class="node">
<title>Node4</title>
<g id="a_Node000004"><a xlink:href="classTranslationManager.html#a370292d4133519fccf401a6b27b2f6a6" target="_top" xlink:title="Returns an instance of the TranslationManager singleton.">
<polygon fill="white" stroke="#666666" points="287.75,-352 187,-352 187,-323 287.75,-323 287.75,-352"/>
<text text-anchor="start" x="195" y="-338.5" font-family="Helvetica,sans-Serif" font-size="10.00">TranslationManager</text>
<text text-anchor="middle" x="237.38" y="-328" font-family="Helvetica,sans-Serif" font-size="10.00">::GetInstance</text>
</a>
</g>
</g>
<!-- Node1&#45;&gt;Node4 -->
<g id="edge3_Node000001_Node000004" class="edge">
<title>Node1&#45;&gt;Node4</title>
<g id="a_edge3_Node000001_Node000004"><a xlink:title=" ">
<path fill="none" stroke="#63b8ff" d="M70.2,-211.16C84.39,-231.75 120.38,-280.37 161.5,-308.5 166.53,-311.94 172.03,-315.06 177.69,-317.85"/>
<polygon fill="#63b8ff" stroke="#63b8ff" points="176.06,-320.95 186.61,-321.92 178.96,-314.59 176.06,-320.95"/>
</a>
</g>
</g>
<!-- Node6 -->
<g id="Node000006" class="node">
<title>Node6</title>
<g id="a_Node000006"><a xlink:href="classVideoPlayer.html#a6f8d803263d342bf12f9cf29c40536de" target="_top" xlink:title="Initializes the VideoDecoder instance and connects its signals. Creates the decoder,...">
<polygon fill="white" stroke="#666666" points="495.38,-266.75 359.38,-266.75 359.38,-248.25 495.38,-248.25 495.38,-266.75"/>
<text text-anchor="middle" x="427.38" y="-253.25" font-family="Helvetica,sans-Serif" font-size="10.00">VideoPlayer::InitializePlayer</text>
</a>
</g>
</g>
<!-- Node1&#45;&gt;Node6 -->
<g id="edge5_Node000001_Node000006" class="edge">
<title>Node1&#45;&gt;Node6</title>
<g id="a_edge5_Node000001_Node000006"><a xlink:title=" ">
<path fill="none" stroke="#63b8ff" d="M72.25,-211.15C87.89,-228.1 123.16,-262.63 161.5,-275.5 236.81,-300.79 330.77,-283.87 384.14,-270.11"/>
<polygon fill="#63b8ff" stroke="#63b8ff" points="384.99,-273.51 393.74,-267.54 383.18,-266.74 384.99,-273.51"/>
</a>
</g>
</g>
<!-- Node16 -->
<g id="Node000016" class="node">
<title>Node16</title>
<g id="a_Node000016"><a xlink:href="classVideoPlayer.html#a2c628fd7afd374c0914e37ea87fc489a" target="_top" xlink:title="Slot called when the user presses the progress slider. Remembers the playback state,...">
<polygon fill="white" stroke="#666666" points="311,-266.75 163.75,-266.75 163.75,-248.25 311,-248.25 311,-266.75"/>
<text text-anchor="middle" x="237.38" y="-253.25" font-family="Helvetica,sans-Serif" font-size="10.00">VideoPlayer::OnSliderPressed</text>
</a>
</g>
</g>
<!-- Node1&#45;&gt;Node16 -->
<g id="edge15_Node000001_Node000016" class="edge">
<title>Node1&#45;&gt;Node16</title>
<g id="a_edge15_Node000001_Node000016"><a xlink:title=" ">
<path fill="none" stroke="#63b8ff" d="M87.19,-211.23C106.83,-219.18 135.71,-230.38 161.5,-238.5 168.55,-240.72 176.04,-242.87 183.44,-244.87"/>
<polygon fill="#63b8ff" stroke="#63b8ff" points="182.53,-248.24 193.09,-247.39 184.3,-241.47 182.53,-248.24"/>
</a>
</g>
</g>
<!-- Node17 -->
<g id="Node000017" class="node">
<title>Node17</title>
<g id="a_Node000017"><a xlink:href="classVideoPlayer.html#aeea22f350e5b8a4189efa048c91c1ef0" target="_top" xlink:title="Slot called when the user releases the progress slider. Performs the seek operation based on the slid...">
<polygon fill="white" stroke="#666666" points="313.25,-155.75 161.5,-155.75 161.5,-137.25 313.25,-137.25 313.25,-155.75"/>
<text text-anchor="middle" x="237.38" y="-142.25" font-family="Helvetica,sans-Serif" font-size="10.00">VideoPlayer::OnSliderReleased</text>
</a>
</g>
</g>
<!-- Node1&#45;&gt;Node17 -->
<g id="edge16_Node000001_Node000017" class="edge">
<title>Node1&#45;&gt;Node17</title>
<g id="a_edge16_Node000001_Node000017"><a xlink:title=" ">
<path fill="none" stroke="#63b8ff" d="M88.01,-191.76C107.65,-184.08 136.11,-173.37 161.5,-165.5 168.73,-163.26 176.41,-161.08 183.99,-159.05"/>
<polygon fill="#63b8ff" stroke="#63b8ff" points="184.71,-162.48 193.5,-156.57 182.94,-155.71 184.71,-162.48"/>
</a>
</g>
</g>
<!-- Node19 -->
<g id="Node000019" class="node">
<title>Node19</title>
<g id="a_Node000019"><a xlink:href="classVideoPlayer.html#a79240b971c57424608c4f8b6059b36c2" target="_top" xlink:title="Toggles the mute state. If currently unmuted, mutes and remembers the last volume....">
<polygon fill="white" stroke="#666666" points="299.38,-192.75 175.38,-192.75 175.38,-174.25 299.38,-174.25 299.38,-192.75"/>
<text text-anchor="middle" x="237.38" y="-179.25" font-family="Helvetica,sans-Serif" font-size="10.00">VideoPlayer::ToggleMute</text>
</a>
</g>
</g>
<!-- Node1&#45;&gt;Node19 -->
<g id="edge18_Node000001_Node000019" class="edge">
<title>Node1&#45;&gt;Node19</title>
<g id="a_edge18_Node000001_Node000019"><a xlink:title=" ">
<path fill="none" stroke="#63b8ff" d="M125.58,-195.05C137.88,-193.77 150.9,-192.41 163.52,-191.1"/>
<polygon fill="#63b8ff" stroke="#63b8ff" points="163.88,-194.58 173.47,-190.06 163.16,-187.62 163.88,-194.58"/>
</a>
</g>
</g>
<!-- Node20 -->
<g id="Node000020" class="node">
<title>Node20</title>
<g id="a_Node000020"><a xlink:href="classVideoPlayer.html#aee93bdf909227c7d4f7c48eca8874af6" target="_top" xlink:title="Toggles the playback state (play/pause) or resets if finished. If finished, resets the decoder....">
<polygon fill="white" stroke="#666666" points="308.75,-229.75 166,-229.75 166,-211.25 308.75,-211.25 308.75,-229.75"/>
<text text-anchor="middle" x="237.38" y="-216.25" font-family="Helvetica,sans-Serif" font-size="10.00">VideoPlayer::TogglePlayback</text>
</a>
</g>
</g>
<!-- Node1&#45;&gt;Node20 -->
<g id="edge19_Node000001_Node000020" class="edge">
<title>Node1&#45;&gt;Node20</title>
<g id="a_edge19_Node000001_Node000020"><a xlink:title=" ">
<path fill="none" stroke="#63b8ff" d="M125.58,-208.31C134.9,-209.33 144.63,-210.4 154.3,-211.47"/>
<polygon fill="#63b8ff" stroke="#63b8ff" points="153.75,-214.93 164.07,-212.54 154.51,-207.97 153.75,-214.93"/>
</a>
</g>
</g>
<!-- Node21 -->
<g id="Node000021" class="node">
<title>Node21</title>
<g id="a_Node000021"><a xlink:href="classVideoPlayer.html#a1e8c783ec71f5284c63dbf997132e702" target="_top" xlink:title="Slot called periodically by glitch_timer_. Sets a random intensity for the glitch effect applied in U...">
<polygon fill="white" stroke="#666666" points="301.62,-118.75 173.12,-118.75 173.12,-100.25 301.62,-100.25 301.62,-118.75"/>
<text text-anchor="middle" x="237.38" y="-105.25" font-family="Helvetica,sans-Serif" font-size="10.00">VideoPlayer::TriggerGlitch</text>
</a>
</g>
</g>
<!-- Node1&#45;&gt;Node21 -->
<g id="edge21_Node000001_Node000021" class="edge">
<title>Node1&#45;&gt;Node21</title>
<g id="a_edge21_Node000001_Node000021"><a xlink:title=" ">
<path fill="none" stroke="#63b8ff" d="M73.7,-191.91C90.45,-176.31 125.94,-145.46 161.5,-128.5 166.05,-126.33 170.88,-124.39 175.8,-122.65"/>
<polygon fill="#63b8ff" stroke="#63b8ff" points="176.77,-126.02 185.23,-119.64 174.64,-119.35 176.77,-126.02"/>
</a>
</g>
</g>
<!-- Node22 -->
<g id="Node000022" class="node">
<title>Node22</title>
<g id="a_Node000022"><a xlink:href="classVideoPlayer.html#a744acff3b09cc5609f627be962fc94d2" target="_top" xlink:title="Slot called when the progress slider&#39;s value changes (e.g., user dragging). Updates the time label di...">
<polygon fill="white" stroke="#666666" points="312.5,-81.75 162.25,-81.75 162.25,-63.25 312.5,-63.25 312.5,-81.75"/>
<text text-anchor="middle" x="237.38" y="-68.25" font-family="Helvetica,sans-Serif" font-size="10.00">VideoPlayer::UpdateTimeLabel</text>
</a>
</g>
</g>
<!-- Node1&#45;&gt;Node22 -->
<g id="edge22_Node000001_Node000022" class="edge">
<title>Node1&#45;&gt;Node22</title>
<g id="a_edge22_Node000001_Node000022"><a xlink:title=" ">
<path fill="none" stroke="#63b8ff" d="M69.47,-191.82C82.74,-170.25 117.84,-118.05 161.5,-91.5 164.65,-89.58 167.99,-87.86 171.44,-86.31"/>
<polygon fill="#63b8ff" stroke="#63b8ff" points="172.59,-89.62 180.63,-82.71 170.04,-83.1 172.59,-89.62"/>
</a>
</g>
</g>
<!-- Node23 -->
<g id="Node000023" class="node">
<title>Node23</title>
<g id="a_Node000023"><a xlink:href="classVideoPlayer.html#a7a1d5f9195e91b97fdb61afaf91fae05" target="_top" xlink:title="Slot called periodically by update_timer_. Updates UI elements like pulsing effects (scanline/grid op...">
<polygon fill="white" stroke="#666666" points="295.25,-44.75 179.5,-44.75 179.5,-26.25 295.25,-26.25 295.25,-44.75"/>
<text text-anchor="middle" x="237.38" y="-31.25" font-family="Helvetica,sans-Serif" font-size="10.00">VideoPlayer::UpdateUI</text>
</a>
</g>
</g>
<!-- Node1&#45;&gt;Node23 -->
<g id="edge23_Node000001_Node000023" class="edge">
<title>Node1&#45;&gt;Node23</title>
<g id="a_edge23_Node000001_Node000023"><a xlink:title=" ">
<path fill="none" stroke="#63b8ff" d="M67.28,-191.82C77.46,-165.36 109.48,-91.34 161.5,-54.5 163.85,-52.84 166.32,-51.32 168.9,-49.94"/>
<polygon fill="#63b8ff" stroke="#63b8ff" points="170.18,-53.2 177.82,-45.86 167.27,-46.83 170.18,-53.2"/>
</a>
</g>
</g>
<!-- Node3 -->
<g id="Node000003" class="node">
<title>Node3</title>
<g id="a_Node000003"><a xlink:href="classVideoPlayer.html#a9c9f4464260500d2a27d2feab1e1fd7d" target="_top" xlink:title="Updates the volume button icon based on the current volume level. Shows different icons for muted,...">
<polygon fill="white" stroke="#666666" points="505.5,-388.75 349.25,-388.75 349.25,-370.25 505.5,-370.25 505.5,-388.75"/>
<text text-anchor="middle" x="427.38" y="-375.25" font-family="Helvetica,sans-Serif" font-size="10.00">VideoPlayer::UpdateVolumeIcon</text>
</a>
</g>
</g>
<!-- Node2&#45;&gt;Node3 -->
<g id="edge2_Node000002_Node000003" class="edge">
<title>Node2&#45;&gt;Node3</title>
<g id="a_edge2_Node000002_Node000003"><a xlink:title=" ">
<path fill="none" stroke="#63b8ff" d="M304.66,-379.5C315.25,-379.5 326.36,-379.5 337.37,-379.5"/>
<polygon fill="#63b8ff" stroke="#63b8ff" points="337.28,-383 347.28,-379.5 337.28,-376 337.28,-383"/>
</a>
</g>
</g>
<!-- Node5 -->
<g id="Node000005" class="node">
<title>Node5</title>
<g id="a_Node000005"><a xlink:href="classTranslationManager.html#afcf7f2ccfdf410f09d0a740c1826a1f3" target="_top" xlink:title="Private constructor to enforce the singleton pattern.">
<polygon fill="white" stroke="#666666" points="480.75,-352 374,-352 374,-323 480.75,-323 480.75,-352"/>
<text text-anchor="start" x="382" y="-338.5" font-family="Helvetica,sans-Serif" font-size="10.00">TranslationManager</text>
<text text-anchor="middle" x="427.38" y="-328" font-family="Helvetica,sans-Serif" font-size="10.00">::TranslationManager</text>
</a>
</g>
</g>
<!-- Node4&#45;&gt;Node5 -->
<g id="edge4_Node000004_Node000005" class="edge">
<title>Node4&#45;&gt;Node5</title>
<g id="a_edge4_Node000004_Node000005"><a xlink:title=" ">
<path fill="none" stroke="#63b8ff" d="M287.77,-337.5C310.59,-337.5 337.98,-337.5 362.36,-337.5"/>
<polygon fill="#63b8ff" stroke="#63b8ff" points="362.18,-341 372.18,-337.5 362.18,-334 362.18,-341"/>
</a>
</g>
</g>
<!-- Node7 -->
<g id="Node000007" class="node">
<title>Node7</title>
<g id="a_Node000007"><a xlink:href="classVideoDecoder.html#a51e7a40e369cc4e80033f1dd9068cdd4" target="_top" xlink:title="Emitted when an error occurs during initialization or decoding.">
<polygon fill="white" stroke="#666666" points="672.62,-414.75 569.62,-414.75 569.62,-396.25 672.62,-396.25 672.62,-414.75"/>
<text text-anchor="middle" x="621.12" y="-401.25" font-family="Helvetica,sans-Serif" font-size="10.00">VideoDecoder::error</text>
</a>
</g>
</g>
<!-- Node6&#45;&gt;Node7 -->
<g id="edge6_Node000006_Node000007" class="edge">
<title>Node6&#45;&gt;Node7</title>
<g id="a_edge6_Node000006_Node000007"><a xlink:title=" ">
<path fill="none" stroke="#63b8ff" d="M445.87,-267.12C462.84,-277.15 488.47,-294.24 505.5,-314.5 528.52,-341.89 513.5,-364.22 541.5,-386.5 546.64,-390.59 552.52,-393.82 558.71,-396.37"/>
<polygon fill="#63b8ff" stroke="#63b8ff" points="557.31,-399.58 567.9,-399.54 559.59,-392.97 557.31,-399.58"/>
</a>
</g>
</g>
<!-- Node8 -->
<g id="Node000008" class="node">
<title>Node8</title>
<g id="a_Node000008"><a xlink:href="classVideoDecoder.html#ac2d7b995099a90908cf02630f9ce71ce" target="_top" xlink:title="Emitted for each decoded video frame.">
<polygon fill="white" stroke="#666666" points="689.12,-377.75 553.12,-377.75 553.12,-359.25 689.12,-359.25 689.12,-377.75"/>
<text text-anchor="middle" x="621.12" y="-364.25" font-family="Helvetica,sans-Serif" font-size="10.00">VideoDecoder::frameReady</text>
</a>
</g>
</g>
<!-- Node6&#45;&gt;Node8 -->
<g id="edge7_Node000006_Node000008" class="edge">
<title>Node6&#45;&gt;Node8</title>
<g id="a_edge7_Node000006_Node000008"><a xlink:title=" ">
<path fill="none" stroke="#63b8ff" d="M442.74,-267.25C458.57,-278.18 484.56,-296.72 505.5,-314.5 522.51,-328.94 521.96,-338.72 541.5,-349.5 545.16,-351.52 549.03,-353.32 553.01,-354.94"/>
<polygon fill="#63b8ff" stroke="#63b8ff" points="551.73,-358.2 562.32,-358.28 554.09,-351.61 551.73,-358.2"/>
</a>
</g>
</g>
<!-- Node9 -->
<g id="Node000009" class="node">
<title>Node9</title>
<g id="a_Node000009"><a xlink:href="classVideoPlayer.html#a28a1008317bdb86d8a95822d97fb0a22" target="_top" xlink:title="Slot connected to the decoder&#39;s error signal. Logs the error and displays it in the status_label_ and...">
<polygon fill="white" stroke="#666666" points="683.88,-340.75 558.38,-340.75 558.38,-322.25 683.88,-322.25 683.88,-340.75"/>
<text text-anchor="middle" x="621.12" y="-327.25" font-family="Helvetica,sans-Serif" font-size="10.00">VideoPlayer::HandleError</text>
</a>
</g>
</g>
<!-- Node6&#45;&gt;Node9 -->
<g id="edge8_Node000006_Node000009" class="edge">
<title>Node6&#45;&gt;Node9</title>
<g id="a_edge8_Node000006_Node000009"><a xlink:title=" ">
<path fill="none" stroke="#63b8ff" d="M445.13,-267.07C466.78,-279.1 505.94,-299.73 541.5,-312.5 548,-314.84 554.91,-316.98 561.83,-318.91"/>
<polygon fill="#63b8ff" stroke="#63b8ff" points="560.63,-322.21 571.19,-321.39 562.42,-315.45 560.63,-322.21"/>
</a>
</g>
</g>
<!-- Node10 -->
<g id="Node000010" class="node">
<title>Node10</title>
<g id="a_Node000010"><a xlink:href="classVideoPlayer.html#aa5e9a37abf6b5479169ac6f92517c2a0" target="_top" xlink:title="Slot connected to the decoder&#39;s videoInfo signal. Stores video dimensions, duration,...">
<polygon fill="white" stroke="#666666" points="694,-303.75 548.25,-303.75 548.25,-285.25 694,-285.25 694,-303.75"/>
<text text-anchor="middle" x="621.12" y="-290.25" font-family="Helvetica,sans-Serif" font-size="10.00">VideoPlayer::HandleVideoInfo</text>
</a>
</g>
</g>
<!-- Node6&#45;&gt;Node10 -->
<g id="edge9_Node000006_Node000010" class="edge">
<title>Node6&#45;&gt;Node10</title>
<g id="a_edge9_Node000006_Node000010"><a xlink:title=" ">
<path fill="none" stroke="#63b8ff" d="M478.76,-267.22C503.21,-271.94 532.8,-277.65 558.58,-282.63"/>
<polygon fill="#63b8ff" stroke="#63b8ff" points="557.78,-286.03 568.26,-284.49 559.11,-279.16 557.78,-286.03"/>
</a>
</g>
</g>
<!-- Node11 -->
<g id="Node000011" class="node">
<title>Node11</title>
<g id="a_Node000011"><a xlink:href="classVideoDecoder.html#a4b36980122d8771e7aff1ed0c1db8420" target="_top" xlink:title="Emitted when both video and audio (if present) streams reach the end.">
<polygon fill="white" stroke="#666666" points="700.75,-266.75 541.5,-266.75 541.5,-248.25 700.75,-248.25 700.75,-266.75"/>
<text text-anchor="middle" x="621.12" y="-253.25" font-family="Helvetica,sans-Serif" font-size="10.00">VideoDecoder::playbackFinished</text>
</a>
</g>
</g>
<!-- Node6&#45;&gt;Node11 -->
<g id="edge10_Node000006_Node000011" class="edge">
<title>Node6&#45;&gt;Node11</title>
<g id="a_edge10_Node000006_Node000011"><a xlink:title=" ">
<path fill="none" stroke="#63b8ff" d="M495.71,-257.5C506.72,-257.5 518.28,-257.5 529.73,-257.5"/>
<polygon fill="#63b8ff" stroke="#63b8ff" points="529.61,-261 539.61,-257.5 529.61,-254 529.61,-261"/>
</a>
</g>
</g>
<!-- Node12 -->
<g id="Node000012" class="node">
<title>Node12</title>
<g id="a_Node000012"><a xlink:href="classVideoDecoder.html#a72403db422317c2377fbf95fedd14077" target="_top" xlink:title="Emitted periodically during playback to indicate the current position (based on audio if available,...">
<polygon fill="white" stroke="#666666" points="699.25,-229.75 543,-229.75 543,-211.25 699.25,-211.25 699.25,-229.75"/>
<text text-anchor="middle" x="621.12" y="-216.25" font-family="Helvetica,sans-Serif" font-size="10.00">VideoDecoder::positionChanged</text>
</a>
</g>
</g>
<!-- Node6&#45;&gt;Node12 -->
<g id="edge11_Node000006_Node000012" class="edge">
<title>Node6&#45;&gt;Node12</title>
<g id="a_edge11_Node000006_Node000012"><a xlink:title=" ">
<path fill="none" stroke="#63b8ff" d="M478.76,-247.78C503.21,-243.06 532.8,-237.35 558.58,-232.37"/>
<polygon fill="#63b8ff" stroke="#63b8ff" points="559.11,-235.84 568.26,-230.51 557.78,-228.97 559.11,-235.84"/>
</a>
</g>
</g>
<!-- Node13 -->
<g id="Node000013" class="node">
<title>Node13</title>
<g id="a_Node000013"><a xlink:href="classVideoPlayer.html#a2ddaf785e9a0b2cb177e62261e5261e3" target="_top" xlink:title="Slot connected to the decoder&#39;s frameReady signal. Displays the received video frame in the video_lab...">
<polygon fill="white" stroke="#666666" points="687.62,-192.75 554.62,-192.75 554.62,-174.25 687.62,-174.25 687.62,-192.75"/>
<text text-anchor="middle" x="621.12" y="-179.25" font-family="Helvetica,sans-Serif" font-size="10.00">VideoPlayer::UpdateFrame</text>
</a>
</g>
</g>
<!-- Node6&#45;&gt;Node13 -->
<g id="edge12_Node000006_Node000013" class="edge">
<title>Node6&#45;&gt;Node13</title>
<g id="a_edge12_Node000006_Node000013"><a xlink:title=" ">
<path fill="none" stroke="#63b8ff" d="M445.13,-247.93C466.78,-235.9 505.94,-215.27 541.5,-202.5 548,-200.16 554.91,-198.02 561.83,-196.09"/>
<polygon fill="#63b8ff" stroke="#63b8ff" points="562.42,-199.55 571.19,-193.61 560.63,-192.79 562.42,-199.55"/>
</a>
</g>
</g>
<!-- Node14 -->
<g id="Node000014" class="node">
<title>Node14</title>
<g id="a_Node000014"><a xlink:href="classVideoPlayer.html#a497bfcdf3da4ed1d16db8130197b9588" target="_top" xlink:title="Slot connected to the decoder&#39;s positionChanged signal. Updates the progress slider&#39;s position and th...">
<polygon fill="white" stroke="#666666" points="686.12,-156 556.12,-156 556.12,-127 686.12,-127 686.12,-156"/>
<text text-anchor="start" x="564.12" y="-142.5" font-family="Helvetica,sans-Serif" font-size="10.00">VideoPlayer::UpdateSlider</text>
<text text-anchor="middle" x="621.12" y="-132" font-family="Helvetica,sans-Serif" font-size="10.00">Position</text>
</a>
</g>
</g>
<!-- Node6&#45;&gt;Node14 -->
<g id="edge13_Node000006_Node000014" class="edge">
<title>Node6&#45;&gt;Node14</title>
<g id="a_edge13_Node000006_Node000014"><a xlink:title=" ">
<path fill="none" stroke="#63b8ff" d="M437.44,-247.99C455.54,-229.52 498.16,-188.59 541.5,-165.5 544.71,-163.79 548.06,-162.18 551.5,-160.67"/>
<polygon fill="#63b8ff" stroke="#63b8ff" points="552.61,-164 560.57,-157 549.99,-157.51 552.61,-164"/>
</a>
</g>
</g>
<!-- Node15 -->
<g id="Node000015" class="node">
<title>Node15</title>
<g id="a_Node000015"><a xlink:href="classVideoDecoder.html#a0680707eda3a8c22786559ff45bdb46e" target="_top" xlink:title="Emitted after successful initialization, providing video stream details.">
<polygon fill="white" stroke="#666666" points="682.75,-108.75 559.5,-108.75 559.5,-90.25 682.75,-90.25 682.75,-108.75"/>
<text text-anchor="middle" x="621.12" y="-95.25" font-family="Helvetica,sans-Serif" font-size="10.00">VideoDecoder::videoInfo</text>
</a>
</g>
</g>
<!-- Node6&#45;&gt;Node15 -->
<g id="edge14_Node000006_Node000015" class="edge">
<title>Node6&#45;&gt;Node15</title>
<g id="a_edge14_Node000006_Node000015"><a xlink:title=" ">
<path fill="none" stroke="#63b8ff" d="M436.57,-247.8C450.76,-230.97 480.76,-195.21 505.5,-164.5 521.79,-144.28 519.67,-132.55 541.5,-118.5 544.27,-116.72 547.19,-115.1 550.21,-113.64"/>
<polygon fill="#63b8ff" stroke="#63b8ff" points="551.52,-116.89 559.4,-109.81 548.82,-110.43 551.52,-116.89"/>
</a>
</g>
</g>
<!-- Node18 -->
<g id="Node000018" class="node">
<title>Node18</title>
<g id="a_Node000018"><a xlink:href="classVideoPlayer.html#a5e1ada602659cecd28886da1b8f245ba" target="_top" xlink:title="Initiates a seek operation in the VideoDecoder. Converts the slider position (milliseconds) to second...">
<polygon fill="white" stroke="#666666" points="487.88,-155.75 366.88,-155.75 366.88,-137.25 487.88,-137.25 487.88,-155.75"/>
<text text-anchor="middle" x="427.38" y="-142.25" font-family="Helvetica,sans-Serif" font-size="10.00">VideoPlayer::SeekVideo</text>
</a>
</g>
</g>
<!-- Node17&#45;&gt;Node18 -->
<g id="edge17_Node000017_Node000018" class="edge">
<title>Node17&#45;&gt;Node18</title>
<g id="a_edge17_Node000017_Node000018"><a xlink:title=" ">
<path fill="none" stroke="#63b8ff" d="M313.49,-146.5C327.23,-146.5 341.54,-146.5 355.16,-146.5"/>
<polygon fill="#63b8ff" stroke="#63b8ff" points="354.91,-150 364.91,-146.5 354.91,-143 354.91,-150"/>
</a>
</g>
</g>
<!-- Node20&#45;&gt;Node6 -->
<g id="edge20_Node000020_Node000006" class="edge">
<title>Node20&#45;&gt;Node6</title>
<g id="a_edge20_Node000020_Node000006"><a xlink:title=" ">
<path fill="none" stroke="#63b8ff" d="M287.77,-230.22C311.64,-234.92 340.5,-240.6 365.7,-245.56"/>
<polygon fill="#63b8ff" stroke="#63b8ff" points="365.01,-248.99 375.5,-247.49 366.36,-242.12 365.01,-248.99"/>
</a>
</g>
</g>
<!-- Node24 -->
<g id="Node000024" class="node">
<title>Node24</title>
<g id="a_Node000024"><a xlink:href="classVideoPlayer.html#abf2b63d3ad93ffedd3615966e52b6aa0" target="_top" xlink:title="Sets the opacity for the background grid effect. Triggers an update() to repaint the widget.">
<polygon fill="white" stroke="#666666" points="497.62,-65.75 357.12,-65.75 357.12,-47.25 497.62,-47.25 497.62,-65.75"/>
<text text-anchor="middle" x="427.38" y="-52.25" font-family="Helvetica,sans-Serif" font-size="10.00">VideoPlayer::SetGridOpacity</text>
</a>
</g>
</g>
<!-- Node23&#45;&gt;Node24 -->
<g id="edge24_Node000023_Node000024" class="edge">
<title>Node23&#45;&gt;Node24</title>
<g id="a_edge24_Node000023_Node000024"><a xlink:title=" ">
<path fill="none" stroke="#63b8ff" d="M295.55,-41.89C311.41,-43.66 328.93,-45.62 345.86,-47.51"/>
<polygon fill="#63b8ff" stroke="#63b8ff" points="345.05,-50.94 355.37,-48.57 345.82,-43.98 345.05,-50.94"/>
</a>
</g>
</g>
<!-- Node25 -->
<g id="Node000025" class="node">
<title>Node25</title>
<g id="a_Node000025"><a xlink:href="classVideoPlayer.html#a1e79879c54531c1947e52ba04cc67491" target="_top" xlink:title="Sets the opacity for the scanline effect. Triggers an update() to repaint the widget.">
<polygon fill="white" stroke="#666666" points="490.5,-29 364.25,-29 364.25,0 490.5,0 490.5,-29"/>
<text text-anchor="start" x="372.25" y="-15.5" font-family="Helvetica,sans-Serif" font-size="10.00">VideoPlayer::SetScanline</text>
<text text-anchor="middle" x="427.38" y="-5" font-family="Helvetica,sans-Serif" font-size="10.00">Opacity</text>
</a>
</g>
</g>
<!-- Node23&#45;&gt;Node25 -->
<g id="edge25_Node000023_Node000025" class="edge">
<title>Node23&#45;&gt;Node25</title>
<g id="a_edge25_Node000023_Node000025"><a xlink:title=" ">
<path fill="none" stroke="#63b8ff" d="M295.55,-29.11C313.52,-27.11 333.63,-24.86 352.59,-22.74"/>
<polygon fill="#63b8ff" stroke="#63b8ff" points="352.85,-26.23 362.4,-21.65 352.08,-19.28 352.85,-26.23"/>
</a>
</g>
</g>
</g>
</svg>
