<?xml version="1.0" encoding="UTF-8" standalone="no"?>
<!DOCTYPE svg PUBLIC "-//W3C//DTD SVG 1.1//EN"
 "http://www.w3.org/Graphics/SVG/1.1/DTD/svg11.dtd">
<!-- Generated by graphviz version 12.2.1 (0)
 -->
<!-- Title: StreamDisplay Pages: 1 -->
<svg width="202pt" height="460pt"
 viewBox="0.00 0.00 201.50 460.00" xmlns="http://www.w3.org/2000/svg" xmlns:xlink="http://www.w3.org/1999/xlink">
<g id="graph0" class="graph" transform="scale(1 1) rotate(0) translate(4 456)">
<title>StreamDisplay</title>
<!-- Node1 -->
<g id="Node000001" class="node">
<title>Node1</title>
<g id="a_Node000001"><a xlink:title="A widget that manages and displays messages within a CommunicationStream.">
<polygon fill="#999999" stroke="none" points="193.5,-368.5 0,-368.5 0,0 193.5,0 193.5,-368.5"/>
<text text-anchor="start" x="64.5" y="-355" font-family="Helvetica,sans-Serif" font-size="10.00">StreamDisplay</text>
<text text-anchor="start" x="5.5" y="-340.5" font-family="Helvetica,sans-Serif" font-size="10.00">&#45;</text>
<text text-anchor="start" x="14" y="-340.5" font-family="Helvetica,sans-Serif" font-size="10.00">CommunicationStream</text>
<text text-anchor="start" x="14" y="-330" font-family="Helvetica,sans-Serif" font-size="10.00"> * communication_stream_</text>
<text text-anchor="start" x="5.5" y="-315.5" font-family="Helvetica,sans-Serif" font-size="10.00">&#45;</text>
<text text-anchor="start" x="14" y="-315.5" font-family="Helvetica,sans-Serif" font-size="10.00">QMap&lt; QString, StreamMessage</text>
<text text-anchor="start" x="14" y="-305" font-family="Helvetica,sans-Serif" font-size="10.00"> * &gt; displayed_progress_messages_</text>
<text text-anchor="start" x="5.5" y="-290.5" font-family="Helvetica,sans-Serif" font-size="10.00">&#45;</text>
<text text-anchor="start" x="14" y="-290.5" font-family="Helvetica,sans-Serif" font-size="10.00">QQueue&lt; MessageData</text>
<text text-anchor="start" x="14" y="-280" font-family="Helvetica,sans-Serif" font-size="10.00"> &gt; message_queue_</text>
<text text-anchor="start" x="5.5" y="-265.5" font-family="Helvetica,sans-Serif" font-size="10.00">&#45;</text>
<text text-anchor="start" x="14" y="-265.5" font-family="Helvetica,sans-Serif" font-size="10.00">QTimer * message_timer_</text>
<text text-anchor="start" x="4" y="-251" font-family="Helvetica,sans-Serif" font-size="10.00">+</text>
<text text-anchor="start" x="14" y="-251" font-family="Helvetica,sans-Serif" font-size="10.00">void AddMessage(const</text>
<text text-anchor="start" x="14" y="-240.5" font-family="Helvetica,sans-Serif" font-size="10.00"> QString &amp;message, const</text>
<text text-anchor="start" x="14" y="-230" font-family="Helvetica,sans-Serif" font-size="10.00"> QString &amp;message_id, StreamMessage</text>
<text text-anchor="start" x="14" y="-219.5" font-family="Helvetica,sans-Serif" font-size="10.00">::MessageType type)</text>
<text text-anchor="start" x="4" y="-205" font-family="Helvetica,sans-Serif" font-size="10.00">+</text>
<text text-anchor="start" x="14" y="-205" font-family="Helvetica,sans-Serif" font-size="10.00">void Clear()</text>
<text text-anchor="start" x="4" y="-190.5" font-family="Helvetica,sans-Serif" font-size="10.00">+</text>
<text text-anchor="start" x="14" y="-190.5" font-family="Helvetica,sans-Serif" font-size="10.00">void SetFrequency(const</text>
<text text-anchor="start" x="14" y="-180" font-family="Helvetica,sans-Serif" font-size="10.00"> QString &amp;frequency, const</text>
<text text-anchor="start" x="14" y="-169.5" font-family="Helvetica,sans-Serif" font-size="10.00"> QString &amp;name=QString())</text>
<text text-anchor="start" x="4" y="-155" font-family="Helvetica,sans-Serif" font-size="10.00">+</text>
<text text-anchor="start" x="14" y="-155" font-family="Helvetica,sans-Serif" font-size="10.00">StreamDisplay(QWidget</text>
<text text-anchor="start" x="14" y="-144.5" font-family="Helvetica,sans-Serif" font-size="10.00"> *parent=nullptr)</text>
<text text-anchor="start" x="4" y="-130" font-family="Helvetica,sans-Serif" font-size="10.00">+</text>
<text text-anchor="start" x="14" y="-130" font-family="Helvetica,sans-Serif" font-size="10.00">void ClearTransmittingUser</text>
<text text-anchor="start" x="14" y="-119.5" font-family="Helvetica,sans-Serif" font-size="10.00">() const</text>
<text text-anchor="start" x="4" y="-105" font-family="Helvetica,sans-Serif" font-size="10.00">+</text>
<text text-anchor="start" x="14" y="-105" font-family="Helvetica,sans-Serif" font-size="10.00">void SetAudioAmplitude</text>
<text text-anchor="start" x="14" y="-94.5" font-family="Helvetica,sans-Serif" font-size="10.00">(qreal amplitude) const</text>
<text text-anchor="start" x="4" y="-80" font-family="Helvetica,sans-Serif" font-size="10.00">+</text>
<text text-anchor="start" x="14" y="-80" font-family="Helvetica,sans-Serif" font-size="10.00">void SetGlitchIntensity</text>
<text text-anchor="start" x="14" y="-69.5" font-family="Helvetica,sans-Serif" font-size="10.00">(qreal intensity) const</text>
<text text-anchor="start" x="4" y="-55" font-family="Helvetica,sans-Serif" font-size="10.00">+</text>
<text text-anchor="start" x="14" y="-55" font-family="Helvetica,sans-Serif" font-size="10.00">void SetTransmittingUser</text>
<text text-anchor="start" x="14" y="-44.5" font-family="Helvetica,sans-Serif" font-size="10.00">(const QString &amp;userId) const</text>
<text text-anchor="start" x="5.5" y="-30" font-family="Helvetica,sans-Serif" font-size="10.00">&#45;</text>
<text text-anchor="start" x="14" y="-30" font-family="Helvetica,sans-Serif" font-size="10.00">void OnStreamMessageDestroyed</text>
<text text-anchor="start" x="14" y="-19.5" font-family="Helvetica,sans-Serif" font-size="10.00">(const QObject *object)</text>
<text text-anchor="start" x="5.5" y="-5" font-family="Helvetica,sans-Serif" font-size="10.00">&#45;</text>
<text text-anchor="start" x="14" y="-5" font-family="Helvetica,sans-Serif" font-size="10.00">void ProcessNextQueuedMessage()</text>
<polygon fill="#666666" stroke="#666666" points="0,-352 0,-352 193.5,-352 193.5,-352 0,-352"/>
<polygon fill="#666666" stroke="#666666" points="0,-262.5 0,-262.5 12,-262.5 12,-262.5 0,-262.5"/>
<polygon fill="#666666" stroke="#666666" points="12,-262.5 12,-262.5 193.5,-262.5 193.5,-262.5 12,-262.5"/>
<polygon fill="none" stroke="#666666" points="0,0 0,-368.5 193.5,-368.5 193.5,0 0,0"/>
</a>
</g>
</g>
<!-- Node2 -->
<g id="Node000002" class="node">
<title>Node2</title>
<g id="a_Node000002"><a xlink:title=" ">
<polygon fill="white" stroke="none" points="119.88,-452 73.62,-452 73.62,-404.5 119.88,-404.5 119.88,-452"/>
<text text-anchor="start" x="77.62" y="-438.5" font-family="Helvetica,sans-Serif" font-size="10.00">QWidget</text>
<text text-anchor="start" x="95.25" y="-424" font-family="Helvetica,sans-Serif" font-size="10.00"> </text>
<text text-anchor="start" x="95.25" y="-409.5" font-family="Helvetica,sans-Serif" font-size="10.00"> </text>
<polygon fill="#666666" stroke="#666666" points="73.62,-435.5 73.62,-435.5 119.88,-435.5 119.88,-435.5 73.62,-435.5"/>
<polygon fill="#666666" stroke="#666666" points="73.62,-421 73.62,-421 119.88,-421 119.88,-421 73.62,-421"/>
<polygon fill="none" stroke="#666666" points="73.62,-404.5 73.62,-452 119.88,-452 119.88,-404.5 73.62,-404.5"/>
</a>
</g>
</g>
<!-- Node2&#45;&gt;Node1 -->
<g id="edge1_Node000001_Node000002" class="edge">
<title>Node2&#45;&gt;Node1</title>
<g id="a_edge1_Node000001_Node000002"><a xlink:title=" ">
<path fill="none" stroke="#63b8ff" d="M96.75,-393.53C96.75,-385.97 96.75,-377.44 96.75,-368.26"/>
<polygon fill="none" stroke="#63b8ff" points="93.25,-393.4 96.75,-403.4 100.25,-393.4 93.25,-393.4"/>
</a>
</g>
</g>
</g>
</svg>
