<?xml version="1.0" encoding="UTF-8" standalone="no"?>
<!DOCTYPE svg PUBLIC "-//W3C//DTD SVG 1.1//EN"
 "http://www.w3.org/Graphics/SVG/1.1/DTD/svg11.dtd">
<!-- Generated by graphviz version 12.2.1 (0)
 -->
<!-- Title: CyberpunkTextEffect::NextAnimationStep Pages: 1 -->
<svg width="261pt" height="131pt"
 viewBox="0.00 0.00 260.50 131.00" xmlns="http://www.w3.org/2000/svg" xmlns:xlink="http://www.w3.org/1999/xlink">
<g id="graph0" class="graph" transform="scale(1 1) rotate(0) translate(4 127)">
<title>CyberpunkTextEffect::NextAnimationStep</title>
<!-- Node1 -->
<g id="Node000001" class="node">
<title>Node1</title>
<g id="a_Node000001"><a xlink:title="Slot called periodically by the timer to advance the animation. Executes the logic for the current an...">
<polygon fill="#999999" stroke="#666666" points="108.25,-76 0,-76 0,-47 108.25,-47 108.25,-76"/>
<text text-anchor="start" x="8" y="-62.5" font-family="Helvetica,sans-Serif" font-size="10.00">CyberpunkTextEffect</text>
<text text-anchor="middle" x="54.12" y="-52" font-family="Helvetica,sans-Serif" font-size="10.00">::NextAnimationStep</text>
</a>
</g>
</g>
<!-- Node2 -->
<g id="Node000002" class="node">
<title>Node2</title>
<g id="a_Node000002"><a xlink:href="classCyberpunkTextEffect.html#af7e2300823ad204915bb92001ab7149d" target="_top" xlink:title="Handles the final &quot;Glitching&quot; phase of the animation. Briefly displays the full text with rapidly cha...">
<polygon fill="white" stroke="#666666" points="252.5,-123 144.25,-123 144.25,-94 252.5,-94 252.5,-123"/>
<text text-anchor="start" x="152.25" y="-109.5" font-family="Helvetica,sans-Serif" font-size="10.00">CyberpunkTextEffect</text>
<text text-anchor="middle" x="198.38" y="-99" font-family="Helvetica,sans-Serif" font-size="10.00">::AnimateGlitching</text>
</a>
</g>
</g>
<!-- Node1&#45;&gt;Node2 -->
<g id="edge1_Node000001_Node000002" class="edge">
<title>Node1&#45;&gt;Node2</title>
<g id="a_edge1_Node000001_Node000002"><a xlink:title=" ">
<path fill="none" stroke="#63b8ff" d="M100.13,-76.37C113.24,-80.7 127.71,-85.48 141.4,-90.01"/>
<polygon fill="#63b8ff" stroke="#63b8ff" points="140.14,-93.28 150.73,-93.09 142.34,-86.63 140.14,-93.28"/>
</a>
</g>
</g>
<!-- Node3 -->
<g id="Node000003" class="node">
<title>Node3</title>
<g id="a_Node000003"><a xlink:href="classCyberpunkTextEffect.html#a7a70778a198c7f8aaacfb389fd086aa4" target="_top" xlink:title="Handles the &quot;Scanning&quot; phase of the animation. Displays a sweeping vertical bar &quot;|&quot; across the label&#39;...">
<polygon fill="white" stroke="#666666" points="252.5,-76 144.25,-76 144.25,-47 252.5,-47 252.5,-76"/>
<text text-anchor="start" x="152.25" y="-62.5" font-family="Helvetica,sans-Serif" font-size="10.00">CyberpunkTextEffect</text>
<text text-anchor="middle" x="198.38" y="-52" font-family="Helvetica,sans-Serif" font-size="10.00">::AnimateScanning</text>
</a>
</g>
</g>
<!-- Node1&#45;&gt;Node3 -->
<g id="edge2_Node000001_Node000003" class="edge">
<title>Node1&#45;&gt;Node3</title>
<g id="a_edge2_Node000001_Node000003"><a xlink:title=" ">
<path fill="none" stroke="#63b8ff" d="M108.5,-61.5C116.43,-61.5 124.67,-61.5 132.8,-61.5"/>
<polygon fill="#63b8ff" stroke="#63b8ff" points="132.66,-65 142.66,-61.5 132.66,-58 132.66,-65"/>
</a>
</g>
</g>
<!-- Node4 -->
<g id="Node000004" class="node">
<title>Node4</title>
<g id="a_Node000004"><a xlink:href="classCyberpunkTextEffect.html#a5690607a245f94527129f9fb5cb47acb" target="_top" xlink:title="Handles the &quot;Typing&quot; phase of the animation. Reveals the original text character by character,...">
<polygon fill="white" stroke="#666666" points="252.5,-29 144.25,-29 144.25,0 252.5,0 252.5,-29"/>
<text text-anchor="start" x="152.25" y="-15.5" font-family="Helvetica,sans-Serif" font-size="10.00">CyberpunkTextEffect</text>
<text text-anchor="middle" x="198.38" y="-5" font-family="Helvetica,sans-Serif" font-size="10.00">::AnimateTyping</text>
</a>
</g>
</g>
<!-- Node1&#45;&gt;Node4 -->
<g id="edge3_Node000001_Node000004" class="edge">
<title>Node1&#45;&gt;Node4</title>
<g id="a_edge3_Node000001_Node000004"><a xlink:title=" ">
<path fill="none" stroke="#63b8ff" d="M100.13,-46.63C113.24,-42.3 127.71,-37.52 141.4,-32.99"/>
<polygon fill="#63b8ff" stroke="#63b8ff" points="142.34,-36.37 150.73,-29.91 140.14,-29.72 142.34,-36.37"/>
</a>
</g>
</g>
</g>
</svg>
