<?xml version="1.0" encoding="UTF-8" standalone="no"?>
<!DOCTYPE svg PUBLIC "-//W3C//DTD SVG 1.1//EN"
 "http://www.w3.org/Graphics/SVG/1.1/DTD/svg11.dtd">
<!-- Generated by graphviz version 12.2.1 (0)
 -->
<!-- Title: StreamMessage::MarkAsRead Pages: 1 -->
<svg width="882pt" height="130pt"
 viewBox="0.00 0.00 881.50 129.75" xmlns="http://www.w3.org/2000/svg" xmlns:xlink="http://www.w3.org/1999/xlink">
<g id="graph0" class="graph" transform="scale(1 1) rotate(0) translate(4 125.75)">
<title>StreamMessage::MarkAsRead</title>
<!-- Node1 -->
<g id="Node000001" class="node">
<title>Node1</title>
<g id="a_Node000001"><a xlink:title="Marks the message as read, triggers the appropriate closing animation (Electronic Shutdown or a simpl...">
<polygon fill="#999999" stroke="#666666" points="873.5,-60.5 723.25,-60.5 723.25,-42 873.5,-42 873.5,-60.5"/>
<text text-anchor="middle" x="798.38" y="-47" font-family="Helvetica,sans-Serif" font-size="10.00">StreamMessage::MarkAsRead</text>
</a>
</g>
</g>
<!-- Node2 -->
<g id="Node000002" class="node">
<title>Node2</title>
<g id="a_Node000002"><a xlink:href="classStreamMessage.html#a0f7169a7adfa4c161d395db0cc3fa244" target="_top" xlink:title="Overridden key press event handler. Handles Space/Enter to mark as read, and Left/Right arrows for na...">
<polygon fill="white" stroke="#666666" points="684.25,-102.5 525.75,-102.5 525.75,-84 684.25,-84 684.25,-102.5"/>
<text text-anchor="middle" x="605" y="-89" font-family="Helvetica,sans-Serif" font-size="10.00">StreamMessage::keyPressEvent</text>
</a>
</g>
</g>
<!-- Node1&#45;&gt;Node2 -->
<g id="edge1_Node000001_Node000002" class="edge">
<title>Node1&#45;&gt;Node2</title>
<g id="a_edge1_Node000001_Node000002"><a xlink:title=" ">
<path fill="none" stroke="#63b8ff" d="M742.12,-63.38C712.9,-69.79 677.51,-77.56 650.15,-83.56"/>
<polygon fill="#63b8ff" stroke="#63b8ff" points="742.49,-66.88 751.51,-61.32 740.99,-60.04 742.49,-66.88"/>
</a>
</g>
</g>
<!-- Node3 -->
<g id="Node000003" class="node">
<title>Node3</title>
<g id="a_Node000003"><a xlink:href="classCommunicationStream.html#a7cf62e4c83ddbf85a1bb47ddb8d9422b" target="_top" xlink:title="Slot triggered when the user requests to close the current message (e.g., clicks &quot;Read&quot; or presses En...">
<polygon fill="white" stroke="#666666" points="662.88,-65.75 547.12,-65.75 547.12,-36.75 662.88,-36.75 662.88,-65.75"/>
<text text-anchor="start" x="555.12" y="-52.25" font-family="Helvetica,sans-Serif" font-size="10.00">CommunicationStream</text>
<text text-anchor="middle" x="605" y="-41.75" font-family="Helvetica,sans-Serif" font-size="10.00">::OnMessageRead</text>
</a>
</g>
</g>
<!-- Node1&#45;&gt;Node3 -->
<g id="edge2_Node000001_Node000003" class="edge">
<title>Node1&#45;&gt;Node3</title>
<g id="a_edge2_Node000001_Node000003"><a xlink:title=" ">
<path fill="none" stroke="#63b8ff" d="M711.57,-51.25C695.17,-51.25 678.37,-51.25 663.15,-51.25"/>
<polygon fill="#63b8ff" stroke="#63b8ff" points="711.32,-54.75 721.32,-51.25 711.32,-47.75 711.32,-54.75"/>
</a>
</g>
</g>
<!-- Node12 -->
<g id="Node000012" class="node">
<title>Node12</title>
<g id="a_Node000012"><a xlink:href="classStreamMessage.html#a9857276cff1cb0de012614e87fee1ac4" target="_top" xlink:title="Constructs a StreamMessage widget. Initializes UI elements (layout, text display/label/scroll area),...">
<polygon fill="white" stroke="#666666" points="687.25,-18.5 522.75,-18.5 522.75,0 687.25,0 687.25,-18.5"/>
<text text-anchor="middle" x="605" y="-5" font-family="Helvetica,sans-Serif" font-size="10.00">StreamMessage::StreamMessage</text>
</a>
</g>
</g>
<!-- Node1&#45;&gt;Node12 -->
<g id="edge10_Node000001_Node000012" class="edge">
<title>Node1&#45;&gt;Node12</title>
<g id="a_edge10_Node000001_Node000012"><a xlink:title=" ">
<path fill="none" stroke="#63b8ff" d="M742.12,-39.12C712.9,-32.71 677.51,-24.94 650.15,-18.94"/>
<polygon fill="#63b8ff" stroke="#63b8ff" points="740.99,-42.46 751.51,-41.18 742.49,-35.62 740.99,-42.46"/>
</a>
</g>
</g>
<!-- Node4 -->
<g id="Node000004" class="node">
<title>Node4</title>
<g id="a_Node000004"><a xlink:href="classCommunicationStream.html#aa91c3c46034a10ca7393998082e26a25" target="_top" xlink:title="Connects the necessary signals (navigation, read, hidden) from a StreamMessage widget to this Communi...">
<polygon fill="white" stroke="#666666" points="486.75,-88.75 341.75,-88.75 341.75,-59.75 486.75,-59.75 486.75,-88.75"/>
<text text-anchor="start" x="349.75" y="-75.25" font-family="Helvetica,sans-Serif" font-size="10.00">CommunicationStream</text>
<text text-anchor="middle" x="414.25" y="-64.75" font-family="Helvetica,sans-Serif" font-size="10.00">::ConnectSignalsForMessage</text>
</a>
</g>
</g>
<!-- Node3&#45;&gt;Node4 -->
<g id="edge3_Node000003_Node000004" class="edge">
<title>Node3&#45;&gt;Node4</title>
<g id="a_edge3_Node000003_Node000004"><a xlink:title=" ">
<path fill="none" stroke="#63b8ff" d="M535.62,-59.58C519.89,-61.5 503.12,-63.54 487.25,-65.48"/>
<polygon fill="#63b8ff" stroke="#63b8ff" points="535.85,-63.08 545.35,-58.4 535,-56.13 535.85,-63.08"/>
</a>
</g>
</g>
<!-- Node10 -->
<g id="Node000010" class="node">
<title>Node10</title>
<g id="a_Node000010"><a xlink:href="classCommunicationStream.html#a8a07b470a5e55591ef90260ad5ec60da" target="_top" xlink:title="Handles key presses for message navigation (Left/Right arrows) and closing (Enter).">
<polygon fill="white" stroke="#666666" points="472.12,-41.75 356.38,-41.75 356.38,-12.75 472.12,-12.75 472.12,-41.75"/>
<text text-anchor="start" x="364.38" y="-28.25" font-family="Helvetica,sans-Serif" font-size="10.00">CommunicationStream</text>
<text text-anchor="middle" x="414.25" y="-17.75" font-family="Helvetica,sans-Serif" font-size="10.00">::keyPressEvent</text>
</a>
</g>
</g>
<!-- Node3&#45;&gt;Node10 -->
<g id="edge9_Node000003_Node000010" class="edge">
<title>Node3&#45;&gt;Node10</title>
<g id="a_edge9_Node000003_Node000010"><a xlink:title=" ">
<path fill="none" stroke="#63b8ff" d="M535.58,-42.55C514.89,-39.92 492.4,-37.06 472.52,-34.53"/>
<polygon fill="#63b8ff" stroke="#63b8ff" points="534.99,-46 545.36,-43.79 535.88,-39.06 534.99,-46"/>
</a>
</g>
</g>
<!-- Node5 -->
<g id="Node000005" class="node">
<title>Node5</title>
<g id="a_Node000005"><a xlink:href="classCommunicationStream.html#ae3b9b361caa5123daac847c60475d605" target="_top" xlink:title="Adds a new standard message to the stream. Initiates the receiving animation. The message is displaye...">
<polygon fill="white" stroke="#666666" points="132.62,-121.75 16.88,-121.75 16.88,-92.75 132.62,-92.75 132.62,-121.75"/>
<text text-anchor="start" x="24.88" y="-108.25" font-family="Helvetica,sans-Serif" font-size="10.00">CommunicationStream</text>
<text text-anchor="middle" x="74.75" y="-97.75" font-family="Helvetica,sans-Serif" font-size="10.00">::AddMessage</text>
</a>
</g>
</g>
<!-- Node4&#45;&gt;Node5 -->
<g id="edge4_Node000004_Node000005" class="edge">
<title>Node4&#45;&gt;Node5</title>
<g id="a_edge4_Node000004_Node000005"><a xlink:title=" ">
<path fill="none" stroke="#63b8ff" d="M344.26,-91.58C331.52,-94.23 318.29,-96.62 305.75,-98.25 247.1,-105.88 179.39,-107.7 132.7,-107.87"/>
<polygon fill="#63b8ff" stroke="#63b8ff" points="344.77,-95.05 353.81,-89.52 343.3,-88.21 344.77,-95.05"/>
</a>
</g>
</g>
<!-- Node6 -->
<g id="Node000006" class="node">
<title>Node6</title>
<g id="a_Node000006"><a xlink:href="classCommunicationStream.html#a10a56a4dc3eeeaf4865d0f63f077e3bf" target="_top" xlink:title="Adds a new message with attachment content to the stream. Initiates the receiving animation....">
<polygon fill="white" stroke="#666666" points="149.5,-64.75 0,-64.75 0,-35.75 149.5,-35.75 149.5,-64.75"/>
<text text-anchor="start" x="8" y="-51.25" font-family="Helvetica,sans-Serif" font-size="10.00">CommunicationStream</text>
<text text-anchor="middle" x="74.75" y="-40.75" font-family="Helvetica,sans-Serif" font-size="10.00">::AddMessageWithAttachment</text>
</a>
</g>
</g>
<!-- Node4&#45;&gt;Node6 -->
<g id="edge5_Node000004_Node000006" class="edge">
<title>Node4&#45;&gt;Node6</title>
<g id="a_edge5_Node000004_Node000006"><a xlink:title=" ">
<path fill="none" stroke="#63b8ff" d="M342.78,-57.01C330.5,-54.62 317.81,-52.55 305.75,-51.25 253.84,-45.65 194.96,-45.5 149.77,-46.71"/>
<polygon fill="#63b8ff" stroke="#63b8ff" points="341.92,-60.4 352.42,-58.96 343.31,-53.54 341.92,-60.4"/>
</a>
</g>
</g>
<!-- Node7 -->
<g id="Node000007" class="node">
<title>Node7</title>
<g id="a_Node000007"><a xlink:href="classCommunicationStream.html#aba44a533978e83748764534a8682c56f" target="_top" xlink:title="Displays the message at the specified index in the messages_ list. Hides the previously displayed mes...">
<polygon fill="#fff0f0" stroke="red" points="305.75,-88.75 185.5,-88.75 185.5,-59.75 305.75,-59.75 305.75,-88.75"/>
<text text-anchor="start" x="193.5" y="-75.25" font-family="Helvetica,sans-Serif" font-size="10.00">CommunicationStream</text>
<text text-anchor="middle" x="245.62" y="-64.75" font-family="Helvetica,sans-Serif" font-size="10.00">::ShowMessageAtIndex</text>
</a>
</g>
</g>
<!-- Node4&#45;&gt;Node7 -->
<g id="edge6_Node000004_Node000007" class="edge">
<title>Node4&#45;&gt;Node7</title>
<g id="a_edge6_Node000004_Node000007"><a xlink:title=" ">
<path fill="none" stroke="#63b8ff" d="M330.19,-74.25C322.09,-74.25 313.98,-74.25 306.18,-74.25"/>
<polygon fill="#63b8ff" stroke="#63b8ff" points="330.11,-77.75 340.11,-74.25 330.11,-70.75 330.11,-77.75"/>
</a>
</g>
</g>
<!-- Node7&#45;&gt;Node5 -->
<g id="edge7_Node000007_Node000005" class="edge">
<title>Node7&#45;&gt;Node5</title>
<g id="a_edge7_Node000007_Node000005"><a xlink:title=" ">
<path fill="none" stroke="#63b8ff" d="M173.82,-88.09C160.22,-90.74 146.15,-93.49 133.05,-96.05"/>
<polygon fill="#63b8ff" stroke="#63b8ff" points="174.46,-91.53 183.6,-86.17 173.11,-84.66 174.46,-91.53"/>
</a>
</g>
</g>
<!-- Node7&#45;&gt;Node6 -->
<g id="edge8_Node000007_Node000006" class="edge">
<title>Node7&#45;&gt;Node6</title>
<g id="a_edge8_Node000007_Node000006"><a xlink:title=" ">
<path fill="none" stroke="#63b8ff" d="M173.69,-64.17C165.81,-63.05 157.76,-61.91 149.84,-60.78"/>
<polygon fill="#63b8ff" stroke="#63b8ff" points="173.19,-67.63 183.59,-65.58 174.18,-60.7 173.19,-67.63"/>
</a>
</g>
</g>
</g>
</svg>
