<?xml version="1.0" encoding="UTF-8" standalone="no"?>
<!DOCTYPE svg PUBLIC "-//W3C//DTD SVG 1.1//EN"
 "http://www.w3.org/Graphics/SVG/1.1/DTD/svg11.dtd">
<!-- Generated by graphviz version 12.2.1 (0)
 -->
<!-- Title: AudioDecoder::positionChanged Pages: 1 -->
<svg width="459pt" height="138pt"
 viewBox="0.00 0.00 458.75 137.50" xmlns="http://www.w3.org/2000/svg" xmlns:xlink="http://www.w3.org/1999/xlink">

<svg id="main" version="1.1" xmlns="http://www.w3.org/2000/svg" xmlns:xlink="http://www.w3.org/1999/xlink" xml:space="preserve">

<style type="text/css"><![CDATA[
.node, .edge {opacity: 0.7;}
.node.selected, .edge.selected {opacity: 1;}
.edge:hover path { stroke: red; }
.edge:hover polygon { stroke: red; fill: red; }
]]></style>
<script type="application/ecmascript" xlink:href="svg.min.js"/>
<svg id="graph" class="graph">
<g id="graph0" class="graph" transform="scale(1 1) rotate(0) translate(4 133.5)">
<title>AudioDecoder::positionChanged</title>
<!-- Node1 -->
<g id="Node000001" class="node">
<title>Node1</title>
<g id="a_Node000001"><a xlink:title="Emitted periodically during playback to indicate the current position.">
<polygon fill="#999999" stroke="#666666" points="450.75,-73.5 294.5,-73.5 294.5,-55 450.75,-55 450.75,-73.5"/>
<text text-anchor="middle" x="372.62" y="-60" font-family="Helvetica,sans-Serif" font-size="10.00">AudioDecoder::positionChanged</text>
</a>
</g>
</g>
<!-- Node2 -->
<g id="Node000002" class="node">
<title>Node2</title>
<g id="a_Node000002"><a xlink:href="classAudioPlayer.html#a4da9701f61a9eb8e270edbf995c72755" target="_top" xlink:title="Constructs an InlineAudioPlayer widget. Initializes UI elements (labels, buttons, sliders,...">
<polygon fill="white" stroke="#666666" points="258.5,-129.5 133,-129.5 133,-111 258.5,-111 258.5,-129.5"/>
<text text-anchor="middle" x="195.75" y="-116" font-family="Helvetica,sans-Serif" font-size="10.00">AudioPlayer::AudioPlayer</text>
</a>
</g>
</g>
<!-- Node1&#45;&gt;Node2 -->
<g id="edge1_Node000001_Node000002" class="edge">
<title>Node1&#45;&gt;Node2</title>
<g id="a_edge1_Node000001_Node000002"><a xlink:title=" ">
<path fill="none" stroke="#63b8ff" d="M331.62,-77.53C310,-84.65 282.82,-93.53 258.5,-101.25 248.77,-104.34 238.16,-107.63 228.51,-110.59"/>
<polygon fill="#63b8ff" stroke="#63b8ff" points="332.54,-80.91 340.93,-74.45 330.34,-74.26 332.54,-80.91"/>
</a>
</g>
</g>
<!-- Node3 -->
<g id="Node000003" class="node">
<title>Node3</title>
<g id="a_Node000003"><a xlink:href="classVideoDecoder.html#aa8f8aabbe65727acd5ef5cfdc5f3b69b" target="_top" xlink:title="Initializes the FFmpeg components for decoding the video and potentially audio. Opens the input strea...">
<polygon fill="white" stroke="#666666" points="255.12,-92.5 136.38,-92.5 136.38,-74 255.12,-74 255.12,-92.5"/>
<text text-anchor="middle" x="195.75" y="-79" font-family="Helvetica,sans-Serif" font-size="10.00">VideoDecoder::Initialize</text>
</a>
</g>
</g>
<!-- Node1&#45;&gt;Node3 -->
<g id="edge2_Node000001_Node000003" class="edge">
<title>Node1&#45;&gt;Node3</title>
<g id="a_edge2_Node000001_Node000003"><a xlink:title=" ">
<path fill="none" stroke="#63b8ff" d="M282.86,-73.89C273.59,-74.9 264.33,-75.91 255.51,-76.87"/>
<polygon fill="#63b8ff" stroke="#63b8ff" points="283.09,-77.39 292.65,-72.83 282.33,-70.43 283.09,-77.39"/>
</a>
</g>
</g>
<!-- Node5 -->
<g id="Node000005" class="node">
<title>Node5</title>
<g id="a_Node000005"><a xlink:href="classAudioDecoder.html#a06293e1d80073603f552f0af4204b147" target="_top" xlink:title="Resets the playback position to the beginning (0 seconds). Seeks the FFmpeg format context,...">
<polygon fill="white" stroke="#666666" points="250.25,-55.5 141.25,-55.5 141.25,-37 250.25,-37 250.25,-55.5"/>
<text text-anchor="middle" x="195.75" y="-42" font-family="Helvetica,sans-Serif" font-size="10.00">AudioDecoder::Reset</text>
</a>
</g>
</g>
<!-- Node1&#45;&gt;Node5 -->
<g id="edge4_Node000001_Node000005" class="edge">
<title>Node1&#45;&gt;Node5</title>
<g id="a_edge4_Node000001_Node000005"><a xlink:title=" ">
<path fill="none" stroke="#63b8ff" d="M282.74,-55.1C271.76,-53.97 260.81,-52.84 250.58,-51.79"/>
<polygon fill="#63b8ff" stroke="#63b8ff" points="282.35,-58.58 292.65,-56.12 283.06,-51.62 282.35,-58.58"/>
</a>
</g>
</g>
<!-- Node6 -->
<g id="Node000006" class="node">
<title>Node6</title>
<g id="a_Node000006"><a xlink:href="classAudioDecoder.html#a46043f6510cb80d1c4c14a18f23ecee2" target="_top" xlink:title="The main function executed by the QThread. Contains the loop that reads packets, decodes frames,...">
<polygon fill="white" stroke="#666666" points="244.25,-18.5 147.25,-18.5 147.25,0 244.25,0 244.25,-18.5"/>
<text text-anchor="middle" x="195.75" y="-5" font-family="Helvetica,sans-Serif" font-size="10.00">AudioDecoder::run</text>
</a>
</g>
</g>
<!-- Node1&#45;&gt;Node6 -->
<g id="edge5_Node000001_Node000006" class="edge">
<title>Node1&#45;&gt;Node6</title>
<g id="a_edge5_Node000001_Node000006"><a xlink:title=" ">
<path fill="none" stroke="#63b8ff" d="M330.69,-51.12C309.21,-44.26 282.45,-35.75 258.5,-28.25 248.76,-25.2 238.14,-21.92 228.5,-18.96"/>
<polygon fill="#63b8ff" stroke="#63b8ff" points="329.37,-54.37 339.96,-54.08 331.5,-47.7 329.37,-54.37"/>
</a>
</g>
</g>
<!-- Node4 -->
<g id="Node000004" class="node">
<title>Node4</title>
<g id="a_Node000004"><a xlink:href="classVideoDecoder.html#a134b48e98d0b9db4011cfea08d0924da" target="_top" xlink:title="The main function executed by the QThread. Contains the loop that reads packets, decodes video frames...">
<polygon fill="white" stroke="#666666" points="97,-92.5 0,-92.5 0,-74 97,-74 97,-92.5"/>
<text text-anchor="middle" x="48.5" y="-79" font-family="Helvetica,sans-Serif" font-size="10.00">VideoDecoder::run</text>
</a>
</g>
</g>
<!-- Node3&#45;&gt;Node4 -->
<g id="edge3_Node000003_Node000004" class="edge">
<title>Node3&#45;&gt;Node4</title>
<g id="a_edge3_Node000003_Node000004"><a xlink:title=" ">
<path fill="none" stroke="#63b8ff" d="M124.78,-83.25C115.45,-83.25 106.06,-83.25 97.23,-83.25"/>
<polygon fill="#63b8ff" stroke="#63b8ff" points="124.58,-86.75 134.58,-83.25 124.58,-79.75 124.58,-86.75"/>
</a>
</g>
</g>
</g>
</svg>
</svg>

<style type='text/css'>
<![CDATA[
[data-mouse-over-selected='false'] { opacity: 0.7; }
[data-mouse-over-selected='true']  { opacity: 1.0; }
]]>
</style>
<script type="application/ecmascript"><![CDATA[
document.addEventListener('DOMContentLoaded', (event) => {
  highlightEdges();
  highlightAdjacentNodes();
});
]]></script>
</svg>
