<?xml version="1.0" encoding="UTF-8" standalone="no"?>
<!DOCTYPE svg PUBLIC "-//W3C//DTD SVG 1.1//EN"
 "http://www.w3.org/Graphics/SVG/1.1/DTD/svg11.dtd">
<!-- Generated by graphviz version 12.2.1 (0)
 -->
<!-- Title: SecurityQuestionLayer Pages: 1 -->
<svg width="378pt" height="670pt"
 viewBox="0.00 0.00 377.88 669.50" xmlns="http://www.w3.org/2000/svg" xmlns:xlink="http://www.w3.org/1999/xlink">
<g id="graph0" class="graph" transform="scale(1 1) rotate(0) translate(4 665.5)">
<title>SecurityQuestionLayer</title>
<!-- Node1 -->
<g id="Node000001" class="node">
<title>Node1</title>
<g id="a_Node000001"><a xlink:title="A security layer simulating a security question challenge.">
<polygon fill="#999999" stroke="none" points="216.88,-212 69.12,-212 69.12,0 216.88,0 216.88,-212"/>
<text text-anchor="start" x="93.88" y="-198.5" font-family="Helvetica,sans-Serif" font-size="10.00">SecurityQuestionLayer</text>
<text text-anchor="start" x="74.62" y="-184" font-family="Helvetica,sans-Serif" font-size="10.00">&#45;</text>
<text text-anchor="start" x="83.12" y="-184" font-family="Helvetica,sans-Serif" font-size="10.00">QLineEdit * security</text>
<text text-anchor="start" x="83.12" y="-173.5" font-family="Helvetica,sans-Serif" font-size="10.00">_question_input_</text>
<text text-anchor="start" x="74.62" y="-159" font-family="Helvetica,sans-Serif" font-size="10.00">&#45;</text>
<text text-anchor="start" x="83.12" y="-159" font-family="Helvetica,sans-Serif" font-size="10.00">QLabel * security_question</text>
<text text-anchor="start" x="83.12" y="-148.5" font-family="Helvetica,sans-Serif" font-size="10.00">_label_</text>
<text text-anchor="start" x="74.62" y="-134" font-family="Helvetica,sans-Serif" font-size="10.00">&#45;</text>
<text text-anchor="start" x="83.12" y="-134" font-family="Helvetica,sans-Serif" font-size="10.00">QTimer * security_question</text>
<text text-anchor="start" x="83.12" y="-123.5" font-family="Helvetica,sans-Serif" font-size="10.00">_timer_</text>
<text text-anchor="start" x="73.12" y="-109" font-family="Helvetica,sans-Serif" font-size="10.00">+</text>
<text text-anchor="start" x="83.12" y="-109" font-family="Helvetica,sans-Serif" font-size="10.00">void Initialize() override</text>
<text text-anchor="start" x="73.12" y="-94.5" font-family="Helvetica,sans-Serif" font-size="10.00">+</text>
<text text-anchor="start" x="83.12" y="-94.5" font-family="Helvetica,sans-Serif" font-size="10.00">void Reset() override</text>
<text text-anchor="start" x="73.12" y="-80" font-family="Helvetica,sans-Serif" font-size="10.00">+</text>
<text text-anchor="start" x="83.12" y="-80" font-family="Helvetica,sans-Serif" font-size="10.00">SecurityQuestionLayer</text>
<text text-anchor="start" x="83.12" y="-69.5" font-family="Helvetica,sans-Serif" font-size="10.00">(QWidget *parent=nullptr)</text>
<text text-anchor="start" x="73.12" y="-55" font-family="Helvetica,sans-Serif" font-size="10.00">+</text>
<text text-anchor="start" x="83.12" y="-55" font-family="Helvetica,sans-Serif" font-size="10.00">~SecurityQuestionLayer</text>
<text text-anchor="start" x="83.12" y="-44.5" font-family="Helvetica,sans-Serif" font-size="10.00">() override</text>
<text text-anchor="start" x="74.62" y="-30" font-family="Helvetica,sans-Serif" font-size="10.00">&#45;</text>
<text text-anchor="start" x="83.12" y="-30" font-family="Helvetica,sans-Serif" font-size="10.00">void CheckSecurityAnswer()</text>
<text text-anchor="start" x="74.62" y="-15.5" font-family="Helvetica,sans-Serif" font-size="10.00">&#45;</text>
<text text-anchor="start" x="83.12" y="-15.5" font-family="Helvetica,sans-Serif" font-size="10.00">void SecurityQuestionTimeout</text>
<text text-anchor="start" x="83.12" y="-5" font-family="Helvetica,sans-Serif" font-size="10.00">() const</text>
<polygon fill="#666666" stroke="#666666" points="69.12,-195.5 69.12,-195.5 216.88,-195.5 216.88,-195.5 69.12,-195.5"/>
<polygon fill="#666666" stroke="#666666" points="69.12,-120.5 69.12,-120.5 81.12,-120.5 81.12,-120.5 69.12,-120.5"/>
<polygon fill="#666666" stroke="#666666" points="81.12,-120.5 81.12,-120.5 216.88,-120.5 216.88,-120.5 81.12,-120.5"/>
<polygon fill="none" stroke="#666666" points="69.12,0 69.12,-212 216.88,-212 216.88,0 69.12,0"/>
</a>
</g>
</g>
<!-- Node2 -->
<g id="Node000002" class="node">
<title>Node2</title>
<g id="a_Node000002"><a xlink:href="classSecurityLayer.html" target="_top" xlink:title="Abstract base class for individual security challenge layers.">
<polygon fill="white" stroke="none" points="126,-473.75 0,-473.75 0,-361.75 126,-361.75 126,-473.75"/>
<text text-anchor="start" x="33.38" y="-460.25" font-family="Helvetica,sans-Serif" font-size="10.00">SecurityLayer</text>
<text text-anchor="start" x="61.5" y="-445.75" font-family="Helvetica,sans-Serif" font-size="10.00"> </text>
<text text-anchor="start" x="4" y="-431.25" font-family="Helvetica,sans-Serif" font-size="10.00">+</text>
<text text-anchor="start" x="14" y="-431.25" font-family="Helvetica,sans-Serif" font-size="10.00">virtual void Initialize()=0</text>
<text text-anchor="start" x="4" y="-416.75" font-family="Helvetica,sans-Serif" font-size="10.00">+</text>
<text text-anchor="start" x="14" y="-416.75" font-family="Helvetica,sans-Serif" font-size="10.00">virtual void Reset()=0</text>
<text text-anchor="start" x="4" y="-402.25" font-family="Helvetica,sans-Serif" font-size="10.00">+</text>
<text text-anchor="start" x="14" y="-402.25" font-family="Helvetica,sans-Serif" font-size="10.00">SecurityLayer(QWidget</text>
<text text-anchor="start" x="14" y="-391.75" font-family="Helvetica,sans-Serif" font-size="10.00"> *parent=nullptr)</text>
<text text-anchor="start" x="4" y="-377.25" font-family="Helvetica,sans-Serif" font-size="10.00">+</text>
<text text-anchor="start" x="14" y="-377.25" font-family="Helvetica,sans-Serif" font-size="10.00">~SecurityLayer() override</text>
<text text-anchor="start" x="14" y="-366.75" font-family="Helvetica,sans-Serif" font-size="10.00">=default</text>
<polygon fill="#666666" stroke="#666666" points="0,-457.25 0,-457.25 126,-457.25 126,-457.25 0,-457.25"/>
<polygon fill="#666666" stroke="#666666" points="0,-442.75 0,-442.75 126,-442.75 126,-442.75 0,-442.75"/>
<polygon fill="none" stroke="#666666" points="0,-361.75 0,-473.75 126,-473.75 126,-361.75 0,-361.75"/>
</a>
</g>
</g>
<!-- Node2&#45;&gt;Node1 -->
<g id="edge1_Node000001_Node000002" class="edge">
<title>Node2&#45;&gt;Node1</title>
<g id="a_edge1_Node000001_Node000002"><a xlink:title=" ">
<path fill="none" stroke="#63b8ff" d="M79.97,-351.03C90.41,-310.61 104.03,-257.91 115.93,-211.83"/>
<polygon fill="none" stroke="#63b8ff" points="76.61,-350.06 77.5,-360.62 83.39,-351.81 76.61,-350.06"/>
</a>
</g>
</g>
<!-- Node3 -->
<g id="Node000003" class="node">
<title>Node3</title>
<g id="a_Node000003"><a xlink:title=" ">
<polygon fill="white" stroke="none" points="86.12,-661.5 39.88,-661.5 39.88,-614 86.12,-614 86.12,-661.5"/>
<text text-anchor="start" x="43.88" y="-648" font-family="Helvetica,sans-Serif" font-size="10.00">QWidget</text>
<text text-anchor="start" x="61.5" y="-633.5" font-family="Helvetica,sans-Serif" font-size="10.00"> </text>
<text text-anchor="start" x="61.5" y="-619" font-family="Helvetica,sans-Serif" font-size="10.00"> </text>
<polygon fill="#666666" stroke="#666666" points="39.88,-645 39.88,-645 86.12,-645 86.12,-645 39.88,-645"/>
<polygon fill="#666666" stroke="#666666" points="39.88,-630.5 39.88,-630.5 86.12,-630.5 86.12,-630.5 39.88,-630.5"/>
<polygon fill="none" stroke="#666666" points="39.88,-614 39.88,-661.5 86.12,-661.5 86.12,-614 39.88,-614"/>
</a>
</g>
</g>
<!-- Node3&#45;&gt;Node2 -->
<g id="edge2_Node000002_Node000003" class="edge">
<title>Node3&#45;&gt;Node2</title>
<g id="a_edge2_Node000002_Node000003"><a xlink:title=" ">
<path fill="none" stroke="#63b8ff" d="M63,-602.88C63,-568.3 63,-514.07 63,-473.4"/>
<polygon fill="none" stroke="#63b8ff" points="59.5,-602.73 63,-612.73 66.5,-602.73 59.5,-602.73"/>
</a>
</g>
</g>
<!-- Node4 -->
<g id="Node000004" class="node">
<title>Node4</title>
<g id="a_Node000004"><a xlink:href="classTranslationManager.html" target="_top" xlink:title="Manages the loading and delivery of translations for applications.">
<polygon fill="white" stroke="none" points="303.88,-577 144.12,-577 144.12,-258.5 303.88,-258.5 303.88,-577"/>
<text text-anchor="start" x="181.62" y="-563.5" font-family="Helvetica,sans-Serif" font-size="10.00">TranslationManager</text>
<text text-anchor="start" x="149.62" y="-549" font-family="Helvetica,sans-Serif" font-size="10.00">&#45;</text>
<text text-anchor="start" x="158.12" y="-549" font-family="Helvetica,sans-Serif" font-size="10.00">QString current_language</text>
<text text-anchor="start" x="158.12" y="-538.5" font-family="Helvetica,sans-Serif" font-size="10.00">_code_</text>
<text text-anchor="start" x="149.62" y="-524" font-family="Helvetica,sans-Serif" font-size="10.00">&#45;</text>
<text text-anchor="start" x="158.12" y="-524" font-family="Helvetica,sans-Serif" font-size="10.00">bool initialized_</text>
<text text-anchor="start" x="149.62" y="-509.5" font-family="Helvetica,sans-Serif" font-size="10.00">&#45;</text>
<text text-anchor="start" x="158.12" y="-509.5" font-family="Helvetica,sans-Serif" font-size="10.00">QJsonObject translations_</text>
<text text-anchor="start" x="149.62" y="-495" font-family="Helvetica,sans-Serif" font-size="10.00">&#45;</text>
<text text-anchor="start" x="158.12" y="-495" font-family="Helvetica,sans-Serif" font-size="10.00">static QMutex mutex_</text>
<text text-anchor="start" x="148.12" y="-480.5" font-family="Helvetica,sans-Serif" font-size="10.00">+</text>
<text text-anchor="start" x="158.12" y="-480.5" font-family="Helvetica,sans-Serif" font-size="10.00">QString GetCurrentLanguage</text>
<text text-anchor="start" x="158.12" y="-470" font-family="Helvetica,sans-Serif" font-size="10.00">() const</text>
<text text-anchor="start" x="148.12" y="-455.5" font-family="Helvetica,sans-Serif" font-size="10.00">+</text>
<text text-anchor="start" x="158.12" y="-455.5" font-family="Helvetica,sans-Serif" font-size="10.00">bool Initialize(const</text>
<text text-anchor="start" x="158.12" y="-445" font-family="Helvetica,sans-Serif" font-size="10.00"> QString &amp;language_code)</text>
<text text-anchor="start" x="148.12" y="-430.5" font-family="Helvetica,sans-Serif" font-size="10.00">+</text>
<text text-anchor="start" x="158.12" y="-430.5" font-family="Helvetica,sans-Serif" font-size="10.00">QString Translate(const</text>
<text text-anchor="start" x="158.12" y="-420" font-family="Helvetica,sans-Serif" font-size="10.00"> QString &amp;key, const QString</text>
<text text-anchor="start" x="158.12" y="-409.5" font-family="Helvetica,sans-Serif" font-size="10.00"> &amp;default_value=QString()) const</text>
<text text-anchor="start" x="148.12" y="-395" font-family="Helvetica,sans-Serif" font-size="10.00">+</text>
<text text-anchor="start" x="158.12" y="-395" font-family="Helvetica,sans-Serif" font-size="10.00">static TranslationManager</text>
<text text-anchor="start" x="158.12" y="-384.5" font-family="Helvetica,sans-Serif" font-size="10.00"> * GetInstance()</text>
<text text-anchor="start" x="149.62" y="-370" font-family="Helvetica,sans-Serif" font-size="10.00">&#45;</text>
<text text-anchor="start" x="158.12" y="-370" font-family="Helvetica,sans-Serif" font-size="10.00">bool LoadTranslations</text>
<text text-anchor="start" x="158.12" y="-359.5" font-family="Helvetica,sans-Serif" font-size="10.00">(const QString &amp;language_code)</text>
<text text-anchor="start" x="149.62" y="-345" font-family="Helvetica,sans-Serif" font-size="10.00">&#45;</text>
<text text-anchor="start" x="158.12" y="-345" font-family="Helvetica,sans-Serif" font-size="10.00">TranslationManager</text>
<text text-anchor="start" x="158.12" y="-334.5" font-family="Helvetica,sans-Serif" font-size="10.00"> &amp; operator=(const Translation</text>
<text text-anchor="start" x="158.12" y="-324" font-family="Helvetica,sans-Serif" font-size="10.00">Manager &amp;)=delete</text>
<text text-anchor="start" x="149.62" y="-309.5" font-family="Helvetica,sans-Serif" font-size="10.00">&#45;</text>
<text text-anchor="start" x="158.12" y="-309.5" font-family="Helvetica,sans-Serif" font-size="10.00">TranslationManager</text>
<text text-anchor="start" x="158.12" y="-299" font-family="Helvetica,sans-Serif" font-size="10.00">(const TranslationManager</text>
<text text-anchor="start" x="158.12" y="-288.5" font-family="Helvetica,sans-Serif" font-size="10.00"> &amp;)=delete</text>
<text text-anchor="start" x="149.62" y="-274" font-family="Helvetica,sans-Serif" font-size="10.00">&#45;</text>
<text text-anchor="start" x="158.12" y="-274" font-family="Helvetica,sans-Serif" font-size="10.00">TranslationManager</text>
<text text-anchor="start" x="158.12" y="-263.5" font-family="Helvetica,sans-Serif" font-size="10.00">(QObject *parent=nullptr)</text>
<polygon fill="#666666" stroke="#666666" points="144.12,-560.5 144.12,-560.5 303.88,-560.5 303.88,-560.5 144.12,-560.5"/>
<polygon fill="#666666" stroke="#666666" points="144.12,-492 144.12,-492 156.12,-492 156.12,-492 144.12,-492"/>
<polygon fill="#666666" stroke="#666666" points="156.12,-492 156.12,-492 303.88,-492 303.88,-492 156.12,-492"/>
<polygon fill="none" stroke="#666666" points="144.12,-258.5 144.12,-577 303.88,-577 303.88,-258.5 144.12,-258.5"/>
</a>
</g>
</g>
<!-- Node4&#45;&gt;Node1 -->
<g id="edge3_Node000001_Node000004" class="edge">
<title>Node4&#45;&gt;Node1</title>
<g id="a_edge3_Node000001_Node000004"><a xlink:title=" ">
<path fill="none" stroke="#63b8ff" d="M182.67,-258.7C179.64,-247.1 176.61,-235.53 173.66,-224.24"/>
<polygon fill="none" stroke="#63b8ff" points="173.63,-224.12 168.24,-219.32 170.59,-212.51 175.98,-217.3 173.63,-224.12"/>
</a>
</g>
<text text-anchor="middle" x="202.12" y="-231" font-family="Helvetica,sans-Serif" font-size="10.00" fill="grey"> &#45;translator_</text>
</g>
<!-- Node4&#45;&gt;Node4 -->
<g id="edge5_Node000004_Node000004" class="edge">
<title>Node4&#45;&gt;Node4</title>
<g id="a_edge5_Node000004_Node000004"><a xlink:title=" ">
<path fill="none" stroke="#63b8ff" d="M303.49,-447.49C314.51,-442.59 321.88,-432.68 321.88,-417.75 321.88,-408.19 318.85,-400.68 313.78,-395.23"/>
<polygon fill="none" stroke="#63b8ff" points="314.05,-395.42 306.84,-395.25 304.23,-388.53 311.44,-388.7 314.05,-395.42"/>
</a>
</g>
<text text-anchor="middle" x="345.88" y="-413.5" font-family="Helvetica,sans-Serif" font-size="10.00" fill="grey"> &#45;instance_</text>
</g>
<!-- Node5 -->
<g id="Node000005" class="node">
<title>Node5</title>
<g id="a_Node000005"><a xlink:title=" ">
<polygon fill="white" stroke="none" points="246,-661.5 202,-661.5 202,-614 246,-614 246,-661.5"/>
<text text-anchor="start" x="206" y="-648" font-family="Helvetica,sans-Serif" font-size="10.00">QObject</text>
<text text-anchor="start" x="222.5" y="-633.5" font-family="Helvetica,sans-Serif" font-size="10.00"> </text>
<text text-anchor="start" x="222.5" y="-619" font-family="Helvetica,sans-Serif" font-size="10.00"> </text>
<polygon fill="#666666" stroke="#666666" points="202,-645 202,-645 246,-645 246,-645 202,-645"/>
<polygon fill="#666666" stroke="#666666" points="202,-630.5 202,-630.5 246,-630.5 246,-630.5 202,-630.5"/>
<polygon fill="none" stroke="#666666" points="202,-614 202,-661.5 246,-661.5 246,-614 202,-614"/>
</a>
</g>
</g>
<!-- Node5&#45;&gt;Node4 -->
<g id="edge4_Node000004_Node000005" class="edge">
<title>Node5&#45;&gt;Node4</title>
<g id="a_edge4_Node000004_Node000005"><a xlink:title=" ">
<path fill="none" stroke="#63b8ff" d="M224,-602.88C224,-595.09 224,-586.31 224,-576.91"/>
<polygon fill="none" stroke="#63b8ff" points="220.5,-602.73 224,-612.73 227.5,-602.73 220.5,-602.73"/>
</a>
</g>
</g>
</g>
</svg>
