<?xml version="1.0" encoding="UTF-8" standalone="no"?>
<!DOCTYPE svg PUBLIC "-//W3C//DTD SVG 1.1//EN"
 "http://www.w3.org/Graphics/SVG/1.1/DTD/svg11.dtd">
<!-- Generated by graphviz version 12.2.1 (0)
 -->
<!-- Title: GifDecoder::run Pages: 1 -->
<!--zoomable 111 -->

<svg id="main" version="1.1" xmlns="http://www.w3.org/2000/svg" xmlns:xlink="http://www.w3.org/1999/xlink" xml:space="preserve" onload="init(evt)">

<style type="text/css"><![CDATA[
.node, .edge {opacity: 0.7;}
.node.selected, .edge.selected {opacity: 1;}
.edge:hover path { stroke: red; }
.edge:hover polygon { stroke: red; fill: red; }
]]></style>

<defs>
  <circle id="rim" cx="0" cy="0" r="7"/>
  <circle id="rim2" cx="0" cy="0" r="3.5"/>
  <g id="zoomPlus">
    <use xlink:href="#rim" fill="#404040"><set attributeName="fill" to="#808080" begin="zoomplus.mouseover" end="zoomplus.mouseout"/></use>
    <path d="M-4,0h8M0,-4v8" fill="none" stroke="white" stroke-width="1.5" pointer-events="none"/>
  </g>
  <g id="zoomMin">
    <use xlink:href="#rim" fill="#404040"><set attributeName="fill" to="#808080" begin="zoomminus.mouseover" end="zoomminus.mouseout"/></use>
    <path d="M-4,0h8" fill="none" stroke="white" stroke-width="1.5" pointer-events="none"/>
  </g>
  <g id="arrowUp" transform="translate(30 24)">
    <use xlink:href="#rim"/>
    <path pointer-events="none" fill="none" stroke="white" stroke-width="1.5" d="M0,-3.0v7 M-2.5,-0.5L0,-3.0L2.5,-0.5"/>
  </g>
  <g id="arrowRight" transform="rotate(90) translate(36 -43)">
    <use xlink:href="#rim"/>
    <path pointer-events="none" fill="none" stroke="white" stroke-width="1.5" d="M0,-3.0v7 M-2.5,-0.5L0,-3.0L2.5,-0.5"/>
  </g>
  <g id="arrowDown" transform="rotate(180) translate(-30 -48)">
    <use xlink:href="#rim"/>
    <path pointer-events="none" fill="none" stroke="white" stroke-width="1.5" d="M0,-3.0v7 M-2.5,-0.5L0,-3.0L2.5,-0.5"/>
  </g>
  <g id="arrowLeft" transform="rotate(270) translate(-36 17)">
    <use xlink:href="#rim"/>
    <path pointer-events="none" fill="none" stroke="white" stroke-width="1.5" d="M0,-3.0v7 M-2.5,-0.5L0,-3.0L2.5,-0.5"/>
  </g>
  <g id="resetDef">
    <use xlink:href="#rim2" fill="#404040"><set attributeName="fill" to="#808080" begin="reset.mouseover" end="reset.mouseout"/></use>
  </g>
</defs>
<script type="application/ecmascript">
var viewWidth = 630;
var viewHeight = 111;
var sectionId = 'dynsection-21';
</script>
<script type="application/ecmascript" xlink:href="svg.min.js"/>
<svg id="graph" class="graph">
<g id="viewport">
<title>GifDecoder::run</title>
<!-- Node1 -->
<g id="Node000001" class="node">
<title>Node1</title>
<g id="a_Node000001"><a xlink:title="The main function executed by the QThread. Contains the loop that reads packets, decodes frames,...">
<polygon fill="#999999" stroke="#666666" points="85,-60.5 0,-60.5 0,-42 85,-42 85,-60.5"/>
<text text-anchor="middle" x="42.5" y="-47" font-family="Helvetica,sans-Serif" font-size="10.00">GifDecoder::run</text>
</a>
</g>
</g>
<!-- Node2 -->
<g id="Node000002" class="node">
<title>Node2</title>
<g id="a_Node000002"><a xlink:href="classGifDecoder.html#a4d8edc0e3bd7c39f6c540e090987ae77" target="_top" xlink:title="Emitted for each decoded frame of the GIF.">
<polygon fill="white" stroke="#666666" points="255.12,-97.5 131.12,-97.5 131.12,-79 255.12,-79 255.12,-97.5"/>
<text text-anchor="middle" x="193.12" y="-84" font-family="Helvetica,sans-Serif" font-size="10.00">GifDecoder::frameReady</text>
</a>
</g>
</g>
<!-- Node1&#45;&gt;Node2 -->
<g id="edge1_Node000001_Node000002" class="edge">
<title>Node1&#45;&gt;Node2</title>
<g id="a_edge1_Node000001_Node000002"><a xlink:title=" ">
<path fill="none" stroke="#63b8ff" d="M82.55,-60.97C100.74,-65.5 122.6,-70.94 141.99,-75.77"/>
<polygon fill="#63b8ff" stroke="#63b8ff" points="141.06,-79.14 151.61,-78.16 142.75,-72.35 141.06,-79.14"/>
</a>
</g>
</g>
<!-- Node3 -->
<g id="Node000003" class="node">
<title>Node3</title>
<g id="a_Node000003"><a xlink:href="classGifDecoder.html#a45c27e6347e3b847aa092323d936044e" target="_top" xlink:title="Initializes the FFmpeg components for decoding the GIF. Opens the input stream using the custom I/O c...">
<polygon fill="white" stroke="#666666" points="246.5,-60.5 139.75,-60.5 139.75,-42 246.5,-42 246.5,-60.5"/>
<text text-anchor="middle" x="193.12" y="-47" font-family="Helvetica,sans-Serif" font-size="10.00">GifDecoder::Initialize</text>
</a>
</g>
</g>
<!-- Node1&#45;&gt;Node3 -->
<g id="edge2_Node000001_Node000003" class="edge">
<title>Node1&#45;&gt;Node3</title>
<g id="a_edge2_Node000001_Node000003"><a xlink:title=" ">
<path fill="none" stroke="#63b8ff" d="M85.3,-51.25C98.57,-51.25 113.58,-51.25 128.05,-51.25"/>
<polygon fill="#63b8ff" stroke="#63b8ff" points="127.99,-54.75 137.99,-51.25 127.99,-47.75 127.99,-54.75"/>
</a>
</g>
</g>
<!-- Node8 -->
<g id="Node000008" class="node">
<title>Node8</title>
<g id="a_Node000008"><a xlink:href="classGifDecoder.html#ae33e9555abafda1bb8c8fd9e7c336f98" target="_top" xlink:title="Emitted periodically during playback to indicate the current position.">
<polygon fill="white" stroke="#666666" points="265.25,-23.5 121,-23.5 121,-5 265.25,-5 265.25,-23.5"/>
<text text-anchor="middle" x="193.12" y="-10" font-family="Helvetica,sans-Serif" font-size="10.00">GifDecoder::positionChanged</text>
</a>
</g>
</g>
<!-- Node1&#45;&gt;Node8 -->
<g id="edge7_Node000001_Node000008" class="edge">
<title>Node1&#45;&gt;Node8</title>
<g id="a_edge7_Node000001_Node000008"><a xlink:title=" ">
<path fill="none" stroke="#63b8ff" d="M82.55,-41.53C100.74,-37 122.6,-31.56 141.99,-26.73"/>
<polygon fill="#63b8ff" stroke="#63b8ff" points="142.75,-30.15 151.61,-24.34 141.06,-23.36 142.75,-30.15"/>
</a>
</g>
</g>
<!-- Node4 -->
<g id="Node000004" class="node">
<title>Node4</title>
<g id="a_Node000004"><a xlink:href="classGifDecoder.html#a75ca53e116fcdd49a14551af6c00f301" target="_top" xlink:title="Emitted when an error occurs during initialization or decoding.">
<polygon fill="white" stroke="#666666" points="417,-102.5 326,-102.5 326,-84 417,-84 417,-102.5"/>
<text text-anchor="middle" x="371.5" y="-89" font-family="Helvetica,sans-Serif" font-size="10.00">GifDecoder::error</text>
</a>
</g>
</g>
<!-- Node3&#45;&gt;Node4 -->
<g id="edge3_Node000003_Node000004" class="edge">
<title>Node3&#45;&gt;Node4</title>
<g id="a_edge3_Node000003_Node000004"><a xlink:title=" ">
<path fill="none" stroke="#63b8ff" d="M235.03,-60.99C259.96,-66.93 292.05,-74.57 318.74,-80.93"/>
<polygon fill="#63b8ff" stroke="#63b8ff" points="317.8,-84.3 328.34,-83.21 319.42,-77.49 317.8,-84.3"/>
</a>
</g>
</g>
<!-- Node5 -->
<g id="Node000005" class="node">
<title>Node5</title>
<g id="a_Node000005"><a xlink:href="classGifDecoder.html#a4ca17f03ef1f3dd2cc6981d287e3b3d6" target="_top" xlink:title="Internal helper function called by Initialize() to extract and emit the first frame....">
<polygon fill="white" stroke="#666666" points="441.75,-65.75 301.25,-65.75 301.25,-36.75 441.75,-36.75 441.75,-65.75"/>
<text text-anchor="start" x="309.25" y="-52.25" font-family="Helvetica,sans-Serif" font-size="10.00">GifDecoder::ExtractAndEmit</text>
<text text-anchor="middle" x="371.5" y="-41.75" font-family="Helvetica,sans-Serif" font-size="10.00">FirstFrameInternal</text>
</a>
</g>
</g>
<!-- Node3&#45;&gt;Node5 -->
<g id="edge4_Node000003_Node000005" class="edge">
<title>Node3&#45;&gt;Node5</title>
<g id="a_edge4_Node000003_Node000005"><a xlink:title=" ">
<path fill="none" stroke="#63b8ff" d="M246.57,-51.25C260.16,-51.25 275.12,-51.25 289.8,-51.25"/>
<polygon fill="#63b8ff" stroke="#63b8ff" points="289.43,-54.75 299.43,-51.25 289.43,-47.75 289.43,-54.75"/>
</a>
</g>
</g>
<!-- Node7 -->
<g id="Node000007" class="node">
<title>Node7</title>
<g id="a_Node000007"><a xlink:href="classGifDecoder.html#a1f914a590ac031ee8c90067ec3b51707" target="_top" xlink:title="Emitted after successful initialization, providing GIF stream details.">
<polygon fill="white" stroke="#666666" points="420.75,-18.5 322.25,-18.5 322.25,0 420.75,0 420.75,-18.5"/>
<text text-anchor="middle" x="371.5" y="-5" font-family="Helvetica,sans-Serif" font-size="10.00">GifDecoder::gifInfo</text>
</a>
</g>
</g>
<!-- Node3&#45;&gt;Node7 -->
<g id="edge6_Node000003_Node000007" class="edge">
<title>Node3&#45;&gt;Node7</title>
<g id="a_edge6_Node000003_Node000007"><a xlink:title=" ">
<path fill="none" stroke="#63b8ff" d="M235.03,-41.51C259.96,-35.57 292.05,-27.93 318.74,-21.57"/>
<polygon fill="#63b8ff" stroke="#63b8ff" points="319.42,-25.01 328.34,-19.29 317.8,-18.2 319.42,-25.01"/>
</a>
</g>
</g>
<!-- Node6 -->
<g id="Node000006" class="node">
<title>Node6</title>
<g id="a_Node000006"><a xlink:href="classGifDecoder.html#af56a2d4106b23043979333d001dac9c9" target="_top" xlink:title="Emitted once after successful initialization, containing the first frame. Useful for displaying a sta...">
<polygon fill="white" stroke="#666666" points="622,-60.5 477.75,-60.5 477.75,-42 622,-42 622,-60.5"/>
<text text-anchor="middle" x="549.88" y="-47" font-family="Helvetica,sans-Serif" font-size="10.00">GifDecoder::firstFrameReady</text>
</a>
</g>
</g>
<!-- Node5&#45;&gt;Node6 -->
<g id="edge5_Node000005_Node000006" class="edge">
<title>Node5&#45;&gt;Node6</title>
<g id="a_edge5_Node000005_Node000006"><a xlink:title=" ">
<path fill="none" stroke="#63b8ff" d="M442.21,-51.25C450.06,-51.25 458.12,-51.25 466.12,-51.25"/>
<polygon fill="#63b8ff" stroke="#63b8ff" points="465.85,-54.75 475.85,-51.25 465.85,-47.75 465.85,-54.75"/>
</a>
</g>
</g>
</g>
</svg>

<g id="navigator" transform="translate(0 0)" fill="#404254">
  <rect fill="#f2f5e9" fill-opacity="0.5" stroke="#606060" stroke-width=".5" x="0" y="0" width="60" height="60"/>
  <use id="zoomplus" xlink:href="#zoomPlus" x="17" y="9" onmousedown="handleZoom(evt,'in')"/>
  <use id="zoomminus" xlink:href="#zoomMin" x="42" y="9" onmousedown="handleZoom(evt,'out')"/>
  <use id="reset" xlink:href="#resetDef" x="30" y="36" onmousedown="handleReset()"/>
   <use id="arrowup" xlink:href="#arrowUp" x="0" y="0" onmousedown="handlePan(0,-1)"/>
  <use id="arrowright" xlink:href="#arrowRight" x="0" y="0" onmousedown="handlePan(1,0)"/>
  <use id="arrowdown" xlink:href="#arrowDown" x="0" y="0" onmousedown="handlePan(0,1)"/>
  <use id="arrowleft" xlink:href="#arrowLeft" x="0" y="0" onmousedown="handlePan(-1,0)"/>
</g>
<svg viewBox="0 0 15 15" width="100%" height="30px" preserveAspectRatio="xMaxYMin meet">
 <g id="arrow_out" transform="scale(0.3 0.3)">
  <a xlink:href="classGifDecoder_a5f3075f25bb1e6e0fbad6a4abc1ccef9_cgraph_org.svg" target="_base">
   <rect id="button" ry="5" rx="5" y="6" x="6" height="38" width="38"
        fill="#f2f5e9" fill-opacity="0.5" stroke="#606060" stroke-width="1.0"/>
   <path id="arrow"
     d="M 11.500037,31.436501 C 11.940474,20.09759 22.043105,11.32322 32.158766,21.979434 L 37.068811,17.246167 C 37.068811,17.246167 37.088388,32 37.088388,32 L 22.160133,31.978069 C 22.160133,31.978069 26.997745,27.140456 26.997745,27.140456 C 18.528582,18.264221 13.291696,25.230495 11.500037,31.436501 z"
     style="fill:#404040;"/>
  </a>
 </g>
</svg>

<style type='text/css'>
<![CDATA[
[data-mouse-over-selected='false'] { opacity: 0.7; }
[data-mouse-over-selected='true']  { opacity: 1.0; }
]]>
</style>
<script type="application/ecmascript"><![CDATA[
document.addEventListener('DOMContentLoaded', (event) => {
  highlightEdges();
  highlightAdjacentNodes();
});
]]></script>
</svg>
