<?xml version="1.0" encoding="UTF-8" standalone="no"?>
<!DOCTYPE svg PUBLIC "-//W3C//DTD SVG 1.1//EN"
 "http://www.w3.org/Graphics/SVG/1.1/DTD/svg11.dtd">
<!-- Generated by graphviz version 12.2.1 (0)
 -->
<!-- Title: SystemOverrideManager::InitiateOverrideSequence Pages: 1 -->
<!--zoomable 202 -->

<svg id="main" version="1.1" xmlns="http://www.w3.org/2000/svg" xmlns:xlink="http://www.w3.org/1999/xlink" xml:space="preserve" onload="init(evt)">

<style type="text/css"><![CDATA[
.node, .edge {opacity: 0.7;}
.node.selected, .edge.selected {opacity: 1;}
.edge:hover path { stroke: red; }
.edge:hover polygon { stroke: red; fill: red; }
]]></style>

<defs>
  <circle id="rim" cx="0" cy="0" r="7"/>
  <circle id="rim2" cx="0" cy="0" r="3.5"/>
  <g id="zoomPlus">
    <use xlink:href="#rim" fill="#404040"><set attributeName="fill" to="#808080" begin="zoomplus.mouseover" end="zoomplus.mouseout"/></use>
    <path d="M-4,0h8M0,-4v8" fill="none" stroke="white" stroke-width="1.5" pointer-events="none"/>
  </g>
  <g id="zoomMin">
    <use xlink:href="#rim" fill="#404040"><set attributeName="fill" to="#808080" begin="zoomminus.mouseover" end="zoomminus.mouseout"/></use>
    <path d="M-4,0h8" fill="none" stroke="white" stroke-width="1.5" pointer-events="none"/>
  </g>
  <g id="arrowUp" transform="translate(30 24)">
    <use xlink:href="#rim"/>
    <path pointer-events="none" fill="none" stroke="white" stroke-width="1.5" d="M0,-3.0v7 M-2.5,-0.5L0,-3.0L2.5,-0.5"/>
  </g>
  <g id="arrowRight" transform="rotate(90) translate(36 -43)">
    <use xlink:href="#rim"/>
    <path pointer-events="none" fill="none" stroke="white" stroke-width="1.5" d="M0,-3.0v7 M-2.5,-0.5L0,-3.0L2.5,-0.5"/>
  </g>
  <g id="arrowDown" transform="rotate(180) translate(-30 -48)">
    <use xlink:href="#rim"/>
    <path pointer-events="none" fill="none" stroke="white" stroke-width="1.5" d="M0,-3.0v7 M-2.5,-0.5L0,-3.0L2.5,-0.5"/>
  </g>
  <g id="arrowLeft" transform="rotate(270) translate(-36 17)">
    <use xlink:href="#rim"/>
    <path pointer-events="none" fill="none" stroke="white" stroke-width="1.5" d="M0,-3.0v7 M-2.5,-0.5L0,-3.0L2.5,-0.5"/>
  </g>
  <g id="resetDef">
    <use xlink:href="#rim2" fill="#404040"><set attributeName="fill" to="#808080" begin="reset.mouseover" end="reset.mouseout"/></use>
  </g>
</defs>
<script type="application/ecmascript">
var viewWidth = 860;
var viewHeight = 202;
var sectionId = 'dynsection-6';
</script>
<script type="application/ecmascript" xlink:href="svg.min.js"/>
<svg id="graph" class="graph">
<g id="viewport">
<title>SystemOverrideManager::InitiateOverrideSequence</title>
<!-- Node1 -->
<g id="Node000001" class="node">
<title>Node1</title>
<g id="a_Node000001"><a xlink:title="Initiates the full system override sequence. Installs input hooks (Windows), changes wallpaper,...">
<polygon fill="#999999" stroke="#666666" points="130.75,-123 0,-123 0,-94 130.75,-94 130.75,-123"/>
<text text-anchor="start" x="8" y="-109.5" font-family="Helvetica,sans-Serif" font-size="10.00">SystemOverrideManager</text>
<text text-anchor="middle" x="65.38" y="-99" font-family="Helvetica,sans-Serif" font-size="10.00">::InitiateOverrideSequence</text>
</a>
</g>
</g>
<!-- Node2 -->
<g id="Node000002" class="node">
<title>Node2</title>
<g id="a_Node000002"><a xlink:href="classSystemOverrideManager.html#afa982397c7746f522e03b4af481591a6" target="_top" xlink:title="Saves the current wallpaper path and sets the desktop wallpaper to a temporary black image.">
<polygon fill="white" stroke="#666666" points="305.75,-194 183.25,-194 183.25,-165 305.75,-165 305.75,-194"/>
<text text-anchor="start" x="191.25" y="-180.5" font-family="Helvetica,sans-Serif" font-size="10.00">SystemOverrideManager</text>
<text text-anchor="middle" x="244.5" y="-170" font-family="Helvetica,sans-Serif" font-size="10.00">::ChangeWallpaper</text>
</a>
</g>
</g>
<!-- Node1&#45;&gt;Node2 -->
<g id="edge1_Node000001_Node000002" class="edge">
<title>Node1&#45;&gt;Node2</title>
<g id="a_edge1_Node000001_Node000002"><a xlink:title=" ">
<path fill="none" stroke="#63b8ff" d="M94.41,-123.35C114.26,-133.51 141.7,-146.83 166.75,-156.5 170.79,-158.06 174.99,-159.59 179.25,-161.06"/>
<polygon fill="#63b8ff" stroke="#63b8ff" points="177.85,-164.28 188.44,-164.11 180.06,-157.64 177.85,-164.28"/>
</a>
</g>
</g>
<!-- Node3 -->
<g id="Node000003" class="node">
<title>Node3</title>
<g id="a_Node000003"><a xlink:href="classSystemOverrideManager.html#afa26c4f3d7965598587d9aa98f803c64" target="_top" xlink:title="Minimizes all open windows on the desktop (Windows only). Uses COM or a fallback method.">
<polygon fill="white" stroke="#666666" points="305.75,-147 183.25,-147 183.25,-118 305.75,-118 305.75,-147"/>
<text text-anchor="start" x="191.25" y="-133.5" font-family="Helvetica,sans-Serif" font-size="10.00">SystemOverrideManager</text>
<text text-anchor="middle" x="244.5" y="-123" font-family="Helvetica,sans-Serif" font-size="10.00">::MinimizeAllWindows</text>
</a>
</g>
</g>
<!-- Node1&#45;&gt;Node3 -->
<g id="edge2_Node000001_Node000003" class="edge">
<title>Node1&#45;&gt;Node3</title>
<g id="a_edge2_Node000001_Node000003"><a xlink:title=" ">
<path fill="none" stroke="#63b8ff" d="M131.07,-117.27C144.28,-119.06 158.24,-120.95 171.68,-122.77"/>
<polygon fill="#63b8ff" stroke="#63b8ff" points="170.93,-126.2 181.31,-124.07 171.87,-119.26 170.93,-126.2"/>
</a>
</g>
</g>
<!-- Node4 -->
<g id="Node000004" class="node">
<title>Node4</title>
<g id="a_Node000004"><a xlink:href="classSystemOverrideManager.html#a3de31fe6a1e398ee6f57a69d710e5595" target="_top" xlink:title="Sends a system notification using QSystemTrayIcon. Ensures the tray icon is visible before sending.">
<polygon fill="white" stroke="#666666" points="308,-100 181,-100 181,-71 308,-71 308,-100"/>
<text text-anchor="start" x="189" y="-86.5" font-family="Helvetica,sans-Serif" font-size="10.00">SystemOverrideManager</text>
<text text-anchor="middle" x="244.5" y="-76" font-family="Helvetica,sans-Serif" font-size="10.00">::SendSystemNotification</text>
</a>
</g>
</g>
<!-- Node1&#45;&gt;Node4 -->
<g id="edge3_Node000001_Node000004" class="edge">
<title>Node1&#45;&gt;Node4</title>
<g id="a_edge3_Node000001_Node000004"><a xlink:title=" ">
<path fill="none" stroke="#63b8ff" d="M131.07,-100.1C143.61,-98.47 156.83,-96.75 169.64,-95.09"/>
<polygon fill="#63b8ff" stroke="#63b8ff" points="169.78,-98.6 179.25,-93.84 168.88,-91.66 169.78,-98.6"/>
</a>
</g>
</g>
<!-- Node5 -->
<g id="Node000005" class="node">
<title>Node5</title>
<g id="a_Node000005"><a xlink:href="classSystemOverrideManager.html#ad55be1ff40ee203da7ed94a15e7e3de5" target="_top" xlink:title="Creates, configures, positions, and shows the FloatingEnergySphereWidget. Connects the necessary sign...">
<polygon fill="white" stroke="#666666" points="322.25,-53 166.75,-53 166.75,-24 322.25,-24 322.25,-53"/>
<text text-anchor="start" x="174.75" y="-39.5" font-family="Helvetica,sans-Serif" font-size="10.00">SystemOverrideManager</text>
<text text-anchor="middle" x="244.5" y="-29" font-family="Helvetica,sans-Serif" font-size="10.00">::ShowFloatingAnimationWidget</text>
</a>
</g>
</g>
<!-- Node1&#45;&gt;Node5 -->
<g id="edge4_Node000001_Node000005" class="edge">
<title>Node1&#45;&gt;Node5</title>
<g id="a_edge4_Node000001_Node000005"><a xlink:title=" ">
<path fill="none" stroke="#63b8ff" d="M96.26,-93.6C116,-84.06 142.59,-71.77 166.75,-62.5 171.63,-60.63 176.72,-58.79 181.85,-57.02"/>
<polygon fill="#63b8ff" stroke="#63b8ff" points="182.6,-60.46 190.97,-53.96 180.38,-53.82 182.6,-60.46"/>
</a>
</g>
</g>
<!-- Node6 -->
<g id="Node000006" class="node">
<title>Node6</title>
<g id="a_Node000006"><a xlink:href="classFloatingEnergySphereWidget.html#ae81d952cf10dd7a2389a6d958e789b16" target="_top" xlink:title="Emitted when the destruction animation sequence (visual and audio) completes.">
<polygon fill="white" stroke="#666666" points="851.75,-84 701.5,-84 701.5,-55 851.75,-55 851.75,-84"/>
<text text-anchor="start" x="709.5" y="-70.5" font-family="Helvetica,sans-Serif" font-size="10.00">FloatingEnergySphereWidget</text>
<text text-anchor="middle" x="776.62" y="-60" font-family="Helvetica,sans-Serif" font-size="10.00">::destructionSequenceFinished</text>
</a>
</g>
</g>
<!-- Node5&#45;&gt;Node6 -->
<g id="edge5_Node000005_Node000006" class="edge">
<title>Node5&#45;&gt;Node6</title>
<g id="a_edge5_Node000005_Node000006"><a xlink:title=" ">
<path fill="none" stroke="#63b8ff" d="M298.98,-53.36C306.9,-56.09 314.88,-59.16 322.25,-62.5 339.33,-70.25 340.2,-79.42 358.25,-84.5 472.48,-116.64 611.23,-101.56 696.46,-86.49"/>
<polygon fill="#63b8ff" stroke="#63b8ff" points="696.91,-89.97 706.13,-84.74 695.66,-83.08 696.91,-89.97"/>
</a>
</g>
</g>
<!-- Node7 -->
<g id="Node000007" class="node">
<title>Node7</title>
<g id="a_Node000007"><a xlink:href="classSystemOverrideManager.html#a1d774843ddf2350e4b0ebd78777733bf" target="_top" xlink:title="Slot called when the FloatingEnergySphereWidget emits its widgetClosed signal. Cleans up the widget p...">
<polygon fill="white" stroke="#666666" points="507,-75 358.25,-75 358.25,-46 507,-46 507,-75"/>
<text text-anchor="start" x="366.25" y="-61.5" font-family="Helvetica,sans-Serif" font-size="10.00">SystemOverrideManager</text>
<text text-anchor="middle" x="432.62" y="-51" font-family="Helvetica,sans-Serif" font-size="10.00">::HandleFloatingWidgetClosed</text>
</a>
</g>
</g>
<!-- Node5&#45;&gt;Node7 -->
<g id="edge6_Node000005_Node000007" class="edge">
<title>Node5&#45;&gt;Node7</title>
<g id="a_edge6_Node000005_Node000007"><a xlink:title=" ">
<path fill="none" stroke="#63b8ff" d="M322.55,-47.61C330.5,-48.55 338.61,-49.51 346.65,-50.46"/>
<polygon fill="#63b8ff" stroke="#63b8ff" points="346.08,-53.91 356.42,-51.61 346.9,-46.96 346.08,-53.91"/>
</a>
</g>
</g>
<!-- Node8 -->
<g id="Node000008" class="node">
<title>Node8</title>
<g id="a_Node000008"><a xlink:href="classSystemOverrideManager.html#a0834ff9c3ad9bfec1d08ba05648e6122" target="_top" xlink:title="Restores the system state to normal. Uninstalls input hooks (Windows), restores the original wallpape...">
<polygon fill="#fff0f0" stroke="red" points="665.5,-57 543,-57 543,-28 665.5,-28 665.5,-57"/>
<text text-anchor="start" x="551" y="-43.5" font-family="Helvetica,sans-Serif" font-size="10.00">SystemOverrideManager</text>
<text text-anchor="middle" x="604.25" y="-33" font-family="Helvetica,sans-Serif" font-size="10.00">::RestoreSystemState</text>
</a>
</g>
</g>
<!-- Node5&#45;&gt;Node8 -->
<g id="edge12_Node000005_Node000008" class="edge">
<title>Node5&#45;&gt;Node8</title>
<g id="a_edge12_Node000005_Node000008"><a xlink:title=" ">
<path fill="none" stroke="#63b8ff" d="M322.75,-37C374.82,-36.28 445.05,-35.89 507,-37.5 514.84,-37.7 523.05,-38 531.21,-38.35"/>
<polygon fill="#63b8ff" stroke="#63b8ff" points="531.02,-41.84 541.17,-38.8 531.34,-34.85 531.02,-41.84"/>
</a>
</g>
</g>
<!-- Node12 -->
<g id="Node000012" class="node">
<title>Node12</title>
<g id="a_Node000012"><a xlink:href="classFloatingEnergySphereWidget.html#a29cc66014476f5961a48d45017506b7b" target="_top" xlink:title="Emitted when the widget is closed normally (not during destruction).">
<polygon fill="white" stroke="#666666" points="848,-29 705.25,-29 705.25,0 848,0 848,-29"/>
<text text-anchor="start" x="713.25" y="-15.5" font-family="Helvetica,sans-Serif" font-size="10.00">FloatingEnergySphereWidget</text>
<text text-anchor="middle" x="776.62" y="-5" font-family="Helvetica,sans-Serif" font-size="10.00">::widgetClosed</text>
</a>
</g>
</g>
<!-- Node5&#45;&gt;Node12 -->
<g id="edge13_Node000005_Node000012" class="edge">
<title>Node5&#45;&gt;Node12</title>
<g id="a_edge13_Node000005_Node000012"><a xlink:title=" ">
<path fill="none" stroke="#63b8ff" d="M322.5,-32.69C382.54,-28.37 468.02,-22.7 543,-19.5 592.94,-17.37 648.94,-16.13 693.49,-15.42"/>
<polygon fill="#63b8ff" stroke="#63b8ff" points="693.39,-18.92 703.33,-15.27 693.28,-11.92 693.39,-18.92"/>
</a>
</g>
</g>
<!-- Node7&#45;&gt;Node8 -->
<g id="edge7_Node000007_Node000008" class="edge">
<title>Node7&#45;&gt;Node8</title>
<g id="a_edge7_Node000007_Node000008"><a xlink:title=" ">
<path fill="none" stroke="#63b8ff" d="M507.04,-46.01C515.13,-45.08 523.37,-44.21 531.44,-43.44"/>
<polygon fill="#63b8ff" stroke="#63b8ff" points="531.56,-46.94 541.21,-42.56 530.94,-39.97 531.56,-46.94"/>
</a>
</g>
</g>
<!-- Node8&#45;&gt;Node6 -->
<g id="edge8_Node000008_Node000006" class="edge">
<title>Node8&#45;&gt;Node6</title>
<g id="a_edge8_Node000008_Node000006"><a xlink:title=" ">
<path fill="none" stroke="#63b8ff" d="M665.8,-52.1C673.69,-53.35 681.89,-54.65 690.09,-55.95"/>
<polygon fill="#63b8ff" stroke="#63b8ff" points="689.33,-59.37 699.76,-57.48 690.43,-52.45 689.33,-59.37"/>
</a>
</g>
</g>
<!-- Node8&#45;&gt;Node7 -->
<g id="edge9_Node000008_Node000007" class="edge">
<title>Node8&#45;&gt;Node7</title>
<g id="a_edge9_Node000008_Node000007"><a xlink:title=" ">
<path fill="none" stroke="#63b8ff" d="M542.72,-55.42C534.77,-56.43 526.52,-57.39 518.26,-58.27"/>
<polygon fill="#63b8ff" stroke="#63b8ff" points="518.14,-54.76 508.54,-59.25 518.85,-61.73 518.14,-54.76"/>
</a>
</g>
</g>
<!-- Node8&#45;&gt;Node8 -->
<g id="edge10_Node000008_Node000008" class="edge">
<title>Node8&#45;&gt;Node8</title>
<g id="a_edge10_Node000008_Node000008"><a xlink:title=" ">
<path fill="none" stroke="#63b8ff" d="M574.34,-57.21C567.13,-66.32 577.1,-75 604.25,-75 619.1,-75 628.81,-72.41 633.38,-68.56"/>
<polygon fill="#63b8ff" stroke="#63b8ff" points="636.86,-68.93 634.06,-58.72 629.88,-68.45 636.86,-68.93"/>
</a>
</g>
</g>
<!-- Node8&#45;&gt;Node12 -->
<g id="edge11_Node000008_Node000012" class="edge">
<title>Node8&#45;&gt;Node12</title>
<g id="a_edge11_Node000008_Node000012"><a xlink:title=" ">
<path fill="none" stroke="#63b8ff" d="M665.8,-32.55C674.77,-31.07 684.15,-29.53 693.47,-28"/>
<polygon fill="#63b8ff" stroke="#63b8ff" points="694,-31.46 703.3,-26.39 692.87,-24.55 694,-31.46"/>
</a>
</g>
</g>
</g>
</svg>

<g id="navigator" transform="translate(0 0)" fill="#404254">
  <rect fill="#f2f5e9" fill-opacity="0.5" stroke="#606060" stroke-width=".5" x="0" y="0" width="60" height="60"/>
  <use id="zoomplus" xlink:href="#zoomPlus" x="17" y="9" onmousedown="handleZoom(evt,'in')"/>
  <use id="zoomminus" xlink:href="#zoomMin" x="42" y="9" onmousedown="handleZoom(evt,'out')"/>
  <use id="reset" xlink:href="#resetDef" x="30" y="36" onmousedown="handleReset()"/>
   <use id="arrowup" xlink:href="#arrowUp" x="0" y="0" onmousedown="handlePan(0,-1)"/>
  <use id="arrowright" xlink:href="#arrowRight" x="0" y="0" onmousedown="handlePan(1,0)"/>
  <use id="arrowdown" xlink:href="#arrowDown" x="0" y="0" onmousedown="handlePan(0,1)"/>
  <use id="arrowleft" xlink:href="#arrowLeft" x="0" y="0" onmousedown="handlePan(-1,0)"/>
</g>
<svg viewBox="0 0 15 15" width="100%" height="30px" preserveAspectRatio="xMaxYMin meet">
 <g id="arrow_out" transform="scale(0.3 0.3)">
  <a xlink:href="classSystemOverrideManager_a2c03d5744eeabdefc7d14ceea6dfdd75_cgraph_org.svg" target="_base">
   <rect id="button" ry="5" rx="5" y="6" x="6" height="38" width="38"
        fill="#f2f5e9" fill-opacity="0.5" stroke="#606060" stroke-width="1.0"/>
   <path id="arrow"
     d="M 11.500037,31.436501 C 11.940474,20.09759 22.043105,11.32322 32.158766,21.979434 L 37.068811,17.246167 C 37.068811,17.246167 37.088388,32 37.088388,32 L 22.160133,31.978069 C 22.160133,31.978069 26.997745,27.140456 26.997745,27.140456 C 18.528582,18.264221 13.291696,25.230495 11.500037,31.436501 z"
     style="fill:#404040;"/>
  </a>
 </g>
</svg>

<style type='text/css'>
<![CDATA[
[data-mouse-over-selected='false'] { opacity: 0.7; }
[data-mouse-over-selected='true']  { opacity: 1.0; }
]]>
</style>
<script type="application/ecmascript"><![CDATA[
document.addEventListener('DOMContentLoaded', (event) => {
  highlightEdges();
  highlightAdjacentNodes();
});
]]></script>
</svg>
