<?xml version="1.0" encoding="UTF-8" standalone="no"?>
<!DOCTYPE svg PUBLIC "-//W3C//DTD SVG 1.1//EN"
 "http://www.w3.org/Graphics/SVG/1.1/DTD/svg11.dtd">
<!-- Generated by graphviz version 12.2.1 (0)
 -->
<!-- Title: IdleState Pages: 1 -->
<!--zoomable 611 -->

<svg id="main" version="1.1" xmlns="http://www.w3.org/2000/svg" xmlns:xlink="http://www.w3.org/1999/xlink" xml:space="preserve" onload="init(evt)">

<style type="text/css"><![CDATA[
.node, .edge {opacity: 0.7;}
.node.selected, .edge.selected {opacity: 1;}
.edge:hover path { stroke: red; }
.edge:hover polygon { stroke: red; fill: red; }
]]></style>

<defs>
  <circle id="rim" cx="0" cy="0" r="7"/>
  <circle id="rim2" cx="0" cy="0" r="3.5"/>
  <g id="zoomPlus">
    <use xlink:href="#rim" fill="#404040"><set attributeName="fill" to="#808080" begin="zoomplus.mouseover" end="zoomplus.mouseout"/></use>
    <path d="M-4,0h8M0,-4v8" fill="none" stroke="white" stroke-width="1.5" pointer-events="none"/>
  </g>
  <g id="zoomMin">
    <use xlink:href="#rim" fill="#404040"><set attributeName="fill" to="#808080" begin="zoomminus.mouseover" end="zoomminus.mouseout"/></use>
    <path d="M-4,0h8" fill="none" stroke="white" stroke-width="1.5" pointer-events="none"/>
  </g>
  <g id="arrowUp" transform="translate(30 24)">
    <use xlink:href="#rim"/>
    <path pointer-events="none" fill="none" stroke="white" stroke-width="1.5" d="M0,-3.0v7 M-2.5,-0.5L0,-3.0L2.5,-0.5"/>
  </g>
  <g id="arrowRight" transform="rotate(90) translate(36 -43)">
    <use xlink:href="#rim"/>
    <path pointer-events="none" fill="none" stroke="white" stroke-width="1.5" d="M0,-3.0v7 M-2.5,-0.5L0,-3.0L2.5,-0.5"/>
  </g>
  <g id="arrowDown" transform="rotate(180) translate(-30 -48)">
    <use xlink:href="#rim"/>
    <path pointer-events="none" fill="none" stroke="white" stroke-width="1.5" d="M0,-3.0v7 M-2.5,-0.5L0,-3.0L2.5,-0.5"/>
  </g>
  <g id="arrowLeft" transform="rotate(270) translate(-36 17)">
    <use xlink:href="#rim"/>
    <path pointer-events="none" fill="none" stroke="white" stroke-width="1.5" d="M0,-3.0v7 M-2.5,-0.5L0,-3.0L2.5,-0.5"/>
  </g>
  <g id="resetDef">
    <use xlink:href="#rim2" fill="#404040"><set attributeName="fill" to="#808080" begin="reset.mouseover" end="reset.mouseout"/></use>
  </g>
</defs>
<script type="application/ecmascript">
var viewWidth = 289;
var viewHeight = 611;
var sectionId = 'dynsection-0';
</script>
<script type="application/ecmascript" xlink:href="svg.min.js"/>
<svg id="graph" class="graph">
<g id="viewport">
<title>IdleState</title>
<!-- Node1 -->
<g id="Node000001" class="node">
<title>Node1</title>
<g id="a_Node000001"><a xlink:title="Implements the Idle state behavior for the Blob animation.">
<polygon fill="#999999" stroke="none" points="280.5,-364.5 0,-364.5 0,0 280.5,0 280.5,-364.5"/>
<text text-anchor="start" x="120.75" y="-351" font-family="Helvetica,sans-Serif" font-size="10.00">IdleState</text>
<text text-anchor="start" x="5.5" y="-336.5" font-family="Helvetica,sans-Serif" font-size="10.00">&#45;</text>
<text text-anchor="start" x="14" y="-336.5" font-family="Helvetica,sans-Serif" font-size="10.00">int heartbeat_count_</text>
<text text-anchor="start" x="5.5" y="-322" font-family="Helvetica,sans-Serif" font-size="10.00">&#45;</text>
<text text-anchor="start" x="14" y="-322" font-family="Helvetica,sans-Serif" font-size="10.00">double heartbeat_phase_</text>
<text text-anchor="start" x="5.5" y="-307.5" font-family="Helvetica,sans-Serif" font-size="10.00">&#45;</text>
<text text-anchor="start" x="14" y="-307.5" font-family="Helvetica,sans-Serif" font-size="10.00">BlobConfig::IdleParameters</text>
<text text-anchor="start" x="14" y="-297" font-family="Helvetica,sans-Serif" font-size="10.00"> idle_params_</text>
<text text-anchor="start" x="5.5" y="-282.5" font-family="Helvetica,sans-Serif" font-size="10.00">&#45;</text>
<text text-anchor="start" x="14" y="-282.5" font-family="Helvetica,sans-Serif" font-size="10.00">bool is_initializing_</text>
<text text-anchor="start" x="5.5" y="-268" font-family="Helvetica,sans-Serif" font-size="10.00">&#45;</text>
<text text-anchor="start" x="14" y="-268" font-family="Helvetica,sans-Serif" font-size="10.00">double rotation_phase_</text>
<text text-anchor="start" x="5.5" y="-253.5" font-family="Helvetica,sans-Serif" font-size="10.00">&#45;</text>
<text text-anchor="start" x="14" y="-253.5" font-family="Helvetica,sans-Serif" font-size="10.00">double second_phase_</text>
<text text-anchor="start" x="5.5" y="-239" font-family="Helvetica,sans-Serif" font-size="10.00">&#45;</text>
<text text-anchor="start" x="14" y="-239" font-family="Helvetica,sans-Serif" font-size="10.00">static constexpr int</text>
<text text-anchor="start" x="14" y="-228.5" font-family="Helvetica,sans-Serif" font-size="10.00"> kRequiredHeartbeats</text>
<text text-anchor="start" x="4" y="-214" font-family="Helvetica,sans-Serif" font-size="10.00">+</text>
<text text-anchor="start" x="14" y="-214" font-family="Helvetica,sans-Serif" font-size="10.00">void Apply(std::vector</text>
<text text-anchor="start" x="14" y="-203.5" font-family="Helvetica,sans-Serif" font-size="10.00">&lt; QPointF &gt; &amp;control_points,</text>
<text text-anchor="start" x="14" y="-193" font-family="Helvetica,sans-Serif" font-size="10.00"> std::vector&lt; QPointF &gt; &amp;velocity,</text>
<text text-anchor="start" x="14" y="-182.5" font-family="Helvetica,sans-Serif" font-size="10.00"> QPointF &amp;blob_center, const BlobConfig</text>
<text text-anchor="start" x="14" y="-172" font-family="Helvetica,sans-Serif" font-size="10.00">::BlobParameters &amp;params) override</text>
<text text-anchor="start" x="4" y="-157.5" font-family="Helvetica,sans-Serif" font-size="10.00">+</text>
<text text-anchor="start" x="14" y="-157.5" font-family="Helvetica,sans-Serif" font-size="10.00">void ApplyForce(const</text>
<text text-anchor="start" x="14" y="-147" font-family="Helvetica,sans-Serif" font-size="10.00"> QVector2D &amp;force, std</text>
<text text-anchor="start" x="14" y="-136.5" font-family="Helvetica,sans-Serif" font-size="10.00">::vector&lt; QPointF &gt; &amp;velocity,</text>
<text text-anchor="start" x="14" y="-126" font-family="Helvetica,sans-Serif" font-size="10.00"> QPointF &amp;blob_center, const</text>
<text text-anchor="start" x="14" y="-115.5" font-family="Helvetica,sans-Serif" font-size="10.00"> std::vector&lt; QPointF &gt; &amp;control</text>
<text text-anchor="start" x="14" y="-105" font-family="Helvetica,sans-Serif" font-size="10.00">_points, double blob_radius) override</text>
<text text-anchor="start" x="4" y="-90.5" font-family="Helvetica,sans-Serif" font-size="10.00">+</text>
<text text-anchor="start" x="14" y="-90.5" font-family="Helvetica,sans-Serif" font-size="10.00">void ApplyHeartbeatEffect</text>
<text text-anchor="start" x="14" y="-80" font-family="Helvetica,sans-Serif" font-size="10.00">(const std::vector&lt; QPointF</text>
<text text-anchor="start" x="14" y="-69.5" font-family="Helvetica,sans-Serif" font-size="10.00"> &gt; &amp;control_points, std::vector</text>
<text text-anchor="start" x="14" y="-59" font-family="Helvetica,sans-Serif" font-size="10.00">&lt; QPointF &gt; &amp;velocity, const QPointF</text>
<text text-anchor="start" x="14" y="-48.5" font-family="Helvetica,sans-Serif" font-size="10.00"> &amp;blob_center, const BlobConfig::BlobParameters &amp;params)</text>
<text text-anchor="start" x="4" y="-34" font-family="Helvetica,sans-Serif" font-size="10.00">+</text>
<text text-anchor="start" x="14" y="-34" font-family="Helvetica,sans-Serif" font-size="10.00">IdleState()</text>
<text text-anchor="start" x="4" y="-19.5" font-family="Helvetica,sans-Serif" font-size="10.00">+</text>
<text text-anchor="start" x="14" y="-19.5" font-family="Helvetica,sans-Serif" font-size="10.00">void ResetInitialization()</text>
<text text-anchor="start" x="4" y="-5" font-family="Helvetica,sans-Serif" font-size="10.00">+</text>
<text text-anchor="start" x="14" y="-5" font-family="Helvetica,sans-Serif" font-size="10.00">void UpdatePhases()</text>
<polygon fill="#666666" stroke="#666666" points="0,-348 0,-348 280.5,-348 280.5,-348 0,-348"/>
<polygon fill="#666666" stroke="#666666" points="0,-225.5 0,-225.5 12,-225.5 12,-225.5 0,-225.5"/>
<polygon fill="#666666" stroke="#666666" points="12,-225.5 12,-225.5 280.5,-225.5 280.5,-225.5 12,-225.5"/>
<polygon fill="none" stroke="#666666" points="0,0 0,-364.5 280.5,-364.5 280.5,0 0,0"/>
</a>
</g>
</g>
<!-- Node2 -->
<g id="Node000002" class="node">
<title>Node2</title>
<g id="a_Node000002"><a xlink:href="classBlobState.html" target="_top" xlink:title="Abstract base class defining the interface for different blob animation states.">
<polygon fill="white" stroke="none" points="241.12,-603 39.38,-603 39.38,-400.5 241.12,-400.5 241.12,-603"/>
<text text-anchor="start" x="118.88" y="-589.5" font-family="Helvetica,sans-Serif" font-size="10.00">BlobState</text>
<text text-anchor="start" x="138.75" y="-575" font-family="Helvetica,sans-Serif" font-size="10.00"> </text>
<text text-anchor="start" x="43.38" y="-560.5" font-family="Helvetica,sans-Serif" font-size="10.00">+</text>
<text text-anchor="start" x="53.38" y="-560.5" font-family="Helvetica,sans-Serif" font-size="10.00">virtual void Apply</text>
<text text-anchor="start" x="53.38" y="-550" font-family="Helvetica,sans-Serif" font-size="10.00">(std::vector&lt; QPointF</text>
<text text-anchor="start" x="53.38" y="-539.5" font-family="Helvetica,sans-Serif" font-size="10.00"> &gt; &amp;control_points, std</text>
<text text-anchor="start" x="53.38" y="-529" font-family="Helvetica,sans-Serif" font-size="10.00">::vector&lt; QPointF &gt; &amp;velocity,</text>
<text text-anchor="start" x="53.38" y="-518.5" font-family="Helvetica,sans-Serif" font-size="10.00"> QPointF &amp;blob_center, const</text>
<text text-anchor="start" x="53.38" y="-508" font-family="Helvetica,sans-Serif" font-size="10.00"> BlobConfig::BlobParameters &amp;params)=0</text>
<text text-anchor="start" x="43.38" y="-493.5" font-family="Helvetica,sans-Serif" font-size="10.00">+</text>
<text text-anchor="start" x="53.38" y="-493.5" font-family="Helvetica,sans-Serif" font-size="10.00">virtual void ApplyForce</text>
<text text-anchor="start" x="53.38" y="-483" font-family="Helvetica,sans-Serif" font-size="10.00">(const QVector2D &amp;force,</text>
<text text-anchor="start" x="53.38" y="-472.5" font-family="Helvetica,sans-Serif" font-size="10.00"> std::vector&lt; QPointF &gt;</text>
<text text-anchor="start" x="53.38" y="-462" font-family="Helvetica,sans-Serif" font-size="10.00"> &amp;velocity, QPointF &amp;blob</text>
<text text-anchor="start" x="53.38" y="-451.5" font-family="Helvetica,sans-Serif" font-size="10.00">_center, const std::vector</text>
<text text-anchor="start" x="53.38" y="-441" font-family="Helvetica,sans-Serif" font-size="10.00">&lt; QPointF &gt; &amp;control_points,</text>
<text text-anchor="start" x="53.38" y="-430.5" font-family="Helvetica,sans-Serif" font-size="10.00"> double blob_radius)=0</text>
<text text-anchor="start" x="43.38" y="-416" font-family="Helvetica,sans-Serif" font-size="10.00">+</text>
<text text-anchor="start" x="53.38" y="-416" font-family="Helvetica,sans-Serif" font-size="10.00">virtual ~BlobState</text>
<text text-anchor="start" x="53.38" y="-405.5" font-family="Helvetica,sans-Serif" font-size="10.00">()=default</text>
<polygon fill="#666666" stroke="#666666" points="39.38,-586.5 39.38,-586.5 241.12,-586.5 241.12,-586.5 39.38,-586.5"/>
<polygon fill="#666666" stroke="#666666" points="39.38,-572 39.38,-572 241.12,-572 241.12,-572 39.38,-572"/>
<polygon fill="none" stroke="#666666" points="39.38,-400.5 39.38,-603 241.12,-603 241.12,-400.5 39.38,-400.5"/>
</a>
</g>
</g>
<!-- Node2&#45;&gt;Node1 -->
<g id="edge1_Node000001_Node000002" class="edge">
<title>Node2&#45;&gt;Node1</title>
<g id="a_edge1_Node000001_Node000002"><a xlink:title=" ">
<path fill="none" stroke="#63b8ff" d="M140.25,-389.32C140.25,-381.15 140.25,-372.81 140.25,-364.37"/>
<polygon fill="none" stroke="#63b8ff" points="136.75,-389.21 140.25,-399.21 143.75,-389.21 136.75,-389.21"/>
</a>
</g>
</g>
</g>
</svg>

<g id="navigator" transform="translate(0 0)" fill="#404254">
  <rect fill="#f2f5e9" fill-opacity="0.5" stroke="#606060" stroke-width=".5" x="0" y="0" width="60" height="60"/>
  <use id="zoomplus" xlink:href="#zoomPlus" x="17" y="9" onmousedown="handleZoom(evt,'in')"/>
  <use id="zoomminus" xlink:href="#zoomMin" x="42" y="9" onmousedown="handleZoom(evt,'out')"/>
  <use id="reset" xlink:href="#resetDef" x="30" y="36" onmousedown="handleReset()"/>
   <use id="arrowup" xlink:href="#arrowUp" x="0" y="0" onmousedown="handlePan(0,-1)"/>
  <use id="arrowright" xlink:href="#arrowRight" x="0" y="0" onmousedown="handlePan(1,0)"/>
  <use id="arrowdown" xlink:href="#arrowDown" x="0" y="0" onmousedown="handlePan(0,1)"/>
  <use id="arrowleft" xlink:href="#arrowLeft" x="0" y="0" onmousedown="handlePan(-1,0)"/>
</g>
<svg viewBox="0 0 15 15" width="100%" height="30px" preserveAspectRatio="xMaxYMin meet">
 <g id="arrow_out" transform="scale(0.3 0.3)">
  <a xlink:href="classIdleState__inherit__graph_org.svg" target="_base">
   <rect id="button" ry="5" rx="5" y="6" x="6" height="38" width="38"
        fill="#f2f5e9" fill-opacity="0.5" stroke="#606060" stroke-width="1.0"/>
   <path id="arrow"
     d="M 11.500037,31.436501 C 11.940474,20.09759 22.043105,11.32322 32.158766,21.979434 L 37.068811,17.246167 C 37.068811,17.246167 37.088388,32 37.088388,32 L 22.160133,31.978069 C 22.160133,31.978069 26.997745,27.140456 26.997745,27.140456 C 18.528582,18.264221 13.291696,25.230495 11.500037,31.436501 z"
     style="fill:#404040;"/>
  </a>
 </g>
</svg>

<style type='text/css'>
<![CDATA[
[data-mouse-over-selected='false'] { opacity: 0.7; }
[data-mouse-over-selected='true']  { opacity: 1.0; }
]]>
</style>
<script type="application/ecmascript"><![CDATA[
document.addEventListener('DOMContentLoaded', (event) => {
  highlightEdges();
  highlightAdjacentNodes();
});
]]></script>
</svg>
