<?xml version="1.0" encoding="UTF-8" standalone="no"?>
<!DOCTYPE svg PUBLIC "-//W3C//DTD SVG 1.1//EN"
 "http://www.w3.org/Graphics/SVG/1.1/DTD/svg11.dtd">
<!-- Generated by graphviz version 12.2.1 (0)
 -->
<!-- Title: SessionCoordinator::GetRelayServerAddress Pages: 1 -->
<svg width="512pt" height="97pt"
 viewBox="0.00 0.00 512.00 97.00" xmlns="http://www.w3.org/2000/svg" xmlns:xlink="http://www.w3.org/1999/xlink">
<g id="graph0" class="graph" transform="scale(1 1) rotate(0) translate(4 93)">
<title>SessionCoordinator::GetRelayServerAddress</title>
<!-- Node1 -->
<g id="Node000001" class="node">
<title>Node1</title>
<g id="a_Node000001"><a xlink:title="Gets the configured relay server address. Delegates the call to WavelengthConfig.">
<polygon fill="#999999" stroke="#666666" points="127,-50 0,-50 0,-21 127,-21 127,-50"/>
<text text-anchor="start" x="8" y="-36.5" font-family="Helvetica,sans-Serif" font-size="10.00">SessionCoordinator</text>
<text text-anchor="middle" x="63.5" y="-26" font-family="Helvetica,sans-Serif" font-size="10.00">::GetRelayServerAddress</text>
</a>
</g>
</g>
<!-- Node2 -->
<g id="Node000002" class="node">
<title>Node2</title>
<g id="a_Node000002"><a xlink:href="classWavelengthConfig.html#abe95f3b7789e1e60f7bd535352644c0d" target="_top" xlink:title="Gets the singleton instance of the WavelengthConfig.">
<polygon fill="white" stroke="#666666" points="317,-65.75 163,-65.75 163,-47.25 317,-47.25 317,-65.75"/>
<text text-anchor="middle" x="240" y="-52.25" font-family="Helvetica,sans-Serif" font-size="10.00">WavelengthConfig::GetInstance</text>
</a>
</g>
</g>
<!-- Node1&#45;&gt;Node2 -->
<g id="edge1_Node000001_Node000002" class="edge">
<title>Node1&#45;&gt;Node2</title>
<g id="a_edge1_Node000001_Node000002"><a xlink:title=" ">
<path fill="none" stroke="#63b8ff" d="M127.5,-43.08C135.26,-44.02 143.3,-44.98 151.35,-45.95"/>
<polygon fill="#63b8ff" stroke="#63b8ff" points="150.85,-49.42 161.2,-47.14 151.69,-42.47 150.85,-49.42"/>
</a>
</g>
</g>
<!-- Node4 -->
<g id="Node000004" class="node">
<title>Node4</title>
<g id="a_Node000004"><a xlink:href="classWavelengthConfig.html#adf2ecac39e18de2b5ed81eb8fde47d8a" target="_top" xlink:title="Gets the configured relay server address.">
<polygon fill="white" stroke="#666666" points="310.62,-29 169.38,-29 169.38,0 310.62,0 310.62,-29"/>
<text text-anchor="start" x="177.38" y="-15.5" font-family="Helvetica,sans-Serif" font-size="10.00">WavelengthConfig::GetRelay</text>
<text text-anchor="middle" x="240" y="-5" font-family="Helvetica,sans-Serif" font-size="10.00">ServerAddress</text>
</a>
</g>
</g>
<!-- Node1&#45;&gt;Node4 -->
<g id="edge4_Node000001_Node000004" class="edge">
<title>Node1&#45;&gt;Node4</title>
<g id="a_edge4_Node000001_Node000004"><a xlink:title=" ">
<path fill="none" stroke="#63b8ff" d="M127.5,-27.92C137.29,-26.74 147.52,-25.51 157.64,-24.29"/>
<polygon fill="#63b8ff" stroke="#63b8ff" points="157.99,-27.77 167.5,-23.11 157.15,-20.83 157.99,-27.77"/>
</a>
</g>
</g>
<!-- Node3 -->
<g id="Node000003" class="node">
<title>Node3</title>
<g id="a_Node000003"><a xlink:href="classWavelengthConfig.html#a85e6819278b90f10a1afe5e91ce05cbe" target="_top" xlink:title="Deleted copy constructor.">
<polygon fill="white" stroke="#666666" points="504,-71 353,-71 353,-42 504,-42 504,-71"/>
<text text-anchor="start" x="361" y="-57.5" font-family="Helvetica,sans-Serif" font-size="10.00">WavelengthConfig::Wavelength</text>
<text text-anchor="middle" x="428.5" y="-47" font-family="Helvetica,sans-Serif" font-size="10.00">Config</text>
</a>
</g>
</g>
<!-- Node2&#45;&gt;Node3 -->
<g id="edge2_Node000002_Node000003" class="edge">
<title>Node2&#45;&gt;Node3</title>
<g id="a_edge2_Node000002_Node000003"><a xlink:title=" ">
<path fill="none" stroke="#63b8ff" d="M317.39,-56.5C325.33,-56.5 333.43,-56.5 341.45,-56.5"/>
<polygon fill="#63b8ff" stroke="#63b8ff" points="341.22,-60 351.22,-56.5 341.22,-53 341.22,-60"/>
</a>
</g>
</g>
<!-- Node3&#45;&gt;Node3 -->
<g id="edge3_Node000003_Node000003" class="edge">
<title>Node3&#45;&gt;Node3</title>
<g id="a_edge3_Node000003_Node000003"><a xlink:title=" ">
<path fill="none" stroke="#63b8ff" d="M395.65,-71.21C387.73,-80.32 398.68,-89 428.5,-89 444.81,-89 455.47,-86.41 460.49,-82.56"/>
<polygon fill="#63b8ff" stroke="#63b8ff" points="463.97,-82.95 461.24,-72.72 456.99,-82.42 463.97,-82.95"/>
</a>
</g>
</g>
</g>
</svg>
