<?xml version="1.0" encoding="UTF-8" standalone="no"?>
<!DOCTYPE svg PUBLIC "-//W3C//DTD SVG 1.1//EN"
 "http://www.w3.org/Graphics/SVG/1.1/DTD/svg11.dtd">
<!-- Generated by graphviz version 12.2.1 (0)
 -->
<!-- Title: FingerprintLayer::Initialize Pages: 1 -->
<svg width="320pt" height="74pt"
 viewBox="0.00 0.00 319.75 73.75" xmlns="http://www.w3.org/2000/svg" xmlns:xlink="http://www.w3.org/1999/xlink">
<g id="graph0" class="graph" transform="scale(1 1) rotate(0) translate(4 69.75)">
<title>FingerprintLayer::Initialize</title>
<!-- Node1 -->
<g id="Node000001" class="node">
<title>Node1</title>
<g id="a_Node000001"><a xlink:title="Initializes the layer for display. Resets the progress bar and styles, loads a random fingerprint ima...">
<polygon fill="#999999" stroke="#666666" points="127,-39.5 0,-39.5 0,-21 127,-21 127,-39.5"/>
<text text-anchor="middle" x="63.5" y="-26" font-family="Helvetica,sans-Serif" font-size="10.00">FingerprintLayer::Initialize</text>
</a>
</g>
</g>
<!-- Node2 -->
<g id="Node000002" class="node">
<title>Node2</title>
<g id="a_Node000002"><a xlink:href="classFingerprintLayer.html#a5ce00330053b0039251eff29fbc53ae7" target="_top" xlink:title="Loads a random fingerprint SVG file from fingerprint_files_ and renders it into base_fingerprint_....">
<polygon fill="white" stroke="#666666" points="311.75,-65.75 163,-65.75 163,-36.75 311.75,-36.75 311.75,-65.75"/>
<text text-anchor="start" x="171" y="-52.25" font-family="Helvetica,sans-Serif" font-size="10.00">FingerprintLayer::LoadRandom</text>
<text text-anchor="middle" x="237.38" y="-41.75" font-family="Helvetica,sans-Serif" font-size="10.00">Fingerprint</text>
</a>
</g>
</g>
<!-- Node1&#45;&gt;Node2 -->
<g id="edge1_Node000001_Node000002" class="edge">
<title>Node1&#45;&gt;Node2</title>
<g id="a_edge1_Node000001_Node000002"><a xlink:title=" ">
<path fill="none" stroke="#63b8ff" d="M127.04,-37.89C135.02,-38.87 143.3,-39.88 151.56,-40.89"/>
<polygon fill="#63b8ff" stroke="#63b8ff" points="150.94,-44.34 161.29,-42.08 151.79,-37.39 150.94,-44.34"/>
</a>
</g>
</g>
<!-- Node3 -->
<g id="Node000003" class="node">
<title>Node3</title>
<g id="a_Node000003"><a xlink:href="classFingerprintLayer.html#aebf84fcb1a08efd5a5715c23d504c2d6" target="_top" xlink:title="Resets the layer to its initial state. Stops the progress timer, resets the progress bar value and st...">
<polygon fill="white" stroke="#666666" points="296,-18.5 178.75,-18.5 178.75,0 296,0 296,-18.5"/>
<text text-anchor="middle" x="237.38" y="-5" font-family="Helvetica,sans-Serif" font-size="10.00">FingerprintLayer::Reset</text>
</a>
</g>
</g>
<!-- Node1&#45;&gt;Node3 -->
<g id="edge2_Node000001_Node000003" class="edge">
<title>Node1&#45;&gt;Node3</title>
<g id="a_edge2_Node000001_Node000003"><a xlink:title=" ">
<path fill="none" stroke="#63b8ff" d="M127.04,-22.61C140.16,-21.01 154.07,-19.31 167.41,-17.68"/>
<polygon fill="#63b8ff" stroke="#63b8ff" points="167.45,-21.2 176.95,-16.51 166.6,-14.25 167.45,-21.2"/>
</a>
</g>
</g>
</g>
</svg>
