<?xml version="1.0" encoding="UTF-8" standalone="no"?>
<!DOCTYPE svg PUBLIC "-//W3C//DTD SVG 1.1//EN"
 "http://www.w3.org/Graphics/SVG/1.1/DTD/svg11.dtd">
<!-- Generated by graphviz version 12.2.1 (0)
 -->
<!-- Title: StreamMessage::MarkAsRead Pages: 1 -->
<svg width="511pt" height="121pt"
 viewBox="0.00 0.00 510.50 120.75" xmlns="http://www.w3.org/2000/svg" xmlns:xlink="http://www.w3.org/1999/xlink">
<g id="graph0" class="graph" transform="scale(1 1) rotate(0) translate(4 116.75)">
<title>StreamMessage::MarkAsRead</title>
<!-- Node1 -->
<g id="Node000001" class="node">
<title>Node1</title>
<g id="a_Node000001"><a xlink:title="Marks the message as read, triggers the appropriate closing animation (Electronic Shutdown or a simpl...">
<polygon fill="#999999" stroke="#666666" points="150.25,-70.75 0,-70.75 0,-52.25 150.25,-52.25 150.25,-70.75"/>
<text text-anchor="middle" x="75.12" y="-57.25" font-family="Helvetica,sans-Serif" font-size="10.00">StreamMessage::MarkAsRead</text>
</a>
</g>
</g>
<!-- Node2 -->
<g id="Node000002" class="node">
<title>Node2</title>
<g id="a_Node000002"><a xlink:href="classStreamMessage.html#ab76d3005cedeb795654afd453108593f" target="_top" xlink:title="Emitted when the message is marked as read (MarkAsRead() is called).">
<polygon fill="white" stroke="#666666" points="343.25,-112.75 187.75,-112.75 187.75,-94.25 343.25,-94.25 343.25,-112.75"/>
<text text-anchor="middle" x="265.5" y="-99.25" font-family="Helvetica,sans-Serif" font-size="10.00">StreamMessage::messageRead</text>
</a>
</g>
</g>
<!-- Node1&#45;&gt;Node2 -->
<g id="edge1_Node000001_Node000002" class="edge">
<title>Node1&#45;&gt;Node2</title>
<g id="a_edge1_Node000001_Node000002"><a xlink:title=" ">
<path fill="none" stroke="#63b8ff" d="M119.82,-71.24C146.68,-77.23 181.33,-84.96 209.98,-91.35"/>
<polygon fill="#63b8ff" stroke="#63b8ff" points="209.05,-94.72 219.57,-93.48 210.57,-87.89 209.05,-94.72"/>
</a>
</g>
</g>
<!-- Node3 -->
<g id="Node000003" class="node">
<title>Node3</title>
<g id="a_Node000003"><a xlink:href="classStreamMessage.html#a54a074c315a53d482650cd24d3e57d60" target="_top" xlink:title="Starts a simpler closing animation (glitch/fade) used specifically for long messages displayed in a s...">
<polygon fill="white" stroke="#666666" points="333.5,-76 197.5,-76 197.5,-47 333.5,-47 333.5,-76"/>
<text text-anchor="start" x="205.5" y="-62.5" font-family="Helvetica,sans-Serif" font-size="10.00">StreamMessage::StartLong</text>
<text text-anchor="middle" x="265.5" y="-52" font-family="Helvetica,sans-Serif" font-size="10.00">MessageClosingAnimation</text>
</a>
</g>
</g>
<!-- Node1&#45;&gt;Node3 -->
<g id="edge2_Node000001_Node000003" class="edge">
<title>Node1&#45;&gt;Node3</title>
<g id="a_edge2_Node000001_Node000003"><a xlink:title=" ">
<path fill="none" stroke="#63b8ff" d="M150.58,-61.5C162.07,-61.5 173.97,-61.5 185.56,-61.5"/>
<polygon fill="#63b8ff" stroke="#63b8ff" points="185.5,-65 195.5,-61.5 185.5,-58 185.5,-65"/>
</a>
</g>
</g>
<!-- Node5 -->
<g id="Node000005" class="node">
<title>Node5</title>
<g id="a_Node000005"><a xlink:href="classStreamMessage.html#a8bbf535db654d1c7c94546c61fdc936c" target="_top" xlink:title="Starts the electronic shutdown closing animation. Applies the ElectronicShutdownEffect and animates i...">
<polygon fill="white" stroke="#666666" points="344.75,-29 186.25,-29 186.25,0 344.75,0 344.75,-29"/>
<text text-anchor="start" x="194.25" y="-15.5" font-family="Helvetica,sans-Serif" font-size="10.00">StreamMessage::StartShutdown</text>
<text text-anchor="middle" x="265.5" y="-5" font-family="Helvetica,sans-Serif" font-size="10.00">Animation</text>
</a>
</g>
</g>
<!-- Node1&#45;&gt;Node5 -->
<g id="edge4_Node000001_Node000005" class="edge">
<title>Node1&#45;&gt;Node5</title>
<g id="a_edge4_Node000001_Node000005"><a xlink:title=" ">
<path fill="none" stroke="#63b8ff" d="M115.16,-51.76C137.89,-46.09 167.24,-38.77 193.89,-32.12"/>
<polygon fill="#63b8ff" stroke="#63b8ff" points="194.41,-35.59 203.27,-29.78 192.72,-28.8 194.41,-35.59"/>
</a>
</g>
</g>
<!-- Node4 -->
<g id="Node000004" class="node">
<title>Node4</title>
<g id="a_Node000004"><a xlink:href="classStreamMessage.html#aa04caea13bddde1d0ea72f43ad26e8f8" target="_top" xlink:title="Emitted when the message finishes its fade&#45;out or closing animation and becomes hidden.">
<polygon fill="white" stroke="#666666" points="502.5,-46.75 380.75,-46.75 380.75,-28.25 502.5,-28.25 502.5,-46.75"/>
<text text-anchor="middle" x="441.62" y="-33.25" font-family="Helvetica,sans-Serif" font-size="10.00">StreamMessage::hidden</text>
</a>
</g>
</g>
<!-- Node3&#45;&gt;Node4 -->
<g id="edge3_Node000003_Node000004" class="edge">
<title>Node3&#45;&gt;Node4</title>
<g id="a_edge3_Node000003_Node000004"><a xlink:title=" ">
<path fill="none" stroke="#63b8ff" d="M333.82,-52.22C345.42,-50.62 357.52,-48.95 369.23,-47.34"/>
<polygon fill="#63b8ff" stroke="#63b8ff" points="369.38,-50.85 378.81,-46.02 368.42,-43.92 369.38,-50.85"/>
</a>
</g>
</g>
<!-- Node5&#45;&gt;Node4 -->
<g id="edge5_Node000005_Node000004" class="edge">
<title>Node5&#45;&gt;Node4</title>
<g id="a_edge5_Node000005_Node000004"><a xlink:title=" ">
<path fill="none" stroke="#63b8ff" d="M345.16,-24.89C353.09,-25.94 361.12,-27 368.97,-28.04"/>
<polygon fill="#63b8ff" stroke="#63b8ff" points="368.45,-31.5 378.82,-29.34 369.37,-24.56 368.45,-31.5"/>
</a>
</g>
</g>
</g>
</svg>
