<?xml version="1.0" encoding="UTF-8" standalone="no"?>
<!DOCTYPE svg PUBLIC "-//W3C//DTD SVG 1.1//EN"
 "http://www.w3.org/Graphics/SVG/1.1/DTD/svg11.dtd">
<!-- Generated by graphviz version 12.2.1 (0)
 -->
<!-- Title: ShortcutManager::RegisterChatViewShortcuts Pages: 1 -->
<!--zoomable 599 -->

<svg id="main" version="1.1" xmlns="http://www.w3.org/2000/svg" xmlns:xlink="http://www.w3.org/1999/xlink" xml:space="preserve" onload="init(evt)">

<style type="text/css"><![CDATA[
.node, .edge {opacity: 0.7;}
.node.selected, .edge.selected {opacity: 1;}
.edge:hover path { stroke: red; }
.edge:hover polygon { stroke: red; fill: red; }
]]></style>

<defs>
  <circle id="rim" cx="0" cy="0" r="7"/>
  <circle id="rim2" cx="0" cy="0" r="3.5"/>
  <g id="zoomPlus">
    <use xlink:href="#rim" fill="#404040"><set attributeName="fill" to="#808080" begin="zoomplus.mouseover" end="zoomplus.mouseout"/></use>
    <path d="M-4,0h8M0,-4v8" fill="none" stroke="white" stroke-width="1.5" pointer-events="none"/>
  </g>
  <g id="zoomMin">
    <use xlink:href="#rim" fill="#404040"><set attributeName="fill" to="#808080" begin="zoomminus.mouseover" end="zoomminus.mouseout"/></use>
    <path d="M-4,0h8" fill="none" stroke="white" stroke-width="1.5" pointer-events="none"/>
  </g>
  <g id="arrowUp" transform="translate(30 24)">
    <use xlink:href="#rim"/>
    <path pointer-events="none" fill="none" stroke="white" stroke-width="1.5" d="M0,-3.0v7 M-2.5,-0.5L0,-3.0L2.5,-0.5"/>
  </g>
  <g id="arrowRight" transform="rotate(90) translate(36 -43)">
    <use xlink:href="#rim"/>
    <path pointer-events="none" fill="none" stroke="white" stroke-width="1.5" d="M0,-3.0v7 M-2.5,-0.5L0,-3.0L2.5,-0.5"/>
  </g>
  <g id="arrowDown" transform="rotate(180) translate(-30 -48)">
    <use xlink:href="#rim"/>
    <path pointer-events="none" fill="none" stroke="white" stroke-width="1.5" d="M0,-3.0v7 M-2.5,-0.5L0,-3.0L2.5,-0.5"/>
  </g>
  <g id="arrowLeft" transform="rotate(270) translate(-36 17)">
    <use xlink:href="#rim"/>
    <path pointer-events="none" fill="none" stroke="white" stroke-width="1.5" d="M0,-3.0v7 M-2.5,-0.5L0,-3.0L2.5,-0.5"/>
  </g>
  <g id="resetDef">
    <use xlink:href="#rim2" fill="#404040"><set attributeName="fill" to="#808080" begin="reset.mouseover" end="reset.mouseout"/></use>
  </g>
</defs>
<script type="application/ecmascript">
var viewWidth = 710;
var viewHeight = 599;
var sectionId = 'dynsection-9';
</script>
<script type="application/ecmascript" xlink:href="svg.min.js"/>
<svg id="graph" class="graph">
<g id="viewport">
<title>ShortcutManager::RegisterChatViewShortcuts</title>
<!-- Node1 -->
<g id="Node000001" class="node">
<title>Node1</title>
<g id="a_Node000001"><a xlink:title="Registers shortcuts specific to the WavelengthChatView.">
<polygon fill="#999999" stroke="#666666" points="133,-359 0,-359 0,-330 133,-330 133,-359"/>
<text text-anchor="start" x="8" y="-345.5" font-family="Helvetica,sans-Serif" font-size="10.00">ShortcutManager::Register</text>
<text text-anchor="middle" x="66.5" y="-335" font-family="Helvetica,sans-Serif" font-size="10.00">ChatViewShortcuts</text>
</a>
</g>
</g>
<!-- Node2 -->
<g id="Node000002" class="node">
<title>Node2</title>
<g id="a_Node000002"><a xlink:href="classChatView.html#a4b181808cf22581bd24eb4bab9e07e43" target="_top" xlink:title="Opens a file dialog to allow the user to select a file for sending. If a file is selected,...">
<polygon fill="white" stroke="#666666" points="294.88,-374.75 186.62,-374.75 186.62,-356.25 294.88,-356.25 294.88,-374.75"/>
<text text-anchor="middle" x="240.75" y="-361.25" font-family="Helvetica,sans-Serif" font-size="10.00">ChatView::AttachFile</text>
</a>
</g>
</g>
<!-- Node1&#45;&gt;Node2 -->
<g id="edge1_Node000001_Node000002" class="edge">
<title>Node1&#45;&gt;Node2</title>
<g id="a_edge1_Node000001_Node000002"><a xlink:title=" ">
<path fill="none" stroke="#63b8ff" d="M133.11,-352.5C146.85,-354.17 161.33,-355.94 175.04,-357.61"/>
<polygon fill="#63b8ff" stroke="#63b8ff" points="174.49,-361.07 184.84,-358.81 175.34,-354.12 174.49,-361.07"/>
</a>
</g>
</g>
<!-- Node25 -->
<g id="Node000025" class="node">
<title>Node25</title>
<g id="a_Node000025"><a xlink:href="classShortcutManager.html#a6305ee4ce31c956ea2c1d63b907e21cf" target="_top" xlink:title="Template helper function to create and connect a QShortcut.">
<polygon fill="white" stroke="#666666" points="312.5,-338 169,-338 169,-309 312.5,-309 312.5,-338"/>
<text text-anchor="start" x="177" y="-324.5" font-family="Helvetica,sans-Serif" font-size="10.00">ShortcutManager::CreateAnd</text>
<text text-anchor="middle" x="240.75" y="-314" font-family="Helvetica,sans-Serif" font-size="10.00">ConnectShortcut</text>
</a>
</g>
</g>
<!-- Node1&#45;&gt;Node25 -->
<g id="edge18_Node000001_Node000025" class="edge">
<title>Node1&#45;&gt;Node25</title>
<g id="a_edge18_Node000001_Node000025"><a xlink:title=" ">
<path fill="none" stroke="#63b8ff" d="M133.11,-336.5C141,-335.54 149.12,-334.55 157.21,-333.56"/>
<polygon fill="#63b8ff" stroke="#63b8ff" points="157.57,-337.04 167.08,-332.36 156.73,-330.1 157.57,-337.04"/>
</a>
</g>
</g>
<!-- Node3 -->
<g id="Node000003" class="node">
<title>Node3</title>
<g id="a_Node000003"><a xlink:href="classMessageService.html#a3d9355ae6f778ed4799141d921b6e7e4" target="_top" xlink:title="Gets the singleton instance of the MessageService.">
<polygon fill="white" stroke="#666666" points="497.25,-452.75 348.5,-452.75 348.5,-434.25 497.25,-434.25 497.25,-452.75"/>
<text text-anchor="middle" x="422.88" y="-439.25" font-family="Helvetica,sans-Serif" font-size="10.00">MessageService::GetInstance</text>
</a>
</g>
</g>
<!-- Node2&#45;&gt;Node3 -->
<g id="edge2_Node000002_Node000003" class="edge">
<title>Node2&#45;&gt;Node3</title>
<g id="a_edge2_Node000002_Node000003"><a xlink:title=" ">
<path fill="none" stroke="#63b8ff" d="M264.2,-375.22C295.56,-388.8 352.72,-413.55 388.92,-429.23"/>
<polygon fill="#63b8ff" stroke="#63b8ff" points="387.47,-432.42 398.04,-433.18 390.25,-425.99 387.47,-432.42"/>
</a>
</g>
</g>
<!-- Node5 -->
<g id="Node000005" class="node">
<title>Node5</title>
<g id="a_Node000005"><a xlink:href="classMessageService.html#aff7ad6c0302f5f9b4864074eb6675931" target="_top" xlink:title="Initiates the process of sending a file to the currently active frequency. Reads the file,...">
<polygon fill="white" stroke="#666666" points="489.75,-295.75 356,-295.75 356,-277.25 489.75,-277.25 489.75,-295.75"/>
<text text-anchor="middle" x="422.88" y="-282.25" font-family="Helvetica,sans-Serif" font-size="10.00">MessageService::SendFile</text>
</a>
</g>
</g>
<!-- Node2&#45;&gt;Node5 -->
<g id="edge5_Node000002_Node000005" class="edge">
<title>Node2&#45;&gt;Node5</title>
<g id="a_edge5_Node000002_Node000005"><a xlink:title=" ">
<path fill="none" stroke="#63b8ff" d="M287.22,-355.79C295.75,-353.45 304.49,-350.69 312.5,-347.5 343.4,-335.2 376.42,-315.82 398,-302.21"/>
<polygon fill="#63b8ff" stroke="#63b8ff" points="399.81,-305.21 406.34,-296.87 396.03,-299.31 399.81,-305.21"/>
</a>
</g>
</g>
<!-- Node4 -->
<g id="Node000004" class="node">
<title>Node4</title>
<g id="a_Node000004"><a xlink:href="classMessageService.html#a2a6e9a079ac7a537b6342e1fb63a52dc" target="_top" xlink:title="Deleted copy constructor to prevent copying.">
<polygon fill="white" stroke="#666666" points="702.25,-572.75 533.25,-572.75 533.25,-554.25 702.25,-554.25 702.25,-572.75"/>
<text text-anchor="middle" x="617.75" y="-559.25" font-family="Helvetica,sans-Serif" font-size="10.00">MessageService::MessageService</text>
</a>
</g>
</g>
<!-- Node3&#45;&gt;Node4 -->
<g id="edge3_Node000003_Node000004" class="edge">
<title>Node3&#45;&gt;Node4</title>
<g id="a_edge3_Node000003_Node000004"><a xlink:title=" ">
<path fill="none" stroke="#63b8ff" d="M431.16,-453.17C447.17,-473.7 487.68,-521.7 533.25,-545.5 536.47,-547.18 539.84,-548.71 543.3,-550.09"/>
<polygon fill="#63b8ff" stroke="#63b8ff" points="541.87,-553.3 552.46,-553.32 544.2,-546.7 541.87,-553.3"/>
</a>
</g>
</g>
<!-- Node4&#45;&gt;Node4 -->
<g id="edge4_Node000004_Node000004" class="edge">
<title>Node4&#45;&gt;Node4</title>
<g id="a_edge4_Node000004_Node000004"><a xlink:title=" ">
<path fill="none" stroke="#63b8ff" d="M587.71,-573C573.1,-581.57 583.11,-590.75 617.75,-590.75 638.86,-590.75 650.82,-587.34 653.64,-582.74"/>
<polygon fill="#63b8ff" stroke="#63b8ff" points="656.72,-581.06 648.57,-574.29 650.71,-584.67 656.72,-581.06"/>
</a>
</g>
</g>
<!-- Node6 -->
<g id="Node000006" class="node">
<title>Node6</title>
<g id="a_Node000006"><a xlink:href="classAttachmentQueueManager.html#a9fc5b79cd8dd31a11ff60fedf183f5d2" target="_top" xlink:title="Adds a new task (represented by a std::function) to the execution queue. Creates an AttachmentTask wr...">
<polygon fill="#fff0f0" stroke="red" points="683.88,-536 551.62,-536 551.62,-507 683.88,-507 683.88,-536"/>
<text text-anchor="start" x="559.62" y="-522.5" font-family="Helvetica,sans-Serif" font-size="10.00">AttachmentQueueManager</text>
<text text-anchor="middle" x="617.75" y="-512" font-family="Helvetica,sans-Serif" font-size="10.00">::AddTask</text>
</a>
</g>
</g>
<!-- Node5&#45;&gt;Node6 -->
<g id="edge6_Node000005_Node000006" class="edge">
<title>Node5&#45;&gt;Node6</title>
<g id="a_edge6_Node000005_Node000006"><a xlink:title=" ">
<path fill="none" stroke="#63b8ff" d="M429.13,-296.23C441.3,-318.82 472.32,-376.65 497.25,-425.5 513.7,-457.72 505.37,-475.45 533.25,-498.5 535.75,-500.57 538.42,-502.45 541.21,-504.16"/>
<polygon fill="#63b8ff" stroke="#63b8ff" points="539.31,-507.11 549.79,-508.65 542.56,-500.91 539.31,-507.11"/>
</a>
</g>
</g>
<!-- Node9 -->
<g id="Node000009" class="node">
<title>Node9</title>
<g id="a_Node000009"><a xlink:href="classAuthenticationManager.html#a746a91c33a014dad53ab34565fe5e64e" target="_top" xlink:title="Generates a unique client identifier.">
<polygon fill="white" stroke="#666666" points="675.62,-489 559.88,-489 559.88,-460 675.62,-460 675.62,-489"/>
<text text-anchor="start" x="567.88" y="-475.5" font-family="Helvetica,sans-Serif" font-size="10.00">AuthenticationManager</text>
<text text-anchor="middle" x="617.75" y="-465" font-family="Helvetica,sans-Serif" font-size="10.00">::GenerateClientId</text>
</a>
</g>
</g>
<!-- Node5&#45;&gt;Node9 -->
<g id="edge7_Node000005_Node000009" class="edge">
<title>Node5&#45;&gt;Node9</title>
<g id="a_edge7_Node000005_Node000009"><a xlink:title=" ">
<path fill="none" stroke="#63b8ff" d="M427.38,-296.06C438.3,-324.45 474.53,-408.95 533.25,-451.5 538.12,-455.03 543.51,-458.02 549.13,-460.55"/>
<polygon fill="#63b8ff" stroke="#63b8ff" points="547.45,-463.65 558.04,-464.07 550.02,-457.14 547.45,-463.65"/>
</a>
</g>
</g>
<!-- Node10 -->
<g id="Node000010" class="node">
<title>Node10</title>
<g id="a_Node000010"><a xlink:href="classMessageHandler.html#a0bd569db12a0dbcd30db0dc412691f0d" target="_top" xlink:title="Generates a unique message identifier using UUID.">
<polygon fill="white" stroke="#666666" points="685.38,-442 550.12,-442 550.12,-413 685.38,-413 685.38,-442"/>
<text text-anchor="start" x="558.12" y="-428.5" font-family="Helvetica,sans-Serif" font-size="10.00">MessageHandler::Generate</text>
<text text-anchor="middle" x="617.75" y="-418" font-family="Helvetica,sans-Serif" font-size="10.00">MessageId</text>
</a>
</g>
</g>
<!-- Node5&#45;&gt;Node10 -->
<g id="edge8_Node000005_Node000010" class="edge">
<title>Node5&#45;&gt;Node10</title>
<g id="a_edge8_Node000005_Node000010"><a xlink:title=" ">
<path fill="none" stroke="#63b8ff" d="M429.99,-296.12C444.81,-318.67 485.03,-375.2 533.25,-404.5 535.26,-405.72 537.33,-406.88 539.46,-407.97"/>
<polygon fill="#63b8ff" stroke="#63b8ff" points="537.78,-411.06 548.33,-412.05 540.7,-404.7 537.78,-411.06"/>
</a>
</g>
</g>
<!-- Node11 -->
<g id="Node000011" class="node">
<title>Node11</title>
<g id="a_Node000011"><a xlink:href="classWavelengthRegistry.html#a6ce8627bbb1db084bf76053aa92f9a47" target="_top" xlink:title="Gets the identifier of the currently active wavelength.">
<polygon fill="white" stroke="#666666" points="675.25,-395 560.25,-395 560.25,-366 675.25,-366 675.25,-395"/>
<text text-anchor="start" x="568.25" y="-381.5" font-family="Helvetica,sans-Serif" font-size="10.00">WavelengthRegistry</text>
<text text-anchor="middle" x="617.75" y="-371" font-family="Helvetica,sans-Serif" font-size="10.00">::GetActiveWavelength</text>
</a>
</g>
</g>
<!-- Node5&#45;&gt;Node11 -->
<g id="edge9_Node000005_Node000011" class="edge">
<title>Node5&#45;&gt;Node11</title>
<g id="a_edge9_Node000005_Node000011"><a xlink:title=" ">
<path fill="none" stroke="#63b8ff" d="M435.95,-296.14C455.37,-311.22 495.25,-340.43 533.25,-357.5 538.35,-359.79 543.73,-361.9 549.2,-363.84"/>
<polygon fill="#63b8ff" stroke="#63b8ff" points="547.75,-367.04 558.34,-366.86 549.95,-360.4 547.75,-367.04"/>
</a>
</g>
</g>
<!-- Node12 -->
<g id="Node000012" class="node">
<title>Node12</title>
<g id="a_Node000012"><a xlink:href="classAttachmentQueueManager.html#ad4882521922da9692f3ff5734761e230" target="_top" xlink:title="Gets the singleton instance of the AttachmentQueueManager.">
<polygon fill="#fff0f0" stroke="red" points="683.88,-348 551.62,-348 551.62,-319 683.88,-319 683.88,-348"/>
<text text-anchor="start" x="559.62" y="-334.5" font-family="Helvetica,sans-Serif" font-size="10.00">AttachmentQueueManager</text>
<text text-anchor="middle" x="617.75" y="-324" font-family="Helvetica,sans-Serif" font-size="10.00">::GetInstance</text>
</a>
</g>
</g>
<!-- Node5&#45;&gt;Node12 -->
<g id="edge10_Node000005_Node000012" class="edge">
<title>Node5&#45;&gt;Node12</title>
<g id="a_edge10_Node000005_Node000012"><a xlink:title=" ">
<path fill="none" stroke="#63b8ff" d="M463.84,-296.24C487.11,-301.91 517.16,-309.23 544.46,-315.88"/>
<polygon fill="#63b8ff" stroke="#63b8ff" points="543.54,-319.26 554.09,-318.23 545.2,-312.46 543.54,-319.26"/>
</a>
</g>
</g>
<!-- Node14 -->
<g id="Node000014" class="node">
<title>Node14</title>
<g id="a_Node000014"><a xlink:href="classAuthenticationManager.html#abb3d14d1e380282208dbb4f533d129af" target="_top" xlink:title="Gets the singleton instance of the AuthenticationManager.">
<polygon fill="#fff0f0" stroke="red" points="675.62,-301 559.88,-301 559.88,-272 675.62,-272 675.62,-301"/>
<text text-anchor="start" x="567.88" y="-287.5" font-family="Helvetica,sans-Serif" font-size="10.00">AuthenticationManager</text>
<text text-anchor="middle" x="617.75" y="-277" font-family="Helvetica,sans-Serif" font-size="10.00">::GetInstance</text>
</a>
</g>
</g>
<!-- Node5&#45;&gt;Node14 -->
<g id="edge11_Node000005_Node000014" class="edge">
<title>Node5&#45;&gt;Node14</title>
<g id="a_edge11_Node000005_Node000014"><a xlink:title=" ">
<path fill="none" stroke="#63b8ff" d="M489.98,-286.5C508.68,-286.5 529.06,-286.5 547.91,-286.5"/>
<polygon fill="#63b8ff" stroke="#63b8ff" points="547.91,-290 557.91,-286.5 547.91,-283 547.91,-290"/>
</a>
</g>
</g>
<!-- Node16 -->
<g id="Node000016" class="node">
<title>Node16</title>
<g id="a_Node000016"><a xlink:href="classMessageHandler.html#afa8afa05bb7b07783162bf420a91ac92" target="_top" xlink:title="Gets the singleton instance of the MessageHandler.">
<polygon fill="#fff0f0" stroke="red" points="692.12,-253.75 543.38,-253.75 543.38,-235.25 692.12,-235.25 692.12,-253.75"/>
<text text-anchor="middle" x="617.75" y="-240.25" font-family="Helvetica,sans-Serif" font-size="10.00">MessageHandler::GetInstance</text>
</a>
</g>
</g>
<!-- Node5&#45;&gt;Node16 -->
<g id="edge12_Node000005_Node000016" class="edge">
<title>Node5&#45;&gt;Node16</title>
<g id="a_edge12_Node000005_Node000016"><a xlink:title=" ">
<path fill="none" stroke="#63b8ff" d="M468.61,-276.76C496.24,-270.74 531.91,-262.98 561.32,-256.57"/>
<polygon fill="#63b8ff" stroke="#63b8ff" points="561.75,-260.06 570.78,-254.51 560.26,-253.22 561.75,-260.06"/>
</a>
</g>
</g>
<!-- Node18 -->
<g id="Node000018" class="node">
<title>Node18</title>
<g id="a_Node000018"><a xlink:href="classTranslationManager.html#a370292d4133519fccf401a6b27b2f6a6" target="_top" xlink:title="Returns an instance of the TranslationManager singleton.">
<polygon fill="#fff0f0" stroke="red" points="668.12,-217 567.38,-217 567.38,-188 668.12,-188 668.12,-217"/>
<text text-anchor="start" x="575.38" y="-203.5" font-family="Helvetica,sans-Serif" font-size="10.00">TranslationManager</text>
<text text-anchor="middle" x="617.75" y="-193" font-family="Helvetica,sans-Serif" font-size="10.00">::GetInstance</text>
</a>
</g>
</g>
<!-- Node5&#45;&gt;Node18 -->
<g id="edge13_Node000005_Node000018" class="edge">
<title>Node5&#45;&gt;Node18</title>
<g id="a_edge13_Node000005_Node000018"><a xlink:title=" ">
<path fill="none" stroke="#63b8ff" d="M438.92,-276.84C459.53,-263.93 498.01,-241.02 533.25,-226.5 540.55,-223.49 548.35,-220.71 556.15,-218.19"/>
<polygon fill="#63b8ff" stroke="#63b8ff" points="557.15,-221.55 565.67,-215.25 555.09,-214.86 557.15,-221.55"/>
</a>
</g>
</g>
<!-- Node20 -->
<g id="Node000020" class="node">
<title>Node20</title>
<g id="a_Node000020"><a xlink:href="classWavelengthRegistry.html#a84a25c38915431306681e96df429f20f" target="_top" xlink:title="Gets the singleton instance of the WavelengthRegistry.">
<polygon fill="#fff0f0" stroke="red" points="669.25,-170 566.25,-170 566.25,-141 669.25,-141 669.25,-170"/>
<text text-anchor="start" x="574.25" y="-156.5" font-family="Helvetica,sans-Serif" font-size="10.00">WavelengthRegistry</text>
<text text-anchor="middle" x="617.75" y="-146" font-family="Helvetica,sans-Serif" font-size="10.00">::GetInstance</text>
</a>
</g>
</g>
<!-- Node5&#45;&gt;Node20 -->
<g id="edge14_Node000005_Node000020" class="edge">
<title>Node5&#45;&gt;Node20</title>
<g id="a_edge14_Node000005_Node000020"><a xlink:title=" ">
<path fill="none" stroke="#63b8ff" d="M430.93,-276.9C446.81,-256 487.56,-206.09 533.25,-179.5 540.07,-175.53 547.6,-172.18 555.25,-169.36"/>
<polygon fill="#63b8ff" stroke="#63b8ff" points="556.29,-172.7 564.66,-166.2 554.06,-166.07 556.29,-172.7"/>
</a>
</g>
</g>
<!-- Node22 -->
<g id="Node000022" class="node">
<title>Node22</title>
<g id="a_Node000022"><a xlink:href="classMessageService.html#a4635fcf151d68e3cd873b2d7590c7efc" target="_top" xlink:title="Emitted during file processing and sending to update the status display.">
<polygon fill="white" stroke="#666666" points="684.25,-123 551.25,-123 551.25,-94 684.25,-94 684.25,-123"/>
<text text-anchor="start" x="559.25" y="-109.5" font-family="Helvetica,sans-Serif" font-size="10.00">MessageService::progress</text>
<text text-anchor="middle" x="617.75" y="-99" font-family="Helvetica,sans-Serif" font-size="10.00">MessageUpdated</text>
</a>
</g>
</g>
<!-- Node5&#45;&gt;Node22 -->
<g id="edge15_Node000005_Node000022" class="edge">
<title>Node5&#45;&gt;Node22</title>
<g id="a_edge15_Node000005_Node000022"><a xlink:title=" ">
<path fill="none" stroke="#63b8ff" d="M427.93,-276.84C439.82,-249.7 477.33,-172.13 533.25,-132.5 535.62,-130.82 538.1,-129.26 540.67,-127.81"/>
<polygon fill="#63b8ff" stroke="#63b8ff" points="542.18,-130.97 549.59,-123.39 539.07,-124.69 542.18,-130.97"/>
</a>
</g>
</g>
<!-- Node23 -->
<g id="Node000023" class="node">
<title>Node23</title>
<g id="a_Node000023"><a xlink:href="classMessageService.html#aabe00ddfe3f0fb4bcdae08fd977ecc6f" target="_top" xlink:title="Internal signal emitted by the background file processing task when the JSON message is ready to be s...">
<polygon fill="white" stroke="#666666" points="686.5,-76 549,-76 549,-47 686.5,-47 686.5,-76"/>
<text text-anchor="start" x="557" y="-62.5" font-family="Helvetica,sans-Serif" font-size="10.00">MessageService::sendJson</text>
<text text-anchor="middle" x="617.75" y="-52" font-family="Helvetica,sans-Serif" font-size="10.00">ViaSocket</text>
</a>
</g>
</g>
<!-- Node5&#45;&gt;Node23 -->
<g id="edge16_Node000005_Node000023" class="edge">
<title>Node5&#45;&gt;Node23</title>
<g id="a_edge16_Node000005_Node000023"><a xlink:title=" ">
<path fill="none" stroke="#63b8ff" d="M426.27,-276.8C434.76,-244.39 466.63,-138.95 533.25,-85.5 535.01,-84.08 536.86,-82.75 538.77,-81.5"/>
<polygon fill="#63b8ff" stroke="#63b8ff" points="540.46,-84.56 547.46,-76.6 537.03,-78.46 540.46,-84.56"/>
</a>
</g>
</g>
<!-- Node24 -->
<g id="Node000024" class="node">
<title>Node24</title>
<g id="a_Node000024"><a xlink:href="classTranslationManager.html#ab6435893ce84a82ab11a7604aa9746d6" target="_top" xlink:title="Retrieves the translated string for the specified key.">
<polygon fill="white" stroke="#666666" points="668.12,-29 567.38,-29 567.38,0 668.12,0 668.12,-29"/>
<text text-anchor="start" x="575.38" y="-15.5" font-family="Helvetica,sans-Serif" font-size="10.00">TranslationManager</text>
<text text-anchor="middle" x="617.75" y="-5" font-family="Helvetica,sans-Serif" font-size="10.00">::Translate</text>
</a>
</g>
</g>
<!-- Node5&#45;&gt;Node24 -->
<g id="edge17_Node000005_Node000024" class="edge">
<title>Node5&#45;&gt;Node24</title>
<g id="a_edge17_Node000005_Node000024"><a xlink:title=" ">
<path fill="none" stroke="#63b8ff" d="M425.17,-276.96C430.65,-240.19 455.44,-106.43 533.25,-38.5 539.96,-32.64 548.02,-28.21 556.45,-24.86"/>
<polygon fill="#63b8ff" stroke="#63b8ff" points="557.49,-28.2 565.81,-21.65 555.22,-21.58 557.49,-28.2"/>
</a>
</g>
</g>
</g>
</svg>

<g id="navigator" transform="translate(0 0)" fill="#404254">
  <rect fill="#f2f5e9" fill-opacity="0.5" stroke="#606060" stroke-width=".5" x="0" y="0" width="60" height="60"/>
  <use id="zoomplus" xlink:href="#zoomPlus" x="17" y="9" onmousedown="handleZoom(evt,'in')"/>
  <use id="zoomminus" xlink:href="#zoomMin" x="42" y="9" onmousedown="handleZoom(evt,'out')"/>
  <use id="reset" xlink:href="#resetDef" x="30" y="36" onmousedown="handleReset()"/>
   <use id="arrowup" xlink:href="#arrowUp" x="0" y="0" onmousedown="handlePan(0,-1)"/>
  <use id="arrowright" xlink:href="#arrowRight" x="0" y="0" onmousedown="handlePan(1,0)"/>
  <use id="arrowdown" xlink:href="#arrowDown" x="0" y="0" onmousedown="handlePan(0,1)"/>
  <use id="arrowleft" xlink:href="#arrowLeft" x="0" y="0" onmousedown="handlePan(-1,0)"/>
</g>
<svg viewBox="0 0 15 15" width="100%" height="30px" preserveAspectRatio="xMaxYMin meet">
 <g id="arrow_out" transform="scale(0.3 0.3)">
  <a xlink:href="classShortcutManager_a4d014d550ca996c51abb06649f71a3fa_cgraph_org.svg" target="_base">
   <rect id="button" ry="5" rx="5" y="6" x="6" height="38" width="38"
        fill="#f2f5e9" fill-opacity="0.5" stroke="#606060" stroke-width="1.0"/>
   <path id="arrow"
     d="M 11.500037,31.436501 C 11.940474,20.09759 22.043105,11.32322 32.158766,21.979434 L 37.068811,17.246167 C 37.068811,17.246167 37.088388,32 37.088388,32 L 22.160133,31.978069 C 22.160133,31.978069 26.997745,27.140456 26.997745,27.140456 C 18.528582,18.264221 13.291696,25.230495 11.500037,31.436501 z"
     style="fill:#404040;"/>
  </a>
 </g>
</svg>

<style type='text/css'>
<![CDATA[
[data-mouse-over-selected='false'] { opacity: 0.7; }
[data-mouse-over-selected='true']  { opacity: 1.0; }
]]>
</style>
<script type="application/ecmascript"><![CDATA[
document.addEventListener('DOMContentLoaded', (event) => {
  highlightEdges();
  highlightAdjacentNodes();
});
]]></script>
</svg>
