<?xml version="1.0" encoding="UTF-8" standalone="no"?>
<!DOCTYPE svg PUBLIC "-//W3C//DTD SVG 1.1//EN"
 "http://www.w3.org/Graphics/SVG/1.1/DTD/svg11.dtd">
<!-- Generated by graphviz version 12.2.1 (0)
 -->
<!-- Title: ShortcutManager::GetInstance Pages: 1 -->
<svg width="654pt" height="74pt"
 viewBox="0.00 0.00 654.00 73.75" xmlns="http://www.w3.org/2000/svg" xmlns:xlink="http://www.w3.org/1999/xlink">
<g id="graph0" class="graph" transform="scale(1 1) rotate(0) translate(4 69.75)">
<title>ShortcutManager::GetInstance</title>
<!-- Node1 -->
<g id="Node000001" class="node">
<title>Node1</title>
<g id="a_Node000001"><a xlink:title="Gets the singleton instance of the ShortcutManager.">
<polygon fill="#999999" stroke="#666666" points="646,-44.75 495.75,-44.75 495.75,-26.25 646,-26.25 646,-44.75"/>
<text text-anchor="middle" x="570.88" y="-31.25" font-family="Helvetica,sans-Serif" font-size="10.00">ShortcutManager::GetInstance</text>
</a>
</g>
</g>
<!-- Node2 -->
<g id="Node000002" class="node">
<title>Node2</title>
<g id="a_Node000002"><a xlink:href="classSettingsView.html#a53de2b196fd35488e2fcb3efd091e04d" target="_top" xlink:title="Saves all current settings from the various tabs to the WavelengthConfig object and persists them....">
<polygon fill="white" stroke="#666666" points="459.75,-65.75 323,-65.75 323,-47.25 459.75,-47.25 459.75,-65.75"/>
<text text-anchor="middle" x="391.38" y="-52.25" font-family="Helvetica,sans-Serif" font-size="10.00">SettingsView::SaveSettings</text>
</a>
</g>
</g>
<!-- Node1&#45;&gt;Node2 -->
<g id="edge1_Node000001_Node000002" class="edge">
<title>Node1&#45;&gt;Node2</title>
<g id="a_edge1_Node000001_Node000002"><a xlink:title=" ">
<path fill="none" stroke="#63b8ff" d="M484.08,-45.65C476.06,-46.6 468.01,-47.55 460.19,-48.48"/>
<polygon fill="#63b8ff" stroke="#63b8ff" points="484.35,-49.14 493.87,-44.49 483.53,-42.19 484.35,-49.14"/>
</a>
</g>
</g>
<!-- Node5 -->
<g id="Node000005" class="node">
<title>Node5</title>
<g id="a_Node000005"><a xlink:href="classShortcutManager.html#ae16dd7050cee1d6d2eeae7422cba04aa" target="_top" xlink:title="Private constructor to enforce the singleton pattern. Initializes the pointer to the WavelengthConfig...">
<polygon fill="white" stroke="#666666" points="458.62,-29 324.12,-29 324.12,0 458.62,0 458.62,-29"/>
<text text-anchor="start" x="332.12" y="-15.5" font-family="Helvetica,sans-Serif" font-size="10.00">ShortcutManager::Shortcut</text>
<text text-anchor="middle" x="391.38" y="-5" font-family="Helvetica,sans-Serif" font-size="10.00">Manager</text>
</a>
</g>
</g>
<!-- Node1&#45;&gt;Node5 -->
<g id="edge4_Node000001_Node000005" class="edge">
<title>Node1&#45;&gt;Node5</title>
<g id="a_edge4_Node000001_Node000005"><a xlink:title=" ">
<path fill="none" stroke="#63b8ff" d="M484,-25.34C475.62,-24.35 467.21,-23.35 459.06,-22.39"/>
<polygon fill="#63b8ff" stroke="#63b8ff" points="483.53,-28.81 493.87,-26.51 484.35,-21.86 483.53,-28.81"/>
</a>
</g>
</g>
<!-- Node3 -->
<g id="Node000003" class="node">
<title>Node3</title>
<g id="a_Node000003"><a xlink:href="classSettingsView.html#a88aeaa2ebb222180310ba66f0dba95d5" target="_top" xlink:title="Creates and arranges the main UI elements of the SettingsView. Sets up the main layout,...">
<polygon fill="white" stroke="#666666" points="287,-65.75 172.75,-65.75 172.75,-47.25 287,-47.25 287,-65.75"/>
<text text-anchor="middle" x="229.88" y="-52.25" font-family="Helvetica,sans-Serif" font-size="10.00">SettingsView::SetupUi</text>
</a>
</g>
</g>
<!-- Node2&#45;&gt;Node3 -->
<g id="edge2_Node000002_Node000003" class="edge">
<title>Node2&#45;&gt;Node3</title>
<g id="a_edge2_Node000002_Node000003"><a xlink:title=" ">
<path fill="none" stroke="#63b8ff" d="M311.23,-56.5C303.07,-56.5 294.9,-56.5 287.06,-56.5"/>
<polygon fill="#63b8ff" stroke="#63b8ff" points="311.22,-60 321.22,-56.5 311.22,-53 311.22,-60"/>
</a>
</g>
</g>
<!-- Node4 -->
<g id="Node000004" class="node">
<title>Node4</title>
<g id="a_Node000004"><a xlink:href="classSettingsView.html#a4b22f39018ca1c051b4d88f6d2636683" target="_top" xlink:title="Constructs the SettingsView. Initializes the UI, sets up all tabs including the security layers for t...">
<polygon fill="white" stroke="#666666" points="136.75,-65.75 0,-65.75 0,-47.25 136.75,-47.25 136.75,-65.75"/>
<text text-anchor="middle" x="68.38" y="-52.25" font-family="Helvetica,sans-Serif" font-size="10.00">SettingsView::SettingsView</text>
</a>
</g>
</g>
<!-- Node3&#45;&gt;Node4 -->
<g id="edge3_Node000003_Node000004" class="edge">
<title>Node3&#45;&gt;Node4</title>
<g id="a_edge3_Node000003_Node000004"><a xlink:title=" ">
<path fill="none" stroke="#63b8ff" d="M161.15,-56.5C153.2,-56.5 145.08,-56.5 137.13,-56.5"/>
<polygon fill="#63b8ff" stroke="#63b8ff" points="161.13,-60 171.13,-56.5 161.13,-53 161.13,-60"/>
</a>
</g>
</g>
</g>
</svg>
