<?xml version="1.0" encoding="UTF-8" standalone="no"?>
<!DOCTYPE svg PUBLIC "-//W3C//DTD SVG 1.1//EN"
 "http://www.w3.org/Graphics/SVG/1.1/DTD/svg11.dtd">
<!-- Generated by graphviz version 12.2.1 (0)
 -->
<!-- Title: AppInstanceManager::Start Pages: 1 -->
<!--zoomable 248 -->

<svg id="main" version="1.1" xmlns="http://www.w3.org/2000/svg" xmlns:xlink="http://www.w3.org/1999/xlink" xml:space="preserve" onload="init(evt)">

<style type="text/css"><![CDATA[
.node, .edge {opacity: 0.7;}
.node.selected, .edge.selected {opacity: 1;}
.edge:hover path { stroke: red; }
.edge:hover polygon { stroke: red; fill: red; }
]]></style>

<defs>
  <circle id="rim" cx="0" cy="0" r="7"/>
  <circle id="rim2" cx="0" cy="0" r="3.5"/>
  <g id="zoomPlus">
    <use xlink:href="#rim" fill="#404040"><set attributeName="fill" to="#808080" begin="zoomplus.mouseover" end="zoomplus.mouseout"/></use>
    <path d="M-4,0h8M0,-4v8" fill="none" stroke="white" stroke-width="1.5" pointer-events="none"/>
  </g>
  <g id="zoomMin">
    <use xlink:href="#rim" fill="#404040"><set attributeName="fill" to="#808080" begin="zoomminus.mouseover" end="zoomminus.mouseout"/></use>
    <path d="M-4,0h8" fill="none" stroke="white" stroke-width="1.5" pointer-events="none"/>
  </g>
  <g id="arrowUp" transform="translate(30 24)">
    <use xlink:href="#rim"/>
    <path pointer-events="none" fill="none" stroke="white" stroke-width="1.5" d="M0,-3.0v7 M-2.5,-0.5L0,-3.0L2.5,-0.5"/>
  </g>
  <g id="arrowRight" transform="rotate(90) translate(36 -43)">
    <use xlink:href="#rim"/>
    <path pointer-events="none" fill="none" stroke="white" stroke-width="1.5" d="M0,-3.0v7 M-2.5,-0.5L0,-3.0L2.5,-0.5"/>
  </g>
  <g id="arrowDown" transform="rotate(180) translate(-30 -48)">
    <use xlink:href="#rim"/>
    <path pointer-events="none" fill="none" stroke="white" stroke-width="1.5" d="M0,-3.0v7 M-2.5,-0.5L0,-3.0L2.5,-0.5"/>
  </g>
  <g id="arrowLeft" transform="rotate(270) translate(-36 17)">
    <use xlink:href="#rim"/>
    <path pointer-events="none" fill="none" stroke="white" stroke-width="1.5" d="M0,-3.0v7 M-2.5,-0.5L0,-3.0L2.5,-0.5"/>
  </g>
  <g id="resetDef">
    <use xlink:href="#rim2" fill="#404040"><set attributeName="fill" to="#808080" begin="reset.mouseover" end="reset.mouseout"/></use>
  </g>
</defs>
<script type="application/ecmascript">
var viewWidth = 584;
var viewHeight = 248;
var sectionId = 'dynsection-28';
</script>
<script type="application/ecmascript" xlink:href="svg.min.js"/>
<svg id="graph" class="graph">
<g id="viewport">
<title>AppInstanceManager::Start</title>
<!-- Node1 -->
<g id="Node000001" class="node">
<title>Node1</title>
<g id="a_Node000001"><a xlink:title="Starts the instance manager.">
<polygon fill="#999999" stroke="#666666" points="108.25,-131 0,-131 0,-102 108.25,-102 108.25,-131"/>
<text text-anchor="start" x="8" y="-117.5" font-family="Helvetica,sans-Serif" font-size="10.00">AppInstanceManager</text>
<text text-anchor="middle" x="54.12" y="-107" font-family="Helvetica,sans-Serif" font-size="10.00">::Start</text>
</a>
</g>
</g>
<!-- Node2 -->
<g id="Node000002" class="node">
<title>Node2</title>
<g id="a_Node000002"><a xlink:href="classAppInstanceManager.html#a6aa626dd1ea5e5c57860d532bdb85d5e" target="_top" xlink:title="Establishes a connection to the server instance for a client instance.">
<polygon fill="white" stroke="#666666" points="252.5,-193 144.25,-193 144.25,-164 252.5,-164 252.5,-193"/>
<text text-anchor="start" x="152.25" y="-179.5" font-family="Helvetica,sans-Serif" font-size="10.00">AppInstanceManager</text>
<text text-anchor="middle" x="198.38" y="-169" font-family="Helvetica,sans-Serif" font-size="10.00">::ConnectToServer</text>
</a>
</g>
</g>
<!-- Node1&#45;&gt;Node2 -->
<g id="edge1_Node000001_Node000002" class="edge">
<title>Node1&#45;&gt;Node2</title>
<g id="a_edge1_Node000001_Node000002"><a xlink:title=" ">
<path fill="none" stroke="#63b8ff" d="M89.2,-131.35C108.24,-139.65 132.19,-150.09 152.71,-159.03"/>
<polygon fill="#63b8ff" stroke="#63b8ff" points="151.13,-162.16 161.7,-162.95 153.93,-155.75 151.13,-162.16"/>
</a>
</g>
</g>
<!-- Node5 -->
<g id="Node000005" class="node">
<title>Node5</title>
<g id="a_Node000005"><a xlink:href="classAppInstanceManager.html#acb57c2842c3eff0de2fe0c4009f8cdcb" target="_top" xlink:title="Statically checks if another instance of the application is already running.">
<polygon fill="white" stroke="#666666" points="575.5,-176 438,-176 438,-147 575.5,-147 575.5,-176"/>
<text text-anchor="start" x="446" y="-162.5" font-family="Helvetica,sans-Serif" font-size="10.00">AppInstanceManager</text>
<text text-anchor="middle" x="506.75" y="-152" font-family="Helvetica,sans-Serif" font-size="10.00">::IsAnotherInstanceRunning</text>
</a>
</g>
</g>
<!-- Node1&#45;&gt;Node5 -->
<g id="edge11_Node000001_Node000005" class="edge">
<title>Node1&#45;&gt;Node5</title>
<g id="a_edge11_Node000001_Node000005"><a xlink:title=" ">
<path fill="none" stroke="#63b8ff" d="M108.59,-121.84C187.29,-129.7 334.85,-144.43 426.27,-153.56"/>
<polygon fill="#63b8ff" stroke="#63b8ff" points="425.87,-157.04 436.17,-154.55 426.57,-150.08 425.87,-157.04"/>
</a>
</g>
</g>
<!-- Node6 -->
<g id="Node000006" class="node">
<title>Node6</title>
<g id="a_Node000006"><a xlink:href="classAppInstanceManager.html#af09b098118800e025bcdce635b382ddd" target="_top" xlink:title="Sets up the QLocalServer for the creator instance.">
<polygon fill="#fff0f0" stroke="red" points="560.88,-120 452.62,-120 452.62,-91 560.88,-91 560.88,-120"/>
<text text-anchor="start" x="460.62" y="-106.5" font-family="Helvetica,sans-Serif" font-size="10.00">AppInstanceManager</text>
<text text-anchor="middle" x="506.75" y="-96" font-family="Helvetica,sans-Serif" font-size="10.00">::SetupServer</text>
</a>
</g>
</g>
<!-- Node1&#45;&gt;Node6 -->
<g id="edge12_Node000001_Node000006" class="edge">
<title>Node1&#45;&gt;Node6</title>
<g id="a_edge12_Node000001_Node000006"><a xlink:title=" ">
<path fill="none" stroke="#63b8ff" d="M108.59,-115.19C191.67,-113.17 351.52,-109.26 441.01,-107.08"/>
<polygon fill="#63b8ff" stroke="#63b8ff" points="440.93,-110.58 450.84,-106.84 440.76,-103.59 440.93,-110.58"/>
</a>
</g>
</g>
<!-- Node13 -->
<g id="Node000013" class="node">
<title>Node13</title>
<g id="a_Node000013"><a xlink:href="classAppInstanceManager.html#a0f209265d9df4a82fc23ccd0ba99dd82" target="_top" xlink:title="Initializes and starts the background thread responsible for attraction logic.">
<polygon fill="white" stroke="#666666" points="252.5,-69 144.25,-69 144.25,-40 252.5,-40 252.5,-69"/>
<text text-anchor="start" x="152.25" y="-55.5" font-family="Helvetica,sans-Serif" font-size="10.00">AppInstanceManager</text>
<text text-anchor="middle" x="198.38" y="-45" font-family="Helvetica,sans-Serif" font-size="10.00">::InitAttractionThread</text>
</a>
</g>
</g>
<!-- Node1&#45;&gt;Node13 -->
<g id="edge7_Node000001_Node000013" class="edge">
<title>Node1&#45;&gt;Node13</title>
<g id="a_edge7_Node000001_Node000013"><a xlink:title=" ">
<path fill="none" stroke="#63b8ff" d="M89.2,-101.65C108.24,-93.35 132.19,-82.91 152.71,-73.97"/>
<polygon fill="#63b8ff" stroke="#63b8ff" points="153.93,-77.25 161.7,-70.05 151.13,-70.84 153.93,-77.25"/>
</a>
</g>
</g>
<!-- Node3 -->
<g id="Node000003" class="node">
<title>Node3</title>
<g id="a_Node000003"><a xlink:href="classAppInstanceManager.html#a8087ee7ea64e087b39c66048becc8574" target="_top" xlink:title="Slot called when a connected socket disconnects. Handles cleanup and potential role change (the clien...">
<polygon fill="white" stroke="#666666" points="399.38,-240 291.12,-240 291.12,-211 399.38,-211 399.38,-240"/>
<text text-anchor="start" x="299.12" y="-226.5" font-family="Helvetica,sans-Serif" font-size="10.00">AppInstanceManager</text>
<text text-anchor="middle" x="345.25" y="-216" font-family="Helvetica,sans-Serif" font-size="10.00">::clientDisconnected</text>
</a>
</g>
</g>
<!-- Node2&#45;&gt;Node3 -->
<g id="edge2_Node000002_Node000003" class="edge">
<title>Node2&#45;&gt;Node3</title>
<g id="a_edge2_Node000002_Node000003"><a xlink:title=" ">
<path fill="none" stroke="#63b8ff" d="M245.21,-193.37C258.69,-197.74 273.59,-202.58 287.66,-207.14"/>
<polygon fill="#63b8ff" stroke="#63b8ff" points="286.18,-210.34 296.77,-210.1 288.34,-203.68 286.18,-210.34"/>
</a>
</g>
</g>
<!-- Node8 -->
<g id="Node000008" class="node">
<title>Node8</title>
<g id="a_Node000008"><a xlink:href="classAppInstanceManager.html#ab7fe0e77dca903fa23d78139dd68e84b" target="_top" xlink:title="Slot called when data can be read from a connected socket.">
<polygon fill="#fff0f0" stroke="red" points="399.38,-193 291.12,-193 291.12,-164 399.38,-164 399.38,-193"/>
<text text-anchor="start" x="299.12" y="-179.5" font-family="Helvetica,sans-Serif" font-size="10.00">AppInstanceManager</text>
<text text-anchor="middle" x="345.25" y="-169" font-family="Helvetica,sans-Serif" font-size="10.00">::readData</text>
</a>
</g>
</g>
<!-- Node2&#45;&gt;Node8 -->
<g id="edge6_Node000002_Node000008" class="edge">
<title>Node2&#45;&gt;Node8</title>
<g id="a_edge6_Node000002_Node000008"><a xlink:title=" ">
<path fill="none" stroke="#63b8ff" d="M252.91,-178.5C261.64,-178.5 270.76,-178.5 279.72,-178.5"/>
<polygon fill="#63b8ff" stroke="#63b8ff" points="279.42,-182 289.42,-178.5 279.42,-175 279.42,-182"/>
</a>
</g>
</g>
<!-- Node4 -->
<g id="Node000004" class="node">
<title>Node4</title>
<g id="a_Node000004"><a xlink:href="classAppInstanceManager.html#a1ac17dc2cb4f3ae1f968109a180acd2e" target="_top" xlink:title="Emitted when a client instance disconnects (on the server) or when the connection to the server is lo...">
<polygon fill="white" stroke="#666666" points="566.12,-240 447.38,-240 447.38,-211 566.12,-211 566.12,-240"/>
<text text-anchor="start" x="455.38" y="-226.5" font-family="Helvetica,sans-Serif" font-size="10.00">AppInstanceManager</text>
<text text-anchor="middle" x="506.75" y="-216" font-family="Helvetica,sans-Serif" font-size="10.00">::instanceDisconnected</text>
</a>
</g>
</g>
<!-- Node3&#45;&gt;Node4 -->
<g id="edge3_Node000003_Node000004" class="edge">
<title>Node3&#45;&gt;Node4</title>
<g id="a_edge3_Node000003_Node000004"><a xlink:title=" ">
<path fill="none" stroke="#63b8ff" d="M399.8,-225.5C411.33,-225.5 423.67,-225.5 435.71,-225.5"/>
<polygon fill="#63b8ff" stroke="#63b8ff" points="435.62,-229 445.62,-225.5 435.62,-222 435.62,-229"/>
</a>
</g>
</g>
<!-- Node3&#45;&gt;Node5 -->
<g id="edge4_Node000003_Node000005" class="edge">
<title>Node3&#45;&gt;Node5</title>
<g id="a_edge4_Node000003_Node000005"><a xlink:title=" ">
<path fill="none" stroke="#63b8ff" d="M383.24,-210.66C405.43,-201.75 433.88,-190.34 457.78,-180.75"/>
<polygon fill="#63b8ff" stroke="#63b8ff" points="459.02,-184.02 467,-177.05 456.42,-177.52 459.02,-184.02"/>
</a>
</g>
</g>
<!-- Node3&#45;&gt;Node6 -->
<g id="edge5_Node000003_Node000006" class="edge">
<title>Node3&#45;&gt;Node6</title>
<g id="a_edge5_Node000003_Node000006"><a xlink:title=" ">
<path fill="none" stroke="#63b8ff" d="M390.53,-210.59C394.64,-208.24 398.55,-205.55 402,-202.5 426.43,-180.86 414.25,-160.88 438,-138.5 443.06,-133.73 448.94,-129.52 455.08,-125.84"/>
<polygon fill="#63b8ff" stroke="#63b8ff" points="456.44,-129.08 463.54,-121.22 453.09,-122.94 456.44,-129.08"/>
</a>
</g>
</g>
<!-- Node14 -->
<g id="Node000014" class="node">
<title>Node14</title>
<g id="a_Node000014"><a xlink:href="classAppInstanceManager.html#a46740893551d1b7e70d184740d0f5fee" target="_top" xlink:title="Applies a force to the client window, pulling it towards the target position (creator window).">
<polygon fill="white" stroke="#666666" points="402,-29 288.5,-29 288.5,0 402,0 402,-29"/>
<text text-anchor="start" x="296.5" y="-15.5" font-family="Helvetica,sans-Serif" font-size="10.00">AppInstanceManager</text>
<text text-anchor="middle" x="345.25" y="-5" font-family="Helvetica,sans-Serif" font-size="10.00">::ApplyAttractionForce</text>
</a>
</g>
</g>
<!-- Node13&#45;&gt;Node14 -->
<g id="edge8_Node000013_Node000014" class="edge">
<title>Node13&#45;&gt;Node14</title>
<g id="a_edge8_Node000013_Node000014"><a xlink:title=" ">
<path fill="none" stroke="#63b8ff" d="M252.91,-39.72C261.41,-37.37 270.29,-34.92 279.02,-32.51"/>
<polygon fill="#63b8ff" stroke="#63b8ff" points="279.8,-35.93 288.51,-29.89 277.94,-29.18 279.8,-35.93"/>
</a>
</g>
</g>
<!-- Node15 -->
<g id="Node000015" class="node">
<title>Node15</title>
<g id="a_Node000015"><a xlink:href="classAppInstanceManager.html#a47fb8c069b2b3e5e6a19304726d59feb" target="_top" xlink:title="Starts the animation sequence for absorbing a client instance. This involves moving the client window...">
<polygon fill="#fff0f0" stroke="red" points="574,-55 439.5,-55 439.5,-26 574,-26 574,-55"/>
<text text-anchor="start" x="447.5" y="-41.5" font-family="Helvetica,sans-Serif" font-size="10.00">AppInstanceManager</text>
<text text-anchor="middle" x="506.75" y="-31" font-family="Helvetica,sans-Serif" font-size="10.00">::StartAbsorptionAnimation</text>
</a>
</g>
</g>
<!-- Node13&#45;&gt;Node15 -->
<g id="edge10_Node000013_Node000015" class="edge">
<title>Node13&#45;&gt;Node15</title>
<g id="a_edge10_Node000013_Node000015"><a xlink:title=" ">
<path fill="none" stroke="#63b8ff" d="M252.74,-52.06C301.08,-49.85 372.9,-46.57 427.69,-44.07"/>
<polygon fill="#63b8ff" stroke="#63b8ff" points="427.76,-47.57 437.59,-43.61 427.44,-40.57 427.76,-47.57"/>
</a>
</g>
</g>
<!-- Node14&#45;&gt;Node15 -->
<g id="edge9_Node000014_Node000015" class="edge">
<title>Node14&#45;&gt;Node15</title>
<g id="a_edge9_Node000014_Node000015"><a xlink:title=" ">
<path fill="none" stroke="#63b8ff" d="M402.48,-23.67C410.72,-25.01 419.31,-26.41 427.88,-27.81"/>
<polygon fill="#63b8ff" stroke="#63b8ff" points="427.17,-31.24 437.61,-29.39 428.3,-24.33 427.17,-31.24"/>
</a>
</g>
</g>
</g>
</svg>

<g id="navigator" transform="translate(0 0)" fill="#404254">
  <rect fill="#f2f5e9" fill-opacity="0.5" stroke="#606060" stroke-width=".5" x="0" y="0" width="60" height="60"/>
  <use id="zoomplus" xlink:href="#zoomPlus" x="17" y="9" onmousedown="handleZoom(evt,'in')"/>
  <use id="zoomminus" xlink:href="#zoomMin" x="42" y="9" onmousedown="handleZoom(evt,'out')"/>
  <use id="reset" xlink:href="#resetDef" x="30" y="36" onmousedown="handleReset()"/>
   <use id="arrowup" xlink:href="#arrowUp" x="0" y="0" onmousedown="handlePan(0,-1)"/>
  <use id="arrowright" xlink:href="#arrowRight" x="0" y="0" onmousedown="handlePan(1,0)"/>
  <use id="arrowdown" xlink:href="#arrowDown" x="0" y="0" onmousedown="handlePan(0,1)"/>
  <use id="arrowleft" xlink:href="#arrowLeft" x="0" y="0" onmousedown="handlePan(-1,0)"/>
</g>
<svg viewBox="0 0 15 15" width="100%" height="30px" preserveAspectRatio="xMaxYMin meet">
 <g id="arrow_out" transform="scale(0.3 0.3)">
  <a xlink:href="classAppInstanceManager_a1ecdc08b00d9aae9d33976f8ce90d6f5_cgraph_org.svg" target="_base">
   <rect id="button" ry="5" rx="5" y="6" x="6" height="38" width="38"
        fill="#f2f5e9" fill-opacity="0.5" stroke="#606060" stroke-width="1.0"/>
   <path id="arrow"
     d="M 11.500037,31.436501 C 11.940474,20.09759 22.043105,11.32322 32.158766,21.979434 L 37.068811,17.246167 C 37.068811,17.246167 37.088388,32 37.088388,32 L 22.160133,31.978069 C 22.160133,31.978069 26.997745,27.140456 26.997745,27.140456 C 18.528582,18.264221 13.291696,25.230495 11.500037,31.436501 z"
     style="fill:#404040;"/>
  </a>
 </g>
</svg>

<style type='text/css'>
<![CDATA[
[data-mouse-over-selected='false'] { opacity: 0.7; }
[data-mouse-over-selected='true']  { opacity: 1.0; }
]]>
</style>
<script type="application/ecmascript"><![CDATA[
document.addEventListener('DOMContentLoaded', (event) => {
  highlightEdges();
  highlightAdjacentNodes();
});
]]></script>
</svg>
