<?xml version="1.0" encoding="UTF-8" standalone="no"?>
<!DOCTYPE svg PUBLIC "-//W3C//DTD SVG 1.1//EN"
 "http://www.w3.org/Graphics/SVG/1.1/DTD/svg11.dtd">
<!-- Generated by graphviz version 12.2.1 (0)
 -->
<!-- Title: ChatView::StopAudioOutput Pages: 1 -->
<svg width="843pt" height="64pt"
 viewBox="0.00 0.00 843.25 63.50" xmlns="http://www.w3.org/2000/svg" xmlns:xlink="http://www.w3.org/1999/xlink">
<g id="graph0" class="graph" transform="scale(1 1) rotate(0) translate(4 59.5)">
<title>ChatView::StopAudioOutput</title>
<!-- Node1 -->
<g id="Node000001" class="node">
<title>Node1</title>
<g id="a_Node000001"><a xlink:title="Stops audio playback. Resets the output device pointer.">
<polygon fill="#999999" stroke="#666666" points="835.25,-36.5 697,-36.5 697,-18 835.25,-18 835.25,-36.5"/>
<text text-anchor="middle" x="766.12" y="-23" font-family="Helvetica,sans-Serif" font-size="10.00">ChatView::StopAudioOutput</text>
</a>
</g>
</g>
<!-- Node2 -->
<g id="Node000002" class="node">
<title>Node2</title>
<g id="a_Node000002"><a xlink:href="classChatView.html#aabba720d117ae8d235dfc9b27d66881f" target="_top" xlink:title="Slot called when the remote user stops transmitting PTT. If the frequency matches and the state is Re...">
<polygon fill="white" stroke="#666666" points="661,-55.5 508.5,-55.5 508.5,-37 661,-37 661,-55.5"/>
<text text-anchor="middle" x="584.75" y="-42" font-family="Helvetica,sans-Serif" font-size="10.00">ChatView::OnPttStopReceiving</text>
</a>
</g>
</g>
<!-- Node1&#45;&gt;Node2 -->
<g id="edge1_Node000001_Node000002" class="edge">
<title>Node1&#45;&gt;Node2</title>
<g id="a_edge1_Node000001_Node000002"><a xlink:title=" ">
<path fill="none" stroke="#63b8ff" d="M685.12,-35.72C677.26,-36.56 669.29,-37.4 661.47,-38.23"/>
<polygon fill="#63b8ff" stroke="#63b8ff" points="685.46,-39.21 695.04,-34.67 684.73,-32.25 685.46,-39.21"/>
</a>
</g>
</g>
<!-- Node6 -->
<g id="Node000006" class="node">
<title>Node6</title>
<g id="a_Node000006"><a xlink:href="classChatView.html#a7fb02c0ac57330d91ab4afb26da50514" target="_top" xlink:title="Destructor. Stops audio input/output and cleans up audio resources.">
<polygon fill="white" stroke="#666666" points="641.12,-18.5 528.38,-18.5 528.38,0 641.12,0 641.12,-18.5"/>
<text text-anchor="middle" x="584.75" y="-5" font-family="Helvetica,sans-Serif" font-size="10.00">ChatView::~ChatView</text>
</a>
</g>
</g>
<!-- Node1&#45;&gt;Node6 -->
<g id="edge6_Node000001_Node000006" class="edge">
<title>Node1&#45;&gt;Node6</title>
<g id="a_edge6_Node000001_Node000006"><a xlink:title=" ">
<path fill="none" stroke="#63b8ff" d="M685.33,-19.24C670.54,-17.76 655.38,-16.24 641.5,-14.84"/>
<polygon fill="#63b8ff" stroke="#63b8ff" points="684.74,-22.7 695.04,-20.22 685.44,-15.74 684.74,-22.7"/>
</a>
</g>
</g>
<!-- Node3 -->
<g id="Node000003" class="node">
<title>Node3</title>
<g id="a_Node000003"><a xlink:href="classChatView.html#ad2db6f12afdba4b49ec7775b2d560ad3" target="_top" xlink:title="Constructs a WavelengthChatView. Initializes the UI elements (labels, message area,...">
<polygon fill="white" stroke="#666666" points="106.75,-54.5 0,-54.5 0,-36 106.75,-36 106.75,-54.5"/>
<text text-anchor="middle" x="53.38" y="-41" font-family="Helvetica,sans-Serif" font-size="10.00">ChatView::ChatView</text>
</a>
</g>
</g>
<!-- Node2&#45;&gt;Node3 -->
<g id="edge2_Node000002_Node000003" class="edge">
<title>Node2&#45;&gt;Node3</title>
<g id="a_edge2_Node000002_Node000003"><a xlink:title=" ">
<path fill="none" stroke="#63b8ff" d="M496.72,-46.09C385.92,-45.88 197.97,-45.52 106.92,-45.35"/>
<polygon fill="#63b8ff" stroke="#63b8ff" points="496.66,-49.59 506.67,-46.1 496.68,-42.59 496.66,-49.59"/>
</a>
</g>
</g>
<!-- Node4 -->
<g id="Node000004" class="node">
<title>Node4</title>
<g id="a_Node000004"><a xlink:href="classChatView.html#afb21e71849031ae941a3f44e9f697c39" target="_top" xlink:title="Starts audio playback if PTT state is Receiving. Prepares the audio output device to receive data.">
<polygon fill="white" stroke="#666666" points="472.5,-36.5 332.75,-36.5 332.75,-18 472.5,-18 472.5,-36.5"/>
<text text-anchor="middle" x="402.62" y="-23" font-family="Helvetica,sans-Serif" font-size="10.00">ChatView::StartAudioOutput</text>
</a>
</g>
</g>
<!-- Node2&#45;&gt;Node4 -->
<g id="edge3_Node000002_Node000004" class="edge">
<title>Node2&#45;&gt;Node4</title>
<g id="a_edge3_Node000002_Node000004"><a xlink:title=" ">
<path fill="none" stroke="#63b8ff" d="M496.78,-37.08C488.71,-36.22 480.6,-35.37 472.72,-34.54"/>
<polygon fill="#63b8ff" stroke="#63b8ff" points="496.33,-40.55 506.64,-38.12 497.06,-33.59 496.33,-40.55"/>
</a>
</g>
</g>
<!-- Node5 -->
<g id="Node000005" class="node">
<title>Node5</title>
<g id="a_Node000005"><a xlink:href="classChatView.html#aad17ec29d4babcf3177b49eea7c48065" target="_top" xlink:title="Slot called when another user starts transmitting PTT on the current Wavelength. If the state is Idle...">
<polygon fill="white" stroke="#666666" points="296.75,-36.5 142.75,-36.5 142.75,-18 296.75,-18 296.75,-36.5"/>
<text text-anchor="middle" x="219.75" y="-23" font-family="Helvetica,sans-Serif" font-size="10.00">ChatView::OnPttStartReceiving</text>
</a>
</g>
</g>
<!-- Node4&#45;&gt;Node5 -->
<g id="edge4_Node000004_Node000005" class="edge">
<title>Node4&#45;&gt;Node5</title>
<g id="a_edge4_Node000004_Node000005"><a xlink:title=" ">
<path fill="none" stroke="#63b8ff" d="M321.23,-27.25C313.21,-27.25 305.08,-27.25 297.1,-27.25"/>
<polygon fill="#63b8ff" stroke="#63b8ff" points="320.96,-30.75 330.96,-27.25 320.96,-23.75 320.96,-30.75"/>
</a>
</g>
</g>
<!-- Node5&#45;&gt;Node3 -->
<g id="edge5_Node000005_Node000003" class="edge">
<title>Node5&#45;&gt;Node3</title>
<g id="a_edge5_Node000005_Node000003"><a xlink:title=" ">
<path fill="none" stroke="#63b8ff" d="M131.16,-36.84C122.97,-37.74 114.86,-38.63 107.14,-39.47"/>
<polygon fill="#63b8ff" stroke="#63b8ff" points="131.27,-40.35 140.83,-35.78 130.51,-33.39 131.27,-40.35"/>
</a>
</g>
</g>
</g>
</svg>
