<?xml version="1.0" encoding="UTF-8" standalone="no"?>
<!DOCTYPE svg PUBLIC "-//W3C//DTD SVG 1.1//EN"
 "http://www.w3.org/Graphics/SVG/1.1/DTD/svg11.dtd">
<!-- Generated by graphviz version 12.2.1 (0)
 -->
<!-- Title: AudioDecoder Pages: 1 -->
<!--zoomable 663 -->

<svg id="main" version="1.1" xmlns="http://www.w3.org/2000/svg" xmlns:xlink="http://www.w3.org/1999/xlink" xml:space="preserve" onload="init(evt)">

<style type="text/css"><![CDATA[
.node, .edge {opacity: 0.7;}
.node.selected, .edge.selected {opacity: 1;}
.edge:hover path { stroke: red; }
.edge:hover polygon { stroke: red; fill: red; }
]]></style>

<defs>
  <circle id="rim" cx="0" cy="0" r="7"/>
  <circle id="rim2" cx="0" cy="0" r="3.5"/>
  <g id="zoomPlus">
    <use xlink:href="#rim" fill="#404040"><set attributeName="fill" to="#808080" begin="zoomplus.mouseover" end="zoomplus.mouseout"/></use>
    <path d="M-4,0h8M0,-4v8" fill="none" stroke="white" stroke-width="1.5" pointer-events="none"/>
  </g>
  <g id="zoomMin">
    <use xlink:href="#rim" fill="#404040"><set attributeName="fill" to="#808080" begin="zoomminus.mouseover" end="zoomminus.mouseout"/></use>
    <path d="M-4,0h8" fill="none" stroke="white" stroke-width="1.5" pointer-events="none"/>
  </g>
  <g id="arrowUp" transform="translate(30 24)">
    <use xlink:href="#rim"/>
    <path pointer-events="none" fill="none" stroke="white" stroke-width="1.5" d="M0,-3.0v7 M-2.5,-0.5L0,-3.0L2.5,-0.5"/>
  </g>
  <g id="arrowRight" transform="rotate(90) translate(36 -43)">
    <use xlink:href="#rim"/>
    <path pointer-events="none" fill="none" stroke="white" stroke-width="1.5" d="M0,-3.0v7 M-2.5,-0.5L0,-3.0L2.5,-0.5"/>
  </g>
  <g id="arrowDown" transform="rotate(180) translate(-30 -48)">
    <use xlink:href="#rim"/>
    <path pointer-events="none" fill="none" stroke="white" stroke-width="1.5" d="M0,-3.0v7 M-2.5,-0.5L0,-3.0L2.5,-0.5"/>
  </g>
  <g id="arrowLeft" transform="rotate(270) translate(-36 17)">
    <use xlink:href="#rim"/>
    <path pointer-events="none" fill="none" stroke="white" stroke-width="1.5" d="M0,-3.0v7 M-2.5,-0.5L0,-3.0L2.5,-0.5"/>
  </g>
  <g id="resetDef">
    <use xlink:href="#rim2" fill="#404040"><set attributeName="fill" to="#808080" begin="reset.mouseover" end="reset.mouseout"/></use>
  </g>
</defs>
<script type="application/ecmascript">
var viewWidth = 147;
var viewHeight = 663;
var sectionId = 'dynsection-0';
</script>
<script type="application/ecmascript" xlink:href="svg.min.js"/>
<svg id="graph" class="graph">
<g id="viewport">
<title>AudioDecoder</title>
<!-- Node1 -->
<g id="Node000001" class="node">
<title>Node1</title>
<g id="a_Node000001"><a xlink:title="Decodes and plays audio data using FFmpeg libraries in a separate thread.">
<polygon fill="#999999" stroke="none" points="138.75,-571.5 0,-571.5 0,0 138.75,0 138.75,-571.5"/>
<text text-anchor="start" x="38.62" y="-558" font-family="Helvetica,sans-Serif" font-size="10.00">AudioDecoder</text>
<text text-anchor="start" x="5.5" y="-543.5" font-family="Helvetica,sans-Serif" font-size="10.00">&#45;</text>
<text text-anchor="start" x="14" y="-543.5" font-family="Helvetica,sans-Serif" font-size="10.00">AVCodecContext * audio</text>
<text text-anchor="start" x="14" y="-533" font-family="Helvetica,sans-Serif" font-size="10.00">_codec_context_</text>
<text text-anchor="start" x="5.5" y="-518.5" font-family="Helvetica,sans-Serif" font-size="10.00">&#45;</text>
<text text-anchor="start" x="14" y="-518.5" font-family="Helvetica,sans-Serif" font-size="10.00">QByteArray audio_data_</text>
<text text-anchor="start" x="5.5" y="-504" font-family="Helvetica,sans-Serif" font-size="10.00">&#45;</text>
<text text-anchor="start" x="14" y="-504" font-family="Helvetica,sans-Serif" font-size="10.00">QIODevice * audio_device_</text>
<text text-anchor="start" x="5.5" y="-489.5" font-family="Helvetica,sans-Serif" font-size="10.00">&#45;</text>
<text text-anchor="start" x="14" y="-489.5" font-family="Helvetica,sans-Serif" font-size="10.00">QAudioFormat audio</text>
<text text-anchor="start" x="14" y="-479" font-family="Helvetica,sans-Serif" font-size="10.00">_format_</text>
<text text-anchor="start" x="5.5" y="-464.5" font-family="Helvetica,sans-Serif" font-size="10.00">&#45;</text>
<text text-anchor="start" x="14" y="-464.5" font-family="Helvetica,sans-Serif" font-size="10.00">AVFrame * audio_frame_</text>
<text text-anchor="start" x="5.5" y="-450" font-family="Helvetica,sans-Serif" font-size="10.00">&#45;</text>
<text text-anchor="start" x="14" y="-450" font-family="Helvetica,sans-Serif" font-size="10.00">QAudioOutput * audio</text>
<text text-anchor="start" x="14" y="-439.5" font-family="Helvetica,sans-Serif" font-size="10.00">_output_</text>
<text text-anchor="start" x="5.5" y="-425" font-family="Helvetica,sans-Serif" font-size="10.00">&#45;</text>
<text text-anchor="start" x="14" y="-425" font-family="Helvetica,sans-Serif" font-size="10.00">int audio_stream_</text>
<text text-anchor="start" x="5.5" y="-410.5" font-family="Helvetica,sans-Serif" font-size="10.00">&#45;</text>
<text text-anchor="start" x="14" y="-410.5" font-family="Helvetica,sans-Serif" font-size="10.00">double current_position_</text>
<text text-anchor="start" x="5.5" y="-396" font-family="Helvetica,sans-Serif" font-size="10.00">&#45;</text>
<text text-anchor="start" x="14" y="-396" font-family="Helvetica,sans-Serif" font-size="10.00">AVFormatContext * format</text>
<text text-anchor="start" x="14" y="-385.5" font-family="Helvetica,sans-Serif" font-size="10.00">_context_</text>
<text text-anchor="start" x="5.5" y="-371" font-family="Helvetica,sans-Serif" font-size="10.00">&#45;</text>
<text text-anchor="start" x="14" y="-371" font-family="Helvetica,sans-Serif" font-size="10.00">bool initialized_</text>
<text text-anchor="start" x="14" y="-356.5" font-family="Helvetica,sans-Serif" font-size="10.00">and 11 more...</text>
<text text-anchor="start" x="4" y="-342" font-family="Helvetica,sans-Serif" font-size="10.00">+</text>
<text text-anchor="start" x="14" y="-342" font-family="Helvetica,sans-Serif" font-size="10.00">AudioDecoder(const</text>
<text text-anchor="start" x="14" y="-331.5" font-family="Helvetica,sans-Serif" font-size="10.00"> QByteArray &amp;audio_data,</text>
<text text-anchor="start" x="14" y="-321" font-family="Helvetica,sans-Serif" font-size="10.00"> QObject *parent=nullptr)</text>
<text text-anchor="start" x="4" y="-306.5" font-family="Helvetica,sans-Serif" font-size="10.00">+</text>
<text text-anchor="start" x="14" y="-306.5" font-family="Helvetica,sans-Serif" font-size="10.00">float GetVolume() const</text>
<text text-anchor="start" x="4" y="-292" font-family="Helvetica,sans-Serif" font-size="10.00">+</text>
<text text-anchor="start" x="14" y="-292" font-family="Helvetica,sans-Serif" font-size="10.00">bool Initialize()</text>
<text text-anchor="start" x="4" y="-277.5" font-family="Helvetica,sans-Serif" font-size="10.00">+</text>
<text text-anchor="start" x="14" y="-277.5" font-family="Helvetica,sans-Serif" font-size="10.00">bool IsDecoderRunning</text>
<text text-anchor="start" x="14" y="-267" font-family="Helvetica,sans-Serif" font-size="10.00">() const</text>
<text text-anchor="start" x="4" y="-252.5" font-family="Helvetica,sans-Serif" font-size="10.00">+</text>
<text text-anchor="start" x="14" y="-252.5" font-family="Helvetica,sans-Serif" font-size="10.00">bool IsPaused() const</text>
<text text-anchor="start" x="4" y="-238" font-family="Helvetica,sans-Serif" font-size="10.00">+</text>
<text text-anchor="start" x="14" y="-238" font-family="Helvetica,sans-Serif" font-size="10.00">void Pause()</text>
<text text-anchor="start" x="4" y="-223.5" font-family="Helvetica,sans-Serif" font-size="10.00">+</text>
<text text-anchor="start" x="14" y="-223.5" font-family="Helvetica,sans-Serif" font-size="10.00">bool Reinitialize()</text>
<text text-anchor="start" x="4" y="-209" font-family="Helvetica,sans-Serif" font-size="10.00">+</text>
<text text-anchor="start" x="14" y="-209" font-family="Helvetica,sans-Serif" font-size="10.00">void ReleaseResources()</text>
<text text-anchor="start" x="4" y="-194.5" font-family="Helvetica,sans-Serif" font-size="10.00">+</text>
<text text-anchor="start" x="14" y="-194.5" font-family="Helvetica,sans-Serif" font-size="10.00">void Reset()</text>
<text text-anchor="start" x="4" y="-180" font-family="Helvetica,sans-Serif" font-size="10.00">+</text>
<text text-anchor="start" x="14" y="-180" font-family="Helvetica,sans-Serif" font-size="10.00">void Seek(double position)</text>
<text text-anchor="start" x="4" y="-165.5" font-family="Helvetica,sans-Serif" font-size="10.00">+</text>
<text text-anchor="start" x="14" y="-165.5" font-family="Helvetica,sans-Serif" font-size="10.00">void SetVolume(float</text>
<text text-anchor="start" x="14" y="-155" font-family="Helvetica,sans-Serif" font-size="10.00"> volume) const</text>
<text text-anchor="start" x="4" y="-140.5" font-family="Helvetica,sans-Serif" font-size="10.00">+</text>
<text text-anchor="start" x="14" y="-140.5" font-family="Helvetica,sans-Serif" font-size="10.00">void Stop()</text>
<text text-anchor="start" x="4" y="-126" font-family="Helvetica,sans-Serif" font-size="10.00">+</text>
<text text-anchor="start" x="14" y="-126" font-family="Helvetica,sans-Serif" font-size="10.00">~AudioDecoder() override</text>
<text text-anchor="start" x="4.38" y="-111.5" font-family="Helvetica,sans-Serif" font-size="10.00">#</text>
<text text-anchor="start" x="14" y="-111.5" font-family="Helvetica,sans-Serif" font-size="10.00">void DecodeAudioFrame</text>
<text text-anchor="start" x="14" y="-101" font-family="Helvetica,sans-Serif" font-size="10.00">(const AVFrame *audio</text>
<text text-anchor="start" x="14" y="-90.5" font-family="Helvetica,sans-Serif" font-size="10.00">_frame) const</text>
<text text-anchor="start" x="4.38" y="-76" font-family="Helvetica,sans-Serif" font-size="10.00">#</text>
<text text-anchor="start" x="14" y="-76" font-family="Helvetica,sans-Serif" font-size="10.00">void run() override</text>
<text text-anchor="start" x="5.5" y="-61.5" font-family="Helvetica,sans-Serif" font-size="10.00">&#45;</text>
<text text-anchor="start" x="14" y="-61.5" font-family="Helvetica,sans-Serif" font-size="10.00">static int ReadPacket</text>
<text text-anchor="start" x="14" y="-51" font-family="Helvetica,sans-Serif" font-size="10.00">(void *opaque, uint8</text>
<text text-anchor="start" x="14" y="-40.5" font-family="Helvetica,sans-Serif" font-size="10.00">_t *buf, int buf_size)</text>
<text text-anchor="start" x="5.5" y="-26" font-family="Helvetica,sans-Serif" font-size="10.00">&#45;</text>
<text text-anchor="start" x="14" y="-26" font-family="Helvetica,sans-Serif" font-size="10.00">static int64_t SeekPacket</text>
<text text-anchor="start" x="14" y="-15.5" font-family="Helvetica,sans-Serif" font-size="10.00">(void *opaque, int64_t</text>
<text text-anchor="start" x="14" y="-5" font-family="Helvetica,sans-Serif" font-size="10.00"> offset, int whence)</text>
<polygon fill="#666666" stroke="#666666" points="0,-555 0,-555 138.75,-555 138.75,-555 0,-555"/>
<polygon fill="#666666" stroke="#666666" points="0,-353.5 0,-353.5 12,-353.5 12,-353.5 0,-353.5"/>
<polygon fill="#666666" stroke="#666666" points="12,-353.5 12,-353.5 138.75,-353.5 138.75,-353.5 12,-353.5"/>
<polygon fill="none" stroke="#666666" points="0,0 0,-571.5 138.75,-571.5 138.75,0 0,0"/>
</a>
</g>
</g>
<!-- Node2 -->
<g id="Node000002" class="node">
<title>Node2</title>
<g id="a_Node000002"><a xlink:title=" ">
<polygon fill="white" stroke="none" points="92.12,-655 46.62,-655 46.62,-607.5 92.12,-607.5 92.12,-655"/>
<text text-anchor="start" x="50.62" y="-641.5" font-family="Helvetica,sans-Serif" font-size="10.00">QThread</text>
<text text-anchor="start" x="67.88" y="-627" font-family="Helvetica,sans-Serif" font-size="10.00"> </text>
<text text-anchor="start" x="67.88" y="-612.5" font-family="Helvetica,sans-Serif" font-size="10.00"> </text>
<polygon fill="#666666" stroke="#666666" points="46.62,-638.5 46.62,-638.5 92.12,-638.5 92.12,-638.5 46.62,-638.5"/>
<polygon fill="#666666" stroke="#666666" points="46.62,-624 46.62,-624 92.12,-624 92.12,-624 46.62,-624"/>
<polygon fill="none" stroke="#666666" points="46.62,-607.5 46.62,-655 92.12,-655 92.12,-607.5 46.62,-607.5"/>
</a>
</g>
</g>
<!-- Node2&#45;&gt;Node1 -->
<g id="edge1_Node000001_Node000002" class="edge">
<title>Node2&#45;&gt;Node1</title>
<g id="a_edge1_Node000001_Node000002"><a xlink:title=" ">
<path fill="none" stroke="#63b8ff" d="M69.38,-596.24C69.38,-588.85 69.38,-580.47 69.38,-571.32"/>
<polygon fill="none" stroke="#63b8ff" points="65.88,-596.2 69.38,-606.2 72.88,-596.2 65.88,-596.2"/>
</a>
</g>
</g>
</g>
</svg>

<g id="navigator" transform="translate(0 0)" fill="#404254">
  <rect fill="#f2f5e9" fill-opacity="0.5" stroke="#606060" stroke-width=".5" x="0" y="0" width="60" height="60"/>
  <use id="zoomplus" xlink:href="#zoomPlus" x="17" y="9" onmousedown="handleZoom(evt,'in')"/>
  <use id="zoomminus" xlink:href="#zoomMin" x="42" y="9" onmousedown="handleZoom(evt,'out')"/>
  <use id="reset" xlink:href="#resetDef" x="30" y="36" onmousedown="handleReset()"/>
   <use id="arrowup" xlink:href="#arrowUp" x="0" y="0" onmousedown="handlePan(0,-1)"/>
  <use id="arrowright" xlink:href="#arrowRight" x="0" y="0" onmousedown="handlePan(1,0)"/>
  <use id="arrowdown" xlink:href="#arrowDown" x="0" y="0" onmousedown="handlePan(0,1)"/>
  <use id="arrowleft" xlink:href="#arrowLeft" x="0" y="0" onmousedown="handlePan(-1,0)"/>
</g>
<svg viewBox="0 0 15 15" width="100%" height="30px" preserveAspectRatio="xMaxYMin meet">
 <g id="arrow_out" transform="scale(0.3 0.3)">
  <a xlink:href="classAudioDecoder__inherit__graph_org.svg" target="_base">
   <rect id="button" ry="5" rx="5" y="6" x="6" height="38" width="38"
        fill="#f2f5e9" fill-opacity="0.5" stroke="#606060" stroke-width="1.0"/>
   <path id="arrow"
     d="M 11.500037,31.436501 C 11.940474,20.09759 22.043105,11.32322 32.158766,21.979434 L 37.068811,17.246167 C 37.068811,17.246167 37.088388,32 37.088388,32 L 22.160133,31.978069 C 22.160133,31.978069 26.997745,27.140456 26.997745,27.140456 C 18.528582,18.264221 13.291696,25.230495 11.500037,31.436501 z"
     style="fill:#404040;"/>
  </a>
 </g>
</svg>

<style type='text/css'>
<![CDATA[
[data-mouse-over-selected='false'] { opacity: 0.7; }
[data-mouse-over-selected='true']  { opacity: 1.0; }
]]>
</style>
<script type="application/ecmascript"><![CDATA[
document.addEventListener('DOMContentLoaded', (event) => {
  highlightEdges();
  highlightAdjacentNodes();
});
]]></script>
</svg>
