<?xml version="1.0" encoding="UTF-8" standalone="no"?>
<!DOCTYPE svg PUBLIC "-//W3C//DTD SVG 1.1//EN"
 "http://www.w3.org/Graphics/SVG/1.1/DTD/svg11.dtd">
<!-- Generated by graphviz version 12.2.1 (0)
 -->
<!-- Title: MessageService::GetSocketForFrequency Pages: 1 -->
<svg width="1048pt" height="114pt"
 viewBox="0.00 0.00 1047.50 113.98" xmlns="http://www.w3.org/2000/svg" xmlns:xlink="http://www.w3.org/1999/xlink">
<g id="graph0" class="graph" transform="scale(1 1) rotate(0) translate(4 109.98)">
<title>MessageService::GetSocketForFrequency</title>
<!-- Node1 -->
<g id="Node000001" class="node">
<title>Node1</title>
<g id="a_Node000001"><a xlink:title="Helper function to retrieve the active WebSocket connection for a given frequency....">
<polygon fill="#999999" stroke="#666666" points="1039.5,-69.75 898.25,-69.75 898.25,-40.75 1039.5,-40.75 1039.5,-69.75"/>
<text text-anchor="start" x="906.25" y="-56.25" font-family="Helvetica,sans-Serif" font-size="10.00">MessageService::GetSocket</text>
<text text-anchor="middle" x="968.88" y="-45.75" font-family="Helvetica,sans-Serif" font-size="10.00">ForFrequency</text>
</a>
</g>
</g>
<!-- Node2 -->
<g id="Node000002" class="node">
<title>Node2</title>
<g id="a_Node000002"><a xlink:href="classMessageService.html#aa7fee176b576b103691c4fcc39aaac9e" target="_top" xlink:title="Sends raw audio data as a binary message for the specified frequency. Used for transmitting audio dur...">
<polygon fill="white" stroke="#666666" points="860.38,-101.5 697.38,-101.5 697.38,-83 860.38,-83 860.38,-101.5"/>
<text text-anchor="middle" x="778.88" y="-88" font-family="Helvetica,sans-Serif" font-size="10.00">MessageService::SendAudioData</text>
</a>
</g>
</g>
<!-- Node1&#45;&gt;Node2 -->
<g id="edge1_Node000001_Node000002" class="edge">
<title>Node1&#45;&gt;Node2</title>
<g id="a_edge1_Node000001_Node000002"><a xlink:title=" ">
<path fill="none" stroke="#63b8ff" d="M886.81,-71.21C867.28,-75.05 846.99,-79.04 829.4,-82.5"/>
<polygon fill="#63b8ff" stroke="#63b8ff" points="887.25,-74.68 896.39,-69.32 885.9,-67.82 887.25,-74.68"/>
</a>
</g>
</g>
<!-- Node3 -->
<g id="Node000003" class="node">
<title>Node3</title>
<g id="a_Node000003"><a xlink:href="classMessageService.html#a75fb7423ceb5f01542eb53c93c332df7" target="_top" xlink:title="Sends a Push&#45;to&#45;Talk (PTT) release message for the specified frequency. Constructs a JSON message of ...">
<polygon fill="white" stroke="#666666" points="861.88,-64.5 695.88,-64.5 695.88,-46 861.88,-46 861.88,-64.5"/>
<text text-anchor="middle" x="778.88" y="-51" font-family="Helvetica,sans-Serif" font-size="10.00">MessageService::SendPttRelease</text>
</a>
</g>
</g>
<!-- Node1&#45;&gt;Node3 -->
<g id="edge2_Node000001_Node000003" class="edge">
<title>Node1&#45;&gt;Node3</title>
<g id="a_edge2_Node000001_Node000003"><a xlink:title=" ">
<path fill="none" stroke="#63b8ff" d="M886.6,-55.25C878.55,-55.25 870.37,-55.25 862.31,-55.25"/>
<polygon fill="#63b8ff" stroke="#63b8ff" points="886.36,-58.75 896.36,-55.25 886.36,-51.75 886.36,-58.75"/>
</a>
</g>
</g>
<!-- Node9 -->
<g id="Node000009" class="node">
<title>Node9</title>
<g id="a_Node000009"><a xlink:href="classMessageService.html#a630325196d5dd1c14713691505301d74" target="_top" xlink:title="Sends a Push&#45;to&#45;Talk (PTT) request message for the specified frequency. Constructs a JSON message of ...">
<polygon fill="white" stroke="#666666" points="862.25,-18.5 695.5,-18.5 695.5,0 862.25,0 862.25,-18.5"/>
<text text-anchor="middle" x="778.88" y="-5" font-family="Helvetica,sans-Serif" font-size="10.00">MessageService::SendPttRequest</text>
</a>
</g>
</g>
<!-- Node1&#45;&gt;Node9 -->
<g id="edge10_Node000001_Node000009" class="edge">
<title>Node1&#45;&gt;Node9</title>
<g id="a_edge10_Node000001_Node000009"><a xlink:title=" ">
<path fill="none" stroke="#63b8ff" d="M895.66,-37.58C869.79,-31.25 841.58,-24.35 819.49,-18.94"/>
<polygon fill="#63b8ff" stroke="#63b8ff" points="894.56,-40.91 905.11,-39.89 896.23,-34.12 894.56,-40.91"/>
</a>
</g>
</g>
<!-- Node4 -->
<g id="Node000004" class="node">
<title>Node4</title>
<g id="a_Node000004"><a xlink:href="classChatView.html#ac40ec4de8eddc9ea4fc2d3e210aa6c4d" target="_top" xlink:title="Slot called when the PTT button is released. Plays the PTT deactivation sound. If transmitting,...">
<polygon fill="white" stroke="#666666" points="659.5,-74.5 501,-74.5 501,-56 659.5,-56 659.5,-74.5"/>
<text text-anchor="middle" x="580.25" y="-61" font-family="Helvetica,sans-Serif" font-size="10.00">ChatView::OnPttButtonReleased</text>
</a>
</g>
</g>
<!-- Node3&#45;&gt;Node4 -->
<g id="edge3_Node000003_Node000004" class="edge">
<title>Node3&#45;&gt;Node4</title>
<g id="a_edge3_Node000003_Node000004"><a xlink:title=" ">
<path fill="none" stroke="#63b8ff" d="M684.41,-60C676.14,-60.42 667.83,-60.85 659.71,-61.26"/>
<polygon fill="#63b8ff" stroke="#63b8ff" points="684.31,-63.51 694.12,-59.51 683.95,-56.52 684.31,-63.51"/>
</a>
</g>
</g>
<!-- Node5 -->
<g id="Node000005" class="node">
<title>Node5</title>
<g id="a_Node000005"><a xlink:href="classChatView.html#ad2db6f12afdba4b49ec7775b2d560ad3" target="_top" xlink:title="Constructs a WavelengthChatView. Initializes the UI elements (labels, message area,...">
<polygon fill="white" stroke="#666666" points="106.75,-74.5 0,-74.5 0,-56 106.75,-56 106.75,-74.5"/>
<text text-anchor="middle" x="53.38" y="-61" font-family="Helvetica,sans-Serif" font-size="10.00">ChatView::ChatView</text>
</a>
</g>
</g>
<!-- Node4&#45;&gt;Node5 -->
<g id="edge4_Node000004_Node000005" class="edge">
<title>Node4&#45;&gt;Node5</title>
<g id="a_edge4_Node000004_Node000005"><a xlink:title=" ">
<path fill="none" stroke="#63b8ff" d="M543.7,-78.73C521.45,-86.43 491.98,-95.32 465,-99.25 331.04,-118.76 170.73,-90.84 96.24,-74.96"/>
<polygon fill="#63b8ff" stroke="#63b8ff" points="544.64,-82.11 552.88,-75.46 542.29,-75.51 544.64,-82.11"/>
</a>
</g>
</g>
<!-- Node6 -->
<g id="Node000006" class="node">
<title>Node6</title>
<g id="a_Node000006"><a xlink:href="classChatView.html#ae1708fe2be43fe0f0bf4e000d968b385" target="_top" xlink:title="Slot called when the server grants the PTT request. If the frequency matches and the state is Request...">
<polygon fill="white" stroke="#666666" points="281.75,-74.5 157.75,-74.5 157.75,-56 281.75,-56 281.75,-74.5"/>
<text text-anchor="middle" x="219.75" y="-61" font-family="Helvetica,sans-Serif" font-size="10.00">ChatView::OnPttGranted</text>
</a>
</g>
</g>
<!-- Node4&#45;&gt;Node6 -->
<g id="edge5_Node000004_Node000006" class="edge">
<title>Node4&#45;&gt;Node6</title>
<g id="a_edge5_Node000004_Node000006"><a xlink:title=" ">
<path fill="none" stroke="#63b8ff" d="M517.63,-76.76C500.64,-79.44 482.16,-81.91 465,-83.25 406.4,-87.84 391.34,-87.93 332.75,-83.25 312.24,-81.61 289.81,-78.31 270.44,-74.98"/>
<polygon fill="#63b8ff" stroke="#63b8ff" points="517.75,-80.29 527.06,-75.22 516.62,-73.38 517.75,-80.29"/>
</a>
</g>
</g>
<!-- Node7 -->
<g id="Node000007" class="node">
<title>Node7</title>
<g id="a_Node000007"><a xlink:href="classChatView.html#a4cbbc74a8774cc401a3117bedf750e0f" target="_top" xlink:title="Configures the view for a specific Wavelength. Sets the header title with the frequency and optional ...">
<polygon fill="white" stroke="#666666" points="463.5,-74.5 334.25,-74.5 334.25,-56 463.5,-56 463.5,-74.5"/>
<text text-anchor="middle" x="398.88" y="-61" font-family="Helvetica,sans-Serif" font-size="10.00">ChatView::SetWavelength</text>
</a>
</g>
</g>
<!-- Node4&#45;&gt;Node7 -->
<g id="edge7_Node000004_Node000007" class="edge">
<title>Node4&#45;&gt;Node7</title>
<g id="a_edge7_Node000004_Node000007"><a xlink:title=" ">
<path fill="none" stroke="#63b8ff" d="M489.34,-65.25C480.77,-65.25 472.21,-65.25 463.96,-65.25"/>
<polygon fill="#63b8ff" stroke="#63b8ff" points="489.06,-68.75 499.06,-65.25 489.06,-61.75 489.06,-68.75"/>
</a>
</g>
</g>
<!-- Node8 -->
<g id="Node000008" class="node">
<title>Node8</title>
<g id="a_Node000008"><a xlink:href="classChatView.html#a119a0cb1a68f2e3a60e4153912fa43f2" target="_top" xlink:title="Starts capturing audio from the microphone if PTT state is Transmitting. Connects the readyRead signa...">
<polygon fill="white" stroke="#666666" points="465,-37.5 332.75,-37.5 332.75,-19 465,-19 465,-37.5"/>
<text text-anchor="middle" x="398.88" y="-24" font-family="Helvetica,sans-Serif" font-size="10.00">ChatView::StartAudioInput</text>
</a>
</g>
</g>
<!-- Node4&#45;&gt;Node8 -->
<g id="edge8_Node000004_Node000008" class="edge">
<title>Node4&#45;&gt;Node8</title>
<g id="a_edge8_Node000004_Node000008"><a xlink:title=" ">
<path fill="none" stroke="#63b8ff" d="M521.03,-53.24C497.06,-48.3 469.67,-42.65 447,-37.97"/>
<polygon fill="#63b8ff" stroke="#63b8ff" points="520.14,-56.63 530.64,-55.22 521.55,-49.77 520.14,-56.63"/>
</a>
</g>
</g>
<!-- Node6&#45;&gt;Node5 -->
<g id="edge6_Node000006_Node000005" class="edge">
<title>Node6&#45;&gt;Node5</title>
<g id="a_edge6_Node000006_Node000005"><a xlink:title=" ">
<path fill="none" stroke="#63b8ff" d="M146.1,-65.25C132.94,-65.25 119.45,-65.25 107,-65.25"/>
<polygon fill="#63b8ff" stroke="#63b8ff" points="146.03,-68.75 156.03,-65.25 146.03,-61.75 146.03,-68.75"/>
</a>
</g>
</g>
<!-- Node8&#45;&gt;Node6 -->
<g id="edge9_Node000008_Node000006" class="edge">
<title>Node8&#45;&gt;Node6</title>
<g id="a_edge9_Node000008_Node000006"><a xlink:title=" ">
<path fill="none" stroke="#63b8ff" d="M340.38,-40.26C316.72,-45.2 289.67,-50.85 267.28,-55.53"/>
<polygon fill="#63b8ff" stroke="#63b8ff" points="340.78,-43.75 349.86,-38.28 339.35,-36.9 340.78,-43.75"/>
</a>
</g>
</g>
<!-- Node10 -->
<g id="Node000010" class="node">
<title>Node10</title>
<g id="a_Node000010"><a xlink:href="classChatView.html#a19088a1cf7c1314fcdc1bca5a0b28b81" target="_top" xlink:title="Slot called when the PTT button is pressed. Plays the PTT activation sound, sets the state to Request...">
<polygon fill="white" stroke="#666666" points="296.75,-19.5 142.75,-19.5 142.75,-1 296.75,-1 296.75,-19.5"/>
<text text-anchor="middle" x="219.75" y="-6" font-family="Helvetica,sans-Serif" font-size="10.00">ChatView::OnPttButtonPressed</text>
</a>
</g>
</g>
<!-- Node9&#45;&gt;Node10 -->
<g id="edge11_Node000009_Node000010" class="edge">
<title>Node9&#45;&gt;Node10</title>
<g id="a_edge11_Node000009_Node000010"><a xlink:title=" ">
<path fill="none" stroke="#63b8ff" d="M683.77,-9.42C574.81,-9.61 397.49,-9.93 296.84,-10.11"/>
<polygon fill="#63b8ff" stroke="#63b8ff" points="683.56,-12.92 693.56,-9.4 683.55,-5.92 683.56,-12.92"/>
</a>
</g>
</g>
<!-- Node10&#45;&gt;Node5 -->
<g id="edge12_Node000010_Node000005" class="edge">
<title>Node10&#45;&gt;Node5</title>
<g id="a_edge12_Node000010_Node000005"><a xlink:title=" ">
<path fill="none" stroke="#63b8ff" d="M178.97,-23.56C149.47,-33.43 109.93,-46.66 83.37,-55.55"/>
<polygon fill="#63b8ff" stroke="#63b8ff" points="179.93,-26.93 188.31,-20.44 177.71,-20.29 179.93,-26.93"/>
</a>
</g>
</g>
</g>
</svg>
