<?xml version="1.0" encoding="UTF-8" standalone="no"?>
<!DOCTYPE svg PUBLIC "-//W3C//DTD SVG 1.1//EN"
 "http://www.w3.org/Graphics/SVG/1.1/DTD/svg11.dtd">
<!-- Generated by graphviz version 12.2.1 (0)
 -->
<!-- Title: VideoPlayer::TogglePlayback Pages: 1 -->
<!--zoomable 333 -->

<svg id="main" version="1.1" xmlns="http://www.w3.org/2000/svg" xmlns:xlink="http://www.w3.org/1999/xlink" xml:space="preserve" onload="init(evt)">

<style type="text/css"><![CDATA[
.node, .edge {opacity: 0.7;}
.node.selected, .edge.selected {opacity: 1;}
.edge:hover path { stroke: red; }
.edge:hover polygon { stroke: red; fill: red; }
]]></style>

<defs>
  <circle id="rim" cx="0" cy="0" r="7"/>
  <circle id="rim2" cx="0" cy="0" r="3.5"/>
  <g id="zoomPlus">
    <use xlink:href="#rim" fill="#404040"><set attributeName="fill" to="#808080" begin="zoomplus.mouseover" end="zoomplus.mouseout"/></use>
    <path d="M-4,0h8M0,-4v8" fill="none" stroke="white" stroke-width="1.5" pointer-events="none"/>
  </g>
  <g id="zoomMin">
    <use xlink:href="#rim" fill="#404040"><set attributeName="fill" to="#808080" begin="zoomminus.mouseover" end="zoomminus.mouseout"/></use>
    <path d="M-4,0h8" fill="none" stroke="white" stroke-width="1.5" pointer-events="none"/>
  </g>
  <g id="arrowUp" transform="translate(30 24)">
    <use xlink:href="#rim"/>
    <path pointer-events="none" fill="none" stroke="white" stroke-width="1.5" d="M0,-3.0v7 M-2.5,-0.5L0,-3.0L2.5,-0.5"/>
  </g>
  <g id="arrowRight" transform="rotate(90) translate(36 -43)">
    <use xlink:href="#rim"/>
    <path pointer-events="none" fill="none" stroke="white" stroke-width="1.5" d="M0,-3.0v7 M-2.5,-0.5L0,-3.0L2.5,-0.5"/>
  </g>
  <g id="arrowDown" transform="rotate(180) translate(-30 -48)">
    <use xlink:href="#rim"/>
    <path pointer-events="none" fill="none" stroke="white" stroke-width="1.5" d="M0,-3.0v7 M-2.5,-0.5L0,-3.0L2.5,-0.5"/>
  </g>
  <g id="arrowLeft" transform="rotate(270) translate(-36 17)">
    <use xlink:href="#rim"/>
    <path pointer-events="none" fill="none" stroke="white" stroke-width="1.5" d="M0,-3.0v7 M-2.5,-0.5L0,-3.0L2.5,-0.5"/>
  </g>
  <g id="resetDef">
    <use xlink:href="#rim2" fill="#404040"><set attributeName="fill" to="#808080" begin="reset.mouseover" end="reset.mouseout"/></use>
  </g>
</defs>
<script type="application/ecmascript">
var viewWidth = 518;
var viewHeight = 333;
var sectionId = 'dynsection-21';
</script>
<script type="application/ecmascript" xlink:href="svg.min.js"/>
<svg id="graph" class="graph">
<g id="viewport">
<title>VideoPlayer::TogglePlayback</title>
<!-- Node1 -->
<g id="Node000001" class="node">
<title>Node1</title>
<g id="a_Node000001"><a xlink:title="Toggles the playback state (play/pause) or resets if finished. If finished, resets the decoder....">
<polygon fill="#999999" stroke="#666666" points="142.75,-176.5 0,-176.5 0,-158 142.75,-158 142.75,-176.5"/>
<text text-anchor="middle" x="71.38" y="-163" font-family="Helvetica,sans-Serif" font-size="10.00">VideoPlayer::TogglePlayback</text>
</a>
</g>
</g>
<!-- Node2 -->
<g id="Node000002" class="node">
<title>Node2</title>
<g id="a_Node000002"><a xlink:href="classVideoPlayer.html#a6f8d803263d342bf12f9cf29c40536de" target="_top" xlink:title="Initializes the VideoDecoder instance and connects its signals. Creates the decoder,...">
<polygon fill="white" stroke="#666666" points="314.75,-176.5 178.75,-176.5 178.75,-158 314.75,-158 314.75,-176.5"/>
<text text-anchor="middle" x="246.75" y="-163" font-family="Helvetica,sans-Serif" font-size="10.00">VideoPlayer::InitializePlayer</text>
</a>
</g>
</g>
<!-- Node1&#45;&gt;Node2 -->
<g id="edge1_Node000001_Node000002" class="edge">
<title>Node1&#45;&gt;Node2</title>
<g id="a_edge1_Node000001_Node000002"><a xlink:title=" ">
<path fill="none" stroke="#63b8ff" d="M143.14,-167.25C150.94,-167.25 158.92,-167.25 166.82,-167.25"/>
<polygon fill="#63b8ff" stroke="#63b8ff" points="166.77,-170.75 176.77,-167.25 166.77,-163.75 166.77,-170.75"/>
</a>
</g>
</g>
<!-- Node3 -->
<g id="Node000003" class="node">
<title>Node3</title>
<g id="a_Node000003"><a xlink:href="classVideoDecoder.html#a51e7a40e369cc4e80033f1dd9068cdd4" target="_top" xlink:title="Emitted when an error occurs during initialization or decoding.">
<polygon fill="white" stroke="#666666" points="481.88,-324.5 378.88,-324.5 378.88,-306 481.88,-306 481.88,-324.5"/>
<text text-anchor="middle" x="430.38" y="-311" font-family="Helvetica,sans-Serif" font-size="10.00">VideoDecoder::error</text>
</a>
</g>
</g>
<!-- Node2&#45;&gt;Node3 -->
<g id="edge2_Node000002_Node000003" class="edge">
<title>Node2&#45;&gt;Node3</title>
<g id="a_edge2_Node000002_Node000003"><a xlink:title=" ">
<path fill="none" stroke="#63b8ff" d="M252.48,-176.81C264.96,-200.95 301.19,-264.69 350.75,-296.25 356.01,-299.6 361.8,-302.36 367.79,-304.63"/>
<polygon fill="#63b8ff" stroke="#63b8ff" points="366.68,-307.95 377.28,-307.74 368.87,-301.3 366.68,-307.95"/>
</a>
</g>
</g>
<!-- Node4 -->
<g id="Node000004" class="node">
<title>Node4</title>
<g id="a_Node000004"><a xlink:href="classVideoDecoder.html#ac2d7b995099a90908cf02630f9ce71ce" target="_top" xlink:title="Emitted for each decoded video frame.">
<polygon fill="white" stroke="#666666" points="498.38,-287.5 362.38,-287.5 362.38,-269 498.38,-269 498.38,-287.5"/>
<text text-anchor="middle" x="430.38" y="-274" font-family="Helvetica,sans-Serif" font-size="10.00">VideoDecoder::frameReady</text>
</a>
</g>
</g>
<!-- Node2&#45;&gt;Node4 -->
<g id="edge3_Node000002_Node000004" class="edge">
<title>Node2&#45;&gt;Node4</title>
<g id="a_edge3_Node000002_Node000004"><a xlink:title=" ">
<path fill="none" stroke="#63b8ff" d="M255.45,-176.73C271.26,-195.52 309.35,-237.53 350.75,-259.25 354.69,-261.32 358.87,-263.17 363.15,-264.82"/>
<polygon fill="#63b8ff" stroke="#63b8ff" points="361.95,-268.1 372.54,-268.03 364.22,-261.48 361.95,-268.1"/>
</a>
</g>
</g>
<!-- Node5 -->
<g id="Node000005" class="node">
<title>Node5</title>
<g id="a_Node000005"><a xlink:href="classVideoPlayer.html#a28a1008317bdb86d8a95822d97fb0a22" target="_top" xlink:title="Slot connected to the decoder&#39;s error signal. Logs the error and displays it in the status_label_ and...">
<polygon fill="white" stroke="#666666" points="493.12,-250.5 367.62,-250.5 367.62,-232 493.12,-232 493.12,-250.5"/>
<text text-anchor="middle" x="430.38" y="-237" font-family="Helvetica,sans-Serif" font-size="10.00">VideoPlayer::HandleError</text>
</a>
</g>
</g>
<!-- Node2&#45;&gt;Node5 -->
<g id="edge4_Node000002_Node000005" class="edge">
<title>Node2&#45;&gt;Node5</title>
<g id="a_edge4_Node000002_Node000005"><a xlink:title=" ">
<path fill="none" stroke="#63b8ff" d="M262.88,-176.91C282.46,-189.04 317.98,-209.77 350.75,-222.25 356.89,-224.59 363.41,-226.7 369.96,-228.6"/>
<polygon fill="#63b8ff" stroke="#63b8ff" points="368.94,-231.95 379.51,-231.2 370.78,-225.2 368.94,-231.95"/>
</a>
</g>
</g>
<!-- Node6 -->
<g id="Node000006" class="node">
<title>Node6</title>
<g id="a_Node000006"><a xlink:href="classVideoPlayer.html#aa5e9a37abf6b5479169ac6f92517c2a0" target="_top" xlink:title="Slot connected to the decoder&#39;s videoInfo signal. Stores video dimensions, duration,...">
<polygon fill="white" stroke="#666666" points="503.25,-213.5 357.5,-213.5 357.5,-195 503.25,-195 503.25,-213.5"/>
<text text-anchor="middle" x="430.38" y="-200" font-family="Helvetica,sans-Serif" font-size="10.00">VideoPlayer::HandleVideoInfo</text>
</a>
</g>
</g>
<!-- Node2&#45;&gt;Node6 -->
<g id="edge5_Node000002_Node000006" class="edge">
<title>Node2&#45;&gt;Node6</title>
<g id="a_edge5_Node000002_Node000006"><a xlink:title=" ">
<path fill="none" stroke="#63b8ff" d="M295.47,-176.97C318.43,-181.65 346.16,-187.3 370.43,-192.24"/>
<polygon fill="#63b8ff" stroke="#63b8ff" points="369.68,-195.66 380.18,-194.23 371.08,-188.8 369.68,-195.66"/>
</a>
</g>
</g>
<!-- Node7 -->
<g id="Node000007" class="node">
<title>Node7</title>
<g id="a_Node000007"><a xlink:href="classVideoDecoder.html#a4b36980122d8771e7aff1ed0c1db8420" target="_top" xlink:title="Emitted when both video and audio (if present) streams reach the end.">
<polygon fill="white" stroke="#666666" points="510,-176.5 350.75,-176.5 350.75,-158 510,-158 510,-176.5"/>
<text text-anchor="middle" x="430.38" y="-163" font-family="Helvetica,sans-Serif" font-size="10.00">VideoDecoder::playbackFinished</text>
</a>
</g>
</g>
<!-- Node2&#45;&gt;Node7 -->
<g id="edge6_Node000002_Node000007" class="edge">
<title>Node2&#45;&gt;Node7</title>
<g id="a_edge6_Node000002_Node000007"><a xlink:title=" ">
<path fill="none" stroke="#63b8ff" d="M315.12,-167.25C322.94,-167.25 331.02,-167.25 339.08,-167.25"/>
<polygon fill="#63b8ff" stroke="#63b8ff" points="338.94,-170.75 348.94,-167.25 338.94,-163.75 338.94,-170.75"/>
</a>
</g>
</g>
<!-- Node8 -->
<g id="Node000008" class="node">
<title>Node8</title>
<g id="a_Node000008"><a xlink:href="classVideoDecoder.html#a72403db422317c2377fbf95fedd14077" target="_top" xlink:title="Emitted periodically during playback to indicate the current position (based on audio if available,...">
<polygon fill="white" stroke="#666666" points="508.5,-139.5 352.25,-139.5 352.25,-121 508.5,-121 508.5,-139.5"/>
<text text-anchor="middle" x="430.38" y="-126" font-family="Helvetica,sans-Serif" font-size="10.00">VideoDecoder::positionChanged</text>
</a>
</g>
</g>
<!-- Node2&#45;&gt;Node8 -->
<g id="edge7_Node000002_Node000008" class="edge">
<title>Node2&#45;&gt;Node8</title>
<g id="a_edge7_Node000002_Node000008"><a xlink:title=" ">
<path fill="none" stroke="#63b8ff" d="M295.47,-157.53C318.43,-152.85 346.16,-147.2 370.43,-142.26"/>
<polygon fill="#63b8ff" stroke="#63b8ff" points="371.08,-145.7 380.18,-140.27 369.68,-138.84 371.08,-145.7"/>
</a>
</g>
</g>
<!-- Node9 -->
<g id="Node000009" class="node">
<title>Node9</title>
<g id="a_Node000009"><a xlink:href="classVideoPlayer.html#a2ddaf785e9a0b2cb177e62261e5261e3" target="_top" xlink:title="Slot connected to the decoder&#39;s frameReady signal. Displays the received video frame in the video_lab...">
<polygon fill="white" stroke="#666666" points="496.88,-102.5 363.88,-102.5 363.88,-84 496.88,-84 496.88,-102.5"/>
<text text-anchor="middle" x="430.38" y="-89" font-family="Helvetica,sans-Serif" font-size="10.00">VideoPlayer::UpdateFrame</text>
</a>
</g>
</g>
<!-- Node2&#45;&gt;Node9 -->
<g id="edge8_Node000002_Node000009" class="edge">
<title>Node2&#45;&gt;Node9</title>
<g id="a_edge8_Node000002_Node000009"><a xlink:title=" ">
<path fill="none" stroke="#63b8ff" d="M262.88,-157.59C282.46,-145.46 317.98,-124.73 350.75,-112.25 356.89,-109.91 363.41,-107.8 369.96,-105.9"/>
<polygon fill="#63b8ff" stroke="#63b8ff" points="370.78,-109.3 379.51,-103.3 368.94,-102.55 370.78,-109.3"/>
</a>
</g>
</g>
<!-- Node10 -->
<g id="Node000010" class="node">
<title>Node10</title>
<g id="a_Node000010"><a xlink:href="classVideoPlayer.html#a497bfcdf3da4ed1d16db8130197b9588" target="_top" xlink:title="Slot connected to the decoder&#39;s positionChanged signal. Updates the progress slider&#39;s position and th...">
<polygon fill="white" stroke="#666666" points="495.38,-65.75 365.38,-65.75 365.38,-36.75 495.38,-36.75 495.38,-65.75"/>
<text text-anchor="start" x="373.38" y="-52.25" font-family="Helvetica,sans-Serif" font-size="10.00">VideoPlayer::UpdateSlider</text>
<text text-anchor="middle" x="430.38" y="-41.75" font-family="Helvetica,sans-Serif" font-size="10.00">Position</text>
</a>
</g>
</g>
<!-- Node2&#45;&gt;Node10 -->
<g id="edge9_Node000002_Node000010" class="edge">
<title>Node2&#45;&gt;Node10</title>
<g id="a_edge9_Node000002_Node000010"><a xlink:title=" ">
<path fill="none" stroke="#63b8ff" d="M255.82,-157.69C271.97,-139.13 310.22,-98.07 350.75,-75.25 353.7,-73.59 356.78,-72.03 359.94,-70.57"/>
<polygon fill="#63b8ff" stroke="#63b8ff" points="360.99,-73.92 368.85,-66.81 358.27,-67.47 360.99,-73.92"/>
</a>
</g>
</g>
<!-- Node11 -->
<g id="Node000011" class="node">
<title>Node11</title>
<g id="a_Node000011"><a xlink:href="classVideoDecoder.html#a0680707eda3a8c22786559ff45bdb46e" target="_top" xlink:title="Emitted after successful initialization, providing video stream details.">
<polygon fill="white" stroke="#666666" points="492,-18.5 368.75,-18.5 368.75,0 492,0 492,-18.5"/>
<text text-anchor="middle" x="430.38" y="-5" font-family="Helvetica,sans-Serif" font-size="10.00">VideoDecoder::videoInfo</text>
</a>
</g>
</g>
<!-- Node2&#45;&gt;Node11 -->
<g id="edge10_Node000002_Node000011" class="edge">
<title>Node2&#45;&gt;Node11</title>
<g id="a_edge10_Node000002_Node000011"><a xlink:title=" ">
<path fill="none" stroke="#63b8ff" d="M251.93,-157.7C263.56,-132.28 298.92,-62.59 350.75,-28.25 353.44,-26.47 356.28,-24.85 359.22,-23.39"/>
<polygon fill="#63b8ff" stroke="#63b8ff" points="360.33,-26.72 368.15,-19.57 357.58,-20.29 360.33,-26.72"/>
</a>
</g>
</g>
</g>
</svg>

<g id="navigator" transform="translate(0 0)" fill="#404254">
  <rect fill="#f2f5e9" fill-opacity="0.5" stroke="#606060" stroke-width=".5" x="0" y="0" width="60" height="60"/>
  <use id="zoomplus" xlink:href="#zoomPlus" x="17" y="9" onmousedown="handleZoom(evt,'in')"/>
  <use id="zoomminus" xlink:href="#zoomMin" x="42" y="9" onmousedown="handleZoom(evt,'out')"/>
  <use id="reset" xlink:href="#resetDef" x="30" y="36" onmousedown="handleReset()"/>
   <use id="arrowup" xlink:href="#arrowUp" x="0" y="0" onmousedown="handlePan(0,-1)"/>
  <use id="arrowright" xlink:href="#arrowRight" x="0" y="0" onmousedown="handlePan(1,0)"/>
  <use id="arrowdown" xlink:href="#arrowDown" x="0" y="0" onmousedown="handlePan(0,1)"/>
  <use id="arrowleft" xlink:href="#arrowLeft" x="0" y="0" onmousedown="handlePan(-1,0)"/>
</g>
<svg viewBox="0 0 15 15" width="100%" height="30px" preserveAspectRatio="xMaxYMin meet">
 <g id="arrow_out" transform="scale(0.3 0.3)">
  <a xlink:href="classVideoPlayer_aee93bdf909227c7d4f7c48eca8874af6_cgraph_org.svg" target="_base">
   <rect id="button" ry="5" rx="5" y="6" x="6" height="38" width="38"
        fill="#f2f5e9" fill-opacity="0.5" stroke="#606060" stroke-width="1.0"/>
   <path id="arrow"
     d="M 11.500037,31.436501 C 11.940474,20.09759 22.043105,11.32322 32.158766,21.979434 L 37.068811,17.246167 C 37.068811,17.246167 37.088388,32 37.088388,32 L 22.160133,31.978069 C 22.160133,31.978069 26.997745,27.140456 26.997745,27.140456 C 18.528582,18.264221 13.291696,25.230495 11.500037,31.436501 z"
     style="fill:#404040;"/>
  </a>
 </g>
</svg>

<style type='text/css'>
<![CDATA[
[data-mouse-over-selected='false'] { opacity: 0.7; }
[data-mouse-over-selected='true']  { opacity: 1.0; }
]]>
</style>
<script type="application/ecmascript"><![CDATA[
document.addEventListener('DOMContentLoaded', (event) => {
  highlightEdges();
  highlightAdjacentNodes();
});
]]></script>
</svg>
