<?xml version="1.0" encoding="UTF-8" standalone="no"?>
<!DOCTYPE svg PUBLIC "-//W3C//DTD SVG 1.1//EN"
 "http://www.w3.org/Graphics/SVG/1.1/DTD/svg11.dtd">
<!-- Generated by graphviz version 12.2.1 (0)
 -->
<!-- Title: SessionCoordinator::IsWavelengthJoined Pages: 1 -->
<!--zoomable 131 -->

<svg id="main" version="1.1" xmlns="http://www.w3.org/2000/svg" xmlns:xlink="http://www.w3.org/1999/xlink" xml:space="preserve" onload="init(evt)">

<style type="text/css"><![CDATA[
.node, .edge {opacity: 0.7;}
.node.selected, .edge.selected {opacity: 1;}
.edge:hover path { stroke: red; }
.edge:hover polygon { stroke: red; fill: red; }
]]></style>

<defs>
  <circle id="rim" cx="0" cy="0" r="7"/>
  <circle id="rim2" cx="0" cy="0" r="3.5"/>
  <g id="zoomPlus">
    <use xlink:href="#rim" fill="#404040"><set attributeName="fill" to="#808080" begin="zoomplus.mouseover" end="zoomplus.mouseout"/></use>
    <path d="M-4,0h8M0,-4v8" fill="none" stroke="white" stroke-width="1.5" pointer-events="none"/>
  </g>
  <g id="zoomMin">
    <use xlink:href="#rim" fill="#404040"><set attributeName="fill" to="#808080" begin="zoomminus.mouseover" end="zoomminus.mouseout"/></use>
    <path d="M-4,0h8" fill="none" stroke="white" stroke-width="1.5" pointer-events="none"/>
  </g>
  <g id="arrowUp" transform="translate(30 24)">
    <use xlink:href="#rim"/>
    <path pointer-events="none" fill="none" stroke="white" stroke-width="1.5" d="M0,-3.0v7 M-2.5,-0.5L0,-3.0L2.5,-0.5"/>
  </g>
  <g id="arrowRight" transform="rotate(90) translate(36 -43)">
    <use xlink:href="#rim"/>
    <path pointer-events="none" fill="none" stroke="white" stroke-width="1.5" d="M0,-3.0v7 M-2.5,-0.5L0,-3.0L2.5,-0.5"/>
  </g>
  <g id="arrowDown" transform="rotate(180) translate(-30 -48)">
    <use xlink:href="#rim"/>
    <path pointer-events="none" fill="none" stroke="white" stroke-width="1.5" d="M0,-3.0v7 M-2.5,-0.5L0,-3.0L2.5,-0.5"/>
  </g>
  <g id="arrowLeft" transform="rotate(270) translate(-36 17)">
    <use xlink:href="#rim"/>
    <path pointer-events="none" fill="none" stroke="white" stroke-width="1.5" d="M0,-3.0v7 M-2.5,-0.5L0,-3.0L2.5,-0.5"/>
  </g>
  <g id="resetDef">
    <use xlink:href="#rim2" fill="#404040"><set attributeName="fill" to="#808080" begin="reset.mouseover" end="reset.mouseout"/></use>
  </g>
</defs>
<script type="application/ecmascript">
var viewWidth = 594;
var viewHeight = 131;
var sectionId = 'dynsection-26';
</script>
<script type="application/ecmascript" xlink:href="svg.min.js"/>
<svg id="graph" class="graph">
<g id="viewport">
<title>SessionCoordinator::IsWavelengthJoined</title>
<!-- Node1 -->
<g id="Node000001" class="node">
<title>Node1</title>
<g id="a_Node000001"><a xlink:title="Checks if the user is considered joined to a specific wavelength (based on registry presence)....">
<polygon fill="#999999" stroke="#666666" points="109,-99 0,-99 0,-70 109,-70 109,-99"/>
<text text-anchor="start" x="8" y="-85.5" font-family="Helvetica,sans-Serif" font-size="10.00">SessionCoordinator</text>
<text text-anchor="middle" x="54.5" y="-75" font-family="Helvetica,sans-Serif" font-size="10.00">::IsWavelengthJoined</text>
</a>
</g>
</g>
<!-- Node2 -->
<g id="Node000002" class="node">
<title>Node2</title>
<g id="a_Node000002"><a xlink:href="classWavelengthStateManager.html#a080b15c4486a3ac1c341a464dbf197ad" target="_top" xlink:title="Gets the singleton instance of the WavelengthStateManager.">
<polygon fill="white" stroke="#666666" points="272,-123 145,-123 145,-94 272,-94 272,-123"/>
<text text-anchor="start" x="153" y="-109.5" font-family="Helvetica,sans-Serif" font-size="10.00">WavelengthStateManager</text>
<text text-anchor="middle" x="208.5" y="-99" font-family="Helvetica,sans-Serif" font-size="10.00">::GetInstance</text>
</a>
</g>
</g>
<!-- Node1&#45;&gt;Node2 -->
<g id="edge1_Node000001_Node000002" class="edge">
<title>Node1&#45;&gt;Node2</title>
<g id="a_edge1_Node000001_Node000002"><a xlink:title=" ">
<path fill="none" stroke="#63b8ff" d="M109.09,-92.96C116.96,-94.2 125.19,-95.5 133.39,-96.8"/>
<polygon fill="#63b8ff" stroke="#63b8ff" points="132.59,-100.22 143.02,-98.32 133.68,-93.3 132.59,-100.22"/>
</a>
</g>
</g>
<!-- Node4 -->
<g id="Node000004" class="node">
<title>Node4</title>
<g id="a_Node000004"><a xlink:href="classWavelengthStateManager.html#a3fb70a65f59ecdfab9ccded46a18db5e" target="_top" xlink:title="Checks if the user is currently considered joined to a specific wavelength (based on registry presenc...">
<polygon fill="white" stroke="#666666" points="272,-76 145,-76 145,-47 272,-47 272,-76"/>
<text text-anchor="start" x="153" y="-62.5" font-family="Helvetica,sans-Serif" font-size="10.00">WavelengthStateManager</text>
<text text-anchor="middle" x="208.5" y="-52" font-family="Helvetica,sans-Serif" font-size="10.00">::IsWavelengthJoined</text>
</a>
</g>
</g>
<!-- Node1&#45;&gt;Node4 -->
<g id="edge3_Node000001_Node000004" class="edge">
<title>Node1&#45;&gt;Node4</title>
<g id="a_edge3_Node000001_Node000004"><a xlink:title=" ">
<path fill="none" stroke="#63b8ff" d="M109.09,-76.39C116.96,-75.2 125.19,-73.95 133.39,-72.71"/>
<polygon fill="#63b8ff" stroke="#63b8ff" points="133.65,-76.21 143.02,-71.26 132.6,-69.29 133.65,-76.21"/>
</a>
</g>
</g>
<!-- Node3 -->
<g id="Node000003" class="node">
<title>Node3</title>
<g id="a_Node000003"><a xlink:href="classWavelengthStateManager.html#a9076f87f6e875d36b2853b946d94ce29" target="_top" xlink:title="Private constructor to enforce the singleton pattern.">
<polygon fill="white" stroke="#666666" points="441,-123 308,-123 308,-94 441,-94 441,-123"/>
<text text-anchor="start" x="316" y="-109.5" font-family="Helvetica,sans-Serif" font-size="10.00">WavelengthStateManager</text>
<text text-anchor="middle" x="374.5" y="-99" font-family="Helvetica,sans-Serif" font-size="10.00">::WavelengthStateManager</text>
</a>
</g>
</g>
<!-- Node2&#45;&gt;Node3 -->
<g id="edge2_Node000002_Node000003" class="edge">
<title>Node2&#45;&gt;Node3</title>
<g id="a_edge2_Node000002_Node000003"><a xlink:title=" ">
<path fill="none" stroke="#63b8ff" d="M272.44,-108.5C280.3,-108.5 288.4,-108.5 296.44,-108.5"/>
<polygon fill="#63b8ff" stroke="#63b8ff" points="296.23,-112 306.23,-108.5 296.23,-105 296.23,-112"/>
</a>
</g>
</g>
<!-- Node5 -->
<g id="Node000005" class="node">
<title>Node5</title>
<g id="a_Node000005"><a xlink:href="classWavelengthRegistry.html#a84a25c38915431306681e96df429f20f" target="_top" xlink:title="Gets the singleton instance of the WavelengthRegistry.">
<polygon fill="white" stroke="#666666" points="426,-76 323,-76 323,-47 426,-47 426,-76"/>
<text text-anchor="start" x="331" y="-62.5" font-family="Helvetica,sans-Serif" font-size="10.00">WavelengthRegistry</text>
<text text-anchor="middle" x="374.5" y="-52" font-family="Helvetica,sans-Serif" font-size="10.00">::GetInstance</text>
</a>
</g>
</g>
<!-- Node4&#45;&gt;Node5 -->
<g id="edge4_Node000004_Node000005" class="edge">
<title>Node4&#45;&gt;Node5</title>
<g id="a_edge4_Node000004_Node000005"><a xlink:title=" ">
<path fill="none" stroke="#63b8ff" d="M272.44,-61.5C285.16,-61.5 298.54,-61.5 311.24,-61.5"/>
<polygon fill="#63b8ff" stroke="#63b8ff" points="311.16,-65 321.16,-61.5 311.16,-58 311.16,-65"/>
</a>
</g>
</g>
<!-- Node7 -->
<g id="Node000007" class="node">
<title>Node7</title>
<g id="a_Node000007"><a xlink:href="classWavelengthRegistry.html#a998a355d30053edcff8aac04c7d7dc55" target="_top" xlink:title="Checks if a wavelength with the given frequency exists in the registry.">
<polygon fill="white" stroke="#666666" points="426,-29 323,-29 323,0 426,0 426,-29"/>
<text text-anchor="start" x="331" y="-15.5" font-family="Helvetica,sans-Serif" font-size="10.00">WavelengthRegistry</text>
<text text-anchor="middle" x="374.5" y="-5" font-family="Helvetica,sans-Serif" font-size="10.00">::HasWavelength</text>
</a>
</g>
</g>
<!-- Node4&#45;&gt;Node7 -->
<g id="edge6_Node000004_Node000007" class="edge">
<title>Node4&#45;&gt;Node7</title>
<g id="a_edge6_Node000004_Node000007"><a xlink:title=" ">
<path fill="none" stroke="#63b8ff" d="M261.39,-46.63C277.4,-42.04 295.19,-36.94 311.8,-32.18"/>
<polygon fill="#63b8ff" stroke="#63b8ff" points="312.4,-35.65 321.05,-29.53 310.48,-28.92 312.4,-35.65"/>
</a>
</g>
</g>
<!-- Node6 -->
<g id="Node000006" class="node">
<title>Node6</title>
<g id="a_Node000006"><a xlink:href="classWavelengthRegistry.html#a5ad0b9c059e6c70af54fd27e35035e64" target="_top" xlink:title="Private constructor to enforce the singleton pattern. Initializes active_wavelength_ to &quot;&#45;1&quot;.">
<polygon fill="white" stroke="#666666" points="586,-76 477,-76 477,-47 586,-47 586,-76"/>
<text text-anchor="start" x="485" y="-62.5" font-family="Helvetica,sans-Serif" font-size="10.00">WavelengthRegistry</text>
<text text-anchor="middle" x="531.5" y="-52" font-family="Helvetica,sans-Serif" font-size="10.00">::WavelengthRegistry</text>
</a>
</g>
</g>
<!-- Node5&#45;&gt;Node6 -->
<g id="edge5_Node000005_Node000006" class="edge">
<title>Node5&#45;&gt;Node6</title>
<g id="a_edge5_Node000005_Node000006"><a xlink:title=" ">
<path fill="none" stroke="#63b8ff" d="M426.25,-61.5C438.75,-61.5 452.3,-61.5 465.38,-61.5"/>
<polygon fill="#63b8ff" stroke="#63b8ff" points="465.19,-65 475.19,-61.5 465.19,-58 465.19,-65"/>
</a>
</g>
</g>
</g>
</svg>

<g id="navigator" transform="translate(0 0)" fill="#404254">
  <rect fill="#f2f5e9" fill-opacity="0.5" stroke="#606060" stroke-width=".5" x="0" y="0" width="60" height="60"/>
  <use id="zoomplus" xlink:href="#zoomPlus" x="17" y="9" onmousedown="handleZoom(evt,'in')"/>
  <use id="zoomminus" xlink:href="#zoomMin" x="42" y="9" onmousedown="handleZoom(evt,'out')"/>
  <use id="reset" xlink:href="#resetDef" x="30" y="36" onmousedown="handleReset()"/>
   <use id="arrowup" xlink:href="#arrowUp" x="0" y="0" onmousedown="handlePan(0,-1)"/>
  <use id="arrowright" xlink:href="#arrowRight" x="0" y="0" onmousedown="handlePan(1,0)"/>
  <use id="arrowdown" xlink:href="#arrowDown" x="0" y="0" onmousedown="handlePan(0,1)"/>
  <use id="arrowleft" xlink:href="#arrowLeft" x="0" y="0" onmousedown="handlePan(-1,0)"/>
</g>
<svg viewBox="0 0 15 15" width="100%" height="30px" preserveAspectRatio="xMaxYMin meet">
 <g id="arrow_out" transform="scale(0.3 0.3)">
  <a xlink:href="classSessionCoordinator_a3c36788c829032c9552f7b4a2e526e45_cgraph_org.svg" target="_base">
   <rect id="button" ry="5" rx="5" y="6" x="6" height="38" width="38"
        fill="#f2f5e9" fill-opacity="0.5" stroke="#606060" stroke-width="1.0"/>
   <path id="arrow"
     d="M 11.500037,31.436501 C 11.940474,20.09759 22.043105,11.32322 32.158766,21.979434 L 37.068811,17.246167 C 37.068811,17.246167 37.088388,32 37.088388,32 L 22.160133,31.978069 C 22.160133,31.978069 26.997745,27.140456 26.997745,27.140456 C 18.528582,18.264221 13.291696,25.230495 11.500037,31.436501 z"
     style="fill:#404040;"/>
  </a>
 </g>
</svg>

<style type='text/css'>
<![CDATA[
[data-mouse-over-selected='false'] { opacity: 0.7; }
[data-mouse-over-selected='true']  { opacity: 1.0; }
]]>
</style>
<script type="application/ecmascript"><![CDATA[
document.addEventListener('DOMContentLoaded', (event) => {
  highlightEdges();
  highlightAdjacentNodes();
});
]]></script>
</svg>
