<?xml version="1.0" encoding="UTF-8" standalone="no"?>
<!DOCTYPE svg PUBLIC "-//W3C//DTD SVG 1.1//EN"
 "http://www.w3.org/Graphics/SVG/1.1/DTD/svg11.dtd">
<!-- Generated by graphviz version 12.2.1 (0)
 -->
<!-- Title: SystemOverrideManager::~SystemOverrideManager Pages: 1 -->
<svg width="487pt" height="272pt"
 viewBox="0.00 0.00 487.25 272.00" xmlns="http://www.w3.org/2000/svg" xmlns:xlink="http://www.w3.org/1999/xlink">

<svg id="main" version="1.1" xmlns="http://www.w3.org/2000/svg" xmlns:xlink="http://www.w3.org/1999/xlink" xml:space="preserve">

<style type="text/css"><![CDATA[
.node, .edge {opacity: 0.7;}
.node.selected, .edge.selected {opacity: 1;}
.edge:hover path { stroke: red; }
.edge:hover polygon { stroke: red; fill: red; }
]]></style>
<script type="application/ecmascript" xlink:href="svg.min.js"/>
<svg id="graph" class="graph">
<g id="graph0" class="graph" transform="scale(1 1) rotate(0) translate(4 268)">
<title>SystemOverrideManager::~SystemOverrideManager</title>
<!-- Node1 -->
<g id="Node000001" class="node">
<title>Node1</title>
<g id="a_Node000001"><a xlink:title="Destructor. Ensures the system state is restored if the override is active. Cleans up the floating wi...">
<polygon fill="#999999" stroke="#666666" points="134.5,-170 0,-170 0,-141 134.5,-141 134.5,-170"/>
<text text-anchor="start" x="8" y="-156.5" font-family="Helvetica,sans-Serif" font-size="10.00">SystemOverrideManager</text>
<text text-anchor="middle" x="67.25" y="-146" font-family="Helvetica,sans-Serif" font-size="10.00">::~SystemOverrideManager</text>
</a>
</g>
</g>
<!-- Node2 -->
<g id="Node000002" class="node">
<title>Node2</title>
<g id="a_Node000002"><a xlink:href="classSystemOverrideManager.html#a0834ff9c3ad9bfec1d08ba05648e6122" target="_top" xlink:title="Restores the system state to normal. Uninstalls input hooks (Windows), restores the original wallpape...">
<polygon fill="white" stroke="#666666" points="293,-170 170.5,-170 170.5,-141 293,-141 293,-170"/>
<text text-anchor="start" x="178.5" y="-156.5" font-family="Helvetica,sans-Serif" font-size="10.00">SystemOverrideManager</text>
<text text-anchor="middle" x="231.75" y="-146" font-family="Helvetica,sans-Serif" font-size="10.00">::RestoreSystemState</text>
</a>
</g>
</g>
<!-- Node1&#45;&gt;Node2 -->
<g id="edge1_Node000001_Node000002" class="edge">
<title>Node1&#45;&gt;Node2</title>
<g id="a_edge1_Node000001_Node000002"><a xlink:title=" ">
<path fill="none" stroke="#63b8ff" d="M134.81,-155.5C142.65,-155.5 150.67,-155.5 158.57,-155.5"/>
<polygon fill="#63b8ff" stroke="#63b8ff" points="158.52,-159 168.52,-155.5 158.52,-152 158.52,-159"/>
</a>
</g>
</g>
<!-- Node2&#45;&gt;Node2 -->
<g id="edge7_Node000002_Node000002" class="edge">
<title>Node2&#45;&gt;Node2</title>
<g id="a_edge7_Node000002_Node000002"><a xlink:title=" ">
<path fill="none" stroke="#63b8ff" d="M203.08,-170.21C196.17,-179.32 205.73,-188 231.75,-188 245.98,-188 255.29,-185.41 259.67,-181.56"/>
<polygon fill="#63b8ff" stroke="#63b8ff" points="263.15,-181.92 260.32,-171.72 256.17,-181.47 263.15,-181.92"/>
</a>
</g>
</g>
<!-- Node3 -->
<g id="Node000003" class="node">
<title>Node3</title>
<g id="a_Node000003"><a xlink:href="classFloatingEnergySphereWidget.html#ae81d952cf10dd7a2389a6d958e789b16" target="_top" xlink:title="Emitted when the destruction animation sequence (visual and audio) completes.">
<polygon fill="white" stroke="#666666" points="479.25,-264 329,-264 329,-235 479.25,-235 479.25,-264"/>
<text text-anchor="start" x="337" y="-250.5" font-family="Helvetica,sans-Serif" font-size="10.00">FloatingEnergySphereWidget</text>
<text text-anchor="middle" x="404.12" y="-240" font-family="Helvetica,sans-Serif" font-size="10.00">::destructionSequenceFinished</text>
</a>
</g>
</g>
<!-- Node2&#45;&gt;Node3 -->
<g id="edge2_Node000002_Node000003" class="edge">
<title>Node2&#45;&gt;Node3</title>
<g id="a_edge2_Node000002_Node000003"><a xlink:title=" ">
<path fill="none" stroke="#63b8ff" d="M249.33,-170.46C267.66,-186.32 298.61,-211.13 329,-226.5 331.67,-227.85 334.43,-229.14 337.26,-230.37"/>
<polygon fill="#63b8ff" stroke="#63b8ff" points="335.68,-233.5 346.26,-233.99 338.29,-227.01 335.68,-233.5"/>
</a>
</g>
</g>
<!-- Node4 -->
<g id="Node000004" class="node">
<title>Node4</title>
<g id="a_Node000004"><a xlink:href="classSystemOverrideManager.html#a1d774843ddf2350e4b0ebd78777733bf" target="_top" xlink:title="Slot called when the FloatingEnergySphereWidget emits its widgetClosed signal. Cleans up the widget p...">
<polygon fill="white" stroke="#666666" points="478.5,-217 329.75,-217 329.75,-188 478.5,-188 478.5,-217"/>
<text text-anchor="start" x="337.75" y="-203.5" font-family="Helvetica,sans-Serif" font-size="10.00">SystemOverrideManager</text>
<text text-anchor="middle" x="404.12" y="-193" font-family="Helvetica,sans-Serif" font-size="10.00">::HandleFloatingWidgetClosed</text>
</a>
</g>
</g>
<!-- Node2&#45;&gt;Node4 -->
<g id="edge3_Node000002_Node000004" class="edge">
<title>Node2&#45;&gt;Node4</title>
<g id="a_edge3_Node000002_Node000004"><a xlink:title=" ">
<path fill="none" stroke="#63b8ff" d="M293.3,-165.71C314.66,-171.15 338.29,-177.82 358.15,-184.06"/>
<polygon fill="#63b8ff" stroke="#63b8ff" points="357.01,-187.37 367.61,-187.11 359.16,-180.71 357.01,-187.37"/>
</a>
</g>
</g>
<!-- Node5 -->
<g id="Node000005" class="node">
<title>Node5</title>
<g id="a_Node000005"><a xlink:href="classSystemOverrideManager.html#ac2593eaad2d059efe9595fe96886ba7d" target="_top" xlink:title="Emitted when the system override sequence has finished and the system state has been restored.">
<polygon fill="white" stroke="#666666" points="465.38,-170 342.88,-170 342.88,-141 465.38,-141 465.38,-170"/>
<text text-anchor="start" x="350.88" y="-156.5" font-family="Helvetica,sans-Serif" font-size="10.00">SystemOverrideManager</text>
<text text-anchor="middle" x="404.12" y="-146" font-family="Helvetica,sans-Serif" font-size="10.00">::overrideFinished</text>
</a>
</g>
</g>
<!-- Node2&#45;&gt;Node5 -->
<g id="edge5_Node000002_Node000005" class="edge">
<title>Node2&#45;&gt;Node5</title>
<g id="a_edge5_Node000002_Node000005"><a xlink:title=" ">
<path fill="none" stroke="#63b8ff" d="M293.3,-155.5C305.53,-155.5 318.5,-155.5 331.08,-155.5"/>
<polygon fill="#63b8ff" stroke="#63b8ff" points="330.97,-159 340.97,-155.5 330.97,-152 330.97,-159"/>
</a>
</g>
</g>
<!-- Node6 -->
<g id="Node000006" class="node">
<title>Node6</title>
<g id="a_Node000006"><a xlink:href="classSystemOverrideManager.html#a8147e73709b13a6948f5ff871e2fd5c4" target="_top" xlink:title="Attempts to relaunch the application without administrative privileges (Windows only)....">
<polygon fill="white" stroke="#666666" points="465.38,-123 342.88,-123 342.88,-94 465.38,-94 465.38,-123"/>
<text text-anchor="start" x="350.88" y="-109.5" font-family="Helvetica,sans-Serif" font-size="10.00">SystemOverrideManager</text>
<text text-anchor="middle" x="404.12" y="-99" font-family="Helvetica,sans-Serif" font-size="10.00">::RelaunchNormally</text>
</a>
</g>
</g>
<!-- Node2&#45;&gt;Node6 -->
<g id="edge6_Node000002_Node000006" class="edge">
<title>Node2&#45;&gt;Node6</title>
<g id="a_edge6_Node000002_Node000006"><a xlink:title=" ">
<path fill="none" stroke="#63b8ff" d="M286.66,-140.63C302.97,-136.13 321.06,-131.14 338.03,-126.46"/>
<polygon fill="#63b8ff" stroke="#63b8ff" points="338.81,-129.87 347.52,-123.84 336.95,-123.12 338.81,-129.87"/>
</a>
</g>
</g>
<!-- Node7 -->
<g id="Node000007" class="node">
<title>Node7</title>
<g id="a_Node000007"><a xlink:href="classSystemOverrideManager.html#a96048d245f236a58c59e8212c4642bf9" target="_top" xlink:title="Restores the original desktop wallpaper saved by ChangeWallpaper(). Also removes the temporary black ...">
<polygon fill="white" stroke="#666666" points="465.38,-76 342.88,-76 342.88,-47 465.38,-47 465.38,-76"/>
<text text-anchor="start" x="350.88" y="-62.5" font-family="Helvetica,sans-Serif" font-size="10.00">SystemOverrideManager</text>
<text text-anchor="middle" x="404.12" y="-52" font-family="Helvetica,sans-Serif" font-size="10.00">::RestoreWallpaper</text>
</a>
</g>
</g>
<!-- Node2&#45;&gt;Node7 -->
<g id="edge8_Node000002_Node000007" class="edge">
<title>Node2&#45;&gt;Node7</title>
<g id="a_edge8_Node000002_Node000007"><a xlink:title=" ">
<path fill="none" stroke="#63b8ff" d="M249.75,-140.55C268.17,-124.98 298.99,-100.78 329,-85.5 332.42,-83.76 335.99,-82.11 339.64,-80.55"/>
<polygon fill="#63b8ff" stroke="#63b8ff" points="340.65,-83.92 348.65,-76.97 338.06,-77.41 340.65,-83.92"/>
</a>
</g>
</g>
<!-- Node8 -->
<g id="Node000008" class="node">
<title>Node8</title>
<g id="a_Node000008"><a xlink:href="classFloatingEnergySphereWidget.html#a29cc66014476f5961a48d45017506b7b" target="_top" xlink:title="Emitted when the widget is closed normally (not during destruction).">
<polygon fill="white" stroke="#666666" points="475.5,-29 332.75,-29 332.75,0 475.5,0 475.5,-29"/>
<text text-anchor="start" x="340.75" y="-15.5" font-family="Helvetica,sans-Serif" font-size="10.00">FloatingEnergySphereWidget</text>
<text text-anchor="middle" x="404.12" y="-5" font-family="Helvetica,sans-Serif" font-size="10.00">::widgetClosed</text>
</a>
</g>
</g>
<!-- Node2&#45;&gt;Node8 -->
<g id="edge9_Node000002_Node000008" class="edge">
<title>Node2&#45;&gt;Node8</title>
<g id="a_edge9_Node000002_Node000008"><a xlink:title=" ">
<path fill="none" stroke="#63b8ff" d="M241.1,-140.62C255.73,-115.85 288.34,-66.18 329,-38.5 331.09,-37.08 333.27,-35.73 335.51,-34.47"/>
<polygon fill="#63b8ff" stroke="#63b8ff" points="336.96,-37.66 344.35,-30.06 333.84,-31.39 336.96,-37.66"/>
</a>
</g>
</g>
<!-- Node4&#45;&gt;Node2 -->
<g id="edge4_Node000004_Node000002" class="edge">
<title>Node4&#45;&gt;Node2</title>
<g id="a_edge4_Node000004_Node000002"><a xlink:title=" ">
<path fill="none" stroke="#63b8ff" d="M329.33,-188.84C311.64,-184.13 293.29,-178.84 277.39,-173.83"/>
<polygon fill="#63b8ff" stroke="#63b8ff" points="278.85,-170.63 268.26,-170.89 276.7,-177.29 278.85,-170.63"/>
</a>
</g>
</g>
</g>
</svg>
</svg>

<style type='text/css'>
<![CDATA[
[data-mouse-over-selected='false'] { opacity: 0.7; }
[data-mouse-over-selected='true']  { opacity: 1.0; }
]]>
</style>
<script type="application/ecmascript"><![CDATA[
document.addEventListener('DOMContentLoaded', (event) => {
  highlightEdges();
  highlightAdjacentNodes();
});
]]></script>
</svg>
