<?xml version="1.0" encoding="UTF-8" standalone="no"?>
<!DOCTYPE svg PUBLIC "-//W3C//DTD SVG 1.1//EN"
 "http://www.w3.org/Graphics/SVG/1.1/DTD/svg11.dtd">
<!-- Generated by graphviz version 12.2.1 (0)
 -->
<!-- Title: HandprintLayer::HandprintLayer Pages: 1 -->
<svg width="735pt" height="176pt"
 viewBox="0.00 0.00 735.00 175.75" xmlns="http://www.w3.org/2000/svg" xmlns:xlink="http://www.w3.org/1999/xlink">
<g id="graph0" class="graph" transform="scale(1 1) rotate(0) translate(4 171.75)">
<title>HandprintLayer::HandprintLayer</title>
<!-- Node1 -->
<g id="Node000001" class="node">
<title>Node1</title>
<g id="a_Node000001"><a xlink:title="Constructs a HandprintLayer. Initializes the UI elements (title, handprint image label,...">
<polygon fill="#999999" stroke="#666666" points="129.25,-104.75 0,-104.75 0,-75.75 129.25,-75.75 129.25,-104.75"/>
<text text-anchor="start" x="8" y="-91.25" font-family="Helvetica,sans-Serif" font-size="10.00">HandprintLayer::Handprint</text>
<text text-anchor="middle" x="64.62" y="-80.75" font-family="Helvetica,sans-Serif" font-size="10.00">Layer</text>
</a>
</g>
</g>
<!-- Node2 -->
<g id="Node000002" class="node">
<title>Node2</title>
<g id="a_Node000002"><a xlink:href="classTranslationManager.html#a370292d4133519fccf401a6b27b2f6a6" target="_top" xlink:title="Returns an instance of the TranslationManager singleton.">
<polygon fill="white" stroke="#666666" points="294.5,-167.75 193.75,-167.75 193.75,-138.75 294.5,-138.75 294.5,-167.75"/>
<text text-anchor="start" x="201.75" y="-154.25" font-family="Helvetica,sans-Serif" font-size="10.00">TranslationManager</text>
<text text-anchor="middle" x="244.12" y="-143.75" font-family="Helvetica,sans-Serif" font-size="10.00">::GetInstance</text>
</a>
</g>
</g>
<!-- Node1&#45;&gt;Node2 -->
<g id="edge1_Node000001_Node000002" class="edge">
<title>Node1&#45;&gt;Node2</title>
<g id="a_edge1_Node000001_Node000002"><a xlink:title=" ">
<path fill="none" stroke="#63b8ff" d="M101.82,-105.17C120.62,-112.72 144.03,-121.84 165.25,-129.25 170.93,-131.23 176.86,-133.22 182.82,-135.15"/>
<polygon fill="#63b8ff" stroke="#63b8ff" points="181.48,-138.4 192.07,-138.1 183.6,-131.73 181.48,-138.4"/>
</a>
</g>
</g>
<!-- Node4 -->
<g id="Node000004" class="node">
<title>Node4</title>
<g id="a_Node000004"><a xlink:href="classSecurityLayer.html#adc79fa2453a0034a739a7cfcc225db42" target="_top" xlink:title="Constructs a SecurityLayer.">
<polygon fill="white" stroke="#666666" points="314.38,-120.5 173.88,-120.5 173.88,-102 314.38,-102 314.38,-120.5"/>
<text text-anchor="middle" x="244.12" y="-107" font-family="Helvetica,sans-Serif" font-size="10.00">SecurityLayer::SecurityLayer</text>
</a>
</g>
</g>
<!-- Node1&#45;&gt;Node4 -->
<g id="edge3_Node000001_Node000004" class="edge">
<title>Node1&#45;&gt;Node4</title>
<g id="a_edge3_Node000001_Node000004"><a xlink:title=" ">
<path fill="none" stroke="#63b8ff" d="M129.71,-97.83C140.25,-99.08 151.29,-100.38 162.17,-101.67"/>
<polygon fill="#63b8ff" stroke="#63b8ff" points="161.59,-105.13 171.93,-102.83 162.41,-98.18 161.59,-105.13"/>
</a>
</g>
</g>
<!-- Node5 -->
<g id="Node000005" class="node">
<title>Node5</title>
<g id="a_Node000005"><a xlink:href="classTranslationManager.html#ab6435893ce84a82ab11a7604aa9746d6" target="_top" xlink:title="Retrieves the translated string for the specified key.">
<polygon fill="white" stroke="#666666" points="294.5,-83.75 193.75,-83.75 193.75,-54.75 294.5,-54.75 294.5,-83.75"/>
<text text-anchor="start" x="201.75" y="-70.25" font-family="Helvetica,sans-Serif" font-size="10.00">TranslationManager</text>
<text text-anchor="middle" x="244.12" y="-59.75" font-family="Helvetica,sans-Serif" font-size="10.00">::Translate</text>
</a>
</g>
</g>
<!-- Node1&#45;&gt;Node5 -->
<g id="edge4_Node000001_Node000005" class="edge">
<title>Node1&#45;&gt;Node5</title>
<g id="a_edge4_Node000001_Node000005"><a xlink:title=" ">
<path fill="none" stroke="#63b8ff" d="M129.71,-82.67C146.73,-80.65 165.07,-78.48 181.94,-76.49"/>
<polygon fill="#63b8ff" stroke="#63b8ff" points="182.32,-79.97 191.84,-75.32 181.5,-73.02 182.32,-79.97"/>
</a>
</g>
</g>
<!-- Node6 -->
<g id="Node000006" class="node">
<title>Node6</title>
<g id="a_Node000006"><a xlink:href="classHandprintLayer.html#a7153d3b1fcc6d838df1f335be5f124d4" target="_top" xlink:title="Slot called periodically by handprint_timer_ when the user is holding the mouse button....">
<polygon fill="white" stroke="#666666" points="323,-36.5 165.25,-36.5 165.25,-18 323,-18 323,-36.5"/>
<text text-anchor="middle" x="244.12" y="-23" font-family="Helvetica,sans-Serif" font-size="10.00">HandprintLayer::UpdateProgress</text>
</a>
</g>
</g>
<!-- Node1&#45;&gt;Node6 -->
<g id="edge5_Node000001_Node000006" class="edge">
<title>Node1&#45;&gt;Node6</title>
<g id="a_edge5_Node000001_Node000006"><a xlink:title=" ">
<path fill="none" stroke="#63b8ff" d="M95.59,-75.35C115.09,-66.08 141.26,-54.4 165.25,-46.25 172.07,-43.93 179.33,-41.77 186.55,-39.8"/>
<polygon fill="#63b8ff" stroke="#63b8ff" points="187.18,-43.26 195.97,-37.35 185.42,-36.48 187.18,-43.26"/>
</a>
</g>
</g>
<!-- Node3 -->
<g id="Node000003" class="node">
<title>Node3</title>
<g id="a_Node000003"><a xlink:href="classTranslationManager.html#afcf7f2ccfdf410f09d0a740c1826a1f3" target="_top" xlink:title="Private constructor to enforce the singleton pattern.">
<polygon fill="white" stroke="#666666" points="504,-167.75 397.25,-167.75 397.25,-138.75 504,-138.75 504,-167.75"/>
<text text-anchor="start" x="405.25" y="-154.25" font-family="Helvetica,sans-Serif" font-size="10.00">TranslationManager</text>
<text text-anchor="middle" x="450.62" y="-143.75" font-family="Helvetica,sans-Serif" font-size="10.00">::TranslationManager</text>
</a>
</g>
</g>
<!-- Node2&#45;&gt;Node3 -->
<g id="edge2_Node000002_Node000003" class="edge">
<title>Node2&#45;&gt;Node3</title>
<g id="a_edge2_Node000002_Node000003"><a xlink:title=" ">
<path fill="none" stroke="#63b8ff" d="M294.89,-153.25C322.13,-153.25 356.19,-153.25 385.42,-153.25"/>
<polygon fill="#63b8ff" stroke="#63b8ff" points="385.26,-156.75 395.26,-153.25 385.26,-149.75 385.26,-156.75"/>
</a>
</g>
</g>
<!-- Node7 -->
<g id="Node000007" class="node">
<title>Node7</title>
<g id="a_Node000007"><a xlink:href="classHandprintLayer.html#a8bfdc6419e93709149f942109421218b" target="_top" xlink:title="Handles the completion of the handprint scan. Changes the UI element styles (border,...">
<polygon fill="white" stroke="#666666" points="533.25,-55.5 368,-55.5 368,-37 533.25,-37 533.25,-55.5"/>
<text text-anchor="middle" x="450.62" y="-42" font-family="Helvetica,sans-Serif" font-size="10.00">HandprintLayer::ProcessHandprint</text>
</a>
</g>
</g>
<!-- Node6&#45;&gt;Node7 -->
<g id="edge6_Node000006_Node000007" class="edge">
<title>Node6&#45;&gt;Node7</title>
<g id="a_edge6_Node000006_Node000007"><a xlink:title=" ">
<path fill="none" stroke="#63b8ff" d="M323.31,-34.51C334.11,-35.52 345.28,-36.56 356.32,-37.58"/>
<polygon fill="#63b8ff" stroke="#63b8ff" points="355.96,-41.06 366.24,-38.5 356.61,-34.09 355.96,-41.06"/>
</a>
</g>
</g>
<!-- Node9 -->
<g id="Node000009" class="node">
<title>Node9</title>
<g id="a_Node000009"><a xlink:href="classHandprintLayer.html#a5c7f6a6adad5116e806d557a093d7919" target="_top" xlink:title="Updates the visual appearance of the handprint image during the scan. Renders the SVG and applies a c...">
<polygon fill="white" stroke="#666666" points="542.25,-18.5 359,-18.5 359,0 542.25,0 542.25,-18.5"/>
<text text-anchor="middle" x="450.62" y="-5" font-family="Helvetica,sans-Serif" font-size="10.00">HandprintLayer::UpdateHandprintScan</text>
</a>
</g>
</g>
<!-- Node6&#45;&gt;Node9 -->
<g id="edge8_Node000006_Node000009" class="edge">
<title>Node6&#45;&gt;Node9</title>
<g id="a_edge8_Node000006_Node000009"><a xlink:title=" ">
<path fill="none" stroke="#63b8ff" d="M323.31,-20.37C331.21,-19.67 339.3,-18.96 347.4,-18.25"/>
<polygon fill="#63b8ff" stroke="#63b8ff" points="347.66,-21.74 357.32,-17.37 347.05,-14.77 347.66,-21.74"/>
</a>
</g>
</g>
<!-- Node8 -->
<g id="Node000008" class="node">
<title>Node8</title>
<g id="a_Node000008"><a xlink:href="classSecurityLayer.html#a6b6759d7fd1e729ff63ea9be3c121878" target="_top" xlink:title="Emitted when the user successfully completes the security challenge presented by this layer.">
<polygon fill="white" stroke="#666666" points="727,-55.5 578.25,-55.5 578.25,-37 727,-37 727,-55.5"/>
<text text-anchor="middle" x="652.62" y="-42" font-family="Helvetica,sans-Serif" font-size="10.00">SecurityLayer::layerCompleted</text>
</a>
</g>
</g>
<!-- Node7&#45;&gt;Node8 -->
<g id="edge7_Node000007_Node000008" class="edge">
<title>Node7&#45;&gt;Node8</title>
<g id="a_edge7_Node000007_Node000008"><a xlink:title=" ">
<path fill="none" stroke="#63b8ff" d="M533.55,-46.25C544.44,-46.25 555.62,-46.25 566.56,-46.25"/>
<polygon fill="#63b8ff" stroke="#63b8ff" points="566.34,-49.75 576.34,-46.25 566.34,-42.75 566.34,-49.75"/>
</a>
</g>
</g>
</g>
</svg>
