<?xml version="1.0" encoding="UTF-8" standalone="no"?>
<!DOCTYPE svg PUBLIC "-//W3C//DTD SVG 1.1//EN"
 "http://www.w3.org/Graphics/SVG/1.1/DTD/svg11.dtd">
<!-- Generated by graphviz version 12.2.1 (0)
 -->
<!-- Title: MessageService::GetSocketForFrequency Pages: 1 -->
<svg width="435pt" height="105pt"
 viewBox="0.00 0.00 434.75 105.00" xmlns="http://www.w3.org/2000/svg" xmlns:xlink="http://www.w3.org/1999/xlink">
<g id="graph0" class="graph" transform="scale(1 1) rotate(0) translate(4 101)">
<title>MessageService::GetSocketForFrequency</title>
<!-- Node1 -->
<g id="Node000001" class="node">
<title>Node1</title>
<g id="a_Node000001"><a xlink:title="Helper function to retrieve the active WebSocket connection for a given frequency....">
<polygon fill="#999999" stroke="#666666" points="141.25,-50 0,-50 0,-21 141.25,-21 141.25,-50"/>
<text text-anchor="start" x="8" y="-36.5" font-family="Helvetica,sans-Serif" font-size="10.00">MessageService::GetSocket</text>
<text text-anchor="middle" x="70.62" y="-26" font-family="Helvetica,sans-Serif" font-size="10.00">ForFrequency</text>
</a>
</g>
</g>
<!-- Node2 -->
<g id="Node000002" class="node">
<title>Node2</title>
<g id="a_Node000002"><a xlink:href="classWavelengthRegistry.html#a84a25c38915431306681e96df429f20f" target="_top" xlink:title="Gets the singleton instance of the WavelengthRegistry.">
<polygon fill="white" stroke="#666666" points="281,-97 178,-97 178,-68 281,-68 281,-97"/>
<text text-anchor="start" x="186" y="-83.5" font-family="Helvetica,sans-Serif" font-size="10.00">WavelengthRegistry</text>
<text text-anchor="middle" x="229.5" y="-73" font-family="Helvetica,sans-Serif" font-size="10.00">::GetInstance</text>
</a>
</g>
</g>
<!-- Node1&#45;&gt;Node2 -->
<g id="edge1_Node000001_Node000002" class="edge">
<title>Node1&#45;&gt;Node2</title>
<g id="a_edge1_Node000001_Node000002"><a xlink:title=" ">
<path fill="none" stroke="#63b8ff" d="M121.26,-50.37C136,-54.79 152.31,-59.67 167.67,-64.27"/>
<polygon fill="#63b8ff" stroke="#63b8ff" points="166.61,-67.61 177.2,-67.13 168.62,-60.91 166.61,-67.61"/>
</a>
</g>
</g>
<!-- Node4 -->
<g id="Node000004" class="node">
<title>Node4</title>
<g id="a_Node000004"><a xlink:href="classWavelengthRegistry.html#a022bb5799d095b75026019791ebf5e34" target="_top" xlink:title="Retrieves the WavelengthInfo for a specific frequency.">
<polygon fill="white" stroke="#666666" points="281.75,-50 177.25,-50 177.25,-21 281.75,-21 281.75,-50"/>
<text text-anchor="start" x="185.25" y="-36.5" font-family="Helvetica,sans-Serif" font-size="10.00">WavelengthRegistry</text>
<text text-anchor="middle" x="229.5" y="-26" font-family="Helvetica,sans-Serif" font-size="10.00">::GetWavelengthInfo</text>
</a>
</g>
</g>
<!-- Node1&#45;&gt;Node4 -->
<g id="edge3_Node000001_Node000004" class="edge">
<title>Node1&#45;&gt;Node4</title>
<g id="a_edge3_Node000001_Node000004"><a xlink:title=" ">
<path fill="none" stroke="#63b8ff" d="M141.35,-35.5C149.37,-35.5 157.52,-35.5 165.46,-35.5"/>
<polygon fill="#63b8ff" stroke="#63b8ff" points="165.37,-39 175.37,-35.5 165.37,-32 165.37,-39"/>
</a>
</g>
</g>
<!-- Node5 -->
<g id="Node000005" class="node">
<title>Node5</title>
<g id="a_Node000005"><a xlink:href="classWavelengthRegistry.html#a998a355d30053edcff8aac04c7d7dc55" target="_top" xlink:title="Checks if a wavelength with the given frequency exists in the registry.">
<polygon fill="white" stroke="#666666" points="423.75,-29 320.75,-29 320.75,0 423.75,0 423.75,-29"/>
<text text-anchor="start" x="328.75" y="-15.5" font-family="Helvetica,sans-Serif" font-size="10.00">WavelengthRegistry</text>
<text text-anchor="middle" x="372.25" y="-5" font-family="Helvetica,sans-Serif" font-size="10.00">::HasWavelength</text>
</a>
</g>
</g>
<!-- Node1&#45;&gt;Node5 -->
<g id="edge5_Node000001_Node000005" class="edge">
<title>Node1&#45;&gt;Node5</title>
<g id="a_edge5_Node000001_Node000005"><a xlink:title=" ">
<path fill="none" stroke="#63b8ff" d="M129.65,-20.53C145.02,-17.21 161.67,-14.18 177.25,-12.5 223.43,-7.53 235.31,-11.98 281.75,-12.5 290.6,-12.6 299.94,-12.75 309.12,-12.93"/>
<polygon fill="#63b8ff" stroke="#63b8ff" points="309.02,-16.43 319.09,-13.14 309.17,-9.43 309.02,-16.43"/>
</a>
</g>
</g>
<!-- Node3 -->
<g id="Node000003" class="node">
<title>Node3</title>
<g id="a_Node000003"><a xlink:href="classWavelengthRegistry.html#a5ad0b9c059e6c70af54fd27e35035e64" target="_top" xlink:title="Private constructor to enforce the singleton pattern. Initializes active_wavelength_ to &quot;&#45;1&quot;.">
<polygon fill="white" stroke="#666666" points="426.75,-97 317.75,-97 317.75,-68 426.75,-68 426.75,-97"/>
<text text-anchor="start" x="325.75" y="-83.5" font-family="Helvetica,sans-Serif" font-size="10.00">WavelengthRegistry</text>
<text text-anchor="middle" x="372.25" y="-73" font-family="Helvetica,sans-Serif" font-size="10.00">::WavelengthRegistry</text>
</a>
</g>
</g>
<!-- Node2&#45;&gt;Node3 -->
<g id="edge2_Node000002_Node000003" class="edge">
<title>Node2&#45;&gt;Node3</title>
<g id="a_edge2_Node000002_Node000003"><a xlink:title=" ">
<path fill="none" stroke="#63b8ff" d="M281.31,-82.5C289.43,-82.5 297.93,-82.5 306.33,-82.5"/>
<polygon fill="#63b8ff" stroke="#63b8ff" points="306.15,-86 316.15,-82.5 306.15,-79 306.15,-86"/>
</a>
</g>
</g>
<!-- Node4&#45;&gt;Node5 -->
<g id="edge4_Node000004_Node000005" class="edge">
<title>Node4&#45;&gt;Node5</title>
<g id="a_edge4_Node000004_Node000005"><a xlink:title=" ">
<path fill="none" stroke="#63b8ff" d="M282.11,-27.8C290.94,-26.48 300.19,-25.1 309.25,-23.75"/>
<polygon fill="#63b8ff" stroke="#63b8ff" points="309.71,-27.22 319.09,-22.28 308.68,-20.3 309.71,-27.22"/>
</a>
</g>
</g>
</g>
</svg>
