<?xml version="1.0" encoding="UTF-8" standalone="no"?>
<!DOCTYPE svg PUBLIC "-//W3C//DTD SVG 1.1//EN"
 "http://www.w3.org/Graphics/SVG/1.1/DTD/svg11.dtd">
<!-- Generated by graphviz version 12.2.1 (0)
 -->
<!-- Title: ChatView::CalculateAmplitude Pages: 1 -->
<svg width="1204pt" height="138pt"
 viewBox="0.00 0.00 1203.75 137.50" xmlns="http://www.w3.org/2000/svg" xmlns:xlink="http://www.w3.org/1999/xlink">
<g id="graph0" class="graph" transform="scale(1 1) rotate(0) translate(4 133.5)">
<title>ChatView::CalculateAmplitude</title>
<!-- Node1 -->
<g id="Node000001" class="node">
<title>Node1</title>
<g id="a_Node000001"><a xlink:title="Calculates the Root Mean Square (RMS) amplitude of a raw audio buffer. Used for audio visualization....">
<polygon fill="#999999" stroke="#666666" points="1195.75,-110.5 1047.75,-110.5 1047.75,-92 1195.75,-92 1195.75,-110.5"/>
<text text-anchor="middle" x="1121.75" y="-97" font-family="Helvetica,sans-Serif" font-size="10.00">ChatView::CalculateAmplitude</text>
</a>
</g>
</g>
<!-- Node2 -->
<g id="Node000002" class="node">
<title>Node2</title>
<g id="a_Node000002"><a xlink:href="classChatView.html#a78ee69626741e4bebc50a5222b80b868" target="_top" xlink:title="Slot called when binary audio data is received from the server. If the frequency matches and the stat...">
<polygon fill="white" stroke="#666666" points="827,-129.5 665.5,-129.5 665.5,-111 827,-111 827,-129.5"/>
<text text-anchor="middle" x="746.25" y="-116" font-family="Helvetica,sans-Serif" font-size="10.00">ChatView::OnAudioDataReceived</text>
</a>
</g>
</g>
<!-- Node1&#45;&gt;Node2 -->
<g id="edge1_Node000001_Node000002" class="edge">
<title>Node1&#45;&gt;Node2</title>
<g id="a_edge1_Node000001_Node000002"><a xlink:title=" ">
<path fill="none" stroke="#63b8ff" d="M1035.98,-105.56C973.36,-108.75 888.67,-113.06 827.22,-116.18"/>
<polygon fill="#63b8ff" stroke="#63b8ff" points="1036.08,-109.06 1045.89,-105.06 1035.73,-102.07 1036.08,-109.06"/>
</a>
</g>
</g>
<!-- Node4 -->
<g id="Node000004" class="node">
<title>Node4</title>
<g id="a_Node000004"><a xlink:href="classChatView.html#a034774a31cd27434eeb01e9965736aeb" target="_top" xlink:title="Slot called when the audio input device has data ready to be read. Reads all available audio data,...">
<polygon fill="white" stroke="#666666" points="1011.75,-92.5 863,-92.5 863,-74 1011.75,-74 1011.75,-92.5"/>
<text text-anchor="middle" x="937.38" y="-79" font-family="Helvetica,sans-Serif" font-size="10.00">ChatView::OnReadyReadInput</text>
</a>
</g>
</g>
<!-- Node1&#45;&gt;Node4 -->
<g id="edge3_Node000001_Node000004" class="edge">
<title>Node1&#45;&gt;Node4</title>
<g id="a_edge3_Node000001_Node000004"><a xlink:title=" ">
<path fill="none" stroke="#63b8ff" d="M1036.13,-92.9C1028.14,-92.11 1020.09,-91.31 1012.21,-90.54"/>
<polygon fill="#63b8ff" stroke="#63b8ff" points="1035.56,-96.36 1045.85,-93.86 1036.25,-89.39 1035.56,-96.36"/>
</a>
</g>
</g>
<!-- Node3 -->
<g id="Node000003" class="node">
<title>Node3</title>
<g id="a_Node000003"><a xlink:href="classChatView.html#ad2db6f12afdba4b49ec7775b2d560ad3" target="_top" xlink:title="Constructs a WavelengthChatView. Initializes the UI elements (labels, message area,...">
<polygon fill="white" stroke="#666666" points="106.75,-73.5 0,-73.5 0,-55 106.75,-55 106.75,-73.5"/>
<text text-anchor="middle" x="53.38" y="-60" font-family="Helvetica,sans-Serif" font-size="10.00">ChatView::ChatView</text>
</a>
</g>
</g>
<!-- Node2&#45;&gt;Node3 -->
<g id="edge2_Node000002_Node000003" class="edge">
<title>Node2&#45;&gt;Node3</title>
<g id="a_edge2_Node000002_Node000003"><a xlink:title=" ">
<path fill="none" stroke="#63b8ff" d="M654.1,-119.96C535.57,-118.34 322.44,-111.17 142.75,-82.25 128.22,-79.91 112.44,-76.86 98.3,-73.94"/>
<polygon fill="#63b8ff" stroke="#63b8ff" points="653.72,-123.46 663.76,-120.08 653.8,-116.46 653.72,-123.46"/>
</a>
</g>
</g>
<!-- Node5 -->
<g id="Node000005" class="node">
<title>Node5</title>
<g id="a_Node000005"><a xlink:href="classChatView.html#a119a0cb1a68f2e3a60e4153912fa43f2" target="_top" xlink:title="Starts capturing audio from the microphone if PTT state is Transmitting. Connects the readyRead signa...">
<polygon fill="white" stroke="#666666" points="435,-92.5 302.75,-92.5 302.75,-74 435,-74 435,-92.5"/>
<text text-anchor="middle" x="368.88" y="-79" font-family="Helvetica,sans-Serif" font-size="10.00">ChatView::StartAudioInput</text>
</a>
</g>
</g>
<!-- Node4&#45;&gt;Node5 -->
<g id="edge4_Node000004_Node000005" class="edge">
<title>Node4&#45;&gt;Node5</title>
<g id="a_edge4_Node000004_Node000005"><a xlink:title=" ">
<path fill="none" stroke="#63b8ff" d="M851.19,-83.25C737.33,-83.25 538.01,-83.25 435.25,-83.25"/>
<polygon fill="#63b8ff" stroke="#63b8ff" points="851.09,-86.75 861.09,-83.25 851.09,-79.75 851.09,-86.75"/>
</a>
</g>
</g>
<!-- Node7 -->
<g id="Node000007" class="node">
<title>Node7</title>
<g id="a_Node000007"><a xlink:href="classChatView.html#abd9ae8e738358b9be6f5e935ea4826a3" target="_top" xlink:title="Stops capturing audio from the microphone. Disconnects signals and resets the input device pointer.">
<polygon fill="white" stroke="#666666" points="811.62,-55.5 680.88,-55.5 680.88,-37 811.62,-37 811.62,-55.5"/>
<text text-anchor="middle" x="746.25" y="-42" font-family="Helvetica,sans-Serif" font-size="10.00">ChatView::StopAudioInput</text>
</a>
</g>
</g>
<!-- Node4&#45;&gt;Node7 -->
<g id="edge7_Node000004_Node000007" class="edge">
<title>Node4&#45;&gt;Node7</title>
<g id="a_edge7_Node000004_Node000007"><a xlink:title=" ">
<path fill="none" stroke="#63b8ff" d="M875.67,-71.37C850.25,-66.4 821.06,-60.69 796.94,-55.97"/>
<polygon fill="#63b8ff" stroke="#63b8ff" points="874.71,-74.75 885.2,-73.24 876.06,-67.88 874.71,-74.75"/>
</a>
</g>
</g>
<!-- Node6 -->
<g id="Node000006" class="node">
<title>Node6</title>
<g id="a_Node000006"><a xlink:href="classChatView.html#ae1708fe2be43fe0f0bf4e000d968b385" target="_top" xlink:title="Slot called when the server grants the PTT request. If the frequency matches and the state is Request...">
<polygon fill="white" stroke="#666666" points="266.75,-73.5 142.75,-73.5 142.75,-55 266.75,-55 266.75,-73.5"/>
<text text-anchor="middle" x="204.75" y="-60" font-family="Helvetica,sans-Serif" font-size="10.00">ChatView::OnPttGranted</text>
</a>
</g>
</g>
<!-- Node5&#45;&gt;Node6 -->
<g id="edge5_Node000005_Node000006" class="edge">
<title>Node5&#45;&gt;Node6</title>
<g id="a_edge5_Node000005_Node000006"><a xlink:title=" ">
<path fill="none" stroke="#63b8ff" d="M291.06,-74.25C282.99,-73.3 274.87,-72.35 267.01,-71.43"/>
<polygon fill="#63b8ff" stroke="#63b8ff" points="290.56,-77.71 300.9,-75.4 291.37,-70.76 290.56,-77.71"/>
</a>
</g>
</g>
<!-- Node6&#45;&gt;Node3 -->
<g id="edge6_Node000006_Node000003" class="edge">
<title>Node6&#45;&gt;Node3</title>
<g id="a_edge6_Node000006_Node000003"><a xlink:title=" ">
<path fill="none" stroke="#63b8ff" d="M131.16,-64.25C123.05,-64.25 114.9,-64.25 107.11,-64.25"/>
<polygon fill="#63b8ff" stroke="#63b8ff" points="131.05,-67.75 141.05,-64.25 131.05,-60.75 131.05,-67.75"/>
</a>
</g>
</g>
<!-- Node8 -->
<g id="Node000008" class="node">
<title>Node8</title>
<g id="a_Node000008"><a xlink:href="classChatView.html#ac40ec4de8eddc9ea4fc2d3e210aa6c4d" target="_top" xlink:title="Slot called when the PTT button is released. Plays the PTT deactivation sound. If transmitting,...">
<polygon fill="#fff0f0" stroke="red" points="629.5,-55.5 471,-55.5 471,-37 629.5,-37 629.5,-55.5"/>
<text text-anchor="middle" x="550.25" y="-42" font-family="Helvetica,sans-Serif" font-size="10.00">ChatView::OnPttButtonReleased</text>
</a>
</g>
</g>
<!-- Node7&#45;&gt;Node8 -->
<g id="edge8_Node000007_Node000008" class="edge">
<title>Node7&#45;&gt;Node8</title>
<g id="a_edge8_Node000007_Node000008"><a xlink:title=" ">
<path fill="none" stroke="#63b8ff" d="M669.19,-46.25C656.28,-46.25 642.85,-46.25 629.87,-46.25"/>
<polygon fill="#63b8ff" stroke="#63b8ff" points="668.87,-49.75 678.87,-46.25 668.87,-42.75 668.87,-49.75"/>
</a>
</g>
</g>
<!-- Node10 -->
<g id="Node000010" class="node">
<title>Node10</title>
<g id="a_Node000010"><a xlink:href="classChatView.html#a7fb02c0ac57330d91ab4afb26da50514" target="_top" xlink:title="Destructor. Stops audio input/output and cleans up audio resources.">
<polygon fill="white" stroke="#666666" points="606.62,-18.5 493.88,-18.5 493.88,0 606.62,0 606.62,-18.5"/>
<text text-anchor="middle" x="550.25" y="-5" font-family="Helvetica,sans-Serif" font-size="10.00">ChatView::~ChatView</text>
</a>
</g>
</g>
<!-- Node7&#45;&gt;Node10 -->
<g id="edge12_Node000007_Node000010" class="edge">
<title>Node7&#45;&gt;Node10</title>
<g id="a_edge12_Node000007_Node000010"><a xlink:title=" ">
<path fill="none" stroke="#63b8ff" d="M682.98,-34.37C656.9,-29.4 626.96,-23.69 602.22,-18.97"/>
<polygon fill="#63b8ff" stroke="#63b8ff" points="682.31,-37.81 692.79,-36.25 683.62,-30.93 682.31,-37.81"/>
</a>
</g>
</g>
<!-- Node8&#45;&gt;Node3 -->
<g id="edge9_Node000008_Node000003" class="edge">
<title>Node8&#45;&gt;Node3</title>
<g id="a_edge9_Node000008_Node000003"><a xlink:title=" ">
<path fill="none" stroke="#63b8ff" d="M459.35,-41.09C376.81,-37.58 251.22,-35.32 142.75,-46.25 126.39,-47.9 108.59,-51.22 93.27,-54.57"/>
<polygon fill="#63b8ff" stroke="#63b8ff" points="459.05,-44.58 469.2,-41.53 459.36,-37.59 459.05,-44.58"/>
</a>
</g>
</g>
<!-- Node8&#45;&gt;Node5 -->
<g id="edge11_Node000008_Node000005" class="edge">
<title>Node8&#45;&gt;Node5</title>
<g id="a_edge11_Node000008_Node000005"><a xlink:title=" ">
<path fill="none" stroke="#63b8ff" d="M491.03,-58.26C467.06,-63.2 439.67,-68.85 417,-73.53"/>
<polygon fill="#63b8ff" stroke="#63b8ff" points="491.55,-61.73 500.64,-56.28 490.14,-54.87 491.55,-61.73"/>
</a>
</g>
</g>
<!-- Node8&#45;&gt;Node6 -->
<g id="edge10_Node000008_Node000006" class="edge">
<title>Node8&#45;&gt;Node6</title>
<g id="a_edge10_Node000008_Node000006"><a xlink:title=" ">
<path fill="none" stroke="#63b8ff" d="M459.41,-50.96C398.91,-54.13 320.71,-58.23 267.23,-61.03"/>
<polygon fill="#63b8ff" stroke="#63b8ff" points="459.56,-54.45 469.36,-50.44 459.19,-47.46 459.56,-54.45"/>
</a>
</g>
</g>
</g>
</svg>
