<?xml version="1.0" encoding="UTF-8" standalone="no"?>
<!DOCTYPE svg PUBLIC "-//W3C//DTD SVG 1.1//EN"
 "http://www.w3.org/Graphics/SVG/1.1/DTD/svg11.dtd">
<!-- Generated by graphviz version 12.2.1 (0)
 -->
<!-- Title: VideoPlayer::UpdateSliderPosition Pages: 1 -->
<svg width="650pt" height="51pt"
 viewBox="0.00 0.00 650.25 50.75" xmlns="http://www.w3.org/2000/svg" xmlns:xlink="http://www.w3.org/1999/xlink">
<g id="graph0" class="graph" transform="scale(1 1) rotate(0) translate(4 46.75)">
<title>VideoPlayer::UpdateSliderPosition</title>
<!-- Node1 -->
<g id="Node000001" class="node">
<title>Node1</title>
<g id="a_Node000001"><a xlink:title="Slot connected to the decoder&#39;s positionChanged signal. Updates the progress slider&#39;s position and th...">
<polygon fill="#999999" stroke="#666666" points="642.25,-29 512.25,-29 512.25,0 642.25,0 642.25,-29"/>
<text text-anchor="start" x="520.25" y="-15.5" font-family="Helvetica,sans-Serif" font-size="10.00">VideoPlayer::UpdateSlider</text>
<text text-anchor="middle" x="577.25" y="-5" font-family="Helvetica,sans-Serif" font-size="10.00">Position</text>
</a>
</g>
</g>
<!-- Node2 -->
<g id="Node000002" class="node">
<title>Node2</title>
<g id="a_Node000002"><a xlink:href="classVideoPlayer.html#a6f8d803263d342bf12f9cf29c40536de" target="_top" xlink:title="Initializes the VideoDecoder instance and connects its signals. Creates the decoder,...">
<polygon fill="white" stroke="#666666" points="476.25,-23.75 340.25,-23.75 340.25,-5.25 476.25,-5.25 476.25,-23.75"/>
<text text-anchor="middle" x="408.25" y="-10.25" font-family="Helvetica,sans-Serif" font-size="10.00">VideoPlayer::InitializePlayer</text>
</a>
</g>
</g>
<!-- Node1&#45;&gt;Node2 -->
<g id="edge1_Node000001_Node000002" class="edge">
<title>Node1&#45;&gt;Node2</title>
<g id="a_edge1_Node000001_Node000002"><a xlink:title=" ">
<path fill="none" stroke="#63b8ff" d="M500.8,-14.5C492.7,-14.5 484.49,-14.5 476.49,-14.5"/>
<polygon fill="#63b8ff" stroke="#63b8ff" points="500.65,-18 510.65,-14.5 500.65,-11 500.65,-18"/>
</a>
</g>
</g>
<!-- Node3 -->
<g id="Node000003" class="node">
<title>Node3</title>
<g id="a_Node000003"><a xlink:href="classVideoPlayer.html#aee93bdf909227c7d4f7c48eca8874af6" target="_top" xlink:title="Toggles the playback state (play/pause) or resets if finished. If finished, resets the decoder....">
<polygon fill="white" stroke="#666666" points="304.25,-42.75 161.5,-42.75 161.5,-24.25 304.25,-24.25 304.25,-42.75"/>
<text text-anchor="middle" x="232.88" y="-29.25" font-family="Helvetica,sans-Serif" font-size="10.00">VideoPlayer::TogglePlayback</text>
</a>
</g>
</g>
<!-- Node2&#45;&gt;Node3 -->
<g id="edge2_Node000002_Node000003" class="edge">
<title>Node2&#45;&gt;Node3</title>
<g id="a_edge2_Node000002_Node000003"><a xlink:title=" ">
<path fill="none" stroke="#63b8ff" d="M328.92,-23.08C320.87,-23.97 312.72,-24.86 304.75,-25.73"/>
<polygon fill="#63b8ff" stroke="#63b8ff" points="329.15,-26.58 338.71,-22.01 328.39,-19.62 329.15,-26.58"/>
</a>
</g>
</g>
<!-- Node4 -->
<g id="Node000004" class="node">
<title>Node4</title>
<g id="a_Node000004"><a xlink:href="classVideoPlayer.html#a6ee50b34775069f86b0cace600c3923c" target="_top" xlink:title="Constructs a VideoPlayerOverlay dialog. Initializes the cyberpunk UI elements, sets window properties...">
<polygon fill="white" stroke="#666666" points="125.5,-23.75 0,-23.75 0,-5.25 125.5,-5.25 125.5,-23.75"/>
<text text-anchor="middle" x="62.75" y="-10.25" font-family="Helvetica,sans-Serif" font-size="10.00">VideoPlayer::VideoPlayer</text>
</a>
</g>
</g>
<!-- Node2&#45;&gt;Node4 -->
<g id="edge4_Node000002_Node000004" class="edge">
<title>Node2&#45;&gt;Node4</title>
<g id="a_edge4_Node000002_Node000004"><a xlink:title=" ">
<path fill="none" stroke="#63b8ff" d="M328.58,-14.5C267.05,-14.5 182.69,-14.5 125.85,-14.5"/>
<polygon fill="#63b8ff" stroke="#63b8ff" points="328.28,-18 338.28,-14.5 328.28,-11 328.28,-18"/>
</a>
</g>
</g>
<!-- Node3&#45;&gt;Node4 -->
<g id="edge3_Node000003_Node000004" class="edge">
<title>Node3&#45;&gt;Node4</title>
<g id="a_edge3_Node000003_Node000004"><a xlink:title=" ">
<path fill="none" stroke="#63b8ff" d="M149.77,-24.22C141.76,-23.32 133.72,-22.41 125.94,-21.53"/>
<polygon fill="#63b8ff" stroke="#63b8ff" points="149.23,-27.68 159.56,-25.33 150.01,-20.73 149.23,-27.68"/>
</a>
</g>
</g>
</g>
</svg>
