<?xml version="1.0" encoding="UTF-8" standalone="no"?>
<!DOCTYPE svg PUBLIC "-//W3C//DTD SVG 1.1//EN"
 "http://www.w3.org/Graphics/SVG/1.1/DTD/svg11.dtd">
<!-- Generated by graphviz version 12.2.1 (0)
 -->
<!-- Title: AttachmentViewer::SetDecryptionCounter Pages: 1 -->
<svg width="738pt" height="74pt"
 viewBox="0.00 0.00 738.00 73.75" xmlns="http://www.w3.org/2000/svg" xmlns:xlink="http://www.w3.org/1999/xlink">
<g id="graph0" class="graph" transform="scale(1 1) rotate(0) translate(4 69.75)">
<title>AttachmentViewer::SetDecryptionCounter</title>
<!-- Node1 -->
<g id="Node000001" class="node">
<title>Node1</title>
<g id="a_Node000001"><a xlink:title="Sets the decryption progress counter (0&#45;100). Updates the internal value, updates the status label te...">
<polygon fill="#999999" stroke="#666666" points="730,-50 565.5,-50 565.5,-21 730,-21 730,-50"/>
<text text-anchor="start" x="573.5" y="-36.5" font-family="Helvetica,sans-Serif" font-size="10.00">AttachmentViewer::SetDecryption</text>
<text text-anchor="middle" x="647.75" y="-26" font-family="Helvetica,sans-Serif" font-size="10.00">Counter</text>
</a>
</g>
</g>
<!-- Node2 -->
<g id="Node000002" class="node">
<title>Node2</title>
<g id="a_Node000002"><a xlink:href="classAttachmentViewer.html#a6e5885d1dc1476a3dcff4b76e2e95df1" target="_top" xlink:title="Sets the widget to be displayed after the decryption animation. Removes any previous content,...">
<polygon fill="white" stroke="#666666" points="523.12,-65.75 372.12,-65.75 372.12,-47.25 523.12,-47.25 523.12,-65.75"/>
<text text-anchor="middle" x="447.62" y="-52.25" font-family="Helvetica,sans-Serif" font-size="10.00">AttachmentViewer::SetContent</text>
</a>
</g>
</g>
<!-- Node1&#45;&gt;Node2 -->
<g id="edge1_Node000001_Node000002" class="edge">
<title>Node1&#45;&gt;Node2</title>
<g id="a_edge1_Node000001_Node000002"><a xlink:title=" ">
<path fill="none" stroke="#63b8ff" d="M553.66,-45.37C543.55,-46.44 533.35,-47.52 523.49,-48.56"/>
<polygon fill="#63b8ff" stroke="#63b8ff" points="553.94,-48.86 563.52,-44.32 553.2,-41.9 553.94,-48.86"/>
</a>
</g>
</g>
<!-- Node3 -->
<g id="Node000003" class="node">
<title>Node3</title>
<g id="a_Node000003"><a xlink:href="classAttachmentViewer.html#a847f3bd1aea14895c10cdc6a50a07765" target="_top" xlink:title="Starts the visual scanning phase. Updates the status label, ensures the MaskOverlay is visible and an...">
<polygon fill="white" stroke="#666666" points="529.5,-29 365.75,-29 365.75,0 529.5,0 529.5,-29"/>
<text text-anchor="start" x="373.75" y="-15.5" font-family="Helvetica,sans-Serif" font-size="10.00">AttachmentViewer::StartScanning</text>
<text text-anchor="middle" x="447.62" y="-5" font-family="Helvetica,sans-Serif" font-size="10.00">Animation</text>
</a>
</g>
</g>
<!-- Node1&#45;&gt;Node3 -->
<g id="edge2_Node000001_Node000003" class="edge">
<title>Node1&#45;&gt;Node3</title>
<g id="a_edge2_Node000001_Node000003"><a xlink:title=" ">
<path fill="none" stroke="#63b8ff" d="M553.78,-25.65C545.78,-24.8 537.74,-23.95 529.85,-23.11"/>
<polygon fill="#63b8ff" stroke="#63b8ff" points="553.2,-29.1 563.52,-26.68 553.94,-22.14 553.2,-29.1"/>
</a>
</g>
</g>
<!-- Node4 -->
<g id="Node000004" class="node">
<title>Node4</title>
<g id="a_Node000004"><a xlink:href="classAttachmentViewer.html#a7f2dccdaa47930c6103f9392da17c17b" target="_top" xlink:title="Slot triggered automatically after a short delay or potentially by a user action (though currently au...">
<polygon fill="white" stroke="#666666" points="329.75,-29 187.75,-29 187.75,0 329.75,0 329.75,-29"/>
<text text-anchor="start" x="195.75" y="-15.5" font-family="Helvetica,sans-Serif" font-size="10.00">AttachmentViewer::OnAction</text>
<text text-anchor="middle" x="258.75" y="-5" font-family="Helvetica,sans-Serif" font-size="10.00">ButtonClicked</text>
</a>
</g>
</g>
<!-- Node3&#45;&gt;Node4 -->
<g id="edge3_Node000003_Node000004" class="edge">
<title>Node3&#45;&gt;Node4</title>
<g id="a_edge3_Node000003_Node000004"><a xlink:title=" ">
<path fill="none" stroke="#63b8ff" d="M354.06,-14.5C345.96,-14.5 337.86,-14.5 329.99,-14.5"/>
<polygon fill="#63b8ff" stroke="#63b8ff" points="353.96,-18 363.96,-14.5 353.96,-11 353.96,-18"/>
</a>
</g>
</g>
<!-- Node5 -->
<g id="Node000005" class="node">
<title>Node5</title>
<g id="a_Node000005"><a xlink:href="classAttachmentViewer.html#a725b0a8c1d40b97e2d6cdf59ceb93b38" target="_top" xlink:title="Constructs a CyberAttachmentViewer. Initializes the layout, status label, content container,...">
<polygon fill="white" stroke="#666666" points="151.75,-29 0,-29 0,0 151.75,0 151.75,-29"/>
<text text-anchor="start" x="8" y="-15.5" font-family="Helvetica,sans-Serif" font-size="10.00">AttachmentViewer::Attachment</text>
<text text-anchor="middle" x="75.88" y="-5" font-family="Helvetica,sans-Serif" font-size="10.00">Viewer</text>
</a>
</g>
</g>
<!-- Node4&#45;&gt;Node5 -->
<g id="edge4_Node000004_Node000005" class="edge">
<title>Node4&#45;&gt;Node5</title>
<g id="a_edge4_Node000004_Node000005"><a xlink:title=" ">
<path fill="none" stroke="#63b8ff" d="M175.86,-14.5C167.98,-14.5 160.02,-14.5 152.22,-14.5"/>
<polygon fill="#63b8ff" stroke="#63b8ff" points="175.79,-18 185.79,-14.5 175.79,-11 175.79,-18"/>
</a>
</g>
</g>
</g>
</svg>
