<?xml version="1.0" encoding="UTF-8" standalone="no"?>
<!DOCTYPE svg PUBLIC "-//W3C//DTD SVG 1.1//EN"
 "http://www.w3.org/Graphics/SVG/1.1/DTD/svg11.dtd">
<!-- Generated by graphviz version 12.2.1 (0)
 -->
<!-- Title: WavelengthRegistry::GetActiveWavelength Pages: 1 -->
<!--zoomable 536 -->

<svg id="main" version="1.1" xmlns="http://www.w3.org/2000/svg" xmlns:xlink="http://www.w3.org/1999/xlink" xml:space="preserve" onload="init(evt)">

<style type="text/css"><![CDATA[
.node, .edge {opacity: 0.7;}
.node.selected, .edge.selected {opacity: 1;}
.edge:hover path { stroke: red; }
.edge:hover polygon { stroke: red; fill: red; }
]]></style>

<defs>
  <circle id="rim" cx="0" cy="0" r="7"/>
  <circle id="rim2" cx="0" cy="0" r="3.5"/>
  <g id="zoomPlus">
    <use xlink:href="#rim" fill="#404040"><set attributeName="fill" to="#808080" begin="zoomplus.mouseover" end="zoomplus.mouseout"/></use>
    <path d="M-4,0h8M0,-4v8" fill="none" stroke="white" stroke-width="1.5" pointer-events="none"/>
  </g>
  <g id="zoomMin">
    <use xlink:href="#rim" fill="#404040"><set attributeName="fill" to="#808080" begin="zoomminus.mouseover" end="zoomminus.mouseout"/></use>
    <path d="M-4,0h8" fill="none" stroke="white" stroke-width="1.5" pointer-events="none"/>
  </g>
  <g id="arrowUp" transform="translate(30 24)">
    <use xlink:href="#rim"/>
    <path pointer-events="none" fill="none" stroke="white" stroke-width="1.5" d="M0,-3.0v7 M-2.5,-0.5L0,-3.0L2.5,-0.5"/>
  </g>
  <g id="arrowRight" transform="rotate(90) translate(36 -43)">
    <use xlink:href="#rim"/>
    <path pointer-events="none" fill="none" stroke="white" stroke-width="1.5" d="M0,-3.0v7 M-2.5,-0.5L0,-3.0L2.5,-0.5"/>
  </g>
  <g id="arrowDown" transform="rotate(180) translate(-30 -48)">
    <use xlink:href="#rim"/>
    <path pointer-events="none" fill="none" stroke="white" stroke-width="1.5" d="M0,-3.0v7 M-2.5,-0.5L0,-3.0L2.5,-0.5"/>
  </g>
  <g id="arrowLeft" transform="rotate(270) translate(-36 17)">
    <use xlink:href="#rim"/>
    <path pointer-events="none" fill="none" stroke="white" stroke-width="1.5" d="M0,-3.0v7 M-2.5,-0.5L0,-3.0L2.5,-0.5"/>
  </g>
  <g id="resetDef">
    <use xlink:href="#rim2" fill="#404040"><set attributeName="fill" to="#808080" begin="reset.mouseover" end="reset.mouseout"/></use>
  </g>
</defs>
<script type="application/ecmascript">
var viewWidth = 1383;
var viewHeight = 536;
var sectionId = 'dynsection-10';
</script>
<script type="application/ecmascript" xlink:href="svg.min.js"/>
<svg id="graph" class="graph">
<g id="viewport">
<title>WavelengthRegistry::GetActiveWavelength</title>
<!-- Node1 -->
<g id="Node000001" class="node">
<title>Node1</title>
<g id="a_Node000001"><a xlink:title="Gets the identifier of the currently active wavelength.">
<polygon fill="#999999" stroke="#666666" points="1375.25,-279 1260.25,-279 1260.25,-250 1375.25,-250 1375.25,-279"/>
<text text-anchor="start" x="1268.25" y="-265.5" font-family="Helvetica,sans-Serif" font-size="10.00">WavelengthRegistry</text>
<text text-anchor="middle" x="1317.75" y="-255" font-family="Helvetica,sans-Serif" font-size="10.00">::GetActiveWavelength</text>
</a>
</g>
</g>
<!-- Node2 -->
<g id="Node000002" class="node">
<title>Node2</title>
<g id="a_Node000002"><a xlink:href="classWavelengthLeaver.html#af9c574c0d19226e480a7af8edd48f759" target="_top" xlink:title="Closes a specific wavelength (only if the current user is the host). Checks if the user is the host f...">
<polygon fill="white" stroke="#666666" points="1224.25,-513.75 1047.75,-513.75 1047.75,-495.25 1224.25,-495.25 1224.25,-513.75"/>
<text text-anchor="middle" x="1136" y="-500.25" font-family="Helvetica,sans-Serif" font-size="10.00">WavelengthLeaver::CloseWavelength</text>
</a>
</g>
</g>
<!-- Node1&#45;&gt;Node2 -->
<g id="edge1_Node000001_Node000002" class="edge">
<title>Node1&#45;&gt;Node2</title>
<g id="a_edge1_Node000001_Node000002"><a xlink:title=" ">
<path fill="none" stroke="#63b8ff" d="M1311.37,-290.41C1301.32,-332.79 1275.88,-417.22 1224.25,-467.5 1211.05,-480.36 1192.7,-489.05 1176.23,-494.75"/>
<polygon fill="#63b8ff" stroke="#63b8ff" points="1314.74,-291.4 1313.52,-280.88 1307.91,-289.86 1314.74,-291.4"/>
</a>
</g>
</g>
<!-- Node6 -->
<g id="Node000006" class="node">
<title>Node6</title>
<g id="a_Node000006"><a xlink:href="classWavelengthCreator.html#aceda419aab0bae7f3323bedfcb0ad6d1" target="_top" xlink:title="Attempts to create and register a new wavelength with the relay server. Checks if the wavelength alre...">
<polygon fill="white" stroke="#666666" points="437.62,-127 333.12,-127 333.12,-98 437.62,-98 437.62,-127"/>
<text text-anchor="start" x="341.12" y="-113.5" font-family="Helvetica,sans-Serif" font-size="10.00">WavelengthCreator::</text>
<text text-anchor="middle" x="385.38" y="-103" font-family="Helvetica,sans-Serif" font-size="10.00">CreateWavelength</text>
</a>
</g>
</g>
<!-- Node1&#45;&gt;Node6 -->
<g id="edge5_Node000001_Node000006" class="edge">
<title>Node1&#45;&gt;Node6</title>
<g id="a_edge5_Node000001_Node000006"><a xlink:title=" ">
<path fill="none" stroke="#63b8ff" d="M1280.06,-244.6C1263.4,-236.21 1243.22,-226.93 1224.25,-220.5 1102.68,-179.32 1070.11,-160.5 941.75,-160.5 941.75,-160.5 941.75,-160.5 761.75,-160.5 645.3,-160.5 510.15,-137.49 438.03,-123.33"/>
<polygon fill="#63b8ff" stroke="#63b8ff" points="1278.09,-247.53 1288.58,-248.98 1281.29,-241.3 1278.09,-247.53"/>
</a>
</g>
</g>
<!-- Node8 -->
<g id="Node000008" class="node">
<title>Node8</title>
<g id="a_Node000008"><a xlink:href="classWavelengthStateManager.html#a7764e9d8d9abcf7337fd18c6ed5461e4" target="_top" xlink:title="Gets the frequency identifier of the currently active wavelength.">
<polygon fill="white" stroke="#666666" points="1199.5,-396 1072.5,-396 1072.5,-367 1199.5,-367 1199.5,-396"/>
<text text-anchor="start" x="1080.5" y="-382.5" font-family="Helvetica,sans-Serif" font-size="10.00">WavelengthStateManager</text>
<text text-anchor="middle" x="1136" y="-372" font-family="Helvetica,sans-Serif" font-size="10.00">::GetActiveWavelength</text>
</a>
</g>
</g>
<!-- Node1&#45;&gt;Node8 -->
<g id="edge7_Node000001_Node000008" class="edge">
<title>Node1&#45;&gt;Node8</title>
<g id="a_edge7_Node000001_Node000008"><a xlink:title=" ">
<path fill="none" stroke="#63b8ff" d="M1284.46,-285.52C1248.54,-308.9 1191.43,-346.07 1159.86,-366.62"/>
<polygon fill="#63b8ff" stroke="#63b8ff" points="1286.24,-288.53 1292.72,-280.14 1282.43,-282.67 1286.24,-288.53"/>
</a>
</g>
</g>
<!-- Node13 -->
<g id="Node000013" class="node">
<title>Node13</title>
<g id="a_Node000013"><a xlink:href="classWavelengthJoiner.html#a10830ee7f998cc18b6df1949455ae98e" target="_top" xlink:title="Attempts to join an existing wavelength hosted on the relay server. Checks if the wavelength is alrea...">
<polygon fill="white" stroke="#666666" points="468.75,-62.75 302,-62.75 302,-44.25 468.75,-44.25 468.75,-62.75"/>
<text text-anchor="middle" x="385.38" y="-49.25" font-family="Helvetica,sans-Serif" font-size="10.00">WavelengthJoiner::JoinWavelength</text>
</a>
</g>
</g>
<!-- Node1&#45;&gt;Node13 -->
<g id="edge13_Node000001_Node000013" class="edge">
<title>Node1&#45;&gt;Node13</title>
<g id="a_edge13_Node000001_Node000013"><a xlink:title=" ">
<path fill="none" stroke="#63b8ff" d="M1310.24,-238.83C1299.23,-200.98 1273.22,-130.77 1224.25,-94.5 1121.25,-18.21 1069.92,-36.5 941.75,-36.5 941.75,-36.5 941.75,-36.5 761.75,-36.5 660.96,-36.5 545.1,-42.69 469.08,-47.6"/>
<polygon fill="#63b8ff" stroke="#63b8ff" points="1306.85,-239.73 1312.89,-248.44 1313.6,-237.87 1306.85,-239.73"/>
</a>
</g>
</g>
<!-- Node17 -->
<g id="Node000017" class="node">
<title>Node17</title>
<g id="a_Node000017"><a xlink:href="classWavelengthLeaver.html#a11a552cbede70a46b0f5cb9a509328d7" target="_top" xlink:title="Leaves the currently active wavelength. Retrieves the active frequency from the registry....">
<polygon fill="white" stroke="#666666" points="1224.25,-458.75 1047.75,-458.75 1047.75,-440.25 1224.25,-440.25 1224.25,-458.75"/>
<text text-anchor="middle" x="1136" y="-445.25" font-family="Helvetica,sans-Serif" font-size="10.00">WavelengthLeaver::LeaveWavelength</text>
</a>
</g>
</g>
<!-- Node1&#45;&gt;Node17 -->
<g id="edge17_Node000001_Node000017" class="edge">
<title>Node1&#45;&gt;Node17</title>
<g id="a_edge17_Node000001_Node000017"><a xlink:title=" ">
<path fill="none" stroke="#63b8ff" d="M1305.51,-289.31C1290.62,-319.91 1261.8,-371.99 1224.25,-405.5 1206.91,-420.98 1183.14,-432.49 1164.79,-439.85"/>
<polygon fill="#63b8ff" stroke="#63b8ff" points="1308.59,-290.98 1309.71,-280.45 1302.27,-287.99 1308.59,-290.98"/>
</a>
</g>
</g>
<!-- Node18 -->
<g id="Node000018" class="node">
<title>Node18</title>
<g id="a_Node000018"><a xlink:href="classMessageProcessor.html#a8cc47128d254eb378c4988551725ba95" target="_top" xlink:title="Processes messages indicating a wavelength was closed (e.g., &quot;wavelength_closed&quot;, &quot;close_wavelength&quot; ...">
<polygon fill="white" stroke="#666666" points="1207,-132 1065,-132 1065,-103 1207,-103 1207,-132"/>
<text text-anchor="start" x="1073" y="-118.5" font-family="Helvetica,sans-Serif" font-size="10.00">MessageProcessor::Process</text>
<text text-anchor="middle" x="1136" y="-108" font-family="Helvetica,sans-Serif" font-size="10.00">WavelengthClosed</text>
</a>
</g>
</g>
<!-- Node1&#45;&gt;Node18 -->
<g id="edge19_Node000001_Node000018" class="edge">
<title>Node1&#45;&gt;Node18</title>
<g id="a_edge19_Node000001_Node000018"><a xlink:title=" ">
<path fill="none" stroke="#63b8ff" d="M1303.33,-239.78C1287.67,-213.14 1259.39,-171.24 1224.25,-146.5 1216.16,-140.8 1206.87,-136.16 1197.43,-132.41"/>
<polygon fill="#63b8ff" stroke="#63b8ff" points="1300.14,-241.25 1308.14,-248.2 1306.22,-237.78 1300.14,-241.25"/>
</a>
</g>
</g>
<!-- Node22 -->
<g id="Node000022" class="node">
<title>Node22</title>
<g id="a_Node000022"><a xlink:href="classMessageService.html#aff7ad6c0302f5f9b4864074eb6675931" target="_top" xlink:title="Initiates the process of sending a file to the currently active frequency. Reads the file,...">
<polygon fill="white" stroke="#666666" points="1202.88,-294.75 1069.12,-294.75 1069.12,-276.25 1202.88,-276.25 1202.88,-294.75"/>
<text text-anchor="middle" x="1136" y="-281.25" font-family="Helvetica,sans-Serif" font-size="10.00">MessageService::SendFile</text>
</a>
</g>
</g>
<!-- Node1&#45;&gt;Node22 -->
<g id="edge26_Node000001_Node000022" class="edge">
<title>Node1&#45;&gt;Node22</title>
<g id="a_edge26_Node000001_Node000022"><a xlink:title=" ">
<path fill="none" stroke="#63b8ff" d="M1248.68,-272.45C1233.79,-274.19 1218.05,-276.03 1203.23,-277.76"/>
<polygon fill="#63b8ff" stroke="#63b8ff" points="1248.85,-275.96 1258.37,-271.32 1248.03,-269 1248.85,-275.96"/>
</a>
</g>
</g>
<!-- Node27 -->
<g id="Node000027" class="node">
<title>Node27</title>
<g id="a_Node000027"><a xlink:href="classMessageService.html#ac1041f89fa4eed1b98556cc3f93c2077" target="_top" xlink:title="Sends a text message to the currently active frequency. Retrieves the active frequency and socket fro...">
<polygon fill="white" stroke="#666666" points="1204.38,-258 1067.62,-258 1067.62,-229 1204.38,-229 1204.38,-258"/>
<text text-anchor="start" x="1075.62" y="-244.5" font-family="Helvetica,sans-Serif" font-size="10.00">MessageService::SendText</text>
<text text-anchor="middle" x="1136" y="-234" font-family="Helvetica,sans-Serif" font-size="10.00">Message</text>
</a>
</g>
</g>
<!-- Node1&#45;&gt;Node27 -->
<g id="edge31_Node000001_Node000027" class="edge">
<title>Node1&#45;&gt;Node27</title>
<g id="a_edge31_Node000001_Node000027"><a xlink:title=" ">
<path fill="none" stroke="#63b8ff" d="M1248.58,-256.54C1234.25,-254.86 1219.14,-253.1 1204.83,-251.42"/>
<polygon fill="#63b8ff" stroke="#63b8ff" points="1248.03,-260 1258.37,-257.68 1248.85,-253.04 1248.03,-260"/>
</a>
</g>
</g>
<!-- Node3 -->
<g id="Node000003" class="node">
<title>Node3</title>
<g id="a_Node000003"><a xlink:href="classSessionCoordinator.html#a0dd567ac5a1ab2f57e17698c1dc93a1b" target="_top" xlink:title="Closes a specific wavelength (only if the current user is the host). Unregisters the wavelength local...">
<polygon fill="white" stroke="#666666" points="991.5,-528 890,-528 890,-499 991.5,-499 991.5,-528"/>
<text text-anchor="start" x="898" y="-514.5" font-family="Helvetica,sans-Serif" font-size="10.00">SessionCoordinator</text>
<text text-anchor="middle" x="940.75" y="-504" font-family="Helvetica,sans-Serif" font-size="10.00">::CloseWavelength</text>
</a>
</g>
</g>
<!-- Node2&#45;&gt;Node3 -->
<g id="edge2_Node000002_Node000003" class="edge">
<title>Node2&#45;&gt;Node3</title>
<g id="a_edge2_Node000002_Node000003"><a xlink:title=" ">
<path fill="none" stroke="#63b8ff" d="M1036.21,-509.1C1020.81,-509.82 1005.48,-510.53 991.78,-511.17"/>
<polygon fill="#63b8ff" stroke="#63b8ff" points="1036.08,-512.61 1045.91,-508.65 1035.76,-505.62 1036.08,-512.61"/>
</a>
</g>
</g>
<!-- Node4 -->
<g id="Node000004" class="node">
<title>Node4</title>
<g id="a_Node000004"><a xlink:href="classChatView.html#a23a3ce66f4af487f1f0571e72aaca9aa" target="_top" xlink:title="Initiates the process of leaving or closing the current Wavelength. Updates the status indicator,...">
<polygon fill="white" stroke="#666666" points="831.88,-475.75 693.62,-475.75 693.62,-457.25 831.88,-457.25 831.88,-475.75"/>
<text text-anchor="middle" x="762.75" y="-462.25" font-family="Helvetica,sans-Serif" font-size="10.00">ChatView::AbortWavelength</text>
</a>
</g>
</g>
<!-- Node3&#45;&gt;Node4 -->
<g id="edge3_Node000003_Node000004" class="edge">
<title>Node3&#45;&gt;Node4</title>
<g id="a_edge3_Node000003_Node000004"><a xlink:title=" ">
<path fill="none" stroke="#63b8ff" d="M878.8,-497.22C852.58,-490.22 822.81,-482.27 800.13,-476.21"/>
<polygon fill="#63b8ff" stroke="#63b8ff" points="877.76,-500.57 888.32,-499.77 879.57,-493.81 877.76,-500.57"/>
</a>
</g>
</g>
<!-- Node5 -->
<g id="Node000005" class="node">
<title>Node5</title>
<g id="a_Node000005"><a xlink:href="classChatView.html#ad2db6f12afdba4b49ec7775b2d560ad3" target="_top" xlink:title="Constructs a WavelengthChatView. Initializes the UI elements (labels, message area,...">
<polygon fill="white" stroke="#666666" points="633.62,-292.75 526.88,-292.75 526.88,-274.25 633.62,-274.25 633.62,-292.75"/>
<text text-anchor="middle" x="580.25" y="-279.25" font-family="Helvetica,sans-Serif" font-size="10.00">ChatView::ChatView</text>
</a>
</g>
</g>
<!-- Node4&#45;&gt;Node5 -->
<g id="edge4_Node000004_Node000005" class="edge">
<title>Node4&#45;&gt;Node5</title>
<g id="a_edge4_Node000004_Node000005"><a xlink:title=" ">
<path fill="none" stroke="#63b8ff" d="M744.21,-449.43C729.99,-435.53 709.46,-415.36 691.75,-397.5 653.71,-359.14 609.15,-312.69 590.35,-293.03"/>
<polygon fill="#63b8ff" stroke="#63b8ff" points="741.49,-451.66 751.09,-456.14 746.37,-446.65 741.49,-451.66"/>
</a>
</g>
</g>
<!-- Node7 -->
<g id="Node000007" class="node">
<title>Node7</title>
<g id="a_Node000007"><a xlink:href="classSessionCoordinator.html#ad439996ffc2f1a6fc57835502c69ce7d" target="_top" xlink:title="Initiates the creation of a new wavelength. Delegates the call to WavelengthCreator and registers the...">
<polygon fill="white" stroke="#666666" points="260.75,-127 159.25,-127 159.25,-98 260.75,-98 260.75,-127"/>
<text text-anchor="start" x="167.25" y="-113.5" font-family="Helvetica,sans-Serif" font-size="10.00">SessionCoordinator</text>
<text text-anchor="middle" x="210" y="-103" font-family="Helvetica,sans-Serif" font-size="10.00">::CreateWavelength</text>
</a>
</g>
</g>
<!-- Node6&#45;&gt;Node7 -->
<g id="edge6_Node000006_Node000007" class="edge">
<title>Node6&#45;&gt;Node7</title>
<g id="a_edge6_Node000006_Node000007"><a xlink:title=" ">
<path fill="none" stroke="#63b8ff" d="M321.4,-112.5C301.58,-112.5 279.96,-112.5 261.16,-112.5"/>
<polygon fill="#63b8ff" stroke="#63b8ff" points="321.31,-116 331.31,-112.5 321.31,-109 321.31,-116"/>
</a>
</g>
</g>
<!-- Node9 -->
<g id="Node000009" class="node">
<title>Node9</title>
<g id="a_Node000009"><a xlink:href="classSessionCoordinator.html#a2ef17a4eda8f62b1b2f8be524770e96f" target="_top" xlink:title="Gets the frequency identifier of the currently active wavelength. Delegates the call to WavelengthSta...">
<polygon fill="white" stroke="#666666" points="998.25,-434 883.25,-434 883.25,-405 998.25,-405 998.25,-434"/>
<text text-anchor="start" x="891.25" y="-420.5" font-family="Helvetica,sans-Serif" font-size="10.00">SessionCoordinator</text>
<text text-anchor="middle" x="940.75" y="-410" font-family="Helvetica,sans-Serif" font-size="10.00">::GetActiveWavelength</text>
</a>
</g>
</g>
<!-- Node8&#45;&gt;Node9 -->
<g id="edge8_Node000008_Node000009" class="edge">
<title>Node8&#45;&gt;Node9</title>
<g id="a_edge8_Node000008_Node000009"><a xlink:title=" ">
<path fill="none" stroke="#63b8ff" d="M1061.24,-396C1040.48,-400.09 1018.23,-404.46 998.63,-408.32"/>
<polygon fill="#63b8ff" stroke="#63b8ff" points="1061.64,-399.49 1070.77,-394.13 1060.28,-392.62 1061.64,-399.49"/>
</a>
</g>
</g>
<!-- Node10 -->
<g id="Node000010" class="node">
<title>Node10</title>
<g id="a_Node000010"><a xlink:href="classWavelengthStateManager.html#aa0ec9ff3f23e40a6984ddd46ee5a72af" target="_top" xlink:title="Checks if the current user is the host of the currently active wavelength.">
<polygon fill="white" stroke="#666666" points="1005,-387 876.5,-387 876.5,-358 1005,-358 1005,-387"/>
<text text-anchor="start" x="884.5" y="-373.5" font-family="Helvetica,sans-Serif" font-size="10.00">WavelengthStateManager</text>
<text text-anchor="middle" x="940.75" y="-363" font-family="Helvetica,sans-Serif" font-size="10.00">::IsActiveWavelengthHost</text>
</a>
</g>
</g>
<!-- Node8&#45;&gt;Node10 -->
<g id="edge9_Node000008_Node000010" class="edge">
<title>Node8&#45;&gt;Node10</title>
<g id="a_edge9_Node000008_Node000010"><a xlink:title=" ">
<path fill="none" stroke="#63b8ff" d="M1060.97,-378.05C1042.57,-377.2 1023.01,-376.28 1005.17,-375.45"/>
<polygon fill="#63b8ff" stroke="#63b8ff" points="1060.59,-381.54 1070.75,-378.51 1060.92,-374.55 1060.59,-381.54"/>
</a>
</g>
</g>
<!-- Node12 -->
<g id="Node000012" class="node">
<title>Node12</title>
<g id="a_Node000012"><a xlink:href="classSessionCoordinator.html#ad7c56b7b495b53ea905a6157e2bc5e93" target="_top" xlink:title="Leaves the currently active wavelength. Unregisters the wavelength locally and delegates the call to ...">
<polygon fill="white" stroke="#666666" points="991.5,-481 890,-481 890,-452 991.5,-452 991.5,-481"/>
<text text-anchor="start" x="898" y="-467.5" font-family="Helvetica,sans-Serif" font-size="10.00">SessionCoordinator</text>
<text text-anchor="middle" x="940.75" y="-457" font-family="Helvetica,sans-Serif" font-size="10.00">::LeaveWavelength</text>
</a>
</g>
</g>
<!-- Node8&#45;&gt;Node12 -->
<g id="edge11_Node000008_Node000012" class="edge">
<title>Node8&#45;&gt;Node12</title>
<g id="a_edge11_Node000008_Node000012"><a xlink:title=" ">
<path fill="none" stroke="#63b8ff" d="M1098,-401.93C1073.86,-414.8 1041.45,-431.23 1011.75,-443.5 1004.89,-446.33 997.55,-449.06 990.29,-451.59"/>
<polygon fill="#63b8ff" stroke="#63b8ff" points="1099.65,-405.01 1106.8,-397.19 1096.33,-398.85 1099.65,-405.01"/>
</a>
</g>
</g>
<!-- Node11 -->
<g id="Node000011" class="node">
<title>Node11</title>
<g id="a_Node000011"><a xlink:href="classSessionCoordinator.html#a668b71b01c108671a17924cb0ed55fff" target="_top" xlink:title="Checks if the current user is the host of the currently active wavelength. Delegates the call to Wave...">
<polygon fill="white" stroke="#666666" points="827,-388 698.5,-388 698.5,-359 827,-359 827,-388"/>
<text text-anchor="start" x="706.5" y="-374.5" font-family="Helvetica,sans-Serif" font-size="10.00">SessionCoordinator</text>
<text text-anchor="middle" x="762.75" y="-364" font-family="Helvetica,sans-Serif" font-size="10.00">::IsActiveWavelengthHost</text>
</a>
</g>
</g>
<!-- Node10&#45;&gt;Node11 -->
<g id="edge10_Node000010_Node000011" class="edge">
<title>Node10&#45;&gt;Node11</title>
<g id="a_edge10_Node000010_Node000011"><a xlink:title=" ">
<path fill="none" stroke="#63b8ff" d="M864.9,-372.93C852.45,-373 839.64,-373.07 827.49,-373.14"/>
<polygon fill="#63b8ff" stroke="#63b8ff" points="864.72,-376.43 874.7,-372.87 864.68,-369.43 864.72,-376.43"/>
</a>
</g>
</g>
<!-- Node12&#45;&gt;Node4 -->
<g id="edge12_Node000012_Node000004" class="edge">
<title>Node12&#45;&gt;Node4</title>
<g id="a_edge12_Node000012_Node000004"><a xlink:title=" ">
<path fill="none" stroke="#63b8ff" d="M878.6,-466.5C863.63,-466.5 847.52,-466.5 832.24,-466.5"/>
<polygon fill="#63b8ff" stroke="#63b8ff" points="878.27,-470 888.27,-466.5 878.27,-463 878.27,-470"/>
</a>
</g>
</g>
<!-- Node14 -->
<g id="Node000014" class="node">
<title>Node14</title>
<g id="a_Node000014"><a xlink:href="classSessionCoordinator.html#a78a62f7f321920c128757ee20568a972" target="_top" xlink:title="Initiates joining an existing wavelength. Delegates the call to WavelengthJoiner and registers the wa...">
<polygon fill="white" stroke="#666666" points="260.75,-29 159.25,-29 159.25,0 260.75,0 260.75,-29"/>
<text text-anchor="start" x="167.25" y="-15.5" font-family="Helvetica,sans-Serif" font-size="10.00">SessionCoordinator</text>
<text text-anchor="middle" x="210" y="-5" font-family="Helvetica,sans-Serif" font-size="10.00">::JoinWavelength</text>
</a>
</g>
</g>
<!-- Node13&#45;&gt;Node14 -->
<g id="edge14_Node000013_Node000014" class="edge">
<title>Node13&#45;&gt;Node14</title>
<g id="a_edge14_Node000013_Node000014"><a xlink:title=" ">
<path fill="none" stroke="#63b8ff" d="M329.9,-41.25C307.89,-36.3 282.66,-30.62 261.12,-25.77"/>
<polygon fill="#63b8ff" stroke="#63b8ff" points="329.07,-44.65 339.6,-43.43 330.61,-37.82 329.07,-44.65"/>
</a>
</g>
</g>
<!-- Node15 -->
<g id="Node000015" class="node">
<title>Node15</title>
<g id="a_Node000015"><a xlink:href="classJoinWavelengthDialog.html#a0cb74ecdcc726cea2ce437c85cd75185" target="_top" xlink:title="Attempts to join the wavelength using the entered frequency and password. Shows a wait cursor,...">
<polygon fill="white" stroke="#666666" points="266,-76 154,-76 154,-47 266,-47 266,-76"/>
<text text-anchor="start" x="162" y="-62.5" font-family="Helvetica,sans-Serif" font-size="10.00">JoinWavelengthDialog</text>
<text text-anchor="middle" x="210" y="-52" font-family="Helvetica,sans-Serif" font-size="10.00">::TryJoin</text>
</a>
</g>
</g>
<!-- Node13&#45;&gt;Node15 -->
<g id="edge15_Node000013_Node000015" class="edge">
<title>Node13&#45;&gt;Node15</title>
<g id="a_edge15_Node000013_Node000015"><a xlink:title=" ">
<path fill="none" stroke="#63b8ff" d="M290.46,-57.83C282.21,-58.21 274.04,-58.59 266.26,-58.95"/>
<polygon fill="#63b8ff" stroke="#63b8ff" points="290.41,-61.34 300.24,-57.38 290.09,-54.35 290.41,-61.34"/>
</a>
</g>
</g>
<!-- Node16 -->
<g id="Node000016" class="node">
<title>Node16</title>
<g id="a_Node000016"><a xlink:href="classJoinWavelengthDialog.html#a22f6a3f4da1054f306ee566edf3f2d74" target="_top" xlink:title="Constructs a JoinWavelengthDialog. Sets up the UI elements (labels, input fields, buttons),...">
<polygon fill="white" stroke="#666666" points="118,-76 0,-76 0,-47 118,-47 118,-76"/>
<text text-anchor="start" x="8" y="-62.5" font-family="Helvetica,sans-Serif" font-size="10.00">JoinWavelengthDialog</text>
<text text-anchor="middle" x="59" y="-52" font-family="Helvetica,sans-Serif" font-size="10.00">::JoinWavelengthDialog</text>
</a>
</g>
</g>
<!-- Node15&#45;&gt;Node16 -->
<g id="edge16_Node000015_Node000016" class="edge">
<title>Node15&#45;&gt;Node16</title>
<g id="a_edge16_Node000015_Node000016"><a xlink:title=" ">
<path fill="none" stroke="#63b8ff" d="M142.03,-61.5C134.1,-61.5 126.06,-61.5 118.27,-61.5"/>
<polygon fill="#63b8ff" stroke="#63b8ff" points="142,-65 152,-61.5 142,-58 142,-65"/>
</a>
</g>
</g>
<!-- Node17&#45;&gt;Node12 -->
<g id="edge18_Node000017_Node000012" class="edge">
<title>Node17&#45;&gt;Node12</title>
<g id="a_edge18_Node000017_Node000012"><a xlink:title=" ">
<path fill="none" stroke="#63b8ff" d="M1036.21,-458.19C1020.81,-459.55 1005.48,-460.89 991.78,-462.1"/>
<polygon fill="#63b8ff" stroke="#63b8ff" points="1036.26,-461.7 1045.91,-457.34 1035.65,-454.73 1036.26,-461.7"/>
</a>
</g>
</g>
<!-- Node19 -->
<g id="Node000019" class="node">
<title>Node19</title>
<g id="a_Node000019"><a xlink:href="classMessageProcessor.html#abdfefd4e6d33731ee50463441ea1a368" target="_top" xlink:title="Processes an incoming text message (JSON) received from the WebSocket. Parses the JSON,...">
<polygon fill="white" stroke="#666666" points="833.75,-111 691.75,-111 691.75,-82 833.75,-82 833.75,-111"/>
<text text-anchor="start" x="699.75" y="-97.5" font-family="Helvetica,sans-Serif" font-size="10.00">MessageProcessor::Process</text>
<text text-anchor="middle" x="762.75" y="-87" font-family="Helvetica,sans-Serif" font-size="10.00">IncomingMessage</text>
</a>
</g>
</g>
<!-- Node18&#45;&gt;Node19 -->
<g id="edge20_Node000018_Node000019" class="edge">
<title>Node18&#45;&gt;Node19</title>
<g id="a_edge20_Node000018_Node000019"><a xlink:title=" ">
<path fill="none" stroke="#63b8ff" d="M1053.36,-113.47C1000.9,-110.81 931.29,-107.16 869.75,-103.5 858.24,-102.82 846.04,-102.05 834.16,-101.28"/>
<polygon fill="#63b8ff" stroke="#63b8ff" points="1052.94,-116.95 1063.11,-113.96 1053.3,-109.96 1052.94,-116.95"/>
</a>
</g>
</g>
<!-- Node21 -->
<g id="Node000021" class="node">
<title>Node21</title>
<g id="a_Node000021"><a xlink:href="classMessageProcessor.html#a901206afb9503ef54fdba2a2a594b5df" target="_top" xlink:title="Processes messages of type &quot;system_command&quot;. Handles commands like &quot;ping&quot;, &quot;close_wavelength&quot;,...">
<polygon fill="white" stroke="#666666" points="1011.75,-94 869.75,-94 869.75,-65 1011.75,-65 1011.75,-94"/>
<text text-anchor="start" x="877.75" y="-80.5" font-family="Helvetica,sans-Serif" font-size="10.00">MessageProcessor::Process</text>
<text text-anchor="middle" x="940.75" y="-70" font-family="Helvetica,sans-Serif" font-size="10.00">SystemCommand</text>
</a>
</g>
</g>
<!-- Node18&#45;&gt;Node21 -->
<g id="edge24_Node000018_Node000021" class="edge">
<title>Node18&#45;&gt;Node21</title>
<g id="a_edge24_Node000018_Node000021"><a xlink:title=" ">
<path fill="none" stroke="#63b8ff" d="M1053.69,-101.51C1039.84,-98.79 1025.55,-95.98 1012.01,-93.32"/>
<polygon fill="#63b8ff" stroke="#63b8ff" points="1052.71,-104.89 1063.2,-103.38 1054.06,-98.02 1052.71,-104.89"/>
</a>
</g>
</g>
<!-- Node20 -->
<g id="Node000020" class="node">
<title>Node20</title>
<g id="a_Node000020"><a xlink:href="classMessageProcessor.html#ae0f85d4a5a3c92b0873e7889dfb79862" target="_top" xlink:title="Connects the appropriate slots of this processor to the signals of a given QWebSocket....">
<polygon fill="white" stroke="#666666" points="655.75,-111 504.75,-111 504.75,-82 655.75,-82 655.75,-111"/>
<text text-anchor="start" x="512.75" y="-97.5" font-family="Helvetica,sans-Serif" font-size="10.00">MessageProcessor::SetSocket</text>
<text text-anchor="middle" x="580.25" y="-87" font-family="Helvetica,sans-Serif" font-size="10.00">MessageHandlers</text>
</a>
</g>
</g>
<!-- Node19&#45;&gt;Node20 -->
<g id="edge21_Node000019_Node000020" class="edge">
<title>Node19&#45;&gt;Node20</title>
<g id="a_edge21_Node000019_Node000020"><a xlink:title=" ">
<path fill="none" stroke="#63b8ff" d="M680.2,-96.5C672.19,-96.5 664.08,-96.5 656.13,-96.5"/>
<polygon fill="#63b8ff" stroke="#63b8ff" points="679.93,-100 689.93,-96.5 679.93,-93 679.93,-100"/>
</a>
</g>
</g>
<!-- Node20&#45;&gt;Node6 -->
<g id="edge22_Node000020_Node000006" class="edge">
<title>Node20&#45;&gt;Node6</title>
<g id="a_edge22_Node000020_Node000006"><a xlink:title=" ">
<path fill="none" stroke="#63b8ff" d="M493.09,-103.65C474.25,-105.21 454.89,-106.82 437.91,-108.22"/>
<polygon fill="#63b8ff" stroke="#63b8ff" points="493.22,-107.15 502.9,-102.83 492.64,-100.17 493.22,-107.15"/>
</a>
</g>
</g>
<!-- Node20&#45;&gt;Node13 -->
<g id="edge23_Node000020_Node000013" class="edge">
<title>Node20&#45;&gt;Node13</title>
<g id="a_edge23_Node000020_Node000013"><a xlink:title=" ">
<path fill="none" stroke="#63b8ff" d="M501.07,-79.07C476.87,-73.67 451.07,-67.92 430.08,-63.24"/>
<polygon fill="#63b8ff" stroke="#63b8ff" points="500.06,-82.43 510.59,-81.19 501.59,-75.6 500.06,-82.43"/>
</a>
</g>
</g>
<!-- Node21&#45;&gt;Node19 -->
<g id="edge25_Node000021_Node000019" class="edge">
<title>Node21&#45;&gt;Node19</title>
<g id="a_edge25_Node000021_Node000019"><a xlink:title=" ">
<path fill="none" stroke="#63b8ff" d="M858.2,-87.38C850.19,-88.15 842.12,-88.93 834.24,-89.69"/>
<polygon fill="#63b8ff" stroke="#63b8ff" points="858.31,-90.88 867.92,-86.44 857.63,-83.92 858.31,-90.88"/>
</a>
</g>
</g>
<!-- Node23 -->
<g id="Node000023" class="node">
<title>Node23</title>
<g id="a_Node000023"><a xlink:href="classChatView.html#a4b181808cf22581bd24eb4bab9e07e43" target="_top" xlink:title="Opens a file dialog to allow the user to select a file for sending. If a file is selected,...">
<polygon fill="white" stroke="#666666" points="994.88,-292.75 886.62,-292.75 886.62,-274.25 994.88,-274.25 994.88,-292.75"/>
<text text-anchor="middle" x="940.75" y="-279.25" font-family="Helvetica,sans-Serif" font-size="10.00">ChatView::AttachFile</text>
</a>
</g>
</g>
<!-- Node22&#45;&gt;Node23 -->
<g id="edge27_Node000022_Node000023" class="edge">
<title>Node22&#45;&gt;Node23</title>
<g id="a_edge27_Node000022_Node000023"><a xlink:title=" ">
<path fill="none" stroke="#63b8ff" d="M1057.32,-284.7C1036.44,-284.48 1014.34,-284.25 995.11,-284.05"/>
<polygon fill="#63b8ff" stroke="#63b8ff" points="1057.22,-288.2 1067.25,-284.8 1057.29,-281.2 1057.22,-288.2"/>
</a>
</g>
</g>
<!-- Node26 -->
<g id="Node000026" class="node">
<title>Node26</title>
<g id="a_Node000026"><a xlink:href="classSessionCoordinator.html#a8c66229e945eb35fa8791ea88d37cdaa" target="_top" xlink:title="Sends a file to the currently active wavelength. Delegates the call to WavelengthMessageService.">
<polygon fill="white" stroke="#666666" points="991.5,-340 890,-340 890,-311 991.5,-311 991.5,-340"/>
<text text-anchor="start" x="898" y="-326.5" font-family="Helvetica,sans-Serif" font-size="10.00">SessionCoordinator</text>
<text text-anchor="middle" x="940.75" y="-316" font-family="Helvetica,sans-Serif" font-size="10.00">::SendFile</text>
</a>
</g>
</g>
<!-- Node22&#45;&gt;Node26 -->
<g id="edge30_Node000022_Node000026" class="edge">
<title>Node22&#45;&gt;Node26</title>
<g id="a_edge30_Node000022_Node000026"><a xlink:title=" ">
<path fill="none" stroke="#63b8ff" d="M1077.29,-297.45C1050.1,-303.07 1017.97,-309.72 991.82,-315.14"/>
<polygon fill="#63b8ff" stroke="#63b8ff" points="1077.65,-300.94 1086.74,-295.49 1076.24,-294.09 1077.65,-300.94"/>
</a>
</g>
</g>
<!-- Node23&#45;&gt;Node5 -->
<g id="edge28_Node000023_Node000005" class="edge">
<title>Node23&#45;&gt;Node5</title>
<g id="a_edge28_Node000023_Node000005"><a xlink:title=" ">
<path fill="none" stroke="#63b8ff" d="M875.32,-283.5C806.3,-283.5 698.07,-283.5 633.95,-283.5"/>
<polygon fill="#63b8ff" stroke="#63b8ff" points="874.95,-287 884.95,-283.5 874.95,-280 874.95,-287"/>
</a>
</g>
</g>
<!-- Node24 -->
<g id="Node000024" class="node">
<title>Node24</title>
<g id="a_Node000024"><a xlink:href="classShortcutManager.html#a4d014d550ca996c51abb06649f71a3fa" target="_top" xlink:title="Registers shortcuts specific to the WavelengthChatView.">
<polygon fill="#fff0f0" stroke="red" points="829.25,-341 696.25,-341 696.25,-312 829.25,-312 829.25,-341"/>
<text text-anchor="start" x="704.25" y="-327.5" font-family="Helvetica,sans-Serif" font-size="10.00">ShortcutManager::Register</text>
<text text-anchor="middle" x="762.75" y="-317" font-family="Helvetica,sans-Serif" font-size="10.00">ChatViewShortcuts</text>
</a>
</g>
</g>
<!-- Node23&#45;&gt;Node24 -->
<g id="edge29_Node000023_Node000024" class="edge">
<title>Node23&#45;&gt;Node24</title>
<g id="a_edge29_Node000023_Node000024"><a xlink:title=" ">
<path fill="none" stroke="#63b8ff" d="M889.17,-295.86C869.11,-300.76 845.87,-306.44 824.89,-311.56"/>
<polygon fill="#63b8ff" stroke="#63b8ff" points="889.9,-299.28 898.78,-293.51 888.24,-292.48 889.9,-299.28"/>
</a>
</g>
</g>
<!-- Node28 -->
<g id="Node000028" class="node">
<title>Node28</title>
<g id="a_Node000028"><a xlink:href="classChatView.html#a424556ba1072ba443433af3af827c5d5" target="_top" xlink:title="Sends the text message currently in the input field. Clears the input field and sends the message via...">
<polygon fill="white" stroke="#666666" points="825.88,-255.75 699.62,-255.75 699.62,-237.25 825.88,-237.25 825.88,-255.75"/>
<text text-anchor="middle" x="762.75" y="-242.25" font-family="Helvetica,sans-Serif" font-size="10.00">ChatView::SendMessage</text>
</a>
</g>
</g>
<!-- Node27&#45;&gt;Node28 -->
<g id="edge32_Node000027_Node000028" class="edge">
<title>Node27&#45;&gt;Node28</title>
<g id="a_edge32_Node000027_Node000028"><a xlink:title=" ">
<path fill="none" stroke="#63b8ff" d="M1056.17,-244.14C987.61,-244.69 889.6,-245.48 826.31,-245.99"/>
<polygon fill="#63b8ff" stroke="#63b8ff" points="1055.85,-247.64 1065.83,-244.06 1055.8,-240.64 1055.85,-247.64"/>
</a>
</g>
</g>
<!-- Node29 -->
<g id="Node000029" class="node">
<title>Node29</title>
<g id="a_Node000029"><a xlink:href="classSessionCoordinator.html#a6bf70b7c88a2f73ab0510bbc97315c02" target="_top" xlink:title="Sends a text message to the currently active wavelength. Delegates the call to WavelengthMessageServi...">
<polygon fill="white" stroke="#666666" points="991.5,-218 890,-218 890,-189 991.5,-189 991.5,-218"/>
<text text-anchor="start" x="898" y="-204.5" font-family="Helvetica,sans-Serif" font-size="10.00">SessionCoordinator</text>
<text text-anchor="middle" x="940.75" y="-194" font-family="Helvetica,sans-Serif" font-size="10.00">::SendMessage</text>
</a>
</g>
</g>
<!-- Node27&#45;&gt;Node29 -->
<g id="edge34_Node000027_Node000029" class="edge">
<title>Node27&#45;&gt;Node29</title>
<g id="a_edge34_Node000027_Node000029"><a xlink:title=" ">
<path fill="none" stroke="#63b8ff" d="M1055.94,-227.14C1034.26,-222.65 1011.36,-217.91 991.8,-213.86"/>
<polygon fill="#63b8ff" stroke="#63b8ff" points="1055.16,-230.55 1065.66,-229.15 1056.57,-223.69 1055.16,-230.55"/>
</a>
</g>
</g>
<!-- Node28&#45;&gt;Node5 -->
<g id="edge33_Node000028_Node000005" class="edge">
<title>Node28&#45;&gt;Node5</title>
<g id="a_edge33_Node000028_Node000005"><a xlink:title=" ">
<path fill="none" stroke="#63b8ff" d="M703.16,-258.51C679.05,-263.45 651.48,-269.1 628.67,-273.78"/>
<polygon fill="#63b8ff" stroke="#63b8ff" points="703.75,-261.96 712.84,-256.53 702.34,-255.1 703.75,-261.96"/>
</a>
</g>
</g>
</g>
</svg>

<g id="navigator" transform="translate(0 0)" fill="#404254">
  <rect fill="#f2f5e9" fill-opacity="0.5" stroke="#606060" stroke-width=".5" x="0" y="0" width="60" height="60"/>
  <use id="zoomplus" xlink:href="#zoomPlus" x="17" y="9" onmousedown="handleZoom(evt,'in')"/>
  <use id="zoomminus" xlink:href="#zoomMin" x="42" y="9" onmousedown="handleZoom(evt,'out')"/>
  <use id="reset" xlink:href="#resetDef" x="30" y="36" onmousedown="handleReset()"/>
   <use id="arrowup" xlink:href="#arrowUp" x="0" y="0" onmousedown="handlePan(0,-1)"/>
  <use id="arrowright" xlink:href="#arrowRight" x="0" y="0" onmousedown="handlePan(1,0)"/>
  <use id="arrowdown" xlink:href="#arrowDown" x="0" y="0" onmousedown="handlePan(0,1)"/>
  <use id="arrowleft" xlink:href="#arrowLeft" x="0" y="0" onmousedown="handlePan(-1,0)"/>
</g>
<svg viewBox="0 0 15 15" width="100%" height="30px" preserveAspectRatio="xMaxYMin meet">
 <g id="arrow_out" transform="scale(0.3 0.3)">
  <a xlink:href="classWavelengthRegistry_a6ce8627bbb1db084bf76053aa92f9a47_icgraph_org.svg" target="_base">
   <rect id="button" ry="5" rx="5" y="6" x="6" height="38" width="38"
        fill="#f2f5e9" fill-opacity="0.5" stroke="#606060" stroke-width="1.0"/>
   <path id="arrow"
     d="M 11.500037,31.436501 C 11.940474,20.09759 22.043105,11.32322 32.158766,21.979434 L 37.068811,17.246167 C 37.068811,17.246167 37.088388,32 37.088388,32 L 22.160133,31.978069 C 22.160133,31.978069 26.997745,27.140456 26.997745,27.140456 C 18.528582,18.264221 13.291696,25.230495 11.500037,31.436501 z"
     style="fill:#404040;"/>
  </a>
 </g>
</svg>

<style type='text/css'>
<![CDATA[
[data-mouse-over-selected='false'] { opacity: 0.7; }
[data-mouse-over-selected='true']  { opacity: 1.0; }
]]>
</style>
<script type="application/ecmascript"><![CDATA[
document.addEventListener('DOMContentLoaded', (event) => {
  highlightEdges();
  highlightAdjacentNodes();
});
]]></script>
</svg>
