<?xml version="1.0" encoding="UTF-8" standalone="no"?>
<!DOCTYPE svg PUBLIC "-//W3C//DTD SVG 1.1//EN"
 "http://www.w3.org/Graphics/SVG/1.1/DTD/svg11.dtd">
<!-- Generated by graphviz version 12.2.1 (0)
 -->
<!-- Title: VoiceRecognitionLayer Pages: 1 -->
<svg width="147pt" height="761pt"
 viewBox="0.00 0.00 146.75 761.00" xmlns="http://www.w3.org/2000/svg" xmlns:xlink="http://www.w3.org/1999/xlink">
<g id="graph0" class="graph" transform="scale(1 1) rotate(0) translate(4 757)">
<title>VoiceRecognitionLayer</title>
<!-- Node1 -->
<g id="Node000001" class="node">
<title>Node1</title>
<g id="a_Node000001"><a xlink:title="A security layer simulating voice recognition verification.">
<polygon fill="#999999" stroke="none" points="138.75,-521.5 0,-521.5 0,0 138.75,0 138.75,-521.5"/>
<text text-anchor="start" x="20.25" y="-508" font-family="Helvetica,sans-Serif" font-size="10.00">VoiceRecognitionLayer</text>
<text text-anchor="start" x="5.5" y="-493.5" font-family="Helvetica,sans-Serif" font-size="10.00">&#45;</text>
<text text-anchor="start" x="14" y="-493.5" font-family="Helvetica,sans-Serif" font-size="10.00">QByteArray audio_buffer_</text>
<text text-anchor="start" x="5.5" y="-479" font-family="Helvetica,sans-Serif" font-size="10.00">&#45;</text>
<text text-anchor="start" x="14" y="-479" font-family="Helvetica,sans-Serif" font-size="10.00">QIODevice * audio_device_</text>
<text text-anchor="start" x="5.5" y="-464.5" font-family="Helvetica,sans-Serif" font-size="10.00">&#45;</text>
<text text-anchor="start" x="14" y="-464.5" font-family="Helvetica,sans-Serif" font-size="10.00">QAudioInput * audio</text>
<text text-anchor="start" x="14" y="-454" font-family="Helvetica,sans-Serif" font-size="10.00">_input_</text>
<text text-anchor="start" x="5.5" y="-439.5" font-family="Helvetica,sans-Serif" font-size="10.00">&#45;</text>
<text text-anchor="start" x="14" y="-439.5" font-family="Helvetica,sans-Serif" font-size="10.00">QTimer * audio_process</text>
<text text-anchor="start" x="14" y="-429" font-family="Helvetica,sans-Serif" font-size="10.00">_timer_</text>
<text text-anchor="start" x="5.5" y="-414.5" font-family="Helvetica,sans-Serif" font-size="10.00">&#45;</text>
<text text-anchor="start" x="14" y="-414.5" font-family="Helvetica,sans-Serif" font-size="10.00">QLabel * audio_visualizer</text>
<text text-anchor="start" x="14" y="-404" font-family="Helvetica,sans-Serif" font-size="10.00">_label_</text>
<text text-anchor="start" x="5.5" y="-389.5" font-family="Helvetica,sans-Serif" font-size="10.00">&#45;</text>
<text text-anchor="start" x="14" y="-389.5" font-family="Helvetica,sans-Serif" font-size="10.00">float current_audio</text>
<text text-anchor="start" x="14" y="-379" font-family="Helvetica,sans-Serif" font-size="10.00">_level_</text>
<text text-anchor="start" x="5.5" y="-364.5" font-family="Helvetica,sans-Serif" font-size="10.00">&#45;</text>
<text text-anchor="start" x="14" y="-364.5" font-family="Helvetica,sans-Serif" font-size="10.00">bool is_recording_</text>
<text text-anchor="start" x="5.5" y="-350" font-family="Helvetica,sans-Serif" font-size="10.00">&#45;</text>
<text text-anchor="start" x="14" y="-350" font-family="Helvetica,sans-Serif" font-size="10.00">bool is_speaking_</text>
<text text-anchor="start" x="5.5" y="-335.5" font-family="Helvetica,sans-Serif" font-size="10.00">&#45;</text>
<text text-anchor="start" x="14" y="-335.5" font-family="Helvetica,sans-Serif" font-size="10.00">float noise_threshold_</text>
<text text-anchor="start" x="5.5" y="-321" font-family="Helvetica,sans-Serif" font-size="10.00">&#45;</text>
<text text-anchor="start" x="14" y="-321" font-family="Helvetica,sans-Serif" font-size="10.00">QTimer * progress_timer_</text>
<text text-anchor="start" x="5.5" y="-306.5" font-family="Helvetica,sans-Serif" font-size="10.00">&#45;</text>
<text text-anchor="start" x="14" y="-306.5" font-family="Helvetica,sans-Serif" font-size="10.00">QProgressBar * recognition</text>
<text text-anchor="start" x="14" y="-296" font-family="Helvetica,sans-Serif" font-size="10.00">_progress_</text>
<text text-anchor="start" x="5.5" y="-281.5" font-family="Helvetica,sans-Serif" font-size="10.00">&#45;</text>
<text text-anchor="start" x="14" y="-281.5" font-family="Helvetica,sans-Serif" font-size="10.00">QTimer * recognition</text>
<text text-anchor="start" x="14" y="-271" font-family="Helvetica,sans-Serif" font-size="10.00">_timer_</text>
<text text-anchor="start" x="5.5" y="-256.5" font-family="Helvetica,sans-Serif" font-size="10.00">&#45;</text>
<text text-anchor="start" x="14" y="-256.5" font-family="Helvetica,sans-Serif" font-size="10.00">int silence_counter_</text>
<text text-anchor="start" x="5.5" y="-242" font-family="Helvetica,sans-Serif" font-size="10.00">&#45;</text>
<text text-anchor="start" x="14" y="-242" font-family="Helvetica,sans-Serif" font-size="10.00">TranslationManager</text>
<text text-anchor="start" x="14" y="-231.5" font-family="Helvetica,sans-Serif" font-size="10.00"> * translator_</text>
<text text-anchor="start" x="5.5" y="-217" font-family="Helvetica,sans-Serif" font-size="10.00">&#45;</text>
<text text-anchor="start" x="14" y="-217" font-family="Helvetica,sans-Serif" font-size="10.00">QVector&lt; float &gt; visualizer</text>
<text text-anchor="start" x="14" y="-206.5" font-family="Helvetica,sans-Serif" font-size="10.00">_data_</text>
<text text-anchor="start" x="4" y="-192" font-family="Helvetica,sans-Serif" font-size="10.00">+</text>
<text text-anchor="start" x="14" y="-192" font-family="Helvetica,sans-Serif" font-size="10.00">void Initialize() override</text>
<text text-anchor="start" x="4" y="-177.5" font-family="Helvetica,sans-Serif" font-size="10.00">+</text>
<text text-anchor="start" x="14" y="-177.5" font-family="Helvetica,sans-Serif" font-size="10.00">void Reset() override</text>
<text text-anchor="start" x="4" y="-163" font-family="Helvetica,sans-Serif" font-size="10.00">+</text>
<text text-anchor="start" x="14" y="-163" font-family="Helvetica,sans-Serif" font-size="10.00">VoiceRecognitionLayer</text>
<text text-anchor="start" x="14" y="-152.5" font-family="Helvetica,sans-Serif" font-size="10.00">(QWidget *parent=nullptr)</text>
<text text-anchor="start" x="4" y="-138" font-family="Helvetica,sans-Serif" font-size="10.00">+</text>
<text text-anchor="start" x="14" y="-138" font-family="Helvetica,sans-Serif" font-size="10.00">~VoiceRecognitionLayer</text>
<text text-anchor="start" x="14" y="-127.5" font-family="Helvetica,sans-Serif" font-size="10.00">() override</text>
<text text-anchor="start" x="5.5" y="-113" font-family="Helvetica,sans-Serif" font-size="10.00">&#45;</text>
<text text-anchor="start" x="14" y="-113" font-family="Helvetica,sans-Serif" font-size="10.00">bool IsSpeaking(float</text>
<text text-anchor="start" x="14" y="-102.5" font-family="Helvetica,sans-Serif" font-size="10.00"> audio_level) const</text>
<text text-anchor="start" x="5.5" y="-88" font-family="Helvetica,sans-Serif" font-size="10.00">&#45;</text>
<text text-anchor="start" x="14" y="-88" font-family="Helvetica,sans-Serif" font-size="10.00">void StartRecording()</text>
<text text-anchor="start" x="5.5" y="-73.5" font-family="Helvetica,sans-Serif" font-size="10.00">&#45;</text>
<text text-anchor="start" x="14" y="-73.5" font-family="Helvetica,sans-Serif" font-size="10.00">void StopRecording()</text>
<text text-anchor="start" x="5.5" y="-59" font-family="Helvetica,sans-Serif" font-size="10.00">&#45;</text>
<text text-anchor="start" x="14" y="-59" font-family="Helvetica,sans-Serif" font-size="10.00">void UpdateAudioVisualizer</text>
<text text-anchor="start" x="14" y="-48.5" font-family="Helvetica,sans-Serif" font-size="10.00">(const QByteArray &amp;data)</text>
<text text-anchor="start" x="5.5" y="-34" font-family="Helvetica,sans-Serif" font-size="10.00">&#45;</text>
<text text-anchor="start" x="14" y="-34" font-family="Helvetica,sans-Serif" font-size="10.00">void FinishRecognition()</text>
<text text-anchor="start" x="5.5" y="-19.5" font-family="Helvetica,sans-Serif" font-size="10.00">&#45;</text>
<text text-anchor="start" x="14" y="-19.5" font-family="Helvetica,sans-Serif" font-size="10.00">void ProcessAudioInput()</text>
<text text-anchor="start" x="5.5" y="-5" font-family="Helvetica,sans-Serif" font-size="10.00">&#45;</text>
<text text-anchor="start" x="14" y="-5" font-family="Helvetica,sans-Serif" font-size="10.00">void UpdateProgress()</text>
<polygon fill="#666666" stroke="#666666" points="0,-505 0,-505 138.75,-505 138.75,-505 0,-505"/>
<polygon fill="#666666" stroke="#666666" points="0,-203.5 0,-203.5 12,-203.5 12,-203.5 0,-203.5"/>
<polygon fill="#666666" stroke="#666666" points="12,-203.5 12,-203.5 138.75,-203.5 138.75,-203.5 12,-203.5"/>
<polygon fill="none" stroke="#666666" points="0,0 0,-521.5 138.75,-521.5 138.75,0 0,0"/>
</a>
</g>
</g>
<!-- Node2 -->
<g id="Node000002" class="node">
<title>Node2</title>
<g id="a_Node000002"><a xlink:href="classSecurityLayer.html" target="_top" xlink:title="Abstract base class for individual security challenge layers.">
<polygon fill="white" stroke="none" points="132.38,-669.5 6.38,-669.5 6.38,-557.5 132.38,-557.5 132.38,-669.5"/>
<text text-anchor="start" x="39.75" y="-656" font-family="Helvetica,sans-Serif" font-size="10.00">SecurityLayer</text>
<text text-anchor="start" x="67.88" y="-641.5" font-family="Helvetica,sans-Serif" font-size="10.00"> </text>
<text text-anchor="start" x="10.38" y="-627" font-family="Helvetica,sans-Serif" font-size="10.00">+</text>
<text text-anchor="start" x="20.38" y="-627" font-family="Helvetica,sans-Serif" font-size="10.00">virtual void Initialize()=0</text>
<text text-anchor="start" x="10.38" y="-612.5" font-family="Helvetica,sans-Serif" font-size="10.00">+</text>
<text text-anchor="start" x="20.38" y="-612.5" font-family="Helvetica,sans-Serif" font-size="10.00">virtual void Reset()=0</text>
<text text-anchor="start" x="10.38" y="-598" font-family="Helvetica,sans-Serif" font-size="10.00">+</text>
<text text-anchor="start" x="20.38" y="-598" font-family="Helvetica,sans-Serif" font-size="10.00">SecurityLayer(QWidget</text>
<text text-anchor="start" x="20.38" y="-587.5" font-family="Helvetica,sans-Serif" font-size="10.00"> *parent=nullptr)</text>
<text text-anchor="start" x="10.38" y="-573" font-family="Helvetica,sans-Serif" font-size="10.00">+</text>
<text text-anchor="start" x="20.38" y="-573" font-family="Helvetica,sans-Serif" font-size="10.00">~SecurityLayer() override</text>
<text text-anchor="start" x="20.38" y="-562.5" font-family="Helvetica,sans-Serif" font-size="10.00">=default</text>
<polygon fill="#666666" stroke="#666666" points="6.38,-653 6.38,-653 132.38,-653 132.38,-653 6.38,-653"/>
<polygon fill="#666666" stroke="#666666" points="6.38,-638.5 6.38,-638.5 132.38,-638.5 132.38,-638.5 6.38,-638.5"/>
<polygon fill="none" stroke="#666666" points="6.38,-557.5 6.38,-669.5 132.38,-669.5 132.38,-557.5 6.38,-557.5"/>
</a>
</g>
</g>
<!-- Node2&#45;&gt;Node1 -->
<g id="edge1_Node000001_Node000002" class="edge">
<title>Node2&#45;&gt;Node1</title>
<g id="a_edge1_Node000001_Node000002"><a xlink:title=" ">
<path fill="none" stroke="#63b8ff" d="M69.38,-546.23C69.38,-538.42 69.38,-530.13 69.38,-521.49"/>
<polygon fill="none" stroke="#63b8ff" points="65.88,-546.18 69.38,-556.18 72.88,-546.18 65.88,-546.18"/>
</a>
</g>
</g>
<!-- Node3 -->
<g id="Node000003" class="node">
<title>Node3</title>
<g id="a_Node000003"><a xlink:title=" ">
<polygon fill="white" stroke="none" points="92.5,-753 46.25,-753 46.25,-705.5 92.5,-705.5 92.5,-753"/>
<text text-anchor="start" x="50.25" y="-739.5" font-family="Helvetica,sans-Serif" font-size="10.00">QWidget</text>
<text text-anchor="start" x="67.88" y="-725" font-family="Helvetica,sans-Serif" font-size="10.00"> </text>
<text text-anchor="start" x="67.88" y="-710.5" font-family="Helvetica,sans-Serif" font-size="10.00"> </text>
<polygon fill="#666666" stroke="#666666" points="46.25,-736.5 46.25,-736.5 92.5,-736.5 92.5,-736.5 46.25,-736.5"/>
<polygon fill="#666666" stroke="#666666" points="46.25,-722 46.25,-722 92.5,-722 92.5,-722 46.25,-722"/>
<polygon fill="none" stroke="#666666" points="46.25,-705.5 46.25,-753 92.5,-753 92.5,-705.5 46.25,-705.5"/>
</a>
</g>
</g>
<!-- Node3&#45;&gt;Node2 -->
<g id="edge2_Node000002_Node000003" class="edge">
<title>Node3&#45;&gt;Node2</title>
<g id="a_edge2_Node000002_Node000003"><a xlink:title=" ">
<path fill="none" stroke="#63b8ff" d="M69.38,-694.18C69.38,-686.31 69.38,-677.73 69.38,-669.21"/>
<polygon fill="none" stroke="#63b8ff" points="65.88,-693.99 69.38,-703.99 72.88,-693.99 65.88,-693.99"/>
</a>
</g>
</g>
</g>
</svg>
