<?xml version="1.0" encoding="UTF-8" standalone="no"?>
<!DOCTYPE svg PUBLIC "-//W3C//DTD SVG 1.1//EN"
 "http://www.w3.org/Graphics/SVG/1.1/DTD/svg11.dtd">
<!-- Generated by graphviz version 12.2.1 (0)
 -->
<!-- Title: SessionCoordinator::IsWavelengthConnected Pages: 1 -->
<svg width="609pt" height="107pt"
 viewBox="0.00 0.00 609.00 107.00" xmlns="http://www.w3.org/2000/svg" xmlns:xlink="http://www.w3.org/1999/xlink">
<g id="graph0" class="graph" transform="scale(1 1) rotate(0) translate(4 103)">
<title>SessionCoordinator::IsWavelengthConnected</title>
<!-- Node1 -->
<g id="Node000001" class="node">
<title>Node1</title>
<g id="a_Node000001"><a xlink:title="Checks if the WebSocket connection for a specific wavelength is established and valid....">
<polygon fill="#999999" stroke="#666666" points="127.75,-75 0,-75 0,-46 127.75,-46 127.75,-75"/>
<text text-anchor="start" x="8" y="-61.5" font-family="Helvetica,sans-Serif" font-size="10.00">SessionCoordinator</text>
<text text-anchor="middle" x="63.88" y="-51" font-family="Helvetica,sans-Serif" font-size="10.00">::IsWavelengthConnected</text>
</a>
</g>
</g>
<!-- Node2 -->
<g id="Node000002" class="node">
<title>Node2</title>
<g id="a_Node000002"><a xlink:href="classWavelengthStateManager.html#a080b15c4486a3ac1c341a464dbf197ad" target="_top" xlink:title="Gets the singleton instance of the WavelengthStateManager.">
<polygon fill="white" stroke="#666666" points="291.12,-99 164.12,-99 164.12,-70 291.12,-70 291.12,-99"/>
<text text-anchor="start" x="172.12" y="-85.5" font-family="Helvetica,sans-Serif" font-size="10.00">WavelengthStateManager</text>
<text text-anchor="middle" x="227.62" y="-75" font-family="Helvetica,sans-Serif" font-size="10.00">::GetInstance</text>
</a>
</g>
</g>
<!-- Node1&#45;&gt;Node2 -->
<g id="edge1_Node000001_Node000002" class="edge">
<title>Node1&#45;&gt;Node2</title>
<g id="a_edge1_Node000001_Node000002"><a xlink:title=" ">
<path fill="none" stroke="#63b8ff" d="M127.87,-69.85C135.99,-71.05 144.35,-72.29 152.62,-73.52"/>
<polygon fill="#63b8ff" stroke="#63b8ff" points="151.89,-76.95 162.3,-74.96 152.92,-70.03 151.89,-76.95"/>
</a>
</g>
</g>
<!-- Node4 -->
<g id="Node000004" class="node">
<title>Node4</title>
<g id="a_Node000004"><a xlink:href="classWavelengthStateManager.html#a1bec41b38f90afbe8d57ec5c71549750" target="_top" xlink:title="Checks if the WebSocket connection for a specific wavelength is currently established and valid.">
<polygon fill="white" stroke="#666666" points="291.5,-52 163.75,-52 163.75,-23 291.5,-23 291.5,-52"/>
<text text-anchor="start" x="171.75" y="-38.5" font-family="Helvetica,sans-Serif" font-size="10.00">WavelengthStateManager</text>
<text text-anchor="middle" x="227.62" y="-28" font-family="Helvetica,sans-Serif" font-size="10.00">::IsWavelengthConnected</text>
</a>
</g>
</g>
<!-- Node1&#45;&gt;Node4 -->
<g id="edge3_Node000001_Node000004" class="edge">
<title>Node1&#45;&gt;Node4</title>
<g id="a_edge3_Node000001_Node000004"><a xlink:title=" ">
<path fill="none" stroke="#63b8ff" d="M127.87,-51.54C135.77,-50.42 143.91,-49.26 151.97,-48.12"/>
<polygon fill="#63b8ff" stroke="#63b8ff" points="152.36,-51.6 161.77,-46.72 151.37,-44.67 152.36,-51.6"/>
</a>
</g>
</g>
<!-- Node3 -->
<g id="Node000003" class="node">
<title>Node3</title>
<g id="a_Node000003"><a xlink:href="classWavelengthStateManager.html#a9076f87f6e875d36b2853b946d94ce29" target="_top" xlink:title="Private constructor to enforce the singleton pattern.">
<polygon fill="white" stroke="#666666" points="460.5,-99 327.5,-99 327.5,-70 460.5,-70 460.5,-99"/>
<text text-anchor="start" x="335.5" y="-85.5" font-family="Helvetica,sans-Serif" font-size="10.00">WavelengthStateManager</text>
<text text-anchor="middle" x="394" y="-75" font-family="Helvetica,sans-Serif" font-size="10.00">::WavelengthStateManager</text>
</a>
</g>
</g>
<!-- Node2&#45;&gt;Node3 -->
<g id="edge2_Node000002_Node000003" class="edge">
<title>Node2&#45;&gt;Node3</title>
<g id="a_edge2_Node000002_Node000003"><a xlink:title=" ">
<path fill="none" stroke="#63b8ff" d="M291.24,-84.5C299.19,-84.5 307.41,-84.5 315.56,-84.5"/>
<polygon fill="#63b8ff" stroke="#63b8ff" points="315.5,-88 325.5,-84.5 315.5,-81 315.5,-88"/>
</a>
</g>
</g>
<!-- Node5 -->
<g id="Node000005" class="node">
<title>Node5</title>
<g id="a_Node000005"><a xlink:href="classWavelengthStateManager.html#af929daf75947f30826d1f7b192f3f1b3" target="_top" xlink:title="Retrieves detailed information about a specific wavelength from the registry.">
<polygon fill="white" stroke="#666666" points="457.5,-52 330.5,-52 330.5,-23 457.5,-23 457.5,-52"/>
<text text-anchor="start" x="338.5" y="-38.5" font-family="Helvetica,sans-Serif" font-size="10.00">WavelengthStateManager</text>
<text text-anchor="middle" x="394" y="-28" font-family="Helvetica,sans-Serif" font-size="10.00">::GetWavelengthInfo</text>
</a>
</g>
</g>
<!-- Node4&#45;&gt;Node5 -->
<g id="edge4_Node000004_Node000005" class="edge">
<title>Node4&#45;&gt;Node5</title>
<g id="a_edge4_Node000004_Node000005"><a xlink:title=" ">
<path fill="none" stroke="#63b8ff" d="M291.71,-37.5C300.56,-37.5 309.72,-37.5 318.75,-37.5"/>
<polygon fill="#63b8ff" stroke="#63b8ff" points="318.57,-41 328.57,-37.5 318.57,-34 318.57,-41"/>
</a>
</g>
</g>
<!-- Node6 -->
<g id="Node000006" class="node">
<title>Node6</title>
<g id="a_Node000006"><a xlink:href="classWavelengthRegistry.html#a84a25c38915431306681e96df429f20f" target="_top" xlink:title="Gets the singleton instance of the WavelengthRegistry.">
<polygon fill="#fff0f0" stroke="red" points="600.25,-76 497.25,-76 497.25,-47 600.25,-47 600.25,-76"/>
<text text-anchor="start" x="505.25" y="-62.5" font-family="Helvetica,sans-Serif" font-size="10.00">WavelengthRegistry</text>
<text text-anchor="middle" x="548.75" y="-52" font-family="Helvetica,sans-Serif" font-size="10.00">::GetInstance</text>
</a>
</g>
</g>
<!-- Node5&#45;&gt;Node6 -->
<g id="edge5_Node000005_Node000006" class="edge">
<title>Node5&#45;&gt;Node6</title>
<g id="a_edge5_Node000005_Node000006"><a xlink:title=" ">
<path fill="none" stroke="#63b8ff" d="M457.57,-47.33C466.94,-48.8 476.6,-50.32 485.96,-51.79"/>
<polygon fill="#63b8ff" stroke="#63b8ff" points="485.26,-55.22 495.68,-53.32 486.35,-48.31 485.26,-55.22"/>
</a>
</g>
</g>
<!-- Node8 -->
<g id="Node000008" class="node">
<title>Node8</title>
<g id="a_Node000008"><a xlink:href="classWavelengthRegistry.html#a022bb5799d095b75026019791ebf5e34" target="_top" xlink:title="Retrieves the WavelengthInfo for a specific frequency.">
<polygon fill="#fff0f0" stroke="red" points="601,-29 496.5,-29 496.5,0 601,0 601,-29"/>
<text text-anchor="start" x="504.5" y="-15.5" font-family="Helvetica,sans-Serif" font-size="10.00">WavelengthRegistry</text>
<text text-anchor="middle" x="548.75" y="-5" font-family="Helvetica,sans-Serif" font-size="10.00">::GetWavelengthInfo</text>
</a>
</g>
</g>
<!-- Node5&#45;&gt;Node8 -->
<g id="edge6_Node000005_Node000008" class="edge">
<title>Node5&#45;&gt;Node8</title>
<g id="a_edge6_Node000005_Node000008"><a xlink:title=" ">
<path fill="none" stroke="#63b8ff" d="M457.57,-28.08C466.61,-26.72 475.91,-25.32 484.95,-23.96"/>
<polygon fill="#63b8ff" stroke="#63b8ff" points="485.36,-27.43 494.73,-22.48 484.32,-20.51 485.36,-27.43"/>
</a>
</g>
</g>
</g>
</svg>
