<?xml version="1.0" encoding="UTF-8" standalone="no"?>
<!DOCTYPE svg PUBLIC "-//W3C//DTD SVG 1.1//EN"
 "http://www.w3.org/Graphics/SVG/1.1/DTD/svg11.dtd">
<!-- Generated by graphviz version 12.2.1 (0)
 -->
<!-- Title: AttachmentViewer::OnActionButtonClicked Pages: 1 -->
<!--zoomable 131 -->

<svg id="main" version="1.1" xmlns="http://www.w3.org/2000/svg" xmlns:xlink="http://www.w3.org/1999/xlink" xml:space="preserve" onload="init(evt)">

<style type="text/css"><![CDATA[
.node, .edge {opacity: 0.7;}
.node.selected, .edge.selected {opacity: 1;}
.edge:hover path { stroke: red; }
.edge:hover polygon { stroke: red; fill: red; }
]]></style>

<defs>
  <circle id="rim" cx="0" cy="0" r="7"/>
  <circle id="rim2" cx="0" cy="0" r="3.5"/>
  <g id="zoomPlus">
    <use xlink:href="#rim" fill="#404040"><set attributeName="fill" to="#808080" begin="zoomplus.mouseover" end="zoomplus.mouseout"/></use>
    <path d="M-4,0h8M0,-4v8" fill="none" stroke="white" stroke-width="1.5" pointer-events="none"/>
  </g>
  <g id="zoomMin">
    <use xlink:href="#rim" fill="#404040"><set attributeName="fill" to="#808080" begin="zoomminus.mouseover" end="zoomminus.mouseout"/></use>
    <path d="M-4,0h8" fill="none" stroke="white" stroke-width="1.5" pointer-events="none"/>
  </g>
  <g id="arrowUp" transform="translate(30 24)">
    <use xlink:href="#rim"/>
    <path pointer-events="none" fill="none" stroke="white" stroke-width="1.5" d="M0,-3.0v7 M-2.5,-0.5L0,-3.0L2.5,-0.5"/>
  </g>
  <g id="arrowRight" transform="rotate(90) translate(36 -43)">
    <use xlink:href="#rim"/>
    <path pointer-events="none" fill="none" stroke="white" stroke-width="1.5" d="M0,-3.0v7 M-2.5,-0.5L0,-3.0L2.5,-0.5"/>
  </g>
  <g id="arrowDown" transform="rotate(180) translate(-30 -48)">
    <use xlink:href="#rim"/>
    <path pointer-events="none" fill="none" stroke="white" stroke-width="1.5" d="M0,-3.0v7 M-2.5,-0.5L0,-3.0L2.5,-0.5"/>
  </g>
  <g id="arrowLeft" transform="rotate(270) translate(-36 17)">
    <use xlink:href="#rim"/>
    <path pointer-events="none" fill="none" stroke="white" stroke-width="1.5" d="M0,-3.0v7 M-2.5,-0.5L0,-3.0L2.5,-0.5"/>
  </g>
  <g id="resetDef">
    <use xlink:href="#rim2" fill="#404040"><set attributeName="fill" to="#808080" begin="reset.mouseover" end="reset.mouseout"/></use>
  </g>
</defs>
<script type="application/ecmascript">
var viewWidth = 740;
var viewHeight = 131;
var sectionId = 'dynsection-7';
</script>
<script type="application/ecmascript" xlink:href="svg.min.js"/>
<svg id="graph" class="graph">
<g id="viewport">
<title>AttachmentViewer::OnActionButtonClicked</title>
<!-- Node1 -->
<g id="Node000001" class="node">
<title>Node1</title>
<g id="a_Node000001"><a xlink:title="Slot triggered automatically after a short delay or potentially by a user action (though currently au...">
<polygon fill="#999999" stroke="#666666" points="142,-97 0,-97 0,-68 142,-68 142,-97"/>
<text text-anchor="start" x="8" y="-83.5" font-family="Helvetica,sans-Serif" font-size="10.00">AttachmentViewer::OnAction</text>
<text text-anchor="middle" x="71" y="-73" font-family="Helvetica,sans-Serif" font-size="10.00">ButtonClicked</text>
</a>
</g>
</g>
<!-- Node2 -->
<g id="Node000002" class="node">
<title>Node2</title>
<g id="a_Node000002"><a xlink:href="classAttachmentViewer.html#abfe3475ab194146dffbf3d2d20c70e21" target="_top" xlink:title="Closes the viewer by emitting the viewingFinished signal.">
<polygon fill="white" stroke="#666666" points="338,-114.75 181.75,-114.75 181.75,-96.25 338,-96.25 338,-114.75"/>
<text text-anchor="middle" x="259.88" y="-101.25" font-family="Helvetica,sans-Serif" font-size="10.00">AttachmentViewer::CloseViewer</text>
</a>
</g>
</g>
<!-- Node1&#45;&gt;Node2 -->
<g id="edge1_Node000001_Node000002" class="edge">
<title>Node1&#45;&gt;Node2</title>
<g id="a_edge1_Node000001_Node000002"><a xlink:title=" ">
<path fill="none" stroke="#63b8ff" d="M142.38,-91.16C151.43,-92.28 160.79,-93.43 170.08,-94.57"/>
<polygon fill="#63b8ff" stroke="#63b8ff" points="169.51,-98.03 179.86,-95.77 170.36,-91.08 169.51,-98.03"/>
</a>
</g>
</g>
<!-- Node4 -->
<g id="Node000004" class="node">
<title>Node4</title>
<g id="a_Node000004"><a xlink:href="classAttachmentViewer.html#a847f3bd1aea14895c10cdc6a50a07765" target="_top" xlink:title="Starts the visual scanning phase. Updates the status label, ensures the MaskOverlay is visible and an...">
<polygon fill="white" stroke="#666666" points="341.75,-76 178,-76 178,-47 341.75,-47 341.75,-76"/>
<text text-anchor="start" x="186" y="-62.5" font-family="Helvetica,sans-Serif" font-size="10.00">AttachmentViewer::StartScanning</text>
<text text-anchor="middle" x="259.88" y="-52" font-family="Helvetica,sans-Serif" font-size="10.00">Animation</text>
</a>
</g>
</g>
<!-- Node1&#45;&gt;Node4 -->
<g id="edge3_Node000001_Node000004" class="edge">
<title>Node1&#45;&gt;Node4</title>
<g id="a_edge3_Node000001_Node000004"><a xlink:title=" ">
<path fill="none" stroke="#63b8ff" d="M142.38,-74.59C150.19,-73.71 158.22,-72.81 166.25,-71.91"/>
<polygon fill="#63b8ff" stroke="#63b8ff" points="166.52,-75.4 176.06,-70.81 165.74,-68.44 166.52,-75.4"/>
</a>
</g>
</g>
<!-- Node3 -->
<g id="Node000003" class="node">
<title>Node3</title>
<g id="a_Node000003"><a xlink:href="classAttachmentViewer.html#aec3d228e36d5e01358f24a6827865b62" target="_top" xlink:title="Emitted when the viewer is closed (either manually or automatically after decryption).">
<polygon fill="white" stroke="#666666" points="530.62,-123 396.12,-123 396.12,-94 530.62,-94 530.62,-123"/>
<text text-anchor="start" x="404.12" y="-109.5" font-family="Helvetica,sans-Serif" font-size="10.00">AttachmentViewer::viewing</text>
<text text-anchor="middle" x="463.38" y="-99" font-family="Helvetica,sans-Serif" font-size="10.00">Finished</text>
</a>
</g>
</g>
<!-- Node2&#45;&gt;Node3 -->
<g id="edge2_Node000002_Node000003" class="edge">
<title>Node2&#45;&gt;Node3</title>
<g id="a_edge2_Node000002_Node000003"><a xlink:title=" ">
<path fill="none" stroke="#63b8ff" d="M338.49,-106.66C353.6,-106.88 369.44,-107.12 384.55,-107.34"/>
<polygon fill="#63b8ff" stroke="#63b8ff" points="384.38,-110.84 394.43,-107.49 384.49,-103.84 384.38,-110.84"/>
</a>
</g>
</g>
<!-- Node5 -->
<g id="Node000005" class="node">
<title>Node5</title>
<g id="a_Node000005"><a xlink:href="classAttachmentViewer.html#a586152c0b840192e11c1453cbfd20926" target="_top" xlink:title="Sets the decryption progress counter (0&#45;100). Updates the internal value, updates the status label te...">
<polygon fill="white" stroke="#666666" points="545.62,-76 381.12,-76 381.12,-47 545.62,-47 545.62,-76"/>
<text text-anchor="start" x="389.12" y="-62.5" font-family="Helvetica,sans-Serif" font-size="10.00">AttachmentViewer::SetDecryption</text>
<text text-anchor="middle" x="463.38" y="-52" font-family="Helvetica,sans-Serif" font-size="10.00">Counter</text>
</a>
</g>
</g>
<!-- Node4&#45;&gt;Node5 -->
<g id="edge4_Node000004_Node000005" class="edge">
<title>Node4&#45;&gt;Node5</title>
<g id="a_edge4_Node000004_Node000005"><a xlink:title=" ">
<path fill="none" stroke="#63b8ff" d="M341.96,-61.5C350.96,-61.5 360.17,-61.5 369.3,-61.5"/>
<polygon fill="#63b8ff" stroke="#63b8ff" points="369.28,-65 379.28,-61.5 369.28,-58 369.28,-65"/>
</a>
</g>
</g>
<!-- Node8 -->
<g id="Node000008" class="node">
<title>Node8</title>
<g id="a_Node000008"><a xlink:href="classAttachmentViewer.html#aa9a8f363f1170ca114a5e93e537ed41e" target="_top" xlink:title="Starts the decryption phase. Updates the status label, ensures the MaskOverlay is visible,...">
<polygon fill="white" stroke="#666666" points="549,-29 377.75,-29 377.75,0 549,0 549,-29"/>
<text text-anchor="start" x="385.75" y="-15.5" font-family="Helvetica,sans-Serif" font-size="10.00">AttachmentViewer::StartDecryption</text>
<text text-anchor="middle" x="463.38" y="-5" font-family="Helvetica,sans-Serif" font-size="10.00">Animation</text>
</a>
</g>
</g>
<!-- Node4&#45;&gt;Node8 -->
<g id="edge7_Node000004_Node000008" class="edge">
<title>Node4&#45;&gt;Node8</title>
<g id="a_edge7_Node000004_Node000008"><a xlink:title=" ">
<path fill="none" stroke="#63b8ff" d="M324.91,-46.56C344.65,-41.96 366.56,-36.85 386.99,-32.08"/>
<polygon fill="#63b8ff" stroke="#63b8ff" points="387.75,-35.5 396.69,-29.82 386.16,-28.68 387.75,-35.5"/>
</a>
</g>
</g>
<!-- Node6 -->
<g id="Node000006" class="node">
<title>Node6</title>
<g id="a_Node000006"><a xlink:href="classAttachmentViewer.html#a37125c2f6e7eda53cd7a02ff5de60a97" target="_top" xlink:title="Emitted when the decryptionCounter property changes. Connected to the MaskOverlay&#39;s SetRevealProgress...">
<polygon fill="white" stroke="#666666" points="732.25,-123 585,-123 585,-94 732.25,-94 732.25,-123"/>
<text text-anchor="start" x="593" y="-109.5" font-family="Helvetica,sans-Serif" font-size="10.00">AttachmentViewer::decryption</text>
<text text-anchor="middle" x="658.62" y="-99" font-family="Helvetica,sans-Serif" font-size="10.00">CounterChanged</text>
</a>
</g>
</g>
<!-- Node5&#45;&gt;Node6 -->
<g id="edge5_Node000005_Node000006" class="edge">
<title>Node5&#45;&gt;Node6</title>
<g id="a_edge5_Node000005_Node000006"><a xlink:title=" ">
<path fill="none" stroke="#63b8ff" d="M525.79,-76.44C544.63,-81.02 565.54,-86.1 585.05,-90.85"/>
<polygon fill="#63b8ff" stroke="#63b8ff" points="584.03,-94.2 594.57,-93.16 585.68,-87.4 584.03,-94.2"/>
</a>
</g>
</g>
<!-- Node7 -->
<g id="Node000007" class="node">
<title>Node7</title>
<g id="a_Node000007"><a xlink:href="classAttachmentViewer.html#a0ec55f1bb4c15bac94e09814d0bf844f" target="_top" xlink:title="Updates the status label text to show the current decryption percentage.">
<polygon fill="white" stroke="#666666" points="725.12,-76 592.12,-76 592.12,-47 725.12,-47 725.12,-76"/>
<text text-anchor="start" x="600.12" y="-62.5" font-family="Helvetica,sans-Serif" font-size="10.00">AttachmentViewer::Update</text>
<text text-anchor="middle" x="658.62" y="-52" font-family="Helvetica,sans-Serif" font-size="10.00">DecryptionStatus</text>
</a>
</g>
</g>
<!-- Node5&#45;&gt;Node7 -->
<g id="edge6_Node000005_Node000007" class="edge">
<title>Node5&#45;&gt;Node7</title>
<g id="a_edge6_Node000005_Node000007"><a xlink:title=" ">
<path fill="none" stroke="#63b8ff" d="M546.05,-61.5C557.48,-61.5 569.21,-61.5 580.55,-61.5"/>
<polygon fill="#63b8ff" stroke="#63b8ff" points="580.23,-65 590.23,-61.5 580.23,-58 580.23,-65"/>
</a>
</g>
</g>
<!-- Node9 -->
<g id="Node000009" class="node">
<title>Node9</title>
<g id="a_Node000009"><a xlink:href="classAttachmentViewer.html#af14d1bf565cd71a64db42d386ede1597" target="_top" xlink:title="Slot called when the decryption animation finishes. Sets the state to decrypted, updates the status l...">
<polygon fill="white" stroke="#666666" points="722.5,-29 594.75,-29 594.75,0 722.5,0 722.5,-29"/>
<text text-anchor="start" x="602.75" y="-15.5" font-family="Helvetica,sans-Serif" font-size="10.00">AttachmentViewer::Finish</text>
<text text-anchor="middle" x="658.62" y="-5" font-family="Helvetica,sans-Serif" font-size="10.00">Decryption</text>
</a>
</g>
</g>
<!-- Node8&#45;&gt;Node9 -->
<g id="edge8_Node000008_Node000009" class="edge">
<title>Node8&#45;&gt;Node9</title>
<g id="a_edge8_Node000008_Node000009"><a xlink:title=" ">
<path fill="none" stroke="#63b8ff" d="M549.42,-14.5C560.62,-14.5 572.03,-14.5 583.03,-14.5"/>
<polygon fill="#63b8ff" stroke="#63b8ff" points="582.82,-18 592.82,-14.5 582.82,-11 582.82,-18"/>
</a>
</g>
</g>
</g>
</svg>

<g id="navigator" transform="translate(0 0)" fill="#404254">
  <rect fill="#f2f5e9" fill-opacity="0.5" stroke="#606060" stroke-width=".5" x="0" y="0" width="60" height="60"/>
  <use id="zoomplus" xlink:href="#zoomPlus" x="17" y="9" onmousedown="handleZoom(evt,'in')"/>
  <use id="zoomminus" xlink:href="#zoomMin" x="42" y="9" onmousedown="handleZoom(evt,'out')"/>
  <use id="reset" xlink:href="#resetDef" x="30" y="36" onmousedown="handleReset()"/>
   <use id="arrowup" xlink:href="#arrowUp" x="0" y="0" onmousedown="handlePan(0,-1)"/>
  <use id="arrowright" xlink:href="#arrowRight" x="0" y="0" onmousedown="handlePan(1,0)"/>
  <use id="arrowdown" xlink:href="#arrowDown" x="0" y="0" onmousedown="handlePan(0,1)"/>
  <use id="arrowleft" xlink:href="#arrowLeft" x="0" y="0" onmousedown="handlePan(-1,0)"/>
</g>
<svg viewBox="0 0 15 15" width="100%" height="30px" preserveAspectRatio="xMaxYMin meet">
 <g id="arrow_out" transform="scale(0.3 0.3)">
  <a xlink:href="classAttachmentViewer_a7f2dccdaa47930c6103f9392da17c17b_cgraph_org.svg" target="_base">
   <rect id="button" ry="5" rx="5" y="6" x="6" height="38" width="38"
        fill="#f2f5e9" fill-opacity="0.5" stroke="#606060" stroke-width="1.0"/>
   <path id="arrow"
     d="M 11.500037,31.436501 C 11.940474,20.09759 22.043105,11.32322 32.158766,21.979434 L 37.068811,17.246167 C 37.068811,17.246167 37.088388,32 37.088388,32 L 22.160133,31.978069 C 22.160133,31.978069 26.997745,27.140456 26.997745,27.140456 C 18.528582,18.264221 13.291696,25.230495 11.500037,31.436501 z"
     style="fill:#404040;"/>
  </a>
 </g>
</svg>

<style type='text/css'>
<![CDATA[
[data-mouse-over-selected='false'] { opacity: 0.7; }
[data-mouse-over-selected='true']  { opacity: 1.0; }
]]>
</style>
<script type="application/ecmascript"><![CDATA[
document.addEventListener('DOMContentLoaded', (event) => {
  highlightEdges();
  highlightAdjacentNodes();
});
]]></script>
</svg>
