<?xml version="1.0" encoding="UTF-8" standalone="no"?>
<!DOCTYPE svg PUBLIC "-//W3C//DTD SVG 1.1//EN"
 "http://www.w3.org/Graphics/SVG/1.1/DTD/svg11.dtd">
<!-- Generated by graphviz version 12.2.1 (0)
 -->
<!-- Title: AppInstanceManager::FinalizeAbsorption Pages: 1 -->
<svg width="581pt" height="59pt"
 viewBox="0.00 0.00 580.50 59.00" xmlns="http://www.w3.org/2000/svg" xmlns:xlink="http://www.w3.org/1999/xlink">
<g id="graph0" class="graph" transform="scale(1 1) rotate(0) translate(4 55)">
<title>AppInstanceManager::FinalizeAbsorption</title>
<!-- Node1 -->
<g id="Node000001" class="node">
<title>Node1</title>
<g id="a_Node000001"><a xlink:title="Finalizes the absorption process by quitting the client application.">
<polygon fill="#999999" stroke="#666666" points="572.5,-29 464.25,-29 464.25,0 572.5,0 572.5,-29"/>
<text text-anchor="start" x="472.25" y="-15.5" font-family="Helvetica,sans-Serif" font-size="10.00">AppInstanceManager</text>
<text text-anchor="middle" x="518.38" y="-5" font-family="Helvetica,sans-Serif" font-size="10.00">::FinalizeAbsorption</text>
</a>
</g>
</g>
<!-- Node2 -->
<g id="Node000002" class="node">
<title>Node2</title>
<g id="a_Node000002"><a xlink:href="classAppInstanceManager.html#a47fb8c069b2b3e5e6a19304726d59feb" target="_top" xlink:title="Starts the animation sequence for absorbing a client instance. This involves moving the client window...">
<polygon fill="white" stroke="#666666" points="428.25,-29 293.75,-29 293.75,0 428.25,0 428.25,-29"/>
<text text-anchor="start" x="301.75" y="-15.5" font-family="Helvetica,sans-Serif" font-size="10.00">AppInstanceManager</text>
<text text-anchor="middle" x="361" y="-5" font-family="Helvetica,sans-Serif" font-size="10.00">::StartAbsorptionAnimation</text>
</a>
</g>
</g>
<!-- Node1&#45;&gt;Node2 -->
<g id="edge1_Node000001_Node000002" class="edge">
<title>Node1&#45;&gt;Node2</title>
<g id="a_edge1_Node000001_Node000002"><a xlink:title=" ">
<path fill="none" stroke="#63b8ff" d="M452.55,-14.5C444.68,-14.5 436.64,-14.5 428.75,-14.5"/>
<polygon fill="#63b8ff" stroke="#63b8ff" points="452.39,-18 462.39,-14.5 452.39,-11 452.39,-18"/>
</a>
</g>
</g>
<!-- Node3 -->
<g id="Node000003" class="node">
<title>Node3</title>
<g id="a_Node000003"><a xlink:href="classAppInstanceManager.html#a46740893551d1b7e70d184740d0f5fee" target="_top" xlink:title="Applies a force to the client window, pulling it towards the target position (creator window).">
<polygon fill="white" stroke="#666666" points="257.75,-51 144.25,-51 144.25,-22 257.75,-22 257.75,-51"/>
<text text-anchor="start" x="152.25" y="-37.5" font-family="Helvetica,sans-Serif" font-size="10.00">AppInstanceManager</text>
<text text-anchor="middle" x="201" y="-27" font-family="Helvetica,sans-Serif" font-size="10.00">::ApplyAttractionForce</text>
</a>
</g>
</g>
<!-- Node2&#45;&gt;Node3 -->
<g id="edge2_Node000002_Node000003" class="edge">
<title>Node2&#45;&gt;Node3</title>
<g id="a_edge2_Node000002_Node000003"><a xlink:title=" ">
<path fill="none" stroke="#63b8ff" d="M282.3,-25.32C274.1,-26.46 265.87,-27.61 257.98,-28.71"/>
<polygon fill="#63b8ff" stroke="#63b8ff" points="282.53,-28.82 291.95,-23.97 281.57,-21.89 282.53,-28.82"/>
</a>
</g>
</g>
<!-- Node4 -->
<g id="Node000004" class="node">
<title>Node4</title>
<g id="a_Node000004"><a xlink:href="classAppInstanceManager.html#a0f209265d9df4a82fc23ccd0ba99dd82" target="_top" xlink:title="Initializes and starts the background thread responsible for attraction logic.">
<polygon fill="#fff0f0" stroke="red" points="108.25,-29 0,-29 0,0 108.25,0 108.25,-29"/>
<text text-anchor="start" x="8" y="-15.5" font-family="Helvetica,sans-Serif" font-size="10.00">AppInstanceManager</text>
<text text-anchor="middle" x="54.12" y="-5" font-family="Helvetica,sans-Serif" font-size="10.00">::InitAttractionThread</text>
</a>
</g>
</g>
<!-- Node2&#45;&gt;Node4 -->
<g id="edge4_Node000002_Node000004" class="edge">
<title>Node2&#45;&gt;Node4</title>
<g id="a_edge4_Node000002_Node000004"><a xlink:title=" ">
<path fill="none" stroke="#63b8ff" d="M281.94,-13.66C273.77,-13.59 265.59,-13.54 257.75,-13.5 207.31,-13.25 194.69,-13.22 144.25,-13.5 132.64,-13.57 120.19,-13.68 108.38,-13.8"/>
<polygon fill="#63b8ff" stroke="#63b8ff" points="281.91,-17.16 291.93,-13.74 281.96,-10.16 281.91,-17.16"/>
</a>
</g>
</g>
<!-- Node3&#45;&gt;Node4 -->
<g id="edge3_Node000003_Node000004" class="edge">
<title>Node3&#45;&gt;Node4</title>
<g id="a_edge3_Node000003_Node000004"><a xlink:title=" ">
<path fill="none" stroke="#63b8ff" d="M132.68,-26.28C124.6,-25.05 116.45,-23.81 108.61,-22.62"/>
<polygon fill="#63b8ff" stroke="#63b8ff" points="132.08,-29.73 142.49,-27.77 133.13,-22.81 132.08,-29.73"/>
</a>
</g>
</g>
</g>
</svg>
