<?xml version="1.0" encoding="UTF-8" standalone="no"?>
<!DOCTYPE svg PUBLIC "-//W3C//DTD SVG 1.1//EN"
 "http://www.w3.org/Graphics/SVG/1.1/DTD/svg11.dtd">
<!-- Generated by graphviz version 12.2.1 (0)
 -->
<!-- Title: CommunicationStream::ConnectSignalsForMessage Pages: 1 -->
<svg width="886pt" height="442pt"
 viewBox="0.00 0.00 886.00 441.75" xmlns="http://www.w3.org/2000/svg" xmlns:xlink="http://www.w3.org/1999/xlink">
<g id="graph0" class="graph" transform="scale(1 1) rotate(0) translate(4 437.75)">
<title>CommunicationStream::ConnectSignalsForMessage</title>
<!-- Node1 -->
<g id="Node000001" class="node">
<title>Node1</title>
<g id="a_Node000001"><a xlink:title="Connects the necessary signals (navigation, read, hidden) from a StreamMessage widget to this Communi...">
<polygon fill="#999999" stroke="#666666" points="145,-273.75 0,-273.75 0,-244.75 145,-244.75 145,-273.75"/>
<text text-anchor="start" x="8" y="-260.25" font-family="Helvetica,sans-Serif" font-size="10.00">CommunicationStream</text>
<text text-anchor="middle" x="72.5" y="-249.75" font-family="Helvetica,sans-Serif" font-size="10.00">::ConnectSignalsForMessage</text>
</a>
</g>
</g>
<!-- Node2 -->
<g id="Node000002" class="node">
<title>Node2</title>
<g id="a_Node000002"><a xlink:href="classStreamMessage.html#adb6463258367b6d672096da549b66b3c" target="_top" xlink:title="Gets a pointer to the Next navigation button.">
<polygon fill="white" stroke="#666666" points="339.5,-412.5 181,-412.5 181,-394 339.5,-394 339.5,-412.5"/>
<text text-anchor="middle" x="260.25" y="-399" font-family="Helvetica,sans-Serif" font-size="10.00">StreamMessage::GetNextButton</text>
</a>
</g>
</g>
<!-- Node1&#45;&gt;Node2 -->
<g id="edge1_Node000001_Node000002" class="edge">
<title>Node1&#45;&gt;Node2</title>
<g id="a_edge1_Node000001_Node000002"><a xlink:title=" ">
<path fill="none" stroke="#63b8ff" d="M82,-274.23C97.87,-300.75 134.62,-355.85 181,-384.25 184.1,-386.15 187.38,-387.86 190.76,-389.39"/>
<polygon fill="#63b8ff" stroke="#63b8ff" points="189.19,-392.54 199.78,-392.96 191.76,-386.03 189.19,-392.54"/>
</a>
</g>
</g>
<!-- Node3 -->
<g id="Node000003" class="node">
<title>Node3</title>
<g id="a_Node000003"><a xlink:href="classStreamMessage.html#ac27d661cfaa66160fc573acd3db4746e" target="_top" xlink:title="Gets a pointer to the Previous navigation button.">
<polygon fill="white" stroke="#666666" points="339.12,-375.5 181.38,-375.5 181.38,-357 339.12,-357 339.12,-375.5"/>
<text text-anchor="middle" x="260.25" y="-362" font-family="Helvetica,sans-Serif" font-size="10.00">StreamMessage::GetPrevButton</text>
</a>
</g>
</g>
<!-- Node1&#45;&gt;Node3 -->
<g id="edge2_Node000001_Node000003" class="edge">
<title>Node1&#45;&gt;Node3</title>
<g id="a_edge2_Node000001_Node000003"><a xlink:title=" ">
<path fill="none" stroke="#63b8ff" d="M86.91,-274.02C105.88,-293.98 142.55,-329.26 181,-348.25 184.48,-349.97 188.13,-351.53 191.87,-352.94"/>
<polygon fill="#63b8ff" stroke="#63b8ff" points="190.55,-356.19 201.15,-356.06 192.79,-349.55 190.55,-356.19"/>
</a>
</g>
</g>
<!-- Node4 -->
<g id="Node000004" class="node">
<title>Node4</title>
<g id="a_Node000004"><a xlink:href="classCommunicationStream.html#a2283a11febe30f9d2d1887c2c20e7ea3" target="_top" xlink:title="Slot triggered when a StreamMessage widget finishes its hiding animation (or is hidden)....">
<polygon fill="white" stroke="#666666" points="321.88,-338.75 198.62,-338.75 198.62,-309.75 321.88,-309.75 321.88,-338.75"/>
<text text-anchor="start" x="206.62" y="-325.25" font-family="Helvetica,sans-Serif" font-size="10.00">CommunicationStream</text>
<text text-anchor="middle" x="260.25" y="-314.75" font-family="Helvetica,sans-Serif" font-size="10.00">::HandleMessageHidden</text>
</a>
</g>
</g>
<!-- Node1&#45;&gt;Node4 -->
<g id="edge3_Node000001_Node000004" class="edge">
<title>Node1&#45;&gt;Node4</title>
<g id="a_edge3_Node000001_Node000004"><a xlink:title=" ">
<path fill="none" stroke="#63b8ff" d="M116.11,-274.16C142.8,-283.5 177.41,-295.61 205.92,-305.59"/>
<polygon fill="#63b8ff" stroke="#63b8ff" points="204.49,-308.8 215.08,-308.79 206.8,-302.19 204.49,-308.8"/>
</a>
</g>
</g>
<!-- Node17 -->
<g id="Node000017" class="node">
<title>Node17</title>
<g id="a_Node000017"><a xlink:href="classStreamMessage.html#aa04caea13bddde1d0ea72f43ad26e8f8" target="_top" xlink:title="Emitted when the message finishes its fade&#45;out or closing animation and becomes hidden.">
<polygon fill="white" stroke="#666666" points="878,-107.5 756.25,-107.5 756.25,-89 878,-89 878,-107.5"/>
<text text-anchor="middle" x="817.12" y="-94" font-family="Helvetica,sans-Serif" font-size="10.00">StreamMessage::hidden</text>
</a>
</g>
</g>
<!-- Node1&#45;&gt;Node17 -->
<g id="edge14_Node000001_Node000017" class="edge">
<title>Node1&#45;&gt;Node17</title>
<g id="a_edge14_Node000001_Node000017"><a xlink:title=" ">
<path fill="none" stroke="#63b8ff" d="M85.55,-244.42C103.72,-223.27 140.35,-185.14 181,-168.25 403.13,-75.96 482.99,-161.8 720.25,-122.25 737.44,-119.38 756.08,-115.02 772.31,-110.79"/>
<polygon fill="#63b8ff" stroke="#63b8ff" points="772.9,-114.25 781.66,-108.29 771.1,-107.49 772.9,-114.25"/>
</a>
</g>
</g>
<!-- Node18 -->
<g id="Node000018" class="node">
<title>Node18</title>
<g id="a_Node000018"><a xlink:href="classCommunicationStream.html#a7cf62e4c83ddbf85a1bb47ddb8d9422b" target="_top" xlink:title="Slot triggered when the user requests to close the current message (e.g., clicks &quot;Read&quot; or presses En...">
<polygon fill="white" stroke="#666666" points="318.12,-89.75 202.38,-89.75 202.38,-60.75 318.12,-60.75 318.12,-89.75"/>
<text text-anchor="start" x="210.38" y="-76.25" font-family="Helvetica,sans-Serif" font-size="10.00">CommunicationStream</text>
<text text-anchor="middle" x="260.25" y="-65.75" font-family="Helvetica,sans-Serif" font-size="10.00">::OnMessageRead</text>
</a>
</g>
</g>
<!-- Node1&#45;&gt;Node18 -->
<g id="edge15_Node000001_Node000018" class="edge">
<title>Node1&#45;&gt;Node18</title>
<g id="a_edge15_Node000001_Node000018"><a xlink:title=" ">
<path fill="none" stroke="#63b8ff" d="M83.24,-244.57C100.75,-218.85 139.63,-164.79 181,-127.25 193.73,-115.7 209.25,-104.84 223.09,-96.07"/>
<polygon fill="#63b8ff" stroke="#63b8ff" points="224.86,-99.09 231.53,-90.86 221.18,-93.13 224.86,-99.09"/>
</a>
</g>
</g>
<!-- Node23 -->
<g id="Node000023" class="node">
<title>Node23</title>
<g id="a_Node000023"><a xlink:href="classCommunicationStream.html#a600acedc2f4f586b28c147077f768438" target="_top" xlink:title="Shows the next message in the list, if available.">
<polygon fill="white" stroke="#666666" points="318.12,-205.75 202.38,-205.75 202.38,-176.75 318.12,-176.75 318.12,-205.75"/>
<text text-anchor="start" x="210.38" y="-192.25" font-family="Helvetica,sans-Serif" font-size="10.00">CommunicationStream</text>
<text text-anchor="middle" x="260.25" y="-181.75" font-family="Helvetica,sans-Serif" font-size="10.00">::ShowNextMessage</text>
</a>
</g>
</g>
<!-- Node1&#45;&gt;Node23 -->
<g id="edge22_Node000001_Node000023" class="edge">
<title>Node1&#45;&gt;Node23</title>
<g id="a_edge22_Node000001_Node000023"><a xlink:title=" ">
<path fill="none" stroke="#63b8ff" d="M107.57,-244.38C128.56,-235.45 156.12,-224.14 181,-215.25 186.3,-213.36 191.83,-211.47 197.4,-209.65"/>
<polygon fill="#63b8ff" stroke="#63b8ff" points="198.21,-213.06 206.66,-206.67 196.07,-206.4 198.21,-213.06"/>
</a>
</g>
</g>
<!-- Node24 -->
<g id="Node000024" class="node">
<title>Node24</title>
<g id="a_Node000024"><a xlink:href="classCommunicationStream.html#a918c54f07703dce3733f2aec5b09503d" target="_top" xlink:title="Shows the previous message in the list, if available.">
<polygon fill="white" stroke="#666666" points="322.62,-252.75 197.88,-252.75 197.88,-223.75 322.62,-223.75 322.62,-252.75"/>
<text text-anchor="start" x="205.88" y="-239.25" font-family="Helvetica,sans-Serif" font-size="10.00">CommunicationStream</text>
<text text-anchor="middle" x="260.25" y="-228.75" font-family="Helvetica,sans-Serif" font-size="10.00">::ShowPreviousMessage</text>
</a>
</g>
</g>
<!-- Node1&#45;&gt;Node24 -->
<g id="edge25_Node000001_Node000024" class="edge">
<title>Node1&#45;&gt;Node24</title>
<g id="a_edge25_Node000001_Node000024"><a xlink:title=" ">
<path fill="none" stroke="#63b8ff" d="M145.32,-251.13C158.79,-249.61 172.9,-248.01 186.41,-246.49"/>
<polygon fill="#63b8ff" stroke="#63b8ff" points="186.54,-249.99 196.09,-245.39 185.76,-243.04 186.54,-249.99"/>
</a>
</g>
</g>
<!-- Node5 -->
<g id="Node000005" class="node">
<title>Node5</title>
<g id="a_Node000005"><a xlink:href="classCommunicationStream.html#a26fe6873c1da55aaa2b9f82c69ace778" target="_top" xlink:title="Disconnects all signals originating from the given StreamMessage widget that are connected to this Co...">
<polygon fill="white" stroke="#666666" points="719.88,-386.75 562.12,-386.75 562.12,-357.75 719.88,-357.75 719.88,-386.75"/>
<text text-anchor="start" x="570.12" y="-373.25" font-family="Helvetica,sans-Serif" font-size="10.00">CommunicationStream</text>
<text text-anchor="middle" x="641" y="-362.75" font-family="Helvetica,sans-Serif" font-size="10.00">::DisconnectSignalsForMessage</text>
</a>
</g>
</g>
<!-- Node4&#45;&gt;Node5 -->
<g id="edge4_Node000004_Node000005" class="edge">
<title>Node4&#45;&gt;Node5</title>
<g id="a_edge4_Node000004_Node000005"><a xlink:title=" ">
<path fill="none" stroke="#63b8ff" d="M322.1,-331.96C383.93,-339.8 480.37,-352.02 550.82,-360.95"/>
<polygon fill="#63b8ff" stroke="#63b8ff" points="550.04,-364.38 560.4,-362.16 550.92,-357.43 550.04,-364.38"/>
</a>
</g>
</g>
<!-- Node6 -->
<g id="Node000006" class="node">
<title>Node6</title>
<g id="a_Node000006"><a xlink:href="classCommunicationStream.html#a1924054445cb48103b7422b7789cb1d9" target="_top" xlink:title="Initiates the animation returning the wave to the &quot;Idle&quot; state. Animates amplitude,...">
<polygon fill="white" stroke="#666666" points="700.75,-433.75 581.25,-433.75 581.25,-404.75 700.75,-404.75 700.75,-433.75"/>
<text text-anchor="start" x="589.25" y="-420.25" font-family="Helvetica,sans-Serif" font-size="10.00">CommunicationStream</text>
<text text-anchor="middle" x="641" y="-409.75" font-family="Helvetica,sans-Serif" font-size="10.00">::ReturnToIdleAnimation</text>
</a>
</g>
</g>
<!-- Node4&#45;&gt;Node6 -->
<g id="edge5_Node000004_Node000006" class="edge">
<title>Node4&#45;&gt;Node6</title>
<g id="a_edge5_Node000004_Node000006"><a xlink:title=" ">
<path fill="none" stroke="#63b8ff" d="M311.94,-339.2C321.15,-342.09 330.64,-345.17 339.5,-348.25 355.72,-353.88 359.06,-357.32 375.5,-362.25 440.29,-381.7 515.89,-397.3 569.63,-407.23"/>
<polygon fill="#63b8ff" stroke="#63b8ff" points="568.8,-410.64 579.26,-408.99 570.06,-403.75 568.8,-410.64"/>
</a>
</g>
</g>
<!-- Node7 -->
<g id="Node000007" class="node">
<title>Node7</title>
<g id="a_Node000007"><a xlink:href="classCommunicationStream.html#aba44a533978e83748764534a8682c56f" target="_top" xlink:title="Displays the message at the specified index in the messages_ list. Hides the previously displayed mes...">
<polygon fill="white" stroke="#666666" points="510.75,-298.75 390.5,-298.75 390.5,-269.75 510.75,-269.75 510.75,-298.75"/>
<text text-anchor="start" x="398.5" y="-285.25" font-family="Helvetica,sans-Serif" font-size="10.00">CommunicationStream</text>
<text text-anchor="middle" x="450.62" y="-274.75" font-family="Helvetica,sans-Serif" font-size="10.00">::ShowMessageAtIndex</text>
</a>
</g>
</g>
<!-- Node4&#45;&gt;Node7 -->
<g id="edge6_Node000004_Node000007" class="edge">
<title>Node4&#45;&gt;Node7</title>
<g id="a_edge6_Node000004_Node000007"><a xlink:title=" ">
<path fill="none" stroke="#63b8ff" d="M322.15,-311.32C340.31,-307.46 360.36,-303.21 379.07,-299.23"/>
<polygon fill="#63b8ff" stroke="#63b8ff" points="379.69,-302.68 388.74,-297.18 378.23,-295.83 379.69,-302.68"/>
</a>
</g>
</g>
<!-- Node7&#45;&gt;Node1 -->
<g id="edge7_Node000007_Node000001" class="edge">
<title>Node7&#45;&gt;Node1</title>
<g id="a_edge7_Node000007_Node000001"><a xlink:title=" ">
<path fill="none" stroke="#63b8ff" d="M390.02,-280.29C326.94,-276.1 226.92,-269.45 156.22,-264.75"/>
<polygon fill="#63b8ff" stroke="#63b8ff" points="156.85,-261.28 146.64,-264.11 156.39,-268.27 156.85,-261.28"/>
</a>
</g>
</g>
<!-- Node7&#45;&gt;Node5 -->
<g id="edge8_Node000007_Node000005" class="edge">
<title>Node7&#45;&gt;Node5</title>
<g id="a_edge8_Node000007_Node000005"><a xlink:title=" ">
<path fill="none" stroke="#63b8ff" d="M473.61,-299.05C495.29,-313.16 529.74,-334.26 561.75,-348.25 566,-350.11 570.43,-351.88 574.94,-353.56"/>
<polygon fill="#63b8ff" stroke="#63b8ff" points="573.51,-356.77 584.11,-356.81 575.85,-350.17 573.51,-356.77"/>
</a>
</g>
</g>
<!-- Node7&#45;&gt;Node6 -->
<g id="edge11_Node000007_Node000006" class="edge">
<title>Node7&#45;&gt;Node6</title>
<g id="a_edge11_Node000007_Node000006"><a xlink:title=" ">
<path fill="none" stroke="#63b8ff" d="M462.06,-298.94C479.82,-322.87 518.24,-370.18 561.75,-396.25 564.54,-397.92 567.46,-399.48 570.46,-400.93"/>
<polygon fill="#63b8ff" stroke="#63b8ff" points="568.97,-404.1 579.54,-404.85 571.75,-397.67 568.97,-404.1"/>
</a>
</g>
</g>
<!-- Node8 -->
<g id="Node000008" class="node">
<title>Node8</title>
<g id="a_Node000008"><a xlink:href="classStreamMessage.html#a34d536edeb897ec7e7c6cc1a4bd34e2e" target="_top" xlink:title="Starts the fade&#45;in animation (opacity and glow). Also triggers the text reveal animation (CyberTextDi...">
<polygon fill="#fff0f0" stroke="red" points="702.62,-339.5 579.38,-339.5 579.38,-321 702.62,-321 702.62,-339.5"/>
<text text-anchor="middle" x="641" y="-326" font-family="Helvetica,sans-Serif" font-size="10.00">StreamMessage::FadeIn</text>
</a>
</g>
</g>
<!-- Node7&#45;&gt;Node8 -->
<g id="edge9_Node000007_Node000008" class="edge">
<title>Node7&#45;&gt;Node8</title>
<g id="a_edge9_Node000007_Node000008"><a xlink:title=" ">
<path fill="none" stroke="#63b8ff" d="M509.57,-299.25C526.38,-303.53 544.78,-308.14 561.75,-312.25 569.49,-314.12 577.66,-316.06 585.7,-317.93"/>
<polygon fill="#63b8ff" stroke="#63b8ff" points="584.9,-321.34 595.43,-320.18 586.48,-314.52 584.9,-321.34"/>
</a>
</g>
</g>
<!-- Node12 -->
<g id="Node000012" class="node">
<title>Node12</title>
<g id="a_Node000012"><a xlink:href="classCommunicationStream.html#a3dacb87ca5d81ace1a6c96d8d6dfbdfd" target="_top" xlink:title="Temporarily reduces the background animation frame rate during message transitions for smoother UI pe...">
<polygon fill="white" stroke="#666666" points="719.12,-198.75 562.88,-198.75 562.88,-169.75 719.12,-169.75 719.12,-198.75"/>
<text text-anchor="start" x="570.88" y="-185.25" font-family="Helvetica,sans-Serif" font-size="10.00">CommunicationStream</text>
<text text-anchor="middle" x="641" y="-174.75" font-family="Helvetica,sans-Serif" font-size="10.00">::OptimizeForMessageTransition</text>
</a>
</g>
</g>
<!-- Node7&#45;&gt;Node12 -->
<g id="edge10_Node000007_Node000012" class="edge">
<title>Node7&#45;&gt;Node12</title>
<g id="a_edge10_Node000007_Node000012"><a xlink:title=" ">
<path fill="none" stroke="#63b8ff" d="M484.3,-269.33C497.71,-262.54 513.03,-253.86 525.75,-244.25 544.06,-230.42 542.1,-219.1 561.75,-207.25 563.66,-206.1 565.63,-205 567.65,-203.96"/>
<polygon fill="#63b8ff" stroke="#63b8ff" points="569.06,-207.16 576.68,-199.79 566.13,-200.8 569.06,-207.16"/>
</a>
</g>
</g>
<!-- Node13 -->
<g id="Node000013" class="node">
<title>Node13</title>
<g id="a_Node000013"><a xlink:href="classCommunicationStream.html#abc68c909fea5d149eba5ceca8dcf5894" target="_top" xlink:title="Updates the position of the currently displayed message to keep it centered.">
<polygon fill="white" stroke="#666666" points="705.25,-302.75 576.75,-302.75 576.75,-273.75 705.25,-273.75 705.25,-302.75"/>
<text text-anchor="start" x="584.75" y="-289.25" font-family="Helvetica,sans-Serif" font-size="10.00">CommunicationStream</text>
<text text-anchor="middle" x="641" y="-278.75" font-family="Helvetica,sans-Serif" font-size="10.00">::UpdateMessagePosition</text>
</a>
</g>
</g>
<!-- Node7&#45;&gt;Node13 -->
<g id="edge12_Node000007_Node000013" class="edge">
<title>Node7&#45;&gt;Node13</title>
<g id="a_edge12_Node000007_Node000013"><a xlink:title=" ">
<path fill="none" stroke="#63b8ff" d="M511.23,-285.52C528.37,-285.88 547.3,-286.28 565.24,-286.66"/>
<polygon fill="#63b8ff" stroke="#63b8ff" points="564.97,-290.16 575.04,-286.87 565.12,-283.16 564.97,-290.16"/>
</a>
</g>
</g>
<!-- Node14 -->
<g id="Node000014" class="node">
<title>Node14</title>
<g id="a_Node000014"><a xlink:href="classCommunicationStream.html#a1b1a57ca6f1ccaac8e413cacdd3e69f6" target="_top" xlink:title="Updates the visibility of the &quot;Next&quot; and &quot;Previous&quot; buttons on the currently displayed message based ...">
<polygon fill="#fff0f0" stroke="red" points="715,-256 567,-256 567,-216.5 715,-216.5 715,-256"/>
<text text-anchor="start" x="575" y="-242.5" font-family="Helvetica,sans-Serif" font-size="10.00">CommunicationStream</text>
<text text-anchor="start" x="575" y="-232" font-family="Helvetica,sans-Serif" font-size="10.00">::UpdateNavigationButtonsFor</text>
<text text-anchor="middle" x="641" y="-221.5" font-family="Helvetica,sans-Serif" font-size="10.00">CurrentMessage</text>
</a>
</g>
</g>
<!-- Node7&#45;&gt;Node14 -->
<g id="edge13_Node000007_Node000014" class="edge">
<title>Node7&#45;&gt;Node14</title>
<g id="a_edge13_Node000007_Node000014"><a xlink:title=" ">
<path fill="none" stroke="#63b8ff" d="M510.45,-269.26C524.79,-265.61 540.4,-261.63 555.66,-257.74"/>
<polygon fill="#63b8ff" stroke="#63b8ff" points="556.4,-261.17 565.22,-255.3 554.67,-254.38 556.4,-261.17"/>
</a>
</g>
</g>
<!-- Node19 -->
<g id="Node000019" class="node">
<title>Node19</title>
<g id="a_Node000019"><a xlink:href="classStreamMessage.html#ad759a905d0a2cc1874d4781c97b9a2fc" target="_top" xlink:title="Marks the message as read, triggers the appropriate closing animation (Electronic Shutdown or a simpl...">
<polygon fill="white" stroke="#666666" points="525.75,-72.5 375.5,-72.5 375.5,-54 525.75,-54 525.75,-72.5"/>
<text text-anchor="middle" x="450.62" y="-59" font-family="Helvetica,sans-Serif" font-size="10.00">StreamMessage::MarkAsRead</text>
</a>
</g>
</g>
<!-- Node18&#45;&gt;Node19 -->
<g id="edge16_Node000018_Node000019" class="edge">
<title>Node18&#45;&gt;Node19</title>
<g id="a_edge16_Node000018_Node000019"><a xlink:title=" ">
<path fill="none" stroke="#63b8ff" d="M318.54,-71.6C332.91,-70.69 348.64,-69.68 364.06,-68.7"/>
<polygon fill="#63b8ff" stroke="#63b8ff" points="363.95,-72.22 373.7,-68.09 363.5,-65.23 363.95,-72.22"/>
</a>
</g>
</g>
<!-- Node20 -->
<g id="Node000020" class="node">
<title>Node20</title>
<g id="a_Node000020"><a xlink:href="classStreamMessage.html#ab76d3005cedeb795654afd453108593f" target="_top" xlink:title="Emitted when the message is marked as read (MarkAsRead() is called).">
<polygon fill="white" stroke="#666666" points="718.75,-18.5 563.25,-18.5 563.25,0 718.75,0 718.75,-18.5"/>
<text text-anchor="middle" x="641" y="-5" font-family="Helvetica,sans-Serif" font-size="10.00">StreamMessage::messageRead</text>
</a>
</g>
</g>
<!-- Node19&#45;&gt;Node20 -->
<g id="edge17_Node000019_Node000020" class="edge">
<title>Node19&#45;&gt;Node20</title>
<g id="a_edge17_Node000019_Node000020"><a xlink:title=" ">
<path fill="none" stroke="#63b8ff" d="M479.02,-53.53C501.18,-45.86 533.26,-35.17 561.75,-27.25 568.8,-25.29 576.24,-23.38 583.62,-21.58"/>
<polygon fill="#63b8ff" stroke="#63b8ff" points="584.33,-25.01 593.25,-19.29 582.71,-18.2 584.33,-25.01"/>
</a>
</g>
</g>
<!-- Node21 -->
<g id="Node000021" class="node">
<title>Node21</title>
<g id="a_Node000021"><a xlink:href="classStreamMessage.html#a54a074c315a53d482650cd24d3e57d60" target="_top" xlink:title="Starts a simpler closing animation (glitch/fade) used specifically for long messages displayed in a s...">
<polygon fill="white" stroke="#666666" points="709,-112.75 573,-112.75 573,-83.75 709,-83.75 709,-112.75"/>
<text text-anchor="start" x="581" y="-99.25" font-family="Helvetica,sans-Serif" font-size="10.00">StreamMessage::StartLong</text>
<text text-anchor="middle" x="641" y="-88.75" font-family="Helvetica,sans-Serif" font-size="10.00">MessageClosingAnimation</text>
</a>
</g>
</g>
<!-- Node19&#45;&gt;Node21 -->
<g id="edge18_Node000019_Node000021" class="edge">
<title>Node19&#45;&gt;Node21</title>
<g id="a_edge18_Node000019_Node000021"><a xlink:title=" ">
<path fill="none" stroke="#63b8ff" d="M504.1,-73C521.84,-76.3 542.07,-80.05 561.39,-83.64"/>
<polygon fill="#63b8ff" stroke="#63b8ff" points="560.68,-87.07 571.15,-85.46 561.95,-80.19 560.68,-87.07"/>
</a>
</g>
</g>
<!-- Node22 -->
<g id="Node000022" class="node">
<title>Node22</title>
<g id="a_Node000022"><a xlink:href="classStreamMessage.html#a8bbf535db654d1c7c94546c61fdc936c" target="_top" xlink:title="Starts the electronic shutdown closing animation. Applies the ElectronicShutdownEffect and animates i...">
<polygon fill="white" stroke="#666666" points="720.25,-65.75 561.75,-65.75 561.75,-36.75 720.25,-36.75 720.25,-65.75"/>
<text text-anchor="start" x="569.75" y="-52.25" font-family="Helvetica,sans-Serif" font-size="10.00">StreamMessage::StartShutdown</text>
<text text-anchor="middle" x="641" y="-41.75" font-family="Helvetica,sans-Serif" font-size="10.00">Animation</text>
</a>
</g>
</g>
<!-- Node19&#45;&gt;Node22 -->
<g id="edge20_Node000019_Node000022" class="edge">
<title>Node19&#45;&gt;Node22</title>
<g id="a_edge20_Node000019_Node000022"><a xlink:title=" ">
<path fill="none" stroke="#63b8ff" d="M526.08,-58.51C533.97,-58 542.07,-57.49 550.12,-56.98"/>
<polygon fill="#63b8ff" stroke="#63b8ff" points="550.18,-60.48 559.94,-56.35 549.73,-53.49 550.18,-60.48"/>
</a>
</g>
</g>
<!-- Node21&#45;&gt;Node17 -->
<g id="edge19_Node000021_Node000017" class="edge">
<title>Node21&#45;&gt;Node17</title>
<g id="a_edge19_Node000021_Node000017"><a xlink:title=" ">
<path fill="none" stroke="#63b8ff" d="M709.32,-98.25C720.81,-98.25 732.77,-98.25 744.37,-98.25"/>
<polygon fill="#63b8ff" stroke="#63b8ff" points="744.29,-101.75 754.29,-98.25 744.29,-94.75 744.29,-101.75"/>
</a>
</g>
</g>
<!-- Node22&#45;&gt;Node17 -->
<g id="edge21_Node000022_Node000017" class="edge">
<title>Node22&#45;&gt;Node17</title>
<g id="a_edge21_Node000022_Node000017"><a xlink:title=" ">
<path fill="none" stroke="#63b8ff" d="M697.09,-66.12C720.28,-72.38 746.97,-79.58 769.2,-85.58"/>
<polygon fill="#63b8ff" stroke="#63b8ff" points="768.02,-88.89 778.58,-88.12 769.84,-82.13 768.02,-88.89"/>
</a>
</g>
</g>
<!-- Node23&#45;&gt;Node7 -->
<g id="edge24_Node000023_Node000007" class="edge">
<title>Node23&#45;&gt;Node7</title>
<g id="a_edge24_Node000023_Node000007"><a xlink:title=" ">
<path fill="none" stroke="#63b8ff" d="M316.24,-206.11C324.17,-208.83 332.13,-211.88 339.5,-215.25 368.33,-228.42 398.68,-247.92 420.2,-262.83"/>
<polygon fill="#63b8ff" stroke="#63b8ff" points="418,-265.56 428.19,-268.45 422.03,-259.83 418,-265.56"/>
</a>
</g>
</g>
<!-- Node23&#45;&gt;Node12 -->
<g id="edge23_Node000023_Node000012" class="edge">
<title>Node23&#45;&gt;Node12</title>
<g id="a_edge23_Node000023_Node000012"><a xlink:title=" ">
<path fill="none" stroke="#63b8ff" d="M318.36,-190.19C380.15,-189.05 479.47,-187.22 551.4,-185.89"/>
<polygon fill="#63b8ff" stroke="#63b8ff" points="551.26,-189.39 561.19,-185.71 551.13,-182.39 551.26,-189.39"/>
</a>
</g>
</g>
<!-- Node24&#45;&gt;Node7 -->
<g id="edge27_Node000024_Node000007" class="edge">
<title>Node24&#45;&gt;Node7</title>
<g id="a_edge27_Node000024_Node000007"><a xlink:title=" ">
<path fill="none" stroke="#63b8ff" d="M322.67,-253.25C340.72,-257.65 360.59,-262.51 379.16,-267.04"/>
<polygon fill="#63b8ff" stroke="#63b8ff" points="378.2,-270.41 388.74,-269.38 379.86,-263.61 378.2,-270.41"/>
</a>
</g>
</g>
<!-- Node24&#45;&gt;Node12 -->
<g id="edge26_Node000024_Node000012" class="edge">
<title>Node24&#45;&gt;Node12</title>
<g id="a_edge26_Node000024_Node000012"><a xlink:title=" ">
<path fill="none" stroke="#63b8ff" d="M323.03,-230.21C376.67,-223.15 456.4,-212.43 525.75,-202.25 534.04,-201.03 542.66,-199.73 551.28,-198.41"/>
<polygon fill="#63b8ff" stroke="#63b8ff" points="551.75,-201.88 561.1,-196.9 550.69,-194.97 551.75,-201.88"/>
</a>
</g>
</g>
</g>
</svg>
