<?xml version="1.0" encoding="UTF-8" standalone="no"?>
<!DOCTYPE svg PUBLIC "-//W3C//DTD SVG 1.1//EN"
 "http://www.w3.org/Graphics/SVG/1.1/DTD/svg11.dtd">
<!-- Generated by graphviz version 12.2.1 (0)
 -->
<!-- Title: CyberChatButton Pages: 1 -->
<svg width="150pt" height="185pt"
 viewBox="0.00 0.00 149.75 185.00" xmlns="http://www.w3.org/2000/svg" xmlns:xlink="http://www.w3.org/1999/xlink">
<g id="graph0" class="graph" transform="scale(1 1) rotate(0) translate(4 181)">
<title>CyberChatButton</title>
<!-- Node1 -->
<g id="Node000001" class="node">
<title>Node1</title>
<g id="a_Node000001"><a xlink:title="A custom QPushButton styled with a simple cyberpunk aesthetic for chat input areas.">
<polygon fill="#999999" stroke="none" points="141.75,-93.5 0,-93.5 0,0 141.75,0 141.75,-93.5"/>
<text text-anchor="start" x="33" y="-80" font-family="Helvetica,sans-Serif" font-size="10.00">CyberChatButton</text>
<text text-anchor="start" x="69.38" y="-65.5" font-family="Helvetica,sans-Serif" font-size="10.00"> </text>
<text text-anchor="start" x="4" y="-51" font-family="Helvetica,sans-Serif" font-size="10.00">+</text>
<text text-anchor="start" x="14" y="-51" font-family="Helvetica,sans-Serif" font-size="10.00">CyberChatButton(const</text>
<text text-anchor="start" x="14" y="-40.5" font-family="Helvetica,sans-Serif" font-size="10.00"> QString &amp;text, QWidget</text>
<text text-anchor="start" x="14" y="-30" font-family="Helvetica,sans-Serif" font-size="10.00"> *parent=nullptr)</text>
<text text-anchor="start" x="4.38" y="-15.5" font-family="Helvetica,sans-Serif" font-size="10.00">#</text>
<text text-anchor="start" x="14" y="-15.5" font-family="Helvetica,sans-Serif" font-size="10.00">void paintEvent(QPaintEvent</text>
<text text-anchor="start" x="14" y="-5" font-family="Helvetica,sans-Serif" font-size="10.00"> *event) override</text>
<polygon fill="#666666" stroke="#666666" points="0,-77 0,-77 141.75,-77 141.75,-77 0,-77"/>
<polygon fill="#666666" stroke="#666666" points="0,-62.5 0,-62.5 141.75,-62.5 141.75,-62.5 0,-62.5"/>
<polygon fill="none" stroke="#666666" points="0,0 0,-93.5 141.75,-93.5 141.75,0 0,0"/>
</a>
</g>
</g>
<!-- Node2 -->
<g id="Node000002" class="node">
<title>Node2</title>
<g id="a_Node000002"><a xlink:title=" ">
<polygon fill="white" stroke="none" points="104.12,-177 37.62,-177 37.62,-129.5 104.12,-129.5 104.12,-177"/>
<text text-anchor="start" x="41.62" y="-163.5" font-family="Helvetica,sans-Serif" font-size="10.00">QPushButton</text>
<text text-anchor="start" x="69.38" y="-149" font-family="Helvetica,sans-Serif" font-size="10.00"> </text>
<text text-anchor="start" x="69.38" y="-134.5" font-family="Helvetica,sans-Serif" font-size="10.00"> </text>
<polygon fill="#666666" stroke="#666666" points="37.62,-160.5 37.62,-160.5 104.12,-160.5 104.12,-160.5 37.62,-160.5"/>
<polygon fill="#666666" stroke="#666666" points="37.62,-146 37.62,-146 104.12,-146 104.12,-146 37.62,-146"/>
<polygon fill="none" stroke="#666666" points="37.62,-129.5 37.62,-177 104.12,-177 104.12,-129.5 37.62,-129.5"/>
</a>
</g>
</g>
<!-- Node2&#45;&gt;Node1 -->
<g id="edge1_Node000001_Node000002" class="edge">
<title>Node2&#45;&gt;Node1</title>
<g id="a_edge1_Node000001_Node000002"><a xlink:title=" ">
<path fill="none" stroke="#63b8ff" d="M70.88,-118.09C70.88,-110.12 70.88,-101.51 70.88,-93.14"/>
<polygon fill="none" stroke="#63b8ff" points="67.38,-118.06 70.88,-128.06 74.38,-118.06 67.38,-118.06"/>
</a>
</g>
</g>
</g>
</svg>
