<?xml version="1.0" encoding="UTF-8" standalone="no"?>
<!DOCTYPE svg PUBLIC "-//W3C//DTD SVG 1.1//EN"
 "http://www.w3.org/Graphics/SVG/1.1/DTD/svg11.dtd">
<!-- Generated by graphviz version 12.2.1 (0)
 -->
<!-- Title: WavelengthCreator::GetInstance Pages: 1 -->
<svg width="388pt" height="84pt"
 viewBox="0.00 0.00 387.50 84.00" xmlns="http://www.w3.org/2000/svg" xmlns:xlink="http://www.w3.org/1999/xlink">
<g id="graph0" class="graph" transform="scale(1 1) rotate(0) translate(4 80)">
<title>WavelengthCreator::GetInstance</title>
<!-- Node1 -->
<g id="Node000001" class="node">
<title>Node1</title>
<g id="a_Node000001"><a xlink:title="Gets the singleton instance of the WavelengthCreator.">
<polygon fill="#999999" stroke="#666666" points="379.5,-52 275,-52 275,-23 379.5,-23 379.5,-52"/>
<text text-anchor="start" x="283" y="-38.5" font-family="Helvetica,sans-Serif" font-size="10.00">WavelengthCreator::</text>
<text text-anchor="middle" x="327.25" y="-28" font-family="Helvetica,sans-Serif" font-size="10.00">GetInstance</text>
</a>
</g>
</g>
<!-- Node2 -->
<g id="Node000002" class="node">
<title>Node2</title>
<g id="a_Node000002"><a xlink:href="classSessionCoordinator.html#a0a388bb572398d11b8959eac0a8e612f" target="_top" xlink:title="Connects signals between the various Wavelength components. Called during Initialize().">
<polygon fill="white" stroke="#666666" points="239,-76 137.5,-76 137.5,-47 239,-47 239,-76"/>
<text text-anchor="start" x="145.5" y="-62.5" font-family="Helvetica,sans-Serif" font-size="10.00">SessionCoordinator</text>
<text text-anchor="middle" x="188.25" y="-52" font-family="Helvetica,sans-Serif" font-size="10.00">::ConnectSignals</text>
</a>
</g>
</g>
<!-- Node1&#45;&gt;Node2 -->
<g id="edge1_Node000001_Node000002" class="edge">
<title>Node1&#45;&gt;Node2</title>
<g id="a_edge1_Node000001_Node000002"><a xlink:title=" ">
<path fill="none" stroke="#63b8ff" d="M263.72,-48.45C255.48,-49.9 247.12,-51.36 239.12,-52.76"/>
<polygon fill="#63b8ff" stroke="#63b8ff" points="264.11,-51.94 273.36,-46.77 262.9,-45.04 264.11,-51.94"/>
</a>
</g>
</g>
<!-- Node4 -->
<g id="Node000004" class="node">
<title>Node4</title>
<g id="a_Node000004"><a xlink:href="classSessionCoordinator.html#ad439996ffc2f1a6fc57835502c69ce7d" target="_top" xlink:title="Initiates the creation of a new wavelength. Delegates the call to WavelengthCreator and registers the...">
<polygon fill="white" stroke="#666666" points="239,-29 137.5,-29 137.5,0 239,0 239,-29"/>
<text text-anchor="start" x="145.5" y="-15.5" font-family="Helvetica,sans-Serif" font-size="10.00">SessionCoordinator</text>
<text text-anchor="middle" x="188.25" y="-5" font-family="Helvetica,sans-Serif" font-size="10.00">::CreateWavelength</text>
</a>
</g>
</g>
<!-- Node1&#45;&gt;Node4 -->
<g id="edge3_Node000001_Node000004" class="edge">
<title>Node1&#45;&gt;Node4</title>
<g id="a_edge3_Node000001_Node000004"><a xlink:title=" ">
<path fill="none" stroke="#63b8ff" d="M263.72,-27C255.48,-25.62 247.12,-24.21 239.12,-22.87"/>
<polygon fill="#63b8ff" stroke="#63b8ff" points="262.91,-30.42 273.35,-28.62 264.07,-23.51 262.91,-30.42"/>
</a>
</g>
</g>
<!-- Node3 -->
<g id="Node000003" class="node">
<title>Node3</title>
<g id="a_Node000003"><a xlink:href="classSessionCoordinator.html#a34a0ef1f02508f6cfd0b8d60164be83a" target="_top" xlink:title="Initializes the coordinator and its underlying components. Connects signals between various Wavelengt...">
<polygon fill="white" stroke="#666666" points="101.5,-76 0,-76 0,-47 101.5,-47 101.5,-76"/>
<text text-anchor="start" x="8" y="-62.5" font-family="Helvetica,sans-Serif" font-size="10.00">SessionCoordinator</text>
<text text-anchor="middle" x="50.75" y="-52" font-family="Helvetica,sans-Serif" font-size="10.00">::Initialize</text>
</a>
</g>
</g>
<!-- Node2&#45;&gt;Node3 -->
<g id="edge2_Node000002_Node000003" class="edge">
<title>Node2&#45;&gt;Node3</title>
<g id="a_edge2_Node000002_Node000003"><a xlink:title=" ">
<path fill="none" stroke="#63b8ff" d="M125.84,-61.5C117.73,-61.5 109.5,-61.5 101.61,-61.5"/>
<polygon fill="#63b8ff" stroke="#63b8ff" points="125.67,-65 135.67,-61.5 125.67,-58 125.67,-65"/>
</a>
</g>
</g>
</g>
</svg>
