<?xml version="1.0" encoding="UTF-8" standalone="no"?>
<!DOCTYPE svg PUBLIC "-//W3C//DTD SVG 1.1//EN"
 "http://www.w3.org/Graphics/SVG/1.1/DTD/svg11.dtd">
<!-- Generated by graphviz version 12.2.1 (0)
 -->
<!-- Title: GifDecoder::Reinitialize Pages: 1 -->
<svg width="632pt" height="168pt"
 viewBox="0.00 0.00 632.25 167.50" xmlns="http://www.w3.org/2000/svg" xmlns:xlink="http://www.w3.org/1999/xlink">
<g id="graph0" class="graph" transform="scale(1 1) rotate(0) translate(4 163.5)">
<title>GifDecoder::Reinitialize</title>
<!-- Node1 -->
<g id="Node000001" class="node">
<title>Node1</title>
<g id="a_Node000001"><a xlink:title="Reinitializes the decoder after it has been stopped or encountered an error. Stops the thread if runn...">
<polygon fill="#999999" stroke="#666666" points="118,-92.5 0,-92.5 0,-74 118,-74 118,-92.5"/>
<text text-anchor="middle" x="59" y="-79" font-family="Helvetica,sans-Serif" font-size="10.00">GifDecoder::Reinitialize</text>
</a>
</g>
</g>
<!-- Node2 -->
<g id="Node000002" class="node">
<title>Node2</title>
<g id="a_Node000002"><a xlink:href="classGifDecoder.html#a75ca53e116fcdd49a14551af6c00f301" target="_top" xlink:title="Emitted when an error occurs during initialization or decoding.">
<polygon fill="white" stroke="#666666" points="607.75,-147.5 516.75,-147.5 516.75,-129 607.75,-129 607.75,-147.5"/>
<text text-anchor="middle" x="562.25" y="-134" font-family="Helvetica,sans-Serif" font-size="10.00">GifDecoder::error</text>
</a>
</g>
</g>
<!-- Node1&#45;&gt;Node2 -->
<g id="edge1_Node000001_Node000002" class="edge">
<title>Node1&#45;&gt;Node2</title>
<g id="a_edge1_Node000001_Node000002"><a xlink:title=" ">
<path fill="none" stroke="#63b8ff" d="M71.53,-92.78C88.39,-106.03 121.33,-129.4 154,-138.25 275.63,-171.22 425.3,-158.28 505.01,-147.38"/>
<polygon fill="#63b8ff" stroke="#63b8ff" points="505.34,-150.86 514.75,-146 504.36,-143.93 505.34,-150.86"/>
</a>
</g>
</g>
<!-- Node3 -->
<g id="Node000003" class="node">
<title>Node3</title>
<g id="a_Node000003"><a xlink:href="classGifDecoder.html#a8efb010b65c3e2603f4b960a28f2c5f0" target="_top" xlink:title="Checks if the decoding thread is currently running.">
<polygon fill="white" stroke="#666666" points="306.88,-129.5 154.38,-129.5 154.38,-111 306.88,-111 306.88,-129.5"/>
<text text-anchor="middle" x="230.62" y="-116" font-family="Helvetica,sans-Serif" font-size="10.00">GifDecoder::IsDecoderRunning</text>
</a>
</g>
</g>
<!-- Node1&#45;&gt;Node3 -->
<g id="edge2_Node000001_Node000003" class="edge">
<title>Node1&#45;&gt;Node3</title>
<g id="a_edge2_Node000001_Node000003"><a xlink:title=" ">
<path fill="none" stroke="#63b8ff" d="M104.57,-92.97C125.81,-97.61 151.44,-103.2 173.95,-108.11"/>
<polygon fill="#63b8ff" stroke="#63b8ff" points="173.07,-111.5 183.58,-110.21 174.56,-104.66 173.07,-111.5"/>
</a>
</g>
</g>
<!-- Node4 -->
<g id="Node000004" class="node">
<title>Node4</title>
<g id="a_Node000004"><a xlink:href="classGifDecoder.html#a01de0ef70e11e3a5f2d34abf6f3abc59" target="_top" xlink:title="Custom read function for FFmpeg&#39;s AVIOContext. Reads data from the internal gif_data_ QByteArray buff...">
<polygon fill="white" stroke="#666666" points="292.62,-92.5 168.62,-92.5 168.62,-74 292.62,-74 292.62,-92.5"/>
<text text-anchor="middle" x="230.62" y="-79" font-family="Helvetica,sans-Serif" font-size="10.00">GifDecoder::ReadPacket</text>
</a>
</g>
</g>
<!-- Node1&#45;&gt;Node4 -->
<g id="edge3_Node000001_Node000004" class="edge">
<title>Node1&#45;&gt;Node4</title>
<g id="a_edge3_Node000001_Node000004"><a xlink:title=" ">
<path fill="none" stroke="#63b8ff" d="M118.38,-83.25C130.83,-83.25 144.12,-83.25 157.04,-83.25"/>
<polygon fill="#63b8ff" stroke="#63b8ff" points="156.74,-86.75 166.74,-83.25 156.74,-79.75 156.74,-86.75"/>
</a>
</g>
</g>
<!-- Node6 -->
<g id="Node000006" class="node">
<title>Node6</title>
<g id="a_Node000006"><a xlink:href="classGifDecoder.html#a467647faa027616ace4550575f988eff" target="_top" xlink:title="Custom seek function for FFmpeg&#39;s AVIOContext. Adjusts the internal read_position_ based on the offse...">
<polygon fill="white" stroke="#666666" points="624.25,-92.5 500.25,-92.5 500.25,-74 624.25,-74 624.25,-92.5"/>
<text text-anchor="middle" x="562.25" y="-79" font-family="Helvetica,sans-Serif" font-size="10.00">GifDecoder::SeekPacket</text>
</a>
</g>
</g>
<!-- Node1&#45;&gt;Node6 -->
<g id="edge10_Node000001_Node000006" class="edge">
<title>Node1&#45;&gt;Node6</title>
<g id="a_edge10_Node000001_Node000006"><a xlink:title=" ">
<path fill="none" stroke="#63b8ff" d="M101.4,-73.57C117.7,-70.22 136.63,-66.9 154,-65.25 291.27,-52.23 326.94,-52.62 464.25,-65.25 478.38,-66.55 493.53,-68.89 507.55,-71.47"/>
<polygon fill="#63b8ff" stroke="#63b8ff" points="506.54,-74.84 517.02,-73.29 507.86,-67.97 506.54,-74.84"/>
</a>
</g>
</g>
<!-- Node7 -->
<g id="Node000007" class="node">
<title>Node7</title>
<g id="a_Node000007"><a xlink:href="classGifDecoder.html#aabd9c60230945d793d1dd36028cd9db4" target="_top" xlink:title="Releases all FFmpeg resources (contexts, frames, buffers). Does not release the custom I/O context bu...">
<polygon fill="white" stroke="#666666" points="307.25,-18.5 154,-18.5 154,0 307.25,0 307.25,-18.5"/>
<text text-anchor="middle" x="230.62" y="-5" font-family="Helvetica,sans-Serif" font-size="10.00">GifDecoder::ReleaseResources</text>
</a>
</g>
</g>
<!-- Node1&#45;&gt;Node7 -->
<g id="edge9_Node000001_Node000007" class="edge">
<title>Node1&#45;&gt;Node7</title>
<g id="a_edge9_Node000001_Node000007"><a xlink:title=" ">
<path fill="none" stroke="#63b8ff" d="M75.49,-73.58C93.73,-62.49 125.22,-44.29 154,-32.25 162.83,-28.56 172.45,-25.17 181.79,-22.2"/>
<polygon fill="#63b8ff" stroke="#63b8ff" points="182.57,-25.62 191.11,-19.34 180.52,-18.93 182.57,-25.62"/>
</a>
</g>
</g>
<!-- Node5 -->
<g id="Node000005" class="node">
<title>Node5</title>
<g id="a_Node000005"><a xlink:href="classGifDecoder.html#a07f76f9758f596da1d500741c03af66f" target="_top" xlink:title="Constructs a GifDecoder object. Initializes internal state, allocates memory for FFmpeg&#39;s custom I/O ...">
<polygon fill="white" stroke="#666666" points="464.25,-92.5 343.25,-92.5 343.25,-74 464.25,-74 464.25,-92.5"/>
<text text-anchor="middle" x="403.75" y="-79" font-family="Helvetica,sans-Serif" font-size="10.00">GifDecoder::GifDecoder</text>
</a>
</g>
</g>
<!-- Node4&#45;&gt;Node5 -->
<g id="edge4_Node000004_Node000005" class="edge">
<title>Node4&#45;&gt;Node5</title>
<g id="a_edge4_Node000004_Node000005"><a xlink:title=" ">
<path fill="none" stroke="#63b8ff" d="M292.92,-76.75C305.53,-76.48 318.91,-76.43 331.83,-76.59"/>
<polygon fill="#63b8ff" stroke="#63b8ff" points="331.46,-80.08 341.51,-76.76 331.58,-73.08 331.46,-80.08"/>
</a>
</g>
</g>
<!-- Node5&#45;&gt;Node2 -->
<g id="edge5_Node000005_Node000002" class="edge">
<title>Node5&#45;&gt;Node2</title>
<g id="a_edge5_Node000005_Node000002"><a xlink:title=" ">
<path fill="none" stroke="#63b8ff" d="M432.37,-92.96C457.55,-101.8 494.98,-114.96 523.02,-124.82"/>
<polygon fill="#63b8ff" stroke="#63b8ff" points="521.62,-128.03 532.22,-128.05 523.94,-121.43 521.62,-128.03"/>
</a>
</g>
</g>
<!-- Node5&#45;&gt;Node4 -->
<g id="edge6_Node000005_Node000004" class="edge">
<title>Node5&#45;&gt;Node4</title>
<g id="a_edge6_Node000005_Node000004"><a xlink:title=" ">
<path fill="none" stroke="#63b8ff" d="M343.03,-89.72C330.48,-90 317.12,-90.07 304.17,-89.93"/>
<polygon fill="#63b8ff" stroke="#63b8ff" points="304.49,-86.43 294.44,-89.78 304.38,-93.43 304.49,-86.43"/>
</a>
</g>
</g>
<!-- Node5&#45;&gt;Node6 -->
<g id="edge7_Node000005_Node000006" class="edge">
<title>Node5&#45;&gt;Node6</title>
<g id="a_edge7_Node000005_Node000006"><a xlink:title=" ">
<path fill="none" stroke="#63b8ff" d="M464.36,-76.67C472.29,-76.52 480.49,-76.47 488.6,-76.52"/>
<polygon fill="#63b8ff" stroke="#63b8ff" points="488.43,-80.01 498.47,-76.63 488.51,-73.01 488.43,-80.01"/>
</a>
</g>
</g>
<!-- Node6&#45;&gt;Node5 -->
<g id="edge8_Node000006_Node000005" class="edge">
<title>Node6&#45;&gt;Node5</title>
<g id="a_edge8_Node000006_Node000005"><a xlink:title=" ">
<path fill="none" stroke="#63b8ff" d="M499.99,-89.86C492.02,-89.99 483.82,-90.03 475.71,-89.97"/>
<polygon fill="#63b8ff" stroke="#63b8ff" points="475.92,-86.48 465.88,-89.85 475.83,-93.48 475.92,-86.48"/>
</a>
</g>
</g>
</g>
</svg>
