<?xml version="1.0" encoding="UTF-8" standalone="no"?>
<!DOCTYPE svg PUBLIC "-//W3C//DTD SVG 1.1//EN"
 "http://www.w3.org/Graphics/SVG/1.1/DTD/svg11.dtd">
<!-- Generated by graphviz version 12.2.1 (0)
 -->
<!-- Title: GifDecoder::error Pages: 1 -->
<!--zoomable 175 -->

<svg id="main" version="1.1" xmlns="http://www.w3.org/2000/svg" xmlns:xlink="http://www.w3.org/1999/xlink" xml:space="preserve" onload="init(evt)">

<style type="text/css"><![CDATA[
.node, .edge {opacity: 0.7;}
.node.selected, .edge.selected {opacity: 1;}
.edge:hover path { stroke: red; }
.edge:hover polygon { stroke: red; fill: red; }
]]></style>

<defs>
  <circle id="rim" cx="0" cy="0" r="7"/>
  <circle id="rim2" cx="0" cy="0" r="3.5"/>
  <g id="zoomPlus">
    <use xlink:href="#rim" fill="#404040"><set attributeName="fill" to="#808080" begin="zoomplus.mouseover" end="zoomplus.mouseout"/></use>
    <path d="M-4,0h8M0,-4v8" fill="none" stroke="white" stroke-width="1.5" pointer-events="none"/>
  </g>
  <g id="zoomMin">
    <use xlink:href="#rim" fill="#404040"><set attributeName="fill" to="#808080" begin="zoomminus.mouseover" end="zoomminus.mouseout"/></use>
    <path d="M-4,0h8" fill="none" stroke="white" stroke-width="1.5" pointer-events="none"/>
  </g>
  <g id="arrowUp" transform="translate(30 24)">
    <use xlink:href="#rim"/>
    <path pointer-events="none" fill="none" stroke="white" stroke-width="1.5" d="M0,-3.0v7 M-2.5,-0.5L0,-3.0L2.5,-0.5"/>
  </g>
  <g id="arrowRight" transform="rotate(90) translate(36 -43)">
    <use xlink:href="#rim"/>
    <path pointer-events="none" fill="none" stroke="white" stroke-width="1.5" d="M0,-3.0v7 M-2.5,-0.5L0,-3.0L2.5,-0.5"/>
  </g>
  <g id="arrowDown" transform="rotate(180) translate(-30 -48)">
    <use xlink:href="#rim"/>
    <path pointer-events="none" fill="none" stroke="white" stroke-width="1.5" d="M0,-3.0v7 M-2.5,-0.5L0,-3.0L2.5,-0.5"/>
  </g>
  <g id="arrowLeft" transform="rotate(270) translate(-36 17)">
    <use xlink:href="#rim"/>
    <path pointer-events="none" fill="none" stroke="white" stroke-width="1.5" d="M0,-3.0v7 M-2.5,-0.5L0,-3.0L2.5,-0.5"/>
  </g>
  <g id="resetDef">
    <use xlink:href="#rim2" fill="#404040"><set attributeName="fill" to="#808080" begin="reset.mouseover" end="reset.mouseout"/></use>
  </g>
</defs>
<script type="application/ecmascript">
var viewWidth = 570;
var viewHeight = 175;
var sectionId = 'dynsection-5';
</script>
<script type="application/ecmascript" xlink:href="svg.min.js"/>
<svg id="graph" class="graph">
<g id="viewport">
<title>GifDecoder::error</title>
<!-- Node1 -->
<g id="Node000001" class="node">
<title>Node1</title>
<g id="a_Node000001"><a xlink:title="Emitted when an error occurs during initialization or decoding.">
<polygon fill="#999999" stroke="#666666" points="562,-73.5 471,-73.5 471,-55 562,-55 562,-73.5"/>
<text text-anchor="middle" x="516.5" y="-60" font-family="Helvetica,sans-Serif" font-size="10.00">GifDecoder::error</text>
</a>
</g>
</g>
<!-- Node2 -->
<g id="Node000002" class="node">
<title>Node2</title>
<g id="a_Node000002"><a xlink:href="classGifDecoder.html#a07f76f9758f596da1d500741c03af66f" target="_top" xlink:title="Constructs a GifDecoder object. Initializes internal state, allocates memory for FFmpeg&#39;s custom I/O ...">
<polygon fill="white" stroke="#666666" points="435,-129.5 314,-129.5 314,-111 435,-111 435,-129.5"/>
<text text-anchor="middle" x="374.5" y="-116" font-family="Helvetica,sans-Serif" font-size="10.00">GifDecoder::GifDecoder</text>
</a>
</g>
</g>
<!-- Node1&#45;&gt;Node2 -->
<g id="edge1_Node000001_Node000002" class="edge">
<title>Node1&#45;&gt;Node2</title>
<g id="a_edge1_Node000001_Node000002"><a xlink:title=" ">
<path fill="none" stroke="#63b8ff" d="M481.87,-78.21C467.46,-84.15 450.43,-91.11 435,-97.25 423.89,-101.67 411.56,-106.46 401.02,-110.51"/>
<polygon fill="#63b8ff" stroke="#63b8ff" points="482.99,-81.54 490.9,-74.48 480.32,-75.07 482.99,-81.54"/>
</a>
</g>
</g>
<!-- Node4 -->
<g id="Node000004" class="node">
<title>Node4</title>
<g id="a_Node000004"><a xlink:href="classGifDecoder.html#a6cba2bb829e0608c96c2818df2ed844c" target="_top" xlink:title="Reinitializes the decoder after it has been stopped or encountered an error. Stops the thread if runn...">
<polygon fill="white" stroke="#666666" points="118,-129.5 0,-129.5 0,-111 118,-111 118,-129.5"/>
<text text-anchor="middle" x="59" y="-116" font-family="Helvetica,sans-Serif" font-size="10.00">GifDecoder::Reinitialize</text>
</a>
</g>
</g>
<!-- Node1&#45;&gt;Node4 -->
<g id="edge11_Node000001_Node000004" class="edge">
<title>Node1&#45;&gt;Node4</title>
<g id="a_edge11_Node000001_Node000004"><a xlink:title=" ">
<path fill="none" stroke="#63b8ff" d="M459.17,-68.69C387.89,-74.64 261.48,-86.34 154,-102.25 138.39,-104.56 121.41,-107.64 106.24,-110.59"/>
<polygon fill="#63b8ff" stroke="#63b8ff" points="459.36,-72.18 469.03,-67.87 458.78,-65.21 459.36,-72.18"/>
</a>
</g>
</g>
<!-- Node6 -->
<g id="Node000006" class="node">
<title>Node6</title>
<g id="a_Node000006"><a xlink:href="classGifPlayer.html#ac183e77217bfd80689ab931f0115aea0" target="_top" xlink:title="Constructs an InlineGifPlayer widget. Initializes the UI (QLabel for display), creates the GifDecoder...">
<polygon fill="white" stroke="#666666" points="425.25,-55.5 323.75,-55.5 323.75,-37 425.25,-37 425.25,-55.5"/>
<text text-anchor="middle" x="374.5" y="-42" font-family="Helvetica,sans-Serif" font-size="10.00">GifPlayer::GifPlayer</text>
</a>
</g>
</g>
<!-- Node1&#45;&gt;Node6 -->
<g id="edge8_Node000001_Node000006" class="edge">
<title>Node1&#45;&gt;Node6</title>
<g id="a_edge8_Node000001_Node000006"><a xlink:title=" ">
<path fill="none" stroke="#63b8ff" d="M459.75,-57.08C448.47,-55.63 436.66,-54.11 425.59,-52.69"/>
<polygon fill="#63b8ff" stroke="#63b8ff" points="458.95,-60.51 469.32,-58.31 459.85,-53.57 458.95,-60.51"/>
</a>
</g>
</g>
<!-- Node7 -->
<g id="Node000007" class="node">
<title>Node7</title>
<g id="a_Node000007"><a xlink:href="classGifDecoder.html#a45c27e6347e3b847aa092323d936044e" target="_top" xlink:title="Initializes the FFmpeg components for decoding the GIF. Opens the input stream using the custom I/O c...">
<polygon fill="white" stroke="#666666" points="427.88,-18.5 321.12,-18.5 321.12,0 427.88,0 427.88,-18.5"/>
<text text-anchor="middle" x="374.5" y="-5" font-family="Helvetica,sans-Serif" font-size="10.00">GifDecoder::Initialize</text>
</a>
</g>
</g>
<!-- Node1&#45;&gt;Node7 -->
<g id="edge9_Node000001_Node000007" class="edge">
<title>Node1&#45;&gt;Node7</title>
<g id="a_edge9_Node000001_Node000007"><a xlink:title=" ">
<path fill="none" stroke="#63b8ff" d="M485.36,-49.81C470.39,-42.89 451.92,-34.71 435,-28.25 426.39,-24.96 416.94,-21.76 408.15,-18.96"/>
<polygon fill="#63b8ff" stroke="#63b8ff" points="483.67,-52.88 494.21,-53.95 486.64,-46.54 483.67,-52.88"/>
</a>
</g>
</g>
<!-- Node3 -->
<g id="Node000003" class="node">
<title>Node3</title>
<g id="a_Node000003"><a xlink:href="classGifDecoder.html#a01de0ef70e11e3a5f2d34abf6f3abc59" target="_top" xlink:title="Custom read function for FFmpeg&#39;s AVIOContext. Reads data from the internal gif_data_ QByteArray buff...">
<polygon fill="white" stroke="#666666" points="278,-166.5 154,-166.5 154,-148 278,-148 278,-166.5"/>
<text text-anchor="middle" x="216" y="-153" font-family="Helvetica,sans-Serif" font-size="10.00">GifDecoder::ReadPacket</text>
</a>
</g>
</g>
<!-- Node2&#45;&gt;Node3 -->
<g id="edge2_Node000002_Node000003" class="edge">
<title>Node2&#45;&gt;Node3</title>
<g id="a_edge2_Node000002_Node000003"><a xlink:title=" ">
<path fill="none" stroke="#63b8ff" d="M302.77,-130.25C279.14,-135.66 254.59,-142.12 237.84,-147.56"/>
<polygon fill="#63b8ff" stroke="#63b8ff" points="303.41,-133.69 312.41,-128.1 301.89,-126.86 303.41,-133.69"/>
</a>
</g>
</g>
<!-- Node5 -->
<g id="Node000005" class="node">
<title>Node5</title>
<g id="a_Node000005"><a xlink:href="classGifDecoder.html#a467647faa027616ace4550575f988eff" target="_top" xlink:title="Custom seek function for FFmpeg&#39;s AVIOContext. Adjusts the internal read_position_ based on the offse...">
<polygon fill="white" stroke="#666666" points="278,-129.5 154,-129.5 154,-111 278,-111 278,-129.5"/>
<text text-anchor="middle" x="216" y="-116" font-family="Helvetica,sans-Serif" font-size="10.00">GifDecoder::SeekPacket</text>
</a>
</g>
</g>
<!-- Node2&#45;&gt;Node5 -->
<g id="edge5_Node000002_Node000005" class="edge">
<title>Node2&#45;&gt;Node5</title>
<g id="a_edge5_Node000002_Node000005"><a xlink:title=" ">
<path fill="none" stroke="#63b8ff" d="M302.54,-113.53C294.43,-113.47 286.23,-113.51 278.26,-113.64"/>
<polygon fill="#63b8ff" stroke="#63b8ff" points="302.33,-117.02 312.37,-113.65 302.42,-110.02 302.33,-117.02"/>
</a>
</g>
</g>
<!-- Node3&#45;&gt;Node2 -->
<g id="edge3_Node000003_Node000002" class="edge">
<title>Node3&#45;&gt;Node2</title>
<g id="a_edge3_Node000003_Node000002"><a xlink:title=" ">
<path fill="none" stroke="#63b8ff" d="M289.68,-146.8C312.73,-141.48 336.43,-135.22 352.72,-129.92"/>
<polygon fill="#63b8ff" stroke="#63b8ff" points="288.91,-143.39 279.93,-149 290.45,-150.22 288.91,-143.39"/>
</a>
</g>
</g>
<!-- Node3&#45;&gt;Node4 -->
<g id="edge4_Node000003_Node000004" class="edge">
<title>Node3&#45;&gt;Node4</title>
<g id="a_edge4_Node000003_Node000004"><a xlink:title=" ">
<path fill="none" stroke="#63b8ff" d="M163.28,-144.9C142.91,-140.04 119.87,-134.54 100.72,-129.97"/>
<polygon fill="#63b8ff" stroke="#63b8ff" points="162.26,-148.26 172.8,-147.18 163.89,-141.45 162.26,-148.26"/>
</a>
</g>
</g>
<!-- Node5&#45;&gt;Node2 -->
<g id="edge6_Node000005_Node000002" class="edge">
<title>Node5&#45;&gt;Node2</title>
<g id="a_edge6_Node000005_Node000002"><a xlink:title=" ">
<path fill="none" stroke="#63b8ff" d="M289.65,-126.98C297.76,-127.03 305.96,-126.98 313.89,-126.83"/>
<polygon fill="#63b8ff" stroke="#63b8ff" points="289.82,-123.49 279.78,-126.87 289.74,-130.49 289.82,-123.49"/>
</a>
</g>
</g>
<!-- Node5&#45;&gt;Node4 -->
<g id="edge7_Node000005_Node000004" class="edge">
<title>Node5&#45;&gt;Node4</title>
<g id="a_edge7_Node000005_Node000004"><a xlink:title=" ">
<path fill="none" stroke="#63b8ff" d="M142.4,-120.25C134.31,-120.25 126.16,-120.25 118.29,-120.25"/>
<polygon fill="#63b8ff" stroke="#63b8ff" points="142.23,-123.75 152.23,-120.25 142.23,-116.75 142.23,-123.75"/>
</a>
</g>
</g>
<!-- Node8 -->
<g id="Node000008" class="node">
<title>Node8</title>
<g id="a_Node000008"><a xlink:href="classGifDecoder.html#a5f3075f25bb1e6e0fbad6a4abc1ccef9" target="_top" xlink:title="The main function executed by the QThread. Contains the loop that reads packets, decodes frames,...">
<polygon fill="white" stroke="#666666" points="258.5,-18.5 173.5,-18.5 173.5,0 258.5,0 258.5,-18.5"/>
<text text-anchor="middle" x="216" y="-5" font-family="Helvetica,sans-Serif" font-size="10.00">GifDecoder::run</text>
</a>
</g>
</g>
<!-- Node7&#45;&gt;Node8 -->
<g id="edge10_Node000007_Node000008" class="edge">
<title>Node7&#45;&gt;Node8</title>
<g id="a_edge10_Node000007_Node000008"><a xlink:title=" ">
<path fill="none" stroke="#63b8ff" d="M309.82,-9.25C292.62,-9.25 274.45,-9.25 258.78,-9.25"/>
<polygon fill="#63b8ff" stroke="#63b8ff" points="309.44,-12.75 319.44,-9.25 309.44,-5.75 309.44,-12.75"/>
</a>
</g>
</g>
</g>
</svg>

<g id="navigator" transform="translate(0 0)" fill="#404254">
  <rect fill="#f2f5e9" fill-opacity="0.5" stroke="#606060" stroke-width=".5" x="0" y="0" width="60" height="60"/>
  <use id="zoomplus" xlink:href="#zoomPlus" x="17" y="9" onmousedown="handleZoom(evt,'in')"/>
  <use id="zoomminus" xlink:href="#zoomMin" x="42" y="9" onmousedown="handleZoom(evt,'out')"/>
  <use id="reset" xlink:href="#resetDef" x="30" y="36" onmousedown="handleReset()"/>
   <use id="arrowup" xlink:href="#arrowUp" x="0" y="0" onmousedown="handlePan(0,-1)"/>
  <use id="arrowright" xlink:href="#arrowRight" x="0" y="0" onmousedown="handlePan(1,0)"/>
  <use id="arrowdown" xlink:href="#arrowDown" x="0" y="0" onmousedown="handlePan(0,1)"/>
  <use id="arrowleft" xlink:href="#arrowLeft" x="0" y="0" onmousedown="handlePan(-1,0)"/>
</g>
<svg viewBox="0 0 15 15" width="100%" height="30px" preserveAspectRatio="xMaxYMin meet">
 <g id="arrow_out" transform="scale(0.3 0.3)">
  <a xlink:href="classGifDecoder_a75ca53e116fcdd49a14551af6c00f301_icgraph_org.svg" target="_base">
   <rect id="button" ry="5" rx="5" y="6" x="6" height="38" width="38"
        fill="#f2f5e9" fill-opacity="0.5" stroke="#606060" stroke-width="1.0"/>
   <path id="arrow"
     d="M 11.500037,31.436501 C 11.940474,20.09759 22.043105,11.32322 32.158766,21.979434 L 37.068811,17.246167 C 37.068811,17.246167 37.088388,32 37.088388,32 L 22.160133,31.978069 C 22.160133,31.978069 26.997745,27.140456 26.997745,27.140456 C 18.528582,18.264221 13.291696,25.230495 11.500037,31.436501 z"
     style="fill:#404040;"/>
  </a>
 </g>
</svg>

<style type='text/css'>
<![CDATA[
[data-mouse-over-selected='false'] { opacity: 0.7; }
[data-mouse-over-selected='true']  { opacity: 1.0; }
]]>
</style>
<script type="application/ecmascript"><![CDATA[
document.addEventListener('DOMContentLoaded', (event) => {
  highlightEdges();
  highlightAdjacentNodes();
});
]]></script>
</svg>
