<?xml version="1.0" encoding="UTF-8" standalone="no"?>
<!DOCTYPE svg PUBLIC "-//W3C//DTD SVG 1.1//EN"
 "http://www.w3.org/Graphics/SVG/1.1/DTD/svg11.dtd">
<!-- Generated by graphviz version 12.2.1 (0)
 -->
<!-- Title: AppInstanceManager::otherInstancePositionHasChanged Pages: 1 -->
<!--zoomable 84 -->

<svg id="main" version="1.1" xmlns="http://www.w3.org/2000/svg" xmlns:xlink="http://www.w3.org/1999/xlink" xml:space="preserve" onload="init(evt)">

<style type="text/css"><![CDATA[
.node, .edge {opacity: 0.7;}
.node.selected, .edge.selected {opacity: 1;}
.edge:hover path { stroke: red; }
.edge:hover polygon { stroke: red; fill: red; }
]]></style>

<defs>
  <circle id="rim" cx="0" cy="0" r="7"/>
  <circle id="rim2" cx="0" cy="0" r="3.5"/>
  <g id="zoomPlus">
    <use xlink:href="#rim" fill="#404040"><set attributeName="fill" to="#808080" begin="zoomplus.mouseover" end="zoomplus.mouseout"/></use>
    <path d="M-4,0h8M0,-4v8" fill="none" stroke="white" stroke-width="1.5" pointer-events="none"/>
  </g>
  <g id="zoomMin">
    <use xlink:href="#rim" fill="#404040"><set attributeName="fill" to="#808080" begin="zoomminus.mouseover" end="zoomminus.mouseout"/></use>
    <path d="M-4,0h8" fill="none" stroke="white" stroke-width="1.5" pointer-events="none"/>
  </g>
  <g id="arrowUp" transform="translate(30 24)">
    <use xlink:href="#rim"/>
    <path pointer-events="none" fill="none" stroke="white" stroke-width="1.5" d="M0,-3.0v7 M-2.5,-0.5L0,-3.0L2.5,-0.5"/>
  </g>
  <g id="arrowRight" transform="rotate(90) translate(36 -43)">
    <use xlink:href="#rim"/>
    <path pointer-events="none" fill="none" stroke="white" stroke-width="1.5" d="M0,-3.0v7 M-2.5,-0.5L0,-3.0L2.5,-0.5"/>
  </g>
  <g id="arrowDown" transform="rotate(180) translate(-30 -48)">
    <use xlink:href="#rim"/>
    <path pointer-events="none" fill="none" stroke="white" stroke-width="1.5" d="M0,-3.0v7 M-2.5,-0.5L0,-3.0L2.5,-0.5"/>
  </g>
  <g id="arrowLeft" transform="rotate(270) translate(-36 17)">
    <use xlink:href="#rim"/>
    <path pointer-events="none" fill="none" stroke="white" stroke-width="1.5" d="M0,-3.0v7 M-2.5,-0.5L0,-3.0L2.5,-0.5"/>
  </g>
  <g id="resetDef">
    <use xlink:href="#rim2" fill="#404040"><set attributeName="fill" to="#808080" begin="reset.mouseover" end="reset.mouseout"/></use>
  </g>
</defs>
<script type="application/ecmascript">
var viewWidth = 575;
var viewHeight = 84;
var sectionId = 'dynsection-18';
</script>
<script type="application/ecmascript" xlink:href="svg.min.js"/>
<svg id="graph" class="graph">
<g id="viewport">
<title>AppInstanceManager::otherInstancePositionHasChanged</title>
<!-- Node1 -->
<g id="Node000001" class="node">
<title>Node1</title>
<g id="a_Node000001"><a xlink:title="Emitted when position data from another instance is received.">
<polygon fill="#999999" stroke="#666666" points="567.25,-57.25 432.75,-57.25 432.75,-17.75 567.25,-17.75 567.25,-57.25"/>
<text text-anchor="start" x="440.75" y="-43.75" font-family="Helvetica,sans-Serif" font-size="10.00">AppInstanceManager</text>
<text text-anchor="start" x="440.75" y="-33.25" font-family="Helvetica,sans-Serif" font-size="10.00">::otherInstancePositionHas</text>
<text text-anchor="middle" x="500" y="-22.75" font-family="Helvetica,sans-Serif" font-size="10.00">Changed</text>
</a>
</g>
</g>
<!-- Node2 -->
<g id="Node000002" class="node">
<title>Node2</title>
<g id="a_Node000002"><a xlink:href="classAppInstanceManager.html#a46df6d357b1a69b71bfa325166b179ea" target="_top" xlink:title="Processes an incoming message received from a socket.">
<polygon fill="white" stroke="#666666" points="396.75,-52 288.5,-52 288.5,-23 396.75,-23 396.75,-52"/>
<text text-anchor="start" x="296.5" y="-38.5" font-family="Helvetica,sans-Serif" font-size="10.00">AppInstanceManager</text>
<text text-anchor="middle" x="342.62" y="-28" font-family="Helvetica,sans-Serif" font-size="10.00">::ProcessMessage</text>
</a>
</g>
</g>
<!-- Node1&#45;&gt;Node2 -->
<g id="edge1_Node000001_Node000002" class="edge">
<title>Node1&#45;&gt;Node2</title>
<g id="a_edge1_Node000001_Node000002"><a xlink:title=" ">
<path fill="none" stroke="#63b8ff" d="M421.17,-37.5C413.02,-37.5 404.87,-37.5 397.08,-37.5"/>
<polygon fill="#63b8ff" stroke="#63b8ff" points="421.14,-41 431.14,-37.5 421.14,-34 421.14,-41"/>
</a>
</g>
</g>
<!-- Node3 -->
<g id="Node000003" class="node">
<title>Node3</title>
<g id="a_Node000003"><a xlink:href="classAppInstanceManager.html#ab7fe0e77dca903fa23d78139dd68e84b" target="_top" xlink:title="Slot called when data can be read from a connected socket.">
<polygon fill="white" stroke="#666666" points="252.5,-52 144.25,-52 144.25,-23 252.5,-23 252.5,-52"/>
<text text-anchor="start" x="152.25" y="-38.5" font-family="Helvetica,sans-Serif" font-size="10.00">AppInstanceManager</text>
<text text-anchor="middle" x="198.38" y="-28" font-family="Helvetica,sans-Serif" font-size="10.00">::readData</text>
</a>
</g>
</g>
<!-- Node2&#45;&gt;Node3 -->
<g id="edge2_Node000002_Node000003" class="edge">
<title>Node2&#45;&gt;Node3</title>
<g id="a_edge2_Node000002_Node000003"><a xlink:title=" ">
<path fill="none" stroke="#63b8ff" d="M276.88,-37.5C268.74,-37.5 260.5,-37.5 252.57,-37.5"/>
<polygon fill="#63b8ff" stroke="#63b8ff" points="276.74,-41 286.74,-37.5 276.74,-34 276.74,-41"/>
</a>
</g>
</g>
<!-- Node4 -->
<g id="Node000004" class="node">
<title>Node4</title>
<g id="a_Node000004"><a xlink:href="classAppInstanceManager.html#a6aa626dd1ea5e5c57860d532bdb85d5e" target="_top" xlink:title="Establishes a connection to the server instance for a client instance.">
<polygon fill="#fff0f0" stroke="red" points="108.25,-76 0,-76 0,-47 108.25,-47 108.25,-76"/>
<text text-anchor="start" x="8" y="-62.5" font-family="Helvetica,sans-Serif" font-size="10.00">AppInstanceManager</text>
<text text-anchor="middle" x="54.12" y="-52" font-family="Helvetica,sans-Serif" font-size="10.00">::ConnectToServer</text>
</a>
</g>
</g>
<!-- Node3&#45;&gt;Node4 -->
<g id="edge3_Node000003_Node000004" class="edge">
<title>Node3&#45;&gt;Node4</title>
<g id="a_edge3_Node000003_Node000004"><a xlink:title=" ">
<path fill="none" stroke="#63b8ff" d="M132.91,-48.38C124.68,-49.76 116.34,-51.17 108.32,-52.52"/>
<polygon fill="#63b8ff" stroke="#63b8ff" points="133.23,-51.87 142.51,-46.76 132.07,-44.97 133.23,-51.87"/>
</a>
</g>
</g>
<!-- Node6 -->
<g id="Node000006" class="node">
<title>Node6</title>
<g id="a_Node000006"><a xlink:href="classAppInstanceManager.html#af7e9143a1ff0af2932c1d0afc1f31231" target="_top" xlink:title="Slot called when a new client attempts to connect to the server.">
<polygon fill="#fff0f0" stroke="red" points="108.25,-29 0,-29 0,0 108.25,0 108.25,-29"/>
<text text-anchor="start" x="8" y="-15.5" font-family="Helvetica,sans-Serif" font-size="10.00">AppInstanceManager</text>
<text text-anchor="middle" x="54.12" y="-5" font-family="Helvetica,sans-Serif" font-size="10.00">::onNewConnection</text>
</a>
</g>
</g>
<!-- Node3&#45;&gt;Node6 -->
<g id="edge4_Node000003_Node000006" class="edge">
<title>Node3&#45;&gt;Node6</title>
<g id="a_edge4_Node000003_Node000006"><a xlink:title=" ">
<path fill="none" stroke="#63b8ff" d="M132.91,-27.08C124.68,-25.75 116.34,-24.4 108.32,-23.1"/>
<polygon fill="#63b8ff" stroke="#63b8ff" points="132.08,-30.49 142.51,-28.63 133.19,-23.58 132.08,-30.49"/>
</a>
</g>
</g>
</g>
</svg>

<g id="navigator" transform="translate(0 0)" fill="#404254">
  <rect fill="#f2f5e9" fill-opacity="0.5" stroke="#606060" stroke-width=".5" x="0" y="0" width="60" height="60"/>
  <use id="zoomplus" xlink:href="#zoomPlus" x="17" y="9" onmousedown="handleZoom(evt,'in')"/>
  <use id="zoomminus" xlink:href="#zoomMin" x="42" y="9" onmousedown="handleZoom(evt,'out')"/>
  <use id="reset" xlink:href="#resetDef" x="30" y="36" onmousedown="handleReset()"/>
   <use id="arrowup" xlink:href="#arrowUp" x="0" y="0" onmousedown="handlePan(0,-1)"/>
  <use id="arrowright" xlink:href="#arrowRight" x="0" y="0" onmousedown="handlePan(1,0)"/>
  <use id="arrowdown" xlink:href="#arrowDown" x="0" y="0" onmousedown="handlePan(0,1)"/>
  <use id="arrowleft" xlink:href="#arrowLeft" x="0" y="0" onmousedown="handlePan(-1,0)"/>
</g>
<svg viewBox="0 0 15 15" width="100%" height="30px" preserveAspectRatio="xMaxYMin meet">
 <g id="arrow_out" transform="scale(0.3 0.3)">
  <a xlink:href="classAppInstanceManager_a7adb5fbcaba5932cb88cb33cdf0ab610_icgraph_org.svg" target="_base">
   <rect id="button" ry="5" rx="5" y="6" x="6" height="38" width="38"
        fill="#f2f5e9" fill-opacity="0.5" stroke="#606060" stroke-width="1.0"/>
   <path id="arrow"
     d="M 11.500037,31.436501 C 11.940474,20.09759 22.043105,11.32322 32.158766,21.979434 L 37.068811,17.246167 C 37.068811,17.246167 37.088388,32 37.088388,32 L 22.160133,31.978069 C 22.160133,31.978069 26.997745,27.140456 26.997745,27.140456 C 18.528582,18.264221 13.291696,25.230495 11.500037,31.436501 z"
     style="fill:#404040;"/>
  </a>
 </g>
</svg>

<style type='text/css'>
<![CDATA[
[data-mouse-over-selected='false'] { opacity: 0.7; }
[data-mouse-over-selected='true']  { opacity: 1.0; }
]]>
</style>
<script type="application/ecmascript"><![CDATA[
document.addEventListener('DOMContentLoaded', (event) => {
  highlightEdges();
  highlightAdjacentNodes();
});
]]></script>
</svg>
