<?xml version="1.0" encoding="UTF-8" standalone="no"?>
<!DOCTYPE svg PUBLIC "-//W3C//DTD SVG 1.1//EN"
 "http://www.w3.org/Graphics/SVG/1.1/DTD/svg11.dtd">
<!-- Generated by graphviz version 12.2.1 (0)
 -->
<!-- Title: MessageService::sendJsonViaSocket Pages: 1 -->
<!--zoomable 95 -->

<svg id="main" version="1.1" xmlns="http://www.w3.org/2000/svg" xmlns:xlink="http://www.w3.org/1999/xlink" xml:space="preserve" onload="init(evt)">

<style type="text/css"><![CDATA[
.node, .edge {opacity: 0.7;}
.node.selected, .edge.selected {opacity: 1;}
.edge:hover path { stroke: red; }
.edge:hover polygon { stroke: red; fill: red; }
]]></style>

<defs>
  <circle id="rim" cx="0" cy="0" r="7"/>
  <circle id="rim2" cx="0" cy="0" r="3.5"/>
  <g id="zoomPlus">
    <use xlink:href="#rim" fill="#404040"><set attributeName="fill" to="#808080" begin="zoomplus.mouseover" end="zoomplus.mouseout"/></use>
    <path d="M-4,0h8M0,-4v8" fill="none" stroke="white" stroke-width="1.5" pointer-events="none"/>
  </g>
  <g id="zoomMin">
    <use xlink:href="#rim" fill="#404040"><set attributeName="fill" to="#808080" begin="zoomminus.mouseover" end="zoomminus.mouseout"/></use>
    <path d="M-4,0h8" fill="none" stroke="white" stroke-width="1.5" pointer-events="none"/>
  </g>
  <g id="arrowUp" transform="translate(30 24)">
    <use xlink:href="#rim"/>
    <path pointer-events="none" fill="none" stroke="white" stroke-width="1.5" d="M0,-3.0v7 M-2.5,-0.5L0,-3.0L2.5,-0.5"/>
  </g>
  <g id="arrowRight" transform="rotate(90) translate(36 -43)">
    <use xlink:href="#rim"/>
    <path pointer-events="none" fill="none" stroke="white" stroke-width="1.5" d="M0,-3.0v7 M-2.5,-0.5L0,-3.0L2.5,-0.5"/>
  </g>
  <g id="arrowDown" transform="rotate(180) translate(-30 -48)">
    <use xlink:href="#rim"/>
    <path pointer-events="none" fill="none" stroke="white" stroke-width="1.5" d="M0,-3.0v7 M-2.5,-0.5L0,-3.0L2.5,-0.5"/>
  </g>
  <g id="arrowLeft" transform="rotate(270) translate(-36 17)">
    <use xlink:href="#rim"/>
    <path pointer-events="none" fill="none" stroke="white" stroke-width="1.5" d="M0,-3.0v7 M-2.5,-0.5L0,-3.0L2.5,-0.5"/>
  </g>
  <g id="resetDef">
    <use xlink:href="#rim2" fill="#404040"><set attributeName="fill" to="#808080" begin="reset.mouseover" end="reset.mouseout"/></use>
  </g>
</defs>
<script type="application/ecmascript">
var viewWidth = 664;
var viewHeight = 95;
var sectionId = 'dynsection-25';
</script>
<script type="application/ecmascript" xlink:href="svg.min.js"/>
<svg id="graph" class="graph">
<g id="viewport">
<title>MessageService::sendJsonViaSocket</title>
<!-- Node1 -->
<g id="Node000001" class="node">
<title>Node1</title>
<g id="a_Node000001"><a xlink:title="Internal signal emitted by the background file processing task when the JSON message is ready to be s...">
<polygon fill="#999999" stroke="#666666" points="655.75,-68 518.25,-68 518.25,-39 655.75,-39 655.75,-68"/>
<text text-anchor="start" x="526.25" y="-54.5" font-family="Helvetica,sans-Serif" font-size="10.00">MessageService::sendJson</text>
<text text-anchor="middle" x="587" y="-44" font-family="Helvetica,sans-Serif" font-size="10.00">ViaSocket</text>
</a>
</g>
</g>
<!-- Node2 -->
<g id="Node000002" class="node">
<title>Node2</title>
<g id="a_Node000002"><a xlink:href="classMessageService.html#ad74bc604024156fff3b840942187037e" target="_top" xlink:title="Private constructor to enforce the singleton pattern. Connects the internal sendJsonViaSocket signal ...">
<polygon fill="white" stroke="#666666" points="482.25,-81.75 313.25,-81.75 313.25,-63.25 482.25,-63.25 482.25,-81.75"/>
<text text-anchor="middle" x="397.75" y="-68.25" font-family="Helvetica,sans-Serif" font-size="10.00">MessageService::MessageService</text>
</a>
</g>
</g>
<!-- Node1&#45;&gt;Node2 -->
<g id="edge1_Node000001_Node000002" class="edge">
<title>Node1&#45;&gt;Node2</title>
<g id="a_edge1_Node000001_Node000002"><a xlink:title=" ">
<path fill="none" stroke="#63b8ff" d="M506.67,-61.55C498.66,-62.36 490.51,-63.19 482.46,-64.01"/>
<polygon fill="#63b8ff" stroke="#63b8ff" points="506.77,-65.06 516.36,-60.57 506.06,-58.09 506.77,-65.06"/>
</a>
</g>
</g>
<!-- Node3 -->
<g id="Node000003" class="node">
<title>Node3</title>
<g id="a_Node000003"><a xlink:href="classMessageService.html#aff7ad6c0302f5f9b4864074eb6675931" target="_top" xlink:title="Initiates the process of sending a file to the currently active frequency. Reads the file,...">
<polygon fill="white" stroke="#666666" points="464.62,-44.75 330.88,-44.75 330.88,-26.25 464.62,-26.25 464.62,-44.75"/>
<text text-anchor="middle" x="397.75" y="-31.25" font-family="Helvetica,sans-Serif" font-size="10.00">MessageService::SendFile</text>
</a>
</g>
</g>
<!-- Node1&#45;&gt;Node3 -->
<g id="edge2_Node000001_Node000003" class="edge">
<title>Node1&#45;&gt;Node3</title>
<g id="a_edge2_Node000001_Node000003"><a xlink:title=" ">
<path fill="none" stroke="#63b8ff" d="M506.81,-45.89C492.87,-44.55 478.49,-43.17 464.95,-41.86"/>
<polygon fill="#63b8ff" stroke="#63b8ff" points="506.07,-49.33 516.36,-46.81 506.74,-42.36 506.07,-49.33"/>
</a>
</g>
</g>
<!-- Node4 -->
<g id="Node000004" class="node">
<title>Node4</title>
<g id="a_Node000004"><a xlink:href="classChatView.html#a4b181808cf22581bd24eb4bab9e07e43" target="_top" xlink:title="Opens a file dialog to allow the user to select a file for sending. If a file is selected,...">
<polygon fill="white" stroke="#666666" points="277.25,-65.75 169,-65.75 169,-47.25 277.25,-47.25 277.25,-65.75"/>
<text text-anchor="middle" x="223.12" y="-52.25" font-family="Helvetica,sans-Serif" font-size="10.00">ChatView::AttachFile</text>
</a>
</g>
</g>
<!-- Node3&#45;&gt;Node4 -->
<g id="edge3_Node000003_Node000004" class="edge">
<title>Node3&#45;&gt;Node4</title>
<g id="a_edge3_Node000003_Node000004"><a xlink:title=" ">
<path fill="none" stroke="#63b8ff" d="M319.31,-44.92C305.22,-46.63 290.82,-48.39 277.62,-49.99"/>
<polygon fill="#63b8ff" stroke="#63b8ff" points="319.5,-48.42 329,-43.74 318.65,-41.48 319.5,-48.42"/>
</a>
</g>
</g>
<!-- Node8 -->
<g id="Node000008" class="node">
<title>Node8</title>
<g id="a_Node000008"><a xlink:href="classSessionCoordinator.html#a8c66229e945eb35fa8791ea88d37cdaa" target="_top" xlink:title="Sends a file to the currently active wavelength. Delegates the call to WavelengthMessageService.">
<polygon fill="white" stroke="#666666" points="273.88,-29 172.38,-29 172.38,0 273.88,0 273.88,-29"/>
<text text-anchor="start" x="180.38" y="-15.5" font-family="Helvetica,sans-Serif" font-size="10.00">SessionCoordinator</text>
<text text-anchor="middle" x="223.12" y="-5" font-family="Helvetica,sans-Serif" font-size="10.00">::SendFile</text>
</a>
</g>
</g>
<!-- Node3&#45;&gt;Node8 -->
<g id="edge6_Node000003_Node000008" class="edge">
<title>Node3&#45;&gt;Node8</title>
<g id="a_edge6_Node000003_Node000008"><a xlink:title=" ">
<path fill="none" stroke="#63b8ff" d="M319.46,-26.1C304.16,-24.24 288.48,-22.33 274.37,-20.61"/>
<polygon fill="#63b8ff" stroke="#63b8ff" points="318.65,-29.52 329,-27.26 319.5,-22.58 318.65,-29.52"/>
</a>
</g>
</g>
<!-- Node5 -->
<g id="Node000005" class="node">
<title>Node5</title>
<g id="a_Node000005"><a xlink:href="classChatView.html#ad2db6f12afdba4b49ec7775b2d560ad3" target="_top" xlink:title="Constructs a WavelengthChatView. Initializes the UI elements (labels, message area,...">
<polygon fill="white" stroke="#666666" points="119.88,-86.75 13.12,-86.75 13.12,-68.25 119.88,-68.25 119.88,-86.75"/>
<text text-anchor="middle" x="66.5" y="-73.25" font-family="Helvetica,sans-Serif" font-size="10.00">ChatView::ChatView</text>
</a>
</g>
</g>
<!-- Node4&#45;&gt;Node5 -->
<g id="edge4_Node000004_Node000005" class="edge">
<title>Node4&#45;&gt;Node5</title>
<g id="a_edge4_Node000004_Node000005"><a xlink:title=" ">
<path fill="none" stroke="#63b8ff" d="M157.65,-65.26C145.21,-66.95 132.31,-68.7 120.29,-70.33"/>
<polygon fill="#63b8ff" stroke="#63b8ff" points="157.97,-68.74 167.41,-63.93 157.03,-61.81 157.97,-68.74"/>
</a>
</g>
</g>
<!-- Node6 -->
<g id="Node000006" class="node">
<title>Node6</title>
<g id="a_Node000006"><a xlink:href="classShortcutManager.html#a4d014d550ca996c51abb06649f71a3fa" target="_top" xlink:title="Registers shortcuts specific to the WavelengthChatView.">
<polygon fill="#fff0f0" stroke="red" points="133,-50 0,-50 0,-21 133,-21 133,-50"/>
<text text-anchor="start" x="8" y="-36.5" font-family="Helvetica,sans-Serif" font-size="10.00">ShortcutManager::Register</text>
<text text-anchor="middle" x="66.5" y="-26" font-family="Helvetica,sans-Serif" font-size="10.00">ChatViewShortcuts</text>
</a>
</g>
</g>
<!-- Node4&#45;&gt;Node6 -->
<g id="edge5_Node000004_Node000006" class="edge">
<title>Node4&#45;&gt;Node6</title>
<g id="a_edge5_Node000004_Node000006"><a xlink:title=" ">
<path fill="none" stroke="#63b8ff" d="M157.71,-47.75C149.67,-46.66 141.44,-45.54 133.38,-44.45"/>
<polygon fill="#63b8ff" stroke="#63b8ff" points="157.03,-51.19 167.41,-49.07 157.97,-44.26 157.03,-51.19"/>
</a>
</g>
</g>
</g>
</svg>

<g id="navigator" transform="translate(0 0)" fill="#404254">
  <rect fill="#f2f5e9" fill-opacity="0.5" stroke="#606060" stroke-width=".5" x="0" y="0" width="60" height="60"/>
  <use id="zoomplus" xlink:href="#zoomPlus" x="17" y="9" onmousedown="handleZoom(evt,'in')"/>
  <use id="zoomminus" xlink:href="#zoomMin" x="42" y="9" onmousedown="handleZoom(evt,'out')"/>
  <use id="reset" xlink:href="#resetDef" x="30" y="36" onmousedown="handleReset()"/>
   <use id="arrowup" xlink:href="#arrowUp" x="0" y="0" onmousedown="handlePan(0,-1)"/>
  <use id="arrowright" xlink:href="#arrowRight" x="0" y="0" onmousedown="handlePan(1,0)"/>
  <use id="arrowdown" xlink:href="#arrowDown" x="0" y="0" onmousedown="handlePan(0,1)"/>
  <use id="arrowleft" xlink:href="#arrowLeft" x="0" y="0" onmousedown="handlePan(-1,0)"/>
</g>
<svg viewBox="0 0 15 15" width="100%" height="30px" preserveAspectRatio="xMaxYMin meet">
 <g id="arrow_out" transform="scale(0.3 0.3)">
  <a xlink:href="classMessageService_aabe00ddfe3f0fb4bcdae08fd977ecc6f_icgraph_org.svg" target="_base">
   <rect id="button" ry="5" rx="5" y="6" x="6" height="38" width="38"
        fill="#f2f5e9" fill-opacity="0.5" stroke="#606060" stroke-width="1.0"/>
   <path id="arrow"
     d="M 11.500037,31.436501 C 11.940474,20.09759 22.043105,11.32322 32.158766,21.979434 L 37.068811,17.246167 C 37.068811,17.246167 37.088388,32 37.088388,32 L 22.160133,31.978069 C 22.160133,31.978069 26.997745,27.140456 26.997745,27.140456 C 18.528582,18.264221 13.291696,25.230495 11.500037,31.436501 z"
     style="fill:#404040;"/>
  </a>
 </g>
</svg>

<style type='text/css'>
<![CDATA[
[data-mouse-over-selected='false'] { opacity: 0.7; }
[data-mouse-over-selected='true']  { opacity: 1.0; }
]]>
</style>
<script type="application/ecmascript"><![CDATA[
document.addEventListener('DOMContentLoaded', (event) => {
  highlightEdges();
  highlightAdjacentNodes();
});
]]></script>
</svg>
