<?xml version="1.0" encoding="UTF-8" standalone="no"?>
<!DOCTYPE svg PUBLIC "-//W3C//DTD SVG 1.1//EN"
 "http://www.w3.org/Graphics/SVG/1.1/DTD/svg11.dtd">
<!-- Generated by graphviz version 12.2.1 (0)
 -->
<!-- Title: AnimatedDialog::showAnimationFinished Pages: 1 -->
<svg width="529pt" height="74pt"
 viewBox="0.00 0.00 528.50 73.75" xmlns="http://www.w3.org/2000/svg" xmlns:xlink="http://www.w3.org/1999/xlink">
<g id="graph0" class="graph" transform="scale(1 1) rotate(0) translate(4 69.75)">
<title>AnimatedDialog::showAnimationFinished</title>
<!-- Node1 -->
<g id="Node000001" class="node">
<title>Node1</title>
<g id="a_Node000001"><a xlink:title="Emitted when the show animation (AnimateShow) has finished.">
<polygon fill="#999999" stroke="#666666" points="520.5,-50 362.75,-50 362.75,-21 520.5,-21 520.5,-50"/>
<text text-anchor="start" x="370.75" y="-36.5" font-family="Helvetica,sans-Serif" font-size="10.00">AnimatedDialog::showAnimation</text>
<text text-anchor="middle" x="441.62" y="-26" font-family="Helvetica,sans-Serif" font-size="10.00">Finished</text>
</a>
</g>
</g>
<!-- Node2 -->
<g id="Node000002" class="node">
<title>Node2</title>
<g id="a_Node000002"><a xlink:href="classAnimatedDialog.html#a39c5005e28e9549496050d25c1ec02f6" target="_top" xlink:title="Initiates and runs the animation sequence for showing the dialog based on animation_type_....">
<polygon fill="white" stroke="#666666" points="326.75,-65.75 175,-65.75 175,-47.25 326.75,-47.25 326.75,-65.75"/>
<text text-anchor="middle" x="250.88" y="-52.25" font-family="Helvetica,sans-Serif" font-size="10.00">AnimatedDialog::AnimateShow</text>
</a>
</g>
</g>
<!-- Node1&#45;&gt;Node2 -->
<g id="edge1_Node000001_Node000002" class="edge">
<title>Node1&#45;&gt;Node2</title>
<g id="a_edge1_Node000001_Node000002"><a xlink:title=" ">
<path fill="none" stroke="#63b8ff" d="M351.2,-45.45C343.18,-46.34 335.11,-47.24 327.22,-48.12"/>
<polygon fill="#63b8ff" stroke="#63b8ff" points="351.43,-48.94 360.99,-44.36 350.66,-41.99 351.43,-48.94"/>
</a>
</g>
</g>
<!-- Node4 -->
<g id="Node000004" class="node">
<title>Node4</title>
<g id="a_Node000004"><a xlink:href="classCreateWavelengthDialog.html#acb82ee7ee77da3a02fbd18f622f3c660" target="_top" xlink:title="Constructs a WavelengthDialog. Sets up the UI elements (labels, input fields, buttons,...">
<polygon fill="white" stroke="#666666" points="315.5,-29 186.25,-29 186.25,0 315.5,0 315.5,-29"/>
<text text-anchor="start" x="194.25" y="-15.5" font-family="Helvetica,sans-Serif" font-size="10.00">CreateWavelengthDialog</text>
<text text-anchor="middle" x="250.88" y="-5" font-family="Helvetica,sans-Serif" font-size="10.00">::CreateWavelengthDialog</text>
</a>
</g>
</g>
<!-- Node1&#45;&gt;Node4 -->
<g id="edge3_Node000001_Node000004" class="edge">
<title>Node1&#45;&gt;Node4</title>
<g id="a_edge3_Node000001_Node000004"><a xlink:title=" ">
<path fill="none" stroke="#63b8ff" d="M351.14,-25.54C339.23,-24.22 327.23,-22.88 315.87,-21.62"/>
<polygon fill="#63b8ff" stroke="#63b8ff" points="350.66,-29.01 360.99,-26.64 351.43,-22.06 350.66,-29.01"/>
</a>
</g>
</g>
<!-- Node3 -->
<g id="Node000003" class="node">
<title>Node3</title>
<g id="a_Node000003"><a xlink:href="classAnimatedDialog.html#aeefd41c6fc66dd1373b75025e1843a72" target="_top" xlink:title="Overridden show event handler. Creates and shows the overlay widget (if applicable),...">
<polygon fill="white" stroke="#666666" points="139,-65.75 0,-65.75 0,-47.25 139,-47.25 139,-65.75"/>
<text text-anchor="middle" x="69.5" y="-52.25" font-family="Helvetica,sans-Serif" font-size="10.00">AnimatedDialog::showEvent</text>
</a>
</g>
</g>
<!-- Node2&#45;&gt;Node3 -->
<g id="edge2_Node000002_Node000003" class="edge">
<title>Node2&#45;&gt;Node3</title>
<g id="a_edge2_Node000002_Node000003"><a xlink:title=" ">
<path fill="none" stroke="#63b8ff" d="M163.27,-56.5C155.23,-56.5 147.16,-56.5 139.31,-56.5"/>
<polygon fill="#63b8ff" stroke="#63b8ff" points="163.07,-60 173.07,-56.5 163.07,-53 163.07,-60"/>
</a>
</g>
</g>
</g>
</svg>
