<?xml version="1.0" encoding="UTF-8" standalone="no"?>
<!DOCTYPE svg PUBLIC "-//W3C//DTD SVG 1.1//EN"
 "http://www.w3.org/Graphics/SVG/1.1/DTD/svg11.dtd">
<!-- Generated by graphviz version 12.2.1 (0)
 -->
<!-- Title: SessionCoordinator::pttStartReceiving Pages: 1 -->
<svg width="530pt" height="74pt"
 viewBox="0.00 0.00 530.25 73.75" xmlns="http://www.w3.org/2000/svg" xmlns:xlink="http://www.w3.org/1999/xlink">
<g id="graph0" class="graph" transform="scale(1 1) rotate(0) translate(4 69.75)">
<title>SessionCoordinator::pttStartReceiving</title>
<!-- Node1 -->
<g id="Node000001" class="node">
<title>Node1</title>
<g id="a_Node000001"><a xlink:title="Emitted when another user starts PTT transmission. Relayed from WavelengthMessageService.">
<polygon fill="#999999" stroke="#666666" points="522.25,-50 420.75,-50 420.75,-21 522.25,-21 522.25,-50"/>
<text text-anchor="start" x="428.75" y="-36.5" font-family="Helvetica,sans-Serif" font-size="10.00">SessionCoordinator</text>
<text text-anchor="middle" x="471.5" y="-26" font-family="Helvetica,sans-Serif" font-size="10.00">::pttStartReceiving</text>
</a>
</g>
</g>
<!-- Node2 -->
<g id="Node000002" class="node">
<title>Node2</title>
<g id="a_Node000002"><a xlink:href="classChatView.html#ad2db6f12afdba4b49ec7775b2d560ad3" target="_top" xlink:title="Constructs a WavelengthChatView. Initializes the UI elements (labels, message area,...">
<polygon fill="white" stroke="#666666" points="383.25,-65.75 276.5,-65.75 276.5,-47.25 383.25,-47.25 383.25,-65.75"/>
<text text-anchor="middle" x="329.88" y="-52.25" font-family="Helvetica,sans-Serif" font-size="10.00">ChatView::ChatView</text>
</a>
</g>
</g>
<!-- Node1&#45;&gt;Node2 -->
<g id="edge1_Node000001_Node000002" class="edge">
<title>Node1&#45;&gt;Node2</title>
<g id="a_edge1_Node000001_Node000002"><a xlink:title=" ">
<path fill="none" stroke="#63b8ff" d="M409.28,-44.71C400.64,-46.01 391.82,-47.33 383.37,-48.6"/>
<polygon fill="#63b8ff" stroke="#63b8ff" points="409.62,-48.2 418.99,-43.25 408.58,-41.27 409.62,-48.2"/>
</a>
</g>
</g>
<!-- Node3 -->
<g id="Node000003" class="node">
<title>Node3</title>
<g id="a_Node000003"><a xlink:href="classSessionCoordinator.html#a88c89957fe9dcd94f4ff5ac3f862aa60" target="_top" xlink:title="Relays the pttStartReceiving signal.">
<polygon fill="white" stroke="#666666" points="384.75,-29 275,-29 275,0 384.75,0 384.75,-29"/>
<text text-anchor="start" x="283" y="-15.5" font-family="Helvetica,sans-Serif" font-size="10.00">SessionCoordinator</text>
<text text-anchor="middle" x="329.88" y="-5" font-family="Helvetica,sans-Serif" font-size="10.00">::onPttStartReceiving</text>
</a>
</g>
</g>
<!-- Node1&#45;&gt;Node3 -->
<g id="edge2_Node000001_Node000003" class="edge">
<title>Node1&#45;&gt;Node3</title>
<g id="a_edge2_Node000001_Node000003"><a xlink:title=" ">
<path fill="none" stroke="#63b8ff" d="M409.16,-26.27C401.04,-25.05 392.77,-23.81 384.79,-22.61"/>
<polygon fill="#63b8ff" stroke="#63b8ff" points="408.58,-29.73 418.99,-27.75 409.62,-22.8 408.58,-29.73"/>
</a>
</g>
</g>
<!-- Node4 -->
<g id="Node000004" class="node">
<title>Node4</title>
<g id="a_Node000004"><a xlink:href="classSessionCoordinator.html#a0a388bb572398d11b8959eac0a8e612f" target="_top" xlink:title="Connects signals between the various Wavelength components. Called during Initialize().">
<polygon fill="white" stroke="#666666" points="239,-29 137.5,-29 137.5,0 239,0 239,-29"/>
<text text-anchor="start" x="145.5" y="-15.5" font-family="Helvetica,sans-Serif" font-size="10.00">SessionCoordinator</text>
<text text-anchor="middle" x="188.25" y="-5" font-family="Helvetica,sans-Serif" font-size="10.00">::ConnectSignals</text>
</a>
</g>
</g>
<!-- Node3&#45;&gt;Node4 -->
<g id="edge3_Node000003_Node000004" class="edge">
<title>Node3&#45;&gt;Node4</title>
<g id="a_edge3_Node000003_Node000004"><a xlink:title=" ">
<path fill="none" stroke="#63b8ff" d="M263.54,-14.5C255.44,-14.5 247.25,-14.5 239.43,-14.5"/>
<polygon fill="#63b8ff" stroke="#63b8ff" points="263.38,-18 273.38,-14.5 263.38,-11 263.38,-18"/>
</a>
</g>
</g>
<!-- Node5 -->
<g id="Node000005" class="node">
<title>Node5</title>
<g id="a_Node000005"><a xlink:href="classSessionCoordinator.html#a34a0ef1f02508f6cfd0b8d60164be83a" target="_top" xlink:title="Initializes the coordinator and its underlying components. Connects signals between various Wavelengt...">
<polygon fill="white" stroke="#666666" points="101.5,-29 0,-29 0,0 101.5,0 101.5,-29"/>
<text text-anchor="start" x="8" y="-15.5" font-family="Helvetica,sans-Serif" font-size="10.00">SessionCoordinator</text>
<text text-anchor="middle" x="50.75" y="-5" font-family="Helvetica,sans-Serif" font-size="10.00">::Initialize</text>
</a>
</g>
</g>
<!-- Node4&#45;&gt;Node5 -->
<g id="edge4_Node000004_Node000005" class="edge">
<title>Node4&#45;&gt;Node5</title>
<g id="a_edge4_Node000004_Node000005"><a xlink:title=" ">
<path fill="none" stroke="#63b8ff" d="M125.84,-14.5C117.73,-14.5 109.5,-14.5 101.61,-14.5"/>
<polygon fill="#63b8ff" stroke="#63b8ff" points="125.67,-18 135.67,-14.5 125.67,-11 125.67,-18"/>
</a>
</g>
</g>
</g>
</svg>
