<?xml version="1.0" encoding="UTF-8" standalone="no"?>
<!DOCTYPE svg PUBLIC "-//W3C//DTD SVG 1.1//EN"
 "http://www.w3.org/Graphics/SVG/1.1/DTD/svg11.dtd">
<!-- Generated by graphviz version 12.2.1 (0)
 -->
<!-- Title: WavelengthLeaver::LeaveWavelength Pages: 1 -->
<!--zoomable 254 -->

<svg id="main" version="1.1" xmlns="http://www.w3.org/2000/svg" xmlns:xlink="http://www.w3.org/1999/xlink" xml:space="preserve" onload="init(evt)">

<style type="text/css"><![CDATA[
.node, .edge {opacity: 0.7;}
.node.selected, .edge.selected {opacity: 1;}
.edge:hover path { stroke: red; }
.edge:hover polygon { stroke: red; fill: red; }
]]></style>

<defs>
  <circle id="rim" cx="0" cy="0" r="7"/>
  <circle id="rim2" cx="0" cy="0" r="3.5"/>
  <g id="zoomPlus">
    <use xlink:href="#rim" fill="#404040"><set attributeName="fill" to="#808080" begin="zoomplus.mouseover" end="zoomplus.mouseout"/></use>
    <path d="M-4,0h8M0,-4v8" fill="none" stroke="white" stroke-width="1.5" pointer-events="none"/>
  </g>
  <g id="zoomMin">
    <use xlink:href="#rim" fill="#404040"><set attributeName="fill" to="#808080" begin="zoomminus.mouseover" end="zoomminus.mouseout"/></use>
    <path d="M-4,0h8" fill="none" stroke="white" stroke-width="1.5" pointer-events="none"/>
  </g>
  <g id="arrowUp" transform="translate(30 24)">
    <use xlink:href="#rim"/>
    <path pointer-events="none" fill="none" stroke="white" stroke-width="1.5" d="M0,-3.0v7 M-2.5,-0.5L0,-3.0L2.5,-0.5"/>
  </g>
  <g id="arrowRight" transform="rotate(90) translate(36 -43)">
    <use xlink:href="#rim"/>
    <path pointer-events="none" fill="none" stroke="white" stroke-width="1.5" d="M0,-3.0v7 M-2.5,-0.5L0,-3.0L2.5,-0.5"/>
  </g>
  <g id="arrowDown" transform="rotate(180) translate(-30 -48)">
    <use xlink:href="#rim"/>
    <path pointer-events="none" fill="none" stroke="white" stroke-width="1.5" d="M0,-3.0v7 M-2.5,-0.5L0,-3.0L2.5,-0.5"/>
  </g>
  <g id="arrowLeft" transform="rotate(270) translate(-36 17)">
    <use xlink:href="#rim"/>
    <path pointer-events="none" fill="none" stroke="white" stroke-width="1.5" d="M0,-3.0v7 M-2.5,-0.5L0,-3.0L2.5,-0.5"/>
  </g>
  <g id="resetDef">
    <use xlink:href="#rim2" fill="#404040"><set attributeName="fill" to="#808080" begin="reset.mouseover" end="reset.mouseout"/></use>
  </g>
</defs>
<script type="application/ecmascript">
var viewWidth = 577;
var viewHeight = 254;
var sectionId = 'dynsection-8';
</script>
<script type="application/ecmascript" xlink:href="svg.min.js"/>
<svg id="graph" class="graph">
<g id="viewport">
<title>WavelengthLeaver::LeaveWavelength</title>
<!-- Node1 -->
<g id="Node000001" class="node">
<title>Node1</title>
<g id="a_Node000001"><a xlink:title="Leaves the currently active wavelength. Retrieves the active frequency from the registry....">
<polygon fill="#999999" stroke="#666666" points="176.5,-132.75 0,-132.75 0,-114.25 176.5,-114.25 176.5,-132.75"/>
<text text-anchor="middle" x="88.25" y="-119.25" font-family="Helvetica,sans-Serif" font-size="10.00">WavelengthLeaver::LeaveWavelength</text>
</a>
</g>
</g>
<!-- Node2 -->
<g id="Node000002" class="node">
<title>Node2</title>
<g id="a_Node000002"><a xlink:href="classWavelengthRegistry.html#a6ce8627bbb1db084bf76053aa92f9a47" target="_top" xlink:title="Gets the identifier of the currently active wavelength.">
<polygon fill="white" stroke="#666666" points="345.5,-246 230.5,-246 230.5,-217 345.5,-217 345.5,-246"/>
<text text-anchor="start" x="238.5" y="-232.5" font-family="Helvetica,sans-Serif" font-size="10.00">WavelengthRegistry</text>
<text text-anchor="middle" x="288" y="-222" font-family="Helvetica,sans-Serif" font-size="10.00">::GetActiveWavelength</text>
</a>
</g>
</g>
<!-- Node1&#45;&gt;Node2 -->
<g id="edge1_Node000001_Node000002" class="edge">
<title>Node1&#45;&gt;Node2</title>
<g id="a_edge1_Node000001_Node000002"><a xlink:title=" ">
<path fill="none" stroke="#63b8ff" d="M100.79,-133.06C121.82,-150.08 168.3,-185.88 212.5,-207.5 216.02,-209.22 219.7,-210.86 223.45,-212.42"/>
<polygon fill="#63b8ff" stroke="#63b8ff" points="222.15,-215.67 232.74,-216.02 224.68,-209.14 222.15,-215.67"/>
</a>
</g>
</g>
<!-- Node3 -->
<g id="Node000003" class="node">
<title>Node3</title>
<g id="a_Node000003"><a xlink:href="classMessageHandler.html#afa8afa05bb7b07783162bf420a91ac92" target="_top" xlink:title="Gets the singleton instance of the MessageHandler.">
<polygon fill="white" stroke="#666666" points="362.38,-198.75 213.62,-198.75 213.62,-180.25 362.38,-180.25 362.38,-198.75"/>
<text text-anchor="middle" x="288" y="-185.25" font-family="Helvetica,sans-Serif" font-size="10.00">MessageHandler::GetInstance</text>
</a>
</g>
</g>
<!-- Node1&#45;&gt;Node3 -->
<g id="edge2_Node000001_Node000003" class="edge">
<title>Node1&#45;&gt;Node3</title>
<g id="a_edge2_Node000001_Node000003"><a xlink:title=" ">
<path fill="none" stroke="#63b8ff" d="M111.2,-133.08C135.6,-143.49 176.35,-160.15 212.5,-171.5 218.68,-173.44 225.21,-175.29 231.72,-177.02"/>
<polygon fill="#63b8ff" stroke="#63b8ff" points="230.59,-180.35 241.14,-179.44 232.32,-173.57 230.59,-180.35"/>
</a>
</g>
</g>
<!-- Node5 -->
<g id="Node000005" class="node">
<title>Node5</title>
<g id="a_Node000005"><a xlink:href="classWavelengthRegistry.html#a84a25c38915431306681e96df429f20f" target="_top" xlink:title="Gets the singleton instance of the WavelengthRegistry.">
<polygon fill="white" stroke="#666666" points="339.5,-162 236.5,-162 236.5,-133 339.5,-133 339.5,-162"/>
<text text-anchor="start" x="244.5" y="-148.5" font-family="Helvetica,sans-Serif" font-size="10.00">WavelengthRegistry</text>
<text text-anchor="middle" x="288" y="-138" font-family="Helvetica,sans-Serif" font-size="10.00">::GetInstance</text>
</a>
</g>
</g>
<!-- Node1&#45;&gt;Node5 -->
<g id="edge4_Node000001_Node000005" class="edge">
<title>Node1&#45;&gt;Node5</title>
<g id="a_edge4_Node000001_Node000005"><a xlink:title=" ">
<path fill="none" stroke="#63b8ff" d="M169.4,-133.23C187.93,-135.48 207.37,-137.84 224.99,-139.97"/>
<polygon fill="#63b8ff" stroke="#63b8ff" points="224.43,-143.43 234.77,-141.16 225.27,-136.48 224.43,-143.43"/>
</a>
</g>
</g>
<!-- Node7 -->
<g id="Node000007" class="node">
<title>Node7</title>
<g id="a_Node000007"><a xlink:href="classWavelengthRegistry.html#a022bb5799d095b75026019791ebf5e34" target="_top" xlink:title="Retrieves the WavelengthInfo for a specific frequency.">
<polygon fill="white" stroke="#666666" points="340.25,-115 235.75,-115 235.75,-86 340.25,-86 340.25,-115"/>
<text text-anchor="start" x="243.75" y="-101.5" font-family="Helvetica,sans-Serif" font-size="10.00">WavelengthRegistry</text>
<text text-anchor="middle" x="288" y="-91" font-family="Helvetica,sans-Serif" font-size="10.00">::GetWavelengthInfo</text>
</a>
</g>
</g>
<!-- Node1&#45;&gt;Node7 -->
<g id="edge6_Node000001_Node000007" class="edge">
<title>Node1&#45;&gt;Node7</title>
<g id="a_edge6_Node000001_Node000007"><a xlink:title=" ">
<path fill="none" stroke="#63b8ff" d="M172.83,-113.78C190.04,-111.78 207.89,-109.7 224.22,-107.8"/>
<polygon fill="#63b8ff" stroke="#63b8ff" points="224.22,-111.33 233.75,-106.69 223.41,-104.37 224.22,-111.33"/>
</a>
</g>
</g>
<!-- Node8 -->
<g id="Node000008" class="node">
<title>Node8</title>
<g id="a_Node000008"><a xlink:href="classWavelengthRegistry.html#a998a355d30053edcff8aac04c7d7dc55" target="_top" xlink:title="Checks if a wavelength with the given frequency exists in the registry.">
<polygon fill="white" stroke="#666666" points="535.5,-94 432.5,-94 432.5,-65 535.5,-65 535.5,-94"/>
<text text-anchor="start" x="440.5" y="-80.5" font-family="Helvetica,sans-Serif" font-size="10.00">WavelengthRegistry</text>
<text text-anchor="middle" x="484" y="-70" font-family="Helvetica,sans-Serif" font-size="10.00">::HasWavelength</text>
</a>
</g>
</g>
<!-- Node1&#45;&gt;Node8 -->
<g id="edge8_Node000001_Node000008" class="edge">
<title>Node1&#45;&gt;Node8</title>
<g id="a_edge8_Node000001_Node000008"><a xlink:title=" ">
<path fill="none" stroke="#63b8ff" d="M108.28,-113.95C131.99,-102.63 174.07,-84.44 212.5,-77.5 283.05,-64.76 365.63,-67.93 420.82,-72.56"/>
<polygon fill="#63b8ff" stroke="#63b8ff" points="420.39,-76.03 430.66,-73.43 421.01,-69.06 420.39,-76.03"/>
</a>
</g>
</g>
<!-- Node9 -->
<g id="Node000009" class="node">
<title>Node9</title>
<g id="a_Node000009"><a xlink:href="classMessageHandler.html#ac61b2dfc101504adcfbeba40977e224b" target="_top" xlink:title="Sends a JSON&#45;formatted system command over the specified WebSocket. Constructs a JSON object with the...">
<polygon fill="white" stroke="#666666" points="363.5,-29 212.5,-29 212.5,0 363.5,0 363.5,-29"/>
<text text-anchor="start" x="220.5" y="-15.5" font-family="Helvetica,sans-Serif" font-size="10.00">MessageHandler::SendSystem</text>
<text text-anchor="middle" x="288" y="-5" font-family="Helvetica,sans-Serif" font-size="10.00">Command</text>
</a>
</g>
</g>
<!-- Node1&#45;&gt;Node9 -->
<g id="edge9_Node000001_Node000009" class="edge">
<title>Node1&#45;&gt;Node9</title>
<g id="a_edge9_Node000001_Node000009"><a xlink:title=" ">
<path fill="none" stroke="#63b8ff" d="M102.03,-113.94C123.85,-97.91 170.04,-65.25 212.5,-43.5 219.22,-40.06 226.45,-36.77 233.67,-33.72"/>
<polygon fill="#63b8ff" stroke="#63b8ff" points="234.84,-37.02 242.78,-30.01 232.2,-30.54 234.84,-37.02"/>
</a>
</g>
</g>
<!-- Node4 -->
<g id="Node000004" class="node">
<title>Node4</title>
<g id="a_Node000004"><a xlink:href="classMessageHandler.html#ad3b43ca875118c1bafa19f354678cbec" target="_top" xlink:title="Private constructor to enforce the singleton pattern.">
<polygon fill="white" stroke="#666666" points="568.5,-198.75 399.5,-198.75 399.5,-180.25 568.5,-180.25 568.5,-198.75"/>
<text text-anchor="middle" x="484" y="-185.25" font-family="Helvetica,sans-Serif" font-size="10.00">MessageHandler::MessageHandler</text>
</a>
</g>
</g>
<!-- Node3&#45;&gt;Node4 -->
<g id="edge3_Node000003_Node000004" class="edge">
<title>Node3&#45;&gt;Node4</title>
<g id="a_edge3_Node000003_Node000004"><a xlink:title=" ">
<path fill="none" stroke="#63b8ff" d="M362.62,-189.5C370.8,-189.5 379.22,-189.5 387.62,-189.5"/>
<polygon fill="#63b8ff" stroke="#63b8ff" points="387.52,-193 397.52,-189.5 387.52,-186 387.52,-193"/>
</a>
</g>
</g>
<!-- Node6 -->
<g id="Node000006" class="node">
<title>Node6</title>
<g id="a_Node000006"><a xlink:href="classWavelengthRegistry.html#a5ad0b9c059e6c70af54fd27e35035e64" target="_top" xlink:title="Private constructor to enforce the singleton pattern. Initializes active_wavelength_ to &quot;&#45;1&quot;.">
<polygon fill="white" stroke="#666666" points="538.5,-162 429.5,-162 429.5,-133 538.5,-133 538.5,-162"/>
<text text-anchor="start" x="437.5" y="-148.5" font-family="Helvetica,sans-Serif" font-size="10.00">WavelengthRegistry</text>
<text text-anchor="middle" x="484" y="-138" font-family="Helvetica,sans-Serif" font-size="10.00">::WavelengthRegistry</text>
</a>
</g>
</g>
<!-- Node5&#45;&gt;Node6 -->
<g id="edge5_Node000005_Node000006" class="edge">
<title>Node5&#45;&gt;Node6</title>
<g id="a_edge5_Node000005_Node000006"><a xlink:title=" ">
<path fill="none" stroke="#63b8ff" d="M339.97,-147.5C363.82,-147.5 392.51,-147.5 417.91,-147.5"/>
<polygon fill="#63b8ff" stroke="#63b8ff" points="417.8,-151 427.8,-147.5 417.8,-144 417.8,-151"/>
</a>
</g>
</g>
<!-- Node7&#45;&gt;Node8 -->
<g id="edge7_Node000007_Node000008" class="edge">
<title>Node7&#45;&gt;Node8</title>
<g id="a_edge7_Node000007_Node000008"><a xlink:title=" ">
<path fill="none" stroke="#63b8ff" d="M340.73,-94.9C365.37,-92.23 395.04,-89.02 420.89,-86.22"/>
<polygon fill="#63b8ff" stroke="#63b8ff" points="421.01,-89.73 430.58,-85.17 420.26,-82.77 421.01,-89.73"/>
</a>
</g>
</g>
</g>
</svg>

<g id="navigator" transform="translate(0 0)" fill="#404254">
  <rect fill="#f2f5e9" fill-opacity="0.5" stroke="#606060" stroke-width=".5" x="0" y="0" width="60" height="60"/>
  <use id="zoomplus" xlink:href="#zoomPlus" x="17" y="9" onmousedown="handleZoom(evt,'in')"/>
  <use id="zoomminus" xlink:href="#zoomMin" x="42" y="9" onmousedown="handleZoom(evt,'out')"/>
  <use id="reset" xlink:href="#resetDef" x="30" y="36" onmousedown="handleReset()"/>
   <use id="arrowup" xlink:href="#arrowUp" x="0" y="0" onmousedown="handlePan(0,-1)"/>
  <use id="arrowright" xlink:href="#arrowRight" x="0" y="0" onmousedown="handlePan(1,0)"/>
  <use id="arrowdown" xlink:href="#arrowDown" x="0" y="0" onmousedown="handlePan(0,1)"/>
  <use id="arrowleft" xlink:href="#arrowLeft" x="0" y="0" onmousedown="handlePan(-1,0)"/>
</g>
<svg viewBox="0 0 15 15" width="100%" height="30px" preserveAspectRatio="xMaxYMin meet">
 <g id="arrow_out" transform="scale(0.3 0.3)">
  <a xlink:href="classWavelengthLeaver_a11a552cbede70a46b0f5cb9a509328d7_cgraph_org.svg" target="_base">
   <rect id="button" ry="5" rx="5" y="6" x="6" height="38" width="38"
        fill="#f2f5e9" fill-opacity="0.5" stroke="#606060" stroke-width="1.0"/>
   <path id="arrow"
     d="M 11.500037,31.436501 C 11.940474,20.09759 22.043105,11.32322 32.158766,21.979434 L 37.068811,17.246167 C 37.068811,17.246167 37.088388,32 37.088388,32 L 22.160133,31.978069 C 22.160133,31.978069 26.997745,27.140456 26.997745,27.140456 C 18.528582,18.264221 13.291696,25.230495 11.500037,31.436501 z"
     style="fill:#404040;"/>
  </a>
 </g>
</svg>

<style type='text/css'>
<![CDATA[
[data-mouse-over-selected='false'] { opacity: 0.7; }
[data-mouse-over-selected='true']  { opacity: 1.0; }
]]>
</style>
<script type="application/ecmascript"><![CDATA[
document.addEventListener('DOMContentLoaded', (event) => {
  highlightEdges();
  highlightAdjacentNodes();
});
]]></script>
</svg>
