<?xml version="1.0" encoding="UTF-8" standalone="no"?>
<!DOCTYPE svg PUBLIC "-//W3C//DTD SVG 1.1//EN"
 "http://www.w3.org/Graphics/SVG/1.1/DTD/svg11.dtd">
<!-- Generated by graphviz version 12.2.1 (0)
 -->
<!-- Title: StreamMessage::hidden Pages: 1 -->
<svg width="1234pt" height="244pt"
 viewBox="0.00 0.00 1233.75 243.75" xmlns="http://www.w3.org/2000/svg" xmlns:xlink="http://www.w3.org/1999/xlink">
<g id="graph0" class="graph" transform="scale(1 1) rotate(0) translate(4 239.75)">
<title>StreamMessage::hidden</title>
<!-- Node1 -->
<g id="Node000001" class="node">
<title>Node1</title>
<g id="a_Node000001"><a xlink:title="Emitted when the message finishes its fade&#45;out or closing animation and becomes hidden.">
<polygon fill="#999999" stroke="#666666" points="1225.75,-83.5 1104,-83.5 1104,-65 1225.75,-65 1225.75,-83.5"/>
<text text-anchor="middle" x="1164.88" y="-70" font-family="Helvetica,sans-Serif" font-size="10.00">StreamMessage::hidden</text>
</a>
</g>
</g>
<!-- Node2 -->
<g id="Node000002" class="node">
<title>Node2</title>
<g id="a_Node000002"><a xlink:href="classCommunicationStream.html#aa91c3c46034a10ca7393998082e26a25" target="_top" xlink:title="Connects the necessary signals (navigation, read, hidden) from a StreamMessage widget to this Communi...">
<polygon fill="white" stroke="#666666" points="486.75,-133.75 341.75,-133.75 341.75,-104.75 486.75,-104.75 486.75,-133.75"/>
<text text-anchor="start" x="349.75" y="-120.25" font-family="Helvetica,sans-Serif" font-size="10.00">CommunicationStream</text>
<text text-anchor="middle" x="414.25" y="-109.75" font-family="Helvetica,sans-Serif" font-size="10.00">::ConnectSignalsForMessage</text>
</a>
</g>
</g>
<!-- Node1&#45;&gt;Node2 -->
<g id="edge1_Node000001_Node000002" class="edge">
<title>Node1&#45;&gt;Node2</title>
<g id="a_edge1_Node000001_Node000002"><a xlink:title=" ">
<path fill="none" stroke="#63b8ff" d="M1139.66,-89.99C1120.94,-101.18 1093.93,-115.24 1068,-121.25 861.56,-169.13 608.42,-145.99 486.96,-130.04"/>
<polygon fill="#63b8ff" stroke="#63b8ff" points="1141.44,-93.01 1148.11,-84.78 1137.76,-87.05 1141.44,-93.01"/>
</a>
</g>
</g>
<!-- Node10 -->
<g id="Node000010" class="node">
<title>Node10</title>
<g id="a_Node000010"><a xlink:href="classStreamMessage.html#ab49b5accb0bb73d43ac495501faf4b83" target="_top" xlink:title="Starts the fade&#45;out animation (opacity and glow). Hides the widget and emits the hidden() signal upon...">
<polygon fill="white" stroke="#666666" points="1054.12,-18.5 923.38,-18.5 923.38,0 1054.12,0 1054.12,-18.5"/>
<text text-anchor="middle" x="988.75" y="-5" font-family="Helvetica,sans-Serif" font-size="10.00">StreamMessage::FadeOut</text>
</a>
</g>
</g>
<!-- Node1&#45;&gt;Node10 -->
<g id="edge13_Node000001_Node000010" class="edge">
<title>Node1&#45;&gt;Node10</title>
<g id="a_edge13_Node000001_Node000010"><a xlink:title=" ">
<path fill="none" stroke="#63b8ff" d="M1137.15,-59.08C1118.3,-48.9 1092.21,-35.84 1068,-27.25 1059.07,-24.08 1049.36,-21.32 1039.92,-18.99"/>
<polygon fill="#63b8ff" stroke="#63b8ff" points="1135.3,-62.05 1145.74,-63.8 1138.67,-55.92 1135.3,-62.05"/>
</a>
</g>
</g>
<!-- Node11 -->
<g id="Node000011" class="node">
<title>Node11</title>
<g id="a_Node000011"><a xlink:href="classStreamMessage.html#a54a074c315a53d482650cd24d3e57d60" target="_top" xlink:title="Starts a simpler closing animation (glitch/fade) used specifically for long messages displayed in a s...">
<polygon fill="white" stroke="#666666" points="1056.75,-112.75 920.75,-112.75 920.75,-83.75 1056.75,-83.75 1056.75,-112.75"/>
<text text-anchor="start" x="928.75" y="-99.25" font-family="Helvetica,sans-Serif" font-size="10.00">StreamMessage::StartLong</text>
<text text-anchor="middle" x="988.75" y="-88.75" font-family="Helvetica,sans-Serif" font-size="10.00">MessageClosingAnimation</text>
</a>
</g>
</g>
<!-- Node1&#45;&gt;Node11 -->
<g id="edge14_Node000001_Node000011" class="edge">
<title>Node1&#45;&gt;Node11</title>
<g id="a_edge14_Node000001_Node000011"><a xlink:title=" ">
<path fill="none" stroke="#63b8ff" d="M1092.76,-84.05C1080.92,-85.68 1068.68,-87.37 1056.95,-88.99"/>
<polygon fill="#63b8ff" stroke="#63b8ff" points="1093.02,-87.55 1102.45,-82.72 1092.07,-80.61 1093.02,-87.55"/>
</a>
</g>
</g>
<!-- Node16 -->
<g id="Node000016" class="node">
<title>Node16</title>
<g id="a_Node000016"><a xlink:href="classStreamMessage.html#a8bbf535db654d1c7c94546c61fdc936c" target="_top" xlink:title="Starts the electronic shutdown closing animation. Applies the ElectronicShutdownEffect and animates i...">
<polygon fill="white" stroke="#666666" points="1068,-65.75 909.5,-65.75 909.5,-36.75 1068,-36.75 1068,-65.75"/>
<text text-anchor="start" x="917.5" y="-52.25" font-family="Helvetica,sans-Serif" font-size="10.00">StreamMessage::StartShutdown</text>
<text text-anchor="middle" x="988.75" y="-41.75" font-family="Helvetica,sans-Serif" font-size="10.00">Animation</text>
</a>
</g>
</g>
<!-- Node1&#45;&gt;Node16 -->
<g id="edge20_Node000001_Node000016" class="edge">
<title>Node1&#45;&gt;Node16</title>
<g id="a_edge20_Node000001_Node000016"><a xlink:title=" ">
<path fill="none" stroke="#63b8ff" d="M1092.7,-64.85C1084.64,-63.78 1076.39,-62.69 1068.23,-61.62"/>
<polygon fill="#63b8ff" stroke="#63b8ff" points="1092.08,-68.3 1102.45,-66.14 1093,-61.36 1092.08,-68.3"/>
</a>
</g>
</g>
<!-- Node3 -->
<g id="Node000003" class="node">
<title>Node3</title>
<g id="a_Node000003"><a xlink:href="classCommunicationStream.html#ae3b9b361caa5123daac847c60475d605" target="_top" xlink:title="Adds a new standard message to the stream. Initiates the receiving animation. The message is displaye...">
<polygon fill="white" stroke="#666666" points="132.62,-235.75 16.88,-235.75 16.88,-206.75 132.62,-206.75 132.62,-235.75"/>
<text text-anchor="start" x="24.88" y="-222.25" font-family="Helvetica,sans-Serif" font-size="10.00">CommunicationStream</text>
<text text-anchor="middle" x="74.75" y="-211.75" font-family="Helvetica,sans-Serif" font-size="10.00">::AddMessage</text>
</a>
</g>
</g>
<!-- Node2&#45;&gt;Node3 -->
<g id="edge2_Node000002_Node000003" class="edge">
<title>Node2&#45;&gt;Node3</title>
<g id="a_edge2_Node000002_Node000003"><a xlink:title=" ">
<path fill="none" stroke="#63b8ff" d="M385.08,-140.87C364.27,-155.72 334.67,-174.6 305.75,-185.25 249.24,-206.07 180.6,-214.85 133.09,-218.55"/>
<polygon fill="#63b8ff" stroke="#63b8ff" points="387.02,-143.78 393.04,-135.06 382.89,-138.13 387.02,-143.78"/>
</a>
</g>
</g>
<!-- Node4 -->
<g id="Node000004" class="node">
<title>Node4</title>
<g id="a_Node000004"><a xlink:href="classCommunicationStream.html#a10a56a4dc3eeeaf4865d0f63f077e3bf" target="_top" xlink:title="Adds a new message with attachment content to the stream. Initiates the receiving animation....">
<polygon fill="white" stroke="#666666" points="149.5,-188.75 0,-188.75 0,-159.75 149.5,-159.75 149.5,-188.75"/>
<text text-anchor="start" x="8" y="-175.25" font-family="Helvetica,sans-Serif" font-size="10.00">CommunicationStream</text>
<text text-anchor="middle" x="74.75" y="-164.75" font-family="Helvetica,sans-Serif" font-size="10.00">::AddMessageWithAttachment</text>
</a>
</g>
</g>
<!-- Node2&#45;&gt;Node4 -->
<g id="edge3_Node000002_Node000004" class="edge">
<title>Node2&#45;&gt;Node4</title>
<g id="a_edge3_Node000002_Node000004"><a xlink:title=" ">
<path fill="none" stroke="#63b8ff" d="M376.31,-139.04C356.08,-148.84 330.2,-159.74 305.75,-165.25 254.58,-176.78 195.43,-178.86 149.92,-178.14"/>
<polygon fill="#63b8ff" stroke="#63b8ff" points="377.59,-142.31 384.99,-134.72 374.47,-136.04 377.59,-142.31"/>
</a>
</g>
</g>
<!-- Node5 -->
<g id="Node000005" class="node">
<title>Node5</title>
<g id="a_Node000005"><a xlink:href="classCommunicationStream.html#aba44a533978e83748764534a8682c56f" target="_top" xlink:title="Displays the message at the specified index in the messages_ list. Hides the previously displayed mes...">
<polygon fill="white" stroke="#666666" points="305.75,-155.75 185.5,-155.75 185.5,-126.75 305.75,-126.75 305.75,-155.75"/>
<text text-anchor="start" x="193.5" y="-142.25" font-family="Helvetica,sans-Serif" font-size="10.00">CommunicationStream</text>
<text text-anchor="middle" x="245.62" y="-131.75" font-family="Helvetica,sans-Serif" font-size="10.00">::ShowMessageAtIndex</text>
</a>
</g>
</g>
<!-- Node2&#45;&gt;Node5 -->
<g id="edge4_Node000002_Node000005" class="edge">
<title>Node2&#45;&gt;Node5</title>
<g id="a_edge4_Node000002_Node000005"><a xlink:title=" ">
<path fill="none" stroke="#63b8ff" d="M330.47,-130.18C322.28,-131.26 314.07,-132.34 306.18,-133.39"/>
<polygon fill="#63b8ff" stroke="#63b8ff" points="330.66,-133.68 340.12,-128.91 329.75,-126.74 330.66,-133.68"/>
</a>
</g>
</g>
<!-- Node5&#45;&gt;Node3 -->
<g id="edge5_Node000005_Node000003" class="edge">
<title>Node5&#45;&gt;Node3</title>
<g id="a_edge5_Node000005_Node000003"><a xlink:title=" ">
<path fill="none" stroke="#63b8ff" d="M213.68,-162.36C195.55,-174.06 171.89,-188.22 149.5,-198.25 143.01,-201.16 136.05,-203.84 129.09,-206.28"/>
<polygon fill="#63b8ff" stroke="#63b8ff" points="215.43,-165.4 221.87,-156.98 211.59,-159.54 215.43,-165.4"/>
</a>
</g>
</g>
<!-- Node5&#45;&gt;Node4 -->
<g id="edge6_Node000005_Node000004" class="edge">
<title>Node5&#45;&gt;Node4</title>
<g id="a_edge6_Node000005_Node000004"><a xlink:title=" ">
<path fill="none" stroke="#63b8ff" d="M173.96,-155.06C165.99,-156.62 157.86,-158.21 149.84,-159.77"/>
<polygon fill="#63b8ff" stroke="#63b8ff" points="174.46,-158.53 183.6,-153.17 173.11,-151.66 174.46,-158.53"/>
</a>
</g>
</g>
<!-- Node6 -->
<g id="Node000006" class="node">
<title>Node6</title>
<g id="a_Node000006"><a xlink:href="classCommunicationStream.html#a2283a11febe30f9d2d1887c2c20e7ea3" target="_top" xlink:title="Slot triggered when a StreamMessage widget finishes its hiding animation (or is hidden)....">
<polygon fill="white" stroke="#666666" points="136.38,-140.75 13.12,-140.75 13.12,-111.75 136.38,-111.75 136.38,-140.75"/>
<text text-anchor="start" x="21.12" y="-127.25" font-family="Helvetica,sans-Serif" font-size="10.00">CommunicationStream</text>
<text text-anchor="middle" x="74.75" y="-116.75" font-family="Helvetica,sans-Serif" font-size="10.00">::HandleMessageHidden</text>
</a>
</g>
</g>
<!-- Node5&#45;&gt;Node6 -->
<g id="edge7_Node000005_Node000006" class="edge">
<title>Node5&#45;&gt;Node6</title>
<g id="a_edge7_Node000005_Node000006"><a xlink:title=" ">
<path fill="none" stroke="#63b8ff" d="M173.89,-134.97C161.55,-133.87 148.8,-132.74 136.75,-131.67"/>
<polygon fill="#63b8ff" stroke="#63b8ff" points="173.31,-138.43 183.58,-135.83 173.93,-131.46 173.31,-138.43"/>
</a>
</g>
</g>
<!-- Node7 -->
<g id="Node000007" class="node">
<title>Node7</title>
<g id="a_Node000007"><a xlink:href="classCommunicationStream.html#a600acedc2f4f586b28c147077f768438" target="_top" xlink:title="Shows the next message in the list, if available.">
<polygon fill="#fff0f0" stroke="red" points="132.62,-92.75 16.88,-92.75 16.88,-63.75 132.62,-63.75 132.62,-92.75"/>
<text text-anchor="start" x="24.88" y="-79.25" font-family="Helvetica,sans-Serif" font-size="10.00">CommunicationStream</text>
<text text-anchor="middle" x="74.75" y="-68.75" font-family="Helvetica,sans-Serif" font-size="10.00">::ShowNextMessage</text>
</a>
</g>
</g>
<!-- Node5&#45;&gt;Node7 -->
<g id="edge9_Node000005_Node000007" class="edge">
<title>Node5&#45;&gt;Node7</title>
<g id="a_edge9_Node000005_Node000007"><a xlink:title=" ">
<path fill="none" stroke="#63b8ff" d="M199.56,-121.97C183.82,-115.45 165.97,-108.3 149.5,-102.25 141.16,-99.19 132.21,-96.11 123.54,-93.23"/>
<polygon fill="#63b8ff" stroke="#63b8ff" points="198.11,-125.16 208.68,-125.78 200.8,-118.7 198.11,-125.16"/>
</a>
</g>
</g>
<!-- Node9 -->
<g id="Node000009" class="node">
<title>Node9</title>
<g id="a_Node000009"><a xlink:href="classCommunicationStream.html#a918c54f07703dce3733f2aec5b09503d" target="_top" xlink:title="Shows the previous message in the list, if available.">
<polygon fill="#fff0f0" stroke="red" points="137.12,-42.75 12.38,-42.75 12.38,-13.75 137.12,-13.75 137.12,-42.75"/>
<text text-anchor="start" x="20.38" y="-29.25" font-family="Helvetica,sans-Serif" font-size="10.00">CommunicationStream</text>
<text text-anchor="middle" x="74.75" y="-18.75" font-family="Helvetica,sans-Serif" font-size="10.00">::ShowPreviousMessage</text>
</a>
</g>
</g>
<!-- Node5&#45;&gt;Node9 -->
<g id="edge11_Node000005_Node000009" class="edge">
<title>Node5&#45;&gt;Node9</title>
<g id="a_edge11_Node000005_Node000009"><a xlink:title=" ">
<path fill="none" stroke="#63b8ff" d="M224.33,-118.07C206.33,-98.73 178.47,-71.61 149.5,-54.25 142.4,-49.99 134.49,-46.29 126.57,-43.12"/>
<polygon fill="#63b8ff" stroke="#63b8ff" points="221.54,-120.2 230.86,-125.23 226.71,-115.48 221.54,-120.2"/>
</a>
</g>
</g>
<!-- Node6&#45;&gt;Node2 -->
<g id="edge8_Node000006_Node000002" class="edge">
<title>Node6&#45;&gt;Node2</title>
<g id="a_edge8_Node000006_Node000002"><a xlink:title=" ">
<path fill="none" stroke="#63b8ff" d="M147.99,-119.48C160.49,-118.55 173.36,-117.75 185.5,-117.25 238.9,-115.06 252.31,-116.75 305.75,-117.25 317.23,-117.36 329.4,-117.53 341.26,-117.73"/>
<polygon fill="#63b8ff" stroke="#63b8ff" points="147.86,-115.98 138.16,-120.25 148.4,-122.96 147.86,-115.98"/>
</a>
</g>
</g>
<!-- Node7&#45;&gt;Node2 -->
<g id="edge10_Node000007_Node000002" class="edge">
<title>Node7&#45;&gt;Node2</title>
<g id="a_edge10_Node000007_Node000002"><a xlink:title=" ">
<path fill="none" stroke="#63b8ff" d="M144.21,-86.57C201.5,-93.53 283,-103.43 341.26,-110.5"/>
<polygon fill="#63b8ff" stroke="#63b8ff" points="144.94,-83.13 134.59,-85.4 144.09,-90.08 144.94,-83.13"/>
</a>
</g>
</g>
<!-- Node9&#45;&gt;Node2 -->
<g id="edge12_Node000009_Node000002" class="edge">
<title>Node9&#45;&gt;Node2</title>
<g id="a_edge12_Node000009_Node000002"><a xlink:title=" ">
<path fill="none" stroke="#63b8ff" d="M145.44,-45.94C191.11,-57.65 252.08,-73.51 305.75,-88.25 324.29,-93.34 344.57,-99.13 362.47,-104.32"/>
<polygon fill="#63b8ff" stroke="#63b8ff" points="146.49,-42.59 135.94,-43.5 144.76,-49.37 146.49,-42.59"/>
</a>
</g>
</g>
<!-- Node12 -->
<g id="Node000012" class="node">
<title>Node12</title>
<g id="a_Node000012"><a xlink:href="classStreamMessage.html#ad759a905d0a2cc1874d4781c97b9a2fc" target="_top" xlink:title="Marks the message as read, triggers the appropriate closing animation (Electronic Shutdown or a simpl...">
<polygon fill="white" stroke="#666666" points="873.5,-65.5 723.25,-65.5 723.25,-47 873.5,-47 873.5,-65.5"/>
<text text-anchor="middle" x="798.38" y="-52" font-family="Helvetica,sans-Serif" font-size="10.00">StreamMessage::MarkAsRead</text>
</a>
</g>
</g>
<!-- Node11&#45;&gt;Node12 -->
<g id="edge15_Node000011_Node000012" class="edge">
<title>Node11&#45;&gt;Node12</title>
<g id="a_edge15_Node000011_Node000012"><a xlink:title=" ">
<path fill="none" stroke="#63b8ff" d="M909.51,-80.81C886.79,-75.74 862.8,-70.39 843.02,-65.98"/>
<polygon fill="#63b8ff" stroke="#63b8ff" points="908.54,-84.18 919.06,-82.94 910.06,-77.34 908.54,-84.18"/>
</a>
</g>
</g>
<!-- Node13 -->
<g id="Node000013" class="node">
<title>Node13</title>
<g id="a_Node000013"><a xlink:href="classStreamMessage.html#a0f7169a7adfa4c161d395db0cc3fa244" target="_top" xlink:title="Overridden key press event handler. Handles Space/Enter to mark as read, and Left/Right arrows for na...">
<polygon fill="white" stroke="#666666" points="684.25,-65.5 525.75,-65.5 525.75,-47 684.25,-47 684.25,-65.5"/>
<text text-anchor="middle" x="605" y="-52" font-family="Helvetica,sans-Serif" font-size="10.00">StreamMessage::keyPressEvent</text>
</a>
</g>
</g>
<!-- Node12&#45;&gt;Node13 -->
<g id="edge16_Node000012_Node000013" class="edge">
<title>Node12&#45;&gt;Node13</title>
<g id="a_edge16_Node000012_Node000013"><a xlink:title=" ">
<path fill="none" stroke="#63b8ff" d="M711.51,-56.25C702.5,-56.25 693.37,-56.25 684.44,-56.25"/>
<polygon fill="#63b8ff" stroke="#63b8ff" points="711.32,-59.75 721.32,-56.25 711.32,-52.75 711.32,-59.75"/>
</a>
</g>
</g>
<!-- Node14 -->
<g id="Node000014" class="node">
<title>Node14</title>
<g id="a_Node000014"><a xlink:href="classCommunicationStream.html#a7cf62e4c83ddbf85a1bb47ddb8d9422b" target="_top" xlink:title="Slot triggered when the user requests to close the current message (e.g., clicks &quot;Read&quot; or presses En...">
<polygon fill="#fff0f0" stroke="red" points="662.88,-112.75 547.12,-112.75 547.12,-83.75 662.88,-83.75 662.88,-112.75"/>
<text text-anchor="start" x="555.12" y="-99.25" font-family="Helvetica,sans-Serif" font-size="10.00">CommunicationStream</text>
<text text-anchor="middle" x="605" y="-88.75" font-family="Helvetica,sans-Serif" font-size="10.00">::OnMessageRead</text>
</a>
</g>
</g>
<!-- Node12&#45;&gt;Node14 -->
<g id="edge17_Node000012_Node000014" class="edge">
<title>Node12&#45;&gt;Node14</title>
<g id="a_edge17_Node000012_Node000014"><a xlink:title=" ">
<path fill="none" stroke="#63b8ff" d="M741.97,-68.41C717.25,-73.83 688.15,-80.22 663.22,-85.69"/>
<polygon fill="#63b8ff" stroke="#63b8ff" points="742.49,-71.88 751.51,-66.32 740.99,-65.04 742.49,-71.88"/>
</a>
</g>
</g>
<!-- Node15 -->
<g id="Node000015" class="node">
<title>Node15</title>
<g id="a_Node000015"><a xlink:href="classStreamMessage.html#a9857276cff1cb0de012614e87fee1ac4" target="_top" xlink:title="Constructs a StreamMessage widget. Initializes UI elements (layout, text display/label/scroll area),...">
<polygon fill="white" stroke="#666666" points="687.25,-28.5 522.75,-28.5 522.75,-10 687.25,-10 687.25,-28.5"/>
<text text-anchor="middle" x="605" y="-15" font-family="Helvetica,sans-Serif" font-size="10.00">StreamMessage::StreamMessage</text>
</a>
</g>
</g>
<!-- Node12&#45;&gt;Node15 -->
<g id="edge19_Node000012_Node000015" class="edge">
<title>Node12&#45;&gt;Node15</title>
<g id="a_edge19_Node000012_Node000015"><a xlink:title=" ">
<path fill="none" stroke="#63b8ff" d="M735.95,-44.37C710.22,-39.4 680.68,-33.69 656.28,-28.97"/>
<polygon fill="#63b8ff" stroke="#63b8ff" points="735.12,-47.78 745.61,-46.24 736.45,-40.91 735.12,-47.78"/>
</a>
</g>
</g>
<!-- Node14&#45;&gt;Node2 -->
<g id="edge18_Node000014_Node000002" class="edge">
<title>Node14&#45;&gt;Node2</title>
<g id="a_edge18_Node000014_Node000002"><a xlink:title=" ">
<path fill="none" stroke="#63b8ff" d="M535.62,-105.86C519.89,-107.61 503.12,-109.47 487.25,-111.24"/>
<polygon fill="#63b8ff" stroke="#63b8ff" points="535.8,-109.36 545.35,-104.78 535.03,-102.4 535.8,-109.36"/>
</a>
</g>
</g>
<!-- Node16&#45;&gt;Node12 -->
<g id="edge21_Node000016_Node000012" class="edge">
<title>Node16&#45;&gt;Node12</title>
<g id="a_edge21_Node000016_Node000012"><a xlink:title=" ">
<path fill="none" stroke="#63b8ff" d="M897.9,-53.63C889.84,-53.85 881.75,-54.06 873.85,-54.27"/>
<polygon fill="#63b8ff" stroke="#63b8ff" points="897.81,-57.14 907.71,-53.37 897.62,-50.14 897.81,-57.14"/>
</a>
</g>
</g>
</g>
</svg>
