<?xml version="1.0" encoding="UTF-8" standalone="no"?>
<!DOCTYPE svg PUBLIC "-//W3C//DTD SVG 1.1//EN"
 "http://www.w3.org/Graphics/SVG/1.1/DTD/svg11.dtd">
<!-- Generated by graphviz version 12.2.1 (0)
 -->
<!-- Title: FloatingEnergySphereWidget::keyPressEvent Pages: 1 -->
<svg width="516pt" height="84pt"
 viewBox="0.00 0.00 515.75 84.00" xmlns="http://www.w3.org/2000/svg" xmlns:xlink="http://www.w3.org/1999/xlink">
<g id="graph0" class="graph" transform="scale(1 1) rotate(0) translate(4 80)">
<title>FloatingEnergySphereWidget::keyPressEvent</title>
<!-- Node1 -->
<g id="Node000001" class="node">
<title>Node1</title>
<g id="a_Node000001"><a xlink:title="Handles key press events. Detects the Konami code sequence.">
<polygon fill="#999999" stroke="#666666" points="142.75,-52 0,-52 0,-23 142.75,-23 142.75,-52"/>
<text text-anchor="start" x="8" y="-38.5" font-family="Helvetica,sans-Serif" font-size="10.00">FloatingEnergySphereWidget</text>
<text text-anchor="middle" x="71.38" y="-28" font-family="Helvetica,sans-Serif" font-size="10.00">::keyPressEvent</text>
</a>
</g>
</g>
<!-- Node2 -->
<g id="Node000002" class="node">
<title>Node2</title>
<g id="a_Node000002"><a xlink:href="classFloatingEnergySphereWidget.html#aea15fae32db46c7a4f372e555afc5dee" target="_top" xlink:title="Initiates the destruction animation sequence. Sets the is_destroying_ flag, resets progress,...">
<polygon fill="white" stroke="#666666" points="321.5,-52 178.75,-52 178.75,-23 321.5,-23 321.5,-52"/>
<text text-anchor="start" x="186.75" y="-38.5" font-family="Helvetica,sans-Serif" font-size="10.00">FloatingEnergySphereWidget</text>
<text text-anchor="middle" x="250.12" y="-28" font-family="Helvetica,sans-Serif" font-size="10.00">::StartDestructionSequence</text>
</a>
</g>
</g>
<!-- Node1&#45;&gt;Node2 -->
<g id="edge1_Node000001_Node000002" class="edge">
<title>Node1&#45;&gt;Node2</title>
<g id="a_edge1_Node000001_Node000002"><a xlink:title=" ">
<path fill="none" stroke="#63b8ff" d="M143.25,-37.5C151.15,-37.5 159.24,-37.5 167.26,-37.5"/>
<polygon fill="#63b8ff" stroke="#63b8ff" points="167.01,-41 177.01,-37.5 167.01,-34 167.01,-41"/>
</a>
</g>
</g>
<!-- Node3 -->
<g id="Node000003" class="node">
<title>Node3</title>
<g id="a_Node000003"><a xlink:href="classFloatingEnergySphereWidget.html#ae81d952cf10dd7a2389a6d958e789b16" target="_top" xlink:title="Emitted when the destruction animation sequence (visual and audio) completes.">
<polygon fill="white" stroke="#666666" points="507.75,-76 357.5,-76 357.5,-47 507.75,-47 507.75,-76"/>
<text text-anchor="start" x="365.5" y="-62.5" font-family="Helvetica,sans-Serif" font-size="10.00">FloatingEnergySphereWidget</text>
<text text-anchor="middle" x="432.62" y="-52" font-family="Helvetica,sans-Serif" font-size="10.00">::destructionSequenceFinished</text>
</a>
</g>
</g>
<!-- Node2&#45;&gt;Node3 -->
<g id="edge2_Node000002_Node000003" class="edge">
<title>Node2&#45;&gt;Node3</title>
<g id="a_edge2_Node000002_Node000003"><a xlink:title=" ">
<path fill="none" stroke="#63b8ff" d="M321.95,-46.92C329.8,-47.96 337.86,-49.03 345.87,-50.1"/>
<polygon fill="#63b8ff" stroke="#63b8ff" points="345.27,-53.55 355.64,-51.4 346.19,-46.61 345.27,-53.55"/>
</a>
</g>
</g>
<!-- Node4 -->
<g id="Node000004" class="node">
<title>Node4</title>
<g id="a_Node000004"><a xlink:href="classFloatingEnergySphereWidget.html#af257d6363120d5b830cd4885f67e1114" target="_top" xlink:title="Sets whether the widget can be closed by the user or programmatically. Used to prevent closing during...">
<polygon fill="white" stroke="#666666" points="504,-29 361.25,-29 361.25,0 504,0 504,-29"/>
<text text-anchor="start" x="369.25" y="-15.5" font-family="Helvetica,sans-Serif" font-size="10.00">FloatingEnergySphereWidget</text>
<text text-anchor="middle" x="432.62" y="-5" font-family="Helvetica,sans-Serif" font-size="10.00">::SetClosable</text>
</a>
</g>
</g>
<!-- Node2&#45;&gt;Node4 -->
<g id="edge3_Node000002_Node000004" class="edge">
<title>Node2&#45;&gt;Node4</title>
<g id="a_edge3_Node000002_Node000004"><a xlink:title=" ">
<path fill="none" stroke="#63b8ff" d="M321.95,-28.48C331.07,-27.31 340.48,-26.11 349.77,-24.93"/>
<polygon fill="#63b8ff" stroke="#63b8ff" points="350.03,-28.43 359.51,-23.69 349.15,-21.48 350.03,-28.43"/>
</a>
</g>
</g>
</g>
</svg>
