<?xml version="1.0" encoding="UTF-8" standalone="no"?>
<!DOCTYPE svg PUBLIC "-//W3C//DTD SVG 1.1//EN"
 "http://www.w3.org/Graphics/SVG/1.1/DTD/svg11.dtd">
<!-- Generated by graphviz version 12.2.1 (0)
 -->
<!-- Title: LongTextDisplayEffect::contentHeightChanged Pages: 1 -->
<!--zoomable 217 -->

<svg id="main" version="1.1" xmlns="http://www.w3.org/2000/svg" xmlns:xlink="http://www.w3.org/1999/xlink" xml:space="preserve" onload="init(evt)">

<style type="text/css"><![CDATA[
.node, .edge {opacity: 0.7;}
.node.selected, .edge.selected {opacity: 1;}
.edge:hover path { stroke: red; }
.edge:hover polygon { stroke: red; fill: red; }
]]></style>

<defs>
  <circle id="rim" cx="0" cy="0" r="7"/>
  <circle id="rim2" cx="0" cy="0" r="3.5"/>
  <g id="zoomPlus">
    <use xlink:href="#rim" fill="#404040"><set attributeName="fill" to="#808080" begin="zoomplus.mouseover" end="zoomplus.mouseout"/></use>
    <path d="M-4,0h8M0,-4v8" fill="none" stroke="white" stroke-width="1.5" pointer-events="none"/>
  </g>
  <g id="zoomMin">
    <use xlink:href="#rim" fill="#404040"><set attributeName="fill" to="#808080" begin="zoomminus.mouseover" end="zoomminus.mouseout"/></use>
    <path d="M-4,0h8" fill="none" stroke="white" stroke-width="1.5" pointer-events="none"/>
  </g>
  <g id="arrowUp" transform="translate(30 24)">
    <use xlink:href="#rim"/>
    <path pointer-events="none" fill="none" stroke="white" stroke-width="1.5" d="M0,-3.0v7 M-2.5,-0.5L0,-3.0L2.5,-0.5"/>
  </g>
  <g id="arrowRight" transform="rotate(90) translate(36 -43)">
    <use xlink:href="#rim"/>
    <path pointer-events="none" fill="none" stroke="white" stroke-width="1.5" d="M0,-3.0v7 M-2.5,-0.5L0,-3.0L2.5,-0.5"/>
  </g>
  <g id="arrowDown" transform="rotate(180) translate(-30 -48)">
    <use xlink:href="#rim"/>
    <path pointer-events="none" fill="none" stroke="white" stroke-width="1.5" d="M0,-3.0v7 M-2.5,-0.5L0,-3.0L2.5,-0.5"/>
  </g>
  <g id="arrowLeft" transform="rotate(270) translate(-36 17)">
    <use xlink:href="#rim"/>
    <path pointer-events="none" fill="none" stroke="white" stroke-width="1.5" d="M0,-3.0v7 M-2.5,-0.5L0,-3.0L2.5,-0.5"/>
  </g>
  <g id="resetDef">
    <use xlink:href="#rim2" fill="#404040"><set attributeName="fill" to="#808080" begin="reset.mouseover" end="reset.mouseout"/></use>
  </g>
</defs>
<script type="application/ecmascript">
var viewWidth = 637;
var viewHeight = 217;
var sectionId = 'dynsection-4';
</script>
<script type="application/ecmascript" xlink:href="svg.min.js"/>
<svg id="graph" class="graph">
<g id="viewport">
<title>LongTextDisplayEffect::contentHeightChanged</title>
<!-- Node1 -->
<g id="Node000001" class="node">
<title>Node1</title>
<g id="a_Node000001"><a xlink:title="Emitted after ProcessText() finishes, indicating the total calculated height required to display all ...">
<polygon fill="#999999" stroke="#666666" points="628.75,-102 507,-102 507,-73 628.75,-73 628.75,-102"/>
<text text-anchor="start" x="515" y="-88.5" font-family="Helvetica,sans-Serif" font-size="10.00">LongTextDisplayEffect</text>
<text text-anchor="middle" x="567.88" y="-78" font-family="Helvetica,sans-Serif" font-size="10.00">::contentHeightChanged</text>
</a>
</g>
</g>
<!-- Node2 -->
<g id="Node000002" class="node">
<title>Node2</title>
<g id="a_Node000002"><a xlink:href="classLongTextDisplayEffect.html#a3c62e6c78599b4e8eac2ef62cdae7319" target="_top" xlink:title="Processes the original_text_ into wrapped lines based on the current widget width....">
<polygon fill="white" stroke="#666666" points="445.88,-123 331.62,-123 331.62,-94 445.88,-94 445.88,-123"/>
<text text-anchor="start" x="339.62" y="-109.5" font-family="Helvetica,sans-Serif" font-size="10.00">LongTextDisplayEffect</text>
<text text-anchor="middle" x="388.75" y="-99" font-family="Helvetica,sans-Serif" font-size="10.00">::ProcessText</text>
</a>
</g>
</g>
<!-- Node1&#45;&gt;Node2 -->
<g id="edge1_Node000001_Node000002" class="edge">
<title>Node1&#45;&gt;Node2</title>
<g id="a_edge1_Node000001_Node000002"><a xlink:title=" ">
<path fill="none" stroke="#63b8ff" d="M495.71,-95.94C479.3,-97.88 462.06,-99.93 446.36,-101.79"/>
<polygon fill="#63b8ff" stroke="#63b8ff" points="495.89,-99.44 505.41,-94.79 495.06,-92.49 495.89,-99.44"/>
</a>
</g>
</g>
<!-- Node9 -->
<g id="Node000009" class="node">
<title>Node9</title>
<g id="a_Node000009"><a xlink:href="classStreamMessage.html#a9857276cff1cb0de012614e87fee1ac4" target="_top" xlink:title="Constructs a StreamMessage widget. Initializes UI elements (layout, text display/label/scroll area),...">
<polygon fill="white" stroke="#666666" points="471,-75.75 306.5,-75.75 306.5,-57.25 471,-57.25 471,-75.75"/>
<text text-anchor="middle" x="388.75" y="-62.25" font-family="Helvetica,sans-Serif" font-size="10.00">StreamMessage::StreamMessage</text>
</a>
</g>
</g>
<!-- Node1&#45;&gt;Node9 -->
<g id="edge8_Node000001_Node000009" class="edge">
<title>Node1&#45;&gt;Node9</title>
<g id="a_edge8_Node000001_Node000009"><a xlink:title=" ">
<path fill="none" stroke="#63b8ff" d="M495.72,-79.06C487.7,-78.11 479.47,-77.14 471.33,-76.17"/>
<polygon fill="#63b8ff" stroke="#63b8ff" points="495.06,-82.51 505.41,-80.21 495.89,-75.56 495.06,-82.51"/>
</a>
</g>
</g>
<!-- Node3 -->
<g id="Node000003" class="node">
<title>Node3</title>
<g id="a_Node000003"><a xlink:href="classLongTextDisplayEffect.html#a515b93e6788d2cbb060950762233b25a" target="_top" xlink:title="Constructs a CyberLongTextDisplay widget. Initializes the widget with default size policies,...">
<polygon fill="white" stroke="#666666" points="270.5,-209 150.25,-209 150.25,-180 270.5,-180 270.5,-209"/>
<text text-anchor="start" x="158.25" y="-195.5" font-family="Helvetica,sans-Serif" font-size="10.00">LongTextDisplayEffect</text>
<text text-anchor="middle" x="210.38" y="-185" font-family="Helvetica,sans-Serif" font-size="10.00">::LongTextDisplayEffect</text>
</a>
</g>
</g>
<!-- Node2&#45;&gt;Node3 -->
<g id="edge2_Node000002_Node000003" class="edge">
<title>Node2&#45;&gt;Node3</title>
<g id="a_edge2_Node000002_Node000003"><a xlink:title=" ">
<path fill="none" stroke="#63b8ff" d="M347.09,-128.33C315.07,-143.94 271.14,-165.36 242.04,-179.55"/>
<polygon fill="#63b8ff" stroke="#63b8ff" points="348.21,-131.67 355.67,-124.14 345.14,-125.38 348.21,-131.67"/>
</a>
</g>
</g>
<!-- Node4 -->
<g id="Node000004" class="node">
<title>Node4</title>
<g id="a_Node000004"><a xlink:href="classLongTextDisplayEffect.html#a04a72982e54ac8d38728aa94996c9b48" target="_top" xlink:title="Returns the recommended size for the widget based on the processed text content. The height is calcul...">
<polygon fill="#fff0f0" stroke="red" points="114.25,-187 0,-187 0,-158 114.25,-158 114.25,-187"/>
<text text-anchor="start" x="8" y="-173.5" font-family="Helvetica,sans-Serif" font-size="10.00">LongTextDisplayEffect</text>
<text text-anchor="middle" x="57.12" y="-163" font-family="Helvetica,sans-Serif" font-size="10.00">::sizeHint</text>
</a>
</g>
</g>
<!-- Node2&#45;&gt;Node4 -->
<g id="edge7_Node000002_Node000004" class="edge">
<title>Node2&#45;&gt;Node4</title>
<g id="a_edge7_Node000002_Node000004"><a xlink:title=" ">
<path fill="none" stroke="#63b8ff" d="M320.09,-122.54C303.86,-125.85 286.57,-129.34 270.5,-132.5 217.67,-142.88 157.34,-154.19 114.51,-162.13"/>
<polygon fill="#63b8ff" stroke="#63b8ff" points="320.55,-126.02 329.65,-120.58 319.15,-119.16 320.55,-126.02"/>
</a>
</g>
</g>
<!-- Node6 -->
<g id="Node000006" class="node">
<title>Node6</title>
<g id="a_Node000006"><a xlink:href="classLongTextDisplayEffect.html#a8764be077716dbe61b07607cd1a470ba" target="_top" xlink:title="Overridden paint event handler. Draws the widget&#39;s appearance. Ensures the text is processed,...">
<polygon fill="white" stroke="#666666" points="267.5,-123 153.25,-123 153.25,-94 267.5,-94 267.5,-123"/>
<text text-anchor="start" x="161.25" y="-109.5" font-family="Helvetica,sans-Serif" font-size="10.00">LongTextDisplayEffect</text>
<text text-anchor="middle" x="210.38" y="-99" font-family="Helvetica,sans-Serif" font-size="10.00">::paintEvent</text>
</a>
</g>
</g>
<!-- Node2&#45;&gt;Node6 -->
<g id="edge4_Node000002_Node000006" class="edge">
<title>Node2&#45;&gt;Node6</title>
<g id="a_edge4_Node000002_Node000006"><a xlink:title=" ">
<path fill="none" stroke="#63b8ff" d="M320.26,-108.5C302.92,-108.5 284.45,-108.5 267.74,-108.5"/>
<polygon fill="#63b8ff" stroke="#63b8ff" points="319.95,-112 329.95,-108.5 319.95,-105 319.95,-112"/>
</a>
</g>
</g>
<!-- Node7 -->
<g id="Node000007" class="node">
<title>Node7</title>
<g id="a_Node000007"><a xlink:href="classLongTextDisplayEffect.html#a21a0e7d167e18228eebc2fb163d9b880" target="_top" xlink:title="Overridden resize event handler. Invalidates the processed text cache and triggers delayed text proce...">
<polygon fill="white" stroke="#666666" points="267.5,-76 153.25,-76 153.25,-47 267.5,-47 267.5,-76"/>
<text text-anchor="start" x="161.25" y="-62.5" font-family="Helvetica,sans-Serif" font-size="10.00">LongTextDisplayEffect</text>
<text text-anchor="middle" x="210.38" y="-52" font-family="Helvetica,sans-Serif" font-size="10.00">::resizeEvent</text>
</a>
</g>
</g>
<!-- Node2&#45;&gt;Node7 -->
<g id="edge5_Node000002_Node000007" class="edge">
<title>Node2&#45;&gt;Node7</title>
<g id="a_edge5_Node000002_Node000007"><a xlink:title=" ">
<path fill="none" stroke="#63b8ff" d="M320.86,-90.68C303.24,-85.98 284.41,-80.96 267.42,-76.44"/>
<polygon fill="#63b8ff" stroke="#63b8ff" points="319.92,-94.05 330.48,-93.24 321.72,-87.28 319.92,-94.05"/>
</a>
</g>
</g>
<!-- Node8 -->
<g id="Node000008" class="node">
<title>Node8</title>
<g id="a_Node000008"><a xlink:href="classLongTextDisplayEffect.html#a63a27a4868ea0b72ad337f476786db1e" target="_top" xlink:title="Sets the text content to be displayed. Updates the internal original text, invalidates the processed ...">
<polygon fill="white" stroke="#666666" points="267.5,-29 153.25,-29 153.25,0 267.5,0 267.5,-29"/>
<text text-anchor="start" x="161.25" y="-15.5" font-family="Helvetica,sans-Serif" font-size="10.00">LongTextDisplayEffect</text>
<text text-anchor="middle" x="210.38" y="-5" font-family="Helvetica,sans-Serif" font-size="10.00">::SetText</text>
</a>
</g>
</g>
<!-- Node2&#45;&gt;Node8 -->
<g id="edge6_Node000002_Node000008" class="edge">
<title>Node2&#45;&gt;Node8</title>
<g id="a_edge6_Node000002_Node000008"><a xlink:title=" ">
<path fill="none" stroke="#63b8ff" d="M320.91,-92.54C315.85,-90.21 310.98,-87.54 306.5,-84.5 285.03,-69.91 291.23,-54.13 270.5,-38.5 265.99,-35.1 260.93,-32.1 255.72,-29.48"/>
<polygon fill="#63b8ff" stroke="#63b8ff" points="319.5,-95.75 330.08,-96.3 322.15,-89.27 319.5,-95.75"/>
</a>
</g>
</g>
<!-- Node3&#45;&gt;Node4 -->
<g id="edge3_Node000003_Node000004" class="edge">
<title>Node3&#45;&gt;Node4</title>
<g id="a_edge3_Node000003_Node000004"><a xlink:title=" ">
<path fill="none" stroke="#63b8ff" d="M138.89,-184.25C130.65,-183.05 122.34,-181.84 114.33,-180.68"/>
<polygon fill="#63b8ff" stroke="#63b8ff" points="138.13,-187.67 148.53,-185.65 139.14,-180.75 138.13,-187.67"/>
</a>
</g>
</g>
</g>
</svg>

<g id="navigator" transform="translate(0 0)" fill="#404254">
  <rect fill="#f2f5e9" fill-opacity="0.5" stroke="#606060" stroke-width=".5" x="0" y="0" width="60" height="60"/>
  <use id="zoomplus" xlink:href="#zoomPlus" x="17" y="9" onmousedown="handleZoom(evt,'in')"/>
  <use id="zoomminus" xlink:href="#zoomMin" x="42" y="9" onmousedown="handleZoom(evt,'out')"/>
  <use id="reset" xlink:href="#resetDef" x="30" y="36" onmousedown="handleReset()"/>
   <use id="arrowup" xlink:href="#arrowUp" x="0" y="0" onmousedown="handlePan(0,-1)"/>
  <use id="arrowright" xlink:href="#arrowRight" x="0" y="0" onmousedown="handlePan(1,0)"/>
  <use id="arrowdown" xlink:href="#arrowDown" x="0" y="0" onmousedown="handlePan(0,1)"/>
  <use id="arrowleft" xlink:href="#arrowLeft" x="0" y="0" onmousedown="handlePan(-1,0)"/>
</g>
<svg viewBox="0 0 15 15" width="100%" height="30px" preserveAspectRatio="xMaxYMin meet">
 <g id="arrow_out" transform="scale(0.3 0.3)">
  <a xlink:href="classLongTextDisplayEffect_aa577c95b45549f021c2ca984f7e5f8b3_icgraph_org.svg" target="_base">
   <rect id="button" ry="5" rx="5" y="6" x="6" height="38" width="38"
        fill="#f2f5e9" fill-opacity="0.5" stroke="#606060" stroke-width="1.0"/>
   <path id="arrow"
     d="M 11.500037,31.436501 C 11.940474,20.09759 22.043105,11.32322 32.158766,21.979434 L 37.068811,17.246167 C 37.068811,17.246167 37.088388,32 37.088388,32 L 22.160133,31.978069 C 22.160133,31.978069 26.997745,27.140456 26.997745,27.140456 C 18.528582,18.264221 13.291696,25.230495 11.500037,31.436501 z"
     style="fill:#404040;"/>
  </a>
 </g>
</svg>

<style type='text/css'>
<![CDATA[
[data-mouse-over-selected='false'] { opacity: 0.7; }
[data-mouse-over-selected='true']  { opacity: 1.0; }
]]>
</style>
<script type="application/ecmascript"><![CDATA[
document.addEventListener('DOMContentLoaded', (event) => {
  highlightEdges();
  highlightAdjacentNodes();
});
]]></script>
</svg>
