<?xml version="1.0" encoding="UTF-8" standalone="no"?>
<!DOCTYPE svg PUBLIC "-//W3C//DTD SVG 1.1//EN"
 "http://www.w3.org/Graphics/SVG/1.1/DTD/svg11.dtd">
<!-- Generated by graphviz version 12.2.1 (0)
 -->
<!-- Title: CyberButton Pages: 1 -->
<svg width="160pt" height="385pt"
 viewBox="0.00 0.00 160.25 385.00" xmlns="http://www.w3.org/2000/svg" xmlns:xlink="http://www.w3.org/1999/xlink">
<g id="graph0" class="graph" transform="scale(1 1) rotate(0) translate(4 381)">
<title>CyberButton</title>
<!-- Node1 -->
<g id="Node000001" class="node">
<title>Node1</title>
<g id="a_Node000001"><a xlink:title="A custom QPushButton styled with a cyberpunk aesthetic.">
<polygon fill="#999999" stroke="none" points="152.25,-293.5 0,-293.5 0,0 152.25,0 152.25,-293.5"/>
<text text-anchor="start" x="48.75" y="-280" font-family="Helvetica,sans-Serif" font-size="10.00">CyberButton</text>
<text text-anchor="start" x="4" y="-265.5" font-family="Helvetica,sans-Serif" font-size="10.00">+</text>
<text text-anchor="start" x="14" y="-265.5" font-family="Helvetica,sans-Serif" font-size="10.00">double glowIntensity</text>
<text text-anchor="start" x="5.5" y="-251" font-family="Helvetica,sans-Serif" font-size="10.00">&#45;</text>
<text text-anchor="start" x="14" y="-251" font-family="Helvetica,sans-Serif" font-size="10.00">double glow_intensity_</text>
<text text-anchor="start" x="5.5" y="-236.5" font-family="Helvetica,sans-Serif" font-size="10.00">&#45;</text>
<text text-anchor="start" x="14" y="-236.5" font-family="Helvetica,sans-Serif" font-size="10.00">bool is_primary_</text>
<text text-anchor="start" x="4" y="-222" font-family="Helvetica,sans-Serif" font-size="10.00">+</text>
<text text-anchor="start" x="14" y="-222" font-family="Helvetica,sans-Serif" font-size="10.00">CyberButton(const</text>
<text text-anchor="start" x="14" y="-211.5" font-family="Helvetica,sans-Serif" font-size="10.00"> QString &amp;text, QWidget</text>
<text text-anchor="start" x="14" y="-201" font-family="Helvetica,sans-Serif" font-size="10.00"> *parent=nullptr, bool</text>
<text text-anchor="start" x="14" y="-190.5" font-family="Helvetica,sans-Serif" font-size="10.00"> isPrimary=true)</text>
<text text-anchor="start" x="4" y="-176" font-family="Helvetica,sans-Serif" font-size="10.00">+</text>
<text text-anchor="start" x="14" y="-176" font-family="Helvetica,sans-Serif" font-size="10.00">double GetGlowIntensity</text>
<text text-anchor="start" x="14" y="-165.5" font-family="Helvetica,sans-Serif" font-size="10.00">() const</text>
<text text-anchor="start" x="4" y="-151" font-family="Helvetica,sans-Serif" font-size="10.00">+</text>
<text text-anchor="start" x="14" y="-151" font-family="Helvetica,sans-Serif" font-size="10.00">void SetGlowIntensity</text>
<text text-anchor="start" x="14" y="-140.5" font-family="Helvetica,sans-Serif" font-size="10.00">(double intensity)</text>
<text text-anchor="start" x="4.38" y="-126" font-family="Helvetica,sans-Serif" font-size="10.00">#</text>
<text text-anchor="start" x="14" y="-126" font-family="Helvetica,sans-Serif" font-size="10.00">void enterEvent(QEvent</text>
<text text-anchor="start" x="14" y="-115.5" font-family="Helvetica,sans-Serif" font-size="10.00"> *event) override</text>
<text text-anchor="start" x="4.38" y="-101" font-family="Helvetica,sans-Serif" font-size="10.00">#</text>
<text text-anchor="start" x="14" y="-101" font-family="Helvetica,sans-Serif" font-size="10.00">void leaveEvent(QEvent</text>
<text text-anchor="start" x="14" y="-90.5" font-family="Helvetica,sans-Serif" font-size="10.00"> *event) override</text>
<text text-anchor="start" x="4.38" y="-76" font-family="Helvetica,sans-Serif" font-size="10.00">#</text>
<text text-anchor="start" x="14" y="-76" font-family="Helvetica,sans-Serif" font-size="10.00">void mousePressEvent</text>
<text text-anchor="start" x="14" y="-65.5" font-family="Helvetica,sans-Serif" font-size="10.00">(QMouseEvent *event)</text>
<text text-anchor="start" x="14" y="-55" font-family="Helvetica,sans-Serif" font-size="10.00"> override</text>
<text text-anchor="start" x="4.38" y="-40.5" font-family="Helvetica,sans-Serif" font-size="10.00">#</text>
<text text-anchor="start" x="14" y="-40.5" font-family="Helvetica,sans-Serif" font-size="10.00">void mouseReleaseEvent</text>
<text text-anchor="start" x="14" y="-30" font-family="Helvetica,sans-Serif" font-size="10.00">(QMouseEvent *event) override</text>
<text text-anchor="start" x="4.38" y="-15.5" font-family="Helvetica,sans-Serif" font-size="10.00">#</text>
<text text-anchor="start" x="14" y="-15.5" font-family="Helvetica,sans-Serif" font-size="10.00">void paintEvent(QPaintEvent</text>
<text text-anchor="start" x="14" y="-5" font-family="Helvetica,sans-Serif" font-size="10.00"> *event) override</text>
<polygon fill="#666666" stroke="#666666" points="0,-277 0,-277 152.25,-277 152.25,-277 0,-277"/>
<polygon fill="#666666" stroke="#666666" points="0,-233.5 0,-233.5 12,-233.5 12,-233.5 0,-233.5"/>
<polygon fill="#666666" stroke="#666666" points="12,-233.5 12,-233.5 152.25,-233.5 152.25,-233.5 12,-233.5"/>
<polygon fill="none" stroke="#666666" points="0,0 0,-293.5 152.25,-293.5 152.25,0 0,0"/>
</a>
</g>
</g>
<!-- Node2 -->
<g id="Node000002" class="node">
<title>Node2</title>
<g id="a_Node000002"><a xlink:title=" ">
<polygon fill="white" stroke="none" points="109.38,-377 42.88,-377 42.88,-329.5 109.38,-329.5 109.38,-377"/>
<text text-anchor="start" x="46.88" y="-363.5" font-family="Helvetica,sans-Serif" font-size="10.00">QPushButton</text>
<text text-anchor="start" x="74.62" y="-349" font-family="Helvetica,sans-Serif" font-size="10.00"> </text>
<text text-anchor="start" x="74.62" y="-334.5" font-family="Helvetica,sans-Serif" font-size="10.00"> </text>
<polygon fill="#666666" stroke="#666666" points="42.88,-360.5 42.88,-360.5 109.38,-360.5 109.38,-360.5 42.88,-360.5"/>
<polygon fill="#666666" stroke="#666666" points="42.88,-346 42.88,-346 109.38,-346 109.38,-346 42.88,-346"/>
<polygon fill="none" stroke="#666666" points="42.88,-329.5 42.88,-377 109.38,-377 109.38,-329.5 42.88,-329.5"/>
</a>
</g>
</g>
<!-- Node2&#45;&gt;Node1 -->
<g id="edge1_Node000001_Node000002" class="edge">
<title>Node2&#45;&gt;Node1</title>
<g id="a_edge1_Node000001_Node000002"><a xlink:title=" ">
<path fill="none" stroke="#63b8ff" d="M76.12,-318.26C76.12,-310.77 76.12,-302.39 76.12,-293.47"/>
<polygon fill="none" stroke="#63b8ff" points="72.63,-318.07 76.13,-328.07 79.63,-318.07 72.63,-318.07"/>
</a>
</g>
</g>
</g>
</svg>
