<?xml version="1.0" encoding="UTF-8" standalone="no"?>
<!DOCTYPE svg PUBLIC "-//W3C//DTD SVG 1.1//EN"
 "http://www.w3.org/Graphics/SVG/1.1/DTD/svg11.dtd">
<!-- Generated by graphviz version 12.2.1 (0)
 -->
<!-- Title: VideoDecoder::Initialize Pages: 1 -->
<svg width="517pt" height="354pt"
 viewBox="0.00 0.00 517.25 353.50" xmlns="http://www.w3.org/2000/svg" xmlns:xlink="http://www.w3.org/1999/xlink">
<g id="graph0" class="graph" transform="scale(1 1) rotate(0) translate(4 349.5)">
<title>VideoDecoder::Initialize</title>
<!-- Node1 -->
<g id="Node000001" class="node">
<title>Node1</title>
<g id="a_Node000001"><a xlink:title="Initializes the FFmpeg components for decoding the video and potentially audio. Opens the input strea...">
<polygon fill="#999999" stroke="#666666" points="118.75,-176.5 0,-176.5 0,-158 118.75,-158 118.75,-176.5"/>
<text text-anchor="middle" x="59.38" y="-163" font-family="Helvetica,sans-Serif" font-size="10.00">VideoDecoder::Initialize</text>
</a>
</g>
</g>
<!-- Node2 -->
<g id="Node000002" class="node">
<title>Node2</title>
<g id="a_Node000002"><a xlink:href="classAudioDecoder.html#a4c483a41bf7d57354b63bec009ac222e" target="_top" xlink:title="Emitted when an error occurs during initialization or decoding.">
<polygon fill="white" stroke="#666666" points="285.88,-345.5 182.88,-345.5 182.88,-327 285.88,-327 285.88,-345.5"/>
<text text-anchor="middle" x="234.38" y="-332" font-family="Helvetica,sans-Serif" font-size="10.00">AudioDecoder::error</text>
</a>
</g>
</g>
<!-- Node1&#45;&gt;Node2 -->
<g id="edge1_Node000001_Node000002" class="edge">
<title>Node1&#45;&gt;Node2</title>
<g id="a_edge1_Node000001_Node000002"><a xlink:title=" ">
<path fill="none" stroke="#63b8ff" d="M63.78,-176.77C73.58,-202.79 104.42,-275.72 154.75,-313.25 160.01,-317.17 165.92,-320.43 172.09,-323.13"/>
<polygon fill="#63b8ff" stroke="#63b8ff" points="170.63,-326.32 181.22,-326.63 173.14,-319.78 170.63,-326.32"/>
</a>
</g>
</g>
<!-- Node3 -->
<g id="Node000003" class="node">
<title>Node3</title>
<g id="a_Node000003"><a xlink:href="classVideoDecoder.html#a51e7a40e369cc4e80033f1dd9068cdd4" target="_top" xlink:title="Emitted when an error occurs during initialization or decoding.">
<polygon fill="white" stroke="#666666" points="481.12,-286.5 378.12,-286.5 378.12,-268 481.12,-268 481.12,-286.5"/>
<text text-anchor="middle" x="429.62" y="-273" font-family="Helvetica,sans-Serif" font-size="10.00">VideoDecoder::error</text>
</a>
</g>
</g>
<!-- Node1&#45;&gt;Node3 -->
<g id="edge2_Node000001_Node000003" class="edge">
<title>Node1&#45;&gt;Node3</title>
<g id="a_edge2_Node000001_Node000003"><a xlink:title=" ">
<path fill="none" stroke="#63b8ff" d="M64.79,-176.95C75.95,-200.09 107.75,-258.27 154.75,-280.25 228.29,-314.65 325.56,-301.83 382.19,-289.47"/>
<polygon fill="#63b8ff" stroke="#63b8ff" points="382.85,-292.91 391.82,-287.28 381.3,-286.09 382.85,-292.91"/>
</a>
</g>
</g>
<!-- Node4 -->
<g id="Node000004" class="node">
<title>Node4</title>
<g id="a_Node000004"><a xlink:href="classVideoDecoder.html#a18dedd90eb28ae766eb81d523625f766" target="_top" xlink:title="Slot connected to the internal AudioDecoder&#39;s error signal. Relays the audio error message via the ma...">
<polygon fill="white" stroke="#666666" points="303.88,-270.75 164.88,-270.75 164.88,-241.75 303.88,-241.75 303.88,-270.75"/>
<text text-anchor="start" x="172.88" y="-257.25" font-family="Helvetica,sans-Serif" font-size="10.00">VideoDecoder::HandleAudio</text>
<text text-anchor="middle" x="234.38" y="-246.75" font-family="Helvetica,sans-Serif" font-size="10.00">Error</text>
</a>
</g>
</g>
<!-- Node1&#45;&gt;Node4 -->
<g id="edge3_Node000001_Node000004" class="edge">
<title>Node1&#45;&gt;Node4</title>
<g id="a_edge3_Node000001_Node000004"><a xlink:title=" ">
<path fill="none" stroke="#63b8ff" d="M71.53,-176.89C88.46,-191.08 122.12,-217.59 154.75,-233.25 157.7,-234.66 160.74,-236.01 163.86,-237.29"/>
<polygon fill="#63b8ff" stroke="#63b8ff" points="162.61,-240.55 173.2,-240.83 165.09,-234.01 162.61,-240.55"/>
</a>
</g>
</g>
<!-- Node5 -->
<g id="Node000005" class="node">
<title>Node5</title>
<g id="a_Node000005"><a xlink:href="classVideoDecoder.html#a2d72ecfc50eab41a6e14a1a46feaa7df" target="_top" xlink:title="Slot connected to the internal AudioDecoder&#39;s playbackFinished signal. Sets the audio_finished_ flag ...">
<polygon fill="white" stroke="#666666" points="303.88,-223.75 164.88,-223.75 164.88,-194.75 303.88,-194.75 303.88,-223.75"/>
<text text-anchor="start" x="172.88" y="-210.25" font-family="Helvetica,sans-Serif" font-size="10.00">VideoDecoder::HandleAudio</text>
<text text-anchor="middle" x="234.38" y="-199.75" font-family="Helvetica,sans-Serif" font-size="10.00">Finished</text>
</a>
</g>
</g>
<!-- Node1&#45;&gt;Node5 -->
<g id="edge5_Node000001_Node000005" class="edge">
<title>Node1&#45;&gt;Node5</title>
<g id="a_edge5_Node000001_Node000005"><a xlink:title=" ">
<path fill="none" stroke="#63b8ff" d="M100.5,-176.99C118.44,-181.35 140.15,-186.62 160.78,-191.63"/>
<polygon fill="#63b8ff" stroke="#63b8ff" points="159.76,-194.98 170.3,-193.94 161.41,-188.18 159.76,-194.98"/>
</a>
</g>
</g>
<!-- Node7 -->
<g id="Node000007" class="node">
<title>Node7</title>
<g id="a_Node000007"><a xlink:href="classVideoDecoder.html#a97bfdada9e03663ee5f063b7eece3ad0" target="_top" xlink:title="Checks if the video file contains an audio stream.">
<polygon fill="white" stroke="#666666" points="297.5,-176.5 171.25,-176.5 171.25,-158 297.5,-158 297.5,-176.5"/>
<text text-anchor="middle" x="234.38" y="-163" font-family="Helvetica,sans-Serif" font-size="10.00">VideoDecoder::HasAudio</text>
</a>
</g>
</g>
<!-- Node1&#45;&gt;Node7 -->
<g id="edge7_Node000001_Node000007" class="edge">
<title>Node1&#45;&gt;Node7</title>
<g id="a_edge7_Node000001_Node000007"><a xlink:title=" ">
<path fill="none" stroke="#63b8ff" d="M118.94,-167.25C132.04,-167.25 146.09,-167.25 159.71,-167.25"/>
<polygon fill="#63b8ff" stroke="#63b8ff" points="159.5,-170.75 169.5,-167.25 159.5,-163.75 159.5,-170.75"/>
</a>
</g>
</g>
<!-- Node8 -->
<g id="Node000008" class="node">
<title>Node8</title>
<g id="a_Node000008"><a xlink:href="classAudioDecoder.html#a4f5e8f4dd5f45b60bc5ed68ccd8a90c3" target="_top" xlink:title="Emitted when the decoder reaches the end of the audio stream.">
<polygon fill="white" stroke="#666666" points="314,-139.5 154.75,-139.5 154.75,-121 314,-121 314,-139.5"/>
<text text-anchor="middle" x="234.38" y="-126" font-family="Helvetica,sans-Serif" font-size="10.00">AudioDecoder::playbackFinished</text>
</a>
</g>
</g>
<!-- Node1&#45;&gt;Node8 -->
<g id="edge8_Node000001_Node000008" class="edge">
<title>Node1&#45;&gt;Node8</title>
<g id="a_edge8_Node000001_Node000008"><a xlink:title=" ">
<path fill="none" stroke="#63b8ff" d="M105.83,-157.53C127.6,-152.87 153.88,-147.25 176.91,-142.33"/>
<polygon fill="#63b8ff" stroke="#63b8ff" points="177.4,-145.8 186.44,-140.29 175.93,-138.96 177.4,-145.8"/>
</a>
</g>
</g>
<!-- Node9 -->
<g id="Node000009" class="node">
<title>Node9</title>
<g id="a_Node000009"><a xlink:href="classAudioDecoder.html#a928f569d98a91fae0fa27371a0c85b4e" target="_top" xlink:title="Emitted periodically during playback to indicate the current position.">
<polygon fill="white" stroke="#666666" points="312.5,-102.5 156.25,-102.5 156.25,-84 312.5,-84 312.5,-102.5"/>
<text text-anchor="middle" x="234.38" y="-89" font-family="Helvetica,sans-Serif" font-size="10.00">AudioDecoder::positionChanged</text>
</a>
</g>
</g>
<!-- Node1&#45;&gt;Node9 -->
<g id="edge9_Node000001_Node000009" class="edge">
<title>Node1&#45;&gt;Node9</title>
<g id="a_edge9_Node000001_Node000009"><a xlink:title=" ">
<path fill="none" stroke="#63b8ff" d="M74.1,-157.51C91.91,-145.31 124.31,-124.49 154.75,-112.25 160.45,-109.96 166.5,-107.89 172.61,-106.05"/>
<polygon fill="#63b8ff" stroke="#63b8ff" points="173.48,-109.44 182.16,-103.37 171.58,-102.7 173.48,-109.44"/>
</a>
</g>
</g>
<!-- Node10 -->
<g id="Node000010" class="node">
<title>Node10</title>
<g id="a_Node000010"><a xlink:href="classVideoDecoder.html#aef861f701b488c253cb44f72eeb93831" target="_top" xlink:title="Slot connected to the internal AudioDecoder&#39;s positionChanged signal. Updates the internal current_au...">
<polygon fill="white" stroke="#666666" points="304.25,-65.75 164.5,-65.75 164.5,-36.75 304.25,-36.75 304.25,-65.75"/>
<text text-anchor="start" x="172.5" y="-52.25" font-family="Helvetica,sans-Serif" font-size="10.00">VideoDecoder::UpdateAudio</text>
<text text-anchor="middle" x="234.38" y="-41.75" font-family="Helvetica,sans-Serif" font-size="10.00">Position</text>
</a>
</g>
</g>
<!-- Node1&#45;&gt;Node10 -->
<g id="edge10_Node000001_Node000010" class="edge">
<title>Node1&#45;&gt;Node10</title>
<g id="a_edge10_Node000001_Node000010"><a xlink:title=" ">
<path fill="none" stroke="#63b8ff" d="M67.58,-157.65C82.05,-139.04 116.55,-97.86 154.75,-75.25 157.51,-73.61 160.4,-72.08 163.36,-70.64"/>
<polygon fill="#63b8ff" stroke="#63b8ff" points="164.54,-73.95 172.29,-66.73 161.73,-67.54 164.54,-73.95"/>
</a>
</g>
</g>
<!-- Node12 -->
<g id="Node000012" class="node">
<title>Node12</title>
<g id="a_Node000012"><a xlink:href="classVideoDecoder.html#a0680707eda3a8c22786559ff45bdb46e" target="_top" xlink:title="Emitted after successful initialization, providing video stream details.">
<polygon fill="white" stroke="#666666" points="296,-18.5 172.75,-18.5 172.75,0 296,0 296,-18.5"/>
<text text-anchor="middle" x="234.38" y="-5" font-family="Helvetica,sans-Serif" font-size="10.00">VideoDecoder::videoInfo</text>
</a>
</g>
</g>
<!-- Node1&#45;&gt;Node12 -->
<g id="edge12_Node000001_Node000012" class="edge">
<title>Node1&#45;&gt;Node12</title>
<g id="a_edge12_Node000001_Node000012"><a xlink:title=" ">
<path fill="none" stroke="#63b8ff" d="M63.97,-157.7C74.04,-132.29 105.11,-62.63 154.75,-28.25 157.26,-26.51 159.91,-24.93 162.66,-23.49"/>
<polygon fill="#63b8ff" stroke="#63b8ff" points="163.89,-26.78 171.6,-19.51 161.04,-20.39 163.89,-26.78"/>
</a>
</g>
</g>
<!-- Node4&#45;&gt;Node3 -->
<g id="edge4_Node000004_Node000003" class="edge">
<title>Node4&#45;&gt;Node3</title>
<g id="a_edge4_Node000004_Node000003"><a xlink:title=" ">
<path fill="none" stroke="#63b8ff" d="M304.32,-263.74C324.53,-265.94 346.5,-268.33 366.27,-270.47"/>
<polygon fill="#63b8ff" stroke="#63b8ff" points="365.8,-273.94 376.12,-271.54 366.56,-266.98 365.8,-273.94"/>
</a>
</g>
</g>
<!-- Node6 -->
<g id="Node000006" class="node">
<title>Node6</title>
<g id="a_Node000006"><a xlink:href="classVideoDecoder.html#a4b36980122d8771e7aff1ed0c1db8420" target="_top" xlink:title="Emitted when both video and audio (if present) streams reach the end.">
<polygon fill="white" stroke="#666666" points="509.25,-218.5 350,-218.5 350,-200 509.25,-200 509.25,-218.5"/>
<text text-anchor="middle" x="429.62" y="-205" font-family="Helvetica,sans-Serif" font-size="10.00">VideoDecoder::playbackFinished</text>
</a>
</g>
</g>
<!-- Node5&#45;&gt;Node6 -->
<g id="edge6_Node000005_Node000006" class="edge">
<title>Node5&#45;&gt;Node6</title>
<g id="a_edge6_Node000005_Node000006"><a xlink:title=" ">
<path fill="none" stroke="#63b8ff" d="M304.32,-209.25C315.38,-209.25 326.96,-209.25 338.43,-209.25"/>
<polygon fill="#63b8ff" stroke="#63b8ff" points="338.31,-212.75 348.31,-209.25 338.31,-205.75 338.31,-212.75"/>
</a>
</g>
</g>
<!-- Node11 -->
<g id="Node000011" class="node">
<title>Node11</title>
<g id="a_Node000011"><a xlink:href="classVideoDecoder.html#a72403db422317c2377fbf95fedd14077" target="_top" xlink:title="Emitted periodically during playback to indicate the current position (based on audio if available,...">
<polygon fill="white" stroke="#666666" points="507.75,-60.5 351.5,-60.5 351.5,-42 507.75,-42 507.75,-60.5"/>
<text text-anchor="middle" x="429.62" y="-47" font-family="Helvetica,sans-Serif" font-size="10.00">VideoDecoder::positionChanged</text>
</a>
</g>
</g>
<!-- Node10&#45;&gt;Node11 -->
<g id="edge11_Node000010_Node000011" class="edge">
<title>Node10&#45;&gt;Node11</title>
<g id="a_edge11_Node000010_Node000011"><a xlink:title=" ">
<path fill="none" stroke="#63b8ff" d="M304.6,-51.25C316.01,-51.25 327.97,-51.25 339.78,-51.25"/>
<polygon fill="#63b8ff" stroke="#63b8ff" points="339.51,-54.75 349.51,-51.25 339.51,-47.75 339.51,-54.75"/>
</a>
</g>
</g>
</g>
</svg>
