<?xml version="1.0" encoding="UTF-8" standalone="no"?>
<!DOCTYPE svg PUBLIC "-//W3C//DTD SVG 1.1//EN"
 "http://www.w3.org/Graphics/SVG/1.1/DTD/svg11.dtd">
<!-- Generated by graphviz version 12.2.1 (0)
 -->
<!-- Title: Navbar::Navbar Pages: 1 -->
<svg width="423pt" height="242pt"
 viewBox="0.00 0.00 422.75 242.00" xmlns="http://www.w3.org/2000/svg" xmlns:xlink="http://www.w3.org/1999/xlink">
<g id="graph0" class="graph" transform="scale(1 1) rotate(0) translate(4 238)">
<title>Navbar::Navbar</title>
<!-- Node1 -->
<g id="Node000001" class="node">
<title>Node1</title>
<g id="a_Node000001"><a xlink:title="Constructs the Navbar. Initializes the toolbar&#39;s appearance and behavior (non&#45;movable,...">
<polygon fill="#999999" stroke="#666666" points="85,-120.75 0,-120.75 0,-102.25 85,-102.25 85,-120.75"/>
<text text-anchor="middle" x="42.5" y="-107.25" font-family="Helvetica,sans-Serif" font-size="10.00">Navbar::Navbar</text>
</a>
</g>
</g>
<!-- Node2 -->
<g id="Node000002" class="node">
<title>Node2</title>
<g id="a_Node000002"><a xlink:href="classNavbar.html#a35a159d5b981d7027d65c0b4d2e80669" target="_top" xlink:title="Emitted when the &quot;Generate Wavelength&quot; button is clicked.">
<polygon fill="white" stroke="#666666" points="261.88,-234 131.12,-234 131.12,-205 261.88,-205 261.88,-234"/>
<text text-anchor="start" x="139.12" y="-220.5" font-family="Helvetica,sans-Serif" font-size="10.00">Navbar::createWavelength</text>
<text text-anchor="middle" x="196.5" y="-210" font-family="Helvetica,sans-Serif" font-size="10.00">Clicked</text>
</a>
</g>
</g>
<!-- Node1&#45;&gt;Node2 -->
<g id="edge1_Node000001_Node000002" class="edge">
<title>Node1&#45;&gt;Node2</title>
<g id="a_edge1_Node000001_Node000002"><a xlink:title=" ">
<path fill="none" stroke="#63b8ff" d="M49.72,-121.2C61.51,-138.81 88.79,-176.06 121,-196.5 122.65,-197.55 124.35,-198.55 126.09,-199.51"/>
<polygon fill="#63b8ff" stroke="#63b8ff" points="124.54,-202.64 135.06,-203.88 127.6,-196.35 124.54,-202.64"/>
</a>
</g>
</g>
<!-- Node3 -->
<g id="Node000003" class="node">
<title>Node3</title>
<g id="a_Node000003"><a xlink:href="classTranslationManager.html#a370292d4133519fccf401a6b27b2f6a6" target="_top" xlink:title="Returns an instance of the TranslationManager singleton.">
<polygon fill="white" stroke="#666666" points="246.88,-187 146.12,-187 146.12,-158 246.88,-158 246.88,-187"/>
<text text-anchor="start" x="154.12" y="-173.5" font-family="Helvetica,sans-Serif" font-size="10.00">TranslationManager</text>
<text text-anchor="middle" x="196.5" y="-163" font-family="Helvetica,sans-Serif" font-size="10.00">::GetInstance</text>
</a>
</g>
</g>
<!-- Node1&#45;&gt;Node3 -->
<g id="edge2_Node000001_Node000003" class="edge">
<title>Node1&#45;&gt;Node3</title>
<g id="a_edge2_Node000001_Node000003"><a xlink:title=" ">
<path fill="none" stroke="#63b8ff" d="M61.98,-121.19C77.49,-129.1 100.36,-140.29 121,-148.5 125.6,-150.33 130.4,-152.12 135.24,-153.86"/>
<polygon fill="#63b8ff" stroke="#63b8ff" points="133.85,-157.08 144.45,-157.04 136.15,-150.46 133.85,-157.08"/>
</a>
</g>
</g>
<!-- Node5 -->
<g id="Node000005" class="node">
<title>Node5</title>
<g id="a_Node000005"><a xlink:href="classNavbar.html#a2300661cc6485278de90db3a5b572e0f" target="_top" xlink:title="Emitted when the &quot;Merge Wavelength&quot; button is clicked.">
<polygon fill="white" stroke="#666666" points="272,-139.75 121,-139.75 121,-121.25 272,-121.25 272,-139.75"/>
<text text-anchor="middle" x="196.5" y="-126.25" font-family="Helvetica,sans-Serif" font-size="10.00">Navbar::joinWavelengthClicked</text>
</a>
</g>
</g>
<!-- Node1&#45;&gt;Node5 -->
<g id="edge4_Node000001_Node000005" class="edge">
<title>Node1&#45;&gt;Node5</title>
<g id="a_edge4_Node000001_Node000005"><a xlink:title=" ">
<path fill="none" stroke="#63b8ff" d="M85.44,-116.74C92.99,-117.69 101.11,-118.7 109.39,-119.74"/>
<polygon fill="#63b8ff" stroke="#63b8ff" points="108.88,-123.2 119.24,-120.97 109.75,-116.25 108.88,-123.2"/>
</a>
</g>
</g>
<!-- Node6 -->
<g id="Node000006" class="node">
<title>Node6</title>
<g id="a_Node000006"><a xlink:href="classNavbar.html#a4d02a35dbcd7f3e0971ccbd93547e492" target="_top" xlink:title="Plays a predefined click sound effect. Triggered when any of the main action buttons are clicked.">
<polygon fill="white" stroke="#666666" points="258.12,-102.75 134.88,-102.75 134.88,-84.25 258.12,-84.25 258.12,-102.75"/>
<text text-anchor="middle" x="196.5" y="-89.25" font-family="Helvetica,sans-Serif" font-size="10.00">Navbar::PlayClickSound</text>
</a>
</g>
</g>
<!-- Node1&#45;&gt;Node6 -->
<g id="edge5_Node000001_Node000006" class="edge">
<title>Node1&#45;&gt;Node6</title>
<g id="a_edge5_Node000001_Node000006"><a xlink:title=" ">
<path fill="none" stroke="#63b8ff" d="M85.44,-106.53C97.19,-105.14 110.32,-103.59 123.31,-102.05"/>
<polygon fill="#63b8ff" stroke="#63b8ff" points="123.61,-105.54 133.13,-100.89 122.79,-98.59 123.61,-105.54"/>
</a>
</g>
</g>
<!-- Node7 -->
<g id="Node000007" class="node">
<title>Node7</title>
<g id="a_Node000007"><a xlink:href="classNavbar.html#ae5174435c781910c3a3a7a335d831a9e" target="_top" xlink:title="Emitted when the &quot;Settings&quot; button is clicked.">
<polygon fill="white" stroke="#666666" points="256.62,-65.75 136.38,-65.75 136.38,-47.25 256.62,-47.25 256.62,-65.75"/>
<text text-anchor="middle" x="196.5" y="-52.25" font-family="Helvetica,sans-Serif" font-size="10.00">Navbar::settingsClicked</text>
</a>
</g>
</g>
<!-- Node1&#45;&gt;Node7 -->
<g id="edge6_Node000001_Node000007" class="edge">
<title>Node1&#45;&gt;Node7</title>
<g id="a_edge6_Node000001_Node000007"><a xlink:title=" ">
<path fill="none" stroke="#63b8ff" d="M61.89,-101.78C77.34,-93.9 100.18,-82.92 121,-75.5 127.44,-73.21 134.28,-71.07 141.1,-69.12"/>
<polygon fill="#63b8ff" stroke="#63b8ff" points="141.57,-72.62 150.3,-66.61 139.73,-65.87 141.57,-72.62"/>
</a>
</g>
</g>
<!-- Node8 -->
<g id="Node000008" class="node">
<title>Node8</title>
<g id="a_Node000008"><a xlink:href="classTranslationManager.html#ab6435893ce84a82ab11a7604aa9746d6" target="_top" xlink:title="Retrieves the translated string for the specified key.">
<polygon fill="white" stroke="#666666" points="246.88,-29 146.12,-29 146.12,0 246.88,0 246.88,-29"/>
<text text-anchor="start" x="154.12" y="-15.5" font-family="Helvetica,sans-Serif" font-size="10.00">TranslationManager</text>
<text text-anchor="middle" x="196.5" y="-5" font-family="Helvetica,sans-Serif" font-size="10.00">::Translate</text>
</a>
</g>
</g>
<!-- Node1&#45;&gt;Node8 -->
<g id="edge7_Node000001_Node000008" class="edge">
<title>Node1&#45;&gt;Node8</title>
<g id="a_edge7_Node000001_Node000008"><a xlink:title=" ">
<path fill="none" stroke="#63b8ff" d="M51.08,-102.03C63.9,-86.6 91.4,-55.99 121,-38.5 125.52,-35.83 130.36,-33.42 135.34,-31.26"/>
<polygon fill="#63b8ff" stroke="#63b8ff" points="136.27,-34.65 144.26,-27.7 133.68,-28.15 136.27,-34.65"/>
</a>
</g>
</g>
<!-- Node4 -->
<g id="Node000004" class="node">
<title>Node4</title>
<g id="a_Node000004"><a xlink:href="classTranslationManager.html#afcf7f2ccfdf410f09d0a740c1826a1f3" target="_top" xlink:title="Private constructor to enforce the singleton pattern.">
<polygon fill="white" stroke="#666666" points="414.75,-187 308,-187 308,-158 414.75,-158 414.75,-187"/>
<text text-anchor="start" x="316" y="-173.5" font-family="Helvetica,sans-Serif" font-size="10.00">TranslationManager</text>
<text text-anchor="middle" x="361.38" y="-163" font-family="Helvetica,sans-Serif" font-size="10.00">::TranslationManager</text>
</a>
</g>
</g>
<!-- Node3&#45;&gt;Node4 -->
<g id="edge3_Node000003_Node000004" class="edge">
<title>Node3&#45;&gt;Node4</title>
<g id="a_edge3_Node000003_Node000004"><a xlink:title=" ">
<path fill="none" stroke="#63b8ff" d="M247.25,-172.5C262.76,-172.5 280.08,-172.5 296.42,-172.5"/>
<polygon fill="#63b8ff" stroke="#63b8ff" points="296.02,-176 306.02,-172.5 296.02,-169 296.02,-176"/>
</a>
</g>
</g>
</g>
</svg>
