<?xml version="1.0" encoding="UTF-8" standalone="no"?>
<!DOCTYPE svg PUBLIC "-//W3C//DTD SVG 1.1//EN"
 "http://www.w3.org/Graphics/SVG/1.1/DTD/svg11.dtd">
<!-- Generated by graphviz version 12.2.1 (0)
 -->
<!-- Title: BlobMath::Clamp Pages: 1 -->
<svg width="663pt" height="37pt"
 viewBox="0.00 0.00 663.00 37.00" xmlns="http://www.w3.org/2000/svg" xmlns:xlink="http://www.w3.org/1999/xlink">
<g id="graph0" class="graph" transform="scale(1 1) rotate(0) translate(4 33)">
<title>BlobMath::Clamp</title>
<!-- Node1 -->
<g id="Node000001" class="node">
<title>Node1</title>
<g id="a_Node000001"><a xlink:title="Clamps a value between a minimum and maximum limit. Requires the type T to be totally ordered (suppor...">
<polygon fill="#999999" stroke="#666666" points="655,-23.75 563.25,-23.75 563.25,-5.25 655,-5.25 655,-23.75"/>
<text text-anchor="middle" x="609.12" y="-10.25" font-family="Helvetica,sans-Serif" font-size="10.00">BlobMath::Clamp</text>
</a>
</g>
</g>
<!-- Node2 -->
<g id="Node000002" class="node">
<title>Node2</title>
<g id="a_Node000002"><a xlink:href="classBlobPhysics.html#aad5dc54cd1600108772e45e8ed43af40" target="_top" xlink:title="Enforces minimum and maximum distance constraints between neighboring control points....">
<polygon fill="white" stroke="#666666" points="527.25,-29 370.25,-29 370.25,0 527.25,0 527.25,-29"/>
<text text-anchor="start" x="378.25" y="-15.5" font-family="Helvetica,sans-Serif" font-size="10.00">BlobPhysics::ConstrainNeighbor</text>
<text text-anchor="middle" x="448.75" y="-5" font-family="Helvetica,sans-Serif" font-size="10.00">Distances</text>
</a>
</g>
</g>
<!-- Node1&#45;&gt;Node2 -->
<g id="edge1_Node000001_Node000002" class="edge">
<title>Node1&#45;&gt;Node2</title>
<g id="a_edge1_Node000001_Node000002"><a xlink:title=" ">
<path fill="none" stroke="#63b8ff" d="M551.86,-14.5C543.95,-14.5 535.71,-14.5 527.49,-14.5"/>
<polygon fill="#63b8ff" stroke="#63b8ff" points="551.65,-18 561.65,-14.5 551.65,-11 551.65,-18"/>
</a>
</g>
</g>
<!-- Node3 -->
<g id="Node000003" class="node">
<title>Node3</title>
<g id="a_Node000003"><a xlink:href="classBlobAnimation.html#a41f88c30a6e349bb0a08b0f37db151e3" target="_top" xlink:title="Slot (or helper called by physics thread) to update the blob&#39;s physics simulation....">
<polygon fill="white" stroke="#666666" points="334.25,-23.75 185.5,-23.75 185.5,-5.25 334.25,-5.25 334.25,-23.75"/>
<text text-anchor="middle" x="259.88" y="-10.25" font-family="Helvetica,sans-Serif" font-size="10.00">BlobAnimation::updatePhysics</text>
</a>
</g>
</g>
<!-- Node2&#45;&gt;Node3 -->
<g id="edge2_Node000002_Node000003" class="edge">
<title>Node2&#45;&gt;Node3</title>
<g id="a_edge2_Node000002_Node000003"><a xlink:title=" ">
<path fill="none" stroke="#63b8ff" d="M358.51,-14.5C350.46,-14.5 342.36,-14.5 334.46,-14.5"/>
<polygon fill="#63b8ff" stroke="#63b8ff" points="358.34,-18 368.34,-14.5 358.34,-11 358.34,-18"/>
</a>
</g>
</g>
<!-- Node4 -->
<g id="Node000004" class="node">
<title>Node4</title>
<g id="a_Node000004"><a xlink:href="classBlobAnimation.html#aa73097d69b36c02d99a41b8ab782b012" target="_top" xlink:title="The main function executed by the physics simulation thread. Enters a loop that repeatedly calls upda...">
<polygon fill="#fff0f0" stroke="red" points="149.5,-29 0,-29 0,0 149.5,0 149.5,-29"/>
<text text-anchor="start" x="8" y="-15.5" font-family="Helvetica,sans-Serif" font-size="10.00">BlobAnimation::PhysicsThread</text>
<text text-anchor="middle" x="74.75" y="-5" font-family="Helvetica,sans-Serif" font-size="10.00">Function</text>
</a>
</g>
</g>
<!-- Node3&#45;&gt;Node4 -->
<g id="edge3_Node000003_Node000004" class="edge">
<title>Node3&#45;&gt;Node4</title>
<g id="a_edge3_Node000003_Node000004"><a xlink:title=" ">
<path fill="none" stroke="#63b8ff" d="M173.91,-14.5C165.89,-14.5 157.8,-14.5 149.89,-14.5"/>
<polygon fill="#63b8ff" stroke="#63b8ff" points="173.67,-18 183.67,-14.5 173.67,-11 173.67,-18"/>
</a>
</g>
</g>
</g>
</svg>
