<?xml version="1.0" encoding="UTF-8" standalone="no"?>
<!DOCTYPE svg PUBLIC "-//W3C//DTD SVG 1.1//EN"
 "http://www.w3.org/Graphics/SVG/1.1/DTD/svg11.dtd">
<!-- Generated by graphviz version 12.2.1 (0)
 -->
<!-- Title: ShortcutsSettingsWidget::SetupUi Pages: 1 -->
<svg width="604pt" height="131pt"
 viewBox="0.00 0.00 603.75 131.00" xmlns="http://www.w3.org/2000/svg" xmlns:xlink="http://www.w3.org/1999/xlink">
<g id="graph0" class="graph" transform="scale(1 1) rotate(0) translate(4 127)">
<title>ShortcutsSettingsWidget::SetupUi</title>
<!-- Node1 -->
<g id="Node000001" class="node">
<title>Node1</title>
<g id="a_Node000001"><a xlink:title="Creates and arranges all the UI elements (labels, input fields, layouts, button) for the widget....">
<polygon fill="#999999" stroke="#666666" points="125.5,-52 0,-52 0,-23 125.5,-23 125.5,-52"/>
<text text-anchor="start" x="8" y="-38.5" font-family="Helvetica,sans-Serif" font-size="10.00">ShortcutsSettingsWidget</text>
<text text-anchor="middle" x="62.75" y="-28" font-family="Helvetica,sans-Serif" font-size="10.00">::SetupUi</text>
</a>
</g>
</g>
<!-- Node2 -->
<g id="Node000002" class="node">
<title>Node2</title>
<g id="a_Node000002"><a xlink:href="classShortcutsSettingsWidget.html#abd6356975cd52a17fca64cd942f5b9a8" target="_top" xlink:title="Static utility function to get a user&#45;friendly description for a given shortcut action ID.">
<polygon fill="white" stroke="#666666" points="289.25,-76 163.75,-76 163.75,-47 289.25,-47 289.25,-76"/>
<text text-anchor="start" x="171.75" y="-62.5" font-family="Helvetica,sans-Serif" font-size="10.00">ShortcutsSettingsWidget</text>
<text text-anchor="middle" x="226.5" y="-52" font-family="Helvetica,sans-Serif" font-size="10.00">::GetActionDescription</text>
</a>
</g>
</g>
<!-- Node1&#45;&gt;Node2 -->
<g id="edge1_Node000001_Node000002" class="edge">
<title>Node1&#45;&gt;Node2</title>
<g id="a_edge1_Node000001_Node000002"><a xlink:title=" ">
<path fill="none" stroke="#63b8ff" d="M125.82,-46.71C134.37,-47.98 143.22,-49.29 151.95,-50.59"/>
<polygon fill="#63b8ff" stroke="#63b8ff" points="151.42,-54.05 161.83,-52.05 152.45,-47.12 151.42,-54.05"/>
</a>
</g>
</g>
<!-- Node6 -->
<g id="Node000006" class="node">
<title>Node6</title>
<g id="a_Node000006"><a xlink:href="classShortcutsSettingsWidget.html#a509579bc746ee811ae143dc61a4bc338" target="_top" xlink:title="Restores all keyboard shortcuts to their default values defined in WavelengthConfig....">
<polygon fill="white" stroke="#666666" points="291.5,-29 161.5,-29 161.5,0 291.5,0 291.5,-29"/>
<text text-anchor="start" x="169.5" y="-15.5" font-family="Helvetica,sans-Serif" font-size="10.00">ShortcutsSettingsWidget</text>
<text text-anchor="middle" x="226.5" y="-5" font-family="Helvetica,sans-Serif" font-size="10.00">::RestoreDefaultShortcuts</text>
</a>
</g>
</g>
<!-- Node1&#45;&gt;Node6 -->
<g id="edge5_Node000001_Node000006" class="edge">
<title>Node1&#45;&gt;Node6</title>
<g id="a_edge5_Node000001_Node000006"><a xlink:title=" ">
<path fill="none" stroke="#63b8ff" d="M125.82,-28.67C133.7,-27.55 141.82,-26.4 149.87,-25.25"/>
<polygon fill="#63b8ff" stroke="#63b8ff" points="150.27,-28.73 159.68,-23.86 149.29,-21.8 150.27,-28.73"/>
</a>
</g>
</g>
<!-- Node3 -->
<g id="Node000003" class="node">
<title>Node3</title>
<g id="a_Node000003"><a xlink:href="classTranslationManager.html#a370292d4133519fccf401a6b27b2f6a6" target="_top" xlink:title="Returns an instance of the TranslationManager singleton.">
<polygon fill="white" stroke="#666666" points="440.62,-123 339.88,-123 339.88,-94 440.62,-94 440.62,-123"/>
<text text-anchor="start" x="347.88" y="-109.5" font-family="Helvetica,sans-Serif" font-size="10.00">TranslationManager</text>
<text text-anchor="middle" x="390.25" y="-99" font-family="Helvetica,sans-Serif" font-size="10.00">::GetInstance</text>
</a>
</g>
</g>
<!-- Node2&#45;&gt;Node3 -->
<g id="edge2_Node000002_Node000003" class="edge">
<title>Node2&#45;&gt;Node3</title>
<g id="a_edge2_Node000002_Node000003"><a xlink:title=" ">
<path fill="none" stroke="#63b8ff" d="M278.68,-76.37C294.62,-81 312.35,-86.16 328.87,-90.95"/>
<polygon fill="#63b8ff" stroke="#63b8ff" points="327.48,-94.2 338.06,-93.62 329.43,-87.47 327.48,-94.2"/>
</a>
</g>
</g>
<!-- Node5 -->
<g id="Node000005" class="node">
<title>Node5</title>
<g id="a_Node000005"><a xlink:href="classTranslationManager.html#ab6435893ce84a82ab11a7604aa9746d6" target="_top" xlink:title="Retrieves the translated string for the specified key.">
<polygon fill="white" stroke="#666666" points="440.62,-76 339.88,-76 339.88,-47 440.62,-47 440.62,-76"/>
<text text-anchor="start" x="347.88" y="-62.5" font-family="Helvetica,sans-Serif" font-size="10.00">TranslationManager</text>
<text text-anchor="middle" x="390.25" y="-52" font-family="Helvetica,sans-Serif" font-size="10.00">::Translate</text>
</a>
</g>
</g>
<!-- Node2&#45;&gt;Node5 -->
<g id="edge4_Node000002_Node000005" class="edge">
<title>Node2&#45;&gt;Node5</title>
<g id="a_edge4_Node000002_Node000005"><a xlink:title=" ">
<path fill="none" stroke="#63b8ff" d="M289.57,-61.5C302.19,-61.5 315.46,-61.5 328.05,-61.5"/>
<polygon fill="#63b8ff" stroke="#63b8ff" points="327.87,-65 337.87,-61.5 327.87,-58 327.87,-65"/>
</a>
</g>
</g>
<!-- Node4 -->
<g id="Node000004" class="node">
<title>Node4</title>
<g id="a_Node000004"><a xlink:href="classTranslationManager.html#afcf7f2ccfdf410f09d0a740c1826a1f3" target="_top" xlink:title="Private constructor to enforce the singleton pattern.">
<polygon fill="white" stroke="#666666" points="595.75,-123 489,-123 489,-94 595.75,-94 595.75,-123"/>
<text text-anchor="start" x="497" y="-109.5" font-family="Helvetica,sans-Serif" font-size="10.00">TranslationManager</text>
<text text-anchor="middle" x="542.38" y="-99" font-family="Helvetica,sans-Serif" font-size="10.00">::TranslationManager</text>
</a>
</g>
</g>
<!-- Node3&#45;&gt;Node4 -->
<g id="edge3_Node000003_Node000004" class="edge">
<title>Node3&#45;&gt;Node4</title>
<g id="a_edge3_Node000003_Node000004"><a xlink:title=" ">
<path fill="none" stroke="#63b8ff" d="M440.82,-108.5C452.41,-108.5 464.91,-108.5 477.04,-108.5"/>
<polygon fill="#63b8ff" stroke="#63b8ff" points="476.99,-112 486.99,-108.5 476.99,-105 476.99,-112"/>
</a>
</g>
</g>
<!-- Node7 -->
<g id="Node000007" class="node">
<title>Node7</title>
<g id="a_Node000007"><a xlink:href="classShortcutsSettingsWidget.html#a1a064a45dd1aa4818e899cec0b4016e1" target="_top" xlink:title="Loads the current shortcut settings from WavelengthConfig and updates the UI elements (QKeySequenceEd...">
<polygon fill="white" stroke="#666666" points="453,-29 327.5,-29 327.5,0 453,0 453,-29"/>
<text text-anchor="start" x="335.5" y="-15.5" font-family="Helvetica,sans-Serif" font-size="10.00">ShortcutsSettingsWidget</text>
<text text-anchor="middle" x="390.25" y="-5" font-family="Helvetica,sans-Serif" font-size="10.00">::LoadSettings</text>
</a>
</g>
</g>
<!-- Node6&#45;&gt;Node7 -->
<g id="edge6_Node000006_Node000007" class="edge">
<title>Node6&#45;&gt;Node7</title>
<g id="a_edge6_Node000006_Node000007"><a xlink:title=" ">
<path fill="none" stroke="#63b8ff" d="M291.89,-14.5C299.8,-14.5 307.92,-14.5 315.94,-14.5"/>
<polygon fill="#63b8ff" stroke="#63b8ff" points="315.67,-18 325.67,-14.5 315.67,-11 315.67,-18"/>
</a>
</g>
</g>
</g>
</svg>
