<?xml version="1.0" encoding="UTF-8" standalone="no"?>
<!DOCTYPE svg PUBLIC "-//W3C//DTD SVG 1.1//EN"
 "http://www.w3.org/Graphics/SVG/1.1/DTD/svg11.dtd">
<!-- Generated by graphviz version 12.2.1 (0)
 -->
<!-- Title: TypingTestLayer::TypingTestLayer Pages: 1 -->
<!--zoomable 242 -->

<svg id="main" version="1.1" xmlns="http://www.w3.org/2000/svg" xmlns:xlink="http://www.w3.org/1999/xlink" xml:space="preserve" onload="init(evt)">

<style type="text/css"><![CDATA[
.node, .edge {opacity: 0.7;}
.node.selected, .edge.selected {opacity: 1;}
.edge:hover path { stroke: red; }
.edge:hover polygon { stroke: red; fill: red; }
]]></style>

<defs>
  <circle id="rim" cx="0" cy="0" r="7"/>
  <circle id="rim2" cx="0" cy="0" r="3.5"/>
  <g id="zoomPlus">
    <use xlink:href="#rim" fill="#404040"><set attributeName="fill" to="#808080" begin="zoomplus.mouseover" end="zoomplus.mouseout"/></use>
    <path d="M-4,0h8M0,-4v8" fill="none" stroke="white" stroke-width="1.5" pointer-events="none"/>
  </g>
  <g id="zoomMin">
    <use xlink:href="#rim" fill="#404040"><set attributeName="fill" to="#808080" begin="zoomminus.mouseover" end="zoomminus.mouseout"/></use>
    <path d="M-4,0h8" fill="none" stroke="white" stroke-width="1.5" pointer-events="none"/>
  </g>
  <g id="arrowUp" transform="translate(30 24)">
    <use xlink:href="#rim"/>
    <path pointer-events="none" fill="none" stroke="white" stroke-width="1.5" d="M0,-3.0v7 M-2.5,-0.5L0,-3.0L2.5,-0.5"/>
  </g>
  <g id="arrowRight" transform="rotate(90) translate(36 -43)">
    <use xlink:href="#rim"/>
    <path pointer-events="none" fill="none" stroke="white" stroke-width="1.5" d="M0,-3.0v7 M-2.5,-0.5L0,-3.0L2.5,-0.5"/>
  </g>
  <g id="arrowDown" transform="rotate(180) translate(-30 -48)">
    <use xlink:href="#rim"/>
    <path pointer-events="none" fill="none" stroke="white" stroke-width="1.5" d="M0,-3.0v7 M-2.5,-0.5L0,-3.0L2.5,-0.5"/>
  </g>
  <g id="arrowLeft" transform="rotate(270) translate(-36 17)">
    <use xlink:href="#rim"/>
    <path pointer-events="none" fill="none" stroke="white" stroke-width="1.5" d="M0,-3.0v7 M-2.5,-0.5L0,-3.0L2.5,-0.5"/>
  </g>
  <g id="resetDef">
    <use xlink:href="#rim2" fill="#404040"><set attributeName="fill" to="#808080" begin="reset.mouseover" end="reset.mouseout"/></use>
  </g>
</defs>
<script type="application/ecmascript">
var viewWidth = 558;
var viewHeight = 242;
var sectionId = 'dynsection-2';
</script>
<script type="application/ecmascript" xlink:href="svg.min.js"/>
<svg id="graph" class="graph">
<g id="viewport">
<title>TypingTestLayer::TypingTestLayer</title>
<!-- Node1 -->
<g id="Node000001" class="node">
<title>Node1</title>
<g id="a_Node000001"><a xlink:title="Constructs a TypingTestLayer. Initializes the UI elements (title, instructions, text display panel,...">
<polygon fill="#999999" stroke="#666666" points="139.75,-126 0,-126 0,-97 139.75,-97 139.75,-126"/>
<text text-anchor="start" x="8" y="-112.5" font-family="Helvetica,sans-Serif" font-size="10.00">TypingTestLayer::TypingTest</text>
<text text-anchor="middle" x="69.88" y="-102" font-family="Helvetica,sans-Serif" font-size="10.00">Layer</text>
</a>
</g>
</g>
<!-- Node2 -->
<g id="Node000002" class="node">
<title>Node2</title>
<g id="a_Node000002"><a xlink:href="classTypingTestLayer.html#aef87c3af9034a3e8f9f071cd80f86651" target="_top" xlink:title="Generates a random text passage composed of words from a predefined pool. Ensures the generated text ...">
<polygon fill="white" stroke="#666666" points="323,-234 190.75,-234 190.75,-205 323,-205 323,-234"/>
<text text-anchor="start" x="198.75" y="-220.5" font-family="Helvetica,sans-Serif" font-size="10.00">TypingTestLayer::Generate</text>
<text text-anchor="middle" x="256.88" y="-210" font-family="Helvetica,sans-Serif" font-size="10.00">Words</text>
</a>
</g>
</g>
<!-- Node1&#45;&gt;Node2 -->
<g id="edge1_Node000001_Node000002" class="edge">
<title>Node1&#45;&gt;Node2</title>
<g id="a_edge1_Node000001_Node000002"><a xlink:title=" ">
<path fill="none" stroke="#63b8ff" d="M85.13,-126.28C104.13,-145.16 139.58,-177.66 175.75,-196.5 178.28,-197.82 180.89,-199.07 183.56,-200.25"/>
<polygon fill="#63b8ff" stroke="#63b8ff" points="182.09,-203.44 192.68,-203.95 184.72,-196.95 182.09,-203.44"/>
</a>
</g>
</g>
<!-- Node3 -->
<g id="Node000003" class="node">
<title>Node3</title>
<g id="a_Node000003"><a xlink:href="classTranslationManager.html#a370292d4133519fccf401a6b27b2f6a6" target="_top" xlink:title="Returns an instance of the TranslationManager singleton.">
<polygon fill="white" stroke="#666666" points="307.25,-187 206.5,-187 206.5,-158 307.25,-158 307.25,-187"/>
<text text-anchor="start" x="214.5" y="-173.5" font-family="Helvetica,sans-Serif" font-size="10.00">TranslationManager</text>
<text text-anchor="middle" x="256.88" y="-163" font-family="Helvetica,sans-Serif" font-size="10.00">::GetInstance</text>
</a>
</g>
</g>
<!-- Node1&#45;&gt;Node3 -->
<g id="edge2_Node000001_Node000003" class="edge">
<title>Node1&#45;&gt;Node3</title>
<g id="a_edge2_Node000001_Node000003"><a xlink:title=" ">
<path fill="none" stroke="#63b8ff" d="M111.81,-126.46C131.13,-133.38 154.55,-141.59 175.75,-148.5 182.03,-150.55 188.61,-152.62 195.18,-154.66"/>
<polygon fill="#63b8ff" stroke="#63b8ff" points="194.14,-158 204.73,-157.58 196.19,-151.31 194.14,-158"/>
</a>
</g>
</g>
<!-- Node5 -->
<g id="Node000005" class="node">
<title>Node5</title>
<g id="a_Node000005"><a xlink:href="classTypingTestLayer.html#ac3e556568f03d6283a4749ea641d8354" target="_top" xlink:title="Slot called when the text in the hidden_input_ field changes. Validates the entered text against the ...">
<polygon fill="white" stroke="#666666" points="338,-139.75 175.75,-139.75 175.75,-121.25 338,-121.25 338,-139.75"/>
<text text-anchor="middle" x="256.88" y="-126.25" font-family="Helvetica,sans-Serif" font-size="10.00">TypingTestLayer::OnTextChanged</text>
</a>
</g>
</g>
<!-- Node1&#45;&gt;Node5 -->
<g id="edge4_Node000001_Node000005" class="edge">
<title>Node1&#45;&gt;Node5</title>
<g id="a_edge4_Node000001_Node000005"><a xlink:title=" ">
<path fill="none" stroke="#63b8ff" d="M140.03,-118.6C147.84,-119.4 155.89,-120.23 163.93,-121.06"/>
<polygon fill="#63b8ff" stroke="#63b8ff" points="163.47,-124.53 173.77,-122.07 164.18,-117.56 163.47,-124.53"/>
</a>
</g>
</g>
<!-- Node7 -->
<g id="Node000007" class="node">
<title>Node7</title>
<g id="a_Node000007"><a xlink:href="classTypingTestLayer.html#abad9bc996ba1e3a86e6d6d1f98f13ee5" target="_top" xlink:title="Updates the display_text_label_ with formatted rich text. Highlights correctly typed characters in gr...">
<polygon fill="white" stroke="#666666" points="549.75,-102.75 374,-102.75 374,-84.25 549.75,-84.25 549.75,-102.75"/>
<text text-anchor="middle" x="461.88" y="-89.25" font-family="Helvetica,sans-Serif" font-size="10.00">TypingTestLayer::UpdateDisplayText</text>
</a>
</g>
</g>
<!-- Node1&#45;&gt;Node7 -->
<g id="edge10_Node000001_Node000007" class="edge">
<title>Node1&#45;&gt;Node7</title>
<g id="a_edge10_Node000001_Node000007"><a xlink:title=" ">
<path fill="none" stroke="#63b8ff" d="M140.15,-108.3C201.94,-105.45 293.09,-101.24 362.44,-98.04"/>
<polygon fill="#63b8ff" stroke="#63b8ff" points="362.47,-101.55 372.3,-97.59 362.15,-94.55 362.47,-101.55"/>
</a>
</g>
</g>
<!-- Node9 -->
<g id="Node000009" class="node">
<title>Node9</title>
<g id="a_Node000009"><a xlink:href="classSecurityLayer.html#adc79fa2453a0034a739a7cfcc225db42" target="_top" xlink:title="Constructs a SecurityLayer.">
<polygon fill="white" stroke="#666666" points="327.12,-65.75 186.62,-65.75 186.62,-47.25 327.12,-47.25 327.12,-65.75"/>
<text text-anchor="middle" x="256.88" y="-52.25" font-family="Helvetica,sans-Serif" font-size="10.00">SecurityLayer::SecurityLayer</text>
</a>
</g>
</g>
<!-- Node1&#45;&gt;Node9 -->
<g id="edge8_Node000001_Node000009" class="edge">
<title>Node1&#45;&gt;Node9</title>
<g id="a_edge8_Node000001_Node000009"><a xlink:title=" ">
<path fill="none" stroke="#63b8ff" d="M119.38,-96.52C137.1,-91.09 157.31,-84.96 175.75,-79.5 186.99,-76.17 199.14,-72.65 210.5,-69.38"/>
<polygon fill="#63b8ff" stroke="#63b8ff" points="211.42,-72.76 220.07,-66.64 209.49,-66.03 211.42,-72.76"/>
</a>
</g>
</g>
<!-- Node10 -->
<g id="Node000010" class="node">
<title>Node10</title>
<g id="a_Node000010"><a xlink:href="classTranslationManager.html#ab6435893ce84a82ab11a7604aa9746d6" target="_top" xlink:title="Retrieves the translated string for the specified key.">
<polygon fill="white" stroke="#666666" points="307.25,-29 206.5,-29 206.5,0 307.25,0 307.25,-29"/>
<text text-anchor="start" x="214.5" y="-15.5" font-family="Helvetica,sans-Serif" font-size="10.00">TranslationManager</text>
<text text-anchor="middle" x="256.88" y="-5" font-family="Helvetica,sans-Serif" font-size="10.00">::Translate</text>
</a>
</g>
</g>
<!-- Node1&#45;&gt;Node10 -->
<g id="edge9_Node000001_Node000010" class="edge">
<title>Node1&#45;&gt;Node10</title>
<g id="a_edge9_Node000001_Node000010"><a xlink:title=" ">
<path fill="none" stroke="#63b8ff" d="M88.35,-96.71C108.33,-80.45 142.58,-54.5 175.75,-38.5 182.02,-35.48 188.74,-32.74 195.54,-30.3"/>
<polygon fill="#63b8ff" stroke="#63b8ff" points="196.43,-33.69 204.78,-27.18 194.19,-27.06 196.43,-33.69"/>
</a>
</g>
</g>
<!-- Node4 -->
<g id="Node000004" class="node">
<title>Node4</title>
<g id="a_Node000004"><a xlink:href="classTranslationManager.html#afcf7f2ccfdf410f09d0a740c1826a1f3" target="_top" xlink:title="Private constructor to enforce the singleton pattern.">
<polygon fill="white" stroke="#666666" points="515.25,-224 408.5,-224 408.5,-195 515.25,-195 515.25,-224"/>
<text text-anchor="start" x="416.5" y="-210.5" font-family="Helvetica,sans-Serif" font-size="10.00">TranslationManager</text>
<text text-anchor="middle" x="461.88" y="-200" font-family="Helvetica,sans-Serif" font-size="10.00">::TranslationManager</text>
</a>
</g>
</g>
<!-- Node3&#45;&gt;Node4 -->
<g id="edge3_Node000003_Node000004" class="edge">
<title>Node3&#45;&gt;Node4</title>
<g id="a_edge3_Node000003_Node000004"><a xlink:title=" ">
<path fill="none" stroke="#63b8ff" d="M307.53,-181.55C334.48,-186.46 368.08,-192.59 396.96,-197.85"/>
<polygon fill="#63b8ff" stroke="#63b8ff" points="396.23,-201.27 406.69,-199.62 397.48,-194.39 396.23,-201.27"/>
</a>
</g>
</g>
<!-- Node6 -->
<g id="Node000006" class="node">
<title>Node6</title>
<g id="a_Node000006"><a xlink:href="classSecurityLayer.html#a6b6759d7fd1e729ff63ea9be3c121878" target="_top" xlink:title="Emitted when the user successfully completes the security challenge presented by this layer.">
<polygon fill="white" stroke="#666666" points="536.25,-176.75 387.5,-176.75 387.5,-158.25 536.25,-158.25 536.25,-176.75"/>
<text text-anchor="middle" x="461.88" y="-163.25" font-family="Helvetica,sans-Serif" font-size="10.00">SecurityLayer::layerCompleted</text>
</a>
</g>
</g>
<!-- Node5&#45;&gt;Node6 -->
<g id="edge5_Node000005_Node000006" class="edge">
<title>Node5&#45;&gt;Node6</title>
<g id="a_edge5_Node000005_Node000006"><a xlink:title=" ">
<path fill="none" stroke="#63b8ff" d="M311.21,-140.22C337.33,-144.98 368.99,-150.75 396.46,-155.76"/>
<polygon fill="#63b8ff" stroke="#63b8ff" points="395.59,-159.16 406.05,-157.51 396.84,-152.27 395.59,-159.16"/>
</a>
</g>
</g>
<!-- Node5&#45;&gt;Node7 -->
<g id="edge6_Node000005_Node000007" class="edge">
<title>Node5&#45;&gt;Node7</title>
<g id="a_edge6_Node000005_Node000007"><a xlink:title=" ">
<path fill="none" stroke="#63b8ff" d="M311.21,-120.78C337.33,-116.02 368.99,-110.25 396.46,-105.24"/>
<polygon fill="#63b8ff" stroke="#63b8ff" points="396.84,-108.73 406.05,-103.49 395.59,-101.84 396.84,-108.73"/>
</a>
</g>
</g>
<!-- Node8 -->
<g id="Node000008" class="node">
<title>Node8</title>
<g id="a_Node000008"><a xlink:href="classTypingTestLayer.html#a663b4a2951a08ecd5f9874954f02b109" target="_top" xlink:title="Updates the text display label after the test is successfully completed. Sets the entire text to gree...">
<polygon fill="white" stroke="#666666" points="543,-139.75 380.75,-139.75 380.75,-121.25 543,-121.25 543,-139.75"/>
<text text-anchor="middle" x="461.88" y="-126.25" font-family="Helvetica,sans-Serif" font-size="10.00">TypingTestLayer::UpdateHighlight</text>
</a>
</g>
</g>
<!-- Node5&#45;&gt;Node8 -->
<g id="edge7_Node000005_Node000008" class="edge">
<title>Node5&#45;&gt;Node8</title>
<g id="a_edge7_Node000005_Node000008"><a xlink:title=" ">
<path fill="none" stroke="#63b8ff" d="M338.4,-130.5C348.45,-130.5 358.79,-130.5 369,-130.5"/>
<polygon fill="#63b8ff" stroke="#63b8ff" points="368.94,-134 378.94,-130.5 368.94,-127 368.94,-134"/>
</a>
</g>
</g>
</g>
</svg>

<g id="navigator" transform="translate(0 0)" fill="#404254">
  <rect fill="#f2f5e9" fill-opacity="0.5" stroke="#606060" stroke-width=".5" x="0" y="0" width="60" height="60"/>
  <use id="zoomplus" xlink:href="#zoomPlus" x="17" y="9" onmousedown="handleZoom(evt,'in')"/>
  <use id="zoomminus" xlink:href="#zoomMin" x="42" y="9" onmousedown="handleZoom(evt,'out')"/>
  <use id="reset" xlink:href="#resetDef" x="30" y="36" onmousedown="handleReset()"/>
   <use id="arrowup" xlink:href="#arrowUp" x="0" y="0" onmousedown="handlePan(0,-1)"/>
  <use id="arrowright" xlink:href="#arrowRight" x="0" y="0" onmousedown="handlePan(1,0)"/>
  <use id="arrowdown" xlink:href="#arrowDown" x="0" y="0" onmousedown="handlePan(0,1)"/>
  <use id="arrowleft" xlink:href="#arrowLeft" x="0" y="0" onmousedown="handlePan(-1,0)"/>
</g>
<svg viewBox="0 0 15 15" width="100%" height="30px" preserveAspectRatio="xMaxYMin meet">
 <g id="arrow_out" transform="scale(0.3 0.3)">
  <a xlink:href="classTypingTestLayer_a0e7b55d536094d7b8eb20c03d8662a85_cgraph_org.svg" target="_base">
   <rect id="button" ry="5" rx="5" y="6" x="6" height="38" width="38"
        fill="#f2f5e9" fill-opacity="0.5" stroke="#606060" stroke-width="1.0"/>
   <path id="arrow"
     d="M 11.500037,31.436501 C 11.940474,20.09759 22.043105,11.32322 32.158766,21.979434 L 37.068811,17.246167 C 37.068811,17.246167 37.088388,32 37.088388,32 L 22.160133,31.978069 C 22.160133,31.978069 26.997745,27.140456 26.997745,27.140456 C 18.528582,18.264221 13.291696,25.230495 11.500037,31.436501 z"
     style="fill:#404040;"/>
  </a>
 </g>
</svg>

<style type='text/css'>
<![CDATA[
[data-mouse-over-selected='false'] { opacity: 0.7; }
[data-mouse-over-selected='true']  { opacity: 1.0; }
]]>
</style>
<script type="application/ecmascript"><![CDATA[
document.addEventListener('DOMContentLoaded', (event) => {
  highlightEdges();
  highlightAdjacentNodes();
});
]]></script>
</svg>
