<?xml version="1.0" encoding="UTF-8" standalone="no"?>
<!DOCTYPE svg PUBLIC "-//W3C//DTD SVG 1.1//EN"
 "http://www.w3.org/Graphics/SVG/1.1/DTD/svg11.dtd">
<!-- Generated by graphviz version 12.2.1 (0)
 -->
<!-- Title: BlobAnimation::BlobAnimation Pages: 1 -->
<svg width="755pt" height="932pt"
 viewBox="0.00 0.00 754.50 932.00" xmlns="http://www.w3.org/2000/svg" xmlns:xlink="http://www.w3.org/1999/xlink">
<g id="graph0" class="graph" transform="scale(1 1) rotate(0) translate(4 928)">
<title>BlobAnimation::BlobAnimation</title>
<!-- Node1 -->
<g id="Node000001" class="node">
<title>Node1</title>
<g id="a_Node000001"><a xlink:title="Constructs the BlobAnimation widget. Initializes parameters, states, event handlers,...">
<polygon fill="#999999" stroke="#666666" points="148,-475.75 0,-475.75 0,-457.25 148,-457.25 148,-475.75"/>
<text text-anchor="middle" x="74" y="-462.25" font-family="Helvetica,sans-Serif" font-size="10.00">BlobAnimation::BlobAnimation</text>
</a>
</g>
</g>
<!-- Node2 -->
<g id="Node000002" class="node">
<title>Node2</title>
<g id="a_Node000002"><a xlink:href="classBlobAnimation.html#a48ba42d68eb17ce96466930166b1722c" target="_top" xlink:title="Slot connected to window_position_timer_. Called frequently to check the window position....">
<polygon fill="white" stroke="#666666" points="342.12,-924 193.38,-924 193.38,-895 342.12,-895 342.12,-924"/>
<text text-anchor="start" x="201.38" y="-910.5" font-family="Helvetica,sans-Serif" font-size="10.00">BlobAnimation::CheckWindow</text>
<text text-anchor="middle" x="267.75" y="-900" font-family="Helvetica,sans-Serif" font-size="10.00">Position</text>
</a>
</g>
</g>
<!-- Node1&#45;&gt;Node2 -->
<g id="edge1_Node000001_Node000002" class="edge">
<title>Node1&#45;&gt;Node2</title>
<g id="a_edge1_Node000001_Node000002"><a xlink:title=" ">
<path fill="none" stroke="#63b8ff" d="M76.17,-475.96C83.34,-532.41 123.01,-824.45 184,-886.5 184.38,-886.89 184.76,-887.26 185.15,-887.64"/>
<polygon fill="#63b8ff" stroke="#63b8ff" points="182.86,-890.29 192.9,-893.66 187.16,-884.76 182.86,-890.29"/>
</a>
</g>
</g>
<!-- Node3 -->
<g id="Node000003" class="node">
<title>Node3</title>
<g id="a_Node000003"><a xlink:href="classBlobEventHandler.html#a785a7b849357d099ea2bbf0d5c9e953f" target="_top" xlink:title="Emitted when event processing is re&#45;enabled after being disabled.">
<polygon fill="white" stroke="#666666" points="332,-877 203.5,-877 203.5,-848 332,-848 332,-877"/>
<text text-anchor="start" x="211.5" y="-863.5" font-family="Helvetica,sans-Serif" font-size="10.00">BlobEventHandler::events</text>
<text text-anchor="middle" x="267.75" y="-853" font-family="Helvetica,sans-Serif" font-size="10.00">ReEnabled</text>
</a>
</g>
</g>
<!-- Node1&#45;&gt;Node3 -->
<g id="edge2_Node000001_Node000003" class="edge">
<title>Node1&#45;&gt;Node3</title>
<g id="a_edge2_Node000001_Node000003"><a xlink:title=" ">
<path fill="none" stroke="#63b8ff" d="M74.68,-475.94C73.61,-522.77 75.24,-732.16 184,-839.5 186.85,-842.31 190,-844.78 193.38,-846.96"/>
<polygon fill="#63b8ff" stroke="#63b8ff" points="191.57,-849.96 202.04,-851.62 194.89,-843.8 191.57,-849.96"/>
</a>
</g>
</g>
<!-- Node4 -->
<g id="Node000004" class="node">
<title>Node4</title>
<g id="a_Node000004"><a xlink:href="classWavelengthConfig.html#a1e01ece4ceabead4dfc94927040b8e56" target="_top" xlink:title="Gets the main background color.">
<polygon fill="white" stroke="#666666" points="351.5,-830 184,-830 184,-801 351.5,-801 351.5,-830"/>
<text text-anchor="start" x="192" y="-816.5" font-family="Helvetica,sans-Serif" font-size="10.00">WavelengthConfig::GetBackground</text>
<text text-anchor="middle" x="267.75" y="-806" font-family="Helvetica,sans-Serif" font-size="10.00">Color</text>
</a>
</g>
</g>
<!-- Node1&#45;&gt;Node4 -->
<g id="edge3_Node000001_Node000004" class="edge">
<title>Node1&#45;&gt;Node4</title>
<g id="a_edge3_Node000001_Node000004"><a xlink:title=" ">
<path fill="none" stroke="#63b8ff" d="M75.14,-476.19C76.31,-519.89 87.07,-700.44 184,-792.5 184.51,-792.98 185.02,-793.45 185.55,-793.91"/>
<polygon fill="#63b8ff" stroke="#63b8ff" points="183.35,-796.65 193.5,-799.69 187.46,-790.98 183.35,-796.65"/>
</a>
</g>
</g>
<!-- Node5 -->
<g id="Node000005" class="node">
<title>Node5</title>
<g id="a_Node000005"><a xlink:href="classWavelengthConfig.html#ac3b9b097dc17cd31a21a6245ffaaa74b" target="_top" xlink:title="Gets the color used for the blob animation.">
<polygon fill="white" stroke="#666666" points="335.75,-783 199.75,-783 199.75,-754 335.75,-754 335.75,-783"/>
<text text-anchor="start" x="207.75" y="-769.5" font-family="Helvetica,sans-Serif" font-size="10.00">WavelengthConfig::GetBlob</text>
<text text-anchor="middle" x="267.75" y="-759" font-family="Helvetica,sans-Serif" font-size="10.00">Color</text>
</a>
</g>
</g>
<!-- Node1&#45;&gt;Node5 -->
<g id="edge4_Node000001_Node000005" class="edge">
<title>Node1&#45;&gt;Node5</title>
<g id="a_edge4_Node000001_Node000005"><a xlink:title=" ">
<path fill="none" stroke="#63b8ff" d="M75.75,-476.13C79.36,-515.82 98.53,-668.28 184,-745.5 185.84,-747.16 187.8,-748.71 189.84,-750.15"/>
<polygon fill="#63b8ff" stroke="#63b8ff" points="187.6,-752.89 197.99,-754.98 191.17,-746.87 187.6,-752.89"/>
</a>
</g>
</g>
<!-- Node6 -->
<g id="Node000006" class="node">
<title>Node6</title>
<g id="a_Node000006"><a xlink:href="classWavelengthConfig.html#a8326430efbbfc3bb57baeaef807d7282" target="_top" xlink:title="Gets the color for the background grid lines.">
<polygon fill="white" stroke="#666666" points="335,-736 200.5,-736 200.5,-707 335,-707 335,-736"/>
<text text-anchor="start" x="208.5" y="-722.5" font-family="Helvetica,sans-Serif" font-size="10.00">WavelengthConfig::GetGrid</text>
<text text-anchor="middle" x="267.75" y="-712" font-family="Helvetica,sans-Serif" font-size="10.00">Color</text>
</a>
</g>
</g>
<!-- Node1&#45;&gt;Node6 -->
<g id="edge5_Node000001_Node000006" class="edge">
<title>Node1&#45;&gt;Node6</title>
<g id="a_edge5_Node000001_Node000006"><a xlink:title=" ">
<path fill="none" stroke="#63b8ff" d="M76.59,-476.18C82.95,-511.68 109.88,-635.9 184,-698.5 186.07,-700.25 188.26,-701.86 190.54,-703.35"/>
<polygon fill="#63b8ff" stroke="#63b8ff" points="188.63,-706.29 199.07,-708.09 192.03,-700.17 188.63,-706.29"/>
</a>
</g>
</g>
<!-- Node7 -->
<g id="Node000007" class="node">
<title>Node7</title>
<g id="a_Node000007"><a xlink:href="classWavelengthConfig.html#a986fd6f61f35d0bb9319577d25aad683" target="_top" xlink:title="Gets the spacing between background grid lines in pixels.">
<polygon fill="white" stroke="#666666" points="335,-689 200.5,-689 200.5,-660 335,-660 335,-689"/>
<text text-anchor="start" x="208.5" y="-675.5" font-family="Helvetica,sans-Serif" font-size="10.00">WavelengthConfig::GetGrid</text>
<text text-anchor="middle" x="267.75" y="-665" font-family="Helvetica,sans-Serif" font-size="10.00">Spacing</text>
</a>
</g>
</g>
<!-- Node1&#45;&gt;Node7 -->
<g id="edge6_Node000001_Node000007" class="edge">
<title>Node1&#45;&gt;Node7</title>
<g id="a_edge6_Node000001_Node000007"><a xlink:title=" ">
<path fill="none" stroke="#63b8ff" d="M77.9,-476.23C87.54,-506.85 121.48,-602.07 184,-650.5 186.02,-652.06 188.13,-653.52 190.33,-654.89"/>
<polygon fill="#63b8ff" stroke="#63b8ff" points="188.57,-657.92 199.03,-659.57 191.88,-651.75 188.57,-657.92"/>
</a>
</g>
</g>
<!-- Node8 -->
<g id="Node000008" class="node">
<title>Node8</title>
<g id="a_Node000008"><a xlink:href="classWavelengthConfig.html#abe95f3b7789e1e60f7bd535352644c0d" target="_top" xlink:title="Gets the singleton instance of the WavelengthConfig.">
<polygon fill="white" stroke="#666666" points="344.75,-641.75 190.75,-641.75 190.75,-623.25 344.75,-623.25 344.75,-641.75"/>
<text text-anchor="middle" x="267.75" y="-628.25" font-family="Helvetica,sans-Serif" font-size="10.00">WavelengthConfig::GetInstance</text>
</a>
</g>
</g>
<!-- Node1&#45;&gt;Node8 -->
<g id="edge7_Node000001_Node000008" class="edge">
<title>Node1&#45;&gt;Node8</title>
<g id="a_edge7_Node000001_Node000008"><a xlink:title=" ">
<path fill="none" stroke="#63b8ff" d="M79.57,-476.23C92.25,-502.13 130.5,-573.26 184,-609.5 189.46,-613.2 195.5,-616.3 201.76,-618.91"/>
<polygon fill="#63b8ff" stroke="#63b8ff" points="200.42,-622.15 211.01,-622.32 202.84,-615.58 200.42,-622.15"/>
</a>
</g>
</g>
<!-- Node10 -->
<g id="Node000010" class="node">
<title>Node10</title>
<g id="a_Node000010"><a xlink:href="classBlobAnimation.html#a36a2a04ace71e1fefc7c1c0cfd1f9e18" target="_top" xlink:title="Slot connected to resize_debounce_timer_. Called after a short delay following resize events....">
<polygon fill="white" stroke="#666666" points="340.25,-567 195.25,-567 195.25,-538 340.25,-538 340.25,-567"/>
<text text-anchor="start" x="203.25" y="-553.5" font-family="Helvetica,sans-Serif" font-size="10.00">BlobAnimation::HandleResize</text>
<text text-anchor="middle" x="267.75" y="-543" font-family="Helvetica,sans-Serif" font-size="10.00">Timeout</text>
</a>
</g>
</g>
<!-- Node1&#45;&gt;Node10 -->
<g id="edge10_Node000001_Node000010" class="edge">
<title>Node1&#45;&gt;Node10</title>
<g id="a_edge10_Node000001_Node000010"><a xlink:title=" ">
<path fill="none" stroke="#63b8ff" d="M91.62,-476.16C112.68,-488.17 150.31,-508.88 184,-523.5 192.15,-527.04 200.88,-530.47 209.51,-533.66"/>
<polygon fill="#63b8ff" stroke="#63b8ff" points="208.32,-536.95 218.91,-537.05 210.69,-530.36 208.32,-536.95"/>
</a>
</g>
</g>
<!-- Node13 -->
<g id="Node000013" class="node">
<title>Node13</title>
<g id="a_Node000013"><a xlink:href="classBlobAnimation.html#a90940f8b5f62d348952264e233b2aafb" target="_top" xlink:title="Switches the blob&#39;s current animation state (Idle, Moving, Resizing). Updates the current_blob_state_...">
<polygon fill="white" stroke="#666666" points="741.62,-518.75 592.88,-518.75 592.88,-500.25 741.62,-500.25 741.62,-518.75"/>
<text text-anchor="middle" x="667.25" y="-505.25" font-family="Helvetica,sans-Serif" font-size="10.00">BlobAnimation::SwitchToState</text>
</a>
</g>
</g>
<!-- Node1&#45;&gt;Node13 -->
<g id="edge29_Node000001_Node000013" class="edge">
<title>Node1&#45;&gt;Node13</title>
<g id="a_edge29_Node000001_Node000013"><a xlink:title=" ">
<path fill="none" stroke="#63b8ff" d="M111.55,-476.25C132.58,-481.43 159.59,-487.36 184,-490.5 322.15,-508.29 484.24,-510.99 580.92,-510.69"/>
<polygon fill="#63b8ff" stroke="#63b8ff" points="580.88,-514.19 590.87,-510.65 580.85,-507.19 580.88,-514.19"/>
</a>
</g>
</g>
<!-- Node14 -->
<g id="Node000014" class="node">
<title>Node14</title>
<g id="a_Node000014"><a xlink:href="classBlobAnimation.html#a2b520d867895a9631aaa1a88e64ada61" target="_top" xlink:title="Initializes the blob&#39;s state (control points, target points, velocity, center) based on current param...">
<polygon fill="white" stroke="#666666" points="539.62,-603.75 399.88,-603.75 399.88,-585.25 539.62,-585.25 539.62,-603.75"/>
<text text-anchor="middle" x="469.75" y="-590.25" font-family="Helvetica,sans-Serif" font-size="10.00">BlobAnimation::InitializeBlob</text>
</a>
</g>
</g>
<!-- Node1&#45;&gt;Node14 -->
<g id="edge14_Node000001_Node000014" class="edge">
<title>Node1&#45;&gt;Node14</title>
<g id="a_edge14_Node000001_Node000014"><a xlink:title=" ">
<path fill="none" stroke="#63b8ff" d="M80.9,-476.12C95.28,-498.53 134.56,-554.03 184,-576.5 248.29,-605.72 329.28,-607.97 388.44,-604.24"/>
<polygon fill="#63b8ff" stroke="#63b8ff" points="388.35,-607.75 398.08,-603.56 387.86,-600.77 388.35,-607.75"/>
</a>
</g>
</g>
<!-- Node15 -->
<g id="Node000015" class="node">
<title>Node15</title>
<g id="a_Node000015"><a xlink:href="classBlobEventHandler.html#aad583f5951b3014d66d3914a8d060cad" target="_top" xlink:title="Emitted periodically during window movement to provide samples for velocity calculation....">
<polygon fill="white" stroke="#666666" points="340.25,-481 195.25,-481 195.25,-452 340.25,-452 340.25,-481"/>
<text text-anchor="start" x="203.25" y="-467.5" font-family="Helvetica,sans-Serif" font-size="10.00">BlobEventHandler::movement</text>
<text text-anchor="middle" x="267.75" y="-457" font-family="Helvetica,sans-Serif" font-size="10.00">SampleAdded</text>
</a>
</g>
</g>
<!-- Node1&#45;&gt;Node15 -->
<g id="edge16_Node000001_Node000015" class="edge">
<title>Node1&#45;&gt;Node15</title>
<g id="a_edge16_Node000001_Node000015"><a xlink:title=" ">
<path fill="none" stroke="#63b8ff" d="M148.31,-466.5C159.93,-466.5 172.02,-466.5 183.84,-466.5"/>
<polygon fill="#63b8ff" stroke="#63b8ff" points="183.55,-470 193.55,-466.5 183.55,-463 183.55,-470"/>
</a>
</g>
</g>
<!-- Node16 -->
<g id="Node000016" class="node">
<title>Node16</title>
<g id="a_Node000016"><a xlink:href="classBlobTransitionManager.html#a0368480b181fcb29158d53c685bcd9e9" target="_top" xlink:title="Emitted when the inactivity counter exceeds a threshold, indicating that window movement has stopped.">
<polygon fill="white" stroke="#666666" points="325.25,-434 210.25,-434 210.25,-405 325.25,-405 325.25,-434"/>
<text text-anchor="start" x="218.25" y="-420.5" font-family="Helvetica,sans-Serif" font-size="10.00">BlobTransitionManager</text>
<text text-anchor="middle" x="267.75" y="-410" font-family="Helvetica,sans-Serif" font-size="10.00">::movementStopped</text>
</a>
</g>
</g>
<!-- Node1&#45;&gt;Node16 -->
<g id="edge17_Node000001_Node000016" class="edge">
<title>Node1&#45;&gt;Node16</title>
<g id="a_edge17_Node000001_Node000016"><a xlink:title=" ">
<path fill="none" stroke="#63b8ff" d="M114.73,-456.76C139.04,-450.8 170.78,-443.02 198.97,-436.11"/>
<polygon fill="#63b8ff" stroke="#63b8ff" points="199.63,-439.56 208.51,-433.78 197.96,-432.76 199.63,-439.56"/>
</a>
</g>
</g>
<!-- Node17 -->
<g id="Node000017" class="node">
<title>Node17</title>
<g id="a_Node000017"><a xlink:href="classBlobAnimation.html#aa14ab827c77e7ca4e2869e5141ce27ea" target="_top" xlink:title="Slot connected to state_reset_timer_. Called after a period of inactivity in Moving or Resizing state...">
<polygon fill="white" stroke="#666666" points="541.88,-436 397.62,-436 397.62,-407 541.88,-407 541.88,-436"/>
<text text-anchor="start" x="405.62" y="-422.5" font-family="Helvetica,sans-Serif" font-size="10.00">BlobAnimation::onStateReset</text>
<text text-anchor="middle" x="469.75" y="-412" font-family="Helvetica,sans-Serif" font-size="10.00">Timeout</text>
</a>
</g>
</g>
<!-- Node1&#45;&gt;Node17 -->
<g id="edge18_Node000001_Node000017" class="edge">
<title>Node1&#45;&gt;Node17</title>
<g id="a_edge18_Node000001_Node000017"><a xlink:title=" ">
<path fill="none" stroke="#63b8ff" d="M85.4,-456.83C103.66,-440.58 143.43,-408.41 184,-396.5 259.49,-374.35 350.68,-389.22 409.18,-403.75"/>
<polygon fill="#63b8ff" stroke="#63b8ff" points="408.05,-407.08 418.6,-406.17 409.79,-400.3 408.05,-407.08"/>
</a>
</g>
</g>
<!-- Node18 -->
<g id="Node000018" class="node">
<title>Node18</title>
<g id="a_Node000018"><a xlink:href="classBlobAnimation.html#aa73097d69b36c02d99a41b8ab782b012" target="_top" xlink:title="The main function executed by the physics simulation thread. Enters a loop that repeatedly calls upda...">
<polygon fill="white" stroke="#666666" points="342.5,-348 193,-348 193,-319 342.5,-319 342.5,-348"/>
<text text-anchor="start" x="201" y="-334.5" font-family="Helvetica,sans-Serif" font-size="10.00">BlobAnimation::PhysicsThread</text>
<text text-anchor="middle" x="267.75" y="-324" font-family="Helvetica,sans-Serif" font-size="10.00">Function</text>
</a>
</g>
</g>
<!-- Node1&#45;&gt;Node18 -->
<g id="edge20_Node000001_Node000018" class="edge">
<title>Node1&#45;&gt;Node18</title>
<g id="a_edge20_Node000001_Node000018"><a xlink:title=" ">
<path fill="none" stroke="#63b8ff" d="M82.7,-456.76C99.2,-436.49 140.06,-389.41 184,-362.5 189.96,-358.85 196.45,-355.57 203.08,-352.66"/>
<polygon fill="#63b8ff" stroke="#63b8ff" points="204.24,-355.97 212.17,-348.94 201.59,-349.49 204.24,-355.97"/>
</a>
</g>
</g>
<!-- Node24 -->
<g id="Node000024" class="node">
<title>Node24</title>
<g id="a_Node000024"><a xlink:href="classBlobEventHandler.html#adee9e347de86d1914b6671935d9bd758" target="_top" xlink:title="Emitted during a resize event to request a specific &quot;resizing&quot; state in the Blob animation.">
<polygon fill="white" stroke="#666666" points="330.5,-301 205,-301 205,-272 330.5,-272 330.5,-301"/>
<text text-anchor="start" x="213" y="-287.5" font-family="Helvetica,sans-Serif" font-size="10.00">BlobEventHandler::resize</text>
<text text-anchor="middle" x="267.75" y="-277" font-family="Helvetica,sans-Serif" font-size="10.00">StateRequested</text>
</a>
</g>
</g>
<!-- Node1&#45;&gt;Node24 -->
<g id="edge25_Node000001_Node000024" class="edge">
<title>Node1&#45;&gt;Node24</title>
<g id="a_edge25_Node000001_Node000024"><a xlink:title=" ">
<path fill="none" stroke="#63b8ff" d="M78.83,-457.11C90.38,-429.99 127.6,-350.9 184,-310.5 187.36,-308.09 190.96,-305.93 194.7,-303.98"/>
<polygon fill="#63b8ff" stroke="#63b8ff" points="195.89,-307.28 203.53,-299.93 192.98,-300.92 195.89,-307.28"/>
</a>
</g>
</g>
<!-- Node25 -->
<g id="Node000025" class="node">
<title>Node25</title>
<g id="a_Node000025"><a xlink:href="classBlobTransitionManager.html#a106ed377c5900517cd28d562734277fe" target="_top" xlink:title="Emitted when the calculated velocity exceeds a threshold, indicating significant window movement.">
<polygon fill="white" stroke="#666666" points="343.25,-254 192.25,-254 192.25,-225 343.25,-225 343.25,-254"/>
<text text-anchor="start" x="200.25" y="-240.5" font-family="Helvetica,sans-Serif" font-size="10.00">BlobTransitionManager</text>
<text text-anchor="middle" x="267.75" y="-230" font-family="Helvetica,sans-Serif" font-size="10.00">::significantMovementDetected</text>
</a>
</g>
</g>
<!-- Node1&#45;&gt;Node25 -->
<g id="edge26_Node000001_Node000025" class="edge">
<title>Node1&#45;&gt;Node25</title>
<g id="a_edge26_Node000001_Node000025"><a xlink:title=" ">
<path fill="none" stroke="#63b8ff" d="M77.23,-457.16C85.41,-425 116.82,-317.84 184,-263.5 185.48,-262.3 187.02,-261.17 188.6,-260.09"/>
<polygon fill="#63b8ff" stroke="#63b8ff" points="189.97,-263.34 196.83,-255.26 186.43,-257.3 189.97,-263.34"/>
</a>
</g>
</g>
<!-- Node26 -->
<g id="Node000026" class="node">
<title>Node26</title>
<g id="a_Node000026"><a xlink:href="classBlobEventHandler.html#a608f7c9b14093c8e0a02be39d780af3d" target="_top" xlink:title="Emitted when a significant resize event is detected after throttling.">
<polygon fill="white" stroke="#666666" points="339.88,-207 195.62,-207 195.62,-178 339.88,-178 339.88,-207"/>
<text text-anchor="start" x="203.62" y="-193.5" font-family="Helvetica,sans-Serif" font-size="10.00">BlobEventHandler::significant</text>
<text text-anchor="middle" x="267.75" y="-183" font-family="Helvetica,sans-Serif" font-size="10.00">ResizeDetected</text>
</a>
</g>
</g>
<!-- Node1&#45;&gt;Node26 -->
<g id="edge27_Node000001_Node000026" class="edge">
<title>Node1&#45;&gt;Node26</title>
<g id="a_edge27_Node000001_Node000026"><a xlink:title=" ">
<path fill="none" stroke="#63b8ff" d="M76.25,-456.89C81.6,-419.86 105.93,-285.11 184,-216.5 185.26,-215.39 186.58,-214.33 187.93,-213.32"/>
<polygon fill="#63b8ff" stroke="#63b8ff" points="189.54,-216.44 196.13,-208.14 185.81,-210.52 189.54,-216.44"/>
</a>
</g>
</g>
<!-- Node27 -->
<g id="Node000027" class="node">
<title>Node27</title>
<g id="a_Node000027"><a xlink:href="classBlobEventHandler.html#aad7907b15e659d39275aa21d97a0665c" target="_top" xlink:title="Emitted after a resize event to request resetting any temporary state timers.">
<polygon fill="white" stroke="#666666" points="341.38,-160 194.12,-160 194.12,-131 341.38,-131 341.38,-160"/>
<text text-anchor="start" x="202.12" y="-146.5" font-family="Helvetica,sans-Serif" font-size="10.00">BlobEventHandler::stateReset</text>
<text text-anchor="middle" x="267.75" y="-136" font-family="Helvetica,sans-Serif" font-size="10.00">TimerRequested</text>
</a>
</g>
</g>
<!-- Node1&#45;&gt;Node27 -->
<g id="edge28_Node000001_Node000027" class="edge">
<title>Node1&#45;&gt;Node27</title>
<g id="a_edge28_Node000001_Node000027"><a xlink:title=" ">
<path fill="none" stroke="#63b8ff" d="M75.52,-456.86C78.27,-415.67 94.64,-252.86 184,-169.5 185.08,-168.5 186.19,-167.53 187.34,-166.61"/>
<polygon fill="#63b8ff" stroke="#63b8ff" points="189.16,-169.61 195.52,-161.13 185.26,-163.79 189.16,-169.61"/>
</a>
</g>
</g>
<!-- Node28 -->
<g id="Node000028" class="node">
<title>Node28</title>
<g id="a_Node000028"><a xlink:href="classBlobTransitionManager.html#ace325f2fb00583ebeb4ab4993f018df1" target="_top" xlink:title="Emitted when a transition (e.g., to idle state) completes.">
<polygon fill="white" stroke="#666666" points="325.25,-113 210.25,-113 210.25,-84 325.25,-84 325.25,-113"/>
<text text-anchor="start" x="218.25" y="-99.5" font-family="Helvetica,sans-Serif" font-size="10.00">BlobTransitionManager</text>
<text text-anchor="middle" x="267.75" y="-89" font-family="Helvetica,sans-Serif" font-size="10.00">::transitionCompleted</text>
</a>
</g>
</g>
<!-- Node1&#45;&gt;Node28 -->
<g id="edge30_Node000001_Node000028" class="edge">
<title>Node1&#45;&gt;Node28</title>
<g id="a_edge30_Node000001_Node000028"><a xlink:title=" ">
<path fill="none" stroke="#63b8ff" d="M74.97,-456.92C75.37,-412.07 83.11,-220.94 184,-122.5 188.48,-118.13 193.71,-114.54 199.33,-111.6"/>
<polygon fill="#63b8ff" stroke="#63b8ff" points="200.65,-114.84 208.38,-107.6 197.82,-108.44 200.65,-114.84"/>
</a>
</g>
</g>
<!-- Node29 -->
<g id="Node000029" class="node">
<title>Node29</title>
<g id="a_Node000029"><a xlink:href="classBlobAnimation.html#a09f6a9ff089a61d4ddb808e3caf388e2" target="_top" xlink:title="Slot connected to animation_timer_. Called periodically (~60 FPS) to update the animation state....">
<polygon fill="white" stroke="#666666" points="346.62,-65.75 188.88,-65.75 188.88,-47.25 346.62,-47.25 346.62,-65.75"/>
<text text-anchor="middle" x="267.75" y="-52.25" font-family="Helvetica,sans-Serif" font-size="10.00">BlobAnimation::updateAnimation</text>
</a>
</g>
</g>
<!-- Node1&#45;&gt;Node29 -->
<g id="edge31_Node000001_Node000029" class="edge">
<title>Node1&#45;&gt;Node29</title>
<g id="a_edge31_Node000001_Node000029"><a xlink:title=" ">
<path fill="none" stroke="#63b8ff" d="M76.33,-456.95C84.11,-402.48 125.39,-131.47 184,-75.5 185.23,-74.32 186.52,-73.21 187.86,-72.17"/>
<polygon fill="#63b8ff" stroke="#63b8ff" points="189.5,-75.28 196.07,-66.97 185.75,-69.36 189.5,-75.28"/>
</a>
</g>
</g>
<!-- Node31 -->
<g id="Node000031" class="node">
<title>Node31</title>
<g id="a_Node000031"><a xlink:href="classBlobEventHandler.html#ac63c9e11e620e4d19e4e2ca2b264087b" target="_top" xlink:title="Emitted when a significant window move event is detected after throttling.">
<polygon fill="white" stroke="#666666" points="334.25,-29 201.25,-29 201.25,0 334.25,0 334.25,-29"/>
<text text-anchor="start" x="209.25" y="-15.5" font-family="Helvetica,sans-Serif" font-size="10.00">BlobEventHandler::window</text>
<text text-anchor="middle" x="267.75" y="-5" font-family="Helvetica,sans-Serif" font-size="10.00">Moved</text>
</a>
</g>
</g>
<!-- Node1&#45;&gt;Node31 -->
<g id="edge33_Node000001_Node000031" class="edge">
<title>Node1&#45;&gt;Node31</title>
<g id="a_edge33_Node000001_Node000031"><a xlink:title=" ">
<path fill="none" stroke="#63b8ff" d="M76.15,-456.87C83.22,-399.42 122.42,-102.15 184,-38.5 186.29,-36.13 188.8,-33.99 191.48,-32.06"/>
<polygon fill="#63b8ff" stroke="#63b8ff" points="193.05,-35.2 199.82,-27.05 189.45,-29.2 193.05,-35.2"/>
</a>
</g>
</g>
<!-- Node9 -->
<g id="Node000009" class="node">
<title>Node9</title>
<g id="a_Node000009"><a xlink:href="classWavelengthConfig.html#a85e6819278b90f10a1afe5e91ce05cbe" target="_top" xlink:title="Deleted copy constructor.">
<polygon fill="white" stroke="#666666" points="545.25,-651 394.25,-651 394.25,-622 545.25,-622 545.25,-651"/>
<text text-anchor="start" x="402.25" y="-637.5" font-family="Helvetica,sans-Serif" font-size="10.00">WavelengthConfig::Wavelength</text>
<text text-anchor="middle" x="469.75" y="-627" font-family="Helvetica,sans-Serif" font-size="10.00">Config</text>
</a>
</g>
</g>
<!-- Node8&#45;&gt;Node9 -->
<g id="edge8_Node000008_Node000009" class="edge">
<title>Node8&#45;&gt;Node9</title>
<g id="a_edge8_Node000008_Node000009"><a xlink:title=" ">
<path fill="none" stroke="#63b8ff" d="M345.22,-634.03C357.46,-634.27 370.2,-634.53 382.65,-634.78"/>
<polygon fill="#63b8ff" stroke="#63b8ff" points="382.39,-638.27 392.46,-634.97 382.53,-631.27 382.39,-638.27"/>
</a>
</g>
</g>
<!-- Node9&#45;&gt;Node9 -->
<g id="edge9_Node000009_Node000009" class="edge">
<title>Node9&#45;&gt;Node9</title>
<g id="a_edge9_Node000009_Node000009"><a xlink:title=" ">
<path fill="none" stroke="#63b8ff" d="M435.33,-651.21C427.03,-660.32 438.5,-669 469.75,-669 486.84,-669 498.01,-666.41 503.27,-662.56"/>
<polygon fill="#63b8ff" stroke="#63b8ff" points="506.75,-662.96 504.05,-652.72 499.77,-662.41 506.75,-662.96"/>
</a>
</g>
</g>
<!-- Node11 -->
<g id="Node000011" class="node">
<title>Node11</title>
<g id="a_Node000011"><a xlink:href="classBlobAnimation.html#a883189070c4bbe6054d084c4d4184c0a" target="_top" xlink:title="Resets the blob&#39;s position to the center of the widget and regenerates its shape. Clears velocities a...">
<polygon fill="white" stroke="#666666" points="534.75,-567 404.75,-567 404.75,-538 534.75,-538 534.75,-567"/>
<text text-anchor="start" x="412.75" y="-553.5" font-family="Helvetica,sans-Serif" font-size="10.00">BlobAnimation::ResetBlob</text>
<text text-anchor="middle" x="469.75" y="-543" font-family="Helvetica,sans-Serif" font-size="10.00">ToCenter</text>
</a>
</g>
</g>
<!-- Node10&#45;&gt;Node11 -->
<g id="edge11_Node000010_Node000011" class="edge">
<title>Node10&#45;&gt;Node11</title>
<g id="a_edge11_Node000010_Node000011"><a xlink:title=" ">
<path fill="none" stroke="#63b8ff" d="M340.67,-552.5C357.76,-552.5 376.04,-552.5 393.28,-552.5"/>
<polygon fill="#63b8ff" stroke="#63b8ff" points="392.92,-556 402.92,-552.5 392.92,-549 392.92,-556"/>
</a>
</g>
</g>
<!-- Node12 -->
<g id="Node000012" class="node">
<title>Node12</title>
<g id="a_Node000012"><a xlink:href="classBlobAnimation.html#a152a62b2db9d731d14939708a4a8496a" target="_top" xlink:title="Generates a set of points forming an organic, blob&#45;like shape around a center point....">
<polygon fill="white" stroke="#666666" points="746.5,-588 588,-588 588,-559 746.5,-559 746.5,-588"/>
<text text-anchor="start" x="596" y="-574.5" font-family="Helvetica,sans-Serif" font-size="10.00">BlobAnimation::GenerateOrganic</text>
<text text-anchor="middle" x="667.25" y="-564" font-family="Helvetica,sans-Serif" font-size="10.00">Shape</text>
</a>
</g>
</g>
<!-- Node11&#45;&gt;Node12 -->
<g id="edge12_Node000011_Node000012" class="edge">
<title>Node11&#45;&gt;Node12</title>
<g id="a_edge12_Node000011_Node000012"><a xlink:title=" ">
<path fill="none" stroke="#63b8ff" d="M535.03,-559.41C548.29,-560.83 562.49,-562.35 576.47,-563.86"/>
<polygon fill="#63b8ff" stroke="#63b8ff" points="575.78,-567.3 586.1,-564.89 576.53,-560.34 575.78,-567.3"/>
</a>
</g>
</g>
<!-- Node11&#45;&gt;Node13 -->
<g id="edge13_Node000011_Node000013" class="edge">
<title>Node11&#45;&gt;Node13</title>
<g id="a_edge13_Node000011_Node000013"><a xlink:title=" ">
<path fill="none" stroke="#63b8ff" d="M535.03,-538.36C559.52,-532.98 587.19,-526.89 610.79,-521.7"/>
<polygon fill="#63b8ff" stroke="#63b8ff" points="611.52,-525.12 620.53,-519.56 610.01,-518.29 611.52,-525.12"/>
</a>
</g>
</g>
<!-- Node14&#45;&gt;Node12 -->
<g id="edge15_Node000014_Node000012" class="edge">
<title>Node14&#45;&gt;Node12</title>
<g id="a_edge15_Node000014_Node000012"><a xlink:title=" ">
<path fill="none" stroke="#63b8ff" d="M539.95,-587.07C551.81,-585.79 564.28,-584.45 576.58,-583.13"/>
<polygon fill="#63b8ff" stroke="#63b8ff" points="576.73,-586.64 586.3,-582.09 575.99,-579.68 576.73,-586.64"/>
</a>
</g>
</g>
<!-- Node17&#45;&gt;Node13 -->
<g id="edge19_Node000017_Node000013" class="edge">
<title>Node17&#45;&gt;Node13</title>
<g id="a_edge19_Node000017_Node000013"><a xlink:title=" ">
<path fill="none" stroke="#63b8ff" d="M503.91,-436.43C540.34,-452.83 598.44,-478.98 634.35,-495.14"/>
<polygon fill="#63b8ff" stroke="#63b8ff" points="632.81,-498.28 643.36,-499.2 635.68,-491.9 632.81,-498.28"/>
</a>
</g>
</g>
<!-- Node19 -->
<g id="Node000019" class="node">
<title>Node19</title>
<g id="a_Node000019"><a xlink:href="classBlobAnimation.html#a41f88c30a6e349bb0a08b0f37db151e3" target="_top" xlink:title="Slot (or helper called by physics thread) to update the blob&#39;s physics simulation....">
<polygon fill="white" stroke="#666666" points="544.12,-342.75 395.38,-342.75 395.38,-324.25 544.12,-324.25 544.12,-342.75"/>
<text text-anchor="middle" x="469.75" y="-329.25" font-family="Helvetica,sans-Serif" font-size="10.00">BlobAnimation::updatePhysics</text>
</a>
</g>
</g>
<!-- Node18&#45;&gt;Node19 -->
<g id="edge21_Node000018_Node000019" class="edge">
<title>Node18&#45;&gt;Node19</title>
<g id="a_edge21_Node000018_Node000019"><a xlink:title=" ">
<path fill="none" stroke="#63b8ff" d="M342.94,-333.5C356.23,-333.5 370.17,-333.5 383.73,-333.5"/>
<polygon fill="#63b8ff" stroke="#63b8ff" points="383.5,-337 393.5,-333.5 383.5,-330 383.5,-337"/>
</a>
</g>
</g>
<!-- Node20 -->
<g id="Node000020" class="node">
<title>Node20</title>
<g id="a_Node000020"><a xlink:href="classBlobPhysics.html#aad5dc54cd1600108772e45e8ed43af40" target="_top" xlink:title="Enforces minimum and maximum distance constraints between neighboring control points....">
<polygon fill="#fff0f0" stroke="red" points="745.75,-306 588.75,-306 588.75,-277 745.75,-277 745.75,-306"/>
<text text-anchor="start" x="596.75" y="-292.5" font-family="Helvetica,sans-Serif" font-size="10.00">BlobPhysics::ConstrainNeighbor</text>
<text text-anchor="middle" x="667.25" y="-282" font-family="Helvetica,sans-Serif" font-size="10.00">Distances</text>
</a>
</g>
</g>
<!-- Node19&#45;&gt;Node20 -->
<g id="edge22_Node000019_Node000020" class="edge">
<title>Node19&#45;&gt;Node20</title>
<g id="a_edge22_Node000019_Node000020"><a xlink:title=" ">
<path fill="none" stroke="#63b8ff" d="M516.09,-323.76C536.74,-319.32 561.81,-313.94 585.5,-308.85"/>
<polygon fill="#63b8ff" stroke="#63b8ff" points="586.11,-312.3 595.16,-306.77 584.64,-305.45 586.11,-312.3"/>
</a>
</g>
</g>
<!-- Node22 -->
<g id="Node000022" class="node">
<title>Node22</title>
<g id="a_Node000022"><a xlink:href="classBlobPhysics.html#ab10ff17b667674fbdc49c61ae65cef92" target="_top" xlink:title="Handles collisions between blob control points and the widget borders. Adjusts positions and reverses...">
<polygon fill="white" stroke="#666666" points="734.88,-390 599.62,-390 599.62,-361 734.88,-361 734.88,-390"/>
<text text-anchor="start" x="607.62" y="-376.5" font-family="Helvetica,sans-Serif" font-size="10.00">BlobPhysics::HandleBorder</text>
<text text-anchor="middle" x="667.25" y="-366" font-family="Helvetica,sans-Serif" font-size="10.00">Collisions</text>
</a>
</g>
</g>
<!-- Node19&#45;&gt;Node22 -->
<g id="edge23_Node000019_Node000022" class="edge">
<title>Node19&#45;&gt;Node22</title>
<g id="a_edge23_Node000019_Node000022"><a xlink:title=" ">
<path fill="none" stroke="#63b8ff" d="M516.09,-343.24C537.51,-347.84 563.7,-353.47 588.18,-358.73"/>
<polygon fill="#63b8ff" stroke="#63b8ff" points="587.29,-362.12 597.8,-360.79 588.76,-355.27 587.29,-362.12"/>
</a>
</g>
</g>
<!-- Node23 -->
<g id="Node000023" class="node">
<title>Node23</title>
<g id="a_Node000023"><a xlink:href="classBlobPhysics.html#aaa1ea680c71270e1150272e9483cfff2" target="_top" xlink:title="Applies a smoothing filter to the blob&#39;s shape. Moves each control point slightly towards the average...">
<polygon fill="white" stroke="#666666" points="745.75,-342.75 588.75,-342.75 588.75,-324.25 745.75,-324.25 745.75,-342.75"/>
<text text-anchor="middle" x="667.25" y="-329.25" font-family="Helvetica,sans-Serif" font-size="10.00">BlobPhysics::SmoothBlobShape</text>
</a>
</g>
</g>
<!-- Node19&#45;&gt;Node23 -->
<g id="edge24_Node000019_Node000023" class="edge">
<title>Node19&#45;&gt;Node23</title>
<g id="a_edge24_Node000019_Node000023"><a xlink:title=" ">
<path fill="none" stroke="#63b8ff" d="M544.38,-333.5C555.07,-333.5 566.16,-333.5 577.11,-333.5"/>
<polygon fill="#63b8ff" stroke="#63b8ff" points="576.93,-337 586.93,-333.5 576.93,-330 576.93,-337"/>
</a>
</g>
</g>
<!-- Node30 -->
<g id="Node000030" class="node">
<title>Node30</title>
<g id="a_Node000030"><a xlink:href="classBlobAnimation.html#a81dce6351b80274f5d16cf564025e2c4" target="_top" xlink:title="Slot (or helper called by updateAnimation) to process the window movement buffer via BlobTransitionMa...">
<polygon fill="white" stroke="#666666" points="552,-71 387.5,-71 387.5,-42 552,-42 552,-71"/>
<text text-anchor="start" x="395.5" y="-57.5" font-family="Helvetica,sans-Serif" font-size="10.00">BlobAnimation::processMovement</text>
<text text-anchor="middle" x="469.75" y="-47" font-family="Helvetica,sans-Serif" font-size="10.00">Buffer</text>
</a>
</g>
</g>
<!-- Node29&#45;&gt;Node30 -->
<g id="edge32_Node000029_Node000030" class="edge">
<title>Node29&#45;&gt;Node30</title>
<g id="a_edge32_Node000029_Node000030"><a xlink:title=" ">
<path fill="none" stroke="#63b8ff" d="M346.93,-56.5C356.46,-56.5 366.27,-56.5 375.98,-56.5"/>
<polygon fill="#63b8ff" stroke="#63b8ff" points="375.81,-60 385.81,-56.5 375.81,-53 375.81,-60"/>
</a>
</g>
</g>
</g>
</svg>
