<?xml version="1.0" encoding="UTF-8" standalone="no"?>
<!DOCTYPE svg PUBLIC "-//W3C//DTD SVG 1.1//EN"
 "http://www.w3.org/Graphics/SVG/1.1/DTD/svg11.dtd">
<!-- Generated by graphviz version 12.2.1 (0)
 -->
<!-- Title: StreamMessage::UpdateContent Pages: 1 -->
<svg width="556pt" height="87pt"
 viewBox="0.00 0.00 556.25 86.50" xmlns="http://www.w3.org/2000/svg" xmlns:xlink="http://www.w3.org/1999/xlink">
<g id="graph0" class="graph" transform="scale(1 1) rotate(0) translate(4 82.5)">
<title>StreamMessage::UpdateContent</title>
<!-- Node1 -->
<g id="Node000001" class="node">
<title>Node1</title>
<g id="a_Node000001"><a xlink:title="Updates the content of an existing message, typically used for progress updates. Cleans the new conte...">
<polygon fill="#999999" stroke="#666666" points="159.25,-39.5 0,-39.5 0,-21 159.25,-21 159.25,-39.5"/>
<text text-anchor="middle" x="79.62" y="-26" font-family="Helvetica,sans-Serif" font-size="10.00">StreamMessage::UpdateContent</text>
</a>
</g>
</g>
<!-- Node2 -->
<g id="Node000002" class="node">
<title>Node2</title>
<g id="a_Node000002"><a xlink:href="classStreamMessage.html#a1a3ebf623b6477e510efeab5af62f390" target="_top" xlink:title="Adjusts the size of the message widget to fit its content, especially after an attachment has loaded....">
<polygon fill="white" stroke="#666666" points="347,-65.75 207.25,-65.75 207.25,-36.75 347,-36.75 347,-65.75"/>
<text text-anchor="start" x="215.25" y="-52.25" font-family="Helvetica,sans-Serif" font-size="10.00">StreamMessage::AdjustSize</text>
<text text-anchor="middle" x="277.12" y="-41.75" font-family="Helvetica,sans-Serif" font-size="10.00">ToContent</text>
</a>
</g>
</g>
<!-- Node1&#45;&gt;Node2 -->
<g id="edge1_Node000001_Node000002" class="edge">
<title>Node1&#45;&gt;Node2</title>
<g id="a_edge1_Node000001_Node000002"><a xlink:title=" ">
<path fill="none" stroke="#63b8ff" d="M159.58,-38.73C171.46,-40.01 183.74,-41.33 195.65,-42.61"/>
<polygon fill="#63b8ff" stroke="#63b8ff" points="195.12,-46.07 205.44,-43.66 195.87,-39.11 195.12,-46.07"/>
</a>
</g>
</g>
<!-- Node5 -->
<g id="Node000005" class="node">
<title>Node5</title>
<g id="a_Node000005"><a xlink:href="classStreamMessage.html#a59f8dedec8dffa79dad2b202ddd8dbf6" target="_top" xlink:title="Cleans the message content by removing HTML tags and placeholders, and decoding HTML entities....">
<polygon fill="white" stroke="#666666" points="359,-18.5 195.25,-18.5 195.25,0 359,0 359,-18.5"/>
<text text-anchor="middle" x="277.12" y="-5" font-family="Helvetica,sans-Serif" font-size="10.00">StreamMessage::CleanupContent</text>
</a>
</g>
</g>
<!-- Node1&#45;&gt;Node5 -->
<g id="edge4_Node000001_Node000005" class="edge">
<title>Node1&#45;&gt;Node5</title>
<g id="a_edge4_Node000001_Node000005"><a xlink:title=" ">
<path fill="none" stroke="#63b8ff" d="M159.58,-21.77C167.5,-20.92 175.6,-20.05 183.64,-19.18"/>
<polygon fill="#63b8ff" stroke="#63b8ff" points="183.89,-22.68 193.46,-18.13 183.14,-15.72 183.89,-22.68"/>
</a>
</g>
</g>
<!-- Node3 -->
<g id="Node000003" class="node">
<title>Node3</title>
<g id="a_Node000003"><a xlink:href="classAttachmentViewer.html#a8e9e8d50bde441b62f513f5f4d6100c9" target="_top" xlink:title="Returns the recommended size for the viewer based on its content and layout. Calculates the size need...">
<polygon fill="white" stroke="#666666" points="540,-78.5 403.25,-78.5 403.25,-60 540,-60 540,-78.5"/>
<text text-anchor="middle" x="471.62" y="-65" font-family="Helvetica,sans-Serif" font-size="10.00">AttachmentViewer::sizeHint</text>
</a>
</g>
</g>
<!-- Node2&#45;&gt;Node3 -->
<g id="edge2_Node000002_Node000003" class="edge">
<title>Node2&#45;&gt;Node3</title>
<g id="a_edge2_Node000002_Node000003"><a xlink:title=" ">
<path fill="none" stroke="#63b8ff" d="M347.35,-57.72C361.78,-59.07 377.09,-60.5 391.84,-61.88"/>
<polygon fill="#63b8ff" stroke="#63b8ff" points="391.19,-65.34 401.47,-62.78 391.84,-58.37 391.19,-65.34"/>
</a>
</g>
</g>
<!-- Node4 -->
<g id="Node000004" class="node">
<title>Node4</title>
<g id="a_Node000004"><a xlink:href="classStreamMessage.html#a520ebf30923492083e94819640a79323" target="_top" xlink:title="Updates the position of the navigation and mark read buttons based on the widget&#39;s current size.">
<polygon fill="white" stroke="#666666" points="548.25,-41.5 395,-41.5 395,-23 548.25,-23 548.25,-41.5"/>
<text text-anchor="middle" x="471.62" y="-28" font-family="Helvetica,sans-Serif" font-size="10.00">StreamMessage::UpdateLayout</text>
</a>
</g>
</g>
<!-- Node2&#45;&gt;Node4 -->
<g id="edge3_Node000002_Node000004" class="edge">
<title>Node2&#45;&gt;Node4</title>
<g id="a_edge3_Node000002_Node000004"><a xlink:title=" ">
<path fill="none" stroke="#63b8ff" d="M347.35,-44.42C358.95,-43.27 371.12,-42.07 383.1,-40.89"/>
<polygon fill="#63b8ff" stroke="#63b8ff" points="383.4,-44.38 393.01,-39.91 382.72,-37.41 383.4,-44.38"/>
</a>
</g>
</g>
</g>
</svg>
