<?xml version="1.0" encoding="UTF-8" standalone="no"?>
<!DOCTYPE svg PUBLIC "-//W3C//DTD SVG 1.1//EN"
 "http://www.w3.org/Graphics/SVG/1.1/DTD/svg11.dtd">
<!-- Generated by graphviz version 12.2.1 (0)
 -->
<!-- Title: VideoPlayer::UpdateUI Pages: 1 -->
<svg width="300pt" height="74pt"
 viewBox="0.00 0.00 300.25 73.75" xmlns="http://www.w3.org/2000/svg" xmlns:xlink="http://www.w3.org/1999/xlink">
<g id="graph0" class="graph" transform="scale(1 1) rotate(0) translate(4 69.75)">
<title>VideoPlayer::UpdateUI</title>
<!-- Node1 -->
<g id="Node000001" class="node">
<title>Node1</title>
<g id="a_Node000001"><a xlink:title="Slot called periodically by update_timer_. Updates UI elements like pulsing effects (scanline/grid op...">
<polygon fill="#999999" stroke="#666666" points="115.75,-44.75 0,-44.75 0,-26.25 115.75,-26.25 115.75,-44.75"/>
<text text-anchor="middle" x="57.88" y="-31.25" font-family="Helvetica,sans-Serif" font-size="10.00">VideoPlayer::UpdateUI</text>
</a>
</g>
</g>
<!-- Node2 -->
<g id="Node000002" class="node">
<title>Node2</title>
<g id="a_Node000002"><a xlink:href="classVideoPlayer.html#abf2b63d3ad93ffedd3615966e52b6aa0" target="_top" xlink:title="Sets the opacity for the background grid effect. Triggers an update() to repaint the widget.">
<polygon fill="white" stroke="#666666" points="292.25,-65.75 151.75,-65.75 151.75,-47.25 292.25,-47.25 292.25,-65.75"/>
<text text-anchor="middle" x="222" y="-52.25" font-family="Helvetica,sans-Serif" font-size="10.00">VideoPlayer::SetGridOpacity</text>
</a>
</g>
</g>
<!-- Node1&#45;&gt;Node2 -->
<g id="edge1_Node000001_Node000002" class="edge">
<title>Node1&#45;&gt;Node2</title>
<g id="a_edge1_Node000001_Node000002"><a xlink:title=" ">
<path fill="none" stroke="#63b8ff" d="M116.03,-42.9C123.78,-43.91 131.84,-44.95 139.91,-46"/>
<polygon fill="#63b8ff" stroke="#63b8ff" points="139.41,-49.46 149.78,-47.27 140.31,-42.52 139.41,-49.46"/>
</a>
</g>
</g>
<!-- Node3 -->
<g id="Node000003" class="node">
<title>Node3</title>
<g id="a_Node000003"><a xlink:href="classVideoPlayer.html#a1e79879c54531c1947e52ba04cc67491" target="_top" xlink:title="Sets the opacity for the scanline effect. Triggers an update() to repaint the widget.">
<polygon fill="white" stroke="#666666" points="285.12,-29 158.88,-29 158.88,0 285.12,0 285.12,-29"/>
<text text-anchor="start" x="166.88" y="-15.5" font-family="Helvetica,sans-Serif" font-size="10.00">VideoPlayer::SetScanline</text>
<text text-anchor="middle" x="222" y="-5" font-family="Helvetica,sans-Serif" font-size="10.00">Opacity</text>
</a>
</g>
</g>
<!-- Node1&#45;&gt;Node3 -->
<g id="edge2_Node000001_Node000003" class="edge">
<title>Node1&#45;&gt;Node3</title>
<g id="a_edge2_Node000001_Node000003"><a xlink:title=" ">
<path fill="none" stroke="#63b8ff" d="M116.03,-28.1C126.14,-26.79 136.8,-25.41 147.29,-24.05"/>
<polygon fill="#63b8ff" stroke="#63b8ff" points="147.6,-27.54 157.07,-22.78 146.7,-20.59 147.6,-27.54"/>
</a>
</g>
</g>
</g>
</svg>
