<?xml version="1.0" encoding="UTF-8" standalone="no"?>
<!DOCTYPE svg PUBLIC "-//W3C//DTD SVG 1.1//EN"
 "http://www.w3.org/Graphics/SVG/1.1/DTD/svg11.dtd">
<!-- Generated by graphviz version 12.2.1 (0)
 -->
<!-- Title: AppInstanceManager::AppInstanceManager Pages: 1 -->
<svg width="430pt" height="84pt"
 viewBox="0.00 0.00 430.25 84.00" xmlns="http://www.w3.org/2000/svg" xmlns:xlink="http://www.w3.org/1999/xlink">
<g id="graph0" class="graph" transform="scale(1 1) rotate(0) translate(4 80)">
<title>AppInstanceManager::AppInstanceManager</title>
<!-- Node1 -->
<g id="Node000001" class="node">
<title>Node1</title>
<g id="a_Node000001"><a xlink:title="Constructs an AppInstanceManager.">
<polygon fill="#999999" stroke="#666666" points="114.25,-52 0,-52 0,-23 114.25,-23 114.25,-52"/>
<text text-anchor="start" x="8" y="-38.5" font-family="Helvetica,sans-Serif" font-size="10.00">AppInstanceManager</text>
<text text-anchor="middle" x="57.12" y="-28" font-family="Helvetica,sans-Serif" font-size="10.00">::AppInstanceManager</text>
</a>
</g>
</g>
<!-- Node2 -->
<g id="Node000002" class="node">
<title>Node2</title>
<g id="a_Node000002"><a xlink:href="classAppInstanceManager.html#ae9bddf9404ee3f9fed9e1d367bb603af" target="_top" xlink:title="Slot called periodically by position_timer_ to send the current instance&#39;s position data.">
<polygon fill="white" stroke="#666666" points="260,-52 150.25,-52 150.25,-23 260,-23 260,-52"/>
<text text-anchor="start" x="158.25" y="-38.5" font-family="Helvetica,sans-Serif" font-size="10.00">AppInstanceManager</text>
<text text-anchor="middle" x="205.12" y="-28" font-family="Helvetica,sans-Serif" font-size="10.00">::sendPositionUpdate</text>
</a>
</g>
</g>
<!-- Node1&#45;&gt;Node2 -->
<g id="edge1_Node000001_Node000002" class="edge">
<title>Node1&#45;&gt;Node2</title>
<g id="a_edge1_Node000001_Node000002"><a xlink:title=" ">
<path fill="none" stroke="#63b8ff" d="M114.57,-37.5C122.54,-37.5 130.78,-37.5 138.89,-37.5"/>
<polygon fill="#63b8ff" stroke="#63b8ff" points="138.71,-41 148.71,-37.5 138.71,-34 138.71,-41"/>
</a>
</g>
</g>
<!-- Node3 -->
<g id="Node000003" class="node">
<title>Node3</title>
<g id="a_Node000003"><a xlink:href="classAppInstanceManager.html#a7fcae156e69f8d718d0d3f4189e0158f" target="_top" xlink:title="Creates a QByteArray message containing the current instance&#39;s position data.">
<polygon fill="white" stroke="#666666" points="422.25,-76 296,-76 296,-47 422.25,-47 422.25,-76"/>
<text text-anchor="start" x="304" y="-62.5" font-family="Helvetica,sans-Serif" font-size="10.00">AppInstanceManager</text>
<text text-anchor="middle" x="359.12" y="-52" font-family="Helvetica,sans-Serif" font-size="10.00">::CreatePositionMessage</text>
</a>
</g>
</g>
<!-- Node2&#45;&gt;Node3 -->
<g id="edge2_Node000002_Node000003" class="edge">
<title>Node2&#45;&gt;Node3</title>
<g id="a_edge2_Node000002_Node000003"><a xlink:title=" ">
<path fill="none" stroke="#63b8ff" d="M260.14,-46.03C268.06,-47.28 276.33,-48.59 284.56,-49.88"/>
<polygon fill="#63b8ff" stroke="#63b8ff" points="283.8,-53.31 294.23,-51.41 284.9,-46.39 283.8,-53.31"/>
</a>
</g>
</g>
<!-- Node4 -->
<g id="Node000004" class="node">
<title>Node4</title>
<g id="a_Node000004"><a xlink:href="classAppInstanceManager.html#a85fd688a72994704b714e1bcb0e9549a" target="_top" xlink:title="Sends a message to all connected clients (only applicable for the creator instance).">
<polygon fill="white" stroke="#666666" points="413.25,-29 305,-29 305,0 413.25,0 413.25,-29"/>
<text text-anchor="start" x="313" y="-15.5" font-family="Helvetica,sans-Serif" font-size="10.00">AppInstanceManager</text>
<text text-anchor="middle" x="359.12" y="-5" font-family="Helvetica,sans-Serif" font-size="10.00">::SendToAllClients</text>
</a>
</g>
</g>
<!-- Node2&#45;&gt;Node4 -->
<g id="edge3_Node000002_Node000004" class="edge">
<title>Node2&#45;&gt;Node4</title>
<g id="a_edge3_Node000002_Node000004"><a xlink:title=" ">
<path fill="none" stroke="#63b8ff" d="M260.14,-29.33C270.85,-27.71 282.18,-25.99 293.21,-24.32"/>
<polygon fill="#63b8ff" stroke="#63b8ff" points="293.68,-27.79 303.04,-22.84 292.63,-20.87 293.68,-27.79"/>
</a>
</g>
</g>
</g>
</svg>
