<?xml version="1.0" encoding="UTF-8" standalone="no"?>
<!DOCTYPE svg PUBLIC "-//W3C//DTD SVG 1.1//EN"
 "http://www.w3.org/Graphics/SVG/1.1/DTD/svg11.dtd">
<!-- Generated by graphviz version 12.2.1 (0)
 -->
<!-- Title: BlobAnimation::updatePhysics Pages: 1 -->
<svg width="478pt" height="121pt"
 viewBox="0.00 0.00 477.50 120.75" xmlns="http://www.w3.org/2000/svg" xmlns:xlink="http://www.w3.org/1999/xlink">
<g id="graph0" class="graph" transform="scale(1 1) rotate(0) translate(4 116.75)">
<title>BlobAnimation::updatePhysics</title>
<!-- Node1 -->
<g id="Node000001" class="node">
<title>Node1</title>
<g id="a_Node000001"><a xlink:title="Slot (or helper called by physics thread) to update the blob&#39;s physics simulation....">
<polygon fill="#999999" stroke="#666666" points="148.75,-60.5 0,-60.5 0,-42 148.75,-42 148.75,-60.5"/>
<text text-anchor="middle" x="74.38" y="-47" font-family="Helvetica,sans-Serif" font-size="10.00">BlobAnimation::updatePhysics</text>
</a>
</g>
</g>
<!-- Node2 -->
<g id="Node000002" class="node">
<title>Node2</title>
<g id="a_Node000002"><a xlink:href="classBlobPhysics.html#aad5dc54cd1600108772e45e8ed43af40" target="_top" xlink:title="Enforces minimum and maximum distance constraints between neighboring control points....">
<polygon fill="white" stroke="#666666" points="341.75,-112.75 184.75,-112.75 184.75,-83.75 341.75,-83.75 341.75,-112.75"/>
<text text-anchor="start" x="192.75" y="-99.25" font-family="Helvetica,sans-Serif" font-size="10.00">BlobPhysics::ConstrainNeighbor</text>
<text text-anchor="middle" x="263.25" y="-88.75" font-family="Helvetica,sans-Serif" font-size="10.00">Distances</text>
</a>
</g>
</g>
<!-- Node1&#45;&gt;Node2 -->
<g id="edge1_Node000001_Node000002" class="edge">
<title>Node1&#45;&gt;Node2</title>
<g id="a_edge1_Node000001_Node000002"><a xlink:title=" ">
<path fill="none" stroke="#63b8ff" d="M114.1,-60.99C136.55,-66.63 165.5,-73.92 191.85,-80.55"/>
<polygon fill="#63b8ff" stroke="#63b8ff" points="190.94,-83.92 201.49,-82.97 192.65,-77.14 190.94,-83.92"/>
</a>
</g>
</g>
<!-- Node4 -->
<g id="Node000004" class="node">
<title>Node4</title>
<g id="a_Node000004"><a xlink:href="classBlobPhysics.html#ab10ff17b667674fbdc49c61ae65cef92" target="_top" xlink:title="Handles collisions between blob control points and the widget borders. Adjusts positions and reverses...">
<polygon fill="white" stroke="#666666" points="330.88,-65.75 195.62,-65.75 195.62,-36.75 330.88,-36.75 330.88,-65.75"/>
<text text-anchor="start" x="203.62" y="-52.25" font-family="Helvetica,sans-Serif" font-size="10.00">BlobPhysics::HandleBorder</text>
<text text-anchor="middle" x="263.25" y="-41.75" font-family="Helvetica,sans-Serif" font-size="10.00">Collisions</text>
</a>
</g>
</g>
<!-- Node1&#45;&gt;Node4 -->
<g id="edge3_Node000001_Node000004" class="edge">
<title>Node1&#45;&gt;Node4</title>
<g id="a_edge3_Node000001_Node000004"><a xlink:title=" ">
<path fill="none" stroke="#63b8ff" d="M149.23,-51.25C160.63,-51.25 172.44,-51.25 183.94,-51.25"/>
<polygon fill="#63b8ff" stroke="#63b8ff" points="183.79,-54.75 193.79,-51.25 183.79,-47.75 183.79,-54.75"/>
</a>
</g>
</g>
<!-- Node5 -->
<g id="Node000005" class="node">
<title>Node5</title>
<g id="a_Node000005"><a xlink:href="classBlobPhysics.html#aaa1ea680c71270e1150272e9483cfff2" target="_top" xlink:title="Applies a smoothing filter to the blob&#39;s shape. Moves each control point slightly towards the average...">
<polygon fill="white" stroke="#666666" points="341.75,-18.5 184.75,-18.5 184.75,0 341.75,0 341.75,-18.5"/>
<text text-anchor="middle" x="263.25" y="-5" font-family="Helvetica,sans-Serif" font-size="10.00">BlobPhysics::SmoothBlobShape</text>
</a>
</g>
</g>
<!-- Node1&#45;&gt;Node5 -->
<g id="edge4_Node000001_Node000005" class="edge">
<title>Node1&#45;&gt;Node5</title>
<g id="a_edge4_Node000001_Node000005"><a xlink:title=" ">
<path fill="none" stroke="#63b8ff" d="M118.72,-41.51C145.37,-35.52 179.74,-27.79 208.17,-21.4"/>
<polygon fill="#63b8ff" stroke="#63b8ff" points="208.68,-24.88 217.67,-19.27 207.14,-18.05 208.68,-24.88"/>
</a>
</g>
</g>
<!-- Node3 -->
<g id="Node000003" class="node">
<title>Node3</title>
<g id="a_Node000003"><a xlink:href="classBlobMath.html#ac9712d62d55012b6839e003bfb902ffd" target="_top" xlink:title="Clamps a value between a minimum and maximum limit. Requires the type T to be totally ordered (suppor...">
<polygon fill="white" stroke="#666666" points="469.5,-107.5 377.75,-107.5 377.75,-89 469.5,-89 469.5,-107.5"/>
<text text-anchor="middle" x="423.62" y="-94" font-family="Helvetica,sans-Serif" font-size="10.00">BlobMath::Clamp</text>
</a>
</g>
</g>
<!-- Node2&#45;&gt;Node3 -->
<g id="edge2_Node000002_Node000003" class="edge">
<title>Node2&#45;&gt;Node3</title>
<g id="a_edge2_Node000002_Node000003"><a xlink:title=" ">
<path fill="none" stroke="#63b8ff" d="M342.05,-98.25C350.24,-98.25 358.46,-98.25 366.35,-98.25"/>
<polygon fill="#63b8ff" stroke="#63b8ff" points="366.11,-101.75 376.11,-98.25 366.11,-94.75 366.11,-101.75"/>
</a>
</g>
</g>
</g>
</svg>
