<?xml version="1.0" encoding="UTF-8" standalone="no"?>
<!DOCTYPE svg PUBLIC "-//W3C//DTD SVG 1.1//EN"
 "http://www.w3.org/Graphics/SVG/1.1/DTD/svg11.dtd">
<!-- Generated by graphviz version 12.2.1 (0)
 -->
<!-- Title: AudioDecoder::AudioDecoder Pages: 1 -->
<svg width="325pt" height="101pt"
 viewBox="0.00 0.00 325.00 100.50" xmlns="http://www.w3.org/2000/svg" xmlns:xlink="http://www.w3.org/1999/xlink">

<svg id="main" version="1.1" xmlns="http://www.w3.org/2000/svg" xmlns:xlink="http://www.w3.org/1999/xlink" xml:space="preserve">

<style type="text/css"><![CDATA[
.node, .edge {opacity: 0.7;}
.node.selected, .edge.selected {opacity: 1;}
.edge:hover path { stroke: red; }
.edge:hover polygon { stroke: red; fill: red; }
]]></style>
<script type="application/ecmascript" xlink:href="svg.min.js"/>
<svg id="graph" class="graph">
<g id="graph0" class="graph" transform="scale(1 1) rotate(0) translate(4 96.5)">
<title>AudioDecoder::AudioDecoder</title>
<!-- Node1 -->
<g id="Node000001" class="node">
<title>Node1</title>
<g id="a_Node000001"><a xlink:title="Constructs an AudioDecoder object. Initializes internal state, allocates memory for FFmpeg&#39;s custom I...">
<polygon fill="#999999" stroke="#666666" points="145,-55.5 0,-55.5 0,-37 145,-37 145,-55.5"/>
<text text-anchor="middle" x="72.5" y="-42" font-family="Helvetica,sans-Serif" font-size="10.00">AudioDecoder::AudioDecoder</text>
</a>
</g>
</g>
<!-- Node2 -->
<g id="Node000002" class="node">
<title>Node2</title>
<g id="a_Node000002"><a xlink:href="classAudioDecoder.html#a4c483a41bf7d57354b63bec009ac222e" target="_top" xlink:title="Emitted when an error occurs during initialization or decoding.">
<polygon fill="white" stroke="#666666" points="300.5,-92.5 197.5,-92.5 197.5,-74 300.5,-74 300.5,-92.5"/>
<text text-anchor="middle" x="249" y="-79" font-family="Helvetica,sans-Serif" font-size="10.00">AudioDecoder::error</text>
</a>
</g>
</g>
<!-- Node1&#45;&gt;Node2 -->
<g id="edge1_Node000001_Node000002" class="edge">
<title>Node1&#45;&gt;Node2</title>
<g id="a_edge1_Node000001_Node000002"><a xlink:title=" ">
<path fill="none" stroke="#63b8ff" d="M119.35,-55.97C141.3,-60.63 167.81,-66.25 191.05,-71.17"/>
<polygon fill="#63b8ff" stroke="#63b8ff" points="190.17,-74.57 200.68,-73.22 191.62,-67.72 190.17,-74.57"/>
</a>
</g>
</g>
<!-- Node3 -->
<g id="Node000003" class="node">
<title>Node3</title>
<g id="a_Node000003"><a xlink:href="classAudioDecoder.html#afbc8e3bdffc473d8ca7a059dc30ce268" target="_top" xlink:title="Custom read function for FFmpeg&#39;s AVIOContext. Reads data from the internal audio_data_ QByteArray bu...">
<polygon fill="white" stroke="#666666" points="317,-55.5 181,-55.5 181,-37 317,-37 317,-55.5"/>
<text text-anchor="middle" x="249" y="-42" font-family="Helvetica,sans-Serif" font-size="10.00">AudioDecoder::ReadPacket</text>
</a>
</g>
</g>
<!-- Node1&#45;&gt;Node3 -->
<g id="edge2_Node000001_Node000003" class="edge">
<title>Node1&#45;&gt;Node3</title>
<g id="a_edge2_Node000001_Node000003"><a xlink:title=" ">
<path fill="none" stroke="#63b8ff" d="M145.48,-39.59C153.3,-39.5 161.3,-39.48 169.19,-39.53"/>
<polygon fill="#63b8ff" stroke="#63b8ff" points="169.11,-43.03 179.15,-39.64 169.19,-36.03 169.11,-43.03"/>
</a>
</g>
</g>
<!-- Node4 -->
<g id="Node000004" class="node">
<title>Node4</title>
<g id="a_Node000004"><a xlink:href="classAudioDecoder.html#a5f63aa27abafaeded80d3688638ace64" target="_top" xlink:title="Custom seek function for FFmpeg&#39;s AVIOContext. Adjusts the internal read_position_ based on the offse...">
<polygon fill="white" stroke="#666666" points="317,-18.5 181,-18.5 181,0 317,0 317,-18.5"/>
<text text-anchor="middle" x="249" y="-5" font-family="Helvetica,sans-Serif" font-size="10.00">AudioDecoder::SeekPacket</text>
</a>
</g>
</g>
<!-- Node1&#45;&gt;Node4 -->
<g id="edge4_Node000001_Node000004" class="edge">
<title>Node1&#45;&gt;Node4</title>
<g id="a_edge4_Node000001_Node000004"><a xlink:title=" ">
<path fill="none" stroke="#63b8ff" d="M96.67,-36.58C115.41,-31.12 142.94,-24.62 169.4,-19.2"/>
<polygon fill="#63b8ff" stroke="#63b8ff" points="170.04,-22.64 179.16,-17.24 168.66,-15.77 170.04,-22.64"/>
</a>
</g>
</g>
<!-- Node3&#45;&gt;Node1 -->
<g id="edge3_Node000003_Node000001" class="edge">
<title>Node3&#45;&gt;Node1</title>
<g id="a_edge3_Node000003_Node000001"><a xlink:title=" ">
<path fill="none" stroke="#63b8ff" d="M180.67,-52.84C172.83,-52.97 164.77,-53.02 156.76,-52.99"/>
<polygon fill="#63b8ff" stroke="#63b8ff" points="157.02,-49.5 147,-52.92 156.97,-56.5 157.02,-49.5"/>
</a>
</g>
</g>
<!-- Node4&#45;&gt;Node1 -->
<g id="edge5_Node000004_Node000001" class="edge">
<title>Node4&#45;&gt;Node1</title>
<g id="a_edge5_Node000004_Node000001"><a xlink:title=" ">
<path fill="none" stroke="#63b8ff" d="M224.72,-18.96C207.03,-24.11 181.55,-30.17 156.53,-35.39"/>
<polygon fill="#63b8ff" stroke="#63b8ff" points="156.06,-31.91 146.97,-37.34 157.46,-38.77 156.06,-31.91"/>
</a>
</g>
</g>
</g>
</svg>
</svg>

<style type='text/css'>
<![CDATA[
[data-mouse-over-selected='false'] { opacity: 0.7; }
[data-mouse-over-selected='true']  { opacity: 1.0; }
]]>
</style>
<script type="application/ecmascript"><![CDATA[
document.addEventListener('DOMContentLoaded', (event) => {
  highlightEdges();
  highlightAdjacentNodes();
});
]]></script>
</svg>
