<?xml version="1.0" encoding="UTF-8" standalone="no"?>
<!DOCTYPE svg PUBLIC "-//W3C//DTD SVG 1.1//EN"
 "http://www.w3.org/Graphics/SVG/1.1/DTD/svg11.dtd">
<!-- Generated by graphviz version 12.2.1 (0)
 -->
<!-- Title: GifPlayer Pages: 1 -->
<svg width="154pt" height="580pt"
 viewBox="0.00 0.00 153.50 580.00" xmlns="http://www.w3.org/2000/svg" xmlns:xlink="http://www.w3.org/1999/xlink">
<g id="graph0" class="graph" transform="scale(1 1) rotate(0) translate(4 576)">
<title>GifPlayer</title>
<!-- Node1 -->
<g id="Node000001" class="node">
<title>Node1</title>
<g id="a_Node000001"><a xlink:title="A widget for displaying and playing animated GIFs within a chat interface.">
<polygon fill="#999999" stroke="none" points="145.5,-488.5 0,-488.5 0,0 145.5,0 145.5,-488.5"/>
<text text-anchor="start" x="52.88" y="-475" font-family="Helvetica,sans-Serif" font-size="10.00">GifPlayer</text>
<text text-anchor="start" x="5.5" y="-460.5" font-family="Helvetica,sans-Serif" font-size="10.00">&#45;</text>
<text text-anchor="start" x="14" y="-460.5" font-family="Helvetica,sans-Serif" font-size="10.00">double current_position_</text>
<text text-anchor="start" x="5.5" y="-446" font-family="Helvetica,sans-Serif" font-size="10.00">&#45;</text>
<text text-anchor="start" x="14" y="-446" font-family="Helvetica,sans-Serif" font-size="10.00">std::shared_ptr&lt; GifDecoder</text>
<text text-anchor="start" x="14" y="-435.5" font-family="Helvetica,sans-Serif" font-size="10.00"> &gt; decoder_</text>
<text text-anchor="start" x="5.5" y="-421" font-family="Helvetica,sans-Serif" font-size="10.00">&#45;</text>
<text text-anchor="start" x="14" y="-421" font-family="Helvetica,sans-Serif" font-size="10.00">double frame_rate_</text>
<text text-anchor="start" x="5.5" y="-406.5" font-family="Helvetica,sans-Serif" font-size="10.00">&#45;</text>
<text text-anchor="start" x="14" y="-406.5" font-family="Helvetica,sans-Serif" font-size="10.00">QByteArray gif_data_</text>
<text text-anchor="start" x="5.5" y="-392" font-family="Helvetica,sans-Serif" font-size="10.00">&#45;</text>
<text text-anchor="start" x="14" y="-392" font-family="Helvetica,sans-Serif" font-size="10.00">double gif_duration_</text>
<text text-anchor="start" x="5.5" y="-377.5" font-family="Helvetica,sans-Serif" font-size="10.00">&#45;</text>
<text text-anchor="start" x="14" y="-377.5" font-family="Helvetica,sans-Serif" font-size="10.00">int gif_height_</text>
<text text-anchor="start" x="5.5" y="-363" font-family="Helvetica,sans-Serif" font-size="10.00">&#45;</text>
<text text-anchor="start" x="14" y="-363" font-family="Helvetica,sans-Serif" font-size="10.00">QLabel * gif_label_</text>
<text text-anchor="start" x="5.5" y="-348.5" font-family="Helvetica,sans-Serif" font-size="10.00">&#45;</text>
<text text-anchor="start" x="14" y="-348.5" font-family="Helvetica,sans-Serif" font-size="10.00">int gif_width_</text>
<text text-anchor="start" x="5.5" y="-334" font-family="Helvetica,sans-Serif" font-size="10.00">&#45;</text>
<text text-anchor="start" x="14" y="-334" font-family="Helvetica,sans-Serif" font-size="10.00">bool is_playing_</text>
<text text-anchor="start" x="5.5" y="-319.5" font-family="Helvetica,sans-Serif" font-size="10.00">&#45;</text>
<text text-anchor="start" x="14" y="-319.5" font-family="Helvetica,sans-Serif" font-size="10.00">QPixmap thumbnail_pixmap_</text>
<text text-anchor="start" x="5.5" y="-305" font-family="Helvetica,sans-Serif" font-size="10.00">&#45;</text>
<text text-anchor="start" x="14" y="-305" font-family="Helvetica,sans-Serif" font-size="10.00">TranslationManager</text>
<text text-anchor="start" x="14" y="-294.5" font-family="Helvetica,sans-Serif" font-size="10.00"> * translator_</text>
<text text-anchor="start" x="4" y="-280" font-family="Helvetica,sans-Serif" font-size="10.00">+</text>
<text text-anchor="start" x="14" y="-280" font-family="Helvetica,sans-Serif" font-size="10.00">GifPlayer(const QByteArray</text>
<text text-anchor="start" x="14" y="-269.5" font-family="Helvetica,sans-Serif" font-size="10.00"> &amp;gif_data, QWidget *parent</text>
<text text-anchor="start" x="14" y="-259" font-family="Helvetica,sans-Serif" font-size="10.00">=nullptr)</text>
<text text-anchor="start" x="4" y="-244.5" font-family="Helvetica,sans-Serif" font-size="10.00">+</text>
<text text-anchor="start" x="14" y="-244.5" font-family="Helvetica,sans-Serif" font-size="10.00">void ReleaseResources()</text>
<text text-anchor="start" x="4" y="-230" font-family="Helvetica,sans-Serif" font-size="10.00">+</text>
<text text-anchor="start" x="14" y="-230" font-family="Helvetica,sans-Serif" font-size="10.00">QSize sizeHint() const</text>
<text text-anchor="start" x="14" y="-219.5" font-family="Helvetica,sans-Serif" font-size="10.00"> override</text>
<text text-anchor="start" x="4" y="-205" font-family="Helvetica,sans-Serif" font-size="10.00">+</text>
<text text-anchor="start" x="14" y="-205" font-family="Helvetica,sans-Serif" font-size="10.00">void StartPlayback()</text>
<text text-anchor="start" x="4" y="-190.5" font-family="Helvetica,sans-Serif" font-size="10.00">+</text>
<text text-anchor="start" x="14" y="-190.5" font-family="Helvetica,sans-Serif" font-size="10.00">void StopPlayback()</text>
<text text-anchor="start" x="4" y="-176" font-family="Helvetica,sans-Serif" font-size="10.00">+</text>
<text text-anchor="start" x="14" y="-176" font-family="Helvetica,sans-Serif" font-size="10.00">~GifPlayer() override</text>
<text text-anchor="start" x="4.38" y="-161.5" font-family="Helvetica,sans-Serif" font-size="10.00">#</text>
<text text-anchor="start" x="14" y="-161.5" font-family="Helvetica,sans-Serif" font-size="10.00">void enterEvent(QEvent</text>
<text text-anchor="start" x="14" y="-151" font-family="Helvetica,sans-Serif" font-size="10.00"> *event) override</text>
<text text-anchor="start" x="4.38" y="-136.5" font-family="Helvetica,sans-Serif" font-size="10.00">#</text>
<text text-anchor="start" x="14" y="-136.5" font-family="Helvetica,sans-Serif" font-size="10.00">void leaveEvent(QEvent</text>
<text text-anchor="start" x="14" y="-126" font-family="Helvetica,sans-Serif" font-size="10.00"> *event) override</text>
<text text-anchor="start" x="5.5" y="-111.5" font-family="Helvetica,sans-Serif" font-size="10.00">&#45;</text>
<text text-anchor="start" x="14" y="-111.5" font-family="Helvetica,sans-Serif" font-size="10.00">void DisplayThumbnail</text>
<text text-anchor="start" x="14" y="-101" font-family="Helvetica,sans-Serif" font-size="10.00">(const QImage &amp;frame)</text>
<text text-anchor="start" x="5.5" y="-86.5" font-family="Helvetica,sans-Serif" font-size="10.00">&#45;</text>
<text text-anchor="start" x="14" y="-86.5" font-family="Helvetica,sans-Serif" font-size="10.00">void HandleError(const</text>
<text text-anchor="start" x="14" y="-76" font-family="Helvetica,sans-Serif" font-size="10.00"> QString &amp;message)</text>
<text text-anchor="start" x="5.5" y="-61.5" font-family="Helvetica,sans-Serif" font-size="10.00">&#45;</text>
<text text-anchor="start" x="14" y="-61.5" font-family="Helvetica,sans-Serif" font-size="10.00">void HandleGifInfo</text>
<text text-anchor="start" x="14" y="-51" font-family="Helvetica,sans-Serif" font-size="10.00">(int width, int height,</text>
<text text-anchor="start" x="14" y="-40.5" font-family="Helvetica,sans-Serif" font-size="10.00"> double duration, double</text>
<text text-anchor="start" x="14" y="-30" font-family="Helvetica,sans-Serif" font-size="10.00"> frame_rate)</text>
<text text-anchor="start" x="5.5" y="-15.5" font-family="Helvetica,sans-Serif" font-size="10.00">&#45;</text>
<text text-anchor="start" x="14" y="-15.5" font-family="Helvetica,sans-Serif" font-size="10.00">void UpdateFrame(const</text>
<text text-anchor="start" x="14" y="-5" font-family="Helvetica,sans-Serif" font-size="10.00"> QImage &amp;frame) const</text>
<polygon fill="#666666" stroke="#666666" points="0,-472 0,-472 145.5,-472 145.5,-472 0,-472"/>
<polygon fill="#666666" stroke="#666666" points="0,-291.5 0,-291.5 12,-291.5 12,-291.5 0,-291.5"/>
<polygon fill="#666666" stroke="#666666" points="12,-291.5 12,-291.5 145.5,-291.5 145.5,-291.5 12,-291.5"/>
<polygon fill="none" stroke="#666666" points="0,0 0,-488.5 145.5,-488.5 145.5,0 0,0"/>
</a>
</g>
</g>
<!-- Node2 -->
<g id="Node000002" class="node">
<title>Node2</title>
<g id="a_Node000002"><a xlink:title=" ">
<polygon fill="white" stroke="none" points="94.38,-572 51.12,-572 51.12,-524.5 94.38,-524.5 94.38,-572"/>
<text text-anchor="start" x="55.12" y="-558.5" font-family="Helvetica,sans-Serif" font-size="10.00">QFrame</text>
<text text-anchor="start" x="71.25" y="-544" font-family="Helvetica,sans-Serif" font-size="10.00"> </text>
<text text-anchor="start" x="71.25" y="-529.5" font-family="Helvetica,sans-Serif" font-size="10.00"> </text>
<polygon fill="#666666" stroke="#666666" points="51.12,-555.5 51.12,-555.5 94.38,-555.5 94.38,-555.5 51.12,-555.5"/>
<polygon fill="#666666" stroke="#666666" points="51.12,-541 51.12,-541 94.38,-541 94.38,-541 51.12,-541"/>
<polygon fill="none" stroke="#666666" points="51.12,-524.5 51.12,-572 94.38,-572 94.38,-524.5 51.12,-524.5"/>
</a>
</g>
</g>
<!-- Node2&#45;&gt;Node1 -->
<g id="edge1_Node000001_Node000002" class="edge">
<title>Node2&#45;&gt;Node1</title>
<g id="a_edge1_Node000001_Node000002"><a xlink:title=" ">
<path fill="none" stroke="#63b8ff" d="M72.75,-513.06C72.75,-505.67 72.75,-497.32 72.75,-488.25"/>
<polygon fill="none" stroke="#63b8ff" points="69.25,-513.04 72.75,-523.04 76.25,-513.04 69.25,-513.04"/>
</a>
</g>
</g>
</g>
</svg>
