<?xml version="1.0" encoding="UTF-8" standalone="no"?>
<!DOCTYPE svg PUBLIC "-//W3C//DTD SVG 1.1//EN"
 "http://www.w3.org/Graphics/SVG/1.1/DTD/svg11.dtd">
<!-- Generated by graphviz version 12.2.1 (0)
 -->
<!-- Title: StreamDisplay::StreamDisplay Pages: 1 -->
<!--zoomable 95 -->

<svg id="main" version="1.1" xmlns="http://www.w3.org/2000/svg" xmlns:xlink="http://www.w3.org/1999/xlink" xml:space="preserve" onload="init(evt)">

<style type="text/css"><![CDATA[
.node, .edge {opacity: 0.7;}
.node.selected, .edge.selected {opacity: 1;}
.edge:hover path { stroke: red; }
.edge:hover polygon { stroke: red; fill: red; }
]]></style>

<defs>
  <circle id="rim" cx="0" cy="0" r="7"/>
  <circle id="rim2" cx="0" cy="0" r="3.5"/>
  <g id="zoomPlus">
    <use xlink:href="#rim" fill="#404040"><set attributeName="fill" to="#808080" begin="zoomplus.mouseover" end="zoomplus.mouseout"/></use>
    <path d="M-4,0h8M0,-4v8" fill="none" stroke="white" stroke-width="1.5" pointer-events="none"/>
  </g>
  <g id="zoomMin">
    <use xlink:href="#rim" fill="#404040"><set attributeName="fill" to="#808080" begin="zoomminus.mouseover" end="zoomminus.mouseout"/></use>
    <path d="M-4,0h8" fill="none" stroke="white" stroke-width="1.5" pointer-events="none"/>
  </g>
  <g id="arrowUp" transform="translate(30 24)">
    <use xlink:href="#rim"/>
    <path pointer-events="none" fill="none" stroke="white" stroke-width="1.5" d="M0,-3.0v7 M-2.5,-0.5L0,-3.0L2.5,-0.5"/>
  </g>
  <g id="arrowRight" transform="rotate(90) translate(36 -43)">
    <use xlink:href="#rim"/>
    <path pointer-events="none" fill="none" stroke="white" stroke-width="1.5" d="M0,-3.0v7 M-2.5,-0.5L0,-3.0L2.5,-0.5"/>
  </g>
  <g id="arrowDown" transform="rotate(180) translate(-30 -48)">
    <use xlink:href="#rim"/>
    <path pointer-events="none" fill="none" stroke="white" stroke-width="1.5" d="M0,-3.0v7 M-2.5,-0.5L0,-3.0L2.5,-0.5"/>
  </g>
  <g id="arrowLeft" transform="rotate(270) translate(-36 17)">
    <use xlink:href="#rim"/>
    <path pointer-events="none" fill="none" stroke="white" stroke-width="1.5" d="M0,-3.0v7 M-2.5,-0.5L0,-3.0L2.5,-0.5"/>
  </g>
  <g id="resetDef">
    <use xlink:href="#rim2" fill="#404040"><set attributeName="fill" to="#808080" begin="reset.mouseover" end="reset.mouseout"/></use>
  </g>
</defs>
<script type="application/ecmascript">
var viewWidth = 743;
var viewHeight = 95;
var sectionId = 'dynsection-2';
</script>
<script type="application/ecmascript" xlink:href="svg.min.js"/>
<svg id="graph" class="graph">
<g id="viewport">
<title>StreamDisplay::StreamDisplay</title>
<!-- Node1 -->
<g id="Node000001" class="node">
<title>Node1</title>
<g id="a_Node000001"><a xlink:title="Constructs a WavelengthStreamDisplay widget. Creates the main layout, instantiates the CommunicationS...">
<polygon fill="#999999" stroke="#666666" points="150.25,-60.5 0,-60.5 0,-42 150.25,-42 150.25,-60.5"/>
<text text-anchor="middle" x="75.12" y="-47" font-family="Helvetica,sans-Serif" font-size="10.00">StreamDisplay::StreamDisplay</text>
</a>
</g>
</g>
<!-- Node2 -->
<g id="Node000002" class="node">
<title>Node2</title>
<g id="a_Node000002"><a xlink:href="classStreamDisplay.html#aba8774044f5e157e128c9429c67c5970" target="_top" xlink:title="Processes the next message from the message_queue_. Dequeues a message, checks if it&#39;s an update to a...">
<polygon fill="white" stroke="#666666" points="329,-65.75 186.25,-65.75 186.25,-36.75 329,-36.75 329,-65.75"/>
<text text-anchor="start" x="194.25" y="-52.25" font-family="Helvetica,sans-Serif" font-size="10.00">StreamDisplay::ProcessNext</text>
<text text-anchor="middle" x="257.62" y="-41.75" font-family="Helvetica,sans-Serif" font-size="10.00">QueuedMessage</text>
</a>
</g>
</g>
<!-- Node1&#45;&gt;Node2 -->
<g id="edge1_Node000001_Node000002" class="edge">
<title>Node1&#45;&gt;Node2</title>
<g id="a_edge1_Node000001_Node000002"><a xlink:title=" ">
<path fill="none" stroke="#63b8ff" d="M150.58,-51.25C158.41,-51.25 166.41,-51.25 174.32,-51.25"/>
<polygon fill="#63b8ff" stroke="#63b8ff" points="174.31,-54.75 184.31,-51.25 174.31,-47.75 174.31,-54.75"/>
</a>
</g>
</g>
<!-- Node3 -->
<g id="Node000003" class="node">
<title>Node3</title>
<g id="a_Node000003"><a xlink:href="classStreamDisplay.html#a9b2f657773a56d360df29998cb79ed3e" target="_top" xlink:title="Slot called when a StreamMessage associated with a progress ID is destroyed. Removes the correspondin...">
<polygon fill="white" stroke="#666666" points="534.75,-86.75 365,-86.75 365,-57.75 534.75,-57.75 534.75,-86.75"/>
<text text-anchor="start" x="373" y="-73.25" font-family="Helvetica,sans-Serif" font-size="10.00">StreamDisplay::OnStreamMessage</text>
<text text-anchor="middle" x="449.88" y="-62.75" font-family="Helvetica,sans-Serif" font-size="10.00">Destroyed</text>
</a>
</g>
</g>
<!-- Node2&#45;&gt;Node3 -->
<g id="edge2_Node000002_Node000003" class="edge">
<title>Node2&#45;&gt;Node3</title>
<g id="a_edge2_Node000002_Node000003"><a xlink:title=" ">
<path fill="none" stroke="#63b8ff" d="M329.47,-59.07C337.29,-59.93 345.36,-60.82 353.42,-61.71"/>
<polygon fill="#63b8ff" stroke="#63b8ff" points="352.97,-65.19 363.3,-62.8 353.74,-58.23 352.97,-65.19"/>
</a>
</g>
</g>
<!-- Node4 -->
<g id="Node000004" class="node">
<title>Node4</title>
<g id="a_Node000004"><a xlink:href="classStreamMessage.html#a009bab0169fe961a273ffaf6783dfb15" target="_top" xlink:title="Updates the content of an existing message, typically used for progress updates. Cleans the new conte...">
<polygon fill="white" stroke="#666666" points="529.5,-39.5 370.25,-39.5 370.25,-21 529.5,-21 529.5,-39.5"/>
<text text-anchor="middle" x="449.88" y="-26" font-family="Helvetica,sans-Serif" font-size="10.00">StreamMessage::UpdateContent</text>
</a>
</g>
</g>
<!-- Node2&#45;&gt;Node4 -->
<g id="edge3_Node000002_Node000004" class="edge">
<title>Node2&#45;&gt;Node4</title>
<g id="a_edge3_Node000002_Node000004"><a xlink:title=" ">
<path fill="none" stroke="#63b8ff" d="M329.47,-43.43C338.96,-42.38 348.8,-41.3 358.57,-40.22"/>
<polygon fill="#63b8ff" stroke="#63b8ff" points="358.92,-43.7 368.47,-39.12 358.15,-36.74 358.92,-43.7"/>
</a>
</g>
</g>
<!-- Node5 -->
<g id="Node000005" class="node">
<title>Node5</title>
<g id="a_Node000005"><a xlink:href="classStreamMessage.html#a1a3ebf623b6477e510efeab5af62f390" target="_top" xlink:title="Adjusts the size of the message widget to fit its content, especially after an attachment has loaded....">
<polygon fill="#fff0f0" stroke="red" points="722.5,-65.75 582.75,-65.75 582.75,-36.75 722.5,-36.75 722.5,-65.75"/>
<text text-anchor="start" x="590.75" y="-52.25" font-family="Helvetica,sans-Serif" font-size="10.00">StreamMessage::AdjustSize</text>
<text text-anchor="middle" x="652.62" y="-41.75" font-family="Helvetica,sans-Serif" font-size="10.00">ToContent</text>
</a>
</g>
</g>
<!-- Node4&#45;&gt;Node5 -->
<g id="edge4_Node000004_Node000005" class="edge">
<title>Node4&#45;&gt;Node5</title>
<g id="a_edge4_Node000004_Node000005"><a xlink:title=" ">
<path fill="none" stroke="#63b8ff" d="M529.93,-38.52C543.47,-39.94 557.56,-41.41 571.14,-42.83"/>
<polygon fill="#63b8ff" stroke="#63b8ff" points="570.59,-46.29 580.9,-43.85 571.32,-39.33 570.59,-46.29"/>
</a>
</g>
</g>
<!-- Node8 -->
<g id="Node000008" class="node">
<title>Node8</title>
<g id="a_Node000008"><a xlink:href="classStreamMessage.html#a59f8dedec8dffa79dad2b202ddd8dbf6" target="_top" xlink:title="Cleans the message content by removing HTML tags and placeholders, and decoding HTML entities....">
<polygon fill="white" stroke="#666666" points="734.5,-18.5 570.75,-18.5 570.75,0 734.5,0 734.5,-18.5"/>
<text text-anchor="middle" x="652.62" y="-5" font-family="Helvetica,sans-Serif" font-size="10.00">StreamMessage::CleanupContent</text>
</a>
</g>
</g>
<!-- Node4&#45;&gt;Node8 -->
<g id="edge5_Node000004_Node000008" class="edge">
<title>Node4&#45;&gt;Node8</title>
<g id="a_edge5_Node000004_Node000008"><a xlink:title=" ">
<path fill="none" stroke="#63b8ff" d="M529.93,-21.98C539.47,-20.98 549.28,-19.96 559,-18.94"/>
<polygon fill="#63b8ff" stroke="#63b8ff" points="559.25,-22.43 568.83,-17.91 558.52,-15.47 559.25,-22.43"/>
</a>
</g>
</g>
</g>
</svg>

<g id="navigator" transform="translate(0 0)" fill="#404254">
  <rect fill="#f2f5e9" fill-opacity="0.5" stroke="#606060" stroke-width=".5" x="0" y="0" width="60" height="60"/>
  <use id="zoomplus" xlink:href="#zoomPlus" x="17" y="9" onmousedown="handleZoom(evt,'in')"/>
  <use id="zoomminus" xlink:href="#zoomMin" x="42" y="9" onmousedown="handleZoom(evt,'out')"/>
  <use id="reset" xlink:href="#resetDef" x="30" y="36" onmousedown="handleReset()"/>
   <use id="arrowup" xlink:href="#arrowUp" x="0" y="0" onmousedown="handlePan(0,-1)"/>
  <use id="arrowright" xlink:href="#arrowRight" x="0" y="0" onmousedown="handlePan(1,0)"/>
  <use id="arrowdown" xlink:href="#arrowDown" x="0" y="0" onmousedown="handlePan(0,1)"/>
  <use id="arrowleft" xlink:href="#arrowLeft" x="0" y="0" onmousedown="handlePan(-1,0)"/>
</g>
<svg viewBox="0 0 15 15" width="100%" height="30px" preserveAspectRatio="xMaxYMin meet">
 <g id="arrow_out" transform="scale(0.3 0.3)">
  <a xlink:href="classStreamDisplay_ab49c3a484e911bc8cf752e2d3791516a_cgraph_org.svg" target="_base">
   <rect id="button" ry="5" rx="5" y="6" x="6" height="38" width="38"
        fill="#f2f5e9" fill-opacity="0.5" stroke="#606060" stroke-width="1.0"/>
   <path id="arrow"
     d="M 11.500037,31.436501 C 11.940474,20.09759 22.043105,11.32322 32.158766,21.979434 L 37.068811,17.246167 C 37.068811,17.246167 37.088388,32 37.088388,32 L 22.160133,31.978069 C 22.160133,31.978069 26.997745,27.140456 26.997745,27.140456 C 18.528582,18.264221 13.291696,25.230495 11.500037,31.436501 z"
     style="fill:#404040;"/>
  </a>
 </g>
</svg>

<style type='text/css'>
<![CDATA[
[data-mouse-over-selected='false'] { opacity: 0.7; }
[data-mouse-over-selected='true']  { opacity: 1.0; }
]]>
</style>
<script type="application/ecmascript"><![CDATA[
document.addEventListener('DOMContentLoaded', (event) => {
  highlightEdges();
  highlightAdjacentNodes();
});
]]></script>
</svg>
