<?xml version="1.0" encoding="UTF-8" standalone="no"?>
<!DOCTYPE svg PUBLIC "-//W3C//DTD SVG 1.1//EN"
 "http://www.w3.org/Graphics/SVG/1.1/DTD/svg11.dtd">
<!-- Generated by graphviz version 12.2.1 (0)
 -->
<!-- Title: StreamMessage::ShowNavigationButtons Pages: 1 -->
<svg width="698pt" height="225pt"
 viewBox="0.00 0.00 698.25 225.00" xmlns="http://www.w3.org/2000/svg" xmlns:xlink="http://www.w3.org/1999/xlink">
<g id="graph0" class="graph" transform="scale(1 1) rotate(0) translate(4 221)">
<title>StreamMessage::ShowNavigationButtons</title>
<!-- Node1 -->
<g id="Node000001" class="node">
<title>Node1</title>
<g id="a_Node000001"><a xlink:title="Shows or hides the navigation buttons (Next, Previous) and the Mark Read button. Updates the layout t...">
<polygon fill="#999999" stroke="#666666" points="690.25,-170 525.75,-170 525.75,-141 690.25,-141 690.25,-170"/>
<text text-anchor="start" x="533.75" y="-156.5" font-family="Helvetica,sans-Serif" font-size="10.00">StreamMessage::ShowNavigation</text>
<text text-anchor="middle" x="608" y="-146" font-family="Helvetica,sans-Serif" font-size="10.00">Buttons</text>
</a>
</g>
</g>
<!-- Node2 -->
<g id="Node000002" class="node">
<title>Node2</title>
<g id="a_Node000002"><a xlink:href="classCommunicationStream.html#a1b1a57ca6f1ccaac8e413cacdd3e69f6" target="_top" xlink:title="Updates the visibility of the &quot;Next&quot; and &quot;Previous&quot; buttons on the currently displayed message based ...">
<polygon fill="white" stroke="#666666" points="489.75,-175.25 341.75,-175.25 341.75,-135.75 489.75,-135.75 489.75,-175.25"/>
<text text-anchor="start" x="349.75" y="-161.75" font-family="Helvetica,sans-Serif" font-size="10.00">CommunicationStream</text>
<text text-anchor="start" x="349.75" y="-151.25" font-family="Helvetica,sans-Serif" font-size="10.00">::UpdateNavigationButtonsFor</text>
<text text-anchor="middle" x="415.75" y="-140.75" font-family="Helvetica,sans-Serif" font-size="10.00">CurrentMessage</text>
</a>
</g>
</g>
<!-- Node1&#45;&gt;Node2 -->
<g id="edge1_Node000001_Node000002" class="edge">
<title>Node1&#45;&gt;Node2</title>
<g id="a_edge1_Node000001_Node000002"><a xlink:title=" ">
<path fill="none" stroke="#63b8ff" d="M514.09,-155.5C505.99,-155.5 497.88,-155.5 489.98,-155.5"/>
<polygon fill="#63b8ff" stroke="#63b8ff" points="513.98,-159 523.98,-155.5 513.98,-152 513.98,-159"/>
</a>
</g>
</g>
<!-- Node3 -->
<g id="Node000003" class="node">
<title>Node3</title>
<g id="a_Node000003"><a xlink:href="classCommunicationStream.html#ae3b9b361caa5123daac847c60475d605" target="_top" xlink:title="Adds a new standard message to the stream. Initiates the receiving animation. The message is displaye...">
<polygon fill="white" stroke="#666666" points="132.62,-217 16.88,-217 16.88,-188 132.62,-188 132.62,-217"/>
<text text-anchor="start" x="24.88" y="-203.5" font-family="Helvetica,sans-Serif" font-size="10.00">CommunicationStream</text>
<text text-anchor="middle" x="74.75" y="-193" font-family="Helvetica,sans-Serif" font-size="10.00">::AddMessage</text>
</a>
</g>
</g>
<!-- Node2&#45;&gt;Node3 -->
<g id="edge2_Node000002_Node000003" class="edge">
<title>Node2&#45;&gt;Node3</title>
<g id="a_edge2_Node000002_Node000003"><a xlink:title=" ">
<path fill="none" stroke="#63b8ff" d="M330.37,-167.2C268.85,-175.73 187.13,-187.06 133.06,-194.56"/>
<polygon fill="#63b8ff" stroke="#63b8ff" points="330.69,-170.69 340.11,-165.85 329.72,-163.75 330.69,-170.69"/>
</a>
</g>
</g>
<!-- Node4 -->
<g id="Node000004" class="node">
<title>Node4</title>
<g id="a_Node000004"><a xlink:href="classCommunicationStream.html#a10a56a4dc3eeeaf4865d0f63f077e3bf" target="_top" xlink:title="Adds a new message with attachment content to the stream. Initiates the receiving animation....">
<polygon fill="white" stroke="#666666" points="149.5,-170 0,-170 0,-141 149.5,-141 149.5,-170"/>
<text text-anchor="start" x="8" y="-156.5" font-family="Helvetica,sans-Serif" font-size="10.00">CommunicationStream</text>
<text text-anchor="middle" x="74.75" y="-146" font-family="Helvetica,sans-Serif" font-size="10.00">::AddMessageWithAttachment</text>
</a>
</g>
</g>
<!-- Node2&#45;&gt;Node4 -->
<g id="edge3_Node000002_Node000004" class="edge">
<title>Node2&#45;&gt;Node4</title>
<g id="a_edge3_Node000002_Node000004"><a xlink:title=" ">
<path fill="none" stroke="#63b8ff" d="M330.4,-155.5C274.98,-155.5 203.16,-155.5 149.93,-155.5"/>
<polygon fill="#63b8ff" stroke="#63b8ff" points="330.1,-159 340.1,-155.5 330.1,-152 330.1,-159"/>
</a>
</g>
</g>
<!-- Node5 -->
<g id="Node000005" class="node">
<title>Node5</title>
<g id="a_Node000005"><a xlink:href="classCommunicationStream.html#aba44a533978e83748764534a8682c56f" target="_top" xlink:title="Displays the message at the specified index in the messages_ list. Hides the previously displayed mes...">
<polygon fill="white" stroke="#666666" points="305.75,-125 185.5,-125 185.5,-96 305.75,-96 305.75,-125"/>
<text text-anchor="start" x="193.5" y="-111.5" font-family="Helvetica,sans-Serif" font-size="10.00">CommunicationStream</text>
<text text-anchor="middle" x="245.62" y="-101" font-family="Helvetica,sans-Serif" font-size="10.00">::ShowMessageAtIndex</text>
</a>
</g>
</g>
<!-- Node2&#45;&gt;Node5 -->
<g id="edge4_Node000002_Node000005" class="edge">
<title>Node2&#45;&gt;Node5</title>
<g id="a_edge4_Node000002_Node000005"><a xlink:title=" ">
<path fill="none" stroke="#63b8ff" d="M330.39,-132.92C320.91,-130.38 311.43,-127.85 302.44,-125.44"/>
<polygon fill="#63b8ff" stroke="#63b8ff" points="329.47,-136.3 340.03,-135.5 331.28,-129.54 329.47,-136.3"/>
</a>
</g>
</g>
<!-- Node5&#45;&gt;Node3 -->
<g id="edge5_Node000005_Node000003" class="edge">
<title>Node5&#45;&gt;Node3</title>
<g id="a_edge5_Node000005_Node000003"><a xlink:title=" ">
<path fill="none" stroke="#63b8ff" d="M219.24,-132.45C200.88,-147.41 174.93,-166.74 149.5,-179.5 143.51,-182.51 137.04,-185.22 130.51,-187.63"/>
<polygon fill="#63b8ff" stroke="#63b8ff" points="221.23,-135.35 226.69,-126.27 216.76,-129.96 221.23,-135.35"/>
</a>
</g>
</g>
<!-- Node5&#45;&gt;Node4 -->
<g id="edge6_Node000005_Node000004" class="edge">
<title>Node5&#45;&gt;Node4</title>
<g id="a_edge6_Node000005_Node000004"><a xlink:title=" ">
<path fill="none" stroke="#63b8ff" d="M177.57,-128.37C162.48,-132.39 146.62,-136.62 132.03,-140.5"/>
<polygon fill="#63b8ff" stroke="#63b8ff" points="178.17,-131.83 186.93,-125.87 176.37,-125.07 178.17,-131.83"/>
</a>
</g>
</g>
<!-- Node6 -->
<g id="Node000006" class="node">
<title>Node6</title>
<g id="a_Node000006"><a xlink:href="classCommunicationStream.html#a2283a11febe30f9d2d1887c2c20e7ea3" target="_top" xlink:title="Slot triggered when a StreamMessage widget finishes its hiding animation (or is hidden)....">
<polygon fill="#fff0f0" stroke="red" points="136.38,-123 13.12,-123 13.12,-94 136.38,-94 136.38,-123"/>
<text text-anchor="start" x="21.12" y="-109.5" font-family="Helvetica,sans-Serif" font-size="10.00">CommunicationStream</text>
<text text-anchor="middle" x="74.75" y="-99" font-family="Helvetica,sans-Serif" font-size="10.00">::HandleMessageHidden</text>
</a>
</g>
</g>
<!-- Node5&#45;&gt;Node6 -->
<g id="edge7_Node000005_Node000006" class="edge">
<title>Node5&#45;&gt;Node6</title>
<g id="a_edge7_Node000005_Node000006"><a xlink:title=" ">
<path fill="none" stroke="#63b8ff" d="M173.89,-109.66C161.55,-109.52 148.8,-109.37 136.75,-109.22"/>
<polygon fill="#63b8ff" stroke="#63b8ff" points="173.53,-113.16 183.57,-109.78 173.61,-106.16 173.53,-113.16"/>
</a>
</g>
</g>
<!-- Node8 -->
<g id="Node000008" class="node">
<title>Node8</title>
<g id="a_Node000008"><a xlink:href="classCommunicationStream.html#a600acedc2f4f586b28c147077f768438" target="_top" xlink:title="Shows the next message in the list, if available.">
<polygon fill="#fff0f0" stroke="red" points="132.62,-76 16.88,-76 16.88,-47 132.62,-47 132.62,-76"/>
<text text-anchor="start" x="24.88" y="-62.5" font-family="Helvetica,sans-Serif" font-size="10.00">CommunicationStream</text>
<text text-anchor="middle" x="74.75" y="-52" font-family="Helvetica,sans-Serif" font-size="10.00">::ShowNextMessage</text>
</a>
</g>
</g>
<!-- Node5&#45;&gt;Node8 -->
<g id="edge8_Node000005_Node000008" class="edge">
<title>Node5&#45;&gt;Node8</title>
<g id="a_edge8_Node000005_Node000008"><a xlink:title=" ">
<path fill="none" stroke="#63b8ff" d="M182.04,-92.34C164.02,-87.11 144.58,-81.47 127.31,-76.46"/>
<polygon fill="#63b8ff" stroke="#63b8ff" points="181.01,-95.69 191.59,-95.11 182.96,-88.96 181.01,-95.69"/>
</a>
</g>
</g>
<!-- Node10 -->
<g id="Node000010" class="node">
<title>Node10</title>
<g id="a_Node000010"><a xlink:href="classCommunicationStream.html#a918c54f07703dce3733f2aec5b09503d" target="_top" xlink:title="Shows the previous message in the list, if available.">
<polygon fill="#fff0f0" stroke="red" points="137.12,-29 12.38,-29 12.38,0 137.12,0 137.12,-29"/>
<text text-anchor="start" x="20.38" y="-15.5" font-family="Helvetica,sans-Serif" font-size="10.00">CommunicationStream</text>
<text text-anchor="middle" x="74.75" y="-5" font-family="Helvetica,sans-Serif" font-size="10.00">::ShowPreviousMessage</text>
</a>
</g>
</g>
<!-- Node5&#45;&gt;Node10 -->
<g id="edge9_Node000005_Node000010" class="edge">
<title>Node5&#45;&gt;Node10</title>
<g id="a_edge9_Node000005_Node000010"><a xlink:title=" ">
<path fill="none" stroke="#63b8ff" d="M220.45,-88.06C202.14,-72.08 175.74,-51.11 149.5,-37.5 143.67,-34.47 137.36,-31.76 130.99,-29.36"/>
<polygon fill="#63b8ff" stroke="#63b8ff" points="218.07,-90.63 227.86,-94.67 222.73,-85.4 218.07,-90.63"/>
</a>
</g>
</g>
</g>
</svg>
