<?xml version="1.0" encoding="UTF-8" standalone="no"?>
<!DOCTYPE svg PUBLIC "-//W3C//DTD SVG 1.1//EN"
 "http://www.w3.org/Graphics/SVG/1.1/DTD/svg11.dtd">
<!-- Generated by graphviz version 12.2.1 (0)
 -->
<!-- Title: ShortcutManager::RegisterMainWindowShortcuts Pages: 1 -->
<svg width="328pt" height="158pt"
 viewBox="0.00 0.00 328.00 157.75" xmlns="http://www.w3.org/2000/svg" xmlns:xlink="http://www.w3.org/1999/xlink">
<g id="graph0" class="graph" transform="scale(1 1) rotate(0) translate(4 153.75)">
<title>ShortcutManager::RegisterMainWindowShortcuts</title>
<!-- Node1 -->
<g id="Node000001" class="node">
<title>Node1</title>
<g id="a_Node000001"><a xlink:title="Registers shortcuts specific to the main application window.">
<polygon fill="#999999" stroke="#666666" points="133,-81.75 0,-81.75 0,-52.75 133,-52.75 133,-81.75"/>
<text text-anchor="start" x="8" y="-68.25" font-family="Helvetica,sans-Serif" font-size="10.00">ShortcutManager::Register</text>
<text text-anchor="middle" x="66.5" y="-57.75" font-family="Helvetica,sans-Serif" font-size="10.00">MainWindowShortcuts</text>
</a>
</g>
</g>
<!-- Node2 -->
<g id="Node000002" class="node">
<title>Node2</title>
<g id="a_Node000002"><a xlink:href="classShortcutManager.html#a6305ee4ce31c956ea2c1d63b907e21cf" target="_top" xlink:title="Template helper function to create and connect a QShortcut.">
<polygon fill="white" stroke="#666666" points="316.25,-149.75 172.75,-149.75 172.75,-120.75 316.25,-120.75 316.25,-149.75"/>
<text text-anchor="start" x="180.75" y="-136.25" font-family="Helvetica,sans-Serif" font-size="10.00">ShortcutManager::CreateAnd</text>
<text text-anchor="middle" x="244.5" y="-125.75" font-family="Helvetica,sans-Serif" font-size="10.00">ConnectShortcut</text>
</a>
</g>
</g>
<!-- Node1&#45;&gt;Node2 -->
<g id="edge1_Node000001_Node000002" class="edge">
<title>Node1&#45;&gt;Node2</title>
<g id="a_edge1_Node000001_Node000002"><a xlink:title=" ">
<path fill="none" stroke="#63b8ff" d="M98.65,-82.2C118.53,-91.46 144.99,-103.26 169,-112.25 173.09,-113.78 177.33,-115.29 181.62,-116.76"/>
<polygon fill="#63b8ff" stroke="#63b8ff" points="180.3,-120.01 190.9,-119.85 182.51,-113.37 180.3,-120.01"/>
</a>
</g>
</g>
<!-- Node3 -->
<g id="Node000003" class="node">
<title>Node3</title>
<g id="a_Node000003"><a xlink:href="classNavbar.html#a35a159d5b981d7027d65c0b4d2e80669" target="_top" xlink:title="Emitted when the &quot;Generate Wavelength&quot; button is clicked.">
<polygon fill="white" stroke="#666666" points="309.88,-102.75 179.12,-102.75 179.12,-73.75 309.88,-73.75 309.88,-102.75"/>
<text text-anchor="start" x="187.12" y="-89.25" font-family="Helvetica,sans-Serif" font-size="10.00">Navbar::createWavelength</text>
<text text-anchor="middle" x="244.5" y="-78.75" font-family="Helvetica,sans-Serif" font-size="10.00">Clicked</text>
</a>
</g>
</g>
<!-- Node1&#45;&gt;Node3 -->
<g id="edge2_Node000001_Node000003" class="edge">
<title>Node1&#45;&gt;Node3</title>
<g id="a_edge2_Node000001_Node000003"><a xlink:title=" ">
<path fill="none" stroke="#63b8ff" d="M133.29,-75.1C144.42,-76.43 156.05,-77.82 167.42,-79.17"/>
<polygon fill="#63b8ff" stroke="#63b8ff" points="166.82,-82.63 177.17,-80.34 167.65,-75.68 166.82,-82.63"/>
</a>
</g>
</g>
<!-- Node4 -->
<g id="Node000004" class="node">
<title>Node4</title>
<g id="a_Node000004"><a xlink:href="classNavbar.html#a2300661cc6485278de90db3a5b572e0f" target="_top" xlink:title="Emitted when the &quot;Merge Wavelength&quot; button is clicked.">
<polygon fill="white" stroke="#666666" points="320,-55.5 169,-55.5 169,-37 320,-37 320,-55.5"/>
<text text-anchor="middle" x="244.5" y="-42" font-family="Helvetica,sans-Serif" font-size="10.00">Navbar::joinWavelengthClicked</text>
</a>
</g>
</g>
<!-- Node1&#45;&gt;Node4 -->
<g id="edge3_Node000001_Node000004" class="edge">
<title>Node1&#45;&gt;Node4</title>
<g id="a_edge3_Node000001_Node000004"><a xlink:title=" ">
<path fill="none" stroke="#63b8ff" d="M133.29,-59.4C141.12,-58.47 149.2,-57.5 157.26,-56.54"/>
<polygon fill="#63b8ff" stroke="#63b8ff" points="157.6,-60.02 167.12,-55.36 156.77,-53.07 157.6,-60.02"/>
</a>
</g>
</g>
<!-- Node5 -->
<g id="Node000005" class="node">
<title>Node5</title>
<g id="a_Node000005"><a xlink:href="classNavbar.html#ae5174435c781910c3a3a7a335d831a9e" target="_top" xlink:title="Emitted when the &quot;Settings&quot; button is clicked.">
<polygon fill="white" stroke="#666666" points="304.62,-18.5 184.38,-18.5 184.38,0 304.62,0 304.62,-18.5"/>
<text text-anchor="middle" x="244.5" y="-5" font-family="Helvetica,sans-Serif" font-size="10.00">Navbar::settingsClicked</text>
</a>
</g>
</g>
<!-- Node1&#45;&gt;Node5 -->
<g id="edge4_Node000001_Node000005" class="edge">
<title>Node1&#45;&gt;Node5</title>
<g id="a_edge4_Node000001_Node000005"><a xlink:title=" ">
<path fill="none" stroke="#63b8ff" d="M103.31,-52.31C122.58,-44.57 146.88,-35.3 169,-28.25 176.01,-26.02 183.46,-23.87 190.82,-21.86"/>
<polygon fill="#63b8ff" stroke="#63b8ff" points="191.64,-25.27 200.42,-19.33 189.85,-18.5 191.64,-25.27"/>
</a>
</g>
</g>
</g>
</svg>
