<?xml version="1.0" encoding="UTF-8" standalone="no"?>
<!DOCTYPE svg PUBLIC "-//W3C//DTD SVG 1.1//EN"
 "http://www.w3.org/Graphics/SVG/1.1/DTD/svg11.dtd">
<!-- Generated by graphviz version 12.2.1 (0)
 -->
<!-- Title: SecurityCodeLayer Pages: 1 -->
<svg width="154pt" height="656pt"
 viewBox="0.00 0.00 153.50 655.50" xmlns="http://www.w3.org/2000/svg" xmlns:xlink="http://www.w3.org/1999/xlink">
<g id="graph0" class="graph" transform="scale(1 1) rotate(0) translate(4 651.5)">
<title>SecurityCodeLayer</title>
<!-- Node1 -->
<g id="Node000001" class="node">
<title>Node1</title>
<g id="a_Node000001"><a xlink:title="A security layer requiring the user to enter a 4&#45;character security code.">
<polygon fill="#999999" stroke="none" points="145.5,-416 0,-416 0,0 145.5,0 145.5,-416"/>
<text text-anchor="start" x="31.5" y="-402.5" font-family="Helvetica,sans-Serif" font-size="10.00">SecurityCodeLayer</text>
<text text-anchor="start" x="5.5" y="-388" font-family="Helvetica,sans-Serif" font-size="10.00">&#45;</text>
<text text-anchor="start" x="14" y="-388" font-family="Helvetica,sans-Serif" font-size="10.00">QList&lt; QLineEdit *</text>
<text text-anchor="start" x="14" y="-377.5" font-family="Helvetica,sans-Serif" font-size="10.00"> &gt; code_inputs_</text>
<text text-anchor="start" x="5.5" y="-363" font-family="Helvetica,sans-Serif" font-size="10.00">&#45;</text>
<text text-anchor="start" x="14" y="-363" font-family="Helvetica,sans-Serif" font-size="10.00">QString current_security</text>
<text text-anchor="start" x="14" y="-352.5" font-family="Helvetica,sans-Serif" font-size="10.00">_code_</text>
<text text-anchor="start" x="5.5" y="-338" font-family="Helvetica,sans-Serif" font-size="10.00">&#45;</text>
<text text-anchor="start" x="14" y="-338" font-family="Helvetica,sans-Serif" font-size="10.00">bool is_current_code</text>
<text text-anchor="start" x="14" y="-327.5" font-family="Helvetica,sans-Serif" font-size="10.00">_numeric_</text>
<text text-anchor="start" x="5.5" y="-313" font-family="Helvetica,sans-Serif" font-size="10.00">&#45;</text>
<text text-anchor="start" x="14" y="-313" font-family="Helvetica,sans-Serif" font-size="10.00">QLabel * security_code</text>
<text text-anchor="start" x="14" y="-302.5" font-family="Helvetica,sans-Serif" font-size="10.00">_hint_</text>
<text text-anchor="start" x="5.5" y="-288" font-family="Helvetica,sans-Serif" font-size="10.00">&#45;</text>
<text text-anchor="start" x="14" y="-288" font-family="Helvetica,sans-Serif" font-size="10.00">QVector&lt; SecurityCode</text>
<text text-anchor="start" x="14" y="-277.5" font-family="Helvetica,sans-Serif" font-size="10.00"> &gt; security_codes_</text>
<text text-anchor="start" x="5.5" y="-263" font-family="Helvetica,sans-Serif" font-size="10.00">&#45;</text>
<text text-anchor="start" x="14" y="-263" font-family="Helvetica,sans-Serif" font-size="10.00">TranslationManager</text>
<text text-anchor="start" x="14" y="-252.5" font-family="Helvetica,sans-Serif" font-size="10.00"> * translator_</text>
<text text-anchor="start" x="4" y="-238" font-family="Helvetica,sans-Serif" font-size="10.00">+</text>
<text text-anchor="start" x="14" y="-238" font-family="Helvetica,sans-Serif" font-size="10.00">void Initialize() override</text>
<text text-anchor="start" x="4" y="-223.5" font-family="Helvetica,sans-Serif" font-size="10.00">+</text>
<text text-anchor="start" x="14" y="-223.5" font-family="Helvetica,sans-Serif" font-size="10.00">void Reset() override</text>
<text text-anchor="start" x="4" y="-209" font-family="Helvetica,sans-Serif" font-size="10.00">+</text>
<text text-anchor="start" x="14" y="-209" font-family="Helvetica,sans-Serif" font-size="10.00">SecurityCodeLayer</text>
<text text-anchor="start" x="14" y="-198.5" font-family="Helvetica,sans-Serif" font-size="10.00">(QWidget *parent=nullptr)</text>
<text text-anchor="start" x="4" y="-184" font-family="Helvetica,sans-Serif" font-size="10.00">+</text>
<text text-anchor="start" x="14" y="-184" font-family="Helvetica,sans-Serif" font-size="10.00">~SecurityCodeLayer</text>
<text text-anchor="start" x="14" y="-173.5" font-family="Helvetica,sans-Serif" font-size="10.00">() override</text>
<text text-anchor="start" x="4.38" y="-159" font-family="Helvetica,sans-Serif" font-size="10.00">#</text>
<text text-anchor="start" x="14" y="-159" font-family="Helvetica,sans-Serif" font-size="10.00">bool eventFilter(QObject</text>
<text text-anchor="start" x="14" y="-148.5" font-family="Helvetica,sans-Serif" font-size="10.00"> *obj, QEvent *event) override</text>
<text text-anchor="start" x="5.5" y="-134" font-family="Helvetica,sans-Serif" font-size="10.00">&#45;</text>
<text text-anchor="start" x="14" y="-134" font-family="Helvetica,sans-Serif" font-size="10.00">QString GetEnteredCode</text>
<text text-anchor="start" x="14" y="-123.5" font-family="Helvetica,sans-Serif" font-size="10.00">() const</text>
<text text-anchor="start" x="5.5" y="-109" font-family="Helvetica,sans-Serif" font-size="10.00">&#45;</text>
<text text-anchor="start" x="14" y="-109" font-family="Helvetica,sans-Serif" font-size="10.00">QString GetRandomSecurity</text>
<text text-anchor="start" x="14" y="-98.5" font-family="Helvetica,sans-Serif" font-size="10.00">Code(QString &amp;hint, bool</text>
<text text-anchor="start" x="14" y="-88" font-family="Helvetica,sans-Serif" font-size="10.00"> &amp;is_numeric)</text>
<text text-anchor="start" x="5.5" y="-73.5" font-family="Helvetica,sans-Serif" font-size="10.00">&#45;</text>
<text text-anchor="start" x="14" y="-73.5" font-family="Helvetica,sans-Serif" font-size="10.00">void ResetInputs()</text>
<text text-anchor="start" x="5.5" y="-59" font-family="Helvetica,sans-Serif" font-size="10.00">&#45;</text>
<text text-anchor="start" x="14" y="-59" font-family="Helvetica,sans-Serif" font-size="10.00">void SetInputValidators</text>
<text text-anchor="start" x="14" y="-48.5" font-family="Helvetica,sans-Serif" font-size="10.00">(bool numeric_only)</text>
<text text-anchor="start" x="5.5" y="-34" font-family="Helvetica,sans-Serif" font-size="10.00">&#45;</text>
<text text-anchor="start" x="14" y="-34" font-family="Helvetica,sans-Serif" font-size="10.00">void ShowErrorEffect()</text>
<text text-anchor="start" x="5.5" y="-19.5" font-family="Helvetica,sans-Serif" font-size="10.00">&#45;</text>
<text text-anchor="start" x="14" y="-19.5" font-family="Helvetica,sans-Serif" font-size="10.00">void CheckSecurityCode()</text>
<text text-anchor="start" x="5.5" y="-5" font-family="Helvetica,sans-Serif" font-size="10.00">&#45;</text>
<text text-anchor="start" x="14" y="-5" font-family="Helvetica,sans-Serif" font-size="10.00">void OnDigitEntered()</text>
<polygon fill="#666666" stroke="#666666" points="0,-399.5 0,-399.5 145.5,-399.5 145.5,-399.5 0,-399.5"/>
<polygon fill="#666666" stroke="#666666" points="0,-249.5 0,-249.5 12,-249.5 12,-249.5 0,-249.5"/>
<polygon fill="#666666" stroke="#666666" points="12,-249.5 12,-249.5 145.5,-249.5 145.5,-249.5 12,-249.5"/>
<polygon fill="none" stroke="#666666" points="0,0 0,-416 145.5,-416 145.5,0 0,0"/>
</a>
</g>
</g>
<!-- Node2 -->
<g id="Node000002" class="node">
<title>Node2</title>
<g id="a_Node000002"><a xlink:href="classSecurityLayer.html" target="_top" xlink:title="Abstract base class for individual security challenge layers.">
<polygon fill="white" stroke="none" points="135.75,-564 9.75,-564 9.75,-452 135.75,-452 135.75,-564"/>
<text text-anchor="start" x="43.12" y="-550.5" font-family="Helvetica,sans-Serif" font-size="10.00">SecurityLayer</text>
<text text-anchor="start" x="71.25" y="-536" font-family="Helvetica,sans-Serif" font-size="10.00"> </text>
<text text-anchor="start" x="13.75" y="-521.5" font-family="Helvetica,sans-Serif" font-size="10.00">+</text>
<text text-anchor="start" x="23.75" y="-521.5" font-family="Helvetica,sans-Serif" font-size="10.00">virtual void Initialize()=0</text>
<text text-anchor="start" x="13.75" y="-507" font-family="Helvetica,sans-Serif" font-size="10.00">+</text>
<text text-anchor="start" x="23.75" y="-507" font-family="Helvetica,sans-Serif" font-size="10.00">virtual void Reset()=0</text>
<text text-anchor="start" x="13.75" y="-492.5" font-family="Helvetica,sans-Serif" font-size="10.00">+</text>
<text text-anchor="start" x="23.75" y="-492.5" font-family="Helvetica,sans-Serif" font-size="10.00">SecurityLayer(QWidget</text>
<text text-anchor="start" x="23.75" y="-482" font-family="Helvetica,sans-Serif" font-size="10.00"> *parent=nullptr)</text>
<text text-anchor="start" x="13.75" y="-467.5" font-family="Helvetica,sans-Serif" font-size="10.00">+</text>
<text text-anchor="start" x="23.75" y="-467.5" font-family="Helvetica,sans-Serif" font-size="10.00">~SecurityLayer() override</text>
<text text-anchor="start" x="23.75" y="-457" font-family="Helvetica,sans-Serif" font-size="10.00">=default</text>
<polygon fill="#666666" stroke="#666666" points="9.75,-547.5 9.75,-547.5 135.75,-547.5 135.75,-547.5 9.75,-547.5"/>
<polygon fill="#666666" stroke="#666666" points="9.75,-533 9.75,-533 135.75,-533 135.75,-533 9.75,-533"/>
<polygon fill="none" stroke="#666666" points="9.75,-452 9.75,-564 135.75,-564 135.75,-452 9.75,-452"/>
</a>
</g>
</g>
<!-- Node2&#45;&gt;Node1 -->
<g id="edge1_Node000001_Node000002" class="edge">
<title>Node2&#45;&gt;Node1</title>
<g id="a_edge1_Node000001_Node000002"><a xlink:title=" ">
<path fill="none" stroke="#63b8ff" d="M72.75,-440.97C72.75,-432.97 72.75,-424.5 72.75,-415.71"/>
<polygon fill="none" stroke="#63b8ff" points="69.25,-440.83 72.75,-450.83 76.25,-440.83 69.25,-440.83"/>
</a>
</g>
</g>
<!-- Node3 -->
<g id="Node000003" class="node">
<title>Node3</title>
<g id="a_Node000003"><a xlink:title=" ">
<polygon fill="white" stroke="none" points="95.88,-647.5 49.62,-647.5 49.62,-600 95.88,-600 95.88,-647.5"/>
<text text-anchor="start" x="53.62" y="-634" font-family="Helvetica,sans-Serif" font-size="10.00">QWidget</text>
<text text-anchor="start" x="71.25" y="-619.5" font-family="Helvetica,sans-Serif" font-size="10.00"> </text>
<text text-anchor="start" x="71.25" y="-605" font-family="Helvetica,sans-Serif" font-size="10.00"> </text>
<polygon fill="#666666" stroke="#666666" points="49.62,-631 49.62,-631 95.88,-631 95.88,-631 49.62,-631"/>
<polygon fill="#666666" stroke="#666666" points="49.62,-616.5 49.62,-616.5 95.88,-616.5 95.88,-616.5 49.62,-616.5"/>
<polygon fill="none" stroke="#666666" points="49.62,-600 49.62,-647.5 95.88,-647.5 95.88,-600 49.62,-600"/>
</a>
</g>
</g>
<!-- Node3&#45;&gt;Node2 -->
<g id="edge2_Node000002_Node000003" class="edge">
<title>Node3&#45;&gt;Node2</title>
<g id="a_edge2_Node000002_Node000003"><a xlink:title=" ">
<path fill="none" stroke="#63b8ff" d="M72.75,-588.68C72.75,-580.81 72.75,-572.23 72.75,-563.71"/>
<polygon fill="none" stroke="#63b8ff" points="69.25,-588.49 72.75,-598.49 76.25,-588.49 69.25,-588.49"/>
</a>
</g>
</g>
</g>
</svg>
