<?xml version="1.0" encoding="UTF-8" standalone="no"?>
<!DOCTYPE svg PUBLIC "-//W3C//DTD SVG 1.1//EN"
 "http://www.w3.org/Graphics/SVG/1.1/DTD/svg11.dtd">
<!-- Generated by graphviz version 12.2.1 (0)
 -->
<!-- Title: AttachmentViewer::sizeHint Pages: 1 -->
<svg width="696pt" height="69pt"
 viewBox="0.00 0.00 696.00 68.75" xmlns="http://www.w3.org/2000/svg" xmlns:xlink="http://www.w3.org/1999/xlink">
<g id="graph0" class="graph" transform="scale(1 1) rotate(0) translate(4 64.75)">
<title>AttachmentViewer::sizeHint</title>
<!-- Node1 -->
<g id="Node000001" class="node">
<title>Node1</title>
<g id="a_Node000001"><a xlink:title="Returns the recommended size for the viewer based on its content and layout. Calculates the size need...">
<polygon fill="#999999" stroke="#666666" points="688,-41.75 551.25,-41.75 551.25,-23.25 688,-23.25 688,-41.75"/>
<text text-anchor="middle" x="619.62" y="-28.25" font-family="Helvetica,sans-Serif" font-size="10.00">AttachmentViewer::sizeHint</text>
</a>
</g>
</g>
<!-- Node2 -->
<g id="Node000002" class="node">
<title>Node2</title>
<g id="a_Node000002"><a xlink:href="classStreamMessage.html#a1a3ebf623b6477e510efeab5af62f390" target="_top" xlink:title="Adjusts the size of the message widget to fit its content, especially after an attachment has loaded....">
<polygon fill="white" stroke="#666666" points="515.25,-47 375.5,-47 375.5,-18 515.25,-18 515.25,-47"/>
<text text-anchor="start" x="383.5" y="-33.5" font-family="Helvetica,sans-Serif" font-size="10.00">StreamMessage::AdjustSize</text>
<text text-anchor="middle" x="445.38" y="-23" font-family="Helvetica,sans-Serif" font-size="10.00">ToContent</text>
</a>
</g>
</g>
<!-- Node1&#45;&gt;Node2 -->
<g id="edge1_Node000001_Node000002" class="edge">
<title>Node1&#45;&gt;Node2</title>
<g id="a_edge1_Node000001_Node000002"><a xlink:title=" ">
<path fill="none" stroke="#63b8ff" d="M539.79,-32.5C531.76,-32.5 523.66,-32.5 515.75,-32.5"/>
<polygon fill="#63b8ff" stroke="#63b8ff" points="539.53,-36 549.53,-32.5 539.53,-29 539.53,-36"/>
</a>
</g>
</g>
<!-- Node3 -->
<g id="Node000003" class="node">
<title>Node3</title>
<g id="a_Node000003"><a xlink:href="classStreamMessage.html#ab018e0c173fde148dec8f2441b5db300" target="_top" xlink:title="Parses HTML content to find an attachment placeholder and adds the corresponding AttachmentPlaceholde...">
<polygon fill="white" stroke="#666666" points="339.5,-60.75 178.75,-60.75 178.75,-42.25 339.5,-42.25 339.5,-60.75"/>
<text text-anchor="middle" x="259.12" y="-47.25" font-family="Helvetica,sans-Serif" font-size="10.00">StreamMessage::AddAttachment</text>
</a>
</g>
</g>
<!-- Node2&#45;&gt;Node3 -->
<g id="edge2_Node000002_Node000003" class="edge">
<title>Node2&#45;&gt;Node3</title>
<g id="a_edge2_Node000002_Node000003"><a xlink:title=" ">
<path fill="none" stroke="#63b8ff" d="M364.02,-40.79C356.01,-41.61 347.88,-42.45 339.87,-43.28"/>
<polygon fill="#63b8ff" stroke="#63b8ff" points="364.15,-44.29 373.74,-39.78 363.43,-37.33 364.15,-44.29"/>
</a>
</g>
</g>
<!-- Node4 -->
<g id="Node000004" class="node">
<title>Node4</title>
<g id="a_Node000004"><a xlink:href="classStreamMessage.html#a009bab0169fe961a273ffaf6783dfb15" target="_top" xlink:title="Updates the content of an existing message, typically used for progress updates. Cleans the new conte...">
<polygon fill="white" stroke="#666666" points="338.75,-23.75 179.5,-23.75 179.5,-5.25 338.75,-5.25 338.75,-23.75"/>
<text text-anchor="middle" x="259.12" y="-10.25" font-family="Helvetica,sans-Serif" font-size="10.00">StreamMessage::UpdateContent</text>
</a>
</g>
</g>
<!-- Node2&#45;&gt;Node4 -->
<g id="edge3_Node000002_Node000004" class="edge">
<title>Node2&#45;&gt;Node4</title>
<g id="a_edge3_Node000002_Node000004"><a xlink:title=" ">
<path fill="none" stroke="#63b8ff" d="M363.82,-24.63C355.67,-23.83 347.39,-23.03 339.25,-22.23"/>
<polygon fill="#63b8ff" stroke="#63b8ff" points="363.44,-28.11 373.74,-25.6 364.12,-21.14 363.44,-28.11"/>
</a>
</g>
</g>
<!-- Node5 -->
<g id="Node000005" class="node">
<title>Node5</title>
<g id="a_Node000005"><a xlink:href="classStreamDisplay.html#aba8774044f5e157e128c9429c67c5970" target="_top" xlink:title="Processes the next message from the message_queue_. Dequeues a message, checks if it&#39;s an update to a...">
<polygon fill="#fff0f0" stroke="red" points="142.75,-29 0,-29 0,0 142.75,0 142.75,-29"/>
<text text-anchor="start" x="8" y="-15.5" font-family="Helvetica,sans-Serif" font-size="10.00">StreamDisplay::ProcessNext</text>
<text text-anchor="middle" x="71.38" y="-5" font-family="Helvetica,sans-Serif" font-size="10.00">QueuedMessage</text>
</a>
</g>
</g>
<!-- Node4&#45;&gt;Node5 -->
<g id="edge4_Node000004_Node000005" class="edge">
<title>Node4&#45;&gt;Node5</title>
<g id="a_edge4_Node000004_Node000005"><a xlink:title=" ">
<path fill="none" stroke="#63b8ff" d="M167.81,-14.5C159.52,-14.5 151.2,-14.5 143.12,-14.5"/>
<polygon fill="#63b8ff" stroke="#63b8ff" points="167.57,-18 177.57,-14.5 167.57,-11 167.57,-18"/>
</a>
</g>
</g>
</g>
</svg>
