<?xml version="1.0" encoding="UTF-8" standalone="no"?>
<!DOCTYPE svg PUBLIC "-//W3C//DTD SVG 1.1//EN"
 "http://www.w3.org/Graphics/SVG/1.1/DTD/svg11.dtd">
<!-- Generated by graphviz version 12.2.1 (0)
 -->
<!-- Title: LongTextDisplayEffect::SetText Pages: 1 -->
<svg width="430pt" height="37pt"
 viewBox="0.00 0.00 430.25 37.00" xmlns="http://www.w3.org/2000/svg" xmlns:xlink="http://www.w3.org/1999/xlink">
<g id="graph0" class="graph" transform="scale(1 1) rotate(0) translate(4 33)">
<title>LongTextDisplayEffect::SetText</title>
<!-- Node1 -->
<g id="Node000001" class="node">
<title>Node1</title>
<g id="a_Node000001"><a xlink:title="Sets the text content to be displayed. Updates the internal original text, invalidates the processed ...">
<polygon fill="#999999" stroke="#666666" points="114.25,-29 0,-29 0,0 114.25,0 114.25,-29"/>
<text text-anchor="start" x="8" y="-15.5" font-family="Helvetica,sans-Serif" font-size="10.00">LongTextDisplayEffect</text>
<text text-anchor="middle" x="57.12" y="-5" font-family="Helvetica,sans-Serif" font-size="10.00">::SetText</text>
</a>
</g>
</g>
<!-- Node2 -->
<g id="Node000002" class="node">
<title>Node2</title>
<g id="a_Node000002"><a xlink:href="classLongTextDisplayEffect.html#a3c62e6c78599b4e8eac2ef62cdae7319" target="_top" xlink:title="Processes the original_text_ into wrapped lines based on the current widget width....">
<polygon fill="white" stroke="#666666" points="264.5,-29 150.25,-29 150.25,0 264.5,0 264.5,-29"/>
<text text-anchor="start" x="158.25" y="-15.5" font-family="Helvetica,sans-Serif" font-size="10.00">LongTextDisplayEffect</text>
<text text-anchor="middle" x="207.38" y="-5" font-family="Helvetica,sans-Serif" font-size="10.00">::ProcessText</text>
</a>
</g>
</g>
<!-- Node1&#45;&gt;Node2 -->
<g id="edge1_Node000001_Node000002" class="edge">
<title>Node1&#45;&gt;Node2</title>
<g id="a_edge1_Node000001_Node000002"><a xlink:title=" ">
<path fill="none" stroke="#63b8ff" d="M114.59,-14.5C122.49,-14.5 130.67,-14.5 138.75,-14.5"/>
<polygon fill="#63b8ff" stroke="#63b8ff" points="138.55,-18 148.55,-14.5 138.55,-11 138.55,-18"/>
</a>
</g>
</g>
<!-- Node3 -->
<g id="Node000003" class="node">
<title>Node3</title>
<g id="a_Node000003"><a xlink:href="classLongTextDisplayEffect.html#aa577c95b45549f021c2ca984f7e5f8b3" target="_top" xlink:title="Emitted after ProcessText() finishes, indicating the total calculated height required to display all ...">
<polygon fill="white" stroke="#666666" points="422.25,-29 300.5,-29 300.5,0 422.25,0 422.25,-29"/>
<text text-anchor="start" x="308.5" y="-15.5" font-family="Helvetica,sans-Serif" font-size="10.00">LongTextDisplayEffect</text>
<text text-anchor="middle" x="361.38" y="-5" font-family="Helvetica,sans-Serif" font-size="10.00">::contentHeightChanged</text>
</a>
</g>
</g>
<!-- Node2&#45;&gt;Node3 -->
<g id="edge2_Node000002_Node000003" class="edge">
<title>Node2&#45;&gt;Node3</title>
<g id="a_edge2_Node000002_Node000003"><a xlink:title=" ">
<path fill="none" stroke="#63b8ff" d="M264.97,-14.5C272.78,-14.5 280.87,-14.5 288.9,-14.5"/>
<polygon fill="#63b8ff" stroke="#63b8ff" points="288.65,-18 298.65,-14.5 288.65,-11 288.65,-18"/>
</a>
</g>
</g>
</g>
</svg>
