<?xml version="1.0" encoding="UTF-8" standalone="no"?>
<!DOCTYPE svg PUBLIC "-//W3C//DTD SVG 1.1//EN"
 "http://www.w3.org/Graphics/SVG/1.1/DTD/svg11.dtd">
<!-- Generated by graphviz version 12.2.1 (0)
 -->
<!-- Title: TextDisplayEffect::StartReveal Pages: 1 -->
<svg width="378pt" height="37pt"
 viewBox="0.00 0.00 377.75 37.00" xmlns="http://www.w3.org/2000/svg" xmlns:xlink="http://www.w3.org/1999/xlink">
<g id="graph0" class="graph" transform="scale(1 1) rotate(0) translate(4 33)">
<title>TextDisplayEffect::StartReveal</title>
<!-- Node1 -->
<g id="Node000001" class="node">
<title>Node1</title>
<g id="a_Node000001"><a xlink:title="Starts or restarts the text revealing animation from the beginning. If the text has been fully reveal...">
<polygon fill="#999999" stroke="#666666" points="99.25,-29 0,-29 0,0 99.25,0 99.25,-29"/>
<text text-anchor="start" x="8" y="-15.5" font-family="Helvetica,sans-Serif" font-size="10.00">TextDisplayEffect::</text>
<text text-anchor="middle" x="49.62" y="-5" font-family="Helvetica,sans-Serif" font-size="10.00">StartReveal</text>
</a>
</g>
</g>
<!-- Node2 -->
<g id="Node000002" class="node">
<title>Node2</title>
<g id="a_Node000002"><a xlink:href="classTextDisplayEffect.html#a743994a8ebe09bd1d4536a2e2ce4ee23" target="_top" xlink:title="Sets the number of revealed characters. Updates the internal count, triggers a repaint,...">
<polygon fill="white" stroke="#666666" points="234.5,-29 135.25,-29 135.25,0 234.5,0 234.5,-29"/>
<text text-anchor="start" x="143.25" y="-15.5" font-family="Helvetica,sans-Serif" font-size="10.00">TextDisplayEffect::</text>
<text text-anchor="middle" x="184.88" y="-5" font-family="Helvetica,sans-Serif" font-size="10.00">SetRevealedChars</text>
</a>
</g>
</g>
<!-- Node1&#45;&gt;Node2 -->
<g id="edge1_Node000001_Node000002" class="edge">
<title>Node1&#45;&gt;Node2</title>
<g id="a_edge1_Node000001_Node000002"><a xlink:title=" ">
<path fill="none" stroke="#63b8ff" d="M99.49,-14.5C107.36,-14.5 115.59,-14.5 123.7,-14.5"/>
<polygon fill="#63b8ff" stroke="#63b8ff" points="123.51,-18 133.51,-14.5 123.51,-11 123.51,-18"/>
</a>
</g>
</g>
<!-- Node3 -->
<g id="Node000003" class="node">
<title>Node3</title>
<g id="a_Node000003"><a xlink:href="classTextDisplayEffect.html#af2538be2d26c4f11de6f1198063f67e2" target="_top" xlink:title="Emitted exactly once when the text revealing animation completes for the first time after StartReveal...">
<polygon fill="white" stroke="#666666" points="369.75,-29 270.5,-29 270.5,0 369.75,0 369.75,-29"/>
<text text-anchor="start" x="278.5" y="-15.5" font-family="Helvetica,sans-Serif" font-size="10.00">TextDisplayEffect::</text>
<text text-anchor="middle" x="320.12" y="-5" font-family="Helvetica,sans-Serif" font-size="10.00">fullTextRevealed</text>
</a>
</g>
</g>
<!-- Node2&#45;&gt;Node3 -->
<g id="edge2_Node000002_Node000003" class="edge">
<title>Node2&#45;&gt;Node3</title>
<g id="a_edge2_Node000002_Node000003"><a xlink:title=" ">
<path fill="none" stroke="#63b8ff" d="M234.74,-14.5C242.61,-14.5 250.84,-14.5 258.95,-14.5"/>
<polygon fill="#63b8ff" stroke="#63b8ff" points="258.76,-18 268.76,-14.5 258.76,-11 258.76,-18"/>
</a>
</g>
</g>
</g>
</svg>
