<?xml version="1.0" encoding="UTF-8" standalone="no"?>
<!DOCTYPE svg PUBLIC "-//W3C//DTD SVG 1.1//EN"
 "http://www.w3.org/Graphics/SVG/1.1/DTD/svg11.dtd">
<!-- Generated by graphviz version 12.2.1 (0)
 -->
<!-- Title: AudioDecoder::ReadPacket Pages: 1 -->
<svg width="663pt" height="46pt"
 viewBox="0.00 0.00 663.00 45.50" xmlns="http://www.w3.org/2000/svg" xmlns:xlink="http://www.w3.org/1999/xlink">
<g id="graph0" class="graph" transform="scale(1 1) rotate(0) translate(4 41.5)">
<title>AudioDecoder::ReadPacket</title>
<!-- Node1 -->
<g id="Node000001" class="node">
<title>Node1</title>
<g id="a_Node000001"><a xlink:title="Custom read function for FFmpeg&#39;s AVIOContext. Reads data from the internal audio_data_ QByteArray bu...">
<polygon fill="#999999" stroke="#666666" points="655,-37.5 519,-37.5 519,-19 655,-19 655,-37.5"/>
<text text-anchor="middle" x="587" y="-24" font-family="Helvetica,sans-Serif" font-size="10.00">AudioDecoder::ReadPacket</text>
</a>
</g>
</g>
<!-- Node2 -->
<g id="Node000002" class="node">
<title>Node2</title>
<g id="a_Node000002"><a xlink:href="classAudioDecoder.html#a5cf09a96a04ce8afd751d985c71e4211" target="_top" xlink:title="Constructs an AudioDecoder object. Initializes internal state, allocates memory for FFmpeg&#39;s custom I...">
<polygon fill="white" stroke="#666666" points="483,-37.5 338,-37.5 338,-19 483,-19 483,-37.5"/>
<text text-anchor="middle" x="410.5" y="-24" font-family="Helvetica,sans-Serif" font-size="10.00">AudioDecoder::AudioDecoder</text>
</a>
</g>
</g>
<!-- Node1&#45;&gt;Node2 -->
<g id="edge1_Node000001_Node000002" class="edge">
<title>Node1&#45;&gt;Node2</title>
<g id="a_edge1_Node000001_Node000002"><a xlink:title=" ">
<path fill="none" stroke="#63b8ff" d="M507.08,-21.53C499.19,-21.48 491.22,-21.5 483.41,-21.59"/>
<polygon fill="#63b8ff" stroke="#63b8ff" points="506.98,-25.03 517.02,-21.64 507.06,-18.03 506.98,-25.03"/>
</a>
</g>
</g>
<!-- Node4 -->
<g id="Node000004" class="node">
<title>Node4</title>
<g id="a_Node000004"><a xlink:href="classAudioDecoder.html#a6948c3168d8c0c5a3badeeacf88f59bc" target="_top" xlink:title="Reinitializes the decoder after it has been stopped or encountered an error. Releases existing resour...">
<polygon fill="white" stroke="#666666" points="130,-18.5 0,-18.5 0,0 130,0 130,-18.5"/>
<text text-anchor="middle" x="65" y="-5" font-family="Helvetica,sans-Serif" font-size="10.00">AudioDecoder::Reinitialize</text>
</a>
</g>
</g>
<!-- Node1&#45;&gt;Node4 -->
<g id="edge6_Node000001_Node000004" class="edge">
<title>Node1&#45;&gt;Node4</title>
<g id="a_edge6_Node000001_Node000004"><a xlink:title=" ">
<path fill="none" stroke="#63b8ff" d="M529.17,-16.53C514.22,-13.94 498.06,-11.57 483,-10.25 358.6,0.69 212.51,-2.66 130.45,-6.01"/>
<polygon fill="#63b8ff" stroke="#63b8ff" points="528.38,-19.95 538.84,-18.28 529.62,-13.06 528.38,-19.95"/>
</a>
</g>
</g>
<!-- Node2&#45;&gt;Node1 -->
<g id="edge2_Node000002_Node000001" class="edge">
<title>Node2&#45;&gt;Node1</title>
<g id="a_edge2_Node000002_Node000001"><a xlink:title=" ">
<path fill="none" stroke="#63b8ff" d="M494.66,-34.99C502.66,-35.02 510.71,-34.97 518.53,-34.84"/>
<polygon fill="#63b8ff" stroke="#63b8ff" points="494.95,-31.5 484.93,-34.92 494.9,-38.5 494.95,-31.5"/>
</a>
</g>
</g>
<!-- Node3 -->
<g id="Node000003" class="node">
<title>Node3</title>
<g id="a_Node000003"><a xlink:href="classAudioDecoder.html#a5f63aa27abafaeded80d3688638ace64" target="_top" xlink:title="Custom seek function for FFmpeg&#39;s AVIOContext. Adjusts the internal read_position_ based on the offse...">
<polygon fill="white" stroke="#666666" points="302,-37.5 166,-37.5 166,-19 302,-19 302,-37.5"/>
<text text-anchor="middle" x="234" y="-24" font-family="Helvetica,sans-Serif" font-size="10.00">AudioDecoder::SeekPacket</text>
</a>
</g>
</g>
<!-- Node2&#45;&gt;Node3 -->
<g id="edge3_Node000002_Node000003" class="edge">
<title>Node2&#45;&gt;Node3</title>
<g id="a_edge3_Node000002_Node000003"><a xlink:title=" ">
<path fill="none" stroke="#63b8ff" d="M326.24,-21.51C318.23,-21.48 310.17,-21.53 302.33,-21.66"/>
<polygon fill="#63b8ff" stroke="#63b8ff" points="325.98,-25 336,-21.58 326.03,-18 325.98,-25"/>
</a>
</g>
</g>
<!-- Node3&#45;&gt;Node2 -->
<g id="edge4_Node000003_Node000002" class="edge">
<title>Node3&#45;&gt;Node2</title>
<g id="a_edge4_Node000003_Node000002"><a xlink:title=" ">
<path fill="none" stroke="#63b8ff" d="M313.81,-34.97C321.7,-35.02 329.7,-35 337.52,-34.91"/>
<polygon fill="#63b8ff" stroke="#63b8ff" points="313.89,-31.47 303.85,-34.86 313.81,-38.47 313.89,-31.47"/>
</a>
</g>
</g>
<!-- Node3&#45;&gt;Node4 -->
<g id="edge5_Node000003_Node000004" class="edge">
<title>Node3&#45;&gt;Node4</title>
<g id="a_edge5_Node000003_Node000004"><a xlink:title=" ">
<path fill="none" stroke="#63b8ff" d="M154.32,-19.3C146.32,-18.39 138.27,-17.47 130.45,-16.58"/>
<polygon fill="#63b8ff" stroke="#63b8ff" points="153.72,-22.75 164.05,-20.41 154.51,-15.8 153.72,-22.75"/>
</a>
</g>
</g>
</g>
</svg>
