<?xml version="1.0" encoding="UTF-8" standalone="no"?>
<!DOCTYPE svg PUBLIC "-//W3C//DTD SVG 1.1//EN"
 "http://www.w3.org/Graphics/SVG/1.1/DTD/svg11.dtd">
<!-- Generated by graphviz version 12.2.1 (0)
 -->
<!-- Title: AnimatedStackedWidget::AnimatedStackedWidget Pages: 1 -->
<svg width="299pt" height="131pt"
 viewBox="0.00 0.00 298.75 131.00" xmlns="http://www.w3.org/2000/svg" xmlns:xlink="http://www.w3.org/1999/xlink">
<g id="graph0" class="graph" transform="scale(1 1) rotate(0) translate(4 127)">
<title>AnimatedStackedWidget::AnimatedStackedWidget</title>
<!-- Node1 -->
<g id="Node000001" class="node">
<title>Node1</title>
<g id="a_Node000001"><a xlink:title="Constructs an AnimatedStackedWidget. Initializes the animation group, sound effect,...">
<polygon fill="#999999" stroke="#666666" points="129.25,-76 0,-76 0,-47 129.25,-47 129.25,-76"/>
<text text-anchor="start" x="8" y="-62.5" font-family="Helvetica,sans-Serif" font-size="10.00">AnimatedStackedWidget</text>
<text text-anchor="middle" x="64.62" y="-52" font-family="Helvetica,sans-Serif" font-size="10.00">::AnimatedStackedWidget</text>
</a>
</g>
</g>
<!-- Node2 -->
<g id="Node000002" class="node">
<title>Node2</title>
<g id="a_Node000002"><a xlink:href="classAnimatedStackedWidget.html#a57cdf55739292d948ecdd6f97cba09c0" target="_top" xlink:title="Cleans up graphics effects and resets widget geometries after an animation finishes....">
<polygon fill="white" stroke="#666666" points="289.62,-123 166.38,-123 166.38,-94 289.62,-94 289.62,-123"/>
<text text-anchor="start" x="174.38" y="-109.5" font-family="Helvetica,sans-Serif" font-size="10.00">AnimatedStackedWidget</text>
<text text-anchor="middle" x="228" y="-99" font-family="Helvetica,sans-Serif" font-size="10.00">::CleanupAfterAnimation</text>
</a>
</g>
</g>
<!-- Node1&#45;&gt;Node2 -->
<g id="edge1_Node000001_Node000002" class="edge">
<title>Node1&#45;&gt;Node2</title>
<g id="a_edge1_Node000001_Node000002"><a xlink:title=" ">
<path fill="none" stroke="#63b8ff" d="M116.69,-76.37C131.99,-80.83 148.95,-85.77 164.88,-90.41"/>
<polygon fill="#63b8ff" stroke="#63b8ff" points="163.69,-93.71 174.27,-93.14 165.64,-86.98 163.69,-93.71"/>
</a>
</g>
</g>
<!-- Node3 -->
<g id="Node000003" class="node">
<title>Node3</title>
<g id="a_Node000003"><a xlink:href="classAnimatedStackedWidget.html#a982b403ae8613bf907ad3fcef9b2db34" target="_top" xlink:title="Slot called when the OpenGL transition animation finishes. Hides the OpenGL widget,...">
<polygon fill="white" stroke="#666666" points="290.75,-76 165.25,-76 165.25,-47 290.75,-47 290.75,-76"/>
<text text-anchor="start" x="173.25" y="-62.5" font-family="Helvetica,sans-Serif" font-size="10.00">AnimatedStackedWidget</text>
<text text-anchor="middle" x="228" y="-52" font-family="Helvetica,sans-Serif" font-size="10.00">::OnGLTransitionFinished</text>
</a>
</g>
</g>
<!-- Node1&#45;&gt;Node3 -->
<g id="edge2_Node000001_Node000003" class="edge">
<title>Node1&#45;&gt;Node3</title>
<g id="a_edge2_Node000001_Node000003"><a xlink:title=" ">
<path fill="none" stroke="#63b8ff" d="M129.4,-61.5C137.37,-61.5 145.56,-61.5 153.66,-61.5"/>
<polygon fill="#63b8ff" stroke="#63b8ff" points="153.49,-65 163.49,-61.5 153.49,-58 153.49,-65"/>
</a>
</g>
</g>
<!-- Node4 -->
<g id="Node000004" class="node">
<title>Node4</title>
<g id="a_Node000004"><a xlink:href="classGLTransitionWidget.html#a5a60a614a06573740a7499ce5e52439d" target="_top" xlink:title="Emitted when the transition animation (QPropertyAnimation) finishes.">
<polygon fill="white" stroke="#666666" points="278.38,-29 177.62,-29 177.62,0 278.38,0 278.38,-29"/>
<text text-anchor="start" x="185.62" y="-15.5" font-family="Helvetica,sans-Serif" font-size="10.00">GLTransitionWidget</text>
<text text-anchor="middle" x="228" y="-5" font-family="Helvetica,sans-Serif" font-size="10.00">::transitionFinished</text>
</a>
</g>
</g>
<!-- Node1&#45;&gt;Node4 -->
<g id="edge3_Node000001_Node000004" class="edge">
<title>Node1&#45;&gt;Node4</title>
<g id="a_edge3_Node000001_Node000004"><a xlink:title=" ">
<path fill="none" stroke="#63b8ff" d="M116.69,-46.63C132.59,-42 150.28,-36.84 166.76,-32.05"/>
<polygon fill="#63b8ff" stroke="#63b8ff" points="167.3,-35.53 175.92,-29.38 165.34,-28.81 167.3,-35.53"/>
</a>
</g>
</g>
</g>
</svg>
