<?xml version="1.0" encoding="UTF-8" standalone="no"?>
<!DOCTYPE svg PUBLIC "-//W3C//DTD SVG 1.1//EN"
 "http://www.w3.org/Graphics/SVG/1.1/DTD/svg11.dtd">
<!-- Generated by graphviz version 12.2.1 (0)
 -->
<!-- Title: AudioPlayer::IncreaseSpectrumIntensity Pages: 1 -->
<svg width="511pt" height="64pt"
 viewBox="0.00 0.00 510.50 63.50" xmlns="http://www.w3.org/2000/svg" xmlns:xlink="http://www.w3.org/1999/xlink">
<g id="graph0" class="graph" transform="scale(1 1) rotate(0) translate(4 59.5)">
<title>AudioPlayer::IncreaseSpectrumIntensity</title>
<!-- Node1 -->
<g id="Node000001" class="node">
<title>Node1</title>
<g id="a_Node000001"><a xlink:title="Starts an animation to increase the spectrum intensity (e.g., when playback starts).">
<polygon fill="#999999" stroke="#666666" points="502.5,-41.75 349.25,-41.75 349.25,-12.75 502.5,-12.75 502.5,-41.75"/>
<text text-anchor="start" x="357.25" y="-28.25" font-family="Helvetica,sans-Serif" font-size="10.00">AudioPlayer::IncreaseSpectrum</text>
<text text-anchor="middle" x="425.88" y="-17.75" font-family="Helvetica,sans-Serif" font-size="10.00">Intensity</text>
</a>
</g>
</g>
<!-- Node2 -->
<g id="Node000002" class="node">
<title>Node2</title>
<g id="a_Node000002"><a xlink:href="classAudioPlayer.html#a51a8f1193d8003041b9771fec6b5ee19" target="_top" xlink:title="Slot called when the user releases the progress slider. Performs the actual seek operation based on t...">
<polygon fill="white" stroke="#666666" points="313.25,-55.5 161.5,-55.5 161.5,-37 313.25,-37 313.25,-55.5"/>
<text text-anchor="middle" x="237.38" y="-42" font-family="Helvetica,sans-Serif" font-size="10.00">AudioPlayer::OnSliderReleased</text>
</a>
</g>
</g>
<!-- Node1&#45;&gt;Node2 -->
<g id="edge1_Node000001_Node000002" class="edge">
<title>Node1&#45;&gt;Node2</title>
<g id="a_edge1_Node000001_Node000002"><a xlink:title=" ">
<path fill="none" stroke="#63b8ff" d="M337.69,-36.13C329.62,-36.95 321.5,-37.78 313.56,-38.59"/>
<polygon fill="#63b8ff" stroke="#63b8ff" points="337.92,-39.63 347.51,-35.13 337.21,-32.66 337.92,-39.63"/>
</a>
</g>
</g>
<!-- Node4 -->
<g id="Node000004" class="node">
<title>Node4</title>
<g id="a_Node000004"><a xlink:href="classAudioPlayer.html#afd42f1d9043e96d8b8ce55f7afd08483" target="_top" xlink:title="Toggles the playback state (play/pause). Activates the player if necessary. Handles restarting playba...">
<polygon fill="white" stroke="#666666" points="308.75,-18.5 166,-18.5 166,0 308.75,0 308.75,-18.5"/>
<text text-anchor="middle" x="237.38" y="-5" font-family="Helvetica,sans-Serif" font-size="10.00">AudioPlayer::TogglePlayback</text>
</a>
</g>
</g>
<!-- Node1&#45;&gt;Node4 -->
<g id="edge3_Node000001_Node000004" class="edge">
<title>Node1&#45;&gt;Node4</title>
<g id="a_edge3_Node000001_Node000004"><a xlink:title=" ">
<path fill="none" stroke="#63b8ff" d="M337.78,-18.84C328.15,-17.92 318.44,-16.98 309.05,-16.07"/>
<polygon fill="#63b8ff" stroke="#63b8ff" points="337.22,-22.31 347.51,-19.78 337.89,-15.34 337.22,-22.31"/>
</a>
</g>
</g>
<!-- Node3 -->
<g id="Node000003" class="node">
<title>Node3</title>
<g id="a_Node000003"><a xlink:href="classAudioPlayer.html#a4da9701f61a9eb8e270edbf995c72755" target="_top" xlink:title="Constructs an InlineAudioPlayer widget. Initializes UI elements (labels, buttons, sliders,...">
<polygon fill="white" stroke="#666666" points="125.5,-36.5 0,-36.5 0,-18 125.5,-18 125.5,-36.5"/>
<text text-anchor="middle" x="62.75" y="-23" font-family="Helvetica,sans-Serif" font-size="10.00">AudioPlayer::AudioPlayer</text>
</a>
</g>
</g>
<!-- Node2&#45;&gt;Node3 -->
<g id="edge2_Node000002_Node000003" class="edge">
<title>Node2&#45;&gt;Node3</title>
<g id="a_edge2_Node000002_Node000003"><a xlink:title=" ">
<path fill="none" stroke="#63b8ff" d="M149.75,-36.72C141.67,-35.83 133.58,-34.94 125.79,-34.08"/>
<polygon fill="#63b8ff" stroke="#63b8ff" points="149.33,-40.19 159.66,-37.81 150.1,-33.23 149.33,-40.19"/>
</a>
</g>
</g>
<!-- Node4&#45;&gt;Node3 -->
<g id="edge4_Node000004_Node000003" class="edge">
<title>Node4&#45;&gt;Node3</title>
<g id="a_edge4_Node000004_Node000003"><a xlink:title=" ">
<path fill="none" stroke="#63b8ff" d="M154.42,-17.8C144.78,-18.8 135.08,-19.81 125.78,-20.78"/>
<polygon fill="#63b8ff" stroke="#63b8ff" points="154.58,-21.3 164.16,-16.78 153.85,-14.34 154.58,-21.3"/>
</a>
</g>
</g>
</g>
</svg>
