<?xml version="1.0" encoding="UTF-8" standalone="no"?>
<!DOCTYPE svg PUBLIC "-//W3C//DTD SVG 1.1//EN"
 "http://www.w3.org/Graphics/SVG/1.1/DTD/svg11.dtd">
<!-- Generated by graphviz version 12.2.1 (0)
 -->
<!-- Title: MessageProcessor::MessageProcessor Pages: 1 -->
<!--zoomable 178 -->

<svg id="main" version="1.1" xmlns="http://www.w3.org/2000/svg" xmlns:xlink="http://www.w3.org/1999/xlink" xml:space="preserve" onload="init(evt)">

<style type="text/css"><![CDATA[
.node, .edge {opacity: 0.7;}
.node.selected, .edge.selected {opacity: 1;}
.edge:hover path { stroke: red; }
.edge:hover polygon { stroke: red; fill: red; }
]]></style>

<defs>
  <circle id="rim" cx="0" cy="0" r="7"/>
  <circle id="rim2" cx="0" cy="0" r="3.5"/>
  <g id="zoomPlus">
    <use xlink:href="#rim" fill="#404040"><set attributeName="fill" to="#808080" begin="zoomplus.mouseover" end="zoomplus.mouseout"/></use>
    <path d="M-4,0h8M0,-4v8" fill="none" stroke="white" stroke-width="1.5" pointer-events="none"/>
  </g>
  <g id="zoomMin">
    <use xlink:href="#rim" fill="#404040"><set attributeName="fill" to="#808080" begin="zoomminus.mouseover" end="zoomminus.mouseout"/></use>
    <path d="M-4,0h8" fill="none" stroke="white" stroke-width="1.5" pointer-events="none"/>
  </g>
  <g id="arrowUp" transform="translate(30 24)">
    <use xlink:href="#rim"/>
    <path pointer-events="none" fill="none" stroke="white" stroke-width="1.5" d="M0,-3.0v7 M-2.5,-0.5L0,-3.0L2.5,-0.5"/>
  </g>
  <g id="arrowRight" transform="rotate(90) translate(36 -43)">
    <use xlink:href="#rim"/>
    <path pointer-events="none" fill="none" stroke="white" stroke-width="1.5" d="M0,-3.0v7 M-2.5,-0.5L0,-3.0L2.5,-0.5"/>
  </g>
  <g id="arrowDown" transform="rotate(180) translate(-30 -48)">
    <use xlink:href="#rim"/>
    <path pointer-events="none" fill="none" stroke="white" stroke-width="1.5" d="M0,-3.0v7 M-2.5,-0.5L0,-3.0L2.5,-0.5"/>
  </g>
  <g id="arrowLeft" transform="rotate(270) translate(-36 17)">
    <use xlink:href="#rim"/>
    <path pointer-events="none" fill="none" stroke="white" stroke-width="1.5" d="M0,-3.0v7 M-2.5,-0.5L0,-3.0L2.5,-0.5"/>
  </g>
  <g id="resetDef">
    <use xlink:href="#rim2" fill="#404040"><set attributeName="fill" to="#808080" begin="reset.mouseover" end="reset.mouseout"/></use>
  </g>
</defs>
<script type="application/ecmascript">
var viewWidth = 700;
var viewHeight = 178;
var sectionId = 'dynsection-3';
</script>
<script type="application/ecmascript" xlink:href="svg.min.js"/>
<svg id="graph" class="graph">
<g id="viewport">
<title>MessageProcessor::MessageProcessor</title>
<!-- Node1 -->
<g id="Node000001" class="node">
<title>Node1</title>
<g id="a_Node000001"><a xlink:title="Deleted copy constructor to prevent copying.">
<polygon fill="#999999" stroke="#666666" points="691.75,-104 546,-104 546,-75 691.75,-75 691.75,-104"/>
<text text-anchor="start" x="554" y="-90.5" font-family="Helvetica,sans-Serif" font-size="10.00">MessageProcessor::Message</text>
<text text-anchor="middle" x="618.88" y="-80" font-family="Helvetica,sans-Serif" font-size="10.00">Processor</text>
</a>
</g>
</g>
<!-- Node1&#45;&gt;Node1 -->
<g id="edge9_Node000001_Node000001" class="edge">
<title>Node1&#45;&gt;Node1</title>
<g id="a_edge9_Node000001_Node000001"><a xlink:title=" ">
<path fill="none" stroke="#63b8ff" d="M650.87,-115.56C645.85,-119.41 635.18,-122 618.88,-122 589.05,-122 578.1,-113.32 586.02,-104.21"/>
<polygon fill="#63b8ff" stroke="#63b8ff" points="654.35,-115.95 651.61,-105.72 647.37,-115.42 654.35,-115.95"/>
</a>
</g>
</g>
<!-- Node2 -->
<g id="Node000002" class="node">
<title>Node2</title>
<g id="a_Node000002"><a xlink:href="classMessageProcessor.html#a26caf4168e131060a69bec30612f7596" target="_top" xlink:title="Gets the singleton instance of the MessageProcessor.">
<polygon fill="white" stroke="#666666" points="510,-117.75 350.75,-117.75 350.75,-99.25 510,-99.25 510,-117.75"/>
<text text-anchor="middle" x="430.38" y="-104.25" font-family="Helvetica,sans-Serif" font-size="10.00">MessageProcessor::GetInstance</text>
</a>
</g>
</g>
<!-- Node1&#45;&gt;Node2 -->
<g id="edge1_Node000001_Node000002" class="edge">
<title>Node1&#45;&gt;Node2</title>
<g id="a_edge1_Node000001_Node000002"><a xlink:title=" ">
<path fill="none" stroke="#63b8ff" d="M534.27,-98.02C526.26,-98.83 518.16,-99.66 510.2,-100.47"/>
<polygon fill="#63b8ff" stroke="#63b8ff" points="534.4,-101.52 544,-97.03 533.69,-94.56 534.4,-101.52"/>
</a>
</g>
</g>
<!-- Node11 -->
<g id="Node000011" class="node">
<title>Node11</title>
<g id="a_Node000011"><a xlink:href="classMessageProcessor.html#a8703a2eb9fada1fddf7a7a1805490e6f" target="_top" xlink:title="Deleted assignment operator to prevent assignment.">
<polygon fill="white" stroke="#666666" points="504,-80.75 356.75,-80.75 356.75,-62.25 504,-62.25 504,-80.75"/>
<text text-anchor="middle" x="430.38" y="-67.25" font-family="Helvetica,sans-Serif" font-size="10.00">MessageProcessor::operator=</text>
</a>
</g>
</g>
<!-- Node1&#45;&gt;Node11 -->
<g id="edge10_Node000001_Node000011" class="edge">
<title>Node1&#45;&gt;Node11</title>
<g id="a_edge10_Node000001_Node000011"><a xlink:title=" ">
<path fill="none" stroke="#63b8ff" d="M534.3,-81.43C524.3,-80.47 514.15,-79.49 504.32,-78.54"/>
<polygon fill="#63b8ff" stroke="#63b8ff" points="533.71,-84.89 544,-82.37 534.38,-77.92 533.71,-84.89"/>
</a>
</g>
</g>
<!-- Node3 -->
<g id="Node000003" class="node">
<title>Node3</title>
<g id="a_Node000003"><a xlink:href="classSessionCoordinator.html#a0a388bb572398d11b8959eac0a8e612f" target="_top" xlink:title="Connects signals between the various Wavelength components. Called during Initialize().">
<polygon fill="white" stroke="#666666" points="282.12,-170 180.62,-170 180.62,-141 282.12,-141 282.12,-170"/>
<text text-anchor="start" x="188.62" y="-156.5" font-family="Helvetica,sans-Serif" font-size="10.00">SessionCoordinator</text>
<text text-anchor="middle" x="231.38" y="-146" font-family="Helvetica,sans-Serif" font-size="10.00">::ConnectSignals</text>
</a>
</g>
</g>
<!-- Node2&#45;&gt;Node3 -->
<g id="edge2_Node000002_Node000003" class="edge">
<title>Node2&#45;&gt;Node3</title>
<g id="a_edge2_Node000002_Node000003"><a xlink:title=" ">
<path fill="none" stroke="#63b8ff" d="M377.68,-120.83C348.31,-127.84 311.71,-136.57 282.59,-143.52"/>
<polygon fill="#63b8ff" stroke="#63b8ff" points="378.17,-124.31 387.08,-118.59 376.54,-117.51 378.17,-124.31"/>
</a>
</g>
</g>
<!-- Node5 -->
<g id="Node000005" class="node">
<title>Node5</title>
<g id="a_Node000005"><a xlink:href="classWavelengthCreator.html#aceda419aab0bae7f3323bedfcb0ad6d1" target="_top" xlink:title="Attempts to create and register a new wavelength with the relay server. Checks if the wavelength alre...">
<polygon fill="white" stroke="#666666" points="283.62,-123 179.12,-123 179.12,-94 283.62,-94 283.62,-123"/>
<text text-anchor="start" x="187.12" y="-109.5" font-family="Helvetica,sans-Serif" font-size="10.00">WavelengthCreator::</text>
<text text-anchor="middle" x="231.38" y="-99" font-family="Helvetica,sans-Serif" font-size="10.00">CreateWavelength</text>
</a>
</g>
</g>
<!-- Node2&#45;&gt;Node5 -->
<g id="edge4_Node000002_Node000005" class="edge">
<title>Node2&#45;&gt;Node5</title>
<g id="a_edge4_Node000002_Node000005"><a xlink:title=" ">
<path fill="none" stroke="#63b8ff" d="M339.01,-108.5C320.12,-108.5 300.83,-108.5 283.94,-108.5"/>
<polygon fill="#63b8ff" stroke="#63b8ff" points="338.87,-112 348.87,-108.5 338.87,-105 338.87,-112"/>
</a>
</g>
</g>
<!-- Node7 -->
<g id="Node000007" class="node">
<title>Node7</title>
<g id="a_Node000007"><a xlink:href="classWavelengthJoiner.html#a10830ee7f998cc18b6df1949455ae98e" target="_top" xlink:title="Attempts to join an existing wavelength hosted on the relay server. Checks if the wavelength is alrea...">
<polygon fill="white" stroke="#666666" points="314.75,-70.75 148,-70.75 148,-52.25 314.75,-52.25 314.75,-70.75"/>
<text text-anchor="middle" x="231.38" y="-57.25" font-family="Helvetica,sans-Serif" font-size="10.00">WavelengthJoiner::JoinWavelength</text>
</a>
</g>
</g>
<!-- Node2&#45;&gt;Node7 -->
<g id="edge6_Node000002_Node000007" class="edge">
<title>Node2&#45;&gt;Node7</title>
<g id="a_edge6_Node000002_Node000007"><a xlink:title=" ">
<path fill="none" stroke="#63b8ff" d="M377.42,-96.11C344.82,-88.33 303.37,-78.44 273.14,-71.23"/>
<polygon fill="#63b8ff" stroke="#63b8ff" points="376.54,-99.49 387.08,-98.41 378.17,-92.69 376.54,-99.49"/>
</a>
</g>
</g>
<!-- Node4 -->
<g id="Node000004" class="node">
<title>Node4</title>
<g id="a_Node000004"><a xlink:href="classSessionCoordinator.html#a34a0ef1f02508f6cfd0b8d60164be83a" target="_top" xlink:title="Initializes the coordinator and its underlying components. Connects signals between various Wavelengt...">
<polygon fill="white" stroke="#666666" points="106.75,-170 5.25,-170 5.25,-141 106.75,-141 106.75,-170"/>
<text text-anchor="start" x="13.25" y="-156.5" font-family="Helvetica,sans-Serif" font-size="10.00">SessionCoordinator</text>
<text text-anchor="middle" x="56" y="-146" font-family="Helvetica,sans-Serif" font-size="10.00">::Initialize</text>
</a>
</g>
</g>
<!-- Node3&#45;&gt;Node4 -->
<g id="edge3_Node000003_Node000004" class="edge">
<title>Node3&#45;&gt;Node4</title>
<g id="a_edge3_Node000003_Node000004"><a xlink:title=" ">
<path fill="none" stroke="#63b8ff" d="M168.89,-155.5C148.62,-155.5 126.34,-155.5 107.03,-155.5"/>
<polygon fill="#63b8ff" stroke="#63b8ff" points="168.71,-159 178.71,-155.5 168.71,-152 168.71,-159"/>
</a>
</g>
</g>
<!-- Node6 -->
<g id="Node000006" class="node">
<title>Node6</title>
<g id="a_Node000006"><a xlink:href="classSessionCoordinator.html#ad439996ffc2f1a6fc57835502c69ce7d" target="_top" xlink:title="Initiates the creation of a new wavelength. Delegates the call to WavelengthCreator and registers the...">
<polygon fill="white" stroke="#666666" points="106.75,-123 5.25,-123 5.25,-94 106.75,-94 106.75,-123"/>
<text text-anchor="start" x="13.25" y="-109.5" font-family="Helvetica,sans-Serif" font-size="10.00">SessionCoordinator</text>
<text text-anchor="middle" x="56" y="-99" font-family="Helvetica,sans-Serif" font-size="10.00">::CreateWavelength</text>
</a>
</g>
</g>
<!-- Node5&#45;&gt;Node6 -->
<g id="edge5_Node000005_Node000006" class="edge">
<title>Node5&#45;&gt;Node6</title>
<g id="a_edge5_Node000005_Node000006"><a xlink:title=" ">
<path fill="none" stroke="#63b8ff" d="M167.4,-108.5C147.58,-108.5 125.96,-108.5 107.16,-108.5"/>
<polygon fill="#63b8ff" stroke="#63b8ff" points="167.31,-112 177.31,-108.5 167.31,-105 167.31,-112"/>
</a>
</g>
</g>
<!-- Node8 -->
<g id="Node000008" class="node">
<title>Node8</title>
<g id="a_Node000008"><a xlink:href="classSessionCoordinator.html#a78a62f7f321920c128757ee20568a972" target="_top" xlink:title="Initiates joining an existing wavelength. Delegates the call to WavelengthJoiner and registers the wa...">
<polygon fill="white" stroke="#666666" points="106.75,-76 5.25,-76 5.25,-47 106.75,-47 106.75,-76"/>
<text text-anchor="start" x="13.25" y="-62.5" font-family="Helvetica,sans-Serif" font-size="10.00">SessionCoordinator</text>
<text text-anchor="middle" x="56" y="-52" font-family="Helvetica,sans-Serif" font-size="10.00">::JoinWavelength</text>
</a>
</g>
</g>
<!-- Node7&#45;&gt;Node8 -->
<g id="edge7_Node000007_Node000008" class="edge">
<title>Node7&#45;&gt;Node8</title>
<g id="a_edge7_Node000007_Node000008"><a xlink:title=" ">
<path fill="none" stroke="#63b8ff" d="M136.3,-61.5C126.18,-61.5 116.2,-61.5 106.91,-61.5"/>
<polygon fill="#63b8ff" stroke="#63b8ff" points="136.24,-65 146.24,-61.5 136.24,-58 136.24,-65"/>
</a>
</g>
</g>
<!-- Node9 -->
<g id="Node000009" class="node">
<title>Node9</title>
<g id="a_Node000009"><a xlink:href="classJoinWavelengthDialog.html#a0cb74ecdcc726cea2ce437c85cd75185" target="_top" xlink:title="Attempts to join the wavelength using the entered frequency and password. Shows a wait cursor,...">
<polygon fill="#fff0f0" stroke="red" points="112,-29 0,-29 0,0 112,0 112,-29"/>
<text text-anchor="start" x="8" y="-15.5" font-family="Helvetica,sans-Serif" font-size="10.00">JoinWavelengthDialog</text>
<text text-anchor="middle" x="56" y="-5" font-family="Helvetica,sans-Serif" font-size="10.00">::TryJoin</text>
</a>
</g>
</g>
<!-- Node7&#45;&gt;Node9 -->
<g id="edge8_Node000007_Node000009" class="edge">
<title>Node7&#45;&gt;Node9</title>
<g id="a_edge8_Node000007_Node000009"><a xlink:title=" ">
<path fill="none" stroke="#63b8ff" d="M183.37,-48.76C161.34,-42.79 134.96,-35.63 112.01,-29.41"/>
<polygon fill="#63b8ff" stroke="#63b8ff" points="182.42,-52.13 192.99,-51.37 184.25,-45.37 182.42,-52.13"/>
</a>
</g>
</g>
</g>
</svg>

<g id="navigator" transform="translate(0 0)" fill="#404254">
  <rect fill="#f2f5e9" fill-opacity="0.5" stroke="#606060" stroke-width=".5" x="0" y="0" width="60" height="60"/>
  <use id="zoomplus" xlink:href="#zoomPlus" x="17" y="9" onmousedown="handleZoom(evt,'in')"/>
  <use id="zoomminus" xlink:href="#zoomMin" x="42" y="9" onmousedown="handleZoom(evt,'out')"/>
  <use id="reset" xlink:href="#resetDef" x="30" y="36" onmousedown="handleReset()"/>
   <use id="arrowup" xlink:href="#arrowUp" x="0" y="0" onmousedown="handlePan(0,-1)"/>
  <use id="arrowright" xlink:href="#arrowRight" x="0" y="0" onmousedown="handlePan(1,0)"/>
  <use id="arrowdown" xlink:href="#arrowDown" x="0" y="0" onmousedown="handlePan(0,1)"/>
  <use id="arrowleft" xlink:href="#arrowLeft" x="0" y="0" onmousedown="handlePan(-1,0)"/>
</g>
<svg viewBox="0 0 15 15" width="100%" height="30px" preserveAspectRatio="xMaxYMin meet">
 <g id="arrow_out" transform="scale(0.3 0.3)">
  <a xlink:href="classMessageProcessor_af073515175802398f049574a52fe9795_icgraph_org.svg" target="_base">
   <rect id="button" ry="5" rx="5" y="6" x="6" height="38" width="38"
        fill="#f2f5e9" fill-opacity="0.5" stroke="#606060" stroke-width="1.0"/>
   <path id="arrow"
     d="M 11.500037,31.436501 C 11.940474,20.09759 22.043105,11.32322 32.158766,21.979434 L 37.068811,17.246167 C 37.068811,17.246167 37.088388,32 37.088388,32 L 22.160133,31.978069 C 22.160133,31.978069 26.997745,27.140456 26.997745,27.140456 C 18.528582,18.264221 13.291696,25.230495 11.500037,31.436501 z"
     style="fill:#404040;"/>
  </a>
 </g>
</svg>

<style type='text/css'>
<![CDATA[
[data-mouse-over-selected='false'] { opacity: 0.7; }
[data-mouse-over-selected='true']  { opacity: 1.0; }
]]>
</style>
<script type="application/ecmascript"><![CDATA[
document.addEventListener('DOMContentLoaded', (event) => {
  highlightEdges();
  highlightAdjacentNodes();
});
]]></script>
</svg>
