<?xml version="1.0" encoding="UTF-8" standalone="no"?>
<!DOCTYPE svg PUBLIC "-//W3C//DTD SVG 1.1//EN"
 "http://www.w3.org/Graphics/SVG/1.1/DTD/svg11.dtd">
<!-- Generated by graphviz version 12.2.1 (0)
 -->
<!-- Title: BlobPhysics::UpdatePhysicsParallel Pages: 1 -->
<svg width="647pt" height="106pt"
 viewBox="0.00 0.00 647.25 105.53" xmlns="http://www.w3.org/2000/svg" xmlns:xlink="http://www.w3.org/1999/xlink">
<g id="graph0" class="graph" transform="scale(1 1) rotate(0) translate(4 101.53)">
<title>BlobPhysics::UpdatePhysicsParallel</title>
<!-- Node1 -->
<g id="Node000001" class="node">
<title>Node1</title>
<g id="a_Node000001"><a xlink:title="Updates the blob physics using QtConcurrent for parallel processing across multiple threads....">
<polygon fill="#999999" stroke="#666666" points="142,-67.3 0,-67.3 0,-38.3 142,-38.3 142,-67.3"/>
<text text-anchor="start" x="8" y="-53.8" font-family="Helvetica,sans-Serif" font-size="10.00">BlobPhysics::UpdatePhysics</text>
<text text-anchor="middle" x="71" y="-43.3" font-family="Helvetica,sans-Serif" font-size="10.00">Parallel</text>
</a>
</g>
</g>
<!-- Node2 -->
<g id="Node000002" class="node">
<title>Node2</title>
<g id="a_Node000002"><a xlink:href="classBlobPhysics.html#afbb545c1990191999b1d53237703e276" target="_top" xlink:title="Gradually moves control points towards an ideal circular/organic shape when the blob is idle....">
<polygon fill="white" stroke="#666666" points="488.25,-83.05 356,-83.05 356,-64.55 488.25,-64.55 488.25,-83.05"/>
<text text-anchor="middle" x="422.12" y="-69.55" font-family="Helvetica,sans-Serif" font-size="10.00">BlobPhysics::StabilizeBlob</text>
</a>
</g>
</g>
<!-- Node1&#45;&gt;Node2 -->
<g id="edge1_Node000001_Node000002" class="edge">
<title>Node1&#45;&gt;Node2</title>
<g id="a_edge1_Node000001_Node000002"><a xlink:title=" ">
<path fill="none" stroke="#63b8ff" d="M103.65,-67.79C124.3,-76.72 152.13,-87.19 178,-91.8 242.17,-103.23 317.12,-94.39 366.66,-85.54"/>
<polygon fill="#63b8ff" stroke="#63b8ff" points="367.07,-89.02 376.26,-83.75 365.79,-82.14 367.07,-89.02"/>
</a>
</g>
</g>
<!-- Node3 -->
<g id="Node000003" class="node">
<title>Node3</title>
<g id="a_Node000003"><a xlink:href="classBlobPhysics.html#a611559445990d0a91365e7d1af7886f1" target="_top" xlink:title="Updates the blob physics using a standard sequential approach. Iterates through each control point,...">
<polygon fill="white" stroke="#666666" points="320,-83.05 178,-83.05 178,-64.55 320,-64.55 320,-83.05"/>
<text text-anchor="middle" x="249" y="-69.55" font-family="Helvetica,sans-Serif" font-size="10.00">BlobPhysics::UpdatePhysics</text>
</a>
</g>
</g>
<!-- Node1&#45;&gt;Node3 -->
<g id="edge2_Node000001_Node000003" class="edge">
<title>Node1&#45;&gt;Node3</title>
<g id="a_edge2_Node000001_Node000003"><a xlink:title=" ">
<path fill="none" stroke="#63b8ff" d="M142.32,-61.19C150.19,-62.13 158.26,-63.09 166.27,-64.05"/>
<polygon fill="#63b8ff" stroke="#63b8ff" points="165.66,-67.5 176,-65.21 166.49,-60.55 165.66,-67.5"/>
</a>
</g>
</g>
<!-- Node4 -->
<g id="Node000004" class="node">
<title>Node4</title>
<g id="a_Node000004"><a xlink:href="classBlobPhysics.html#a51387fbc8c325be7a3f33aea248caeab" target="_top" xlink:title="Checks if any control points or velocities contain invalid values (NaN, infinity)....">
<polygon fill="white" stroke="#666666" points="486,-46.3 358.25,-46.3 358.25,-17.3 486,-17.3 486,-46.3"/>
<text text-anchor="start" x="366.25" y="-32.8" font-family="Helvetica,sans-Serif" font-size="10.00">BlobPhysics::ValidateAnd</text>
<text text-anchor="middle" x="422.12" y="-22.3" font-family="Helvetica,sans-Serif" font-size="10.00">RepairControlPoints</text>
</a>
</g>
</g>
<!-- Node1&#45;&gt;Node4 -->
<g id="edge9_Node000001_Node000004" class="edge">
<title>Node1&#45;&gt;Node4</title>
<g id="a_edge9_Node000001_Node000004"><a xlink:title=" ">
<path fill="none" stroke="#63b8ff" d="M98.48,-38.01C119.36,-27.25 149.59,-13.58 178,-7.8 239.84,4.79 257.32,-0.46 320,-7.8 332.14,-9.22 344.94,-11.57 357.2,-14.26"/>
<polygon fill="#63b8ff" stroke="#63b8ff" points="356.27,-17.63 366.8,-16.46 357.83,-10.81 356.27,-17.63"/>
</a>
</g>
</g>
<!-- Node6 -->
<g id="Node000006" class="node">
<title>Node6</title>
<g id="a_Node000006"><a xlink:href="classBlobPhysics.html#a5fa268f3582bffc05750430849f43d24" target="_top" xlink:title="Updates the blob physics using an optimized Structure&#45;of&#45;Arrays (SoA) approach with OpenMP paralleliz...">
<polygon fill="white" stroke="#666666" points="320,-46.3 178,-46.3 178,-17.3 320,-17.3 320,-46.3"/>
<text text-anchor="start" x="186" y="-32.8" font-family="Helvetica,sans-Serif" font-size="10.00">BlobPhysics::UpdatePhysics</text>
<text text-anchor="middle" x="249" y="-22.3" font-family="Helvetica,sans-Serif" font-size="10.00">Optimized</text>
</a>
</g>
</g>
<!-- Node1&#45;&gt;Node6 -->
<g id="edge6_Node000001_Node000006" class="edge">
<title>Node1&#45;&gt;Node6</title>
<g id="a_edge6_Node000001_Node000006"><a xlink:title=" ">
<path fill="none" stroke="#63b8ff" d="M142.32,-44.41C150.19,-43.47 158.26,-42.51 166.27,-41.55"/>
<polygon fill="#63b8ff" stroke="#63b8ff" points="166.49,-45.05 176,-40.39 165.66,-38.1 166.49,-45.05"/>
</a>
</g>
</g>
<!-- Node3&#45;&gt;Node2 -->
<g id="edge3_Node000003_Node000002" class="edge">
<title>Node3&#45;&gt;Node2</title>
<g id="a_edge3_Node000003_Node000002"><a xlink:title=" ">
<path fill="none" stroke="#63b8ff" d="M320.1,-73.8C328.06,-73.8 336.22,-73.8 344.27,-73.8"/>
<polygon fill="#63b8ff" stroke="#63b8ff" points="344.03,-77.3 354.03,-73.8 344.03,-70.3 344.03,-77.3"/>
</a>
</g>
</g>
<!-- Node3&#45;&gt;Node4 -->
<g id="edge4_Node000003_Node000004" class="edge">
<title>Node3&#45;&gt;Node4</title>
<g id="a_edge4_Node000003_Node000004"><a xlink:title=" ">
<path fill="none" stroke="#63b8ff" d="M289.69,-64.06C307.35,-59.72 328.71,-54.48 349.04,-49.49"/>
<polygon fill="#63b8ff" stroke="#63b8ff" points="349.84,-52.9 358.72,-47.11 348.17,-46.1 349.84,-52.9"/>
</a>
</g>
</g>
<!-- Node5 -->
<g id="Node000005" class="node">
<title>Node5</title>
<g id="a_Node000005"><a xlink:href="classBlobMath.html#abef304a2fdf006c9238fe4a265951637" target="_top" xlink:title="Checks if a QPointF contains valid coordinate values. Verifies that coordinates are not NaN,...">
<polygon fill="white" stroke="#666666" points="639.25,-41.05 524.25,-41.05 524.25,-22.55 639.25,-22.55 639.25,-41.05"/>
<text text-anchor="middle" x="581.75" y="-27.55" font-family="Helvetica,sans-Serif" font-size="10.00">BlobMath::IsValidPoint</text>
</a>
</g>
</g>
<!-- Node4&#45;&gt;Node5 -->
<g id="edge5_Node000004_Node000005" class="edge">
<title>Node4&#45;&gt;Node5</title>
<g id="a_edge5_Node000004_Node000005"><a xlink:title=" ">
<path fill="none" stroke="#63b8ff" d="M486.33,-31.8C494.96,-31.8 503.86,-31.8 512.58,-31.8"/>
<polygon fill="#63b8ff" stroke="#63b8ff" points="512.39,-35.3 522.39,-31.8 512.39,-28.3 512.39,-35.3"/>
</a>
</g>
</g>
<!-- Node6&#45;&gt;Node2 -->
<g id="edge7_Node000006_Node000002" class="edge">
<title>Node6&#45;&gt;Node2</title>
<g id="a_edge7_Node000006_Node000002"><a xlink:title=" ">
<path fill="none" stroke="#63b8ff" d="M310.81,-46.72C330.4,-51.53 351.87,-56.8 370.63,-61.4"/>
<polygon fill="#63b8ff" stroke="#63b8ff" points="369.6,-64.76 380.15,-63.74 371.27,-57.96 369.6,-64.76"/>
</a>
</g>
</g>
<!-- Node6&#45;&gt;Node4 -->
<g id="edge8_Node000006_Node000004" class="edge">
<title>Node6&#45;&gt;Node4</title>
<g id="a_edge8_Node000006_Node000004"><a xlink:title=" ">
<path fill="none" stroke="#63b8ff" d="M320.1,-31.8C328.83,-31.8 337.78,-31.8 346.57,-31.8"/>
<polygon fill="#63b8ff" stroke="#63b8ff" points="346.49,-35.3 356.49,-31.8 346.49,-28.3 346.49,-35.3"/>
</a>
</g>
</g>
</g>
</svg>
