<?xml version="1.0" encoding="UTF-8" standalone="no"?>
<!DOCTYPE svg PUBLIC "-//W3C//DTD SVG 1.1//EN"
 "http://www.w3.org/Graphics/SVG/1.1/DTD/svg11.dtd">
<!-- Generated by graphviz version 12.2.1 (0)
 -->
<!-- Title: BlobEventHandler::eventsReEnabled Pages: 1 -->
<svg width="672pt" height="96pt"
 viewBox="0.00 0.00 672.00 95.75" xmlns="http://www.w3.org/2000/svg" xmlns:xlink="http://www.w3.org/1999/xlink">
<g id="graph0" class="graph" transform="scale(1 1) rotate(0) translate(4 91.75)">
<title>BlobEventHandler::eventsReEnabled</title>
<!-- Node1 -->
<g id="Node000001" class="node">
<title>Node1</title>
<g id="a_Node000001"><a xlink:title="Emitted when event processing is re&#45;enabled after being disabled.">
<polygon fill="#999999" stroke="#666666" points="664,-51 535.5,-51 535.5,-22 664,-22 664,-51"/>
<text text-anchor="start" x="543.5" y="-37.5" font-family="Helvetica,sans-Serif" font-size="10.00">BlobEventHandler::events</text>
<text text-anchor="middle" x="599.75" y="-27" font-family="Helvetica,sans-Serif" font-size="10.00">ReEnabled</text>
</a>
</g>
</g>
<!-- Node2 -->
<g id="Node000002" class="node">
<title>Node2</title>
<g id="a_Node000002"><a xlink:href="classBlobAnimation.html#a376419bc52ad64329b0ce5e2a2579043" target="_top" xlink:title="Constructs the BlobAnimation widget. Initializes parameters, states, event handlers,...">
<polygon fill="white" stroke="#666666" points="499.5,-87.75 351.5,-87.75 351.5,-69.25 499.5,-69.25 499.5,-87.75"/>
<text text-anchor="middle" x="425.5" y="-74.25" font-family="Helvetica,sans-Serif" font-size="10.00">BlobAnimation::BlobAnimation</text>
</a>
</g>
</g>
<!-- Node1&#45;&gt;Node2 -->
<g id="edge1_Node000001_Node000002" class="edge">
<title>Node1&#45;&gt;Node2</title>
<g id="a_edge1_Node000001_Node000002"><a xlink:title=" ">
<path fill="none" stroke="#63b8ff" d="M526.55,-54.11C505.91,-59.14 484.18,-64.44 466.27,-68.8"/>
<polygon fill="#63b8ff" stroke="#63b8ff" points="527.18,-57.55 536.07,-51.78 525.52,-50.75 527.18,-57.55"/>
</a>
</g>
</g>
<!-- Node3 -->
<g id="Node000003" class="node">
<title>Node3</title>
<g id="a_Node000003"><a xlink:href="classBlobEventHandler.html#a3c8749033726553ee1d437417a517b7b" target="_top" xlink:title="Enables event processing. Emits the eventsReEnabled() signal.">
<polygon fill="white" stroke="#666666" points="490.5,-51 360.5,-51 360.5,-22 490.5,-22 490.5,-51"/>
<text text-anchor="start" x="368.5" y="-37.5" font-family="Helvetica,sans-Serif" font-size="10.00">BlobEventHandler::Enable</text>
<text text-anchor="middle" x="425.5" y="-27" font-family="Helvetica,sans-Serif" font-size="10.00">Events</text>
</a>
</g>
</g>
<!-- Node1&#45;&gt;Node3 -->
<g id="edge2_Node000001_Node000003" class="edge">
<title>Node1&#45;&gt;Node3</title>
<g id="a_edge2_Node000001_Node000003"><a xlink:title=" ">
<path fill="none" stroke="#63b8ff" d="M523.76,-36.5C512.76,-36.5 501.51,-36.5 490.75,-36.5"/>
<polygon fill="#63b8ff" stroke="#63b8ff" points="523.59,-40 533.59,-36.5 523.59,-33 523.59,-40"/>
</a>
</g>
</g>
<!-- Node4 -->
<g id="Node000004" class="node">
<title>Node4</title>
<g id="a_Node000004"><a xlink:href="classBlobEventHandler.html#a326cc41d5d694d041205ce8008c27e14" target="_top" xlink:title="Slot connected to the event_re_enable_timer_&#39;s timeout signal. Calls EnableEvents() to re&#45;enable even...">
<polygon fill="white" stroke="#666666" points="315.5,-29 180.25,-29 180.25,0 315.5,0 315.5,-29"/>
<text text-anchor="start" x="188.25" y="-15.5" font-family="Helvetica,sans-Serif" font-size="10.00">BlobEventHandler::onEvent</text>
<text text-anchor="middle" x="247.88" y="-5" font-family="Helvetica,sans-Serif" font-size="10.00">ReEnableTimeout</text>
</a>
</g>
</g>
<!-- Node1&#45;&gt;Node4 -->
<g id="edge5_Node000001_Node000004" class="edge">
<title>Node1&#45;&gt;Node4</title>
<g id="a_edge5_Node000001_Node000004"><a xlink:title=" ">
<path fill="none" stroke="#63b8ff" d="M533.25,-19.11C522.07,-16.78 510.51,-14.76 499.5,-13.5 437.57,-6.42 366.48,-7.58 315.86,-9.97"/>
<polygon fill="#63b8ff" stroke="#63b8ff" points="532.28,-22.48 542.8,-21.21 533.78,-15.64 532.28,-22.48"/>
</a>
</g>
</g>
<!-- Node3&#45;&gt;Node4 -->
<g id="edge3_Node000003_Node000004" class="edge">
<title>Node3&#45;&gt;Node4</title>
<g id="a_edge3_Node000003_Node000004"><a xlink:title=" ">
<path fill="none" stroke="#63b8ff" d="M348.82,-27.02C337.88,-25.65 326.68,-24.25 315.92,-22.9"/>
<polygon fill="#63b8ff" stroke="#63b8ff" points="348.24,-30.47 358.6,-28.24 349.11,-23.53 348.24,-30.47"/>
</a>
</g>
</g>
<!-- Node5 -->
<g id="Node000005" class="node">
<title>Node5</title>
<g id="a_Node000005"><a xlink:href="classBlobEventHandler.html#af650ab66adda23fa858ab4e85ed12124" target="_top" xlink:title="Constructs a BlobEventHandler. Installs an event filter on the parent widget&#39;s window.">
<polygon fill="white" stroke="#666666" points="144.25,-29 0,-29 0,0 144.25,0 144.25,-29"/>
<text text-anchor="start" x="8" y="-15.5" font-family="Helvetica,sans-Serif" font-size="10.00">BlobEventHandler::BlobEvent</text>
<text text-anchor="middle" x="72.12" y="-5" font-family="Helvetica,sans-Serif" font-size="10.00">Handler</text>
</a>
</g>
</g>
<!-- Node4&#45;&gt;Node5 -->
<g id="edge4_Node000004_Node000005" class="edge">
<title>Node4&#45;&gt;Node5</title>
<g id="a_edge4_Node000004_Node000005"><a xlink:title=" ">
<path fill="none" stroke="#63b8ff" d="M168.85,-14.5C160.75,-14.5 152.55,-14.5 144.53,-14.5"/>
<polygon fill="#63b8ff" stroke="#63b8ff" points="168.68,-18 178.68,-14.5 168.68,-11 168.68,-18"/>
</a>
</g>
</g>
</g>
</svg>
