<?xml version="1.0" encoding="UTF-8" standalone="no"?>
<!DOCTYPE svg PUBLIC "-//W3C//DTD SVG 1.1//EN"
 "http://www.w3.org/Graphics/SVG/1.1/DTD/svg11.dtd">
<!-- Generated by graphviz version 12.2.1 (0)
 -->
<!-- Title: WavelengthConfig::SetBackgroundColor Pages: 1 -->
<svg width="523pt" height="84pt"
 viewBox="0.00 0.00 523.25 84.00" xmlns="http://www.w3.org/2000/svg" xmlns:xlink="http://www.w3.org/1999/xlink">
<g id="graph0" class="graph" transform="scale(1 1) rotate(0) translate(4 80)">
<title>WavelengthConfig::SetBackgroundColor</title>
<!-- Node1 -->
<g id="Node000001" class="node">
<title>Node1</title>
<g id="a_Node000001"><a xlink:title="Sets the main background color. Adds the color to recent colors. Emits configChanged(&quot;background_colo...">
<polygon fill="#999999" stroke="#666666" points="166.75,-52 0,-52 0,-23 166.75,-23 166.75,-52"/>
<text text-anchor="start" x="8" y="-38.5" font-family="Helvetica,sans-Serif" font-size="10.00">WavelengthConfig::SetBackground</text>
<text text-anchor="middle" x="83.38" y="-28" font-family="Helvetica,sans-Serif" font-size="10.00">Color</text>
</a>
</g>
</g>
<!-- Node2 -->
<g id="Node000002" class="node">
<title>Node2</title>
<g id="a_Node000002"><a xlink:href="classWavelengthConfig.html#a7ebb29db2d1c1664c1fca81e52f67565" target="_top" xlink:title="Adds a color to the list of recently used colors. If the color already exists, it&#39;s moved to the fron...">
<polygon fill="white" stroke="#666666" points="351.5,-76 202.75,-76 202.75,-47 351.5,-47 351.5,-76"/>
<text text-anchor="start" x="210.75" y="-62.5" font-family="Helvetica,sans-Serif" font-size="10.00">WavelengthConfig::AddRecent</text>
<text text-anchor="middle" x="277.12" y="-52" font-family="Helvetica,sans-Serif" font-size="10.00">Color</text>
</a>
</g>
</g>
<!-- Node1&#45;&gt;Node2 -->
<g id="edge1_Node000001_Node000002" class="edge">
<title>Node1&#45;&gt;Node2</title>
<g id="a_edge1_Node000001_Node000002"><a xlink:title=" ">
<path fill="none" stroke="#63b8ff" d="M167.09,-47.85C175.08,-48.85 183.19,-49.87 191.21,-50.87"/>
<polygon fill="#63b8ff" stroke="#63b8ff" points="190.58,-54.32 200.94,-52.09 191.45,-47.37 190.58,-54.32"/>
</a>
</g>
</g>
<!-- Node4 -->
<g id="Node000004" class="node">
<title>Node4</title>
<g id="a_Node000004"><a xlink:href="classWavelengthConfig.html#abc5ccf726876bf0f8a5a842b70a2e766" target="_top" xlink:title="Emitted when a configuration setting changes.">
<polygon fill="white" stroke="#666666" points="340.62,-29 213.62,-29 213.62,0 340.62,0 340.62,-29"/>
<text text-anchor="start" x="221.62" y="-15.5" font-family="Helvetica,sans-Serif" font-size="10.00">WavelengthConfig::config</text>
<text text-anchor="middle" x="277.12" y="-5" font-family="Helvetica,sans-Serif" font-size="10.00">Changed</text>
</a>
</g>
</g>
<!-- Node1&#45;&gt;Node4 -->
<g id="edge3_Node000001_Node000004" class="edge">
<title>Node1&#45;&gt;Node4</title>
<g id="a_edge3_Node000001_Node000004"><a xlink:title=" ">
<path fill="none" stroke="#63b8ff" d="M167.09,-27.58C178.72,-26.18 190.61,-24.76 202.07,-23.38"/>
<polygon fill="#63b8ff" stroke="#63b8ff" points="202.34,-26.88 211.85,-22.21 201.5,-19.93 202.34,-26.88"/>
</a>
</g>
</g>
<!-- Node3 -->
<g id="Node000003" class="node">
<title>Node3</title>
<g id="a_Node000003"><a xlink:href="classWavelengthConfig.html#aac745a2f42099f82975e7b205aa5a6a7" target="_top" xlink:title="Emitted when the list of recent colors changes (a color was added).">
<polygon fill="white" stroke="#666666" points="515.25,-76 387.5,-76 387.5,-47 515.25,-47 515.25,-76"/>
<text text-anchor="start" x="395.5" y="-62.5" font-family="Helvetica,sans-Serif" font-size="10.00">WavelengthConfig::recent</text>
<text text-anchor="middle" x="451.38" y="-52" font-family="Helvetica,sans-Serif" font-size="10.00">ColorsChanged</text>
</a>
</g>
</g>
<!-- Node2&#45;&gt;Node3 -->
<g id="edge2_Node000002_Node000003" class="edge">
<title>Node2&#45;&gt;Node3</title>
<g id="a_edge2_Node000002_Node000003"><a xlink:title=" ">
<path fill="none" stroke="#63b8ff" d="M351.67,-61.5C359.6,-61.5 367.67,-61.5 375.61,-61.5"/>
<polygon fill="#63b8ff" stroke="#63b8ff" points="375.6,-65 385.6,-61.5 375.6,-58 375.6,-65"/>
</a>
</g>
</g>
</g>
</svg>
