<?xml version="1.0" encoding="UTF-8" standalone="no"?>
<!DOCTYPE svg PUBLIC "-//W3C//DTD SVG 1.1//EN"
 "http://www.w3.org/Graphics/SVG/1.1/DTD/svg11.dtd">
<!-- Generated by graphviz version 12.2.1 (0)
 -->
<!-- Title: CommunicationStream::DisconnectSignalsForMessage Pages: 1 -->
<svg width="848pt" height="119pt"
 viewBox="0.00 0.00 847.75 118.87" xmlns="http://www.w3.org/2000/svg" xmlns:xlink="http://www.w3.org/1999/xlink">
<g id="graph0" class="graph" transform="scale(1 1) rotate(0) translate(4 114.87)">
<title>CommunicationStream::DisconnectSignalsForMessage</title>
<!-- Node1 -->
<g id="Node000001" class="node">
<title>Node1</title>
<g id="a_Node000001"><a xlink:title="Disconnects all signals originating from the given StreamMessage widget that are connected to this Co...">
<polygon fill="#999999" stroke="#666666" points="839.75,-43.87 682,-43.87 682,-14.87 839.75,-14.87 839.75,-43.87"/>
<text text-anchor="start" x="690" y="-30.37" font-family="Helvetica,sans-Serif" font-size="10.00">CommunicationStream</text>
<text text-anchor="middle" x="760.88" y="-19.87" font-family="Helvetica,sans-Serif" font-size="10.00">::DisconnectSignalsForMessage</text>
</a>
</g>
</g>
<!-- Node2 -->
<g id="Node000002" class="node">
<title>Node2</title>
<g id="a_Node000002"><a xlink:href="classCommunicationStream.html#a51d677d8019dd7b4ae596b2a0c841525" target="_top" xlink:title="Removes all messages currently managed by the stream. Hides and schedules deletion for all message wi...">
<polygon fill="white" stroke="#666666" points="642.25,-90.87 526.5,-90.87 526.5,-61.87 642.25,-61.87 642.25,-90.87"/>
<text text-anchor="start" x="534.5" y="-77.37" font-family="Helvetica,sans-Serif" font-size="10.00">CommunicationStream</text>
<text text-anchor="middle" x="584.38" y="-66.87" font-family="Helvetica,sans-Serif" font-size="10.00">::ClearMessages</text>
</a>
</g>
</g>
<!-- Node1&#45;&gt;Node2 -->
<g id="edge1_Node000001_Node000002" class="edge">
<title>Node1&#45;&gt;Node2</title>
<g id="a_edge1_Node000001_Node000002"><a xlink:title=" ">
<path fill="none" stroke="#63b8ff" d="M693.95,-47.13C676.44,-51.85 657.71,-56.89 640.83,-61.44"/>
<polygon fill="#63b8ff" stroke="#63b8ff" points="694.46,-50.62 703.2,-44.64 692.63,-43.86 694.46,-50.62"/>
</a>
</g>
</g>
<!-- Node3 -->
<g id="Node000003" class="node">
<title>Node3</title>
<g id="a_Node000003"><a xlink:href="classCommunicationStream.html#a2283a11febe30f9d2d1887c2c20e7ea3" target="_top" xlink:title="Slot triggered when a StreamMessage widget finishes its hiding animation (or is hidden)....">
<polygon fill="white" stroke="#666666" points="646,-43.87 522.75,-43.87 522.75,-14.87 646,-14.87 646,-43.87"/>
<text text-anchor="start" x="530.75" y="-30.37" font-family="Helvetica,sans-Serif" font-size="10.00">CommunicationStream</text>
<text text-anchor="middle" x="584.38" y="-19.87" font-family="Helvetica,sans-Serif" font-size="10.00">::HandleMessageHidden</text>
</a>
</g>
</g>
<!-- Node1&#45;&gt;Node3 -->
<g id="edge2_Node000001_Node000003" class="edge">
<title>Node1&#45;&gt;Node3</title>
<g id="a_edge2_Node000001_Node000003"><a xlink:title=" ">
<path fill="none" stroke="#63b8ff" d="M670.2,-29.37C662.16,-29.37 654.15,-29.37 646.43,-29.37"/>
<polygon fill="#63b8ff" stroke="#63b8ff" points="670.04,-32.87 680.04,-29.37 670.04,-25.87 670.04,-32.87"/>
</a>
</g>
</g>
<!-- Node7 -->
<g id="Node000007" class="node">
<title>Node7</title>
<g id="a_Node000007"><a xlink:href="classCommunicationStream.html#aba44a533978e83748764534a8682c56f" target="_top" xlink:title="Displays the message at the specified index in the messages_ list. Hides the previously displayed mes...">
<polygon fill="#fff0f0" stroke="red" points="305.75,-38.87 185.5,-38.87 185.5,-9.87 305.75,-9.87 305.75,-38.87"/>
<text text-anchor="start" x="193.5" y="-25.37" font-family="Helvetica,sans-Serif" font-size="10.00">CommunicationStream</text>
<text text-anchor="middle" x="245.62" y="-14.87" font-family="Helvetica,sans-Serif" font-size="10.00">::ShowMessageAtIndex</text>
</a>
</g>
</g>
<!-- Node1&#45;&gt;Node7 -->
<g id="edge10_Node000001_Node000007" class="edge">
<title>Node1&#45;&gt;Node7</title>
<g id="a_edge10_Node000001_Node000007"><a xlink:title=" ">
<path fill="none" stroke="#63b8ff" d="M689.06,-12.08C674.88,-9.29 660.03,-6.84 646,-5.37 525.7,7.17 384.13,-6.17 305.99,-15.96"/>
<polygon fill="#63b8ff" stroke="#63b8ff" points="688.28,-15.49 698.78,-14.07 689.68,-8.63 688.28,-15.49"/>
</a>
</g>
</g>
<!-- Node4 -->
<g id="Node000004" class="node">
<title>Node4</title>
<g id="a_Node000004"><a xlink:href="classCommunicationStream.html#aa91c3c46034a10ca7393998082e26a25" target="_top" xlink:title="Connects the necessary signals (navigation, read, hidden) from a StreamMessage widget to this Communi...">
<polygon fill="white" stroke="#666666" points="486.75,-81.87 341.75,-81.87 341.75,-52.87 486.75,-52.87 486.75,-81.87"/>
<text text-anchor="start" x="349.75" y="-68.37" font-family="Helvetica,sans-Serif" font-size="10.00">CommunicationStream</text>
<text text-anchor="middle" x="414.25" y="-57.87" font-family="Helvetica,sans-Serif" font-size="10.00">::ConnectSignalsForMessage</text>
</a>
</g>
</g>
<!-- Node3&#45;&gt;Node4 -->
<g id="edge3_Node000003_Node000004" class="edge">
<title>Node3&#45;&gt;Node4</title>
<g id="a_edge3_Node000003_Node000004"><a xlink:title=" ">
<path fill="none" stroke="#63b8ff" d="M511.56,-45.6C501.6,-47.86 491.4,-50.16 481.55,-52.39"/>
<polygon fill="#63b8ff" stroke="#63b8ff" points="512.22,-49.04 521.2,-43.43 510.68,-42.22 512.22,-49.04"/>
</a>
</g>
</g>
<!-- Node5 -->
<g id="Node000005" class="node">
<title>Node5</title>
<g id="a_Node000005"><a xlink:href="classCommunicationStream.html#ae3b9b361caa5123daac847c60475d605" target="_top" xlink:title="Adds a new standard message to the stream. Initiates the receiving animation. The message is displaye...">
<polygon fill="white" stroke="#666666" points="132.62,-55.87 16.88,-55.87 16.88,-26.87 132.62,-26.87 132.62,-55.87"/>
<text text-anchor="start" x="24.88" y="-42.37" font-family="Helvetica,sans-Serif" font-size="10.00">CommunicationStream</text>
<text text-anchor="middle" x="74.75" y="-31.87" font-family="Helvetica,sans-Serif" font-size="10.00">::AddMessage</text>
</a>
</g>
</g>
<!-- Node4&#45;&gt;Node5 -->
<g id="edge4_Node000004_Node000005" class="edge">
<title>Node4&#45;&gt;Node5</title>
<g id="a_edge4_Node000004_Node000005"><a xlink:title=" ">
<path fill="none" stroke="#63b8ff" d="M330.08,-60.97C268.84,-56.25 187.17,-49.96 133.09,-45.79"/>
<polygon fill="#63b8ff" stroke="#63b8ff" points="329.51,-64.43 339.75,-61.71 330.05,-57.45 329.51,-64.43"/>
</a>
</g>
</g>
<!-- Node6 -->
<g id="Node000006" class="node">
<title>Node6</title>
<g id="a_Node000006"><a xlink:href="classCommunicationStream.html#a10a56a4dc3eeeaf4865d0f63f077e3bf" target="_top" xlink:title="Adds a new message with attachment content to the stream. Initiates the receiving animation....">
<polygon fill="white" stroke="#666666" points="149.5,-110.87 0,-110.87 0,-81.87 149.5,-81.87 149.5,-110.87"/>
<text text-anchor="start" x="8" y="-97.37" font-family="Helvetica,sans-Serif" font-size="10.00">CommunicationStream</text>
<text text-anchor="middle" x="74.75" y="-86.87" font-family="Helvetica,sans-Serif" font-size="10.00">::AddMessageWithAttachment</text>
</a>
</g>
</g>
<!-- Node4&#45;&gt;Node6 -->
<g id="edge5_Node000004_Node000006" class="edge">
<title>Node4&#45;&gt;Node6</title>
<g id="a_edge5_Node000004_Node000006"><a xlink:title=" ">
<path fill="none" stroke="#63b8ff" d="M330.11,-74.52C274.95,-79.26 203.19,-85.42 149.96,-90"/>
<polygon fill="#63b8ff" stroke="#63b8ff" points="330.09,-78.03 339.75,-73.69 329.49,-71.06 330.09,-78.03"/>
</a>
</g>
</g>
<!-- Node4&#45;&gt;Node7 -->
<g id="edge6_Node000004_Node000007" class="edge">
<title>Node4&#45;&gt;Node7</title>
<g id="a_edge6_Node000004_Node000007"><a xlink:title=" ">
<path fill="none" stroke="#63b8ff" d="M344.47,-49.62C331.22,-46.2 317.47,-42.66 304.61,-39.34"/>
<polygon fill="#63b8ff" stroke="#63b8ff" points="343.42,-52.97 353.97,-52.08 345.17,-46.19 343.42,-52.97"/>
</a>
</g>
</g>
<!-- Node7&#45;&gt;Node3 -->
<g id="edge9_Node000007_Node000003" class="edge">
<title>Node7&#45;&gt;Node3</title>
<g id="a_edge9_Node000007_Node000003"><a xlink:title=" ">
<path fill="none" stroke="#63b8ff" d="M317.43,-25.42C378.14,-26.33 464.7,-27.61 522.39,-28.47"/>
<polygon fill="#63b8ff" stroke="#63b8ff" points="317.59,-21.93 307.54,-25.28 317.48,-28.93 317.59,-21.93"/>
</a>
</g>
</g>
<!-- Node7&#45;&gt;Node5 -->
<g id="edge7_Node000007_Node000005" class="edge">
<title>Node7&#45;&gt;Node5</title>
<g id="a_edge7_Node000007_Node000005"><a xlink:title=" ">
<path fill="none" stroke="#63b8ff" d="M173.82,-31.5C160.22,-32.87 146.15,-34.29 133.05,-35.61"/>
<polygon fill="#63b8ff" stroke="#63b8ff" points="173.98,-35 183.58,-30.52 173.28,-28.04 173.98,-35"/>
</a>
</g>
</g>
<!-- Node7&#45;&gt;Node6 -->
<g id="edge8_Node000007_Node000006" class="edge">
<title>Node7&#45;&gt;Node6</title>
<g id="a_edge8_Node000007_Node000006"><a xlink:title=" ">
<path fill="none" stroke="#63b8ff" d="M200.18,-43.63C184.21,-50.52 166.06,-58.32 149.5,-65.37 137.1,-70.65 123.51,-76.38 111.41,-81.46"/>
<polygon fill="#63b8ff" stroke="#63b8ff" points="201.13,-47.03 208.92,-39.85 198.36,-40.6 201.13,-47.03"/>
</a>
</g>
</g>
</g>
</svg>
