<?xml version="1.0" encoding="UTF-8" standalone="no"?>
<!DOCTYPE svg PUBLIC "-//W3C//DTD SVG 1.1//EN"
 "http://www.w3.org/Graphics/SVG/1.1/DTD/svg11.dtd">
<!-- Generated by graphviz version 12.2.1 (0)
 -->
<!-- Title: SecurityCodeLayer::OnDigitEntered Pages: 1 -->
<svg width="578pt" height="144pt"
 viewBox="0.00 0.00 578.25 144.00" xmlns="http://www.w3.org/2000/svg" xmlns:xlink="http://www.w3.org/1999/xlink">
<g id="graph0" class="graph" transform="scale(1 1) rotate(0) translate(4 140)">
<title>SecurityCodeLayer::OnDigitEntered</title>
<!-- Node1 -->
<g id="Node000001" class="node">
<title>Node1</title>
<g id="a_Node000001"><a xlink:title="Slot called when the text in any input field changes. Handles automatic focus progression to the next...">
<polygon fill="#999999" stroke="#666666" points="104.5,-94 0,-94 0,-65 104.5,-65 104.5,-94"/>
<text text-anchor="start" x="8" y="-80.5" font-family="Helvetica,sans-Serif" font-size="10.00">SecurityCodeLayer::</text>
<text text-anchor="middle" x="52.25" y="-70" font-family="Helvetica,sans-Serif" font-size="10.00">OnDigitEntered</text>
</a>
</g>
</g>
<!-- Node2 -->
<g id="Node000002" class="node">
<title>Node2</title>
<g id="a_Node000002"><a xlink:href="classSecurityCodeLayer.html#ae952b967add30cb12c1a68adaaa3ec54" target="_top" xlink:title="Checks if the entered code matches the current security code. Called when all input fields are filled...">
<polygon fill="white" stroke="#666666" points="245,-94 140.5,-94 140.5,-65 245,-65 245,-94"/>
<text text-anchor="start" x="148.5" y="-80.5" font-family="Helvetica,sans-Serif" font-size="10.00">SecurityCodeLayer::</text>
<text text-anchor="middle" x="192.75" y="-70" font-family="Helvetica,sans-Serif" font-size="10.00">CheckSecurityCode</text>
</a>
</g>
</g>
<!-- Node1&#45;&gt;Node2 -->
<g id="edge1_Node000001_Node000002" class="edge">
<title>Node1&#45;&gt;Node2</title>
<g id="a_edge1_Node000001_Node000002"><a xlink:title=" ">
<path fill="none" stroke="#63b8ff" d="M104.82,-79.5C112.66,-79.5 120.83,-79.5 128.88,-79.5"/>
<polygon fill="#63b8ff" stroke="#63b8ff" points="128.62,-83 138.62,-79.5 128.62,-76 128.62,-83"/>
</a>
</g>
</g>
<!-- Node3 -->
<g id="Node000003" class="node">
<title>Node3</title>
<g id="a_Node000003"><a xlink:href="classSecurityCodeLayer.html#a698e622b7e3a9e3543059f57c9b17a81" target="_top" xlink:title="Gets the code currently entered by the user by concatenating the text from all input fields.">
<polygon fill="white" stroke="#666666" points="407.62,-136 303.12,-136 303.12,-107 407.62,-107 407.62,-136"/>
<text text-anchor="start" x="311.12" y="-122.5" font-family="Helvetica,sans-Serif" font-size="10.00">SecurityCodeLayer::</text>
<text text-anchor="middle" x="355.38" y="-112" font-family="Helvetica,sans-Serif" font-size="10.00">GetEnteredCode</text>
</a>
</g>
</g>
<!-- Node2&#45;&gt;Node3 -->
<g id="edge2_Node000002_Node000003" class="edge">
<title>Node2&#45;&gt;Node3</title>
<g id="a_edge2_Node000002_Node000003"><a xlink:title=" ">
<path fill="none" stroke="#63b8ff" d="M245.46,-93.02C260.22,-96.88 276.46,-101.13 291.79,-105.14"/>
<polygon fill="#63b8ff" stroke="#63b8ff" points="290.74,-108.48 301.3,-107.62 292.51,-101.71 290.74,-108.48"/>
</a>
</g>
</g>
<!-- Node4 -->
<g id="Node000004" class="node">
<title>Node4</title>
<g id="a_Node000004"><a xlink:href="classSecurityLayer.html#a6b6759d7fd1e729ff63ea9be3c121878" target="_top" xlink:title="Emitted when the user successfully completes the security challenge presented by this layer.">
<polygon fill="white" stroke="#666666" points="429.75,-88.75 281,-88.75 281,-70.25 429.75,-70.25 429.75,-88.75"/>
<text text-anchor="middle" x="355.38" y="-75.25" font-family="Helvetica,sans-Serif" font-size="10.00">SecurityLayer::layerCompleted</text>
</a>
</g>
</g>
<!-- Node2&#45;&gt;Node4 -->
<g id="edge3_Node000002_Node000004" class="edge">
<title>Node2&#45;&gt;Node4</title>
<g id="a_edge3_Node000002_Node000004"><a xlink:title=" ">
<path fill="none" stroke="#63b8ff" d="M245.46,-79.5C253.06,-79.5 261.06,-79.5 269.13,-79.5"/>
<polygon fill="#63b8ff" stroke="#63b8ff" points="269.02,-83 279.02,-79.5 269.02,-76 269.02,-83"/>
</a>
</g>
</g>
<!-- Node5 -->
<g id="Node000005" class="node">
<title>Node5</title>
<g id="a_Node000005"><a xlink:href="classSecurityCodeLayer.html#a1f24bdfc759b707fe364b4a6d377bab5" target="_top" xlink:title="Triggers a visual error effect on the input fields. Temporarily changes the background and border col...">
<polygon fill="white" stroke="#666666" points="407.62,-52 303.12,-52 303.12,-23 407.62,-23 407.62,-52"/>
<text text-anchor="start" x="311.12" y="-38.5" font-family="Helvetica,sans-Serif" font-size="10.00">SecurityCodeLayer::</text>
<text text-anchor="middle" x="355.38" y="-28" font-family="Helvetica,sans-Serif" font-size="10.00">ShowErrorEffect</text>
</a>
</g>
</g>
<!-- Node2&#45;&gt;Node5 -->
<g id="edge4_Node000002_Node000005" class="edge">
<title>Node2&#45;&gt;Node5</title>
<g id="a_edge4_Node000002_Node000005"><a xlink:title=" ">
<path fill="none" stroke="#63b8ff" d="M245.46,-65.98C260.22,-62.12 276.46,-57.87 291.79,-53.86"/>
<polygon fill="#63b8ff" stroke="#63b8ff" points="292.51,-57.29 301.3,-51.38 290.74,-50.52 292.51,-57.29"/>
</a>
</g>
</g>
<!-- Node6 -->
<g id="Node000006" class="node">
<title>Node6</title>
<g id="a_Node000006"><a xlink:href="classSecurityCodeLayer.html#aff90508ace024d15efd490efb2b1b13a" target="_top" xlink:title="Clears all input fields and resets their styles to the default (error/red) state. Sets focus on the f...">
<polygon fill="white" stroke="#666666" points="570.25,-76 465.75,-76 465.75,-47 570.25,-47 570.25,-76"/>
<text text-anchor="start" x="473.75" y="-62.5" font-family="Helvetica,sans-Serif" font-size="10.00">SecurityCodeLayer::</text>
<text text-anchor="middle" x="518" y="-52" font-family="Helvetica,sans-Serif" font-size="10.00">ResetInputs</text>
</a>
</g>
</g>
<!-- Node5&#45;&gt;Node6 -->
<g id="edge5_Node000005_Node000006" class="edge">
<title>Node5&#45;&gt;Node6</title>
<g id="a_edge5_Node000005_Node000006"><a xlink:title=" ">
<path fill="none" stroke="#63b8ff" d="M408.08,-45.23C422.84,-47.43 439.08,-49.86 454.42,-52.15"/>
<polygon fill="#63b8ff" stroke="#63b8ff" points="453.49,-55.55 463.89,-53.56 454.52,-48.63 453.49,-55.55"/>
</a>
</g>
</g>
<!-- Node7 -->
<g id="Node000007" class="node">
<title>Node7</title>
<g id="a_Node000007"><a xlink:href="classSecurityCodeLayer.html#a5f1194e6e5185b40eeb6aed165d8e58b" target="_top" xlink:title="Sets the input validators for all code input fields based on whether the current code is numeric.">
<polygon fill="white" stroke="#666666" points="570.25,-29 465.75,-29 465.75,0 570.25,0 570.25,-29"/>
<text text-anchor="start" x="473.75" y="-15.5" font-family="Helvetica,sans-Serif" font-size="10.00">SecurityCodeLayer::</text>
<text text-anchor="middle" x="518" y="-5" font-family="Helvetica,sans-Serif" font-size="10.00">SetInputValidators</text>
</a>
</g>
</g>
<!-- Node5&#45;&gt;Node7 -->
<g id="edge6_Node000005_Node000007" class="edge">
<title>Node5&#45;&gt;Node7</title>
<g id="a_edge6_Node000005_Node000007"><a xlink:title=" ">
<path fill="none" stroke="#63b8ff" d="M408.08,-30.1C422.84,-27.98 439.08,-25.66 454.42,-23.46"/>
<polygon fill="#63b8ff" stroke="#63b8ff" points="454.49,-26.99 463.89,-22.1 453.5,-20.06 454.49,-26.99"/>
</a>
</g>
</g>
</g>
</svg>
