<?xml version="1.0" encoding="UTF-8" standalone="no"?>
<!DOCTYPE svg PUBLIC "-//W3C//DTD SVG 1.1//EN"
 "http://www.w3.org/Graphics/SVG/1.1/DTD/svg11.dtd">
<!-- Generated by graphviz version 12.2.1 (0)
 -->
<!-- Title: MessageProcessor Pages: 1 -->
<!--zoomable 590 -->

<svg id="main" version="1.1" xmlns="http://www.w3.org/2000/svg" xmlns:xlink="http://www.w3.org/1999/xlink" xml:space="preserve" onload="init(evt)">

<style type="text/css"><![CDATA[
.node, .edge {opacity: 0.7;}
.node.selected, .edge.selected {opacity: 1;}
.edge:hover path { stroke: red; }
.edge:hover polygon { stroke: red; fill: red; }
]]></style>

<defs>
  <circle id="rim" cx="0" cy="0" r="7"/>
  <circle id="rim2" cx="0" cy="0" r="3.5"/>
  <g id="zoomPlus">
    <use xlink:href="#rim" fill="#404040"><set attributeName="fill" to="#808080" begin="zoomplus.mouseover" end="zoomplus.mouseout"/></use>
    <path d="M-4,0h8M0,-4v8" fill="none" stroke="white" stroke-width="1.5" pointer-events="none"/>
  </g>
  <g id="zoomMin">
    <use xlink:href="#rim" fill="#404040"><set attributeName="fill" to="#808080" begin="zoomminus.mouseover" end="zoomminus.mouseout"/></use>
    <path d="M-4,0h8" fill="none" stroke="white" stroke-width="1.5" pointer-events="none"/>
  </g>
  <g id="arrowUp" transform="translate(30 24)">
    <use xlink:href="#rim"/>
    <path pointer-events="none" fill="none" stroke="white" stroke-width="1.5" d="M0,-3.0v7 M-2.5,-0.5L0,-3.0L2.5,-0.5"/>
  </g>
  <g id="arrowRight" transform="rotate(90) translate(36 -43)">
    <use xlink:href="#rim"/>
    <path pointer-events="none" fill="none" stroke="white" stroke-width="1.5" d="M0,-3.0v7 M-2.5,-0.5L0,-3.0L2.5,-0.5"/>
  </g>
  <g id="arrowDown" transform="rotate(180) translate(-30 -48)">
    <use xlink:href="#rim"/>
    <path pointer-events="none" fill="none" stroke="white" stroke-width="1.5" d="M0,-3.0v7 M-2.5,-0.5L0,-3.0L2.5,-0.5"/>
  </g>
  <g id="arrowLeft" transform="rotate(270) translate(-36 17)">
    <use xlink:href="#rim"/>
    <path pointer-events="none" fill="none" stroke="white" stroke-width="1.5" d="M0,-3.0v7 M-2.5,-0.5L0,-3.0L2.5,-0.5"/>
  </g>
  <g id="resetDef">
    <use xlink:href="#rim2" fill="#404040"><set attributeName="fill" to="#808080" begin="reset.mouseover" end="reset.mouseout"/></use>
  </g>
</defs>
<script type="application/ecmascript">
var viewWidth = 184;
var viewHeight = 590;
var sectionId = 'dynsection-1';
</script>
<script type="application/ecmascript" xlink:href="svg.min.js"/>
<svg id="graph" class="graph">
<g id="viewport">
<title>MessageProcessor</title>
<!-- Node1 -->
<g id="Node000001" class="node">
<title>Node1</title>
<g id="a_Node000001"><a xlink:title="Singleton class responsible for processing incoming WebSocket messages for specific wavelengths.">
<polygon fill="#999999" stroke="none" points="176.25,-498.5 0,-498.5 0,0 176.25,0 176.25,-498.5"/>
<text text-anchor="start" x="46.12" y="-485" font-family="Helvetica,sans-Serif" font-size="10.00">MessageProcessor</text>
<text text-anchor="start" x="86.62" y="-470.5" font-family="Helvetica,sans-Serif" font-size="10.00"> </text>
<text text-anchor="start" x="4" y="-456" font-family="Helvetica,sans-Serif" font-size="10.00">+</text>
<text text-anchor="start" x="14" y="-456" font-family="Helvetica,sans-Serif" font-size="10.00">MessageProcessor(const</text>
<text text-anchor="start" x="14" y="-445.5" font-family="Helvetica,sans-Serif" font-size="10.00"> MessageProcessor &amp;)=delete</text>
<text text-anchor="start" x="4" y="-431" font-family="Helvetica,sans-Serif" font-size="10.00">+</text>
<text text-anchor="start" x="14" y="-431" font-family="Helvetica,sans-Serif" font-size="10.00">MessageProcessor &amp;</text>
<text text-anchor="start" x="14" y="-420.5" font-family="Helvetica,sans-Serif" font-size="10.00"> operator=(const MessageProcessor</text>
<text text-anchor="start" x="14" y="-410" font-family="Helvetica,sans-Serif" font-size="10.00"> &amp;)=delete</text>
<text text-anchor="start" x="4" y="-395.5" font-family="Helvetica,sans-Serif" font-size="10.00">+</text>
<text text-anchor="start" x="14" y="-395.5" font-family="Helvetica,sans-Serif" font-size="10.00">void ProcessIncomingBinary</text>
<text text-anchor="start" x="14" y="-385" font-family="Helvetica,sans-Serif" font-size="10.00">Message(const QByteArray</text>
<text text-anchor="start" x="14" y="-374.5" font-family="Helvetica,sans-Serif" font-size="10.00"> &amp;message, const QString</text>
<text text-anchor="start" x="14" y="-364" font-family="Helvetica,sans-Serif" font-size="10.00"> &amp;frequency)</text>
<text text-anchor="start" x="4" y="-349.5" font-family="Helvetica,sans-Serif" font-size="10.00">+</text>
<text text-anchor="start" x="14" y="-349.5" font-family="Helvetica,sans-Serif" font-size="10.00">void ProcessIncomingMessage</text>
<text text-anchor="start" x="14" y="-339" font-family="Helvetica,sans-Serif" font-size="10.00">(const QString &amp;message,</text>
<text text-anchor="start" x="14" y="-328.5" font-family="Helvetica,sans-Serif" font-size="10.00"> const QString &amp;frequency)</text>
<text text-anchor="start" x="4" y="-314" font-family="Helvetica,sans-Serif" font-size="10.00">+</text>
<text text-anchor="start" x="14" y="-314" font-family="Helvetica,sans-Serif" font-size="10.00">void SetSocketMessageHandlers</text>
<text text-anchor="start" x="14" y="-303.5" font-family="Helvetica,sans-Serif" font-size="10.00">(QWebSocket *socket, QString</text>
<text text-anchor="start" x="14" y="-293" font-family="Helvetica,sans-Serif" font-size="10.00"> frequency)</text>
<text text-anchor="start" x="4" y="-278.5" font-family="Helvetica,sans-Serif" font-size="10.00">+</text>
<text text-anchor="start" x="14" y="-278.5" font-family="Helvetica,sans-Serif" font-size="10.00">static bool AreFrequencies</text>
<text text-anchor="start" x="14" y="-268" font-family="Helvetica,sans-Serif" font-size="10.00">Equal(const QString &amp;frequency1,</text>
<text text-anchor="start" x="14" y="-257.5" font-family="Helvetica,sans-Serif" font-size="10.00"> const QString &amp;frequency2)</text>
<text text-anchor="start" x="4" y="-243" font-family="Helvetica,sans-Serif" font-size="10.00">+</text>
<text text-anchor="start" x="14" y="-243" font-family="Helvetica,sans-Serif" font-size="10.00">static MessageProcessor</text>
<text text-anchor="start" x="14" y="-232.5" font-family="Helvetica,sans-Serif" font-size="10.00"> * GetInstance()</text>
<text text-anchor="start" x="5.5" y="-218" font-family="Helvetica,sans-Serif" font-size="10.00">&#45;</text>
<text text-anchor="start" x="14" y="-218" font-family="Helvetica,sans-Serif" font-size="10.00">MessageProcessor(QObject</text>
<text text-anchor="start" x="14" y="-207.5" font-family="Helvetica,sans-Serif" font-size="10.00"> *parent=nullptr)</text>
<text text-anchor="start" x="5.5" y="-193" font-family="Helvetica,sans-Serif" font-size="10.00">&#45;</text>
<text text-anchor="start" x="14" y="-193" font-family="Helvetica,sans-Serif" font-size="10.00">void ProcessMessageContent</text>
<text text-anchor="start" x="14" y="-182.5" font-family="Helvetica,sans-Serif" font-size="10.00">(const QJsonObject &amp;message</text>
<text text-anchor="start" x="14" y="-172" font-family="Helvetica,sans-Serif" font-size="10.00">_object, const QString &amp;frequency,</text>
<text text-anchor="start" x="14" y="-161.5" font-family="Helvetica,sans-Serif" font-size="10.00"> const QString &amp;message_id)</text>
<text text-anchor="start" x="5.5" y="-147" font-family="Helvetica,sans-Serif" font-size="10.00">&#45;</text>
<text text-anchor="start" x="14" y="-147" font-family="Helvetica,sans-Serif" font-size="10.00">void ProcessSystemCommand</text>
<text text-anchor="start" x="14" y="-136.5" font-family="Helvetica,sans-Serif" font-size="10.00">(const QJsonObject &amp;message</text>
<text text-anchor="start" x="14" y="-126" font-family="Helvetica,sans-Serif" font-size="10.00">_object, const QString &amp;frequency)</text>
<text text-anchor="start" x="5.5" y="-111.5" font-family="Helvetica,sans-Serif" font-size="10.00">&#45;</text>
<text text-anchor="start" x="14" y="-111.5" font-family="Helvetica,sans-Serif" font-size="10.00">void ProcessUserJoined</text>
<text text-anchor="start" x="14" y="-101" font-family="Helvetica,sans-Serif" font-size="10.00">(const QJsonObject &amp;message</text>
<text text-anchor="start" x="14" y="-90.5" font-family="Helvetica,sans-Serif" font-size="10.00">_object, const QString &amp;frequency)</text>
<text text-anchor="start" x="5.5" y="-76" font-family="Helvetica,sans-Serif" font-size="10.00">&#45;</text>
<text text-anchor="start" x="14" y="-76" font-family="Helvetica,sans-Serif" font-size="10.00">void ProcessUserLeft</text>
<text text-anchor="start" x="14" y="-65.5" font-family="Helvetica,sans-Serif" font-size="10.00">(const QJsonObject &amp;message</text>
<text text-anchor="start" x="14" y="-55" font-family="Helvetica,sans-Serif" font-size="10.00">_object, const QString &amp;frequency)</text>
<text text-anchor="start" x="5.5" y="-40.5" font-family="Helvetica,sans-Serif" font-size="10.00">&#45;</text>
<text text-anchor="start" x="14" y="-40.5" font-family="Helvetica,sans-Serif" font-size="10.00">void ProcessWavelengthClosed</text>
<text text-anchor="start" x="14" y="-30" font-family="Helvetica,sans-Serif" font-size="10.00">(const QString &amp;frequency)</text>
<text text-anchor="start" x="5.5" y="-15.5" font-family="Helvetica,sans-Serif" font-size="10.00">&#45;</text>
<text text-anchor="start" x="14" y="-15.5" font-family="Helvetica,sans-Serif" font-size="10.00">~MessageProcessor</text>
<text text-anchor="start" x="14" y="-5" font-family="Helvetica,sans-Serif" font-size="10.00">() override=default</text>
<polygon fill="#666666" stroke="#666666" points="0,-482 0,-482 176.25,-482 176.25,-482 0,-482"/>
<polygon fill="#666666" stroke="#666666" points="0,-467.5 0,-467.5 176.25,-467.5 176.25,-467.5 0,-467.5"/>
<polygon fill="none" stroke="#666666" points="0,0 0,-498.5 176.25,-498.5 176.25,0 0,0"/>
</a>
</g>
</g>
<!-- Node2 -->
<g id="Node000002" class="node">
<title>Node2</title>
<g id="a_Node000002"><a xlink:title=" ">
<polygon fill="white" stroke="none" points="110.12,-582 66.12,-582 66.12,-534.5 110.12,-534.5 110.12,-582"/>
<text text-anchor="start" x="70.12" y="-568.5" font-family="Helvetica,sans-Serif" font-size="10.00">QObject</text>
<text text-anchor="start" x="86.62" y="-554" font-family="Helvetica,sans-Serif" font-size="10.00"> </text>
<text text-anchor="start" x="86.62" y="-539.5" font-family="Helvetica,sans-Serif" font-size="10.00"> </text>
<polygon fill="#666666" stroke="#666666" points="66.12,-565.5 66.12,-565.5 110.12,-565.5 110.12,-565.5 66.12,-565.5"/>
<polygon fill="#666666" stroke="#666666" points="66.12,-551 66.12,-551 110.12,-551 110.12,-551 66.12,-551"/>
<polygon fill="none" stroke="#666666" points="66.12,-534.5 66.12,-582 110.12,-582 110.12,-534.5 66.12,-534.5"/>
</a>
</g>
</g>
<!-- Node2&#45;&gt;Node1 -->
<g id="edge1_Node000001_Node000002" class="edge">
<title>Node2&#45;&gt;Node1</title>
<g id="a_edge1_Node000001_Node000002"><a xlink:title=" ">
<path fill="none" stroke="#63b8ff" d="M88.12,-523.42C88.12,-515.93 88.12,-507.44 88.12,-498.21"/>
<polygon fill="none" stroke="#63b8ff" points="84.63,-523.16 88.13,-533.16 91.63,-523.16 84.63,-523.16"/>
</a>
</g>
</g>
</g>
</svg>

<g id="navigator" transform="translate(0 0)" fill="#404254">
  <rect fill="#f2f5e9" fill-opacity="0.5" stroke="#606060" stroke-width=".5" x="0" y="0" width="60" height="60"/>
  <use id="zoomplus" xlink:href="#zoomPlus" x="17" y="9" onmousedown="handleZoom(evt,'in')"/>
  <use id="zoomminus" xlink:href="#zoomMin" x="42" y="9" onmousedown="handleZoom(evt,'out')"/>
  <use id="reset" xlink:href="#resetDef" x="30" y="36" onmousedown="handleReset()"/>
   <use id="arrowup" xlink:href="#arrowUp" x="0" y="0" onmousedown="handlePan(0,-1)"/>
  <use id="arrowright" xlink:href="#arrowRight" x="0" y="0" onmousedown="handlePan(1,0)"/>
  <use id="arrowdown" xlink:href="#arrowDown" x="0" y="0" onmousedown="handlePan(0,1)"/>
  <use id="arrowleft" xlink:href="#arrowLeft" x="0" y="0" onmousedown="handlePan(-1,0)"/>
</g>
<svg viewBox="0 0 15 15" width="100%" height="30px" preserveAspectRatio="xMaxYMin meet">
 <g id="arrow_out" transform="scale(0.3 0.3)">
  <a xlink:href="classMessageProcessor__coll__graph_org.svg" target="_base">
   <rect id="button" ry="5" rx="5" y="6" x="6" height="38" width="38"
        fill="#f2f5e9" fill-opacity="0.5" stroke="#606060" stroke-width="1.0"/>
   <path id="arrow"
     d="M 11.500037,31.436501 C 11.940474,20.09759 22.043105,11.32322 32.158766,21.979434 L 37.068811,17.246167 C 37.068811,17.246167 37.088388,32 37.088388,32 L 22.160133,31.978069 C 22.160133,31.978069 26.997745,27.140456 26.997745,27.140456 C 18.528582,18.264221 13.291696,25.230495 11.500037,31.436501 z"
     style="fill:#404040;"/>
  </a>
 </g>
</svg>

<style type='text/css'>
<![CDATA[
[data-mouse-over-selected='false'] { opacity: 0.7; }
[data-mouse-over-selected='true']  { opacity: 1.0; }
]]>
</style>
<script type="application/ecmascript"><![CDATA[
document.addEventListener('DOMContentLoaded', (event) => {
  highlightEdges();
  highlightAdjacentNodes();
});
]]></script>
</svg>
