<?xml version="1.0" encoding="UTF-8" standalone="no"?>
<!DOCTYPE svg PUBLIC "-//W3C//DTD SVG 1.1//EN"
 "http://www.w3.org/Graphics/SVG/1.1/DTD/svg11.dtd">
<!-- Generated by graphviz version 12.2.1 (0)
 -->
<!-- Title: WavelengthConfig::RestoreDefaults Pages: 1 -->
<svg width="337pt" height="158pt"
 viewBox="0.00 0.00 337.00 157.75" xmlns="http://www.w3.org/2000/svg" xmlns:xlink="http://www.w3.org/1999/xlink">
<g id="graph0" class="graph" transform="scale(1 1) rotate(0) translate(4 153.75)">
<title>WavelengthConfig::RestoreDefaults</title>
<!-- Node1 -->
<g id="Node000001" class="node">
<title>Node1</title>
<g id="a_Node000001"><a xlink:title="Restores all configuration settings to their default values. Also clears saved shortcuts in persisten...">
<polygon fill="#999999" stroke="#666666" points="134.5,-86.75 0,-86.75 0,-57.75 134.5,-57.75 134.5,-86.75"/>
<text text-anchor="start" x="8" y="-73.25" font-family="Helvetica,sans-Serif" font-size="10.00">WavelengthConfig::Restore</text>
<text text-anchor="middle" x="67.25" y="-62.75" font-family="Helvetica,sans-Serif" font-size="10.00">Defaults</text>
</a>
</g>
</g>
<!-- Node2 -->
<g id="Node000002" class="node">
<title>Node2</title>
<g id="a_Node000002"><a xlink:href="classWavelengthConfig.html#abc5ccf726876bf0f8a5a842b70a2e766" target="_top" xlink:title="Emitted when a configuration setting changes.">
<polygon fill="white" stroke="#666666" points="313.25,-149.75 186.25,-149.75 186.25,-120.75 313.25,-120.75 313.25,-149.75"/>
<text text-anchor="start" x="194.25" y="-136.25" font-family="Helvetica,sans-Serif" font-size="10.00">WavelengthConfig::config</text>
<text text-anchor="middle" x="249.75" y="-125.75" font-family="Helvetica,sans-Serif" font-size="10.00">Changed</text>
</a>
</g>
</g>
<!-- Node1&#45;&gt;Node2 -->
<g id="edge1_Node000001_Node000002" class="edge">
<title>Node1&#45;&gt;Node2</title>
<g id="a_edge1_Node000001_Node000002"><a xlink:title=" ">
<path fill="none" stroke="#63b8ff" d="M105.43,-87.12C124.73,-94.66 148.76,-103.78 170.5,-111.25 176.13,-113.18 182.01,-115.13 187.91,-117.02"/>
<polygon fill="#63b8ff" stroke="#63b8ff" points="186.46,-120.24 197.05,-119.92 188.58,-113.57 186.46,-120.24"/>
</a>
</g>
</g>
<!-- Node3 -->
<g id="Node000003" class="node">
<title>Node3</title>
<g id="a_Node000003"><a xlink:href="classWavelengthConfig.html#a49a8a75cd34539bc454cc7c3f629b1a9" target="_top" xlink:title="Loads the hardcoded default values for all settings into the member variables. Also copies the defaul...">
<polygon fill="white" stroke="#666666" points="329,-102.5 170.5,-102.5 170.5,-84 329,-84 329,-102.5"/>
<text text-anchor="middle" x="249.75" y="-89" font-family="Helvetica,sans-Serif" font-size="10.00">WavelengthConfig::LoadDefaults</text>
</a>
</g>
</g>
<!-- Node1&#45;&gt;Node3 -->
<g id="edge2_Node000001_Node000003" class="edge">
<title>Node1&#45;&gt;Node3</title>
<g id="a_edge2_Node000001_Node000003"><a xlink:title=" ">
<path fill="none" stroke="#63b8ff" d="M134.95,-80.01C142.73,-80.92 150.76,-81.85 158.79,-82.78"/>
<polygon fill="#63b8ff" stroke="#63b8ff" points="158.27,-86.25 168.61,-83.93 159.08,-79.29 158.27,-86.25"/>
</a>
</g>
</g>
<!-- Node4 -->
<g id="Node000004" class="node">
<title>Node4</title>
<g id="a_Node000004"><a xlink:href="classWavelengthConfig.html#aac745a2f42099f82975e7b205aa5a6a7" target="_top" xlink:title="Emitted when the list of recent colors changes (a color was added).">
<polygon fill="white" stroke="#666666" points="313.62,-65.75 185.88,-65.75 185.88,-36.75 313.62,-36.75 313.62,-65.75"/>
<text text-anchor="start" x="193.88" y="-52.25" font-family="Helvetica,sans-Serif" font-size="10.00">WavelengthConfig::recent</text>
<text text-anchor="middle" x="249.75" y="-41.75" font-family="Helvetica,sans-Serif" font-size="10.00">ColorsChanged</text>
</a>
</g>
</g>
<!-- Node1&#45;&gt;Node4 -->
<g id="edge3_Node000001_Node000004" class="edge">
<title>Node1&#45;&gt;Node4</title>
<g id="a_edge3_Node000001_Node000004"><a xlink:title=" ">
<path fill="none" stroke="#63b8ff" d="M134.95,-64.49C147.76,-63 161.26,-61.43 174.3,-59.91"/>
<polygon fill="#63b8ff" stroke="#63b8ff" points="174.59,-63.4 184.12,-58.77 173.78,-56.45 174.59,-63.4"/>
</a>
</g>
</g>
<!-- Node5 -->
<g id="Node000005" class="node">
<title>Node5</title>
<g id="a_Node000005"><a xlink:href="classWavelengthConfig.html#a1707a439a9504cd61ab2a43917c152ca" target="_top" xlink:title="Saves all current configuration settings to persistent storage (QSettings).">
<polygon fill="white" stroke="#666666" points="329,-18.5 170.5,-18.5 170.5,0 329,0 329,-18.5"/>
<text text-anchor="middle" x="249.75" y="-5" font-family="Helvetica,sans-Serif" font-size="10.00">WavelengthConfig::SaveSettings</text>
</a>
</g>
</g>
<!-- Node1&#45;&gt;Node5 -->
<g id="edge4_Node000001_Node000005" class="edge">
<title>Node1&#45;&gt;Node5</title>
<g id="a_edge4_Node000001_Node000005"><a xlink:title=" ">
<path fill="none" stroke="#63b8ff" d="M99.05,-57.38C119.07,-48.12 145.94,-36.45 170.5,-28.25 177.46,-25.93 184.85,-23.76 192.2,-21.78"/>
<polygon fill="#63b8ff" stroke="#63b8ff" points="193,-25.19 201.81,-19.3 191.26,-18.41 193,-25.19"/>
</a>
</g>
</g>
</g>
</svg>
