<?xml version="1.0" encoding="UTF-8" standalone="no"?>
<!DOCTYPE svg PUBLIC "-//W3C//DTD SVG 1.1//EN"
 "http://www.w3.org/Graphics/SVG/1.1/DTD/svg11.dtd">
<!-- Generated by graphviz version 12.2.1 (0)
 -->
<!-- Title: SessionCoordinator::CloseWavelength Pages: 1 -->
<svg width="427pt" height="37pt"
 viewBox="0.00 0.00 426.50 37.00" xmlns="http://www.w3.org/2000/svg" xmlns:xlink="http://www.w3.org/1999/xlink">
<g id="graph0" class="graph" transform="scale(1 1) rotate(0) translate(4 33)">
<title>SessionCoordinator::CloseWavelength</title>
<!-- Node1 -->
<g id="Node000001" class="node">
<title>Node1</title>
<g id="a_Node000001"><a xlink:title="Closes a specific wavelength (only if the current user is the host). Unregisters the wavelength local...">
<polygon fill="#999999" stroke="#666666" points="418.5,-29 317,-29 317,0 418.5,0 418.5,-29"/>
<text text-anchor="start" x="325" y="-15.5" font-family="Helvetica,sans-Serif" font-size="10.00">SessionCoordinator</text>
<text text-anchor="middle" x="367.75" y="-5" font-family="Helvetica,sans-Serif" font-size="10.00">::CloseWavelength</text>
</a>
</g>
</g>
<!-- Node2 -->
<g id="Node000002" class="node">
<title>Node2</title>
<g id="a_Node000002"><a xlink:href="classChatView.html#a23a3ce66f4af487f1f0571e72aaca9aa" target="_top" xlink:title="Initiates the process of leaving or closing the current Wavelength. Updates the status indicator,...">
<polygon fill="white" stroke="#666666" points="281,-23.75 142.75,-23.75 142.75,-5.25 281,-5.25 281,-23.75"/>
<text text-anchor="middle" x="211.88" y="-10.25" font-family="Helvetica,sans-Serif" font-size="10.00">ChatView::AbortWavelength</text>
</a>
</g>
</g>
<!-- Node1&#45;&gt;Node2 -->
<g id="edge1_Node000001_Node000002" class="edge">
<title>Node1&#45;&gt;Node2</title>
<g id="a_edge1_Node000001_Node000002"><a xlink:title=" ">
<path fill="none" stroke="#63b8ff" d="M305.4,-14.5C297.49,-14.5 289.34,-14.5 281.32,-14.5"/>
<polygon fill="#63b8ff" stroke="#63b8ff" points="305.28,-18 315.28,-14.5 305.28,-11 305.28,-18"/>
</a>
</g>
</g>
<!-- Node3 -->
<g id="Node000003" class="node">
<title>Node3</title>
<g id="a_Node000003"><a xlink:href="classChatView.html#ad2db6f12afdba4b49ec7775b2d560ad3" target="_top" xlink:title="Constructs a WavelengthChatView. Initializes the UI elements (labels, message area,...">
<polygon fill="white" stroke="#666666" points="106.75,-23.75 0,-23.75 0,-5.25 106.75,-5.25 106.75,-23.75"/>
<text text-anchor="middle" x="53.38" y="-10.25" font-family="Helvetica,sans-Serif" font-size="10.00">ChatView::ChatView</text>
</a>
</g>
</g>
<!-- Node2&#45;&gt;Node3 -->
<g id="edge2_Node000002_Node000003" class="edge">
<title>Node2&#45;&gt;Node3</title>
<g id="a_edge2_Node000002_Node000003"><a xlink:title=" ">
<path fill="none" stroke="#63b8ff" d="M131.35,-14.5C123.03,-14.5 114.72,-14.5 106.8,-14.5"/>
<polygon fill="#63b8ff" stroke="#63b8ff" points="131.17,-18 141.17,-14.5 131.17,-11 131.17,-18"/>
</a>
</g>
</g>
</g>
</svg>
