<?xml version="1.0" encoding="UTF-8" standalone="no"?>
<!DOCTYPE svg PUBLIC "-//W3C//DTD SVG 1.1//EN"
 "http://www.w3.org/Graphics/SVG/1.1/DTD/svg11.dtd">
<!-- Generated by graphviz version 12.2.1 (0)
 -->
<!-- Title: AnimatedStackedWidget::SlideToWidget Pages: 1 -->
<svg width="609pt" height="178pt"
 viewBox="0.00 0.00 609.00 178.00" xmlns="http://www.w3.org/2000/svg" xmlns:xlink="http://www.w3.org/1999/xlink">
<g id="graph0" class="graph" transform="scale(1 1) rotate(0) translate(4 174)">
<title>AnimatedStackedWidget::SlideToWidget</title>
<!-- Node1 -->
<g id="Node000001" class="node">
<title>Node1</title>
<g id="a_Node000001"><a xlink:title="Initiates an animated transition to the specified widget. Convenience slot that finds the index of th...">
<polygon fill="#999999" stroke="#666666" points="123.25,-122 0,-122 0,-93 123.25,-93 123.25,-122"/>
<text text-anchor="start" x="8" y="-108.5" font-family="Helvetica,sans-Serif" font-size="10.00">AnimatedStackedWidget</text>
<text text-anchor="middle" x="61.62" y="-98" font-family="Helvetica,sans-Serif" font-size="10.00">::SlideToWidget</text>
</a>
</g>
</g>
<!-- Node2 -->
<g id="Node000002" class="node">
<title>Node2</title>
<g id="a_Node000002"><a xlink:href="classAnimatedStackedWidget.html#a0a9829357f507ac7b5e0a7daf69b279f" target="_top" xlink:title="Initiates an animated transition to the widget at the specified index. Plays a sound effect and start...">
<polygon fill="white" stroke="#666666" points="282.5,-122 159.25,-122 159.25,-93 282.5,-93 282.5,-122"/>
<text text-anchor="start" x="167.25" y="-108.5" font-family="Helvetica,sans-Serif" font-size="10.00">AnimatedStackedWidget</text>
<text text-anchor="middle" x="220.88" y="-98" font-family="Helvetica,sans-Serif" font-size="10.00">::SlideToIndex</text>
</a>
</g>
</g>
<!-- Node1&#45;&gt;Node2 -->
<g id="edge1_Node000001_Node000002" class="edge">
<title>Node1&#45;&gt;Node2</title>
<g id="a_edge1_Node000001_Node000002"><a xlink:title=" ">
<path fill="none" stroke="#63b8ff" d="M123.42,-107.5C131.35,-107.5 139.54,-107.5 147.63,-107.5"/>
<polygon fill="#63b8ff" stroke="#63b8ff" points="147.47,-111 157.47,-107.5 147.47,-104 147.47,-111"/>
</a>
</g>
</g>
<!-- Node3 -->
<g id="Node000003" class="node">
<title>Node3</title>
<g id="a_Node000003"><a xlink:href="classAnimatedStackedWidget.html#a57cdf55739292d948ecdd6f97cba09c0" target="_top" xlink:title="Cleans up graphics effects and resets widget geometries after an animation finishes....">
<polygon fill="white" stroke="#666666" points="441.75,-146 318.5,-146 318.5,-117 441.75,-117 441.75,-146"/>
<text text-anchor="start" x="326.5" y="-132.5" font-family="Helvetica,sans-Serif" font-size="10.00">AnimatedStackedWidget</text>
<text text-anchor="middle" x="380.12" y="-122" font-family="Helvetica,sans-Serif" font-size="10.00">::CleanupAfterAnimation</text>
</a>
</g>
</g>
<!-- Node2&#45;&gt;Node3 -->
<g id="edge2_Node000002_Node000003" class="edge">
<title>Node2&#45;&gt;Node3</title>
<g id="a_edge2_Node000002_Node000003"><a xlink:title=" ">
<path fill="none" stroke="#63b8ff" d="M282.67,-116.78C290.6,-117.99 298.79,-119.24 306.88,-120.47"/>
<polygon fill="#63b8ff" stroke="#63b8ff" points="306.32,-123.93 316.73,-121.98 307.38,-117.01 306.32,-123.93"/>
</a>
</g>
</g>
<!-- Node4 -->
<g id="Node000004" class="node">
<title>Node4</title>
<g id="a_Node000004"><a xlink:href="classAnimatedStackedWidget.html#ab948154ce1b983eefb9338d97cb58976" target="_top" xlink:title="Prepares the appropriate animation based on animation_type_. Calls the corresponding Animate* method ...">
<polygon fill="white" stroke="#666666" points="441.75,-99 318.5,-99 318.5,-70 441.75,-70 441.75,-99"/>
<text text-anchor="start" x="326.5" y="-85.5" font-family="Helvetica,sans-Serif" font-size="10.00">AnimatedStackedWidget</text>
<text text-anchor="middle" x="380.12" y="-75" font-family="Helvetica,sans-Serif" font-size="10.00">::PrepareAnimation</text>
</a>
</g>
</g>
<!-- Node2&#45;&gt;Node4 -->
<g id="edge3_Node000002_Node000004" class="edge">
<title>Node2&#45;&gt;Node4</title>
<g id="a_edge3_Node000002_Node000004"><a xlink:title=" ">
<path fill="none" stroke="#63b8ff" d="M282.67,-98.61C290.6,-97.45 298.79,-96.25 306.88,-95.07"/>
<polygon fill="#63b8ff" stroke="#63b8ff" points="307.34,-98.54 316.73,-93.63 306.33,-91.61 307.34,-98.54"/>
</a>
</g>
</g>
<!-- Node5 -->
<g id="Node000005" class="node">
<title>Node5</title>
<g id="a_Node000005"><a xlink:href="classAnimatedStackedWidget.html#acf39fd97b7aa80907c98d6e5ee925e3d" target="_top" xlink:title="Configures and adds animations to the animation_group_ for a fade transition.">
<polygon fill="white" stroke="#666666" points="601,-170 477.75,-170 477.75,-141 601,-141 601,-170"/>
<text text-anchor="start" x="485.75" y="-156.5" font-family="Helvetica,sans-Serif" font-size="10.00">AnimatedStackedWidget</text>
<text text-anchor="middle" x="539.38" y="-146" font-family="Helvetica,sans-Serif" font-size="10.00">::AnimateFade</text>
</a>
</g>
</g>
<!-- Node4&#45;&gt;Node5 -->
<g id="edge4_Node000004_Node000005" class="edge">
<title>Node4&#45;&gt;Node5</title>
<g id="a_edge4_Node000004_Node000005"><a xlink:title=" ">
<path fill="none" stroke="#63b8ff" d="M422.42,-99.48C428.99,-102.26 435.63,-105.3 441.75,-108.5 458.78,-117.42 460.65,-123.7 477.75,-132.5 480.11,-133.72 482.56,-134.91 485.05,-136.06"/>
<polygon fill="#63b8ff" stroke="#63b8ff" points="483.5,-139.2 494.06,-140 486.3,-132.79 483.5,-139.2"/>
</a>
</g>
</g>
<!-- Node6 -->
<g id="Node000006" class="node">
<title>Node6</title>
<g id="a_Node000006"><a xlink:href="classAnimatedStackedWidget.html#ab5df18702b0ae21b22c85c308011ff2c" target="_top" xlink:title="Configures and adds animations to the animation_group_ for a push transition.">
<polygon fill="white" stroke="#666666" points="601,-123 477.75,-123 477.75,-94 601,-94 601,-123"/>
<text text-anchor="start" x="485.75" y="-109.5" font-family="Helvetica,sans-Serif" font-size="10.00">AnimatedStackedWidget</text>
<text text-anchor="middle" x="539.38" y="-99" font-family="Helvetica,sans-Serif" font-size="10.00">::AnimatePush</text>
</a>
</g>
</g>
<!-- Node4&#45;&gt;Node6 -->
<g id="edge5_Node000004_Node000006" class="edge">
<title>Node4&#45;&gt;Node6</title>
<g id="a_edge5_Node000004_Node000006"><a xlink:title=" ">
<path fill="none" stroke="#63b8ff" d="M441.92,-93.78C449.85,-94.99 458.04,-96.24 466.13,-97.47"/>
<polygon fill="#63b8ff" stroke="#63b8ff" points="465.57,-100.93 475.98,-98.98 466.63,-94.01 465.57,-100.93"/>
</a>
</g>
</g>
<!-- Node7 -->
<g id="Node000007" class="node">
<title>Node7</title>
<g id="a_Node000007"><a xlink:href="classAnimatedStackedWidget.html#a45b1363a258c139ac53df8fece2a9396" target="_top" xlink:title="Configures and adds animations to the animation_group_ for a slide transition (CPU fallback).">
<polygon fill="white" stroke="#666666" points="601,-76 477.75,-76 477.75,-47 601,-47 601,-76"/>
<text text-anchor="start" x="485.75" y="-62.5" font-family="Helvetica,sans-Serif" font-size="10.00">AnimatedStackedWidget</text>
<text text-anchor="middle" x="539.38" y="-52" font-family="Helvetica,sans-Serif" font-size="10.00">::AnimateSlide</text>
</a>
</g>
</g>
<!-- Node4&#45;&gt;Node7 -->
<g id="edge6_Node000004_Node000007" class="edge">
<title>Node4&#45;&gt;Node7</title>
<g id="a_edge6_Node000004_Node000007"><a xlink:title=" ">
<path fill="none" stroke="#63b8ff" d="M441.92,-75.61C449.85,-74.45 458.04,-73.25 466.13,-72.07"/>
<polygon fill="#63b8ff" stroke="#63b8ff" points="466.59,-75.54 475.98,-70.63 465.58,-68.61 466.59,-75.54"/>
</a>
</g>
</g>
<!-- Node8 -->
<g id="Node000008" class="node">
<title>Node8</title>
<g id="a_Node000008"><a xlink:href="classAnimatedStackedWidget.html#a0b881672aa2d68cbb0c4e37f1f7d74dd" target="_top" xlink:title="Configures and adds animations to the animation_group_ for a combined slide and fade transition.">
<polygon fill="white" stroke="#666666" points="601,-29 477.75,-29 477.75,0 601,0 601,-29"/>
<text text-anchor="start" x="485.75" y="-15.5" font-family="Helvetica,sans-Serif" font-size="10.00">AnimatedStackedWidget</text>
<text text-anchor="middle" x="539.38" y="-5" font-family="Helvetica,sans-Serif" font-size="10.00">::AnimateSlideAndFade</text>
</a>
</g>
</g>
<!-- Node4&#45;&gt;Node8 -->
<g id="edge7_Node000004_Node000008" class="edge">
<title>Node4&#45;&gt;Node8</title>
<g id="a_edge7_Node000004_Node000008"><a xlink:title=" ">
<path fill="none" stroke="#63b8ff" d="M410.92,-69.68C429.9,-60.39 455.09,-48.36 477.75,-38.5 481.34,-36.94 485.06,-35.36 488.81,-33.8"/>
<polygon fill="#63b8ff" stroke="#63b8ff" points="490.07,-37.07 498,-30.05 487.42,-30.59 490.07,-37.07"/>
</a>
</g>
</g>
</g>
</svg>
