<?xml version="1.0" encoding="UTF-8" standalone="no"?>
<!DOCTYPE svg PUBLIC "-//W3C//DTD SVG 1.1//EN"
 "http://www.w3.org/Graphics/SVG/1.1/DTD/svg11.dtd">
<!-- Generated by graphviz version 12.2.1 (0)
 -->
<!-- Title: SettingsView::LoadSettingsFromRegistry Pages: 1 -->
<svg width="653pt" height="64pt"
 viewBox="0.00 0.00 652.50 63.50" xmlns="http://www.w3.org/2000/svg" xmlns:xlink="http://www.w3.org/1999/xlink">
<g id="graph0" class="graph" transform="scale(1 1) rotate(0) translate(4 59.5)">
<title>SettingsView::LoadSettingsFromRegistry</title>
<!-- Node1 -->
<g id="Node000001" class="node">
<title>Node1</title>
<g id="a_Node000001"><a xlink:title="Loads settings from the WavelengthConfig object into the UI elements of all tabs. Delegates loading t...">
<polygon fill="#999999" stroke="#666666" points="644.5,-41.75 508.5,-41.75 508.5,-12.75 644.5,-12.75 644.5,-41.75"/>
<text text-anchor="start" x="516.5" y="-28.25" font-family="Helvetica,sans-Serif" font-size="10.00">SettingsView::LoadSettings</text>
<text text-anchor="middle" x="576.5" y="-17.75" font-family="Helvetica,sans-Serif" font-size="10.00">FromRegistry</text>
</a>
</g>
</g>
<!-- Node2 -->
<g id="Node000002" class="node">
<title>Node2</title>
<g id="a_Node000002"><a xlink:href="classSettingsView.html#af70830edb09631a2fb953acd08632d6a" target="_top" xlink:title="Restores all settings across all tabs to their default values. Prompts the user for confirmation befo...">
<polygon fill="white" stroke="#666666" points="472.5,-55.5 323,-55.5 323,-37 472.5,-37 472.5,-55.5"/>
<text text-anchor="middle" x="397.75" y="-42" font-family="Helvetica,sans-Serif" font-size="10.00">SettingsView::RestoreDefaults</text>
</a>
</g>
</g>
<!-- Node1&#45;&gt;Node2 -->
<g id="edge1_Node000001_Node000002" class="edge">
<title>Node1&#45;&gt;Node2</title>
<g id="a_edge1_Node000001_Node000002"><a xlink:title=" ">
<path fill="none" stroke="#63b8ff" d="M496.98,-35.69C489,-36.55 480.9,-37.42 472.97,-38.27"/>
<polygon fill="#63b8ff" stroke="#63b8ff" points="497.1,-39.2 506.67,-34.65 496.35,-32.24 497.1,-39.2"/>
</a>
</g>
</g>
<!-- Node5 -->
<g id="Node000005" class="node">
<title>Node5</title>
<g id="a_Node000005"><a xlink:href="classSettingsView.html#a6f4b2bd6caa7def617a3babc7c1b9f34" target="_top" xlink:title="Overridden show event handler. Loads settings from the configuration and resets the CLASSIFIED tab&#39;s ...">
<polygon fill="white" stroke="#666666" points="461.25,-18.5 334.25,-18.5 334.25,0 461.25,0 461.25,-18.5"/>
<text text-anchor="middle" x="397.75" y="-5" font-family="Helvetica,sans-Serif" font-size="10.00">SettingsView::showEvent</text>
</a>
</g>
</g>
<!-- Node1&#45;&gt;Node5 -->
<g id="edge4_Node000001_Node000005" class="edge">
<title>Node1&#45;&gt;Node5</title>
<g id="a_edge4_Node000001_Node000005"><a xlink:title=" ">
<path fill="none" stroke="#63b8ff" d="M496.92,-19.25C485.07,-18.04 472.98,-16.81 461.53,-15.64"/>
<polygon fill="#63b8ff" stroke="#63b8ff" points="496.37,-22.71 506.67,-20.24 497.07,-15.75 496.37,-22.71"/>
</a>
</g>
</g>
<!-- Node3 -->
<g id="Node000003" class="node">
<title>Node3</title>
<g id="a_Node000003"><a xlink:href="classSettingsView.html#a88aeaa2ebb222180310ba66f0dba95d5" target="_top" xlink:title="Creates and arranges the main UI elements of the SettingsView. Sets up the main layout,...">
<polygon fill="white" stroke="#666666" points="287,-55.5 172.75,-55.5 172.75,-37 287,-37 287,-55.5"/>
<text text-anchor="middle" x="229.88" y="-42" font-family="Helvetica,sans-Serif" font-size="10.00">SettingsView::SetupUi</text>
</a>
</g>
</g>
<!-- Node2&#45;&gt;Node3 -->
<g id="edge2_Node000002_Node000003" class="edge">
<title>Node2&#45;&gt;Node3</title>
<g id="a_edge2_Node000002_Node000003"><a xlink:title=" ">
<path fill="none" stroke="#63b8ff" d="M311.06,-46.25C302.94,-46.25 294.85,-46.25 287.1,-46.25"/>
<polygon fill="#63b8ff" stroke="#63b8ff" points="311.03,-49.75 321.03,-46.25 311.03,-42.75 311.03,-49.75"/>
</a>
</g>
</g>
<!-- Node4 -->
<g id="Node000004" class="node">
<title>Node4</title>
<g id="a_Node000004"><a xlink:href="classSettingsView.html#a4b22f39018ca1c051b4d88f6d2636683" target="_top" xlink:title="Constructs the SettingsView. Initializes the UI, sets up all tabs including the security layers for t...">
<polygon fill="white" stroke="#666666" points="136.75,-55.5 0,-55.5 0,-37 136.75,-37 136.75,-55.5"/>
<text text-anchor="middle" x="68.38" y="-42" font-family="Helvetica,sans-Serif" font-size="10.00">SettingsView::SettingsView</text>
</a>
</g>
</g>
<!-- Node3&#45;&gt;Node4 -->
<g id="edge3_Node000003_Node000004" class="edge">
<title>Node3&#45;&gt;Node4</title>
<g id="a_edge3_Node000003_Node000004"><a xlink:title=" ">
<path fill="none" stroke="#63b8ff" d="M161.15,-46.25C153.2,-46.25 145.08,-46.25 137.13,-46.25"/>
<polygon fill="#63b8ff" stroke="#63b8ff" points="161.13,-49.75 171.13,-46.25 161.13,-42.75 161.13,-49.75"/>
</a>
</g>
</g>
</g>
</svg>
