<?xml version="1.0" encoding="UTF-8" standalone="no"?>
<!DOCTYPE svg PUBLIC "-//W3C//DTD SVG 1.1//EN"
 "http://www.w3.org/Graphics/SVG/1.1/DTD/svg11.dtd">
<!-- Generated by graphviz version 12.2.1 (0)
 -->
<!-- Title: MessageHandler::GetInstance Pages: 1 -->
<!--zoomable 417 -->

<svg id="main" version="1.1" xmlns="http://www.w3.org/2000/svg" xmlns:xlink="http://www.w3.org/1999/xlink" xml:space="preserve" onload="init(evt)">

<style type="text/css"><![CDATA[
.node, .edge {opacity: 0.7;}
.node.selected, .edge.selected {opacity: 1;}
.edge:hover path { stroke: red; }
.edge:hover polygon { stroke: red; fill: red; }
]]></style>

<defs>
  <circle id="rim" cx="0" cy="0" r="7"/>
  <circle id="rim2" cx="0" cy="0" r="3.5"/>
  <g id="zoomPlus">
    <use xlink:href="#rim" fill="#404040"><set attributeName="fill" to="#808080" begin="zoomplus.mouseover" end="zoomplus.mouseout"/></use>
    <path d="M-4,0h8M0,-4v8" fill="none" stroke="white" stroke-width="1.5" pointer-events="none"/>
  </g>
  <g id="zoomMin">
    <use xlink:href="#rim" fill="#404040"><set attributeName="fill" to="#808080" begin="zoomminus.mouseover" end="zoomminus.mouseout"/></use>
    <path d="M-4,0h8" fill="none" stroke="white" stroke-width="1.5" pointer-events="none"/>
  </g>
  <g id="arrowUp" transform="translate(30 24)">
    <use xlink:href="#rim"/>
    <path pointer-events="none" fill="none" stroke="white" stroke-width="1.5" d="M0,-3.0v7 M-2.5,-0.5L0,-3.0L2.5,-0.5"/>
  </g>
  <g id="arrowRight" transform="rotate(90) translate(36 -43)">
    <use xlink:href="#rim"/>
    <path pointer-events="none" fill="none" stroke="white" stroke-width="1.5" d="M0,-3.0v7 M-2.5,-0.5L0,-3.0L2.5,-0.5"/>
  </g>
  <g id="arrowDown" transform="rotate(180) translate(-30 -48)">
    <use xlink:href="#rim"/>
    <path pointer-events="none" fill="none" stroke="white" stroke-width="1.5" d="M0,-3.0v7 M-2.5,-0.5L0,-3.0L2.5,-0.5"/>
  </g>
  <g id="arrowLeft" transform="rotate(270) translate(-36 17)">
    <use xlink:href="#rim"/>
    <path pointer-events="none" fill="none" stroke="white" stroke-width="1.5" d="M0,-3.0v7 M-2.5,-0.5L0,-3.0L2.5,-0.5"/>
  </g>
  <g id="resetDef">
    <use xlink:href="#rim2" fill="#404040"><set attributeName="fill" to="#808080" begin="reset.mouseover" end="reset.mouseout"/></use>
  </g>
</defs>
<script type="application/ecmascript">
var viewWidth = 1239;
var viewHeight = 417;
var sectionId = 'dynsection-6';
</script>
<script type="application/ecmascript" xlink:href="svg.min.js"/>
<svg id="graph" class="graph">
<g id="viewport">
<title>MessageHandler::GetInstance</title>
<!-- Node1 -->
<g id="Node000001" class="node">
<title>Node1</title>
<g id="a_Node000001"><a xlink:title="Gets the singleton instance of the MessageHandler.">
<polygon fill="#999999" stroke="#666666" points="1231,-257.75 1082.25,-257.75 1082.25,-239.25 1231,-239.25 1231,-257.75"/>
<text text-anchor="middle" x="1156.62" y="-244.25" font-family="Helvetica,sans-Serif" font-size="10.00">MessageHandler::GetInstance</text>
</a>
</g>
</g>
<!-- Node2 -->
<g id="Node000002" class="node">
<title>Node2</title>
<g id="a_Node000002"><a xlink:href="classWavelengthLeaver.html#af9c574c0d19226e480a7af8edd48f759" target="_top" xlink:title="Closes a specific wavelength (only if the current user is the host). Checks if the user is the host f...">
<polygon fill="white" stroke="#666666" points="1046.25,-239.75 869.75,-239.75 869.75,-221.25 1046.25,-221.25 1046.25,-239.75"/>
<text text-anchor="middle" x="958" y="-226.25" font-family="Helvetica,sans-Serif" font-size="10.00">WavelengthLeaver::CloseWavelength</text>
</a>
</g>
</g>
<!-- Node1&#45;&gt;Node2 -->
<g id="edge1_Node000001_Node000002" class="edge">
<title>Node1&#45;&gt;Node2</title>
<g id="a_edge1_Node000001_Node000002"><a xlink:title=" ">
<path fill="none" stroke="#63b8ff" d="M1070.62,-240.72C1062.61,-239.99 1054.48,-239.24 1046.44,-238.51"/>
<polygon fill="#63b8ff" stroke="#63b8ff" points="1070.06,-244.18 1080.34,-241.61 1070.7,-237.21 1070.06,-244.18"/>
</a>
</g>
</g>
<!-- Node6 -->
<g id="Node000006" class="node">
<title>Node6</title>
<g id="a_Node000006"><a xlink:href="classWavelengthCreator.html#aceda419aab0bae7f3323bedfcb0ad6d1" target="_top" xlink:title="Attempts to create and register a new wavelength with the relay server. Checks if the wavelength alre...">
<polygon fill="white" stroke="#666666" points="437.62,-377 333.12,-377 333.12,-348 437.62,-348 437.62,-377"/>
<text text-anchor="start" x="341.12" y="-363.5" font-family="Helvetica,sans-Serif" font-size="10.00">WavelengthCreator::</text>
<text text-anchor="middle" x="385.38" y="-353" font-family="Helvetica,sans-Serif" font-size="10.00">CreateWavelength</text>
</a>
</g>
</g>
<!-- Node1&#45;&gt;Node6 -->
<g id="edge5_Node000001_Node000006" class="edge">
<title>Node1&#45;&gt;Node6</title>
<g id="a_edge5_Node000001_Node000006"><a xlink:title=" ">
<path fill="none" stroke="#63b8ff" d="M1143.48,-267.77C1125.78,-293.83 1090.17,-339.16 1046.25,-357.5 835.35,-445.58 552.41,-399.42 437.8,-374.75"/>
<polygon fill="#63b8ff" stroke="#63b8ff" points="1146.36,-269.76 1148.92,-259.48 1140.5,-265.92 1146.36,-269.76"/>
</a>
</g>
</g>
<!-- Node8 -->
<g id="Node000008" class="node">
<title>Node8</title>
<g id="a_Node000008"><a xlink:href="classWavelengthJoiner.html#a10830ee7f998cc18b6df1949455ae98e" target="_top" xlink:title="Attempts to join an existing wavelength hosted on the relay server. Checks if the wavelength is alrea...">
<polygon fill="white" stroke="#666666" points="468.75,-303.75 302,-303.75 302,-285.25 468.75,-285.25 468.75,-303.75"/>
<text text-anchor="middle" x="385.38" y="-290.25" font-family="Helvetica,sans-Serif" font-size="10.00">WavelengthJoiner::JoinWavelength</text>
</a>
</g>
</g>
<!-- Node1&#45;&gt;Node8 -->
<g id="edge7_Node000001_Node000008" class="edge">
<title>Node1&#45;&gt;Node8</title>
<g id="a_edge7_Node000001_Node000008"><a xlink:title=" ">
<path fill="none" stroke="#63b8ff" d="M1070.56,-253.59C921.81,-262.48 616.28,-280.75 469.15,-289.55"/>
<polygon fill="#63b8ff" stroke="#63b8ff" points="1070.58,-257.09 1080.36,-253 1070.16,-250.1 1070.58,-257.09"/>
</a>
</g>
</g>
<!-- Node12 -->
<g id="Node000012" class="node">
<title>Node12</title>
<g id="a_Node000012"><a xlink:href="classWavelengthLeaver.html#a11a552cbede70a46b0f5cb9a509328d7" target="_top" xlink:title="Leaves the currently active wavelength. Retrieves the active frequency from the registry....">
<polygon fill="white" stroke="#666666" points="1046.25,-197.75 869.75,-197.75 869.75,-179.25 1046.25,-179.25 1046.25,-197.75"/>
<text text-anchor="middle" x="958" y="-184.25" font-family="Helvetica,sans-Serif" font-size="10.00">WavelengthLeaver::LeaveWavelength</text>
</a>
</g>
</g>
<!-- Node1&#45;&gt;Node12 -->
<g id="edge11_Node000001_Node000012" class="edge">
<title>Node1&#45;&gt;Node12</title>
<g id="a_edge11_Node000001_Node000012"><a xlink:title=" ">
<path fill="none" stroke="#63b8ff" d="M1116.75,-235.19C1095.92,-228.18 1069.77,-219.6 1046.25,-212.5 1029.71,-207.51 1011.27,-202.37 995.62,-198.14"/>
<polygon fill="#63b8ff" stroke="#63b8ff" points="1115.39,-238.42 1125.99,-238.31 1117.63,-231.79 1115.39,-238.42"/>
</a>
</g>
</g>
<!-- Node14 -->
<g id="Node000014" class="node">
<title>Node14</title>
<g id="a_Node000014"><a xlink:href="classMessageProcessor.html#abdfefd4e6d33731ee50463441ea1a368" target="_top" xlink:title="Processes an incoming text message (JSON) received from the WebSocket. Parses the JSON,...">
<polygon fill="white" stroke="#666666" points="833.75,-349 691.75,-349 691.75,-320 833.75,-320 833.75,-349"/>
<text text-anchor="start" x="699.75" y="-335.5" font-family="Helvetica,sans-Serif" font-size="10.00">MessageProcessor::Process</text>
<text text-anchor="middle" x="762.75" y="-325" font-family="Helvetica,sans-Serif" font-size="10.00">IncomingMessage</text>
</a>
</g>
</g>
<!-- Node1&#45;&gt;Node14 -->
<g id="edge14_Node000001_Node000014" class="edge">
<title>Node1&#45;&gt;Node14</title>
<g id="a_edge14_Node000001_Node000014"><a xlink:title=" ">
<path fill="none" stroke="#63b8ff" d="M1139.98,-266.6C1120.5,-287.61 1085.03,-321.08 1046.25,-334.5 977.08,-358.44 892.54,-354.46 834.06,-346.99"/>
<polygon fill="#63b8ff" stroke="#63b8ff" points="1142.44,-269.1 1146.52,-259.32 1137.23,-264.42 1142.44,-269.1"/>
</a>
</g>
</g>
<!-- Node16 -->
<g id="Node000016" class="node">
<title>Node16</title>
<g id="a_Node000016"><a xlink:href="classMessageProcessor.html#a2a7686af1fb4bdbfb0ac9af65bcb85ac" target="_top" xlink:title="Processes messages of type &quot;message&quot; or &quot;send_message&quot;. Checks for duplicates, handles attachments (s...">
<polygon fill="white" stroke="#666666" points="1029,-325 887,-325 887,-296 1029,-296 1029,-325"/>
<text text-anchor="start" x="895" y="-311.5" font-family="Helvetica,sans-Serif" font-size="10.00">MessageProcessor::Process</text>
<text text-anchor="middle" x="958" y="-301" font-family="Helvetica,sans-Serif" font-size="10.00">MessageContent</text>
</a>
</g>
</g>
<!-- Node1&#45;&gt;Node16 -->
<g id="edge18_Node000001_Node000016" class="edge">
<title>Node1&#45;&gt;Node16</title>
<g id="a_edge18_Node000001_Node000016"><a xlink:title=" ">
<path fill="none" stroke="#63b8ff" d="M1114.28,-261.54C1082.75,-271.48 1039.28,-285.19 1006.35,-295.57"/>
<polygon fill="#63b8ff" stroke="#63b8ff" points="1114.97,-264.99 1123.46,-258.64 1112.87,-258.31 1114.97,-264.99"/>
</a>
</g>
</g>
<!-- Node17 -->
<g id="Node000017" class="node">
<title>Node17</title>
<g id="a_Node000017"><a xlink:href="classMessageService.html#aff7ad6c0302f5f9b4864074eb6675931" target="_top" xlink:title="Initiates the process of sending a file to the currently active frequency. Reads the file,...">
<polygon fill="white" stroke="#666666" points="1024.88,-145.75 891.12,-145.75 891.12,-127.25 1024.88,-127.25 1024.88,-145.75"/>
<text text-anchor="middle" x="958" y="-132.25" font-family="Helvetica,sans-Serif" font-size="10.00">MessageService::SendFile</text>
</a>
</g>
</g>
<!-- Node1&#45;&gt;Node17 -->
<g id="edge20_Node000001_Node000017" class="edge">
<title>Node1&#45;&gt;Node17</title>
<g id="a_edge20_Node000001_Node000017"><a xlink:title=" ">
<path fill="none" stroke="#63b8ff" d="M1135.38,-231.72C1114.16,-214.7 1079.34,-188.39 1046.25,-170.5 1028.09,-160.68 1006.47,-152.24 989.3,-146.22"/>
<polygon fill="#63b8ff" stroke="#63b8ff" points="1132.98,-234.28 1142.95,-237.87 1137.39,-228.84 1132.98,-234.28"/>
</a>
</g>
</g>
<!-- Node22 -->
<g id="Node000022" class="node">
<title>Node22</title>
<g id="a_Node000022"><a xlink:href="classMessageService.html#ac1041f89fa4eed1b98556cc3f93c2077" target="_top" xlink:title="Sends a text message to the currently active frequency. Retrieves the active frequency and socket fro...">
<polygon fill="white" stroke="#666666" points="1026.38,-72 889.62,-72 889.62,-43 1026.38,-43 1026.38,-72"/>
<text text-anchor="start" x="897.62" y="-58.5" font-family="Helvetica,sans-Serif" font-size="10.00">MessageService::SendText</text>
<text text-anchor="middle" x="958" y="-48" font-family="Helvetica,sans-Serif" font-size="10.00">Message</text>
</a>
</g>
</g>
<!-- Node1&#45;&gt;Node22 -->
<g id="edge25_Node000001_Node000022" class="edge">
<title>Node1&#45;&gt;Node22</title>
<g id="a_edge25_Node000001_Node000022"><a xlink:title=" ">
<path fill="none" stroke="#63b8ff" d="M1142.25,-229.66C1122.88,-203.12 1085.07,-154 1046.25,-118.5 1026.88,-100.79 1002.16,-83.96 983.97,-72.48"/>
<polygon fill="#63b8ff" stroke="#63b8ff" points="1139.37,-231.66 1148.06,-237.73 1145.05,-227.57 1139.37,-231.66"/>
</a>
</g>
</g>
<!-- Node3 -->
<g id="Node000003" class="node">
<title>Node3</title>
<g id="a_Node000003"><a xlink:href="classSessionCoordinator.html#a0dd567ac5a1ab2f57e17698c1dc93a1b" target="_top" xlink:title="Closes a specific wavelength (only if the current user is the host). Unregisters the wavelength local...">
<polygon fill="white" stroke="#666666" points="813.5,-245 712,-245 712,-216 813.5,-216 813.5,-245"/>
<text text-anchor="start" x="720" y="-231.5" font-family="Helvetica,sans-Serif" font-size="10.00">SessionCoordinator</text>
<text text-anchor="middle" x="762.75" y="-221" font-family="Helvetica,sans-Serif" font-size="10.00">::CloseWavelength</text>
</a>
</g>
</g>
<!-- Node2&#45;&gt;Node3 -->
<g id="edge2_Node000002_Node000003" class="edge">
<title>Node2&#45;&gt;Node3</title>
<g id="a_edge2_Node000002_Node000003"><a xlink:title=" ">
<path fill="none" stroke="#63b8ff" d="M858.21,-230.5C842.81,-230.5 827.48,-230.5 813.78,-230.5"/>
<polygon fill="#63b8ff" stroke="#63b8ff" points="857.91,-234 867.91,-230.5 857.91,-227 857.91,-234"/>
</a>
</g>
</g>
<!-- Node4 -->
<g id="Node000004" class="node">
<title>Node4</title>
<g id="a_Node000004"><a xlink:href="classChatView.html#a23a3ce66f4af487f1f0571e72aaca9aa" target="_top" xlink:title="Initiates the process of leaving or closing the current Wavelength. Updates the status indicator,...">
<polygon fill="white" stroke="#666666" points="649.38,-192.75 511.12,-192.75 511.12,-174.25 649.38,-174.25 649.38,-192.75"/>
<text text-anchor="middle" x="580.25" y="-179.25" font-family="Helvetica,sans-Serif" font-size="10.00">ChatView::AbortWavelength</text>
</a>
</g>
</g>
<!-- Node3&#45;&gt;Node4 -->
<g id="edge3_Node000003_Node000004" class="edge">
<title>Node3&#45;&gt;Node4</title>
<g id="a_edge3_Node000003_Node000004"><a xlink:title=" ">
<path fill="none" stroke="#63b8ff" d="M700.93,-214.66C673.65,-207.56 642.33,-199.4 618.58,-193.22"/>
<polygon fill="#63b8ff" stroke="#63b8ff" points="699.93,-218.02 710.49,-217.15 701.69,-211.24 699.93,-218.02"/>
</a>
</g>
</g>
<!-- Node5 -->
<g id="Node000005" class="node">
<title>Node5</title>
<g id="a_Node000005"><a xlink:href="classChatView.html#ad2db6f12afdba4b49ec7775b2d560ad3" target="_top" xlink:title="Constructs a WavelengthChatView. Initializes the UI elements (labels, message area,...">
<polygon fill="white" stroke="#666666" points="438.75,-103.75 332,-103.75 332,-85.25 438.75,-85.25 438.75,-103.75"/>
<text text-anchor="middle" x="385.38" y="-90.25" font-family="Helvetica,sans-Serif" font-size="10.00">ChatView::ChatView</text>
</a>
</g>
</g>
<!-- Node4&#45;&gt;Node5 -->
<g id="edge4_Node000004_Node000005" class="edge">
<title>Node4&#45;&gt;Node5</title>
<g id="a_edge4_Node000004_Node000005"><a xlink:title=" ">
<path fill="none" stroke="#63b8ff" d="M529.51,-170.53C521.13,-167.86 512.61,-164.83 504.75,-161.5 465.4,-144.81 422.52,-118.23 400.77,-104.09"/>
<polygon fill="#63b8ff" stroke="#63b8ff" points="528.35,-173.84 538.93,-173.39 530.38,-167.14 528.35,-173.84"/>
</a>
</g>
</g>
<!-- Node7 -->
<g id="Node000007" class="node">
<title>Node7</title>
<g id="a_Node000007"><a xlink:href="classSessionCoordinator.html#ad439996ffc2f1a6fc57835502c69ce7d" target="_top" xlink:title="Initiates the creation of a new wavelength. Delegates the call to WavelengthCreator and registers the...">
<polygon fill="white" stroke="#666666" points="260.75,-377 159.25,-377 159.25,-348 260.75,-348 260.75,-377"/>
<text text-anchor="start" x="167.25" y="-363.5" font-family="Helvetica,sans-Serif" font-size="10.00">SessionCoordinator</text>
<text text-anchor="middle" x="210" y="-353" font-family="Helvetica,sans-Serif" font-size="10.00">::CreateWavelength</text>
</a>
</g>
</g>
<!-- Node6&#45;&gt;Node7 -->
<g id="edge6_Node000006_Node000007" class="edge">
<title>Node6&#45;&gt;Node7</title>
<g id="a_edge6_Node000006_Node000007"><a xlink:title=" ">
<path fill="none" stroke="#63b8ff" d="M321.4,-362.5C301.58,-362.5 279.96,-362.5 261.16,-362.5"/>
<polygon fill="#63b8ff" stroke="#63b8ff" points="321.31,-366 331.31,-362.5 321.31,-359 321.31,-366"/>
</a>
</g>
</g>
<!-- Node9 -->
<g id="Node000009" class="node">
<title>Node9</title>
<g id="a_Node000009"><a xlink:href="classSessionCoordinator.html#a78a62f7f321920c128757ee20568a972" target="_top" xlink:title="Initiates joining an existing wavelength. Delegates the call to WavelengthJoiner and registers the wa...">
<polygon fill="white" stroke="#666666" points="260.75,-272 159.25,-272 159.25,-243 260.75,-243 260.75,-272"/>
<text text-anchor="start" x="167.25" y="-258.5" font-family="Helvetica,sans-Serif" font-size="10.00">SessionCoordinator</text>
<text text-anchor="middle" x="210" y="-248" font-family="Helvetica,sans-Serif" font-size="10.00">::JoinWavelength</text>
</a>
</g>
</g>
<!-- Node8&#45;&gt;Node9 -->
<g id="edge8_Node000008_Node000009" class="edge">
<title>Node8&#45;&gt;Node9</title>
<g id="a_edge8_Node000008_Node000009"><a xlink:title=" ">
<path fill="none" stroke="#63b8ff" d="M327.57,-282.38C306.13,-277.8 281.91,-272.63 261.13,-268.2"/>
<polygon fill="#63b8ff" stroke="#63b8ff" points="326.83,-285.8 337.34,-284.46 328.29,-278.95 326.83,-285.8"/>
</a>
</g>
</g>
<!-- Node10 -->
<g id="Node000010" class="node">
<title>Node10</title>
<g id="a_Node000010"><a xlink:href="classJoinWavelengthDialog.html#a0cb74ecdcc726cea2ce437c85cd75185" target="_top" xlink:title="Attempts to join the wavelength using the entered frequency and password. Shows a wait cursor,...">
<polygon fill="white" stroke="#666666" points="266,-319 154,-319 154,-290 266,-290 266,-319"/>
<text text-anchor="start" x="162" y="-305.5" font-family="Helvetica,sans-Serif" font-size="10.00">JoinWavelengthDialog</text>
<text text-anchor="middle" x="210" y="-295" font-family="Helvetica,sans-Serif" font-size="10.00">::TryJoin</text>
</a>
</g>
</g>
<!-- Node8&#45;&gt;Node10 -->
<g id="edge9_Node000008_Node000010" class="edge">
<title>Node8&#45;&gt;Node10</title>
<g id="a_edge9_Node000008_Node000010"><a xlink:title=" ">
<path fill="none" stroke="#63b8ff" d="M290.46,-299.92C282.21,-300.39 274.04,-300.86 266.26,-301.31"/>
<polygon fill="#63b8ff" stroke="#63b8ff" points="290.46,-303.42 300.24,-299.35 290.05,-296.43 290.46,-303.42"/>
</a>
</g>
</g>
<!-- Node11 -->
<g id="Node000011" class="node">
<title>Node11</title>
<g id="a_Node000011"><a xlink:href="classJoinWavelengthDialog.html#a22f6a3f4da1054f306ee566edf3f2d74" target="_top" xlink:title="Constructs a JoinWavelengthDialog. Sets up the UI elements (labels, input fields, buttons),...">
<polygon fill="white" stroke="#666666" points="118,-319 0,-319 0,-290 118,-290 118,-319"/>
<text text-anchor="start" x="8" y="-305.5" font-family="Helvetica,sans-Serif" font-size="10.00">JoinWavelengthDialog</text>
<text text-anchor="middle" x="59" y="-295" font-family="Helvetica,sans-Serif" font-size="10.00">::JoinWavelengthDialog</text>
</a>
</g>
</g>
<!-- Node10&#45;&gt;Node11 -->
<g id="edge10_Node000010_Node000011" class="edge">
<title>Node10&#45;&gt;Node11</title>
<g id="a_edge10_Node000010_Node000011"><a xlink:title=" ">
<path fill="none" stroke="#63b8ff" d="M142.03,-304.5C134.1,-304.5 126.06,-304.5 118.27,-304.5"/>
<polygon fill="#63b8ff" stroke="#63b8ff" points="142,-308 152,-304.5 142,-301 142,-308"/>
</a>
</g>
</g>
<!-- Node13 -->
<g id="Node000013" class="node">
<title>Node13</title>
<g id="a_Node000013"><a xlink:href="classSessionCoordinator.html#ad7c56b7b495b53ea905a6157e2bc5e93" target="_top" xlink:title="Leaves the currently active wavelength. Unregisters the wavelength locally and delegates the call to ...">
<polygon fill="white" stroke="#666666" points="813.5,-198 712,-198 712,-169 813.5,-169 813.5,-198"/>
<text text-anchor="start" x="720" y="-184.5" font-family="Helvetica,sans-Serif" font-size="10.00">SessionCoordinator</text>
<text text-anchor="middle" x="762.75" y="-174" font-family="Helvetica,sans-Serif" font-size="10.00">::LeaveWavelength</text>
</a>
</g>
</g>
<!-- Node12&#45;&gt;Node13 -->
<g id="edge12_Node000012_Node000013" class="edge">
<title>Node12&#45;&gt;Node13</title>
<g id="a_edge12_Node000012_Node000013"><a xlink:title=" ">
<path fill="none" stroke="#63b8ff" d="M858.21,-185.94C842.81,-185.55 827.48,-185.15 813.78,-184.79"/>
<polygon fill="#63b8ff" stroke="#63b8ff" points="857.82,-189.44 867.91,-186.19 858,-182.44 857.82,-189.44"/>
</a>
</g>
</g>
<!-- Node13&#45;&gt;Node4 -->
<g id="edge13_Node000013_Node000004" class="edge">
<title>Node13&#45;&gt;Node4</title>
<g id="a_edge13_Node000013_Node000004"><a xlink:title=" ">
<path fill="none" stroke="#63b8ff" d="M700.86,-183.5C684.45,-183.5 666.59,-183.5 649.8,-183.5"/>
<polygon fill="#63b8ff" stroke="#63b8ff" points="700.44,-187 710.44,-183.5 700.44,-180 700.44,-187"/>
</a>
</g>
</g>
<!-- Node15 -->
<g id="Node000015" class="node">
<title>Node15</title>
<g id="a_Node000015"><a xlink:href="classMessageProcessor.html#ae0f85d4a5a3c92b0873e7889dfb79862" target="_top" xlink:title="Connects the appropriate slots of this processor to the signals of a given QWebSocket....">
<polygon fill="white" stroke="#666666" points="655.75,-349 504.75,-349 504.75,-320 655.75,-320 655.75,-349"/>
<text text-anchor="start" x="512.75" y="-335.5" font-family="Helvetica,sans-Serif" font-size="10.00">MessageProcessor::SetSocket</text>
<text text-anchor="middle" x="580.25" y="-325" font-family="Helvetica,sans-Serif" font-size="10.00">MessageHandlers</text>
</a>
</g>
</g>
<!-- Node14&#45;&gt;Node15 -->
<g id="edge15_Node000014_Node000015" class="edge">
<title>Node14&#45;&gt;Node15</title>
<g id="a_edge15_Node000014_Node000015"><a xlink:title=" ">
<path fill="none" stroke="#63b8ff" d="M680.2,-334.5C672.19,-334.5 664.08,-334.5 656.13,-334.5"/>
<polygon fill="#63b8ff" stroke="#63b8ff" points="679.93,-338 689.93,-334.5 679.93,-331 679.93,-338"/>
</a>
</g>
</g>
<!-- Node15&#45;&gt;Node6 -->
<g id="edge16_Node000015_Node000006" class="edge">
<title>Node15&#45;&gt;Node6</title>
<g id="a_edge16_Node000015_Node000006"><a xlink:title=" ">
<path fill="none" stroke="#63b8ff" d="M493.09,-347.01C474.25,-349.74 454.89,-352.55 437.91,-355.02"/>
<polygon fill="#63b8ff" stroke="#63b8ff" points="493.51,-350.48 502.91,-345.58 492.51,-343.56 493.51,-350.48"/>
</a>
</g>
</g>
<!-- Node15&#45;&gt;Node8 -->
<g id="edge17_Node000015_Node000008" class="edge">
<title>Node15&#45;&gt;Node8</title>
<g id="a_edge17_Node000015_Node000008"><a xlink:title=" ">
<path fill="none" stroke="#63b8ff" d="M496.02,-317.24C474.53,-312.78 452.15,-308.14 433.25,-304.22"/>
<polygon fill="#63b8ff" stroke="#63b8ff" points="495.17,-320.64 505.67,-319.24 496.59,-313.78 495.17,-320.64"/>
</a>
</g>
</g>
<!-- Node16&#45;&gt;Node14 -->
<g id="edge19_Node000016_Node000014" class="edge">
<title>Node16&#45;&gt;Node14</title>
<g id="a_edge19_Node000016_Node000014"><a xlink:title=" ">
<path fill="none" stroke="#63b8ff" d="M875.28,-320.65C861.55,-322.35 847.42,-324.11 834.01,-325.77"/>
<polygon fill="#63b8ff" stroke="#63b8ff" points="875.69,-324.12 885.18,-319.42 874.83,-317.18 875.69,-324.12"/>
</a>
</g>
</g>
<!-- Node18 -->
<g id="Node000018" class="node">
<title>Node18</title>
<g id="a_Node000018"><a xlink:href="classChatView.html#a4b181808cf22581bd24eb4bab9e07e43" target="_top" xlink:title="Opens a file dialog to allow the user to select a file for sending. If a file is selected,...">
<polygon fill="white" stroke="#666666" points="816.88,-103.75 708.62,-103.75 708.62,-85.25 816.88,-85.25 816.88,-103.75"/>
<text text-anchor="middle" x="762.75" y="-90.25" font-family="Helvetica,sans-Serif" font-size="10.00">ChatView::AttachFile</text>
</a>
</g>
</g>
<!-- Node17&#45;&gt;Node18 -->
<g id="edge21_Node000017_Node000018" class="edge">
<title>Node17&#45;&gt;Node18</title>
<g id="a_edge21_Node000017_Node000018"><a xlink:title=" ">
<path fill="none" stroke="#63b8ff" d="M901.2,-124.37C871.7,-117.96 835.96,-110.19 808.33,-104.19"/>
<polygon fill="#63b8ff" stroke="#63b8ff" points="900.18,-127.73 910.7,-126.44 901.67,-120.89 900.18,-127.73"/>
</a>
</g>
</g>
<!-- Node21 -->
<g id="Node000021" class="node">
<title>Node21</title>
<g id="a_Node000021"><a xlink:href="classSessionCoordinator.html#a8c66229e945eb35fa8791ea88d37cdaa" target="_top" xlink:title="Sends a file to the currently active wavelength. Delegates the call to WavelengthMessageService.">
<polygon fill="white" stroke="#666666" points="813.5,-151 712,-151 712,-122 813.5,-122 813.5,-151"/>
<text text-anchor="start" x="720" y="-137.5" font-family="Helvetica,sans-Serif" font-size="10.00">SessionCoordinator</text>
<text text-anchor="middle" x="762.75" y="-127" font-family="Helvetica,sans-Serif" font-size="10.00">::SendFile</text>
</a>
</g>
</g>
<!-- Node17&#45;&gt;Node21 -->
<g id="edge24_Node000017_Node000021" class="edge">
<title>Node17&#45;&gt;Node21</title>
<g id="a_edge24_Node000017_Node000021"><a xlink:title=" ">
<path fill="none" stroke="#63b8ff" d="M879.35,-136.5C857.22,-136.5 833.72,-136.5 813.72,-136.5"/>
<polygon fill="#63b8ff" stroke="#63b8ff" points="879.25,-140 889.25,-136.5 879.25,-133 879.25,-140"/>
</a>
</g>
</g>
<!-- Node18&#45;&gt;Node5 -->
<g id="edge22_Node000018_Node000005" class="edge">
<title>Node18&#45;&gt;Node5</title>
<g id="a_edge22_Node000018_Node000005"><a xlink:title=" ">
<path fill="none" stroke="#63b8ff" d="M697.04,-94.5C624.01,-94.5 506.6,-94.5 438.97,-94.5"/>
<polygon fill="#63b8ff" stroke="#63b8ff" points="696.85,-98 706.85,-94.5 696.85,-91 696.85,-98"/>
</a>
</g>
</g>
<!-- Node19 -->
<g id="Node000019" class="node">
<title>Node19</title>
<g id="a_Node000019"><a xlink:href="classShortcutManager.html#a4d014d550ca996c51abb06649f71a3fa" target="_top" xlink:title="Registers shortcuts specific to the WavelengthChatView.">
<polygon fill="#fff0f0" stroke="red" points="646.75,-152 513.75,-152 513.75,-123 646.75,-123 646.75,-152"/>
<text text-anchor="start" x="521.75" y="-138.5" font-family="Helvetica,sans-Serif" font-size="10.00">ShortcutManager::Register</text>
<text text-anchor="middle" x="580.25" y="-128" font-family="Helvetica,sans-Serif" font-size="10.00">ChatViewShortcuts</text>
</a>
</g>
</g>
<!-- Node18&#45;&gt;Node19 -->
<g id="edge23_Node000018_Node000019" class="edge">
<title>Node18&#45;&gt;Node19</title>
<g id="a_edge23_Node000018_Node000019"><a xlink:title=" ">
<path fill="none" stroke="#63b8ff" d="M710.16,-106.79C689.53,-111.71 665.57,-117.41 643.95,-122.56"/>
<polygon fill="#63b8ff" stroke="#63b8ff" points="710.85,-110.22 719.77,-104.5 709.23,-103.41 710.85,-110.22"/>
</a>
</g>
</g>
<!-- Node23 -->
<g id="Node000023" class="node">
<title>Node23</title>
<g id="a_Node000023"><a xlink:href="classChatView.html#a424556ba1072ba443433af3af827c5d5" target="_top" xlink:title="Sends the text message currently in the input field. Clears the input field and sends the message via...">
<polygon fill="white" stroke="#666666" points="643.38,-66.75 517.12,-66.75 517.12,-48.25 643.38,-48.25 643.38,-66.75"/>
<text text-anchor="middle" x="580.25" y="-53.25" font-family="Helvetica,sans-Serif" font-size="10.00">ChatView::SendMessage</text>
</a>
</g>
</g>
<!-- Node22&#45;&gt;Node23 -->
<g id="edge26_Node000022_Node000023" class="edge">
<title>Node22&#45;&gt;Node23</title>
<g id="a_edge26_Node000022_Node000023"><a xlink:title=" ">
<path fill="none" stroke="#63b8ff" d="M878.03,-57.5C808.27,-57.5 707.91,-57.5 643.64,-57.5"/>
<polygon fill="#63b8ff" stroke="#63b8ff" points="877.88,-61 887.88,-57.5 877.88,-54 877.88,-61"/>
</a>
</g>
</g>
<!-- Node24 -->
<g id="Node000024" class="node">
<title>Node24</title>
<g id="a_Node000024"><a xlink:href="classSessionCoordinator.html#a6bf70b7c88a2f73ab0510bbc97315c02" target="_top" xlink:title="Sends a text message to the currently active wavelength. Delegates the call to WavelengthMessageServi...">
<polygon fill="white" stroke="#666666" points="813.5,-29 712,-29 712,0 813.5,0 813.5,-29"/>
<text text-anchor="start" x="720" y="-15.5" font-family="Helvetica,sans-Serif" font-size="10.00">SessionCoordinator</text>
<text text-anchor="middle" x="762.75" y="-5" font-family="Helvetica,sans-Serif" font-size="10.00">::SendMessage</text>
</a>
</g>
</g>
<!-- Node22&#45;&gt;Node24 -->
<g id="edge28_Node000022_Node000024" class="edge">
<title>Node22&#45;&gt;Node24</title>
<g id="a_edge28_Node000022_Node000024"><a xlink:title=" ">
<path fill="none" stroke="#63b8ff" d="M878.71,-40.08C856.79,-35.2 833.57,-30.04 813.78,-25.63"/>
<polygon fill="#63b8ff" stroke="#63b8ff" points="877.68,-43.44 888.2,-42.19 879.2,-36.6 877.68,-43.44"/>
</a>
</g>
</g>
<!-- Node23&#45;&gt;Node5 -->
<g id="edge27_Node000023_Node000005" class="edge">
<title>Node23&#45;&gt;Node5</title>
<g id="a_edge27_Node000023_Node000005"><a xlink:title=" ">
<path fill="none" stroke="#63b8ff" d="M517.34,-69.38C491.41,-74.35 461.64,-80.06 437.05,-84.78"/>
<polygon fill="#63b8ff" stroke="#63b8ff" points="517.93,-72.83 527.09,-67.51 516.61,-65.95 517.93,-72.83"/>
</a>
</g>
</g>
</g>
</svg>

<g id="navigator" transform="translate(0 0)" fill="#404254">
  <rect fill="#f2f5e9" fill-opacity="0.5" stroke="#606060" stroke-width=".5" x="0" y="0" width="60" height="60"/>
  <use id="zoomplus" xlink:href="#zoomPlus" x="17" y="9" onmousedown="handleZoom(evt,'in')"/>
  <use id="zoomminus" xlink:href="#zoomMin" x="42" y="9" onmousedown="handleZoom(evt,'out')"/>
  <use id="reset" xlink:href="#resetDef" x="30" y="36" onmousedown="handleReset()"/>
   <use id="arrowup" xlink:href="#arrowUp" x="0" y="0" onmousedown="handlePan(0,-1)"/>
  <use id="arrowright" xlink:href="#arrowRight" x="0" y="0" onmousedown="handlePan(1,0)"/>
  <use id="arrowdown" xlink:href="#arrowDown" x="0" y="0" onmousedown="handlePan(0,1)"/>
  <use id="arrowleft" xlink:href="#arrowLeft" x="0" y="0" onmousedown="handlePan(-1,0)"/>
</g>
<svg viewBox="0 0 15 15" width="100%" height="30px" preserveAspectRatio="xMaxYMin meet">
 <g id="arrow_out" transform="scale(0.3 0.3)">
  <a xlink:href="classMessageHandler_afa8afa05bb7b07783162bf420a91ac92_icgraph_org.svg" target="_base">
   <rect id="button" ry="5" rx="5" y="6" x="6" height="38" width="38"
        fill="#f2f5e9" fill-opacity="0.5" stroke="#606060" stroke-width="1.0"/>
   <path id="arrow"
     d="M 11.500037,31.436501 C 11.940474,20.09759 22.043105,11.32322 32.158766,21.979434 L 37.068811,17.246167 C 37.068811,17.246167 37.088388,32 37.088388,32 L 22.160133,31.978069 C 22.160133,31.978069 26.997745,27.140456 26.997745,27.140456 C 18.528582,18.264221 13.291696,25.230495 11.500037,31.436501 z"
     style="fill:#404040;"/>
  </a>
 </g>
</svg>

<style type='text/css'>
<![CDATA[
[data-mouse-over-selected='false'] { opacity: 0.7; }
[data-mouse-over-selected='true']  { opacity: 1.0; }
]]>
</style>
<script type="application/ecmascript"><![CDATA[
document.addEventListener('DOMContentLoaded', (event) => {
  highlightEdges();
  highlightAdjacentNodes();
});
]]></script>
</svg>
