<?xml version="1.0" encoding="UTF-8" standalone="no"?>
<!DOCTYPE svg PUBLIC "-//W3C//DTD SVG 1.1//EN"
 "http://www.w3.org/Graphics/SVG/1.1/DTD/svg11.dtd">
<!-- Generated by graphviz version 12.2.1 (0)
 -->
<!-- Title: ChatView::UpdatePttButtonState Pages: 1 -->
<!--zoomable 342 -->

<svg id="main" version="1.1" xmlns="http://www.w3.org/2000/svg" xmlns:xlink="http://www.w3.org/1999/xlink" xml:space="preserve" onload="init(evt)">

<style type="text/css"><![CDATA[
.node, .edge {opacity: 0.7;}
.node.selected, .edge.selected {opacity: 1;}
.edge:hover path { stroke: red; }
.edge:hover polygon { stroke: red; fill: red; }
]]></style>

<defs>
  <circle id="rim" cx="0" cy="0" r="7"/>
  <circle id="rim2" cx="0" cy="0" r="3.5"/>
  <g id="zoomPlus">
    <use xlink:href="#rim" fill="#404040"><set attributeName="fill" to="#808080" begin="zoomplus.mouseover" end="zoomplus.mouseout"/></use>
    <path d="M-4,0h8M0,-4v8" fill="none" stroke="white" stroke-width="1.5" pointer-events="none"/>
  </g>
  <g id="zoomMin">
    <use xlink:href="#rim" fill="#404040"><set attributeName="fill" to="#808080" begin="zoomminus.mouseover" end="zoomminus.mouseout"/></use>
    <path d="M-4,0h8" fill="none" stroke="white" stroke-width="1.5" pointer-events="none"/>
  </g>
  <g id="arrowUp" transform="translate(30 24)">
    <use xlink:href="#rim"/>
    <path pointer-events="none" fill="none" stroke="white" stroke-width="1.5" d="M0,-3.0v7 M-2.5,-0.5L0,-3.0L2.5,-0.5"/>
  </g>
  <g id="arrowRight" transform="rotate(90) translate(36 -43)">
    <use xlink:href="#rim"/>
    <path pointer-events="none" fill="none" stroke="white" stroke-width="1.5" d="M0,-3.0v7 M-2.5,-0.5L0,-3.0L2.5,-0.5"/>
  </g>
  <g id="arrowDown" transform="rotate(180) translate(-30 -48)">
    <use xlink:href="#rim"/>
    <path pointer-events="none" fill="none" stroke="white" stroke-width="1.5" d="M0,-3.0v7 M-2.5,-0.5L0,-3.0L2.5,-0.5"/>
  </g>
  <g id="arrowLeft" transform="rotate(270) translate(-36 17)">
    <use xlink:href="#rim"/>
    <path pointer-events="none" fill="none" stroke="white" stroke-width="1.5" d="M0,-3.0v7 M-2.5,-0.5L0,-3.0L2.5,-0.5"/>
  </g>
  <g id="resetDef">
    <use xlink:href="#rim2" fill="#404040"><set attributeName="fill" to="#808080" begin="reset.mouseover" end="reset.mouseout"/></use>
  </g>
</defs>
<script type="application/ecmascript">
var viewWidth = 848;
var viewHeight = 342;
var sectionId = 'dynsection-44';
</script>
<script type="application/ecmascript" xlink:href="svg.min.js"/>
<svg id="graph" class="graph">
<g id="viewport">
<title>ChatView::UpdatePttButtonState</title>
<!-- Node1 -->
<g id="Node000001" class="node">
<title>Node1</title>
<g id="a_Node000001"><a xlink:title="Updates the appearance and enabled state of the PTT button based on the current ptt_state_....">
<polygon fill="#999999" stroke="#666666" points="839.75,-152.81 703,-152.81 703,-123.81 839.75,-123.81 839.75,-152.81"/>
<text text-anchor="start" x="711" y="-139.31" font-family="Helvetica,sans-Serif" font-size="10.00">ChatView::UpdatePttButton</text>
<text text-anchor="middle" x="771.38" y="-128.81" font-family="Helvetica,sans-Serif" font-size="10.00">State</text>
</a>
</g>
</g>
<!-- Node2 -->
<g id="Node000002" class="node">
<title>Node2</title>
<g id="a_Node000002"><a xlink:href="classChatView.html#a19088a1cf7c1314fcdc1bca5a0b28b81" target="_top" xlink:title="Slot called when the PTT button is pressed. Plays the PTT activation sound, sets the state to Request...">
<polygon fill="white" stroke="#666666" points="296.75,-333.56 142.75,-333.56 142.75,-315.06 296.75,-315.06 296.75,-333.56"/>
<text text-anchor="middle" x="219.75" y="-320.06" font-family="Helvetica,sans-Serif" font-size="10.00">ChatView::OnPttButtonPressed</text>
</a>
</g>
</g>
<!-- Node1&#45;&gt;Node2 -->
<g id="edge1_Node000001_Node000002" class="edge">
<title>Node1&#45;&gt;Node2</title>
<g id="a_edge1_Node000001_Node000002"><a xlink:title=" ">
<path fill="none" stroke="#63b8ff" d="M750.98,-161.74C731.88,-183.23 700.73,-214.22 667,-231.31 546.82,-292.21 389.12,-313.24 296.96,-320.49"/>
<polygon fill="#63b8ff" stroke="#63b8ff" points="753.51,-164.18 757.41,-154.33 748.22,-159.59 753.51,-164.18"/>
</a>
</g>
</g>
<!-- Node4 -->
<g id="Node000004" class="node">
<title>Node4</title>
<g id="a_Node000004"><a xlink:href="classChatView.html#ac40ec4de8eddc9ea4fc2d3e210aa6c4d" target="_top" xlink:title="Slot called when the PTT button is released. Plays the PTT deactivation sound. If transmitting,...">
<polygon fill="white" stroke="#666666" points="667,-222.56 508.5,-222.56 508.5,-204.06 667,-204.06 667,-222.56"/>
<text text-anchor="middle" x="587.75" y="-209.06" font-family="Helvetica,sans-Serif" font-size="10.00">ChatView::OnPttButtonReleased</text>
</a>
</g>
</g>
<!-- Node1&#45;&gt;Node4 -->
<g id="edge3_Node000001_Node000004" class="edge">
<title>Node1&#45;&gt;Node4</title>
<g id="a_edge3_Node000001_Node000004"><a xlink:title=" ">
<path fill="none" stroke="#63b8ff" d="M734.23,-158.51C714.71,-168.89 689.97,-181.24 667,-190.31 654.09,-195.4 639.6,-199.97 626.63,-203.66"/>
<polygon fill="#63b8ff" stroke="#63b8ff" points="735.73,-161.67 742.87,-153.84 732.41,-155.51 735.73,-161.67"/>
</a>
</g>
</g>
<!-- Node5 -->
<g id="Node000005" class="node">
<title>Node5</title>
<g id="a_Node000005"><a xlink:href="classChatView.html#ae1708fe2be43fe0f0bf4e000d968b385" target="_top" xlink:title="Slot called when the server grants the PTT request. If the frequency matches and the state is Request...">
<polygon fill="white" stroke="#666666" points="281.75,-184.56 157.75,-184.56 157.75,-166.06 281.75,-166.06 281.75,-184.56"/>
<text text-anchor="middle" x="219.75" y="-171.06" font-family="Helvetica,sans-Serif" font-size="10.00">ChatView::OnPttGranted</text>
</a>
</g>
</g>
<!-- Node1&#45;&gt;Node5 -->
<g id="edge12_Node000001_Node000005" class="edge">
<title>Node1&#45;&gt;Node5</title>
<g id="a_edge12_Node000001_Node000005"><a xlink:title=" ">
<path fill="none" stroke="#63b8ff" d="M691.26,-138.99C603.45,-140.38 457.65,-144.6 332.75,-157.31 313.26,-159.29 292,-162.45 273.29,-165.57"/>
<polygon fill="#63b8ff" stroke="#63b8ff" points="691.27,-142.49 701.21,-138.84 691.16,-135.49 691.27,-142.49"/>
</a>
</g>
</g>
<!-- Node6 -->
<g id="Node000006" class="node">
<title>Node6</title>
<g id="a_Node000006"><a xlink:href="classChatView.html#a4cbbc74a8774cc401a3117bedf750e0f" target="_top" xlink:title="Configures the view for a specific Wavelength. Sets the header title with the frequency and optional ...">
<polygon fill="white" stroke="#666666" points="467.25,-184.56 338,-184.56 338,-166.06 467.25,-166.06 467.25,-184.56"/>
<text text-anchor="middle" x="402.62" y="-171.06" font-family="Helvetica,sans-Serif" font-size="10.00">ChatView::SetWavelength</text>
</a>
</g>
</g>
<!-- Node1&#45;&gt;Node6 -->
<g id="edge19_Node000001_Node000006" class="edge">
<title>Node1&#45;&gt;Node6</title>
<g id="a_edge19_Node000001_Node000006"><a xlink:title=" ">
<path fill="none" stroke="#63b8ff" d="M691.41,-149.39C683.17,-150.43 674.92,-151.43 667,-152.31 599.03,-159.87 520.96,-166.42 467.57,-170.58"/>
<polygon fill="#63b8ff" stroke="#63b8ff" points="691.62,-152.9 701.09,-148.15 690.73,-145.95 691.62,-152.9"/>
</a>
</g>
</g>
<!-- Node8 -->
<g id="Node000008" class="node">
<title>Node8</title>
<g id="a_Node000008"><a xlink:href="classChatView.html#a4f329b99ce9a1e2f2397a0c64d3c553b" target="_top" xlink:title="Slot called when the server denies the PTT request. If the frequency matches and the state is Request...">
<polygon fill="white" stroke="#666666" points="647.88,-109.56 527.62,-109.56 527.62,-91.06 647.88,-91.06 647.88,-109.56"/>
<text text-anchor="middle" x="587.75" y="-96.06" font-family="Helvetica,sans-Serif" font-size="10.00">ChatView::OnPttDenied</text>
</a>
</g>
</g>
<!-- Node1&#45;&gt;Node8 -->
<g id="edge10_Node000001_Node000008" class="edge">
<title>Node1&#45;&gt;Node8</title>
<g id="a_edge10_Node000001_Node000008"><a xlink:title=" ">
<path fill="none" stroke="#63b8ff" d="M691.54,-121.81C672.31,-117.79 652.36,-113.62 635.21,-110.03"/>
<polygon fill="#63b8ff" stroke="#63b8ff" points="690.76,-125.23 701.26,-123.85 692.19,-118.37 690.76,-125.23"/>
</a>
</g>
</g>
<!-- Node9 -->
<g id="Node000009" class="node">
<title>Node9</title>
<g id="a_Node000009"><a xlink:href="classChatView.html#aad17ec29d4babcf3177b49eea7c48065" target="_top" xlink:title="Slot called when another user starts transmitting PTT on the current Wavelength. If the state is Idle...">
<polygon fill="white" stroke="#666666" points="296.75,-71.56 142.75,-71.56 142.75,-53.06 296.75,-53.06 296.75,-71.56"/>
<text text-anchor="middle" x="219.75" y="-58.06" font-family="Helvetica,sans-Serif" font-size="10.00">ChatView::OnPttStartReceiving</text>
</a>
</g>
</g>
<!-- Node1&#45;&gt;Node9 -->
<g id="edge13_Node000001_Node000009" class="edge">
<title>Node1&#45;&gt;Node9</title>
<g id="a_edge13_Node000001_Node000009"><a xlink:title=" ">
<path fill="none" stroke="#63b8ff" d="M740.41,-117.34C720.57,-104.69 693.42,-89.64 667,-82.31 540.89,-47.32 387.14,-49.77 296.98,-55.5"/>
<polygon fill="#63b8ff" stroke="#63b8ff" points="738.26,-120.12 748.54,-122.67 742.1,-114.26 738.26,-120.12"/>
</a>
</g>
</g>
<!-- Node10 -->
<g id="Node000010" class="node">
<title>Node10</title>
<g id="a_Node000010"><a xlink:href="classChatView.html#aabba720d117ae8d235dfc9b27d66881f" target="_top" xlink:title="Slot called when the remote user stops transmitting PTT. If the frequency matches and the state is Re...">
<polygon fill="white" stroke="#666666" points="664,-34.56 511.5,-34.56 511.5,-16.06 664,-16.06 664,-34.56"/>
<text text-anchor="middle" x="587.75" y="-21.06" font-family="Helvetica,sans-Serif" font-size="10.00">ChatView::OnPttStopReceiving</text>
</a>
</g>
</g>
<!-- Node1&#45;&gt;Node10 -->
<g id="edge15_Node000001_Node000010" class="edge">
<title>Node1&#45;&gt;Node10</title>
<g id="a_edge15_Node000001_Node000010"><a xlink:title=" ">
<path fill="none" stroke="#63b8ff" d="M749.53,-115.21C730.02,-94.9 699.14,-65.91 667,-48.31 656.82,-42.73 645.13,-38.36 633.94,-35.01"/>
<polygon fill="#63b8ff" stroke="#63b8ff" points="746.72,-117.34 756.12,-122.23 751.82,-112.54 746.72,-117.34"/>
</a>
</g>
</g>
<!-- Node3 -->
<g id="Node000003" class="node">
<title>Node3</title>
<g id="a_Node000003"><a xlink:href="classChatView.html#ad2db6f12afdba4b49ec7775b2d560ad3" target="_top" xlink:title="Constructs a WavelengthChatView. Initializes the UI elements (labels, message area,...">
<polygon fill="white" stroke="#666666" points="106.75,-128.56 0,-128.56 0,-110.06 106.75,-110.06 106.75,-128.56"/>
<text text-anchor="middle" x="53.38" y="-115.06" font-family="Helvetica,sans-Serif" font-size="10.00">ChatView::ChatView</text>
</a>
</g>
</g>
<!-- Node2&#45;&gt;Node3 -->
<g id="edge2_Node000002_Node000003" class="edge">
<title>Node2&#45;&gt;Node3</title>
<g id="a_edge2_Node000002_Node000003"><a xlink:title=" ">
<path fill="none" stroke="#63b8ff" d="M155.57,-309.88C150.98,-307.45 146.63,-304.62 142.75,-301.31 85.83,-252.75 62.45,-159 56.2,-128.88"/>
<polygon fill="#63b8ff" stroke="#63b8ff" points="154.02,-313.02 164.57,-313.94 156.9,-306.64 154.02,-313.02"/>
</a>
</g>
</g>
<!-- Node4&#45;&gt;Node3 -->
<g id="edge4_Node000004_Node000003" class="edge">
<title>Node4&#45;&gt;Node3</title>
<g id="a_edge4_Node000004_Node000003"><a xlink:title=" ">
<path fill="none" stroke="#63b8ff" d="M552.1,-226.87C529.76,-234.87 499.88,-244.21 472.5,-248.31 411.07,-257.51 394.25,-257.03 332.75,-248.31 245.71,-235.96 220.34,-234.64 142.75,-193.31 109.9,-175.81 78.13,-144.67 63.22,-128.95"/>
<polygon fill="#63b8ff" stroke="#63b8ff" points="553.12,-230.22 561.3,-223.49 550.71,-223.65 553.12,-230.22"/>
</a>
</g>
</g>
<!-- Node4&#45;&gt;Node5 -->
<g id="edge5_Node000004_Node000005" class="edge">
<title>Node4&#45;&gt;Node5</title>
<g id="a_edge5_Node000004_Node000005"><a xlink:title=" ">
<path fill="none" stroke="#63b8ff" d="M536.25,-225.28C484.49,-235.55 401.99,-246.39 332.75,-230.31 294.98,-221.53 255.27,-198.14 234.8,-184.86"/>
<polygon fill="#63b8ff" stroke="#63b8ff" points="536.88,-228.72 545.97,-223.27 535.47,-221.86 536.88,-228.72"/>
</a>
</g>
</g>
<!-- Node4&#45;&gt;Node6 -->
<g id="edge7_Node000004_Node000006" class="edge">
<title>Node4&#45;&gt;Node6</title>
<g id="a_edge7_Node000004_Node000006"><a xlink:title=" ">
<path fill="none" stroke="#63b8ff" d="M529.13,-201.35C503.82,-196.1 474.48,-190.01 450.54,-185.04"/>
<polygon fill="#63b8ff" stroke="#63b8ff" points="528.08,-204.71 538.58,-203.31 529.5,-197.85 528.08,-204.71"/>
</a>
</g>
</g>
<!-- Node7 -->
<g id="Node000007" class="node">
<title>Node7</title>
<g id="a_Node000007"><a xlink:href="classChatView.html#a119a0cb1a68f2e3a60e4153912fa43f2" target="_top" xlink:title="Starts capturing audio from the microphone if PTT state is Transmitting. Connects the readyRead signa...">
<polygon fill="white" stroke="#666666" points="468.75,-221.56 336.5,-221.56 336.5,-203.06 468.75,-203.06 468.75,-221.56"/>
<text text-anchor="middle" x="402.62" y="-208.06" font-family="Helvetica,sans-Serif" font-size="10.00">ChatView::StartAudioInput</text>
</a>
</g>
</g>
<!-- Node4&#45;&gt;Node7 -->
<g id="edge8_Node000004_Node000007" class="edge">
<title>Node4&#45;&gt;Node7</title>
<g id="a_edge8_Node000004_Node000007"><a xlink:title=" ">
<path fill="none" stroke="#63b8ff" d="M496.7,-212.82C487.38,-212.76 478.05,-212.71 469.07,-212.66"/>
<polygon fill="#63b8ff" stroke="#63b8ff" points="496.49,-216.31 506.51,-212.87 496.53,-209.31 496.49,-216.31"/>
</a>
</g>
</g>
<!-- Node5&#45;&gt;Node3 -->
<g id="edge6_Node000005_Node000003" class="edge">
<title>Node5&#45;&gt;Node3</title>
<g id="a_edge6_Node000005_Node000003"><a xlink:title=" ">
<path fill="none" stroke="#63b8ff" d="M179.65,-161.98C149.87,-151.84 109.57,-138.11 82.81,-129"/>
<polygon fill="#63b8ff" stroke="#63b8ff" points="178.47,-165.28 189.06,-165.19 180.72,-158.65 178.47,-165.28"/>
</a>
</g>
</g>
<!-- Node7&#45;&gt;Node5 -->
<g id="edge9_Node000007_Node000005" class="edge">
<title>Node7&#45;&gt;Node5</title>
<g id="a_edge9_Node000007_Node000005"><a xlink:title=" ">
<path fill="none" stroke="#63b8ff" d="M342.92,-200.3C318.75,-195.35 291.13,-189.7 268.27,-185.03"/>
<polygon fill="#63b8ff" stroke="#63b8ff" points="342.12,-203.71 352.62,-202.28 343.52,-196.85 342.12,-203.71"/>
</a>
</g>
</g>
<!-- Node8&#45;&gt;Node3 -->
<g id="edge11_Node000008_Node000003" class="edge">
<title>Node8&#45;&gt;Node3</title>
<g id="a_edge11_Node000008_Node000003"><a xlink:title=" ">
<path fill="none" stroke="#63b8ff" d="M515.78,-102.84C407.48,-106.71 203.42,-113.99 107.16,-117.42"/>
<polygon fill="#63b8ff" stroke="#63b8ff" points="515.85,-106.34 525.72,-102.49 515.6,-99.34 515.85,-106.34"/>
</a>
</g>
</g>
<!-- Node9&#45;&gt;Node3 -->
<g id="edge14_Node000009_Node000003" class="edge">
<title>Node9&#45;&gt;Node3</title>
<g id="a_edge14_Node000009_Node000003"><a xlink:title=" ">
<path fill="none" stroke="#63b8ff" d="M175.87,-75.42C165.03,-78.86 153.43,-82.63 142.75,-86.31 121.23,-93.72 97.02,-102.81 79.39,-109.57"/>
<polygon fill="#63b8ff" stroke="#63b8ff" points="176.89,-78.77 185.39,-72.44 174.8,-72.09 176.89,-78.77"/>
</a>
</g>
</g>
<!-- Node10&#45;&gt;Node3 -->
<g id="edge16_Node000010_Node000003" class="edge">
<title>Node10&#45;&gt;Node3</title>
<g id="a_edge16_Node000010_Node000003"><a xlink:title=" ">
<path fill="none" stroke="#63b8ff" d="M527.61,-13.74C439.02,0.58 268.83,16.29 142.75,-44.31 108.65,-60.7 76.97,-93.46 62.55,-109.71"/>
<polygon fill="#63b8ff" stroke="#63b8ff" points="526.84,-17.16 537.28,-15.36 528,-10.26 526.84,-17.16"/>
</a>
</g>
</g>
<!-- Node11 -->
<g id="Node000011" class="node">
<title>Node11</title>
<g id="a_Node000011"><a xlink:href="classChatView.html#afb21e71849031ae941a3f44e9f697c39" target="_top" xlink:title="Starts audio playback if PTT state is Receiving. Prepares the audio output device to receive data.">
<polygon fill="white" stroke="#666666" points="472.5,-34.56 332.75,-34.56 332.75,-16.06 472.5,-16.06 472.5,-34.56"/>
<text text-anchor="middle" x="402.62" y="-21.06" font-family="Helvetica,sans-Serif" font-size="10.00">ChatView::StartAudioOutput</text>
</a>
</g>
</g>
<!-- Node10&#45;&gt;Node11 -->
<g id="edge17_Node000010_Node000011" class="edge">
<title>Node10&#45;&gt;Node11</title>
<g id="a_edge17_Node000010_Node000011"><a xlink:title=" ">
<path fill="none" stroke="#63b8ff" d="M499.8,-25.31C490.75,-25.31 481.64,-25.31 472.83,-25.31"/>
<polygon fill="#63b8ff" stroke="#63b8ff" points="499.7,-28.81 509.7,-25.31 499.7,-21.81 499.7,-28.81"/>
</a>
</g>
</g>
<!-- Node11&#45;&gt;Node9 -->
<g id="edge18_Node000011_Node000009" class="edge">
<title>Node11&#45;&gt;Node9</title>
<g id="a_edge18_Node000011_Node000009"><a xlink:title=" ">
<path fill="none" stroke="#63b8ff" d="M342.92,-37.32C318.75,-42.26 291.13,-47.91 268.27,-52.59"/>
<polygon fill="#63b8ff" stroke="#63b8ff" points="343.52,-40.76 352.62,-35.33 342.12,-33.91 343.52,-40.76"/>
</a>
</g>
</g>
</g>
</svg>

<g id="navigator" transform="translate(0 0)" fill="#404254">
  <rect fill="#f2f5e9" fill-opacity="0.5" stroke="#606060" stroke-width=".5" x="0" y="0" width="60" height="60"/>
  <use id="zoomplus" xlink:href="#zoomPlus" x="17" y="9" onmousedown="handleZoom(evt,'in')"/>
  <use id="zoomminus" xlink:href="#zoomMin" x="42" y="9" onmousedown="handleZoom(evt,'out')"/>
  <use id="reset" xlink:href="#resetDef" x="30" y="36" onmousedown="handleReset()"/>
   <use id="arrowup" xlink:href="#arrowUp" x="0" y="0" onmousedown="handlePan(0,-1)"/>
  <use id="arrowright" xlink:href="#arrowRight" x="0" y="0" onmousedown="handlePan(1,0)"/>
  <use id="arrowdown" xlink:href="#arrowDown" x="0" y="0" onmousedown="handlePan(0,1)"/>
  <use id="arrowleft" xlink:href="#arrowLeft" x="0" y="0" onmousedown="handlePan(-1,0)"/>
</g>
<svg viewBox="0 0 15 15" width="100%" height="30px" preserveAspectRatio="xMaxYMin meet">
 <g id="arrow_out" transform="scale(0.3 0.3)">
  <a xlink:href="classChatView_a5d0b4d046c069b49e17f1eabdf350455_icgraph_org.svg" target="_base">
   <rect id="button" ry="5" rx="5" y="6" x="6" height="38" width="38"
        fill="#f2f5e9" fill-opacity="0.5" stroke="#606060" stroke-width="1.0"/>
   <path id="arrow"
     d="M 11.500037,31.436501 C 11.940474,20.09759 22.043105,11.32322 32.158766,21.979434 L 37.068811,17.246167 C 37.068811,17.246167 37.088388,32 37.088388,32 L 22.160133,31.978069 C 22.160133,31.978069 26.997745,27.140456 26.997745,27.140456 C 18.528582,18.264221 13.291696,25.230495 11.500037,31.436501 z"
     style="fill:#404040;"/>
  </a>
 </g>
</svg>

<style type='text/css'>
<![CDATA[
[data-mouse-over-selected='false'] { opacity: 0.7; }
[data-mouse-over-selected='true']  { opacity: 1.0; }
]]>
</style>
<script type="application/ecmascript"><![CDATA[
document.addEventListener('DOMContentLoaded', (event) => {
  highlightEdges();
  highlightAdjacentNodes();
});
]]></script>
</svg>
