<?xml version="1.0" encoding="UTF-8" standalone="no"?>
<!DOCTYPE svg PUBLIC "-//W3C//DTD SVG 1.1//EN"
 "http://www.w3.org/Graphics/SVG/1.1/DTD/svg11.dtd">
<!-- Generated by graphviz version 12.2.1 (0)
 -->
<!-- Title: AudioDecoder::~AudioDecoder Pages: 1 -->
<svg width="360pt" height="64pt"
 viewBox="0.00 0.00 360.25 63.50" xmlns="http://www.w3.org/2000/svg" xmlns:xlink="http://www.w3.org/1999/xlink">
<g id="graph0" class="graph" transform="scale(1 1) rotate(0) translate(4 59.5)">
<title>AudioDecoder::~AudioDecoder</title>
<!-- Node1 -->
<g id="Node000001" class="node">
<title>Node1</title>
<g id="a_Node000001"><a xlink:title="Destructor. Stops the decoding thread, waits for it to finish, and releases all allocated resources.">
<polygon fill="#999999" stroke="#666666" points="151,-36.5 0,-36.5 0,-18 151,-18 151,-36.5"/>
<text text-anchor="middle" x="75.5" y="-23" font-family="Helvetica,sans-Serif" font-size="10.00">AudioDecoder::~AudioDecoder</text>
</a>
</g>
</g>
<!-- Node2 -->
<g id="Node000002" class="node">
<title>Node2</title>
<g id="a_Node000002"><a xlink:href="classAudioDecoder.html#ad1c938bcc5cb7becf9d08865a1c09409" target="_top" xlink:title="Releases all FFmpeg and Qt Multimedia resources. Stops audio output, frees contexts (format,...">
<polygon fill="white" stroke="#666666" points="352.25,-55.5 187,-55.5 187,-37 352.25,-37 352.25,-55.5"/>
<text text-anchor="middle" x="269.62" y="-42" font-family="Helvetica,sans-Serif" font-size="10.00">AudioDecoder::ReleaseResources</text>
</a>
</g>
</g>
<!-- Node1&#45;&gt;Node2 -->
<g id="edge1_Node000001_Node000002" class="edge">
<title>Node1&#45;&gt;Node2</title>
<g id="a_edge1_Node000001_Node000002"><a xlink:title=" ">
<path fill="none" stroke="#63b8ff" d="M151.33,-34.65C159.21,-35.43 167.29,-36.23 175.34,-37.02"/>
<polygon fill="#63b8ff" stroke="#63b8ff" points="174.88,-40.5 185.17,-38 175.57,-33.53 174.88,-40.5"/>
</a>
</g>
</g>
<!-- Node3 -->
<g id="Node000003" class="node">
<title>Node3</title>
<g id="a_Node000003"><a xlink:href="classAudioDecoder.html#acb57c6389129229b4811f9221b91e8bd" target="_top" xlink:title="Stops the decoding thread and playback gracefully. Sets the stopped_ flag and wakes the thread if it&#39;...">
<polygon fill="white" stroke="#666666" points="321.5,-18.5 217.75,-18.5 217.75,0 321.5,0 321.5,-18.5"/>
<text text-anchor="middle" x="269.62" y="-5" font-family="Helvetica,sans-Serif" font-size="10.00">AudioDecoder::Stop</text>
</a>
</g>
</g>
<!-- Node1&#45;&gt;Node3 -->
<g id="edge2_Node000001_Node000003" class="edge">
<title>Node1&#45;&gt;Node3</title>
<g id="a_edge2_Node000001_Node000003"><a xlink:title=" ">
<path fill="none" stroke="#63b8ff" d="M151.33,-20.24C169.48,-18.54 188.7,-16.74 206.2,-15.1"/>
<polygon fill="#63b8ff" stroke="#63b8ff" points="206.3,-18.6 215.93,-14.19 205.64,-11.64 206.3,-18.6"/>
</a>
</g>
</g>
</g>
</svg>
