<?xml version="1.0" encoding="UTF-8" standalone="no"?>
<!DOCTYPE svg PUBLIC "-//W3C//DTD SVG 1.1//EN"
 "http://www.w3.org/Graphics/SVG/1.1/DTD/svg11.dtd">
<!-- Generated by graphviz version 12.2.1 (0)
 -->
<!-- Title: AudioDecoder::Reinitialize Pages: 1 -->
<!--zoomable 138 -->

<svg id="main" version="1.1" xmlns="http://www.w3.org/2000/svg" xmlns:xlink="http://www.w3.org/1999/xlink" xml:space="preserve" onload="init(evt)">

<style type="text/css"><![CDATA[
.node, .edge {opacity: 0.7;}
.node.selected, .edge.selected {opacity: 1;}
.edge:hover path { stroke: red; }
.edge:hover polygon { stroke: red; fill: red; }
]]></style>

<defs>
  <circle id="rim" cx="0" cy="0" r="7"/>
  <circle id="rim2" cx="0" cy="0" r="3.5"/>
  <g id="zoomPlus">
    <use xlink:href="#rim" fill="#404040"><set attributeName="fill" to="#808080" begin="zoomplus.mouseover" end="zoomplus.mouseout"/></use>
    <path d="M-4,0h8M0,-4v8" fill="none" stroke="white" stroke-width="1.5" pointer-events="none"/>
  </g>
  <g id="zoomMin">
    <use xlink:href="#rim" fill="#404040"><set attributeName="fill" to="#808080" begin="zoomminus.mouseover" end="zoomminus.mouseout"/></use>
    <path d="M-4,0h8" fill="none" stroke="white" stroke-width="1.5" pointer-events="none"/>
  </g>
  <g id="arrowUp" transform="translate(30 24)">
    <use xlink:href="#rim"/>
    <path pointer-events="none" fill="none" stroke="white" stroke-width="1.5" d="M0,-3.0v7 M-2.5,-0.5L0,-3.0L2.5,-0.5"/>
  </g>
  <g id="arrowRight" transform="rotate(90) translate(36 -43)">
    <use xlink:href="#rim"/>
    <path pointer-events="none" fill="none" stroke="white" stroke-width="1.5" d="M0,-3.0v7 M-2.5,-0.5L0,-3.0L2.5,-0.5"/>
  </g>
  <g id="arrowDown" transform="rotate(180) translate(-30 -48)">
    <use xlink:href="#rim"/>
    <path pointer-events="none" fill="none" stroke="white" stroke-width="1.5" d="M0,-3.0v7 M-2.5,-0.5L0,-3.0L2.5,-0.5"/>
  </g>
  <g id="arrowLeft" transform="rotate(270) translate(-36 17)">
    <use xlink:href="#rim"/>
    <path pointer-events="none" fill="none" stroke="white" stroke-width="1.5" d="M0,-3.0v7 M-2.5,-0.5L0,-3.0L2.5,-0.5"/>
  </g>
  <g id="resetDef">
    <use xlink:href="#rim2" fill="#404040"><set attributeName="fill" to="#808080" begin="reset.mouseover" end="reset.mouseout"/></use>
  </g>
</defs>
<script type="application/ecmascript">
var viewWidth = 692;
var viewHeight = 138;
var sectionId = 'dynsection-14';
</script>
<script type="application/ecmascript" xlink:href="svg.min.js"/>
<svg id="graph" class="graph">
<g id="viewport">
<title>AudioDecoder::Reinitialize</title>
<!-- Node1 -->
<g id="Node000001" class="node">
<title>Node1</title>
<g id="a_Node000001"><a xlink:title="Reinitializes the decoder after it has been stopped or encountered an error. Releases existing resour...">
<polygon fill="#999999" stroke="#666666" points="130,-73.5 0,-73.5 0,-55 130,-55 130,-73.5"/>
<text text-anchor="middle" x="65" y="-60" font-family="Helvetica,sans-Serif" font-size="10.00">AudioDecoder::Reinitialize</text>
</a>
</g>
</g>
<!-- Node2 -->
<g id="Node000002" class="node">
<title>Node2</title>
<g id="a_Node000002"><a xlink:href="classAudioDecoder.html#a4c483a41bf7d57354b63bec009ac222e" target="_top" xlink:title="Emitted when an error occurs during initialization or decoding.">
<polygon fill="white" stroke="#666666" points="667.75,-129.5 564.75,-129.5 564.75,-111 667.75,-111 667.75,-129.5"/>
<text text-anchor="middle" x="616.25" y="-116" font-family="Helvetica,sans-Serif" font-size="10.00">AudioDecoder::error</text>
</a>
</g>
</g>
<!-- Node1&#45;&gt;Node2 -->
<g id="edge1_Node000001_Node000002" class="edge">
<title>Node1&#45;&gt;Node2</title>
<g id="a_edge1_Node000001_Node000002"><a xlink:title=" ">
<path fill="none" stroke="#63b8ff" d="M86.14,-73.83C105.95,-82.74 137.33,-95.49 166,-101.25 302.05,-128.59 465.78,-127.12 553.15,-123.67"/>
<polygon fill="#63b8ff" stroke="#63b8ff" points="553.09,-127.18 562.93,-123.26 552.79,-120.18 553.09,-127.18"/>
</a>
</g>
</g>
<!-- Node3 -->
<g id="Node000003" class="node">
<title>Node3</title>
<g id="a_Node000003"><a xlink:href="classAudioDecoder.html#afbc8e3bdffc473d8ca7a059dc30ce268" target="_top" xlink:title="Custom read function for FFmpeg&#39;s AVIOContext. Reads data from the internal audio_data_ QByteArray bu...">
<polygon fill="white" stroke="#666666" points="316.62,-92.5 180.62,-92.5 180.62,-74 316.62,-74 316.62,-92.5"/>
<text text-anchor="middle" x="248.62" y="-79" font-family="Helvetica,sans-Serif" font-size="10.00">AudioDecoder::ReadPacket</text>
</a>
</g>
</g>
<!-- Node1&#45;&gt;Node3 -->
<g id="edge2_Node000001_Node000003" class="edge">
<title>Node1&#45;&gt;Node3</title>
<g id="a_edge2_Node000001_Node000003"><a xlink:title=" ">
<path fill="none" stroke="#63b8ff" d="M130.29,-70.98C142.84,-72.29 156.13,-73.68 169.08,-75.03"/>
<polygon fill="#63b8ff" stroke="#63b8ff" points="168.53,-78.49 178.84,-76.05 169.26,-71.53 168.53,-78.49"/>
</a>
</g>
</g>
<!-- Node5 -->
<g id="Node000005" class="node">
<title>Node5</title>
<g id="a_Node000005"><a xlink:href="classAudioDecoder.html#a5f63aa27abafaeded80d3688638ace64" target="_top" xlink:title="Custom seek function for FFmpeg&#39;s AVIOContext. Adjusts the internal read_position_ based on the offse...">
<polygon fill="white" stroke="#666666" points="684.25,-92.5 548.25,-92.5 548.25,-74 684.25,-74 684.25,-92.5"/>
<text text-anchor="middle" x="616.25" y="-79" font-family="Helvetica,sans-Serif" font-size="10.00">AudioDecoder::SeekPacket</text>
</a>
</g>
</g>
<!-- Node1&#45;&gt;Node5 -->
<g id="edge9_Node000001_Node000005" class="edge">
<title>Node1&#45;&gt;Node5</title>
<g id="a_edge9_Node000001_Node000005"><a xlink:title=" ">
<path fill="none" stroke="#63b8ff" d="M130.45,-60.95C217.34,-57.3 376.8,-53.35 512.25,-65.25 527.31,-66.57 543.47,-68.94 558.42,-71.53"/>
<polygon fill="#63b8ff" stroke="#63b8ff" points="557.63,-74.95 568.09,-73.28 558.87,-68.06 557.63,-74.95"/>
</a>
</g>
</g>
<!-- Node6 -->
<g id="Node000006" class="node">
<title>Node6</title>
<g id="a_Node000006"><a xlink:href="classAudioDecoder.html#ad1c938bcc5cb7becf9d08865a1c09409" target="_top" xlink:title="Releases all FFmpeg and Qt Multimedia resources. Stops audio output, frees contexts (format,...">
<polygon fill="white" stroke="#666666" points="331.25,-18.5 166,-18.5 166,0 331.25,0 331.25,-18.5"/>
<text text-anchor="middle" x="248.62" y="-5" font-family="Helvetica,sans-Serif" font-size="10.00">AudioDecoder::ReleaseResources</text>
</a>
</g>
</g>
<!-- Node1&#45;&gt;Node6 -->
<g id="edge8_Node000001_Node000006" class="edge">
<title>Node1&#45;&gt;Node6</title>
<g id="a_edge8_Node000001_Node000006"><a xlink:title=" ">
<path fill="none" stroke="#63b8ff" d="M95.23,-54.6C115.13,-48.1 142.09,-39.44 166,-32.25 177.43,-28.81 189.81,-25.24 201.39,-21.97"/>
<polygon fill="#63b8ff" stroke="#63b8ff" points="202.05,-25.42 210.73,-19.35 200.16,-18.68 202.05,-25.42"/>
</a>
</g>
</g>
<!-- Node4 -->
<g id="Node000004" class="node">
<title>Node4</title>
<g id="a_Node000004"><a xlink:href="classAudioDecoder.html#a5cf09a96a04ce8afd751d985c71e4211" target="_top" xlink:title="Constructs an AudioDecoder object. Initializes internal state, allocates memory for FFmpeg&#39;s custom I...">
<polygon fill="white" stroke="#666666" points="512.25,-92.5 367.25,-92.5 367.25,-74 512.25,-74 512.25,-92.5"/>
<text text-anchor="middle" x="439.75" y="-79" font-family="Helvetica,sans-Serif" font-size="10.00">AudioDecoder::AudioDecoder</text>
</a>
</g>
</g>
<!-- Node3&#45;&gt;Node4 -->
<g id="edge3_Node000003_Node000004" class="edge">
<title>Node3&#45;&gt;Node4</title>
<g id="a_edge3_Node000003_Node000004"><a xlink:title=" ">
<path fill="none" stroke="#63b8ff" d="M317.1,-76.75C329.57,-76.51 342.73,-76.44 355.6,-76.54"/>
<polygon fill="#63b8ff" stroke="#63b8ff" points="355.26,-80.04 365.3,-76.66 355.34,-73.04 355.26,-80.04"/>
</a>
</g>
</g>
<!-- Node4&#45;&gt;Node2 -->
<g id="edge4_Node000004_Node000002" class="edge">
<title>Node4&#45;&gt;Node2</title>
<g id="a_edge4_Node000004_Node000002"><a xlink:title=" ">
<path fill="none" stroke="#63b8ff" d="M486.6,-92.97C508.55,-97.63 535.06,-103.25 558.3,-108.17"/>
<polygon fill="#63b8ff" stroke="#63b8ff" points="557.42,-111.57 567.93,-110.22 558.87,-104.72 557.42,-111.57"/>
</a>
</g>
</g>
<!-- Node4&#45;&gt;Node3 -->
<g id="edge5_Node000004_Node000003" class="edge">
<title>Node4&#45;&gt;Node3</title>
<g id="a_edge5_Node000004_Node000003"><a xlink:title=" ">
<path fill="none" stroke="#63b8ff" d="M366.82,-89.83C354.32,-90.02 341.27,-90.05 328.6,-89.92"/>
<polygon fill="#63b8ff" stroke="#63b8ff" points="328.67,-86.42 318.62,-89.77 328.56,-93.42 328.67,-86.42"/>
</a>
</g>
</g>
<!-- Node4&#45;&gt;Node5 -->
<g id="edge6_Node000004_Node000005" class="edge">
<title>Node4&#45;&gt;Node5</title>
<g id="a_edge6_Node000004_Node000005"><a xlink:title=" ">
<path fill="none" stroke="#63b8ff" d="M512.73,-76.59C520.55,-76.5 528.55,-76.48 536.44,-76.53"/>
<polygon fill="#63b8ff" stroke="#63b8ff" points="536.36,-80.03 546.4,-76.64 536.44,-73.03 536.36,-80.03"/>
</a>
</g>
</g>
<!-- Node5&#45;&gt;Node4 -->
<g id="edge7_Node000005_Node000004" class="edge">
<title>Node5&#45;&gt;Node4</title>
<g id="a_edge7_Node000005_Node000004"><a xlink:title=" ">
<path fill="none" stroke="#63b8ff" d="M547.92,-89.84C540.08,-89.97 532.02,-90.02 524.01,-89.99"/>
<polygon fill="#63b8ff" stroke="#63b8ff" points="524.27,-86.5 514.25,-89.92 524.22,-93.5 524.27,-86.5"/>
</a>
</g>
</g>
</g>
</svg>

<g id="navigator" transform="translate(0 0)" fill="#404254">
  <rect fill="#f2f5e9" fill-opacity="0.5" stroke="#606060" stroke-width=".5" x="0" y="0" width="60" height="60"/>
  <use id="zoomplus" xlink:href="#zoomPlus" x="17" y="9" onmousedown="handleZoom(evt,'in')"/>
  <use id="zoomminus" xlink:href="#zoomMin" x="42" y="9" onmousedown="handleZoom(evt,'out')"/>
  <use id="reset" xlink:href="#resetDef" x="30" y="36" onmousedown="handleReset()"/>
   <use id="arrowup" xlink:href="#arrowUp" x="0" y="0" onmousedown="handlePan(0,-1)"/>
  <use id="arrowright" xlink:href="#arrowRight" x="0" y="0" onmousedown="handlePan(1,0)"/>
  <use id="arrowdown" xlink:href="#arrowDown" x="0" y="0" onmousedown="handlePan(0,1)"/>
  <use id="arrowleft" xlink:href="#arrowLeft" x="0" y="0" onmousedown="handlePan(-1,0)"/>
</g>
<svg viewBox="0 0 15 15" width="100%" height="30px" preserveAspectRatio="xMaxYMin meet">
 <g id="arrow_out" transform="scale(0.3 0.3)">
  <a xlink:href="classAudioDecoder_a6948c3168d8c0c5a3badeeacf88f59bc_cgraph_org.svg" target="_base">
   <rect id="button" ry="5" rx="5" y="6" x="6" height="38" width="38"
        fill="#f2f5e9" fill-opacity="0.5" stroke="#606060" stroke-width="1.0"/>
   <path id="arrow"
     d="M 11.500037,31.436501 C 11.940474,20.09759 22.043105,11.32322 32.158766,21.979434 L 37.068811,17.246167 C 37.068811,17.246167 37.088388,32 37.088388,32 L 22.160133,31.978069 C 22.160133,31.978069 26.997745,27.140456 26.997745,27.140456 C 18.528582,18.264221 13.291696,25.230495 11.500037,31.436501 z"
     style="fill:#404040;"/>
  </a>
 </g>
</svg>

<style type='text/css'>
<![CDATA[
[data-mouse-over-selected='false'] { opacity: 0.7; }
[data-mouse-over-selected='true']  { opacity: 1.0; }
]]>
</style>
<script type="application/ecmascript"><![CDATA[
document.addEventListener('DOMContentLoaded', (event) => {
  highlightEdges();
  highlightAdjacentNodes();
});
]]></script>
</svg>
