<?xml version="1.0" encoding="UTF-8" standalone="no"?>
<!DOCTYPE svg PUBLIC "-//W3C//DTD SVG 1.1//EN"
 "http://www.w3.org/Graphics/SVG/1.1/DTD/svg11.dtd">
<!-- Generated by graphviz version 12.2.1 (0)
 -->
<!-- Title: SessionCoordinator::onMessageSent Pages: 1 -->
<svg width="580pt" height="131pt"
 viewBox="0.00 0.00 579.75 131.00" xmlns="http://www.w3.org/2000/svg" xmlns:xlink="http://www.w3.org/1999/xlink">
<g id="graph0" class="graph" transform="scale(1 1) rotate(0) translate(4 127)">
<title>SessionCoordinator::onMessageSent</title>
<!-- Node1 -->
<g id="Node000001" class="node">
<title>Node1</title>
<g id="a_Node000001"><a xlink:title="Slot triggered when a message is sent. Relays the signal and publishes the event via WavelengthEventB...">
<polygon fill="#999999" stroke="#666666" points="101.5,-76 0,-76 0,-47 101.5,-47 101.5,-76"/>
<text text-anchor="start" x="8" y="-62.5" font-family="Helvetica,sans-Serif" font-size="10.00">SessionCoordinator</text>
<text text-anchor="middle" x="50.75" y="-52" font-family="Helvetica,sans-Serif" font-size="10.00">::onMessageSent</text>
</a>
</g>
</g>
<!-- Node2 -->
<g id="Node000002" class="node">
<title>Node2</title>
<g id="a_Node000002"><a xlink:href="classWavelengthEventBroker.html#ac5c82b2b8f57045b0700c350549a6b39" target="_top" xlink:title="Gets the singleton instance of the WavelengthEventBroker.">
<polygon fill="white" stroke="#666666" points="256.25,-123 137.5,-123 137.5,-94 256.25,-94 256.25,-123"/>
<text text-anchor="start" x="145.5" y="-109.5" font-family="Helvetica,sans-Serif" font-size="10.00">WavelengthEventBroker</text>
<text text-anchor="middle" x="196.88" y="-99" font-family="Helvetica,sans-Serif" font-size="10.00">::GetInstance</text>
</a>
</g>
</g>
<!-- Node1&#45;&gt;Node2 -->
<g id="edge1_Node000001_Node000002" class="edge">
<title>Node1&#45;&gt;Node2</title>
<g id="a_edge1_Node000001_Node000002"><a xlink:title=" ">
<path fill="none" stroke="#63b8ff" d="M97.35,-76.37C110.63,-80.7 125.29,-85.48 139.16,-90.01"/>
<polygon fill="#63b8ff" stroke="#63b8ff" points="138.04,-93.32 148.64,-93.1 140.21,-86.67 138.04,-93.32"/>
</a>
</g>
</g>
<!-- Node4 -->
<g id="Node000004" class="node">
<title>Node4</title>
<g id="a_Node000004"><a xlink:href="classWavelengthEventBroker.html#a81a7fdd866c5a57a8fc1acdf5fc9fc8d" target="_top" xlink:title="Publishes a &quot;message_sent&quot; event. Data: {&quot;frequency&quot;: QString, &quot;message&quot;: QString}...">
<polygon fill="white" stroke="#666666" points="256.25,-76 137.5,-76 137.5,-47 256.25,-47 256.25,-76"/>
<text text-anchor="start" x="145.5" y="-62.5" font-family="Helvetica,sans-Serif" font-size="10.00">WavelengthEventBroker</text>
<text text-anchor="middle" x="196.88" y="-52" font-family="Helvetica,sans-Serif" font-size="10.00">::MessageSent</text>
</a>
</g>
</g>
<!-- Node1&#45;&gt;Node4 -->
<g id="edge3_Node000001_Node000004" class="edge">
<title>Node1&#45;&gt;Node4</title>
<g id="a_edge3_Node000001_Node000004"><a xlink:title=" ">
<path fill="none" stroke="#63b8ff" d="M101.75,-61.5C109.49,-61.5 117.6,-61.5 125.68,-61.5"/>
<polygon fill="#63b8ff" stroke="#63b8ff" points="125.53,-65 135.53,-61.5 125.53,-58 125.53,-65"/>
</a>
</g>
</g>
<!-- Node7 -->
<g id="Node000007" class="node">
<title>Node7</title>
<g id="a_Node000007"><a xlink:href="classSessionCoordinator.html#a603e99e6bc388e724fb465c7bc5645c4" target="_top" xlink:title="Emitted when a message is successfully sent. Relayed from WavelengthMessageService.">
<polygon fill="white" stroke="#666666" points="247.62,-29 146.12,-29 146.12,0 247.62,0 247.62,-29"/>
<text text-anchor="start" x="154.12" y="-15.5" font-family="Helvetica,sans-Serif" font-size="10.00">SessionCoordinator</text>
<text text-anchor="middle" x="196.88" y="-5" font-family="Helvetica,sans-Serif" font-size="10.00">::messageSent</text>
</a>
</g>
</g>
<!-- Node1&#45;&gt;Node7 -->
<g id="edge6_Node000001_Node000007" class="edge">
<title>Node1&#45;&gt;Node7</title>
<g id="a_edge6_Node000001_Node000007"><a xlink:title=" ">
<path fill="none" stroke="#63b8ff" d="M97.35,-46.63C110.63,-42.3 125.29,-37.52 139.16,-32.99"/>
<polygon fill="#63b8ff" stroke="#63b8ff" points="140.21,-36.33 148.64,-29.9 138.04,-29.68 140.21,-36.33"/>
</a>
</g>
</g>
<!-- Node3 -->
<g id="Node000003" class="node">
<title>Node3</title>
<g id="a_Node000003"><a xlink:href="classWavelengthEventBroker.html#abf06dfa4e2d26e0d3acd5c028be9eb31" target="_top" xlink:title="Private constructor to enforce the singleton pattern.">
<polygon fill="white" stroke="#666666" points="417,-123 292.25,-123 292.25,-94 417,-94 417,-123"/>
<text text-anchor="start" x="300.25" y="-109.5" font-family="Helvetica,sans-Serif" font-size="10.00">WavelengthEventBroker</text>
<text text-anchor="middle" x="354.62" y="-99" font-family="Helvetica,sans-Serif" font-size="10.00">::WavelengthEventBroker</text>
</a>
</g>
</g>
<!-- Node2&#45;&gt;Node3 -->
<g id="edge2_Node000002_Node000003" class="edge">
<title>Node2&#45;&gt;Node3</title>
<g id="a_edge2_Node000002_Node000003"><a xlink:title=" ">
<path fill="none" stroke="#63b8ff" d="M256.31,-108.5C264.23,-108.5 272.44,-108.5 280.58,-108.5"/>
<polygon fill="#63b8ff" stroke="#63b8ff" points="280.48,-112 290.48,-108.5 280.48,-105 280.48,-112"/>
</a>
</g>
</g>
<!-- Node5 -->
<g id="Node000005" class="node">
<title>Node5</title>
<g id="a_Node000005"><a xlink:href="classWavelengthEventBroker.html#ac664ef807bf6e0f08cf8e6435e7dbbc5" target="_top" xlink:title="Publishes an event of a specific type with associated data. Emits the eventPublished signal,...">
<polygon fill="white" stroke="#666666" points="414,-76 295.25,-76 295.25,-47 414,-47 414,-76"/>
<text text-anchor="start" x="303.25" y="-62.5" font-family="Helvetica,sans-Serif" font-size="10.00">WavelengthEventBroker</text>
<text text-anchor="middle" x="354.62" y="-52" font-family="Helvetica,sans-Serif" font-size="10.00">::PublishEvent</text>
</a>
</g>
</g>
<!-- Node4&#45;&gt;Node5 -->
<g id="edge4_Node000004_Node000005" class="edge">
<title>Node4&#45;&gt;Node5</title>
<g id="a_edge4_Node000004_Node000005"><a xlink:title=" ">
<path fill="none" stroke="#63b8ff" d="M256.31,-61.5C265.17,-61.5 274.39,-61.5 283.47,-61.5"/>
<polygon fill="#63b8ff" stroke="#63b8ff" points="283.35,-65 293.35,-61.5 283.35,-58 283.35,-65"/>
</a>
</g>
</g>
<!-- Node6 -->
<g id="Node000006" class="node">
<title>Node6</title>
<g id="a_Node000006"><a xlink:href="classWavelengthEventBroker.html#ae8c0f4012e86117405db97a0d461ad94" target="_top" xlink:title="Signal emitted whenever any event is published via PublishEvent(). Subscribed components connect to t...">
<polygon fill="white" stroke="#666666" points="571.75,-76 453,-76 453,-47 571.75,-47 571.75,-76"/>
<text text-anchor="start" x="461" y="-62.5" font-family="Helvetica,sans-Serif" font-size="10.00">WavelengthEventBroker</text>
<text text-anchor="middle" x="512.38" y="-52" font-family="Helvetica,sans-Serif" font-size="10.00">::eventPublished</text>
</a>
</g>
</g>
<!-- Node5&#45;&gt;Node6 -->
<g id="edge5_Node000005_Node000006" class="edge">
<title>Node5&#45;&gt;Node6</title>
<g id="a_edge5_Node000005_Node000006"><a xlink:title=" ">
<path fill="none" stroke="#63b8ff" d="M414.06,-61.5C422.92,-61.5 432.14,-61.5 441.22,-61.5"/>
<polygon fill="#63b8ff" stroke="#63b8ff" points="441.1,-65 451.1,-61.5 441.1,-58 441.1,-65"/>
</a>
</g>
</g>
</g>
</svg>
