<?xml version="1.0" encoding="UTF-8" standalone="no"?>
<!DOCTYPE svg PUBLIC "-//W3C//DTD SVG 1.1//EN"
 "http://www.w3.org/Graphics/SVG/1.1/DTD/svg11.dtd">
<!-- Generated by graphviz version 12.2.1 (0)
 -->
<!-- Title: TextDisplayEffect::RecalculateHeight Pages: 1 -->
<svg width="243pt" height="131pt"
 viewBox="0.00 0.00 242.50 131.00" xmlns="http://www.w3.org/2000/svg" xmlns:xlink="http://www.w3.org/1999/xlink">
<g id="graph0" class="graph" transform="scale(1 1) rotate(0) translate(4 127)">
<title>TextDisplayEffect::RecalculateHeight</title>
<!-- Node1 -->
<g id="Node000001" class="node">
<title>Node1</title>
<g id="a_Node000001"><a xlink:title="Recalculates the required height for the widget based on the plain_text_ content and current width....">
<polygon fill="#999999" stroke="#666666" points="234.5,-76 135.25,-76 135.25,-47 234.5,-47 234.5,-76"/>
<text text-anchor="start" x="143.25" y="-62.5" font-family="Helvetica,sans-Serif" font-size="10.00">TextDisplayEffect::</text>
<text text-anchor="middle" x="184.88" y="-52" font-family="Helvetica,sans-Serif" font-size="10.00">RecalculateHeight</text>
</a>
</g>
</g>
<!-- Node2 -->
<g id="Node000002" class="node">
<title>Node2</title>
<g id="a_Node000002"><a xlink:href="classTextDisplayEffect.html#a464c8ade1dd52938905b9d958e189fc1" target="_top" xlink:title="Overridden resize event handler. Recalculates the required height based on the new width.">
<polygon fill="white" stroke="#666666" points="99.25,-123 0,-123 0,-94 99.25,-94 99.25,-123"/>
<text text-anchor="start" x="8" y="-109.5" font-family="Helvetica,sans-Serif" font-size="10.00">TextDisplayEffect::</text>
<text text-anchor="middle" x="49.62" y="-99" font-family="Helvetica,sans-Serif" font-size="10.00">resizeEvent</text>
</a>
</g>
</g>
<!-- Node1&#45;&gt;Node2 -->
<g id="edge1_Node000001_Node000002" class="edge">
<title>Node1&#45;&gt;Node2</title>
<g id="a_edge1_Node000001_Node000002"><a xlink:title=" ">
<path fill="none" stroke="#63b8ff" d="M130.87,-80.2C118.28,-84.64 105.01,-89.32 92.97,-93.56"/>
<polygon fill="#63b8ff" stroke="#63b8ff" points="132.02,-83.5 140.29,-76.87 129.69,-76.9 132.02,-83.5"/>
</a>
</g>
</g>
<!-- Node3 -->
<g id="Node000003" class="node">
<title>Node3</title>
<g id="a_Node000003"><a xlink:href="classTextDisplayEffect.html#a08a497134c49a1068add82b03ea21712" target="_top" xlink:title="Sets new text content for the widget. Updates the internal text, removes HTML, recalculates required ...">
<polygon fill="white" stroke="#666666" points="99.25,-76 0,-76 0,-47 99.25,-47 99.25,-76"/>
<text text-anchor="start" x="8" y="-62.5" font-family="Helvetica,sans-Serif" font-size="10.00">TextDisplayEffect::</text>
<text text-anchor="middle" x="49.62" y="-52" font-family="Helvetica,sans-Serif" font-size="10.00">SetText</text>
</a>
</g>
</g>
<!-- Node1&#45;&gt;Node3 -->
<g id="edge2_Node000001_Node000003" class="edge">
<title>Node1&#45;&gt;Node3</title>
<g id="a_edge2_Node000001_Node000003"><a xlink:title=" ">
<path fill="none" stroke="#63b8ff" d="M123.69,-61.5C115.59,-61.5 107.36,-61.5 99.48,-61.5"/>
<polygon fill="#63b8ff" stroke="#63b8ff" points="123.5,-65 133.5,-61.5 123.5,-58 123.5,-65"/>
</a>
</g>
</g>
<!-- Node4 -->
<g id="Node000004" class="node">
<title>Node4</title>
<g id="a_Node000004"><a xlink:href="classTextDisplayEffect.html#ab932cea0d25bd73f289eb0a46356b20c" target="_top" xlink:title="Constructs a CyberTextDisplay widget. Initializes the widget with text, sets up timers for text revea...">
<polygon fill="white" stroke="#666666" points="99.25,-29 0,-29 0,0 99.25,0 99.25,-29"/>
<text text-anchor="start" x="8" y="-15.5" font-family="Helvetica,sans-Serif" font-size="10.00">TextDisplayEffect::</text>
<text text-anchor="middle" x="49.62" y="-5" font-family="Helvetica,sans-Serif" font-size="10.00">TextDisplayEffect</text>
</a>
</g>
</g>
<!-- Node1&#45;&gt;Node4 -->
<g id="edge3_Node000001_Node000004" class="edge">
<title>Node1&#45;&gt;Node4</title>
<g id="a_edge3_Node000001_Node000004"><a xlink:title=" ">
<path fill="none" stroke="#63b8ff" d="M130.87,-42.8C118.28,-38.36 105.01,-33.68 92.97,-29.44"/>
<polygon fill="#63b8ff" stroke="#63b8ff" points="129.69,-46.1 140.29,-46.13 132.02,-39.5 129.69,-46.1"/>
</a>
</g>
</g>
</g>
</svg>
