<?xml version="1.0" encoding="UTF-8" standalone="no"?>
<!DOCTYPE svg PUBLIC "-//W3C//DTD SVG 1.1//EN"
 "http://www.w3.org/Graphics/SVG/1.1/DTD/svg11.dtd">
<!-- Generated by graphviz version 12.2.1 (0)
 -->
<!-- Title: SettingsView::SetupUi Pages: 1 -->
<svg width="701pt" height="331pt"
 viewBox="0.00 0.00 701.25 331.00" xmlns="http://www.w3.org/2000/svg" xmlns:xlink="http://www.w3.org/1999/xlink">
<g id="graph0" class="graph" transform="scale(1 1) rotate(0) translate(4 327)">
<title>SettingsView::SetupUi</title>
<!-- Node1 -->
<g id="Node000001" class="node">
<title>Node1</title>
<g id="a_Node000001"><a xlink:title="Creates and arranges the main UI elements of the SettingsView. Sets up the main layout,...">
<polygon fill="#999999" stroke="#666666" points="114.25,-209.75 0,-209.75 0,-191.25 114.25,-191.25 114.25,-209.75"/>
<text text-anchor="middle" x="57.12" y="-196.25" font-family="Helvetica,sans-Serif" font-size="10.00">SettingsView::SetupUi</text>
</a>
</g>
</g>
<!-- Node2 -->
<g id="Node000002" class="node">
<title>Node2</title>
<g id="a_Node000002"><a xlink:href="classSettingsView.html#ad7d4778792710f95dbffd0aabe5523ae" target="_top" xlink:title="Creates the header panel containing the view title, session ID, and current time labels.">
<polygon fill="white" stroke="#666666" points="302,-323 162.25,-323 162.25,-294 302,-294 302,-323"/>
<text text-anchor="start" x="170.25" y="-309.5" font-family="Helvetica,sans-Serif" font-size="10.00">SettingsView::CreateHeader</text>
<text text-anchor="middle" x="232.12" y="-299" font-family="Helvetica,sans-Serif" font-size="10.00">Panel</text>
</a>
</g>
</g>
<!-- Node1&#45;&gt;Node2 -->
<g id="edge1_Node000001_Node000002" class="edge">
<title>Node1&#45;&gt;Node2</title>
<g id="a_edge1_Node000001_Node000002"><a xlink:title=" ">
<path fill="none" stroke="#63b8ff" d="M65.92,-210.22C80.56,-227.86 114,-265.17 150.25,-285.5 152.56,-286.8 154.95,-288.02 157.39,-289.18"/>
<polygon fill="#63b8ff" stroke="#63b8ff" points="155.74,-292.28 166.31,-293.01 158.5,-285.85 155.74,-292.28"/>
</a>
</g>
</g>
<!-- Node3 -->
<g id="Node000003" class="node">
<title>Node3</title>
<g id="a_Node000003"><a xlink:href="classSettingsView.html#a145b9dd24fb8e7dd1fd7b4a5a2cfc452" target="_top" xlink:title="Handles the click event of the &quot;BACK&quot; button. Resets the CLASSIFIED tab&#39;s security layers and emits t...">
<polygon fill="white" stroke="#666666" points="298.25,-276 166,-276 166,-247 298.25,-247 298.25,-276"/>
<text text-anchor="start" x="174" y="-262.5" font-family="Helvetica,sans-Serif" font-size="10.00">SettingsView::HandleBack</text>
<text text-anchor="middle" x="232.12" y="-252" font-family="Helvetica,sans-Serif" font-size="10.00">Button</text>
</a>
</g>
</g>
<!-- Node1&#45;&gt;Node3 -->
<g id="edge2_Node000001_Node000003" class="edge">
<title>Node1&#45;&gt;Node3</title>
<g id="a_edge2_Node000001_Node000003"><a xlink:title=" ">
<path fill="none" stroke="#63b8ff" d="M80.62,-210.22C99.13,-218.05 126.16,-229.11 150.25,-237.5 155.87,-239.46 161.74,-241.4 167.64,-243.28"/>
<polygon fill="#63b8ff" stroke="#63b8ff" points="166.22,-246.5 176.81,-246.14 168.31,-239.82 166.22,-246.5"/>
</a>
</g>
</g>
<!-- Node6 -->
<g id="Node000006" class="node">
<title>Node6</title>
<g id="a_Node000006"><a xlink:href="classSettingsView.html#af70830edb09631a2fb953acd08632d6a" target="_top" xlink:title="Restores all settings across all tabs to their default values. Prompts the user for confirmation befo...">
<polygon fill="white" stroke="#666666" points="306.88,-149.75 157.38,-149.75 157.38,-131.25 306.88,-131.25 306.88,-149.75"/>
<text text-anchor="middle" x="232.12" y="-136.25" font-family="Helvetica,sans-Serif" font-size="10.00">SettingsView::RestoreDefaults</text>
</a>
</g>
</g>
<!-- Node1&#45;&gt;Node6 -->
<g id="edge5_Node000001_Node000006" class="edge">
<title>Node1&#45;&gt;Node6</title>
<g id="a_edge5_Node000001_Node000006"><a xlink:title=" ">
<path fill="none" stroke="#63b8ff" d="M81.4,-190.78C99.91,-183.2 126.54,-172.64 150.25,-164.5 161.59,-160.61 173.94,-156.75 185.51,-153.31"/>
<polygon fill="#63b8ff" stroke="#63b8ff" points="186.23,-156.74 194.84,-150.57 184.26,-150.03 186.23,-156.74"/>
</a>
</g>
</g>
<!-- Node9 -->
<g id="Node000009" class="node">
<title>Node9</title>
<g id="a_Node000009"><a xlink:href="classSettingsView.html#a53de2b196fd35488e2fcb3efd091e04d" target="_top" xlink:title="Saves all current settings from the various tabs to the WavelengthConfig object and persists them....">
<polygon fill="white" stroke="#666666" points="300.5,-86.75 163.75,-86.75 163.75,-68.25 300.5,-68.25 300.5,-86.75"/>
<text text-anchor="middle" x="232.12" y="-73.25" font-family="Helvetica,sans-Serif" font-size="10.00">SettingsView::SaveSettings</text>
</a>
</g>
</g>
<!-- Node1&#45;&gt;Node9 -->
<g id="edge8_Node000001_Node000009" class="edge">
<title>Node1&#45;&gt;Node9</title>
<g id="a_edge8_Node000001_Node000009"><a xlink:title=" ">
<path fill="none" stroke="#63b8ff" d="M68.1,-190.92C84.45,-175.47 118.37,-144.56 150.25,-122.5 166.36,-111.36 185.46,-100.63 201.05,-92.44"/>
<polygon fill="#63b8ff" stroke="#63b8ff" points="202.58,-95.59 209.86,-87.9 199.37,-89.37 202.58,-95.59"/>
</a>
</g>
</g>
<!-- Node13 -->
<g id="Node000013" class="node">
<title>Node13</title>
<g id="a_Node000013"><a xlink:href="classSettingsView.html#a1e089a2a90ea4b3e13e3a06c99933c39" target="_top" xlink:title="Creates and configures the &quot;CLASSIFIED&quot; tab. Sets up the stacked widget containing all the security l...">
<polygon fill="white" stroke="#666666" points="314,-191.75 150.25,-191.75 150.25,-173.25 314,-173.25 314,-191.75"/>
<text text-anchor="middle" x="232.12" y="-178.25" font-family="Helvetica,sans-Serif" font-size="10.00">SettingsView::SetupClassifiedTab</text>
</a>
</g>
</g>
<!-- Node1&#45;&gt;Node13 -->
<g id="edge14_Node000001_Node000013" class="edge">
<title>Node1&#45;&gt;Node13</title>
<g id="a_edge14_Node000001_Node000013"><a xlink:title=" ">
<path fill="none" stroke="#63b8ff" d="M114.29,-194.66C122.09,-193.84 130.27,-192.99 138.52,-192.13"/>
<polygon fill="#63b8ff" stroke="#63b8ff" points="138.7,-195.64 148.29,-191.12 137.98,-188.67 138.7,-195.64"/>
</a>
</g>
</g>
<!-- Node15 -->
<g id="Node000015" class="node">
<title>Node15</title>
<g id="a_Node000015"><a xlink:href="classSettingsView.html#a2cf33a05b8930177452f465a635f6707" target="_top" xlink:title="Switches the visible tab content based on the clicked tab button. Updates the active state of tab but...">
<polygon fill="white" stroke="#666666" points="299.38,-228.75 164.88,-228.75 164.88,-210.25 299.38,-210.25 299.38,-228.75"/>
<text text-anchor="middle" x="232.12" y="-215.25" font-family="Helvetica,sans-Serif" font-size="10.00">SettingsView::SwitchToTab</text>
</a>
</g>
</g>
<!-- Node1&#45;&gt;Node15 -->
<g id="edge17_Node000001_Node000015" class="edge">
<title>Node1&#45;&gt;Node15</title>
<g id="a_edge17_Node000001_Node000015"><a xlink:title=" ">
<path fill="none" stroke="#63b8ff" d="M114.29,-206.67C126.66,-208.03 139.96,-209.49 153.01,-210.92"/>
<polygon fill="#63b8ff" stroke="#63b8ff" points="152.56,-214.39 162.88,-212.01 153.32,-207.43 152.56,-214.39"/>
</a>
</g>
</g>
<!-- Node4 -->
<g id="Node000004" class="node">
<title>Node4</title>
<g id="a_Node000004"><a xlink:href="classSettingsView.html#a6dc4f4685ceffc8cdb6e5ec71c0a55d3" target="_top" xlink:title="Emitted when the user clicks the &quot;BACK&quot; button, requesting a return to the previous view.">
<polygon fill="white" stroke="#666666" points="513,-275.75 359.75,-275.75 359.75,-257.25 513,-257.25 513,-275.75"/>
<text text-anchor="middle" x="436.38" y="-262.25" font-family="Helvetica,sans-Serif" font-size="10.00">SettingsView::backToMainView</text>
</a>
</g>
</g>
<!-- Node3&#45;&gt;Node4 -->
<g id="edge3_Node000003_Node000004" class="edge">
<title>Node3&#45;&gt;Node4</title>
<g id="a_edge3_Node000003_Node000004"><a xlink:title=" ">
<path fill="none" stroke="#63b8ff" d="M298.51,-263.12C314.26,-263.51 331.35,-263.93 347.93,-264.34"/>
<polygon fill="#63b8ff" stroke="#63b8ff" points="347.71,-267.83 357.79,-264.58 347.88,-260.84 347.71,-267.83"/>
</a>
</g>
</g>
<!-- Node5 -->
<g id="Node000005" class="node">
<title>Node5</title>
<g id="a_Node000005"><a xlink:href="classSettingsView.html#a220c6d57ea52dc424ad3c3db5c0a9c7a" target="_top" xlink:title="Resets all security layers in the CLASSIFIED tab to their initial state. Calls Reset() on each layer....">
<polygon fill="white" stroke="#666666" points="506.62,-239 366.12,-239 366.12,-210 506.62,-210 506.62,-239"/>
<text text-anchor="start" x="374.12" y="-225.5" font-family="Helvetica,sans-Serif" font-size="10.00">SettingsView::ResetSecurity</text>
<text text-anchor="middle" x="436.38" y="-215" font-family="Helvetica,sans-Serif" font-size="10.00">Layers</text>
</a>
</g>
</g>
<!-- Node3&#45;&gt;Node5 -->
<g id="edge4_Node000003_Node000005" class="edge">
<title>Node3&#45;&gt;Node5</title>
<g id="a_edge4_Node000003_Node000005"><a xlink:title=" ">
<path fill="none" stroke="#63b8ff" d="M298.51,-249.54C316.37,-246.27 335.94,-242.69 354.55,-239.29"/>
<polygon fill="#63b8ff" stroke="#63b8ff" points="354.99,-242.76 364.19,-237.52 353.73,-235.88 354.99,-242.76"/>
</a>
</g>
</g>
<!-- Node7 -->
<g id="Node000007" class="node">
<title>Node7</title>
<g id="a_Node000007"><a xlink:href="classSettingsView.html#a23258b6c0cb0fc74537588ea6283b873" target="_top" xlink:title="Loads settings from the WavelengthConfig object into the UI elements of all tabs. Delegates loading t...">
<polygon fill="white" stroke="#666666" points="504.38,-155 368.38,-155 368.38,-126 504.38,-126 504.38,-155"/>
<text text-anchor="start" x="376.38" y="-141.5" font-family="Helvetica,sans-Serif" font-size="10.00">SettingsView::LoadSettings</text>
<text text-anchor="middle" x="436.38" y="-131" font-family="Helvetica,sans-Serif" font-size="10.00">FromRegistry</text>
</a>
</g>
</g>
<!-- Node6&#45;&gt;Node7 -->
<g id="edge6_Node000006_Node000007" class="edge">
<title>Node6&#45;&gt;Node7</title>
<g id="a_edge6_Node000006_Node000007"><a xlink:title=" ">
<path fill="none" stroke="#63b8ff" d="M307.29,-140.5C323.41,-140.5 340.52,-140.5 356.8,-140.5"/>
<polygon fill="#63b8ff" stroke="#63b8ff" points="356.41,-144 366.41,-140.5 356.41,-137 356.41,-144"/>
</a>
</g>
</g>
<!-- Node8 -->
<g id="Node000008" class="node">
<title>Node8</title>
<g id="a_Node000008"><a xlink:href="classSettingsView.html#ae9abfe25abeea5fa897efdf85e9a4cab" target="_top" xlink:title="Emitted when settings are saved or restored to defaults, indicating that other parts of the applicati...">
<polygon fill="white" stroke="#666666" points="512.62,-107.75 360.12,-107.75 360.12,-89.25 512.62,-89.25 512.62,-107.75"/>
<text text-anchor="middle" x="436.38" y="-94.25" font-family="Helvetica,sans-Serif" font-size="10.00">SettingsView::settingsChanged</text>
</a>
</g>
</g>
<!-- Node6&#45;&gt;Node8 -->
<g id="edge7_Node000006_Node000008" class="edge">
<title>Node6&#45;&gt;Node8</title>
<g id="a_edge7_Node000006_Node000008"><a xlink:title=" ">
<path fill="none" stroke="#63b8ff" d="M280.03,-130.76C309.13,-124.72 346.74,-116.91 377.66,-110.49"/>
<polygon fill="#63b8ff" stroke="#63b8ff" points="378.16,-113.96 387.24,-108.5 376.74,-107.1 378.16,-113.96"/>
</a>
</g>
</g>
<!-- Node9&#45;&gt;Node8 -->
<g id="edge12_Node000009_Node000008" class="edge">
<title>Node9&#45;&gt;Node8</title>
<g id="a_edge12_Node000009_Node000008"><a xlink:title=" ">
<path fill="none" stroke="#63b8ff" d="M300.75,-84.52C316.15,-86.12 332.71,-87.84 348.77,-89.51"/>
<polygon fill="#63b8ff" stroke="#63b8ff" points="347.98,-92.94 358.29,-90.5 348.7,-85.98 347.98,-92.94"/>
</a>
</g>
</g>
<!-- Node10 -->
<g id="Node000010" class="node">
<title>Node10</title>
<g id="a_Node000010"><a xlink:href="classShortcutManager.html#a785ee2205518cfe2ba40c8c818cf9b0b" target="_top" xlink:title="Gets the singleton instance of the ShortcutManager.">
<polygon fill="white" stroke="#666666" points="511.5,-23.75 361.25,-23.75 361.25,-5.25 511.5,-5.25 511.5,-23.75"/>
<text text-anchor="middle" x="436.38" y="-10.25" font-family="Helvetica,sans-Serif" font-size="10.00">ShortcutManager::GetInstance</text>
</a>
</g>
</g>
<!-- Node9&#45;&gt;Node10 -->
<g id="edge9_Node000009_Node000010" class="edge">
<title>Node9&#45;&gt;Node10</title>
<g id="a_edge9_Node000009_Node000010"><a xlink:title=" ">
<path fill="none" stroke="#63b8ff" d="M256.08,-67.76C279.41,-58.12 316.75,-43.4 350,-33.5 358.09,-31.09 366.7,-28.83 375.22,-26.77"/>
<polygon fill="#63b8ff" stroke="#63b8ff" points="375.89,-30.2 384.84,-24.52 374.3,-23.39 375.89,-30.2"/>
</a>
</g>
</g>
<!-- Node12 -->
<g id="Node000012" class="node">
<title>Node12</title>
<g id="a_Node000012"><a xlink:href="classShortcutManager.html#a001d08c7f43e1e651eabc5ef353da310" target="_top" xlink:title="Updates the key sequences for all currently registered shortcuts.">
<polygon fill="white" stroke="#666666" points="522.75,-71 350,-71 350,-42 522.75,-42 522.75,-71"/>
<text text-anchor="start" x="358" y="-57.5" font-family="Helvetica,sans-Serif" font-size="10.00">ShortcutManager::updateRegistered</text>
<text text-anchor="middle" x="436.38" y="-47" font-family="Helvetica,sans-Serif" font-size="10.00">Shortcuts</text>
</a>
</g>
</g>
<!-- Node9&#45;&gt;Node12 -->
<g id="edge13_Node000009_Node000012" class="edge">
<title>Node9&#45;&gt;Node12</title>
<g id="a_edge13_Node000009_Node000012"><a xlink:title=" ">
<path fill="none" stroke="#63b8ff" d="M300.75,-70.48C312.92,-69.21 325.82,-67.88 338.62,-66.55"/>
<polygon fill="#63b8ff" stroke="#63b8ff" points="338.74,-70.05 348.32,-65.54 338.02,-63.09 338.74,-70.05"/>
</a>
</g>
</g>
<!-- Node11 -->
<g id="Node000011" class="node">
<title>Node11</title>
<g id="a_Node000011"><a xlink:href="classShortcutManager.html#a3bfcb924aeb88b7e4baded8bd37ed3c4" target="_top" xlink:title="Deleted copy constructor to prevent copying.">
<polygon fill="white" stroke="#666666" points="693.25,-29 558.75,-29 558.75,0 693.25,0 693.25,-29"/>
<text text-anchor="start" x="566.75" y="-15.5" font-family="Helvetica,sans-Serif" font-size="10.00">ShortcutManager::Shortcut</text>
<text text-anchor="middle" x="626" y="-5" font-family="Helvetica,sans-Serif" font-size="10.00">Manager</text>
</a>
</g>
</g>
<!-- Node10&#45;&gt;Node11 -->
<g id="edge10_Node000010_Node000011" class="edge">
<title>Node10&#45;&gt;Node11</title>
<g id="a_edge10_Node000010_Node000011"><a xlink:title=" ">
<path fill="none" stroke="#63b8ff" d="M511.8,-14.5C523.31,-14.5 535.23,-14.5 546.82,-14.5"/>
<polygon fill="#63b8ff" stroke="#63b8ff" points="546.76,-18 556.76,-14.5 546.76,-11 546.76,-18"/>
</a>
</g>
</g>
<!-- Node11&#45;&gt;Node11 -->
<g id="edge11_Node000011_Node000011" class="edge">
<title>Node11&#45;&gt;Node11</title>
<g id="a_edge11_Node000011_Node000011"><a xlink:title=" ">
<path fill="none" stroke="#63b8ff" d="M592.95,-29.21C584.99,-38.32 596,-47 626,-47 642.41,-47 653.13,-44.41 658.18,-40.56"/>
<polygon fill="#63b8ff" stroke="#63b8ff" points="661.67,-40.95 658.93,-30.72 654.69,-40.42 661.67,-40.95"/>
</a>
</g>
</g>
<!-- Node13&#45;&gt;Node5 -->
<g id="edge16_Node000013_Node000005" class="edge">
<title>Node13&#45;&gt;Node5</title>
<g id="a_edge16_Node000013_Node000005"><a xlink:title=" ">
<path fill="none" stroke="#63b8ff" d="M280.03,-192.24C302.19,-196.84 329.28,-202.47 354.6,-207.73"/>
<polygon fill="#63b8ff" stroke="#63b8ff" points="353.72,-211.12 364.22,-209.72 355.14,-204.26 353.72,-211.12"/>
</a>
</g>
</g>
<!-- Node14 -->
<g id="Node000014" class="node">
<title>Node14</title>
<g id="a_Node000014"><a xlink:href="classSecurityLayer.html#a6b6759d7fd1e729ff63ea9be3c121878" target="_top" xlink:title="Emitted when the user successfully completes the security challenge presented by this layer.">
<polygon fill="white" stroke="#666666" points="510.75,-191.75 362,-191.75 362,-173.25 510.75,-173.25 510.75,-191.75"/>
<text text-anchor="middle" x="436.38" y="-178.25" font-family="Helvetica,sans-Serif" font-size="10.00">SecurityLayer::layerCompleted</text>
</a>
</g>
</g>
<!-- Node13&#45;&gt;Node14 -->
<g id="edge15_Node000013_Node000014" class="edge">
<title>Node13&#45;&gt;Node14</title>
<g id="a_edge15_Node000013_Node000014"><a xlink:title=" ">
<path fill="none" stroke="#63b8ff" d="M314.22,-182.5C326.13,-182.5 338.43,-182.5 350.41,-182.5"/>
<polygon fill="#63b8ff" stroke="#63b8ff" points="350.27,-186 360.27,-182.5 350.27,-179 350.27,-186"/>
</a>
</g>
</g>
<!-- Node15&#45;&gt;Node5 -->
<g id="edge18_Node000015_Node000005" class="edge">
<title>Node15&#45;&gt;Node5</title>
<g id="a_edge18_Node000015_Node000005"><a xlink:title=" ">
<path fill="none" stroke="#63b8ff" d="M299.63,-221.14C317.09,-221.58 336.12,-222.05 354.25,-222.49"/>
<polygon fill="#63b8ff" stroke="#63b8ff" points="354.11,-225.99 364.19,-222.74 354.28,-218.99 354.11,-225.99"/>
</a>
</g>
</g>
</g>
</svg>
