<?xml version="1.0" encoding="UTF-8" standalone="no"?>
<!DOCTYPE svg PUBLIC "-//W3C//DTD SVG 1.1//EN"
 "http://www.w3.org/Graphics/SVG/1.1/DTD/svg11.dtd">
<!-- Generated by graphviz version 12.2.1 (0)
 -->
<!-- Title: SecurityCodeLayer::CheckSecurityCode Pages: 1 -->
<svg width="438pt" height="144pt"
 viewBox="0.00 0.00 437.75 144.00" xmlns="http://www.w3.org/2000/svg" xmlns:xlink="http://www.w3.org/1999/xlink">
<g id="graph0" class="graph" transform="scale(1 1) rotate(0) translate(4 140)">
<title>SecurityCodeLayer::CheckSecurityCode</title>
<!-- Node1 -->
<g id="Node000001" class="node">
<title>Node1</title>
<g id="a_Node000001"><a xlink:title="Checks if the entered code matches the current security code. Called when all input fields are filled...">
<polygon fill="#999999" stroke="#666666" points="104.5,-94 0,-94 0,-65 104.5,-65 104.5,-94"/>
<text text-anchor="start" x="8" y="-80.5" font-family="Helvetica,sans-Serif" font-size="10.00">SecurityCodeLayer::</text>
<text text-anchor="middle" x="52.25" y="-70" font-family="Helvetica,sans-Serif" font-size="10.00">CheckSecurityCode</text>
</a>
</g>
</g>
<!-- Node2 -->
<g id="Node000002" class="node">
<title>Node2</title>
<g id="a_Node000002"><a xlink:href="classSecurityCodeLayer.html#a698e622b7e3a9e3543059f57c9b17a81" target="_top" xlink:title="Gets the code currently entered by the user by concatenating the text from all input fields.">
<polygon fill="white" stroke="#666666" points="267.12,-136 162.62,-136 162.62,-107 267.12,-107 267.12,-136"/>
<text text-anchor="start" x="170.62" y="-122.5" font-family="Helvetica,sans-Serif" font-size="10.00">SecurityCodeLayer::</text>
<text text-anchor="middle" x="214.88" y="-112" font-family="Helvetica,sans-Serif" font-size="10.00">GetEnteredCode</text>
</a>
</g>
</g>
<!-- Node1&#45;&gt;Node2 -->
<g id="edge1_Node000001_Node000002" class="edge">
<title>Node1&#45;&gt;Node2</title>
<g id="a_edge1_Node000001_Node000002"><a xlink:title=" ">
<path fill="none" stroke="#63b8ff" d="M104.96,-93.02C119.72,-96.88 135.96,-101.13 151.29,-105.14"/>
<polygon fill="#63b8ff" stroke="#63b8ff" points="150.24,-108.48 160.8,-107.62 152.01,-101.71 150.24,-108.48"/>
</a>
</g>
</g>
<!-- Node3 -->
<g id="Node000003" class="node">
<title>Node3</title>
<g id="a_Node000003"><a xlink:href="classSecurityLayer.html#a6b6759d7fd1e729ff63ea9be3c121878" target="_top" xlink:title="Emitted when the user successfully completes the security challenge presented by this layer.">
<polygon fill="white" stroke="#666666" points="289.25,-88.75 140.5,-88.75 140.5,-70.25 289.25,-70.25 289.25,-88.75"/>
<text text-anchor="middle" x="214.88" y="-75.25" font-family="Helvetica,sans-Serif" font-size="10.00">SecurityLayer::layerCompleted</text>
</a>
</g>
</g>
<!-- Node1&#45;&gt;Node3 -->
<g id="edge2_Node000001_Node000003" class="edge">
<title>Node1&#45;&gt;Node3</title>
<g id="a_edge2_Node000001_Node000003"><a xlink:title=" ">
<path fill="none" stroke="#63b8ff" d="M104.96,-79.5C112.56,-79.5 120.56,-79.5 128.63,-79.5"/>
<polygon fill="#63b8ff" stroke="#63b8ff" points="128.52,-83 138.52,-79.5 128.52,-76 128.52,-83"/>
</a>
</g>
</g>
<!-- Node4 -->
<g id="Node000004" class="node">
<title>Node4</title>
<g id="a_Node000004"><a xlink:href="classSecurityCodeLayer.html#a1f24bdfc759b707fe364b4a6d377bab5" target="_top" xlink:title="Triggers a visual error effect on the input fields. Temporarily changes the background and border col...">
<polygon fill="white" stroke="#666666" points="267.12,-52 162.62,-52 162.62,-23 267.12,-23 267.12,-52"/>
<text text-anchor="start" x="170.62" y="-38.5" font-family="Helvetica,sans-Serif" font-size="10.00">SecurityCodeLayer::</text>
<text text-anchor="middle" x="214.88" y="-28" font-family="Helvetica,sans-Serif" font-size="10.00">ShowErrorEffect</text>
</a>
</g>
</g>
<!-- Node1&#45;&gt;Node4 -->
<g id="edge3_Node000001_Node000004" class="edge">
<title>Node1&#45;&gt;Node4</title>
<g id="a_edge3_Node000001_Node000004"><a xlink:title=" ">
<path fill="none" stroke="#63b8ff" d="M104.96,-65.98C119.72,-62.12 135.96,-57.87 151.29,-53.86"/>
<polygon fill="#63b8ff" stroke="#63b8ff" points="152.01,-57.29 160.8,-51.38 150.24,-50.52 152.01,-57.29"/>
</a>
</g>
</g>
<!-- Node5 -->
<g id="Node000005" class="node">
<title>Node5</title>
<g id="a_Node000005"><a xlink:href="classSecurityCodeLayer.html#aff90508ace024d15efd490efb2b1b13a" target="_top" xlink:title="Clears all input fields and resets their styles to the default (error/red) state. Sets focus on the f...">
<polygon fill="white" stroke="#666666" points="429.75,-76 325.25,-76 325.25,-47 429.75,-47 429.75,-76"/>
<text text-anchor="start" x="333.25" y="-62.5" font-family="Helvetica,sans-Serif" font-size="10.00">SecurityCodeLayer::</text>
<text text-anchor="middle" x="377.5" y="-52" font-family="Helvetica,sans-Serif" font-size="10.00">ResetInputs</text>
</a>
</g>
</g>
<!-- Node4&#45;&gt;Node5 -->
<g id="edge4_Node000004_Node000005" class="edge">
<title>Node4&#45;&gt;Node5</title>
<g id="a_edge4_Node000004_Node000005"><a xlink:title=" ">
<path fill="none" stroke="#63b8ff" d="M267.58,-45.23C282.34,-47.43 298.58,-49.86 313.92,-52.15"/>
<polygon fill="#63b8ff" stroke="#63b8ff" points="312.99,-55.55 323.39,-53.56 314.02,-48.63 312.99,-55.55"/>
</a>
</g>
</g>
<!-- Node6 -->
<g id="Node000006" class="node">
<title>Node6</title>
<g id="a_Node000006"><a xlink:href="classSecurityCodeLayer.html#a5f1194e6e5185b40eeb6aed165d8e58b" target="_top" xlink:title="Sets the input validators for all code input fields based on whether the current code is numeric.">
<polygon fill="white" stroke="#666666" points="429.75,-29 325.25,-29 325.25,0 429.75,0 429.75,-29"/>
<text text-anchor="start" x="333.25" y="-15.5" font-family="Helvetica,sans-Serif" font-size="10.00">SecurityCodeLayer::</text>
<text text-anchor="middle" x="377.5" y="-5" font-family="Helvetica,sans-Serif" font-size="10.00">SetInputValidators</text>
</a>
</g>
</g>
<!-- Node4&#45;&gt;Node6 -->
<g id="edge5_Node000004_Node000006" class="edge">
<title>Node4&#45;&gt;Node6</title>
<g id="a_edge5_Node000004_Node000006"><a xlink:title=" ">
<path fill="none" stroke="#63b8ff" d="M267.58,-30.1C282.34,-27.98 298.58,-25.66 313.92,-23.46"/>
<polygon fill="#63b8ff" stroke="#63b8ff" points="313.99,-26.99 323.39,-22.1 313,-20.06 313.99,-26.99"/>
</a>
</g>
</g>
</g>
</svg>
