<?xml version="1.0" encoding="UTF-8" standalone="no"?>
<!DOCTYPE svg PUBLIC "-//W3C//DTD SVG 1.1//EN"
 "http://www.w3.org/Graphics/SVG/1.1/DTD/svg11.dtd">
<!-- Generated by graphviz version 12.2.1 (0)
 -->
<!-- Title: VideoDecoder::run Pages: 1 -->
<!--zoomable 374 -->

<svg id="main" version="1.1" xmlns="http://www.w3.org/2000/svg" xmlns:xlink="http://www.w3.org/1999/xlink" xml:space="preserve" onload="init(evt)">

<style type="text/css"><![CDATA[
.node, .edge {opacity: 0.7;}
.node.selected, .edge.selected {opacity: 1;}
.edge:hover path { stroke: red; }
.edge:hover polygon { stroke: red; fill: red; }
]]></style>

<defs>
  <circle id="rim" cx="0" cy="0" r="7"/>
  <circle id="rim2" cx="0" cy="0" r="3.5"/>
  <g id="zoomPlus">
    <use xlink:href="#rim" fill="#404040"><set attributeName="fill" to="#808080" begin="zoomplus.mouseover" end="zoomplus.mouseout"/></use>
    <path d="M-4,0h8M0,-4v8" fill="none" stroke="white" stroke-width="1.5" pointer-events="none"/>
  </g>
  <g id="zoomMin">
    <use xlink:href="#rim" fill="#404040"><set attributeName="fill" to="#808080" begin="zoomminus.mouseover" end="zoomminus.mouseout"/></use>
    <path d="M-4,0h8" fill="none" stroke="white" stroke-width="1.5" pointer-events="none"/>
  </g>
  <g id="arrowUp" transform="translate(30 24)">
    <use xlink:href="#rim"/>
    <path pointer-events="none" fill="none" stroke="white" stroke-width="1.5" d="M0,-3.0v7 M-2.5,-0.5L0,-3.0L2.5,-0.5"/>
  </g>
  <g id="arrowRight" transform="rotate(90) translate(36 -43)">
    <use xlink:href="#rim"/>
    <path pointer-events="none" fill="none" stroke="white" stroke-width="1.5" d="M0,-3.0v7 M-2.5,-0.5L0,-3.0L2.5,-0.5"/>
  </g>
  <g id="arrowDown" transform="rotate(180) translate(-30 -48)">
    <use xlink:href="#rim"/>
    <path pointer-events="none" fill="none" stroke="white" stroke-width="1.5" d="M0,-3.0v7 M-2.5,-0.5L0,-3.0L2.5,-0.5"/>
  </g>
  <g id="arrowLeft" transform="rotate(270) translate(-36 17)">
    <use xlink:href="#rim"/>
    <path pointer-events="none" fill="none" stroke="white" stroke-width="1.5" d="M0,-3.0v7 M-2.5,-0.5L0,-3.0L2.5,-0.5"/>
  </g>
  <g id="resetDef">
    <use xlink:href="#rim2" fill="#404040"><set attributeName="fill" to="#808080" begin="reset.mouseover" end="reset.mouseout"/></use>
  </g>
</defs>
<script type="application/ecmascript">
var viewWidth = 668;
var viewHeight = 374;
var sectionId = 'dynsection-20';
</script>
<script type="application/ecmascript" xlink:href="svg.min.js"/>
<svg id="graph" class="graph">
<g id="viewport">
<title>VideoDecoder::run</title>
<!-- Node1 -->
<g id="Node000001" class="node">
<title>Node1</title>
<g id="a_Node000001"><a xlink:title="The main function executed by the QThread. Contains the loop that reads packets, decodes video frames...">
<polygon fill="#999999" stroke="#666666" points="97,-226.07 0,-226.07 0,-207.57 97,-207.57 97,-226.07"/>
<text text-anchor="middle" x="48.5" y="-212.57" font-family="Helvetica,sans-Serif" font-size="10.00">VideoDecoder::run</text>
</a>
</g>
</g>
<!-- Node2 -->
<g id="Node000002" class="node">
<title>Node2</title>
<g id="a_Node000002"><a xlink:href="classVideoDecoder.html#ac2d7b995099a90908cf02630f9ce71ce" target="_top" xlink:title="Emitted for each decoded video frame.">
<polygon fill="white" stroke="#666666" points="269,-282.07 133,-282.07 133,-263.57 269,-263.57 269,-282.07"/>
<text text-anchor="middle" x="201" y="-268.57" font-family="Helvetica,sans-Serif" font-size="10.00">VideoDecoder::frameReady</text>
</a>
</g>
</g>
<!-- Node1&#45;&gt;Node2 -->
<g id="edge1_Node000001_Node000002" class="edge">
<title>Node1&#45;&gt;Node2</title>
<g id="a_edge1_Node000001_Node000002"><a xlink:title=" ">
<path fill="none" stroke="#63b8ff" d="M73.14,-226.5C89.8,-233.23 112.67,-242.32 133,-249.82 141.78,-253.06 151.25,-256.4 160.24,-259.5"/>
<polygon fill="#63b8ff" stroke="#63b8ff" points="158.85,-262.73 169.44,-262.65 161.12,-256.1 158.85,-262.73"/>
</a>
</g>
</g>
<!-- Node3 -->
<g id="Node000003" class="node">
<title>Node3</title>
<g id="a_Node000003"><a xlink:href="classVideoDecoder.html#a97bfdada9e03663ee5f063b7eece3ad0" target="_top" xlink:title="Checks if the video file contains an audio stream.">
<polygon fill="white" stroke="#666666" points="447.75,-366.07 321.5,-366.07 321.5,-347.57 447.75,-347.57 447.75,-366.07"/>
<text text-anchor="middle" x="384.62" y="-352.57" font-family="Helvetica,sans-Serif" font-size="10.00">VideoDecoder::HasAudio</text>
</a>
</g>
</g>
<!-- Node1&#45;&gt;Node3 -->
<g id="edge2_Node000001_Node000003" class="edge">
<title>Node1&#45;&gt;Node3</title>
<g id="a_edge2_Node000001_Node000003"><a xlink:title=" ">
<path fill="none" stroke="#63b8ff" d="M97.45,-219.82C153.83,-224.25 243.05,-234.32 269,-254.82 300.87,-280 273.82,-312.79 305,-338.82 306.97,-340.46 309.05,-341.96 311.23,-343.32"/>
<polygon fill="#63b8ff" stroke="#63b8ff" points="309.46,-346.35 319.95,-347.82 312.67,-340.13 309.46,-346.35"/>
</a>
</g>
</g>
<!-- Node4 -->
<g id="Node000004" class="node">
<title>Node4</title>
<g id="a_Node000004"><a xlink:href="classVideoDecoder.html#aa8f8aabbe65727acd5ef5cfdc5f3b69b" target="_top" xlink:title="Initializes the FFmpeg components for decoding the video and potentially audio. Opens the input strea...">
<polygon fill="white" stroke="#666666" points="260.38,-208.07 141.62,-208.07 141.62,-189.57 260.38,-189.57 260.38,-208.07"/>
<text text-anchor="middle" x="201" y="-194.57" font-family="Helvetica,sans-Serif" font-size="10.00">VideoDecoder::Initialize</text>
</a>
</g>
</g>
<!-- Node1&#45;&gt;Node4 -->
<g id="edge3_Node000001_Node000004" class="edge">
<title>Node1&#45;&gt;Node4</title>
<g id="a_edge3_Node000001_Node000004"><a xlink:title=" ">
<path fill="none" stroke="#63b8ff" d="M97.12,-211.12C107.65,-209.86 119.01,-208.5 130.22,-207.16"/>
<polygon fill="#63b8ff" stroke="#63b8ff" points="130.31,-210.68 139.83,-206.01 129.48,-203.73 130.31,-210.68"/>
</a>
</g>
</g>
<!-- Node9 -->
<g id="Node000009" class="node">
<title>Node9</title>
<g id="a_Node000009"><a xlink:href="classVideoDecoder.html#a4b36980122d8771e7aff1ed0c1db8420" target="_top" xlink:title="Emitted when both video and audio (if present) streams reach the end.">
<polygon fill="white" stroke="#666666" points="659.5,-60.07 500.25,-60.07 500.25,-41.57 659.5,-41.57 659.5,-60.07"/>
<text text-anchor="middle" x="579.88" y="-46.57" font-family="Helvetica,sans-Serif" font-size="10.00">VideoDecoder::playbackFinished</text>
</a>
</g>
</g>
<!-- Node1&#45;&gt;Node9 -->
<g id="edge16_Node000001_Node000009" class="edge">
<title>Node1&#45;&gt;Node9</title>
<g id="a_edge16_Node000001_Node000009"><a xlink:title=" ">
<path fill="none" stroke="#63b8ff" d="M56.99,-207.33C85,-172.68 188.04,-52.94 305,-11.82 389,17.72 494.97,-15.98 547.04,-36.82"/>
<polygon fill="#63b8ff" stroke="#63b8ff" points="545.62,-40.02 556.2,-40.59 548.28,-33.54 545.62,-40.02"/>
</a>
</g>
</g>
<!-- Node4&#45;&gt;Node3 -->
<g id="edge10_Node000004_Node000003" class="edge">
<title>Node4&#45;&gt;Node3</title>
<g id="a_edge10_Node000004_Node000003"><a xlink:title=" ">
<path fill="none" stroke="#63b8ff" d="M248.95,-208.53C256.38,-211.77 263.44,-216.07 269,-221.82 306.85,-260.9 265.14,-301.78 305,-338.82 306.92,-340.6 308.97,-342.22 311.14,-343.68"/>
<polygon fill="#63b8ff" stroke="#63b8ff" points="309.45,-346.75 319.9,-348.48 312.81,-340.61 309.45,-346.75"/>
</a>
</g>
</g>
<!-- Node5 -->
<g id="Node000005" class="node">
<title>Node5</title>
<g id="a_Node000005"><a xlink:href="classAudioDecoder.html#a4c483a41bf7d57354b63bec009ac222e" target="_top" xlink:title="Emitted when an error occurs during initialization or decoding.">
<polygon fill="white" stroke="#666666" points="436.12,-245.07 333.12,-245.07 333.12,-226.57 436.12,-226.57 436.12,-245.07"/>
<text text-anchor="middle" x="384.62" y="-231.57" font-family="Helvetica,sans-Serif" font-size="10.00">AudioDecoder::error</text>
</a>
</g>
</g>
<!-- Node4&#45;&gt;Node5 -->
<g id="edge4_Node000004_Node000005" class="edge">
<title>Node4&#45;&gt;Node5</title>
<g id="a_edge4_Node000004_Node000005"><a xlink:title=" ">
<path fill="none" stroke="#63b8ff" d="M249.72,-208.54C272.68,-213.22 300.41,-218.87 324.68,-223.81"/>
<polygon fill="#63b8ff" stroke="#63b8ff" points="323.93,-227.23 334.43,-225.79 325.33,-220.37 323.93,-227.23"/>
</a>
</g>
</g>
<!-- Node6 -->
<g id="Node000006" class="node">
<title>Node6</title>
<g id="a_Node000006"><a xlink:href="classVideoDecoder.html#a51e7a40e369cc4e80033f1dd9068cdd4" target="_top" xlink:title="Emitted when an error occurs during initialization or decoding.">
<polygon fill="white" stroke="#666666" points="631.38,-186.07 528.38,-186.07 528.38,-167.57 631.38,-167.57 631.38,-186.07"/>
<text text-anchor="middle" x="579.88" y="-172.57" font-family="Helvetica,sans-Serif" font-size="10.00">VideoDecoder::error</text>
</a>
</g>
</g>
<!-- Node4&#45;&gt;Node6 -->
<g id="edge5_Node000004_Node000006" class="edge">
<title>Node4&#45;&gt;Node6</title>
<g id="a_edge5_Node000004_Node000006"><a xlink:title=" ">
<path fill="none" stroke="#63b8ff" d="M260.47,-195.4C330,-191.35 445.55,-184.6 516.67,-180.45"/>
<polygon fill="#63b8ff" stroke="#63b8ff" points="516.83,-183.95 526.61,-179.87 516.43,-176.96 516.83,-183.95"/>
</a>
</g>
</g>
<!-- Node7 -->
<g id="Node000007" class="node">
<title>Node7</title>
<g id="a_Node000007"><a xlink:href="classVideoDecoder.html#a18dedd90eb28ae766eb81d523625f766" target="_top" xlink:title="Slot connected to the internal AudioDecoder&#39;s error signal. Relays the audio error message via the ma...">
<polygon fill="white" stroke="#666666" points="454.12,-170.32 315.12,-170.32 315.12,-141.32 454.12,-141.32 454.12,-170.32"/>
<text text-anchor="start" x="323.12" y="-156.82" font-family="Helvetica,sans-Serif" font-size="10.00">VideoDecoder::HandleAudio</text>
<text text-anchor="middle" x="384.62" y="-146.32" font-family="Helvetica,sans-Serif" font-size="10.00">Error</text>
</a>
</g>
</g>
<!-- Node4&#45;&gt;Node7 -->
<g id="edge6_Node000004_Node000007" class="edge">
<title>Node4&#45;&gt;Node7</title>
<g id="a_edge6_Node000004_Node000007"><a xlink:title=" ">
<path fill="none" stroke="#63b8ff" d="M242.76,-189.17C262.44,-184.51 286.69,-178.77 309.49,-173.37"/>
<polygon fill="#63b8ff" stroke="#63b8ff" points="310.14,-176.81 319.06,-171.1 308.52,-170 310.14,-176.81"/>
</a>
</g>
</g>
<!-- Node8 -->
<g id="Node000008" class="node">
<title>Node8</title>
<g id="a_Node000008"><a xlink:href="classVideoDecoder.html#a2d72ecfc50eab41a6e14a1a46feaa7df" target="_top" xlink:title="Slot connected to the internal AudioDecoder&#39;s playbackFinished signal. Sets the audio_finished_ flag ...">
<polygon fill="white" stroke="#666666" points="454.12,-123.32 315.12,-123.32 315.12,-94.32 454.12,-94.32 454.12,-123.32"/>
<text text-anchor="start" x="323.12" y="-109.82" font-family="Helvetica,sans-Serif" font-size="10.00">VideoDecoder::HandleAudio</text>
<text text-anchor="middle" x="384.62" y="-99.32" font-family="Helvetica,sans-Serif" font-size="10.00">Finished</text>
</a>
</g>
</g>
<!-- Node4&#45;&gt;Node8 -->
<g id="edge8_Node000004_Node000008" class="edge">
<title>Node4&#45;&gt;Node8</title>
<g id="a_edge8_Node000004_Node000008"><a xlink:title=" ">
<path fill="none" stroke="#63b8ff" d="M214.31,-189.09C232.95,-174.75 269.91,-147.94 305,-131.82 308.13,-130.38 311.37,-129.01 314.68,-127.7"/>
<polygon fill="#63b8ff" stroke="#63b8ff" points="315.78,-131.02 323.96,-124.28 313.37,-124.46 315.78,-131.02"/>
</a>
</g>
</g>
<!-- Node10 -->
<g id="Node000010" class="node">
<title>Node10</title>
<g id="a_Node000010"><a xlink:href="classAudioDecoder.html#a4f5e8f4dd5f45b60bc5ed68ccd8a90c3" target="_top" xlink:title="Emitted when the decoder reaches the end of the audio stream.">
<polygon fill="white" stroke="#666666" points="464.25,-76.07 305,-76.07 305,-57.57 464.25,-57.57 464.25,-76.07"/>
<text text-anchor="middle" x="384.62" y="-62.57" font-family="Helvetica,sans-Serif" font-size="10.00">AudioDecoder::playbackFinished</text>
</a>
</g>
</g>
<!-- Node4&#45;&gt;Node10 -->
<g id="edge11_Node000004_Node000010" class="edge">
<title>Node4&#45;&gt;Node10</title>
<g id="a_edge11_Node000004_Node000010"><a xlink:title=" ">
<path fill="none" stroke="#63b8ff" d="M207.61,-189.38C221.26,-167.3 258.53,-112.08 305,-84.82 307.48,-83.36 310.08,-82.02 312.74,-80.79"/>
<polygon fill="#63b8ff" stroke="#63b8ff" points="313.94,-84.08 321.92,-77.12 311.34,-77.58 313.94,-84.08"/>
</a>
</g>
</g>
<!-- Node11 -->
<g id="Node000011" class="node">
<title>Node11</title>
<g id="a_Node000011"><a xlink:href="classAudioDecoder.html#a928f569d98a91fae0fa27371a0c85b4e" target="_top" xlink:title="Emitted periodically during playback to indicate the current position.">
<polygon fill="white" stroke="#666666" points="462.75,-39.07 306.5,-39.07 306.5,-20.57 462.75,-20.57 462.75,-39.07"/>
<text text-anchor="middle" x="384.62" y="-25.57" font-family="Helvetica,sans-Serif" font-size="10.00">AudioDecoder::positionChanged</text>
</a>
</g>
</g>
<!-- Node4&#45;&gt;Node11 -->
<g id="edge12_Node000004_Node000011" class="edge">
<title>Node4&#45;&gt;Node11</title>
<g id="a_edge12_Node000004_Node000011"><a xlink:title=" ">
<path fill="none" stroke="#63b8ff" d="M205.64,-189.29C216.38,-162.55 250.62,-86.27 305,-48.82 307.52,-47.09 310.17,-45.51 312.92,-44.08"/>
<polygon fill="#63b8ff" stroke="#63b8ff" points="314.15,-47.36 321.87,-40.11 311.31,-40.97 314.15,-47.36"/>
</a>
</g>
</g>
<!-- Node12 -->
<g id="Node000012" class="node">
<title>Node12</title>
<g id="a_Node000012"><a xlink:href="classVideoDecoder.html#aef861f701b488c253cb44f72eeb93831" target="_top" xlink:title="Slot connected to the internal AudioDecoder&#39;s positionChanged signal. Updates the internal current_au...">
<polygon fill="white" stroke="#666666" points="454.5,-329.32 314.75,-329.32 314.75,-300.32 454.5,-300.32 454.5,-329.32"/>
<text text-anchor="start" x="322.75" y="-315.82" font-family="Helvetica,sans-Serif" font-size="10.00">VideoDecoder::UpdateAudio</text>
<text text-anchor="middle" x="384.62" y="-305.32" font-family="Helvetica,sans-Serif" font-size="10.00">Position</text>
</a>
</g>
</g>
<!-- Node4&#45;&gt;Node12 -->
<g id="edge13_Node000004_Node000012" class="edge">
<title>Node4&#45;&gt;Node12</title>
<g id="a_edge13_Node000004_Node000012"><a xlink:title=" ">
<path fill="none" stroke="#63b8ff" d="M245.68,-208.43C254.05,-211.7 262.29,-216.04 269,-221.82 295.22,-244.37 278.39,-268.72 305,-290.82 306.47,-292.04 308.01,-293.2 309.59,-294.3"/>
<polygon fill="#63b8ff" stroke="#63b8ff" points="307.46,-297.11 317.85,-299.21 311.04,-291.09 307.46,-297.11"/>
</a>
</g>
</g>
<!-- Node14 -->
<g id="Node000014" class="node">
<title>Node14</title>
<g id="a_Node000014"><a xlink:href="classVideoDecoder.html#a0680707eda3a8c22786559ff45bdb46e" target="_top" xlink:title="Emitted after successful initialization, providing video stream details.">
<polygon fill="white" stroke="#666666" points="446.25,-282.07 323,-282.07 323,-263.57 446.25,-263.57 446.25,-282.07"/>
<text text-anchor="middle" x="384.62" y="-268.57" font-family="Helvetica,sans-Serif" font-size="10.00">VideoDecoder::videoInfo</text>
</a>
</g>
</g>
<!-- Node4&#45;&gt;Node14 -->
<g id="edge15_Node000004_Node000014" class="edge">
<title>Node4&#45;&gt;Node14</title>
<g id="a_edge15_Node000004_Node000014"><a xlink:title=" ">
<path fill="none" stroke="#63b8ff" d="M238.62,-208.48C248.82,-211.94 259.65,-216.36 269,-221.82 287.48,-232.61 286.03,-243.9 305,-253.82 308.95,-255.88 313.12,-257.73 317.41,-259.37"/>
<polygon fill="#63b8ff" stroke="#63b8ff" points="316.2,-262.66 326.8,-262.59 318.47,-256.04 316.2,-262.66"/>
</a>
</g>
</g>
<!-- Node7&#45;&gt;Node6 -->
<g id="edge7_Node000007_Node000006" class="edge">
<title>Node7&#45;&gt;Node6</title>
<g id="a_edge7_Node000007_Node000006"><a xlink:title=" ">
<path fill="none" stroke="#63b8ff" d="M454.57,-163.31C474.78,-165.51 496.75,-167.89 516.52,-170.04"/>
<polygon fill="#63b8ff" stroke="#63b8ff" points="516.05,-173.51 526.37,-171.11 516.81,-166.55 516.05,-173.51"/>
</a>
</g>
</g>
<!-- Node8&#45;&gt;Node9 -->
<g id="edge9_Node000008_Node000009" class="edge">
<title>Node8&#45;&gt;Node9</title>
<g id="a_edge9_Node000008_Node000009"><a xlink:title=" ">
<path fill="none" stroke="#63b8ff" d="M435.39,-93.88C466.43,-84.57 505.98,-72.7 535.69,-63.78"/>
<polygon fill="#63b8ff" stroke="#63b8ff" points="536.54,-67.18 545.11,-60.95 534.53,-60.47 536.54,-67.18"/>
</a>
</g>
</g>
<!-- Node13 -->
<g id="Node000013" class="node">
<title>Node13</title>
<g id="a_Node000013"><a xlink:href="classVideoDecoder.html#a72403db422317c2377fbf95fedd14077" target="_top" xlink:title="Emitted periodically during playback to indicate the current position (based on audio if available,...">
<polygon fill="white" stroke="#666666" points="658,-324.07 501.75,-324.07 501.75,-305.57 658,-305.57 658,-324.07"/>
<text text-anchor="middle" x="579.88" y="-310.57" font-family="Helvetica,sans-Serif" font-size="10.00">VideoDecoder::positionChanged</text>
</a>
</g>
</g>
<!-- Node12&#45;&gt;Node13 -->
<g id="edge14_Node000012_Node000013" class="edge">
<title>Node12&#45;&gt;Node13</title>
<g id="a_edge14_Node000012_Node000013"><a xlink:title=" ">
<path fill="none" stroke="#63b8ff" d="M454.85,-314.82C466.26,-314.82 478.22,-314.82 490.03,-314.82"/>
<polygon fill="#63b8ff" stroke="#63b8ff" points="489.76,-318.32 499.76,-314.82 489.76,-311.32 489.76,-318.32"/>
</a>
</g>
</g>
</g>
</svg>

<g id="navigator" transform="translate(0 0)" fill="#404254">
  <rect fill="#f2f5e9" fill-opacity="0.5" stroke="#606060" stroke-width=".5" x="0" y="0" width="60" height="60"/>
  <use id="zoomplus" xlink:href="#zoomPlus" x="17" y="9" onmousedown="handleZoom(evt,'in')"/>
  <use id="zoomminus" xlink:href="#zoomMin" x="42" y="9" onmousedown="handleZoom(evt,'out')"/>
  <use id="reset" xlink:href="#resetDef" x="30" y="36" onmousedown="handleReset()"/>
   <use id="arrowup" xlink:href="#arrowUp" x="0" y="0" onmousedown="handlePan(0,-1)"/>
  <use id="arrowright" xlink:href="#arrowRight" x="0" y="0" onmousedown="handlePan(1,0)"/>
  <use id="arrowdown" xlink:href="#arrowDown" x="0" y="0" onmousedown="handlePan(0,1)"/>
  <use id="arrowleft" xlink:href="#arrowLeft" x="0" y="0" onmousedown="handlePan(-1,0)"/>
</g>
<svg viewBox="0 0 15 15" width="100%" height="30px" preserveAspectRatio="xMaxYMin meet">
 <g id="arrow_out" transform="scale(0.3 0.3)">
  <a xlink:href="classVideoDecoder_a134b48e98d0b9db4011cfea08d0924da_cgraph_org.svg" target="_base">
   <rect id="button" ry="5" rx="5" y="6" x="6" height="38" width="38"
        fill="#f2f5e9" fill-opacity="0.5" stroke="#606060" stroke-width="1.0"/>
   <path id="arrow"
     d="M 11.500037,31.436501 C 11.940474,20.09759 22.043105,11.32322 32.158766,21.979434 L 37.068811,17.246167 C 37.068811,17.246167 37.088388,32 37.088388,32 L 22.160133,31.978069 C 22.160133,31.978069 26.997745,27.140456 26.997745,27.140456 C 18.528582,18.264221 13.291696,25.230495 11.500037,31.436501 z"
     style="fill:#404040;"/>
  </a>
 </g>
</svg>

<style type='text/css'>
<![CDATA[
[data-mouse-over-selected='false'] { opacity: 0.7; }
[data-mouse-over-selected='true']  { opacity: 1.0; }
]]>
</style>
<script type="application/ecmascript"><![CDATA[
document.addEventListener('DOMContentLoaded', (event) => {
  highlightEdges();
  highlightAdjacentNodes();
});
]]></script>
</svg>
