<?xml version="1.0" encoding="UTF-8" standalone="no"?>
<!DOCTYPE svg PUBLIC "-//W3C//DTD SVG 1.1//EN"
 "http://www.w3.org/Graphics/SVG/1.1/DTD/svg11.dtd">
<!-- Generated by graphviz version 12.2.1 (0)
 -->
<!-- Title: CommunicationStream::UpdateMessagePosition Pages: 1 -->
<svg width="820pt" height="241pt"
 viewBox="0.00 0.00 820.00 241.08" xmlns="http://www.w3.org/2000/svg" xmlns:xlink="http://www.w3.org/1999/xlink">
<g id="graph0" class="graph" transform="scale(1 1) rotate(0) translate(4 237.08)">
<title>CommunicationStream::UpdateMessagePosition</title>
<!-- Node1 -->
<g id="Node000001" class="node">
<title>Node1</title>
<g id="a_Node000001"><a xlink:title="Updates the position of the currently displayed message to keep it centered.">
<polygon fill="#999999" stroke="#666666" points="812,-148.3 683.5,-148.3 683.5,-119.3 812,-119.3 812,-148.3"/>
<text text-anchor="start" x="691.5" y="-134.8" font-family="Helvetica,sans-Serif" font-size="10.00">CommunicationStream</text>
<text text-anchor="middle" x="747.75" y="-124.3" font-family="Helvetica,sans-Serif" font-size="10.00">::UpdateMessagePosition</text>
</a>
</g>
</g>
<!-- Node2 -->
<g id="Node000002" class="node">
<title>Node2</title>
<g id="a_Node000002"><a xlink:href="classCommunicationStream.html#ae663e66a8b5a490d72018d6a218d9347" target="_top" xlink:title="Handles resizing of the OpenGL viewport and repositions overlay widgets.">
<polygon fill="white" stroke="#666666" points="645.25,-172.3 529.5,-172.3 529.5,-143.3 645.25,-143.3 645.25,-172.3"/>
<text text-anchor="start" x="537.5" y="-158.8" font-family="Helvetica,sans-Serif" font-size="10.00">CommunicationStream</text>
<text text-anchor="middle" x="587.38" y="-148.3" font-family="Helvetica,sans-Serif" font-size="10.00">::resizeGL</text>
</a>
</g>
</g>
<!-- Node1&#45;&gt;Node2 -->
<g id="edge1_Node000001_Node000002" class="edge">
<title>Node1&#45;&gt;Node2</title>
<g id="a_edge1_Node000001_Node000002"><a xlink:title=" ">
<path fill="none" stroke="#63b8ff" d="M672.1,-145.11C663.24,-146.45 654.31,-147.81 645.75,-149.1"/>
<polygon fill="#63b8ff" stroke="#63b8ff" points="672.39,-148.61 681.75,-143.65 671.34,-141.69 672.39,-148.61"/>
</a>
</g>
</g>
<!-- Node3 -->
<g id="Node000003" class="node">
<title>Node3</title>
<g id="a_Node000003"><a xlink:href="classCommunicationStream.html#aba44a533978e83748764534a8682c56f" target="_top" xlink:title="Displays the message at the specified index in the messages_ list. Hides the previously displayed mes...">
<polygon fill="white" stroke="#666666" points="647.5,-125.3 527.25,-125.3 527.25,-96.3 647.5,-96.3 647.5,-125.3"/>
<text text-anchor="start" x="535.25" y="-111.8" font-family="Helvetica,sans-Serif" font-size="10.00">CommunicationStream</text>
<text text-anchor="middle" x="587.38" y="-101.3" font-family="Helvetica,sans-Serif" font-size="10.00">::ShowMessageAtIndex</text>
</a>
</g>
</g>
<!-- Node1&#45;&gt;Node3 -->
<g id="edge2_Node000001_Node000003" class="edge">
<title>Node1&#45;&gt;Node3</title>
<g id="a_edge2_Node000001_Node000003"><a xlink:title=" ">
<path fill="none" stroke="#63b8ff" d="M671.89,-122.93C663.8,-121.75 655.65,-120.57 647.78,-119.43"/>
<polygon fill="#63b8ff" stroke="#63b8ff" points="671.35,-126.38 681.75,-124.36 672.35,-119.46 671.35,-126.38"/>
</a>
</g>
</g>
<!-- Node4 -->
<g id="Node000004" class="node">
<title>Node4</title>
<g id="a_Node000004"><a xlink:href="classCommunicationStream.html#ae3b9b361caa5123daac847c60475d605" target="_top" xlink:title="Adds a new standard message to the stream. Initiates the receiving animation. The message is displaye...">
<polygon fill="white" stroke="#666666" points="132.62,-170.3 16.88,-170.3 16.88,-141.3 132.62,-141.3 132.62,-170.3"/>
<text text-anchor="start" x="24.88" y="-156.8" font-family="Helvetica,sans-Serif" font-size="10.00">CommunicationStream</text>
<text text-anchor="middle" x="74.75" y="-146.3" font-family="Helvetica,sans-Serif" font-size="10.00">::AddMessage</text>
</a>
</g>
</g>
<!-- Node3&#45;&gt;Node4 -->
<g id="edge3_Node000003_Node000004" class="edge">
<title>Node3&#45;&gt;Node4</title>
<g id="a_edge3_Node000003_Node000004"><a xlink:title=" ">
<path fill="none" stroke="#63b8ff" d="M530.66,-131.99C529.49,-132.89 528.35,-133.83 527.25,-134.8 502.54,-156.7 519.7,-183.03 491.25,-199.8 365.01,-274.19 179.29,-203.79 106.56,-170.78"/>
<polygon fill="#63b8ff" stroke="#63b8ff" points="532.52,-134.96 539.02,-126.58 528.72,-129.08 532.52,-134.96"/>
</a>
</g>
</g>
<!-- Node5 -->
<g id="Node000005" class="node">
<title>Node5</title>
<g id="a_Node000005"><a xlink:href="classCommunicationStream.html#a10a56a4dc3eeeaf4865d0f63f077e3bf" target="_top" xlink:title="Adds a new message with attachment content to the stream. Initiates the receiving animation....">
<polygon fill="white" stroke="#666666" points="149.5,-102.3 0,-102.3 0,-73.3 149.5,-73.3 149.5,-102.3"/>
<text text-anchor="start" x="8" y="-88.8" font-family="Helvetica,sans-Serif" font-size="10.00">CommunicationStream</text>
<text text-anchor="middle" x="74.75" y="-78.3" font-family="Helvetica,sans-Serif" font-size="10.00">::AddMessageWithAttachment</text>
</a>
</g>
</g>
<!-- Node3&#45;&gt;Node5 -->
<g id="edge4_Node000003_Node000005" class="edge">
<title>Node3&#45;&gt;Node5</title>
<g id="a_edge4_Node000003_Node000005"><a xlink:title=" ">
<path fill="none" stroke="#63b8ff" d="M569.85,-86.77C553.02,-64.63 524.69,-33.22 491.25,-19.8 353.88,35.33 173.85,-39.31 104.61,-72.91"/>
<polygon fill="#63b8ff" stroke="#63b8ff" points="566.92,-88.69 575.66,-94.69 572.57,-84.55 566.92,-88.69"/>
</a>
</g>
</g>
<!-- Node6 -->
<g id="Node000006" class="node">
<title>Node6</title>
<g id="a_Node000006"><a xlink:href="classCommunicationStream.html#a2283a11febe30f9d2d1887c2c20e7ea3" target="_top" xlink:title="Slot triggered when a StreamMessage widget finishes its hiding animation (or is hidden)....">
<polygon fill="white" stroke="#666666" points="490.5,-190.3 367.25,-190.3 367.25,-161.3 490.5,-161.3 490.5,-190.3"/>
<text text-anchor="start" x="375.25" y="-176.8" font-family="Helvetica,sans-Serif" font-size="10.00">CommunicationStream</text>
<text text-anchor="middle" x="428.88" y="-166.3" font-family="Helvetica,sans-Serif" font-size="10.00">::HandleMessageHidden</text>
</a>
</g>
</g>
<!-- Node3&#45;&gt;Node6 -->
<g id="edge5_Node000003_Node000006" class="edge">
<title>Node3&#45;&gt;Node6</title>
<g id="a_edge5_Node000003_Node000006"><a xlink:title=" ">
<path fill="none" stroke="#63b8ff" d="M538.97,-129.98C535.01,-131.6 531.06,-133.22 527.25,-134.8 506.57,-143.35 483.49,-153.06 464.98,-160.89"/>
<polygon fill="#63b8ff" stroke="#63b8ff" points="540.11,-133.29 548.04,-126.28 537.46,-126.81 540.11,-133.29"/>
</a>
</g>
</g>
<!-- Node8 -->
<g id="Node000008" class="node">
<title>Node8</title>
<g id="a_Node000008"><a xlink:href="classCommunicationStream.html#a600acedc2f4f586b28c147077f768438" target="_top" xlink:title="Shows the next message in the list, if available.">
<polygon fill="white" stroke="#666666" points="486.75,-104.3 371,-104.3 371,-75.3 486.75,-75.3 486.75,-104.3"/>
<text text-anchor="start" x="379" y="-90.8" font-family="Helvetica,sans-Serif" font-size="10.00">CommunicationStream</text>
<text text-anchor="middle" x="428.88" y="-80.3" font-family="Helvetica,sans-Serif" font-size="10.00">::ShowNextMessage</text>
</a>
</g>
</g>
<!-- Node3&#45;&gt;Node8 -->
<g id="edge10_Node000003_Node000008" class="edge">
<title>Node3&#45;&gt;Node8</title>
<g id="a_edge10_Node000003_Node000008"><a xlink:title=" ">
<path fill="none" stroke="#63b8ff" d="M515.62,-101.3C506.04,-100.02 496.3,-98.71 487,-97.46"/>
<polygon fill="#63b8ff" stroke="#63b8ff" points="514.89,-104.74 525.26,-102.6 515.82,-97.8 514.89,-104.74"/>
</a>
</g>
</g>
<!-- Node10 -->
<g id="Node000010" class="node">
<title>Node10</title>
<g id="a_Node000010"><a xlink:href="classCommunicationStream.html#a918c54f07703dce3733f2aec5b09503d" target="_top" xlink:title="Shows the previous message in the list, if available.">
<polygon fill="white" stroke="#666666" points="491.25,-57.3 366.5,-57.3 366.5,-28.3 491.25,-28.3 491.25,-57.3"/>
<text text-anchor="start" x="374.5" y="-43.8" font-family="Helvetica,sans-Serif" font-size="10.00">CommunicationStream</text>
<text text-anchor="middle" x="428.88" y="-33.3" font-family="Helvetica,sans-Serif" font-size="10.00">::ShowPreviousMessage</text>
</a>
</g>
</g>
<!-- Node3&#45;&gt;Node10 -->
<g id="edge13_Node000003_Node000010" class="edge">
<title>Node3&#45;&gt;Node10</title>
<g id="a_edge13_Node000003_Node000010"><a xlink:title=" ">
<path fill="none" stroke="#63b8ff" d="M545.33,-91.15C528.65,-83.34 509.13,-74.42 491.25,-66.8 484.09,-63.75 476.41,-60.62 468.98,-57.68"/>
<polygon fill="#63b8ff" stroke="#63b8ff" points="543.4,-94.11 553.94,-95.21 546.39,-87.78 543.4,-94.11"/>
</a>
</g>
</g>
<!-- Node7 -->
<g id="Node000007" class="node">
<title>Node7</title>
<g id="a_Node000007"><a xlink:href="classCommunicationStream.html#aa91c3c46034a10ca7393998082e26a25" target="_top" xlink:title="Connects the necessary signals (navigation, read, hidden) from a StreamMessage widget to this Communi...">
<polygon fill="white" stroke="#666666" points="330.5,-136.3 185.5,-136.3 185.5,-107.3 330.5,-107.3 330.5,-136.3"/>
<text text-anchor="start" x="193.5" y="-122.8" font-family="Helvetica,sans-Serif" font-size="10.00">CommunicationStream</text>
<text text-anchor="middle" x="258" y="-112.3" font-family="Helvetica,sans-Serif" font-size="10.00">::ConnectSignalsForMessage</text>
</a>
</g>
</g>
<!-- Node6&#45;&gt;Node7 -->
<g id="edge6_Node000006_Node000007" class="edge">
<title>Node6&#45;&gt;Node7</title>
<g id="a_edge6_Node000006_Node000007"><a xlink:title=" ">
<path fill="none" stroke="#63b8ff" d="M370.51,-157.45C349.41,-150.71 325.79,-143.15 305.73,-136.74"/>
<polygon fill="#63b8ff" stroke="#63b8ff" points="369.25,-160.73 379.84,-160.44 371.38,-154.06 369.25,-160.73"/>
</a>
</g>
</g>
<!-- Node7&#45;&gt;Node3 -->
<g id="edge9_Node000007_Node000003" class="edge">
<title>Node7&#45;&gt;Node3</title>
<g id="a_edge9_Node000007_Node000003"><a xlink:title=" ">
<path fill="none" stroke="#63b8ff" d="M342.28,-119C399.99,-117.06 475.44,-114.53 527.09,-112.79"/>
<polygon fill="#63b8ff" stroke="#63b8ff" points="342.37,-115.49 332.5,-119.33 342.61,-122.49 342.37,-115.49"/>
</a>
</g>
</g>
<!-- Node7&#45;&gt;Node4 -->
<g id="edge7_Node000007_Node000004" class="edge">
<title>Node7&#45;&gt;Node4</title>
<g id="a_edge7_Node000007_Node000004"><a xlink:title=" ">
<path fill="none" stroke="#63b8ff" d="M174.06,-137.36C160.19,-139.96 146.07,-142.61 133.03,-145.05"/>
<polygon fill="#63b8ff" stroke="#63b8ff" points="174.43,-140.85 183.62,-135.56 173.14,-133.97 174.43,-140.85"/>
</a>
</g>
</g>
<!-- Node7&#45;&gt;Node5 -->
<g id="edge8_Node000007_Node000005" class="edge">
<title>Node7&#45;&gt;Node5</title>
<g id="a_edge8_Node000007_Node000005"><a xlink:title=" ">
<path fill="none" stroke="#63b8ff" d="M173.89,-106.21C165.9,-104.71 157.83,-103.2 149.94,-101.71"/>
<polygon fill="#63b8ff" stroke="#63b8ff" points="173.14,-109.63 183.62,-108.03 174.43,-102.75 173.14,-109.63"/>
</a>
</g>
</g>
<!-- Node8&#45;&gt;Node7 -->
<g id="edge11_Node000008_Node000007" class="edge">
<title>Node8&#45;&gt;Node7</title>
<g id="a_edge11_Node000008_Node000007"><a xlink:title=" ">
<path fill="none" stroke="#63b8ff" d="M359.69,-102.72C350.17,-104.52 340.37,-106.38 330.79,-108.2"/>
<polygon fill="#63b8ff" stroke="#63b8ff" points="360.04,-106.21 369.21,-100.91 358.74,-99.34 360.04,-106.21"/>
</a>
</g>
</g>
<!-- Node9 -->
<g id="Node000009" class="node">
<title>Node9</title>
<g id="a_Node000009"><a xlink:href="classCommunicationStream.html#a8a07b470a5e55591ef90260ad5ec60da" target="_top" xlink:title="Handles key presses for message navigation (Left/Right arrows) and closing (Enter).">
<polygon fill="white" stroke="#666666" points="315.88,-78.3 200.12,-78.3 200.12,-49.3 315.88,-49.3 315.88,-78.3"/>
<text text-anchor="start" x="208.12" y="-64.8" font-family="Helvetica,sans-Serif" font-size="10.00">CommunicationStream</text>
<text text-anchor="middle" x="258" y="-54.3" font-family="Helvetica,sans-Serif" font-size="10.00">::keyPressEvent</text>
</a>
</g>
</g>
<!-- Node8&#45;&gt;Node9 -->
<g id="edge12_Node000008_Node000009" class="edge">
<title>Node8&#45;&gt;Node9</title>
<g id="a_edge12_Node000008_Node000009"><a xlink:title=" ">
<path fill="none" stroke="#63b8ff" d="M359.36,-79.25C345,-77.04 330,-74.73 316.11,-72.59"/>
<polygon fill="#63b8ff" stroke="#63b8ff" points="358.79,-82.7 369.21,-80.77 359.85,-75.78 358.79,-82.7"/>
</a>
</g>
</g>
<!-- Node10&#45;&gt;Node7 -->
<g id="edge14_Node000010_Node000007" class="edge">
<title>Node10&#45;&gt;Node7</title>
<g id="a_edge14_Node000010_Node000007"><a xlink:title=" ">
<path fill="none" stroke="#63b8ff" d="M376.71,-62.11C373.23,-63.63 369.8,-65.2 366.5,-66.8 349.82,-74.86 346.88,-79.15 330.5,-87.8 318.1,-94.35 304.23,-101.07 292.03,-106.8"/>
<polygon fill="#63b8ff" stroke="#63b8ff" points="377.97,-65.37 385.82,-58.26 375.25,-58.92 377.97,-65.37"/>
</a>
</g>
</g>
<!-- Node10&#45;&gt;Node9 -->
<g id="edge15_Node000010_Node000009" class="edge">
<title>Node10&#45;&gt;Node9</title>
<g id="a_edge15_Node000010_Node000009"><a xlink:title=" ">
<path fill="none" stroke="#63b8ff" d="M355.12,-51.85C342.09,-53.47 328.69,-55.13 316.19,-56.69"/>
<polygon fill="#63b8ff" stroke="#63b8ff" points="355.44,-55.33 364.93,-50.63 354.57,-48.39 355.44,-55.33"/>
</a>
</g>
</g>
</g>
</svg>
