<?xml version="1.0" encoding="UTF-8" standalone="no"?>
<!DOCTYPE svg PUBLIC "-//W3C//DTD SVG 1.1//EN"
 "http://www.w3.org/Graphics/SVG/1.1/DTD/svg11.dtd">
<!-- Generated by graphviz version 12.2.1 (0)
 -->
<!-- Title: ChatView::OnPttButtonReleased Pages: 1 -->
<!--zoomable 173 -->

<svg id="main" version="1.1" xmlns="http://www.w3.org/2000/svg" xmlns:xlink="http://www.w3.org/1999/xlink" xml:space="preserve" onload="init(evt)">

<style type="text/css"><![CDATA[
.node, .edge {opacity: 0.7;}
.node.selected, .edge.selected {opacity: 1;}
.edge:hover path { stroke: red; }
.edge:hover polygon { stroke: red; fill: red; }
]]></style>

<defs>
  <circle id="rim" cx="0" cy="0" r="7"/>
  <circle id="rim2" cx="0" cy="0" r="3.5"/>
  <g id="zoomPlus">
    <use xlink:href="#rim" fill="#404040"><set attributeName="fill" to="#808080" begin="zoomplus.mouseover" end="zoomplus.mouseout"/></use>
    <path d="M-4,0h8M0,-4v8" fill="none" stroke="white" stroke-width="1.5" pointer-events="none"/>
  </g>
  <g id="zoomMin">
    <use xlink:href="#rim" fill="#404040"><set attributeName="fill" to="#808080" begin="zoomminus.mouseover" end="zoomminus.mouseout"/></use>
    <path d="M-4,0h8" fill="none" stroke="white" stroke-width="1.5" pointer-events="none"/>
  </g>
  <g id="arrowUp" transform="translate(30 24)">
    <use xlink:href="#rim"/>
    <path pointer-events="none" fill="none" stroke="white" stroke-width="1.5" d="M0,-3.0v7 M-2.5,-0.5L0,-3.0L2.5,-0.5"/>
  </g>
  <g id="arrowRight" transform="rotate(90) translate(36 -43)">
    <use xlink:href="#rim"/>
    <path pointer-events="none" fill="none" stroke="white" stroke-width="1.5" d="M0,-3.0v7 M-2.5,-0.5L0,-3.0L2.5,-0.5"/>
  </g>
  <g id="arrowDown" transform="rotate(180) translate(-30 -48)">
    <use xlink:href="#rim"/>
    <path pointer-events="none" fill="none" stroke="white" stroke-width="1.5" d="M0,-3.0v7 M-2.5,-0.5L0,-3.0L2.5,-0.5"/>
  </g>
  <g id="arrowLeft" transform="rotate(270) translate(-36 17)">
    <use xlink:href="#rim"/>
    <path pointer-events="none" fill="none" stroke="white" stroke-width="1.5" d="M0,-3.0v7 M-2.5,-0.5L0,-3.0L2.5,-0.5"/>
  </g>
  <g id="resetDef">
    <use xlink:href="#rim2" fill="#404040"><set attributeName="fill" to="#808080" begin="reset.mouseover" end="reset.mouseout"/></use>
  </g>
</defs>
<script type="application/ecmascript">
var viewWidth = 897;
var viewHeight = 173;
var sectionId = 'dynsection-16';
</script>
<script type="application/ecmascript" xlink:href="svg.min.js"/>
<svg id="graph" class="graph">
<g id="viewport">
<title>ChatView::OnPttButtonReleased</title>
<!-- Node1 -->
<g id="Node000001" class="node">
<title>Node1</title>
<g id="a_Node000001"><a xlink:title="Slot called when the PTT button is released. Plays the PTT deactivation sound. If transmitting,...">
<polygon fill="#999999" stroke="#666666" points="158.5,-83.75 0,-83.75 0,-65.25 158.5,-65.25 158.5,-83.75"/>
<text text-anchor="middle" x="79.25" y="-70.25" font-family="Helvetica,sans-Serif" font-size="10.00">ChatView::OnPttButtonReleased</text>
</a>
</g>
</g>
<!-- Node2 -->
<g id="Node000002" class="node">
<title>Node2</title>
<g id="a_Node000002"><a xlink:href="classMessageService.html#a3d9355ae6f778ed4799141d921b6e7e4" target="_top" xlink:title="Gets the singleton instance of the MessageService.">
<polygon fill="white" stroke="#666666" points="351.88,-142.75 203.12,-142.75 203.12,-124.25 351.88,-124.25 351.88,-142.75"/>
<text text-anchor="middle" x="277.5" y="-129.25" font-family="Helvetica,sans-Serif" font-size="10.00">MessageService::GetInstance</text>
</a>
</g>
</g>
<!-- Node1&#45;&gt;Node2 -->
<g id="edge1_Node000001_Node000002" class="edge">
<title>Node1&#45;&gt;Node2</title>
<g id="a_edge1_Node000001_Node000002"><a xlink:title=" ">
<path fill="none" stroke="#63b8ff" d="M108.77,-84.18C131.8,-91.9 165.11,-102.8 194.5,-111.5 205.31,-114.7 216.99,-117.95 228.04,-120.94"/>
<polygon fill="#63b8ff" stroke="#63b8ff" points="226.8,-124.23 237.37,-123.43 228.61,-117.47 226.8,-124.23"/>
</a>
</g>
</g>
<!-- Node4 -->
<g id="Node000004" class="node">
<title>Node4</title>
<g id="a_Node000004"><a xlink:href="classMessageService.html#a75fb7423ceb5f01542eb53c93c332df7" target="_top" xlink:title="Sends a Push&#45;to&#45;Talk (PTT) release message for the specified frequency. Constructs a JSON message of ...">
<polygon fill="white" stroke="#666666" points="360.5,-102.75 194.5,-102.75 194.5,-84.25 360.5,-84.25 360.5,-102.75"/>
<text text-anchor="middle" x="277.5" y="-89.25" font-family="Helvetica,sans-Serif" font-size="10.00">MessageService::SendPttRelease</text>
</a>
</g>
</g>
<!-- Node1&#45;&gt;Node4 -->
<g id="edge4_Node000001_Node000004" class="edge">
<title>Node1&#45;&gt;Node4</title>
<g id="a_edge4_Node000001_Node000004"><a xlink:title=" ">
<path fill="none" stroke="#63b8ff" d="M158.94,-82.12C166.84,-82.88 174.92,-83.67 182.95,-84.44"/>
<polygon fill="#63b8ff" stroke="#63b8ff" points="182.46,-87.91 192.75,-85.39 183.14,-80.94 182.46,-87.91"/>
</a>
</g>
</g>
<!-- Node10 -->
<g id="Node000010" class="node">
<title>Node10</title>
<g id="a_Node000010"><a xlink:href="classChatView.html#abd9ae8e738358b9be6f5e935ea4826a3" target="_top" xlink:title="Stops capturing audio from the microphone. Disconnects signals and resets the input device pointer.">
<polygon fill="white" stroke="#666666" points="342.88,-65.75 212.12,-65.75 212.12,-47.25 342.88,-47.25 342.88,-65.75"/>
<text text-anchor="middle" x="277.5" y="-52.25" font-family="Helvetica,sans-Serif" font-size="10.00">ChatView::StopAudioInput</text>
</a>
</g>
</g>
<!-- Node1&#45;&gt;Node10 -->
<g id="edge10_Node000001_Node000010" class="edge">
<title>Node1&#45;&gt;Node10</title>
<g id="a_edge10_Node000001_Node000010"><a xlink:title=" ">
<path fill="none" stroke="#63b8ff" d="M158.94,-67.28C172.6,-66.03 186.79,-64.73 200.38,-63.48"/>
<polygon fill="#63b8ff" stroke="#63b8ff" points="200.49,-66.99 210.13,-62.59 199.85,-60.02 200.49,-66.99"/>
</a>
</g>
</g>
<!-- Node13 -->
<g id="Node000013" class="node">
<title>Node13</title>
<g id="a_Node000013"><a xlink:href="classChatView.html#a5d0b4d046c069b49e17f1eabdf350455" target="_top" xlink:title="Updates the appearance and enabled state of the PTT button based on the current ptt_state_....">
<polygon fill="white" stroke="#666666" points="345.88,-29 209.12,-29 209.12,0 345.88,0 345.88,-29"/>
<text text-anchor="start" x="217.12" y="-15.5" font-family="Helvetica,sans-Serif" font-size="10.00">ChatView::UpdatePttButton</text>
<text text-anchor="middle" x="277.5" y="-5" font-family="Helvetica,sans-Serif" font-size="10.00">State</text>
</a>
</g>
</g>
<!-- Node1&#45;&gt;Node13 -->
<g id="edge13_Node000001_Node000013" class="edge">
<title>Node1&#45;&gt;Node13</title>
<g id="a_edge13_Node000001_Node000013"><a xlink:title=" ">
<path fill="none" stroke="#63b8ff" d="M110.27,-64.86C133.28,-57.51 165.85,-47.21 194.5,-38.5 200.77,-36.59 207.33,-34.63 213.87,-32.69"/>
<polygon fill="#63b8ff" stroke="#63b8ff" points="214.79,-36.07 223.38,-29.87 212.8,-29.35 214.79,-36.07"/>
</a>
</g>
</g>
<!-- Node3 -->
<g id="Node000003" class="node">
<title>Node3</title>
<g id="a_Node000003"><a xlink:href="classMessageService.html#a2a6e9a079ac7a537b6342e1fb63a52dc" target="_top" xlink:title="Deleted copy constructor to prevent copying.">
<polygon fill="white" stroke="#666666" points="565.5,-144.75 396.5,-144.75 396.5,-126.25 565.5,-126.25 565.5,-144.75"/>
<text text-anchor="middle" x="481" y="-131.25" font-family="Helvetica,sans-Serif" font-size="10.00">MessageService::MessageService</text>
</a>
</g>
</g>
<!-- Node2&#45;&gt;Node3 -->
<g id="edge2_Node000002_Node000003" class="edge">
<title>Node2&#45;&gt;Node3</title>
<g id="a_edge2_Node000002_Node000003"><a xlink:title=" ">
<path fill="none" stroke="#63b8ff" d="M352.1,-134.23C362.7,-134.34 373.73,-134.45 384.67,-134.55"/>
<polygon fill="#63b8ff" stroke="#63b8ff" points="384.48,-138.05 394.51,-134.65 384.55,-131.05 384.48,-138.05"/>
</a>
</g>
</g>
<!-- Node3&#45;&gt;Node3 -->
<g id="edge3_Node000003_Node000003" class="edge">
<title>Node3&#45;&gt;Node3</title>
<g id="a_edge3_Node000003_Node000003"><a xlink:title=" ">
<path fill="none" stroke="#63b8ff" d="M451.02,-145C436.44,-153.57 446.43,-162.75 481,-162.75 502.07,-162.75 514.01,-159.34 516.82,-154.74"/>
<polygon fill="#63b8ff" stroke="#63b8ff" points="519.9,-153.07 511.76,-146.29 513.9,-156.67 519.9,-153.07"/>
</a>
</g>
</g>
<!-- Node5 -->
<g id="Node000005" class="node">
<title>Node5</title>
<g id="a_Node000005"><a xlink:href="classMessageService.html#ac47c8ae3b3defb430c71fcc9b0636615" target="_top" xlink:title="Helper function to retrieve the active WebSocket connection for a given frequency....">
<polygon fill="white" stroke="#666666" points="551.62,-108 410.38,-108 410.38,-79 551.62,-79 551.62,-108"/>
<text text-anchor="start" x="418.38" y="-94.5" font-family="Helvetica,sans-Serif" font-size="10.00">MessageService::GetSocket</text>
<text text-anchor="middle" x="481" y="-84" font-family="Helvetica,sans-Serif" font-size="10.00">ForFrequency</text>
</a>
</g>
</g>
<!-- Node4&#45;&gt;Node5 -->
<g id="edge5_Node000004_Node000005" class="edge">
<title>Node4&#45;&gt;Node5</title>
<g id="a_edge5_Node000004_Node000005"><a xlink:title=" ">
<path fill="none" stroke="#63b8ff" d="M360.75,-93.5C373.25,-93.5 386.14,-93.5 398.62,-93.5"/>
<polygon fill="#63b8ff" stroke="#63b8ff" points="398.42,-97 408.42,-93.5 398.42,-90 398.42,-97"/>
</a>
</g>
</g>
<!-- Node6 -->
<g id="Node000006" class="node">
<title>Node6</title>
<g id="a_Node000006"><a xlink:href="classWavelengthRegistry.html#a84a25c38915431306681e96df429f20f" target="_top" xlink:title="Gets the singleton instance of the WavelengthRegistry.">
<polygon fill="#fff0f0" stroke="red" points="727,-165 624,-165 624,-136 727,-136 727,-165"/>
<text text-anchor="start" x="632" y="-151.5" font-family="Helvetica,sans-Serif" font-size="10.00">WavelengthRegistry</text>
<text text-anchor="middle" x="675.5" y="-141" font-family="Helvetica,sans-Serif" font-size="10.00">::GetInstance</text>
</a>
</g>
</g>
<!-- Node5&#45;&gt;Node6 -->
<g id="edge6_Node000005_Node000006" class="edge">
<title>Node5&#45;&gt;Node6</title>
<g id="a_edge6_Node000005_Node000006"><a xlink:title=" ">
<path fill="none" stroke="#63b8ff" d="M534.59,-108.49C544.85,-111.45 555.52,-114.55 565.5,-117.5 581.52,-122.23 598.85,-127.43 614.86,-132.28"/>
<polygon fill="#63b8ff" stroke="#63b8ff" points="613.68,-135.58 624.26,-135.13 615.71,-128.88 613.68,-135.58"/>
</a>
</g>
</g>
<!-- Node8 -->
<g id="Node000008" class="node">
<title>Node8</title>
<g id="a_Node000008"><a xlink:href="classWavelengthRegistry.html#a022bb5799d095b75026019791ebf5e34" target="_top" xlink:title="Retrieves the WavelengthInfo for a specific frequency.">
<polygon fill="white" stroke="#666666" points="727.75,-118 623.25,-118 623.25,-89 727.75,-89 727.75,-118"/>
<text text-anchor="start" x="631.25" y="-104.5" font-family="Helvetica,sans-Serif" font-size="10.00">WavelengthRegistry</text>
<text text-anchor="middle" x="675.5" y="-94" font-family="Helvetica,sans-Serif" font-size="10.00">::GetWavelengthInfo</text>
</a>
</g>
</g>
<!-- Node5&#45;&gt;Node8 -->
<g id="edge7_Node000005_Node000008" class="edge">
<title>Node5&#45;&gt;Node8</title>
<g id="a_edge7_Node000005_Node000008"><a xlink:title=" ">
<path fill="none" stroke="#63b8ff" d="M552.04,-97.14C571.54,-98.15 592.59,-99.25 611.65,-100.24"/>
<polygon fill="#63b8ff" stroke="#63b8ff" points="611.24,-103.72 621.41,-100.74 611.6,-96.73 611.24,-103.72"/>
</a>
</g>
</g>
<!-- Node9 -->
<g id="Node000009" class="node">
<title>Node9</title>
<g id="a_Node000009"><a xlink:href="classWavelengthRegistry.html#a998a355d30053edcff8aac04c7d7dc55" target="_top" xlink:title="Checks if a wavelength with the given frequency exists in the registry.">
<polygon fill="white" stroke="#666666" points="888.5,-96 785.5,-96 785.5,-67 888.5,-67 888.5,-96"/>
<text text-anchor="start" x="793.5" y="-82.5" font-family="Helvetica,sans-Serif" font-size="10.00">WavelengthRegistry</text>
<text text-anchor="middle" x="837" y="-72" font-family="Helvetica,sans-Serif" font-size="10.00">::HasWavelength</text>
</a>
</g>
</g>
<!-- Node5&#45;&gt;Node9 -->
<g id="edge9_Node000005_Node000009" class="edge">
<title>Node5&#45;&gt;Node9</title>
<g id="a_edge9_Node000005_Node000009"><a xlink:title=" ">
<path fill="none" stroke="#63b8ff" d="M552.04,-84.6C568.25,-82.89 585.45,-81.37 601.5,-80.5 667.18,-76.94 683.72,-80.12 749.5,-80.5 757.36,-80.55 765.62,-80.61 773.79,-80.69"/>
<polygon fill="#63b8ff" stroke="#63b8ff" points="773.68,-84.19 783.72,-80.8 773.75,-77.19 773.68,-84.19"/>
</a>
</g>
</g>
<!-- Node8&#45;&gt;Node9 -->
<g id="edge8_Node000008_Node000009" class="edge">
<title>Node8&#45;&gt;Node9</title>
<g id="a_edge8_Node000008_Node000009"><a xlink:title=" ">
<path fill="none" stroke="#63b8ff" d="M727.84,-96.42C742.43,-94.41 758.48,-92.19 773.64,-90.1"/>
<polygon fill="#63b8ff" stroke="#63b8ff" points="774.1,-93.57 783.53,-88.74 773.14,-86.64 774.1,-93.57"/>
</a>
</g>
</g>
<!-- Node11 -->
<g id="Node000011" class="node">
<title>Node11</title>
<g id="a_Node000011"><a xlink:href="classChatView.html#a034774a31cd27434eeb01e9965736aeb" target="_top" xlink:title="Slot called when the audio input device has data ready to be read. Reads all available audio data,...">
<polygon fill="white" stroke="#666666" points="555.38,-51.75 406.62,-51.75 406.62,-33.25 555.38,-33.25 555.38,-51.75"/>
<text text-anchor="middle" x="481" y="-38.25" font-family="Helvetica,sans-Serif" font-size="10.00">ChatView::OnReadyReadInput</text>
</a>
</g>
</g>
<!-- Node10&#45;&gt;Node11 -->
<g id="edge11_Node000010_Node000011" class="edge">
<title>Node10&#45;&gt;Node11</title>
<g id="a_edge11_Node000010_Node000011"><a xlink:title=" ">
<path fill="none" stroke="#63b8ff" d="M343.37,-51.99C359.79,-50.85 377.67,-49.61 394.93,-48.41"/>
<polygon fill="#63b8ff" stroke="#63b8ff" points="394.91,-51.92 404.64,-47.74 394.42,-44.94 394.91,-51.92"/>
</a>
</g>
</g>
<!-- Node12 -->
<g id="Node000012" class="node">
<title>Node12</title>
<g id="a_Node000012"><a xlink:href="classChatView.html#aab2d772652852a6156c9f075bc21a03e" target="_top" xlink:title="Calculates the Root Mean Square (RMS) amplitude of a raw audio buffer. Used for audio visualization....">
<polygon fill="white" stroke="#666666" points="749.5,-32.75 601.5,-32.75 601.5,-14.25 749.5,-14.25 749.5,-32.75"/>
<text text-anchor="middle" x="675.5" y="-19.25" font-family="Helvetica,sans-Serif" font-size="10.00">ChatView::CalculateAmplitude</text>
</a>
</g>
</g>
<!-- Node11&#45;&gt;Node12 -->
<g id="edge12_Node000011_Node000012" class="edge">
<title>Node11&#45;&gt;Node12</title>
<g id="a_edge12_Node000011_Node000012"><a xlink:title=" ">
<path fill="none" stroke="#63b8ff" d="M555.87,-35.21C567.01,-34.11 578.56,-32.97 589.9,-31.85"/>
<polygon fill="#63b8ff" stroke="#63b8ff" points="590.03,-35.35 599.63,-30.89 589.34,-28.39 590.03,-35.35"/>
</a>
</g>
</g>
</g>
</svg>

<g id="navigator" transform="translate(0 0)" fill="#404254">
  <rect fill="#f2f5e9" fill-opacity="0.5" stroke="#606060" stroke-width=".5" x="0" y="0" width="60" height="60"/>
  <use id="zoomplus" xlink:href="#zoomPlus" x="17" y="9" onmousedown="handleZoom(evt,'in')"/>
  <use id="zoomminus" xlink:href="#zoomMin" x="42" y="9" onmousedown="handleZoom(evt,'out')"/>
  <use id="reset" xlink:href="#resetDef" x="30" y="36" onmousedown="handleReset()"/>
   <use id="arrowup" xlink:href="#arrowUp" x="0" y="0" onmousedown="handlePan(0,-1)"/>
  <use id="arrowright" xlink:href="#arrowRight" x="0" y="0" onmousedown="handlePan(1,0)"/>
  <use id="arrowdown" xlink:href="#arrowDown" x="0" y="0" onmousedown="handlePan(0,1)"/>
  <use id="arrowleft" xlink:href="#arrowLeft" x="0" y="0" onmousedown="handlePan(-1,0)"/>
</g>
<svg viewBox="0 0 15 15" width="100%" height="30px" preserveAspectRatio="xMaxYMin meet">
 <g id="arrow_out" transform="scale(0.3 0.3)">
  <a xlink:href="classChatView_ac40ec4de8eddc9ea4fc2d3e210aa6c4d_cgraph_org.svg" target="_base">
   <rect id="button" ry="5" rx="5" y="6" x="6" height="38" width="38"
        fill="#f2f5e9" fill-opacity="0.5" stroke="#606060" stroke-width="1.0"/>
   <path id="arrow"
     d="M 11.500037,31.436501 C 11.940474,20.09759 22.043105,11.32322 32.158766,21.979434 L 37.068811,17.246167 C 37.068811,17.246167 37.088388,32 37.088388,32 L 22.160133,31.978069 C 22.160133,31.978069 26.997745,27.140456 26.997745,27.140456 C 18.528582,18.264221 13.291696,25.230495 11.500037,31.436501 z"
     style="fill:#404040;"/>
  </a>
 </g>
</svg>

<style type='text/css'>
<![CDATA[
[data-mouse-over-selected='false'] { opacity: 0.7; }
[data-mouse-over-selected='true']  { opacity: 1.0; }
]]>
</style>
<script type="application/ecmascript"><![CDATA[
document.addEventListener('DOMContentLoaded', (event) => {
  highlightEdges();
  highlightAdjacentNodes();
});
]]></script>
</svg>
