<?xml version="1.0" encoding="UTF-8" standalone="no"?>
<!DOCTYPE svg PUBLIC "-//W3C//DTD SVG 1.1//EN"
 "http://www.w3.org/Graphics/SVG/1.1/DTD/svg11.dtd">
<!-- Generated by graphviz version 12.2.1 (0)
 -->
<!-- Title: GifDecoder::frameReady Pages: 1 -->
<svg width="270pt" height="64pt"
 viewBox="0.00 0.00 269.50 63.50" xmlns="http://www.w3.org/2000/svg" xmlns:xlink="http://www.w3.org/1999/xlink">
<g id="graph0" class="graph" transform="scale(1 1) rotate(0) translate(4 59.5)">
<title>GifDecoder::frameReady</title>
<!-- Node1 -->
<g id="Node000001" class="node">
<title>Node1</title>
<g id="a_Node000001"><a xlink:title="Emitted for each decoded frame of the GIF.">
<polygon fill="#999999" stroke="#666666" points="261.5,-36.5 137.5,-36.5 137.5,-18 261.5,-18 261.5,-36.5"/>
<text text-anchor="middle" x="199.5" y="-23" font-family="Helvetica,sans-Serif" font-size="10.00">GifDecoder::frameReady</text>
</a>
</g>
</g>
<!-- Node2 -->
<g id="Node000002" class="node">
<title>Node2</title>
<g id="a_Node000002"><a xlink:href="classGifPlayer.html#ac183e77217bfd80689ab931f0115aea0" target="_top" xlink:title="Constructs an InlineGifPlayer widget. Initializes the UI (QLabel for display), creates the GifDecoder...">
<polygon fill="white" stroke="#666666" points="101.5,-55.5 0,-55.5 0,-37 101.5,-37 101.5,-55.5"/>
<text text-anchor="middle" x="50.75" y="-42" font-family="Helvetica,sans-Serif" font-size="10.00">GifPlayer::GifPlayer</text>
</a>
</g>
</g>
<!-- Node1&#45;&gt;Node2 -->
<g id="edge1_Node000001_Node000002" class="edge">
<title>Node1&#45;&gt;Node2</title>
<g id="a_edge1_Node000001_Node000002"><a xlink:title=" ">
<path fill="none" stroke="#63b8ff" d="M125.7,-36.67C117.6,-37.72 109.49,-38.77 101.76,-39.78"/>
<polygon fill="#63b8ff" stroke="#63b8ff" points="126.15,-40.15 135.61,-35.39 125.25,-33.21 126.15,-40.15"/>
</a>
</g>
</g>
<!-- Node3 -->
<g id="Node000003" class="node">
<title>Node3</title>
<g id="a_Node000003"><a xlink:href="classGifDecoder.html#a5f3075f25bb1e6e0fbad6a4abc1ccef9" target="_top" xlink:title="The main function executed by the QThread. Contains the loop that reads packets, decodes frames,...">
<polygon fill="white" stroke="#666666" points="93.25,-18.5 8.25,-18.5 8.25,0 93.25,0 93.25,-18.5"/>
<text text-anchor="middle" x="50.75" y="-5" font-family="Helvetica,sans-Serif" font-size="10.00">GifDecoder::run</text>
</a>
</g>
</g>
<!-- Node1&#45;&gt;Node3 -->
<g id="edge2_Node000001_Node000003" class="edge">
<title>Node1&#45;&gt;Node3</title>
<g id="a_edge2_Node000001_Node000003"><a xlink:title=" ">
<path fill="none" stroke="#63b8ff" d="M125.73,-18.32C114.75,-16.98 103.76,-15.63 93.74,-14.4"/>
<polygon fill="#63b8ff" stroke="#63b8ff" points="125.26,-21.79 135.61,-19.54 126.11,-14.84 125.26,-21.79"/>
</a>
</g>
</g>
</g>
</svg>
