<?xml version="1.0" encoding="UTF-8" standalone="no"?>
<!DOCTYPE svg PUBLIC "-//W3C//DTD SVG 1.1//EN"
 "http://www.w3.org/Graphics/SVG/1.1/DTD/svg11.dtd">
<!-- Generated by graphviz version 12.2.1 (0)
 -->
<!-- Title: StreamMessage::keyPressEvent Pages: 1 -->
<svg width="705pt" height="121pt"
 viewBox="0.00 0.00 705.00 120.75" xmlns="http://www.w3.org/2000/svg" xmlns:xlink="http://www.w3.org/1999/xlink">
<g id="graph0" class="graph" transform="scale(1 1) rotate(0) translate(4 116.75)">
<title>StreamMessage::keyPressEvent</title>
<!-- Node1 -->
<g id="Node000001" class="node">
<title>Node1</title>
<g id="a_Node000001"><a xlink:title="Overridden key press event handler. Handles Space/Enter to mark as read, and Left/Right arrows for na...">
<polygon fill="#999999" stroke="#666666" points="158.5,-70.75 0,-70.75 0,-52.25 158.5,-52.25 158.5,-70.75"/>
<text text-anchor="middle" x="79.25" y="-57.25" font-family="Helvetica,sans-Serif" font-size="10.00">StreamMessage::keyPressEvent</text>
</a>
</g>
</g>
<!-- Node2 -->
<g id="Node000002" class="node">
<title>Node2</title>
<g id="a_Node000002"><a xlink:href="classStreamMessage.html#ad759a905d0a2cc1874d4781c97b9a2fc" target="_top" xlink:title="Marks the message as read, triggers the appropriate closing animation (Electronic Shutdown or a simpl...">
<polygon fill="white" stroke="#666666" points="344.75,-70.75 194.5,-70.75 194.5,-52.25 344.75,-52.25 344.75,-70.75"/>
<text text-anchor="middle" x="269.62" y="-57.25" font-family="Helvetica,sans-Serif" font-size="10.00">StreamMessage::MarkAsRead</text>
</a>
</g>
</g>
<!-- Node1&#45;&gt;Node2 -->
<g id="edge1_Node000001_Node000002" class="edge">
<title>Node1&#45;&gt;Node2</title>
<g id="a_edge1_Node000001_Node000002"><a xlink:title=" ">
<path fill="none" stroke="#63b8ff" d="M158.77,-61.5C166.73,-61.5 174.85,-61.5 182.88,-61.5"/>
<polygon fill="#63b8ff" stroke="#63b8ff" points="182.64,-65 192.64,-61.5 182.64,-58 182.64,-65"/>
</a>
</g>
</g>
<!-- Node3 -->
<g id="Node000003" class="node">
<title>Node3</title>
<g id="a_Node000003"><a xlink:href="classStreamMessage.html#ab76d3005cedeb795654afd453108593f" target="_top" xlink:title="Emitted when the message is marked as read (MarkAsRead() is called).">
<polygon fill="white" stroke="#666666" points="537.75,-112.75 382.25,-112.75 382.25,-94.25 537.75,-94.25 537.75,-112.75"/>
<text text-anchor="middle" x="460" y="-99.25" font-family="Helvetica,sans-Serif" font-size="10.00">StreamMessage::messageRead</text>
</a>
</g>
</g>
<!-- Node2&#45;&gt;Node3 -->
<g id="edge2_Node000002_Node000003" class="edge">
<title>Node2&#45;&gt;Node3</title>
<g id="a_edge2_Node000002_Node000003"><a xlink:title=" ">
<path fill="none" stroke="#63b8ff" d="M314.32,-71.24C341.18,-77.23 375.83,-84.96 404.48,-91.35"/>
<polygon fill="#63b8ff" stroke="#63b8ff" points="403.55,-94.72 414.07,-93.48 405.07,-87.89 403.55,-94.72"/>
</a>
</g>
</g>
<!-- Node4 -->
<g id="Node000004" class="node">
<title>Node4</title>
<g id="a_Node000004"><a xlink:href="classStreamMessage.html#a54a074c315a53d482650cd24d3e57d60" target="_top" xlink:title="Starts a simpler closing animation (glitch/fade) used specifically for long messages displayed in a s...">
<polygon fill="white" stroke="#666666" points="528,-76 392,-76 392,-47 528,-47 528,-76"/>
<text text-anchor="start" x="400" y="-62.5" font-family="Helvetica,sans-Serif" font-size="10.00">StreamMessage::StartLong</text>
<text text-anchor="middle" x="460" y="-52" font-family="Helvetica,sans-Serif" font-size="10.00">MessageClosingAnimation</text>
</a>
</g>
</g>
<!-- Node2&#45;&gt;Node4 -->
<g id="edge3_Node000002_Node000004" class="edge">
<title>Node2&#45;&gt;Node4</title>
<g id="a_edge3_Node000002_Node000004"><a xlink:title=" ">
<path fill="none" stroke="#63b8ff" d="M345.08,-61.5C356.57,-61.5 368.47,-61.5 380.06,-61.5"/>
<polygon fill="#63b8ff" stroke="#63b8ff" points="380,-65 390,-61.5 380,-58 380,-65"/>
</a>
</g>
</g>
<!-- Node6 -->
<g id="Node000006" class="node">
<title>Node6</title>
<g id="a_Node000006"><a xlink:href="classStreamMessage.html#a8bbf535db654d1c7c94546c61fdc936c" target="_top" xlink:title="Starts the electronic shutdown closing animation. Applies the ElectronicShutdownEffect and animates i...">
<polygon fill="white" stroke="#666666" points="539.25,-29 380.75,-29 380.75,0 539.25,0 539.25,-29"/>
<text text-anchor="start" x="388.75" y="-15.5" font-family="Helvetica,sans-Serif" font-size="10.00">StreamMessage::StartShutdown</text>
<text text-anchor="middle" x="460" y="-5" font-family="Helvetica,sans-Serif" font-size="10.00">Animation</text>
</a>
</g>
</g>
<!-- Node2&#45;&gt;Node6 -->
<g id="edge5_Node000002_Node000006" class="edge">
<title>Node2&#45;&gt;Node6</title>
<g id="a_edge5_Node000002_Node000006"><a xlink:title=" ">
<path fill="none" stroke="#63b8ff" d="M309.66,-51.76C332.39,-46.09 361.74,-38.77 388.39,-32.12"/>
<polygon fill="#63b8ff" stroke="#63b8ff" points="388.91,-35.59 397.77,-29.78 387.22,-28.8 388.91,-35.59"/>
</a>
</g>
</g>
<!-- Node5 -->
<g id="Node000005" class="node">
<title>Node5</title>
<g id="a_Node000005"><a xlink:href="classStreamMessage.html#aa04caea13bddde1d0ea72f43ad26e8f8" target="_top" xlink:title="Emitted when the message finishes its fade&#45;out or closing animation and becomes hidden.">
<polygon fill="white" stroke="#666666" points="697,-46.75 575.25,-46.75 575.25,-28.25 697,-28.25 697,-46.75"/>
<text text-anchor="middle" x="636.12" y="-33.25" font-family="Helvetica,sans-Serif" font-size="10.00">StreamMessage::hidden</text>
</a>
</g>
</g>
<!-- Node4&#45;&gt;Node5 -->
<g id="edge4_Node000004_Node000005" class="edge">
<title>Node4&#45;&gt;Node5</title>
<g id="a_edge4_Node000004_Node000005"><a xlink:title=" ">
<path fill="none" stroke="#63b8ff" d="M528.32,-52.22C539.92,-50.62 552.02,-48.95 563.73,-47.34"/>
<polygon fill="#63b8ff" stroke="#63b8ff" points="563.88,-50.85 573.31,-46.02 562.92,-43.92 563.88,-50.85"/>
</a>
</g>
</g>
<!-- Node6&#45;&gt;Node5 -->
<g id="edge6_Node000006_Node000005" class="edge">
<title>Node6&#45;&gt;Node5</title>
<g id="a_edge6_Node000006_Node000005"><a xlink:title=" ">
<path fill="none" stroke="#63b8ff" d="M539.66,-24.89C547.59,-25.94 555.62,-27 563.47,-28.04"/>
<polygon fill="#63b8ff" stroke="#63b8ff" points="562.95,-31.5 573.32,-29.34 563.87,-24.56 562.95,-31.5"/>
</a>
</g>
</g>
</g>
</svg>
