<?xml version="1.0" encoding="UTF-8" standalone="no"?>
<!DOCTYPE svg PUBLIC "-//W3C//DTD SVG 1.1//EN"
 "http://www.w3.org/Graphics/SVG/1.1/DTD/svg11.dtd">
<!-- Generated by graphviz version 12.2.1 (0)
 -->
<!-- Title: BlobAnimation::showAnimation Pages: 1 -->
<svg width="707pt" height="69pt"
 viewBox="0.00 0.00 707.25 68.75" xmlns="http://www.w3.org/2000/svg" xmlns:xlink="http://www.w3.org/1999/xlink">
<g id="graph0" class="graph" transform="scale(1 1) rotate(0) translate(4 64.75)">
<title>BlobAnimation::showAnimation</title>
<!-- Node1 -->
<g id="Node000001" class="node">
<title>Node1</title>
<g id="a_Node000001"><a xlink:title="Makes the animation widget visible and resumes event tracking.">
<polygon fill="#999999" stroke="#666666" points="151.75,-36.5 0,-36.5 0,-18 151.75,-18 151.75,-36.5"/>
<text text-anchor="middle" x="75.88" y="-23" font-family="Helvetica,sans-Serif" font-size="10.00">BlobAnimation::showAnimation</text>
</a>
</g>
</g>
<!-- Node2 -->
<g id="Node000002" class="node">
<title>Node2</title>
<g id="a_Node000002"><a xlink:href="classBlobAnimation.html#aea443f68ce3f9a932a56a96e44b367d6" target="_top" xlink:title="Resumes all event tracking mechanisms after being paused. Restarts timers, enables the event handler,...">
<polygon fill="white" stroke="#666666" points="320,-41.75 187.75,-41.75 187.75,-12.75 320,-12.75 320,-41.75"/>
<text text-anchor="start" x="195.75" y="-28.25" font-family="Helvetica,sans-Serif" font-size="10.00">BlobAnimation::ResumeAll</text>
<text text-anchor="middle" x="253.88" y="-17.75" font-family="Helvetica,sans-Serif" font-size="10.00">EventTracking</text>
</a>
</g>
</g>
<!-- Node1&#45;&gt;Node2 -->
<g id="edge1_Node000001_Node000002" class="edge">
<title>Node1&#45;&gt;Node2</title>
<g id="a_edge1_Node000001_Node000002"><a xlink:title=" ">
<path fill="none" stroke="#63b8ff" d="M152.03,-27.25C159.93,-27.25 167.99,-27.25 175.92,-27.25"/>
<polygon fill="#63b8ff" stroke="#63b8ff" points="175.9,-30.75 185.9,-27.25 175.9,-23.75 175.9,-30.75"/>
</a>
</g>
</g>
<!-- Node3 -->
<g id="Node000003" class="node">
<title>Node3</title>
<g id="a_Node000003"><a xlink:href="classBlobAnimation.html#a2b520d867895a9631aaa1a88e64ada61" target="_top" xlink:title="Initializes the blob&#39;s state (control points, target points, velocity, center) based on current param...">
<polygon fill="white" stroke="#666666" points="500.25,-55.5 360.5,-55.5 360.5,-37 500.25,-37 500.25,-55.5"/>
<text text-anchor="middle" x="430.38" y="-42" font-family="Helvetica,sans-Serif" font-size="10.00">BlobAnimation::InitializeBlob</text>
</a>
</g>
</g>
<!-- Node2&#45;&gt;Node3 -->
<g id="edge2_Node000002_Node000003" class="edge">
<title>Node2&#45;&gt;Node3</title>
<g id="a_edge2_Node000002_Node000003"><a xlink:title=" ">
<path fill="none" stroke="#63b8ff" d="M320.35,-34.38C329.66,-35.39 339.33,-36.45 348.89,-37.49"/>
<polygon fill="#63b8ff" stroke="#63b8ff" points="348.21,-40.93 358.53,-38.54 348.97,-33.97 348.21,-40.93"/>
</a>
</g>
</g>
<!-- Node5 -->
<g id="Node000005" class="node">
<title>Node5</title>
<g id="a_Node000005"><a xlink:href="classBlobAnimation.html#a90940f8b5f62d348952264e233b2aafb" target="_top" xlink:title="Switches the blob&#39;s current animation state (Idle, Moving, Resizing). Updates the current_blob_state_...">
<polygon fill="white" stroke="#666666" points="504.75,-18.5 356,-18.5 356,0 504.75,0 504.75,-18.5"/>
<text text-anchor="middle" x="430.38" y="-5" font-family="Helvetica,sans-Serif" font-size="10.00">BlobAnimation::SwitchToState</text>
</a>
</g>
</g>
<!-- Node2&#45;&gt;Node5 -->
<g id="edge4_Node000002_Node000005" class="edge">
<title>Node2&#45;&gt;Node5</title>
<g id="a_edge4_Node000002_Node000005"><a xlink:title=" ">
<path fill="none" stroke="#63b8ff" d="M320.35,-20.5C328.17,-19.69 336.24,-18.86 344.29,-18.03"/>
<polygon fill="#63b8ff" stroke="#63b8ff" points="344.53,-21.52 354.12,-17.01 343.81,-14.56 344.53,-21.52"/>
</a>
</g>
</g>
<!-- Node4 -->
<g id="Node000004" class="node">
<title>Node4</title>
<g id="a_Node000004"><a xlink:href="classBlobAnimation.html#a152a62b2db9d731d14939708a4a8496a" target="_top" xlink:title="Generates a set of points forming an organic, blob&#45;like shape around a center point....">
<polygon fill="white" stroke="#666666" points="699.25,-60.75 540.75,-60.75 540.75,-31.75 699.25,-31.75 699.25,-60.75"/>
<text text-anchor="start" x="548.75" y="-47.25" font-family="Helvetica,sans-Serif" font-size="10.00">BlobAnimation::GenerateOrganic</text>
<text text-anchor="middle" x="620" y="-36.75" font-family="Helvetica,sans-Serif" font-size="10.00">Shape</text>
</a>
</g>
</g>
<!-- Node3&#45;&gt;Node4 -->
<g id="edge3_Node000003_Node000004" class="edge">
<title>Node3&#45;&gt;Node4</title>
<g id="a_edge3_Node000003_Node000004"><a xlink:title=" ">
<path fill="none" stroke="#63b8ff" d="M500.71,-46.25C510.01,-46.25 519.66,-46.25 529.25,-46.25"/>
<polygon fill="#63b8ff" stroke="#63b8ff" points="528.95,-49.75 538.95,-46.25 528.95,-42.75 528.95,-49.75"/>
</a>
</g>
</g>
</g>
</svg>
