<?xml version="1.0" encoding="UTF-8" standalone="no"?>
<!DOCTYPE svg PUBLIC "-//W3C//DTD SVG 1.1//EN"
 "http://www.w3.org/Graphics/SVG/1.1/DTD/svg11.dtd">
<!-- Generated by graphviz version 12.2.1 (0)
 -->
<!-- Title: AppearanceSettingsWidget::SetupUi Pages: 1 -->
<svg width="484pt" height="413pt"
 viewBox="0.00 0.00 483.50 413.00" xmlns="http://www.w3.org/2000/svg" xmlns:xlink="http://www.w3.org/1999/xlink">
<g id="graph0" class="graph" transform="scale(1 1) rotate(0) translate(4 409)">
<title>AppearanceSettingsWidget::SetupUi</title>
<!-- Node1 -->
<g id="Node000001" class="node">
<title>Node1</title>
<g id="a_Node000001"><a xlink:title="Creates and arranges all the UI elements (labels, previews, spin boxes, layouts) for the widget.">
<polygon fill="#999999" stroke="#666666" points="134.5,-217 0,-217 0,-188 134.5,-188 134.5,-217"/>
<text text-anchor="start" x="8" y="-203.5" font-family="Helvetica,sans-Serif" font-size="10.00">AppearanceSettingsWidget</text>
<text text-anchor="middle" x="67.25" y="-193" font-family="Helvetica,sans-Serif" font-size="10.00">::SetupUi</text>
</a>
</g>
</g>
<!-- Node2 -->
<g id="Node000002" class="node">
<title>Node2</title>
<g id="a_Node000002"><a xlink:href="classAppearanceSettingsWidget.html#a4550e9feb1a4020d3dd2b0ca8d134e12" target="_top" xlink:title="Opens a QColorDialog to allow the user to select the background color. Updates the local preview and ...">
<polygon fill="white" stroke="#666666" points="305,-405 170.5,-405 170.5,-376 305,-376 305,-405"/>
<text text-anchor="start" x="178.5" y="-391.5" font-family="Helvetica,sans-Serif" font-size="10.00">AppearanceSettingsWidget</text>
<text text-anchor="middle" x="237.75" y="-381" font-family="Helvetica,sans-Serif" font-size="10.00">::ChooseBackgroundColor</text>
</a>
</g>
</g>
<!-- Node1&#45;&gt;Node2 -->
<g id="edge1_Node000001_Node000002" class="edge">
<title>Node1&#45;&gt;Node2</title>
<g id="a_edge1_Node000001_Node000002"><a xlink:title=" ">
<path fill="none" stroke="#63b8ff" d="M73.41,-217.16C85.4,-249.13 118.15,-325.59 170.5,-367.5 171.45,-368.26 172.43,-369 173.43,-369.71"/>
<polygon fill="#63b8ff" stroke="#63b8ff" points="171.31,-372.52 181.67,-374.72 174.95,-366.54 171.31,-372.52"/>
</a>
</g>
</g>
<!-- Node4 -->
<g id="Node000004" class="node">
<title>Node4</title>
<g id="a_Node000004"><a xlink:href="classAppearanceSettingsWidget.html#a6a93e091e4ab3f12c05e04ca4ae5c6cd" target="_top" xlink:title="Opens a QColorDialog to allow the user to select the blob color. Updates the local preview and immedi...">
<polygon fill="white" stroke="#666666" points="305,-358 170.5,-358 170.5,-329 305,-329 305,-358"/>
<text text-anchor="start" x="178.5" y="-344.5" font-family="Helvetica,sans-Serif" font-size="10.00">AppearanceSettingsWidget</text>
<text text-anchor="middle" x="237.75" y="-334" font-family="Helvetica,sans-Serif" font-size="10.00">::ChooseBlobColor</text>
</a>
</g>
</g>
<!-- Node1&#45;&gt;Node4 -->
<g id="edge3_Node000001_Node000004" class="edge">
<title>Node1&#45;&gt;Node4</title>
<g id="a_edge3_Node000001_Node000004"><a xlink:title=" ">
<path fill="none" stroke="#63b8ff" d="M77.38,-217.4C93.32,-242.21 128.53,-292.07 170.5,-320.5 172.06,-321.56 173.67,-322.57 175.33,-323.54"/>
<polygon fill="#63b8ff" stroke="#63b8ff" points="173.33,-326.45 183.82,-327.95 176.56,-320.24 173.33,-326.45"/>
</a>
</g>
</g>
<!-- Node5 -->
<g id="Node000005" class="node">
<title>Node5</title>
<g id="a_Node000005"><a xlink:href="classAppearanceSettingsWidget.html#aa59b5dc13a7abfda4bd28c6aa4f939bb" target="_top" xlink:title="Opens a QColorDialog to allow the user to select the grid color. Updates the local preview and immedi...">
<polygon fill="white" stroke="#666666" points="305,-311 170.5,-311 170.5,-282 305,-282 305,-311"/>
<text text-anchor="start" x="178.5" y="-297.5" font-family="Helvetica,sans-Serif" font-size="10.00">AppearanceSettingsWidget</text>
<text text-anchor="middle" x="237.75" y="-287" font-family="Helvetica,sans-Serif" font-size="10.00">::ChooseGridColor</text>
</a>
</g>
</g>
<!-- Node1&#45;&gt;Node5 -->
<g id="edge5_Node000001_Node000005" class="edge">
<title>Node1&#45;&gt;Node5</title>
<g id="a_edge5_Node000001_Node000005"><a xlink:title=" ">
<path fill="none" stroke="#63b8ff" d="M86.5,-217.48C106.23,-233.11 139.1,-257.53 170.5,-273.5 173.02,-274.78 175.62,-276.02 178.28,-277.21"/>
<polygon fill="#63b8ff" stroke="#63b8ff" points="176.72,-280.35 187.3,-280.98 179.42,-273.89 176.72,-280.35"/>
</a>
</g>
</g>
<!-- Node6 -->
<g id="Node000006" class="node">
<title>Node6</title>
<g id="a_Node000006"><a xlink:href="classAppearanceSettingsWidget.html#aa562ee5bd248d8f1a161c21aaaf3d93c" target="_top" xlink:title="Opens a QColorDialog to allow the user to select the stream color. Updates the local preview and imme...">
<polygon fill="white" stroke="#666666" points="305,-264 170.5,-264 170.5,-235 305,-235 305,-264"/>
<text text-anchor="start" x="178.5" y="-250.5" font-family="Helvetica,sans-Serif" font-size="10.00">AppearanceSettingsWidget</text>
<text text-anchor="middle" x="237.75" y="-240" font-family="Helvetica,sans-Serif" font-size="10.00">::ChooseStreamColor</text>
</a>
</g>
</g>
<!-- Node1&#45;&gt;Node6 -->
<g id="edge7_Node000001_Node000006" class="edge">
<title>Node1&#45;&gt;Node6</title>
<g id="a_edge7_Node000001_Node000006"><a xlink:title=" ">
<path fill="none" stroke="#63b8ff" d="M121.56,-217.37C137.7,-221.87 155.59,-226.86 172.37,-231.54"/>
<polygon fill="#63b8ff" stroke="#63b8ff" points="171.17,-234.84 181.75,-234.16 173.05,-228.1 171.17,-234.84"/>
</a>
</g>
</g>
<!-- Node7 -->
<g id="Node000007" class="node">
<title>Node7</title>
<g id="a_Node000007"><a xlink:href="classAppearanceSettingsWidget.html#ac57ce626ae67684c72621e4a927c85e9" target="_top" xlink:title="Opens a QColorDialog to allow the user to select the title border color. Updates the local preview an...">
<polygon fill="white" stroke="#666666" points="305,-217 170.5,-217 170.5,-188 305,-188 305,-217"/>
<text text-anchor="start" x="178.5" y="-203.5" font-family="Helvetica,sans-Serif" font-size="10.00">AppearanceSettingsWidget</text>
<text text-anchor="middle" x="237.75" y="-193" font-family="Helvetica,sans-Serif" font-size="10.00">::ChooseTitleBorderColor</text>
</a>
</g>
</g>
<!-- Node1&#45;&gt;Node7 -->
<g id="edge9_Node000001_Node000007" class="edge">
<title>Node1&#45;&gt;Node7</title>
<g id="a_edge9_Node000001_Node000007"><a xlink:title=" ">
<path fill="none" stroke="#63b8ff" d="M134.85,-202.5C142.72,-202.5 150.82,-202.5 158.83,-202.5"/>
<polygon fill="#63b8ff" stroke="#63b8ff" points="158.57,-206 168.57,-202.5 158.57,-199 158.57,-206"/>
</a>
</g>
</g>
<!-- Node8 -->
<g id="Node000008" class="node">
<title>Node8</title>
<g id="a_Node000008"><a xlink:href="classAppearanceSettingsWidget.html#a215dad6034dfc20a10ab89d3f448e7f0" target="_top" xlink:title="Opens a QColorDialog to allow the user to select the title glow color. Updates the local preview and ...">
<polygon fill="white" stroke="#666666" points="305,-170 170.5,-170 170.5,-141 305,-141 305,-170"/>
<text text-anchor="start" x="178.5" y="-156.5" font-family="Helvetica,sans-Serif" font-size="10.00">AppearanceSettingsWidget</text>
<text text-anchor="middle" x="237.75" y="-146" font-family="Helvetica,sans-Serif" font-size="10.00">::ChooseTitleGlowColor</text>
</a>
</g>
</g>
<!-- Node1&#45;&gt;Node8 -->
<g id="edge11_Node000001_Node000008" class="edge">
<title>Node1&#45;&gt;Node8</title>
<g id="a_edge11_Node000001_Node000008"><a xlink:title=" ">
<path fill="none" stroke="#63b8ff" d="M121.56,-187.63C137.7,-183.13 155.59,-178.14 172.37,-173.46"/>
<polygon fill="#63b8ff" stroke="#63b8ff" points="173.05,-176.9 181.75,-170.84 171.17,-170.16 173.05,-176.9"/>
</a>
</g>
</g>
<!-- Node9 -->
<g id="Node000009" class="node">
<title>Node9</title>
<g id="a_Node000009"><a xlink:href="classAppearanceSettingsWidget.html#a25382da42c1f3225b9c5c0393e14d0d0" target="_top" xlink:title="Opens a QColorDialog to allow the user to select the title text color. Updates the local preview and ...">
<polygon fill="white" stroke="#666666" points="305,-123 170.5,-123 170.5,-94 305,-94 305,-123"/>
<text text-anchor="start" x="178.5" y="-109.5" font-family="Helvetica,sans-Serif" font-size="10.00">AppearanceSettingsWidget</text>
<text text-anchor="middle" x="237.75" y="-99" font-family="Helvetica,sans-Serif" font-size="10.00">::ChooseTitleTextColor</text>
</a>
</g>
</g>
<!-- Node1&#45;&gt;Node9 -->
<g id="edge13_Node000001_Node000009" class="edge">
<title>Node1&#45;&gt;Node9</title>
<g id="a_edge13_Node000001_Node000009"><a xlink:title=" ">
<path fill="none" stroke="#63b8ff" d="M86.94,-187.55C106.78,-172.21 139.49,-148.41 170.5,-132.5 173.71,-130.85 177.06,-129.27 180.48,-127.75"/>
<polygon fill="#63b8ff" stroke="#63b8ff" points="181.57,-131.08 189.45,-124 178.87,-124.63 181.57,-131.08"/>
</a>
</g>
</g>
<!-- Node10 -->
<g id="Node000010" class="node">
<title>Node10</title>
<g id="a_Node000010"><a xlink:href="classClickableColorPreview.html#aa0291a9c0f494c29b0e33219d81d5e2f" target="_top" xlink:title="Emitted when the widget is clicked with the left mouse button.">
<polygon fill="white" stroke="#666666" points="295.25,-76 180.25,-76 180.25,-47 295.25,-47 295.25,-76"/>
<text text-anchor="start" x="188.25" y="-62.5" font-family="Helvetica,sans-Serif" font-size="10.00">ClickableColorPreview</text>
<text text-anchor="middle" x="237.75" y="-52" font-family="Helvetica,sans-Serif" font-size="10.00">::clicked</text>
</a>
</g>
</g>
<!-- Node1&#45;&gt;Node10 -->
<g id="edge15_Node000001_Node000010" class="edge">
<title>Node1&#45;&gt;Node10</title>
<g id="a_edge15_Node000001_Node000010"><a xlink:title=" ">
<path fill="none" stroke="#63b8ff" d="M77.46,-187.79C93.5,-163.29 128.87,-113.99 170.5,-85.5 172.55,-84.1 174.69,-82.77 176.9,-81.5"/>
<polygon fill="#63b8ff" stroke="#63b8ff" points="178.23,-84.75 185.55,-77.09 175.05,-78.52 178.23,-84.75"/>
</a>
</g>
</g>
<!-- Node11 -->
<g id="Node000011" class="node">
<title>Node11</title>
<g id="a_Node000011"><a xlink:href="classAppearanceSettingsWidget.html#a75775949816a0c54f6238b4b194d9a41" target="_top" xlink:title="Slot triggered when the grid spacing spin box value changes. Immediately saves the new spacing value ...">
<polygon fill="white" stroke="#666666" points="305,-29 170.5,-29 170.5,0 305,0 305,-29"/>
<text text-anchor="start" x="178.5" y="-15.5" font-family="Helvetica,sans-Serif" font-size="10.00">AppearanceSettingsWidget</text>
<text text-anchor="middle" x="237.75" y="-5" font-family="Helvetica,sans-Serif" font-size="10.00">::GridSpacingChanged</text>
</a>
</g>
</g>
<!-- Node1&#45;&gt;Node11 -->
<g id="edge16_Node000001_Node000011" class="edge">
<title>Node1&#45;&gt;Node11</title>
<g id="a_edge16_Node000001_Node000011"><a xlink:title=" ">
<path fill="none" stroke="#63b8ff" d="M73.48,-187.98C85.6,-156.31 118.6,-80.51 170.5,-38.5 171.97,-37.31 173.51,-36.18 175.09,-35.09"/>
<polygon fill="#63b8ff" stroke="#63b8ff" points="176.49,-38.33 183.34,-30.25 172.94,-32.3 176.49,-38.33"/>
</a>
</g>
</g>
<!-- Node3 -->
<g id="Node000003" class="node">
<title>Node3</title>
<g id="a_Node000003"><a xlink:href="classAppearanceSettingsWidget.html#ade1faf2be357c3745ae918673356810d" target="_top" xlink:title="Static utility function to update the background color of a ClickableColorPreview widget.">
<polygon fill="white" stroke="#666666" points="475.5,-264 341,-264 341,-235 475.5,-235 475.5,-264"/>
<text text-anchor="start" x="349" y="-250.5" font-family="Helvetica,sans-Serif" font-size="10.00">AppearanceSettingsWidget</text>
<text text-anchor="middle" x="408.25" y="-240" font-family="Helvetica,sans-Serif" font-size="10.00">::UpdateColorPreview</text>
</a>
</g>
</g>
<!-- Node2&#45;&gt;Node3 -->
<g id="edge2_Node000002_Node000003" class="edge">
<title>Node2&#45;&gt;Node3</title>
<g id="a_edge2_Node000002_Node000003"><a xlink:title=" ">
<path fill="none" stroke="#63b8ff" d="M290.33,-375.65C295.48,-373.28 300.46,-370.57 305,-367.5 342.21,-342.29 374.12,-300.23 391.98,-273.73"/>
<polygon fill="#63b8ff" stroke="#63b8ff" points="394.71,-275.94 397.28,-265.66 388.86,-272.09 394.71,-275.94"/>
</a>
</g>
</g>
<!-- Node4&#45;&gt;Node3 -->
<g id="edge4_Node000004_Node000003" class="edge">
<title>Node4&#45;&gt;Node3</title>
<g id="a_edge4_Node000004_Node000003"><a xlink:title=" ">
<path fill="none" stroke="#63b8ff" d="M286.81,-328.57C293.04,-326.13 299.25,-323.43 305,-320.5 331.98,-306.77 360.05,-286.81 379.94,-271.55"/>
<polygon fill="#63b8ff" stroke="#63b8ff" points="382.08,-274.32 387.81,-265.41 377.77,-268.8 382.08,-274.32"/>
</a>
</g>
</g>
<!-- Node5&#45;&gt;Node3 -->
<g id="edge6_Node000005_Node000003" class="edge">
<title>Node5&#45;&gt;Node3</title>
<g id="a_edge6_Node000005_Node000003"><a xlink:title=" ">
<path fill="none" stroke="#63b8ff" d="M292.06,-281.63C308.2,-277.13 326.09,-272.14 342.87,-267.46"/>
<polygon fill="#63b8ff" stroke="#63b8ff" points="343.55,-270.9 352.25,-264.84 341.67,-264.16 343.55,-270.9"/>
</a>
</g>
</g>
<!-- Node6&#45;&gt;Node3 -->
<g id="edge8_Node000006_Node000003" class="edge">
<title>Node6&#45;&gt;Node3</title>
<g id="a_edge8_Node000006_Node000003"><a xlink:title=" ">
<path fill="none" stroke="#63b8ff" d="M305.35,-249.5C313.22,-249.5 321.32,-249.5 329.33,-249.5"/>
<polygon fill="#63b8ff" stroke="#63b8ff" points="329.07,-253 339.07,-249.5 329.07,-246 329.07,-253"/>
</a>
</g>
</g>
<!-- Node7&#45;&gt;Node3 -->
<g id="edge10_Node000007_Node000003" class="edge">
<title>Node7&#45;&gt;Node3</title>
<g id="a_edge10_Node000007_Node000003"><a xlink:title=" ">
<path fill="none" stroke="#63b8ff" d="M292.06,-217.37C308.2,-221.87 326.09,-226.86 342.87,-231.54"/>
<polygon fill="#63b8ff" stroke="#63b8ff" points="341.67,-234.84 352.25,-234.16 343.55,-228.1 341.67,-234.84"/>
</a>
</g>
</g>
<!-- Node8&#45;&gt;Node3 -->
<g id="edge12_Node000008_Node000003" class="edge">
<title>Node8&#45;&gt;Node3</title>
<g id="a_edge12_Node000008_Node000003"><a xlink:title=" ">
<path fill="none" stroke="#63b8ff" d="M284.66,-170.41C291.6,-173.16 298.58,-176.21 305,-179.5 331.65,-193.17 359.55,-212.67 379.47,-227.62"/>
<polygon fill="#63b8ff" stroke="#63b8ff" points="377.28,-230.36 387.35,-233.63 381.52,-224.79 377.28,-230.36"/>
</a>
</g>
</g>
<!-- Node9&#45;&gt;Node3 -->
<g id="edge14_Node000009_Node000003" class="edge">
<title>Node9&#45;&gt;Node3</title>
<g id="a_edge14_Node000009_Node000003"><a xlink:title=" ">
<path fill="none" stroke="#63b8ff" d="M288.6,-123.4C294.35,-126.03 299.95,-129.05 305,-132.5 341.92,-157.76 373.91,-199.38 391.87,-225.57"/>
<polygon fill="#63b8ff" stroke="#63b8ff" points="388.73,-227.18 397.2,-233.53 394.54,-223.28 388.73,-227.18"/>
</a>
</g>
</g>
</g>
</svg>
