<?xml version="1.0" encoding="UTF-8" standalone="no"?>
<!DOCTYPE svg PUBLIC "-//W3C//DTD SVG 1.1//EN"
 "http://www.w3.org/Graphics/SVG/1.1/DTD/svg11.dtd">
<!-- Generated by graphviz version 12.2.1 (0)
 -->
<!-- Title: TypingTestLayer::UpdateDisplayText Pages: 1 -->
<svg width="558pt" height="101pt"
 viewBox="0.00 0.00 557.75 100.50" xmlns="http://www.w3.org/2000/svg" xmlns:xlink="http://www.w3.org/1999/xlink">
<g id="graph0" class="graph" transform="scale(1 1) rotate(0) translate(4 96.5)">
<title>TypingTestLayer::UpdateDisplayText</title>
<!-- Node1 -->
<g id="Node000001" class="node">
<title>Node1</title>
<g id="a_Node000001"><a xlink:title="Updates the display_text_label_ with formatted rich text. Highlights correctly typed characters in gr...">
<polygon fill="#999999" stroke="#666666" points="549.75,-55.5 374,-55.5 374,-37 549.75,-37 549.75,-55.5"/>
<text text-anchor="middle" x="461.88" y="-42" font-family="Helvetica,sans-Serif" font-size="10.00">TypingTestLayer::UpdateDisplayText</text>
</a>
</g>
</g>
<!-- Node2 -->
<g id="Node000002" class="node">
<title>Node2</title>
<g id="a_Node000002"><a xlink:href="classTypingTestLayer.html#ac3e556568f03d6283a4749ea641d8354" target="_top" xlink:title="Slot called when the text in the hidden_input_ field changes. Validates the entered text against the ...">
<polygon fill="white" stroke="#666666" points="338,-92.5 175.75,-92.5 175.75,-74 338,-74 338,-92.5"/>
<text text-anchor="middle" x="256.88" y="-79" font-family="Helvetica,sans-Serif" font-size="10.00">TypingTestLayer::OnTextChanged</text>
</a>
</g>
</g>
<!-- Node1&#45;&gt;Node2 -->
<g id="edge1_Node000001_Node000002" class="edge">
<title>Node1&#45;&gt;Node2</title>
<g id="a_edge1_Node000001_Node000002"><a xlink:title=" ">
<path fill="none" stroke="#63b8ff" d="M396.45,-57.99C368.99,-63 337.33,-68.77 311.21,-73.53"/>
<polygon fill="#63b8ff" stroke="#63b8ff" points="396.84,-61.48 406.05,-56.24 395.58,-54.59 396.84,-61.48"/>
</a>
</g>
</g>
<!-- Node3 -->
<g id="Node000003" class="node">
<title>Node3</title>
<g id="a_Node000003"><a xlink:href="classTypingTestLayer.html#a0e7b55d536094d7b8eb20c03d8662a85" target="_top" xlink:title="Constructs a TypingTestLayer. Initializes the UI elements (title, instructions, text display panel,...">
<polygon fill="white" stroke="#666666" points="139.75,-81.75 0,-81.75 0,-52.75 139.75,-52.75 139.75,-81.75"/>
<text text-anchor="start" x="8" y="-68.25" font-family="Helvetica,sans-Serif" font-size="10.00">TypingTestLayer::TypingTest</text>
<text text-anchor="middle" x="69.88" y="-57.75" font-family="Helvetica,sans-Serif" font-size="10.00">Layer</text>
</a>
</g>
</g>
<!-- Node1&#45;&gt;Node3 -->
<g id="edge5_Node000001_Node000003" class="edge">
<title>Node1&#45;&gt;Node3</title>
<g id="a_edge5_Node000001_Node000003"><a xlink:title=" ">
<path fill="none" stroke="#63b8ff" d="M362.46,-51.55C293.1,-55.28 201.93,-60.19 140.13,-63.52"/>
<polygon fill="#63b8ff" stroke="#63b8ff" points="362.53,-55.05 372.33,-51.02 362.15,-48.06 362.53,-55.05"/>
</a>
</g>
</g>
<!-- Node4 -->
<g id="Node000004" class="node">
<title>Node4</title>
<g id="a_Node000004"><a xlink:href="classTypingTestLayer.html#a1846a242255497456e13344d9e999bc0" target="_top" xlink:title="Resets the layer to its initial state. Clears the input field, resets progress tracking,...">
<polygon fill="white" stroke="#666666" points="315.88,-18.5 197.88,-18.5 197.88,0 315.88,0 315.88,-18.5"/>
<text text-anchor="middle" x="256.88" y="-5" font-family="Helvetica,sans-Serif" font-size="10.00">TypingTestLayer::Reset</text>
</a>
</g>
</g>
<!-- Node1&#45;&gt;Node4 -->
<g id="edge3_Node000001_Node000004" class="edge">
<title>Node1&#45;&gt;Node4</title>
<g id="a_edge3_Node000001_Node000004"><a xlink:title=" ">
<path fill="none" stroke="#63b8ff" d="M396.45,-34.51C368.99,-29.5 337.33,-23.73 311.21,-18.97"/>
<polygon fill="#63b8ff" stroke="#63b8ff" points="395.58,-37.91 406.05,-36.26 396.84,-31.02 395.58,-37.91"/>
</a>
</g>
</g>
<!-- Node2&#45;&gt;Node3 -->
<g id="edge2_Node000002_Node000003" class="edge">
<title>Node2&#45;&gt;Node3</title>
<g id="a_edge2_Node000002_Node000003"><a xlink:title=" ">
<path fill="none" stroke="#63b8ff" d="M163.99,-75.3C155.99,-74.61 147.98,-73.92 140.21,-73.25"/>
<polygon fill="#63b8ff" stroke="#63b8ff" points="163.5,-78.77 173.76,-76.15 164.1,-71.8 163.5,-78.77"/>
</a>
</g>
</g>
<!-- Node5 -->
<g id="Node000005" class="node">
<title>Node5</title>
<g id="a_Node000005"><a xlink:href="classTypingTestLayer.html#ade1f77e1a1710c34a0b06e9a35e3f96a" target="_top" xlink:title="Initializes the layer for display. Resets the layer state, sets focus on the hidden input field,...">
<polygon fill="white" stroke="#666666" points="133.75,-18.5 6,-18.5 6,0 133.75,0 133.75,-18.5"/>
<text text-anchor="middle" x="69.88" y="-5" font-family="Helvetica,sans-Serif" font-size="10.00">TypingTestLayer::Initialize</text>
</a>
</g>
</g>
<!-- Node4&#45;&gt;Node5 -->
<g id="edge4_Node000004_Node000005" class="edge">
<title>Node4&#45;&gt;Node5</title>
<g id="a_edge4_Node000004_Node000005"><a xlink:title=" ">
<path fill="none" stroke="#63b8ff" d="M186.47,-9.25C169.25,-9.25 150.89,-9.25 133.99,-9.25"/>
<polygon fill="#63b8ff" stroke="#63b8ff" points="186.08,-12.75 196.08,-9.25 186.08,-5.75 186.08,-12.75"/>
</a>
</g>
</g>
</g>
</svg>
