<?xml version="1.0" encoding="UTF-8" standalone="no"?>
<!DOCTYPE svg PUBLIC "-//W3C//DTD SVG 1.1//EN"
 "http://www.w3.org/Graphics/SVG/1.1/DTD/svg11.dtd">
<!-- Generated by graphviz version 12.2.1 (0)
 -->
<!-- Title: SettingsView::RestoreDefaults Pages: 1 -->
<svg width="346pt" height="74pt"
 viewBox="0.00 0.00 346.00 73.75" xmlns="http://www.w3.org/2000/svg" xmlns:xlink="http://www.w3.org/1999/xlink">
<g id="graph0" class="graph" transform="scale(1 1) rotate(0) translate(4 69.75)">
<title>SettingsView::RestoreDefaults</title>
<!-- Node1 -->
<g id="Node000001" class="node">
<title>Node1</title>
<g id="a_Node000001"><a xlink:title="Restores all settings across all tabs to their default values. Prompts the user for confirmation befo...">
<polygon fill="#999999" stroke="#666666" points="149.5,-39.5 0,-39.5 0,-21 149.5,-21 149.5,-39.5"/>
<text text-anchor="middle" x="74.75" y="-26" font-family="Helvetica,sans-Serif" font-size="10.00">SettingsView::RestoreDefaults</text>
</a>
</g>
</g>
<!-- Node2 -->
<g id="Node000002" class="node">
<title>Node2</title>
<g id="a_Node000002"><a xlink:href="classSettingsView.html#a23258b6c0cb0fc74537588ea6283b873" target="_top" xlink:title="Loads settings from the WavelengthConfig object into the UI elements of all tabs. Delegates loading t...">
<polygon fill="white" stroke="#666666" points="329.75,-65.75 193.75,-65.75 193.75,-36.75 329.75,-36.75 329.75,-65.75"/>
<text text-anchor="start" x="201.75" y="-52.25" font-family="Helvetica,sans-Serif" font-size="10.00">SettingsView::LoadSettings</text>
<text text-anchor="middle" x="261.75" y="-41.75" font-family="Helvetica,sans-Serif" font-size="10.00">FromRegistry</text>
</a>
</g>
</g>
<!-- Node1&#45;&gt;Node2 -->
<g id="edge1_Node000001_Node000002" class="edge">
<title>Node1&#45;&gt;Node2</title>
<g id="a_edge1_Node000001_Node000002"><a xlink:title=" ">
<path fill="none" stroke="#63b8ff" d="M149.93,-38.67C160.49,-39.87 171.38,-41.1 182.02,-42.31"/>
<polygon fill="#63b8ff" stroke="#63b8ff" points="181.6,-45.79 191.93,-43.44 182.39,-38.83 181.6,-45.79"/>
</a>
</g>
</g>
<!-- Node3 -->
<g id="Node000003" class="node">
<title>Node3</title>
<g id="a_Node000003"><a xlink:href="classSettingsView.html#ae9abfe25abeea5fa897efdf85e9a4cab" target="_top" xlink:title="Emitted when settings are saved or restored to defaults, indicating that other parts of the applicati...">
<polygon fill="white" stroke="#666666" points="338,-18.5 185.5,-18.5 185.5,0 338,0 338,-18.5"/>
<text text-anchor="middle" x="261.75" y="-5" font-family="Helvetica,sans-Serif" font-size="10.00">SettingsView::settingsChanged</text>
</a>
</g>
</g>
<!-- Node1&#45;&gt;Node3 -->
<g id="edge2_Node000001_Node000003" class="edge">
<title>Node1&#45;&gt;Node3</title>
<g id="a_edge2_Node000001_Node000003"><a xlink:title=" ">
<path fill="none" stroke="#63b8ff" d="M149.93,-21.83C157.79,-20.94 165.83,-20.02 173.81,-19.12"/>
<polygon fill="#63b8ff" stroke="#63b8ff" points="174,-22.62 183.54,-18.01 173.21,-15.66 174,-22.62"/>
</a>
</g>
</g>
</g>
</svg>
