<?xml version="1.0" encoding="UTF-8" standalone="no"?>
<!DOCTYPE svg PUBLIC "-//W3C//DTD SVG 1.1//EN"
 "http://www.w3.org/Graphics/SVG/1.1/DTD/svg11.dtd">
<!-- Generated by graphviz version 12.2.1 (0)
 -->
<!-- Title: AttachmentPlaceholder::onLoadButtonClicked Pages: 1 -->
<svg width="468pt" height="241pt"
 viewBox="0.00 0.00 467.75 240.75" xmlns="http://www.w3.org/2000/svg" xmlns:xlink="http://www.w3.org/1999/xlink">
<g id="graph0" class="graph" transform="scale(1 1) rotate(0) translate(4 236.75)">
<title>AttachmentPlaceholder::onLoadButtonClicked</title>
<!-- Node1 -->
<g id="Node000001" class="node">
<title>Node1</title>
<g id="a_Node000001"><a xlink:title="Slot triggered when the load/retry button is clicked or automatically after initialization....">
<polygon fill="#999999" stroke="#666666" points="117.25,-123 0,-123 0,-94 117.25,-94 117.25,-123"/>
<text text-anchor="start" x="8" y="-109.5" font-family="Helvetica,sans-Serif" font-size="10.00">AttachmentPlaceholder</text>
<text text-anchor="middle" x="58.62" y="-99" font-family="Helvetica,sans-Serif" font-size="10.00">::onLoadButtonClicked</text>
</a>
</g>
</g>
<!-- Node2 -->
<g id="Node000002" class="node">
<title>Node2</title>
<g id="a_Node000002"><a xlink:href="classAttachmentQueueManager.html#a9fc5b79cd8dd31a11ff60fedf183f5d2" target="_top" xlink:title="Adds a new task (represented by a std::function) to the execution queue. Creates an AttachmentTask wr...">
<polygon fill="white" stroke="#666666" points="285.5,-217 153.25,-217 153.25,-188 285.5,-188 285.5,-217"/>
<text text-anchor="start" x="161.25" y="-203.5" font-family="Helvetica,sans-Serif" font-size="10.00">AttachmentQueueManager</text>
<text text-anchor="middle" x="219.38" y="-193" font-family="Helvetica,sans-Serif" font-size="10.00">::AddTask</text>
</a>
</g>
</g>
<!-- Node1&#45;&gt;Node2 -->
<g id="edge1_Node000001_Node000002" class="edge">
<title>Node1&#45;&gt;Node2</title>
<g id="a_edge1_Node000001_Node000002"><a xlink:title=" ">
<path fill="none" stroke="#63b8ff" d="M75.8,-123.27C93.66,-138.96 123.8,-163.63 153.25,-179.5 155.48,-180.7 157.79,-181.86 160.14,-182.98"/>
<polygon fill="#63b8ff" stroke="#63b8ff" points="158.73,-186.18 169.29,-186.99 161.54,-179.77 158.73,-186.18"/>
</a>
</g>
</g>
<!-- Node5 -->
<g id="Node000005" class="node">
<title>Node5</title>
<g id="a_Node000005"><a xlink:href="classAttachmentDataStore.html#adf293df4b2c07531b27478a958bc573d" target="_top" xlink:title="Retrieves the base64&#45;encoded attachment data associated with a given ID. This operation is thread&#45;saf...">
<polygon fill="white" stroke="#666666" points="274.25,-170 164.5,-170 164.5,-141 274.25,-141 274.25,-170"/>
<text text-anchor="start" x="172.5" y="-156.5" font-family="Helvetica,sans-Serif" font-size="10.00">AttachmentDataStore</text>
<text text-anchor="middle" x="219.38" y="-146" font-family="Helvetica,sans-Serif" font-size="10.00">::GetAttachmentData</text>
</a>
</g>
</g>
<!-- Node1&#45;&gt;Node5 -->
<g id="edge4_Node000001_Node000005" class="edge">
<title>Node1&#45;&gt;Node5</title>
<g id="a_edge4_Node000001_Node000005"><a xlink:title=" ">
<path fill="none" stroke="#63b8ff" d="M109.85,-123.37C124.91,-127.83 141.59,-132.77 157.27,-137.41"/>
<polygon fill="#63b8ff" stroke="#63b8ff" points="155.89,-140.65 166.48,-140.13 157.88,-133.94 155.89,-140.65"/>
</a>
</g>
</g>
<!-- Node6 -->
<g id="Node000006" class="node">
<title>Node6</title>
<g id="a_Node000006"><a xlink:href="classAttachmentDataStore.html#a954fe97d063ada489bb0b29ad4f4f4e0" target="_top" xlink:title="Gets the singleton instance of the AttachmentDataStore.">
<polygon fill="white" stroke="#666666" points="274.25,-123 164.5,-123 164.5,-94 274.25,-94 274.25,-123"/>
<text text-anchor="start" x="172.5" y="-109.5" font-family="Helvetica,sans-Serif" font-size="10.00">AttachmentDataStore</text>
<text text-anchor="middle" x="219.38" y="-99" font-family="Helvetica,sans-Serif" font-size="10.00">::GetInstance</text>
</a>
</g>
</g>
<!-- Node1&#45;&gt;Node6 -->
<g id="edge5_Node000001_Node000006" class="edge">
<title>Node1&#45;&gt;Node6</title>
<g id="a_edge5_Node000001_Node000006"><a xlink:title=" ">
<path fill="none" stroke="#63b8ff" d="M117.39,-108.5C128.82,-108.5 140.91,-108.5 152.59,-108.5"/>
<polygon fill="#63b8ff" stroke="#63b8ff" points="152.58,-112 162.58,-108.5 152.58,-105 152.58,-112"/>
</a>
</g>
</g>
<!-- Node8 -->
<g id="Node000008" class="node">
<title>Node8</title>
<g id="a_Node000008"><a xlink:href="classAttachmentQueueManager.html#ad4882521922da9692f3ff5734761e230" target="_top" xlink:title="Gets the singleton instance of the AttachmentQueueManager.">
<polygon fill="white" stroke="#666666" points="285.5,-76 153.25,-76 153.25,-47 285.5,-47 285.5,-76"/>
<text text-anchor="start" x="161.25" y="-62.5" font-family="Helvetica,sans-Serif" font-size="10.00">AttachmentQueueManager</text>
<text text-anchor="middle" x="219.38" y="-52" font-family="Helvetica,sans-Serif" font-size="10.00">::GetInstance</text>
</a>
</g>
</g>
<!-- Node1&#45;&gt;Node8 -->
<g id="edge7_Node000001_Node000008" class="edge">
<title>Node1&#45;&gt;Node8</title>
<g id="a_edge7_Node000001_Node000008"><a xlink:title=" ">
<path fill="none" stroke="#63b8ff" d="M109.85,-93.63C124.91,-89.17 141.59,-84.23 157.27,-79.59"/>
<polygon fill="#63b8ff" stroke="#63b8ff" points="157.88,-83.06 166.48,-76.87 155.89,-76.35 157.88,-83.06"/>
</a>
</g>
</g>
<!-- Node10 -->
<g id="Node000010" class="node">
<title>Node10</title>
<g id="a_Node000010"><a xlink:href="classAttachmentPlaceholder.html#a77ebd2ac2acb0920388709f2d6d1c1ec" target="_top" xlink:title="Updates the UI elements to reflect the loading state. Disables/enables the load button and shows/hide...">
<polygon fill="white" stroke="#666666" points="278,-29 160.75,-29 160.75,0 278,0 278,-29"/>
<text text-anchor="start" x="168.75" y="-15.5" font-family="Helvetica,sans-Serif" font-size="10.00">AttachmentPlaceholder</text>
<text text-anchor="middle" x="219.38" y="-5" font-family="Helvetica,sans-Serif" font-size="10.00">::SetLoading</text>
</a>
</g>
</g>
<!-- Node1&#45;&gt;Node10 -->
<g id="edge9_Node000001_Node000010" class="edge">
<title>Node1&#45;&gt;Node10</title>
<g id="a_edge9_Node000001_Node000010"><a xlink:title=" ">
<path fill="none" stroke="#63b8ff" d="M76.21,-93.75C94.17,-78.35 124.18,-54.29 153.25,-38.5 156.22,-36.88 159.33,-35.33 162.5,-33.85"/>
<polygon fill="#63b8ff" stroke="#63b8ff" points="163.63,-37.18 171.4,-29.98 160.83,-30.77 163.63,-37.18"/>
</a>
</g>
</g>
<!-- Node3 -->
<g id="Node000003" class="node">
<title>Node3</title>
<g id="a_Node000003"><a xlink:href="classAttachmentTask.html#a08ea014777b2a92f1863c8bca688e0e9" target="_top" xlink:title="Emitted after the task function (TaskFunc_) has finished executing.">
<polygon fill="white" stroke="#666666" points="453.75,-232.75 327.5,-232.75 327.5,-214.25 453.75,-214.25 453.75,-232.75"/>
<text text-anchor="middle" x="390.62" y="-219.25" font-family="Helvetica,sans-Serif" font-size="10.00">AttachmentTask::finished</text>
</a>
</g>
</g>
<!-- Node2&#45;&gt;Node3 -->
<g id="edge2_Node000002_Node000003" class="edge">
<title>Node2&#45;&gt;Node3</title>
<g id="a_edge2_Node000002_Node000003"><a xlink:title=" ">
<path fill="none" stroke="#63b8ff" d="M285.81,-210.62C295.68,-211.84 305.91,-213.11 315.94,-214.36"/>
<polygon fill="#63b8ff" stroke="#63b8ff" points="315.28,-217.8 325.64,-215.56 316.15,-210.86 315.28,-217.8"/>
</a>
</g>
</g>
<!-- Node4 -->
<g id="Node000004" class="node">
<title>Node4</title>
<g id="a_Node000004"><a xlink:href="classAttachmentQueueManager.html#aab8e65b34981358a309208cf2118febe" target="_top" xlink:title="Processes the task queue, starting new tasks if slots are available. Checks if the number of active t...">
<polygon fill="white" stroke="#666666" points="456.75,-196 324.5,-196 324.5,-167 456.75,-167 456.75,-196"/>
<text text-anchor="start" x="332.5" y="-182.5" font-family="Helvetica,sans-Serif" font-size="10.00">AttachmentQueueManager</text>
<text text-anchor="middle" x="390.62" y="-172" font-family="Helvetica,sans-Serif" font-size="10.00">::ProcessQueue</text>
</a>
</g>
</g>
<!-- Node2&#45;&gt;Node4 -->
<g id="edge3_Node000002_Node000004" class="edge">
<title>Node2&#45;&gt;Node4</title>
<g id="a_edge3_Node000002_Node000004"><a xlink:title=" ">
<path fill="none" stroke="#63b8ff" d="M285.81,-194.38C294.64,-193.29 303.77,-192.15 312.77,-191.04"/>
<polygon fill="#63b8ff" stroke="#63b8ff" points="313.09,-194.52 322.58,-189.82 312.23,-187.58 313.09,-194.52"/>
</a>
</g>
</g>
<!-- Node7 -->
<g id="Node000007" class="node">
<title>Node7</title>
<g id="a_Node000007"><a xlink:href="classAttachmentDataStore.html#a8eaf2333a11d901e4d62a0a7c9f4c2c4" target="_top" xlink:title="Private default constructor to enforce the singleton pattern.">
<polygon fill="white" stroke="#666666" points="448.5,-123 332.75,-123 332.75,-94 448.5,-94 448.5,-123"/>
<text text-anchor="start" x="340.75" y="-109.5" font-family="Helvetica,sans-Serif" font-size="10.00">AttachmentDataStore</text>
<text text-anchor="middle" x="390.62" y="-99" font-family="Helvetica,sans-Serif" font-size="10.00">::AttachmentDataStore</text>
</a>
</g>
</g>
<!-- Node6&#45;&gt;Node7 -->
<g id="edge6_Node000006_Node000007" class="edge">
<title>Node6&#45;&gt;Node7</title>
<g id="a_edge6_Node000006_Node000007"><a xlink:title=" ">
<path fill="none" stroke="#63b8ff" d="M274.39,-108.5C289.26,-108.5 305.59,-108.5 321.16,-108.5"/>
<polygon fill="#63b8ff" stroke="#63b8ff" points="320.81,-112 330.81,-108.5 320.81,-105 320.81,-112"/>
</a>
</g>
</g>
<!-- Node9 -->
<g id="Node000009" class="node">
<title>Node9</title>
<g id="a_Node000009"><a xlink:href="classAttachmentQueueManager.html#a7d8e4bb17b92bb0e390215015c269349" target="_top" xlink:title="Private constructor to enforce the singleton pattern. Determines the maximum number of concurrent tas...">
<polygon fill="white" stroke="#666666" points="459.75,-76 321.5,-76 321.5,-47 459.75,-47 459.75,-76"/>
<text text-anchor="start" x="329.5" y="-62.5" font-family="Helvetica,sans-Serif" font-size="10.00">AttachmentQueueManager</text>
<text text-anchor="middle" x="390.62" y="-52" font-family="Helvetica,sans-Serif" font-size="10.00">::AttachmentQueueManager</text>
</a>
</g>
</g>
<!-- Node8&#45;&gt;Node9 -->
<g id="edge8_Node000008_Node000009" class="edge">
<title>Node8&#45;&gt;Node9</title>
<g id="a_edge8_Node000008_Node000009"><a xlink:title=" ">
<path fill="none" stroke="#63b8ff" d="M285.81,-61.5C293.65,-61.5 301.72,-61.5 309.74,-61.5"/>
<polygon fill="#63b8ff" stroke="#63b8ff" points="309.49,-65 319.49,-61.5 309.49,-58 309.49,-65"/>
</a>
</g>
</g>
</g>
</svg>
