<?xml version="1.0" encoding="UTF-8" standalone="no"?>
<!DOCTYPE svg PUBLIC "-//W3C//DTD SVG 1.1//EN"
 "http://www.w3.org/Graphics/SVG/1.1/DTD/svg11.dtd">
<!-- Generated by graphviz version 12.2.1 (0)
 -->
<!-- Title: SessionCoordinator::SendMessage Pages: 1 -->
<svg width="704pt" height="398pt"
 viewBox="0.00 0.00 704.25 398.13" xmlns="http://www.w3.org/2000/svg" xmlns:xlink="http://www.w3.org/1999/xlink">
<g id="graph0" class="graph" transform="scale(1 1) rotate(0) translate(4 394.13)">
<title>SessionCoordinator::SendMessage</title>
<!-- Node1 -->
<g id="Node000001" class="node">
<title>Node1</title>
<g id="a_Node000001"><a xlink:title="Sends a text message to the currently active wavelength. Delegates the call to WavelengthMessageServi...">
<polygon fill="#999999" stroke="#666666" points="101.5,-215.38 0,-215.38 0,-186.38 101.5,-186.38 101.5,-215.38"/>
<text text-anchor="start" x="8" y="-201.88" font-family="Helvetica,sans-Serif" font-size="10.00">SessionCoordinator</text>
<text text-anchor="middle" x="50.75" y="-191.38" font-family="Helvetica,sans-Serif" font-size="10.00">::SendMessage</text>
</a>
</g>
</g>
<!-- Node2 -->
<g id="Node000002" class="node">
<title>Node2</title>
<g id="a_Node000002"><a xlink:href="classMessageService.html#a3d9355ae6f778ed4799141d921b6e7e4" target="_top" xlink:title="Gets the singleton instance of the MessageService.">
<polygon fill="white" stroke="#666666" points="286.25,-301.13 137.5,-301.13 137.5,-282.63 286.25,-282.63 286.25,-301.13"/>
<text text-anchor="middle" x="211.88" y="-287.63" font-family="Helvetica,sans-Serif" font-size="10.00">MessageService::GetInstance</text>
</a>
</g>
</g>
<!-- Node1&#45;&gt;Node2 -->
<g id="edge1_Node000001_Node000002" class="edge">
<title>Node1&#45;&gt;Node2</title>
<g id="a_edge1_Node000001_Node000002"><a xlink:title=" ">
<path fill="none" stroke="#63b8ff" d="M77.67,-215.7C107.13,-232.55 154.97,-259.91 184.58,-276.85"/>
<polygon fill="#63b8ff" stroke="#63b8ff" points="182.51,-279.69 192.93,-281.62 185.98,-273.61 182.51,-279.69"/>
</a>
</g>
</g>
<!-- Node4 -->
<g id="Node000004" class="node">
<title>Node4</title>
<g id="a_Node000004"><a xlink:href="classMessageService.html#ac1041f89fa4eed1b98556cc3f93c2077" target="_top" xlink:title="Sends a text message to the currently active frequency. Retrieves the active frequency and socket fro...">
<polygon fill="white" stroke="#666666" points="280.25,-194.38 143.5,-194.38 143.5,-165.38 280.25,-165.38 280.25,-194.38"/>
<text text-anchor="start" x="151.5" y="-180.88" font-family="Helvetica,sans-Serif" font-size="10.00">MessageService::SendText</text>
<text text-anchor="middle" x="211.88" y="-170.38" font-family="Helvetica,sans-Serif" font-size="10.00">Message</text>
</a>
</g>
</g>
<!-- Node1&#45;&gt;Node4 -->
<g id="edge4_Node000001_Node000004" class="edge">
<title>Node1&#45;&gt;Node4</title>
<g id="a_edge4_Node000001_Node000004"><a xlink:title=" ">
<path fill="none" stroke="#63b8ff" d="M101.66,-194.29C111.3,-193.02 121.62,-191.66 131.92,-190.3"/>
<polygon fill="#63b8ff" stroke="#63b8ff" points="132.1,-193.81 141.56,-189.03 131.19,-186.87 132.1,-193.81"/>
</a>
</g>
</g>
<!-- Node3 -->
<g id="Node000003" class="node">
<title>Node3</title>
<g id="a_Node000003"><a xlink:href="classMessageService.html#a2a6e9a079ac7a537b6342e1fb63a52dc" target="_top" xlink:title="Deleted copy constructor to prevent copying.">
<polygon fill="white" stroke="#666666" points="491.25,-372.13 322.25,-372.13 322.25,-353.63 491.25,-353.63 491.25,-372.13"/>
<text text-anchor="middle" x="406.75" y="-358.63" font-family="Helvetica,sans-Serif" font-size="10.00">MessageService::MessageService</text>
</a>
</g>
</g>
<!-- Node2&#45;&gt;Node3 -->
<g id="edge2_Node000002_Node000003" class="edge">
<title>Node2&#45;&gt;Node3</title>
<g id="a_edge2_Node000002_Node000003"><a xlink:title=" ">
<path fill="none" stroke="#63b8ff" d="M229.39,-301.44C250.36,-313.2 287.94,-333.06 322.25,-344.88 328.27,-346.95 334.62,-348.84 341.01,-350.54"/>
<polygon fill="#63b8ff" stroke="#63b8ff" points="339.76,-353.83 350.31,-352.86 341.45,-347.04 339.76,-353.83"/>
</a>
</g>
</g>
<!-- Node3&#45;&gt;Node3 -->
<g id="edge3_Node000003_Node000003" class="edge">
<title>Node3&#45;&gt;Node3</title>
<g id="a_edge3_Node000003_Node000003"><a xlink:title=" ">
<path fill="none" stroke="#63b8ff" d="M376.71,-372.38C362.1,-380.95 372.11,-390.13 406.75,-390.13 427.86,-390.13 439.82,-386.72 442.64,-382.12"/>
<polygon fill="#63b8ff" stroke="#63b8ff" points="445.72,-380.44 437.57,-373.67 439.71,-384.05 445.72,-380.44"/>
</a>
</g>
</g>
<!-- Node5 -->
<g id="Node000005" class="node">
<title>Node5</title>
<g id="a_Node000005"><a xlink:href="classAuthenticationManager.html#a746a91c33a014dad53ab34565fe5e64e" target="_top" xlink:title="Generates a unique client identifier.">
<polygon fill="white" stroke="#666666" points="464.62,-335.38 348.88,-335.38 348.88,-306.38 464.62,-306.38 464.62,-335.38"/>
<text text-anchor="start" x="356.88" y="-321.88" font-family="Helvetica,sans-Serif" font-size="10.00">AuthenticationManager</text>
<text text-anchor="middle" x="406.75" y="-311.38" font-family="Helvetica,sans-Serif" font-size="10.00">::GenerateClientId</text>
</a>
</g>
</g>
<!-- Node4&#45;&gt;Node5 -->
<g id="edge5_Node000004_Node000005" class="edge">
<title>Node4&#45;&gt;Node5</title>
<g id="a_edge5_Node000004_Node000005"><a xlink:title=" ">
<path fill="none" stroke="#63b8ff" d="M222.43,-194.66C239.42,-219.76 277.37,-270.61 322.25,-297.88 327.18,-300.88 332.51,-303.5 338.01,-305.78"/>
<polygon fill="#63b8ff" stroke="#63b8ff" points="336.72,-309.03 347.32,-309.24 339.16,-302.47 336.72,-309.03"/>
</a>
</g>
</g>
<!-- Node6 -->
<g id="Node000006" class="node">
<title>Node6</title>
<g id="a_Node000006"><a xlink:href="classMessageHandler.html#a0bd569db12a0dbcd30db0dc412691f0d" target="_top" xlink:title="Generates a unique message identifier using UUID.">
<polygon fill="white" stroke="#666666" points="474.38,-288.38 339.12,-288.38 339.12,-259.38 474.38,-259.38 474.38,-288.38"/>
<text text-anchor="start" x="347.12" y="-274.88" font-family="Helvetica,sans-Serif" font-size="10.00">MessageHandler::Generate</text>
<text text-anchor="middle" x="406.75" y="-264.38" font-family="Helvetica,sans-Serif" font-size="10.00">MessageId</text>
</a>
</g>
</g>
<!-- Node4&#45;&gt;Node6 -->
<g id="edge6_Node000004_Node000006" class="edge">
<title>Node4&#45;&gt;Node6</title>
<g id="a_edge6_Node000004_Node000006"><a xlink:title=" ">
<path fill="none" stroke="#63b8ff" d="M231.59,-194.61C252.59,-210.5 288.18,-235.57 322.25,-250.88 325.61,-252.39 329.09,-253.82 332.64,-255.18"/>
<polygon fill="#63b8ff" stroke="#63b8ff" points="331.42,-258.46 342.01,-258.5 333.76,-251.86 331.42,-258.46"/>
</a>
</g>
</g>
<!-- Node7 -->
<g id="Node000007" class="node">
<title>Node7</title>
<g id="a_Node000007"><a xlink:href="classWavelengthRegistry.html#a6ce8627bbb1db084bf76053aa92f9a47" target="_top" xlink:title="Gets the identifier of the currently active wavelength.">
<polygon fill="white" stroke="#666666" points="464.25,-241.38 349.25,-241.38 349.25,-212.38 464.25,-212.38 464.25,-241.38"/>
<text text-anchor="start" x="357.25" y="-227.88" font-family="Helvetica,sans-Serif" font-size="10.00">WavelengthRegistry</text>
<text text-anchor="middle" x="406.75" y="-217.38" font-family="Helvetica,sans-Serif" font-size="10.00">::GetActiveWavelength</text>
</a>
</g>
</g>
<!-- Node4&#45;&gt;Node7 -->
<g id="edge7_Node000004_Node000007" class="edge">
<title>Node4&#45;&gt;Node7</title>
<g id="a_edge7_Node000004_Node000007"><a xlink:title=" ">
<path fill="none" stroke="#63b8ff" d="M274.17,-194.82C294.46,-199.76 317.15,-205.29 337.9,-210.35"/>
<polygon fill="#63b8ff" stroke="#63b8ff" points="336.86,-213.7 347.41,-212.66 338.52,-206.9 336.86,-213.7"/>
</a>
</g>
</g>
<!-- Node8 -->
<g id="Node000008" class="node">
<title>Node8</title>
<g id="a_Node000008"><a xlink:href="classAuthenticationManager.html#abb3d14d1e380282208dbb4f533d129af" target="_top" xlink:title="Gets the singleton instance of the AuthenticationManager.">
<polygon fill="white" stroke="#666666" points="464.62,-194.38 348.88,-194.38 348.88,-165.38 464.62,-165.38 464.62,-194.38"/>
<text text-anchor="start" x="356.88" y="-180.88" font-family="Helvetica,sans-Serif" font-size="10.00">AuthenticationManager</text>
<text text-anchor="middle" x="406.75" y="-170.38" font-family="Helvetica,sans-Serif" font-size="10.00">::GetInstance</text>
</a>
</g>
</g>
<!-- Node4&#45;&gt;Node8 -->
<g id="edge8_Node000004_Node000008" class="edge">
<title>Node4&#45;&gt;Node8</title>
<g id="a_edge8_Node000004_Node000008"><a xlink:title=" ">
<path fill="none" stroke="#63b8ff" d="M280.6,-179.88C298.86,-179.88 318.62,-179.88 336.93,-179.88"/>
<polygon fill="#63b8ff" stroke="#63b8ff" points="336.9,-183.38 346.9,-179.88 336.9,-176.38 336.9,-183.38"/>
</a>
</g>
</g>
<!-- Node10 -->
<g id="Node000010" class="node">
<title>Node10</title>
<g id="a_Node000010"><a xlink:href="classMessageHandler.html#afa8afa05bb7b07783162bf420a91ac92" target="_top" xlink:title="Gets the singleton instance of the MessageHandler.">
<polygon fill="white" stroke="#666666" points="481.12,-147.13 332.38,-147.13 332.38,-128.63 481.12,-128.63 481.12,-147.13"/>
<text text-anchor="middle" x="406.75" y="-133.63" font-family="Helvetica,sans-Serif" font-size="10.00">MessageHandler::GetInstance</text>
</a>
</g>
</g>
<!-- Node4&#45;&gt;Node10 -->
<g id="edge10_Node000004_Node000010" class="edge">
<title>Node4&#45;&gt;Node10</title>
<g id="a_edge10_Node000004_Node000010"><a xlink:title=" ">
<path fill="none" stroke="#63b8ff" d="M280.6,-165.13C303.34,-160.18 328.42,-154.72 350.12,-149.99"/>
<polygon fill="#63b8ff" stroke="#63b8ff" points="350.63,-153.47 359.66,-147.92 349.14,-146.63 350.63,-153.47"/>
</a>
</g>
</g>
<!-- Node12 -->
<g id="Node000012" class="node">
<title>Node12</title>
<g id="a_Node000012"><a xlink:href="classWavelengthRegistry.html#a84a25c38915431306681e96df429f20f" target="_top" xlink:title="Gets the singleton instance of the WavelengthRegistry.">
<polygon fill="white" stroke="#666666" points="458.25,-110.38 355.25,-110.38 355.25,-81.38 458.25,-81.38 458.25,-110.38"/>
<text text-anchor="start" x="363.25" y="-96.88" font-family="Helvetica,sans-Serif" font-size="10.00">WavelengthRegistry</text>
<text text-anchor="middle" x="406.75" y="-86.38" font-family="Helvetica,sans-Serif" font-size="10.00">::GetInstance</text>
</a>
</g>
</g>
<!-- Node4&#45;&gt;Node12 -->
<g id="edge12_Node000004_Node000012" class="edge">
<title>Node4&#45;&gt;Node12</title>
<g id="a_edge12_Node000004_Node000012"><a xlink:title=" ">
<path fill="none" stroke="#63b8ff" d="M236.44,-164.95C258.1,-151.72 291.41,-132.59 322.25,-119.88 329.18,-117.02 336.57,-114.37 343.98,-111.95"/>
<polygon fill="#63b8ff" stroke="#63b8ff" points="344.85,-115.35 353.35,-109.03 342.76,-108.67 344.85,-115.35"/>
</a>
</g>
</g>
<!-- Node14 -->
<g id="Node000014" class="node">
<title>Node14</title>
<g id="a_Node000014"><a xlink:href="classWavelengthRegistry.html#a022bb5799d095b75026019791ebf5e34" target="_top" xlink:title="Retrieves the WavelengthInfo for a specific frequency.">
<polygon fill="white" stroke="#666666" points="459,-63.38 354.5,-63.38 354.5,-34.38 459,-34.38 459,-63.38"/>
<text text-anchor="start" x="362.5" y="-49.88" font-family="Helvetica,sans-Serif" font-size="10.00">WavelengthRegistry</text>
<text text-anchor="middle" x="406.75" y="-39.38" font-family="Helvetica,sans-Serif" font-size="10.00">::GetWavelengthInfo</text>
</a>
</g>
</g>
<!-- Node4&#45;&gt;Node14 -->
<g id="edge14_Node000004_Node000014" class="edge">
<title>Node4&#45;&gt;Node14</title>
<g id="a_edge14_Node000004_Node000014"><a xlink:title=" ">
<path fill="none" stroke="#63b8ff" d="M223.94,-165.09C241.99,-141.99 280.01,-97.47 322.25,-72.88 328.82,-69.06 336.04,-65.81 343.39,-63.06"/>
<polygon fill="#63b8ff" stroke="#63b8ff" points="344.44,-66.4 352.78,-59.86 342.19,-59.77 344.44,-66.4"/>
</a>
</g>
</g>
<!-- Node15 -->
<g id="Node000015" class="node">
<title>Node15</title>
<g id="a_Node000015"><a xlink:href="classWavelengthRegistry.html#a998a355d30053edcff8aac04c7d7dc55" target="_top" xlink:title="Checks if a wavelength with the given frequency exists in the registry.">
<polygon fill="white" stroke="#666666" points="663.25,-42.38 560.25,-42.38 560.25,-13.38 663.25,-13.38 663.25,-42.38"/>
<text text-anchor="start" x="568.25" y="-28.88" font-family="Helvetica,sans-Serif" font-size="10.00">WavelengthRegistry</text>
<text text-anchor="middle" x="611.75" y="-18.38" font-family="Helvetica,sans-Serif" font-size="10.00">::HasWavelength</text>
</a>
</g>
</g>
<!-- Node4&#45;&gt;Node15 -->
<g id="edge16_Node000004_Node000015" class="edge">
<title>Node4&#45;&gt;Node15</title>
<g id="a_edge16_Node000004_Node000015"><a xlink:title=" ">
<path fill="none" stroke="#63b8ff" d="M217.92,-165.32C230,-133.04 263.97,-55.97 322.25,-25.88 393.16,10.73 487.56,0.99 548.74,-11.58"/>
<polygon fill="#63b8ff" stroke="#63b8ff" points="547.77,-14.95 558.29,-13.63 549.25,-8.11 547.77,-14.95"/>
</a>
</g>
</g>
<!-- Node9 -->
<g id="Node000009" class="node">
<title>Node9</title>
<g id="a_Node000009"><a xlink:href="classAuthenticationManager.html#a3a24c8dc18303d4ad65c17aff6cdd705" target="_top" xlink:title="Private constructor to enforce the singleton pattern.">
<polygon fill="white" stroke="#666666" points="672.62,-194.38 550.88,-194.38 550.88,-165.38 672.62,-165.38 672.62,-194.38"/>
<text text-anchor="start" x="558.88" y="-180.88" font-family="Helvetica,sans-Serif" font-size="10.00">AuthenticationManager</text>
<text text-anchor="middle" x="611.75" y="-170.38" font-family="Helvetica,sans-Serif" font-size="10.00">::AuthenticationManager</text>
</a>
</g>
</g>
<!-- Node8&#45;&gt;Node9 -->
<g id="edge9_Node000008_Node000009" class="edge">
<title>Node8&#45;&gt;Node9</title>
<g id="a_edge9_Node000008_Node000009"><a xlink:title=" ">
<path fill="none" stroke="#63b8ff" d="M465.11,-179.88C488.18,-179.88 515.04,-179.88 539.36,-179.88"/>
<polygon fill="#63b8ff" stroke="#63b8ff" points="539.19,-183.38 549.19,-179.88 539.19,-176.38 539.19,-183.38"/>
</a>
</g>
</g>
<!-- Node11 -->
<g id="Node000011" class="node">
<title>Node11</title>
<g id="a_Node000011"><a xlink:href="classMessageHandler.html#ad3b43ca875118c1bafa19f354678cbec" target="_top" xlink:title="Private constructor to enforce the singleton pattern.">
<polygon fill="white" stroke="#666666" points="696.25,-147.13 527.25,-147.13 527.25,-128.63 696.25,-128.63 696.25,-147.13"/>
<text text-anchor="middle" x="611.75" y="-133.63" font-family="Helvetica,sans-Serif" font-size="10.00">MessageHandler::MessageHandler</text>
</a>
</g>
</g>
<!-- Node10&#45;&gt;Node11 -->
<g id="edge11_Node000010_Node000011" class="edge">
<title>Node10&#45;&gt;Node11</title>
<g id="a_edge11_Node000010_Node000011"><a xlink:title=" ">
<path fill="none" stroke="#63b8ff" d="M481.61,-137.88C492.66,-137.88 504.19,-137.88 515.61,-137.88"/>
<polygon fill="#63b8ff" stroke="#63b8ff" points="515.46,-141.38 525.46,-137.88 515.46,-134.38 515.46,-141.38"/>
</a>
</g>
</g>
<!-- Node13 -->
<g id="Node000013" class="node">
<title>Node13</title>
<g id="a_Node000013"><a xlink:href="classWavelengthRegistry.html#a5ad0b9c059e6c70af54fd27e35035e64" target="_top" xlink:title="Private constructor to enforce the singleton pattern. Initializes active_wavelength_ to &quot;&#45;1&quot;.">
<polygon fill="white" stroke="#666666" points="666.25,-110.38 557.25,-110.38 557.25,-81.38 666.25,-81.38 666.25,-110.38"/>
<text text-anchor="start" x="565.25" y="-96.88" font-family="Helvetica,sans-Serif" font-size="10.00">WavelengthRegistry</text>
<text text-anchor="middle" x="611.75" y="-86.38" font-family="Helvetica,sans-Serif" font-size="10.00">::WavelengthRegistry</text>
</a>
</g>
</g>
<!-- Node12&#45;&gt;Node13 -->
<g id="edge13_Node000012_Node000013" class="edge">
<title>Node12&#45;&gt;Node13</title>
<g id="a_edge13_Node000012_Node000013"><a xlink:title=" ">
<path fill="none" stroke="#63b8ff" d="M458.71,-95.88C485.04,-95.88 517.45,-95.88 545.57,-95.88"/>
<polygon fill="#63b8ff" stroke="#63b8ff" points="545.41,-99.38 555.41,-95.88 545.41,-92.38 545.41,-99.38"/>
</a>
</g>
</g>
<!-- Node14&#45;&gt;Node15 -->
<g id="edge15_Node000014_Node000015" class="edge">
<title>Node14&#45;&gt;Node15</title>
<g id="a_edge15_Node000014_Node000015"><a xlink:title=" ">
<path fill="none" stroke="#63b8ff" d="M459.24,-43.56C486.51,-40.73 520.2,-37.25 548.89,-34.28"/>
<polygon fill="#63b8ff" stroke="#63b8ff" points="548.93,-37.8 558.51,-33.29 548.21,-30.83 548.93,-37.8"/>
</a>
</g>
</g>
</g>
</svg>
