<?xml version="1.0" encoding="UTF-8" standalone="no"?>
<!DOCTYPE svg PUBLIC "-//W3C//DTD SVG 1.1//EN"
 "http://www.w3.org/Graphics/SVG/1.1/DTD/svg11.dtd">
<!-- Generated by graphviz version 12.2.1 (0)
 -->
<!-- Title: ElectronicShutdownEffect Pages: 1 -->
<svg width="150pt" height="279pt"
 viewBox="0.00 0.00 149.75 278.50" xmlns="http://www.w3.org/2000/svg" xmlns:xlink="http://www.w3.org/1999/xlink">
<g id="graph0" class="graph" transform="scale(1 1) rotate(0) translate(4 274.5)">
<title>ElectronicShutdownEffect</title>
<!-- Node1 -->
<g id="Node000001" class="node">
<title>Node1</title>
<g id="a_Node000001"><a xlink:title="A QGraphicsEffect that simulates an old CRT monitor or electronic device shutting down.">
<polygon fill="#999999" stroke="none" points="141.75,-187 0,-187 0,0 141.75,0 141.75,-187"/>
<text text-anchor="start" x="14.62" y="-173.5" font-family="Helvetica,sans-Serif" font-size="10.00">ElectronicShutdownEffect</text>
<text text-anchor="start" x="4" y="-159" font-family="Helvetica,sans-Serif" font-size="10.00">+</text>
<text text-anchor="start" x="14" y="-159" font-family="Helvetica,sans-Serif" font-size="10.00">qreal progress</text>
<text text-anchor="start" x="5.5" y="-144.5" font-family="Helvetica,sans-Serif" font-size="10.00">&#45;</text>
<text text-anchor="start" x="14" y="-144.5" font-family="Helvetica,sans-Serif" font-size="10.00">qreal last_progress_</text>
<text text-anchor="start" x="5.5" y="-130" font-family="Helvetica,sans-Serif" font-size="10.00">&#45;</text>
<text text-anchor="start" x="14" y="-130" font-family="Helvetica,sans-Serif" font-size="10.00">qreal progress_</text>
<text text-anchor="start" x="5.5" y="-115.5" font-family="Helvetica,sans-Serif" font-size="10.00">&#45;</text>
<text text-anchor="start" x="14" y="-115.5" font-family="Helvetica,sans-Serif" font-size="10.00">QCache&lt; QString, QPixmap</text>
<text text-anchor="start" x="14" y="-105" font-family="Helvetica,sans-Serif" font-size="10.00"> &gt; result_cache_</text>
<text text-anchor="start" x="4" y="-90.5" font-family="Helvetica,sans-Serif" font-size="10.00">+</text>
<text text-anchor="start" x="14" y="-90.5" font-family="Helvetica,sans-Serif" font-size="10.00">ElectronicShutdownEffect</text>
<text text-anchor="start" x="14" y="-80" font-family="Helvetica,sans-Serif" font-size="10.00">(QObject *parent=nullptr)</text>
<text text-anchor="start" x="4" y="-65.5" font-family="Helvetica,sans-Serif" font-size="10.00">+</text>
<text text-anchor="start" x="14" y="-65.5" font-family="Helvetica,sans-Serif" font-size="10.00">qreal GetProgress()</text>
<text text-anchor="start" x="14" y="-55" font-family="Helvetica,sans-Serif" font-size="10.00"> const</text>
<text text-anchor="start" x="4" y="-40.5" font-family="Helvetica,sans-Serif" font-size="10.00">+</text>
<text text-anchor="start" x="14" y="-40.5" font-family="Helvetica,sans-Serif" font-size="10.00">void SetProgress(qreal</text>
<text text-anchor="start" x="14" y="-30" font-family="Helvetica,sans-Serif" font-size="10.00"> progress)</text>
<text text-anchor="start" x="4.38" y="-15.5" font-family="Helvetica,sans-Serif" font-size="10.00">#</text>
<text text-anchor="start" x="14" y="-15.5" font-family="Helvetica,sans-Serif" font-size="10.00">void draw(QPainter</text>
<text text-anchor="start" x="14" y="-5" font-family="Helvetica,sans-Serif" font-size="10.00"> *painter) override</text>
<polygon fill="#666666" stroke="#666666" points="0,-170.5 0,-170.5 141.75,-170.5 141.75,-170.5 0,-170.5"/>
<polygon fill="#666666" stroke="#666666" points="0,-102 0,-102 12,-102 12,-102 0,-102"/>
<polygon fill="#666666" stroke="#666666" points="12,-102 12,-102 141.75,-102 141.75,-102 12,-102"/>
<polygon fill="none" stroke="#666666" points="0,0 0,-187 141.75,-187 141.75,0 0,0"/>
</a>
</g>
</g>
<!-- Node2 -->
<g id="Node000002" class="node">
<title>Node2</title>
<g id="a_Node000002"><a xlink:title=" ">
<polygon fill="white" stroke="none" points="110.88,-270.5 30.88,-270.5 30.88,-223 110.88,-223 110.88,-270.5"/>
<text text-anchor="start" x="34.88" y="-257" font-family="Helvetica,sans-Serif" font-size="10.00">QGraphicsEffect</text>
<text text-anchor="start" x="69.38" y="-242.5" font-family="Helvetica,sans-Serif" font-size="10.00"> </text>
<text text-anchor="start" x="69.38" y="-228" font-family="Helvetica,sans-Serif" font-size="10.00"> </text>
<polygon fill="#666666" stroke="#666666" points="30.88,-254 30.88,-254 110.88,-254 110.88,-254 30.88,-254"/>
<polygon fill="#666666" stroke="#666666" points="30.88,-239.5 30.88,-239.5 110.88,-239.5 110.88,-239.5 30.88,-239.5"/>
<polygon fill="none" stroke="#666666" points="30.88,-223 30.88,-270.5 110.88,-270.5 110.88,-223 30.88,-223"/>
</a>
</g>
</g>
<!-- Node2&#45;&gt;Node1 -->
<g id="edge1_Node000001_Node000002" class="edge">
<title>Node2&#45;&gt;Node1</title>
<g id="a_edge1_Node000001_Node000002"><a xlink:title=" ">
<path fill="none" stroke="#63b8ff" d="M70.88,-211.82C70.88,-204.16 70.88,-195.67 70.88,-186.85"/>
<polygon fill="none" stroke="#63b8ff" points="67.38,-211.59 70.88,-221.59 74.38,-211.59 67.38,-211.59"/>
</a>
</g>
</g>
</g>
</svg>
