<?xml version="1.0" encoding="UTF-8" standalone="no"?>
<!DOCTYPE svg PUBLIC "-//W3C//DTD SVG 1.1//EN"
 "http://www.w3.org/Graphics/SVG/1.1/DTD/svg11.dtd">
<!-- Generated by graphviz version 12.2.1 (0)
 -->
<!-- Title: BlobPhysics::StabilizeBlob Pages: 1 -->
<svg width="496pt" height="112pt"
 viewBox="0.00 0.00 496.25 111.75" xmlns="http://www.w3.org/2000/svg" xmlns:xlink="http://www.w3.org/1999/xlink">

<svg id="main" version="1.1" xmlns="http://www.w3.org/2000/svg" xmlns:xlink="http://www.w3.org/1999/xlink" xml:space="preserve">

<style type="text/css"><![CDATA[
.node, .edge {opacity: 0.7;}
.node.selected, .edge.selected {opacity: 1;}
.edge:hover path { stroke: red; }
.edge:hover polygon { stroke: red; fill: red; }
]]></style>
<script type="application/ecmascript" xlink:href="svg.min.js"/>
<svg id="graph" class="graph">
<g id="graph0" class="graph" transform="scale(1 1) rotate(0) translate(4 107.75)">
<title>BlobPhysics::StabilizeBlob</title>
<!-- Node1 -->
<g id="Node000001" class="node">
<title>Node1</title>
<g id="a_Node000001"><a xlink:title="Gradually moves control points towards an ideal circular/organic shape when the blob is idle....">
<polygon fill="#999999" stroke="#666666" points="488.25,-66.75 356,-66.75 356,-48.25 488.25,-48.25 488.25,-66.75"/>
<text text-anchor="middle" x="422.12" y="-53.25" font-family="Helvetica,sans-Serif" font-size="10.00">BlobPhysics::StabilizeBlob</text>
</a>
</g>
</g>
<!-- Node2 -->
<g id="Node000002" class="node">
<title>Node2</title>
<g id="a_Node000002"><a xlink:href="classBlobPhysics.html#a611559445990d0a91365e7d1af7886f1" target="_top" xlink:title="Updates the blob physics using a standard sequential approach. Iterates through each control point,...">
<polygon fill="white" stroke="#666666" points="320,-103.75 178,-103.75 178,-85.25 320,-85.25 320,-103.75"/>
<text text-anchor="middle" x="249" y="-90.25" font-family="Helvetica,sans-Serif" font-size="10.00">BlobPhysics::UpdatePhysics</text>
</a>
</g>
</g>
<!-- Node1&#45;&gt;Node2 -->
<g id="edge1_Node000001_Node000002" class="edge">
<title>Node1&#45;&gt;Node2</title>
<g id="a_edge1_Node000001_Node000002"><a xlink:title=" ">
<path fill="none" stroke="#63b8ff" d="M364.96,-69.64C342.25,-74.55 316.39,-80.15 294.96,-84.78"/>
<polygon fill="#63b8ff" stroke="#63b8ff" points="365.65,-73.08 374.68,-67.54 364.17,-66.23 365.65,-73.08"/>
</a>
</g>
</g>
<!-- Node3 -->
<g id="Node000003" class="node">
<title>Node3</title>
<g id="a_Node000003"><a xlink:href="classBlobPhysics.html#a3246e7e25eb2df3437d3789ee12a7dbe" target="_top" xlink:title="Updates the blob physics using QtConcurrent for parallel processing across multiple threads....">
<polygon fill="white" stroke="#666666" points="142,-72 0,-72 0,-43 142,-43 142,-72"/>
<text text-anchor="start" x="8" y="-58.5" font-family="Helvetica,sans-Serif" font-size="10.00">BlobPhysics::UpdatePhysics</text>
<text text-anchor="middle" x="71" y="-48" font-family="Helvetica,sans-Serif" font-size="10.00">Parallel</text>
</a>
</g>
</g>
<!-- Node1&#45;&gt;Node3 -->
<g id="edge5_Node000001_Node000003" class="edge">
<title>Node1&#45;&gt;Node3</title>
<g id="a_edge5_Node000001_Node000003"><a xlink:title=" ">
<path fill="none" stroke="#63b8ff" d="M344.51,-57.5C284.24,-57.5 200.93,-57.5 142.33,-57.5"/>
<polygon fill="#63b8ff" stroke="#63b8ff" points="344.35,-61 354.35,-57.5 344.35,-54 344.35,-61"/>
</a>
</g>
</g>
<!-- Node4 -->
<g id="Node000004" class="node">
<title>Node4</title>
<g id="a_Node000004"><a xlink:href="classBlobPhysics.html#a5fa268f3582bffc05750430849f43d24" target="_top" xlink:title="Updates the blob physics using an optimized Structure&#45;of&#45;Arrays (SoA) approach with OpenMP paralleliz...">
<polygon fill="white" stroke="#666666" points="320,-29 178,-29 178,0 320,0 320,-29"/>
<text text-anchor="start" x="186" y="-15.5" font-family="Helvetica,sans-Serif" font-size="10.00">BlobPhysics::UpdatePhysics</text>
<text text-anchor="middle" x="249" y="-5" font-family="Helvetica,sans-Serif" font-size="10.00">Optimized</text>
</a>
</g>
</g>
<!-- Node1&#45;&gt;Node4 -->
<g id="edge3_Node000001_Node000004" class="edge">
<title>Node1&#45;&gt;Node4</title>
<g id="a_edge3_Node000001_Node000004"><a xlink:title=" ">
<path fill="none" stroke="#63b8ff" d="M371.67,-45.07C352.23,-40.19 329.75,-34.54 309.45,-29.44"/>
<polygon fill="#63b8ff" stroke="#63b8ff" points="370.7,-48.44 381.25,-47.48 372.41,-41.65 370.7,-48.44"/>
</a>
</g>
</g>
<!-- Node2&#45;&gt;Node3 -->
<g id="edge2_Node000002_Node000003" class="edge">
<title>Node2&#45;&gt;Node3</title>
<g id="a_edge2_Node000002_Node000003"><a xlink:title=" ">
<path fill="none" stroke="#63b8ff" d="M190.82,-82.48C175.39,-79.24 158.53,-75.69 142.47,-72.31"/>
<polygon fill="#63b8ff" stroke="#63b8ff" points="189.77,-85.84 200.28,-84.47 191.21,-78.98 189.77,-85.84"/>
</a>
</g>
</g>
<!-- Node4&#45;&gt;Node3 -->
<g id="edge4_Node000004_Node000003" class="edge">
<title>Node4&#45;&gt;Node3</title>
<g id="a_edge4_Node000004_Node000003"><a xlink:title=" ">
<path fill="none" stroke="#63b8ff" d="M175.76,-32.15C161.65,-35.6 146.97,-39.18 133.25,-42.53"/>
<polygon fill="#63b8ff" stroke="#63b8ff" points="176.58,-35.55 185.47,-29.78 174.92,-28.75 176.58,-35.55"/>
</a>
</g>
</g>
</g>
</svg>
</svg>

<style type='text/css'>
<![CDATA[
[data-mouse-over-selected='false'] { opacity: 0.7; }
[data-mouse-over-selected='true']  { opacity: 1.0; }
]]>
</style>
<script type="application/ecmascript"><![CDATA[
document.addEventListener('DOMContentLoaded', (event) => {
  highlightEdges();
  highlightAdjacentNodes();
});
]]></script>
</svg>
