<?xml version="1.0" encoding="UTF-8" standalone="no"?>
<!DOCTYPE svg PUBLIC "-//W3C//DTD SVG 1.1//EN"
 "http://www.w3.org/Graphics/SVG/1.1/DTD/svg11.dtd">
<!-- Generated by graphviz version 12.2.1 (0)
 -->
<!-- Title: WavelengthConfig::GetRelayServerPort Pages: 1 -->
<svg width="677pt" height="178pt"
 viewBox="0.00 0.00 676.50 178.00" xmlns="http://www.w3.org/2000/svg" xmlns:xlink="http://www.w3.org/1999/xlink">
<g id="graph0" class="graph" transform="scale(1 1) rotate(0) translate(4 174)">
<title>WavelengthConfig::GetRelayServerPort</title>
<!-- Node1 -->
<g id="Node000001" class="node">
<title>Node1</title>
<g id="a_Node000001"><a xlink:title="Gets the configured relay server port.">
<polygon fill="#999999" stroke="#666666" points="668.5,-123 527.25,-123 527.25,-94 668.5,-94 668.5,-123"/>
<text text-anchor="start" x="535.25" y="-109.5" font-family="Helvetica,sans-Serif" font-size="10.00">WavelengthConfig::GetRelay</text>
<text text-anchor="middle" x="597.88" y="-99" font-family="Helvetica,sans-Serif" font-size="10.00">ServerPort</text>
</a>
</g>
</g>
<!-- Node2 -->
<g id="Node000002" class="node">
<title>Node2</title>
<g id="a_Node000002"><a xlink:href="classWavelengthCreator.html#aceda419aab0bae7f3323bedfcb0ad6d1" target="_top" xlink:title="Attempts to create and register a new wavelength with the relay server. Checks if the wavelength alre...">
<polygon fill="white" stroke="#666666" points="460.12,-170 355.62,-170 355.62,-141 460.12,-141 460.12,-170"/>
<text text-anchor="start" x="363.62" y="-156.5" font-family="Helvetica,sans-Serif" font-size="10.00">WavelengthCreator::</text>
<text text-anchor="middle" x="407.88" y="-146" font-family="Helvetica,sans-Serif" font-size="10.00">CreateWavelength</text>
</a>
</g>
</g>
<!-- Node1&#45;&gt;Node2 -->
<g id="edge1_Node000001_Node000002" class="edge">
<title>Node1&#45;&gt;Node2</title>
<g id="a_edge1_Node000001_Node000002"><a xlink:title=" ">
<path fill="none" stroke="#63b8ff" d="M526.25,-126.16C504.44,-131.61 480.83,-137.51 460.54,-142.58"/>
<polygon fill="#63b8ff" stroke="#63b8ff" points="526.81,-129.62 535.66,-123.8 525.11,-122.83 526.81,-129.62"/>
</a>
</g>
</g>
<!-- Node4 -->
<g id="Node000004" class="node">
<title>Node4</title>
<g id="a_Node000004"><a xlink:href="classCreateWavelengthDialog.html#a853ffd25f2dc9a851b1a2e1b4a69b72b" target="_top" xlink:title="Static function executed concurrently to query the relay server for the next available frequency....">
<polygon fill="white" stroke="#666666" points="485.62,-123 330.12,-123 330.12,-94 485.62,-94 485.62,-123"/>
<text text-anchor="start" x="338.12" y="-109.5" font-family="Helvetica,sans-Serif" font-size="10.00">CreateWavelengthDialog</text>
<text text-anchor="middle" x="407.88" y="-99" font-family="Helvetica,sans-Serif" font-size="10.00">::FindLowestAvailableFrequency</text>
</a>
</g>
</g>
<!-- Node1&#45;&gt;Node4 -->
<g id="edge3_Node000001_Node000004" class="edge">
<title>Node1&#45;&gt;Node4</title>
<g id="a_edge3_Node000001_Node000004"><a xlink:title=" ">
<path fill="none" stroke="#63b8ff" d="M515.46,-108.5C505.64,-108.5 495.64,-108.5 485.88,-108.5"/>
<polygon fill="#63b8ff" stroke="#63b8ff" points="515.36,-112 525.36,-108.5 515.36,-105 515.36,-112"/>
</a>
</g>
</g>
<!-- Node7 -->
<g id="Node000007" class="node">
<title>Node7</title>
<g id="a_Node000007"><a xlink:href="classWavelengthJoiner.html#a10830ee7f998cc18b6df1949455ae98e" target="_top" xlink:title="Attempts to join an existing wavelength hosted on the relay server. Checks if the wavelength is alrea...">
<polygon fill="white" stroke="#666666" points="491.25,-70.75 324.5,-70.75 324.5,-52.25 491.25,-52.25 491.25,-70.75"/>
<text text-anchor="middle" x="407.88" y="-57.25" font-family="Helvetica,sans-Serif" font-size="10.00">WavelengthJoiner::JoinWavelength</text>
</a>
</g>
</g>
<!-- Node1&#45;&gt;Node7 -->
<g id="edge6_Node000001_Node000007" class="edge">
<title>Node1&#45;&gt;Node7</title>
<g id="a_edge6_Node000001_Node000007"><a xlink:title=" ">
<path fill="none" stroke="#63b8ff" d="M526.31,-90.86C499.69,-84.2 470.39,-76.88 447.72,-71.21"/>
<polygon fill="#63b8ff" stroke="#63b8ff" points="525.11,-94.17 535.66,-93.2 526.81,-87.38 525.11,-94.17"/>
</a>
</g>
</g>
<!-- Node3 -->
<g id="Node000003" class="node">
<title>Node3</title>
<g id="a_Node000003"><a xlink:href="classSessionCoordinator.html#ad439996ffc2f1a6fc57835502c69ce7d" target="_top" xlink:title="Initiates the creation of a new wavelength. Delegates the call to WavelengthCreator and registers the...">
<polygon fill="white" stroke="#666666" points="277.62,-170 176.12,-170 176.12,-141 277.62,-141 277.62,-170"/>
<text text-anchor="start" x="184.12" y="-156.5" font-family="Helvetica,sans-Serif" font-size="10.00">SessionCoordinator</text>
<text text-anchor="middle" x="226.88" y="-146" font-family="Helvetica,sans-Serif" font-size="10.00">::CreateWavelength</text>
</a>
</g>
</g>
<!-- Node2&#45;&gt;Node3 -->
<g id="edge2_Node000002_Node000003" class="edge">
<title>Node2&#45;&gt;Node3</title>
<g id="a_edge2_Node000002_Node000003"><a xlink:title=" ">
<path fill="none" stroke="#63b8ff" d="M344.15,-155.5C322.46,-155.5 298.47,-155.5 277.94,-155.5"/>
<polygon fill="#63b8ff" stroke="#63b8ff" points="344.07,-159 354.07,-155.5 344.07,-152 344.07,-159"/>
</a>
</g>
</g>
<!-- Node5 -->
<g id="Node000005" class="node">
<title>Node5</title>
<g id="a_Node000005"><a xlink:href="classCreateWavelengthDialog.html#aac53c51a52d92e2ccc1a0f945aaec449" target="_top" xlink:title="Starts the asynchronous process of finding the lowest available frequency via the relay server....">
<polygon fill="white" stroke="#666666" points="288.5,-123 165.25,-123 165.25,-94 288.5,-94 288.5,-123"/>
<text text-anchor="start" x="173.25" y="-109.5" font-family="Helvetica,sans-Serif" font-size="10.00">CreateWavelengthDialog</text>
<text text-anchor="middle" x="226.88" y="-99" font-family="Helvetica,sans-Serif" font-size="10.00">::StartFrequencySearch</text>
</a>
</g>
</g>
<!-- Node4&#45;&gt;Node5 -->
<g id="edge4_Node000004_Node000005" class="edge">
<title>Node4&#45;&gt;Node5</title>
<g id="a_edge4_Node000004_Node000005"><a xlink:title=" ">
<path fill="none" stroke="#63b8ff" d="M318.43,-108.5C308.44,-108.5 298.44,-108.5 288.92,-108.5"/>
<polygon fill="#63b8ff" stroke="#63b8ff" points="318.15,-112 328.15,-108.5 318.15,-105 318.15,-112"/>
</a>
</g>
</g>
<!-- Node6 -->
<g id="Node000006" class="node">
<title>Node6</title>
<g id="a_Node000006"><a xlink:href="classCreateWavelengthDialog.html#acb82ee7ee77da3a02fbd18f622f3c660" target="_top" xlink:title="Constructs a WavelengthDialog. Sets up the UI elements (labels, input fields, buttons,...">
<polygon fill="white" stroke="#666666" points="129.25,-123 0,-123 0,-94 129.25,-94 129.25,-123"/>
<text text-anchor="start" x="8" y="-109.5" font-family="Helvetica,sans-Serif" font-size="10.00">CreateWavelengthDialog</text>
<text text-anchor="middle" x="64.62" y="-99" font-family="Helvetica,sans-Serif" font-size="10.00">::CreateWavelengthDialog</text>
</a>
</g>
</g>
<!-- Node5&#45;&gt;Node6 -->
<g id="edge5_Node000005_Node000006" class="edge">
<title>Node5&#45;&gt;Node6</title>
<g id="a_edge5_Node000005_Node000006"><a xlink:title=" ">
<path fill="none" stroke="#63b8ff" d="M153.37,-108.5C145.47,-108.5 137.48,-108.5 129.69,-108.5"/>
<polygon fill="#63b8ff" stroke="#63b8ff" points="153.32,-112 163.32,-108.5 153.32,-105 153.32,-112"/>
</a>
</g>
</g>
<!-- Node8 -->
<g id="Node000008" class="node">
<title>Node8</title>
<g id="a_Node000008"><a xlink:href="classSessionCoordinator.html#a78a62f7f321920c128757ee20568a972" target="_top" xlink:title="Initiates joining an existing wavelength. Delegates the call to WavelengthJoiner and registers the wa...">
<polygon fill="white" stroke="#666666" points="277.62,-76 176.12,-76 176.12,-47 277.62,-47 277.62,-76"/>
<text text-anchor="start" x="184.12" y="-62.5" font-family="Helvetica,sans-Serif" font-size="10.00">SessionCoordinator</text>
<text text-anchor="middle" x="226.88" y="-52" font-family="Helvetica,sans-Serif" font-size="10.00">::JoinWavelength</text>
</a>
</g>
</g>
<!-- Node7&#45;&gt;Node8 -->
<g id="edge7_Node000007_Node000008" class="edge">
<title>Node7&#45;&gt;Node8</title>
<g id="a_edge7_Node000007_Node000008"><a xlink:title=" ">
<path fill="none" stroke="#63b8ff" d="M312.72,-61.5C300.76,-61.5 288.92,-61.5 278.04,-61.5"/>
<polygon fill="#63b8ff" stroke="#63b8ff" points="312.67,-65 322.67,-61.5 312.67,-58 312.67,-65"/>
</a>
</g>
</g>
<!-- Node9 -->
<g id="Node000009" class="node">
<title>Node9</title>
<g id="a_Node000009"><a xlink:href="classJoinWavelengthDialog.html#a0cb74ecdcc726cea2ce437c85cd75185" target="_top" xlink:title="Attempts to join the wavelength using the entered frequency and password. Shows a wait cursor,...">
<polygon fill="white" stroke="#666666" points="282.88,-29 170.88,-29 170.88,0 282.88,0 282.88,-29"/>
<text text-anchor="start" x="178.88" y="-15.5" font-family="Helvetica,sans-Serif" font-size="10.00">JoinWavelengthDialog</text>
<text text-anchor="middle" x="226.88" y="-5" font-family="Helvetica,sans-Serif" font-size="10.00">::TryJoin</text>
</a>
</g>
</g>
<!-- Node7&#45;&gt;Node9 -->
<g id="edge8_Node000007_Node000009" class="edge">
<title>Node7&#45;&gt;Node9</title>
<g id="a_edge8_Node000007_Node000009"><a xlink:title=" ">
<path fill="none" stroke="#63b8ff" d="M358.78,-48.87C335.51,-42.76 307.44,-35.39 283.28,-29.05"/>
<polygon fill="#63b8ff" stroke="#63b8ff" points="357.76,-52.22 368.32,-51.38 359.54,-45.45 357.76,-52.22"/>
</a>
</g>
</g>
<!-- Node10 -->
<g id="Node000010" class="node">
<title>Node10</title>
<g id="a_Node000010"><a xlink:href="classJoinWavelengthDialog.html#a22f6a3f4da1054f306ee566edf3f2d74" target="_top" xlink:title="Constructs a JoinWavelengthDialog. Sets up the UI elements (labels, input fields, buttons),...">
<polygon fill="white" stroke="#666666" points="123.62,-29 5.62,-29 5.62,0 123.62,0 123.62,-29"/>
<text text-anchor="start" x="13.62" y="-15.5" font-family="Helvetica,sans-Serif" font-size="10.00">JoinWavelengthDialog</text>
<text text-anchor="middle" x="64.62" y="-5" font-family="Helvetica,sans-Serif" font-size="10.00">::JoinWavelengthDialog</text>
</a>
</g>
</g>
<!-- Node9&#45;&gt;Node10 -->
<g id="edge9_Node000009_Node000010" class="edge">
<title>Node9&#45;&gt;Node10</title>
<g id="a_edge9_Node000009_Node000010"><a xlink:title=" ">
<path fill="none" stroke="#63b8ff" d="M159.54,-14.5C147.71,-14.5 135.47,-14.5 123.88,-14.5"/>
<polygon fill="#63b8ff" stroke="#63b8ff" points="159.21,-18 169.21,-14.5 159.21,-11 159.21,-18"/>
</a>
</g>
</g>
</g>
</svg>
