<?xml version="1.0" encoding="UTF-8" standalone="no"?>
<!DOCTYPE svg PUBLIC "-//W3C//DTD SVG 1.1//EN"
 "http://www.w3.org/Graphics/SVG/1.1/DTD/svg11.dtd">
<!-- Generated by graphviz version 12.2.1 (0)
 -->
<!-- Title: SystemOverrideManager::overrideFinished Pages: 1 -->
<!--zoomable 123 -->

<svg id="main" version="1.1" xmlns="http://www.w3.org/2000/svg" xmlns:xlink="http://www.w3.org/1999/xlink" xml:space="preserve" onload="init(evt)">

<style type="text/css"><![CDATA[
.node, .edge {opacity: 0.7;}
.node.selected, .edge.selected {opacity: 1;}
.edge:hover path { stroke: red; }
.edge:hover polygon { stroke: red; fill: red; }
]]></style>

<defs>
  <circle id="rim" cx="0" cy="0" r="7"/>
  <circle id="rim2" cx="0" cy="0" r="3.5"/>
  <g id="zoomPlus">
    <use xlink:href="#rim" fill="#404040"><set attributeName="fill" to="#808080" begin="zoomplus.mouseover" end="zoomplus.mouseout"/></use>
    <path d="M-4,0h8M0,-4v8" fill="none" stroke="white" stroke-width="1.5" pointer-events="none"/>
  </g>
  <g id="zoomMin">
    <use xlink:href="#rim" fill="#404040"><set attributeName="fill" to="#808080" begin="zoomminus.mouseover" end="zoomminus.mouseout"/></use>
    <path d="M-4,0h8" fill="none" stroke="white" stroke-width="1.5" pointer-events="none"/>
  </g>
  <g id="arrowUp" transform="translate(30 24)">
    <use xlink:href="#rim"/>
    <path pointer-events="none" fill="none" stroke="white" stroke-width="1.5" d="M0,-3.0v7 M-2.5,-0.5L0,-3.0L2.5,-0.5"/>
  </g>
  <g id="arrowRight" transform="rotate(90) translate(36 -43)">
    <use xlink:href="#rim"/>
    <path pointer-events="none" fill="none" stroke="white" stroke-width="1.5" d="M0,-3.0v7 M-2.5,-0.5L0,-3.0L2.5,-0.5"/>
  </g>
  <g id="arrowDown" transform="rotate(180) translate(-30 -48)">
    <use xlink:href="#rim"/>
    <path pointer-events="none" fill="none" stroke="white" stroke-width="1.5" d="M0,-3.0v7 M-2.5,-0.5L0,-3.0L2.5,-0.5"/>
  </g>
  <g id="arrowLeft" transform="rotate(270) translate(-36 17)">
    <use xlink:href="#rim"/>
    <path pointer-events="none" fill="none" stroke="white" stroke-width="1.5" d="M0,-3.0v7 M-2.5,-0.5L0,-3.0L2.5,-0.5"/>
  </g>
  <g id="resetDef">
    <use xlink:href="#rim2" fill="#404040"><set attributeName="fill" to="#808080" begin="reset.mouseover" end="reset.mouseout"/></use>
  </g>
</defs>
<script type="application/ecmascript">
var viewWidth = 680;
var viewHeight = 123;
var sectionId = 'dynsection-8';
</script>
<script type="application/ecmascript" xlink:href="svg.min.js"/>
<svg id="graph" class="graph">
<g id="viewport">
<title>SystemOverrideManager::overrideFinished</title>
<!-- Node1 -->
<g id="Node000001" class="node">
<title>Node1</title>
<g id="a_Node000001"><a xlink:title="Emitted when the system override sequence has finished and the system state has been restored.">
<polygon fill="#999999" stroke="#666666" points="671.5,-72 549,-72 549,-43 671.5,-43 671.5,-72"/>
<text text-anchor="start" x="557" y="-58.5" font-family="Helvetica,sans-Serif" font-size="10.00">SystemOverrideManager</text>
<text text-anchor="middle" x="610.25" y="-48" font-family="Helvetica,sans-Serif" font-size="10.00">::overrideFinished</text>
</a>
</g>
</g>
<!-- Node2 -->
<g id="Node000002" class="node">
<title>Node2</title>
<g id="a_Node000002"><a xlink:href="classSystemOverrideManager.html#a0834ff9c3ad9bfec1d08ba05648e6122" target="_top" xlink:title="Restores the system state to normal. Uninstalls input hooks (Windows), restores the original wallpape...">
<polygon fill="white" stroke="#666666" points="505.88,-93 383.38,-93 383.38,-64 505.88,-64 505.88,-93"/>
<text text-anchor="start" x="391.38" y="-79.5" font-family="Helvetica,sans-Serif" font-size="10.00">SystemOverrideManager</text>
<text text-anchor="middle" x="444.62" y="-69" font-family="Helvetica,sans-Serif" font-size="10.00">::RestoreSystemState</text>
</a>
</g>
</g>
<!-- Node1&#45;&gt;Node2 -->
<g id="edge1_Node000001_Node000002" class="edge">
<title>Node1&#45;&gt;Node2</title>
<g id="a_edge1_Node000001_Node000002"><a xlink:title=" ">
<path fill="none" stroke="#63b8ff" d="M537.53,-66.7C527.05,-68.05 516.34,-69.42 506.11,-70.74"/>
<polygon fill="#63b8ff" stroke="#63b8ff" points="537.81,-70.2 547.29,-65.45 536.92,-63.25 537.81,-70.2"/>
</a>
</g>
</g>
<!-- Node7 -->
<g id="Node000007" class="node">
<title>Node7</title>
<g id="a_Node000007"><a xlink:href="classSettingsView.html#a4b22f39018ca1c051b4d88f6d2636683" target="_top" xlink:title="Constructs the SettingsView. Initializes the UI, sets up all tabs including the security layers for t...">
<polygon fill="white" stroke="#666666" points="513,-45.75 376.25,-45.75 376.25,-27.25 513,-27.25 513,-45.75"/>
<text text-anchor="middle" x="444.62" y="-32.25" font-family="Helvetica,sans-Serif" font-size="10.00">SettingsView::SettingsView</text>
</a>
</g>
</g>
<!-- Node1&#45;&gt;Node7 -->
<g id="edge8_Node000001_Node000007" class="edge">
<title>Node1&#45;&gt;Node7</title>
<g id="a_edge8_Node000001_Node000007"><a xlink:title=" ">
<path fill="none" stroke="#63b8ff" d="M537.52,-48.29C529.47,-47.26 521.28,-46.21 513.28,-45.18"/>
<polygon fill="#63b8ff" stroke="#63b8ff" points="536.92,-51.75 547.29,-49.55 537.81,-44.8 536.92,-51.75"/>
</a>
</g>
</g>
<!-- Node2&#45;&gt;Node2 -->
<g id="edge5_Node000002_Node000002" class="edge">
<title>Node2&#45;&gt;Node2</title>
<g id="a_edge5_Node000002_Node000002"><a xlink:title=" ">
<path fill="none" stroke="#63b8ff" d="M472.74,-104.56C468.32,-108.41 458.95,-111 444.62,-111 418.42,-111 408.8,-102.32 415.76,-93.21"/>
<polygon fill="#63b8ff" stroke="#63b8ff" points="476.22,-104.93 473.39,-94.72 469.24,-104.46 476.22,-104.93"/>
</a>
</g>
</g>
<!-- Node3 -->
<g id="Node000003" class="node">
<title>Node3</title>
<g id="a_Node000003"><a xlink:href="classSystemOverrideManager.html#a1d774843ddf2350e4b0ebd78777733bf" target="_top" xlink:title="Slot called when the FloatingEnergySphereWidget emits its widgetClosed signal. Cleans up the widget p...">
<polygon fill="white" stroke="#666666" points="340.25,-115 191.5,-115 191.5,-86 340.25,-86 340.25,-115"/>
<text text-anchor="start" x="199.5" y="-101.5" font-family="Helvetica,sans-Serif" font-size="10.00">SystemOverrideManager</text>
<text text-anchor="middle" x="265.88" y="-91" font-family="Helvetica,sans-Serif" font-size="10.00">::HandleFloatingWidgetClosed</text>
</a>
</g>
</g>
<!-- Node2&#45;&gt;Node3 -->
<g id="edge2_Node000002_Node000003" class="edge">
<title>Node2&#45;&gt;Node3</title>
<g id="a_edge2_Node000002_Node000003"><a xlink:title=" ">
<path fill="none" stroke="#63b8ff" d="M371.99,-80.77C359.51,-82.16 346.57,-83.8 334.21,-85.54"/>
<polygon fill="#63b8ff" stroke="#63b8ff" points="372.21,-84.27 381.79,-79.73 371.47,-77.31 372.21,-84.27"/>
</a>
</g>
</g>
<!-- Node4 -->
<g id="Node000004" class="node">
<title>Node4</title>
<g id="a_Node000004"><a xlink:href="classSystemOverrideManager.html#ad55be1ff40ee203da7ed94a15e7e3de5" target="_top" xlink:title="Creates, configures, positions, and shows the FloatingEnergySphereWidget. Connects the necessary sign...">
<polygon fill="#fff0f0" stroke="red" points="155.5,-93 0,-93 0,-64 155.5,-64 155.5,-93"/>
<text text-anchor="start" x="8" y="-79.5" font-family="Helvetica,sans-Serif" font-size="10.00">SystemOverrideManager</text>
<text text-anchor="middle" x="77.75" y="-69" font-family="Helvetica,sans-Serif" font-size="10.00">::ShowFloatingAnimationWidget</text>
</a>
</g>
</g>
<!-- Node2&#45;&gt;Node4 -->
<g id="edge6_Node000002_Node000004" class="edge">
<title>Node2&#45;&gt;Node4</title>
<g id="a_edge6_Node000002_Node000004"><a xlink:title=" ">
<path fill="none" stroke="#63b8ff" d="M371.63,-77.71C361.11,-77.63 350.4,-77.55 340.25,-77.5 274.14,-77.18 257.61,-77.21 191.5,-77.5 179.95,-77.55 167.74,-77.63 155.78,-77.73"/>
<polygon fill="#63b8ff" stroke="#63b8ff" points="371.41,-81.21 381.44,-77.8 371.47,-74.21 371.41,-81.21"/>
</a>
</g>
</g>
<!-- Node6 -->
<g id="Node000006" class="node">
<title>Node6</title>
<g id="a_Node000006"><a xlink:href="classSystemOverrideManager.html#a97a21907f73c99fc8dd4defaadfd5f48" target="_top" xlink:title="Destructor. Ensures the system state is restored if the override is active. Cleans up the floating wi...">
<polygon fill="white" stroke="#666666" points="333.12,-29 198.62,-29 198.62,0 333.12,0 333.12,-29"/>
<text text-anchor="start" x="206.62" y="-15.5" font-family="Helvetica,sans-Serif" font-size="10.00">SystemOverrideManager</text>
<text text-anchor="middle" x="265.88" y="-5" font-family="Helvetica,sans-Serif" font-size="10.00">::~SystemOverrideManager</text>
</a>
</g>
</g>
<!-- Node2&#45;&gt;Node6 -->
<g id="edge7_Node000002_Node000006" class="edge">
<title>Node2&#45;&gt;Node6</title>
<g id="a_edge7_Node000002_Node000006"><a xlink:title=" ">
<path fill="none" stroke="#63b8ff" d="M390.82,-59.74C385.89,-57.97 380.98,-56.21 376.25,-54.5 353.52,-46.3 328.18,-37.04 307.62,-29.49"/>
<polygon fill="#63b8ff" stroke="#63b8ff" points="389.54,-63 400.13,-63.07 391.89,-56.4 389.54,-63"/>
</a>
</g>
</g>
<!-- Node3&#45;&gt;Node2 -->
<g id="edge3_Node000003_Node000002" class="edge">
<title>Node3&#45;&gt;Node2</title>
<g id="a_edge3_Node000003_Node000002"><a xlink:title=" ">
<path fill="none" stroke="#63b8ff" d="M352.09,-96.64C362.63,-95.35 373.23,-93.93 383.29,-92.45"/>
<polygon fill="#63b8ff" stroke="#63b8ff" points="351.72,-93.16 342.2,-97.8 352.54,-100.11 351.72,-93.16"/>
</a>
</g>
</g>
<!-- Node3&#45;&gt;Node4 -->
<g id="edge4_Node000003_Node000004" class="edge">
<title>Node3&#45;&gt;Node4</title>
<g id="a_edge4_Node000003_Node000004"><a xlink:title=" ">
<path fill="none" stroke="#63b8ff" d="M179.83,-90.45C171.83,-89.5 163.76,-88.55 155.85,-87.61"/>
<polygon fill="#63b8ff" stroke="#63b8ff" points="179.2,-93.9 189.54,-91.6 180.02,-86.95 179.2,-93.9"/>
</a>
</g>
</g>
</g>
</svg>

<g id="navigator" transform="translate(0 0)" fill="#404254">
  <rect fill="#f2f5e9" fill-opacity="0.5" stroke="#606060" stroke-width=".5" x="0" y="0" width="60" height="60"/>
  <use id="zoomplus" xlink:href="#zoomPlus" x="17" y="9" onmousedown="handleZoom(evt,'in')"/>
  <use id="zoomminus" xlink:href="#zoomMin" x="42" y="9" onmousedown="handleZoom(evt,'out')"/>
  <use id="reset" xlink:href="#resetDef" x="30" y="36" onmousedown="handleReset()"/>
   <use id="arrowup" xlink:href="#arrowUp" x="0" y="0" onmousedown="handlePan(0,-1)"/>
  <use id="arrowright" xlink:href="#arrowRight" x="0" y="0" onmousedown="handlePan(1,0)"/>
  <use id="arrowdown" xlink:href="#arrowDown" x="0" y="0" onmousedown="handlePan(0,1)"/>
  <use id="arrowleft" xlink:href="#arrowLeft" x="0" y="0" onmousedown="handlePan(-1,0)"/>
</g>
<svg viewBox="0 0 15 15" width="100%" height="30px" preserveAspectRatio="xMaxYMin meet">
 <g id="arrow_out" transform="scale(0.3 0.3)">
  <a xlink:href="classSystemOverrideManager_ac2593eaad2d059efe9595fe96886ba7d_icgraph_org.svg" target="_base">
   <rect id="button" ry="5" rx="5" y="6" x="6" height="38" width="38"
        fill="#f2f5e9" fill-opacity="0.5" stroke="#606060" stroke-width="1.0"/>
   <path id="arrow"
     d="M 11.500037,31.436501 C 11.940474,20.09759 22.043105,11.32322 32.158766,21.979434 L 37.068811,17.246167 C 37.068811,17.246167 37.088388,32 37.088388,32 L 22.160133,31.978069 C 22.160133,31.978069 26.997745,27.140456 26.997745,27.140456 C 18.528582,18.264221 13.291696,25.230495 11.500037,31.436501 z"
     style="fill:#404040;"/>
  </a>
 </g>
</svg>

<style type='text/css'>
<![CDATA[
[data-mouse-over-selected='false'] { opacity: 0.7; }
[data-mouse-over-selected='true']  { opacity: 1.0; }
]]>
</style>
<script type="application/ecmascript"><![CDATA[
document.addEventListener('DOMContentLoaded', (event) => {
  highlightEdges();
  highlightAdjacentNodes();
});
]]></script>
</svg>
