<?xml version="1.0" encoding="UTF-8" standalone="no"?>
<!DOCTYPE svg PUBLIC "-//W3C//DTD SVG 1.1//EN"
 "http://www.w3.org/Graphics/SVG/1.1/DTD/svg11.dtd">
<!-- Generated by graphviz version 12.2.1 (0)
 -->
<!-- Title: WavelengthConfig Pages: 1 -->
<!--zoomable 685 -->

<svg id="main" version="1.1" xmlns="http://www.w3.org/2000/svg" xmlns:xlink="http://www.w3.org/1999/xlink" xml:space="preserve" onload="init(evt)">

<style type="text/css"><![CDATA[
.node, .edge {opacity: 0.7;}
.node.selected, .edge.selected {opacity: 1;}
.edge:hover path { stroke: red; }
.edge:hover polygon { stroke: red; fill: red; }
]]></style>

<defs>
  <circle id="rim" cx="0" cy="0" r="7"/>
  <circle id="rim2" cx="0" cy="0" r="3.5"/>
  <g id="zoomPlus">
    <use xlink:href="#rim" fill="#404040"><set attributeName="fill" to="#808080" begin="zoomplus.mouseover" end="zoomplus.mouseout"/></use>
    <path d="M-4,0h8M0,-4v8" fill="none" stroke="white" stroke-width="1.5" pointer-events="none"/>
  </g>
  <g id="zoomMin">
    <use xlink:href="#rim" fill="#404040"><set attributeName="fill" to="#808080" begin="zoomminus.mouseover" end="zoomminus.mouseout"/></use>
    <path d="M-4,0h8" fill="none" stroke="white" stroke-width="1.5" pointer-events="none"/>
  </g>
  <g id="arrowUp" transform="translate(30 24)">
    <use xlink:href="#rim"/>
    <path pointer-events="none" fill="none" stroke="white" stroke-width="1.5" d="M0,-3.0v7 M-2.5,-0.5L0,-3.0L2.5,-0.5"/>
  </g>
  <g id="arrowRight" transform="rotate(90) translate(36 -43)">
    <use xlink:href="#rim"/>
    <path pointer-events="none" fill="none" stroke="white" stroke-width="1.5" d="M0,-3.0v7 M-2.5,-0.5L0,-3.0L2.5,-0.5"/>
  </g>
  <g id="arrowDown" transform="rotate(180) translate(-30 -48)">
    <use xlink:href="#rim"/>
    <path pointer-events="none" fill="none" stroke="white" stroke-width="1.5" d="M0,-3.0v7 M-2.5,-0.5L0,-3.0L2.5,-0.5"/>
  </g>
  <g id="arrowLeft" transform="rotate(270) translate(-36 17)">
    <use xlink:href="#rim"/>
    <path pointer-events="none" fill="none" stroke="white" stroke-width="1.5" d="M0,-3.0v7 M-2.5,-0.5L0,-3.0L2.5,-0.5"/>
  </g>
  <g id="resetDef">
    <use xlink:href="#rim2" fill="#404040"><set attributeName="fill" to="#808080" begin="reset.mouseover" end="reset.mouseout"/></use>
  </g>
</defs>
<script type="application/ecmascript">
var viewWidth = 234;
var viewHeight = 685;
var sectionId = 'dynsection-1';
</script>
<script type="application/ecmascript" xlink:href="svg.min.js"/>
<svg id="graph" class="graph">
<g id="viewport">
<title>WavelengthConfig</title>
<!-- Node1 -->
<g id="Node000001" class="node">
<title>Node1</title>
<g id="a_Node000001"><a xlink:title="Manages application configuration settings using a singleton pattern.">
<polygon fill="#999999" stroke="none" points="159.75,-592.5 0,-592.5 0,0 159.75,0 159.75,-592.5"/>
<text text-anchor="start" x="40.5" y="-579" font-family="Helvetica,sans-Serif" font-size="10.00">WavelengthConfig</text>
<text text-anchor="start" x="5.5" y="-564.5" font-family="Helvetica,sans-Serif" font-size="10.00">&#45;</text>
<text text-anchor="start" x="14" y="-564.5" font-family="Helvetica,sans-Serif" font-size="10.00">QColor background_color_</text>
<text text-anchor="start" x="5.5" y="-550" font-family="Helvetica,sans-Serif" font-size="10.00">&#45;</text>
<text text-anchor="start" x="14" y="-550" font-family="Helvetica,sans-Serif" font-size="10.00">QColor blob_color_</text>
<text text-anchor="start" x="5.5" y="-535.5" font-family="Helvetica,sans-Serif" font-size="10.00">&#45;</text>
<text text-anchor="start" x="14" y="-535.5" font-family="Helvetica,sans-Serif" font-size="10.00">int connection_timeout_</text>
<text text-anchor="start" x="5.5" y="-521" font-family="Helvetica,sans-Serif" font-size="10.00">&#45;</text>
<text text-anchor="start" x="14" y="-521" font-family="Helvetica,sans-Serif" font-size="10.00">bool debug_mode_</text>
<text text-anchor="start" x="5.5" y="-506.5" font-family="Helvetica,sans-Serif" font-size="10.00">&#45;</text>
<text text-anchor="start" x="14" y="-506.5" font-family="Helvetica,sans-Serif" font-size="10.00">QMap&lt; QString, QKeySequence</text>
<text text-anchor="start" x="14" y="-496" font-family="Helvetica,sans-Serif" font-size="10.00"> &gt; default_shortcuts_</text>
<text text-anchor="start" x="5.5" y="-481.5" font-family="Helvetica,sans-Serif" font-size="10.00">&#45;</text>
<text text-anchor="start" x="14" y="-481.5" font-family="Helvetica,sans-Serif" font-size="10.00">QColor grid_color_</text>
<text text-anchor="start" x="5.5" y="-467" font-family="Helvetica,sans-Serif" font-size="10.00">&#45;</text>
<text text-anchor="start" x="14" y="-467" font-family="Helvetica,sans-Serif" font-size="10.00">int grid_spacing_</text>
<text text-anchor="start" x="5.5" y="-452.5" font-family="Helvetica,sans-Serif" font-size="10.00">&#45;</text>
<text text-anchor="start" x="14" y="-452.5" font-family="Helvetica,sans-Serif" font-size="10.00">int keep_alive_interval_</text>
<text text-anchor="start" x="5.5" y="-438" font-family="Helvetica,sans-Serif" font-size="10.00">&#45;</text>
<text text-anchor="start" x="14" y="-438" font-family="Helvetica,sans-Serif" font-size="10.00">const QString kShortcuts</text>
<text text-anchor="start" x="14" y="-427.5" font-family="Helvetica,sans-Serif" font-size="10.00">Prefix</text>
<text text-anchor="start" x="5.5" y="-413" font-family="Helvetica,sans-Serif" font-size="10.00">&#45;</text>
<text text-anchor="start" x="14" y="-413" font-family="Helvetica,sans-Serif" font-size="10.00">QString language_code_</text>
<text text-anchor="start" x="14" y="-398.5" font-family="Helvetica,sans-Serif" font-size="10.00">and 11 more...</text>
<text text-anchor="start" x="5.5" y="-384" font-family="Helvetica,sans-Serif" font-size="10.00">&#45;</text>
<text text-anchor="start" x="14" y="-384" font-family="Helvetica,sans-Serif" font-size="10.00">static constexpr int</text>
<text text-anchor="start" x="14" y="-373.5" font-family="Helvetica,sans-Serif" font-size="10.00"> kMaxRecentColors</text>
<text text-anchor="start" x="4" y="-359" font-family="Helvetica,sans-Serif" font-size="10.00">+</text>
<text text-anchor="start" x="14" y="-359" font-family="Helvetica,sans-Serif" font-size="10.00">void AddRecentColor</text>
<text text-anchor="start" x="14" y="-348.5" font-family="Helvetica,sans-Serif" font-size="10.00">(const QColor &amp;color)</text>
<text text-anchor="start" x="4" y="-334" font-family="Helvetica,sans-Serif" font-size="10.00">+</text>
<text text-anchor="start" x="14" y="-334" font-family="Helvetica,sans-Serif" font-size="10.00">QMap&lt; QString, QKeySequence</text>
<text text-anchor="start" x="14" y="-323.5" font-family="Helvetica,sans-Serif" font-size="10.00"> &gt; GetAllShortcuts() const</text>
<text text-anchor="start" x="4" y="-309" font-family="Helvetica,sans-Serif" font-size="10.00">+</text>
<text text-anchor="start" x="14" y="-309" font-family="Helvetica,sans-Serif" font-size="10.00">QColor GetBackgroundColor</text>
<text text-anchor="start" x="14" y="-298.5" font-family="Helvetica,sans-Serif" font-size="10.00">() const</text>
<text text-anchor="start" x="4" y="-284" font-family="Helvetica,sans-Serif" font-size="10.00">+</text>
<text text-anchor="start" x="14" y="-284" font-family="Helvetica,sans-Serif" font-size="10.00">QColor GetBlobColor</text>
<text text-anchor="start" x="14" y="-273.5" font-family="Helvetica,sans-Serif" font-size="10.00">() const</text>
<text text-anchor="start" x="4" y="-259" font-family="Helvetica,sans-Serif" font-size="10.00">+</text>
<text text-anchor="start" x="14" y="-259" font-family="Helvetica,sans-Serif" font-size="10.00">int GetConnectionTimeout</text>
<text text-anchor="start" x="14" y="-248.5" font-family="Helvetica,sans-Serif" font-size="10.00">() const</text>
<text text-anchor="start" x="4" y="-234" font-family="Helvetica,sans-Serif" font-size="10.00">+</text>
<text text-anchor="start" x="14" y="-234" font-family="Helvetica,sans-Serif" font-size="10.00">QMap&lt; QString, QKeySequence</text>
<text text-anchor="start" x="14" y="-223.5" font-family="Helvetica,sans-Serif" font-size="10.00"> &gt; GetDefaultShortcutsMap</text>
<text text-anchor="start" x="14" y="-213" font-family="Helvetica,sans-Serif" font-size="10.00">() const</text>
<text text-anchor="start" x="4" y="-198.5" font-family="Helvetica,sans-Serif" font-size="10.00">+</text>
<text text-anchor="start" x="14" y="-198.5" font-family="Helvetica,sans-Serif" font-size="10.00">QColor GetGridColor</text>
<text text-anchor="start" x="14" y="-188" font-family="Helvetica,sans-Serif" font-size="10.00">() const</text>
<text text-anchor="start" x="4" y="-173.5" font-family="Helvetica,sans-Serif" font-size="10.00">+</text>
<text text-anchor="start" x="14" y="-173.5" font-family="Helvetica,sans-Serif" font-size="10.00">int GetGridSpacing</text>
<text text-anchor="start" x="14" y="-163" font-family="Helvetica,sans-Serif" font-size="10.00">() const</text>
<text text-anchor="start" x="4" y="-148.5" font-family="Helvetica,sans-Serif" font-size="10.00">+</text>
<text text-anchor="start" x="14" y="-148.5" font-family="Helvetica,sans-Serif" font-size="10.00">int GetKeepAliveInterval</text>
<text text-anchor="start" x="14" y="-138" font-family="Helvetica,sans-Serif" font-size="10.00">() const</text>
<text text-anchor="start" x="4" y="-123.5" font-family="Helvetica,sans-Serif" font-size="10.00">+</text>
<text text-anchor="start" x="14" y="-123.5" font-family="Helvetica,sans-Serif" font-size="10.00">QString GetLanguageCode</text>
<text text-anchor="start" x="14" y="-113" font-family="Helvetica,sans-Serif" font-size="10.00">() const</text>
<text text-anchor="start" x="14" y="-98.5" font-family="Helvetica,sans-Serif" font-size="10.00">and 35 more...</text>
<text text-anchor="start" x="4" y="-84" font-family="Helvetica,sans-Serif" font-size="10.00">+</text>
<text text-anchor="start" x="14" y="-84" font-family="Helvetica,sans-Serif" font-size="10.00">static WavelengthConfig</text>
<text text-anchor="start" x="14" y="-73.5" font-family="Helvetica,sans-Serif" font-size="10.00"> * GetInstance()</text>
<text text-anchor="start" x="5.5" y="-59" font-family="Helvetica,sans-Serif" font-size="10.00">&#45;</text>
<text text-anchor="start" x="14" y="-59" font-family="Helvetica,sans-Serif" font-size="10.00">void LoadDefaults()</text>
<text text-anchor="start" x="5.5" y="-44.5" font-family="Helvetica,sans-Serif" font-size="10.00">&#45;</text>
<text text-anchor="start" x="14" y="-44.5" font-family="Helvetica,sans-Serif" font-size="10.00">void LoadDefaultShortcuts()</text>
<text text-anchor="start" x="5.5" y="-30" font-family="Helvetica,sans-Serif" font-size="10.00">&#45;</text>
<text text-anchor="start" x="14" y="-30" font-family="Helvetica,sans-Serif" font-size="10.00">void LoadSettings()</text>
<text text-anchor="start" x="5.5" y="-15.5" font-family="Helvetica,sans-Serif" font-size="10.00">&#45;</text>
<text text-anchor="start" x="14" y="-15.5" font-family="Helvetica,sans-Serif" font-size="10.00">WavelengthConfig(QObject</text>
<text text-anchor="start" x="14" y="-5" font-family="Helvetica,sans-Serif" font-size="10.00"> *parent=nullptr)</text>
<polygon fill="#666666" stroke="#666666" points="0,-576 0,-576 159.75,-576 159.75,-576 0,-576"/>
<polygon fill="#666666" stroke="#666666" points="0,-370.5 0,-370.5 12,-370.5 12,-370.5 0,-370.5"/>
<polygon fill="#666666" stroke="#666666" points="12,-370.5 12,-370.5 159.75,-370.5 159.75,-370.5 12,-370.5"/>
<polygon fill="none" stroke="#666666" points="0,0 0,-592.5 159.75,-592.5 159.75,0 0,0"/>
</a>
</g>
</g>
<!-- Node1&#45;&gt;Node1 -->
<g id="edge2_Node000001_Node000001" class="edge">
<title>Node1&#45;&gt;Node1</title>
<g id="a_edge2_Node000001_Node000001"><a xlink:title=" ">
<path fill="none" stroke="#63b8ff" d="M159.37,-348.91C170.39,-340.24 177.75,-322.68 177.75,-296.25 177.75,-277.46 174.03,-263.15 167.92,-253.34"/>
<polygon fill="none" stroke="#63b8ff" points="167.88,-253.29 160.91,-251.41 159.96,-244.27 166.93,-246.14 167.88,-253.29"/>
</a>
</g>
<text text-anchor="middle" x="201.75" y="-292" font-family="Helvetica,sans-Serif" font-size="10.00" fill="grey"> &#45;instance_</text>
</g>
<!-- Node2 -->
<g id="Node000002" class="node">
<title>Node2</title>
<g id="a_Node000002"><a xlink:title=" ">
<polygon fill="white" stroke="none" points="101.88,-677 57.88,-677 57.88,-629.5 101.88,-629.5 101.88,-677"/>
<text text-anchor="start" x="61.88" y="-663.5" font-family="Helvetica,sans-Serif" font-size="10.00">QObject</text>
<text text-anchor="start" x="78.38" y="-649" font-family="Helvetica,sans-Serif" font-size="10.00"> </text>
<text text-anchor="start" x="78.38" y="-634.5" font-family="Helvetica,sans-Serif" font-size="10.00"> </text>
<polygon fill="#666666" stroke="#666666" points="57.88,-660.5 57.88,-660.5 101.88,-660.5 101.88,-660.5 57.88,-660.5"/>
<polygon fill="#666666" stroke="#666666" points="57.88,-646 57.88,-646 101.88,-646 101.88,-646 57.88,-646"/>
<polygon fill="none" stroke="#666666" points="57.88,-629.5 57.88,-677 101.88,-677 101.88,-629.5 57.88,-629.5"/>
</a>
</g>
</g>
<!-- Node2&#45;&gt;Node1 -->
<g id="edge1_Node000001_Node000002" class="edge">
<title>Node2&#45;&gt;Node1</title>
<g id="a_edge1_Node000001_Node000002"><a xlink:title=" ">
<path fill="none" stroke="#63b8ff" d="M79.88,-618.1C79.88,-610.5 79.88,-601.85 79.88,-592.39"/>
<polygon fill="none" stroke="#63b8ff" points="76.38,-617.99 79.88,-627.99 83.38,-617.99 76.38,-617.99"/>
</a>
</g>
</g>
</g>
</svg>

<g id="navigator" transform="translate(0 0)" fill="#404254">
  <rect fill="#f2f5e9" fill-opacity="0.5" stroke="#606060" stroke-width=".5" x="0" y="0" width="60" height="60"/>
  <use id="zoomplus" xlink:href="#zoomPlus" x="17" y="9" onmousedown="handleZoom(evt,'in')"/>
  <use id="zoomminus" xlink:href="#zoomMin" x="42" y="9" onmousedown="handleZoom(evt,'out')"/>
  <use id="reset" xlink:href="#resetDef" x="30" y="36" onmousedown="handleReset()"/>
   <use id="arrowup" xlink:href="#arrowUp" x="0" y="0" onmousedown="handlePan(0,-1)"/>
  <use id="arrowright" xlink:href="#arrowRight" x="0" y="0" onmousedown="handlePan(1,0)"/>
  <use id="arrowdown" xlink:href="#arrowDown" x="0" y="0" onmousedown="handlePan(0,1)"/>
  <use id="arrowleft" xlink:href="#arrowLeft" x="0" y="0" onmousedown="handlePan(-1,0)"/>
</g>
<svg viewBox="0 0 15 15" width="100%" height="30px" preserveAspectRatio="xMaxYMin meet">
 <g id="arrow_out" transform="scale(0.3 0.3)">
  <a xlink:href="classWavelengthConfig__coll__graph_org.svg" target="_base">
   <rect id="button" ry="5" rx="5" y="6" x="6" height="38" width="38"
        fill="#f2f5e9" fill-opacity="0.5" stroke="#606060" stroke-width="1.0"/>
   <path id="arrow"
     d="M 11.500037,31.436501 C 11.940474,20.09759 22.043105,11.32322 32.158766,21.979434 L 37.068811,17.246167 C 37.068811,17.246167 37.088388,32 37.088388,32 L 22.160133,31.978069 C 22.160133,31.978069 26.997745,27.140456 26.997745,27.140456 C 18.528582,18.264221 13.291696,25.230495 11.500037,31.436501 z"
     style="fill:#404040;"/>
  </a>
 </g>
</svg>

<style type='text/css'>
<![CDATA[
[data-mouse-over-selected='false'] { opacity: 0.7; }
[data-mouse-over-selected='true']  { opacity: 1.0; }
]]>
</style>
<script type="application/ecmascript"><![CDATA[
document.addEventListener('DOMContentLoaded', (event) => {
  highlightEdges();
  highlightAdjacentNodes();
});
]]></script>
</svg>
