<?xml version="1.0" encoding="UTF-8" standalone="no"?>
<!DOCTYPE svg PUBLIC "-//W3C//DTD SVG 1.1//EN"
 "http://www.w3.org/Graphics/SVG/1.1/DTD/svg11.dtd">
<!-- Generated by graphviz version 12.2.1 (0)
 -->
<!-- Title: MessageFormatter::FormatMessage Pages: 1 -->
<svg width="446pt" height="272pt"
 viewBox="0.00 0.00 446.00 272.00" xmlns="http://www.w3.org/2000/svg" xmlns:xlink="http://www.w3.org/1999/xlink">
<g id="graph0" class="graph" transform="scale(1 1) rotate(0) translate(4 268)">
<title>MessageFormatter::FormatMessage</title>
<!-- Node1 -->
<g id="Node000001" class="node">
<title>Node1</title>
<g id="a_Node000001"><a xlink:title="Formats a message represented by a JSON object into an HTML string.">
<polygon fill="#999999" stroke="#666666" points="134.5,-146 0,-146 0,-117 134.5,-117 134.5,-146"/>
<text text-anchor="start" x="8" y="-132.5" font-family="Helvetica,sans-Serif" font-size="10.00">MessageFormatter::Format</text>
<text text-anchor="middle" x="67.25" y="-122" font-family="Helvetica,sans-Serif" font-size="10.00">Message</text>
</a>
</g>
</g>
<!-- Node2 -->
<g id="Node000002" class="node">
<title>Node2</title>
<g id="a_Node000002"><a xlink:href="classAttachmentDataStore.html#a954fe97d063ada489bb0b29ad4f4f4e0" target="_top" xlink:title="Gets the singleton instance of the AttachmentDataStore.">
<polygon fill="white" stroke="#666666" points="283.25,-264 173.5,-264 173.5,-235 283.25,-235 283.25,-264"/>
<text text-anchor="start" x="181.5" y="-250.5" font-family="Helvetica,sans-Serif" font-size="10.00">AttachmentDataStore</text>
<text text-anchor="middle" x="228.38" y="-240" font-family="Helvetica,sans-Serif" font-size="10.00">::GetInstance</text>
</a>
</g>
</g>
<!-- Node1&#45;&gt;Node2 -->
<g id="edge1_Node000001_Node000002" class="edge">
<title>Node1&#45;&gt;Node2</title>
<g id="a_edge1_Node000001_Node000002"><a xlink:title=" ">
<path fill="none" stroke="#63b8ff" d="M81.11,-146.48C99.28,-166.88 134.31,-203.48 170.5,-226.5 172.11,-227.52 173.77,-228.51 175.46,-229.47"/>
<polygon fill="#63b8ff" stroke="#63b8ff" points="173.65,-232.48 184.14,-233.93 176.85,-226.25 173.65,-232.48"/>
</a>
</g>
</g>
<!-- Node4 -->
<g id="Node000004" class="node">
<title>Node4</title>
<g id="a_Node000004"><a xlink:href="classTranslationManager.html#a370292d4133519fccf401a6b27b2f6a6" target="_top" xlink:title="Returns an instance of the TranslationManager singleton.">
<polygon fill="white" stroke="#666666" points="278.75,-217 178,-217 178,-188 278.75,-188 278.75,-217"/>
<text text-anchor="start" x="186" y="-203.5" font-family="Helvetica,sans-Serif" font-size="10.00">TranslationManager</text>
<text text-anchor="middle" x="228.38" y="-193" font-family="Helvetica,sans-Serif" font-size="10.00">::GetInstance</text>
</a>
</g>
</g>
<!-- Node1&#45;&gt;Node4 -->
<g id="edge3_Node000001_Node000004" class="edge">
<title>Node1&#45;&gt;Node4</title>
<g id="a_edge3_Node000001_Node000004"><a xlink:title=" ">
<path fill="none" stroke="#63b8ff" d="M98.92,-146.43C119.13,-156.14 146.24,-168.91 170.5,-179.5 173.29,-180.72 176.16,-181.95 179.06,-183.17"/>
<polygon fill="#63b8ff" stroke="#63b8ff" points="177.65,-186.38 188.23,-186.99 180.34,-179.92 177.65,-186.38"/>
</a>
</g>
</g>
<!-- Node6 -->
<g id="Node000006" class="node">
<title>Node6</title>
<g id="a_Node000006"><a xlink:href="classWavelengthRegistry.html#a84a25c38915431306681e96df429f20f" target="_top" xlink:title="Gets the singleton instance of the WavelengthRegistry.">
<polygon fill="white" stroke="#666666" points="279.88,-170 176.88,-170 176.88,-141 279.88,-141 279.88,-170"/>
<text text-anchor="start" x="184.88" y="-156.5" font-family="Helvetica,sans-Serif" font-size="10.00">WavelengthRegistry</text>
<text text-anchor="middle" x="228.38" y="-146" font-family="Helvetica,sans-Serif" font-size="10.00">::GetInstance</text>
</a>
</g>
</g>
<!-- Node1&#45;&gt;Node6 -->
<g id="edge5_Node000001_Node000006" class="edge">
<title>Node1&#45;&gt;Node6</title>
<g id="a_edge5_Node000001_Node000006"><a xlink:title=" ">
<path fill="none" stroke="#63b8ff" d="M134.81,-141.54C144.96,-143.07 155.4,-144.64 165.44,-146.16"/>
<polygon fill="#63b8ff" stroke="#63b8ff" points="164.67,-149.58 175.08,-147.61 165.71,-142.66 164.67,-149.58"/>
</a>
</g>
</g>
<!-- Node8 -->
<g id="Node000008" class="node">
<title>Node8</title>
<g id="a_Node000008"><a xlink:href="classWavelengthRegistry.html#a022bb5799d095b75026019791ebf5e34" target="_top" xlink:title="Retrieves the WavelengthInfo for a specific frequency.">
<polygon fill="white" stroke="#666666" points="280.62,-123 176.12,-123 176.12,-94 280.62,-94 280.62,-123"/>
<text text-anchor="start" x="184.12" y="-109.5" font-family="Helvetica,sans-Serif" font-size="10.00">WavelengthRegistry</text>
<text text-anchor="middle" x="228.38" y="-99" font-family="Helvetica,sans-Serif" font-size="10.00">::GetWavelengthInfo</text>
</a>
</g>
</g>
<!-- Node1&#45;&gt;Node8 -->
<g id="edge7_Node000001_Node000008" class="edge">
<title>Node1&#45;&gt;Node8</title>
<g id="a_edge7_Node000001_Node000008"><a xlink:title=" ">
<path fill="none" stroke="#63b8ff" d="M134.81,-121.88C144.73,-120.45 154.92,-118.97 164.75,-117.55"/>
<polygon fill="#63b8ff" stroke="#63b8ff" points="165.19,-121.02 174.59,-116.13 164.19,-114.1 165.19,-121.02"/>
</a>
</g>
</g>
<!-- Node10 -->
<g id="Node000010" class="node">
<title>Node10</title>
<g id="a_Node000010"><a xlink:href="classAttachmentDataStore.html#ac114f937b0c790630349e1fbb35ef244" target="_top" xlink:title="Stores base64&#45;encoded attachment data and returns a unique ID. Generates a UUID for the attachment an...">
<polygon fill="white" stroke="#666666" points="286.25,-76 170.5,-76 170.5,-47 286.25,-47 286.25,-76"/>
<text text-anchor="start" x="178.5" y="-62.5" font-family="Helvetica,sans-Serif" font-size="10.00">AttachmentDataStore</text>
<text text-anchor="middle" x="228.38" y="-52" font-family="Helvetica,sans-Serif" font-size="10.00">::StoreAttachmentData</text>
</a>
</g>
</g>
<!-- Node1&#45;&gt;Node10 -->
<g id="edge9_Node000001_Node000010" class="edge">
<title>Node1&#45;&gt;Node10</title>
<g id="a_edge9_Node000001_Node000010"><a xlink:title=" ">
<path fill="none" stroke="#63b8ff" d="M100.86,-116.6C120.9,-107.5 147.12,-95.69 170.5,-85.5 173.89,-84.02 177.4,-82.51 180.93,-80.99"/>
<polygon fill="#63b8ff" stroke="#63b8ff" points="182.3,-84.21 190.13,-77.07 179.56,-77.77 182.3,-84.21"/>
</a>
</g>
</g>
<!-- Node11 -->
<g id="Node000011" class="node">
<title>Node11</title>
<g id="a_Node000011"><a xlink:href="classTranslationManager.html#ab6435893ce84a82ab11a7604aa9746d6" target="_top" xlink:title="Retrieves the translated string for the specified key.">
<polygon fill="white" stroke="#666666" points="278.75,-29 178,-29 178,0 278.75,0 278.75,-29"/>
<text text-anchor="start" x="186" y="-15.5" font-family="Helvetica,sans-Serif" font-size="10.00">TranslationManager</text>
<text text-anchor="middle" x="228.38" y="-5" font-family="Helvetica,sans-Serif" font-size="10.00">::Translate</text>
</a>
</g>
</g>
<!-- Node1&#45;&gt;Node11 -->
<g id="edge10_Node000001_Node000011" class="edge">
<title>Node1&#45;&gt;Node11</title>
<g id="a_edge10_Node000001_Node000011"><a xlink:title=" ">
<path fill="none" stroke="#63b8ff" d="M81.54,-116.59C99.93,-96.67 134.91,-61.24 170.5,-38.5 172.59,-37.16 174.77,-35.87 177,-34.63"/>
<polygon fill="#63b8ff" stroke="#63b8ff" points="178.38,-37.86 185.69,-30.19 175.19,-31.62 178.38,-37.86"/>
</a>
</g>
</g>
<!-- Node3 -->
<g id="Node000003" class="node">
<title>Node3</title>
<g id="a_Node000003"><a xlink:href="classAttachmentDataStore.html#a8eaf2333a11d901e4d62a0a7c9f4c2c4" target="_top" xlink:title="Private default constructor to enforce the singleton pattern.">
<polygon fill="white" stroke="#666666" points="438,-264 322.25,-264 322.25,-235 438,-235 438,-264"/>
<text text-anchor="start" x="330.25" y="-250.5" font-family="Helvetica,sans-Serif" font-size="10.00">AttachmentDataStore</text>
<text text-anchor="middle" x="380.12" y="-240" font-family="Helvetica,sans-Serif" font-size="10.00">::AttachmentDataStore</text>
</a>
</g>
</g>
<!-- Node2&#45;&gt;Node3 -->
<g id="edge2_Node000002_Node000003" class="edge">
<title>Node2&#45;&gt;Node3</title>
<g id="a_edge2_Node000002_Node000003"><a xlink:title=" ">
<path fill="none" stroke="#63b8ff" d="M283.44,-249.5C292.22,-249.5 301.41,-249.5 310.48,-249.5"/>
<polygon fill="#63b8ff" stroke="#63b8ff" points="310.34,-253 320.34,-249.5 310.34,-246 310.34,-253"/>
</a>
</g>
</g>
<!-- Node5 -->
<g id="Node000005" class="node">
<title>Node5</title>
<g id="a_Node000005"><a xlink:href="classTranslationManager.html#afcf7f2ccfdf410f09d0a740c1826a1f3" target="_top" xlink:title="Private constructor to enforce the singleton pattern.">
<polygon fill="white" stroke="#666666" points="433.5,-217 326.75,-217 326.75,-188 433.5,-188 433.5,-217"/>
<text text-anchor="start" x="334.75" y="-203.5" font-family="Helvetica,sans-Serif" font-size="10.00">TranslationManager</text>
<text text-anchor="middle" x="380.12" y="-193" font-family="Helvetica,sans-Serif" font-size="10.00">::TranslationManager</text>
</a>
</g>
</g>
<!-- Node4&#45;&gt;Node5 -->
<g id="edge4_Node000004_Node000005" class="edge">
<title>Node4&#45;&gt;Node5</title>
<g id="a_edge4_Node000004_Node000005"><a xlink:title=" ">
<path fill="none" stroke="#63b8ff" d="M279.24,-202.5C290.72,-202.5 303.08,-202.5 315.06,-202.5"/>
<polygon fill="#63b8ff" stroke="#63b8ff" points="314.88,-206 324.88,-202.5 314.88,-199 314.88,-206"/>
</a>
</g>
</g>
<!-- Node7 -->
<g id="Node000007" class="node">
<title>Node7</title>
<g id="a_Node000007"><a xlink:href="classWavelengthRegistry.html#a5ad0b9c059e6c70af54fd27e35035e64" target="_top" xlink:title="Private constructor to enforce the singleton pattern. Initializes active_wavelength_ to &quot;&#45;1&quot;.">
<polygon fill="white" stroke="#666666" points="434.62,-170 325.62,-170 325.62,-141 434.62,-141 434.62,-170"/>
<text text-anchor="start" x="333.62" y="-156.5" font-family="Helvetica,sans-Serif" font-size="10.00">WavelengthRegistry</text>
<text text-anchor="middle" x="380.12" y="-146" font-family="Helvetica,sans-Serif" font-size="10.00">::WavelengthRegistry</text>
</a>
</g>
</g>
<!-- Node6&#45;&gt;Node7 -->
<g id="edge6_Node000006_Node000007" class="edge">
<title>Node6&#45;&gt;Node7</title>
<g id="a_edge6_Node000006_Node000007"><a xlink:title=" ">
<path fill="none" stroke="#63b8ff" d="M280.07,-155.5C290.96,-155.5 302.6,-155.5 313.94,-155.5"/>
<polygon fill="#63b8ff" stroke="#63b8ff" points="313.63,-159 323.63,-155.5 313.63,-152 313.63,-159"/>
</a>
</g>
</g>
<!-- Node9 -->
<g id="Node000009" class="node">
<title>Node9</title>
<g id="a_Node000009"><a xlink:href="classWavelengthRegistry.html#a998a355d30053edcff8aac04c7d7dc55" target="_top" xlink:title="Checks if a wavelength with the given frequency exists in the registry.">
<polygon fill="white" stroke="#666666" points="431.62,-123 328.62,-123 328.62,-94 431.62,-94 431.62,-123"/>
<text text-anchor="start" x="336.62" y="-109.5" font-family="Helvetica,sans-Serif" font-size="10.00">WavelengthRegistry</text>
<text text-anchor="middle" x="380.12" y="-99" font-family="Helvetica,sans-Serif" font-size="10.00">::HasWavelength</text>
</a>
</g>
</g>
<!-- Node8&#45;&gt;Node9 -->
<g id="edge8_Node000008_Node000009" class="edge">
<title>Node8&#45;&gt;Node9</title>
<g id="a_edge8_Node000008_Node000009"><a xlink:title=" ">
<path fill="none" stroke="#63b8ff" d="M280.91,-108.5C292.52,-108.5 304.95,-108.5 316.94,-108.5"/>
<polygon fill="#63b8ff" stroke="#63b8ff" points="316.74,-112 326.74,-108.5 316.74,-105 316.74,-112"/>
</a>
</g>
</g>
</g>
</svg>
