<?xml version="1.0" encoding="UTF-8" standalone="no"?>
<!DOCTYPE svg PUBLIC "-//W3C//DTD SVG 1.1//EN"
 "http://www.w3.org/Graphics/SVG/1.1/DTD/svg11.dtd">
<!-- Generated by graphviz version 12.2.1 (0)
 -->
<!-- Title: MessageProcessor::ProcessSystemCommand Pages: 1 -->
<svg width="718pt" height="74pt"
 viewBox="0.00 0.00 717.75 73.75" xmlns="http://www.w3.org/2000/svg" xmlns:xlink="http://www.w3.org/1999/xlink">
<g id="graph0" class="graph" transform="scale(1 1) rotate(0) translate(4 69.75)">
<title>MessageProcessor::ProcessSystemCommand</title>
<!-- Node1 -->
<g id="Node000001" class="node">
<title>Node1</title>
<g id="a_Node000001"><a xlink:title="Processes messages of type &quot;system_command&quot;. Handles commands like &quot;ping&quot;, &quot;close_wavelength&quot;,...">
<polygon fill="#999999" stroke="#666666" points="709.75,-44.75 567.75,-44.75 567.75,-15.75 709.75,-15.75 709.75,-44.75"/>
<text text-anchor="start" x="575.75" y="-31.25" font-family="Helvetica,sans-Serif" font-size="10.00">MessageProcessor::Process</text>
<text text-anchor="middle" x="638.75" y="-20.75" font-family="Helvetica,sans-Serif" font-size="10.00">SystemCommand</text>
</a>
</g>
</g>
<!-- Node2 -->
<g id="Node000002" class="node">
<title>Node2</title>
<g id="a_Node000002"><a xlink:href="classMessageProcessor.html#abdfefd4e6d33731ee50463441ea1a368" target="_top" xlink:title="Processes an incoming text message (JSON) received from the WebSocket. Parses the JSON,...">
<polygon fill="white" stroke="#666666" points="531.75,-44.75 389.75,-44.75 389.75,-15.75 531.75,-15.75 531.75,-44.75"/>
<text text-anchor="start" x="397.75" y="-31.25" font-family="Helvetica,sans-Serif" font-size="10.00">MessageProcessor::Process</text>
<text text-anchor="middle" x="460.75" y="-20.75" font-family="Helvetica,sans-Serif" font-size="10.00">IncomingMessage</text>
</a>
</g>
</g>
<!-- Node1&#45;&gt;Node2 -->
<g id="edge1_Node000001_Node000002" class="edge">
<title>Node1&#45;&gt;Node2</title>
<g id="a_edge1_Node000001_Node000002"><a xlink:title=" ">
<path fill="none" stroke="#63b8ff" d="M555.92,-30.25C548.01,-30.25 540.03,-30.25 532.24,-30.25"/>
<polygon fill="#63b8ff" stroke="#63b8ff" points="555.92,-33.75 565.92,-30.25 555.92,-26.75 555.92,-33.75"/>
</a>
</g>
</g>
<!-- Node3 -->
<g id="Node000003" class="node">
<title>Node3</title>
<g id="a_Node000003"><a xlink:href="classMessageProcessor.html#ae0f85d4a5a3c92b0873e7889dfb79862" target="_top" xlink:title="Connects the appropriate slots of this processor to the signals of a given QWebSocket....">
<polygon fill="white" stroke="#666666" points="353.75,-44.75 202.75,-44.75 202.75,-15.75 353.75,-15.75 353.75,-44.75"/>
<text text-anchor="start" x="210.75" y="-31.25" font-family="Helvetica,sans-Serif" font-size="10.00">MessageProcessor::SetSocket</text>
<text text-anchor="middle" x="278.25" y="-20.75" font-family="Helvetica,sans-Serif" font-size="10.00">MessageHandlers</text>
</a>
</g>
</g>
<!-- Node2&#45;&gt;Node3 -->
<g id="edge2_Node000002_Node000003" class="edge">
<title>Node2&#45;&gt;Node3</title>
<g id="a_edge2_Node000002_Node000003"><a xlink:title=" ">
<path fill="none" stroke="#63b8ff" d="M378.2,-30.25C370.19,-30.25 362.08,-30.25 354.13,-30.25"/>
<polygon fill="#63b8ff" stroke="#63b8ff" points="377.93,-33.75 387.93,-30.25 377.93,-26.75 377.93,-33.75"/>
</a>
</g>
</g>
<!-- Node4 -->
<g id="Node000004" class="node">
<title>Node4</title>
<g id="a_Node000004"><a xlink:href="classWavelengthCreator.html#aceda419aab0bae7f3323bedfcb0ad6d1" target="_top" xlink:title="Attempts to create and register a new wavelength with the relay server. Checks if the wavelength alre...">
<polygon fill="#fff0f0" stroke="red" points="135.62,-65.75 31.12,-65.75 31.12,-36.75 135.62,-36.75 135.62,-65.75"/>
<text text-anchor="start" x="39.12" y="-52.25" font-family="Helvetica,sans-Serif" font-size="10.00">WavelengthCreator::</text>
<text text-anchor="middle" x="83.38" y="-41.75" font-family="Helvetica,sans-Serif" font-size="10.00">CreateWavelength</text>
</a>
</g>
</g>
<!-- Node3&#45;&gt;Node4 -->
<g id="edge3_Node000003_Node000004" class="edge">
<title>Node3&#45;&gt;Node4</title>
<g id="a_edge3_Node000003_Node000004"><a xlink:title=" ">
<path fill="none" stroke="#63b8ff" d="M191.09,-39.63C172.25,-41.68 152.89,-43.79 135.91,-45.64"/>
<polygon fill="#63b8ff" stroke="#63b8ff" points="191.34,-43.12 200.9,-38.56 190.58,-36.17 191.34,-43.12"/>
</a>
</g>
</g>
<!-- Node6 -->
<g id="Node000006" class="node">
<title>Node6</title>
<g id="a_Node000006"><a xlink:href="classWavelengthJoiner.html#a10830ee7f998cc18b6df1949455ae98e" target="_top" xlink:title="Attempts to join an existing wavelength hosted on the relay server. Checks if the wavelength is alrea...">
<polygon fill="#fff0f0" stroke="red" points="166.75,-18.5 0,-18.5 0,0 166.75,0 166.75,-18.5"/>
<text text-anchor="middle" x="83.38" y="-5" font-family="Helvetica,sans-Serif" font-size="10.00">WavelengthJoiner::JoinWavelength</text>
</a>
</g>
</g>
<!-- Node3&#45;&gt;Node6 -->
<g id="edge4_Node000003_Node000006" class="edge">
<title>Node3&#45;&gt;Node6</title>
<g id="a_edge4_Node000003_Node000006"><a xlink:title=" ">
<path fill="none" stroke="#63b8ff" d="M191.2,-20.88C183.22,-20.01 175.14,-19.13 167.18,-18.27"/>
<polygon fill="#63b8ff" stroke="#63b8ff" points="190.58,-24.33 200.9,-21.94 191.34,-17.38 190.58,-24.33"/>
</a>
</g>
</g>
</g>
</svg>
