<?xml version="1.0" encoding="UTF-8" standalone="no"?>
<!DOCTYPE svg PUBLIC "-//W3C//DTD SVG 1.1//EN"
 "http://www.w3.org/Graphics/SVG/1.1/DTD/svg11.dtd">
<!-- Generated by graphviz version 12.2.1 (0)
 -->
<!-- Title: MessageProcessor::GetInstance Pages: 1 -->
<svg width="672pt" height="178pt"
 viewBox="0.00 0.00 672.00 178.00" xmlns="http://www.w3.org/2000/svg" xmlns:xlink="http://www.w3.org/1999/xlink">
<g id="graph0" class="graph" transform="scale(1 1) rotate(0) translate(4 174)">
<title>MessageProcessor::GetInstance</title>
<!-- Node1 -->
<g id="Node000001" class="node">
<title>Node1</title>
<g id="a_Node000001"><a xlink:title="Gets the singleton instance of the MessageProcessor.">
<polygon fill="#999999" stroke="#666666" points="664,-117.75 504.75,-117.75 504.75,-99.25 664,-99.25 664,-117.75"/>
<text text-anchor="middle" x="584.38" y="-104.25" font-family="Helvetica,sans-Serif" font-size="10.00">MessageProcessor::GetInstance</text>
</a>
</g>
</g>
<!-- Node2 -->
<g id="Node000002" class="node">
<title>Node2</title>
<g id="a_Node000002"><a xlink:href="classSessionCoordinator.html#a0a388bb572398d11b8959eac0a8e612f" target="_top" xlink:title="Connects signals between the various Wavelength components. Called during Initialize().">
<polygon fill="white" stroke="#666666" points="436.12,-170 334.62,-170 334.62,-141 436.12,-141 436.12,-170"/>
<text text-anchor="start" x="342.62" y="-156.5" font-family="Helvetica,sans-Serif" font-size="10.00">SessionCoordinator</text>
<text text-anchor="middle" x="385.38" y="-146" font-family="Helvetica,sans-Serif" font-size="10.00">::ConnectSignals</text>
</a>
</g>
</g>
<!-- Node1&#45;&gt;Node2 -->
<g id="edge1_Node000001_Node000002" class="edge">
<title>Node1&#45;&gt;Node2</title>
<g id="a_edge1_Node000001_Node000002"><a xlink:title=" ">
<path fill="none" stroke="#63b8ff" d="M531.68,-120.83C502.31,-127.84 465.71,-136.57 436.59,-143.52"/>
<polygon fill="#63b8ff" stroke="#63b8ff" points="532.17,-124.31 541.08,-118.59 530.54,-117.51 532.17,-124.31"/>
</a>
</g>
</g>
<!-- Node4 -->
<g id="Node000004" class="node">
<title>Node4</title>
<g id="a_Node000004"><a xlink:href="classWavelengthCreator.html#aceda419aab0bae7f3323bedfcb0ad6d1" target="_top" xlink:title="Attempts to create and register a new wavelength with the relay server. Checks if the wavelength alre...">
<polygon fill="white" stroke="#666666" points="437.62,-123 333.12,-123 333.12,-94 437.62,-94 437.62,-123"/>
<text text-anchor="start" x="341.12" y="-109.5" font-family="Helvetica,sans-Serif" font-size="10.00">WavelengthCreator::</text>
<text text-anchor="middle" x="385.38" y="-99" font-family="Helvetica,sans-Serif" font-size="10.00">CreateWavelength</text>
</a>
</g>
</g>
<!-- Node1&#45;&gt;Node4 -->
<g id="edge3_Node000001_Node000004" class="edge">
<title>Node1&#45;&gt;Node4</title>
<g id="a_edge3_Node000001_Node000004"><a xlink:title=" ">
<path fill="none" stroke="#63b8ff" d="M493.01,-108.5C474.12,-108.5 454.83,-108.5 437.94,-108.5"/>
<polygon fill="#63b8ff" stroke="#63b8ff" points="492.87,-112 502.87,-108.5 492.87,-105 492.87,-112"/>
</a>
</g>
</g>
<!-- Node6 -->
<g id="Node000006" class="node">
<title>Node6</title>
<g id="a_Node000006"><a xlink:href="classWavelengthJoiner.html#a10830ee7f998cc18b6df1949455ae98e" target="_top" xlink:title="Attempts to join an existing wavelength hosted on the relay server. Checks if the wavelength is alrea...">
<polygon fill="white" stroke="#666666" points="468.75,-70.75 302,-70.75 302,-52.25 468.75,-52.25 468.75,-70.75"/>
<text text-anchor="middle" x="385.38" y="-57.25" font-family="Helvetica,sans-Serif" font-size="10.00">WavelengthJoiner::JoinWavelength</text>
</a>
</g>
</g>
<!-- Node1&#45;&gt;Node6 -->
<g id="edge5_Node000001_Node000006" class="edge">
<title>Node1&#45;&gt;Node6</title>
<g id="a_edge5_Node000001_Node000006"><a xlink:title=" ">
<path fill="none" stroke="#63b8ff" d="M531.42,-96.11C498.82,-88.33 457.37,-78.44 427.14,-71.23"/>
<polygon fill="#63b8ff" stroke="#63b8ff" points="530.54,-99.49 541.08,-98.41 532.17,-92.69 530.54,-99.49"/>
</a>
</g>
</g>
<!-- Node3 -->
<g id="Node000003" class="node">
<title>Node3</title>
<g id="a_Node000003"><a xlink:href="classSessionCoordinator.html#a34a0ef1f02508f6cfd0b8d60164be83a" target="_top" xlink:title="Initializes the coordinator and its underlying components. Connects signals between various Wavelengt...">
<polygon fill="white" stroke="#666666" points="260.75,-170 159.25,-170 159.25,-141 260.75,-141 260.75,-170"/>
<text text-anchor="start" x="167.25" y="-156.5" font-family="Helvetica,sans-Serif" font-size="10.00">SessionCoordinator</text>
<text text-anchor="middle" x="210" y="-146" font-family="Helvetica,sans-Serif" font-size="10.00">::Initialize</text>
</a>
</g>
</g>
<!-- Node2&#45;&gt;Node3 -->
<g id="edge2_Node000002_Node000003" class="edge">
<title>Node2&#45;&gt;Node3</title>
<g id="a_edge2_Node000002_Node000003"><a xlink:title=" ">
<path fill="none" stroke="#63b8ff" d="M322.89,-155.5C302.62,-155.5 280.34,-155.5 261.03,-155.5"/>
<polygon fill="#63b8ff" stroke="#63b8ff" points="322.71,-159 332.71,-155.5 322.71,-152 322.71,-159"/>
</a>
</g>
</g>
<!-- Node5 -->
<g id="Node000005" class="node">
<title>Node5</title>
<g id="a_Node000005"><a xlink:href="classSessionCoordinator.html#ad439996ffc2f1a6fc57835502c69ce7d" target="_top" xlink:title="Initiates the creation of a new wavelength. Delegates the call to WavelengthCreator and registers the...">
<polygon fill="white" stroke="#666666" points="260.75,-123 159.25,-123 159.25,-94 260.75,-94 260.75,-123"/>
<text text-anchor="start" x="167.25" y="-109.5" font-family="Helvetica,sans-Serif" font-size="10.00">SessionCoordinator</text>
<text text-anchor="middle" x="210" y="-99" font-family="Helvetica,sans-Serif" font-size="10.00">::CreateWavelength</text>
</a>
</g>
</g>
<!-- Node4&#45;&gt;Node5 -->
<g id="edge4_Node000004_Node000005" class="edge">
<title>Node4&#45;&gt;Node5</title>
<g id="a_edge4_Node000004_Node000005"><a xlink:title=" ">
<path fill="none" stroke="#63b8ff" d="M321.4,-108.5C301.58,-108.5 279.96,-108.5 261.16,-108.5"/>
<polygon fill="#63b8ff" stroke="#63b8ff" points="321.31,-112 331.31,-108.5 321.31,-105 321.31,-112"/>
</a>
</g>
</g>
<!-- Node7 -->
<g id="Node000007" class="node">
<title>Node7</title>
<g id="a_Node000007"><a xlink:href="classSessionCoordinator.html#a78a62f7f321920c128757ee20568a972" target="_top" xlink:title="Initiates joining an existing wavelength. Delegates the call to WavelengthJoiner and registers the wa...">
<polygon fill="white" stroke="#666666" points="260.75,-76 159.25,-76 159.25,-47 260.75,-47 260.75,-76"/>
<text text-anchor="start" x="167.25" y="-62.5" font-family="Helvetica,sans-Serif" font-size="10.00">SessionCoordinator</text>
<text text-anchor="middle" x="210" y="-52" font-family="Helvetica,sans-Serif" font-size="10.00">::JoinWavelength</text>
</a>
</g>
</g>
<!-- Node6&#45;&gt;Node7 -->
<g id="edge6_Node000006_Node000007" class="edge">
<title>Node6&#45;&gt;Node7</title>
<g id="a_edge6_Node000006_Node000007"><a xlink:title=" ">
<path fill="none" stroke="#63b8ff" d="M290.3,-61.5C280.18,-61.5 270.2,-61.5 260.91,-61.5"/>
<polygon fill="#63b8ff" stroke="#63b8ff" points="290.24,-65 300.24,-61.5 290.24,-58 290.24,-65"/>
</a>
</g>
</g>
<!-- Node8 -->
<g id="Node000008" class="node">
<title>Node8</title>
<g id="a_Node000008"><a xlink:href="classJoinWavelengthDialog.html#a0cb74ecdcc726cea2ce437c85cd75185" target="_top" xlink:title="Attempts to join the wavelength using the entered frequency and password. Shows a wait cursor,...">
<polygon fill="white" stroke="#666666" points="266,-29 154,-29 154,0 266,0 266,-29"/>
<text text-anchor="start" x="162" y="-15.5" font-family="Helvetica,sans-Serif" font-size="10.00">JoinWavelengthDialog</text>
<text text-anchor="middle" x="210" y="-5" font-family="Helvetica,sans-Serif" font-size="10.00">::TryJoin</text>
</a>
</g>
</g>
<!-- Node6&#45;&gt;Node8 -->
<g id="edge7_Node000006_Node000008" class="edge">
<title>Node6&#45;&gt;Node8</title>
<g id="a_edge7_Node000006_Node000008"><a xlink:title=" ">
<path fill="none" stroke="#63b8ff" d="M337.37,-48.76C315.34,-42.79 288.96,-35.63 266.01,-29.41"/>
<polygon fill="#63b8ff" stroke="#63b8ff" points="336.42,-52.13 346.99,-51.37 338.25,-45.37 336.42,-52.13"/>
</a>
</g>
</g>
<!-- Node9 -->
<g id="Node000009" class="node">
<title>Node9</title>
<g id="a_Node000009"><a xlink:href="classJoinWavelengthDialog.html#a22f6a3f4da1054f306ee566edf3f2d74" target="_top" xlink:title="Constructs a JoinWavelengthDialog. Sets up the UI elements (labels, input fields, buttons),...">
<polygon fill="white" stroke="#666666" points="118,-29 0,-29 0,0 118,0 118,-29"/>
<text text-anchor="start" x="8" y="-15.5" font-family="Helvetica,sans-Serif" font-size="10.00">JoinWavelengthDialog</text>
<text text-anchor="middle" x="59" y="-5" font-family="Helvetica,sans-Serif" font-size="10.00">::JoinWavelengthDialog</text>
</a>
</g>
</g>
<!-- Node8&#45;&gt;Node9 -->
<g id="edge8_Node000008_Node000009" class="edge">
<title>Node8&#45;&gt;Node9</title>
<g id="a_edge8_Node000008_Node000009"><a xlink:title=" ">
<path fill="none" stroke="#63b8ff" d="M142.03,-14.5C134.1,-14.5 126.06,-14.5 118.27,-14.5"/>
<polygon fill="#63b8ff" stroke="#63b8ff" points="142,-18 152,-14.5 142,-11 142,-18"/>
</a>
</g>
</g>
</g>
</svg>
