<?xml version="1.0" encoding="UTF-8" standalone="no"?>
<!DOCTYPE svg PUBLIC "-//W3C//DTD SVG 1.1//EN"
 "http://www.w3.org/Graphics/SVG/1.1/DTD/svg11.dtd">
<!-- Generated by graphviz version 12.2.1 (0)
 -->
<!-- Title: NetworkSettingsWidget::NetworkSettingsWidget Pages: 1 -->
<svg width="569pt" height="107pt"
 viewBox="0.00 0.00 568.50 107.00" xmlns="http://www.w3.org/2000/svg" xmlns:xlink="http://www.w3.org/1999/xlink">
<g id="graph0" class="graph" transform="scale(1 1) rotate(0) translate(4 103)">
<title>NetworkSettingsWidget::NetworkSettingsWidget</title>
<!-- Node1 -->
<g id="Node000001" class="node">
<title>Node1</title>
<g id="a_Node000001"><a xlink:title="Constructs the NetworkSettingsWidget. Initializes the UI, loads current settings from WavelengthConfi...">
<polygon fill="#999999" stroke="#666666" points="125.5,-75 0,-75 0,-46 125.5,-46 125.5,-75"/>
<text text-anchor="start" x="8" y="-61.5" font-family="Helvetica,sans-Serif" font-size="10.00">NetworkSettingsWidget</text>
<text text-anchor="middle" x="62.75" y="-51" font-family="Helvetica,sans-Serif" font-size="10.00">::NetworkSettingsWidget</text>
</a>
</g>
</g>
<!-- Node2 -->
<g id="Node000002" class="node">
<title>Node2</title>
<g id="a_Node000002"><a xlink:href="classNetworkSettingsWidget.html#a59f03f932d0b8d943b3ed6f392a9f911" target="_top" xlink:title="Loads the current network settings from WavelengthConfig and updates the UI elements.">
<polygon fill="white" stroke="#666666" points="281,-99 161.5,-99 161.5,-70 281,-70 281,-99"/>
<text text-anchor="start" x="169.5" y="-85.5" font-family="Helvetica,sans-Serif" font-size="10.00">NetworkSettingsWidget</text>
<text text-anchor="middle" x="221.25" y="-75" font-family="Helvetica,sans-Serif" font-size="10.00">::LoadSettings</text>
</a>
</g>
</g>
<!-- Node1&#45;&gt;Node2 -->
<g id="edge1_Node000001_Node000002" class="edge">
<title>Node1&#45;&gt;Node2</title>
<g id="a_edge1_Node000001_Node000002"><a xlink:title=" ">
<path fill="none" stroke="#63b8ff" d="M125.6,-69.99C133.56,-71.21 141.75,-72.46 149.83,-73.7"/>
<polygon fill="#63b8ff" stroke="#63b8ff" points="149.23,-77.15 159.65,-75.21 150.29,-70.23 149.23,-77.15"/>
</a>
</g>
</g>
<!-- Node3 -->
<g id="Node000003" class="node">
<title>Node3</title>
<g id="a_Node000003"><a xlink:href="classNetworkSettingsWidget.html#a3961ca9db7ae5a6ef6c10072f47f5c1b" target="_top" xlink:title="Creates and arranges all the UI elements (labels, inputs, layouts) for the widget.">
<polygon fill="white" stroke="#666666" points="281,-52 161.5,-52 161.5,-23 281,-23 281,-52"/>
<text text-anchor="start" x="169.5" y="-38.5" font-family="Helvetica,sans-Serif" font-size="10.00">NetworkSettingsWidget</text>
<text text-anchor="middle" x="221.25" y="-28" font-family="Helvetica,sans-Serif" font-size="10.00">::SetupUi</text>
</a>
</g>
</g>
<!-- Node1&#45;&gt;Node3 -->
<g id="edge2_Node000001_Node000003" class="edge">
<title>Node1&#45;&gt;Node3</title>
<g id="a_edge2_Node000001_Node000003"><a xlink:title=" ">
<path fill="none" stroke="#63b8ff" d="M125.6,-51.41C133.56,-50.24 141.75,-49.04 149.83,-47.85"/>
<polygon fill="#63b8ff" stroke="#63b8ff" points="150.26,-51.32 159.65,-46.41 149.24,-44.4 150.26,-51.32"/>
</a>
</g>
</g>
<!-- Node4 -->
<g id="Node000004" class="node">
<title>Node4</title>
<g id="a_Node000004"><a xlink:href="classTranslationManager.html#a370292d4133519fccf401a6b27b2f6a6" target="_top" xlink:title="Returns an instance of the TranslationManager singleton.">
<polygon fill="white" stroke="#666666" points="417.75,-76 317,-76 317,-47 417.75,-47 417.75,-76"/>
<text text-anchor="start" x="325" y="-62.5" font-family="Helvetica,sans-Serif" font-size="10.00">TranslationManager</text>
<text text-anchor="middle" x="367.38" y="-52" font-family="Helvetica,sans-Serif" font-size="10.00">::GetInstance</text>
</a>
</g>
</g>
<!-- Node3&#45;&gt;Node4 -->
<g id="edge3_Node000003_Node000004" class="edge">
<title>Node3&#45;&gt;Node4</title>
<g id="a_edge3_Node000003_Node000004"><a xlink:title=" ">
<path fill="none" stroke="#63b8ff" d="M281.29,-47.33C289.32,-48.67 297.57,-50.04 305.63,-51.39"/>
<polygon fill="#63b8ff" stroke="#63b8ff" points="304.93,-54.82 315.36,-53.01 306.08,-47.91 304.93,-54.82"/>
</a>
</g>
</g>
<!-- Node6 -->
<g id="Node000006" class="node">
<title>Node6</title>
<g id="a_Node000006"><a xlink:href="classTranslationManager.html#ab6435893ce84a82ab11a7604aa9746d6" target="_top" xlink:title="Retrieves the translated string for the specified key.">
<polygon fill="white" stroke="#666666" points="417.75,-29 317,-29 317,0 417.75,0 417.75,-29"/>
<text text-anchor="start" x="325" y="-15.5" font-family="Helvetica,sans-Serif" font-size="10.00">TranslationManager</text>
<text text-anchor="middle" x="367.38" y="-5" font-family="Helvetica,sans-Serif" font-size="10.00">::Translate</text>
</a>
</g>
</g>
<!-- Node3&#45;&gt;Node6 -->
<g id="edge5_Node000003_Node000006" class="edge">
<title>Node3&#45;&gt;Node6</title>
<g id="a_edge5_Node000003_Node000006"><a xlink:title=" ">
<path fill="none" stroke="#63b8ff" d="M281.29,-28.08C289.32,-26.8 297.57,-25.48 305.63,-24.19"/>
<polygon fill="#63b8ff" stroke="#63b8ff" points="306.04,-27.67 315.36,-22.64 304.94,-20.76 306.04,-27.67"/>
</a>
</g>
</g>
<!-- Node5 -->
<g id="Node000005" class="node">
<title>Node5</title>
<g id="a_Node000005"><a xlink:href="classTranslationManager.html#afcf7f2ccfdf410f09d0a740c1826a1f3" target="_top" xlink:title="Private constructor to enforce the singleton pattern.">
<polygon fill="white" stroke="#666666" points="560.5,-76 453.75,-76 453.75,-47 560.5,-47 560.5,-76"/>
<text text-anchor="start" x="461.75" y="-62.5" font-family="Helvetica,sans-Serif" font-size="10.00">TranslationManager</text>
<text text-anchor="middle" x="507.12" y="-52" font-family="Helvetica,sans-Serif" font-size="10.00">::TranslationManager</text>
</a>
</g>
</g>
<!-- Node4&#45;&gt;Node5 -->
<g id="edge4_Node000004_Node000005" class="edge">
<title>Node4&#45;&gt;Node5</title>
<g id="a_edge4_Node000004_Node000005"><a xlink:title=" ">
<path fill="none" stroke="#63b8ff" d="M418.11,-61.5C425.96,-61.5 434.18,-61.5 442.3,-61.5"/>
<polygon fill="#63b8ff" stroke="#63b8ff" points="442.17,-65 452.17,-61.5 442.17,-58 442.17,-65"/>
</a>
</g>
</g>
</g>
</svg>
