<?xml version="1.0" encoding="UTF-8" standalone="no"?>
<!DOCTYPE svg PUBLIC "-//W3C//DTD SVG 1.1//EN"
 "http://www.w3.org/Graphics/SVG/1.1/DTD/svg11.dtd">
<!-- Generated by graphviz version 12.2.1 (0)
 -->
<!-- Title: VoiceRecognitionLayer Pages: 1 -->
<svg width="378pt" height="954pt"
 viewBox="0.00 0.00 377.88 954.00" xmlns="http://www.w3.org/2000/svg" xmlns:xlink="http://www.w3.org/1999/xlink">
<g id="graph0" class="graph" transform="scale(1 1) rotate(0) translate(4 950)">
<title>VoiceRecognitionLayer</title>
<!-- Node1 -->
<g id="Node000001" class="node">
<title>Node1</title>
<g id="a_Node000001"><a xlink:title="A security layer simulating voice recognition verification.">
<polygon fill="#999999" stroke="none" points="212.38,-496.5 73.62,-496.5 73.62,0 212.38,0 212.38,-496.5"/>
<text text-anchor="start" x="93.88" y="-483" font-family="Helvetica,sans-Serif" font-size="10.00">VoiceRecognitionLayer</text>
<text text-anchor="start" x="79.12" y="-468.5" font-family="Helvetica,sans-Serif" font-size="10.00">&#45;</text>
<text text-anchor="start" x="87.62" y="-468.5" font-family="Helvetica,sans-Serif" font-size="10.00">QByteArray audio_buffer_</text>
<text text-anchor="start" x="79.12" y="-454" font-family="Helvetica,sans-Serif" font-size="10.00">&#45;</text>
<text text-anchor="start" x="87.62" y="-454" font-family="Helvetica,sans-Serif" font-size="10.00">QIODevice * audio_device_</text>
<text text-anchor="start" x="79.12" y="-439.5" font-family="Helvetica,sans-Serif" font-size="10.00">&#45;</text>
<text text-anchor="start" x="87.62" y="-439.5" font-family="Helvetica,sans-Serif" font-size="10.00">QAudioInput * audio</text>
<text text-anchor="start" x="87.62" y="-429" font-family="Helvetica,sans-Serif" font-size="10.00">_input_</text>
<text text-anchor="start" x="79.12" y="-414.5" font-family="Helvetica,sans-Serif" font-size="10.00">&#45;</text>
<text text-anchor="start" x="87.62" y="-414.5" font-family="Helvetica,sans-Serif" font-size="10.00">QTimer * audio_process</text>
<text text-anchor="start" x="87.62" y="-404" font-family="Helvetica,sans-Serif" font-size="10.00">_timer_</text>
<text text-anchor="start" x="79.12" y="-389.5" font-family="Helvetica,sans-Serif" font-size="10.00">&#45;</text>
<text text-anchor="start" x="87.62" y="-389.5" font-family="Helvetica,sans-Serif" font-size="10.00">QLabel * audio_visualizer</text>
<text text-anchor="start" x="87.62" y="-379" font-family="Helvetica,sans-Serif" font-size="10.00">_label_</text>
<text text-anchor="start" x="79.12" y="-364.5" font-family="Helvetica,sans-Serif" font-size="10.00">&#45;</text>
<text text-anchor="start" x="87.62" y="-364.5" font-family="Helvetica,sans-Serif" font-size="10.00">float current_audio</text>
<text text-anchor="start" x="87.62" y="-354" font-family="Helvetica,sans-Serif" font-size="10.00">_level_</text>
<text text-anchor="start" x="79.12" y="-339.5" font-family="Helvetica,sans-Serif" font-size="10.00">&#45;</text>
<text text-anchor="start" x="87.62" y="-339.5" font-family="Helvetica,sans-Serif" font-size="10.00">bool is_recording_</text>
<text text-anchor="start" x="79.12" y="-325" font-family="Helvetica,sans-Serif" font-size="10.00">&#45;</text>
<text text-anchor="start" x="87.62" y="-325" font-family="Helvetica,sans-Serif" font-size="10.00">bool is_speaking_</text>
<text text-anchor="start" x="79.12" y="-310.5" font-family="Helvetica,sans-Serif" font-size="10.00">&#45;</text>
<text text-anchor="start" x="87.62" y="-310.5" font-family="Helvetica,sans-Serif" font-size="10.00">float noise_threshold_</text>
<text text-anchor="start" x="79.12" y="-296" font-family="Helvetica,sans-Serif" font-size="10.00">&#45;</text>
<text text-anchor="start" x="87.62" y="-296" font-family="Helvetica,sans-Serif" font-size="10.00">QTimer * progress_timer_</text>
<text text-anchor="start" x="79.12" y="-281.5" font-family="Helvetica,sans-Serif" font-size="10.00">&#45;</text>
<text text-anchor="start" x="87.62" y="-281.5" font-family="Helvetica,sans-Serif" font-size="10.00">QProgressBar * recognition</text>
<text text-anchor="start" x="87.62" y="-271" font-family="Helvetica,sans-Serif" font-size="10.00">_progress_</text>
<text text-anchor="start" x="79.12" y="-256.5" font-family="Helvetica,sans-Serif" font-size="10.00">&#45;</text>
<text text-anchor="start" x="87.62" y="-256.5" font-family="Helvetica,sans-Serif" font-size="10.00">QTimer * recognition</text>
<text text-anchor="start" x="87.62" y="-246" font-family="Helvetica,sans-Serif" font-size="10.00">_timer_</text>
<text text-anchor="start" x="79.12" y="-231.5" font-family="Helvetica,sans-Serif" font-size="10.00">&#45;</text>
<text text-anchor="start" x="87.62" y="-231.5" font-family="Helvetica,sans-Serif" font-size="10.00">int silence_counter_</text>
<text text-anchor="start" x="79.12" y="-217" font-family="Helvetica,sans-Serif" font-size="10.00">&#45;</text>
<text text-anchor="start" x="87.62" y="-217" font-family="Helvetica,sans-Serif" font-size="10.00">QVector&lt; float &gt; visualizer</text>
<text text-anchor="start" x="87.62" y="-206.5" font-family="Helvetica,sans-Serif" font-size="10.00">_data_</text>
<text text-anchor="start" x="77.62" y="-192" font-family="Helvetica,sans-Serif" font-size="10.00">+</text>
<text text-anchor="start" x="87.62" y="-192" font-family="Helvetica,sans-Serif" font-size="10.00">void Initialize() override</text>
<text text-anchor="start" x="77.62" y="-177.5" font-family="Helvetica,sans-Serif" font-size="10.00">+</text>
<text text-anchor="start" x="87.62" y="-177.5" font-family="Helvetica,sans-Serif" font-size="10.00">void Reset() override</text>
<text text-anchor="start" x="77.62" y="-163" font-family="Helvetica,sans-Serif" font-size="10.00">+</text>
<text text-anchor="start" x="87.62" y="-163" font-family="Helvetica,sans-Serif" font-size="10.00">VoiceRecognitionLayer</text>
<text text-anchor="start" x="87.62" y="-152.5" font-family="Helvetica,sans-Serif" font-size="10.00">(QWidget *parent=nullptr)</text>
<text text-anchor="start" x="77.62" y="-138" font-family="Helvetica,sans-Serif" font-size="10.00">+</text>
<text text-anchor="start" x="87.62" y="-138" font-family="Helvetica,sans-Serif" font-size="10.00">~VoiceRecognitionLayer</text>
<text text-anchor="start" x="87.62" y="-127.5" font-family="Helvetica,sans-Serif" font-size="10.00">() override</text>
<text text-anchor="start" x="79.12" y="-113" font-family="Helvetica,sans-Serif" font-size="10.00">&#45;</text>
<text text-anchor="start" x="87.62" y="-113" font-family="Helvetica,sans-Serif" font-size="10.00">bool IsSpeaking(float</text>
<text text-anchor="start" x="87.62" y="-102.5" font-family="Helvetica,sans-Serif" font-size="10.00"> audio_level) const</text>
<text text-anchor="start" x="79.12" y="-88" font-family="Helvetica,sans-Serif" font-size="10.00">&#45;</text>
<text text-anchor="start" x="87.62" y="-88" font-family="Helvetica,sans-Serif" font-size="10.00">void StartRecording()</text>
<text text-anchor="start" x="79.12" y="-73.5" font-family="Helvetica,sans-Serif" font-size="10.00">&#45;</text>
<text text-anchor="start" x="87.62" y="-73.5" font-family="Helvetica,sans-Serif" font-size="10.00">void StopRecording()</text>
<text text-anchor="start" x="79.12" y="-59" font-family="Helvetica,sans-Serif" font-size="10.00">&#45;</text>
<text text-anchor="start" x="87.62" y="-59" font-family="Helvetica,sans-Serif" font-size="10.00">void UpdateAudioVisualizer</text>
<text text-anchor="start" x="87.62" y="-48.5" font-family="Helvetica,sans-Serif" font-size="10.00">(const QByteArray &amp;data)</text>
<text text-anchor="start" x="79.12" y="-34" font-family="Helvetica,sans-Serif" font-size="10.00">&#45;</text>
<text text-anchor="start" x="87.62" y="-34" font-family="Helvetica,sans-Serif" font-size="10.00">void FinishRecognition()</text>
<text text-anchor="start" x="79.12" y="-19.5" font-family="Helvetica,sans-Serif" font-size="10.00">&#45;</text>
<text text-anchor="start" x="87.62" y="-19.5" font-family="Helvetica,sans-Serif" font-size="10.00">void ProcessAudioInput()</text>
<text text-anchor="start" x="79.12" y="-5" font-family="Helvetica,sans-Serif" font-size="10.00">&#45;</text>
<text text-anchor="start" x="87.62" y="-5" font-family="Helvetica,sans-Serif" font-size="10.00">void UpdateProgress()</text>
<polygon fill="#666666" stroke="#666666" points="73.62,-480 73.62,-480 212.38,-480 212.38,-480 73.62,-480"/>
<polygon fill="#666666" stroke="#666666" points="73.62,-203.5 73.62,-203.5 85.62,-203.5 85.62,-203.5 73.62,-203.5"/>
<polygon fill="#666666" stroke="#666666" points="85.62,-203.5 85.62,-203.5 212.38,-203.5 212.38,-203.5 85.62,-203.5"/>
<polygon fill="none" stroke="#666666" points="73.62,0 73.62,-496.5 212.38,-496.5 212.38,0 73.62,0"/>
</a>
</g>
</g>
<!-- Node2 -->
<g id="Node000002" class="node">
<title>Node2</title>
<g id="a_Node000002"><a xlink:href="classSecurityLayer.html" target="_top" xlink:title="Abstract base class for individual security challenge layers.">
<polygon fill="white" stroke="none" points="126,-758.25 0,-758.25 0,-646.25 126,-646.25 126,-758.25"/>
<text text-anchor="start" x="33.38" y="-744.75" font-family="Helvetica,sans-Serif" font-size="10.00">SecurityLayer</text>
<text text-anchor="start" x="61.5" y="-730.25" font-family="Helvetica,sans-Serif" font-size="10.00"> </text>
<text text-anchor="start" x="4" y="-715.75" font-family="Helvetica,sans-Serif" font-size="10.00">+</text>
<text text-anchor="start" x="14" y="-715.75" font-family="Helvetica,sans-Serif" font-size="10.00">virtual void Initialize()=0</text>
<text text-anchor="start" x="4" y="-701.25" font-family="Helvetica,sans-Serif" font-size="10.00">+</text>
<text text-anchor="start" x="14" y="-701.25" font-family="Helvetica,sans-Serif" font-size="10.00">virtual void Reset()=0</text>
<text text-anchor="start" x="4" y="-686.75" font-family="Helvetica,sans-Serif" font-size="10.00">+</text>
<text text-anchor="start" x="14" y="-686.75" font-family="Helvetica,sans-Serif" font-size="10.00">SecurityLayer(QWidget</text>
<text text-anchor="start" x="14" y="-676.25" font-family="Helvetica,sans-Serif" font-size="10.00"> *parent=nullptr)</text>
<text text-anchor="start" x="4" y="-661.75" font-family="Helvetica,sans-Serif" font-size="10.00">+</text>
<text text-anchor="start" x="14" y="-661.75" font-family="Helvetica,sans-Serif" font-size="10.00">~SecurityLayer() override</text>
<text text-anchor="start" x="14" y="-651.25" font-family="Helvetica,sans-Serif" font-size="10.00">=default</text>
<polygon fill="#666666" stroke="#666666" points="0,-741.75 0,-741.75 126,-741.75 126,-741.75 0,-741.75"/>
<polygon fill="#666666" stroke="#666666" points="0,-727.25 0,-727.25 126,-727.25 126,-727.25 0,-727.25"/>
<polygon fill="none" stroke="#666666" points="0,-646.25 0,-758.25 126,-758.25 126,-646.25 0,-646.25"/>
</a>
</g>
</g>
<!-- Node2&#45;&gt;Node1 -->
<g id="edge1_Node000001_Node000002" class="edge">
<title>Node2&#45;&gt;Node1</title>
<g id="a_edge1_Node000001_Node000002"><a xlink:title=" ">
<path fill="none" stroke="#63b8ff" d="M74.73,-635C81.39,-597.36 90.19,-547.63 99.25,-496.44"/>
<polygon fill="none" stroke="#63b8ff" points="71.29,-634.33 72.99,-644.79 78.18,-635.55 71.29,-634.33"/>
</a>
</g>
</g>
<!-- Node3 -->
<g id="Node000003" class="node">
<title>Node3</title>
<g id="a_Node000003"><a xlink:title=" ">
<polygon fill="white" stroke="none" points="86.12,-946 39.88,-946 39.88,-898.5 86.12,-898.5 86.12,-946"/>
<text text-anchor="start" x="43.88" y="-932.5" font-family="Helvetica,sans-Serif" font-size="10.00">QWidget</text>
<text text-anchor="start" x="61.5" y="-918" font-family="Helvetica,sans-Serif" font-size="10.00"> </text>
<text text-anchor="start" x="61.5" y="-903.5" font-family="Helvetica,sans-Serif" font-size="10.00"> </text>
<polygon fill="#666666" stroke="#666666" points="39.88,-929.5 39.88,-929.5 86.12,-929.5 86.12,-929.5 39.88,-929.5"/>
<polygon fill="#666666" stroke="#666666" points="39.88,-915 39.88,-915 86.12,-915 86.12,-915 39.88,-915"/>
<polygon fill="none" stroke="#666666" points="39.88,-898.5 39.88,-946 86.12,-946 86.12,-898.5 39.88,-898.5"/>
</a>
</g>
</g>
<!-- Node3&#45;&gt;Node2 -->
<g id="edge2_Node000002_Node000003" class="edge">
<title>Node3&#45;&gt;Node2</title>
<g id="a_edge2_Node000002_Node000003"><a xlink:title=" ">
<path fill="none" stroke="#63b8ff" d="M63,-887.38C63,-852.8 63,-798.57 63,-757.9"/>
<polygon fill="none" stroke="#63b8ff" points="59.5,-887.23 63,-897.23 66.5,-887.23 59.5,-887.23"/>
</a>
</g>
</g>
<!-- Node4 -->
<g id="Node000004" class="node">
<title>Node4</title>
<g id="a_Node000004"><a xlink:href="classTranslationManager.html" target="_top" xlink:title="Manages the loading and delivery of translations for applications.">
<polygon fill="white" stroke="none" points="303.88,-861.5 144.12,-861.5 144.12,-543 303.88,-543 303.88,-861.5"/>
<text text-anchor="start" x="181.62" y="-848" font-family="Helvetica,sans-Serif" font-size="10.00">TranslationManager</text>
<text text-anchor="start" x="149.62" y="-833.5" font-family="Helvetica,sans-Serif" font-size="10.00">&#45;</text>
<text text-anchor="start" x="158.12" y="-833.5" font-family="Helvetica,sans-Serif" font-size="10.00">QString current_language</text>
<text text-anchor="start" x="158.12" y="-823" font-family="Helvetica,sans-Serif" font-size="10.00">_code_</text>
<text text-anchor="start" x="149.62" y="-808.5" font-family="Helvetica,sans-Serif" font-size="10.00">&#45;</text>
<text text-anchor="start" x="158.12" y="-808.5" font-family="Helvetica,sans-Serif" font-size="10.00">bool initialized_</text>
<text text-anchor="start" x="149.62" y="-794" font-family="Helvetica,sans-Serif" font-size="10.00">&#45;</text>
<text text-anchor="start" x="158.12" y="-794" font-family="Helvetica,sans-Serif" font-size="10.00">QJsonObject translations_</text>
<text text-anchor="start" x="149.62" y="-779.5" font-family="Helvetica,sans-Serif" font-size="10.00">&#45;</text>
<text text-anchor="start" x="158.12" y="-779.5" font-family="Helvetica,sans-Serif" font-size="10.00">static QMutex mutex_</text>
<text text-anchor="start" x="148.12" y="-765" font-family="Helvetica,sans-Serif" font-size="10.00">+</text>
<text text-anchor="start" x="158.12" y="-765" font-family="Helvetica,sans-Serif" font-size="10.00">QString GetCurrentLanguage</text>
<text text-anchor="start" x="158.12" y="-754.5" font-family="Helvetica,sans-Serif" font-size="10.00">() const</text>
<text text-anchor="start" x="148.12" y="-740" font-family="Helvetica,sans-Serif" font-size="10.00">+</text>
<text text-anchor="start" x="158.12" y="-740" font-family="Helvetica,sans-Serif" font-size="10.00">bool Initialize(const</text>
<text text-anchor="start" x="158.12" y="-729.5" font-family="Helvetica,sans-Serif" font-size="10.00"> QString &amp;language_code)</text>
<text text-anchor="start" x="148.12" y="-715" font-family="Helvetica,sans-Serif" font-size="10.00">+</text>
<text text-anchor="start" x="158.12" y="-715" font-family="Helvetica,sans-Serif" font-size="10.00">QString Translate(const</text>
<text text-anchor="start" x="158.12" y="-704.5" font-family="Helvetica,sans-Serif" font-size="10.00"> QString &amp;key, const QString</text>
<text text-anchor="start" x="158.12" y="-694" font-family="Helvetica,sans-Serif" font-size="10.00"> &amp;default_value=QString()) const</text>
<text text-anchor="start" x="148.12" y="-679.5" font-family="Helvetica,sans-Serif" font-size="10.00">+</text>
<text text-anchor="start" x="158.12" y="-679.5" font-family="Helvetica,sans-Serif" font-size="10.00">static TranslationManager</text>
<text text-anchor="start" x="158.12" y="-669" font-family="Helvetica,sans-Serif" font-size="10.00"> * GetInstance()</text>
<text text-anchor="start" x="149.62" y="-654.5" font-family="Helvetica,sans-Serif" font-size="10.00">&#45;</text>
<text text-anchor="start" x="158.12" y="-654.5" font-family="Helvetica,sans-Serif" font-size="10.00">bool LoadTranslations</text>
<text text-anchor="start" x="158.12" y="-644" font-family="Helvetica,sans-Serif" font-size="10.00">(const QString &amp;language_code)</text>
<text text-anchor="start" x="149.62" y="-629.5" font-family="Helvetica,sans-Serif" font-size="10.00">&#45;</text>
<text text-anchor="start" x="158.12" y="-629.5" font-family="Helvetica,sans-Serif" font-size="10.00">TranslationManager</text>
<text text-anchor="start" x="158.12" y="-619" font-family="Helvetica,sans-Serif" font-size="10.00"> &amp; operator=(const Translation</text>
<text text-anchor="start" x="158.12" y="-608.5" font-family="Helvetica,sans-Serif" font-size="10.00">Manager &amp;)=delete</text>
<text text-anchor="start" x="149.62" y="-594" font-family="Helvetica,sans-Serif" font-size="10.00">&#45;</text>
<text text-anchor="start" x="158.12" y="-594" font-family="Helvetica,sans-Serif" font-size="10.00">TranslationManager</text>
<text text-anchor="start" x="158.12" y="-583.5" font-family="Helvetica,sans-Serif" font-size="10.00">(const TranslationManager</text>
<text text-anchor="start" x="158.12" y="-573" font-family="Helvetica,sans-Serif" font-size="10.00"> &amp;)=delete</text>
<text text-anchor="start" x="149.62" y="-558.5" font-family="Helvetica,sans-Serif" font-size="10.00">&#45;</text>
<text text-anchor="start" x="158.12" y="-558.5" font-family="Helvetica,sans-Serif" font-size="10.00">TranslationManager</text>
<text text-anchor="start" x="158.12" y="-548" font-family="Helvetica,sans-Serif" font-size="10.00">(QObject *parent=nullptr)</text>
<polygon fill="#666666" stroke="#666666" points="144.12,-845 144.12,-845 303.88,-845 303.88,-845 144.12,-845"/>
<polygon fill="#666666" stroke="#666666" points="144.12,-776.5 144.12,-776.5 156.12,-776.5 156.12,-776.5 144.12,-776.5"/>
<polygon fill="#666666" stroke="#666666" points="156.12,-776.5 156.12,-776.5 303.88,-776.5 303.88,-776.5 156.12,-776.5"/>
<polygon fill="none" stroke="#666666" points="144.12,-543 144.12,-861.5 303.88,-861.5 303.88,-543 144.12,-543"/>
</a>
</g>
</g>
<!-- Node4&#45;&gt;Node1 -->
<g id="edge3_Node000001_Node000004" class="edge">
<title>Node4&#45;&gt;Node1</title>
<g id="a_edge3_Node000001_Node000004"><a xlink:title=" ">
<path fill="none" stroke="#63b8ff" d="M195.67,-543.16C193.66,-531.95 191.61,-520.48 189.53,-508.9"/>
<polygon fill="none" stroke="#63b8ff" points="189.55,-508.99 184.55,-503.79 187.43,-497.17 192.42,-502.37 189.55,-508.99"/>
</a>
</g>
<text text-anchor="middle" x="216.63" y="-515.5" font-family="Helvetica,sans-Serif" font-size="10.00" fill="grey"> &#45;translator_</text>
</g>
<!-- Node4&#45;&gt;Node4 -->
<g id="edge5_Node000004_Node000004" class="edge">
<title>Node4&#45;&gt;Node4</title>
<g id="a_edge5_Node000004_Node000004"><a xlink:title=" ">
<path fill="none" stroke="#63b8ff" d="M303.49,-731.99C314.51,-727.09 321.88,-717.18 321.88,-702.25 321.88,-692.69 318.85,-685.18 313.78,-679.73"/>
<polygon fill="none" stroke="#63b8ff" points="314.05,-679.92 306.84,-679.75 304.23,-673.03 311.44,-673.2 314.05,-679.92"/>
</a>
</g>
<text text-anchor="middle" x="345.88" y="-698" font-family="Helvetica,sans-Serif" font-size="10.00" fill="grey"> &#45;instance_</text>
</g>
<!-- Node5 -->
<g id="Node000005" class="node">
<title>Node5</title>
<g id="a_Node000005"><a xlink:title=" ">
<polygon fill="white" stroke="none" points="246,-946 202,-946 202,-898.5 246,-898.5 246,-946"/>
<text text-anchor="start" x="206" y="-932.5" font-family="Helvetica,sans-Serif" font-size="10.00">QObject</text>
<text text-anchor="start" x="222.5" y="-918" font-family="Helvetica,sans-Serif" font-size="10.00"> </text>
<text text-anchor="start" x="222.5" y="-903.5" font-family="Helvetica,sans-Serif" font-size="10.00"> </text>
<polygon fill="#666666" stroke="#666666" points="202,-929.5 202,-929.5 246,-929.5 246,-929.5 202,-929.5"/>
<polygon fill="#666666" stroke="#666666" points="202,-915 202,-915 246,-915 246,-915 202,-915"/>
<polygon fill="none" stroke="#666666" points="202,-898.5 202,-946 246,-946 246,-898.5 202,-898.5"/>
</a>
</g>
</g>
<!-- Node5&#45;&gt;Node4 -->
<g id="edge4_Node000004_Node000005" class="edge">
<title>Node5&#45;&gt;Node4</title>
<g id="a_edge4_Node000004_Node000005"><a xlink:title=" ">
<path fill="none" stroke="#63b8ff" d="M224,-887.38C224,-879.59 224,-870.81 224,-861.41"/>
<polygon fill="none" stroke="#63b8ff" points="220.5,-887.23 224,-897.23 227.5,-887.23 220.5,-887.23"/>
</a>
</g>
</g>
</g>
</svg>
