<?xml version="1.0" encoding="UTF-8" standalone="no"?>
<!DOCTYPE svg PUBLIC "-//W3C//DTD SVG 1.1//EN"
 "http://www.w3.org/Graphics/SVG/1.1/DTD/svg11.dtd">
<!-- Generated by graphviz version 12.2.1 (0)
 -->
<!-- Title: ShortcutsSettingsWidget::RestoreDefaultShortcuts Pages: 1 -->
<svg width="467pt" height="37pt"
 viewBox="0.00 0.00 467.00 37.00" xmlns="http://www.w3.org/2000/svg" xmlns:xlink="http://www.w3.org/1999/xlink">
<g id="graph0" class="graph" transform="scale(1 1) rotate(0) translate(4 33)">
<title>ShortcutsSettingsWidget::RestoreDefaultShortcuts</title>
<!-- Node1 -->
<g id="Node000001" class="node">
<title>Node1</title>
<g id="a_Node000001"><a xlink:title="Restores all keyboard shortcuts to their default values defined in WavelengthConfig....">
<polygon fill="#999999" stroke="#666666" points="459,-29 329,-29 329,0 459,0 459,-29"/>
<text text-anchor="start" x="337" y="-15.5" font-family="Helvetica,sans-Serif" font-size="10.00">ShortcutsSettingsWidget</text>
<text text-anchor="middle" x="394" y="-5" font-family="Helvetica,sans-Serif" font-size="10.00">::RestoreDefaultShortcuts</text>
</a>
</g>
</g>
<!-- Node2 -->
<g id="Node000002" class="node">
<title>Node2</title>
<g id="a_Node000002"><a xlink:href="classShortcutsSettingsWidget.html#a03e62190f2d0499e7f5d0ab6c1d79c16" target="_top" xlink:title="Creates and arranges all the UI elements (labels, input fields, layouts, button) for the widget....">
<polygon fill="white" stroke="#666666" points="293,-29 167.5,-29 167.5,0 293,0 293,-29"/>
<text text-anchor="start" x="175.5" y="-15.5" font-family="Helvetica,sans-Serif" font-size="10.00">ShortcutsSettingsWidget</text>
<text text-anchor="middle" x="230.25" y="-5" font-family="Helvetica,sans-Serif" font-size="10.00">::SetupUi</text>
</a>
</g>
</g>
<!-- Node1&#45;&gt;Node2 -->
<g id="edge1_Node000001_Node000002" class="edge">
<title>Node1&#45;&gt;Node2</title>
<g id="a_edge1_Node000001_Node000002"><a xlink:title=" ">
<path fill="none" stroke="#63b8ff" d="M317.32,-14.5C309.28,-14.5 301.17,-14.5 293.31,-14.5"/>
<polygon fill="#63b8ff" stroke="#63b8ff" points="317.09,-18 327.09,-14.5 317.09,-11 317.09,-18"/>
</a>
</g>
</g>
<!-- Node3 -->
<g id="Node000003" class="node">
<title>Node3</title>
<g id="a_Node000003"><a xlink:href="classShortcutsSettingsWidget.html#a8efdd7e928247903bf7212cd6e05ca21" target="_top" xlink:title="Constructs the ShortcutsSettingsWidget. Initializes the UI, loads current shortcut settings from Wave...">
<polygon fill="white" stroke="#666666" points="131.5,-29 0,-29 0,0 131.5,0 131.5,-29"/>
<text text-anchor="start" x="8" y="-15.5" font-family="Helvetica,sans-Serif" font-size="10.00">ShortcutsSettingsWidget</text>
<text text-anchor="middle" x="65.75" y="-5" font-family="Helvetica,sans-Serif" font-size="10.00">::ShortcutsSettingsWidget</text>
</a>
</g>
</g>
<!-- Node2&#45;&gt;Node3 -->
<g id="edge2_Node000002_Node000003" class="edge">
<title>Node2&#45;&gt;Node3</title>
<g id="a_edge2_Node000002_Node000003"><a xlink:title=" ">
<path fill="none" stroke="#63b8ff" d="M156.1,-14.5C148.06,-14.5 139.92,-14.5 131.99,-14.5"/>
<polygon fill="#63b8ff" stroke="#63b8ff" points="155.84,-18 165.84,-14.5 155.84,-11 155.84,-18"/>
</a>
</g>
</g>
</g>
</svg>
