<?xml version="1.0" encoding="UTF-8" standalone="no"?>
<!DOCTYPE svg PUBLIC "-//W3C//DTD SVG 1.1//EN"
 "http://www.w3.org/Graphics/SVG/1.1/DTD/svg11.dtd">
<!-- Generated by graphviz version 12.2.1 (0)
 -->
<!-- Title: CommunicationStream::OptimizeForMessageTransition Pages: 1 -->
<svg width="848pt" height="244pt"
 viewBox="0.00 0.00 847.75 244.05" xmlns="http://www.w3.org/2000/svg" xmlns:xlink="http://www.w3.org/1999/xlink">
<g id="graph0" class="graph" transform="scale(1 1) rotate(0) translate(4 240.05)">
<title>CommunicationStream::OptimizeForMessageTransition</title>
<!-- Node1 -->
<g id="Node000001" class="node">
<title>Node1</title>
<g id="a_Node000001"><a xlink:title="Temporarily reduces the background animation frame rate during message transitions for smoother UI pe...">
<polygon fill="#999999" stroke="#666666" points="839.75,-76 683.5,-76 683.5,-47 839.75,-47 839.75,-76"/>
<text text-anchor="start" x="691.5" y="-62.5" font-family="Helvetica,sans-Serif" font-size="10.00">CommunicationStream</text>
<text text-anchor="middle" x="761.62" y="-52" font-family="Helvetica,sans-Serif" font-size="10.00">::OptimizeForMessageTransition</text>
</a>
</g>
</g>
<!-- Node2 -->
<g id="Node000002" class="node">
<title>Node2</title>
<g id="a_Node000002"><a xlink:href="classCommunicationStream.html#aba44a533978e83748764534a8682c56f" target="_top" xlink:title="Displays the message at the specified index in the messages_ list. Hides the previously displayed mes...">
<polygon fill="white" stroke="#666666" points="647.5,-119 527.25,-119 527.25,-90 647.5,-90 647.5,-119"/>
<text text-anchor="start" x="535.25" y="-105.5" font-family="Helvetica,sans-Serif" font-size="10.00">CommunicationStream</text>
<text text-anchor="middle" x="587.38" y="-95" font-family="Helvetica,sans-Serif" font-size="10.00">::ShowMessageAtIndex</text>
</a>
</g>
</g>
<!-- Node1&#45;&gt;Node2 -->
<g id="edge1_Node000001_Node000002" class="edge">
<title>Node1&#45;&gt;Node2</title>
<g id="a_edge1_Node000001_Node000002"><a xlink:title=" ">
<path fill="none" stroke="#63b8ff" d="M689.8,-79.18C675.82,-82.67 661.29,-86.3 647.74,-89.68"/>
<polygon fill="#63b8ff" stroke="#63b8ff" points="690.54,-82.6 699.4,-76.79 688.85,-75.81 690.54,-82.6"/>
</a>
</g>
</g>
<!-- Node7 -->
<g id="Node000007" class="node">
<title>Node7</title>
<g id="a_Node000007"><a xlink:href="classCommunicationStream.html#a600acedc2f4f586b28c147077f768438" target="_top" xlink:title="Shows the next message in the list, if available.">
<polygon fill="white" stroke="#666666" points="486.75,-76 371,-76 371,-47 486.75,-47 486.75,-76"/>
<text text-anchor="start" x="379" y="-62.5" font-family="Helvetica,sans-Serif" font-size="10.00">CommunicationStream</text>
<text text-anchor="middle" x="428.88" y="-52" font-family="Helvetica,sans-Serif" font-size="10.00">::ShowNextMessage</text>
</a>
</g>
</g>
<!-- Node1&#45;&gt;Node7 -->
<g id="edge15_Node000001_Node000007" class="edge">
<title>Node1&#45;&gt;Node7</title>
<g id="a_edge15_Node000001_Node000007"><a xlink:title=" ">
<path fill="none" stroke="#63b8ff" d="M671.58,-61.5C612.91,-61.5 537.83,-61.5 487.03,-61.5"/>
<polygon fill="#63b8ff" stroke="#63b8ff" points="671.57,-65 681.57,-61.5 671.57,-58 671.57,-65"/>
</a>
</g>
</g>
<!-- Node9 -->
<g id="Node000009" class="node">
<title>Node9</title>
<g id="a_Node000009"><a xlink:href="classCommunicationStream.html#a918c54f07703dce3733f2aec5b09503d" target="_top" xlink:title="Shows the previous message in the list, if available.">
<polygon fill="white" stroke="#666666" points="491.25,-29 366.5,-29 366.5,0 491.25,0 491.25,-29"/>
<text text-anchor="start" x="374.5" y="-15.5" font-family="Helvetica,sans-Serif" font-size="10.00">CommunicationStream</text>
<text text-anchor="middle" x="428.88" y="-5" font-family="Helvetica,sans-Serif" font-size="10.00">::ShowPreviousMessage</text>
</a>
</g>
</g>
<!-- Node1&#45;&gt;Node9 -->
<g id="edge16_Node000001_Node000009" class="edge">
<title>Node1&#45;&gt;Node9</title>
<g id="a_edge16_Node000001_Node000009"><a xlink:title=" ">
<path fill="none" stroke="#63b8ff" d="M671.91,-48.89C614.99,-40.8 542.5,-30.5 491.75,-23.29"/>
<polygon fill="#63b8ff" stroke="#63b8ff" points="671.19,-52.33 681.58,-50.27 672.17,-45.4 671.19,-52.33"/>
</a>
</g>
</g>
<!-- Node3 -->
<g id="Node000003" class="node">
<title>Node3</title>
<g id="a_Node000003"><a xlink:href="classCommunicationStream.html#ae3b9b361caa5123daac847c60475d605" target="_top" xlink:title="Adds a new standard message to the stream. Initiates the receiving animation. The message is displaye...">
<polygon fill="white" stroke="#666666" points="132.62,-233 16.88,-233 16.88,-204 132.62,-204 132.62,-233"/>
<text text-anchor="start" x="24.88" y="-219.5" font-family="Helvetica,sans-Serif" font-size="10.00">CommunicationStream</text>
<text text-anchor="middle" x="74.75" y="-209" font-family="Helvetica,sans-Serif" font-size="10.00">::AddMessage</text>
</a>
</g>
</g>
<!-- Node2&#45;&gt;Node3 -->
<g id="edge2_Node000002_Node000003" class="edge">
<title>Node2&#45;&gt;Node3</title>
<g id="a_edge2_Node000002_Node000003"><a xlink:title=" ">
<path fill="none" stroke="#63b8ff" d="M569.4,-128.48C552.41,-150.31 524.13,-181.24 491.25,-195.5 372.28,-247.11 215.87,-237.65 133.01,-227.39"/>
<polygon fill="#63b8ff" stroke="#63b8ff" points="572.06,-130.78 575.27,-120.68 566.46,-126.57 572.06,-130.78"/>
</a>
</g>
</g>
<!-- Node4 -->
<g id="Node000004" class="node">
<title>Node4</title>
<g id="a_Node000004"><a xlink:href="classCommunicationStream.html#a10a56a4dc3eeeaf4865d0f63f077e3bf" target="_top" xlink:title="Adds a new message with attachment content to the stream. Initiates the receiving animation....">
<polygon fill="white" stroke="#666666" points="149.5,-167 0,-167 0,-138 149.5,-138 149.5,-167"/>
<text text-anchor="start" x="8" y="-153.5" font-family="Helvetica,sans-Serif" font-size="10.00">CommunicationStream</text>
<text text-anchor="middle" x="74.75" y="-143" font-family="Helvetica,sans-Serif" font-size="10.00">::AddMessageWithAttachment</text>
</a>
</g>
</g>
<!-- Node2&#45;&gt;Node4 -->
<g id="edge3_Node000002_Node000004" class="edge">
<title>Node2&#45;&gt;Node4</title>
<g id="a_edge3_Node000002_Node000004"><a xlink:title=" ">
<path fill="none" stroke="#63b8ff" d="M563.42,-126.87C545.43,-142.75 518.89,-162.74 491.25,-171.5 368.55,-210.38 215.27,-185.9 133.49,-167.45"/>
<polygon fill="#63b8ff" stroke="#63b8ff" points="565.39,-129.81 570.42,-120.49 560.67,-124.64 565.39,-129.81"/>
</a>
</g>
</g>
<!-- Node5 -->
<g id="Node000005" class="node">
<title>Node5</title>
<g id="a_Node000005"><a xlink:href="classCommunicationStream.html#a2283a11febe30f9d2d1887c2c20e7ea3" target="_top" xlink:title="Slot triggered when a StreamMessage widget finishes its hiding animation (or is hidden)....">
<polygon fill="white" stroke="#666666" points="490.5,-162 367.25,-162 367.25,-133 490.5,-133 490.5,-162"/>
<text text-anchor="start" x="375.25" y="-148.5" font-family="Helvetica,sans-Serif" font-size="10.00">CommunicationStream</text>
<text text-anchor="middle" x="428.88" y="-138" font-family="Helvetica,sans-Serif" font-size="10.00">::HandleMessageHidden</text>
</a>
</g>
</g>
<!-- Node2&#45;&gt;Node5 -->
<g id="edge4_Node000002_Node000005" class="edge">
<title>Node2&#45;&gt;Node5</title>
<g id="a_edge4_Node000002_Node000005"><a xlink:title=" ">
<path fill="none" stroke="#63b8ff" d="M521.02,-122.46C508.82,-125.81 496.18,-129.28 484.34,-132.53"/>
<polygon fill="#63b8ff" stroke="#63b8ff" points="521.9,-125.84 530.62,-119.82 520.05,-119.09 521.9,-125.84"/>
</a>
</g>
</g>
<!-- Node2&#45;&gt;Node7 -->
<g id="edge9_Node000002_Node000007" class="edge">
<title>Node2&#45;&gt;Node7</title>
<g id="a_edge9_Node000002_Node000007"><a xlink:title=" ">
<path fill="none" stroke="#63b8ff" d="M521.02,-86.54C508.82,-83.19 496.18,-79.72 484.34,-76.47"/>
<polygon fill="#63b8ff" stroke="#63b8ff" points="520.05,-89.91 530.62,-89.18 521.9,-83.16 520.05,-89.91"/>
</a>
</g>
</g>
<!-- Node2&#45;&gt;Node9 -->
<g id="edge12_Node000002_Node000009" class="edge">
<title>Node2&#45;&gt;Node9</title>
<g id="a_edge12_Node000002_Node000009"><a xlink:title=" ">
<path fill="none" stroke="#63b8ff" d="M558.92,-82.88C540.49,-69.02 515.27,-51.3 491.25,-38.5 485.19,-35.27 478.6,-32.24 472.06,-29.49"/>
<polygon fill="#63b8ff" stroke="#63b8ff" points="556.62,-85.53 566.7,-88.81 560.87,-79.96 556.62,-85.53"/>
</a>
</g>
</g>
<!-- Node6 -->
<g id="Node000006" class="node">
<title>Node6</title>
<g id="a_Node000006"><a xlink:href="classCommunicationStream.html#aa91c3c46034a10ca7393998082e26a25" target="_top" xlink:title="Connects the necessary signals (navigation, read, hidden) from a StreamMessage widget to this Communi...">
<polygon fill="white" stroke="#666666" points="330.5,-129 185.5,-129 185.5,-100 330.5,-100 330.5,-129"/>
<text text-anchor="start" x="193.5" y="-115.5" font-family="Helvetica,sans-Serif" font-size="10.00">CommunicationStream</text>
<text text-anchor="middle" x="258" y="-105" font-family="Helvetica,sans-Serif" font-size="10.00">::ConnectSignalsForMessage</text>
</a>
</g>
</g>
<!-- Node5&#45;&gt;Node6 -->
<g id="edge5_Node000005_Node000006" class="edge">
<title>Node5&#45;&gt;Node6</title>
<g id="a_edge5_Node000005_Node000006"><a xlink:title=" ">
<path fill="none" stroke="#63b8ff" d="M355.76,-133.41C347.5,-131.79 339.07,-130.15 330.8,-128.53"/>
<polygon fill="#63b8ff" stroke="#63b8ff" points="354.94,-136.81 365.42,-135.3 356.28,-129.94 354.94,-136.81"/>
</a>
</g>
</g>
<!-- Node6&#45;&gt;Node2 -->
<g id="edge8_Node000006_Node000002" class="edge">
<title>Node6&#45;&gt;Node2</title>
<g id="a_edge8_Node000006_Node000002"><a xlink:title=" ">
<path fill="none" stroke="#63b8ff" d="M342.28,-111.96C399.99,-110.19 475.44,-107.89 527.09,-106.31"/>
<polygon fill="#63b8ff" stroke="#63b8ff" points="342.39,-108.45 332.5,-112.25 342.6,-115.45 342.39,-108.45"/>
</a>
</g>
</g>
<!-- Node6&#45;&gt;Node3 -->
<g id="edge6_Node000006_Node000003" class="edge">
<title>Node6&#45;&gt;Node3</title>
<g id="a_edge6_Node000006_Node000003"><a xlink:title=" ">
<path fill="none" stroke="#63b8ff" d="M221.64,-134.96C200.68,-147.07 173.6,-162.69 149.5,-176.5 133.78,-185.51 116.14,-195.56 102.05,-203.57"/>
<polygon fill="#63b8ff" stroke="#63b8ff" points="223.18,-138.11 230.08,-130.08 219.67,-132.05 223.18,-138.11"/>
</a>
</g>
</g>
<!-- Node6&#45;&gt;Node4 -->
<g id="edge7_Node000006_Node000004" class="edge">
<title>Node6&#45;&gt;Node4</title>
<g id="a_edge7_Node000006_Node000004"><a xlink:title=" ">
<path fill="none" stroke="#63b8ff" d="M174.52,-131.79C165.35,-133.71 156.07,-135.66 147.06,-137.55"/>
<polygon fill="#63b8ff" stroke="#63b8ff" points="175.08,-135.25 184.14,-129.77 173.64,-128.4 175.08,-135.25"/>
</a>
</g>
</g>
<!-- Node7&#45;&gt;Node6 -->
<g id="edge10_Node000007_Node000006" class="edge">
<title>Node7&#45;&gt;Node6</title>
<g id="a_edge10_Node000007_Node000006"><a xlink:title=" ">
<path fill="none" stroke="#63b8ff" d="M369.58,-79.8C349.06,-86.24 326.26,-93.39 306.72,-99.52"/>
<polygon fill="#63b8ff" stroke="#63b8ff" points="370.45,-83.19 378.94,-76.86 368.35,-76.51 370.45,-83.19"/>
</a>
</g>
</g>
<!-- Node8 -->
<g id="Node000008" class="node">
<title>Node8</title>
<g id="a_Node000008"><a xlink:href="classCommunicationStream.html#a8a07b470a5e55591ef90260ad5ec60da" target="_top" xlink:title="Handles key presses for message navigation (Left/Right arrows) and closing (Enter).">
<polygon fill="white" stroke="#666666" points="315.88,-61 200.12,-61 200.12,-32 315.88,-32 315.88,-61"/>
<text text-anchor="start" x="208.12" y="-47.5" font-family="Helvetica,sans-Serif" font-size="10.00">CommunicationStream</text>
<text text-anchor="middle" x="258" y="-37" font-family="Helvetica,sans-Serif" font-size="10.00">::keyPressEvent</text>
</a>
</g>
</g>
<!-- Node7&#45;&gt;Node8 -->
<g id="edge11_Node000007_Node000008" class="edge">
<title>Node7&#45;&gt;Node8</title>
<g id="a_edge11_Node000007_Node000008"><a xlink:title=" ">
<path fill="none" stroke="#63b8ff" d="M359.36,-55.41C345,-54.14 330,-52.81 316.11,-51.57"/>
<polygon fill="#63b8ff" stroke="#63b8ff" points="358.92,-58.89 369.19,-56.29 359.54,-51.92 358.92,-58.89"/>
</a>
</g>
</g>
<!-- Node9&#45;&gt;Node6 -->
<g id="edge13_Node000009_Node000006" class="edge">
<title>Node9&#45;&gt;Node6</title>
<g id="a_edge13_Node000009_Node000006"><a xlink:title=" ">
<path fill="none" stroke="#63b8ff" d="M373.67,-34.43C371.21,-35.73 368.8,-37.09 366.5,-38.5 348.25,-49.68 347.68,-57.73 330.5,-70.5 316.23,-81.11 299.32,-91.6 285.53,-99.67"/>
<polygon fill="#63b8ff" stroke="#63b8ff" points="375.18,-37.59 382.67,-30.09 372.14,-31.29 375.18,-37.59"/>
</a>
</g>
</g>
<!-- Node9&#45;&gt;Node8 -->
<g id="edge14_Node000009_Node000008" class="edge">
<title>Node9&#45;&gt;Node8</title>
<g id="a_edge14_Node000009_Node000008"><a xlink:title=" ">
<path fill="none" stroke="#63b8ff" d="M355.51,-28.21C342.36,-30.7 328.82,-33.27 316.19,-35.66"/>
<polygon fill="#63b8ff" stroke="#63b8ff" points="355.77,-31.73 364.94,-26.43 354.47,-24.85 355.77,-31.73"/>
</a>
</g>
</g>
</g>
</svg>
