<?xml version="1.0" encoding="UTF-8" standalone="no"?>
<!DOCTYPE svg PUBLIC "-//W3C//DTD SVG 1.1//EN"
 "http://www.w3.org/Graphics/SVG/1.1/DTD/svg11.dtd">
<!-- Generated by graphviz version 12.2.1 (0)
 -->
<!-- Title: ImageViewer Pages: 1 -->
<svg width="422pt" height="958pt"
 viewBox="0.00 0.00 422.31 957.50" xmlns="http://www.w3.org/2000/svg" xmlns:xlink="http://www.w3.org/1999/xlink">
<g id="graph0" class="graph" transform="scale(1 1) rotate(0) translate(4 953.5)">
<title>ImageViewer</title>
<!-- Node1 -->
<g id="Node000001" class="node">
<title>Node1</title>
<g id="a_Node000001"><a xlink:title="A widget for displaying static images (PNG, JPEG, etc.) within a chat interface.">
<polygon fill="#999999" stroke="none" points="158.38,-295 23.38,-295 23.38,0 158.38,0 158.38,-295"/>
<text text-anchor="start" x="62.75" y="-281.5" font-family="Helvetica,sans-Serif" font-size="10.00">ImageViewer</text>
<text text-anchor="start" x="28.88" y="-267" font-family="Helvetica,sans-Serif" font-size="10.00">&#45;</text>
<text text-anchor="start" x="37.38" y="-267" font-family="Helvetica,sans-Serif" font-size="10.00">bool has_alpha_</text>
<text text-anchor="start" x="28.88" y="-252.5" font-family="Helvetica,sans-Serif" font-size="10.00">&#45;</text>
<text text-anchor="start" x="37.38" y="-252.5" font-family="Helvetica,sans-Serif" font-size="10.00">QByteArray image_data_</text>
<text text-anchor="start" x="28.88" y="-238" font-family="Helvetica,sans-Serif" font-size="10.00">&#45;</text>
<text text-anchor="start" x="37.38" y="-238" font-family="Helvetica,sans-Serif" font-size="10.00">int image_height_</text>
<text text-anchor="start" x="28.88" y="-223.5" font-family="Helvetica,sans-Serif" font-size="10.00">&#45;</text>
<text text-anchor="start" x="37.38" y="-223.5" font-family="Helvetica,sans-Serif" font-size="10.00">QLabel * image_label_</text>
<text text-anchor="start" x="28.88" y="-209" font-family="Helvetica,sans-Serif" font-size="10.00">&#45;</text>
<text text-anchor="start" x="37.38" y="-209" font-family="Helvetica,sans-Serif" font-size="10.00">int image_width_</text>
<text text-anchor="start" x="28.88" y="-194.5" font-family="Helvetica,sans-Serif" font-size="10.00">&#45;</text>
<text text-anchor="start" x="37.38" y="-194.5" font-family="Helvetica,sans-Serif" font-size="10.00">QImage original_image_</text>
<text text-anchor="start" x="27.38" y="-180" font-family="Helvetica,sans-Serif" font-size="10.00">+</text>
<text text-anchor="start" x="37.38" y="-180" font-family="Helvetica,sans-Serif" font-size="10.00">ImageViewer(const</text>
<text text-anchor="start" x="37.38" y="-169.5" font-family="Helvetica,sans-Serif" font-size="10.00"> QByteArray &amp;image_data,</text>
<text text-anchor="start" x="37.38" y="-159" font-family="Helvetica,sans-Serif" font-size="10.00"> QWidget *parent=nullptr)</text>
<text text-anchor="start" x="27.38" y="-144.5" font-family="Helvetica,sans-Serif" font-size="10.00">+</text>
<text text-anchor="start" x="37.38" y="-144.5" font-family="Helvetica,sans-Serif" font-size="10.00">void ReleaseResources()</text>
<text text-anchor="start" x="27.38" y="-130" font-family="Helvetica,sans-Serif" font-size="10.00">+</text>
<text text-anchor="start" x="37.38" y="-130" font-family="Helvetica,sans-Serif" font-size="10.00">QSize sizeHint() const</text>
<text text-anchor="start" x="37.38" y="-119.5" font-family="Helvetica,sans-Serif" font-size="10.00"> override</text>
<text text-anchor="start" x="27.38" y="-105" font-family="Helvetica,sans-Serif" font-size="10.00">+</text>
<text text-anchor="start" x="37.38" y="-105" font-family="Helvetica,sans-Serif" font-size="10.00">~ImageViewer() override</text>
<text text-anchor="start" x="28.88" y="-90.5" font-family="Helvetica,sans-Serif" font-size="10.00">&#45;</text>
<text text-anchor="start" x="37.38" y="-90.5" font-family="Helvetica,sans-Serif" font-size="10.00">void HandleError(const</text>
<text text-anchor="start" x="37.38" y="-80" font-family="Helvetica,sans-Serif" font-size="10.00"> QString &amp;message)</text>
<text text-anchor="start" x="28.88" y="-65.5" font-family="Helvetica,sans-Serif" font-size="10.00">&#45;</text>
<text text-anchor="start" x="37.38" y="-65.5" font-family="Helvetica,sans-Serif" font-size="10.00">void HandleImageInfo</text>
<text text-anchor="start" x="37.38" y="-55" font-family="Helvetica,sans-Serif" font-size="10.00">(int width, int height,</text>
<text text-anchor="start" x="37.38" y="-44.5" font-family="Helvetica,sans-Serif" font-size="10.00"> bool has_alpha)</text>
<text text-anchor="start" x="28.88" y="-30" font-family="Helvetica,sans-Serif" font-size="10.00">&#45;</text>
<text text-anchor="start" x="37.38" y="-30" font-family="Helvetica,sans-Serif" font-size="10.00">void HandleImageReady</text>
<text text-anchor="start" x="37.38" y="-19.5" font-family="Helvetica,sans-Serif" font-size="10.00">(const QImage &amp;image)</text>
<text text-anchor="start" x="28.88" y="-5" font-family="Helvetica,sans-Serif" font-size="10.00">&#45;</text>
<text text-anchor="start" x="37.38" y="-5" font-family="Helvetica,sans-Serif" font-size="10.00">void LoadImage() const</text>
<polygon fill="#666666" stroke="#666666" points="23.38,-278.5 23.38,-278.5 158.38,-278.5 158.38,-278.5 23.38,-278.5"/>
<polygon fill="#666666" stroke="#666666" points="23.38,-191.5 23.38,-191.5 35.38,-191.5 35.38,-191.5 23.38,-191.5"/>
<polygon fill="#666666" stroke="#666666" points="35.38,-191.5 35.38,-191.5 158.38,-191.5 158.38,-191.5 35.38,-191.5"/>
<polygon fill="none" stroke="#666666" points="23.38,0 23.38,-295 158.38,-295 158.38,0 23.38,0"/>
</a>
</g>
</g>
<!-- Node2 -->
<g id="Node000002" class="node">
<title>Node2</title>
<g id="a_Node000002"><a xlink:title=" ">
<polygon fill="white" stroke="none" points="54.5,-389 11.25,-389 11.25,-341.5 54.5,-341.5 54.5,-389"/>
<text text-anchor="start" x="15.25" y="-375.5" font-family="Helvetica,sans-Serif" font-size="10.00">QFrame</text>
<text text-anchor="start" x="31.38" y="-361" font-family="Helvetica,sans-Serif" font-size="10.00"> </text>
<text text-anchor="start" x="31.38" y="-346.5" font-family="Helvetica,sans-Serif" font-size="10.00"> </text>
<polygon fill="#666666" stroke="#666666" points="11.25,-372.5 11.25,-372.5 54.5,-372.5 54.5,-372.5 11.25,-372.5"/>
<polygon fill="#666666" stroke="#666666" points="11.25,-358 11.25,-358 54.5,-358 54.5,-358 11.25,-358"/>
<polygon fill="none" stroke="#666666" points="11.25,-341.5 11.25,-389 54.5,-389 54.5,-341.5 11.25,-341.5"/>
</a>
</g>
</g>
<!-- Node2&#45;&gt;Node1 -->
<g id="edge1_Node000001_Node000002" class="edge">
<title>Node2&#45;&gt;Node1</title>
<g id="a_edge1_Node000001_Node000002"><a xlink:title=" ">
<path fill="none" stroke="#63b8ff" d="M41.92,-330.59C44.73,-320.14 48.03,-307.88 51.56,-294.76"/>
<polygon fill="none" stroke="#63b8ff" points="38.58,-329.54 39.37,-340.11 45.34,-331.36 38.58,-329.54"/>
</a>
</g>
</g>
<!-- Node3 -->
<g id="Node000003" class="node">
<title>Node3</title>
<g id="a_Node000003"><a xlink:title=" ">
<polygon fill="white" stroke="none" points="326.38,-389 171.38,-389 171.38,-341.5 326.38,-341.5 326.38,-389"/>
<text text-anchor="start" x="175.38" y="-375.5" font-family="Helvetica,sans-Serif" font-size="10.00">std::shared_ptr&lt; ImageDecoder &gt;</text>
<text text-anchor="start" x="247.38" y="-361" font-family="Helvetica,sans-Serif" font-size="10.00"> </text>
<text text-anchor="start" x="178.69" y="-346.5" font-family="Helvetica,sans-Serif" font-size="10.00">+</text>
<text text-anchor="start" x="192" y="-346.5" font-family="Helvetica,sans-Serif" font-size="10.00">ImageDecoder * operator&#45;&gt;()</text>
<polygon fill="#666666" stroke="#666666" points="171.38,-372.5 171.38,-372.5 326.38,-372.5 326.38,-372.5 171.38,-372.5"/>
<polygon fill="#666666" stroke="#666666" points="171.38,-358 171.38,-358 326.38,-358 326.38,-358 171.38,-358"/>
<polygon fill="none" stroke="#666666" points="171.38,-341.5 171.38,-389 326.38,-389 326.38,-341.5 171.38,-341.5"/>
</a>
</g>
</g>
<!-- Node3&#45;&gt;Node1 -->
<g id="edge2_Node000001_Node000003" class="edge">
<title>Node3&#45;&gt;Node1</title>
<g id="a_edge2_Node000001_Node000003"><a xlink:title=" ">
<path fill="none" stroke="#63b8ff" d="M232.26,-341.57C216.25,-319.7 190.85,-285.02 165.97,-251.04"/>
<polygon fill="none" stroke="#63b8ff" points="165.9,-250.95 159.13,-248.47 158.81,-241.26 165.58,-243.74 165.9,-250.95"/>
</a>
</g>
<text text-anchor="middle" x="241.53" y="-314" font-family="Helvetica,sans-Serif" font-size="10.00" fill="grey"> &#45;decoder_</text>
</g>
<!-- Node4 -->
<g id="Node000004" class="node">
<title>Node4</title>
<g id="a_Node000004"><a xlink:href="classImageDecoder.html" target="_top" xlink:title="Decodes image data using Qt&#39;s built&#45;in image loading capabilities.">
<polygon fill="white" stroke="none" points="261.38,-855.5 108.38,-855.5 108.38,-743.5 261.38,-743.5 261.38,-855.5"/>
<text text-anchor="start" x="153" y="-842" font-family="Helvetica,sans-Serif" font-size="10.00">ImageDecoder</text>
<text text-anchor="start" x="113.88" y="-827.5" font-family="Helvetica,sans-Serif" font-size="10.00">&#45;</text>
<text text-anchor="start" x="122.38" y="-827.5" font-family="Helvetica,sans-Serif" font-size="10.00">QByteArray image_data_</text>
<text text-anchor="start" x="112.38" y="-813" font-family="Helvetica,sans-Serif" font-size="10.00">+</text>
<text text-anchor="start" x="122.38" y="-813" font-family="Helvetica,sans-Serif" font-size="10.00">QImage Decode()</text>
<text text-anchor="start" x="112.38" y="-798.5" font-family="Helvetica,sans-Serif" font-size="10.00">+</text>
<text text-anchor="start" x="122.38" y="-798.5" font-family="Helvetica,sans-Serif" font-size="10.00">ImageDecoder(const</text>
<text text-anchor="start" x="122.38" y="-788" font-family="Helvetica,sans-Serif" font-size="10.00"> QByteArray &amp;image_data,</text>
<text text-anchor="start" x="122.38" y="-777.5" font-family="Helvetica,sans-Serif" font-size="10.00"> QObject *parent=nullptr)</text>
<text text-anchor="start" x="112.38" y="-763" font-family="Helvetica,sans-Serif" font-size="10.00">+</text>
<text text-anchor="start" x="122.38" y="-763" font-family="Helvetica,sans-Serif" font-size="10.00">~ImageDecoder() override</text>
<text text-anchor="start" x="112.38" y="-748.5" font-family="Helvetica,sans-Serif" font-size="10.00">+</text>
<text text-anchor="start" x="122.38" y="-748.5" font-family="Helvetica,sans-Serif" font-size="10.00">static void ReleaseResources()</text>
<polygon fill="#666666" stroke="#666666" points="108.38,-839 108.38,-839 261.38,-839 261.38,-839 108.38,-839"/>
<polygon fill="#666666" stroke="#666666" points="108.38,-824.5 108.38,-824.5 120.38,-824.5 120.38,-824.5 108.38,-824.5"/>
<polygon fill="#666666" stroke="#666666" points="120.38,-824.5 120.38,-824.5 261.38,-824.5 261.38,-824.5 120.38,-824.5"/>
<polygon fill="none" stroke="#666666" points="108.38,-743.5 108.38,-855.5 261.38,-855.5 261.38,-743.5 108.38,-743.5"/>
</a>
</g>
</g>
<!-- Node4&#45;&gt;Node3 -->
<g id="edge3_Node000003_Node000004" class="edge">
<title>Node4&#45;&gt;Node3</title>
<g id="a_edge3_Node000003_Node000004"><a xlink:title=" ">
<path fill="none" stroke="#63b8ff" d="M219.77,-743.91C222.57,-737.86 225.03,-731.66 226.88,-725.5 261.26,-610.96 256.53,-466.89 251.95,-401.46"/>
<polygon fill="none" stroke="#63b8ff" points="251.96,-401.6 247.52,-395.92 251.06,-389.63 255.5,-395.32 251.96,-401.6"/>
</a>
</g>
<text text-anchor="middle" x="265.25" y="-562" font-family="Helvetica,sans-Serif" font-size="10.00" fill="grey"> +ptr</text>
</g>
<!-- Node5 -->
<g id="Node000005" class="node">
<title>Node5</title>
<g id="a_Node000005"><a xlink:title=" ">
<polygon fill="white" stroke="none" points="134.88,-949.5 90.88,-949.5 90.88,-902 134.88,-902 134.88,-949.5"/>
<text text-anchor="start" x="94.88" y="-936" font-family="Helvetica,sans-Serif" font-size="10.00">QObject</text>
<text text-anchor="start" x="111.38" y="-921.5" font-family="Helvetica,sans-Serif" font-size="10.00"> </text>
<text text-anchor="start" x="111.38" y="-907" font-family="Helvetica,sans-Serif" font-size="10.00"> </text>
<polygon fill="#666666" stroke="#666666" points="90.88,-933 90.88,-933 134.88,-933 134.88,-933 90.88,-933"/>
<polygon fill="#666666" stroke="#666666" points="90.88,-918.5 90.88,-918.5 134.88,-918.5 134.88,-918.5 90.88,-918.5"/>
<polygon fill="none" stroke="#666666" points="90.88,-902 90.88,-949.5 134.88,-949.5 134.88,-902 90.88,-902"/>
</a>
</g>
</g>
<!-- Node5&#45;&gt;Node4 -->
<g id="edge4_Node000004_Node000005" class="edge">
<title>Node5&#45;&gt;Node4</title>
<g id="a_edge4_Node000004_Node000005"><a xlink:title=" ">
<path fill="none" stroke="#63b8ff" d="M131.62,-892.4C138.19,-881.07 145.75,-868.02 153.08,-855.37"/>
<polygon fill="none" stroke="#63b8ff" points="128.66,-890.53 126.67,-900.94 134.71,-894.04 128.66,-890.53"/>
</a>
</g>
</g>
<!-- Node8 -->
<g id="Node000008" class="node">
<title>Node8</title>
<g id="a_Node000008"><a xlink:href="classTranslationManager.html" target="_top" xlink:title="Manages the loading and delivery of translations for applications.">
<polygon fill="white" stroke="none" points="159.75,-725.5 0,-725.5 0,-407 159.75,-407 159.75,-725.5"/>
<text text-anchor="start" x="37.5" y="-712" font-family="Helvetica,sans-Serif" font-size="10.00">TranslationManager</text>
<text text-anchor="start" x="5.5" y="-697.5" font-family="Helvetica,sans-Serif" font-size="10.00">&#45;</text>
<text text-anchor="start" x="14" y="-697.5" font-family="Helvetica,sans-Serif" font-size="10.00">QString current_language</text>
<text text-anchor="start" x="14" y="-687" font-family="Helvetica,sans-Serif" font-size="10.00">_code_</text>
<text text-anchor="start" x="5.5" y="-672.5" font-family="Helvetica,sans-Serif" font-size="10.00">&#45;</text>
<text text-anchor="start" x="14" y="-672.5" font-family="Helvetica,sans-Serif" font-size="10.00">bool initialized_</text>
<text text-anchor="start" x="5.5" y="-658" font-family="Helvetica,sans-Serif" font-size="10.00">&#45;</text>
<text text-anchor="start" x="14" y="-658" font-family="Helvetica,sans-Serif" font-size="10.00">QJsonObject translations_</text>
<text text-anchor="start" x="5.5" y="-643.5" font-family="Helvetica,sans-Serif" font-size="10.00">&#45;</text>
<text text-anchor="start" x="14" y="-643.5" font-family="Helvetica,sans-Serif" font-size="10.00">static QMutex mutex_</text>
<text text-anchor="start" x="4" y="-629" font-family="Helvetica,sans-Serif" font-size="10.00">+</text>
<text text-anchor="start" x="14" y="-629" font-family="Helvetica,sans-Serif" font-size="10.00">QString GetCurrentLanguage</text>
<text text-anchor="start" x="14" y="-618.5" font-family="Helvetica,sans-Serif" font-size="10.00">() const</text>
<text text-anchor="start" x="4" y="-604" font-family="Helvetica,sans-Serif" font-size="10.00">+</text>
<text text-anchor="start" x="14" y="-604" font-family="Helvetica,sans-Serif" font-size="10.00">bool Initialize(const</text>
<text text-anchor="start" x="14" y="-593.5" font-family="Helvetica,sans-Serif" font-size="10.00"> QString &amp;language_code)</text>
<text text-anchor="start" x="4" y="-579" font-family="Helvetica,sans-Serif" font-size="10.00">+</text>
<text text-anchor="start" x="14" y="-579" font-family="Helvetica,sans-Serif" font-size="10.00">QString Translate(const</text>
<text text-anchor="start" x="14" y="-568.5" font-family="Helvetica,sans-Serif" font-size="10.00"> QString &amp;key, const QString</text>
<text text-anchor="start" x="14" y="-558" font-family="Helvetica,sans-Serif" font-size="10.00"> &amp;default_value=QString()) const</text>
<text text-anchor="start" x="4" y="-543.5" font-family="Helvetica,sans-Serif" font-size="10.00">+</text>
<text text-anchor="start" x="14" y="-543.5" font-family="Helvetica,sans-Serif" font-size="10.00">static TranslationManager</text>
<text text-anchor="start" x="14" y="-533" font-family="Helvetica,sans-Serif" font-size="10.00"> * GetInstance()</text>
<text text-anchor="start" x="5.5" y="-518.5" font-family="Helvetica,sans-Serif" font-size="10.00">&#45;</text>
<text text-anchor="start" x="14" y="-518.5" font-family="Helvetica,sans-Serif" font-size="10.00">bool LoadTranslations</text>
<text text-anchor="start" x="14" y="-508" font-family="Helvetica,sans-Serif" font-size="10.00">(const QString &amp;language_code)</text>
<text text-anchor="start" x="5.5" y="-493.5" font-family="Helvetica,sans-Serif" font-size="10.00">&#45;</text>
<text text-anchor="start" x="14" y="-493.5" font-family="Helvetica,sans-Serif" font-size="10.00">TranslationManager</text>
<text text-anchor="start" x="14" y="-483" font-family="Helvetica,sans-Serif" font-size="10.00"> &amp; operator=(const Translation</text>
<text text-anchor="start" x="14" y="-472.5" font-family="Helvetica,sans-Serif" font-size="10.00">Manager &amp;)=delete</text>
<text text-anchor="start" x="5.5" y="-458" font-family="Helvetica,sans-Serif" font-size="10.00">&#45;</text>
<text text-anchor="start" x="14" y="-458" font-family="Helvetica,sans-Serif" font-size="10.00">TranslationManager</text>
<text text-anchor="start" x="14" y="-447.5" font-family="Helvetica,sans-Serif" font-size="10.00">(const TranslationManager</text>
<text text-anchor="start" x="14" y="-437" font-family="Helvetica,sans-Serif" font-size="10.00"> &amp;)=delete</text>
<text text-anchor="start" x="5.5" y="-422.5" font-family="Helvetica,sans-Serif" font-size="10.00">&#45;</text>
<text text-anchor="start" x="14" y="-422.5" font-family="Helvetica,sans-Serif" font-size="10.00">TranslationManager</text>
<text text-anchor="start" x="14" y="-412" font-family="Helvetica,sans-Serif" font-size="10.00">(QObject *parent=nullptr)</text>
<polygon fill="#666666" stroke="#666666" points="0,-709 0,-709 159.75,-709 159.75,-709 0,-709"/>
<polygon fill="#666666" stroke="#666666" points="0,-640.5 0,-640.5 12,-640.5 12,-640.5 0,-640.5"/>
<polygon fill="#666666" stroke="#666666" points="12,-640.5 12,-640.5 159.75,-640.5 159.75,-640.5 12,-640.5"/>
<polygon fill="none" stroke="#666666" points="0,-407 0,-725.5 159.75,-725.5 159.75,-407 0,-407"/>
</a>
</g>
</g>
<!-- Node5&#45;&gt;Node8 -->
<g id="edge8_Node000008_Node000005" class="edge">
<title>Node5&#45;&gt;Node8</title>
<g id="a_edge8_Node000008_Node000005"><a xlink:title=" ">
<path fill="none" stroke="#63b8ff" d="M105.11,-891C102.78,-879.76 100.43,-867.14 98.88,-855.5 93.27,-813.49 89.3,-767.81 86.48,-725.46"/>
<polygon fill="none" stroke="#63b8ff" points="101.66,-891.59 107.18,-900.63 108.5,-890.12 101.66,-891.59"/>
</a>
</g>
</g>
<!-- Node6 -->
<g id="Node000006" class="node">
<title>Node6</title>
<g id="a_Node000006"><a xlink:title=" ">
<polygon fill="white" stroke="none" points="376.5,-823.25 279.25,-823.25 279.25,-775.75 376.5,-775.75 376.5,-823.25"/>
<text text-anchor="start" x="283.25" y="-809.75" font-family="Helvetica,sans-Serif" font-size="10.00">std::shared_ptr&lt; T &gt;</text>
<text text-anchor="start" x="326.38" y="-795.25" font-family="Helvetica,sans-Serif" font-size="10.00"> </text>
<text text-anchor="start" x="286.56" y="-780.75" font-family="Helvetica,sans-Serif" font-size="10.00">+</text>
<text text-anchor="start" x="299.88" y="-780.75" font-family="Helvetica,sans-Serif" font-size="10.00">T * operator&#45;&gt;()</text>
<polygon fill="#666666" stroke="#666666" points="279.25,-806.75 279.25,-806.75 376.5,-806.75 376.5,-806.75 279.25,-806.75"/>
<polygon fill="#666666" stroke="#666666" points="279.25,-792.25 279.25,-792.25 376.5,-792.25 376.5,-792.25 279.25,-792.25"/>
<polygon fill="none" stroke="#666666" points="279.25,-775.75 279.25,-823.25 376.5,-823.25 376.5,-775.75 279.25,-775.75"/>
</a>
</g>
</g>
<!-- Node6&#45;&gt;Node3 -->
<g id="edge5_Node000003_Node000006" class="edge">
<title>Node6&#45;&gt;Node3</title>
<g id="a_edge5_Node000003_Node000006"><a xlink:title=" ">
<path fill="none" stroke="orange" d="M329.26,-764.78C330.92,-695.2 328.66,-531.8 278.88,-407 276.34,-400.64 272.56,-394.37 268.53,-388.73"/>
<polygon fill="orange" stroke="orange" points="325.77,-764.27 328.98,-774.37 332.77,-764.48 325.77,-764.27"/>
</a>
</g>
<text text-anchor="middle" x="371.94" y="-562" font-family="Helvetica,sans-Serif" font-size="10.00" fill="grey"> &lt; ImageDecoder &gt;</text>
</g>
<!-- Node7 -->
<g id="Node000007" class="node">
<title>Node7</title>
<g id="a_Node000007"><a xlink:title=" ">
<polygon fill="white" stroke="none" points="334.88,-949.5 320.88,-949.5 320.88,-902 334.88,-902 334.88,-949.5"/>
<text text-anchor="start" x="324.88" y="-936" font-family="Helvetica,sans-Serif" font-size="10.00">T</text>
<text text-anchor="start" x="326.38" y="-921.5" font-family="Helvetica,sans-Serif" font-size="10.00"> </text>
<text text-anchor="start" x="326.38" y="-907" font-family="Helvetica,sans-Serif" font-size="10.00"> </text>
<polygon fill="#666666" stroke="#666666" points="320.88,-933 320.88,-933 334.88,-933 334.88,-933 320.88,-933"/>
<polygon fill="#666666" stroke="#666666" points="320.88,-918.5 320.88,-918.5 334.88,-918.5 334.88,-918.5 320.88,-918.5"/>
<polygon fill="none" stroke="#666666" points="320.88,-902 320.88,-949.5 334.88,-949.5 334.88,-902 320.88,-902"/>
</a>
</g>
</g>
<!-- Node7&#45;&gt;Node6 -->
<g id="edge6_Node000006_Node000007" class="edge">
<title>Node7&#45;&gt;Node6</title>
<g id="a_edge6_Node000006_Node000007"><a xlink:title=" ">
<path fill="none" stroke="#63b8ff" d="M327.88,-902.25C327.88,-883.69 327.88,-857.03 327.88,-835.66"/>
<polygon fill="none" stroke="#63b8ff" points="327.88,-835.73 323.88,-829.73 327.88,-823.73 331.88,-829.73 327.88,-835.73"/>
</a>
</g>
<text text-anchor="middle" x="338" y="-874.5" font-family="Helvetica,sans-Serif" font-size="10.00" fill="grey"> +ptr</text>
</g>
<!-- Node8&#45;&gt;Node1 -->
<g id="edge7_Node000001_Node000008" class="edge">
<title>Node8&#45;&gt;Node1</title>
<g id="a_edge7_Node000001_Node000008"><a xlink:title=" ">
<path fill="none" stroke="#63b8ff" d="M84.05,-407.1C84.91,-374.58 85.81,-340.31 86.67,-307.75"/>
<polygon fill="none" stroke="#63b8ff" points="86.67,-307.78 82.83,-301.67 86.99,-295.78 90.83,-301.89 86.67,-307.78"/>
</a>
</g>
<text text-anchor="middle" x="111.49" y="-361" font-family="Helvetica,sans-Serif" font-size="10.00" fill="grey"> &#45;translator_</text>
</g>
<!-- Node8&#45;&gt;Node8 -->
<g id="edge9_Node000008_Node000008" class="edge">
<title>Node8&#45;&gt;Node8</title>
<g id="a_edge9_Node000008_Node000008"><a xlink:title=" ">
<path fill="none" stroke="#63b8ff" d="M159.37,-599.88C170.39,-594.34 177.75,-583.13 177.75,-566.25 177.75,-555.17 174.58,-546.54 169.28,-540.34"/>
<polygon fill="none" stroke="#63b8ff" points="169.55,-540.55 162.36,-540.02 160.08,-533.17 167.27,-533.71 169.55,-540.55"/>
</a>
</g>
<text text-anchor="middle" x="201.75" y="-562" font-family="Helvetica,sans-Serif" font-size="10.00" fill="grey"> &#45;instance_</text>
</g>
</g>
</svg>
