<?xml version="1.0" encoding="UTF-8" standalone="no"?>
<!DOCTYPE svg PUBLIC "-//W3C//DTD SVG 1.1//EN"
 "http://www.w3.org/Graphics/SVG/1.1/DTD/svg11.dtd">
<!-- Generated by graphviz version 12.2.1 (0)
 -->
<!-- Title: AppInstanceManager::otherInstancePositionHasChanged Pages: 1 -->
<svg width="575pt" height="84pt"
 viewBox="0.00 0.00 575.25 84.00" xmlns="http://www.w3.org/2000/svg" xmlns:xlink="http://www.w3.org/1999/xlink">
<g id="graph0" class="graph" transform="scale(1 1) rotate(0) translate(4 80)">
<title>AppInstanceManager::otherInstancePositionHasChanged</title>
<!-- Node1 -->
<g id="Node000001" class="node">
<title>Node1</title>
<g id="a_Node000001"><a xlink:title="Emitted when position data from another instance is received.">
<polygon fill="#999999" stroke="#666666" points="567.25,-57.25 432.75,-57.25 432.75,-17.75 567.25,-17.75 567.25,-57.25"/>
<text text-anchor="start" x="440.75" y="-43.75" font-family="Helvetica,sans-Serif" font-size="10.00">AppInstanceManager</text>
<text text-anchor="start" x="440.75" y="-33.25" font-family="Helvetica,sans-Serif" font-size="10.00">::otherInstancePositionHas</text>
<text text-anchor="middle" x="500" y="-22.75" font-family="Helvetica,sans-Serif" font-size="10.00">Changed</text>
</a>
</g>
</g>
<!-- Node2 -->
<g id="Node000002" class="node">
<title>Node2</title>
<g id="a_Node000002"><a xlink:href="classAppInstanceManager.html#a46df6d357b1a69b71bfa325166b179ea" target="_top" xlink:title="Processes an incoming message received from a socket.">
<polygon fill="white" stroke="#666666" points="396.75,-52 288.5,-52 288.5,-23 396.75,-23 396.75,-52"/>
<text text-anchor="start" x="296.5" y="-38.5" font-family="Helvetica,sans-Serif" font-size="10.00">AppInstanceManager</text>
<text text-anchor="middle" x="342.62" y="-28" font-family="Helvetica,sans-Serif" font-size="10.00">::ProcessMessage</text>
</a>
</g>
</g>
<!-- Node1&#45;&gt;Node2 -->
<g id="edge1_Node000001_Node000002" class="edge">
<title>Node1&#45;&gt;Node2</title>
<g id="a_edge1_Node000001_Node000002"><a xlink:title=" ">
<path fill="none" stroke="#63b8ff" d="M421.17,-37.5C413.02,-37.5 404.87,-37.5 397.08,-37.5"/>
<polygon fill="#63b8ff" stroke="#63b8ff" points="421.14,-41 431.14,-37.5 421.14,-34 421.14,-41"/>
</a>
</g>
</g>
<!-- Node3 -->
<g id="Node000003" class="node">
<title>Node3</title>
<g id="a_Node000003"><a xlink:href="classAppInstanceManager.html#ab7fe0e77dca903fa23d78139dd68e84b" target="_top" xlink:title="Slot called when data can be read from a connected socket.">
<polygon fill="white" stroke="#666666" points="252.5,-52 144.25,-52 144.25,-23 252.5,-23 252.5,-52"/>
<text text-anchor="start" x="152.25" y="-38.5" font-family="Helvetica,sans-Serif" font-size="10.00">AppInstanceManager</text>
<text text-anchor="middle" x="198.38" y="-28" font-family="Helvetica,sans-Serif" font-size="10.00">::readData</text>
</a>
</g>
</g>
<!-- Node2&#45;&gt;Node3 -->
<g id="edge2_Node000002_Node000003" class="edge">
<title>Node2&#45;&gt;Node3</title>
<g id="a_edge2_Node000002_Node000003"><a xlink:title=" ">
<path fill="none" stroke="#63b8ff" d="M276.88,-37.5C268.74,-37.5 260.5,-37.5 252.57,-37.5"/>
<polygon fill="#63b8ff" stroke="#63b8ff" points="276.74,-41 286.74,-37.5 276.74,-34 276.74,-41"/>
</a>
</g>
</g>
<!-- Node4 -->
<g id="Node000004" class="node">
<title>Node4</title>
<g id="a_Node000004"><a xlink:href="classAppInstanceManager.html#a6aa626dd1ea5e5c57860d532bdb85d5e" target="_top" xlink:title="Establishes a connection to the server instance for a client instance.">
<polygon fill="#fff0f0" stroke="red" points="108.25,-76 0,-76 0,-47 108.25,-47 108.25,-76"/>
<text text-anchor="start" x="8" y="-62.5" font-family="Helvetica,sans-Serif" font-size="10.00">AppInstanceManager</text>
<text text-anchor="middle" x="54.12" y="-52" font-family="Helvetica,sans-Serif" font-size="10.00">::ConnectToServer</text>
</a>
</g>
</g>
<!-- Node3&#45;&gt;Node4 -->
<g id="edge3_Node000003_Node000004" class="edge">
<title>Node3&#45;&gt;Node4</title>
<g id="a_edge3_Node000003_Node000004"><a xlink:title=" ">
<path fill="none" stroke="#63b8ff" d="M132.91,-48.38C124.68,-49.76 116.34,-51.17 108.32,-52.52"/>
<polygon fill="#63b8ff" stroke="#63b8ff" points="133.23,-51.87 142.51,-46.76 132.07,-44.97 133.23,-51.87"/>
</a>
</g>
</g>
<!-- Node6 -->
<g id="Node000006" class="node">
<title>Node6</title>
<g id="a_Node000006"><a xlink:href="classAppInstanceManager.html#af7e9143a1ff0af2932c1d0afc1f31231" target="_top" xlink:title="Slot called when a new client attempts to connect to the server.">
<polygon fill="#fff0f0" stroke="red" points="108.25,-29 0,-29 0,0 108.25,0 108.25,-29"/>
<text text-anchor="start" x="8" y="-15.5" font-family="Helvetica,sans-Serif" font-size="10.00">AppInstanceManager</text>
<text text-anchor="middle" x="54.12" y="-5" font-family="Helvetica,sans-Serif" font-size="10.00">::onNewConnection</text>
</a>
</g>
</g>
<!-- Node3&#45;&gt;Node6 -->
<g id="edge4_Node000003_Node000006" class="edge">
<title>Node3&#45;&gt;Node6</title>
<g id="a_edge4_Node000003_Node000006"><a xlink:title=" ">
<path fill="none" stroke="#63b8ff" d="M132.91,-27.08C124.68,-25.75 116.34,-24.4 108.32,-23.1"/>
<polygon fill="#63b8ff" stroke="#63b8ff" points="132.08,-30.49 142.51,-28.63 133.19,-23.58 132.08,-30.49"/>
</a>
</g>
</g>
</g>
</svg>
