<?xml version="1.0" encoding="UTF-8" standalone="no"?>
<!DOCTYPE svg PUBLIC "-//W3C//DTD SVG 1.1//EN"
 "http://www.w3.org/Graphics/SVG/1.1/DTD/svg11.dtd">
<!-- Generated by graphviz version 12.2.1 (0)
 -->
<!-- Title: AppInstanceManager::instanceDisconnected Pages: 1 -->
<svg width="704pt" height="93pt"
 viewBox="0.00 0.00 703.75 92.79" xmlns="http://www.w3.org/2000/svg" xmlns:xlink="http://www.w3.org/1999/xlink">
<g id="graph0" class="graph" transform="scale(1 1) rotate(0) translate(4 88.79)">
<title>AppInstanceManager::instanceDisconnected</title>
<!-- Node1 -->
<g id="Node000001" class="node">
<title>Node1</title>
<g id="a_Node000001"><a xlink:title="Emitted when a client instance disconnects (on the server) or when the connection to the server is lo...">
<polygon fill="#999999" stroke="#666666" points="695.75,-41.79 577,-41.79 577,-12.79 695.75,-12.79 695.75,-41.79"/>
<text text-anchor="start" x="585" y="-28.29" font-family="Helvetica,sans-Serif" font-size="10.00">AppInstanceManager</text>
<text text-anchor="middle" x="636.38" y="-17.79" font-family="Helvetica,sans-Serif" font-size="10.00">::instanceDisconnected</text>
</a>
</g>
</g>
<!-- Node2 -->
<g id="Node000002" class="node">
<title>Node2</title>
<g id="a_Node000002"><a xlink:href="classAppInstanceManager.html#a8087ee7ea64e087b39c66048becc8574" target="_top" xlink:title="Slot called when a connected socket disconnects. Handles cleanup and potential role change (the clien...">
<polygon fill="white" stroke="#666666" points="541,-41.79 432.75,-41.79 432.75,-12.79 541,-12.79 541,-41.79"/>
<text text-anchor="start" x="440.75" y="-28.29" font-family="Helvetica,sans-Serif" font-size="10.00">AppInstanceManager</text>
<text text-anchor="middle" x="486.88" y="-17.79" font-family="Helvetica,sans-Serif" font-size="10.00">::clientDisconnected</text>
</a>
</g>
</g>
<!-- Node1&#45;&gt;Node2 -->
<g id="edge1_Node000001_Node000002" class="edge">
<title>Node1&#45;&gt;Node2</title>
<g id="a_edge1_Node000001_Node000002"><a xlink:title=" ">
<path fill="none" stroke="#63b8ff" d="M565.26,-27.29C557.15,-27.29 548.97,-27.29 541.13,-27.29"/>
<polygon fill="#63b8ff" stroke="#63b8ff" points="565.14,-30.79 575.14,-27.29 565.14,-23.79 565.14,-30.79"/>
</a>
</g>
</g>
<!-- Node3 -->
<g id="Node000003" class="node">
<title>Node3</title>
<g id="a_Node000003"><a xlink:href="classAppInstanceManager.html#a6aa626dd1ea5e5c57860d532bdb85d5e" target="_top" xlink:title="Establishes a connection to the server instance for a client instance.">
<polygon fill="white" stroke="#666666" points="252.5,-84.79 144.25,-84.79 144.25,-55.79 252.5,-55.79 252.5,-84.79"/>
<text text-anchor="start" x="152.25" y="-71.29" font-family="Helvetica,sans-Serif" font-size="10.00">AppInstanceManager</text>
<text text-anchor="middle" x="198.38" y="-60.79" font-family="Helvetica,sans-Serif" font-size="10.00">::ConnectToServer</text>
</a>
</g>
</g>
<!-- Node2&#45;&gt;Node3 -->
<g id="edge2_Node000002_Node000003" class="edge">
<title>Node2&#45;&gt;Node3</title>
<g id="a_edge2_Node000002_Node000003"><a xlink:title=" ">
<path fill="none" stroke="#63b8ff" d="M425.27,-45.06C415.78,-47.42 406.04,-49.6 396.75,-51.29 348.48,-60.05 292.79,-64.94 252.9,-67.56"/>
<polygon fill="#63b8ff" stroke="#63b8ff" points="425.97,-48.5 434.78,-42.61 424.22,-41.72 425.97,-48.5"/>
</a>
</g>
</g>
<!-- Node5 -->
<g id="Node000005" class="node">
<title>Node5</title>
<g id="a_Node000005"><a xlink:href="classAppInstanceManager.html#af7e9143a1ff0af2932c1d0afc1f31231" target="_top" xlink:title="Slot called when a new client attempts to connect to the server.">
<polygon fill="white" stroke="#666666" points="396.75,-41.79 288.5,-41.79 288.5,-12.79 396.75,-12.79 396.75,-41.79"/>
<text text-anchor="start" x="296.5" y="-28.29" font-family="Helvetica,sans-Serif" font-size="10.00">AppInstanceManager</text>
<text text-anchor="middle" x="342.62" y="-17.79" font-family="Helvetica,sans-Serif" font-size="10.00">::onNewConnection</text>
</a>
</g>
</g>
<!-- Node2&#45;&gt;Node5 -->
<g id="edge4_Node000002_Node000005" class="edge">
<title>Node2&#45;&gt;Node5</title>
<g id="a_edge4_Node000002_Node000005"><a xlink:title=" ">
<path fill="none" stroke="#63b8ff" d="M421.13,-27.29C412.99,-27.29 404.75,-27.29 396.82,-27.29"/>
<polygon fill="#63b8ff" stroke="#63b8ff" points="420.99,-30.79 430.99,-27.29 420.99,-23.79 420.99,-30.79"/>
</a>
</g>
</g>
<!-- Node4 -->
<g id="Node000004" class="node">
<title>Node4</title>
<g id="a_Node000004"><a xlink:href="classAppInstanceManager.html#a1ecdc08b00d9aae9d33976f8ce90d6f5" target="_top" xlink:title="Starts the instance manager.">
<polygon fill="white" stroke="#666666" points="108.25,-60.79 0,-60.79 0,-31.79 108.25,-31.79 108.25,-60.79"/>
<text text-anchor="start" x="8" y="-47.29" font-family="Helvetica,sans-Serif" font-size="10.00">AppInstanceManager</text>
<text text-anchor="middle" x="54.12" y="-36.79" font-family="Helvetica,sans-Serif" font-size="10.00">::Start</text>
</a>
</g>
</g>
<!-- Node3&#45;&gt;Node4 -->
<g id="edge3_Node000003_Node000004" class="edge">
<title>Node3&#45;&gt;Node4</title>
<g id="a_edge3_Node000003_Node000004"><a xlink:title=" ">
<path fill="none" stroke="#63b8ff" d="M132.91,-59.41C124.68,-58.03 116.34,-56.62 108.32,-55.27"/>
<polygon fill="#63b8ff" stroke="#63b8ff" points="132.07,-62.82 142.51,-61.03 133.23,-55.92 132.07,-62.82"/>
</a>
</g>
</g>
<!-- Node6 -->
<g id="Node000006" class="node">
<title>Node6</title>
<g id="a_Node000006"><a xlink:href="classAppInstanceManager.html#af09b098118800e025bcdce635b382ddd" target="_top" xlink:title="Sets up the QLocalServer for the creator instance.">
<polygon fill="white" stroke="#666666" points="252.5,-37.79 144.25,-37.79 144.25,-8.79 252.5,-8.79 252.5,-37.79"/>
<text text-anchor="start" x="152.25" y="-24.29" font-family="Helvetica,sans-Serif" font-size="10.00">AppInstanceManager</text>
<text text-anchor="middle" x="198.38" y="-13.79" font-family="Helvetica,sans-Serif" font-size="10.00">::SetupServer</text>
</a>
</g>
</g>
<!-- Node5&#45;&gt;Node6 -->
<g id="edge5_Node000005_Node000006" class="edge">
<title>Node5&#45;&gt;Node6</title>
<g id="a_edge5_Node000005_Node000006"><a xlink:title=" ">
<path fill="none" stroke="#63b8ff" d="M276.88,-25.47C268.74,-25.24 260.5,-25.01 252.57,-24.79"/>
<polygon fill="#63b8ff" stroke="#63b8ff" points="276.64,-28.96 286.74,-25.75 276.84,-21.97 276.64,-28.96"/>
</a>
</g>
</g>
<!-- Node6&#45;&gt;Node2 -->
<g id="edge6_Node000006_Node000002" class="edge">
<title>Node6&#45;&gt;Node2</title>
<g id="a_edge6_Node000006_Node000002"><a xlink:title=" ">
<path fill="none" stroke="#63b8ff" d="M263.92,-7.87C272.15,-6.39 280.5,-5.13 288.5,-4.29 336.35,0.75 349.02,1.77 396.75,-4.29 410.07,-5.98 424.24,-9.04 437.27,-12.38"/>
<polygon fill="#63b8ff" stroke="#63b8ff" points="263.46,-4.39 254.3,-9.71 264.78,-11.27 263.46,-4.39"/>
</a>
</g>
</g>
<!-- Node6&#45;&gt;Node4 -->
<g id="edge7_Node000006_Node000004" class="edge">
<title>Node6&#45;&gt;Node4</title>
<g id="a_edge7_Node000006_Node000004"><a xlink:title=" ">
<path fill="none" stroke="#63b8ff" d="M132.91,-33.71C124.68,-35.04 116.34,-36.39 108.32,-37.69"/>
<polygon fill="#63b8ff" stroke="#63b8ff" points="133.19,-37.21 142.51,-32.16 132.08,-30.3 133.19,-37.21"/>
</a>
</g>
</g>
</g>
</svg>
