<?xml version="1.0" encoding="UTF-8" standalone="no"?>
<!DOCTYPE svg PUBLIC "-//W3C//DTD SVG 1.1//EN"
 "http://www.w3.org/Graphics/SVG/1.1/DTD/svg11.dtd">
<!-- Generated by graphviz version 12.2.1 (0)
 -->
<!-- Title: src/ui/settings/tabs/appearance/components/clickable_color_preview.h Pages: 1 -->
<svg width="290pt" height="123pt"
 viewBox="0.00 0.00 289.50 123.00" xmlns="http://www.w3.org/2000/svg" xmlns:xlink="http://www.w3.org/1999/xlink">
<g id="graph0" class="graph" transform="scale(1 1) rotate(0) translate(4 119)">
<title>src/ui/settings/tabs/appearance/components/clickable_color_preview.h</title>
<!-- Node1 -->
<g id="Node000001" class="node">
<title>Node1</title>
<g id="a_Node000001"><a xlink:title=" ">
<polygon fill="#999999" stroke="#666666" points="201.25,-115 71.25,-115 71.25,-75.5 201.25,-75.5 201.25,-115"/>
<text text-anchor="start" x="79.25" y="-101.5" font-family="Helvetica,sans-Serif" font-size="10.00">src/ui/settings/tabs</text>
<text text-anchor="start" x="79.25" y="-91" font-family="Helvetica,sans-Serif" font-size="10.00">/appearance/components</text>
<text text-anchor="middle" x="136.25" y="-80.5" font-family="Helvetica,sans-Serif" font-size="10.00">/clickable_color_preview.h</text>
</a>
</g>
</g>
<!-- Node2 -->
<g id="Node000002" class="node">
<title>Node2</title>
<g id="a_Node000002"><a xlink:href="appearance__settings__widget_8cpp.html" target="_top" xlink:title=" ">
<polygon fill="white" stroke="#666666" points="122.5,-39.5 0,-39.5 0,0 122.5,0 122.5,-39.5"/>
<text text-anchor="start" x="8" y="-26" font-family="Helvetica,sans-Serif" font-size="10.00">src/ui/settings/tabs</text>
<text text-anchor="start" x="8" y="-15.5" font-family="Helvetica,sans-Serif" font-size="10.00">/appearance/appearance</text>
<text text-anchor="middle" x="61.25" y="-5" font-family="Helvetica,sans-Serif" font-size="10.00">_settings_widget.cpp</text>
</a>
</g>
</g>
<!-- Node1&#45;&gt;Node2 -->
<g id="edge1_Node000001_Node000002" class="edge">
<title>Node1&#45;&gt;Node2</title>
<g id="a_edge1_Node000001_Node000002"><a xlink:title=" ">
<path fill="none" stroke="#63b8ff" d="M108.73,-67.28C99.45,-58.19 89.29,-48.23 80.76,-39.87"/>
<polygon fill="#63b8ff" stroke="#63b8ff" points="106.26,-69.76 115.85,-74.26 111.16,-64.76 106.26,-69.76"/>
</a>
</g>
</g>
<!-- Node3 -->
<g id="Node000003" class="node">
<title>Node3</title>
<g id="a_Node000003"><a xlink:href="clickable__color__preview_8cpp.html" target="_top" xlink:title=" ">
<polygon fill="white" stroke="#666666" points="281.5,-39.5 141,-39.5 141,0 281.5,0 281.5,-39.5"/>
<text text-anchor="start" x="149" y="-26" font-family="Helvetica,sans-Serif" font-size="10.00">src/ui/settings/tabs</text>
<text text-anchor="start" x="149" y="-15.5" font-family="Helvetica,sans-Serif" font-size="10.00">/appearance/components</text>
<text text-anchor="middle" x="211.25" y="-5" font-family="Helvetica,sans-Serif" font-size="10.00">/clickable_color_preview.cpp</text>
</a>
</g>
</g>
<!-- Node1&#45;&gt;Node3 -->
<g id="edge2_Node000001_Node000003" class="edge">
<title>Node1&#45;&gt;Node3</title>
<g id="a_edge2_Node000001_Node000003"><a xlink:title=" ">
<path fill="none" stroke="#63b8ff" d="M163.77,-67.28C173.05,-58.19 183.21,-48.23 191.74,-39.87"/>
<polygon fill="#63b8ff" stroke="#63b8ff" points="161.34,-64.76 156.65,-74.26 166.24,-69.76 161.34,-64.76"/>
</a>
</g>
</g>
</g>
</svg>
