<?xml version="1.0" encoding="UTF-8" standalone="no"?>
<!DOCTYPE svg PUBLIC "-//W3C//DTD SVG 1.1//EN"
 "http://www.w3.org/Graphics/SVG/1.1/DTD/svg11.dtd">
<!-- Generated by graphviz version 12.2.1 (0)
 -->
<!-- Title: src/ui/chat/communication_stream.cpp Pages: 1 -->
<svg width="1672pt" height="222pt"
 viewBox="0.00 0.00 1671.50 221.50" xmlns="http://www.w3.org/2000/svg" xmlns:xlink="http://www.w3.org/1999/xlink">
<g id="graph0" class="graph" transform="scale(1 1) rotate(0) translate(4 217.5)">
<title>src/ui/chat/communication_stream.cpp</title>
<!-- Node1 -->
<g id="Node000001" class="node">
<title>Node1</title>
<g id="a_Node000001"><a xlink:title=" ">
<polygon fill="#999999" stroke="#666666" points="1002.88,-213.5 872.12,-213.5 872.12,-184.5 1002.88,-184.5 1002.88,-213.5"/>
<text text-anchor="start" x="880.12" y="-200" font-family="Helvetica,sans-Serif" font-size="10.00">src/ui/chat/communication</text>
<text text-anchor="middle" x="937.5" y="-189.5" font-family="Helvetica,sans-Serif" font-size="10.00">_stream.cpp</text>
</a>
</g>
</g>
<!-- Node2 -->
<g id="Node000002" class="node">
<title>Node2</title>
<g id="a_Node000002"><a xlink:href="communication__stream_8h.html" target="_top" xlink:title=" ">
<polygon fill="white" stroke="#666666" points="394.25,-143.25 268.75,-143.25 268.75,-124.75 394.25,-124.75 394.25,-143.25"/>
<text text-anchor="middle" x="331.5" y="-129.75" font-family="Helvetica,sans-Serif" font-size="10.00">communication_stream.h</text>
</a>
</g>
</g>
<!-- Node1&#45;&gt;Node2 -->
<g id="edge1_Node000001_Node000002" class="edge">
<title>Node1&#45;&gt;Node2</title>
<g id="a_edge1_Node000001_Node000002"><a xlink:title=" ">
<path fill="none" stroke="#63b8ff" d="M871.92,-193.89C770.97,-187.12 571.55,-171.99 403.5,-148.5 397.6,-147.67 391.44,-146.7 385.32,-145.66"/>
<polygon fill="#63b8ff" stroke="#63b8ff" points="386.36,-142.29 375.91,-143.99 385.14,-149.18 386.36,-142.29"/>
</a>
</g>
</g>
<!-- Node11 -->
<g id="Node000011" class="node">
<title>Node11</title>
<g id="a_Node000011"><a xlink:title=" ">
<polygon fill="#e0e0e0" stroke="#999999" points="496.25,-143.25 412.75,-143.25 412.75,-124.75 496.25,-124.75 496.25,-143.25"/>
<text text-anchor="middle" x="454.5" y="-129.75" font-family="Helvetica,sans-Serif" font-size="10.00">QElapsedTimer</text>
</a>
</g>
</g>
<!-- Node1&#45;&gt;Node11 -->
<g id="edge10_Node000001_Node000011" class="edge">
<title>Node1&#45;&gt;Node11</title>
<g id="a_edge10_Node000001_Node000011"><a xlink:title=" ">
<path fill="none" stroke="#63b8ff" d="M871.92,-193.45C786.88,-186.88 634.21,-172.78 505.5,-148.5 502.29,-147.9 498.99,-147.2 495.68,-146.44"/>
<polygon fill="#63b8ff" stroke="#63b8ff" points="496.55,-143.05 486.01,-144.08 494.89,-149.85 496.55,-143.05"/>
</a>
</g>
</g>
<!-- Node12 -->
<g id="Node000012" class="node">
<title>Node12</title>
<g id="a_Node000012"><a xlink:title=" ">
<polygon fill="#e0e0e0" stroke="#999999" points="578.88,-143.25 514.12,-143.25 514.12,-124.75 578.88,-124.75 578.88,-143.25"/>
<text text-anchor="middle" x="546.5" y="-129.75" font-family="Helvetica,sans-Serif" font-size="10.00">QKeyEvent</text>
</a>
</g>
</g>
<!-- Node1&#45;&gt;Node12 -->
<g id="edge11_Node000001_Node000012" class="edge">
<title>Node1&#45;&gt;Node12</title>
<g id="a_edge11_Node000001_Node000012"><a xlink:title=" ">
<path fill="none" stroke="#63b8ff" d="M871.93,-192.06C801.33,-184.89 686.01,-170.92 588.5,-148.5 586.37,-148.01 584.2,-147.46 582.01,-146.88"/>
<polygon fill="#63b8ff" stroke="#63b8ff" points="583.21,-143.58 572.63,-144.13 581.24,-150.3 583.21,-143.58"/>
</a>
</g>
</g>
<!-- Node13 -->
<g id="Node000013" class="node">
<title>Node13</title>
<g id="a_Node000013"><a xlink:title=" ">
<polygon fill="#e0e0e0" stroke="#999999" points="724,-143.25 597,-143.25 597,-124.75 724,-124.75 724,-143.25"/>
<text text-anchor="middle" x="660.5" y="-129.75" font-family="Helvetica,sans-Serif" font-size="10.00">QOpenGLShaderProgram</text>
</a>
</g>
</g>
<!-- Node1&#45;&gt;Node13 -->
<g id="edge12_Node000001_Node000013" class="edge">
<title>Node1&#45;&gt;Node13</title>
<g id="a_edge12_Node000001_Node000013"><a xlink:title=" ">
<path fill="none" stroke="#63b8ff" d="M876.02,-184.02C825.96,-172.63 756.21,-156.77 709.77,-146.21"/>
<polygon fill="#63b8ff" stroke="#63b8ff" points="710.78,-142.85 700.26,-144.04 709.23,-149.67 710.78,-142.85"/>
</a>
</g>
</g>
<!-- Node14 -->
<g id="Node000014" class="node">
<title>Node14</title>
<g id="a_Node000014"><a xlink:title=" ">
<polygon fill="#e0e0e0" stroke="#999999" points="867.25,-143.25 741.75,-143.25 741.75,-124.75 867.25,-124.75 867.25,-143.25"/>
<text text-anchor="middle" x="804.5" y="-129.75" font-family="Helvetica,sans-Serif" font-size="10.00">QParallelAnimationGroup</text>
</a>
</g>
</g>
<!-- Node1&#45;&gt;Node14 -->
<g id="edge13_Node000001_Node000014" class="edge">
<title>Node1&#45;&gt;Node14</title>
<g id="a_edge13_Node000001_Node000014"><a xlink:title=" ">
<path fill="none" stroke="#63b8ff" d="M907.98,-184.02C885.72,-173.47 855.36,-159.09 833.28,-148.63"/>
<polygon fill="#63b8ff" stroke="#63b8ff" points="834.78,-145.47 824.25,-144.35 831.79,-151.8 834.78,-145.47"/>
</a>
</g>
</g>
<!-- Node15 -->
<g id="Node000015" class="node">
<title>Node15</title>
<g id="a_Node000015"><a xlink:title=" ">
<polygon fill="#e0e0e0" stroke="#999999" points="989.75,-143.25 885.25,-143.25 885.25,-124.75 989.75,-124.75 989.75,-143.25"/>
<text text-anchor="middle" x="937.5" y="-129.75" font-family="Helvetica,sans-Serif" font-size="10.00">QPropertyAnimation</text>
</a>
</g>
</g>
<!-- Node1&#45;&gt;Node15 -->
<g id="edge14_Node000001_Node000015" class="edge">
<title>Node1&#45;&gt;Node15</title>
<g id="a_edge14_Node000001_Node000015"><a xlink:title=" ">
<path fill="none" stroke="#63b8ff" d="M937.5,-184.02C937.5,-175.54 937.5,-164.59 937.5,-155.19"/>
<polygon fill="#63b8ff" stroke="#63b8ff" points="941,-155.22 937.5,-145.22 934,-155.22 941,-155.22"/>
</a>
</g>
</g>
<!-- Node16 -->
<g id="Node000016" class="node">
<title>Node16</title>
<g id="a_Node000016"><a xlink:title=" ">
<polygon fill="#e0e0e0" stroke="#999999" points="1082.75,-143.25 1008.25,-143.25 1008.25,-124.75 1082.75,-124.75 1082.75,-143.25"/>
<text text-anchor="middle" x="1045.5" y="-129.75" font-family="Helvetica,sans-Serif" font-size="10.00">QPushButton</text>
</a>
</g>
</g>
<!-- Node1&#45;&gt;Node16 -->
<g id="edge15_Node000001_Node000016" class="edge">
<title>Node1&#45;&gt;Node16</title>
<g id="a_edge15_Node000001_Node000016"><a xlink:title=" ">
<path fill="none" stroke="#63b8ff" d="M961.47,-184.02C979.05,-173.76 1002.86,-159.88 1020.64,-149.5"/>
<polygon fill="#63b8ff" stroke="#63b8ff" points="1022.39,-152.53 1029.27,-144.47 1018.87,-146.48 1022.39,-152.53"/>
</a>
</g>
</g>
<!-- Node17 -->
<g id="Node000017" class="node">
<title>Node17</title>
<g id="a_Node000017"><a xlink:title=" ">
<polygon fill="#e0e0e0" stroke="#999999" points="1202.62,-143.25 1100.38,-143.25 1100.38,-124.75 1202.62,-124.75 1202.62,-143.25"/>
<text text-anchor="middle" x="1151.5" y="-129.75" font-family="Helvetica,sans-Serif" font-size="10.00">QRandomGenerator</text>
</a>
</g>
</g>
<!-- Node1&#45;&gt;Node17 -->
<g id="edge16_Node000001_Node000017" class="edge">
<title>Node1&#45;&gt;Node17</title>
<g id="a_edge16_Node000001_Node000017"><a xlink:title=" ">
<path fill="none" stroke="#63b8ff" d="M984.99,-184.02C1022.77,-172.9 1075.06,-157.5 1110.91,-146.95"/>
<polygon fill="#63b8ff" stroke="#63b8ff" points="1111.87,-150.32 1120.47,-144.13 1109.89,-143.6 1111.87,-150.32"/>
</a>
</g>
</g>
<!-- Node18 -->
<g id="Node000018" class="node">
<title>Node18</title>
<g id="a_Node000018"><a xlink:title=" ">
<polygon fill="#e0e0e0" stroke="#999999" points="1268.62,-143.25 1220.38,-143.25 1220.38,-124.75 1268.62,-124.75 1268.62,-143.25"/>
<text text-anchor="middle" x="1244.5" y="-129.75" font-family="Helvetica,sans-Serif" font-size="10.00">QTimer</text>
</a>
</g>
</g>
<!-- Node1&#45;&gt;Node18 -->
<g id="edge17_Node000001_Node000018" class="edge">
<title>Node1&#45;&gt;Node18</title>
<g id="a_edge17_Node000001_Node000018"><a xlink:title=" ">
<path fill="none" stroke="#63b8ff" d="M1003.16,-190.08C1059.23,-182.38 1141.65,-168.85 1211.5,-148.5 1212.49,-148.21 1213.49,-147.9 1214.49,-147.58"/>
<polygon fill="#63b8ff" stroke="#63b8ff" points="1215.57,-150.91 1223.77,-144.2 1213.18,-144.33 1215.57,-150.91"/>
</a>
</g>
</g>
<!-- Node19 -->
<g id="Node000019" class="node">
<title>Node19</title>
<g id="a_Node000019"><a xlink:href="wavelength__config_8h.html" target="_top" xlink:title=" ">
<polygon fill="white" stroke="#666666" points="1387.88,-148.5 1287.12,-148.5 1287.12,-119.5 1387.88,-119.5 1387.88,-148.5"/>
<text text-anchor="start" x="1295.12" y="-135" font-family="Helvetica,sans-Serif" font-size="10.00">../../app/wavelength</text>
<text text-anchor="middle" x="1337.5" y="-124.5" font-family="Helvetica,sans-Serif" font-size="10.00">_config.h</text>
</a>
</g>
</g>
<!-- Node1&#45;&gt;Node19 -->
<g id="edge18_Node000001_Node000019" class="edge">
<title>Node1&#45;&gt;Node19</title>
<g id="a_edge18_Node000001_Node000019"><a xlink:title=" ">
<path fill="none" stroke="#63b8ff" d="M1003.24,-189.95C1069.43,-181.5 1174.68,-167.14 1275.5,-148.77"/>
<polygon fill="#63b8ff" stroke="#63b8ff" points="1276.13,-152.22 1285.33,-146.96 1274.86,-145.33 1276.13,-152.22"/>
</a>
</g>
</g>
<!-- Node24 -->
<g id="Node000024" class="node">
<title>Node24</title>
<g id="a_Node000024"><a xlink:href="translation__manager_8h.html" target="_top" xlink:title=" ">
<polygon fill="white" stroke="#666666" points="1586,-148.5 1471,-148.5 1471,-119.5 1586,-119.5 1586,-148.5"/>
<text text-anchor="start" x="1479" y="-135" font-family="Helvetica,sans-Serif" font-size="10.00">../../app/managers</text>
<text text-anchor="middle" x="1528.5" y="-124.5" font-family="Helvetica,sans-Serif" font-size="10.00">/translation_manager.h</text>
</a>
</g>
</g>
<!-- Node1&#45;&gt;Node24 -->
<g id="edge23_Node000001_Node000024" class="edge">
<title>Node1&#45;&gt;Node24</title>
<g id="a_edge23_Node000001_Node000024"><a xlink:title=" ">
<path fill="none" stroke="#63b8ff" d="M1003.29,-190.99C1115.86,-178.99 1344.38,-154.63 1459.27,-142.38"/>
<polygon fill="#63b8ff" stroke="#63b8ff" points="1459.61,-145.86 1469.19,-141.32 1458.87,-138.9 1459.61,-145.86"/>
</a>
</g>
</g>
<!-- Node3 -->
<g id="Node000003" class="node">
<title>Node3</title>
<g id="a_Node000003"><a xlink:title=" ">
<polygon fill="#e0e0e0" stroke="#999999" points="85,-78.25 0,-78.25 0,-59.75 85,-59.75 85,-78.25"/>
<text text-anchor="middle" x="42.5" y="-64.75" font-family="Helvetica,sans-Serif" font-size="10.00">QOpenGLBuffer</text>
</a>
</g>
</g>
<!-- Node2&#45;&gt;Node3 -->
<g id="edge2_Node000002_Node000003" class="edge">
<title>Node2&#45;&gt;Node3</title>
<g id="a_edge2_Node000002_Node000003"><a xlink:title=" ">
<path fill="none" stroke="#63b8ff" d="M286.8,-124.33C239.05,-114.91 161.21,-99.12 94.5,-83.5 91.76,-82.86 88.94,-82.18 86.1,-81.48"/>
<polygon fill="#63b8ff" stroke="#63b8ff" points="87.19,-78.15 76.64,-79.11 85.49,-84.94 87.19,-78.15"/>
</a>
</g>
</g>
<!-- Node4 -->
<g id="Node000004" class="node">
<title>Node4</title>
<g id="a_Node000004"><a xlink:title=" ">
<polygon fill="#e0e0e0" stroke="#999999" points="193.62,-78.25 103.38,-78.25 103.38,-59.75 193.62,-59.75 193.62,-78.25"/>
<text text-anchor="middle" x="148.5" y="-64.75" font-family="Helvetica,sans-Serif" font-size="10.00">QOpenGLWidget</text>
</a>
</g>
</g>
<!-- Node2&#45;&gt;Node4 -->
<g id="edge3_Node000002_Node000004" class="edge">
<title>Node2&#45;&gt;Node4</title>
<g id="a_edge3_Node000002_Node000004"><a xlink:title=" ">
<path fill="none" stroke="#63b8ff" d="M306.44,-124.37C274.86,-113.5 220.37,-94.74 184.38,-82.35"/>
<polygon fill="#63b8ff" stroke="#63b8ff" points="185.87,-79.16 175.28,-79.22 183.59,-85.78 185.87,-79.16"/>
</a>
</g>
</g>
<!-- Node5 -->
<g id="Node000005" class="node">
<title>Node5</title>
<g id="a_Node000005"><a xlink:title=" ">
<polygon fill="#e0e0e0" stroke="#999999" points="313.62,-78.25 211.38,-78.25 211.38,-59.75 313.62,-59.75 313.62,-78.25"/>
<text text-anchor="middle" x="262.5" y="-64.75" font-family="Helvetica,sans-Serif" font-size="10.00">QOpenGLFunctions</text>
</a>
</g>
</g>
<!-- Node2&#45;&gt;Node5 -->
<g id="edge4_Node000002_Node000005" class="edge">
<title>Node2&#45;&gt;Node5</title>
<g id="a_edge4_Node000002_Node000005"><a xlink:title=" ">
<path fill="none" stroke="#63b8ff" d="M322.19,-124.5C311.43,-114.68 293.49,-98.29 280.07,-86.05"/>
<polygon fill="#63b8ff" stroke="#63b8ff" points="282.52,-83.54 272.78,-79.38 277.8,-88.71 282.52,-83.54"/>
</a>
</g>
</g>
<!-- Node6 -->
<g id="Node000006" class="node">
<title>Node6</title>
<g id="a_Node000006"><a xlink:title=" ">
<polygon fill="#e0e0e0" stroke="#999999" points="471,-78.25 332,-78.25 332,-59.75 471,-59.75 471,-78.25"/>
<text text-anchor="middle" x="401.5" y="-64.75" font-family="Helvetica,sans-Serif" font-size="10.00">QOpenGLVertexArrayObject</text>
</a>
</g>
</g>
<!-- Node2&#45;&gt;Node6 -->
<g id="edge5_Node000002_Node000006" class="edge">
<title>Node2&#45;&gt;Node6</title>
<g id="a_edge5_Node000002_Node000006"><a xlink:title=" ">
<path fill="none" stroke="#63b8ff" d="M340.94,-124.5C351.86,-114.68 370.06,-98.29 383.67,-86.05"/>
<polygon fill="#63b8ff" stroke="#63b8ff" points="385.99,-88.67 391.08,-79.37 381.31,-83.46 385.99,-88.67"/>
</a>
</g>
</g>
<!-- Node7 -->
<g id="Node000007" class="node">
<title>Node7</title>
<g id="a_Node000007"><a xlink:href="stream__message_8h.html" target="_top" xlink:title=" ">
<polygon fill="white" stroke="#666666" points="588.12,-78.25 488.88,-78.25 488.88,-59.75 588.12,-59.75 588.12,-78.25"/>
<text text-anchor="middle" x="538.5" y="-64.75" font-family="Helvetica,sans-Serif" font-size="10.00">stream_message.h</text>
</a>
</g>
</g>
<!-- Node2&#45;&gt;Node7 -->
<g id="edge6_Node000002_Node000007" class="edge">
<title>Node2&#45;&gt;Node7</title>
<g id="a_edge6_Node000002_Node000007"><a xlink:title=" ">
<path fill="none" stroke="#63b8ff" d="M359.85,-124.37C395.88,-113.41 458.27,-94.42 498.97,-82.03"/>
<polygon fill="#63b8ff" stroke="#63b8ff" points="499.83,-85.43 508.38,-79.17 497.8,-78.73 499.83,-85.43"/>
</a>
</g>
</g>
<!-- Node9 -->
<g id="Node000009" class="node">
<title>Node9</title>
<g id="a_Node000009"><a xlink:href="user__info__label_8h.html" target="_top" xlink:title=" ">
<polygon fill="white" stroke="#666666" points="699.12,-83.5 605.88,-83.5 605.88,-54.5 699.12,-54.5 699.12,-83.5"/>
<text text-anchor="start" x="613.88" y="-70" font-family="Helvetica,sans-Serif" font-size="10.00">../labels/user_info</text>
<text text-anchor="middle" x="652.5" y="-59.5" font-family="Helvetica,sans-Serif" font-size="10.00">_label.h</text>
</a>
</g>
</g>
<!-- Node2&#45;&gt;Node9 -->
<g id="edge8_Node000002_Node000009" class="edge">
<title>Node2&#45;&gt;Node9</title>
<g id="a_edge8_Node000002_Node000009"><a xlink:title=" ">
<path fill="none" stroke="#63b8ff" d="M377.97,-124.27C386.47,-122.68 395.25,-121.04 403.5,-119.5 486.17,-104.08 509.85,-102.1 594.26,-84.14"/>
<polygon fill="#63b8ff" stroke="#63b8ff" points="594.91,-87.58 603.96,-82.06 593.44,-80.73 594.91,-87.58"/>
</a>
</g>
</g>
<!-- Node8 -->
<g id="Node000008" class="node">
<title>Node8</title>
<g id="a_Node000008"><a xlink:title=" ">
<polygon fill="#e0e0e0" stroke="#999999" points="565.62,-18.5 511.38,-18.5 511.38,0 565.62,0 565.62,-18.5"/>
<text text-anchor="middle" x="538.5" y="-5" font-family="Helvetica,sans-Serif" font-size="10.00">QWidget</text>
</a>
</g>
</g>
<!-- Node7&#45;&gt;Node8 -->
<g id="edge7_Node000007_Node000008" class="edge">
<title>Node7&#45;&gt;Node8</title>
<g id="a_edge7_Node000007_Node000008"><a xlink:title=" ">
<path fill="none" stroke="#63b8ff" d="M538.5,-59.48C538.5,-51.8 538.5,-40.22 538.5,-30.22"/>
<polygon fill="#63b8ff" stroke="#63b8ff" points="542,-30.32 538.5,-20.32 535,-30.32 542,-30.32"/>
</a>
</g>
</g>
<!-- Node10 -->
<g id="Node000010" class="node">
<title>Node10</title>
<g id="a_Node000010"><a xlink:title=" ">
<polygon fill="#e0e0e0" stroke="#999999" points="675.88,-18.5 629.12,-18.5 629.12,0 675.88,0 675.88,-18.5"/>
<text text-anchor="middle" x="652.5" y="-5" font-family="Helvetica,sans-Serif" font-size="10.00">QLabel</text>
</a>
</g>
</g>
<!-- Node9&#45;&gt;Node10 -->
<g id="edge9_Node000009_Node000010" class="edge">
<title>Node9&#45;&gt;Node10</title>
<g id="a_edge9_Node000009_Node000010"><a xlink:title=" ">
<path fill="none" stroke="#63b8ff" d="M652.5,-54.02C652.5,-46.92 652.5,-38.17 652.5,-30.36"/>
<polygon fill="#63b8ff" stroke="#63b8ff" points="656,-30.42 652.5,-20.42 649,-30.42 656,-30.42"/>
</a>
</g>
</g>
<!-- Node20 -->
<g id="Node000020" class="node">
<title>Node20</title>
<g id="a_Node000020"><a xlink:title=" ">
<polygon fill="#e0e0e0" stroke="#999999" points="1187.88,-78.25 1141.12,-78.25 1141.12,-59.75 1187.88,-59.75 1187.88,-78.25"/>
<text text-anchor="middle" x="1164.5" y="-64.75" font-family="Helvetica,sans-Serif" font-size="10.00">QColor</text>
</a>
</g>
</g>
<!-- Node19&#45;&gt;Node20 -->
<g id="edge19_Node000019_Node000020" class="edge">
<title>Node19&#45;&gt;Node20</title>
<g id="a_edge19_Node000019_Node000020"><a xlink:title=" ">
<path fill="none" stroke="#63b8ff" d="M1295.61,-119.05C1267.43,-109.48 1229.54,-96.25 1196.5,-83.5 1196.01,-83.31 1195.51,-83.12 1195.01,-82.92"/>
<polygon fill="#63b8ff" stroke="#63b8ff" points="1196.38,-79.7 1185.8,-79.19 1193.75,-86.19 1196.38,-79.7"/>
</a>
</g>
</g>
<!-- Node21 -->
<g id="Node000021" class="node">
<title>Node21</title>
<g id="a_Node000021"><a xlink:title=" ">
<polygon fill="#e0e0e0" stroke="#999999" points="1289.25,-78.25 1205.75,-78.25 1205.75,-59.75 1289.25,-59.75 1289.25,-78.25"/>
<text text-anchor="middle" x="1247.5" y="-64.75" font-family="Helvetica,sans-Serif" font-size="10.00">QKeySequence</text>
</a>
</g>
</g>
<!-- Node19&#45;&gt;Node21 -->
<g id="edge20_Node000019_Node000021" class="edge">
<title>Node19&#45;&gt;Node21</title>
<g id="a_edge20_Node000019_Node000021"><a xlink:title=" ">
<path fill="none" stroke="#63b8ff" d="M1317.53,-119.02C1303.22,-109 1283.97,-95.53 1269.27,-85.24"/>
<polygon fill="#63b8ff" stroke="#63b8ff" points="1271.38,-82.44 1261.18,-79.57 1267.36,-88.18 1271.38,-82.44"/>
</a>
</g>
</g>
<!-- Node22 -->
<g id="Node000022" class="node">
<title>Node22</title>
<g id="a_Node000022"><a xlink:title=" ">
<polygon fill="#e0e0e0" stroke="#999999" points="1367.25,-78.25 1307.75,-78.25 1307.75,-59.75 1367.25,-59.75 1367.25,-78.25"/>
<text text-anchor="middle" x="1337.5" y="-64.75" font-family="Helvetica,sans-Serif" font-size="10.00">QSettings</text>
</a>
</g>
</g>
<!-- Node19&#45;&gt;Node22 -->
<g id="edge21_Node000019_Node000022" class="edge">
<title>Node19&#45;&gt;Node22</title>
<g id="a_edge21_Node000019_Node000022"><a xlink:title=" ">
<path fill="none" stroke="#63b8ff" d="M1337.5,-119.02C1337.5,-110.54 1337.5,-99.59 1337.5,-90.19"/>
<polygon fill="#63b8ff" stroke="#63b8ff" points="1341,-90.22 1337.5,-80.22 1334,-90.22 1341,-90.22"/>
</a>
</g>
</g>
<!-- Node23 -->
<g id="Node000023" class="node">
<title>Node23</title>
<g id="a_Node000023"><a xlink:title=" ">
<polygon fill="#e0e0e0" stroke="#999999" points="1434,-78.25 1385,-78.25 1385,-59.75 1434,-59.75 1434,-78.25"/>
<text text-anchor="middle" x="1409.5" y="-64.75" font-family="Helvetica,sans-Serif" font-size="10.00">QString</text>
</a>
</g>
</g>
<!-- Node19&#45;&gt;Node23 -->
<g id="edge22_Node000019_Node000023" class="edge">
<title>Node19&#45;&gt;Node23</title>
<g id="a_edge22_Node000019_Node000023"><a xlink:title=" ">
<path fill="none" stroke="#63b8ff" d="M1353.48,-119.02C1364.59,-109.29 1379.44,-96.3 1391.06,-86.14"/>
<polygon fill="#63b8ff" stroke="#63b8ff" points="1393.19,-88.92 1398.41,-79.7 1388.58,-83.65 1393.19,-88.92"/>
</a>
</g>
</g>
<!-- Node25 -->
<g id="Node000025" class="node">
<title>Node25</title>
<g id="a_Node000025"><a xlink:title=" ">
<polygon fill="#e0e0e0" stroke="#999999" points="1525,-78.25 1452,-78.25 1452,-59.75 1525,-59.75 1525,-78.25"/>
<text text-anchor="middle" x="1488.5" y="-64.75" font-family="Helvetica,sans-Serif" font-size="10.00">QJsonObject</text>
</a>
</g>
</g>
<!-- Node24&#45;&gt;Node25 -->
<g id="edge24_Node000024_Node000025" class="edge">
<title>Node24&#45;&gt;Node25</title>
<g id="a_edge24_Node000024_Node000025"><a xlink:title=" ">
<path fill="none" stroke="#63b8ff" d="M1519.62,-119.02C1513.88,-109.97 1506.33,-98.09 1500.11,-88.29"/>
<polygon fill="#63b8ff" stroke="#63b8ff" points="1503.15,-86.55 1494.84,-79.98 1497.24,-90.3 1503.15,-86.55"/>
</a>
</g>
</g>
<!-- Node26 -->
<g id="Node000026" class="node">
<title>Node26</title>
<g id="a_Node000026"><a xlink:title=" ">
<polygon fill="#e0e0e0" stroke="#999999" points="1593.75,-78.25 1543.25,-78.25 1543.25,-59.75 1593.75,-59.75 1593.75,-78.25"/>
<text text-anchor="middle" x="1568.5" y="-64.75" font-family="Helvetica,sans-Serif" font-size="10.00">QMutex</text>
</a>
</g>
</g>
<!-- Node24&#45;&gt;Node26 -->
<g id="edge25_Node000024_Node000026" class="edge">
<title>Node24&#45;&gt;Node26</title>
<g id="a_edge25_Node000024_Node000026"><a xlink:title=" ">
<path fill="none" stroke="#63b8ff" d="M1537.38,-119.02C1543.12,-109.97 1550.67,-98.09 1556.89,-88.29"/>
<polygon fill="#63b8ff" stroke="#63b8ff" points="1559.76,-90.3 1562.16,-79.98 1553.85,-86.55 1559.76,-90.3"/>
</a>
</g>
</g>
<!-- Node27 -->
<g id="Node000027" class="node">
<title>Node27</title>
<g id="a_Node000027"><a xlink:title=" ">
<polygon fill="#e0e0e0" stroke="#999999" points="1663.5,-78.25 1611.5,-78.25 1611.5,-59.75 1663.5,-59.75 1663.5,-78.25"/>
<text text-anchor="middle" x="1637.5" y="-64.75" font-family="Helvetica,sans-Serif" font-size="10.00">QObject</text>
</a>
</g>
</g>
<!-- Node24&#45;&gt;Node27 -->
<g id="edge26_Node000024_Node000027" class="edge">
<title>Node24&#45;&gt;Node27</title>
<g id="a_edge26_Node000024_Node000027"><a xlink:title=" ">
<path fill="none" stroke="#63b8ff" d="M1552.69,-119.02C1570.52,-108.72 1594.69,-94.75 1612.66,-84.36"/>
<polygon fill="#63b8ff" stroke="#63b8ff" points="1614.22,-87.5 1621.13,-79.46 1610.72,-81.44 1614.22,-87.5"/>
</a>
</g>
</g>
</g>
</svg>
