<?xml version="1.0" encoding="UTF-8" standalone="no"?>
<!DOCTYPE svg PUBLIC "-//W3C//DTD SVG 1.1//EN"
 "http://www.w3.org/Graphics/SVG/1.1/DTD/svg11.dtd">
<!-- Generated by graphviz version 12.2.1 (0)
 -->
<!-- Title: src/ui/dialogs/create_wavelength_dialog.h Pages: 1 -->
<svg width="239pt" height="146pt"
 viewBox="0.00 0.00 239.00 146.00" xmlns="http://www.w3.org/2000/svg" xmlns:xlink="http://www.w3.org/1999/xlink">
<g id="graph0" class="graph" transform="scale(1 1) rotate(0) translate(4 142)">
<title>src/ui/dialogs/create_wavelength_dialog.h</title>
<!-- Node1 -->
<g id="Node000001" class="node">
<title>Node1</title>
<g id="a_Node000001"><a xlink:title=" ">
<polygon fill="#999999" stroke="#666666" points="147.75,-138 39.5,-138 39.5,-109 147.75,-109 147.75,-138"/>
<text text-anchor="start" x="47.5" y="-124.5" font-family="Helvetica,sans-Serif" font-size="10.00">src/ui/dialogs/create</text>
<text text-anchor="middle" x="93.62" y="-114" font-family="Helvetica,sans-Serif" font-size="10.00">_wavelength_dialog.h</text>
</a>
</g>
</g>
<!-- Node2 -->
<g id="Node000002" class="node">
<title>Node2</title>
<g id="a_Node000002"><a xlink:title=" ">
<polygon fill="#e0e0e0" stroke="#999999" points="51.25,-73 0,-73 0,-54.5 51.25,-54.5 51.25,-73"/>
<text text-anchor="middle" x="25.62" y="-59.5" font-family="Helvetica,sans-Serif" font-size="10.00">QFuture</text>
</a>
</g>
</g>
<!-- Node1&#45;&gt;Node2 -->
<g id="edge1_Node000001_Node000002" class="edge">
<title>Node1&#45;&gt;Node2</title>
<g id="a_edge1_Node000001_Node000002"><a xlink:title=" ">
<path fill="none" stroke="#63b8ff" d="M77.16,-108.52C67.29,-100.14 54.71,-89.45 44.44,-80.73"/>
<polygon fill="#63b8ff" stroke="#63b8ff" points="46.86,-78.19 36.97,-74.38 42.32,-83.52 46.86,-78.19"/>
</a>
</g>
</g>
<!-- Node3 -->
<g id="Node000003" class="node">
<title>Node3</title>
<g id="a_Node000003"><a xlink:title=" ">
<polygon fill="#e0e0e0" stroke="#999999" points="117.75,-73 69.5,-73 69.5,-54.5 117.75,-54.5 117.75,-73"/>
<text text-anchor="middle" x="93.62" y="-59.5" font-family="Helvetica,sans-Serif" font-size="10.00">QTimer</text>
</a>
</g>
</g>
<!-- Node1&#45;&gt;Node3 -->
<g id="edge2_Node000001_Node000003" class="edge">
<title>Node1&#45;&gt;Node3</title>
<g id="a_edge2_Node000001_Node000003"><a xlink:title=" ">
<path fill="none" stroke="#63b8ff" d="M93.62,-108.52C93.62,-101.42 93.62,-92.67 93.62,-84.86"/>
<polygon fill="#63b8ff" stroke="#63b8ff" points="97.13,-84.92 93.63,-74.92 90.13,-84.92 97.13,-84.92"/>
</a>
</g>
</g>
<!-- Node4 -->
<g id="Node000004" class="node">
<title>Node4</title>
<g id="a_Node000004"><a xlink:href="animated__dialog_8h.html" target="_top" xlink:title=" ">
<polygon fill="white" stroke="#666666" points="231,-73 136.25,-73 136.25,-54.5 231,-54.5 231,-73"/>
<text text-anchor="middle" x="183.62" y="-59.5" font-family="Helvetica,sans-Serif" font-size="10.00">animated_dialog.h</text>
</a>
</g>
</g>
<!-- Node1&#45;&gt;Node4 -->
<g id="edge3_Node000001_Node000004" class="edge">
<title>Node1&#45;&gt;Node4</title>
<g id="a_edge3_Node000001_Node000004"><a xlink:title=" ">
<path fill="none" stroke="#63b8ff" d="M115.41,-108.52C129.14,-99.71 146.84,-88.35 160.77,-79.41"/>
<polygon fill="#63b8ff" stroke="#63b8ff" points="162.34,-82.57 168.87,-74.22 158.56,-76.68 162.34,-82.57"/>
</a>
</g>
</g>
<!-- Node5 -->
<g id="Node000005" class="node">
<title>Node5</title>
<g id="a_Node000005"><a xlink:title=" ">
<polygon fill="#e0e0e0" stroke="#999999" points="209.25,-18.5 158,-18.5 158,0 209.25,0 209.25,-18.5"/>
<text text-anchor="middle" x="183.62" y="-5" font-family="Helvetica,sans-Serif" font-size="10.00">QDialog</text>
</a>
</g>
</g>
<!-- Node4&#45;&gt;Node5 -->
<g id="edge4_Node000004_Node000005" class="edge">
<title>Node4&#45;&gt;Node5</title>
<g id="a_edge4_Node000004_Node000005"><a xlink:title=" ">
<path fill="none" stroke="#63b8ff" d="M183.62,-54.08C183.62,-47.58 183.62,-38.42 183.62,-30.16"/>
<polygon fill="#63b8ff" stroke="#63b8ff" points="187.13,-30.27 183.63,-20.27 180.13,-30.27 187.13,-30.27"/>
</a>
</g>
</g>
</g>
</svg>
