<?xml version="1.0" encoding="UTF-8" standalone="no"?>
<!DOCTYPE svg PUBLIC "-//W3C//DTD SVG 1.1//EN"
 "http://www.w3.org/Graphics/SVG/1.1/DTD/svg11.dtd">
<!-- Generated by graphviz version 12.2.1 (0)
 -->
<!-- Title: src/ui/input/cyber_line_edit.cpp Pages: 1 -->
<svg width="451pt" height="146pt"
 viewBox="0.00 0.00 450.50 146.00" xmlns="http://www.w3.org/2000/svg" xmlns:xlink="http://www.w3.org/1999/xlink">
<g id="graph0" class="graph" transform="scale(1 1) rotate(0) translate(4 142)">
<title>src/ui/input/cyber_line_edit.cpp</title>
<!-- Node1 -->
<g id="Node000001" class="node">
<title>Node1</title>
<g id="a_Node000001"><a xlink:title=" ">
<polygon fill="#999999" stroke="#666666" points="261.88,-138 170.88,-138 170.88,-109 261.88,-109 261.88,-138"/>
<text text-anchor="start" x="178.88" y="-124.5" font-family="Helvetica,sans-Serif" font-size="10.00">src/ui/input/cyber</text>
<text text-anchor="middle" x="216.38" y="-114" font-family="Helvetica,sans-Serif" font-size="10.00">_line_edit.cpp</text>
</a>
</g>
</g>
<!-- Node2 -->
<g id="Node000002" class="node">
<title>Node2</title>
<g id="a_Node000002"><a xlink:href="cyber__line__edit_8h.html" target="_top" xlink:title=" ">
<polygon fill="white" stroke="#666666" points="88.75,-73 0,-73 0,-54.5 88.75,-54.5 88.75,-73"/>
<text text-anchor="middle" x="44.38" y="-59.5" font-family="Helvetica,sans-Serif" font-size="10.00">cyber_line_edit.h</text>
</a>
</g>
</g>
<!-- Node1&#45;&gt;Node2 -->
<g id="edge1_Node000001_Node000002" class="edge">
<title>Node1&#45;&gt;Node2</title>
<g id="a_edge1_Node000001_Node000002"><a xlink:title=" ">
<path fill="none" stroke="#63b8ff" d="M174.74,-108.52C146.16,-98.93 108.59,-86.31 81.13,-77.09"/>
<polygon fill="#63b8ff" stroke="#63b8ff" points="82.43,-73.84 71.84,-73.97 80.2,-80.47 82.43,-73.84"/>
</a>
</g>
</g>
<!-- Node4 -->
<g id="Node000004" class="node">
<title>Node4</title>
<g id="a_Node000004"><a xlink:title=" ">
<polygon fill="#e0e0e0" stroke="#999999" points="161.5,-73 107.25,-73 107.25,-54.5 161.5,-54.5 161.5,-73"/>
<text text-anchor="middle" x="134.38" y="-59.5" font-family="Helvetica,sans-Serif" font-size="10.00">QPainter</text>
</a>
</g>
</g>
<!-- Node1&#45;&gt;Node4 -->
<g id="edge3_Node000001_Node000004" class="edge">
<title>Node1&#45;&gt;Node4</title>
<g id="a_edge3_Node000001_Node000004"><a xlink:title=" ">
<path fill="none" stroke="#63b8ff" d="M196.53,-108.52C184.26,-99.88 168.51,-88.79 155.94,-79.94"/>
<polygon fill="#63b8ff" stroke="#63b8ff" points="158.09,-77.17 147.9,-74.28 154.06,-82.89 158.09,-77.17"/>
</a>
</g>
</g>
<!-- Node5 -->
<g id="Node000005" class="node">
<title>Node5</title>
<g id="a_Node000005"><a xlink:title=" ">
<polygon fill="#e0e0e0" stroke="#999999" points="253.62,-73 179.12,-73 179.12,-54.5 253.62,-54.5 253.62,-73"/>
<text text-anchor="middle" x="216.38" y="-59.5" font-family="Helvetica,sans-Serif" font-size="10.00">QPainterPath</text>
</a>
</g>
</g>
<!-- Node1&#45;&gt;Node5 -->
<g id="edge4_Node000001_Node000005" class="edge">
<title>Node1&#45;&gt;Node5</title>
<g id="a_edge4_Node000001_Node000005"><a xlink:title=" ">
<path fill="none" stroke="#63b8ff" d="M216.38,-108.52C216.38,-101.42 216.38,-92.67 216.38,-84.86"/>
<polygon fill="#63b8ff" stroke="#63b8ff" points="219.88,-84.92 216.38,-74.92 212.88,-84.92 219.88,-84.92"/>
</a>
</g>
</g>
<!-- Node6 -->
<g id="Node000006" class="node">
<title>Node6</title>
<g id="a_Node000006"><a xlink:title=" ">
<polygon fill="#e0e0e0" stroke="#999999" points="376.62,-73 272.12,-73 272.12,-54.5 376.62,-54.5 376.62,-73"/>
<text text-anchor="middle" x="324.38" y="-59.5" font-family="Helvetica,sans-Serif" font-size="10.00">QPropertyAnimation</text>
</a>
</g>
</g>
<!-- Node1&#45;&gt;Node6 -->
<g id="edge5_Node000001_Node000006" class="edge">
<title>Node1&#45;&gt;Node6</title>
<g id="a_edge5_Node000001_Node000006"><a xlink:title=" ">
<path fill="none" stroke="#63b8ff" d="M242.52,-108.52C259.48,-99.45 281.48,-87.69 298.4,-78.64"/>
<polygon fill="#63b8ff" stroke="#63b8ff" points="299.69,-81.92 306.86,-74.12 296.39,-75.75 299.69,-81.92"/>
</a>
</g>
</g>
<!-- Node7 -->
<g id="Node000007" class="node">
<title>Node7</title>
<g id="a_Node000007"><a xlink:title=" ">
<polygon fill="#e0e0e0" stroke="#999999" points="442.5,-73 394.25,-73 394.25,-54.5 442.5,-54.5 442.5,-73"/>
<text text-anchor="middle" x="418.38" y="-59.5" font-family="Helvetica,sans-Serif" font-size="10.00">QTimer</text>
</a>
</g>
</g>
<!-- Node1&#45;&gt;Node7 -->
<g id="edge6_Node000001_Node000007" class="edge">
<title>Node1&#45;&gt;Node7</title>
<g id="a_edge6_Node000001_Node000007"><a xlink:title=" ">
<path fill="none" stroke="#63b8ff" d="M262.21,-109.4C298.92,-98.9 349.65,-84.4 383.21,-74.8"/>
<polygon fill="#63b8ff" stroke="#63b8ff" points="383.77,-78.28 392.43,-72.17 381.85,-71.55 383.77,-78.28"/>
</a>
</g>
</g>
<!-- Node3 -->
<g id="Node000003" class="node">
<title>Node3</title>
<g id="a_Node000003"><a xlink:title=" ">
<polygon fill="#e0e0e0" stroke="#999999" points="73.75,-18.5 15,-18.5 15,0 73.75,0 73.75,-18.5"/>
<text text-anchor="middle" x="44.38" y="-5" font-family="Helvetica,sans-Serif" font-size="10.00">QLineEdit</text>
</a>
</g>
</g>
<!-- Node2&#45;&gt;Node3 -->
<g id="edge2_Node000002_Node000003" class="edge">
<title>Node2&#45;&gt;Node3</title>
<g id="a_edge2_Node000002_Node000003"><a xlink:title=" ">
<path fill="none" stroke="#63b8ff" d="M44.38,-54.08C44.38,-47.58 44.38,-38.42 44.38,-30.16"/>
<polygon fill="#63b8ff" stroke="#63b8ff" points="47.88,-30.27 44.38,-20.27 40.88,-30.27 47.88,-30.27"/>
</a>
</g>
</g>
</g>
</svg>
