<?xml version="1.0" encoding="UTF-8" standalone="no"?>
<!DOCTYPE svg PUBLIC "-//W3C//DTD SVG 1.1//EN"
 "http://www.w3.org/Graphics/SVG/1.1/DTD/svg11.dtd">
<!-- Generated by graphviz version 12.2.1 (0)
 -->
<!-- Title: src/ui/buttons/cyber_chat_button.cpp Pages: 1 -->
<svg width="277pt" height="146pt"
 viewBox="0.00 0.00 276.50 146.00" xmlns="http://www.w3.org/2000/svg" xmlns:xlink="http://www.w3.org/1999/xlink">
<g id="graph0" class="graph" transform="scale(1 1) rotate(0) translate(4 142)">
<title>src/ui/buttons/cyber_chat_button.cpp</title>
<!-- Node1 -->
<g id="Node000001" class="node">
<title>Node1</title>
<g id="a_Node000001"><a xlink:title=" ">
<polygon fill="#999999" stroke="#666666" points="200.38,-138 98.12,-138 98.12,-109 200.38,-109 200.38,-138"/>
<text text-anchor="start" x="106.12" y="-124.5" font-family="Helvetica,sans-Serif" font-size="10.00">src/ui/buttons/cyber</text>
<text text-anchor="middle" x="149.25" y="-114" font-family="Helvetica,sans-Serif" font-size="10.00">_chat_button.cpp</text>
</a>
</g>
</g>
<!-- Node2 -->
<g id="Node000002" class="node">
<title>Node2</title>
<g id="a_Node000002"><a xlink:href="cyber__chat__button_8h.html" target="_top" xlink:title=" ">
<polygon fill="white" stroke="#666666" points="104.5,-73 0,-73 0,-54.5 104.5,-54.5 104.5,-73"/>
<text text-anchor="middle" x="52.25" y="-59.5" font-family="Helvetica,sans-Serif" font-size="10.00">cyber_chat_button.h</text>
</a>
</g>
</g>
<!-- Node1&#45;&gt;Node2 -->
<g id="edge1_Node000001_Node000002" class="edge">
<title>Node1&#45;&gt;Node2</title>
<g id="a_edge1_Node000001_Node000002"><a xlink:title=" ">
<path fill="none" stroke="#63b8ff" d="M125.77,-108.52C110.83,-99.62 91.52,-88.13 76.44,-79.15"/>
<polygon fill="#63b8ff" stroke="#63b8ff" points="78.47,-76.29 68.09,-74.18 74.89,-82.3 78.47,-76.29"/>
</a>
</g>
</g>
<!-- Node4 -->
<g id="Node000004" class="node">
<title>Node4</title>
<g id="a_Node000004"><a xlink:title=" ">
<polygon fill="#e0e0e0" stroke="#999999" points="176.38,-73 122.12,-73 122.12,-54.5 176.38,-54.5 176.38,-73"/>
<text text-anchor="middle" x="149.25" y="-59.5" font-family="Helvetica,sans-Serif" font-size="10.00">QPainter</text>
</a>
</g>
</g>
<!-- Node1&#45;&gt;Node4 -->
<g id="edge3_Node000001_Node000004" class="edge">
<title>Node1&#45;&gt;Node4</title>
<g id="a_edge3_Node000001_Node000004"><a xlink:title=" ">
<path fill="none" stroke="#63b8ff" d="M149.25,-108.52C149.25,-101.42 149.25,-92.67 149.25,-84.86"/>
<polygon fill="#63b8ff" stroke="#63b8ff" points="152.75,-84.92 149.25,-74.92 145.75,-84.92 152.75,-84.92"/>
</a>
</g>
</g>
<!-- Node5 -->
<g id="Node000005" class="node">
<title>Node5</title>
<g id="a_Node000005"><a xlink:title=" ">
<polygon fill="#e0e0e0" stroke="#999999" points="268.5,-73 194,-73 194,-54.5 268.5,-54.5 268.5,-73"/>
<text text-anchor="middle" x="231.25" y="-59.5" font-family="Helvetica,sans-Serif" font-size="10.00">QPainterPath</text>
</a>
</g>
</g>
<!-- Node1&#45;&gt;Node5 -->
<g id="edge4_Node000001_Node000005" class="edge">
<title>Node1&#45;&gt;Node5</title>
<g id="a_edge4_Node000001_Node000005"><a xlink:title=" ">
<path fill="none" stroke="#63b8ff" d="M169.1,-108.52C181.37,-99.88 197.11,-88.79 209.69,-79.94"/>
<polygon fill="#63b8ff" stroke="#63b8ff" points="211.56,-82.89 217.73,-74.28 207.53,-77.17 211.56,-82.89"/>
</a>
</g>
</g>
<!-- Node3 -->
<g id="Node000003" class="node">
<title>Node3</title>
<g id="a_Node000003"><a xlink:title=" ">
<polygon fill="#e0e0e0" stroke="#999999" points="89.5,-18.5 15,-18.5 15,0 89.5,0 89.5,-18.5"/>
<text text-anchor="middle" x="52.25" y="-5" font-family="Helvetica,sans-Serif" font-size="10.00">QPushButton</text>
</a>
</g>
</g>
<!-- Node2&#45;&gt;Node3 -->
<g id="edge2_Node000002_Node000003" class="edge">
<title>Node2&#45;&gt;Node3</title>
<g id="a_edge2_Node000002_Node000003"><a xlink:title=" ">
<path fill="none" stroke="#63b8ff" d="M52.25,-54.08C52.25,-47.58 52.25,-38.42 52.25,-30.16"/>
<polygon fill="#63b8ff" stroke="#63b8ff" points="55.75,-30.27 52.25,-20.27 48.75,-30.27 55.75,-30.27"/>
</a>
</g>
</g>
</g>
</svg>
