<?xml version="1.0" encoding="UTF-8" standalone="no"?>
<!DOCTYPE svg PUBLIC "-//W3C//DTD SVG 1.1//EN"
 "http://www.w3.org/Graphics/SVG/1.1/DTD/svg11.dtd">
<!-- Generated by graphviz version 12.2.1 (0)
 -->
<!-- Title: src/ui/sliders/cyber_slider.cpp Pages: 1 -->
<svg width="436pt" height="146pt"
 viewBox="0.00 0.00 436.38 146.00" xmlns="http://www.w3.org/2000/svg" xmlns:xlink="http://www.w3.org/1999/xlink">
<g id="graph0" class="graph" transform="scale(1 1) rotate(0) translate(4 142)">
<title>src/ui/sliders/cyber_slider.cpp</title>
<!-- Node1 -->
<g id="Node000001" class="node">
<title>Node1</title>
<g id="a_Node000001"><a xlink:title=" ">
<polygon fill="#999999" stroke="#666666" points="254,-138 154.75,-138 154.75,-109 254,-109 254,-138"/>
<text text-anchor="start" x="162.75" y="-124.5" font-family="Helvetica,sans-Serif" font-size="10.00">src/ui/sliders/cyber</text>
<text text-anchor="middle" x="204.38" y="-114" font-family="Helvetica,sans-Serif" font-size="10.00">_slider.cpp</text>
</a>
</g>
</g>
<!-- Node2 -->
<g id="Node000002" class="node">
<title>Node2</title>
<g id="a_Node000002"><a xlink:href="cyber__slider_8h.html" target="_top" xlink:title=" ">
<polygon fill="white" stroke="#666666" points="76.75,-73 0,-73 0,-54.5 76.75,-54.5 76.75,-73"/>
<text text-anchor="middle" x="38.38" y="-59.5" font-family="Helvetica,sans-Serif" font-size="10.00">cyber_slider.h</text>
</a>
</g>
</g>
<!-- Node1&#45;&gt;Node2 -->
<g id="edge1_Node000001_Node000002" class="edge">
<title>Node1&#45;&gt;Node2</title>
<g id="a_edge1_Node000001_Node000002"><a xlink:title=" ">
<path fill="none" stroke="#63b8ff" d="M164.19,-108.52C136.65,-98.94 100.45,-86.35 73.96,-77.13"/>
<polygon fill="#63b8ff" stroke="#63b8ff" points="75.27,-73.88 64.68,-73.9 72.97,-80.49 75.27,-73.88"/>
</a>
</g>
</g>
<!-- Node4 -->
<g id="Node000004" class="node">
<title>Node4</title>
<g id="a_Node000004"><a xlink:title=" ">
<polygon fill="#e0e0e0" stroke="#999999" points="149.5,-73 95.25,-73 95.25,-54.5 149.5,-54.5 149.5,-73"/>
<text text-anchor="middle" x="122.38" y="-59.5" font-family="Helvetica,sans-Serif" font-size="10.00">QPainter</text>
</a>
</g>
</g>
<!-- Node1&#45;&gt;Node4 -->
<g id="edge3_Node000001_Node000004" class="edge">
<title>Node1&#45;&gt;Node4</title>
<g id="a_edge3_Node000001_Node000004"><a xlink:title=" ">
<path fill="none" stroke="#63b8ff" d="M184.53,-108.52C172.26,-99.88 156.51,-88.79 143.94,-79.94"/>
<polygon fill="#63b8ff" stroke="#63b8ff" points="146.09,-77.17 135.9,-74.28 142.06,-82.89 146.09,-77.17"/>
</a>
</g>
</g>
<!-- Node5 -->
<g id="Node000005" class="node">
<title>Node5</title>
<g id="a_Node000005"><a xlink:title=" ">
<polygon fill="#e0e0e0" stroke="#999999" points="241.62,-73 167.12,-73 167.12,-54.5 241.62,-54.5 241.62,-73"/>
<text text-anchor="middle" x="204.38" y="-59.5" font-family="Helvetica,sans-Serif" font-size="10.00">QPainterPath</text>
</a>
</g>
</g>
<!-- Node1&#45;&gt;Node5 -->
<g id="edge4_Node000001_Node000005" class="edge">
<title>Node1&#45;&gt;Node5</title>
<g id="a_edge4_Node000001_Node000005"><a xlink:title=" ">
<path fill="none" stroke="#63b8ff" d="M204.38,-108.52C204.38,-101.42 204.38,-92.67 204.38,-84.86"/>
<polygon fill="#63b8ff" stroke="#63b8ff" points="207.88,-84.92 204.38,-74.92 200.88,-84.92 207.88,-84.92"/>
</a>
</g>
</g>
<!-- Node6 -->
<g id="Node000006" class="node">
<title>Node6</title>
<g id="a_Node000006"><a xlink:title=" ">
<polygon fill="#e0e0e0" stroke="#999999" points="364.62,-73 260.12,-73 260.12,-54.5 364.62,-54.5 364.62,-73"/>
<text text-anchor="middle" x="312.38" y="-59.5" font-family="Helvetica,sans-Serif" font-size="10.00">QPropertyAnimation</text>
</a>
</g>
</g>
<!-- Node1&#45;&gt;Node6 -->
<g id="edge5_Node000001_Node000006" class="edge">
<title>Node1&#45;&gt;Node6</title>
<g id="a_edge5_Node000001_Node000006"><a xlink:title=" ">
<path fill="none" stroke="#63b8ff" d="M230.52,-108.52C247.48,-99.45 269.48,-87.69 286.4,-78.64"/>
<polygon fill="#63b8ff" stroke="#63b8ff" points="287.69,-81.92 294.86,-74.12 284.39,-75.75 287.69,-81.92"/>
</a>
</g>
</g>
<!-- Node7 -->
<g id="Node000007" class="node">
<title>Node7</title>
<g id="a_Node000007"><a xlink:title=" ">
<polygon fill="#e0e0e0" stroke="#999999" points="428.38,-73 382.38,-73 382.38,-54.5 428.38,-54.5 428.38,-73"/>
<text text-anchor="middle" x="405.38" y="-59.5" font-family="Helvetica,sans-Serif" font-size="10.00">QStyle</text>
</a>
</g>
</g>
<!-- Node1&#45;&gt;Node7 -->
<g id="edge6_Node000001_Node000007" class="edge">
<title>Node1&#45;&gt;Node7</title>
<g id="a_edge6_Node000001_Node000007"><a xlink:title=" ">
<path fill="none" stroke="#63b8ff" d="M253.03,-108.52C289.62,-98.01 338.82,-83.87 371.29,-74.54"/>
<polygon fill="#63b8ff" stroke="#63b8ff" points="371.92,-78 380.57,-71.88 369.99,-71.27 371.92,-78"/>
</a>
</g>
</g>
<!-- Node3 -->
<g id="Node000003" class="node">
<title>Node3</title>
<g id="a_Node000003"><a xlink:title=" ">
<polygon fill="#e0e0e0" stroke="#999999" points="62.5,-18.5 14.25,-18.5 14.25,0 62.5,0 62.5,-18.5"/>
<text text-anchor="middle" x="38.38" y="-5" font-family="Helvetica,sans-Serif" font-size="10.00">QSlider</text>
</a>
</g>
</g>
<!-- Node2&#45;&gt;Node3 -->
<g id="edge2_Node000002_Node000003" class="edge">
<title>Node2&#45;&gt;Node3</title>
<g id="a_edge2_Node000002_Node000003"><a xlink:title=" ">
<path fill="none" stroke="#63b8ff" d="M38.38,-54.08C38.38,-47.58 38.38,-38.42 38.38,-30.16"/>
<polygon fill="#63b8ff" stroke="#63b8ff" points="41.88,-30.27 38.38,-20.27 34.88,-30.27 41.88,-30.27"/>
</a>
</g>
</g>
</g>
</svg>
