<?xml version="1.0" encoding="UTF-8" standalone="no"?>
<!DOCTYPE svg PUBLIC "-//W3C//DTD SVG 1.1//EN"
 "http://www.w3.org/Graphics/SVG/1.1/DTD/svg11.dtd">
<!-- Generated by graphviz version 12.2.1 (0)
 -->
<!-- Title: src/ui/effects/cyberpunk_text_effect.cpp Pages: 1 -->
<svg width="351pt" height="146pt"
 viewBox="0.00 0.00 351.25 146.00" xmlns="http://www.w3.org/2000/svg" xmlns:xlink="http://www.w3.org/1999/xlink">

<svg id="main" version="1.1" xmlns="http://www.w3.org/2000/svg" xmlns:xlink="http://www.w3.org/1999/xlink" xml:space="preserve">

<style type="text/css"><![CDATA[
.node, .edge {opacity: 0.7;}
.node.selected, .edge.selected {opacity: 1;}
.edge:hover path { stroke: red; }
.edge:hover polygon { stroke: red; fill: red; }
]]></style>
<script type="application/ecmascript" xlink:href="svg.min.js"/>
<svg id="graph" class="graph">
<g id="graph0" class="graph" transform="scale(1 1) rotate(0) translate(4 142)">
<title>src/ui/effects/cyberpunk_text_effect.cpp</title>
<!-- Node1 -->
<g id="Node000001" class="node">
<title>Node1</title>
<g id="a_Node000001"><a xlink:title=" ">
<polygon fill="#999999" stroke="#666666" points="233.62,-138 112.62,-138 112.62,-109 233.62,-109 233.62,-138"/>
<text text-anchor="start" x="120.62" y="-124.5" font-family="Helvetica,sans-Serif" font-size="10.00">src/ui/effects/cyberpunk</text>
<text text-anchor="middle" x="173.12" y="-114" font-family="Helvetica,sans-Serif" font-size="10.00">_text_effect.cpp</text>
</a>
</g>
</g>
<!-- Node2 -->
<g id="Node000002" class="node">
<title>Node2</title>
<g id="a_Node000002"><a xlink:href="cyberpunk__text__effect_8h.html" target="_top" xlink:title=" ">
<polygon fill="white" stroke="#666666" points="120.25,-73 0,-73 0,-54.5 120.25,-54.5 120.25,-73"/>
<text text-anchor="middle" x="60.12" y="-59.5" font-family="Helvetica,sans-Serif" font-size="10.00">cyberpunk_text_effect.h</text>
</a>
</g>
</g>
<!-- Node1&#45;&gt;Node2 -->
<g id="edge1_Node000001_Node000002" class="edge">
<title>Node1&#45;&gt;Node2</title>
<g id="a_edge1_Node000001_Node000002"><a xlink:title=" ">
<path fill="none" stroke="#63b8ff" d="M145.77,-108.52C128.03,-99.45 105.01,-87.69 87.3,-78.64"/>
<polygon fill="#63b8ff" stroke="#63b8ff" points="88.9,-75.53 78.41,-74.09 85.72,-81.76 88.9,-75.53"/>
</a>
</g>
</g>
<!-- Node4 -->
<g id="Node000004" class="node">
<title>Node4</title>
<g id="a_Node000004"><a xlink:title=" ">
<polygon fill="#e0e0e0" stroke="#999999" points="162.25,-18.5 114,-18.5 114,0 162.25,0 162.25,-18.5"/>
<text text-anchor="middle" x="138.12" y="-5" font-family="Helvetica,sans-Serif" font-size="10.00">QTimer</text>
</a>
</g>
</g>
<!-- Node1&#45;&gt;Node4 -->
<g id="edge6_Node000001_Node000004" class="edge">
<title>Node1&#45;&gt;Node4</title>
<g id="a_edge6_Node000001_Node000004"><a xlink:title=" ">
<path fill="none" stroke="#63b8ff" d="M168.83,-108.74C162.67,-88.98 151.29,-52.47 144.25,-29.89"/>
<polygon fill="#63b8ff" stroke="#63b8ff" points="147.61,-28.91 141.29,-20.41 140.93,-31 147.61,-28.91"/>
</a>
</g>
</g>
<!-- Node5 -->
<g id="Node000005" class="node">
<title>Node5</title>
<g id="a_Node000005"><a xlink:title=" ">
<polygon fill="#e0e0e0" stroke="#999999" points="222.5,-73 175.75,-73 175.75,-54.5 222.5,-54.5 222.5,-73"/>
<text text-anchor="middle" x="199.12" y="-59.5" font-family="Helvetica,sans-Serif" font-size="10.00">QLabel</text>
</a>
</g>
</g>
<!-- Node1&#45;&gt;Node5 -->
<g id="edge4_Node000001_Node000005" class="edge">
<title>Node1&#45;&gt;Node5</title>
<g id="a_edge4_Node000001_Node000005"><a xlink:title=" ">
<path fill="none" stroke="#63b8ff" d="M179.42,-108.52C182.77,-101.08 186.94,-91.82 190.58,-83.74"/>
<polygon fill="#63b8ff" stroke="#63b8ff" points="193.69,-85.34 194.61,-74.78 187.31,-82.47 193.69,-85.34"/>
</a>
</g>
</g>
<!-- Node6 -->
<g id="Node000006" class="node">
<title>Node6</title>
<g id="a_Node000006"><a xlink:title=" ">
<polygon fill="#e0e0e0" stroke="#999999" points="343.25,-73 241,-73 241,-54.5 343.25,-54.5 343.25,-73"/>
<text text-anchor="middle" x="292.12" y="-59.5" font-family="Helvetica,sans-Serif" font-size="10.00">QRandomGenerator</text>
</a>
</g>
</g>
<!-- Node1&#45;&gt;Node6 -->
<g id="edge5_Node000001_Node000006" class="edge">
<title>Node1&#45;&gt;Node6</title>
<g id="a_edge5_Node000001_Node000006"><a xlink:title=" ">
<path fill="none" stroke="#63b8ff" d="M201.93,-108.52C220.79,-99.37 245.32,-87.47 264.03,-78.38"/>
<polygon fill="#63b8ff" stroke="#63b8ff" points="265.46,-81.58 272.93,-74.06 262.41,-75.28 265.46,-81.58"/>
</a>
</g>
</g>
<!-- Node3 -->
<g id="Node000003" class="node">
<title>Node3</title>
<g id="a_Node000003"><a xlink:title=" ">
<polygon fill="#e0e0e0" stroke="#999999" points="86.12,-18.5 34.12,-18.5 34.12,0 86.12,0 86.12,-18.5"/>
<text text-anchor="middle" x="60.12" y="-5" font-family="Helvetica,sans-Serif" font-size="10.00">QObject</text>
</a>
</g>
</g>
<!-- Node2&#45;&gt;Node3 -->
<g id="edge2_Node000002_Node000003" class="edge">
<title>Node2&#45;&gt;Node3</title>
<g id="a_edge2_Node000002_Node000003"><a xlink:title=" ">
<path fill="none" stroke="#63b8ff" d="M60.12,-54.08C60.12,-47.58 60.12,-38.42 60.12,-30.16"/>
<polygon fill="#63b8ff" stroke="#63b8ff" points="63.63,-30.27 60.13,-20.27 56.63,-30.27 63.63,-30.27"/>
</a>
</g>
</g>
<!-- Node2&#45;&gt;Node4 -->
<g id="edge3_Node000002_Node000004" class="edge">
<title>Node2&#45;&gt;Node4</title>
<g id="a_edge3_Node000002_Node000004"><a xlink:title=" ">
<path fill="none" stroke="#63b8ff" d="M73.01,-54.08C84.63,-46.25 102,-34.57 115.87,-25.23"/>
<polygon fill="#63b8ff" stroke="#63b8ff" points="117.63,-28.26 123.97,-19.78 113.72,-22.46 117.63,-28.26"/>
</a>
</g>
</g>
</g>
</svg>
</svg>

<style type='text/css'>
<![CDATA[
[data-mouse-over-selected='false'] { opacity: 0.7; }
[data-mouse-over-selected='true']  { opacity: 1.0; }
]]>
</style>
<script type="application/ecmascript"><![CDATA[
document.addEventListener('DOMContentLoaded', (event) => {
  highlightEdges();
  highlightAdjacentNodes();
});
]]></script>
</svg>
