<?xml version="1.0" encoding="UTF-8" standalone="no"?>
<!DOCTYPE svg PUBLIC "-//W3C//DTD SVG 1.1//EN"
 "http://www.w3.org/Graphics/SVG/1.1/DTD/svg11.dtd">
<!-- Generated by graphviz version 12.2.1 (0)
 -->
<!-- Title: src/storage/database_manager.cpp Pages: 1 -->
<svg width="256pt" height="146pt"
 viewBox="0.00 0.00 256.25 146.00" xmlns="http://www.w3.org/2000/svg" xmlns:xlink="http://www.w3.org/1999/xlink">
<g id="graph0" class="graph" transform="scale(1 1) rotate(0) translate(4 142)">
<title>src/storage/database_manager.cpp</title>
<!-- Node1 -->
<g id="Node000001" class="node">
<title>Node1</title>
<g id="a_Node000001"><a xlink:title=" ">
<polygon fill="#999999" stroke="#666666" points="213.75,-138 106.25,-138 106.25,-109 213.75,-109 213.75,-138"/>
<text text-anchor="start" x="114.25" y="-124.5" font-family="Helvetica,sans-Serif" font-size="10.00">src/storage/database</text>
<text text-anchor="middle" x="160" y="-114" font-family="Helvetica,sans-Serif" font-size="10.00">_manager.cpp</text>
</a>
</g>
</g>
<!-- Node2 -->
<g id="Node000002" class="node">
<title>Node2</title>
<g id="a_Node000002"><a xlink:href="database__manager_8h.html" target="_top" xlink:title=" ">
<polygon fill="white" stroke="#666666" points="116.38,-73 9.62,-73 9.62,-54.5 116.38,-54.5 116.38,-73"/>
<text text-anchor="middle" x="63" y="-59.5" font-family="Helvetica,sans-Serif" font-size="10.00">database_manager.h</text>
</a>
</g>
</g>
<!-- Node1&#45;&gt;Node2 -->
<g id="edge1_Node000001_Node000002" class="edge">
<title>Node1&#45;&gt;Node2</title>
<g id="a_edge1_Node000001_Node000002"><a xlink:title=" ">
<path fill="none" stroke="#63b8ff" d="M136.52,-108.52C121.58,-99.62 102.27,-88.13 87.19,-79.15"/>
<polygon fill="#63b8ff" stroke="#63b8ff" points="89.22,-76.29 78.84,-74.18 85.64,-82.3 89.22,-76.29"/>
</a>
</g>
</g>
<!-- Node5 -->
<g id="Node000005" class="node">
<title>Node5</title>
<g id="a_Node000005"><a xlink:title=" ">
<polygon fill="#e0e0e0" stroke="#999999" points="186,-73 134,-73 134,-54.5 186,-54.5 186,-73"/>
<text text-anchor="middle" x="160" y="-59.5" font-family="Helvetica,sans-Serif" font-size="10.00">QDebug</text>
</a>
</g>
</g>
<!-- Node1&#45;&gt;Node5 -->
<g id="edge4_Node000001_Node000005" class="edge">
<title>Node1&#45;&gt;Node5</title>
<g id="a_edge4_Node000001_Node000005"><a xlink:title=" ">
<path fill="none" stroke="#63b8ff" d="M160,-108.52C160,-101.42 160,-92.67 160,-84.86"/>
<polygon fill="#63b8ff" stroke="#63b8ff" points="163.5,-84.92 160,-74.92 156.5,-84.92 163.5,-84.92"/>
</a>
</g>
</g>
<!-- Node6 -->
<g id="Node000006" class="node">
<title>Node6</title>
<g id="a_Node000006"><a xlink:title=" ">
<polygon fill="#e0e0e0" stroke="#999999" points="248.25,-73 203.75,-73 203.75,-54.5 248.25,-54.5 248.25,-73"/>
<text text-anchor="middle" x="226" y="-59.5" font-family="Helvetica,sans-Serif" font-size="10.00">cstdlib</text>
</a>
</g>
</g>
<!-- Node1&#45;&gt;Node6 -->
<g id="edge5_Node000001_Node000006" class="edge">
<title>Node1&#45;&gt;Node6</title>
<g id="a_edge5_Node000001_Node000006"><a xlink:title=" ">
<path fill="none" stroke="#63b8ff" d="M175.98,-108.52C185.56,-100.14 197.77,-89.45 207.74,-80.73"/>
<polygon fill="#63b8ff" stroke="#63b8ff" points="209.75,-83.62 214.97,-74.4 205.14,-78.35 209.75,-83.62"/>
</a>
</g>
</g>
<!-- Node3 -->
<g id="Node000003" class="node">
<title>Node3</title>
<g id="a_Node000003"><a xlink:title=" ">
<polygon fill="#e0e0e0" stroke="#999999" points="52,-18.5 0,-18.5 0,0 52,0 52,-18.5"/>
<text text-anchor="middle" x="26" y="-5" font-family="Helvetica,sans-Serif" font-size="10.00">QObject</text>
</a>
</g>
</g>
<!-- Node2&#45;&gt;Node3 -->
<g id="edge2_Node000002_Node000003" class="edge">
<title>Node2&#45;&gt;Node3</title>
<g id="a_edge2_Node000002_Node000003"><a xlink:title=" ">
<path fill="none" stroke="#63b8ff" d="M56.89,-54.08C51.93,-47.05 44.78,-36.9 38.61,-28.14"/>
<polygon fill="#63b8ff" stroke="#63b8ff" points="41.49,-26.15 32.87,-20 35.77,-30.19 41.49,-26.15"/>
</a>
</g>
</g>
<!-- Node4 -->
<g id="Node000004" class="node">
<title>Node4</title>
<g id="a_Node000004"><a xlink:title=" ">
<polygon fill="#e0e0e0" stroke="#999999" points="131.5,-18.5 70.5,-18.5 70.5,0 131.5,0 131.5,-18.5"/>
<text text-anchor="middle" x="101" y="-5" font-family="Helvetica,sans-Serif" font-size="10.00">pqxx/pqxx</text>
</a>
</g>
</g>
<!-- Node2&#45;&gt;Node4 -->
<g id="edge3_Node000002_Node000004" class="edge">
<title>Node2&#45;&gt;Node4</title>
<g id="a_edge3_Node000002_Node000004"><a xlink:title=" ">
<path fill="none" stroke="#63b8ff" d="M69.27,-54.08C74.42,-46.97 81.87,-36.68 88.26,-27.85"/>
<polygon fill="#63b8ff" stroke="#63b8ff" points="90.93,-30.14 93.95,-19.98 85.26,-26.03 90.93,-30.14"/>
</a>
</g>
</g>
</g>
</svg>
