<?xml version="1.0" encoding="UTF-8" standalone="no"?>
<!DOCTYPE svg PUBLIC "-//W3C//DTD SVG 1.1//EN"
 "http://www.w3.org/Graphics/SVG/1.1/DTD/svg11.dtd">
<!-- Generated by graphviz version 12.2.1 (0)
 -->
<!-- Title: src/ui/settings/tabs/classified/layers Pages: 1 -->
<!--zoomable 124 -->

<svg id="main" version="1.1" xmlns="http://www.w3.org/2000/svg" xmlns:xlink="http://www.w3.org/1999/xlink" xml:space="preserve" onload="init(evt)">

<style type="text/css"><![CDATA[
.node, .edge {opacity: 0.7;}
.node.selected, .edge.selected {opacity: 1;}
.edge:hover path { stroke: red; }
.edge:hover polygon { stroke: red; fill: red; }
]]></style>

<defs>
  <circle id="rim" cx="0" cy="0" r="7"/>
  <circle id="rim2" cx="0" cy="0" r="3.5"/>
  <g id="zoomPlus">
    <use xlink:href="#rim" fill="#404040"><set attributeName="fill" to="#808080" begin="zoomplus.mouseover" end="zoomplus.mouseout"/></use>
    <path d="M-4,0h8M0,-4v8" fill="none" stroke="white" stroke-width="1.5" pointer-events="none"/>
  </g>
  <g id="zoomMin">
    <use xlink:href="#rim" fill="#404040"><set attributeName="fill" to="#808080" begin="zoomminus.mouseover" end="zoomminus.mouseout"/></use>
    <path d="M-4,0h8" fill="none" stroke="white" stroke-width="1.5" pointer-events="none"/>
  </g>
  <g id="arrowUp" transform="translate(30 24)">
    <use xlink:href="#rim"/>
    <path pointer-events="none" fill="none" stroke="white" stroke-width="1.5" d="M0,-3.0v7 M-2.5,-0.5L0,-3.0L2.5,-0.5"/>
  </g>
  <g id="arrowRight" transform="rotate(90) translate(36 -43)">
    <use xlink:href="#rim"/>
    <path pointer-events="none" fill="none" stroke="white" stroke-width="1.5" d="M0,-3.0v7 M-2.5,-0.5L0,-3.0L2.5,-0.5"/>
  </g>
  <g id="arrowDown" transform="rotate(180) translate(-30 -48)">
    <use xlink:href="#rim"/>
    <path pointer-events="none" fill="none" stroke="white" stroke-width="1.5" d="M0,-3.0v7 M-2.5,-0.5L0,-3.0L2.5,-0.5"/>
  </g>
  <g id="arrowLeft" transform="rotate(270) translate(-36 17)">
    <use xlink:href="#rim"/>
    <path pointer-events="none" fill="none" stroke="white" stroke-width="1.5" d="M0,-3.0v7 M-2.5,-0.5L0,-3.0L2.5,-0.5"/>
  </g>
  <g id="resetDef">
    <use xlink:href="#rim2" fill="#404040"><set attributeName="fill" to="#808080" begin="reset.mouseover" end="reset.mouseout"/></use>
  </g>
</defs>
<script type="application/ecmascript">
var viewWidth = 741;
var viewHeight = 124;
var sectionId = 'dynsection-0';
</script>
<script type="application/ecmascript" xlink:href="svg.min.js"/>
<svg id="graph" class="graph">
<g id="viewport">
<title>src/ui/settings/tabs/classified/layers</title>
<g id="clust1" class="cluster">
<title>clusterdir_30f2727690e99ba81a73188f7dd8c44f</title>
<g id="a_clust1"><a xlink:href="dir_30f2727690e99ba81a73188f7dd8c44f.html" target="_top" xlink:title="classified">
<polygon fill="#edf0f7" stroke="#7f7f7f" stroke-dasharray="5,2" points="8,-39.42 8,-108.42 725,-108.42 725,-39.42 8,-39.42"/>
<text text-anchor="middle" x="366.5" y="-94.92" font-family="Helvetica,sans-Serif" font-size="10.00">classified</text>
</a>
</g>
</g>
<g id="clust2" class="cluster">
<title>clusterdir_73b25b013993ddbed0503aac54064a2d</title>
<g id="a_clust2"><a xlink:href="dir_73b25b013993ddbed0503aac54064a2d.html" target="_top">
<polygon fill="#edf0f7" stroke="#404040" stroke-width="2" points="16,-47.42 16,-81.92 717,-81.92 717,-47.42 16,-47.42"/>
</a>
</g>
</g>
<!-- dir_73b25b013993ddbed0503aac54064a2d -->
<g id="node1" class="node">
<title>dir_73b25b013993ddbed0503aac54064a2d</title>
<text text-anchor="middle" x="45" y="-60.42" font-family="Helvetica,sans-Serif" font-size="10.00">layers</text>
</g>
<!-- dir_6ce25797e91e85f2620a6822d7183482 -->
<g id="node2" class="node">
<title>dir_6ce25797e91e85f2620a6822d7183482</title>
<g id="a_node2"><a xlink:href="dir_6ce25797e91e85f2620a6822d7183482.html" target="_top" xlink:title="code">
<polygon fill="#a2b4d6" stroke="#404040" points="121.5,-73.92 84.5,-73.92 84.5,-55.42 121.5,-55.42 121.5,-73.92"/>
<text text-anchor="middle" x="103" y="-60.42" font-family="Helvetica,sans-Serif" font-size="10.00">code</text>
</a>
</g>
</g>
<!-- dir_5194e5fea318fda12687127c23f8aba1 -->
<g id="node10" class="node">
<title>dir_5194e5fea318fda12687127c23f8aba1</title>
<g id="a_node10"><a xlink:href="dir_5194e5fea318fda12687127c23f8aba1.html" target="_top" xlink:title="app">
<polygon fill="#edf0f7" stroke="red" stroke-dasharray="5,2" points="371.88,-19.42 340.12,-19.42 340.12,-0.92 371.88,-0.92 371.88,-19.42"/>
<text text-anchor="middle" x="356" y="-5.92" font-family="Helvetica,sans-Serif" font-size="10.00">app</text>
</a>
</g>
</g>
<!-- dir_6ce25797e91e85f2620a6822d7183482&#45;&gt;dir_5194e5fea318fda12687127c23f8aba1 -->
<g id="edge1" class="edge">
<title>dir_6ce25797e91e85f2620a6822d7183482&#45;&gt;dir_5194e5fea318fda12687127c23f8aba1</title>
<g id="a_edge1"><a xlink:href="dir_000011_000000.html" target="_top">
<path fill="none" stroke="#63b8ff" d="M110.1,-55.02C115.07,-49.59 122.2,-42.97 130,-39.42 164.8,-23.54 276.1,-15.52 328.38,-12.56"/>
<polygon fill="#63b8ff" stroke="#63b8ff" points="328.44,-16.06 338.23,-12.02 328.06,-9.07 328.44,-16.06"/>
</a>
</g>
<g id="a_edge1&#45;headlabel"><a xlink:href="dir_000011_000000.html" target="_top" xlink:title="1">
<text text-anchor="middle" x="326.51" y="-14.76" font-family="Helvetica,sans-Serif" font-size="10.00" fill="#63b8ff">1</text>
</a>
</g>
</g>
<!-- dir_5fdeceb31487967ff70df32a2bd1dd02 -->
<g id="node3" class="node">
<title>dir_5fdeceb31487967ff70df32a2bd1dd02</title>
<g id="a_node3"><a xlink:href="dir_5fdeceb31487967ff70df32a2bd1dd02.html" target="_top" xlink:title="fingerprint">
<polygon fill="#a2b4d6" stroke="#404040" points="198.75,-73.92 139.25,-73.92 139.25,-55.42 198.75,-55.42 198.75,-73.92"/>
<text text-anchor="middle" x="169" y="-60.42" font-family="Helvetica,sans-Serif" font-size="10.00">fingerprint</text>
</a>
</g>
</g>
<!-- dir_5fdeceb31487967ff70df32a2bd1dd02&#45;&gt;dir_5194e5fea318fda12687127c23f8aba1 -->
<g id="edge2" class="edge">
<title>dir_5fdeceb31487967ff70df32a2bd1dd02&#45;&gt;dir_5194e5fea318fda12687127c23f8aba1</title>
<g id="a_edge2"><a xlink:href="dir_000028_000000.html" target="_top">
<path fill="none" stroke="#63b8ff" d="M180.35,-55.04C187.83,-49.76 198.05,-43.3 208,-39.42 248.26,-23.69 298.21,-16.49 328.56,-13.37"/>
<polygon fill="#63b8ff" stroke="#63b8ff" points="328.78,-16.86 338.41,-12.44 328.12,-9.89 328.78,-16.86"/>
</a>
</g>
<g id="a_edge2&#45;headlabel"><a xlink:href="dir_000028_000000.html" target="_top" xlink:title="1">
<text text-anchor="middle" x="326.98" y="-15.64" font-family="Helvetica,sans-Serif" font-size="10.00" fill="#63b8ff">1</text>
</a>
</g>
</g>
<!-- dir_38c5dca69bda0bc021c09acaef3fb0dc -->
<g id="node4" class="node">
<title>dir_38c5dca69bda0bc021c09acaef3fb0dc</title>
<g id="a_node4"><a xlink:href="dir_38c5dca69bda0bc021c09acaef3fb0dc.html" target="_top" xlink:title="handprint">
<polygon fill="#a2b4d6" stroke="#404040" points="272.88,-73.92 217.12,-73.92 217.12,-55.42 272.88,-55.42 272.88,-73.92"/>
<text text-anchor="middle" x="245" y="-60.42" font-family="Helvetica,sans-Serif" font-size="10.00">handprint</text>
</a>
</g>
</g>
<!-- dir_38c5dca69bda0bc021c09acaef3fb0dc&#45;&gt;dir_5194e5fea318fda12687127c23f8aba1 -->
<g id="edge3" class="edge">
<title>dir_38c5dca69bda0bc021c09acaef3fb0dc&#45;&gt;dir_5194e5fea318fda12687127c23f8aba1</title>
<g id="a_edge3"><a xlink:href="dir_000032_000000.html" target="_top">
<path fill="none" stroke="#63b8ff" d="M256.61,-55.13C263.71,-50.14 273.11,-43.96 282,-39.42 297.07,-31.71 314.76,-24.89 329.06,-19.87"/>
<polygon fill="#63b8ff" stroke="#63b8ff" points="329.92,-23.28 338.26,-16.75 327.66,-16.65 329.92,-23.28"/>
</a>
</g>
<g id="a_edge3&#45;headlabel"><a xlink:href="dir_000032_000000.html" target="_top" xlink:title="1">
<text text-anchor="middle" x="328.86" y="-22.39" font-family="Helvetica,sans-Serif" font-size="10.00" fill="#63b8ff">1</text>
</a>
</g>
</g>
<!-- dir_fdc357cb9fc7c869861b7014f7628171 -->
<g id="node5" class="node">
<title>dir_fdc357cb9fc7c869861b7014f7628171</title>
<g id="a_node5"><a xlink:href="dir_fdc357cb9fc7c869861b7014f7628171.html" target="_top" xlink:title="question">
<polygon fill="#a2b4d6" stroke="#404040" points="343.38,-73.92 290.62,-73.92 290.62,-55.42 343.38,-55.42 343.38,-73.92"/>
<text text-anchor="middle" x="317" y="-60.42" font-family="Helvetica,sans-Serif" font-size="10.00">question</text>
</a>
</g>
</g>
<!-- dir_fdc357cb9fc7c869861b7014f7628171&#45;&gt;dir_5194e5fea318fda12687127c23f8aba1 -->
<g id="edge4" class="edge">
<title>dir_fdc357cb9fc7c869861b7014f7628171&#45;&gt;dir_5194e5fea318fda12687127c23f8aba1</title>
<g id="a_edge4"><a xlink:href="dir_000047_000000.html" target="_top">
<path fill="none" stroke="#63b8ff" d="M323.44,-55C328.72,-47.89 336.37,-37.59 342.93,-28.77"/>
<polygon fill="#63b8ff" stroke="#63b8ff" points="345.62,-31 348.78,-20.89 340,-26.83 345.62,-31"/>
</a>
</g>
<g id="a_edge4&#45;headlabel"><a xlink:href="dir_000047_000000.html" target="_top" xlink:title="1">
<text text-anchor="middle" x="346.66" y="-30.12" font-family="Helvetica,sans-Serif" font-size="10.00" fill="#63b8ff">1</text>
</a>
</g>
</g>
<!-- dir_18d6a4607b827eab2fc8cd963a741965 -->
<g id="node6" class="node">
<title>dir_18d6a4607b827eab2fc8cd963a741965</title>
<g id="a_node6"><a xlink:href="dir_18d6a4607b827eab2fc8cd963a741965.html" target="_top" xlink:title="retina_scan">
<polygon fill="#a2b4d6" stroke="#404040" points="428.12,-73.92 361.88,-73.92 361.88,-55.42 428.12,-55.42 428.12,-73.92"/>
<text text-anchor="middle" x="395" y="-60.42" font-family="Helvetica,sans-Serif" font-size="10.00">retina_scan</text>
</a>
</g>
</g>
<!-- dir_18d6a4607b827eab2fc8cd963a741965&#45;&gt;dir_5194e5fea318fda12687127c23f8aba1 -->
<g id="edge5" class="edge">
<title>dir_18d6a4607b827eab2fc8cd963a741965&#45;&gt;dir_5194e5fea318fda12687127c23f8aba1</title>
<g id="a_edge5"><a xlink:href="dir_000049_000000.html" target="_top">
<path fill="none" stroke="#63b8ff" d="M388.56,-55C383.28,-47.89 375.63,-37.59 369.07,-28.77"/>
<polygon fill="#63b8ff" stroke="#63b8ff" points="372,-26.83 363.22,-20.89 366.38,-31 372,-26.83"/>
</a>
</g>
<g id="a_edge5&#45;headlabel"><a xlink:href="dir_000049_000000.html" target="_top" xlink:title="1">
<text text-anchor="middle" x="375.52" y="-22.56" font-family="Helvetica,sans-Serif" font-size="10.00" fill="#63b8ff">1</text>
</a>
</g>
</g>
<!-- dir_0ad7bb40d87f02e5be4966b8e1ac6677 -->
<g id="node7" class="node">
<title>dir_0ad7bb40d87f02e5be4966b8e1ac6677</title>
<g id="a_node7"><a xlink:href="dir_0ad7bb40d87f02e5be4966b8e1ac6677.html" target="_top" xlink:title="snake_game">
<polygon fill="#a2b4d6" stroke="#404040" points="517.38,-73.92 446.62,-73.92 446.62,-55.42 517.38,-55.42 517.38,-73.92"/>
<text text-anchor="middle" x="482" y="-60.42" font-family="Helvetica,sans-Serif" font-size="10.00">snake_game</text>
</a>
</g>
</g>
<!-- dir_0ad7bb40d87f02e5be4966b8e1ac6677&#45;&gt;dir_5194e5fea318fda12687127c23f8aba1 -->
<g id="edge6" class="edge">
<title>dir_0ad7bb40d87f02e5be4966b8e1ac6677&#45;&gt;dir_5194e5fea318fda12687127c23f8aba1</title>
<g id="a_edge6"><a xlink:href="dir_000056_000000.html" target="_top">
<path fill="none" stroke="#63b8ff" d="M467.3,-54.97C458.65,-50.06 447.4,-43.99 437,-39.42 419.34,-31.64 398.81,-24.5 382.84,-19.34"/>
<polygon fill="#63b8ff" stroke="#63b8ff" points="384.15,-16.08 373.56,-16.41 382.04,-22.76 384.15,-16.08"/>
</a>
</g>
<g id="a_edge6&#45;headlabel"><a xlink:href="dir_000056_000000.html" target="_top" xlink:title="1">
<text text-anchor="middle" x="386.99" y="-9.75" font-family="Helvetica,sans-Serif" font-size="10.00" fill="#63b8ff">1</text>
</a>
</g>
</g>
<!-- dir_88fdf9e53474d81fb6ef5f057e0e6f50 -->
<g id="node8" class="node">
<title>dir_88fdf9e53474d81fb6ef5f057e0e6f50</title>
<g id="a_node8"><a xlink:href="dir_88fdf9e53474d81fb6ef5f057e0e6f50.html" target="_top" xlink:title="typing_test">
<polygon fill="#a2b4d6" stroke="#404040" points="599,-73.92 535,-73.92 535,-55.42 599,-55.42 599,-73.92"/>
<text text-anchor="middle" x="567" y="-60.42" font-family="Helvetica,sans-Serif" font-size="10.00">typing_test</text>
</a>
</g>
</g>
<!-- dir_88fdf9e53474d81fb6ef5f057e0e6f50&#45;&gt;dir_5194e5fea318fda12687127c23f8aba1 -->
<g id="edge7" class="edge">
<title>dir_88fdf9e53474d81fb6ef5f057e0e6f50&#45;&gt;dir_5194e5fea318fda12687127c23f8aba1</title>
<g id="a_edge7"><a xlink:href="dir_000063_000000.html" target="_top">
<path fill="none" stroke="#63b8ff" d="M555.03,-54.98C547.16,-49.68 536.41,-43.21 526,-39.42 477.68,-21.81 417.61,-15.11 383.35,-12.61"/>
<polygon fill="#63b8ff" stroke="#63b8ff" points="383.68,-9.12 373.47,-11.96 383.22,-16.11 383.68,-9.12"/>
</a>
</g>
<g id="a_edge7&#45;headlabel"><a xlink:href="dir_000063_000000.html" target="_top" xlink:title="1">
<text text-anchor="middle" x="385.94" y="-2.18" font-family="Helvetica,sans-Serif" font-size="10.00" fill="#63b8ff">1</text>
</a>
</g>
</g>
<!-- dir_6346bce032bc8647b39b64cba7f1a4ac -->
<g id="node9" class="node">
<title>dir_6346bce032bc8647b39b64cba7f1a4ac</title>
<g id="a_node9"><a xlink:href="dir_6346bce032bc8647b39b64cba7f1a4ac.html" target="_top" xlink:title="voice_recognition">
<polygon fill="#a2b4d6" stroke="#404040" points="708.5,-73.92 617.5,-73.92 617.5,-55.42 708.5,-55.42 708.5,-73.92"/>
<text text-anchor="middle" x="663" y="-60.42" font-family="Helvetica,sans-Serif" font-size="10.00">voice_recognition</text>
</a>
</g>
</g>
<!-- dir_6346bce032bc8647b39b64cba7f1a4ac&#45;&gt;dir_5194e5fea318fda12687127c23f8aba1 -->
<g id="edge8" class="edge">
<title>dir_6346bce032bc8647b39b64cba7f1a4ac&#45;&gt;dir_5194e5fea318fda12687127c23f8aba1</title>
<g id="a_edge8"><a xlink:href="dir_000069_000000.html" target="_top">
<path fill="none" stroke="#63b8ff" d="M647.11,-55.11C636.37,-49.72 621.7,-43.11 608,-39.42 528.4,-17.95 430.41,-12.77 383.53,-11.54"/>
<polygon fill="#63b8ff" stroke="#63b8ff" points="383.82,-8.04 373.75,-11.33 383.67,-15.04 383.82,-8.04"/>
</a>
</g>
<g id="a_edge8&#45;headlabel"><a xlink:href="dir_000069_000000.html" target="_top" xlink:title="1">
<text text-anchor="middle" x="385.96" y="-1" font-family="Helvetica,sans-Serif" font-size="10.00" fill="#63b8ff">1</text>
</a>
</g>
</g>
</g>
</svg>

<g id="navigator" transform="translate(0 0)" fill="#404254">
  <rect fill="#f2f5e9" fill-opacity="0.5" stroke="#606060" stroke-width=".5" x="0" y="0" width="60" height="60"/>
  <use id="zoomplus" xlink:href="#zoomPlus" x="17" y="9" onmousedown="handleZoom(evt,'in')"/>
  <use id="zoomminus" xlink:href="#zoomMin" x="42" y="9" onmousedown="handleZoom(evt,'out')"/>
  <use id="reset" xlink:href="#resetDef" x="30" y="36" onmousedown="handleReset()"/>
   <use id="arrowup" xlink:href="#arrowUp" x="0" y="0" onmousedown="handlePan(0,-1)"/>
  <use id="arrowright" xlink:href="#arrowRight" x="0" y="0" onmousedown="handlePan(1,0)"/>
  <use id="arrowdown" xlink:href="#arrowDown" x="0" y="0" onmousedown="handlePan(0,1)"/>
  <use id="arrowleft" xlink:href="#arrowLeft" x="0" y="0" onmousedown="handlePan(-1,0)"/>
</g>
<svg viewBox="0 0 15 15" width="100%" height="30px" preserveAspectRatio="xMaxYMin meet">
 <g id="arrow_out" transform="scale(0.3 0.3)">
  <a xlink:href="dir_73b25b013993ddbed0503aac54064a2d_dep_org.svg" target="_base">
   <rect id="button" ry="5" rx="5" y="6" x="6" height="38" width="38"
        fill="#f2f5e9" fill-opacity="0.5" stroke="#606060" stroke-width="1.0"/>
   <path id="arrow"
     d="M 11.500037,31.436501 C 11.940474,20.09759 22.043105,11.32322 32.158766,21.979434 L 37.068811,17.246167 C 37.068811,17.246167 37.088388,32 37.088388,32 L 22.160133,31.978069 C 22.160133,31.978069 26.997745,27.140456 26.997745,27.140456 C 18.528582,18.264221 13.291696,25.230495 11.500037,31.436501 z"
     style="fill:#404040;"/>
  </a>
 </g>
</svg>

<style type='text/css'>
<![CDATA[
[data-mouse-over-selected='false'] { opacity: 0.7; }
[data-mouse-over-selected='true']  { opacity: 1.0; }
]]>
</style>
<script type="application/ecmascript"><![CDATA[
document.addEventListener('DOMContentLoaded', (event) => {
  highlightEdges();
  highlightAdjacentNodes();
});
]]></script>
</svg>
