<?xml version="1.0" encoding="UTF-8" standalone="no"?>
<!DOCTYPE svg PUBLIC "-//W3C//DTD SVG 1.1//EN"
 "http://www.w3.org/Graphics/SVG/1.1/DTD/svg11.dtd">
<!-- Generated by graphviz version 12.2.1 (0)
 -->
<!-- Title: src/ui/chat Pages: 1 -->
<svg width="334pt" height="148pt"
 viewBox="0.00 0.00 333.88 147.50" xmlns="http://www.w3.org/2000/svg" xmlns:xlink="http://www.w3.org/1999/xlink">
<g id="graph0" class="graph" transform="scale(1 1) rotate(0) translate(4 143.5)">
<title>src/ui/chat</title>
<g id="clust1" class="cluster">
<title>clusterdir_da5c6b39c0a2f54e57df6799511cd3ab</title>
<g id="a_clust1"><a xlink:href="dir_da5c6b39c0a2f54e57df6799511cd3ab.html" target="_top" xlink:title="ui">
<polygon fill="#edf0f7" stroke="#7f7f7f" stroke-dasharray="5,2" points="8,-8 8,-131.5 232,-131.5 232,-8 8,-8"/>
<text text-anchor="middle" x="120" y="-118" font-family="Helvetica,sans-Serif" font-size="10.00">ui</text>
</a>
</g>
</g>
<g id="clust2" class="cluster">
<title>clusterdir_9069e8b61903471f92238f895a27880a</title>
<g id="a_clust2"><a xlink:href="dir_9069e8b61903471f92238f895a27880a.html" target="_top">
<polygon fill="#edf0f7" stroke="#404040" stroke-width="2" points="16,-16 16,-105 122,-105 122,-16 16,-16"/>
</a>
</g>
</g>
<!-- dir_2c8642ddaa9fb9428585962ee0b27b7c -->
<g id="node1" class="node">
<title>dir_2c8642ddaa9fb9428585962ee0b27b7c</title>
<g id="a_node1"><a xlink:href="dir_2c8642ddaa9fb9428585962ee0b27b7c.html" target="_top" xlink:title="files">
<polygon fill="#a2b4d6" stroke="#404040" points="224,-42.5 190,-42.5 190,-24 224,-24 224,-42.5"/>
<text text-anchor="middle" x="207" y="-29" font-family="Helvetica,sans-Serif" font-size="10.00">files</text>
</a>
</g>
</g>
<!-- dir_675a24a5ae628c83515d467302a93046 -->
<g id="node2" class="node">
<title>dir_675a24a5ae628c83515d467302a93046</title>
<g id="a_node2"><a xlink:href="dir_675a24a5ae628c83515d467302a93046.html" target="_top" xlink:title="labels">
<polygon fill="#a2b4d6" stroke="#404040" points="171.75,-42.5 130.25,-42.5 130.25,-24 171.75,-24 171.75,-42.5"/>
<text text-anchor="middle" x="151" y="-29" font-family="Helvetica,sans-Serif" font-size="10.00">labels</text>
</a>
</g>
</g>
<!-- dir_9069e8b61903471f92238f895a27880a -->
<g id="node3" class="node">
<title>dir_9069e8b61903471f92238f895a27880a</title>
<text text-anchor="middle" x="41" y="-83.5" font-family="Helvetica,sans-Serif" font-size="10.00">chat</text>
</g>
<!-- dir_9069e8b61903471f92238f895a27880a&#45;&gt;dir_2c8642ddaa9fb9428585962ee0b27b7c -->
<g id="edge1" class="edge">
<title>dir_9069e8b61903471f92238f895a27880a&#45;&gt;dir_2c8642ddaa9fb9428585962ee0b27b7c</title>
<g id="a_edge1"><a xlink:href="dir_000008_000027.html" target="_top">
<path fill="none" stroke="#63b8ff" d="M58.24,-81.31C82.86,-73.53 129.77,-58.72 178.83,-43.18"/>
<polygon fill="#63b8ff" stroke="#63b8ff" points="179.74,-46.57 188.22,-40.21 177.63,-39.89 179.74,-46.57"/>
</a>
</g>
<g id="a_edge1&#45;headlabel"><a xlink:href="dir_000008_000027.html" target="_top" xlink:title="1">
<text text-anchor="middle" x="178.61" y="-45.65" font-family="Helvetica,sans-Serif" font-size="10.00" fill="#63b8ff">1</text>
</a>
</g>
</g>
<!-- dir_9069e8b61903471f92238f895a27880a&#45;&gt;dir_675a24a5ae628c83515d467302a93046 -->
<g id="edge4" class="edge">
<title>dir_9069e8b61903471f92238f895a27880a&#45;&gt;dir_675a24a5ae628c83515d467302a93046</title>
<g id="a_edge4"><a xlink:href="dir_000008_000036.html" target="_top">
<path fill="none" stroke="#63b8ff" d="M58.19,-78.55C75.4,-70.33 102.18,-57.55 122.56,-47.82"/>
<polygon fill="#63b8ff" stroke="#63b8ff" points="123.95,-51.04 131.47,-43.57 120.94,-44.72 123.95,-51.04"/>
</a>
</g>
<g id="a_edge4&#45;headlabel"><a xlink:href="dir_000008_000036.html" target="_top" xlink:title="1">
<text text-anchor="middle" x="123.3" y="-50.25" font-family="Helvetica,sans-Serif" font-size="10.00" fill="#63b8ff">1</text>
</a>
</g>
</g>
<!-- dir_4a7a6ac68bc3f4162a6fd8dee01c108b -->
<g id="node4" class="node">
<title>dir_4a7a6ac68bc3f4162a6fd8dee01c108b</title>
<g id="a_node4"><a xlink:href="dir_4a7a6ac68bc3f4162a6fd8dee01c108b.html" target="_top" xlink:title="effects">
<polygon fill="#a2b4d6" stroke="#404040" points="69.62,-42.5 24.38,-42.5 24.38,-24 69.62,-24 69.62,-42.5"/>
<text text-anchor="middle" x="47" y="-29" font-family="Helvetica,sans-Serif" font-size="10.00">effects</text>
</a>
</g>
</g>
<!-- dir_9069e8b61903471f92238f895a27880a&#45;&gt;dir_4a7a6ac68bc3f4162a6fd8dee01c108b -->
<g id="edge2" class="edge">
<title>dir_9069e8b61903471f92238f895a27880a&#45;&gt;dir_4a7a6ac68bc3f4162a6fd8dee01c108b</title>
<g id="a_edge2"><a xlink:href="dir_000008_000023.html" target="_top">
<path fill="none" stroke="#63b8ff" d="M41.94,-78.55C42.68,-72.04 43.75,-62.66 44.72,-54.2"/>
<polygon fill="#63b8ff" stroke="#63b8ff" points="48.18,-54.76 45.84,-44.42 41.22,-53.96 48.18,-54.76"/>
</a>
</g>
<g id="a_edge2&#45;headlabel"><a xlink:href="dir_000008_000023.html" target="_top" xlink:title="3">
<text text-anchor="middle" x="50.76" y="-52.9" font-family="Helvetica,sans-Serif" font-size="10.00" fill="#63b8ff">3</text>
</a>
</g>
</g>
<!-- dir_5194e5fea318fda12687127c23f8aba1 -->
<g id="node6" class="node">
<title>dir_5194e5fea318fda12687127c23f8aba1</title>
<g id="a_node6"><a xlink:href="dir_5194e5fea318fda12687127c23f8aba1.html" target="_top" xlink:title="app">
<polygon fill="#edf0f7" stroke="red" stroke-dasharray="5,2" points="325.88,-42.5 294.12,-42.5 294.12,-24 325.88,-24 325.88,-42.5"/>
<text text-anchor="middle" x="310" y="-29" font-family="Helvetica,sans-Serif" font-size="10.00">app</text>
</a>
</g>
</g>
<!-- dir_9069e8b61903471f92238f895a27880a&#45;&gt;dir_5194e5fea318fda12687127c23f8aba1 -->
<g id="edge3" class="edge">
<title>dir_9069e8b61903471f92238f895a27880a&#45;&gt;dir_5194e5fea318fda12687127c23f8aba1</title>
<g id="a_edge3"><a xlink:href="dir_000008_000000.html" target="_top">
<path fill="none" stroke="#63b8ff" d="M58.34,-81.08C61.53,-80.15 64.85,-79.24 68,-78.5 159.74,-56.97 188.04,-65.23 282.76,-42.7"/>
<polygon fill="#63b8ff" stroke="#63b8ff" points="283.34,-46.16 292.23,-40.39 281.68,-39.36 283.34,-46.16"/>
</a>
</g>
<g id="a_edge3&#45;headlabel"><a xlink:href="dir_000008_000000.html" target="_top" xlink:title="3">
<text text-anchor="middle" x="281.99" y="-45.16" font-family="Helvetica,sans-Serif" font-size="10.00" fill="#63b8ff">3</text>
</a>
</g>
</g>
<!-- dir_905b439cb7102d88af5dfc588e5add64 -->
<g id="node7" class="node">
<title>dir_905b439cb7102d88af5dfc588e5add64</title>
<g id="a_node7"><a xlink:href="dir_905b439cb7102d88af5dfc588e5add64.html" target="_top" xlink:title="chat">
<polygon fill="#edf0f7" stroke="red" stroke-dasharray="5,2" points="276.38,-42.5 241.62,-42.5 241.62,-24 276.38,-24 276.38,-42.5"/>
<text text-anchor="middle" x="259" y="-29" font-family="Helvetica,sans-Serif" font-size="10.00">chat</text>
</a>
</g>
</g>
<!-- dir_9069e8b61903471f92238f895a27880a&#45;&gt;dir_905b439cb7102d88af5dfc588e5add64 -->
<g id="edge5" class="edge">
<title>dir_9069e8b61903471f92238f895a27880a&#45;&gt;dir_905b439cb7102d88af5dfc588e5add64</title>
<g id="a_edge5"><a xlink:href="dir_000008_000007.html" target="_top">
<path fill="none" stroke="#63b8ff" d="M58.37,-81.2C61.56,-80.25 64.87,-79.31 68,-78.5 138.45,-60.22 160.51,-63.1 230.55,-43.88"/>
<polygon fill="#63b8ff" stroke="#63b8ff" points="231.11,-47.36 239.79,-41.29 229.22,-40.62 231.11,-47.36"/>
</a>
</g>
<g id="a_edge5&#45;headlabel"><a xlink:href="dir_000008_000007.html" target="_top" xlink:title="2">
<text text-anchor="middle" x="229.87" y="-46.41" font-family="Helvetica,sans-Serif" font-size="10.00" fill="#63b8ff">2</text>
</a>
</g>
</g>
<!-- dir_ed4fd252e696809cb001fb826b2f92d9 -->
<g id="node5" class="node">
<title>dir_ed4fd252e696809cb001fb826b2f92d9</title>
<g id="a_node5"><a xlink:href="dir_ed4fd252e696809cb001fb826b2f92d9.html" target="_top" xlink:title="style">
<polygon fill="#a2b4d6" stroke="#404040" points="113.5,-97 76.5,-97 76.5,-78.5 113.5,-78.5 113.5,-97"/>
<text text-anchor="middle" x="95" y="-83.5" font-family="Helvetica,sans-Serif" font-size="10.00">style</text>
</a>
</g>
</g>
<!-- dir_ed4fd252e696809cb001fb826b2f92d9&#45;&gt;dir_5194e5fea318fda12687127c23f8aba1 -->
<g id="edge6" class="edge">
<title>dir_ed4fd252e696809cb001fb826b2f92d9&#45;&gt;dir_5194e5fea318fda12687127c23f8aba1</title>
<g id="a_edge6"><a xlink:href="dir_000061_000000.html" target="_top">
<path fill="none" stroke="#63b8ff" d="M113.75,-82.97C146.26,-76.29 215.38,-61.55 282.85,-42.9"/>
<polygon fill="#63b8ff" stroke="#63b8ff" points="283.51,-46.35 292.2,-40.28 281.63,-39.61 283.51,-46.35"/>
</a>
</g>
<g id="a_edge6&#45;headlabel"><a xlink:href="dir_000061_000000.html" target="_top" xlink:title="1">
<text text-anchor="middle" x="282.28" y="-45.4" font-family="Helvetica,sans-Serif" font-size="10.00" fill="#63b8ff">1</text>
</a>
</g>
</g>
</g>
</svg>
