<?xml version="1.0" encoding="UTF-8" standalone="no"?>
<!DOCTYPE svg PUBLIC "-//W3C//DTD SVG 1.1//EN"
 "http://www.w3.org/Graphics/SVG/1.1/DTD/svg11.dtd">
<!-- Generated by graphviz version 12.2.1 (0)
 -->
<!-- Title: src/ui/settings/tabs/classified/components/floating_energy_sphere_widget.h Pages: 1 -->
<!--zoomable 123 -->

<svg id="main" version="1.1" xmlns="http://www.w3.org/2000/svg" xmlns:xlink="http://www.w3.org/1999/xlink" xml:space="preserve" onload="init(evt)">

<style type="text/css"><![CDATA[
.node, .edge {opacity: 0.7;}
.node.selected, .edge.selected {opacity: 1;}
.edge:hover path { stroke: red; }
.edge:hover polygon { stroke: red; fill: red; }
]]></style>

<defs>
  <circle id="rim" cx="0" cy="0" r="7"/>
  <circle id="rim2" cx="0" cy="0" r="3.5"/>
  <g id="zoomPlus">
    <use xlink:href="#rim" fill="#404040"><set attributeName="fill" to="#808080" begin="zoomplus.mouseover" end="zoomplus.mouseout"/></use>
    <path d="M-4,0h8M0,-4v8" fill="none" stroke="white" stroke-width="1.5" pointer-events="none"/>
  </g>
  <g id="zoomMin">
    <use xlink:href="#rim" fill="#404040"><set attributeName="fill" to="#808080" begin="zoomminus.mouseover" end="zoomminus.mouseout"/></use>
    <path d="M-4,0h8" fill="none" stroke="white" stroke-width="1.5" pointer-events="none"/>
  </g>
  <g id="arrowUp" transform="translate(30 24)">
    <use xlink:href="#rim"/>
    <path pointer-events="none" fill="none" stroke="white" stroke-width="1.5" d="M0,-3.0v7 M-2.5,-0.5L0,-3.0L2.5,-0.5"/>
  </g>
  <g id="arrowRight" transform="rotate(90) translate(36 -43)">
    <use xlink:href="#rim"/>
    <path pointer-events="none" fill="none" stroke="white" stroke-width="1.5" d="M0,-3.0v7 M-2.5,-0.5L0,-3.0L2.5,-0.5"/>
  </g>
  <g id="arrowDown" transform="rotate(180) translate(-30 -48)">
    <use xlink:href="#rim"/>
    <path pointer-events="none" fill="none" stroke="white" stroke-width="1.5" d="M0,-3.0v7 M-2.5,-0.5L0,-3.0L2.5,-0.5"/>
  </g>
  <g id="arrowLeft" transform="rotate(270) translate(-36 17)">
    <use xlink:href="#rim"/>
    <path pointer-events="none" fill="none" stroke="white" stroke-width="1.5" d="M0,-3.0v7 M-2.5,-0.5L0,-3.0L2.5,-0.5"/>
  </g>
  <g id="resetDef">
    <use xlink:href="#rim2" fill="#404040"><set attributeName="fill" to="#808080" begin="reset.mouseover" end="reset.mouseout"/></use>
  </g>
</defs>
<script type="application/ecmascript">
var viewWidth = 1392;
var viewHeight = 123;
var sectionId = 'dynsection-0';
</script>
<script type="application/ecmascript" xlink:href="svg.min.js"/>
<svg id="graph" class="graph">
<g id="viewport">
<title>src/ui/settings/tabs/classified/components/floating_energy_sphere_widget.h</title>
<!-- Node1 -->
<g id="Node000001" class="node">
<title>Node1</title>
<g id="a_Node000001"><a xlink:title=" ">
<polygon fill="#999999" stroke="#666666" points="646.88,-115 527.38,-115 527.38,-65 646.88,-65 646.88,-115"/>
<text text-anchor="start" x="535.38" y="-101.5" font-family="Helvetica,sans-Serif" font-size="10.00">src/ui/settings/tabs</text>
<text text-anchor="start" x="535.38" y="-91" font-family="Helvetica,sans-Serif" font-size="10.00">/classified/components</text>
<text text-anchor="start" x="535.38" y="-80.5" font-family="Helvetica,sans-Serif" font-size="10.00">/floating_energy_sphere</text>
<text text-anchor="middle" x="587.12" y="-70" font-family="Helvetica,sans-Serif" font-size="10.00">_widget.h</text>
</a>
</g>
</g>
<!-- Node2 -->
<g id="Node000002" class="node">
<title>Node2</title>
<g id="a_Node000002"><a xlink:title=" ">
<polygon fill="#e0e0e0" stroke="#999999" points="42.25,-23.75 0,-23.75 0,-5.25 42.25,-5.25 42.25,-23.75"/>
<text text-anchor="middle" x="21.12" y="-10.25" font-family="Helvetica,sans-Serif" font-size="10.00">deque</text>
</a>
</g>
</g>
<!-- Node1&#45;&gt;Node2 -->
<g id="edge1_Node000001_Node000002" class="edge">
<title>Node1&#45;&gt;Node2</title>
<g id="a_edge1_Node000001_Node000002"><a xlink:title=" ">
<path fill="none" stroke="#63b8ff" d="M526.9,-88.32C426.5,-85.85 219.34,-75.04 51.12,-29 50.3,-28.77 49.47,-28.53 48.63,-28.27"/>
<polygon fill="#63b8ff" stroke="#63b8ff" points="49.92,-25.01 39.33,-24.7 47.42,-31.55 49.92,-25.01"/>
</a>
</g>
</g>
<!-- Node3 -->
<g id="Node000003" class="node">
<title>Node3</title>
<g id="a_Node000003"><a xlink:title=" ">
<polygon fill="#e0e0e0" stroke="#999999" points="139.62,-23.75 60.62,-23.75 60.62,-5.25 139.62,-5.25 139.62,-23.75"/>
<text text-anchor="middle" x="100.12" y="-10.25" font-family="Helvetica,sans-Serif" font-size="10.00">QAudioFormat</text>
</a>
</g>
</g>
<!-- Node1&#45;&gt;Node3 -->
<g id="edge2_Node000001_Node000003" class="edge">
<title>Node1&#45;&gt;Node3</title>
<g id="a_edge2_Node000001_Node000003"><a xlink:title=" ">
<path fill="none" stroke="#63b8ff" d="M527.03,-83.45C442.05,-74.99 282.18,-56.87 148.12,-29 145.34,-28.42 142.49,-27.77 139.62,-27.07"/>
<polygon fill="#63b8ff" stroke="#63b8ff" points="140.67,-23.73 130.11,-24.6 138.91,-30.5 140.67,-23.73"/>
</a>
</g>
</g>
<!-- Node4 -->
<g id="Node000004" class="node">
<title>Node4</title>
<g id="a_Node000004"><a xlink:title=" ">
<polygon fill="#e0e0e0" stroke="#999999" points="240.88,-23.75 157.38,-23.75 157.38,-5.25 240.88,-5.25 240.88,-23.75"/>
<text text-anchor="middle" x="199.12" y="-10.25" font-family="Helvetica,sans-Serif" font-size="10.00">QElapsedTimer</text>
</a>
</g>
</g>
<!-- Node1&#45;&gt;Node4 -->
<g id="edge3_Node000001_Node000004" class="edge">
<title>Node1&#45;&gt;Node4</title>
<g id="a_edge3_Node000001_Node000004"><a xlink:title=" ">
<path fill="none" stroke="#63b8ff" d="M527.17,-79.86C459.55,-69.19 346.45,-50.29 250.12,-29 247.21,-28.36 244.2,-27.66 241.19,-26.93"/>
<polygon fill="#63b8ff" stroke="#63b8ff" points="242.33,-23.6 231.78,-24.56 240.63,-30.39 242.33,-23.6"/>
</a>
</g>
</g>
<!-- Node5 -->
<g id="Node000005" class="node">
<title>Node5</title>
<g id="a_Node000005"><a xlink:title=" ">
<polygon fill="#e0e0e0" stroke="#999999" points="325.25,-23.75 259,-23.75 259,-5.25 325.25,-5.25 325.25,-23.75"/>
<text text-anchor="middle" x="292.12" y="-10.25" font-family="Helvetica,sans-Serif" font-size="10.00">QMatrix4x4</text>
</a>
</g>
</g>
<!-- Node1&#45;&gt;Node5 -->
<g id="edge4_Node000001_Node000005" class="edge">
<title>Node1&#45;&gt;Node5</title>
<g id="a_edge4_Node000001_Node000005"><a xlink:title=" ">
<path fill="none" stroke="#63b8ff" d="M527,-75.94C475.75,-64.5 400.27,-46.96 335.12,-29 333.39,-28.52 331.62,-28.02 329.84,-27.51"/>
<polygon fill="#63b8ff" stroke="#63b8ff" points="330.91,-24.17 320.33,-24.65 328.9,-30.88 330.91,-24.17"/>
</a>
</g>
</g>
<!-- Node6 -->
<g id="Node000006" class="node">
<title>Node6</title>
<g id="a_Node000006"><a xlink:title=" ">
<polygon fill="#e0e0e0" stroke="#999999" points="420.5,-23.75 343.75,-23.75 343.75,-5.25 420.5,-5.25 420.5,-23.75"/>
<text text-anchor="middle" x="382.12" y="-10.25" font-family="Helvetica,sans-Serif" font-size="10.00">QMediaPlayer</text>
</a>
</g>
</g>
<!-- Node1&#45;&gt;Node6 -->
<g id="edge5_Node000001_Node000006" class="edge">
<title>Node1&#45;&gt;Node6</title>
<g id="a_edge5_Node000001_Node000006"><a xlink:title=" ">
<path fill="none" stroke="#63b8ff" d="M527,-67.44C491.28,-54.64 447.22,-38.84 417.13,-28.05"/>
<polygon fill="#63b8ff" stroke="#63b8ff" points="418.35,-24.77 407.76,-24.69 415.99,-31.36 418.35,-24.77"/>
</a>
</g>
</g>
<!-- Node7 -->
<g id="Node000007" class="node">
<title>Node7</title>
<g id="a_Node000007"><a xlink:title=" ">
<polygon fill="#e0e0e0" stroke="#999999" points="523.62,-23.75 438.62,-23.75 438.62,-5.25 523.62,-5.25 523.62,-23.75"/>
<text text-anchor="middle" x="481.12" y="-10.25" font-family="Helvetica,sans-Serif" font-size="10.00">QOpenGLBuffer</text>
</a>
</g>
</g>
<!-- Node1&#45;&gt;Node7 -->
<g id="edge6_Node000001_Node000007" class="edge">
<title>Node1&#45;&gt;Node7</title>
<g id="a_edge6_Node000001_Node000007"><a xlink:title=" ">
<path fill="none" stroke="#63b8ff" d="M551.83,-64.53C535.64,-53.3 516.97,-40.35 502.88,-30.58"/>
<polygon fill="#63b8ff" stroke="#63b8ff" points="504.98,-27.78 494.77,-24.96 500.99,-33.54 504.98,-27.78"/>
</a>
</g>
</g>
<!-- Node8 -->
<g id="Node000008" class="node">
<title>Node8</title>
<g id="a_Node000008"><a xlink:title=" ">
<polygon fill="#e0e0e0" stroke="#999999" points="632.25,-23.75 542,-23.75 542,-5.25 632.25,-5.25 632.25,-23.75"/>
<text text-anchor="middle" x="587.12" y="-10.25" font-family="Helvetica,sans-Serif" font-size="10.00">QOpenGLWidget</text>
</a>
</g>
</g>
<!-- Node1&#45;&gt;Node8 -->
<g id="edge7_Node000001_Node000008" class="edge">
<title>Node1&#45;&gt;Node8</title>
<g id="a_edge7_Node000001_Node000008"><a xlink:title=" ">
<path fill="none" stroke="#63b8ff" d="M587.12,-64.53C587.12,-54.99 587.12,-44.21 587.12,-35.19"/>
<polygon fill="#63b8ff" stroke="#63b8ff" points="590.63,-35.44 587.13,-25.44 583.63,-35.44 590.63,-35.44"/>
</a>
</g>
</g>
<!-- Node9 -->
<g id="Node000009" class="node">
<title>Node9</title>
<g id="a_Node000009"><a xlink:title=" ">
<polygon fill="#e0e0e0" stroke="#999999" points="714.12,-23.75 650.12,-23.75 650.12,-5.25 714.12,-5.25 714.12,-23.75"/>
<text text-anchor="middle" x="682.12" y="-10.25" font-family="Helvetica,sans-Serif" font-size="10.00">QVector3D</text>
</a>
</g>
</g>
<!-- Node1&#45;&gt;Node9 -->
<g id="edge8_Node000001_Node000009" class="edge">
<title>Node1&#45;&gt;Node9</title>
<g id="a_edge8_Node000001_Node000009"><a xlink:title=" ">
<path fill="none" stroke="#63b8ff" d="M618.76,-64.53C633.21,-53.34 649.88,-40.45 662.49,-30.69"/>
<polygon fill="#63b8ff" stroke="#63b8ff" points="664.27,-33.74 670.04,-24.85 659.99,-28.2 664.27,-33.74"/>
</a>
</g>
</g>
<!-- Node10 -->
<g id="Node000010" class="node">
<title>Node10</title>
<g id="a_Node000010"><a xlink:title=" ">
<polygon fill="#e0e0e0" stroke="#999999" points="844.5,-29 731.75,-29 731.75,0 844.5,0 844.5,-29"/>
<text text-anchor="start" x="739.75" y="-15.5" font-family="Helvetica,sans-Serif" font-size="10.00">QOpenGLFunctions_3</text>
<text text-anchor="middle" x="788.12" y="-5" font-family="Helvetica,sans-Serif" font-size="10.00">_3_Core</text>
</a>
</g>
</g>
<!-- Node1&#45;&gt;Node10 -->
<g id="edge9_Node000001_Node000010" class="edge">
<title>Node1&#45;&gt;Node10</title>
<g id="a_edge9_Node000001_Node000010"><a xlink:title=" ">
<path fill="none" stroke="#63b8ff" d="M647.16,-67.05C676.57,-56.29 711.53,-43.51 739.28,-33.36"/>
<polygon fill="#63b8ff" stroke="#63b8ff" points="740.31,-36.71 748.5,-29.99 737.9,-30.14 740.31,-36.71"/>
</a>
</g>
</g>
<!-- Node11 -->
<g id="Node000011" class="node">
<title>Node11</title>
<g id="a_Node000011"><a xlink:title=" ">
<polygon fill="#e0e0e0" stroke="#999999" points="1001.62,-23.75 862.62,-23.75 862.62,-5.25 1001.62,-5.25 1001.62,-23.75"/>
<text text-anchor="middle" x="932.12" y="-10.25" font-family="Helvetica,sans-Serif" font-size="10.00">QOpenGLVertexArrayObject</text>
</a>
</g>
</g>
<!-- Node1&#45;&gt;Node11 -->
<g id="edge10_Node000001_Node000011" class="edge">
<title>Node1&#45;&gt;Node11</title>
<g id="a_edge10_Node000001_Node000011"><a xlink:title=" ">
<path fill="none" stroke="#63b8ff" d="M647.22,-76.2C713.01,-62.18 817.44,-39.93 879.93,-26.62"/>
<polygon fill="#63b8ff" stroke="#63b8ff" points="880.56,-30.07 889.61,-24.56 879.1,-23.22 880.56,-30.07"/>
</a>
</g>
</g>
<!-- Node12 -->
<g id="Node000012" class="node">
<title>Node12</title>
<g id="a_Node000012"><a xlink:title=" ">
<polygon fill="#e0e0e0" stroke="#999999" points="1068.25,-23.75 1020,-23.75 1020,-5.25 1068.25,-5.25 1068.25,-23.75"/>
<text text-anchor="middle" x="1044.12" y="-10.25" font-family="Helvetica,sans-Serif" font-size="10.00">QTimer</text>
</a>
</g>
</g>
<!-- Node1&#45;&gt;Node12 -->
<g id="edge11_Node000001_Node000012" class="edge">
<title>Node1&#45;&gt;Node12</title>
<g id="a_edge11_Node000001_Node000012"><a xlink:title=" ">
<path fill="none" stroke="#63b8ff" d="M647.05,-85.21C730.04,-78.91 884.11,-63.39 1011.12,-29 1012.29,-28.68 1013.47,-28.34 1014.65,-27.97"/>
<polygon fill="#63b8ff" stroke="#63b8ff" points="1015.56,-31.36 1023.78,-24.69 1013.19,-24.78 1015.56,-31.36"/>
</a>
</g>
</g>
<!-- Node13 -->
<g id="Node000013" class="node">
<title>Node13</title>
<g id="a_Node000013"><a xlink:title=" ">
<polygon fill="#e0e0e0" stroke="#999999" points="1232,-23.75 1086.25,-23.75 1086.25,-5.25 1232,-5.25 1232,-23.75"/>
<text text-anchor="middle" x="1159.12" y="-10.25" font-family="Helvetica,sans-Serif" font-size="10.00">QtMultimedia/QAudioDecoder</text>
</a>
</g>
</g>
<!-- Node1&#45;&gt;Node13 -->
<g id="edge12_Node000001_Node000013" class="edge">
<title>Node1&#45;&gt;Node13</title>
<g id="a_edge12_Node000001_Node000013"><a xlink:title=" ">
<path fill="none" stroke="#63b8ff" d="M647.2,-82.45C739.7,-72.19 922.51,-51.18 1077.12,-29 1083.62,-28.07 1090.4,-27.04 1097.15,-25.98"/>
<polygon fill="#63b8ff" stroke="#63b8ff" points="1097.62,-29.45 1106.94,-24.42 1096.51,-22.54 1097.62,-29.45"/>
</a>
</g>
</g>
<!-- Node14 -->
<g id="Node000014" class="node">
<title>Node14</title>
<g id="a_Node000014"><a xlink:title=" ">
<polygon fill="#e0e0e0" stroke="#999999" points="1384.38,-23.75 1249.88,-23.75 1249.88,-5.25 1384.38,-5.25 1384.38,-23.75"/>
<text text-anchor="middle" x="1317.12" y="-10.25" font-family="Helvetica,sans-Serif" font-size="10.00">QtMultimedia/QAudioBuffer</text>
</a>
</g>
</g>
<!-- Node1&#45;&gt;Node14 -->
<g id="edge13_Node000001_Node000014" class="edge">
<title>Node1&#45;&gt;Node14</title>
<g id="a_edge13_Node000001_Node000014"><a xlink:title=" ">
<path fill="none" stroke="#63b8ff" d="M647.28,-85.18C762.74,-77.48 1023.31,-58.28 1241.12,-29 1247.51,-28.14 1254.17,-27.13 1260.78,-26.05"/>
<polygon fill="#63b8ff" stroke="#63b8ff" points="1261.04,-29.56 1270.32,-24.45 1259.88,-22.66 1261.04,-29.56"/>
</a>
</g>
</g>
</g>
</svg>

<g id="navigator" transform="translate(0 0)" fill="#404254">
  <rect fill="#f2f5e9" fill-opacity="0.5" stroke="#606060" stroke-width=".5" x="0" y="0" width="60" height="60"/>
  <use id="zoomplus" xlink:href="#zoomPlus" x="17" y="9" onmousedown="handleZoom(evt,'in')"/>
  <use id="zoomminus" xlink:href="#zoomMin" x="42" y="9" onmousedown="handleZoom(evt,'out')"/>
  <use id="reset" xlink:href="#resetDef" x="30" y="36" onmousedown="handleReset()"/>
   <use id="arrowup" xlink:href="#arrowUp" x="0" y="0" onmousedown="handlePan(0,-1)"/>
  <use id="arrowright" xlink:href="#arrowRight" x="0" y="0" onmousedown="handlePan(1,0)"/>
  <use id="arrowdown" xlink:href="#arrowDown" x="0" y="0" onmousedown="handlePan(0,1)"/>
  <use id="arrowleft" xlink:href="#arrowLeft" x="0" y="0" onmousedown="handlePan(-1,0)"/>
</g>
<svg viewBox="0 0 15 15" width="100%" height="30px" preserveAspectRatio="xMaxYMin meet">
 <g id="arrow_out" transform="scale(0.3 0.3)">
  <a xlink:href="floating__energy__sphere__widget_8h__incl_org.svg" target="_base">
   <rect id="button" ry="5" rx="5" y="6" x="6" height="38" width="38"
        fill="#f2f5e9" fill-opacity="0.5" stroke="#606060" stroke-width="1.0"/>
   <path id="arrow"
     d="M 11.500037,31.436501 C 11.940474,20.09759 22.043105,11.32322 32.158766,21.979434 L 37.068811,17.246167 C 37.068811,17.246167 37.088388,32 37.088388,32 L 22.160133,31.978069 C 22.160133,31.978069 26.997745,27.140456 26.997745,27.140456 C 18.528582,18.264221 13.291696,25.230495 11.500037,31.436501 z"
     style="fill:#404040;"/>
  </a>
 </g>
</svg>

<style type='text/css'>
<![CDATA[
[data-mouse-over-selected='false'] { opacity: 0.7; }
[data-mouse-over-selected='true']  { opacity: 1.0; }
]]>
</style>
<script type="application/ecmascript"><![CDATA[
document.addEventListener('DOMContentLoaded', (event) => {
  highlightEdges();
  highlightAdjacentNodes();
});
]]></script>
</svg>
