<?xml version="1.0" encoding="UTF-8" standalone="no"?>
<!DOCTYPE svg PUBLIC "-//W3C//DTD SVG 1.1//EN"
 "http://www.w3.org/Graphics/SVG/1.1/DTD/svg11.dtd">
<!-- Generated by graphviz version 12.2.1 (0)
 -->
<!-- Title: src/chat/files/gif/decoder/gif_decoder.cpp Pages: 1 -->
<svg width="730pt" height="146pt"
 viewBox="0.00 0.00 730.25 146.00" xmlns="http://www.w3.org/2000/svg" xmlns:xlink="http://www.w3.org/1999/xlink">
<g id="graph0" class="graph" transform="scale(1 1) rotate(0) translate(4 142)">
<title>src/chat/files/gif/decoder/gif_decoder.cpp</title>
<!-- Node1 -->
<g id="Node000001" class="node">
<title>Node1</title>
<g id="a_Node000001"><a xlink:title=" ">
<polygon fill="#999999" stroke="#666666" points="441,-138 315.5,-138 315.5,-109 441,-109 441,-138"/>
<text text-anchor="start" x="323.5" y="-124.5" font-family="Helvetica,sans-Serif" font-size="10.00">src/chat/files/gif</text>
<text text-anchor="middle" x="378.25" y="-114" font-family="Helvetica,sans-Serif" font-size="10.00">/decoder/gif_decoder.cpp</text>
</a>
</g>
</g>
<!-- Node2 -->
<g id="Node000002" class="node">
<title>Node2</title>
<g id="a_Node000002"><a xlink:href="gif__decoder_8h.html" target="_top" xlink:title=" ">
<polygon fill="white" stroke="#666666" points="334.5,-73 260,-73 260,-54.5 334.5,-54.5 334.5,-73"/>
<text text-anchor="middle" x="297.25" y="-59.5" font-family="Helvetica,sans-Serif" font-size="10.00">gif_decoder.h</text>
</a>
</g>
</g>
<!-- Node1&#45;&gt;Node2 -->
<g id="edge1_Node000001_Node000002" class="edge">
<title>Node1&#45;&gt;Node2</title>
<g id="a_edge1_Node000001_Node000002"><a xlink:title=" ">
<path fill="none" stroke="#63b8ff" d="M358.64,-108.52C346.52,-99.88 330.97,-88.79 318.55,-79.94"/>
<polygon fill="#63b8ff" stroke="#63b8ff" points="320.79,-77.24 310.62,-74.28 316.73,-82.94 320.79,-77.24"/>
</a>
</g>
</g>
<!-- Node10 -->
<g id="Node000010" class="node">
<title>Node10</title>
<g id="a_Node000010"><a xlink:title=" ">
<polygon fill="#e0e0e0" stroke="#999999" points="404.25,-73 352.25,-73 352.25,-54.5 404.25,-54.5 404.25,-73"/>
<text text-anchor="middle" x="378.25" y="-59.5" font-family="Helvetica,sans-Serif" font-size="10.00">QDebug</text>
</a>
</g>
</g>
<!-- Node1&#45;&gt;Node10 -->
<g id="edge9_Node000001_Node000010" class="edge">
<title>Node1&#45;&gt;Node10</title>
<g id="a_edge9_Node000001_Node000010"><a xlink:title=" ">
<path fill="none" stroke="#63b8ff" d="M378.25,-108.52C378.25,-101.42 378.25,-92.67 378.25,-84.86"/>
<polygon fill="#63b8ff" stroke="#63b8ff" points="381.75,-84.92 378.25,-74.92 374.75,-84.92 381.75,-84.92"/>
</a>
</g>
</g>
<!-- Node11 -->
<g id="Node000011" class="node">
<title>Node11</title>
<g id="a_Node000011"><a xlink:title=" ">
<polygon fill="#e0e0e0" stroke="#999999" points="472.5,-73 422,-73 422,-54.5 472.5,-54.5 472.5,-73"/>
<text text-anchor="middle" x="447.25" y="-59.5" font-family="Helvetica,sans-Serif" font-size="10.00">QImage</text>
</a>
</g>
</g>
<!-- Node1&#45;&gt;Node11 -->
<g id="edge10_Node000001_Node000011" class="edge">
<title>Node1&#45;&gt;Node11</title>
<g id="a_edge10_Node000001_Node000011"><a xlink:title=" ">
<path fill="none" stroke="#63b8ff" d="M394.95,-108.52C404.97,-100.14 417.74,-89.45 428.16,-80.73"/>
<polygon fill="#63b8ff" stroke="#63b8ff" points="430.33,-83.48 435.75,-74.37 425.84,-78.11 430.33,-83.48"/>
</a>
</g>
</g>
<!-- Node3 -->
<g id="Node000003" class="node">
<title>Node3</title>
<g id="a_Node000003"><a xlink:title=" ">
<polygon fill="#e0e0e0" stroke="#999999" points="50.5,-18.5 0,-18.5 0,0 50.5,0 50.5,-18.5"/>
<text text-anchor="middle" x="25.25" y="-5" font-family="Helvetica,sans-Serif" font-size="10.00">QMutex</text>
</a>
</g>
</g>
<!-- Node2&#45;&gt;Node3 -->
<g id="edge2_Node000002_Node000003" class="edge">
<title>Node2&#45;&gt;Node3</title>
<g id="a_edge2_Node000002_Node000003"><a xlink:title=" ">
<path fill="none" stroke="#63b8ff" d="M259.61,-56.4C214.8,-48.7 137.42,-34.96 61.95,-18.99"/>
<polygon fill="#63b8ff" stroke="#63b8ff" points="62.83,-15.6 52.32,-16.93 61.37,-22.44 62.83,-15.6"/>
</a>
</g>
</g>
<!-- Node4 -->
<g id="Node000004" class="node">
<title>Node4</title>
<g id="a_Node000004"><a xlink:title=" ">
<polygon fill="#e0e0e0" stroke="#999999" points="122,-18.5 68.5,-18.5 68.5,0 122,0 122,-18.5"/>
<text text-anchor="middle" x="95.25" y="-5" font-family="Helvetica,sans-Serif" font-size="10.00">QThread</text>
</a>
</g>
</g>
<!-- Node2&#45;&gt;Node4 -->
<g id="edge3_Node000002_Node000004" class="edge">
<title>Node2&#45;&gt;Node4</title>
<g id="a_edge3_Node000002_Node000004"><a xlink:title=" ">
<path fill="none" stroke="#63b8ff" d="M263.89,-54.08C228.05,-44.76 171.16,-29.98 133.52,-20.2"/>
<polygon fill="#63b8ff" stroke="#63b8ff" points="134.52,-16.84 123.96,-17.71 132.76,-23.61 134.52,-16.84"/>
</a>
</g>
</g>
<!-- Node5 -->
<g id="Node000005" class="node">
<title>Node5</title>
<g id="a_Node000005"><a xlink:title=" ">
<polygon fill="#e0e0e0" stroke="#999999" points="224.38,-18.5 140.12,-18.5 140.12,0 224.38,0 224.38,-18.5"/>
<text text-anchor="middle" x="182.25" y="-5" font-family="Helvetica,sans-Serif" font-size="10.00">QWaitCondition</text>
</a>
</g>
</g>
<!-- Node2&#45;&gt;Node5 -->
<g id="edge4_Node000002_Node000005" class="edge">
<title>Node2&#45;&gt;Node5</title>
<g id="a_edge4_Node000002_Node000005"><a xlink:title=" ">
<path fill="none" stroke="#63b8ff" d="M278.26,-54.08C260.12,-45.8 232.5,-33.19 211.54,-23.62"/>
<polygon fill="#63b8ff" stroke="#63b8ff" points="213.2,-20.53 202.64,-19.56 210.29,-26.9 213.2,-20.53"/>
</a>
</g>
</g>
<!-- Node6 -->
<g id="Node000006" class="node">
<title>Node6</title>
<g id="a_Node000006"><a xlink:title=" ">
<polygon fill="#e0e0e0" stroke="#999999" points="351.75,-18.5 242.75,-18.5 242.75,0 351.75,0 351.75,-18.5"/>
<text text-anchor="middle" x="297.25" y="-5" font-family="Helvetica,sans-Serif" font-size="10.00">libavcodec/avcodec.h</text>
</a>
</g>
</g>
<!-- Node2&#45;&gt;Node6 -->
<g id="edge5_Node000002_Node000006" class="edge">
<title>Node2&#45;&gt;Node6</title>
<g id="a_edge5_Node000002_Node000006"><a xlink:title=" ">
<path fill="none" stroke="#63b8ff" d="M297.25,-54.08C297.25,-47.58 297.25,-38.42 297.25,-30.16"/>
<polygon fill="#63b8ff" stroke="#63b8ff" points="300.75,-30.27 297.25,-20.27 293.75,-30.27 300.75,-30.27"/>
</a>
</g>
</g>
<!-- Node7 -->
<g id="Node000007" class="node">
<title>Node7</title>
<g id="a_Node000007"><a xlink:title=" ">
<polygon fill="#e0e0e0" stroke="#999999" points="482.62,-18.5 369.88,-18.5 369.88,0 482.62,0 482.62,-18.5"/>
<text text-anchor="middle" x="426.25" y="-5" font-family="Helvetica,sans-Serif" font-size="10.00">libavformat/avformat.h</text>
</a>
</g>
</g>
<!-- Node2&#45;&gt;Node7 -->
<g id="edge6_Node000002_Node000007" class="edge">
<title>Node2&#45;&gt;Node7</title>
<g id="a_edge6_Node000002_Node000007"><a xlink:title=" ">
<path fill="none" stroke="#63b8ff" d="M318.55,-54.08C339.19,-45.68 370.74,-32.84 394.36,-23.23"/>
<polygon fill="#63b8ff" stroke="#63b8ff" points="395.57,-26.51 403.51,-19.5 392.93,-20.03 395.57,-26.51"/>
</a>
</g>
</g>
<!-- Node8 -->
<g id="Node000008" class="node">
<title>Node8</title>
<g id="a_Node000008"><a xlink:title=" ">
<polygon fill="#e0e0e0" stroke="#999999" points="609.75,-18.5 500.75,-18.5 500.75,0 609.75,0 609.75,-18.5"/>
<text text-anchor="middle" x="555.25" y="-5" font-family="Helvetica,sans-Serif" font-size="10.00">libswscale/swscale.h</text>
</a>
</g>
</g>
<!-- Node2&#45;&gt;Node8 -->
<g id="edge7_Node000002_Node000008" class="edge">
<title>Node2&#45;&gt;Node8</title>
<g id="a_edge7_Node000002_Node000008"><a xlink:title=" ">
<path fill="none" stroke="#63b8ff" d="M334.77,-55.12C378.59,-46.2 451.44,-31.37 501.32,-21.22"/>
<polygon fill="#63b8ff" stroke="#63b8ff" points="501.95,-24.67 511.05,-19.24 500.55,-17.81 501.95,-24.67"/>
</a>
</g>
</g>
<!-- Node9 -->
<g id="Node000009" class="node">
<title>Node9</title>
<g id="a_Node000009"><a xlink:title=" ">
<polygon fill="#e0e0e0" stroke="#999999" points="722.25,-18.5 628.25,-18.5 628.25,0 722.25,0 722.25,-18.5"/>
<text text-anchor="middle" x="675.25" y="-5" font-family="Helvetica,sans-Serif" font-size="10.00">libavutil/imgutils.h</text>
</a>
</g>
</g>
<!-- Node2&#45;&gt;Node9 -->
<g id="edge8_Node000002_Node000009" class="edge">
<title>Node2&#45;&gt;Node9</title>
<g id="a_edge8_Node000002_Node000009"><a xlink:title=" ">
<path fill="none" stroke="#63b8ff" d="M334.88,-55.85C337.71,-55.38 340.52,-54.92 343.25,-54.5 461.92,-36.13 494.81,-35.54 616.62,-18.84"/>
<polygon fill="#63b8ff" stroke="#63b8ff" points="616.97,-22.32 626.4,-17.49 616.02,-15.39 616.97,-22.32"/>
</a>
</g>
</g>
</g>
</svg>
