<?xml version="1.0" encoding="UTF-8" standalone="no"?>
<!DOCTYPE svg PUBLIC "-//W3C//DTD SVG 1.1//EN"
 "http://www.w3.org/Graphics/SVG/1.1/DTD/svg11.dtd">
<!-- Generated by graphviz version 12.2.1 (0)
 -->
<!-- Title: src/chat/files/gif/player/gif_player.cpp Pages: 1 -->
<!--zoomable 157 -->

<svg id="main" version="1.1" xmlns="http://www.w3.org/2000/svg" xmlns:xlink="http://www.w3.org/1999/xlink" xml:space="preserve" onload="init(evt)">

<style type="text/css"><![CDATA[
.node, .edge {opacity: 0.7;}
.node.selected, .edge.selected {opacity: 1;}
.edge:hover path { stroke: red; }
.edge:hover polygon { stroke: red; fill: red; }
]]></style>

<defs>
  <circle id="rim" cx="0" cy="0" r="7"/>
  <circle id="rim2" cx="0" cy="0" r="3.5"/>
  <g id="zoomPlus">
    <use xlink:href="#rim" fill="#404040"><set attributeName="fill" to="#808080" begin="zoomplus.mouseover" end="zoomplus.mouseout"/></use>
    <path d="M-4,0h8M0,-4v8" fill="none" stroke="white" stroke-width="1.5" pointer-events="none"/>
  </g>
  <g id="zoomMin">
    <use xlink:href="#rim" fill="#404040"><set attributeName="fill" to="#808080" begin="zoomminus.mouseover" end="zoomminus.mouseout"/></use>
    <path d="M-4,0h8" fill="none" stroke="white" stroke-width="1.5" pointer-events="none"/>
  </g>
  <g id="arrowUp" transform="translate(30 24)">
    <use xlink:href="#rim"/>
    <path pointer-events="none" fill="none" stroke="white" stroke-width="1.5" d="M0,-3.0v7 M-2.5,-0.5L0,-3.0L2.5,-0.5"/>
  </g>
  <g id="arrowRight" transform="rotate(90) translate(36 -43)">
    <use xlink:href="#rim"/>
    <path pointer-events="none" fill="none" stroke="white" stroke-width="1.5" d="M0,-3.0v7 M-2.5,-0.5L0,-3.0L2.5,-0.5"/>
  </g>
  <g id="arrowDown" transform="rotate(180) translate(-30 -48)">
    <use xlink:href="#rim"/>
    <path pointer-events="none" fill="none" stroke="white" stroke-width="1.5" d="M0,-3.0v7 M-2.5,-0.5L0,-3.0L2.5,-0.5"/>
  </g>
  <g id="arrowLeft" transform="rotate(270) translate(-36 17)">
    <use xlink:href="#rim"/>
    <path pointer-events="none" fill="none" stroke="white" stroke-width="1.5" d="M0,-3.0v7 M-2.5,-0.5L0,-3.0L2.5,-0.5"/>
  </g>
  <g id="resetDef">
    <use xlink:href="#rim2" fill="#404040"><set attributeName="fill" to="#808080" begin="reset.mouseover" end="reset.mouseout"/></use>
  </g>
</defs>
<script type="application/ecmascript">
var viewWidth = 1196;
var viewHeight = 157;
var sectionId = 'dynsection-0';
</script>
<script type="application/ecmascript" xlink:href="svg.min.js"/>
<svg id="graph" class="graph">
<g id="viewport">
<title>src/chat/files/gif/player/gif_player.cpp</title>
<!-- Node1 -->
<g id="Node000001" class="node">
<title>Node1</title>
<g id="a_Node000001"><a xlink:title=" ">
<polygon fill="#999999" stroke="#666666" points="316.5,-148.5 209,-148.5 209,-119.5 316.5,-119.5 316.5,-148.5"/>
<text text-anchor="start" x="217" y="-135" font-family="Helvetica,sans-Serif" font-size="10.00">src/chat/files/gif</text>
<text text-anchor="middle" x="262.75" y="-124.5" font-family="Helvetica,sans-Serif" font-size="10.00">/player/gif_player.cpp</text>
</a>
</g>
</g>
<!-- Node2 -->
<g id="Node000002" class="node">
<title>Node2</title>
<g id="a_Node000002"><a xlink:href="gif__player_8h.html" target="_top" xlink:title=" ">
<polygon fill="white" stroke="#666666" points="65.5,-78.25 0,-78.25 0,-59.75 65.5,-59.75 65.5,-78.25"/>
<text text-anchor="middle" x="32.75" y="-64.75" font-family="Helvetica,sans-Serif" font-size="10.00">gif_player.h</text>
</a>
</g>
</g>
<!-- Node1&#45;&gt;Node2 -->
<g id="edge1_Node000001_Node000002" class="edge">
<title>Node1&#45;&gt;Node2</title>
<g id="a_edge1_Node000001_Node000002"><a xlink:title=" ">
<path fill="none" stroke="#63b8ff" d="M208.65,-119.57C170.97,-110.02 119.62,-96.61 74.75,-83.5 73.14,-83.03 71.5,-82.54 69.85,-82.04"/>
<polygon fill="#63b8ff" stroke="#63b8ff" points="70.93,-78.71 60.34,-79.09 68.85,-85.4 70.93,-78.71"/>
</a>
</g>
</g>
<!-- Node4 -->
<g id="Node000004" class="node">
<title>Node4</title>
<g id="a_Node000004"><a xlink:title=" ">
<polygon fill="#e0e0e0" stroke="#999999" points="155.5,-78.25 84,-78.25 84,-59.75 155.5,-59.75 155.5,-78.25"/>
<text text-anchor="middle" x="119.75" y="-64.75" font-family="Helvetica,sans-Serif" font-size="10.00">QApplication</text>
</a>
</g>
</g>
<!-- Node1&#45;&gt;Node4 -->
<g id="edge3_Node000001_Node000004" class="edge">
<title>Node1&#45;&gt;Node4</title>
<g id="a_edge3_Node000001_Node000004"><a xlink:title=" ">
<path fill="none" stroke="#63b8ff" d="M231.01,-119.02C206.86,-108.38 173.84,-93.83 150.05,-83.35"/>
<polygon fill="#63b8ff" stroke="#63b8ff" points="151.46,-80.15 140.9,-79.32 148.64,-86.55 151.46,-80.15"/>
</a>
</g>
</g>
<!-- Node5 -->
<g id="Node000005" class="node">
<title>Node5</title>
<g id="a_Node000005"><a xlink:title=" ">
<polygon fill="#e0e0e0" stroke="#999999" points="220.12,-78.25 173.38,-78.25 173.38,-59.75 220.12,-59.75 220.12,-78.25"/>
<text text-anchor="middle" x="196.75" y="-64.75" font-family="Helvetica,sans-Serif" font-size="10.00">QLabel</text>
</a>
</g>
</g>
<!-- Node1&#45;&gt;Node5 -->
<g id="edge4_Node000001_Node000005" class="edge">
<title>Node1&#45;&gt;Node5</title>
<g id="a_edge4_Node000001_Node000005"><a xlink:title=" ">
<path fill="none" stroke="#63b8ff" d="M248.1,-119.02C238.01,-109.39 224.57,-96.56 213.97,-86.44"/>
<polygon fill="#63b8ff" stroke="#63b8ff" points="216.62,-84.12 206.97,-79.75 211.78,-89.19 216.62,-84.12"/>
</a>
</g>
</g>
<!-- Node6 -->
<g id="Node000006" class="node">
<title>Node6</title>
<g id="a_Node000006"><a xlink:title=" ">
<polygon fill="#e0e0e0" stroke="#999999" points="286.88,-78.25 238.62,-78.25 238.62,-59.75 286.88,-59.75 286.88,-78.25"/>
<text text-anchor="middle" x="262.75" y="-64.75" font-family="Helvetica,sans-Serif" font-size="10.00">QTimer</text>
</a>
</g>
</g>
<!-- Node1&#45;&gt;Node6 -->
<g id="edge5_Node000001_Node000006" class="edge">
<title>Node1&#45;&gt;Node6</title>
<g id="a_edge5_Node000001_Node000006"><a xlink:title=" ">
<path fill="none" stroke="#63b8ff" d="M262.75,-119.02C262.75,-110.54 262.75,-99.59 262.75,-90.19"/>
<polygon fill="#63b8ff" stroke="#63b8ff" points="266.25,-90.22 262.75,-80.22 259.25,-90.22 266.25,-90.22"/>
</a>
</g>
</g>
<!-- Node7 -->
<g id="Node000007" class="node">
<title>Node7</title>
<g id="a_Node000007"><a xlink:title=" ">
<polygon fill="#e0e0e0" stroke="#999999" points="380.75,-78.25 304.75,-78.25 304.75,-59.75 380.75,-59.75 380.75,-78.25"/>
<text text-anchor="middle" x="342.75" y="-64.75" font-family="Helvetica,sans-Serif" font-size="10.00">QVBoxLayout</text>
</a>
</g>
</g>
<!-- Node1&#45;&gt;Node7 -->
<g id="edge6_Node000001_Node000007" class="edge">
<title>Node1&#45;&gt;Node7</title>
<g id="a_edge6_Node000001_Node000007"><a xlink:title=" ">
<path fill="none" stroke="#63b8ff" d="M280.5,-119.02C293.1,-109.1 310.01,-95.79 323.02,-85.54"/>
<polygon fill="#63b8ff" stroke="#63b8ff" points="324.81,-88.58 330.51,-79.64 320.48,-83.08 324.81,-88.58"/>
</a>
</g>
</g>
<!-- Node8 -->
<g id="Node000008" class="node">
<title>Node8</title>
<g id="a_Node000008"><a xlink:href="translation__manager_8h.html" target="_top" xlink:title=" ">
<polygon fill="white" stroke="#666666" points="514.25,-83.5 399.25,-83.5 399.25,-54.5 514.25,-54.5 514.25,-83.5"/>
<text text-anchor="start" x="407.25" y="-70" font-family="Helvetica,sans-Serif" font-size="10.00">../../../../app/managers</text>
<text text-anchor="middle" x="456.75" y="-59.5" font-family="Helvetica,sans-Serif" font-size="10.00">/translation_manager.h</text>
</a>
</g>
</g>
<!-- Node1&#45;&gt;Node8 -->
<g id="edge7_Node000001_Node000008" class="edge">
<title>Node1&#45;&gt;Node8</title>
<g id="a_edge7_Node000001_Node000008"><a xlink:title=" ">
<path fill="none" stroke="#63b8ff" d="M305.8,-119.02C334.44,-109.72 372.27,-97.44 402.89,-87.49"/>
<polygon fill="#63b8ff" stroke="#63b8ff" points="403.95,-90.83 412.38,-84.41 401.78,-84.17 403.95,-90.83"/>
</a>
</g>
</g>
<!-- Node12 -->
<g id="Node000012" class="node">
<title>Node12</title>
<g id="a_Node000012"><a xlink:href="gif__decoder_8h.html" target="_top" xlink:title=" ">
<polygon fill="white" stroke="#666666" points="766.25,-78.25 645.25,-78.25 645.25,-59.75 766.25,-59.75 766.25,-78.25"/>
<text text-anchor="middle" x="705.75" y="-64.75" font-family="Helvetica,sans-Serif" font-size="10.00">../decoder/gif_decoder.h</text>
</a>
</g>
</g>
<!-- Node1&#45;&gt;Node12 -->
<g id="edge11_Node000001_Node000012" class="edge">
<title>Node1&#45;&gt;Node12</title>
<g id="a_edge11_Node000001_Node000012"><a xlink:title=" ">
<path fill="none" stroke="#63b8ff" d="M316.63,-125.34C396.04,-114.04 544.69,-92.91 633.49,-80.28"/>
<polygon fill="#63b8ff" stroke="#63b8ff" points="633.91,-83.75 643.31,-78.88 632.92,-76.82 633.91,-83.75"/>
</a>
</g>
</g>
<!-- Node3 -->
<g id="Node000003" class="node">
<title>Node3</title>
<g id="a_Node000003"><a xlink:title=" ">
<polygon fill="#e0e0e0" stroke="#999999" points="58.38,-18.5 7.12,-18.5 7.12,0 58.38,0 58.38,-18.5"/>
<text text-anchor="middle" x="32.75" y="-5" font-family="Helvetica,sans-Serif" font-size="10.00">QFrame</text>
</a>
</g>
</g>
<!-- Node2&#45;&gt;Node3 -->
<g id="edge2_Node000002_Node000003" class="edge">
<title>Node2&#45;&gt;Node3</title>
<g id="a_edge2_Node000002_Node000003"><a xlink:title=" ">
<path fill="none" stroke="#63b8ff" d="M32.75,-59.48C32.75,-51.8 32.75,-40.22 32.75,-30.22"/>
<polygon fill="#63b8ff" stroke="#63b8ff" points="36.25,-30.32 32.75,-20.32 29.25,-30.32 36.25,-30.32"/>
</a>
</g>
</g>
<!-- Node9 -->
<g id="Node000009" class="node">
<title>Node9</title>
<g id="a_Node000009"><a xlink:title=" ">
<polygon fill="#e0e0e0" stroke="#999999" points="377.25,-18.5 304.25,-18.5 304.25,0 377.25,0 377.25,-18.5"/>
<text text-anchor="middle" x="340.75" y="-5" font-family="Helvetica,sans-Serif" font-size="10.00">QJsonObject</text>
</a>
</g>
</g>
<!-- Node8&#45;&gt;Node9 -->
<g id="edge8_Node000008_Node000009" class="edge">
<title>Node8&#45;&gt;Node9</title>
<g id="a_edge8_Node000008_Node000009"><a xlink:title=" ">
<path fill="none" stroke="#63b8ff" d="M428.67,-54.02C410.37,-44.91 386.6,-33.08 368.39,-24.01"/>
<polygon fill="#63b8ff" stroke="#63b8ff" points="370,-20.9 359.49,-19.58 366.88,-27.17 370,-20.9"/>
</a>
</g>
</g>
<!-- Node10 -->
<g id="Node000010" class="node">
<title>Node10</title>
<g id="a_Node000010"><a xlink:title=" ">
<polygon fill="#e0e0e0" stroke="#999999" points="516,-18.5 465.5,-18.5 465.5,0 516,0 516,-18.5"/>
<text text-anchor="middle" x="490.75" y="-5" font-family="Helvetica,sans-Serif" font-size="10.00">QMutex</text>
</a>
</g>
</g>
<!-- Node8&#45;&gt;Node10 -->
<g id="edge9_Node000008_Node000010" class="edge">
<title>Node8&#45;&gt;Node10</title>
<g id="a_edge9_Node000008_Node000010"><a xlink:title=" ">
<path fill="none" stroke="#63b8ff" d="M464.98,-54.02C469.46,-46.41 475.06,-36.89 479.9,-28.68"/>
<polygon fill="#63b8ff" stroke="#63b8ff" points="482.83,-30.6 484.89,-20.21 476.8,-27.05 482.83,-30.6"/>
</a>
</g>
</g>
<!-- Node11 -->
<g id="Node000011" class="node">
<title>Node11</title>
<g id="a_Node000011"><a xlink:title=" ">
<polygon fill="#e0e0e0" stroke="#999999" points="447.75,-18.5 395.75,-18.5 395.75,0 447.75,0 447.75,-18.5"/>
<text text-anchor="middle" x="421.75" y="-5" font-family="Helvetica,sans-Serif" font-size="10.00">QObject</text>
</a>
</g>
</g>
<!-- Node8&#45;&gt;Node11 -->
<g id="edge10_Node000008_Node000011" class="edge">
<title>Node8&#45;&gt;Node11</title>
<g id="a_edge10_Node000008_Node000011"><a xlink:title=" ">
<path fill="none" stroke="#63b8ff" d="M448.28,-54.02C443.66,-46.41 437.9,-36.89 432.92,-28.68"/>
<polygon fill="#63b8ff" stroke="#63b8ff" points="435.96,-26.94 427.78,-20.2 429.97,-30.56 435.96,-26.94"/>
</a>
</g>
</g>
<!-- Node12&#45;&gt;Node10 -->
<g id="edge12_Node000012_Node000010" class="edge">
<title>Node12&#45;&gt;Node10</title>
<g id="a_edge12_Node000012_Node000010"><a xlink:title=" ">
<path fill="none" stroke="#63b8ff" d="M673.56,-59.35C634.37,-48.83 568.35,-31.09 527.28,-20.06"/>
<polygon fill="#63b8ff" stroke="#63b8ff" points="528.44,-16.75 517.87,-17.53 526.62,-23.51 528.44,-16.75"/>
</a>
</g>
</g>
<!-- Node13 -->
<g id="Node000013" class="node">
<title>Node13</title>
<g id="a_Node000013"><a xlink:title=" ">
<polygon fill="#e0e0e0" stroke="#999999" points="587.5,-18.5 534,-18.5 534,0 587.5,0 587.5,-18.5"/>
<text text-anchor="middle" x="560.75" y="-5" font-family="Helvetica,sans-Serif" font-size="10.00">QThread</text>
</a>
</g>
</g>
<!-- Node12&#45;&gt;Node13 -->
<g id="edge13_Node000012_Node000013" class="edge">
<title>Node12&#45;&gt;Node13</title>
<g id="a_edge13_Node000012_Node000013"><a xlink:title=" ">
<path fill="none" stroke="#63b8ff" d="M684.04,-59.35C659.91,-49.74 620.69,-34.12 592.97,-23.08"/>
<polygon fill="#63b8ff" stroke="#63b8ff" points="594.6,-19.96 584.01,-19.51 592.01,-26.47 594.6,-19.96"/>
</a>
</g>
</g>
<!-- Node14 -->
<g id="Node000014" class="node">
<title>Node14</title>
<g id="a_Node000014"><a xlink:title=" ">
<polygon fill="#e0e0e0" stroke="#999999" points="689.88,-18.5 605.62,-18.5 605.62,0 689.88,0 689.88,-18.5"/>
<text text-anchor="middle" x="647.75" y="-5" font-family="Helvetica,sans-Serif" font-size="10.00">QWaitCondition</text>
</a>
</g>
</g>
<!-- Node12&#45;&gt;Node14 -->
<g id="edge14_Node000012_Node000014" class="edge">
<title>Node12&#45;&gt;Node14</title>
<g id="a_edge14_Node000012_Node000014"><a xlink:title=" ">
<path fill="none" stroke="#63b8ff" d="M697.19,-59.48C688.54,-50.86 674.95,-37.33 664.2,-26.63"/>
<polygon fill="#63b8ff" stroke="#63b8ff" points="666.97,-24.45 657.42,-19.87 662.03,-29.41 666.97,-24.45"/>
</a>
</g>
</g>
<!-- Node15 -->
<g id="Node000015" class="node">
<title>Node15</title>
<g id="a_Node000015"><a xlink:title=" ">
<polygon fill="#e0e0e0" stroke="#999999" points="817.25,-18.5 708.25,-18.5 708.25,0 817.25,0 817.25,-18.5"/>
<text text-anchor="middle" x="762.75" y="-5" font-family="Helvetica,sans-Serif" font-size="10.00">libavcodec/avcodec.h</text>
</a>
</g>
</g>
<!-- Node12&#45;&gt;Node15 -->
<g id="edge15_Node000012_Node000015" class="edge">
<title>Node12&#45;&gt;Node15</title>
<g id="a_edge15_Node000012_Node000015"><a xlink:title=" ">
<path fill="none" stroke="#63b8ff" d="M714.16,-59.48C722.58,-50.95 735.76,-37.6 746.27,-26.95"/>
<polygon fill="#63b8ff" stroke="#63b8ff" points="748.71,-29.46 753.24,-19.88 743.73,-24.54 748.71,-29.46"/>
</a>
</g>
</g>
<!-- Node16 -->
<g id="Node000016" class="node">
<title>Node16</title>
<g id="a_Node000016"><a xlink:title=" ">
<polygon fill="#e0e0e0" stroke="#999999" points="948.12,-18.5 835.38,-18.5 835.38,0 948.12,0 948.12,-18.5"/>
<text text-anchor="middle" x="891.75" y="-5" font-family="Helvetica,sans-Serif" font-size="10.00">libavformat/avformat.h</text>
</a>
</g>
</g>
<!-- Node12&#45;&gt;Node16 -->
<g id="edge16_Node000012_Node000016" class="edge">
<title>Node12&#45;&gt;Node16</title>
<g id="a_edge16_Node000012_Node000016"><a xlink:title=" ">
<path fill="none" stroke="#63b8ff" d="M733.6,-59.35C765.24,-49.53 817.1,-33.43 852.75,-22.36"/>
<polygon fill="#63b8ff" stroke="#63b8ff" points="853.76,-25.71 862.27,-19.4 851.68,-19.03 853.76,-25.71"/>
</a>
</g>
</g>
<!-- Node17 -->
<g id="Node000017" class="node">
<title>Node17</title>
<g id="a_Node000017"><a xlink:title=" ">
<polygon fill="#e0e0e0" stroke="#999999" points="1075.25,-18.5 966.25,-18.5 966.25,0 1075.25,0 1075.25,-18.5"/>
<text text-anchor="middle" x="1020.75" y="-5" font-family="Helvetica,sans-Serif" font-size="10.00">libswscale/swscale.h</text>
</a>
</g>
</g>
<!-- Node12&#45;&gt;Node17 -->
<g id="edge17_Node000012_Node000017" class="edge">
<title>Node12&#45;&gt;Node17</title>
<g id="a_edge17_Node000012_Node000017"><a xlink:title=" ">
<path fill="none" stroke="#63b8ff" d="M753.25,-59.29C809.04,-49.06 901.6,-32.09 961.89,-21.04"/>
<polygon fill="#63b8ff" stroke="#63b8ff" points="962.43,-24.5 971.63,-19.25 961.17,-17.62 962.43,-24.5"/>
</a>
</g>
</g>
<!-- Node18 -->
<g id="Node000018" class="node">
<title>Node18</title>
<g id="a_Node000018"><a xlink:title=" ">
<polygon fill="#e0e0e0" stroke="#999999" points="1187.75,-18.5 1093.75,-18.5 1093.75,0 1187.75,0 1187.75,-18.5"/>
<text text-anchor="middle" x="1140.75" y="-5" font-family="Helvetica,sans-Serif" font-size="10.00">libavutil/imgutils.h</text>
</a>
</g>
</g>
<!-- Node12&#45;&gt;Node18 -->
<g id="edge18_Node000012_Node000018" class="edge">
<title>Node12&#45;&gt;Node18</title>
<g id="a_edge18_Node000012_Node000018"><a xlink:title=" ">
<path fill="none" stroke="#63b8ff" d="M766.51,-60.38C839.06,-51.2 964.38,-35.14 1082.04,-18.86"/>
<polygon fill="#63b8ff" stroke="#63b8ff" points="1082.48,-22.33 1091.9,-17.49 1081.52,-15.4 1082.48,-22.33"/>
</a>
</g>
</g>
</g>
</svg>

<g id="navigator" transform="translate(0 0)" fill="#404254">
  <rect fill="#f2f5e9" fill-opacity="0.5" stroke="#606060" stroke-width=".5" x="0" y="0" width="60" height="60"/>
  <use id="zoomplus" xlink:href="#zoomPlus" x="17" y="9" onmousedown="handleZoom(evt,'in')"/>
  <use id="zoomminus" xlink:href="#zoomMin" x="42" y="9" onmousedown="handleZoom(evt,'out')"/>
  <use id="reset" xlink:href="#resetDef" x="30" y="36" onmousedown="handleReset()"/>
   <use id="arrowup" xlink:href="#arrowUp" x="0" y="0" onmousedown="handlePan(0,-1)"/>
  <use id="arrowright" xlink:href="#arrowRight" x="0" y="0" onmousedown="handlePan(1,0)"/>
  <use id="arrowdown" xlink:href="#arrowDown" x="0" y="0" onmousedown="handlePan(0,1)"/>
  <use id="arrowleft" xlink:href="#arrowLeft" x="0" y="0" onmousedown="handlePan(-1,0)"/>
</g>
<svg viewBox="0 0 15 15" width="100%" height="30px" preserveAspectRatio="xMaxYMin meet">
 <g id="arrow_out" transform="scale(0.3 0.3)">
  <a xlink:href="gif__player_8cpp__incl_org.svg" target="_base">
   <rect id="button" ry="5" rx="5" y="6" x="6" height="38" width="38"
        fill="#f2f5e9" fill-opacity="0.5" stroke="#606060" stroke-width="1.0"/>
   <path id="arrow"
     d="M 11.500037,31.436501 C 11.940474,20.09759 22.043105,11.32322 32.158766,21.979434 L 37.068811,17.246167 C 37.068811,17.246167 37.088388,32 37.088388,32 L 22.160133,31.978069 C 22.160133,31.978069 26.997745,27.140456 26.997745,27.140456 C 18.528582,18.264221 13.291696,25.230495 11.500037,31.436501 z"
     style="fill:#404040;"/>
  </a>
 </g>
</svg>

<style type='text/css'>
<![CDATA[
[data-mouse-over-selected='false'] { opacity: 0.7; }
[data-mouse-over-selected='true']  { opacity: 1.0; }
]]>
</style>
<script type="application/ecmascript"><![CDATA[
document.addEventListener('DOMContentLoaded', (event) => {
  highlightEdges();
  highlightAdjacentNodes();
});
]]></script>
</svg>
