<?xml version="1.0" encoding="UTF-8" standalone="no"?>
<!DOCTYPE svg PUBLIC "-//W3C//DTD SVG 1.1//EN"
 "http://www.w3.org/Graphics/SVG/1.1/DTD/svg11.dtd">
<!-- Generated by graphviz version 12.2.1 (0)
 -->
<!-- Title: src/ui/widgets/gl_transition_widget.cpp Pages: 1 -->
<svg width="474pt" height="146pt"
 viewBox="0.00 0.00 474.00 146.00" xmlns="http://www.w3.org/2000/svg" xmlns:xlink="http://www.w3.org/1999/xlink">
<g id="graph0" class="graph" transform="scale(1 1) rotate(0) translate(4 142)">
<title>src/ui/widgets/gl_transition_widget.cpp</title>
<!-- Node1 -->
<g id="Node000001" class="node">
<title>Node1</title>
<g id="a_Node000001"><a xlink:title=" ">
<polygon fill="#999999" stroke="#666666" points="311,-138 178.75,-138 178.75,-109 311,-109 311,-138"/>
<text text-anchor="start" x="186.75" y="-124.5" font-family="Helvetica,sans-Serif" font-size="10.00">src/ui/widgets/gl_transition</text>
<text text-anchor="middle" x="244.88" y="-114" font-family="Helvetica,sans-Serif" font-size="10.00">_widget.cpp</text>
</a>
</g>
</g>
<!-- Node2 -->
<g id="Node000002" class="node">
<title>Node2</title>
<g id="a_Node000002"><a xlink:href="gl__transition__widget_8h.html" target="_top" xlink:title=" ">
<polygon fill="white" stroke="#666666" points="109.75,-73 0,-73 0,-54.5 109.75,-54.5 109.75,-73"/>
<text text-anchor="middle" x="54.88" y="-59.5" font-family="Helvetica,sans-Serif" font-size="10.00">gl_transition_widget.h</text>
</a>
</g>
</g>
<!-- Node1&#45;&gt;Node2 -->
<g id="edge1_Node000001_Node000002" class="edge">
<title>Node1&#45;&gt;Node2</title>
<g id="a_edge1_Node000001_Node000002"><a xlink:title=" ">
<path fill="none" stroke="#63b8ff" d="M198.88,-108.52C166.9,-98.8 124.7,-85.97 94.27,-76.72"/>
<polygon fill="#63b8ff" stroke="#63b8ff" points="95.66,-73.49 85.07,-73.93 93.62,-80.19 95.66,-73.49"/>
</a>
</g>
</g>
<!-- Node4 -->
<g id="Node000004" class="node">
<title>Node4</title>
<g id="a_Node000004"><a xlink:title=" ">
<polygon fill="#e0e0e0" stroke="#999999" points="199.62,-73 128.12,-73 128.12,-54.5 199.62,-54.5 199.62,-73"/>
<text text-anchor="middle" x="163.88" y="-59.5" font-family="Helvetica,sans-Serif" font-size="10.00">QApplication</text>
</a>
</g>
</g>
<!-- Node1&#45;&gt;Node4 -->
<g id="edge3_Node000001_Node000004" class="edge">
<title>Node1&#45;&gt;Node4</title>
<g id="a_edge3_Node000001_Node000004"><a xlink:title=" ">
<path fill="none" stroke="#63b8ff" d="M225.27,-108.52C213.15,-99.88 197.6,-88.79 185.18,-79.94"/>
<polygon fill="#63b8ff" stroke="#63b8ff" points="187.42,-77.24 177.24,-74.28 183.36,-82.94 187.42,-77.24"/>
</a>
</g>
</g>
<!-- Node5 -->
<g id="Node000005" class="node">
<title>Node5</title>
<g id="a_Node000005"><a xlink:title=" ">
<polygon fill="#e0e0e0" stroke="#999999" points="272,-73 217.75,-73 217.75,-54.5 272,-54.5 272,-73"/>
<text text-anchor="middle" x="244.88" y="-59.5" font-family="Helvetica,sans-Serif" font-size="10.00">QPainter</text>
</a>
</g>
</g>
<!-- Node1&#45;&gt;Node5 -->
<g id="edge4_Node000001_Node000005" class="edge">
<title>Node1&#45;&gt;Node5</title>
<g id="a_edge4_Node000001_Node000005"><a xlink:title=" ">
<path fill="none" stroke="#63b8ff" d="M244.88,-108.52C244.88,-101.42 244.88,-92.67 244.88,-84.86"/>
<polygon fill="#63b8ff" stroke="#63b8ff" points="248.38,-84.92 244.88,-74.92 241.38,-84.92 248.38,-84.92"/>
</a>
</g>
</g>
<!-- Node6 -->
<g id="Node000006" class="node">
<title>Node6</title>
<g id="a_Node000006"><a xlink:title=" ">
<polygon fill="#e0e0e0" stroke="#999999" points="394.12,-73 289.62,-73 289.62,-54.5 394.12,-54.5 394.12,-73"/>
<text text-anchor="middle" x="341.88" y="-59.5" font-family="Helvetica,sans-Serif" font-size="10.00">QPropertyAnimation</text>
</a>
</g>
</g>
<!-- Node1&#45;&gt;Node6 -->
<g id="edge5_Node000001_Node000006" class="edge">
<title>Node1&#45;&gt;Node6</title>
<g id="a_edge5_Node000001_Node000006"><a xlink:title=" ">
<path fill="none" stroke="#63b8ff" d="M268.36,-108.52C283.3,-99.62 302.6,-88.13 317.68,-79.15"/>
<polygon fill="#63b8ff" stroke="#63b8ff" points="319.24,-82.3 326.04,-74.18 315.66,-76.29 319.24,-82.3"/>
</a>
</g>
</g>
<!-- Node7 -->
<g id="Node000007" class="node">
<title>Node7</title>
<g id="a_Node000007"><a xlink:title=" ">
<polygon fill="#e0e0e0" stroke="#999999" points="466,-73 411.75,-73 411.75,-54.5 466,-54.5 466,-73"/>
<text text-anchor="middle" x="438.88" y="-59.5" font-family="Helvetica,sans-Serif" font-size="10.00">QScreen</text>
</a>
</g>
</g>
<!-- Node1&#45;&gt;Node7 -->
<g id="edge6_Node000001_Node000007" class="edge">
<title>Node1&#45;&gt;Node7</title>
<g id="a_edge6_Node000001_Node000007"><a xlink:title=" ">
<path fill="none" stroke="#63b8ff" d="M291.84,-108.52C325.19,-98.59 369.42,-85.42 400.63,-76.13"/>
<polygon fill="#63b8ff" stroke="#63b8ff" points="401.46,-79.54 410.05,-73.33 399.46,-72.83 401.46,-79.54"/>
</a>
</g>
</g>
<!-- Node3 -->
<g id="Node000003" class="node">
<title>Node3</title>
<g id="a_Node000003"><a xlink:title=" ">
<polygon fill="#e0e0e0" stroke="#999999" points="100,-18.5 9.75,-18.5 9.75,0 100,0 100,-18.5"/>
<text text-anchor="middle" x="54.88" y="-5" font-family="Helvetica,sans-Serif" font-size="10.00">QOpenGLWidget</text>
</a>
</g>
</g>
<!-- Node2&#45;&gt;Node3 -->
<g id="edge2_Node000002_Node000003" class="edge">
<title>Node2&#45;&gt;Node3</title>
<g id="a_edge2_Node000002_Node000003"><a xlink:title=" ">
<path fill="none" stroke="#63b8ff" d="M54.88,-54.08C54.88,-47.58 54.88,-38.42 54.88,-30.16"/>
<polygon fill="#63b8ff" stroke="#63b8ff" points="58.38,-30.27 54.88,-20.27 51.38,-30.27 58.38,-30.27"/>
</a>
</g>
</g>
</g>
</svg>
