<?xml version="1.0" encoding="UTF-8" standalone="no"?>
<!DOCTYPE svg PUBLIC "-//W3C//DTD SVG 1.1//EN"
 "http://www.w3.org/Graphics/SVG/1.1/DTD/svg11.dtd">
<!-- Generated by graphviz version 12.2.1 (0)
 -->
<!-- Title: src/ui/settings/tabs/classified/layers/handprint/handprint_layer.h Pages: 1 -->
<svg width="264pt" height="123pt"
 viewBox="0.00 0.00 264.12 123.00" xmlns="http://www.w3.org/2000/svg" xmlns:xlink="http://www.w3.org/1999/xlink">
<g id="graph0" class="graph" transform="scale(1 1) rotate(0) translate(4 119)">
<title>src/ui/settings/tabs/classified/layers/handprint/handprint_layer.h</title>
<!-- Node1 -->
<g id="Node000001" class="node">
<title>Node1</title>
<g id="a_Node000001"><a xlink:title=" ">
<polygon fill="#999999" stroke="#666666" points="200.25,-115 68,-115 68,-75.5 200.25,-75.5 200.25,-115"/>
<text text-anchor="start" x="76" y="-101.5" font-family="Helvetica,sans-Serif" font-size="10.00">src/ui/settings/tabs</text>
<text text-anchor="start" x="76" y="-91" font-family="Helvetica,sans-Serif" font-size="10.00">/classified/layers/handprint</text>
<text text-anchor="middle" x="134.12" y="-80.5" font-family="Helvetica,sans-Serif" font-size="10.00">/handprint_layer.h</text>
</a>
</g>
</g>
<!-- Node2 -->
<g id="Node000002" class="node">
<title>Node2</title>
<g id="a_Node000002"><a xlink:href="handprint__layer_8cpp.html" target="_top" xlink:title=" ">
<polygon fill="white" stroke="#666666" points="132.25,-39.5 0,-39.5 0,0 132.25,0 132.25,-39.5"/>
<text text-anchor="start" x="8" y="-26" font-family="Helvetica,sans-Serif" font-size="10.00">src/ui/settings/tabs</text>
<text text-anchor="start" x="8" y="-15.5" font-family="Helvetica,sans-Serif" font-size="10.00">/classified/layers/handprint</text>
<text text-anchor="middle" x="66.12" y="-5" font-family="Helvetica,sans-Serif" font-size="10.00">/handprint_layer.cpp</text>
</a>
</g>
</g>
<!-- Node1&#45;&gt;Node2 -->
<g id="edge1_Node000001_Node000002" class="edge">
<title>Node1&#45;&gt;Node2</title>
<g id="a_edge1_Node000001_Node000002"><a xlink:title=" ">
<path fill="none" stroke="#63b8ff" d="M108.92,-67C100.57,-57.98 91.47,-48.15 83.81,-39.87"/>
<polygon fill="#63b8ff" stroke="#63b8ff" points="106.23,-69.25 115.59,-74.21 111.36,-64.49 106.23,-69.25"/>
</a>
</g>
</g>
<!-- Node3 -->
<g id="Node000003" class="node">
<title>Node3</title>
<g id="a_Node000003"><a xlink:href="settings__view_8cpp.html" target="_top" xlink:title=" ">
<polygon fill="white" stroke="#666666" points="256.12,-34.25 150.12,-34.25 150.12,-5.25 256.12,-5.25 256.12,-34.25"/>
<text text-anchor="start" x="158.12" y="-20.75" font-family="Helvetica,sans-Serif" font-size="10.00">src/ui/views/settings</text>
<text text-anchor="middle" x="203.12" y="-10.25" font-family="Helvetica,sans-Serif" font-size="10.00">_view.cpp</text>
</a>
</g>
</g>
<!-- Node1&#45;&gt;Node3 -->
<g id="edge2_Node000001_Node000003" class="edge">
<title>Node1&#45;&gt;Node3</title>
<g id="a_edge2_Node000001_Node000003"><a xlink:title=" ">
<path fill="none" stroke="#63b8ff" d="M159.56,-67.15C169.99,-56.05 181.6,-43.68 190.21,-34.51"/>
<polygon fill="#63b8ff" stroke="#63b8ff" points="157.22,-64.53 152.93,-74.22 162.33,-69.32 157.22,-64.53"/>
</a>
</g>
</g>
</g>
</svg>
