<?xml version="1.0" encoding="UTF-8" standalone="no"?>
<!DOCTYPE svg PUBLIC "-//W3C//DTD SVG 1.1//EN"
 "http://www.w3.org/Graphics/SVG/1.1/DTD/svg11.dtd">
<!-- Generated by graphviz version 12.2.1 (0)
 -->
<!-- Title: src/ui/settings/tabs/classified/layers/handprint/handprint_layer.cpp Pages: 1 -->
<!--zoomable 232 -->

<svg id="main" version="1.1" xmlns="http://www.w3.org/2000/svg" xmlns:xlink="http://www.w3.org/1999/xlink" xml:space="preserve" onload="init(evt)">

<style type="text/css"><![CDATA[
.node, .edge {opacity: 0.7;}
.node.selected, .edge.selected {opacity: 1;}
.edge:hover path { stroke: red; }
.edge:hover polygon { stroke: red; fill: red; }
]]></style>

<defs>
  <circle id="rim" cx="0" cy="0" r="7"/>
  <circle id="rim2" cx="0" cy="0" r="3.5"/>
  <g id="zoomPlus">
    <use xlink:href="#rim" fill="#404040"><set attributeName="fill" to="#808080" begin="zoomplus.mouseover" end="zoomplus.mouseout"/></use>
    <path d="M-4,0h8M0,-4v8" fill="none" stroke="white" stroke-width="1.5" pointer-events="none"/>
  </g>
  <g id="zoomMin">
    <use xlink:href="#rim" fill="#404040"><set attributeName="fill" to="#808080" begin="zoomminus.mouseover" end="zoomminus.mouseout"/></use>
    <path d="M-4,0h8" fill="none" stroke="white" stroke-width="1.5" pointer-events="none"/>
  </g>
  <g id="arrowUp" transform="translate(30 24)">
    <use xlink:href="#rim"/>
    <path pointer-events="none" fill="none" stroke="white" stroke-width="1.5" d="M0,-3.0v7 M-2.5,-0.5L0,-3.0L2.5,-0.5"/>
  </g>
  <g id="arrowRight" transform="rotate(90) translate(36 -43)">
    <use xlink:href="#rim"/>
    <path pointer-events="none" fill="none" stroke="white" stroke-width="1.5" d="M0,-3.0v7 M-2.5,-0.5L0,-3.0L2.5,-0.5"/>
  </g>
  <g id="arrowDown" transform="rotate(180) translate(-30 -48)">
    <use xlink:href="#rim"/>
    <path pointer-events="none" fill="none" stroke="white" stroke-width="1.5" d="M0,-3.0v7 M-2.5,-0.5L0,-3.0L2.5,-0.5"/>
  </g>
  <g id="arrowLeft" transform="rotate(270) translate(-36 17)">
    <use xlink:href="#rim"/>
    <path pointer-events="none" fill="none" stroke="white" stroke-width="1.5" d="M0,-3.0v7 M-2.5,-0.5L0,-3.0L2.5,-0.5"/>
  </g>
  <g id="resetDef">
    <use xlink:href="#rim2" fill="#404040"><set attributeName="fill" to="#808080" begin="reset.mouseover" end="reset.mouseout"/></use>
  </g>
</defs>
<script type="application/ecmascript">
var viewWidth = 1236;
var viewHeight = 232;
var sectionId = 'dynsection-0';
</script>
<script type="application/ecmascript" xlink:href="svg.min.js"/>
<svg id="graph" class="graph">
<g id="viewport">
<title>src/ui/settings/tabs/classified/layers/handprint/handprint_layer.cpp</title>
<!-- Node1 -->
<g id="Node000001" class="node">
<title>Node1</title>
<g id="a_Node000001"><a xlink:title=" ">
<polygon fill="#999999" stroke="#666666" points="640.75,-224 508.5,-224 508.5,-184.5 640.75,-184.5 640.75,-224"/>
<text text-anchor="start" x="516.5" y="-210.5" font-family="Helvetica,sans-Serif" font-size="10.00">src/ui/settings/tabs</text>
<text text-anchor="start" x="516.5" y="-200" font-family="Helvetica,sans-Serif" font-size="10.00">/classified/layers/handprint</text>
<text text-anchor="middle" x="574.62" y="-189.5" font-family="Helvetica,sans-Serif" font-size="10.00">/handprint_layer.cpp</text>
</a>
</g>
</g>
<!-- Node2 -->
<g id="Node000002" class="node">
<title>Node2</title>
<g id="a_Node000002"><a xlink:href="handprint__layer_8h.html" target="_top" xlink:title=" ">
<polygon fill="white" stroke="#666666" points="91.38,-138 1.88,-138 1.88,-119.5 91.38,-119.5 91.38,-138"/>
<text text-anchor="middle" x="46.62" y="-124.5" font-family="Helvetica,sans-Serif" font-size="10.00">handprint_layer.h</text>
</a>
</g>
</g>
<!-- Node1&#45;&gt;Node2 -->
<g id="edge1_Node000001_Node000002" class="edge">
<title>Node1&#45;&gt;Node2</title>
<g id="a_edge1_Node000001_Node000002"><a xlink:title=" ">
<path fill="none" stroke="#63b8ff" d="M508.3,-200.18C415.92,-194.87 243.77,-181.2 100.62,-148.5 93.45,-146.86 85.9,-144.6 78.8,-142.21"/>
<polygon fill="#63b8ff" stroke="#63b8ff" points="80.14,-138.97 69.54,-138.93 77.8,-145.57 80.14,-138.97"/>
</a>
</g>
</g>
<!-- Node5 -->
<g id="Node000005" class="node">
<title>Node5</title>
<g id="a_Node000005"><a xlink:title=" ">
<polygon fill="#e0e0e0" stroke="#999999" points="231.5,-138 109.75,-138 109.75,-119.5 231.5,-119.5 231.5,-138"/>
<text text-anchor="middle" x="170.62" y="-124.5" font-family="Helvetica,sans-Serif" font-size="10.00">QGraphicsOpacityEffect</text>
</a>
</g>
</g>
<!-- Node1&#45;&gt;Node5 -->
<g id="edge4_Node000001_Node000005" class="edge">
<title>Node1&#45;&gt;Node5</title>
<g id="a_edge4_Node000001_Node000005"><a xlink:title=" ">
<path fill="none" stroke="#63b8ff" d="M508.04,-194.32C440.36,-184.78 332.68,-168.32 240.62,-148.5 231.08,-146.44 220.88,-143.91 211.31,-141.38"/>
<polygon fill="#63b8ff" stroke="#63b8ff" points="212.47,-138.07 201.9,-138.83 210.64,-144.82 212.47,-138.07"/>
</a>
</g>
</g>
<!-- Node6 -->
<g id="Node000006" class="node">
<title>Node6</title>
<g id="a_Node000006"><a xlink:title=" ">
<polygon fill="#e0e0e0" stroke="#999999" points="296,-138 249.25,-138 249.25,-119.5 296,-119.5 296,-138"/>
<text text-anchor="middle" x="272.62" y="-124.5" font-family="Helvetica,sans-Serif" font-size="10.00">QLabel</text>
</a>
</g>
</g>
<!-- Node1&#45;&gt;Node6 -->
<g id="edge5_Node000001_Node000006" class="edge">
<title>Node1&#45;&gt;Node6</title>
<g id="a_edge5_Node000001_Node000006"><a xlink:title=" ">
<path fill="none" stroke="#63b8ff" d="M508.28,-196C452.55,-188.46 371.53,-174.07 304.62,-148.5 301.47,-147.29 298.26,-145.79 295.15,-144.17"/>
<polygon fill="#63b8ff" stroke="#63b8ff" points="296.94,-141.16 286.53,-139.19 293.43,-147.22 296.94,-141.16"/>
</a>
</g>
</g>
<!-- Node7 -->
<g id="Node000007" class="node">
<title>Node7</title>
<g id="a_Node000007"><a xlink:title=" ">
<polygon fill="#e0e0e0" stroke="#999999" points="391.38,-138 313.88,-138 313.88,-119.5 391.38,-119.5 391.38,-138"/>
<text text-anchor="middle" x="352.62" y="-124.5" font-family="Helvetica,sans-Serif" font-size="10.00">QMouseEvent</text>
</a>
</g>
</g>
<!-- Node1&#45;&gt;Node7 -->
<g id="edge6_Node000001_Node000007" class="edge">
<title>Node1&#45;&gt;Node7</title>
<g id="a_edge6_Node000001_Node000007"><a xlink:title=" ">
<path fill="none" stroke="#63b8ff" d="M509.83,-184C476.94,-173.94 436.47,-161.12 400.62,-148.5 395.41,-146.66 389.92,-144.62 384.59,-142.58"/>
<polygon fill="#63b8ff" stroke="#63b8ff" points="386.01,-139.38 375.42,-139.01 383.47,-145.9 386.01,-139.38"/>
</a>
</g>
</g>
<!-- Node8 -->
<g id="Node000008" class="node">
<title>Node8</title>
<g id="a_Node000008"><a xlink:title=" ">
<polygon fill="#e0e0e0" stroke="#999999" points="463.75,-138 409.5,-138 409.5,-119.5 463.75,-119.5 463.75,-138"/>
<text text-anchor="middle" x="436.62" y="-124.5" font-family="Helvetica,sans-Serif" font-size="10.00">QPainter</text>
</a>
</g>
</g>
<!-- Node1&#45;&gt;Node8 -->
<g id="edge7_Node000001_Node000008" class="edge">
<title>Node1&#45;&gt;Node8</title>
<g id="a_edge7_Node000001_Node000008"><a xlink:title=" ">
<path fill="none" stroke="#63b8ff" d="M538.73,-184.13C514.95,-171.47 484.31,-155.15 462.82,-143.7"/>
<polygon fill="#63b8ff" stroke="#63b8ff" points="464.59,-140.68 454.12,-139.07 461.3,-146.86 464.59,-140.68"/>
</a>
</g>
</g>
<!-- Node9 -->
<g id="Node000009" class="node">
<title>Node9</title>
<g id="a_Node000009"><a xlink:title=" ">
<polygon fill="#e0e0e0" stroke="#999999" points="559.38,-138 481.88,-138 481.88,-119.5 559.38,-119.5 559.38,-138"/>
<text text-anchor="middle" x="520.62" y="-124.5" font-family="Helvetica,sans-Serif" font-size="10.00">QProgressBar</text>
</a>
</g>
</g>
<!-- Node1&#45;&gt;Node9 -->
<g id="edge8_Node000001_Node000009" class="edge">
<title>Node1&#45;&gt;Node9</title>
<g id="a_edge8_Node000001_Node000009"><a xlink:title=" ">
<path fill="none" stroke="#63b8ff" d="M560.72,-184.32C552.39,-172.99 541.87,-158.67 533.7,-147.55"/>
<polygon fill="#63b8ff" stroke="#63b8ff" points="536.62,-145.61 527.88,-139.62 530.98,-149.76 536.62,-145.61"/>
</a>
</g>
</g>
<!-- Node10 -->
<g id="Node000010" class="node">
<title>Node10</title>
<g id="a_Node000010"><a xlink:title=" ">
<polygon fill="#e0e0e0" stroke="#999999" points="681.88,-138 577.38,-138 577.38,-119.5 681.88,-119.5 681.88,-138"/>
<text text-anchor="middle" x="629.62" y="-124.5" font-family="Helvetica,sans-Serif" font-size="10.00">QPropertyAnimation</text>
</a>
</g>
</g>
<!-- Node1&#45;&gt;Node10 -->
<g id="edge9_Node000001_Node000010" class="edge">
<title>Node1&#45;&gt;Node10</title>
<g id="a_edge9_Node000001_Node000010"><a xlink:title=" ">
<path fill="none" stroke="#63b8ff" d="M588.79,-184.32C597.27,-172.99 607.98,-158.67 616.31,-147.55"/>
<polygon fill="#63b8ff" stroke="#63b8ff" points="619.05,-149.72 622.24,-139.62 613.45,-145.53 619.05,-149.72"/>
</a>
</g>
</g>
<!-- Node11 -->
<g id="Node000011" class="node">
<title>Node11</title>
<g id="a_Node000011"><a xlink:title=" ">
<polygon fill="#e0e0e0" stroke="#999999" points="801.75,-138 699.5,-138 699.5,-119.5 801.75,-119.5 801.75,-138"/>
<text text-anchor="middle" x="750.62" y="-124.5" font-family="Helvetica,sans-Serif" font-size="10.00">QRandomGenerator</text>
</a>
</g>
</g>
<!-- Node1&#45;&gt;Node11 -->
<g id="edge10_Node000001_Node000011" class="edge">
<title>Node1&#45;&gt;Node11</title>
<g id="a_edge10_Node000001_Node000011"><a xlink:title=" ">
<path fill="none" stroke="#63b8ff" d="M620.41,-184.13C651.56,-171.12 691.96,-154.25 719.45,-142.77"/>
<polygon fill="#63b8ff" stroke="#63b8ff" points="720.74,-146.02 728.62,-138.94 718.04,-139.57 720.74,-146.02"/>
</a>
</g>
</g>
<!-- Node12 -->
<g id="Node000012" class="node">
<title>Node12</title>
<g id="a_Node000012"><a xlink:title=" ">
<polygon fill="#e0e0e0" stroke="#999999" points="899.12,-138 820.12,-138 820.12,-119.5 899.12,-119.5 899.12,-138"/>
<text text-anchor="middle" x="859.62" y="-124.5" font-family="Helvetica,sans-Serif" font-size="10.00">QSvgRenderer</text>
</a>
</g>
</g>
<!-- Node1&#45;&gt;Node12 -->
<g id="edge11_Node000001_Node000012" class="edge">
<title>Node1&#45;&gt;Node12</title>
<g id="a_edge11_Node000001_Node000012"><a xlink:title=" ">
<path fill="none" stroke="#63b8ff" d="M641.14,-190.37C688.78,-180.53 754.21,-165.75 810.62,-148.5 816.36,-146.75 822.38,-144.66 828.17,-142.52"/>
<polygon fill="#63b8ff" stroke="#63b8ff" points="829.36,-145.81 837.45,-138.96 826.86,-139.27 829.36,-145.81"/>
</a>
</g>
</g>
<!-- Node13 -->
<g id="Node000013" class="node">
<title>Node13</title>
<g id="a_Node000013"><a xlink:title=" ">
<polygon fill="#e0e0e0" stroke="#999999" points="965.75,-138 917.5,-138 917.5,-119.5 965.75,-119.5 965.75,-138"/>
<text text-anchor="middle" x="941.62" y="-124.5" font-family="Helvetica,sans-Serif" font-size="10.00">QTimer</text>
</a>
</g>
</g>
<!-- Node1&#45;&gt;Node13 -->
<g id="edge12_Node000001_Node000013" class="edge">
<title>Node1&#45;&gt;Node13</title>
<g id="a_edge12_Node000001_Node000013"><a xlink:title=" ">
<path fill="none" stroke="#63b8ff" d="M640.98,-199.3C709.64,-193.63 819.15,-180.11 908.62,-148.5 912.17,-147.25 915.77,-145.63 919.22,-143.86"/>
<polygon fill="#63b8ff" stroke="#63b8ff" points="920.67,-147.06 927.65,-139.09 917.22,-140.97 920.67,-147.06"/>
</a>
</g>
</g>
<!-- Node14 -->
<g id="Node000014" class="node">
<title>Node14</title>
<g id="a_Node000014"><a xlink:title=" ">
<polygon fill="#e0e0e0" stroke="#999999" points="1059.62,-138 983.62,-138 983.62,-119.5 1059.62,-119.5 1059.62,-138"/>
<text text-anchor="middle" x="1021.62" y="-124.5" font-family="Helvetica,sans-Serif" font-size="10.00">QVBoxLayout</text>
</a>
</g>
</g>
<!-- Node1&#45;&gt;Node14 -->
<g id="edge13_Node000001_Node000014" class="edge">
<title>Node1&#45;&gt;Node14</title>
<g id="a_edge13_Node000001_Node000014"><a xlink:title=" ">
<path fill="none" stroke="#63b8ff" d="M641.07,-199.12C721.23,-193.01 859.58,-178.84 974.62,-148.5 980.42,-146.97 986.47,-144.93 992.22,-142.75"/>
<polygon fill="#63b8ff" stroke="#63b8ff" points="993.4,-146.04 1001.37,-139.06 990.79,-139.55 993.4,-146.04"/>
</a>
</g>
</g>
<!-- Node15 -->
<g id="Node000015" class="node">
<title>Node15</title>
<g id="a_Node000015"><a xlink:href="translation__manager_8h.html" target="_top" xlink:title=" ">
<polygon fill="white" stroke="#666666" points="1187.88,-148.5 1077.38,-148.5 1077.38,-109 1187.88,-109 1187.88,-148.5"/>
<text text-anchor="start" x="1085.38" y="-135" font-family="Helvetica,sans-Serif" font-size="10.00">../../../../../../app</text>
<text text-anchor="start" x="1085.38" y="-124.5" font-family="Helvetica,sans-Serif" font-size="10.00">/managers/translation</text>
<text text-anchor="middle" x="1132.62" y="-114" font-family="Helvetica,sans-Serif" font-size="10.00">_manager.h</text>
</a>
</g>
</g>
<!-- Node1&#45;&gt;Node15 -->
<g id="edge14_Node000001_Node000015" class="edge">
<title>Node1&#45;&gt;Node15</title>
<g id="a_edge14_Node000001_Node000015"><a xlink:title=" ">
<path fill="none" stroke="#63b8ff" d="M641.11,-199.58C734.27,-193.62 908.96,-179.48 1065.67,-148.92"/>
<polygon fill="#63b8ff" stroke="#63b8ff" points="1066.31,-152.36 1075.44,-146.99 1064.95,-145.5 1066.31,-152.36"/>
</a>
</g>
</g>
<!-- Node3 -->
<g id="Node000003" class="node">
<title>Node3</title>
<g id="a_Node000003"><a xlink:href="security__layer_8h.html" target="_top" xlink:title=" ">
<polygon fill="white" stroke="#666666" points="93.25,-73 0,-73 0,-54.5 93.25,-54.5 93.25,-73"/>
<text text-anchor="middle" x="46.62" y="-59.5" font-family="Helvetica,sans-Serif" font-size="10.00">../security_layer.h</text>
</a>
</g>
</g>
<!-- Node2&#45;&gt;Node3 -->
<g id="edge2_Node000002_Node000003" class="edge">
<title>Node2&#45;&gt;Node3</title>
<g id="a_edge2_Node000002_Node000003"><a xlink:title=" ">
<path fill="none" stroke="#63b8ff" d="M46.62,-119.25C46.62,-110.37 46.62,-96.13 46.62,-84.43"/>
<polygon fill="#63b8ff" stroke="#63b8ff" points="50.13,-84.63 46.63,-74.63 43.13,-84.63 50.13,-84.63"/>
</a>
</g>
</g>
<!-- Node4 -->
<g id="Node000004" class="node">
<title>Node4</title>
<g id="a_Node000004"><a xlink:title=" ">
<polygon fill="#e0e0e0" stroke="#999999" points="73.75,-18.5 19.5,-18.5 19.5,0 73.75,0 73.75,-18.5"/>
<text text-anchor="middle" x="46.62" y="-5" font-family="Helvetica,sans-Serif" font-size="10.00">QWidget</text>
</a>
</g>
</g>
<!-- Node3&#45;&gt;Node4 -->
<g id="edge3_Node000003_Node000004" class="edge">
<title>Node3&#45;&gt;Node4</title>
<g id="a_edge3_Node000003_Node000004"><a xlink:title=" ">
<path fill="none" stroke="#63b8ff" d="M46.62,-54.08C46.62,-47.58 46.62,-38.42 46.62,-30.16"/>
<polygon fill="#63b8ff" stroke="#63b8ff" points="50.13,-30.27 46.63,-20.27 43.13,-30.27 50.13,-30.27"/>
</a>
</g>
</g>
<!-- Node16 -->
<g id="Node000016" class="node">
<title>Node16</title>
<g id="a_Node000016"><a xlink:title=" ">
<polygon fill="#e0e0e0" stroke="#999999" points="1089.12,-73 1016.12,-73 1016.12,-54.5 1089.12,-54.5 1089.12,-73"/>
<text text-anchor="middle" x="1052.62" y="-59.5" font-family="Helvetica,sans-Serif" font-size="10.00">QJsonObject</text>
</a>
</g>
</g>
<!-- Node15&#45;&gt;Node16 -->
<g id="edge15_Node000015_Node000016" class="edge">
<title>Node15&#45;&gt;Node16</title>
<g id="a_edge15_Node000015_Node000016"><a xlink:title=" ">
<path fill="none" stroke="#63b8ff" d="M1108.19,-108.51C1096.79,-99.53 1083.39,-88.98 1072.61,-80.49"/>
<polygon fill="#63b8ff" stroke="#63b8ff" points="1074.79,-77.75 1064.76,-74.31 1070.46,-83.25 1074.79,-77.75"/>
</a>
</g>
</g>
<!-- Node17 -->
<g id="Node000017" class="node">
<title>Node17</title>
<g id="a_Node000017"><a xlink:title=" ">
<polygon fill="#e0e0e0" stroke="#999999" points="1157.88,-73 1107.38,-73 1107.38,-54.5 1157.88,-54.5 1157.88,-73"/>
<text text-anchor="middle" x="1132.62" y="-59.5" font-family="Helvetica,sans-Serif" font-size="10.00">QMutex</text>
</a>
</g>
</g>
<!-- Node15&#45;&gt;Node17 -->
<g id="edge16_Node000015_Node000017" class="edge">
<title>Node15&#45;&gt;Node17</title>
<g id="a_edge16_Node000015_Node000017"><a xlink:title=" ">
<path fill="none" stroke="#63b8ff" d="M1132.62,-108.51C1132.62,-100.99 1132.62,-92.38 1132.62,-84.8"/>
<polygon fill="#63b8ff" stroke="#63b8ff" points="1136.13,-84.89 1132.63,-74.89 1129.13,-84.89 1136.13,-84.89"/>
</a>
</g>
</g>
<!-- Node18 -->
<g id="Node000018" class="node">
<title>Node18</title>
<g id="a_Node000018"><a xlink:title=" ">
<polygon fill="#e0e0e0" stroke="#999999" points="1227.62,-73 1175.62,-73 1175.62,-54.5 1227.62,-54.5 1227.62,-73"/>
<text text-anchor="middle" x="1201.62" y="-59.5" font-family="Helvetica,sans-Serif" font-size="10.00">QObject</text>
</a>
</g>
</g>
<!-- Node15&#45;&gt;Node18 -->
<g id="edge17_Node000015_Node000018" class="edge">
<title>Node15&#45;&gt;Node18</title>
<g id="a_edge17_Node000015_Node000018"><a xlink:title=" ">
<path fill="none" stroke="#63b8ff" d="M1153.7,-108.51C1163.33,-99.71 1174.62,-89.41 1183.82,-81.01"/>
<polygon fill="#63b8ff" stroke="#63b8ff" points="1186.04,-83.72 1191.06,-74.39 1181.32,-78.55 1186.04,-83.72"/>
</a>
</g>
</g>
</g>
</svg>

<g id="navigator" transform="translate(0 0)" fill="#404254">
  <rect fill="#f2f5e9" fill-opacity="0.5" stroke="#606060" stroke-width=".5" x="0" y="0" width="60" height="60"/>
  <use id="zoomplus" xlink:href="#zoomPlus" x="17" y="9" onmousedown="handleZoom(evt,'in')"/>
  <use id="zoomminus" xlink:href="#zoomMin" x="42" y="9" onmousedown="handleZoom(evt,'out')"/>
  <use id="reset" xlink:href="#resetDef" x="30" y="36" onmousedown="handleReset()"/>
   <use id="arrowup" xlink:href="#arrowUp" x="0" y="0" onmousedown="handlePan(0,-1)"/>
  <use id="arrowright" xlink:href="#arrowRight" x="0" y="0" onmousedown="handlePan(1,0)"/>
  <use id="arrowdown" xlink:href="#arrowDown" x="0" y="0" onmousedown="handlePan(0,1)"/>
  <use id="arrowleft" xlink:href="#arrowLeft" x="0" y="0" onmousedown="handlePan(-1,0)"/>
</g>
<svg viewBox="0 0 15 15" width="100%" height="30px" preserveAspectRatio="xMaxYMin meet">
 <g id="arrow_out" transform="scale(0.3 0.3)">
  <a xlink:href="handprint__layer_8cpp__incl_org.svg" target="_base">
   <rect id="button" ry="5" rx="5" y="6" x="6" height="38" width="38"
        fill="#f2f5e9" fill-opacity="0.5" stroke="#606060" stroke-width="1.0"/>
   <path id="arrow"
     d="M 11.500037,31.436501 C 11.940474,20.09759 22.043105,11.32322 32.158766,21.979434 L 37.068811,17.246167 C 37.068811,17.246167 37.088388,32 37.088388,32 L 22.160133,31.978069 C 22.160133,31.978069 26.997745,27.140456 26.997745,27.140456 C 18.528582,18.264221 13.291696,25.230495 11.500037,31.436501 z"
     style="fill:#404040;"/>
  </a>
 </g>
</svg>

<style type='text/css'>
<![CDATA[
[data-mouse-over-selected='false'] { opacity: 0.7; }
[data-mouse-over-selected='true']  { opacity: 1.0; }
]]>
</style>
<script type="application/ecmascript"><![CDATA[
document.addEventListener('DOMContentLoaded', (event) => {
  highlightEdges();
  highlightAdjacentNodes();
});
]]></script>
</svg>
