<?xml version="1.0" encoding="UTF-8" standalone="no"?>
<!DOCTYPE svg PUBLIC "-//W3C//DTD SVG 1.1//EN"
 "http://www.w3.org/Graphics/SVG/1.1/DTD/svg11.dtd">
<!-- Generated by graphviz version 12.2.1 (0)
 -->
<!-- Title: src/blob/states/idle_state.cpp Pages: 1 -->
<svg width="233pt" height="201pt"
 viewBox="0.00 0.00 233.38 200.50" xmlns="http://www.w3.org/2000/svg" xmlns:xlink="http://www.w3.org/1999/xlink">

<svg id="main" version="1.1" xmlns="http://www.w3.org/2000/svg" xmlns:xlink="http://www.w3.org/1999/xlink" xml:space="preserve">

<style type="text/css"><![CDATA[
.node, .edge {opacity: 0.7;}
.node.selected, .edge.selected {opacity: 1;}
.edge:hover path { stroke: red; }
.edge:hover polygon { stroke: red; fill: red; }
]]></style>
<script type="application/ecmascript" xlink:href="svg.min.js"/>
<svg id="graph" class="graph">
<g id="graph0" class="graph" transform="scale(1 1) rotate(0) translate(4 196.5)">
<title>src/blob/states/idle_state.cpp</title>
<!-- Node1 -->
<g id="Node000001" class="node">
<title>Node1</title>
<g id="a_Node000001"><a xlink:title=" ">
<polygon fill="#999999" stroke="#666666" points="189.25,-192.5 90.75,-192.5 90.75,-163.5 189.25,-163.5 189.25,-192.5"/>
<text text-anchor="start" x="98.75" y="-179" font-family="Helvetica,sans-Serif" font-size="10.00">src/blob/states/idle</text>
<text text-anchor="middle" x="140" y="-168.5" font-family="Helvetica,sans-Serif" font-size="10.00">_state.cpp</text>
</a>
</g>
</g>
<!-- Node2 -->
<g id="Node000002" class="node">
<title>Node2</title>
<g id="a_Node000002"><a xlink:href="idle__state_8h.html" target="_top" xlink:title=" ">
<polygon fill="white" stroke="#666666" points="136.12,-127.5 69.88,-127.5 69.88,-109 136.12,-109 136.12,-127.5"/>
<text text-anchor="middle" x="103" y="-114" font-family="Helvetica,sans-Serif" font-size="10.00">idle_state.h</text>
</a>
</g>
</g>
<!-- Node1&#45;&gt;Node2 -->
<g id="edge1_Node000001_Node000002" class="edge">
<title>Node1&#45;&gt;Node2</title>
<g id="a_edge1_Node000001_Node000002"><a xlink:title=" ">
<path fill="none" stroke="#63b8ff" d="M131.04,-163.02C126.11,-155.32 119.93,-145.68 114.63,-137.4"/>
<polygon fill="#63b8ff" stroke="#63b8ff" points="117.7,-135.71 109.36,-129.18 111.81,-139.49 117.7,-135.71"/>
</a>
</g>
</g>
<!-- Node8 -->
<g id="Node000008" class="node">
<title>Node8</title>
<g id="a_Node000008"><a xlink:title=" ">
<polygon fill="#e0e0e0" stroke="#999999" points="200,-127.5 154,-127.5 154,-109 200,-109 200,-127.5"/>
<text text-anchor="middle" x="177" y="-114" font-family="Helvetica,sans-Serif" font-size="10.00">math.h</text>
</a>
</g>
</g>
<!-- Node1&#45;&gt;Node8 -->
<g id="edge6_Node000001_Node000008" class="edge">
<title>Node1&#45;&gt;Node8</title>
<g id="a_edge6_Node000001_Node000008"><a xlink:title=" ">
<path fill="none" stroke="#63b8ff" d="M148.96,-163.02C153.89,-155.32 160.07,-145.68 165.37,-137.4"/>
<polygon fill="#63b8ff" stroke="#63b8ff" points="168.19,-139.49 170.64,-129.18 162.3,-135.71 168.19,-139.49"/>
</a>
</g>
</g>
<!-- Node3 -->
<g id="Node000003" class="node">
<title>Node3</title>
<g id="a_Node000003"><a xlink:href="blob__state_8h.html" target="_top" xlink:title=" ">
<polygon fill="white" stroke="#666666" points="137.62,-73 68.38,-73 68.38,-54.5 137.62,-54.5 137.62,-73"/>
<text text-anchor="middle" x="103" y="-59.5" font-family="Helvetica,sans-Serif" font-size="10.00">blob_state.h</text>
</a>
</g>
</g>
<!-- Node2&#45;&gt;Node3 -->
<g id="edge2_Node000002_Node000003" class="edge">
<title>Node2&#45;&gt;Node3</title>
<g id="a_edge2_Node000002_Node000003"><a xlink:title=" ">
<path fill="none" stroke="#63b8ff" d="M103,-108.58C103,-102.08 103,-92.92 103,-84.66"/>
<polygon fill="#63b8ff" stroke="#63b8ff" points="106.5,-84.77 103,-74.77 99.5,-84.77 106.5,-84.77"/>
</a>
</g>
</g>
<!-- Node4 -->
<g id="Node000004" class="node">
<title>Node4</title>
<g id="a_Node000004"><a xlink:title=" ">
<polygon fill="#e0e0e0" stroke="#999999" points="64,-18.5 0,-18.5 0,0 64,0 64,-18.5"/>
<text text-anchor="middle" x="32" y="-5" font-family="Helvetica,sans-Serif" font-size="10.00">QVector2D</text>
</a>
</g>
</g>
<!-- Node3&#45;&gt;Node4 -->
<g id="edge3_Node000003_Node000004" class="edge">
<title>Node3&#45;&gt;Node4</title>
<g id="a_edge3_Node000003_Node000004"><a xlink:title=" ">
<path fill="none" stroke="#63b8ff" d="M91.28,-54.08C80.73,-46.28 65,-34.65 52.4,-25.33"/>
<polygon fill="#63b8ff" stroke="#63b8ff" points="54.84,-22.79 44.72,-19.66 50.68,-28.42 54.84,-22.79"/>
</a>
</g>
</g>
<!-- Node5 -->
<g id="Node000005" class="node">
<title>Node5</title>
<g id="a_Node000005"><a xlink:title=" ">
<polygon fill="#e0e0e0" stroke="#999999" points="124.12,-18.5 81.88,-18.5 81.88,0 124.12,0 124.12,-18.5"/>
<text text-anchor="middle" x="103" y="-5" font-family="Helvetica,sans-Serif" font-size="10.00">vector</text>
</a>
</g>
</g>
<!-- Node3&#45;&gt;Node5 -->
<g id="edge4_Node000003_Node000005" class="edge">
<title>Node3&#45;&gt;Node5</title>
<g id="a_edge4_Node000003_Node000005"><a xlink:title=" ">
<path fill="none" stroke="#63b8ff" d="M103,-54.08C103,-47.58 103,-38.42 103,-30.16"/>
<polygon fill="#63b8ff" stroke="#63b8ff" points="106.5,-30.27 103,-20.27 99.5,-30.27 106.5,-30.27"/>
</a>
</g>
</g>
<!-- Node6 -->
<g id="Node000006" class="node">
<title>Node6</title>
<g id="a_Node000006"><a xlink:href="blob__config_8h.html" target="_top" xlink:title=" ">
<polygon fill="#fff0f0" stroke="red" points="225.38,-18.5 142.62,-18.5 142.62,0 225.38,0 225.38,-18.5"/>
<text text-anchor="middle" x="184" y="-5" font-family="Helvetica,sans-Serif" font-size="10.00">../blob_config.h</text>
</a>
</g>
</g>
<!-- Node3&#45;&gt;Node6 -->
<g id="edge5_Node000003_Node000006" class="edge">
<title>Node3&#45;&gt;Node6</title>
<g id="a_edge5_Node000003_Node000006"><a xlink:title=" ">
<path fill="none" stroke="#63b8ff" d="M116.38,-54.08C128.57,-46.18 146.83,-34.34 161.31,-24.96"/>
<polygon fill="#63b8ff" stroke="#63b8ff" points="162.85,-28.13 169.33,-19.76 159.04,-22.26 162.85,-28.13"/>
</a>
</g>
</g>
</g>
</svg>
</svg>

<style type='text/css'>
<![CDATA[
[data-mouse-over-selected='false'] { opacity: 0.7; }
[data-mouse-over-selected='true']  { opacity: 1.0; }
]]>
</style>
<script type="application/ecmascript"><![CDATA[
document.addEventListener('DOMContentLoaded', (event) => {
  highlightEdges();
  highlightAdjacentNodes();
});
]]></script>
</svg>
