<?xml version="1.0" encoding="UTF-8" standalone="no"?>
<!DOCTYPE svg PUBLIC "-//W3C//DTD SVG 1.1//EN"
 "http://www.w3.org/Graphics/SVG/1.1/DTD/svg11.dtd">
<!-- Generated by graphviz version 12.2.1 (0)
 -->
<!-- Title: Graphical Class Hierarchy Pages: 1 -->
<svg width="300pt" height="143pt"
 viewBox="0.00 0.00 299.50 142.75" xmlns="http://www.w3.org/2000/svg" xmlns:xlink="http://www.w3.org/1999/xlink">
<g id="graph0" class="graph" transform="scale(1 1) rotate(0) translate(4 138.75)">
<title>Graphical Class Hierarchy</title>
<!-- Node0 -->
<g id="Node000000" class="node">
<title>Node0</title>
<g id="a_Node000000"><a xlink:title=" ">
<polygon fill="#e0e0e0" stroke="#999999" points="107.5,-126.75 5.25,-126.75 5.25,-108.25 107.5,-108.25 107.5,-126.75"/>
<text text-anchor="middle" x="56.38" y="-113.25" font-family="Helvetica,sans-Serif" font-size="10.00">QOpenGLFunctions</text>
</a>
</g>
</g>
<!-- Node1 -->
<g id="Node000001" class="node">
<title>Node1</title>
<g id="a_Node000001"><a xlink:href="classBlobAnimation.html" target="_top" xlink:title="Main widget responsible for rendering and animating the dynamic blob.">
<polygon fill="white" stroke="#666666" points="259.62,-134.75 180.62,-134.75 180.62,-116.25 259.62,-116.25 259.62,-134.75"/>
<text text-anchor="middle" x="220.12" y="-121.25" font-family="Helvetica,sans-Serif" font-size="10.00">BlobAnimation</text>
</a>
</g>
</g>
<!-- Node0&#45;&gt;Node1 -->
<g id="edge41_Node000000_Node000001" class="edge">
<title>Node0&#45;&gt;Node1</title>
<g id="a_edge41_Node000000_Node000001"><a xlink:title=" ">
<path fill="none" stroke="darkgreen" d="M119.16,-120.56C139.66,-121.57 161.89,-122.67 180.17,-123.57"/>
<polygon fill="darkgreen" stroke="darkgreen" points="119.34,-117.06 109.18,-120.06 118.99,-124.05 119.34,-117.06"/>
</a>
</g>
</g>
<!-- Node3 -->
<g id="Node000003" class="node">
<title>Node3</title>
<g id="a_Node000003"><a xlink:href="classCommunicationStream.html" target="_top" xlink:title="A custom OpenGL widget displaying an animated communication stream visualization.">
<polygon fill="white" stroke="#666666" points="278,-97.75 162.25,-97.75 162.25,-79.25 278,-79.25 278,-97.75"/>
<text text-anchor="middle" x="220.12" y="-84.25" font-family="Helvetica,sans-Serif" font-size="10.00">CommunicationStream</text>
</a>
</g>
</g>
<!-- Node0&#45;&gt;Node3 -->
<g id="edge42_Node000000_Node000003" class="edge">
<title>Node0&#45;&gt;Node3</title>
<g id="a_edge42_Node000000_Node000003"><a xlink:title=" ">
<path fill="none" stroke="darkgreen" d="M118.56,-106.53C133.81,-103.8 150.05,-100.88 164.93,-98.22"/>
<polygon fill="darkgreen" stroke="darkgreen" points="118.38,-103.01 109.16,-108.22 119.62,-109.9 118.38,-103.01"/>
</a>
</g>
</g>
<!-- Node5 -->
<g id="Node000005" class="node">
<title>Node5</title>
<g id="a_Node000005"><a xlink:title=" ">
<polygon fill="#e0e0e0" stroke="#999999" points="112.75,-29 0,-29 0,0 112.75,0 112.75,-29"/>
<text text-anchor="start" x="8" y="-15.5" font-family="Helvetica,sans-Serif" font-size="10.00">QOpenGLFunctions_3</text>
<text text-anchor="middle" x="56.38" y="-5" font-family="Helvetica,sans-Serif" font-size="10.00">_3_Core</text>
</a>
</g>
</g>
<!-- Node4 -->
<g id="Node000004" class="node">
<title>Node4</title>
<g id="a_Node000004"><a xlink:href="classFloatingEnergySphereWidget.html" target="_top" xlink:title="An OpenGL widget displaying a floating, interactive energy sphere.">
<polygon fill="white" stroke="#666666" points="291.5,-23.75 148.75,-23.75 148.75,-5.25 291.5,-5.25 291.5,-23.75"/>
<text text-anchor="middle" x="220.12" y="-10.25" font-family="Helvetica,sans-Serif" font-size="10.00">FloatingEnergySphereWidget</text>
</a>
</g>
</g>
<!-- Node5&#45;&gt;Node4 -->
<g id="edge43_Node000005_Node000004" class="edge">
<title>Node5&#45;&gt;Node4</title>
<g id="a_edge43_Node000005_Node000004"><a xlink:title=" ">
<path fill="none" stroke="darkgreen" d="M124.49,-14.5C132.42,-14.5 140.53,-14.5 148.5,-14.5"/>
<polygon fill="darkgreen" stroke="darkgreen" points="124.55,-11 114.55,-14.5 124.55,-18 124.55,-11"/>
</a>
</g>
</g>
<!-- Node2 -->
<g id="Node000002" class="node">
<title>Node2</title>
<g id="a_Node000002"><a xlink:title=" ">
<polygon fill="#e0e0e0" stroke="#999999" points="101.5,-81.75 11.25,-81.75 11.25,-63.25 101.5,-63.25 101.5,-81.75"/>
<text text-anchor="middle" x="56.38" y="-68.25" font-family="Helvetica,sans-Serif" font-size="10.00">QOpenGLWidget</text>
</a>
</g>
</g>
<!-- Node2&#45;&gt;Node1 -->
<g id="edge44_Node000002_Node000001" class="edge">
<title>Node2&#45;&gt;Node1</title>
<g id="a_edge44_Node000002_Node000001"><a xlink:title=" ">
<path fill="none" stroke="#63b8ff" d="M92.12,-86.29C109.08,-92.8 129.84,-100.44 148.75,-106.5 158.99,-109.78 170.19,-112.98 180.59,-115.78"/>
<polygon fill="#63b8ff" stroke="#63b8ff" points="93.59,-83.11 83.01,-82.76 91.06,-89.64 93.59,-83.11"/>
</a>
</g>
</g>
<!-- Node2&#45;&gt;Node3 -->
<g id="edge45_Node000002_Node000003" class="edge">
<title>Node2&#45;&gt;Node3</title>
<g id="a_edge45_Node000002_Node000003"><a xlink:title=" ">
<path fill="none" stroke="#63b8ff" d="M112.82,-77.98C128.66,-79.55 145.96,-81.26 161.91,-82.84"/>
<polygon fill="#63b8ff" stroke="#63b8ff" points="113.38,-74.52 103.08,-77.02 112.69,-81.49 113.38,-74.52"/>
</a>
</g>
</g>
<!-- Node2&#45;&gt;Node4 -->
<g id="edge46_Node000002_Node000004" class="edge">
<title>Node2&#45;&gt;Node4</title>
<g id="a_edge46_Node000002_Node000004"><a xlink:title=" ">
<path fill="none" stroke="#63b8ff" d="M87.95,-58.18C105.51,-50.28 128.1,-40.66 148.75,-33.5 158.56,-30.1 169.3,-26.93 179.38,-24.19"/>
<polygon fill="#63b8ff" stroke="#63b8ff" points="86.76,-54.88 79.12,-62.21 89.67,-61.25 86.76,-54.88"/>
</a>
</g>
</g>
<!-- Node6 -->
<g id="Node000006" class="node">
<title>Node6</title>
<g id="a_Node000006"><a xlink:href="classGLTransitionWidget.html" target="_top" xlink:title="An OpenGL widget designed to render smooth, animated slide transitions between two other widgets.">
<polygon fill="white" stroke="#666666" points="270.5,-60.75 169.75,-60.75 169.75,-42.25 270.5,-42.25 270.5,-60.75"/>
<text text-anchor="middle" x="220.12" y="-47.25" font-family="Helvetica,sans-Serif" font-size="10.00">GLTransitionWidget</text>
</a>
</g>
</g>
<!-- Node2&#45;&gt;Node6 -->
<g id="edge47_Node000002_Node000006" class="edge">
<title>Node2&#45;&gt;Node6</title>
<g id="a_edge47_Node000002_Node000006"><a xlink:title=" ">
<path fill="none" stroke="#63b8ff" d="M112.97,-65.28C131.25,-62.91 151.45,-60.29 169.27,-57.97"/>
<polygon fill="#63b8ff" stroke="#63b8ff" points="112.54,-61.81 103.07,-66.57 113.44,-68.75 112.54,-61.81"/>
</a>
</g>
</g>
</g>
</svg>
