<?xml version="1.0" encoding="UTF-8" standalone="no"?>
<!DOCTYPE svg PUBLIC "-//W3C//DTD SVG 1.1//EN"
 "http://www.w3.org/Graphics/SVG/1.1/DTD/svg11.dtd">
<!-- Generated by graphviz version 12.2.1 (0)
 -->
<!-- Title: Graphical Class Hierarchy Pages: 1 -->
<svg width="383pt" height="656pt"
 viewBox="0.00 0.00 383.00 655.50" xmlns="http://www.w3.org/2000/svg" xmlns:xlink="http://www.w3.org/1999/xlink">
<g id="graph0" class="graph" transform="scale(1 1) rotate(0) translate(4 651.5)">
<title>Graphical Class Hierarchy</title>
<!-- Node0 -->
<g id="Node000000" class="node">
<title>Node0</title>
<g id="a_Node000000"><a xlink:title=" ">
<polygon fill="#e0e0e0" stroke="#999999" points="54.25,-332.5 0,-332.5 0,-314 54.25,-314 54.25,-332.5"/>
<text text-anchor="middle" x="27.12" y="-319" font-family="Helvetica,sans-Serif" font-size="10.00">QWidget</text>
</a>
</g>
</g>
<!-- Node1 -->
<g id="Node000001" class="node">
<title>Node1</title>
<g id="a_Node000001"><a xlink:href="classAppearanceSettingsWidget.html" target="_top" xlink:title="A widget for configuring the application&#39;s appearance settings.">
<polygon fill="white" stroke="#666666" points="224.75,-647.5 90.25,-647.5 90.25,-629 224.75,-629 224.75,-647.5"/>
<text text-anchor="middle" x="157.5" y="-634" font-family="Helvetica,sans-Serif" font-size="10.00">AppearanceSettingsWidget</text>
</a>
</g>
</g>
<!-- Node0&#45;&gt;Node1 -->
<g id="edge61_Node000000_Node000001" class="edge">
<title>Node0&#45;&gt;Node1</title>
<g id="a_edge61_Node000000_Node000001"><a xlink:title=" ">
<path fill="none" stroke="#63b8ff" d="M29.74,-344.1C34.86,-404.65 52.6,-578.77 90.25,-619.25 93.75,-623.02 97.95,-626.06 102.51,-628.5"/>
<polygon fill="#63b8ff" stroke="#63b8ff" points="33.24,-343.89 28.94,-334.21 26.26,-344.46 33.24,-343.89"/>
</a>
</g>
</g>
<!-- Node2 -->
<g id="Node000002" class="node">
<title>Node2</title>
<g id="a_Node000002"><a xlink:href="classAttachmentPlaceholder.html" target="_top" xlink:title="A widget that acts as a placeholder for chat attachments before they are loaded.">
<polygon fill="white" stroke="#666666" points="216.12,-610.5 98.88,-610.5 98.88,-592 216.12,-592 216.12,-610.5"/>
<text text-anchor="middle" x="157.5" y="-597" font-family="Helvetica,sans-Serif" font-size="10.00">AttachmentPlaceholder</text>
</a>
</g>
</g>
<!-- Node0&#45;&gt;Node2 -->
<g id="edge62_Node000000_Node000002" class="edge">
<title>Node0&#45;&gt;Node2</title>
<g id="a_edge62_Node000000_Node000002"><a xlink:title=" ">
<path fill="none" stroke="#63b8ff" d="M30.41,-344C36.9,-399.17 57.1,-547.62 90.25,-582.25 93.89,-586.05 98.24,-589.11 102.94,-591.57"/>
<polygon fill="#63b8ff" stroke="#63b8ff" points="33.93,-343.95 29.32,-334.41 26.97,-344.74 33.93,-343.95"/>
</a>
</g>
</g>
<!-- Node3 -->
<g id="Node000003" class="node">
<title>Node3</title>
<g id="a_Node000003"><a xlink:href="classAttachmentViewer.html" target="_top" xlink:title="A widget that displays another widget (content) with a cyberpunk&#45;themed decryption animation.">
<polygon fill="white" stroke="#666666" points="205.25,-573.5 109.75,-573.5 109.75,-555 205.25,-555 205.25,-573.5"/>
<text text-anchor="middle" x="157.5" y="-560" font-family="Helvetica,sans-Serif" font-size="10.00">AttachmentViewer</text>
</a>
</g>
</g>
<!-- Node0&#45;&gt;Node3 -->
<g id="edge63_Node000000_Node000003" class="edge">
<title>Node0&#45;&gt;Node3</title>
<g id="a_edge63_Node000000_Node000003"><a xlink:title=" ">
<path fill="none" stroke="#63b8ff" d="M27.65,-344.22C27.84,-387.92 34.66,-489.3 90.25,-545.25 95.56,-550.6 102.27,-554.46 109.37,-557.25"/>
<polygon fill="#63b8ff" stroke="#63b8ff" points="31.15,-344.39 27.74,-334.36 24.15,-344.33 31.15,-344.39"/>
</a>
</g>
</g>
<!-- Node4 -->
<g id="Node000004" class="node">
<title>Node4</title>
<g id="a_Node000004"><a xlink:href="classAutoScalingAttachment.html" target="_top" xlink:title="A wrapper widget that automatically scales its content (e.g., image, GIF) to fit within the maximum a...">
<polygon fill="white" stroke="#666666" points="216.88,-536.5 98.12,-536.5 98.12,-518 216.88,-518 216.88,-536.5"/>
<text text-anchor="middle" x="157.5" y="-523" font-family="Helvetica,sans-Serif" font-size="10.00">AutoScalingAttachment</text>
</a>
</g>
</g>
<!-- Node0&#45;&gt;Node4 -->
<g id="edge64_Node000000_Node000004" class="edge">
<title>Node0&#45;&gt;Node4</title>
<g id="a_edge64_Node000000_Node000004"><a xlink:title=" ">
<path fill="none" stroke="#63b8ff" d="M29.04,-344.1C31.87,-382.25 43.39,-463.44 90.25,-508.25 94.23,-512.05 98.92,-515.1 103.93,-517.55"/>
<polygon fill="#63b8ff" stroke="#63b8ff" points="32.56,-344.22 28.47,-334.44 25.57,-344.63 32.56,-344.22"/>
</a>
</g>
</g>
<!-- Node5 -->
<g id="Node000005" class="node">
<title>Node5</title>
<g id="a_Node000005"><a xlink:href="classChatView.html" target="_top" xlink:title="The main view for displaying and interacting with a specific Wavelength chat session.">
<polygon fill="white" stroke="#666666" points="186.88,-499.5 128.12,-499.5 128.12,-481 186.88,-481 186.88,-499.5"/>
<text text-anchor="middle" x="157.5" y="-486" font-family="Helvetica,sans-Serif" font-size="10.00">ChatView</text>
</a>
</g>
</g>
<!-- Node0&#45;&gt;Node5 -->
<g id="edge65_Node000000_Node000005" class="edge">
<title>Node0&#45;&gt;Node5</title>
<g id="a_edge65_Node000000_Node000005"><a xlink:title=" ">
<path fill="none" stroke="#63b8ff" d="M31.04,-343.9C36.66,-375.89 51.99,-437.27 90.25,-471.25 100.54,-480.39 114.95,-485.15 127.71,-487.62"/>
<polygon fill="#63b8ff" stroke="#63b8ff" points="34.55,-343.67 29.53,-334.34 27.63,-344.77 34.55,-343.67"/>
</a>
</g>
</g>
<!-- Node6 -->
<g id="Node000006" class="node">
<title>Node6</title>
<g id="a_Node000006"><a xlink:href="classClickableColorPreview.html" target="_top" xlink:title="A small, clickable widget that displays a solid color preview.">
<polygon fill="white" stroke="#666666" points="215,-462.5 100,-462.5 100,-444 215,-444 215,-462.5"/>
<text text-anchor="middle" x="157.5" y="-449" font-family="Helvetica,sans-Serif" font-size="10.00">ClickableColorPreview</text>
</a>
</g>
</g>
<!-- Node0&#45;&gt;Node6 -->
<g id="edge66_Node000000_Node000006" class="edge">
<title>Node0&#45;&gt;Node6</title>
<g id="a_edge66_Node000000_Node000006"><a xlink:title=" ">
<path fill="none" stroke="#63b8ff" d="M34.2,-343.7C42.69,-368.73 60.5,-410.68 90.25,-434.25 95.03,-438.04 100.54,-441.07 106.29,-443.5"/>
<polygon fill="#63b8ff" stroke="#63b8ff" points="37.6,-342.83 31.23,-334.37 30.93,-344.96 37.6,-342.83"/>
</a>
</g>
</g>
<!-- Node7 -->
<g id="Node000007" class="node">
<title>Node7</title>
<g id="a_Node000007"><a xlink:href="classLongTextDisplayEffect.html" target="_top" xlink:title="A custom widget for displaying potentially long text with cyberpunk aesthetics and efficient renderin...">
<polygon fill="white" stroke="#666666" points="214.62,-425.5 100.38,-425.5 100.38,-407 214.62,-407 214.62,-425.5"/>
<text text-anchor="middle" x="157.5" y="-412" font-family="Helvetica,sans-Serif" font-size="10.00">LongTextDisplayEffect</text>
</a>
</g>
</g>
<!-- Node0&#45;&gt;Node7 -->
<g id="edge67_Node000000_Node000007" class="edge">
<title>Node0&#45;&gt;Node7</title>
<g id="a_edge67_Node000000_Node000007"><a xlink:title=" ">
<path fill="none" stroke="#63b8ff" d="M39.35,-342.15C50.3,-358.99 68.46,-383.1 90.25,-397.25 96.07,-401.03 102.65,-404.07 109.36,-406.52"/>
<polygon fill="#63b8ff" stroke="#63b8ff" points="42.56,-340.68 34.3,-334.04 36.62,-344.38 42.56,-340.68"/>
</a>
</g>
</g>
<!-- Node8 -->
<g id="Node000008" class="node">
<title>Node8</title>
<g id="a_Node000008"><a xlink:href="classMaskOverlayEffect.html" target="_top" xlink:title="A custom overlay widget that creates a &quot;reveal&quot; effect using a moving scanline.">
<polygon fill="white" stroke="#666666" points="206.75,-388.5 108.25,-388.5 108.25,-370 206.75,-370 206.75,-388.5"/>
<text text-anchor="middle" x="157.5" y="-375" font-family="Helvetica,sans-Serif" font-size="10.00">MaskOverlayEffect</text>
</a>
</g>
</g>
<!-- Node0&#45;&gt;Node8 -->
<g id="edge68_Node000000_Node000008" class="edge">
<title>Node0&#45;&gt;Node8</title>
<g id="a_edge68_Node000000_Node000008"><a xlink:title=" ">
<path fill="none" stroke="#63b8ff" d="M51.44,-339.09C62.79,-346.28 76.84,-354.45 90.25,-360.25 98.49,-363.81 107.58,-366.92 116.33,-369.53"/>
<polygon fill="#63b8ff" stroke="#63b8ff" points="53.44,-336.21 43.15,-333.68 49.62,-342.08 53.44,-336.21"/>
</a>
</g>
</g>
<!-- Node9 -->
<g id="Node000009" class="node">
<title>Node9</title>
<g id="a_Node000009"><a xlink:href="classNetworkSettingsWidget.html" target="_top" xlink:title="A widget for configuring advanced network settings for the application.">
<polygon fill="white" stroke="#666666" points="217.25,-351.5 97.75,-351.5 97.75,-333 217.25,-333 217.25,-351.5"/>
<text text-anchor="middle" x="157.5" y="-338" font-family="Helvetica,sans-Serif" font-size="10.00">NetworkSettingsWidget</text>
</a>
</g>
</g>
<!-- Node0&#45;&gt;Node9 -->
<g id="edge69_Node000000_Node000009" class="edge">
<title>Node0&#45;&gt;Node9</title>
<g id="a_edge69_Node000000_Node000009"><a xlink:title=" ">
<path fill="none" stroke="#63b8ff" d="M65.81,-328.83C75.72,-330.29 86.64,-331.91 97.38,-333.5"/>
<polygon fill="#63b8ff" stroke="#63b8ff" points="66.63,-325.41 56.22,-327.41 65.6,-332.33 66.63,-325.41"/>
</a>
</g>
</g>
<!-- Node10 -->
<g id="Node000010" class="node">
<title>Node10</title>
<g id="a_Node000010"><a xlink:href="classNetworkStatusWidget.html" target="_top" xlink:title="A widget displaying network connection status and ping time with cyberpunk aesthetics.">
<polygon fill="white" stroke="#666666" points="213.5,-314.5 101.5,-314.5 101.5,-296 213.5,-296 213.5,-314.5"/>
<text text-anchor="middle" x="157.5" y="-301" font-family="Helvetica,sans-Serif" font-size="10.00">NetworkStatusWidget</text>
</a>
</g>
</g>
<!-- Node0&#45;&gt;Node10 -->
<g id="edge70_Node000000_Node000010" class="edge">
<title>Node0&#45;&gt;Node10</title>
<g id="a_edge70_Node000000_Node000010"><a xlink:title=" ">
<path fill="none" stroke="#63b8ff" d="M66.08,-317.93C77.05,-316.39 89.27,-314.68 101.08,-313.02"/>
<polygon fill="#63b8ff" stroke="#63b8ff" points="65.64,-314.46 56.22,-319.31 66.61,-321.39 65.64,-314.46"/>
</a>
</g>
</g>
<!-- Node11 -->
<g id="Node000011" class="node">
<title>Node11</title>
<g id="a_Node000011"><a xlink:href="classOverlayWidget.html" target="_top" xlink:title="A semi&#45;transparent overlay widget used to dim the background content.">
<polygon fill="white" stroke="#666666" points="197.38,-277.5 117.62,-277.5 117.62,-259 197.38,-259 197.38,-277.5"/>
<text text-anchor="middle" x="157.5" y="-264" font-family="Helvetica,sans-Serif" font-size="10.00">OverlayWidget</text>
</a>
</g>
</g>
<!-- Node0&#45;&gt;Node11 -->
<g id="edge71_Node000000_Node000011" class="edge">
<title>Node0&#45;&gt;Node11</title>
<g id="a_edge71_Node000000_Node000011"><a xlink:title=" ">
<path fill="none" stroke="#63b8ff" d="M51.94,-307.6C63.22,-300.68 77.08,-292.85 90.25,-287.25 98.84,-283.6 108.34,-280.41 117.41,-277.73"/>
<polygon fill="#63b8ff" stroke="#63b8ff" points="50.28,-304.51 43.69,-312.8 54.01,-310.43 50.28,-304.51"/>
</a>
</g>
</g>
<!-- Node12 -->
<g id="Node000012" class="node">
<title>Node12</title>
<g id="a_Node000012"><a xlink:href="classSecurityLayer.html" target="_top" xlink:title="Abstract base class for individual security challenge layers.">
<polygon fill="white" stroke="#666666" points="195.12,-240.5 119.88,-240.5 119.88,-222 195.12,-222 195.12,-240.5"/>
<text text-anchor="middle" x="157.5" y="-227" font-family="Helvetica,sans-Serif" font-size="10.00">SecurityLayer</text>
</a>
</g>
</g>
<!-- Node0&#45;&gt;Node12 -->
<g id="edge72_Node000000_Node000012" class="edge">
<title>Node0&#45;&gt;Node12</title>
<g id="a_edge72_Node000000_Node000012"><a xlink:title=" ">
<path fill="none" stroke="#63b8ff" d="M39.59,-304.34C50.59,-287.74 68.7,-264.14 90.25,-250.25 99,-244.61 109.45,-240.61 119.44,-237.79"/>
<polygon fill="#63b8ff" stroke="#63b8ff" points="36.91,-302.03 34.5,-312.34 42.82,-305.79 36.91,-302.03"/>
</a>
</g>
</g>
<!-- Node21 -->
<g id="Node000021" class="node">
<title>Node21</title>
<g id="a_Node000021"><a xlink:href="classSettingsView.html" target="_top" xlink:title="The main view for configuring application settings.">
<polygon fill="white" stroke="#666666" points="194.38,-203.5 120.62,-203.5 120.62,-185 194.38,-185 194.38,-203.5"/>
<text text-anchor="middle" x="157.5" y="-190" font-family="Helvetica,sans-Serif" font-size="10.00">SettingsView</text>
</a>
</g>
</g>
<!-- Node0&#45;&gt;Node21 -->
<g id="edge81_Node000000_Node000021" class="edge">
<title>Node0&#45;&gt;Node21</title>
<g id="a_edge81_Node000000_Node000021"><a xlink:title=" ">
<path fill="none" stroke="#63b8ff" d="M34.25,-302.99C42.8,-278.18 60.66,-236.6 90.25,-213.25 98.89,-206.43 109.88,-202.06 120.41,-199.26"/>
<polygon fill="#63b8ff" stroke="#63b8ff" points="31.01,-301.63 31.27,-312.22 37.67,-303.79 31.01,-301.63"/>
</a>
</g>
</g>
<!-- Node22 -->
<g id="Node000022" class="node">
<title>Node22</title>
<g id="a_Node000022"><a xlink:href="classShortcutsSettingsWidget.html" target="_top" xlink:title="A widget for configuring keyboard shortcuts for various application actions.">
<polygon fill="white" stroke="#666666" points="220.25,-166.5 94.75,-166.5 94.75,-148 220.25,-148 220.25,-166.5"/>
<text text-anchor="middle" x="157.5" y="-153" font-family="Helvetica,sans-Serif" font-size="10.00">ShortcutsSettingsWidget</text>
</a>
</g>
</g>
<!-- Node0&#45;&gt;Node22 -->
<g id="edge82_Node000000_Node000022" class="edge">
<title>Node0&#45;&gt;Node22</title>
<g id="a_edge82_Node000000_Node000022"><a xlink:title=" ">
<path fill="none" stroke="#63b8ff" d="M31.08,-302.74C36.76,-270.96 52.17,-209.99 90.25,-176.25 94.55,-172.44 99.56,-169.39 104.88,-166.95"/>
<polygon fill="#63b8ff" stroke="#63b8ff" points="27.69,-301.79 29.55,-312.22 34.6,-302.91 27.69,-301.79"/>
</a>
</g>
</g>
<!-- Node23 -->
<g id="Node000023" class="node">
<title>Node23</title>
<g id="a_Node000023"><a xlink:href="classStreamDisplay.html" target="_top" xlink:title="A widget that manages and displays messages within a CommunicationStream.">
<polygon fill="white" stroke="#666666" points="197.75,-129.5 117.25,-129.5 117.25,-111 197.75,-111 197.75,-129.5"/>
<text text-anchor="middle" x="157.5" y="-116" font-family="Helvetica,sans-Serif" font-size="10.00">StreamDisplay</text>
</a>
</g>
</g>
<!-- Node0&#45;&gt;Node23 -->
<g id="edge83_Node000000_Node000023" class="edge">
<title>Node0&#45;&gt;Node23</title>
<g id="a_edge83_Node000000_Node000023"><a xlink:title=" ">
<path fill="none" stroke="#63b8ff" d="M29.08,-302.51C31.97,-264.57 43.58,-183.8 90.25,-139.25 97.52,-132.31 107.15,-127.88 116.81,-125.06"/>
<polygon fill="#63b8ff" stroke="#63b8ff" points="25.61,-301.91 28.49,-312.11 32.6,-302.34 25.61,-301.91"/>
</a>
</g>
</g>
<!-- Node24 -->
<g id="Node000024" class="node">
<title>Node24</title>
<g id="a_Node000024"><a xlink:href="classStreamMessage.html" target="_top" xlink:title="A custom widget representing a single message within the CommunicationStream.">
<polygon fill="white" stroke="#666666" points="201.12,-92.5 113.88,-92.5 113.88,-74 201.12,-74 201.12,-92.5"/>
<text text-anchor="middle" x="157.5" y="-79" font-family="Helvetica,sans-Serif" font-size="10.00">StreamMessage</text>
</a>
</g>
</g>
<!-- Node0&#45;&gt;Node24 -->
<g id="edge84_Node000000_Node000024" class="edge">
<title>Node0&#45;&gt;Node24</title>
<g id="a_edge84_Node000000_Node000024"><a xlink:title=" ">
<path fill="none" stroke="#63b8ff" d="M27.68,-302.37C27.93,-258.86 34.86,-157.94 90.25,-102.25 96.58,-95.89 104.89,-91.62 113.47,-88.77"/>
<polygon fill="#63b8ff" stroke="#63b8ff" points="24.18,-302.21 27.75,-312.18 31.18,-302.16 24.18,-302.21"/>
</a>
</g>
</g>
<!-- Node25 -->
<g id="Node000025" class="node">
<title>Node25</title>
<g id="a_Node000025"><a xlink:href="classTextDisplayEffect.html" target="_top" xlink:title="A custom widget that displays text with cyberpunk terminal&#45;style &quot;typing&quot; reveal animation and glitch...">
<polygon fill="white" stroke="#666666" points="204.12,-55.5 110.88,-55.5 110.88,-37 204.12,-37 204.12,-55.5"/>
<text text-anchor="middle" x="157.5" y="-42" font-family="Helvetica,sans-Serif" font-size="10.00">TextDisplayEffect</text>
</a>
</g>
</g>
<!-- Node0&#45;&gt;Node25 -->
<g id="edge85_Node000000_Node000025" class="edge">
<title>Node0&#45;&gt;Node25</title>
<g id="a_edge85_Node000000_Node000025"><a xlink:title=" ">
<path fill="none" stroke="#63b8ff" d="M30.46,-302.23C37.02,-246.99 57.28,-99.67 90.25,-65.25 95.8,-59.46 102.98,-55.4 110.56,-52.56"/>
<polygon fill="#63b8ff" stroke="#63b8ff" points="26.99,-301.79 29.33,-312.13 33.95,-302.59 26.99,-301.79"/>
</a>
</g>
</g>
<!-- Node26 -->
<g id="Node000026" class="node">
<title>Node26</title>
<g id="a_Node000026"><a xlink:href="classWavelengthSettingsWidget.html" target="_top" xlink:title="A widget for configuring Wavelength&#45;specific settings, primarily the preferred start frequency.">
<polygon fill="white" stroke="#666666" points="224,-18.5 91,-18.5 91,0 224,0 224,-18.5"/>
<text text-anchor="middle" x="157.5" y="-5" font-family="Helvetica,sans-Serif" font-size="10.00">WavelengthSettingsWidget</text>
</a>
</g>
</g>
<!-- Node0&#45;&gt;Node26 -->
<g id="edge86_Node000000_Node000026" class="edge">
<title>Node0&#45;&gt;Node26</title>
<g id="a_edge86_Node000000_Node000026"><a xlink:title=" ">
<path fill="none" stroke="#63b8ff" d="M29.79,-302.07C34.98,-241.36 52.79,-68.49 90.25,-28.25 93.84,-24.4 98.15,-21.31 102.83,-18.83"/>
<polygon fill="#63b8ff" stroke="#63b8ff" points="26.3,-301.76 28.97,-312.02 33.28,-302.34 26.3,-301.76"/>
</a>
</g>
</g>
<!-- Node13 -->
<g id="Node000013" class="node">
<title>Node13</title>
<g id="a_Node000013"><a xlink:href="classFingerprintLayer.html" target="_top" xlink:title="A security layer simulating fingerprint authentication.">
<polygon fill="white" stroke="#666666" points="360.75,-369.5 275,-369.5 275,-351 360.75,-351 360.75,-369.5"/>
<text text-anchor="middle" x="317.88" y="-356" font-family="Helvetica,sans-Serif" font-size="10.00">FingerprintLayer</text>
</a>
</g>
</g>
<!-- Node12&#45;&gt;Node13 -->
<g id="edge73_Node000012_Node000013" class="edge">
<title>Node12&#45;&gt;Node13</title>
<g id="a_edge73_Node000012_Node000013"><a xlink:title=" ">
<path fill="none" stroke="#63b8ff" d="M206.28,-239.16C213.03,-241.85 219.46,-245.45 224.75,-250.25 256.97,-279.47 229.23,-311.28 260.75,-341.25 264.78,-345.08 269.6,-348.14 274.71,-350.58"/>
<polygon fill="#63b8ff" stroke="#63b8ff" points="207.57,-235.9 196.97,-236.11 205.38,-242.55 207.57,-235.9"/>
</a>
</g>
</g>
<!-- Node14 -->
<g id="Node000014" class="node">
<title>Node14</title>
<g id="a_Node000014"><a xlink:href="classHandprintLayer.html" target="_top" xlink:title="A security layer simulating handprint authentication.">
<polygon fill="white" stroke="#666666" points="358.5,-332.5 277.25,-332.5 277.25,-314 358.5,-314 358.5,-332.5"/>
<text text-anchor="middle" x="317.88" y="-319" font-family="Helvetica,sans-Serif" font-size="10.00">HandprintLayer</text>
</a>
</g>
</g>
<!-- Node12&#45;&gt;Node14 -->
<g id="edge74_Node000012_Node000014" class="edge">
<title>Node12&#45;&gt;Node14</title>
<g id="a_edge74_Node000012_Node000014"><a xlink:title=" ">
<path fill="none" stroke="#63b8ff" d="M205.89,-240.37C212.59,-242.9 219.11,-246.13 224.75,-250.25 248.04,-267.27 237.87,-286.69 260.75,-304.25 265.65,-308.01 271.33,-311.05 277.16,-313.5"/>
<polygon fill="#63b8ff" stroke="#63b8ff" points="207.35,-237.16 196.76,-237.4 205.19,-243.82 207.35,-237.16"/>
</a>
</g>
</g>
<!-- Node15 -->
<g id="Node000015" class="node">
<title>Node15</title>
<g id="a_Node000015"><a xlink:href="classRetinaScanLayer.html" target="_top" xlink:title="A security layer simulating a retina scan process.">
<polygon fill="white" stroke="#666666" points="362.62,-295.5 273.12,-295.5 273.12,-277 362.62,-277 362.62,-295.5"/>
<text text-anchor="middle" x="317.88" y="-282" font-family="Helvetica,sans-Serif" font-size="10.00">RetinaScanLayer</text>
</a>
</g>
</g>
<!-- Node12&#45;&gt;Node15 -->
<g id="edge75_Node000012_Node000015" class="edge">
<title>Node12&#45;&gt;Node15</title>
<g id="a_edge75_Node000012_Node000015"><a xlink:title=" ">
<path fill="none" stroke="#63b8ff" d="M205.92,-243.84C212.3,-245.83 218.72,-247.98 224.75,-250.25 241.31,-256.49 244.34,-260.62 260.75,-267.25 268.86,-270.52 277.77,-273.72 286.06,-276.53"/>
<polygon fill="#63b8ff" stroke="#63b8ff" points="207.33,-240.6 196.74,-241.09 205.32,-247.31 207.33,-240.6"/>
</a>
</g>
</g>
<!-- Node16 -->
<g id="Node000016" class="node">
<title>Node16</title>
<g id="a_Node000016"><a xlink:href="classSecurityCodeLayer.html" target="_top" xlink:title="A security layer requiring the user to enter a 4&#45;character security code.">
<polygon fill="white" stroke="#666666" points="367.12,-258.5 268.62,-258.5 268.62,-240 367.12,-240 367.12,-258.5"/>
<text text-anchor="middle" x="317.88" y="-245" font-family="Helvetica,sans-Serif" font-size="10.00">SecurityCodeLayer</text>
</a>
</g>
</g>
<!-- Node12&#45;&gt;Node16 -->
<g id="edge76_Node000012_Node000016" class="edge">
<title>Node12&#45;&gt;Node16</title>
<g id="a_edge76_Node000012_Node000016"><a xlink:title=" ">
<path fill="none" stroke="#63b8ff" d="M206.66,-236.72C226.2,-238.94 248.75,-241.51 268.33,-243.73"/>
<polygon fill="#63b8ff" stroke="#63b8ff" points="207.07,-233.25 196.74,-235.6 206.28,-240.2 207.07,-233.25"/>
</a>
</g>
</g>
<!-- Node17 -->
<g id="Node000017" class="node">
<title>Node17</title>
<g id="a_Node000017"><a xlink:href="classSecurityQuestionLayer.html" target="_top" xlink:title="A security layer simulating a security question challenge.">
<polygon fill="white" stroke="#666666" points="375,-221.5 260.75,-221.5 260.75,-203 375,-203 375,-221.5"/>
<text text-anchor="middle" x="317.88" y="-208" font-family="Helvetica,sans-Serif" font-size="10.00">SecurityQuestionLayer</text>
</a>
</g>
</g>
<!-- Node12&#45;&gt;Node17 -->
<g id="edge77_Node000012_Node000017" class="edge">
<title>Node12&#45;&gt;Node17</title>
<g id="a_edge77_Node000012_Node000017"><a xlink:title=" ">
<path fill="none" stroke="#63b8ff" d="M206.59,-225.48C223.59,-223.44 242.86,-221.13 260.48,-219.02"/>
<polygon fill="#63b8ff" stroke="#63b8ff" points="206.25,-222 196.74,-226.66 207.08,-228.95 206.25,-222"/>
</a>
</g>
</g>
<!-- Node18 -->
<g id="Node000018" class="node">
<title>Node18</title>
<g id="a_Node000018"><a xlink:href="classSnakeGameLayer.html" target="_top" xlink:title="A security layer implementing a classic Snake game as a challenge.">
<polygon fill="white" stroke="#666666" points="364.12,-184.5 271.62,-184.5 271.62,-166 364.12,-166 364.12,-184.5"/>
<text text-anchor="middle" x="317.88" y="-171" font-family="Helvetica,sans-Serif" font-size="10.00">SnakeGameLayer</text>
</a>
</g>
</g>
<!-- Node12&#45;&gt;Node18 -->
<g id="edge78_Node000012_Node000018" class="edge">
<title>Node12&#45;&gt;Node18</title>
<g id="a_edge78_Node000012_Node000018"><a xlink:title=" ">
<path fill="none" stroke="#63b8ff" d="M205.97,-218.79C212.35,-216.78 218.75,-214.59 224.75,-212.25 241.42,-205.76 244.24,-201.13 260.75,-194.25 268.73,-190.92 277.51,-187.74 285.71,-184.95"/>
<polygon fill="#63b8ff" stroke="#63b8ff" points="205.37,-215.32 196.8,-221.55 207.38,-222.02 205.37,-215.32"/>
</a>
</g>
</g>
<!-- Node19 -->
<g id="Node000019" class="node">
<title>Node19</title>
<g id="a_Node000019"><a xlink:href="classTypingTestLayer.html" target="_top" xlink:title="A security layer implementing a typing verification test.">
<polygon fill="white" stroke="#666666" points="361.12,-147.5 274.62,-147.5 274.62,-129 361.12,-129 361.12,-147.5"/>
<text text-anchor="middle" x="317.88" y="-134" font-family="Helvetica,sans-Serif" font-size="10.00">TypingTestLayer</text>
</a>
</g>
</g>
<!-- Node12&#45;&gt;Node19 -->
<g id="edge79_Node000012_Node000019" class="edge">
<title>Node12&#45;&gt;Node19</title>
<g id="a_edge79_Node000012_Node000019"><a xlink:title=" ">
<path fill="none" stroke="#63b8ff" d="M205.92,-222.18C212.62,-219.64 219.12,-216.4 224.75,-212.25 248.27,-194.91 237.65,-175.14 260.75,-157.25 265.63,-153.47 271.31,-150.42 277.14,-147.96"/>
<polygon fill="#63b8ff" stroke="#63b8ff" points="205.22,-218.73 196.79,-225.14 207.38,-225.38 205.22,-218.73"/>
</a>
</g>
</g>
<!-- Node20 -->
<g id="Node000020" class="node">
<title>Node20</title>
<g id="a_Node000020"><a xlink:href="classVoiceRecognitionLayer.html" target="_top" xlink:title="A security layer simulating voice recognition verification.">
<polygon fill="white" stroke="#666666" points="375,-110.5 260.75,-110.5 260.75,-92 375,-92 375,-110.5"/>
<text text-anchor="middle" x="317.88" y="-97" font-family="Helvetica,sans-Serif" font-size="10.00">VoiceRecognitionLayer</text>
</a>
</g>
</g>
<!-- Node12&#45;&gt;Node20 -->
<g id="edge80_Node000012_Node000020" class="edge">
<title>Node12&#45;&gt;Node20</title>
<g id="a_edge80_Node000012_Node000020"><a xlink:title=" ">
<path fill="none" stroke="#63b8ff" d="M206.3,-223.35C213.04,-220.66 219.47,-217.06 224.75,-212.25 257.22,-182.69 228.99,-150.57 260.75,-120.25 264.77,-116.41 269.59,-113.35 274.69,-110.91"/>
<polygon fill="#63b8ff" stroke="#63b8ff" points="205.4,-219.96 196.99,-226.41 207.58,-226.61 205.4,-219.96"/>
</a>
</g>
</g>
</g>
</svg>
