<?xml version="1.0" encoding="UTF-8" standalone="no"?>
<!DOCTYPE svg PUBLIC "-//W3C//DTD SVG 1.1//EN"
 "http://www.w3.org/Graphics/SVG/1.1/DTD/svg11.dtd">
<!-- Generated by graphviz version 12.2.1 (0)
 -->
<!-- Title: Graphical Class Hierarchy Pages: 1 -->
<svg width="179pt" height="101pt"
 viewBox="0.00 0.00 178.75 100.50" xmlns="http://www.w3.org/2000/svg" xmlns:xlink="http://www.w3.org/1999/xlink">
<g id="graph0" class="graph" transform="scale(1 1) rotate(0) translate(4 96.5)">
<title>Graphical Class Hierarchy</title>
<!-- Node0 -->
<g id="Node000000" class="node">
<title>Node0</title>
<g id="a_Node000000"><a xlink:href="classBlobState.html" target="_top" xlink:title="Abstract base class defining the interface for different blob animation states.">
<polygon fill="white" stroke="#666666" points="58.75,-55.5 0,-55.5 0,-37 58.75,-37 58.75,-55.5"/>
<text text-anchor="middle" x="29.38" y="-42" font-family="Helvetica,sans-Serif" font-size="10.00">BlobState</text>
</a>
</g>
</g>
<!-- Node1 -->
<g id="Node000001" class="node">
<title>Node1</title>
<g id="a_Node000001"><a xlink:href="classIdleState.html" target="_top" xlink:title="Implements the Idle state behavior for the Blob animation.">
<polygon fill="white" stroke="#666666" points="160.25,-92.5 105.25,-92.5 105.25,-74 160.25,-74 160.25,-92.5"/>
<text text-anchor="middle" x="132.75" y="-79" font-family="Helvetica,sans-Serif" font-size="10.00">IdleState</text>
</a>
</g>
</g>
<!-- Node0&#45;&gt;Node1 -->
<g id="edge1_Node000000_Node000001" class="edge">
<title>Node0&#45;&gt;Node1</title>
<g id="a_edge1_Node000000_Node000001"><a xlink:title=" ">
<path fill="none" stroke="#63b8ff" d="M67.61,-59.84C80.11,-64.4 93.79,-69.4 105.29,-73.59"/>
<polygon fill="#63b8ff" stroke="#63b8ff" points="69.03,-56.63 58.43,-56.49 66.63,-63.21 69.03,-56.63"/>
</a>
</g>
</g>
<!-- Node2 -->
<g id="Node000002" class="node">
<title>Node2</title>
<g id="a_Node000002"><a xlink:href="classMovingState.html" target="_top" xlink:title="Implements the Moving state behavior for the Blob animation.">
<polygon fill="white" stroke="#666666" points="168.12,-55.5 97.38,-55.5 97.38,-37 168.12,-37 168.12,-55.5"/>
<text text-anchor="middle" x="132.75" y="-42" font-family="Helvetica,sans-Serif" font-size="10.00">MovingState</text>
</a>
</g>
</g>
<!-- Node0&#45;&gt;Node2 -->
<g id="edge2_Node000000_Node000002" class="edge">
<title>Node0&#45;&gt;Node2</title>
<g id="a_edge2_Node000000_Node000002"><a xlink:title=" ">
<path fill="none" stroke="#63b8ff" d="M70.41,-46.25C79.25,-46.25 88.54,-46.25 97.14,-46.25"/>
<polygon fill="#63b8ff" stroke="#63b8ff" points="70.67,-42.75 60.67,-46.25 70.67,-49.75 70.67,-42.75"/>
</a>
</g>
</g>
<!-- Node3 -->
<g id="Node000003" class="node">
<title>Node3</title>
<g id="a_Node000003"><a xlink:href="classResizingState.html" target="_top" xlink:title="Implements the Resizing state behavior for the Blob animation.">
<polygon fill="white" stroke="#666666" points="170.75,-18.5 94.75,-18.5 94.75,0 170.75,0 170.75,-18.5"/>
<text text-anchor="middle" x="132.75" y="-5" font-family="Helvetica,sans-Serif" font-size="10.00">ResizingState</text>
</a>
</g>
</g>
<!-- Node0&#45;&gt;Node3 -->
<g id="edge3_Node000000_Node000003" class="edge">
<title>Node0&#45;&gt;Node3</title>
<g id="a_edge3_Node000000_Node000003"><a xlink:title=" ">
<path fill="none" stroke="#63b8ff" d="M67.61,-32.66C80.11,-28.1 93.79,-23.1 105.29,-18.91"/>
<polygon fill="#63b8ff" stroke="#63b8ff" points="66.63,-29.29 58.43,-36.01 69.03,-35.87 66.63,-29.29"/>
</a>
</g>
</g>
</g>
</svg>
