<?xml version="1.0" encoding="UTF-8" standalone="no"?>
<!DOCTYPE svg PUBLIC "-//W3C//DTD SVG 1.1//EN"
 "http://www.w3.org/Graphics/SVG/1.1/DTD/svg11.dtd">
<!-- Generated by graphviz version 12.2.1 (0)
 -->
<!-- Title: Graphical Class Hierarchy Pages: 1 -->
<svg width="184pt" height="64pt"
 viewBox="0.00 0.00 184.00 63.50" xmlns="http://www.w3.org/2000/svg" xmlns:xlink="http://www.w3.org/1999/xlink">
<g id="graph0" class="graph" transform="scale(1 1) rotate(0) translate(4 59.5)">
<title>Graphical Class Hierarchy</title>
<!-- Node0 -->
<g id="Node000000" class="node">
<title>Node0</title>
<g id="a_Node000000"><a xlink:title=" ">
<polygon fill="#e0e0e0" stroke="#999999" points="48.25,-36.5 0,-36.5 0,-18 48.25,-18 48.25,-36.5"/>
<text text-anchor="middle" x="24.12" y="-23" font-family="Helvetica,sans-Serif" font-size="10.00">QSlider</text>
</a>
</g>
</g>
<!-- Node1 -->
<g id="Node000001" class="node">
<title>Node1</title>
<g id="a_Node000001"><a xlink:href="classCyberAudioSlider.html" target="_top" xlink:title="A custom QSlider styled with a cyberpunk aesthetic, specifically themed for audio controls.">
<polygon fill="white" stroke="#666666" points="176,-55.5 84.25,-55.5 84.25,-37 176,-37 176,-55.5"/>
<text text-anchor="middle" x="130.12" y="-42" font-family="Helvetica,sans-Serif" font-size="10.00">CyberAudioSlider</text>
</a>
</g>
</g>
<!-- Node0&#45;&gt;Node1 -->
<g id="edge54_Node000000_Node000001" class="edge">
<title>Node0&#45;&gt;Node1</title>
<g id="a_edge54_Node000000_Node000001"><a xlink:title=" ">
<path fill="none" stroke="#63b8ff" d="M59.88,-33.6C67.58,-35.01 75.85,-36.52 83.9,-37.99"/>
<polygon fill="#63b8ff" stroke="#63b8ff" points="60.68,-30.19 50.21,-31.83 59.42,-37.07 60.68,-30.19"/>
</a>
</g>
</g>
<!-- Node2 -->
<g id="Node000002" class="node">
<title>Node2</title>
<g id="a_Node000002"><a xlink:href="classCyberSlider.html" target="_top" xlink:title="A custom QSlider styled with a general cyberpunk aesthetic (blue theme).">
<polygon fill="white" stroke="#666666" points="163.62,-18.5 96.62,-18.5 96.62,0 163.62,0 163.62,-18.5"/>
<text text-anchor="middle" x="130.12" y="-5" font-family="Helvetica,sans-Serif" font-size="10.00">CyberSlider</text>
</a>
</g>
</g>
<!-- Node0&#45;&gt;Node2 -->
<g id="edge55_Node000000_Node000002" class="edge">
<title>Node0&#45;&gt;Node2</title>
<g id="a_edge55_Node000000_Node000002"><a xlink:title=" ">
<path fill="none" stroke="#63b8ff" d="M59.88,-21.23C71.59,-19.21 84.6,-16.96 96.16,-14.96"/>
<polygon fill="#63b8ff" stroke="#63b8ff" points="59.47,-17.75 50.22,-22.91 60.67,-24.65 59.47,-17.75"/>
</a>
</g>
</g>
</g>
</svg>
