<?xml version="1.0" encoding="UTF-8" standalone="no"?>
<!DOCTYPE svg PUBLIC "-//W3C//DTD SVG 1.1//EN"
 "http://www.w3.org/Graphics/SVG/1.1/DTD/svg11.dtd">
<!-- Generated by graphviz version 12.2.1 (0)
 -->
<!-- Title: Graphical Class Hierarchy Pages: 1 -->
<svg width="340pt" height="82pt"
 viewBox="0.00 0.00 339.50 81.50" xmlns="http://www.w3.org/2000/svg" xmlns:xlink="http://www.w3.org/1999/xlink">
<g id="graph0" class="graph" transform="scale(1 1) rotate(0) translate(4 77.5)">
<title>Graphical Class Hierarchy</title>
<!-- Node0 -->
<g id="Node000000" class="node">
<title>Node0</title>
<g id="a_Node000000"><a xlink:title=" ">
<polygon fill="#e0e0e0" stroke="#999999" points="51.25,-36.5 0,-36.5 0,-18 51.25,-18 51.25,-36.5"/>
<text text-anchor="middle" x="25.62" y="-23" font-family="Helvetica,sans-Serif" font-size="10.00">QDialog</text>
</a>
</g>
</g>
<!-- Node1 -->
<g id="Node000001" class="node">
<title>Node1</title>
<g id="a_Node000001"><a xlink:href="classAnimatedDialog.html" target="_top" xlink:title="A base class for QDialogs that adds animated transitions for showing and closing.">
<polygon fill="white" stroke="#666666" points="172.25,-55.5 87.25,-55.5 87.25,-37 172.25,-37 172.25,-55.5"/>
<text text-anchor="middle" x="129.75" y="-42" font-family="Helvetica,sans-Serif" font-size="10.00">AnimatedDialog</text>
</a>
</g>
</g>
<!-- Node0&#45;&gt;Node1 -->
<g id="edge5_Node000000_Node000001" class="edge">
<title>Node0&#45;&gt;Node1</title>
<g id="a_edge5_Node000000_Node000001"><a xlink:title=" ">
<path fill="none" stroke="#63b8ff" d="M62.91,-34C70.68,-35.45 78.95,-36.99 86.91,-38.47"/>
<polygon fill="#63b8ff" stroke="#63b8ff" points="63.57,-30.56 53.1,-32.17 62.29,-37.44 63.57,-30.56"/>
</a>
</g>
</g>
<!-- Node4 -->
<g id="Node000004" class="node">
<title>Node4</title>
<g id="a_Node000004"><a xlink:href="classVideoPlayer.html" target="_top" xlink:title="A QDialog overlay for playing videos with a cyberpunk aesthetic.">
<polygon fill="white" stroke="#666666" points="163.62,-18.5 95.88,-18.5 95.88,0 163.62,0 163.62,-18.5"/>
<text text-anchor="middle" x="129.75" y="-5" font-family="Helvetica,sans-Serif" font-size="10.00">VideoPlayer</text>
</a>
</g>
</g>
<!-- Node0&#45;&gt;Node4 -->
<g id="edge8_Node000000_Node000004" class="edge">
<title>Node0&#45;&gt;Node4</title>
<g id="a_edge8_Node000000_Node000004"><a xlink:title=" ">
<path fill="none" stroke="#63b8ff" d="M62.72,-20.89C73.41,-19 85.05,-16.95 95.54,-15.1"/>
<polygon fill="#63b8ff" stroke="#63b8ff" points="62.34,-17.4 53.1,-22.58 63.55,-24.29 62.34,-17.4"/>
</a>
</g>
</g>
<!-- Node2 -->
<g id="Node000002" class="node">
<title>Node2</title>
<g id="a_Node000002"><a xlink:href="classCreateWavelengthDialog.html" target="_top" xlink:title="A dialog window for creating a new Wavelength frequency.">
<polygon fill="white" stroke="#666666" points="331.5,-73.5 208.25,-73.5 208.25,-55 331.5,-55 331.5,-73.5"/>
<text text-anchor="middle" x="269.88" y="-60" font-family="Helvetica,sans-Serif" font-size="10.00">CreateWavelengthDialog</text>
</a>
</g>
</g>
<!-- Node1&#45;&gt;Node2 -->
<g id="edge6_Node000001_Node000002" class="edge">
<title>Node1&#45;&gt;Node2</title>
<g id="a_edge6_Node000001_Node000002"><a xlink:title=" ">
<path fill="none" stroke="#63b8ff" d="M183.82,-53.17C191.68,-54.19 199.83,-55.25 207.84,-56.3"/>
<polygon fill="#63b8ff" stroke="#63b8ff" points="184.44,-49.72 174.07,-51.9 183.53,-56.66 184.44,-49.72"/>
</a>
</g>
</g>
<!-- Node3 -->
<g id="Node000003" class="node">
<title>Node3</title>
<g id="a_Node000003"><a xlink:href="classJoinWavelengthDialog.html" target="_top" xlink:title="A dialog window for joining an existing Wavelength frequency.">
<polygon fill="white" stroke="#666666" points="325.88,-36.5 213.88,-36.5 213.88,-18 325.88,-18 325.88,-36.5"/>
<text text-anchor="middle" x="269.88" y="-23" font-family="Helvetica,sans-Serif" font-size="10.00">JoinWavelengthDialog</text>
</a>
</g>
</g>
<!-- Node1&#45;&gt;Node3 -->
<g id="edge7_Node000001_Node000003" class="edge">
<title>Node1&#45;&gt;Node3</title>
<g id="a_edge7_Node000001_Node000003"><a xlink:title=" ">
<path fill="none" stroke="#63b8ff" d="M183.73,-38.96C193.45,-37.62 203.63,-36.23 213.42,-34.88"/>
<polygon fill="#63b8ff" stroke="#63b8ff" points="183.5,-35.46 174.07,-40.29 184.45,-42.4 183.5,-35.46"/>
</a>
</g>
</g>
</g>
</svg>
