<?xml version="1.0" encoding="UTF-8" standalone="no"?>
<!DOCTYPE svg PUBLIC "-//W3C//DTD SVG 1.1//EN"
 "http://www.w3.org/Graphics/SVG/1.1/DTD/svg11.dtd">
<!-- Generated by graphviz version 12.2.1 (0)
 -->
<!-- Title: src/ui/chat/effects/mask_overlay_effect.h Pages: 1 -->
<svg width="266pt" height="102pt"
 viewBox="0.00 0.00 265.50 102.00" xmlns="http://www.w3.org/2000/svg" xmlns:xlink="http://www.w3.org/1999/xlink">
<g id="graph0" class="graph" transform="scale(1 1) rotate(0) translate(4 98)">
<title>src/ui/chat/effects/mask_overlay_effect.h</title>
<!-- Node1 -->
<g id="Node000001" class="node">
<title>Node1</title>
<g id="a_Node000001"><a xlink:title=" ">
<polygon fill="#999999" stroke="#666666" points="190,-94 74.25,-94 74.25,-65 190,-65 190,-94"/>
<text text-anchor="start" x="82.25" y="-80.5" font-family="Helvetica,sans-Serif" font-size="10.00">src/ui/chat/effects</text>
<text text-anchor="middle" x="132.12" y="-70" font-family="Helvetica,sans-Serif" font-size="10.00">/mask_overlay_effect.h</text>
</a>
</g>
</g>
<!-- Node2 -->
<g id="Node000002" class="node">
<title>Node2</title>
<g id="a_Node000002"><a xlink:href="mask__overlay__effect_8cpp.html" target="_top" xlink:title=" ">
<polygon fill="white" stroke="#666666" points="126.25,-29 0,-29 0,0 126.25,0 126.25,-29"/>
<text text-anchor="start" x="8" y="-15.5" font-family="Helvetica,sans-Serif" font-size="10.00">src/ui/chat/effects</text>
<text text-anchor="middle" x="63.12" y="-5" font-family="Helvetica,sans-Serif" font-size="10.00">/mask_overlay_effect.cpp</text>
</a>
</g>
</g>
<!-- Node1&#45;&gt;Node2 -->
<g id="edge1_Node000001_Node000002" class="edge">
<title>Node1&#45;&gt;Node2</title>
<g id="a_edge1_Node000001_Node000002"><a xlink:title=" ">
<path fill="none" stroke="#63b8ff" d="M108.5,-56.93C98.54,-47.84 87.23,-37.51 78.4,-29.44"/>
<polygon fill="#63b8ff" stroke="#63b8ff" points="105.95,-59.34 115.69,-63.5 110.67,-54.17 105.95,-59.34"/>
</a>
</g>
</g>
<!-- Node3 -->
<g id="Node000003" class="node">
<title>Node3</title>
<g id="a_Node000003"><a xlink:href="attachment__viewer_8cpp.html" target="_top" xlink:title=" ">
<polygon fill="white" stroke="#666666" points="257.5,-29 144.75,-29 144.75,0 257.5,0 257.5,-29"/>
<text text-anchor="start" x="152.75" y="-15.5" font-family="Helvetica,sans-Serif" font-size="10.00">src/ui/files/attachment</text>
<text text-anchor="middle" x="201.12" y="-5" font-family="Helvetica,sans-Serif" font-size="10.00">_viewer.cpp</text>
</a>
</g>
</g>
<!-- Node1&#45;&gt;Node3 -->
<g id="edge2_Node000001_Node000003" class="edge">
<title>Node1&#45;&gt;Node3</title>
<g id="a_edge2_Node000001_Node000003"><a xlink:title=" ">
<path fill="none" stroke="#63b8ff" d="M155.75,-56.93C165.71,-47.84 177.02,-37.51 185.85,-29.44"/>
<polygon fill="#63b8ff" stroke="#63b8ff" points="153.58,-54.17 148.56,-63.5 158.3,-59.34 153.58,-54.17"/>
</a>
</g>
</g>
</g>
</svg>
