<?xml version="1.0" encoding="UTF-8" standalone="no"?>
<!DOCTYPE svg PUBLIC "-//W3C//DTD SVG 1.1//EN"
 "http://www.w3.org/Graphics/SVG/1.1/DTD/svg11.dtd">
<!-- Generated by graphviz version 12.2.1 (0)
 -->
<!-- Title: src/chat/messages/services/message_service.cpp Pages: 1 -->
<!--zoomable 157 -->

<svg id="main" version="1.1" xmlns="http://www.w3.org/2000/svg" xmlns:xlink="http://www.w3.org/1999/xlink" xml:space="preserve" onload="init(evt)">

<style type="text/css"><![CDATA[
.node, .edge {opacity: 0.7;}
.node.selected, .edge.selected {opacity: 1;}
.edge:hover path { stroke: red; }
.edge:hover polygon { stroke: red; fill: red; }
]]></style>

<defs>
  <circle id="rim" cx="0" cy="0" r="7"/>
  <circle id="rim2" cx="0" cy="0" r="3.5"/>
  <g id="zoomPlus">
    <use xlink:href="#rim" fill="#404040"><set attributeName="fill" to="#808080" begin="zoomplus.mouseover" end="zoomplus.mouseout"/></use>
    <path d="M-4,0h8M0,-4v8" fill="none" stroke="white" stroke-width="1.5" pointer-events="none"/>
  </g>
  <g id="zoomMin">
    <use xlink:href="#rim" fill="#404040"><set attributeName="fill" to="#808080" begin="zoomminus.mouseover" end="zoomminus.mouseout"/></use>
    <path d="M-4,0h8" fill="none" stroke="white" stroke-width="1.5" pointer-events="none"/>
  </g>
  <g id="arrowUp" transform="translate(30 24)">
    <use xlink:href="#rim"/>
    <path pointer-events="none" fill="none" stroke="white" stroke-width="1.5" d="M0,-3.0v7 M-2.5,-0.5L0,-3.0L2.5,-0.5"/>
  </g>
  <g id="arrowRight" transform="rotate(90) translate(36 -43)">
    <use xlink:href="#rim"/>
    <path pointer-events="none" fill="none" stroke="white" stroke-width="1.5" d="M0,-3.0v7 M-2.5,-0.5L0,-3.0L2.5,-0.5"/>
  </g>
  <g id="arrowDown" transform="rotate(180) translate(-30 -48)">
    <use xlink:href="#rim"/>
    <path pointer-events="none" fill="none" stroke="white" stroke-width="1.5" d="M0,-3.0v7 M-2.5,-0.5L0,-3.0L2.5,-0.5"/>
  </g>
  <g id="arrowLeft" transform="rotate(270) translate(-36 17)">
    <use xlink:href="#rim"/>
    <path pointer-events="none" fill="none" stroke="white" stroke-width="1.5" d="M0,-3.0v7 M-2.5,-0.5L0,-3.0L2.5,-0.5"/>
  </g>
  <g id="resetDef">
    <use xlink:href="#rim2" fill="#404040"><set attributeName="fill" to="#808080" begin="reset.mouseover" end="reset.mouseout"/></use>
  </g>
</defs>
<script type="application/ecmascript">
var viewWidth = 1152;
var viewHeight = 157;
var sectionId = 'dynsection-0';
</script>
<script type="application/ecmascript" xlink:href="svg.min.js"/>
<svg id="graph" class="graph">
<g id="viewport">
<title>src/chat/messages/services/message_service.cpp</title>
<!-- Node1 -->
<g id="Node000001" class="node">
<title>Node1</title>
<g id="a_Node000001"><a xlink:title=" ">
<polygon fill="#999999" stroke="#666666" points="719.62,-148.5 579.88,-148.5 579.88,-119.5 719.62,-119.5 719.62,-148.5"/>
<text text-anchor="start" x="587.88" y="-135" font-family="Helvetica,sans-Serif" font-size="10.00">src/chat/messages/services</text>
<text text-anchor="middle" x="649.75" y="-124.5" font-family="Helvetica,sans-Serif" font-size="10.00">/message_service.cpp</text>
</a>
</g>
</g>
<!-- Node2 -->
<g id="Node000002" class="node">
<title>Node2</title>
<g id="a_Node000002"><a xlink:href="message__service_8h.html" target="_top" xlink:title=" ">
<polygon fill="white" stroke="#666666" points="245.5,-78.25 144,-78.25 144,-59.75 245.5,-59.75 245.5,-78.25"/>
<text text-anchor="middle" x="194.75" y="-64.75" font-family="Helvetica,sans-Serif" font-size="10.00">message_service.h</text>
</a>
</g>
</g>
<!-- Node1&#45;&gt;Node2 -->
<g id="edge1_Node000001_Node000002" class="edge">
<title>Node1&#45;&gt;Node2</title>
<g id="a_edge1_Node000001_Node000002"><a xlink:title=" ">
<path fill="none" stroke="#63b8ff" d="M579.69,-126.39C500.3,-118.41 367.18,-103.51 253.75,-83.5 249.68,-82.78 245.47,-81.97 241.26,-81.1"/>
<polygon fill="#63b8ff" stroke="#63b8ff" points="242.19,-77.72 231.68,-79.04 240.72,-84.56 242.19,-77.72"/>
</a>
</g>
</g>
<!-- Node5 -->
<g id="Node000005" class="node">
<title>Node5</title>
<g id="a_Node000005"><a xlink:title=" ">
<polygon fill="#e0e0e0" stroke="#999999" points="739.75,-78.25 681.75,-78.25 681.75,-59.75 739.75,-59.75 739.75,-78.25"/>
<text text-anchor="middle" x="710.75" y="-64.75" font-family="Helvetica,sans-Serif" font-size="10.00">qfileinfo.h</text>
</a>
</g>
</g>
<!-- Node1&#45;&gt;Node5 -->
<g id="edge4_Node000001_Node000005" class="edge">
<title>Node1&#45;&gt;Node5</title>
<g id="a_edge4_Node000001_Node000005"><a xlink:title=" ">
<path fill="none" stroke="#63b8ff" d="M663.29,-119.02C672.52,-109.49 684.79,-96.81 694.54,-86.74"/>
<polygon fill="#63b8ff" stroke="#63b8ff" points="696.83,-89.41 701.27,-79.79 691.8,-84.54 696.83,-89.41"/>
</a>
</g>
</g>
<!-- Node6 -->
<g id="Node000006" class="node">
<title>Node6</title>
<g id="a_Node000006"><a xlink:title=" ">
<polygon fill="#e0e0e0" stroke="#999999" points="847.5,-78.25 758,-78.25 758,-59.75 847.5,-59.75 847.5,-78.25"/>
<text text-anchor="middle" x="802.75" y="-64.75" font-family="Helvetica,sans-Serif" font-size="10.00">QJsonDocument</text>
</a>
</g>
</g>
<!-- Node1&#45;&gt;Node6 -->
<g id="edge5_Node000001_Node000006" class="edge">
<title>Node1&#45;&gt;Node6</title>
<g id="a_edge5_Node000001_Node000006"><a xlink:title=" ">
<path fill="none" stroke="#63b8ff" d="M683.71,-119.02C709.78,-108.28 745.52,-93.56 771.02,-83.06"/>
<polygon fill="#63b8ff" stroke="#63b8ff" points="772.29,-86.33 780.21,-79.28 769.63,-79.85 772.29,-86.33"/>
</a>
</g>
</g>
<!-- Node7 -->
<g id="Node000007" class="node">
<title>Node7</title>
<g id="a_Node000007"><a xlink:title=" ">
<polygon fill="#e0e0e0" stroke="#999999" points="919.5,-78.25 866,-78.25 866,-59.75 919.5,-59.75 919.5,-78.25"/>
<text text-anchor="middle" x="892.75" y="-64.75" font-family="Helvetica,sans-Serif" font-size="10.00">QThread</text>
</a>
</g>
</g>
<!-- Node1&#45;&gt;Node7 -->
<g id="edge6_Node000001_Node000007" class="edge">
<title>Node1&#45;&gt;Node7</title>
<g id="a_edge6_Node000001_Node000007"><a xlink:title=" ">
<path fill="none" stroke="#63b8ff" d="M717.44,-119.04C758.15,-110.09 810.81,-97.55 856.75,-83.5 857.9,-83.15 859.06,-82.78 860.24,-82.4"/>
<polygon fill="#63b8ff" stroke="#63b8ff" points="861.09,-85.81 869.38,-79.22 858.79,-79.2 861.09,-85.81"/>
</a>
</g>
</g>
<!-- Node8 -->
<g id="Node000008" class="node">
<title>Node8</title>
<g id="a_Node000008"><a xlink:title=" ">
<polygon fill="#e0e0e0" stroke="#999999" points="985.88,-78.25 937.62,-78.25 937.62,-59.75 985.88,-59.75 985.88,-78.25"/>
<text text-anchor="middle" x="961.75" y="-64.75" font-family="Helvetica,sans-Serif" font-size="10.00">QTimer</text>
</a>
</g>
</g>
<!-- Node1&#45;&gt;Node8 -->
<g id="edge7_Node000001_Node000008" class="edge">
<title>Node1&#45;&gt;Node8</title>
<g id="a_edge7_Node000001_Node000008"><a xlink:title=" ">
<path fill="none" stroke="#63b8ff" d="M720.06,-124.74C777.05,-117.05 859.05,-103.69 928.75,-83.5 929.74,-83.21 930.74,-82.91 931.74,-82.59"/>
<polygon fill="#63b8ff" stroke="#63b8ff" points="932.82,-85.92 941.03,-79.21 930.43,-79.34 932.82,-85.92"/>
</a>
</g>
</g>
<!-- Node9 -->
<g id="Node000009" class="node">
<title>Node9</title>
<g id="a_Node000009"><a xlink:href="translation__manager_8h.html" target="_top" xlink:title=" ">
<polygon fill="white" stroke="#666666" points="495.25,-83.5 380.25,-83.5 380.25,-54.5 495.25,-54.5 495.25,-83.5"/>
<text text-anchor="start" x="388.25" y="-70" font-family="Helvetica,sans-Serif" font-size="10.00">../../../app/managers</text>
<text text-anchor="middle" x="437.75" y="-59.5" font-family="Helvetica,sans-Serif" font-size="10.00">/translation_manager.h</text>
</a>
</g>
</g>
<!-- Node1&#45;&gt;Node9 -->
<g id="edge8_Node000001_Node000009" class="edge">
<title>Node1&#45;&gt;Node9</title>
<g id="a_edge8_Node000001_Node000009"><a xlink:title=" ">
<path fill="none" stroke="#63b8ff" d="M602.7,-119.02C571,-109.6 528.98,-97.11 495.29,-87.1"/>
<polygon fill="#63b8ff" stroke="#63b8ff" points="496.7,-83.87 486.12,-84.37 494.71,-90.58 496.7,-83.87"/>
</a>
</g>
</g>
<!-- Node12 -->
<g id="Node000012" class="node">
<title>Node12</title>
<g id="a_Node000012"><a xlink:href="authentication__manager_8h.html" target="_top" xlink:title=" ">
<polygon fill="white" stroke="#666666" points="125.5,-83.5 0,-83.5 0,-54.5 125.5,-54.5 125.5,-83.5"/>
<text text-anchor="start" x="8" y="-70" font-family="Helvetica,sans-Serif" font-size="10.00">../../../auth/authentication</text>
<text text-anchor="middle" x="62.75" y="-59.5" font-family="Helvetica,sans-Serif" font-size="10.00">_manager.h</text>
</a>
</g>
</g>
<!-- Node1&#45;&gt;Node12 -->
<g id="edge12_Node000001_Node000012" class="edge">
<title>Node1&#45;&gt;Node12</title>
<g id="a_edge12_Node000001_Node000012"><a xlink:title=" ">
<path fill="none" stroke="#63b8ff" d="M579.54,-128.25C482.43,-121.24 301.42,-106.58 137.2,-83.76"/>
<polygon fill="#63b8ff" stroke="#63b8ff" points="137.8,-80.31 127.41,-82.38 136.83,-87.24 137.8,-80.31"/>
</a>
</g>
</g>
<!-- Node14 -->
<g id="Node000014" class="node">
<title>Node14</title>
<g id="a_Node000014"><a xlink:href="wavelength__registry_8h.html" target="_top" xlink:title=" ">
<polygon fill="white" stroke="#666666" points="1129.88,-83.5 1003.62,-83.5 1003.62,-54.5 1129.88,-54.5 1129.88,-83.5"/>
<text text-anchor="start" x="1011.62" y="-70" font-family="Helvetica,sans-Serif" font-size="10.00">../../../storage/wavelength</text>
<text text-anchor="middle" x="1066.75" y="-59.5" font-family="Helvetica,sans-Serif" font-size="10.00">_registry.h</text>
</a>
</g>
</g>
<!-- Node1&#45;&gt;Node14 -->
<g id="edge16_Node000001_Node000014" class="edge">
<title>Node1&#45;&gt;Node14</title>
<g id="a_edge16_Node000001_Node000014"><a xlink:title=" ">
<path fill="none" stroke="#63b8ff" d="M719.93,-123.83C787.21,-114.83 891.93,-100.3 991.95,-83.92"/>
<polygon fill="#63b8ff" stroke="#63b8ff" points="992.38,-87.4 1001.68,-82.32 991.24,-80.49 992.38,-87.4"/>
</a>
</g>
</g>
<!-- Node17 -->
<g id="Node000017" class="node">
<title>Node17</title>
<g id="a_Node000017"><a xlink:href="attachment__queue__manager_8h.html" target="_top" xlink:title=" ">
<polygon fill="white" stroke="#666666" points="663.88,-83.5 513.62,-83.5 513.62,-54.5 663.88,-54.5 663.88,-83.5"/>
<text text-anchor="start" x="521.62" y="-70" font-family="Helvetica,sans-Serif" font-size="10.00">../../files/attachments</text>
<text text-anchor="middle" x="588.75" y="-59.5" font-family="Helvetica,sans-Serif" font-size="10.00">/attachment_queue_manager.h</text>
</a>
</g>
</g>
<!-- Node1&#45;&gt;Node17 -->
<g id="edge19_Node000001_Node000017" class="edge">
<title>Node1&#45;&gt;Node17</title>
<g id="a_edge19_Node000001_Node000017"><a xlink:title=" ">
<path fill="none" stroke="#63b8ff" d="M636.21,-119.02C628.55,-111.11 618.8,-101.03 610.13,-92.08"/>
<polygon fill="#63b8ff" stroke="#63b8ff" points="612.77,-89.78 603.3,-85.03 607.74,-94.65 612.77,-89.78"/>
</a>
</g>
</g>
<!-- Node20 -->
<g id="Node000020" class="node">
<title>Node20</title>
<g id="a_Node000020"><a xlink:href="message__handler_8h.html" target="_top" xlink:title=" ">
<polygon fill="white" stroke="#666666" points="362.38,-83.5 263.12,-83.5 263.12,-54.5 362.38,-54.5 362.38,-83.5"/>
<text text-anchor="start" x="271.12" y="-70" font-family="Helvetica,sans-Serif" font-size="10.00">../handler/message</text>
<text text-anchor="middle" x="312.75" y="-59.5" font-family="Helvetica,sans-Serif" font-size="10.00">_handler.h</text>
</a>
</g>
</g>
<!-- Node1&#45;&gt;Node20 -->
<g id="edge24_Node000001_Node000020" class="edge">
<title>Node1&#45;&gt;Node20</title>
<g id="a_edge24_Node000001_Node000020"><a xlink:title=" ">
<path fill="none" stroke="#63b8ff" d="M579.61,-121.62C525.72,-112.63 449.18,-99.34 373.81,-84.07"/>
<polygon fill="#63b8ff" stroke="#63b8ff" points="374.68,-80.68 364.18,-82.11 373.28,-87.53 374.68,-80.68"/>
</a>
</g>
</g>
<!-- Node3 -->
<g id="Node000003" class="node">
<title>Node3</title>
<g id="a_Node000003"><a xlink:title=" ">
<polygon fill="#e0e0e0" stroke="#999999" points="192.88,-18.5 150.62,-18.5 150.62,0 192.88,0 192.88,-18.5"/>
<text text-anchor="middle" x="171.75" y="-5" font-family="Helvetica,sans-Serif" font-size="10.00">QMap</text>
</a>
</g>
</g>
<!-- Node2&#45;&gt;Node3 -->
<g id="edge2_Node000002_Node000003" class="edge">
<title>Node2&#45;&gt;Node3</title>
<g id="a_edge2_Node000002_Node000003"><a xlink:title=" ">
<path fill="none" stroke="#63b8ff" d="M191.36,-59.48C188.2,-51.55 183.38,-39.44 179.31,-29.22"/>
<polygon fill="#63b8ff" stroke="#63b8ff" points="182.67,-28.21 175.72,-20.21 176.17,-30.8 182.67,-28.21"/>
</a>
</g>
</g>
<!-- Node4 -->
<g id="Node000004" class="node">
<title>Node4</title>
<g id="a_Node000004"><a xlink:title=" ">
<polygon fill="#e0e0e0" stroke="#999999" points="349.75,-18.5 297.75,-18.5 297.75,0 349.75,0 349.75,-18.5"/>
<text text-anchor="middle" x="323.75" y="-5" font-family="Helvetica,sans-Serif" font-size="10.00">QObject</text>
</a>
</g>
</g>
<!-- Node2&#45;&gt;Node4 -->
<g id="edge3_Node000002_Node000004" class="edge">
<title>Node2&#45;&gt;Node4</title>
<g id="a_edge3_Node000002_Node000004"><a xlink:title=" ">
<path fill="none" stroke="#63b8ff" d="M214.06,-59.35C235.25,-49.87 269.5,-34.54 294.09,-23.53"/>
<polygon fill="#63b8ff" stroke="#63b8ff" points="295.23,-26.85 302.92,-19.57 292.37,-20.46 295.23,-26.85"/>
</a>
</g>
</g>
<!-- Node9&#45;&gt;Node4 -->
<g id="edge11_Node000009_Node000004" class="edge">
<title>Node9&#45;&gt;Node4</title>
<g id="a_edge11_Node000009_Node000004"><a xlink:title=" ">
<path fill="none" stroke="#63b8ff" d="M410.15,-54.02C392.17,-44.91 368.81,-33.08 350.91,-24.01"/>
<polygon fill="#63b8ff" stroke="#63b8ff" points="352.68,-20.98 342.18,-19.59 349.52,-27.23 352.68,-20.98"/>
</a>
</g>
</g>
<!-- Node10 -->
<g id="Node000010" class="node">
<title>Node10</title>
<g id="a_Node000010"><a xlink:title=" ">
<polygon fill="#e0e0e0" stroke="#999999" points="452.25,-18.5 379.25,-18.5 379.25,0 452.25,0 452.25,-18.5"/>
<text text-anchor="middle" x="415.75" y="-5" font-family="Helvetica,sans-Serif" font-size="10.00">QJsonObject</text>
</a>
</g>
</g>
<!-- Node9&#45;&gt;Node10 -->
<g id="edge9_Node000009_Node000010" class="edge">
<title>Node9&#45;&gt;Node10</title>
<g id="a_edge9_Node000009_Node000010"><a xlink:title=" ">
<path fill="none" stroke="#63b8ff" d="M432.42,-54.02C429.62,-46.66 426.14,-37.53 423.09,-29.51"/>
<polygon fill="#63b8ff" stroke="#63b8ff" points="426.42,-28.42 419.59,-20.32 419.87,-30.91 426.42,-28.42"/>
</a>
</g>
</g>
<!-- Node11 -->
<g id="Node000011" class="node">
<title>Node11</title>
<g id="a_Node000011"><a xlink:title=" ">
<polygon fill="#e0e0e0" stroke="#999999" points="527,-18.5 476.5,-18.5 476.5,0 527,0 527,-18.5"/>
<text text-anchor="middle" x="501.75" y="-5" font-family="Helvetica,sans-Serif" font-size="10.00">QMutex</text>
</a>
</g>
</g>
<!-- Node9&#45;&gt;Node11 -->
<g id="edge10_Node000009_Node000011" class="edge">
<title>Node9&#45;&gt;Node11</title>
<g id="a_edge10_Node000009_Node000011"><a xlink:title=" ">
<path fill="none" stroke="#63b8ff" d="M453.24,-54.02C462.44,-45.72 474.14,-35.17 483.74,-26.5"/>
<polygon fill="#63b8ff" stroke="#63b8ff" points="485.96,-29.22 491.04,-19.92 481.27,-24.02 485.96,-29.22"/>
</a>
</g>
</g>
<!-- Node12&#45;&gt;Node3 -->
<g id="edge14_Node000012_Node000003" class="edge">
<title>Node12&#45;&gt;Node3</title>
<g id="a_edge14_Node000012_Node000003"><a xlink:title=" ">
<path fill="none" stroke="#63b8ff" d="M89.14,-54.02C106.25,-44.95 128.46,-33.19 145.54,-24.14"/>
<polygon fill="#63b8ff" stroke="#63b8ff" points="146.88,-27.39 154.08,-19.61 143.6,-21.2 146.88,-27.39"/>
</a>
</g>
</g>
<!-- Node12&#45;&gt;Node4 -->
<g id="edge15_Node000012_Node000004" class="edge">
<title>Node12&#45;&gt;Node4</title>
<g id="a_edge15_Node000012_Node000004"><a xlink:title=" ">
<path fill="none" stroke="#63b8ff" d="M125.65,-54.5C168.36,-45.27 226.43,-32.6 286.21,-19.05"/>
<polygon fill="#63b8ff" stroke="#63b8ff" points="286.94,-22.48 295.91,-16.85 285.38,-15.65 286.94,-22.48"/>
</a>
</g>
</g>
<!-- Node13 -->
<g id="Node000013" class="node">
<title>Node13</title>
<g id="a_Node000013"><a xlink:title=" ">
<polygon fill="#e0e0e0" stroke="#999999" points="95.5,-18.5 30,-18.5 30,0 95.5,0 95.5,-18.5"/>
<text text-anchor="middle" x="62.75" y="-5" font-family="Helvetica,sans-Serif" font-size="10.00">QDateTime</text>
</a>
</g>
</g>
<!-- Node12&#45;&gt;Node13 -->
<g id="edge13_Node000012_Node000013" class="edge">
<title>Node12&#45;&gt;Node13</title>
<g id="a_edge13_Node000012_Node000013"><a xlink:title=" ">
<path fill="none" stroke="#63b8ff" d="M62.75,-54.02C62.75,-46.92 62.75,-38.17 62.75,-30.36"/>
<polygon fill="#63b8ff" stroke="#63b8ff" points="66.25,-30.42 62.75,-20.42 59.25,-30.42 66.25,-30.42"/>
</a>
</g>
</g>
<!-- Node15 -->
<g id="Node000015" class="node">
<title>Node15</title>
<g id="a_Node000015"><a xlink:title=" ">
<polygon fill="#e0e0e0" stroke="#999999" points="1052.88,-18.5 998.62,-18.5 998.62,0 1052.88,0 1052.88,-18.5"/>
<text text-anchor="middle" x="1025.75" y="-5" font-family="Helvetica,sans-Serif" font-size="10.00">QPointer</text>
</a>
</g>
</g>
<!-- Node14&#45;&gt;Node15 -->
<g id="edge17_Node000014_Node000015" class="edge">
<title>Node14&#45;&gt;Node15</title>
<g id="a_edge17_Node000014_Node000015"><a xlink:title=" ">
<path fill="none" stroke="#63b8ff" d="M1056.83,-54.02C1051.3,-46.24 1044.36,-36.46 1038.44,-28.13"/>
<polygon fill="#63b8ff" stroke="#63b8ff" points="1041.41,-26.27 1032.77,-20.14 1035.7,-30.32 1041.41,-26.27"/>
</a>
</g>
</g>
<!-- Node16 -->
<g id="Node000016" class="node">
<title>Node16</title>
<g id="a_Node000016"><a xlink:title=" ">
<polygon fill="#e0e0e0" stroke="#999999" points="1144.25,-18.5 1071.25,-18.5 1071.25,0 1144.25,0 1144.25,-18.5"/>
<text text-anchor="middle" x="1107.75" y="-5" font-family="Helvetica,sans-Serif" font-size="10.00">QWebSocket</text>
</a>
</g>
</g>
<!-- Node14&#45;&gt;Node16 -->
<g id="edge18_Node000014_Node000016" class="edge">
<title>Node14&#45;&gt;Node16</title>
<g id="a_edge18_Node000014_Node000016"><a xlink:title=" ">
<path fill="none" stroke="#63b8ff" d="M1076.67,-54.02C1082.2,-46.24 1089.14,-36.46 1095.06,-28.13"/>
<polygon fill="#63b8ff" stroke="#63b8ff" points="1097.8,-30.32 1100.73,-20.14 1092.09,-26.27 1097.8,-30.32"/>
</a>
</g>
</g>
<!-- Node17&#45;&gt;Node4 -->
<g id="edge21_Node000017_Node000004" class="edge">
<title>Node17&#45;&gt;Node4</title>
<g id="a_edge21_Node000017_Node000004"><a xlink:title=" ">
<path fill="none" stroke="#63b8ff" d="M524.6,-54.02C473.5,-42.88 403.71,-27.67 361.29,-18.43"/>
<polygon fill="#63b8ff" stroke="#63b8ff" points="362.08,-15.02 351.56,-16.31 360.59,-21.86 362.08,-15.02"/>
</a>
</g>
</g>
<!-- Node17&#45;&gt;Node11 -->
<g id="edge20_Node000017_Node000011" class="edge">
<title>Node17&#45;&gt;Node11</title>
<g id="a_edge20_Node000017_Node000011"><a xlink:title=" ">
<path fill="none" stroke="#63b8ff" d="M567.69,-54.02C554.55,-45.3 537.64,-34.07 524.23,-25.17"/>
<polygon fill="#63b8ff" stroke="#63b8ff" points="526.31,-22.36 516.05,-19.74 522.44,-28.19 526.31,-22.36"/>
</a>
</g>
</g>
<!-- Node18 -->
<g id="Node000018" class="node">
<title>Node18</title>
<g id="a_Node000018"><a xlink:title=" ">
<polygon fill="#e0e0e0" stroke="#999999" points="602.75,-18.5 550.75,-18.5 550.75,0 602.75,0 602.75,-18.5"/>
<text text-anchor="middle" x="576.75" y="-5" font-family="Helvetica,sans-Serif" font-size="10.00">QQueue</text>
</a>
</g>
</g>
<!-- Node17&#45;&gt;Node18 -->
<g id="edge22_Node000017_Node000018" class="edge">
<title>Node17&#45;&gt;Node18</title>
<g id="a_edge22_Node000017_Node000018"><a xlink:title=" ">
<path fill="none" stroke="#63b8ff" d="M585.85,-54.02C584.35,-46.83 582.51,-37.96 580.87,-30.08"/>
<polygon fill="#63b8ff" stroke="#63b8ff" points="584.32,-29.46 578.86,-20.39 577.46,-30.89 584.32,-29.46"/>
</a>
</g>
</g>
<!-- Node19 -->
<g id="Node000019" class="node">
<title>Node19</title>
<g id="a_Node000019"><a xlink:title=" ">
<polygon fill="#e0e0e0" stroke="#999999" points="685.12,-18.5 620.38,-18.5 620.38,0 685.12,0 685.12,-18.5"/>
<text text-anchor="middle" x="652.75" y="-5" font-family="Helvetica,sans-Serif" font-size="10.00">QRunnable</text>
</a>
</g>
</g>
<!-- Node17&#45;&gt;Node19 -->
<g id="edge23_Node000017_Node000019" class="edge">
<title>Node17&#45;&gt;Node19</title>
<g id="a_edge23_Node000017_Node000019"><a xlink:title=" ">
<path fill="none" stroke="#63b8ff" d="M604.24,-54.02C613.44,-45.72 625.14,-35.17 634.74,-26.5"/>
<polygon fill="#63b8ff" stroke="#63b8ff" points="636.96,-29.22 642.04,-19.92 632.27,-24.02 636.96,-29.22"/>
</a>
</g>
</g>
<!-- Node20&#45;&gt;Node4 -->
<g id="edge26_Node000020_Node000004" class="edge">
<title>Node20&#45;&gt;Node4</title>
<g id="a_edge26_Node000020_Node000004"><a xlink:title=" ">
<path fill="none" stroke="#63b8ff" d="M315.41,-54.02C316.78,-46.83 318.47,-37.96 319.97,-30.08"/>
<polygon fill="#63b8ff" stroke="#63b8ff" points="323.39,-30.87 321.82,-20.39 316.51,-29.56 323.39,-30.87"/>
</a>
</g>
</g>
<!-- Node20&#45;&gt;Node10 -->
<g id="edge25_Node000020_Node000010" class="edge">
<title>Node20&#45;&gt;Node10</title>
<g id="a_edge25_Node000020_Node000010"><a xlink:title=" ">
<path fill="none" stroke="#63b8ff" d="M337.68,-54.02C353.7,-45.04 374.44,-33.41 390.52,-24.4"/>
<polygon fill="#63b8ff" stroke="#63b8ff" points="391.98,-27.59 399,-19.64 388.56,-21.48 391.98,-27.59"/>
</a>
</g>
</g>
<!-- Node21 -->
<g id="Node000021" class="node">
<title>Node21</title>
<g id="a_Node000021"><a xlink:title=" ">
<polygon fill="#e0e0e0" stroke="#999999" points="279.62,-18.5 235.88,-18.5 235.88,0 279.62,0 279.62,-18.5"/>
<text text-anchor="middle" x="257.75" y="-5" font-family="Helvetica,sans-Serif" font-size="10.00">QUuid</text>
</a>
</g>
</g>
<!-- Node20&#45;&gt;Node21 -->
<g id="edge27_Node000020_Node000021" class="edge">
<title>Node20&#45;&gt;Node21</title>
<g id="a_edge27_Node000020_Node000021"><a xlink:title=" ">
<path fill="none" stroke="#63b8ff" d="M299.44,-54.02C291.7,-45.89 281.89,-35.6 273.74,-27.04"/>
<polygon fill="#63b8ff" stroke="#63b8ff" points="276.47,-24.83 267.04,-20 271.4,-29.65 276.47,-24.83"/>
</a>
</g>
</g>
</g>
</svg>

<g id="navigator" transform="translate(0 0)" fill="#404254">
  <rect fill="#f2f5e9" fill-opacity="0.5" stroke="#606060" stroke-width=".5" x="0" y="0" width="60" height="60"/>
  <use id="zoomplus" xlink:href="#zoomPlus" x="17" y="9" onmousedown="handleZoom(evt,'in')"/>
  <use id="zoomminus" xlink:href="#zoomMin" x="42" y="9" onmousedown="handleZoom(evt,'out')"/>
  <use id="reset" xlink:href="#resetDef" x="30" y="36" onmousedown="handleReset()"/>
   <use id="arrowup" xlink:href="#arrowUp" x="0" y="0" onmousedown="handlePan(0,-1)"/>
  <use id="arrowright" xlink:href="#arrowRight" x="0" y="0" onmousedown="handlePan(1,0)"/>
  <use id="arrowdown" xlink:href="#arrowDown" x="0" y="0" onmousedown="handlePan(0,1)"/>
  <use id="arrowleft" xlink:href="#arrowLeft" x="0" y="0" onmousedown="handlePan(-1,0)"/>
</g>
<svg viewBox="0 0 15 15" width="100%" height="30px" preserveAspectRatio="xMaxYMin meet">
 <g id="arrow_out" transform="scale(0.3 0.3)">
  <a xlink:href="message__service_8cpp__incl_org.svg" target="_base">
   <rect id="button" ry="5" rx="5" y="6" x="6" height="38" width="38"
        fill="#f2f5e9" fill-opacity="0.5" stroke="#606060" stroke-width="1.0"/>
   <path id="arrow"
     d="M 11.500037,31.436501 C 11.940474,20.09759 22.043105,11.32322 32.158766,21.979434 L 37.068811,17.246167 C 37.068811,17.246167 37.088388,32 37.088388,32 L 22.160133,31.978069 C 22.160133,31.978069 26.997745,27.140456 26.997745,27.140456 C 18.528582,18.264221 13.291696,25.230495 11.500037,31.436501 z"
     style="fill:#404040;"/>
  </a>
 </g>
</svg>

<style type='text/css'>
<![CDATA[
[data-mouse-over-selected='false'] { opacity: 0.7; }
[data-mouse-over-selected='true']  { opacity: 1.0; }
]]>
</style>
<script type="application/ecmascript"><![CDATA[
document.addEventListener('DOMContentLoaded', (event) => {
  highlightEdges();
  highlightAdjacentNodes();
});
]]></script>
</svg>
