<?xml version="1.0" encoding="UTF-8" standalone="no"?>
<!DOCTYPE svg PUBLIC "-//W3C//DTD SVG 1.1//EN"
 "http://www.w3.org/Graphics/SVG/1.1/DTD/svg11.dtd">
<!-- Generated by graphviz version 12.2.1 (0)
 -->
<!-- Title: src/chat/messages/handler/message_handler.h Pages: 1 -->
<!--zoomable 113 -->

<svg id="main" version="1.1" xmlns="http://www.w3.org/2000/svg" xmlns:xlink="http://www.w3.org/1999/xlink" xml:space="preserve" onload="init(evt)">

<style type="text/css"><![CDATA[
.node, .edge {opacity: 0.7;}
.node.selected, .edge.selected {opacity: 1;}
.edge:hover path { stroke: red; }
.edge:hover polygon { stroke: red; fill: red; }
]]></style>

<defs>
  <circle id="rim" cx="0" cy="0" r="7"/>
  <circle id="rim2" cx="0" cy="0" r="3.5"/>
  <g id="zoomPlus">
    <use xlink:href="#rim" fill="#404040"><set attributeName="fill" to="#808080" begin="zoomplus.mouseover" end="zoomplus.mouseout"/></use>
    <path d="M-4,0h8M0,-4v8" fill="none" stroke="white" stroke-width="1.5" pointer-events="none"/>
  </g>
  <g id="zoomMin">
    <use xlink:href="#rim" fill="#404040"><set attributeName="fill" to="#808080" begin="zoomminus.mouseover" end="zoomminus.mouseout"/></use>
    <path d="M-4,0h8" fill="none" stroke="white" stroke-width="1.5" pointer-events="none"/>
  </g>
  <g id="arrowUp" transform="translate(30 24)">
    <use xlink:href="#rim"/>
    <path pointer-events="none" fill="none" stroke="white" stroke-width="1.5" d="M0,-3.0v7 M-2.5,-0.5L0,-3.0L2.5,-0.5"/>
  </g>
  <g id="arrowRight" transform="rotate(90) translate(36 -43)">
    <use xlink:href="#rim"/>
    <path pointer-events="none" fill="none" stroke="white" stroke-width="1.5" d="M0,-3.0v7 M-2.5,-0.5L0,-3.0L2.5,-0.5"/>
  </g>
  <g id="arrowDown" transform="rotate(180) translate(-30 -48)">
    <use xlink:href="#rim"/>
    <path pointer-events="none" fill="none" stroke="white" stroke-width="1.5" d="M0,-3.0v7 M-2.5,-0.5L0,-3.0L2.5,-0.5"/>
  </g>
  <g id="arrowLeft" transform="rotate(270) translate(-36 17)">
    <use xlink:href="#rim"/>
    <path pointer-events="none" fill="none" stroke="white" stroke-width="1.5" d="M0,-3.0v7 M-2.5,-0.5L0,-3.0L2.5,-0.5"/>
  </g>
  <g id="resetDef">
    <use xlink:href="#rim2" fill="#404040"><set attributeName="fill" to="#808080" begin="reset.mouseover" end="reset.mouseout"/></use>
  </g>
</defs>
<script type="application/ecmascript">
var viewWidth = 897;
var viewHeight = 113;
var sectionId = 'dynsection-1';
</script>
<script type="application/ecmascript" xlink:href="svg.min.js"/>
<svg id="graph" class="graph">
<g id="viewport">
<title>src/chat/messages/handler/message_handler.h</title>
<!-- Node1 -->
<g id="Node000001" class="node">
<title>Node1</title>
<g id="a_Node000001"><a xlink:title=" ">
<polygon fill="#999999" stroke="#666666" points="515.75,-104.5 382,-104.5 382,-75.5 515.75,-75.5 515.75,-104.5"/>
<text text-anchor="start" x="390" y="-91" font-family="Helvetica,sans-Serif" font-size="10.00">src/chat/messages/handler</text>
<text text-anchor="middle" x="448.88" y="-80.5" font-family="Helvetica,sans-Serif" font-size="10.00">/message_handler.h</text>
</a>
</g>
</g>
<!-- Node2 -->
<g id="Node000002" class="node">
<title>Node2</title>
<g id="a_Node000002"><a xlink:href="message__handler_8cpp.html" target="_top" xlink:title=" ">
<polygon fill="white" stroke="#666666" points="133.75,-34.25 0,-34.25 0,-5.25 133.75,-5.25 133.75,-34.25"/>
<text text-anchor="start" x="8" y="-20.75" font-family="Helvetica,sans-Serif" font-size="10.00">src/chat/messages/handler</text>
<text text-anchor="middle" x="66.88" y="-10.25" font-family="Helvetica,sans-Serif" font-size="10.00">/message_handler.cpp</text>
</a>
</g>
</g>
<!-- Node1&#45;&gt;Node2 -->
<g id="edge1_Node000001_Node000002" class="edge">
<title>Node1&#45;&gt;Node2</title>
<g id="a_edge1_Node000001_Node000002"><a xlink:title=" ">
<path fill="none" stroke="#63b8ff" d="M370.47,-78.12C308.46,-69.07 219.82,-55.19 142.88,-39.5 135.82,-38.06 128.42,-36.41 121.14,-34.71"/>
<polygon fill="#63b8ff" stroke="#63b8ff" points="369.84,-81.56 380.24,-79.53 370.84,-74.63 369.84,-81.56"/>
</a>
</g>
</g>
<!-- Node3 -->
<g id="Node000003" class="node">
<title>Node3</title>
<g id="a_Node000003"><a xlink:href="message__processor_8cpp.html" target="_top" xlink:title=" ">
<polygon fill="white" stroke="#666666" points="291.75,-34.25 152,-34.25 152,-5.25 291.75,-5.25 291.75,-34.25"/>
<text text-anchor="start" x="160" y="-20.75" font-family="Helvetica,sans-Serif" font-size="10.00">src/chat/messages/services</text>
<text text-anchor="middle" x="221.88" y="-10.25" font-family="Helvetica,sans-Serif" font-size="10.00">/message_processor.cpp</text>
</a>
</g>
</g>
<!-- Node1&#45;&gt;Node3 -->
<g id="edge2_Node000001_Node000003" class="edge">
<title>Node1&#45;&gt;Node3</title>
<g id="a_edge2_Node000001_Node000003"><a xlink:title=" ">
<path fill="none" stroke="#63b8ff" d="M391.45,-71.74C353.33,-60.27 303.93,-45.42 268.3,-34.71"/>
<polygon fill="#63b8ff" stroke="#63b8ff" points="390.36,-75.06 400.94,-74.59 392.37,-68.36 390.36,-75.06"/>
</a>
</g>
</g>
<!-- Node4 -->
<g id="Node000004" class="node">
<title>Node4</title>
<g id="a_Node000004"><a xlink:href="message__service_8cpp.html" target="_top" xlink:title=" ">
<polygon fill="white" stroke="#666666" points="449.75,-34.25 310,-34.25 310,-5.25 449.75,-5.25 449.75,-34.25"/>
<text text-anchor="start" x="318" y="-20.75" font-family="Helvetica,sans-Serif" font-size="10.00">src/chat/messages/services</text>
<text text-anchor="middle" x="379.88" y="-10.25" font-family="Helvetica,sans-Serif" font-size="10.00">/message_service.cpp</text>
</a>
</g>
</g>
<!-- Node1&#45;&gt;Node4 -->
<g id="edge3_Node000001_Node000004" class="edge">
<title>Node1&#45;&gt;Node4</title>
<g id="a_edge3_Node000001_Node000004"><a xlink:title=" ">
<path fill="none" stroke="#63b8ff" d="M426.74,-67.11C415.93,-56.42 403.26,-43.88 393.82,-34.54"/>
<polygon fill="#63b8ff" stroke="#63b8ff" points="424.26,-69.58 433.84,-74.12 429.19,-64.6 424.26,-69.58"/>
</a>
</g>
</g>
<!-- Node5 -->
<g id="Node000005" class="node">
<title>Node5</title>
<g id="a_Node000005"><a xlink:href="wavelength__creator_8cpp.html" target="_top" xlink:title=" ">
<polygon fill="white" stroke="#666666" points="567.88,-39.5 467.88,-39.5 467.88,0 567.88,0 567.88,-39.5"/>
<text text-anchor="start" x="475.88" y="-26" font-family="Helvetica,sans-Serif" font-size="10.00">src/session/events</text>
<text text-anchor="start" x="475.88" y="-15.5" font-family="Helvetica,sans-Serif" font-size="10.00">/creator/wavelength</text>
<text text-anchor="middle" x="517.88" y="-5" font-family="Helvetica,sans-Serif" font-size="10.00">_creator.cpp</text>
</a>
</g>
</g>
<!-- Node1&#45;&gt;Node5 -->
<g id="edge4_Node000001_Node000005" class="edge">
<title>Node1&#45;&gt;Node5</title>
<g id="a_edge4_Node000001_Node000005"><a xlink:title=" ">
<path fill="none" stroke="#63b8ff" d="M470.85,-67.26C479.72,-58.49 489.85,-48.47 498.44,-39.97"/>
<polygon fill="#63b8ff" stroke="#63b8ff" points="468.56,-64.6 463.91,-74.12 473.49,-69.58 468.56,-64.6"/>
</a>
</g>
</g>
<!-- Node6 -->
<g id="Node000006" class="node">
<title>Node6</title>
<g id="a_Node000006"><a xlink:href="wavelength__joiner_8cpp.html" target="_top" xlink:title=" ">
<polygon fill="white" stroke="#666666" points="726.12,-34.25 585.62,-34.25 585.62,-5.25 726.12,-5.25 726.12,-34.25"/>
<text text-anchor="start" x="593.62" y="-20.75" font-family="Helvetica,sans-Serif" font-size="10.00">src/session/events</text>
<text text-anchor="middle" x="655.88" y="-10.25" font-family="Helvetica,sans-Serif" font-size="10.00">/joiner/wavelength_joiner.cpp</text>
</a>
</g>
</g>
<!-- Node1&#45;&gt;Node6 -->
<g id="edge5_Node000001_Node000006" class="edge">
<title>Node1&#45;&gt;Node6</title>
<g id="a_edge5_Node000001_Node000006"><a xlink:title=" ">
<path fill="none" stroke="#63b8ff" d="M502.13,-71.44C536.77,-60.02 581.32,-45.33 613.54,-34.71"/>
<polygon fill="#63b8ff" stroke="#63b8ff" points="501.1,-68.09 492.7,-74.55 503.29,-74.74 501.1,-68.09"/>
</a>
</g>
</g>
<!-- Node7 -->
<g id="Node000007" class="node">
<title>Node7</title>
<g id="a_Node000007"><a xlink:href="wavelength__leaver_8cpp.html" target="_top" xlink:title=" ">
<polygon fill="white" stroke="#666666" points="889.38,-34.25 744.38,-34.25 744.38,-5.25 889.38,-5.25 889.38,-34.25"/>
<text text-anchor="start" x="752.38" y="-20.75" font-family="Helvetica,sans-Serif" font-size="10.00">src/session/events</text>
<text text-anchor="middle" x="816.88" y="-10.25" font-family="Helvetica,sans-Serif" font-size="10.00">/leaver/wavelength_leaver.cpp</text>
</a>
</g>
</g>
<!-- Node1&#45;&gt;Node7 -->
<g id="edge6_Node000001_Node000007" class="edge">
<title>Node1&#45;&gt;Node7</title>
<g id="a_edge6_Node000001_Node000007"><a xlink:title=" ">
<path fill="none" stroke="#63b8ff" d="M527.3,-76.58C584.89,-67.19 664.94,-53.54 734.88,-39.5 742.18,-38.03 749.82,-36.41 757.39,-34.74"/>
<polygon fill="#63b8ff" stroke="#63b8ff" points="526.9,-73.1 517.59,-78.16 528.02,-80.01 526.9,-73.1"/>
</a>
</g>
</g>
</g>
</svg>

<g id="navigator" transform="translate(0 0)" fill="#404254">
  <rect fill="#f2f5e9" fill-opacity="0.5" stroke="#606060" stroke-width=".5" x="0" y="0" width="60" height="60"/>
  <use id="zoomplus" xlink:href="#zoomPlus" x="17" y="9" onmousedown="handleZoom(evt,'in')"/>
  <use id="zoomminus" xlink:href="#zoomMin" x="42" y="9" onmousedown="handleZoom(evt,'out')"/>
  <use id="reset" xlink:href="#resetDef" x="30" y="36" onmousedown="handleReset()"/>
   <use id="arrowup" xlink:href="#arrowUp" x="0" y="0" onmousedown="handlePan(0,-1)"/>
  <use id="arrowright" xlink:href="#arrowRight" x="0" y="0" onmousedown="handlePan(1,0)"/>
  <use id="arrowdown" xlink:href="#arrowDown" x="0" y="0" onmousedown="handlePan(0,1)"/>
  <use id="arrowleft" xlink:href="#arrowLeft" x="0" y="0" onmousedown="handlePan(-1,0)"/>
</g>
<svg viewBox="0 0 15 15" width="100%" height="30px" preserveAspectRatio="xMaxYMin meet">
 <g id="arrow_out" transform="scale(0.3 0.3)">
  <a xlink:href="message__handler_8h__dep__incl_org.svg" target="_base">
   <rect id="button" ry="5" rx="5" y="6" x="6" height="38" width="38"
        fill="#f2f5e9" fill-opacity="0.5" stroke="#606060" stroke-width="1.0"/>
   <path id="arrow"
     d="M 11.500037,31.436501 C 11.940474,20.09759 22.043105,11.32322 32.158766,21.979434 L 37.068811,17.246167 C 37.068811,17.246167 37.088388,32 37.088388,32 L 22.160133,31.978069 C 22.160133,31.978069 26.997745,27.140456 26.997745,27.140456 C 18.528582,18.264221 13.291696,25.230495 11.500037,31.436501 z"
     style="fill:#404040;"/>
  </a>
 </g>
</svg>

<style type='text/css'>
<![CDATA[
[data-mouse-over-selected='false'] { opacity: 0.7; }
[data-mouse-over-selected='true']  { opacity: 1.0; }
]]>
</style>
<script type="application/ecmascript"><![CDATA[
document.addEventListener('DOMContentLoaded', (event) => {
  highlightEdges();
  highlightAdjacentNodes();
});
]]></script>
</svg>
