<?xml version="1.0" encoding="UTF-8" standalone="no"?>
<!DOCTYPE svg PUBLIC "-//W3C//DTD SVG 1.1//EN"
 "http://www.w3.org/Graphics/SVG/1.1/DTD/svg11.dtd">
<!-- Generated by graphviz version 12.2.1 (0)
 -->
<!-- Title: src/ui/navigation/navbar.cpp Pages: 1 -->
<!--zoomable 146 -->

<svg id="main" version="1.1" xmlns="http://www.w3.org/2000/svg" xmlns:xlink="http://www.w3.org/1999/xlink" xml:space="preserve" onload="init(evt)">

<style type="text/css"><![CDATA[
.node, .edge {opacity: 0.7;}
.node.selected, .edge.selected {opacity: 1;}
.edge:hover path { stroke: red; }
.edge:hover polygon { stroke: red; fill: red; }
]]></style>

<defs>
  <circle id="rim" cx="0" cy="0" r="7"/>
  <circle id="rim2" cx="0" cy="0" r="3.5"/>
  <g id="zoomPlus">
    <use xlink:href="#rim" fill="#404040"><set attributeName="fill" to="#808080" begin="zoomplus.mouseover" end="zoomplus.mouseout"/></use>
    <path d="M-4,0h8M0,-4v8" fill="none" stroke="white" stroke-width="1.5" pointer-events="none"/>
  </g>
  <g id="zoomMin">
    <use xlink:href="#rim" fill="#404040"><set attributeName="fill" to="#808080" begin="zoomminus.mouseover" end="zoomminus.mouseout"/></use>
    <path d="M-4,0h8" fill="none" stroke="white" stroke-width="1.5" pointer-events="none"/>
  </g>
  <g id="arrowUp" transform="translate(30 24)">
    <use xlink:href="#rim"/>
    <path pointer-events="none" fill="none" stroke="white" stroke-width="1.5" d="M0,-3.0v7 M-2.5,-0.5L0,-3.0L2.5,-0.5"/>
  </g>
  <g id="arrowRight" transform="rotate(90) translate(36 -43)">
    <use xlink:href="#rim"/>
    <path pointer-events="none" fill="none" stroke="white" stroke-width="1.5" d="M0,-3.0v7 M-2.5,-0.5L0,-3.0L2.5,-0.5"/>
  </g>
  <g id="arrowDown" transform="rotate(180) translate(-30 -48)">
    <use xlink:href="#rim"/>
    <path pointer-events="none" fill="none" stroke="white" stroke-width="1.5" d="M0,-3.0v7 M-2.5,-0.5L0,-3.0L2.5,-0.5"/>
  </g>
  <g id="arrowLeft" transform="rotate(270) translate(-36 17)">
    <use xlink:href="#rim"/>
    <path pointer-events="none" fill="none" stroke="white" stroke-width="1.5" d="M0,-3.0v7 M-2.5,-0.5L0,-3.0L2.5,-0.5"/>
  </g>
  <g id="resetDef">
    <use xlink:href="#rim2" fill="#404040"><set attributeName="fill" to="#808080" begin="reset.mouseover" end="reset.mouseout"/></use>
  </g>
</defs>
<script type="application/ecmascript">
var viewWidth = 1018;
var viewHeight = 146;
var sectionId = 'dynsection-0';
</script>
<script type="application/ecmascript" xlink:href="svg.min.js"/>
<svg id="graph" class="graph">
<g id="viewport">
<title>src/ui/navigation/navbar.cpp</title>
<!-- Node1 -->
<g id="Node000001" class="node">
<title>Node1</title>
<g id="a_Node000001"><a xlink:title=" ">
<polygon fill="#999999" stroke="#666666" points="548.38,-138 410.12,-138 410.12,-119.5 548.38,-119.5 548.38,-138"/>
<text text-anchor="middle" x="479.25" y="-124.5" font-family="Helvetica,sans-Serif" font-size="10.00">src/ui/navigation/navbar.cpp</text>
</a>
</g>
</g>
<!-- Node2 -->
<g id="Node000002" class="node">
<title>Node2</title>
<g id="a_Node000002"><a xlink:href="navbar_8h.html" target="_top" xlink:title=" ">
<polygon fill="white" stroke="#666666" points="55,-78.25 1.5,-78.25 1.5,-59.75 55,-59.75 55,-78.25"/>
<text text-anchor="middle" x="28.25" y="-64.75" font-family="Helvetica,sans-Serif" font-size="10.00">navbar.h</text>
</a>
</g>
</g>
<!-- Node1&#45;&gt;Node2 -->
<g id="edge1_Node000001_Node000002" class="edge">
<title>Node1&#45;&gt;Node2</title>
<g id="a_edge1_Node000001_Node000002"><a xlink:title=" ">
<path fill="none" stroke="#63b8ff" d="M409.69,-125.68C326.52,-121.99 183.58,-111.76 64.25,-83.5 62.63,-83.12 60.98,-82.68 59.32,-82.2"/>
<polygon fill="#63b8ff" stroke="#63b8ff" points="60.56,-78.92 49.97,-79.1 58.36,-85.57 60.56,-78.92"/>
</a>
</g>
</g>
<!-- Node4 -->
<g id="Node000004" class="node">
<title>Node4</title>
<g id="a_Node000004"><a xlink:title=" ">
<polygon fill="#e0e0e0" stroke="#999999" points="179.62,-78.25 72.88,-78.25 72.88,-59.75 179.62,-59.75 179.62,-78.25"/>
<text text-anchor="middle" x="126.25" y="-64.75" font-family="Helvetica,sans-Serif" font-size="10.00">QContextMenuEvent</text>
</a>
</g>
</g>
<!-- Node1&#45;&gt;Node4 -->
<g id="edge3_Node000001_Node000004" class="edge">
<title>Node1&#45;&gt;Node4</title>
<g id="a_edge3_Node000001_Node000004"><a xlink:title=" ">
<path fill="none" stroke="#63b8ff" d="M414.56,-119.01C355.67,-110.78 266.4,-97.64 189.25,-83.5 184.98,-82.72 180.55,-81.86 176.12,-80.97"/>
<polygon fill="#63b8ff" stroke="#63b8ff" points="177.14,-77.61 166.64,-79.02 175.73,-84.47 177.14,-77.61"/>
</a>
</g>
</g>
<!-- Node5 -->
<g id="Node000005" class="node">
<title>Node5</title>
<g id="a_Node000005"><a xlink:title=" ">
<polygon fill="#e0e0e0" stroke="#999999" points="342.38,-78.25 198.12,-78.25 198.12,-59.75 342.38,-59.75 342.38,-78.25"/>
<text text-anchor="middle" x="270.25" y="-64.75" font-family="Helvetica,sans-Serif" font-size="10.00">QGraphicsDropShadowEffect</text>
</a>
</g>
</g>
<!-- Node1&#45;&gt;Node5 -->
<g id="edge4_Node000001_Node000005" class="edge">
<title>Node1&#45;&gt;Node5</title>
<g id="a_edge4_Node000001_Node000005"><a xlink:title=" ">
<path fill="none" stroke="#63b8ff" d="M447.96,-119.1C412.02,-109.17 352.87,-92.83 312.78,-81.75"/>
<polygon fill="#63b8ff" stroke="#63b8ff" points="313.78,-78.4 303.21,-79.11 311.92,-85.14 313.78,-78.4"/>
</a>
</g>
</g>
<!-- Node6 -->
<g id="Node000006" class="node">
<title>Node6</title>
<g id="a_Node000006"><a xlink:title=" ">
<polygon fill="#e0e0e0" stroke="#999999" points="437.62,-78.25 360.88,-78.25 360.88,-59.75 437.62,-59.75 437.62,-78.25"/>
<text text-anchor="middle" x="399.25" y="-64.75" font-family="Helvetica,sans-Serif" font-size="10.00">QHBoxLayout</text>
</a>
</g>
</g>
<!-- Node1&#45;&gt;Node6 -->
<g id="edge5_Node000001_Node000006" class="edge">
<title>Node1&#45;&gt;Node6</title>
<g id="a_edge5_Node000001_Node000006"><a xlink:title=" ">
<path fill="none" stroke="#63b8ff" d="M467.45,-119.23C455.11,-110.32 435.49,-96.16 420.46,-85.31"/>
<polygon fill="#63b8ff" stroke="#63b8ff" points="422.75,-82.65 412.59,-79.63 418.65,-88.32 422.75,-82.65"/>
</a>
</g>
</g>
<!-- Node7 -->
<g id="Node000007" class="node">
<title>Node7</title>
<g id="a_Node000007"><a xlink:title=" ">
<polygon fill="#e0e0e0" stroke="#999999" points="502.62,-78.25 455.88,-78.25 455.88,-59.75 502.62,-59.75 502.62,-78.25"/>
<text text-anchor="middle" x="479.25" y="-64.75" font-family="Helvetica,sans-Serif" font-size="10.00">QLabel</text>
</a>
</g>
</g>
<!-- Node1&#45;&gt;Node7 -->
<g id="edge6_Node000001_Node000007" class="edge">
<title>Node1&#45;&gt;Node7</title>
<g id="a_edge6_Node000001_Node000007"><a xlink:title=" ">
<path fill="none" stroke="#63b8ff" d="M479.25,-119.23C479.25,-111.55 479.25,-99.97 479.25,-89.97"/>
<polygon fill="#63b8ff" stroke="#63b8ff" points="482.75,-90.07 479.25,-80.07 475.75,-90.07 482.75,-90.07"/>
</a>
</g>
</g>
<!-- Node8 -->
<g id="Node000008" class="node">
<title>Node8</title>
<g id="a_Node000008"><a xlink:title=" ">
<polygon fill="#e0e0e0" stroke="#999999" points="597.62,-78.25 520.88,-78.25 520.88,-59.75 597.62,-59.75 597.62,-78.25"/>
<text text-anchor="middle" x="559.25" y="-64.75" font-family="Helvetica,sans-Serif" font-size="10.00">QSoundEffect</text>
</a>
</g>
</g>
<!-- Node1&#45;&gt;Node8 -->
<g id="edge7_Node000001_Node000008" class="edge">
<title>Node1&#45;&gt;Node8</title>
<g id="a_edge7_Node000001_Node000008"><a xlink:title=" ">
<path fill="none" stroke="#63b8ff" d="M491.05,-119.23C503.39,-110.32 523.01,-96.16 538.04,-85.31"/>
<polygon fill="#63b8ff" stroke="#63b8ff" points="539.85,-88.32 545.91,-79.63 535.75,-82.65 539.85,-88.32"/>
</a>
</g>
</g>
<!-- Node9 -->
<g id="Node000009" class="node">
<title>Node9</title>
<g id="a_Node000009"><a xlink:href="network__status__widget_8h.html" target="_top" xlink:title=" ">
<polygon fill="white" stroke="#666666" points="739.25,-78.25 615.25,-78.25 615.25,-59.75 739.25,-59.75 739.25,-78.25"/>
<text text-anchor="middle" x="677.25" y="-64.75" font-family="Helvetica,sans-Serif" font-size="10.00">network_status_widget.h</text>
</a>
</g>
</g>
<!-- Node1&#45;&gt;Node9 -->
<g id="edge8_Node000001_Node000009" class="edge">
<title>Node1&#45;&gt;Node9</title>
<g id="a_edge8_Node000001_Node000009"><a xlink:title=" ">
<path fill="none" stroke="#63b8ff" d="M508.89,-119.1C542.87,-109.2 598.74,-92.9 636.72,-81.82"/>
<polygon fill="#63b8ff" stroke="#63b8ff" points="637.33,-85.29 645.95,-79.13 635.37,-78.57 637.33,-85.29"/>
</a>
</g>
</g>
<!-- Node11 -->
<g id="Node000011" class="node">
<title>Node11</title>
<g id="a_Node000011"><a xlink:href="translation__manager_8h.html" target="_top" xlink:title=" ">
<polygon fill="white" stroke="#666666" points="872.75,-83.5 757.75,-83.5 757.75,-54.5 872.75,-54.5 872.75,-83.5"/>
<text text-anchor="start" x="765.75" y="-70" font-family="Helvetica,sans-Serif" font-size="10.00">../../app/managers</text>
<text text-anchor="middle" x="815.25" y="-59.5" font-family="Helvetica,sans-Serif" font-size="10.00">/translation_manager.h</text>
</a>
</g>
</g>
<!-- Node1&#45;&gt;Node11 -->
<g id="edge10_Node000001_Node000011" class="edge">
<title>Node1&#45;&gt;Node11</title>
<g id="a_edge10_Node000001_Node000011"><a xlink:title=" ">
<path fill="none" stroke="#63b8ff" d="M536.03,-119.01C588.09,-110.87 667.62,-98.08 746.42,-83.79"/>
<polygon fill="#63b8ff" stroke="#63b8ff" points="746.83,-87.27 756.04,-82.04 745.58,-80.39 746.83,-87.27"/>
</a>
</g>
</g>
<!-- Node15 -->
<g id="Node000015" class="node">
<title>Node15</title>
<g id="a_Node000015"><a xlink:href="navbar__button_8h.html" target="_top" xlink:title=" ">
<polygon fill="white" stroke="#666666" points="1009.75,-83.5 900.75,-83.5 900.75,-54.5 1009.75,-54.5 1009.75,-83.5"/>
<text text-anchor="start" x="908.75" y="-70" font-family="Helvetica,sans-Serif" font-size="10.00">../../ui/buttons/navbar</text>
<text text-anchor="middle" x="955.25" y="-59.5" font-family="Helvetica,sans-Serif" font-size="10.00">_button.h</text>
</a>
</g>
</g>
<!-- Node1&#45;&gt;Node15 -->
<g id="edge14_Node000001_Node000015" class="edge">
<title>Node1&#45;&gt;Node15</title>
<g id="a_edge14_Node000001_Node000015"><a xlink:title=" ">
<path fill="none" stroke="#63b8ff" d="M548.62,-121.7C629.08,-114.31 765.61,-100.67 882.25,-83.5 884.54,-83.16 886.87,-82.81 889.22,-82.44"/>
<polygon fill="#63b8ff" stroke="#63b8ff" points="889.52,-85.93 898.82,-80.85 888.39,-79.03 889.52,-85.93"/>
</a>
</g>
</g>
<!-- Node3 -->
<g id="Node000003" class="node">
<title>Node3</title>
<g id="a_Node000003"><a xlink:title=" ">
<polygon fill="#e0e0e0" stroke="#999999" points="56.5,-18.5 0,-18.5 0,0 56.5,0 56.5,-18.5"/>
<text text-anchor="middle" x="28.25" y="-5" font-family="Helvetica,sans-Serif" font-size="10.00">QToolBar</text>
</a>
</g>
</g>
<!-- Node2&#45;&gt;Node3 -->
<g id="edge2_Node000002_Node000003" class="edge">
<title>Node2&#45;&gt;Node3</title>
<g id="a_edge2_Node000002_Node000003"><a xlink:title=" ">
<path fill="none" stroke="#63b8ff" d="M28.25,-59.48C28.25,-51.8 28.25,-40.22 28.25,-30.22"/>
<polygon fill="#63b8ff" stroke="#63b8ff" points="31.75,-30.32 28.25,-20.32 24.75,-30.32 31.75,-30.32"/>
</a>
</g>
</g>
<!-- Node10 -->
<g id="Node000010" class="node">
<title>Node10</title>
<g id="a_Node000010"><a xlink:title=" ">
<polygon fill="#e0e0e0" stroke="#999999" points="680.38,-18.5 626.12,-18.5 626.12,0 680.38,0 680.38,-18.5"/>
<text text-anchor="middle" x="653.25" y="-5" font-family="Helvetica,sans-Serif" font-size="10.00">QWidget</text>
</a>
</g>
</g>
<!-- Node9&#45;&gt;Node10 -->
<g id="edge9_Node000009_Node000010" class="edge">
<title>Node9&#45;&gt;Node10</title>
<g id="a_edge9_Node000009_Node000010"><a xlink:title=" ">
<path fill="none" stroke="#63b8ff" d="M673.71,-59.48C670.41,-51.55 665.38,-39.44 661.13,-29.22"/>
<polygon fill="#63b8ff" stroke="#63b8ff" points="664.46,-28.09 657.39,-20.2 657.99,-30.78 664.46,-28.09"/>
</a>
</g>
</g>
<!-- Node12 -->
<g id="Node000012" class="node">
<title>Node12</title>
<g id="a_Node000012"><a xlink:title=" ">
<polygon fill="#e0e0e0" stroke="#999999" points="771.75,-18.5 698.75,-18.5 698.75,0 771.75,0 771.75,-18.5"/>
<text text-anchor="middle" x="735.25" y="-5" font-family="Helvetica,sans-Serif" font-size="10.00">QJsonObject</text>
</a>
</g>
</g>
<!-- Node11&#45;&gt;Node12 -->
<g id="edge11_Node000011_Node000012" class="edge">
<title>Node11&#45;&gt;Node12</title>
<g id="a_edge11_Node000011_Node000012"><a xlink:title=" ">
<path fill="none" stroke="#63b8ff" d="M795.88,-54.02C783.92,-45.38 768.55,-34.29 756.29,-25.44"/>
<polygon fill="#63b8ff" stroke="#63b8ff" points="758.62,-22.8 748.46,-19.79 754.52,-28.48 758.62,-22.8"/>
</a>
</g>
</g>
<!-- Node13 -->
<g id="Node000013" class="node">
<title>Node13</title>
<g id="a_Node000013"><a xlink:title=" ">
<polygon fill="#e0e0e0" stroke="#999999" points="840.5,-18.5 790,-18.5 790,0 840.5,0 840.5,-18.5"/>
<text text-anchor="middle" x="815.25" y="-5" font-family="Helvetica,sans-Serif" font-size="10.00">QMutex</text>
</a>
</g>
</g>
<!-- Node11&#45;&gt;Node13 -->
<g id="edge12_Node000011_Node000013" class="edge">
<title>Node11&#45;&gt;Node13</title>
<g id="a_edge12_Node000011_Node000013"><a xlink:title=" ">
<path fill="none" stroke="#63b8ff" d="M815.25,-54.02C815.25,-46.92 815.25,-38.17 815.25,-30.36"/>
<polygon fill="#63b8ff" stroke="#63b8ff" points="818.75,-30.42 815.25,-20.42 811.75,-30.42 818.75,-30.42"/>
</a>
</g>
</g>
<!-- Node14 -->
<g id="Node000014" class="node">
<title>Node14</title>
<g id="a_Node000014"><a xlink:title=" ">
<polygon fill="#e0e0e0" stroke="#999999" points="910.25,-18.5 858.25,-18.5 858.25,0 910.25,0 910.25,-18.5"/>
<text text-anchor="middle" x="884.25" y="-5" font-family="Helvetica,sans-Serif" font-size="10.00">QObject</text>
</a>
</g>
</g>
<!-- Node11&#45;&gt;Node14 -->
<g id="edge13_Node000011_Node000014" class="edge">
<title>Node11&#45;&gt;Node14</title>
<g id="a_edge13_Node000011_Node000014"><a xlink:title=" ">
<path fill="none" stroke="#63b8ff" d="M831.95,-54.02C841.97,-45.64 854.74,-34.95 865.16,-26.23"/>
<polygon fill="#63b8ff" stroke="#63b8ff" points="867.33,-28.98 872.75,-19.87 862.84,-23.61 867.33,-28.98"/>
</a>
</g>
</g>
<!-- Node16 -->
<g id="Node000016" class="node">
<title>Node16</title>
<g id="a_Node000016"><a xlink:title=" ">
<polygon fill="#e0e0e0" stroke="#999999" points="1002.5,-18.5 928,-18.5 928,0 1002.5,0 1002.5,-18.5"/>
<text text-anchor="middle" x="965.25" y="-5" font-family="Helvetica,sans-Serif" font-size="10.00">QPushButton</text>
</a>
</g>
</g>
<!-- Node15&#45;&gt;Node16 -->
<g id="edge15_Node000015_Node000016" class="edge">
<title>Node15&#45;&gt;Node16</title>
<g id="a_edge15_Node000015_Node000016"><a xlink:title=" ">
<path fill="none" stroke="#63b8ff" d="M957.67,-54.02C958.91,-46.83 960.45,-37.96 961.82,-30.08"/>
<polygon fill="#63b8ff" stroke="#63b8ff" points="965.24,-30.85 963.49,-20.39 958.34,-29.65 965.24,-30.85"/>
</a>
</g>
</g>
</g>
</svg>

<g id="navigator" transform="translate(0 0)" fill="#404254">
  <rect fill="#f2f5e9" fill-opacity="0.5" stroke="#606060" stroke-width=".5" x="0" y="0" width="60" height="60"/>
  <use id="zoomplus" xlink:href="#zoomPlus" x="17" y="9" onmousedown="handleZoom(evt,'in')"/>
  <use id="zoomminus" xlink:href="#zoomMin" x="42" y="9" onmousedown="handleZoom(evt,'out')"/>
  <use id="reset" xlink:href="#resetDef" x="30" y="36" onmousedown="handleReset()"/>
   <use id="arrowup" xlink:href="#arrowUp" x="0" y="0" onmousedown="handlePan(0,-1)"/>
  <use id="arrowright" xlink:href="#arrowRight" x="0" y="0" onmousedown="handlePan(1,0)"/>
  <use id="arrowdown" xlink:href="#arrowDown" x="0" y="0" onmousedown="handlePan(0,1)"/>
  <use id="arrowleft" xlink:href="#arrowLeft" x="0" y="0" onmousedown="handlePan(-1,0)"/>
</g>
<svg viewBox="0 0 15 15" width="100%" height="30px" preserveAspectRatio="xMaxYMin meet">
 <g id="arrow_out" transform="scale(0.3 0.3)">
  <a xlink:href="navbar_8cpp__incl_org.svg" target="_base">
   <rect id="button" ry="5" rx="5" y="6" x="6" height="38" width="38"
        fill="#f2f5e9" fill-opacity="0.5" stroke="#606060" stroke-width="1.0"/>
   <path id="arrow"
     d="M 11.500037,31.436501 C 11.940474,20.09759 22.043105,11.32322 32.158766,21.979434 L 37.068811,17.246167 C 37.068811,17.246167 37.088388,32 37.088388,32 L 22.160133,31.978069 C 22.160133,31.978069 26.997745,27.140456 26.997745,27.140456 C 18.528582,18.264221 13.291696,25.230495 11.500037,31.436501 z"
     style="fill:#404040;"/>
  </a>
 </g>
</svg>

<style type='text/css'>
<![CDATA[
[data-mouse-over-selected='false'] { opacity: 0.7; }
[data-mouse-over-selected='true']  { opacity: 1.0; }
]]>
</style>
<script type="application/ecmascript"><![CDATA[
document.addEventListener('DOMContentLoaded', (event) => {
  highlightEdges();
  highlightAdjacentNodes();
});
]]></script>
</svg>
