<?xml version="1.0" encoding="UTF-8" standalone="no"?>
<!DOCTYPE svg PUBLIC "-//W3C//DTD SVG 1.1//EN"
 "http://www.w3.org/Graphics/SVG/1.1/DTD/svg11.dtd">
<!-- Generated by graphviz version 12.2.1 (0)
 -->
<!-- Title: src/ui/settings/tabs/classified/layers/retina_scan/retina_scan_layer.cpp Pages: 1 -->
<svg width="1050pt" height="232pt"
 viewBox="0.00 0.00 1050.00 232.00" xmlns="http://www.w3.org/2000/svg" xmlns:xlink="http://www.w3.org/1999/xlink">
<g id="graph0" class="graph" transform="scale(1 1) rotate(0) translate(4 228)">
<title>src/ui/settings/tabs/classified/layers/retina_scan/retina_scan_layer.cpp</title>
<!-- Node1 -->
<g id="Node000001" class="node">
<title>Node1</title>
<g id="a_Node000001"><a xlink:title=" ">
<polygon fill="#999999" stroke="#666666" points="585.88,-224 446.12,-224 446.12,-184.5 585.88,-184.5 585.88,-224"/>
<text text-anchor="start" x="454.12" y="-210.5" font-family="Helvetica,sans-Serif" font-size="10.00">src/ui/settings/tabs</text>
<text text-anchor="start" x="454.12" y="-200" font-family="Helvetica,sans-Serif" font-size="10.00">/classified/layers/retina</text>
<text text-anchor="middle" x="516" y="-189.5" font-family="Helvetica,sans-Serif" font-size="10.00">_scan/retina_scan_layer.cpp</text>
</a>
</g>
</g>
<!-- Node2 -->
<g id="Node000002" class="node">
<title>Node2</title>
<g id="a_Node000002"><a xlink:href="retina__scan__layer_8h.html" target="_top" xlink:title=" ">
<polygon fill="white" stroke="#666666" points="100,-138 0,-138 0,-119.5 100,-119.5 100,-138"/>
<text text-anchor="middle" x="50" y="-124.5" font-family="Helvetica,sans-Serif" font-size="10.00">retina_scan_layer.h</text>
</a>
</g>
</g>
<!-- Node1&#45;&gt;Node2 -->
<g id="edge1_Node000001_Node000002" class="edge">
<title>Node1&#45;&gt;Node2</title>
<g id="a_edge1_Node000001_Node000002"><a xlink:title=" ">
<path fill="none" stroke="#63b8ff" d="M445.85,-197.55C364.22,-190.06 225.7,-174.68 109,-148.5 101.09,-146.72 92.72,-144.37 84.84,-141.93"/>
<polygon fill="#63b8ff" stroke="#63b8ff" points="86.17,-138.68 75.58,-138.93 84.02,-145.34 86.17,-138.68"/>
</a>
</g>
</g>
<!-- Node5 -->
<g id="Node000005" class="node">
<title>Node5</title>
<g id="a_Node000005"><a xlink:title=" ">
<polygon fill="#e0e0e0" stroke="#999999" points="194,-138 118,-138 118,-119.5 194,-119.5 194,-138"/>
<text text-anchor="middle" x="156" y="-124.5" font-family="Helvetica,sans-Serif" font-size="10.00">QVBoxLayout</text>
</a>
</g>
</g>
<!-- Node1&#45;&gt;Node5 -->
<g id="edge4_Node000001_Node000005" class="edge">
<title>Node1&#45;&gt;Node5</title>
<g id="a_edge4_Node000001_Node000005"><a xlink:title=" ">
<path fill="none" stroke="#63b8ff" d="M445.76,-195.18C381.71,-186.83 284.86,-171.72 203,-148.5 197.23,-146.86 191.2,-144.77 185.45,-142.57"/>
<polygon fill="#63b8ff" stroke="#63b8ff" points="186.89,-139.38 176.3,-138.89 184.27,-145.87 186.89,-139.38"/>
</a>
</g>
</g>
<!-- Node6 -->
<g id="Node000006" class="node">
<title>Node6</title>
<g id="a_Node000006"><a xlink:title=" ">
<polygon fill="#e0e0e0" stroke="#999999" points="266.12,-138 211.88,-138 211.88,-119.5 266.12,-119.5 266.12,-138"/>
<text text-anchor="middle" x="239" y="-124.5" font-family="Helvetica,sans-Serif" font-size="10.00">QPainter</text>
</a>
</g>
</g>
<!-- Node1&#45;&gt;Node6 -->
<g id="edge5_Node000001_Node000006" class="edge">
<title>Node1&#45;&gt;Node6</title>
<g id="a_edge5_Node000001_Node000006"><a xlink:title=" ">
<path fill="none" stroke="#63b8ff" d="M445.81,-192.22C396.99,-183.37 330.89,-169.01 275,-148.5 271.25,-147.12 267.39,-145.44 263.66,-143.64"/>
<polygon fill="#63b8ff" stroke="#63b8ff" points="265.51,-140.66 255.02,-139.18 262.29,-146.88 265.51,-140.66"/>
</a>
</g>
</g>
<!-- Node7 -->
<g id="Node000007" class="node">
<title>Node7</title>
<g id="a_Node000007"><a xlink:title=" ">
<polygon fill="#e0e0e0" stroke="#999999" points="386.12,-138 283.88,-138 283.88,-119.5 386.12,-119.5 386.12,-138"/>
<text text-anchor="middle" x="335" y="-124.5" font-family="Helvetica,sans-Serif" font-size="10.00">QRandomGenerator</text>
</a>
</g>
</g>
<!-- Node1&#45;&gt;Node7 -->
<g id="edge6_Node000001_Node000007" class="edge">
<title>Node1&#45;&gt;Node7</title>
<g id="a_edge6_Node000001_Node000007"><a xlink:title=" ">
<path fill="none" stroke="#63b8ff" d="M468.92,-184.13C436.74,-171.06 394.96,-154.1 366.69,-142.62"/>
<polygon fill="#63b8ff" stroke="#63b8ff" points="368.18,-139.45 357.6,-138.93 365.55,-145.93 368.18,-139.45"/>
</a>
</g>
</g>
<!-- Node8 -->
<g id="Node000008" class="node">
<title>Node8</title>
<g id="a_Node000008"><a xlink:title=" ">
<polygon fill="#e0e0e0" stroke="#999999" points="525.88,-138 404.12,-138 404.12,-119.5 525.88,-119.5 525.88,-138"/>
<text text-anchor="middle" x="465" y="-124.5" font-family="Helvetica,sans-Serif" font-size="10.00">QGraphicsOpacityEffect</text>
</a>
</g>
</g>
<!-- Node1&#45;&gt;Node8 -->
<g id="edge7_Node000001_Node000008" class="edge">
<title>Node1&#45;&gt;Node8</title>
<g id="a_edge7_Node000001_Node000008"><a xlink:title=" ">
<path fill="none" stroke="#63b8ff" d="M502.87,-184.32C495,-172.99 485.07,-158.67 477.35,-147.55"/>
<polygon fill="#63b8ff" stroke="#63b8ff" points="480.44,-145.87 471.87,-139.65 474.69,-149.86 480.44,-145.87"/>
</a>
</g>
</g>
<!-- Node9 -->
<g id="Node000009" class="node">
<title>Node9</title>
<g id="a_Node000009"><a xlink:title=" ">
<polygon fill="#e0e0e0" stroke="#999999" points="590.38,-138 543.62,-138 543.62,-119.5 590.38,-119.5 590.38,-138"/>
<text text-anchor="middle" x="567" y="-124.5" font-family="Helvetica,sans-Serif" font-size="10.00">QLabel</text>
</a>
</g>
</g>
<!-- Node1&#45;&gt;Node9 -->
<g id="edge8_Node000001_Node000009" class="edge">
<title>Node1&#45;&gt;Node9</title>
<g id="a_edge8_Node000001_Node000009"><a xlink:title=" ">
<path fill="none" stroke="#63b8ff" d="M529.13,-184.32C537,-172.99 546.93,-158.67 554.65,-147.55"/>
<polygon fill="#63b8ff" stroke="#63b8ff" points="557.31,-149.86 560.13,-139.65 551.56,-145.87 557.31,-149.86"/>
</a>
</g>
</g>
<!-- Node10 -->
<g id="Node000010" class="node">
<title>Node10</title>
<g id="a_Node000010"><a xlink:title=" ">
<polygon fill="#e0e0e0" stroke="#999999" points="685.75,-138 608.25,-138 608.25,-119.5 685.75,-119.5 685.75,-138"/>
<text text-anchor="middle" x="647" y="-124.5" font-family="Helvetica,sans-Serif" font-size="10.00">QProgressBar</text>
</a>
</g>
</g>
<!-- Node1&#45;&gt;Node10 -->
<g id="edge9_Node000001_Node000010" class="edge">
<title>Node1&#45;&gt;Node10</title>
<g id="a_edge9_Node000001_Node000010"><a xlink:title=" ">
<path fill="none" stroke="#63b8ff" d="M550.08,-184.13C572.54,-171.53 601.47,-155.29 621.86,-143.86"/>
<polygon fill="#63b8ff" stroke="#63b8ff" points="623.33,-147.04 630.34,-139.1 619.9,-140.94 623.33,-147.04"/>
</a>
</g>
</g>
<!-- Node11 -->
<g id="Node000011" class="node">
<title>Node11</title>
<g id="a_Node000011"><a xlink:title=" ">
<polygon fill="#e0e0e0" stroke="#999999" points="808.25,-138 703.75,-138 703.75,-119.5 808.25,-119.5 808.25,-138"/>
<text text-anchor="middle" x="756" y="-124.5" font-family="Helvetica,sans-Serif" font-size="10.00">QPropertyAnimation</text>
</a>
</g>
</g>
<!-- Node1&#45;&gt;Node11 -->
<g id="edge10_Node000001_Node000011" class="edge">
<title>Node1&#45;&gt;Node11</title>
<g id="a_edge10_Node000001_Node000011"><a xlink:title=" ">
<path fill="none" stroke="#63b8ff" d="M578.96,-184.01C613.27,-173.53 656.47,-160.31 695,-148.5 702.1,-146.32 709.67,-144 716.98,-141.75"/>
<polygon fill="#63b8ff" stroke="#63b8ff" points="717.78,-145.17 726.31,-138.88 715.72,-138.48 717.78,-145.17"/>
</a>
</g>
</g>
<!-- Node12 -->
<g id="Node000012" class="node">
<title>Node12</title>
<g id="a_Node000012"><a xlink:title=" ">
<polygon fill="#e0e0e0" stroke="#999999" points="874.12,-138 825.88,-138 825.88,-119.5 874.12,-119.5 874.12,-138"/>
<text text-anchor="middle" x="850" y="-124.5" font-family="Helvetica,sans-Serif" font-size="10.00">QTimer</text>
</a>
</g>
</g>
<!-- Node1&#45;&gt;Node12 -->
<g id="edge11_Node000001_Node000012" class="edge">
<title>Node1&#45;&gt;Node12</title>
<g id="a_edge11_Node000001_Node000012"><a xlink:title=" ">
<path fill="none" stroke="#63b8ff" d="M586.18,-197.23C648.32,-190.33 740.74,-176.19 817,-148.5 820.36,-147.28 823.78,-145.73 827.08,-144.06"/>
<polygon fill="#63b8ff" stroke="#63b8ff" points="828.68,-147.17 835.69,-139.22 825.25,-141.07 828.68,-147.17"/>
</a>
</g>
</g>
<!-- Node13 -->
<g id="Node000013" class="node">
<title>Node13</title>
<g id="a_Node000013"><a xlink:href="translation__manager_8h.html" target="_top" xlink:title=" ">
<polygon fill="white" stroke="#666666" points="1002.25,-148.5 891.75,-148.5 891.75,-109 1002.25,-109 1002.25,-148.5"/>
<text text-anchor="start" x="899.75" y="-135" font-family="Helvetica,sans-Serif" font-size="10.00">../../../../../../app</text>
<text text-anchor="start" x="899.75" y="-124.5" font-family="Helvetica,sans-Serif" font-size="10.00">/managers/translation</text>
<text text-anchor="middle" x="947" y="-114" font-family="Helvetica,sans-Serif" font-size="10.00">_manager.h</text>
</a>
</g>
</g>
<!-- Node1&#45;&gt;Node13 -->
<g id="edge12_Node000001_Node000013" class="edge">
<title>Node1&#45;&gt;Node13</title>
<g id="a_edge12_Node000001_Node000013"><a xlink:title=" ">
<path fill="none" stroke="#63b8ff" d="M586.19,-195.68C657.98,-187.28 772.82,-172.05 880.23,-148.97"/>
<polygon fill="#63b8ff" stroke="#63b8ff" points="880.76,-152.44 889.79,-146.89 879.27,-145.6 880.76,-152.44"/>
</a>
</g>
</g>
<!-- Node3 -->
<g id="Node000003" class="node">
<title>Node3</title>
<g id="a_Node000003"><a xlink:href="security__layer_8h.html" target="_top" xlink:title=" ">
<polygon fill="white" stroke="#666666" points="96.62,-73 3.38,-73 3.38,-54.5 96.62,-54.5 96.62,-73"/>
<text text-anchor="middle" x="50" y="-59.5" font-family="Helvetica,sans-Serif" font-size="10.00">../security_layer.h</text>
</a>
</g>
</g>
<!-- Node2&#45;&gt;Node3 -->
<g id="edge2_Node000002_Node000003" class="edge">
<title>Node2&#45;&gt;Node3</title>
<g id="a_edge2_Node000002_Node000003"><a xlink:title=" ">
<path fill="none" stroke="#63b8ff" d="M50,-119.25C50,-110.37 50,-96.13 50,-84.43"/>
<polygon fill="#63b8ff" stroke="#63b8ff" points="53.5,-84.63 50,-74.63 46.5,-84.63 53.5,-84.63"/>
</a>
</g>
</g>
<!-- Node4 -->
<g id="Node000004" class="node">
<title>Node4</title>
<g id="a_Node000004"><a xlink:title=" ">
<polygon fill="#e0e0e0" stroke="#999999" points="77.12,-18.5 22.88,-18.5 22.88,0 77.12,0 77.12,-18.5"/>
<text text-anchor="middle" x="50" y="-5" font-family="Helvetica,sans-Serif" font-size="10.00">QWidget</text>
</a>
</g>
</g>
<!-- Node3&#45;&gt;Node4 -->
<g id="edge3_Node000003_Node000004" class="edge">
<title>Node3&#45;&gt;Node4</title>
<g id="a_edge3_Node000003_Node000004"><a xlink:title=" ">
<path fill="none" stroke="#63b8ff" d="M50,-54.08C50,-47.58 50,-38.42 50,-30.16"/>
<polygon fill="#63b8ff" stroke="#63b8ff" points="53.5,-30.27 50,-20.27 46.5,-30.27 53.5,-30.27"/>
</a>
</g>
</g>
<!-- Node14 -->
<g id="Node000014" class="node">
<title>Node14</title>
<g id="a_Node000014"><a xlink:title=" ">
<polygon fill="#e0e0e0" stroke="#999999" points="903.5,-73 830.5,-73 830.5,-54.5 903.5,-54.5 903.5,-73"/>
<text text-anchor="middle" x="867" y="-59.5" font-family="Helvetica,sans-Serif" font-size="10.00">QJsonObject</text>
</a>
</g>
</g>
<!-- Node13&#45;&gt;Node14 -->
<g id="edge13_Node000013_Node000014" class="edge">
<title>Node13&#45;&gt;Node14</title>
<g id="a_edge13_Node000013_Node000014"><a xlink:title=" ">
<path fill="none" stroke="#63b8ff" d="M922.56,-108.51C911.16,-99.53 897.77,-88.98 886.99,-80.49"/>
<polygon fill="#63b8ff" stroke="#63b8ff" points="889.16,-77.75 879.14,-74.31 884.83,-83.25 889.16,-77.75"/>
</a>
</g>
</g>
<!-- Node15 -->
<g id="Node000015" class="node">
<title>Node15</title>
<g id="a_Node000015"><a xlink:title=" ">
<polygon fill="#e0e0e0" stroke="#999999" points="972.25,-73 921.75,-73 921.75,-54.5 972.25,-54.5 972.25,-73"/>
<text text-anchor="middle" x="947" y="-59.5" font-family="Helvetica,sans-Serif" font-size="10.00">QMutex</text>
</a>
</g>
</g>
<!-- Node13&#45;&gt;Node15 -->
<g id="edge14_Node000013_Node000015" class="edge">
<title>Node13&#45;&gt;Node15</title>
<g id="a_edge14_Node000013_Node000015"><a xlink:title=" ">
<path fill="none" stroke="#63b8ff" d="M947,-108.51C947,-100.99 947,-92.38 947,-84.8"/>
<polygon fill="#63b8ff" stroke="#63b8ff" points="950.5,-84.89 947,-74.89 943.5,-84.89 950.5,-84.89"/>
</a>
</g>
</g>
<!-- Node16 -->
<g id="Node000016" class="node">
<title>Node16</title>
<g id="a_Node000016"><a xlink:title=" ">
<polygon fill="#e0e0e0" stroke="#999999" points="1042,-73 990,-73 990,-54.5 1042,-54.5 1042,-73"/>
<text text-anchor="middle" x="1016" y="-59.5" font-family="Helvetica,sans-Serif" font-size="10.00">QObject</text>
</a>
</g>
</g>
<!-- Node13&#45;&gt;Node16 -->
<g id="edge15_Node000013_Node000016" class="edge">
<title>Node13&#45;&gt;Node16</title>
<g id="a_edge15_Node000013_Node000016"><a xlink:title=" ">
<path fill="none" stroke="#63b8ff" d="M968.08,-108.51C977.71,-99.71 988.99,-89.41 998.19,-81.01"/>
<polygon fill="#63b8ff" stroke="#63b8ff" points="1000.41,-83.72 1005.44,-74.39 995.69,-78.55 1000.41,-83.72"/>
</a>
</g>
</g>
</g>
</svg>
