<?xml version="1.0" encoding="UTF-8" standalone="no"?>
<!DOCTYPE svg PUBLIC "-//W3C//DTD SVG 1.1//EN"
 "http://www.w3.org/Graphics/SVG/1.1/DTD/svg11.dtd">
<!-- Generated by graphviz version 12.2.1 (0)
 -->
<!-- Title: src/ui/settings/tabs/classified/layers/security_layer.h Pages: 1 -->
<!--zoomable 220 -->

<svg id="main" version="1.1" xmlns="http://www.w3.org/2000/svg" xmlns:xlink="http://www.w3.org/1999/xlink" xml:space="preserve" onload="init(evt)">

<style type="text/css"><![CDATA[
.node, .edge {opacity: 0.7;}
.node.selected, .edge.selected {opacity: 1;}
.edge:hover path { stroke: red; }
.edge:hover polygon { stroke: red; fill: red; }
]]></style>

<defs>
  <circle id="rim" cx="0" cy="0" r="7"/>
  <circle id="rim2" cx="0" cy="0" r="3.5"/>
  <g id="zoomPlus">
    <use xlink:href="#rim" fill="#404040"><set attributeName="fill" to="#808080" begin="zoomplus.mouseover" end="zoomplus.mouseout"/></use>
    <path d="M-4,0h8M0,-4v8" fill="none" stroke="white" stroke-width="1.5" pointer-events="none"/>
  </g>
  <g id="zoomMin">
    <use xlink:href="#rim" fill="#404040"><set attributeName="fill" to="#808080" begin="zoomminus.mouseover" end="zoomminus.mouseout"/></use>
    <path d="M-4,0h8" fill="none" stroke="white" stroke-width="1.5" pointer-events="none"/>
  </g>
  <g id="arrowUp" transform="translate(30 24)">
    <use xlink:href="#rim"/>
    <path pointer-events="none" fill="none" stroke="white" stroke-width="1.5" d="M0,-3.0v7 M-2.5,-0.5L0,-3.0L2.5,-0.5"/>
  </g>
  <g id="arrowRight" transform="rotate(90) translate(36 -43)">
    <use xlink:href="#rim"/>
    <path pointer-events="none" fill="none" stroke="white" stroke-width="1.5" d="M0,-3.0v7 M-2.5,-0.5L0,-3.0L2.5,-0.5"/>
  </g>
  <g id="arrowDown" transform="rotate(180) translate(-30 -48)">
    <use xlink:href="#rim"/>
    <path pointer-events="none" fill="none" stroke="white" stroke-width="1.5" d="M0,-3.0v7 M-2.5,-0.5L0,-3.0L2.5,-0.5"/>
  </g>
  <g id="arrowLeft" transform="rotate(270) translate(-36 17)">
    <use xlink:href="#rim"/>
    <path pointer-events="none" fill="none" stroke="white" stroke-width="1.5" d="M0,-3.0v7 M-2.5,-0.5L0,-3.0L2.5,-0.5"/>
  </g>
  <g id="resetDef">
    <use xlink:href="#rim2" fill="#404040"><set attributeName="fill" to="#808080" begin="reset.mouseover" end="reset.mouseout"/></use>
  </g>
</defs>
<script type="application/ecmascript">
var viewWidth = 1357;
var viewHeight = 220;
var sectionId = 'dynsection-1';
</script>
<script type="application/ecmascript" xlink:href="svg.min.js"/>
<svg id="graph" class="graph">
<g id="viewport">
<title>src/ui/settings/tabs/classified/layers/security_layer.h</title>
<!-- Node1 -->
<g id="Node000001" class="node">
<title>Node1</title>
<g id="a_Node000001"><a xlink:title=" ">
<polygon fill="#999999" stroke="#666666" points="719.5,-211.5 592.5,-211.5 592.5,-172 719.5,-172 719.5,-211.5"/>
<text text-anchor="start" x="600.5" y="-198" font-family="Helvetica,sans-Serif" font-size="10.00">src/ui/settings/tabs</text>
<text text-anchor="start" x="600.5" y="-187.5" font-family="Helvetica,sans-Serif" font-size="10.00">/classified/layers/security</text>
<text text-anchor="middle" x="656" y="-177" font-family="Helvetica,sans-Serif" font-size="10.00">_layer.h</text>
</a>
</g>
</g>
<!-- Node2 -->
<g id="Node000002" class="node">
<title>Node2</title>
<g id="a_Node000002"><a xlink:href="security__code__layer_8h.html" target="_top" xlink:title=" ">
<polygon fill="white" stroke="#666666" points="195.75,-130.75 82.25,-130.75 82.25,-91.25 195.75,-91.25 195.75,-130.75"/>
<text text-anchor="start" x="90.25" y="-117.25" font-family="Helvetica,sans-Serif" font-size="10.00">src/ui/settings/tabs</text>
<text text-anchor="start" x="90.25" y="-106.75" font-family="Helvetica,sans-Serif" font-size="10.00">/classified/layers/code</text>
<text text-anchor="middle" x="139" y="-96.25" font-family="Helvetica,sans-Serif" font-size="10.00">/security_code_layer.h</text>
</a>
</g>
</g>
<!-- Node1&#45;&gt;Node2 -->
<g id="edge1_Node000001_Node000002" class="edge">
<title>Node1&#45;&gt;Node2</title>
<g id="a_edge1_Node000001_Node000002"><a xlink:title=" ">
<path fill="none" stroke="#63b8ff" d="M580.86,-186.87C490.58,-181.02 335.02,-167.1 205,-136 199.43,-134.67 193.68,-133.01 188,-131.2"/>
<polygon fill="#63b8ff" stroke="#63b8ff" points="580.37,-190.35 590.57,-187.49 580.81,-183.36 580.37,-190.35"/>
</a>
</g>
</g>
<!-- Node5 -->
<g id="Node000005" class="node">
<title>Node5</title>
<g id="a_Node000005"><a xlink:href="fingerprint__layer_8h.html" target="_top" xlink:title=" ">
<polygon fill="white" stroke="#666666" points="350,-130.75 214,-130.75 214,-91.25 350,-91.25 350,-130.75"/>
<text text-anchor="start" x="222" y="-117.25" font-family="Helvetica,sans-Serif" font-size="10.00">src/ui/settings/tabs</text>
<text text-anchor="start" x="222" y="-106.75" font-family="Helvetica,sans-Serif" font-size="10.00">/classified/layers/fingerprint</text>
<text text-anchor="middle" x="282" y="-96.25" font-family="Helvetica,sans-Serif" font-size="10.00">/fingerprint_layer.h</text>
</a>
</g>
</g>
<!-- Node1&#45;&gt;Node5 -->
<g id="edge4_Node000001_Node000005" class="edge">
<title>Node1&#45;&gt;Node5</title>
<g id="a_edge4_Node000001_Node000005"><a xlink:title=" ">
<path fill="none" stroke="#63b8ff" d="M580.76,-179.44C520.4,-169.75 433.72,-154.46 359,-136 353.15,-134.56 347.1,-132.92 341.07,-131.2"/>
<polygon fill="#63b8ff" stroke="#63b8ff" points="580.17,-182.89 590.59,-181 581.27,-175.98 580.17,-182.89"/>
</a>
</g>
</g>
<!-- Node7 -->
<g id="Node000007" class="node">
<title>Node7</title>
<g id="a_Node000007"><a xlink:href="handprint__layer_8h.html" target="_top" xlink:title=" ">
<polygon fill="white" stroke="#666666" points="500.12,-130.75 367.88,-130.75 367.88,-91.25 500.12,-91.25 500.12,-130.75"/>
<text text-anchor="start" x="375.88" y="-117.25" font-family="Helvetica,sans-Serif" font-size="10.00">src/ui/settings/tabs</text>
<text text-anchor="start" x="375.88" y="-106.75" font-family="Helvetica,sans-Serif" font-size="10.00">/classified/layers/handprint</text>
<text text-anchor="middle" x="434" y="-96.25" font-family="Helvetica,sans-Serif" font-size="10.00">/handprint_layer.h</text>
</a>
</g>
</g>
<!-- Node1&#45;&gt;Node7 -->
<g id="edge7_Node000001_Node000007" class="edge">
<title>Node1&#45;&gt;Node7</title>
<g id="a_edge7_Node000001_Node000007"><a xlink:title=" ">
<path fill="none" stroke="#63b8ff" d="M591.17,-167.75C558.49,-156.16 519.33,-142.27 488.27,-131.25"/>
<polygon fill="#63b8ff" stroke="#63b8ff" points="589.96,-171.04 600.55,-171.08 592.3,-164.44 589.96,-171.04"/>
</a>
</g>
</g>
<!-- Node9 -->
<g id="Node000009" class="node">
<title>Node9</title>
<g id="a_Node000009"><a xlink:href="security__question__layer_8h.html" target="_top" xlink:title=" ">
<polygon fill="white" stroke="#666666" points="647.62,-130.75 518.38,-130.75 518.38,-91.25 647.62,-91.25 647.62,-130.75"/>
<text text-anchor="start" x="526.38" y="-117.25" font-family="Helvetica,sans-Serif" font-size="10.00">src/ui/settings/tabs</text>
<text text-anchor="start" x="526.38" y="-106.75" font-family="Helvetica,sans-Serif" font-size="10.00">/classified/layers/question</text>
<text text-anchor="middle" x="583" y="-96.25" font-family="Helvetica,sans-Serif" font-size="10.00">/security_question_layer.h</text>
</a>
</g>
</g>
<!-- Node1&#45;&gt;Node9 -->
<g id="edge10_Node000001_Node000009" class="edge">
<title>Node1&#45;&gt;Node9</title>
<g id="a_edge10_Node000001_Node000009"><a xlink:title=" ">
<path fill="none" stroke="#63b8ff" d="M630.73,-163.49C620.86,-152.84 609.77,-140.87 600.76,-131.16"/>
<polygon fill="#63b8ff" stroke="#63b8ff" points="627.93,-165.62 637.3,-170.58 633.07,-160.86 627.93,-165.62"/>
</a>
</g>
</g>
<!-- Node11 -->
<g id="Node000011" class="node">
<title>Node11</title>
<g id="a_Node000011"><a xlink:href="retina__scan__layer_8h.html" target="_top" xlink:title=" ">
<polygon fill="white" stroke="#666666" points="794.62,-130.75 665.38,-130.75 665.38,-91.25 794.62,-91.25 794.62,-130.75"/>
<text text-anchor="start" x="673.38" y="-117.25" font-family="Helvetica,sans-Serif" font-size="10.00">src/ui/settings/tabs</text>
<text text-anchor="start" x="673.38" y="-106.75" font-family="Helvetica,sans-Serif" font-size="10.00">/classified/layers/retina</text>
<text text-anchor="middle" x="730" y="-96.25" font-family="Helvetica,sans-Serif" font-size="10.00">_scan/retina_scan_layer.h</text>
</a>
</g>
</g>
<!-- Node1&#45;&gt;Node11 -->
<g id="edge13_Node000001_Node000011" class="edge">
<title>Node1&#45;&gt;Node11</title>
<g id="a_edge13_Node000001_Node000011"><a xlink:title=" ">
<path fill="none" stroke="#63b8ff" d="M681.61,-163.49C691.62,-152.84 702.87,-140.87 712,-131.16"/>
<polygon fill="#63b8ff" stroke="#63b8ff" points="679.25,-160.9 674.95,-170.58 684.35,-165.69 679.25,-160.9"/>
</a>
</g>
</g>
<!-- Node13 -->
<g id="Node000013" class="node">
<title>Node13</title>
<g id="a_Node000013"><a xlink:href="snake__game__layer_8h.html" target="_top" xlink:title=" ">
<polygon fill="white" stroke="#666666" points="949.38,-130.75 812.62,-130.75 812.62,-91.25 949.38,-91.25 949.38,-130.75"/>
<text text-anchor="start" x="820.62" y="-117.25" font-family="Helvetica,sans-Serif" font-size="10.00">src/ui/settings/tabs</text>
<text text-anchor="start" x="820.62" y="-106.75" font-family="Helvetica,sans-Serif" font-size="10.00">/classified/layers/snake</text>
<text text-anchor="middle" x="881" y="-96.25" font-family="Helvetica,sans-Serif" font-size="10.00">_game/snake_game_layer.h</text>
</a>
</g>
</g>
<!-- Node1&#45;&gt;Node13 -->
<g id="edge16_Node000001_Node000013" class="edge">
<title>Node1&#45;&gt;Node13</title>
<g id="a_edge16_Node000001_Node000013"><a xlink:title=" ">
<path fill="none" stroke="#63b8ff" d="M721.28,-167.9C754.48,-156.28 794.38,-142.32 826,-131.25"/>
<polygon fill="#63b8ff" stroke="#63b8ff" points="720.46,-164.48 712.18,-171.09 722.78,-171.09 720.46,-164.48"/>
</a>
</g>
</g>
<!-- Node15 -->
<g id="Node000015" class="node">
<title>Node15</title>
<g id="a_Node000015"><a xlink:href="typing__test__layer_8h.html" target="_top" xlink:title=" ">
<polygon fill="white" stroke="#666666" points="1090.25,-130.75 967.75,-130.75 967.75,-91.25 1090.25,-91.25 1090.25,-130.75"/>
<text text-anchor="start" x="975.75" y="-117.25" font-family="Helvetica,sans-Serif" font-size="10.00">src/ui/settings/tabs</text>
<text text-anchor="start" x="975.75" y="-106.75" font-family="Helvetica,sans-Serif" font-size="10.00">/classified/layers/typing</text>
<text text-anchor="middle" x="1029" y="-96.25" font-family="Helvetica,sans-Serif" font-size="10.00">_test/typing_test_layer.h</text>
</a>
</g>
</g>
<!-- Node1&#45;&gt;Node15 -->
<g id="edge19_Node000001_Node000015" class="edge">
<title>Node1&#45;&gt;Node15</title>
<g id="a_edge19_Node000001_Node000015"><a xlink:title=" ">
<path fill="none" stroke="#63b8ff" d="M731.08,-180.27C792.59,-170.94 881.62,-155.72 958,-136 963.54,-134.57 969.28,-132.92 974.98,-131.17"/>
<polygon fill="#63b8ff" stroke="#63b8ff" points="730.79,-176.78 721.42,-181.72 731.83,-183.7 730.79,-176.78"/>
</a>
</g>
</g>
<!-- Node17 -->
<g id="Node000017" class="node">
<title>Node17</title>
<g id="a_Node000017"><a xlink:href="voice__recognition__layer_8h.html" target="_top" xlink:title=" ">
<polygon fill="white" stroke="#666666" points="1255.25,-136 1108.75,-136 1108.75,-86 1255.25,-86 1255.25,-136"/>
<text text-anchor="start" x="1116.75" y="-122.5" font-family="Helvetica,sans-Serif" font-size="10.00">src/ui/settings/tabs</text>
<text text-anchor="start" x="1116.75" y="-112" font-family="Helvetica,sans-Serif" font-size="10.00">/classified/layers/voice</text>
<text text-anchor="start" x="1116.75" y="-101.5" font-family="Helvetica,sans-Serif" font-size="10.00">_recognition/voice_recognition</text>
<text text-anchor="middle" x="1182" y="-91" font-family="Helvetica,sans-Serif" font-size="10.00">_layer.h</text>
</a>
</g>
</g>
<!-- Node1&#45;&gt;Node17 -->
<g id="edge22_Node000001_Node000017" class="edge">
<title>Node1&#45;&gt;Node17</title>
<g id="a_edge22_Node000001_Node000017"><a xlink:title=" ">
<path fill="none" stroke="#63b8ff" d="M731.26,-185.11C819.87,-177.62 971.18,-162.21 1099,-136 1102.09,-135.37 1105.22,-134.68 1108.38,-133.94"/>
<polygon fill="#63b8ff" stroke="#63b8ff" points="731.16,-181.6 721.48,-185.92 731.74,-188.58 731.16,-181.6"/>
</a>
</g>
</g>
<!-- Node3 -->
<g id="Node000003" class="node">
<title>Node3</title>
<g id="a_Node000003"><a xlink:href="security__code__layer_8cpp.html" target="_top" xlink:title=" ">
<polygon fill="white" stroke="#666666" points="124,-44.75 0,-44.75 0,-5.25 124,-5.25 124,-44.75"/>
<text text-anchor="start" x="8" y="-31.25" font-family="Helvetica,sans-Serif" font-size="10.00">src/ui/settings/tabs</text>
<text text-anchor="start" x="8" y="-20.75" font-family="Helvetica,sans-Serif" font-size="10.00">/classified/layers/code</text>
<text text-anchor="middle" x="62" y="-10.25" font-family="Helvetica,sans-Serif" font-size="10.00">/security_code_layer.cpp</text>
</a>
</g>
</g>
<!-- Node2&#45;&gt;Node3 -->
<g id="edge2_Node000002_Node000003" class="edge">
<title>Node2&#45;&gt;Node3</title>
<g id="a_edge2_Node000002_Node000003"><a xlink:title=" ">
<path fill="none" stroke="#63b8ff" d="M114.04,-82.77C102.73,-70.43 89.63,-56.14 79.4,-44.99"/>
<polygon fill="#63b8ff" stroke="#63b8ff" points="111.17,-84.82 120.5,-89.82 116.33,-80.09 111.17,-84.82"/>
</a>
</g>
</g>
<!-- Node4 -->
<g id="Node000004" class="node">
<title>Node4</title>
<g id="a_Node000004"><a xlink:href="settings__view_8cpp.html" target="_top" xlink:title=" ">
<polygon fill="white" stroke="#666666" points="710,-39.5 604,-39.5 604,-10.5 710,-10.5 710,-39.5"/>
<text text-anchor="start" x="612" y="-26" font-family="Helvetica,sans-Serif" font-size="10.00">src/ui/views/settings</text>
<text text-anchor="middle" x="657" y="-15.5" font-family="Helvetica,sans-Serif" font-size="10.00">_view.cpp</text>
</a>
</g>
</g>
<!-- Node2&#45;&gt;Node4 -->
<g id="edge3_Node000002_Node000004" class="edge">
<title>Node2&#45;&gt;Node4</title>
<g id="a_edge3_Node000002_Node000004"><a xlink:title=" ">
<path fill="none" stroke="#63b8ff" d="M198.1,-87.69C200.42,-87.08 202.72,-86.51 205,-86 374.86,-47.94 425.54,-89.8 595,-50 605.34,-47.57 616.25,-43.79 625.99,-39.94"/>
<polygon fill="#63b8ff" stroke="#63b8ff" points="197.31,-84.28 188.69,-90.44 199.27,-91 197.31,-84.28"/>
</a>
</g>
</g>
<!-- Node5&#45;&gt;Node4 -->
<g id="edge6_Node000005_Node000004" class="edge">
<title>Node5&#45;&gt;Node4</title>
<g id="a_edge6_Node000005_Node000004"><a xlink:title=" ">
<path fill="none" stroke="#63b8ff" d="M351.13,-87.91C353.78,-87.24 356.41,-86.6 359,-86 462.39,-62.15 492.47,-77.31 595,-50 604.93,-47.36 615.44,-43.65 624.94,-39.94"/>
<polygon fill="#63b8ff" stroke="#63b8ff" points="350.4,-84.49 341.65,-90.46 352.21,-91.25 350.4,-84.49"/>
</a>
</g>
</g>
<!-- Node6 -->
<g id="Node000006" class="node">
<title>Node6</title>
<g id="a_Node000006"><a xlink:href="fingerprint__layer_8cpp.html" target="_top" xlink:title=" ">
<polygon fill="white" stroke="#666666" points="278,-44.75 142,-44.75 142,-5.25 278,-5.25 278,-44.75"/>
<text text-anchor="start" x="150" y="-31.25" font-family="Helvetica,sans-Serif" font-size="10.00">src/ui/settings/tabs</text>
<text text-anchor="start" x="150" y="-20.75" font-family="Helvetica,sans-Serif" font-size="10.00">/classified/layers/fingerprint</text>
<text text-anchor="middle" x="210" y="-10.25" font-family="Helvetica,sans-Serif" font-size="10.00">/fingerprint_layer.cpp</text>
</a>
</g>
</g>
<!-- Node5&#45;&gt;Node6 -->
<g id="edge5_Node000005_Node000006" class="edge">
<title>Node5&#45;&gt;Node6</title>
<g id="a_edge5_Node000005_Node000006"><a xlink:title=" ">
<path fill="none" stroke="#63b8ff" d="M258.35,-82.41C247.85,-70.16 235.74,-56.03 226.27,-44.99"/>
<polygon fill="#63b8ff" stroke="#63b8ff" points="255.51,-84.48 264.68,-89.79 260.83,-79.92 255.51,-84.48"/>
</a>
</g>
</g>
<!-- Node7&#45;&gt;Node4 -->
<g id="edge9_Node000007_Node000004" class="edge">
<title>Node7&#45;&gt;Node4</title>
<g id="a_edge9_Node000007_Node000004"><a xlink:title=" ">
<path fill="none" stroke="#63b8ff" d="M496.59,-86.88C526.42,-75.81 562.59,-62.31 595,-50 603.52,-46.76 612.69,-43.24 621.29,-39.91"/>
<polygon fill="#63b8ff" stroke="#63b8ff" points="495.48,-83.56 487.32,-90.32 497.92,-90.12 495.48,-83.56"/>
</a>
</g>
</g>
<!-- Node8 -->
<g id="Node000008" class="node">
<title>Node8</title>
<g id="a_Node000008"><a xlink:href="handprint__layer_8cpp.html" target="_top" xlink:title=" ">
<polygon fill="white" stroke="#666666" points="428.12,-44.75 295.88,-44.75 295.88,-5.25 428.12,-5.25 428.12,-44.75"/>
<text text-anchor="start" x="303.88" y="-31.25" font-family="Helvetica,sans-Serif" font-size="10.00">src/ui/settings/tabs</text>
<text text-anchor="start" x="303.88" y="-20.75" font-family="Helvetica,sans-Serif" font-size="10.00">/classified/layers/handprint</text>
<text text-anchor="middle" x="362" y="-10.25" font-family="Helvetica,sans-Serif" font-size="10.00">/handprint_layer.cpp</text>
</a>
</g>
</g>
<!-- Node7&#45;&gt;Node8 -->
<g id="edge8_Node000007_Node000008" class="edge">
<title>Node7&#45;&gt;Node8</title>
<g id="a_edge8_Node000007_Node000008"><a xlink:title=" ">
<path fill="none" stroke="#63b8ff" d="M410.35,-82.41C399.85,-70.16 387.74,-56.03 378.27,-44.99"/>
<polygon fill="#63b8ff" stroke="#63b8ff" points="407.51,-84.48 416.68,-89.79 412.83,-79.92 407.51,-84.48"/>
</a>
</g>
</g>
<!-- Node9&#45;&gt;Node4 -->
<g id="edge12_Node000009_Node000004" class="edge">
<title>Node9&#45;&gt;Node4</title>
<g id="a_edge12_Node000009_Node000004"><a xlink:title=" ">
<path fill="none" stroke="#63b8ff" d="M607.28,-82.43C619.88,-68.13 634.72,-51.29 644.89,-39.75"/>
<polygon fill="#63b8ff" stroke="#63b8ff" points="604.78,-79.99 600.79,-89.8 610.03,-84.61 604.78,-79.99"/>
</a>
</g>
</g>
<!-- Node10 -->
<g id="Node000010" class="node">
<title>Node10</title>
<g id="a_Node000010"><a xlink:href="security__question__layer_8cpp.html" target="_top" xlink:title=" ">
<polygon fill="white" stroke="#666666" points="585.88,-44.75 446.12,-44.75 446.12,-5.25 585.88,-5.25 585.88,-44.75"/>
<text text-anchor="start" x="454.12" y="-31.25" font-family="Helvetica,sans-Serif" font-size="10.00">src/ui/settings/tabs</text>
<text text-anchor="start" x="454.12" y="-20.75" font-family="Helvetica,sans-Serif" font-size="10.00">/classified/layers/question</text>
<text text-anchor="middle" x="516" y="-10.25" font-family="Helvetica,sans-Serif" font-size="10.00">/security_question_layer.cpp</text>
</a>
</g>
</g>
<!-- Node9&#45;&gt;Node10 -->
<g id="edge11_Node000009_Node000010" class="edge">
<title>Node9&#45;&gt;Node10</title>
<g id="a_edge11_Node000009_Node000010"><a xlink:title=" ">
<path fill="none" stroke="#63b8ff" d="M560.71,-82.06C551,-69.88 539.87,-55.93 531.14,-44.99"/>
<polygon fill="#63b8ff" stroke="#63b8ff" points="557.88,-84.12 566.85,-89.76 563.35,-79.76 557.88,-84.12"/>
</a>
</g>
</g>
<!-- Node11&#45;&gt;Node4 -->
<g id="edge15_Node000011_Node000004" class="edge">
<title>Node11&#45;&gt;Node4</title>
<g id="a_edge15_Node000011_Node000004"><a xlink:title=" ">
<path fill="none" stroke="#63b8ff" d="M706.04,-82.43C693.62,-68.13 678.98,-51.29 668.95,-39.75"/>
<polygon fill="#63b8ff" stroke="#63b8ff" points="703.24,-84.54 712.44,-89.8 708.52,-79.95 703.24,-84.54"/>
</a>
</g>
</g>
<!-- Node12 -->
<g id="Node000012" class="node">
<title>Node12</title>
<g id="a_Node000012"><a xlink:href="retina__scan__layer_8cpp.html" target="_top" xlink:title=" ">
<polygon fill="white" stroke="#666666" points="867.88,-44.75 728.12,-44.75 728.12,-5.25 867.88,-5.25 867.88,-44.75"/>
<text text-anchor="start" x="736.12" y="-31.25" font-family="Helvetica,sans-Serif" font-size="10.00">src/ui/settings/tabs</text>
<text text-anchor="start" x="736.12" y="-20.75" font-family="Helvetica,sans-Serif" font-size="10.00">/classified/layers/retina</text>
<text text-anchor="middle" x="798" y="-10.25" font-family="Helvetica,sans-Serif" font-size="10.00">_scan/retina_scan_layer.cpp</text>
</a>
</g>
</g>
<!-- Node11&#45;&gt;Node12 -->
<g id="edge14_Node000011_Node000012" class="edge">
<title>Node11&#45;&gt;Node12</title>
<g id="a_edge14_Node000011_Node000012"><a xlink:title=" ">
<path fill="none" stroke="#63b8ff" d="M752.62,-82.06C762.48,-69.88 773.77,-55.93 782.63,-44.99"/>
<polygon fill="#63b8ff" stroke="#63b8ff" points="749.95,-79.79 746.38,-89.76 755.39,-84.19 749.95,-79.79"/>
</a>
</g>
</g>
<!-- Node13&#45;&gt;Node4 -->
<g id="edge18_Node000013_Node000004" class="edge">
<title>Node13&#45;&gt;Node4</title>
<g id="a_edge18_Node000013_Node000004"><a xlink:title=" ">
<path fill="none" stroke="#63b8ff" d="M818.01,-86.91C787.99,-75.85 751.6,-62.35 719,-50 710.47,-46.77 701.3,-43.25 692.7,-39.92"/>
<polygon fill="#63b8ff" stroke="#63b8ff" points="816.75,-90.18 827.34,-90.35 819.17,-83.61 816.75,-90.18"/>
</a>
</g>
</g>
<!-- Node14 -->
<g id="Node000014" class="node">
<title>Node14</title>
<g id="a_Node000014"><a xlink:href="snake__game__layer_8cpp.html" target="_top" xlink:title=" ">
<polygon fill="white" stroke="#666666" points="1033.62,-44.75 886.38,-44.75 886.38,-5.25 1033.62,-5.25 1033.62,-44.75"/>
<text text-anchor="start" x="894.38" y="-31.25" font-family="Helvetica,sans-Serif" font-size="10.00">src/ui/settings/tabs</text>
<text text-anchor="start" x="894.38" y="-20.75" font-family="Helvetica,sans-Serif" font-size="10.00">/classified/layers/snake</text>
<text text-anchor="middle" x="960" y="-10.25" font-family="Helvetica,sans-Serif" font-size="10.00">_game/snake_game_layer.cpp</text>
</a>
</g>
</g>
<!-- Node13&#45;&gt;Node14 -->
<g id="edge17_Node000013_Node000014" class="edge">
<title>Node13&#45;&gt;Node14</title>
<g id="a_edge17_Node000013_Node000014"><a xlink:title=" ">
<path fill="none" stroke="#63b8ff" d="M906.61,-82.77C918.21,-70.43 931.65,-56.14 942.14,-44.99"/>
<polygon fill="#63b8ff" stroke="#63b8ff" points="904.26,-80.15 899.96,-89.84 909.36,-84.95 904.26,-80.15"/>
</a>
</g>
</g>
<!-- Node15&#45;&gt;Node4 -->
<g id="edge21_Node000015_Node000004" class="edge">
<title>Node15&#45;&gt;Node4</title>
<g id="a_edge21_Node000015_Node000004"><a xlink:title=" ">
<path fill="none" stroke="#63b8ff" d="M964.47,-87.65C962.3,-87.07 960.13,-86.52 958,-86 853.6,-60.7 822.83,-77.56 719,-50 709.07,-47.36 698.55,-43.66 689.05,-39.95"/>
<polygon fill="#63b8ff" stroke="#63b8ff" points="963.38,-90.98 973.95,-90.36 965.3,-84.25 963.38,-90.98"/>
</a>
</g>
</g>
<!-- Node16 -->
<g id="Node000016" class="node">
<title>Node16</title>
<g id="a_Node000016"><a xlink:href="typing__test__layer_8cpp.html" target="_top" xlink:title=" ">
<polygon fill="white" stroke="#666666" points="1184.5,-44.75 1051.5,-44.75 1051.5,-5.25 1184.5,-5.25 1184.5,-44.75"/>
<text text-anchor="start" x="1059.5" y="-31.25" font-family="Helvetica,sans-Serif" font-size="10.00">src/ui/settings/tabs</text>
<text text-anchor="start" x="1059.5" y="-20.75" font-family="Helvetica,sans-Serif" font-size="10.00">/classified/layers/typing</text>
<text text-anchor="middle" x="1118" y="-10.25" font-family="Helvetica,sans-Serif" font-size="10.00">_test/typing_test_layer.cpp</text>
</a>
</g>
</g>
<!-- Node15&#45;&gt;Node16 -->
<g id="edge20_Node000015_Node000016" class="edge">
<title>Node15&#45;&gt;Node16</title>
<g id="a_edge20_Node000015_Node000016"><a xlink:title=" ">
<path fill="none" stroke="#63b8ff" d="M1057.47,-83.13C1070.63,-70.71 1085.95,-56.25 1097.88,-44.99"/>
<polygon fill="#63b8ff" stroke="#63b8ff" points="1055.17,-80.49 1050.3,-89.9 1059.97,-85.58 1055.17,-80.49"/>
</a>
</g>
</g>
<!-- Node17&#45;&gt;Node4 -->
<g id="edge24_Node000017_Node000004" class="edge">
<title>Node17&#45;&gt;Node4</title>
<g id="a_edge24_Node000017_Node000004"><a xlink:title=" ">
<path fill="none" stroke="#63b8ff" d="M1097.23,-85.87C930.22,-55.76 880.56,-88.15 719,-50 708.67,-47.56 697.75,-43.77 688.01,-39.92"/>
<polygon fill="#63b8ff" stroke="#63b8ff" points="1096.45,-89.28 1106.92,-87.67 1097.73,-82.4 1096.45,-89.28"/>
</a>
</g>
</g>
<!-- Node18 -->
<g id="Node000018" class="node">
<title>Node18</title>
<g id="a_Node000018"><a xlink:href="voice__recognition__layer_8cpp.html" target="_top" xlink:title=" ">
<polygon fill="white" stroke="#666666" points="1349.25,-50 1202.75,-50 1202.75,0 1349.25,0 1349.25,-50"/>
<text text-anchor="start" x="1210.75" y="-36.5" font-family="Helvetica,sans-Serif" font-size="10.00">src/ui/settings/tabs</text>
<text text-anchor="start" x="1210.75" y="-26" font-family="Helvetica,sans-Serif" font-size="10.00">/classified/layers/voice</text>
<text text-anchor="start" x="1210.75" y="-15.5" font-family="Helvetica,sans-Serif" font-size="10.00">_recognition/voice_recognition</text>
<text text-anchor="middle" x="1276" y="-5" font-family="Helvetica,sans-Serif" font-size="10.00">_layer.cpp</text>
</a>
</g>
</g>
<!-- Node17&#45;&gt;Node18 -->
<g id="edge23_Node000017_Node000018" class="edge">
<title>Node17&#45;&gt;Node18</title>
<g id="a_edge23_Node000017_Node000018"><a xlink:title=" ">
<path fill="none" stroke="#63b8ff" d="M1217.65,-78.14C1228,-68.89 1239.14,-58.94 1248.87,-50.24"/>
<polygon fill="#63b8ff" stroke="#63b8ff" points="1215.44,-75.42 1210.32,-84.7 1220.11,-80.64 1215.44,-75.42"/>
</a>
</g>
</g>
</g>
</svg>

<g id="navigator" transform="translate(0 0)" fill="#404254">
  <rect fill="#f2f5e9" fill-opacity="0.5" stroke="#606060" stroke-width=".5" x="0" y="0" width="60" height="60"/>
  <use id="zoomplus" xlink:href="#zoomPlus" x="17" y="9" onmousedown="handleZoom(evt,'in')"/>
  <use id="zoomminus" xlink:href="#zoomMin" x="42" y="9" onmousedown="handleZoom(evt,'out')"/>
  <use id="reset" xlink:href="#resetDef" x="30" y="36" onmousedown="handleReset()"/>
   <use id="arrowup" xlink:href="#arrowUp" x="0" y="0" onmousedown="handlePan(0,-1)"/>
  <use id="arrowright" xlink:href="#arrowRight" x="0" y="0" onmousedown="handlePan(1,0)"/>
  <use id="arrowdown" xlink:href="#arrowDown" x="0" y="0" onmousedown="handlePan(0,1)"/>
  <use id="arrowleft" xlink:href="#arrowLeft" x="0" y="0" onmousedown="handlePan(-1,0)"/>
</g>
<svg viewBox="0 0 15 15" width="100%" height="30px" preserveAspectRatio="xMaxYMin meet">
 <g id="arrow_out" transform="scale(0.3 0.3)">
  <a xlink:href="security__layer_8h__dep__incl_org.svg" target="_base">
   <rect id="button" ry="5" rx="5" y="6" x="6" height="38" width="38"
        fill="#f2f5e9" fill-opacity="0.5" stroke="#606060" stroke-width="1.0"/>
   <path id="arrow"
     d="M 11.500037,31.436501 C 11.940474,20.09759 22.043105,11.32322 32.158766,21.979434 L 37.068811,17.246167 C 37.068811,17.246167 37.088388,32 37.088388,32 L 22.160133,31.978069 C 22.160133,31.978069 26.997745,27.140456 26.997745,27.140456 C 18.528582,18.264221 13.291696,25.230495 11.500037,31.436501 z"
     style="fill:#404040;"/>
  </a>
 </g>
</svg>

<style type='text/css'>
<![CDATA[
[data-mouse-over-selected='false'] { opacity: 0.7; }
[data-mouse-over-selected='true']  { opacity: 1.0; }
]]>
</style>
<script type="application/ecmascript"><![CDATA[
document.addEventListener('DOMContentLoaded', (event) => {
  highlightEdges();
  highlightAdjacentNodes();
});
]]></script>
</svg>
