<?xml version="1.0" encoding="UTF-8" standalone="no"?>
<!DOCTYPE svg PUBLIC "-//W3C//DTD SVG 1.1//EN"
 "http://www.w3.org/Graphics/SVG/1.1/DTD/svg11.dtd">
<!-- Generated by graphviz version 12.2.1 (0)
 -->
<!-- Title: src/session/session_coordinator.cpp Pages: 1 -->
<svg width="1548pt" height="157pt"
 viewBox="0.00 0.00 1548.25 156.50" xmlns="http://www.w3.org/2000/svg" xmlns:xlink="http://www.w3.org/1999/xlink">
<g id="graph0" class="graph" transform="scale(1 1) rotate(0) translate(4 152.5)">
<title>src/session/session_coordinator.cpp</title>
<!-- Node1 -->
<g id="Node000001" class="node">
<title>Node1</title>
<g id="a_Node000001"><a xlink:title=" ">
<polygon fill="#999999" stroke="#666666" points="813.25,-148.5 710.25,-148.5 710.25,-119.5 813.25,-119.5 813.25,-148.5"/>
<text text-anchor="start" x="718.25" y="-135" font-family="Helvetica,sans-Serif" font-size="10.00">src/session/session</text>
<text text-anchor="middle" x="761.75" y="-124.5" font-family="Helvetica,sans-Serif" font-size="10.00">_coordinator.cpp</text>
</a>
</g>
</g>
<!-- Node2 -->
<g id="Node000002" class="node">
<title>Node2</title>
<g id="a_Node000002"><a xlink:href="session__coordinator_8h.html" target="_top" xlink:title=" ">
<polygon fill="white" stroke="#666666" points="1103.38,-78.25 992.12,-78.25 992.12,-59.75 1103.38,-59.75 1103.38,-78.25"/>
<text text-anchor="middle" x="1047.75" y="-64.75" font-family="Helvetica,sans-Serif" font-size="10.00">session_coordinator.h</text>
</a>
</g>
</g>
<!-- Node1&#45;&gt;Node2 -->
<g id="edge1_Node000001_Node000002" class="edge">
<title>Node1&#45;&gt;Node2</title>
<g id="a_edge1_Node000001_Node000002"><a xlink:title=" ">
<path fill="none" stroke="#63b8ff" d="M813.54,-121.59C865.62,-110.12 945.4,-92.55 997.08,-81.16"/>
<polygon fill="#63b8ff" stroke="#63b8ff" points="997.81,-84.59 1006.82,-79.02 996.3,-77.75 997.81,-84.59"/>
</a>
</g>
</g>
<!-- Node5 -->
<g id="Node000005" class="node">
<title>Node5</title>
<g id="a_Node000005"><a xlink:title=" ">
<polygon fill="#e0e0e0" stroke="#999999" points="1160.38,-78.25 1121.12,-78.25 1121.12,-59.75 1160.38,-59.75 1160.38,-78.25"/>
<text text-anchor="middle" x="1140.75" y="-64.75" font-family="Helvetica,sans-Serif" font-size="10.00">QFile</text>
</a>
</g>
</g>
<!-- Node1&#45;&gt;Node5 -->
<g id="edge4_Node000001_Node000005" class="edge">
<title>Node1&#45;&gt;Node5</title>
<g id="a_edge4_Node000001_Node000005"><a xlink:title=" ">
<path fill="none" stroke="#63b8ff" d="M813.68,-130.68C883.15,-126.46 1009.55,-114.82 1112.75,-83.5 1113.25,-83.35 1113.76,-83.19 1114.27,-83.02"/>
<polygon fill="#63b8ff" stroke="#63b8ff" points="1115.46,-86.31 1123.4,-79.3 1112.82,-79.83 1115.46,-86.31"/>
</a>
</g>
</g>
<!-- Node6 -->
<g id="Node000006" class="node">
<title>Node6</title>
<g id="a_Node000006"><a xlink:href="wavelength__config_8h.html" target="_top" xlink:title=" ">
<polygon fill="white" stroke="#666666" points="1309.5,-78.25 1178,-78.25 1178,-59.75 1309.5,-59.75 1309.5,-78.25"/>
<text text-anchor="middle" x="1243.75" y="-64.75" font-family="Helvetica,sans-Serif" font-size="10.00">../app/wavelength_config.h</text>
</a>
</g>
</g>
<!-- Node1&#45;&gt;Node6 -->
<g id="edge5_Node000001_Node000006" class="edge">
<title>Node1&#45;&gt;Node6</title>
<g id="a_edge5_Node000001_Node000006"><a xlink:title=" ">
<path fill="none" stroke="#63b8ff" d="M813.73,-127.7C891.39,-119.55 1042.24,-102.85 1169.75,-83.5 1175.41,-82.64 1181.31,-81.68 1187.19,-80.68"/>
<polygon fill="#63b8ff" stroke="#63b8ff" points="1187.69,-84.14 1196.93,-78.97 1186.48,-77.25 1187.69,-84.14"/>
</a>
</g>
</g>
<!-- Node11 -->
<g id="Node000011" class="node">
<title>Node11</title>
<g id="a_Node000011"><a xlink:href="message__processor_8h.html" target="_top" xlink:title=" ">
<polygon fill="white" stroke="#666666" points="973.88,-83.5 841.62,-83.5 841.62,-54.5 973.88,-54.5 973.88,-83.5"/>
<text text-anchor="start" x="849.62" y="-70" font-family="Helvetica,sans-Serif" font-size="10.00">../chat/messages/services</text>
<text text-anchor="middle" x="907.75" y="-59.5" font-family="Helvetica,sans-Serif" font-size="10.00">/message_processor.h</text>
</a>
</g>
</g>
<!-- Node1&#45;&gt;Node11 -->
<g id="edge10_Node000001_Node000011" class="edge">
<title>Node1&#45;&gt;Node11</title>
<g id="a_edge10_Node000001_Node000011"><a xlink:title=" ">
<path fill="none" stroke="#63b8ff" d="M794.15,-119.02C815.04,-110.01 842.43,-98.19 865.08,-88.41"/>
<polygon fill="#63b8ff" stroke="#63b8ff" points="866.25,-91.72 874.05,-84.54 863.48,-85.29 866.25,-91.72"/>
</a>
</g>
</g>
<!-- Node12 -->
<g id="Node000012" class="node">
<title>Node12</title>
<g id="a_Node000012"><a xlink:href="message__service_8h.html" target="_top" xlink:title=" ">
<polygon fill="white" stroke="#666666" points="263.88,-83.5 131.62,-83.5 131.62,-54.5 263.88,-54.5 263.88,-83.5"/>
<text text-anchor="start" x="139.62" y="-70" font-family="Helvetica,sans-Serif" font-size="10.00">../chat/messages/services</text>
<text text-anchor="middle" x="197.75" y="-59.5" font-family="Helvetica,sans-Serif" font-size="10.00">/message_service.h</text>
</a>
</g>
</g>
<!-- Node1&#45;&gt;Node12 -->
<g id="edge12_Node000001_Node000012" class="edge">
<title>Node1&#45;&gt;Node12</title>
<g id="a_edge12_Node000001_Node000012"><a xlink:title=" ">
<path fill="none" stroke="#63b8ff" d="M709.84,-129.07C622.37,-122.16 439.84,-106.5 275.65,-83.84"/>
<polygon fill="#63b8ff" stroke="#63b8ff" points="276.25,-80.39 265.86,-82.47 275.28,-87.32 276.25,-80.39"/>
</a>
</g>
</g>
<!-- Node14 -->
<g id="Node000014" class="node">
<title>Node14</title>
<g id="a_Node000014"><a xlink:href="wavelength__event__broker_8h.html" target="_top" xlink:title=" ">
<polygon fill="white" stroke="#666666" points="113.5,-83.5 0,-83.5 0,-54.5 113.5,-54.5 113.5,-83.5"/>
<text text-anchor="start" x="8" y="-70" font-family="Helvetica,sans-Serif" font-size="10.00">../services/wavelength</text>
<text text-anchor="middle" x="56.75" y="-59.5" font-family="Helvetica,sans-Serif" font-size="10.00">_event_broker.h</text>
</a>
</g>
</g>
<!-- Node1&#45;&gt;Node14 -->
<g id="edge15_Node000001_Node000014" class="edge">
<title>Node1&#45;&gt;Node14</title>
<g id="a_edge15_Node000001_Node000014"><a xlink:title=" ">
<path fill="none" stroke="#63b8ff" d="M710.16,-131.18C603.02,-126.94 348.46,-114.41 125.19,-83.72"/>
<polygon fill="#63b8ff" stroke="#63b8ff" points="125.8,-80.27 115.41,-82.35 124.83,-87.2 125.8,-80.27"/>
</a>
</g>
</g>
<!-- Node15 -->
<g id="Node000015" class="node">
<title>Node15</title>
<g id="a_Node000015"><a xlink:href="wavelength__state__manager_8h.html" target="_top" xlink:title=" ">
<polygon fill="white" stroke="#666666" points="395.5,-83.5 282,-83.5 282,-54.5 395.5,-54.5 395.5,-83.5"/>
<text text-anchor="start" x="290" y="-70" font-family="Helvetica,sans-Serif" font-size="10.00">../services/wavelength</text>
<text text-anchor="middle" x="338.75" y="-59.5" font-family="Helvetica,sans-Serif" font-size="10.00">_state_manager.h</text>
</a>
</g>
</g>
<!-- Node1&#45;&gt;Node15 -->
<g id="edge18_Node000001_Node000015" class="edge">
<title>Node1&#45;&gt;Node15</title>
<g id="a_edge18_Node000001_Node000015"><a xlink:title=" ">
<path fill="none" stroke="#63b8ff" d="M709.86,-126.86C642.48,-118.66 520.98,-103.07 407.28,-83.86"/>
<polygon fill="#63b8ff" stroke="#63b8ff" points="407.88,-80.42 397.44,-82.19 406.71,-87.32 407.88,-80.42"/>
</a>
</g>
</g>
<!-- Node17 -->
<g id="Node000017" class="node">
<title>Node17</title>
<g id="a_Node000017"><a xlink:href="wavelength__registry_8h.html" target="_top" xlink:title=" ">
<polygon fill="white" stroke="#666666" points="1475.88,-83.5 1367.62,-83.5 1367.62,-54.5 1475.88,-54.5 1475.88,-83.5"/>
<text text-anchor="start" x="1375.62" y="-70" font-family="Helvetica,sans-Serif" font-size="10.00">../storage/wavelength</text>
<text text-anchor="middle" x="1421.75" y="-59.5" font-family="Helvetica,sans-Serif" font-size="10.00">_registry.h</text>
</a>
</g>
</g>
<!-- Node1&#45;&gt;Node17 -->
<g id="edge21_Node000001_Node000017" class="edge">
<title>Node1&#45;&gt;Node17</title>
<g id="a_edge21_Node000001_Node000017"><a xlink:title=" ">
<path fill="none" stroke="#63b8ff" d="M813.66,-129.11C912.22,-121.57 1133.23,-103.89 1318.75,-83.5 1330.83,-82.17 1343.68,-80.61 1356.07,-79.02"/>
<polygon fill="#63b8ff" stroke="#63b8ff" points="1356.31,-82.52 1365.78,-77.77 1355.41,-75.58 1356.31,-82.52"/>
</a>
</g>
</g>
<!-- Node20 -->
<g id="Node000020" class="node">
<title>Node20</title>
<g id="a_Node000020"><a xlink:href="wavelength__creator_8h.html" target="_top" xlink:title=" ">
<polygon fill="white" stroke="#666666" points="542,-83.5 413.5,-83.5 413.5,-54.5 542,-54.5 542,-83.5"/>
<text text-anchor="start" x="421.5" y="-70" font-family="Helvetica,sans-Serif" font-size="10.00">events/creator/wavelength</text>
<text text-anchor="middle" x="477.75" y="-59.5" font-family="Helvetica,sans-Serif" font-size="10.00">_creator.h</text>
</a>
</g>
</g>
<!-- Node1&#45;&gt;Node20 -->
<g id="edge24_Node000001_Node000020" class="edge">
<title>Node1&#45;&gt;Node20</title>
<g id="a_edge24_Node000001_Node000020"><a xlink:title=" ">
<path fill="none" stroke="#63b8ff" d="M709.99,-121.52C665.74,-111.7 601.53,-97.46 551.83,-86.43"/>
<polygon fill="#63b8ff" stroke="#63b8ff" points="552.82,-83.07 542.3,-84.32 551.3,-89.9 552.82,-83.07"/>
</a>
</g>
</g>
<!-- Node21 -->
<g id="Node000021" class="node">
<title>Node21</title>
<g id="a_Node000021"><a xlink:href="wavelength__joiner_8h.html" target="_top" xlink:title=" ">
<polygon fill="white" stroke="#666666" points="681.62,-83.5 559.88,-83.5 559.88,-54.5 681.62,-54.5 681.62,-83.5"/>
<text text-anchor="start" x="567.88" y="-70" font-family="Helvetica,sans-Serif" font-size="10.00">events/joiner/wavelength</text>
<text text-anchor="middle" x="620.75" y="-59.5" font-family="Helvetica,sans-Serif" font-size="10.00">_joiner.h</text>
</a>
</g>
</g>
<!-- Node1&#45;&gt;Node21 -->
<g id="edge26_Node000001_Node000021" class="edge">
<title>Node1&#45;&gt;Node21</title>
<g id="a_edge26_Node000001_Node000021"><a xlink:title=" ">
<path fill="none" stroke="#63b8ff" d="M730.46,-119.02C710.38,-110.05 684.07,-98.29 662.26,-88.55"/>
<polygon fill="#63b8ff" stroke="#63b8ff" points="663.89,-85.44 653.34,-84.56 661.04,-91.84 663.89,-85.44"/>
</a>
</g>
</g>
<!-- Node22 -->
<g id="Node000022" class="node">
<title>Node22</title>
<g id="a_Node000022"><a xlink:href="wavelength__leaver_8h.html" target="_top" xlink:title=" ">
<polygon fill="white" stroke="#666666" points="823.75,-83.5 699.75,-83.5 699.75,-54.5 823.75,-54.5 823.75,-83.5"/>
<text text-anchor="start" x="707.75" y="-70" font-family="Helvetica,sans-Serif" font-size="10.00">events/leaver/wavelength</text>
<text text-anchor="middle" x="761.75" y="-59.5" font-family="Helvetica,sans-Serif" font-size="10.00">_leaver.h</text>
</a>
</g>
</g>
<!-- Node1&#45;&gt;Node22 -->
<g id="edge28_Node000001_Node000022" class="edge">
<title>Node1&#45;&gt;Node22</title>
<g id="a_edge28_Node000001_Node000022"><a xlink:title=" ">
<path fill="none" stroke="#63b8ff" d="M761.75,-119.02C761.75,-112.09 761.75,-103.49 761.75,-95.45"/>
<polygon fill="#63b8ff" stroke="#63b8ff" points="765.25,-95.46 761.75,-85.46 758.25,-95.46 765.25,-95.46"/>
</a>
</g>
</g>
<!-- Node3 -->
<g id="Node000003" class="node">
<title>Node3</title>
<g id="a_Node000003"><a xlink:title=" ">
<polygon fill="#e0e0e0" stroke="#999999" points="574.75,-18.5 522.75,-18.5 522.75,0 574.75,0 574.75,-18.5"/>
<text text-anchor="middle" x="548.75" y="-5" font-family="Helvetica,sans-Serif" font-size="10.00">QObject</text>
</a>
</g>
</g>
<!-- Node2&#45;&gt;Node3 -->
<g id="edge2_Node000002_Node000003" class="edge">
<title>Node2&#45;&gt;Node3</title>
<g id="a_edge2_Node000002_Node000003"><a xlink:title=" ">
<path fill="none" stroke="#63b8ff" d="M1009.03,-59.28C1000.41,-57.52 991.29,-55.82 982.75,-54.5 836.74,-31.96 661.26,-18.08 586,-12.75"/>
<polygon fill="#63b8ff" stroke="#63b8ff" points="586.53,-9.27 576.31,-12.07 586.04,-16.26 586.53,-9.27"/>
</a>
</g>
</g>
<!-- Node4 -->
<g id="Node000004" class="node">
<title>Node4</title>
<g id="a_Node000004"><a xlink:title=" ">
<polygon fill="#e0e0e0" stroke="#999999" points="1065.75,-18.5 1013.75,-18.5 1013.75,0 1065.75,0 1065.75,-18.5"/>
<text text-anchor="middle" x="1039.75" y="-5" font-family="Helvetica,sans-Serif" font-size="10.00">QDebug</text>
</a>
</g>
</g>
<!-- Node2&#45;&gt;Node4 -->
<g id="edge3_Node000002_Node000004" class="edge">
<title>Node2&#45;&gt;Node4</title>
<g id="a_edge3_Node000002_Node000004"><a xlink:title=" ">
<path fill="none" stroke="#63b8ff" d="M1046.57,-59.48C1045.49,-51.72 1043.87,-39.96 1042.47,-29.88"/>
<polygon fill="#63b8ff" stroke="#63b8ff" points="1045.98,-29.73 1041.14,-20.31 1039.05,-30.69 1045.98,-29.73"/>
</a>
</g>
</g>
<!-- Node7 -->
<g id="Node000007" class="node">
<title>Node7</title>
<g id="a_Node000007"><a xlink:title=" ">
<polygon fill="#e0e0e0" stroke="#999999" points="1275.12,-18.5 1228.38,-18.5 1228.38,0 1275.12,0 1275.12,-18.5"/>
<text text-anchor="middle" x="1251.75" y="-5" font-family="Helvetica,sans-Serif" font-size="10.00">QColor</text>
</a>
</g>
</g>
<!-- Node6&#45;&gt;Node7 -->
<g id="edge6_Node000006_Node000007" class="edge">
<title>Node6&#45;&gt;Node7</title>
<g id="a_edge6_Node000006_Node000007"><a xlink:title=" ">
<path fill="none" stroke="#63b8ff" d="M1244.93,-59.48C1246.01,-51.72 1247.63,-39.96 1249.03,-29.88"/>
<polygon fill="#63b8ff" stroke="#63b8ff" points="1252.45,-30.69 1250.36,-20.31 1245.52,-29.73 1252.45,-30.69"/>
</a>
</g>
</g>
<!-- Node8 -->
<g id="Node000008" class="node">
<title>Node8</title>
<g id="a_Node000008"><a xlink:title=" ">
<polygon fill="#e0e0e0" stroke="#999999" points="1376.5,-18.5 1293,-18.5 1293,0 1376.5,0 1376.5,-18.5"/>
<text text-anchor="middle" x="1334.75" y="-5" font-family="Helvetica,sans-Serif" font-size="10.00">QKeySequence</text>
</a>
</g>
</g>
<!-- Node6&#45;&gt;Node8 -->
<g id="edge7_Node000006_Node000008" class="edge">
<title>Node6&#45;&gt;Node8</title>
<g id="a_edge7_Node000006_Node000008"><a xlink:title=" ">
<path fill="none" stroke="#63b8ff" d="M1257.18,-59.48C1271.48,-50.4 1294.38,-35.87 1311.6,-24.94"/>
<polygon fill="#63b8ff" stroke="#63b8ff" points="1313.12,-28.12 1319.69,-19.81 1309.37,-22.21 1313.12,-28.12"/>
</a>
</g>
</g>
<!-- Node9 -->
<g id="Node000009" class="node">
<title>Node9</title>
<g id="a_Node000009"><a xlink:title=" ">
<polygon fill="#e0e0e0" stroke="#999999" points="1143.5,-18.5 1084,-18.5 1084,0 1143.5,0 1143.5,-18.5"/>
<text text-anchor="middle" x="1113.75" y="-5" font-family="Helvetica,sans-Serif" font-size="10.00">QSettings</text>
</a>
</g>
</g>
<!-- Node6&#45;&gt;Node9 -->
<g id="edge8_Node000006_Node000009" class="edge">
<title>Node6&#45;&gt;Node9</title>
<g id="a_edge8_Node000006_Node000009"><a xlink:title=" ">
<path fill="none" stroke="#63b8ff" d="M1224.29,-59.35C1202.94,-49.87 1168.42,-34.54 1143.64,-23.53"/>
<polygon fill="#63b8ff" stroke="#63b8ff" points="1145.29,-20.43 1134.73,-19.57 1142.45,-26.83 1145.29,-20.43"/>
</a>
</g>
</g>
<!-- Node10 -->
<g id="Node000010" class="node">
<title>Node10</title>
<g id="a_Node000010"><a xlink:title=" ">
<polygon fill="#e0e0e0" stroke="#999999" points="1210.25,-18.5 1161.25,-18.5 1161.25,0 1210.25,0 1210.25,-18.5"/>
<text text-anchor="middle" x="1185.75" y="-5" font-family="Helvetica,sans-Serif" font-size="10.00">QString</text>
</a>
</g>
</g>
<!-- Node6&#45;&gt;Node10 -->
<g id="edge9_Node000006_Node000010" class="edge">
<title>Node6&#45;&gt;Node10</title>
<g id="a_edge9_Node000006_Node000010"><a xlink:title=" ">
<path fill="none" stroke="#63b8ff" d="M1235.19,-59.48C1226.54,-50.86 1212.95,-37.33 1202.2,-26.63"/>
<polygon fill="#63b8ff" stroke="#63b8ff" points="1204.97,-24.45 1195.42,-19.87 1200.03,-29.41 1204.97,-24.45"/>
</a>
</g>
</g>
<!-- Node11&#45;&gt;Node3 -->
<g id="edge11_Node000011_Node000003" class="edge">
<title>Node11&#45;&gt;Node3</title>
<g id="a_edge11_Node000011_Node000003"><a xlink:title=" ">
<path fill="none" stroke="#63b8ff" d="M841.51,-55.99C838.55,-55.48 835.62,-54.98 832.75,-54.5 744.49,-39.68 640.51,-23.91 586.16,-15.79"/>
<polygon fill="#63b8ff" stroke="#63b8ff" points="586.92,-12.37 576.51,-14.35 585.89,-19.29 586.92,-12.37"/>
</a>
</g>
</g>
<!-- Node12&#45;&gt;Node3 -->
<g id="edge14_Node000012_Node000003" class="edge">
<title>Node12&#45;&gt;Node3</title>
<g id="a_edge14_Node000012_Node000003"><a xlink:title=" ">
<path fill="none" stroke="#63b8ff" d="M263.99,-56.01C266.95,-55.49 269.88,-54.99 272.75,-54.5 357.92,-40.01 458.12,-24.27 511.24,-16.03"/>
<polygon fill="#63b8ff" stroke="#63b8ff" points="511.62,-19.51 520.97,-14.52 510.55,-12.6 511.62,-19.51"/>
</a>
</g>
</g>
<!-- Node13 -->
<g id="Node000013" class="node">
<title>Node13</title>
<g id="a_Node000013"><a xlink:title=" ">
<polygon fill="#e0e0e0" stroke="#999999" points="148.88,-18.5 106.62,-18.5 106.62,0 148.88,0 148.88,-18.5"/>
<text text-anchor="middle" x="127.75" y="-5" font-family="Helvetica,sans-Serif" font-size="10.00">QMap</text>
</a>
</g>
</g>
<!-- Node12&#45;&gt;Node13 -->
<g id="edge13_Node000012_Node000013" class="edge">
<title>Node12&#45;&gt;Node13</title>
<g id="a_edge13_Node000012_Node000013"><a xlink:title=" ">
<path fill="none" stroke="#63b8ff" d="M180.8,-54.02C170.54,-45.55 157.42,-34.73 146.8,-25.97"/>
<polygon fill="#63b8ff" stroke="#63b8ff" points="149.35,-23.53 139.41,-19.87 144.89,-28.93 149.35,-23.53"/>
</a>
</g>
</g>
<!-- Node14&#45;&gt;Node3 -->
<g id="edge17_Node000014_Node000003" class="edge">
<title>Node14&#45;&gt;Node3</title>
<g id="a_edge17_Node000014_Node000003"><a xlink:title=" ">
<path fill="none" stroke="#63b8ff" d="M113.93,-55.95C116.91,-55.43 119.86,-54.94 122.75,-54.5 265.76,-32.5 437.49,-18.38 511.66,-12.87"/>
<polygon fill="#63b8ff" stroke="#63b8ff" points="511.48,-16.39 521.19,-12.17 510.96,-9.41 511.48,-16.39"/>
</a>
</g>
</g>
<!-- Node14&#45;&gt;Node13 -->
<g id="edge16_Node000014_Node000013" class="edge">
<title>Node14&#45;&gt;Node13</title>
<g id="a_edge16_Node000014_Node000013"><a xlink:title=" ">
<path fill="none" stroke="#63b8ff" d="M73.94,-54.02C84.35,-45.55 97.65,-34.73 108.43,-25.97"/>
<polygon fill="#63b8ff" stroke="#63b8ff" points="110.39,-28.88 115.94,-19.86 105.97,-23.45 110.39,-28.88"/>
</a>
</g>
</g>
<!-- Node15&#45;&gt;Node3 -->
<g id="edge19_Node000015_Node000003" class="edge">
<title>Node15&#45;&gt;Node3</title>
<g id="a_edge19_Node000015_Node000003"><a xlink:title=" ">
<path fill="none" stroke="#63b8ff" d="M389.59,-54.02C427.21,-43.67 477.61,-29.81 511.53,-20.48"/>
<polygon fill="#63b8ff" stroke="#63b8ff" points="512.19,-23.93 520.9,-17.91 510.33,-17.18 512.19,-23.93"/>
</a>
</g>
</g>
<!-- Node16 -->
<g id="Node000016" class="node">
<title>Node16</title>
<g id="a_Node000016"><a xlink:title=" ">
<polygon fill="#e0e0e0" stroke="#999999" points="365.5,-18.5 312,-18.5 312,0 365.5,0 365.5,-18.5"/>
<text text-anchor="middle" x="338.75" y="-5" font-family="Helvetica,sans-Serif" font-size="10.00">QVariant</text>
</a>
</g>
</g>
<!-- Node15&#45;&gt;Node16 -->
<g id="edge20_Node000015_Node000016" class="edge">
<title>Node15&#45;&gt;Node16</title>
<g id="a_edge20_Node000015_Node000016"><a xlink:title=" ">
<path fill="none" stroke="#63b8ff" d="M338.75,-54.02C338.75,-46.92 338.75,-38.17 338.75,-30.36"/>
<polygon fill="#63b8ff" stroke="#63b8ff" points="342.25,-30.42 338.75,-20.42 335.25,-30.42 342.25,-30.42"/>
</a>
</g>
</g>
<!-- Node18 -->
<g id="Node000018" class="node">
<title>Node18</title>
<g id="a_Node000018"><a xlink:title=" ">
<polygon fill="#e0e0e0" stroke="#999999" points="1448.88,-18.5 1394.62,-18.5 1394.62,0 1448.88,0 1448.88,-18.5"/>
<text text-anchor="middle" x="1421.75" y="-5" font-family="Helvetica,sans-Serif" font-size="10.00">QPointer</text>
</a>
</g>
</g>
<!-- Node17&#45;&gt;Node18 -->
<g id="edge22_Node000017_Node000018" class="edge">
<title>Node17&#45;&gt;Node18</title>
<g id="a_edge22_Node000017_Node000018"><a xlink:title=" ">
<path fill="none" stroke="#63b8ff" d="M1421.75,-54.02C1421.75,-46.92 1421.75,-38.17 1421.75,-30.36"/>
<polygon fill="#63b8ff" stroke="#63b8ff" points="1425.25,-30.42 1421.75,-20.42 1418.25,-30.42 1425.25,-30.42"/>
</a>
</g>
</g>
<!-- Node19 -->
<g id="Node000019" class="node">
<title>Node19</title>
<g id="a_Node000019"><a xlink:title=" ">
<polygon fill="#e0e0e0" stroke="#999999" points="1540.25,-18.5 1467.25,-18.5 1467.25,0 1540.25,0 1540.25,-18.5"/>
<text text-anchor="middle" x="1503.75" y="-5" font-family="Helvetica,sans-Serif" font-size="10.00">QWebSocket</text>
</a>
</g>
</g>
<!-- Node17&#45;&gt;Node19 -->
<g id="edge23_Node000017_Node000019" class="edge">
<title>Node17&#45;&gt;Node19</title>
<g id="a_edge23_Node000017_Node000019"><a xlink:title=" ">
<path fill="none" stroke="#63b8ff" d="M1441.6,-54.02C1453.87,-45.38 1469.61,-34.29 1482.19,-25.44"/>
<polygon fill="#63b8ff" stroke="#63b8ff" points="1484.06,-28.39 1490.23,-19.78 1480.03,-22.67 1484.06,-28.39"/>
</a>
</g>
</g>
<!-- Node20&#45;&gt;Node3 -->
<g id="edge25_Node000020_Node000003" class="edge">
<title>Node20&#45;&gt;Node3</title>
<g id="a_edge25_Node000020_Node000003"><a xlink:title=" ">
<path fill="none" stroke="#63b8ff" d="M494.94,-54.02C505.35,-45.55 518.65,-34.73 529.43,-25.97"/>
<polygon fill="#63b8ff" stroke="#63b8ff" points="531.39,-28.88 536.94,-19.86 526.97,-23.45 531.39,-28.88"/>
</a>
</g>
</g>
<!-- Node21&#45;&gt;Node3 -->
<g id="edge27_Node000021_Node000003" class="edge">
<title>Node21&#45;&gt;Node3</title>
<g id="a_edge27_Node000021_Node000003"><a xlink:title=" ">
<path fill="none" stroke="#63b8ff" d="M603.32,-54.02C592.76,-45.55 579.27,-34.73 568.34,-25.97"/>
<polygon fill="#63b8ff" stroke="#63b8ff" points="570.71,-23.38 560.72,-19.85 566.33,-28.84 570.71,-23.38"/>
</a>
</g>
</g>
<!-- Node22&#45;&gt;Node3 -->
<g id="edge29_Node000022_Node000003" class="edge">
<title>Node22&#45;&gt;Node3</title>
<g id="a_edge29_Node000022_Node000003"><a xlink:title=" ">
<path fill="none" stroke="#63b8ff" d="M710.19,-54.02C671.92,-43.64 620.61,-29.73 586.2,-20.4"/>
<polygon fill="#63b8ff" stroke="#63b8ff" points="587.25,-17.06 576.68,-17.82 585.42,-23.82 587.25,-17.06"/>
</a>
</g>
</g>
</g>
</svg>
