<?xml version="1.0" encoding="UTF-8" standalone="no"?>
<!DOCTYPE svg PUBLIC "-//W3C//DTD SVG 1.1//EN"
 "http://www.w3.org/Graphics/SVG/1.1/DTD/svg11.dtd">
<!-- Generated by graphviz version 12.2.1 (0)
 -->
<!-- Title: src/app/managers/shortcut_manager.cpp Pages: 1 -->
<svg width="1052pt" height="157pt"
 viewBox="0.00 0.00 1051.62 156.50" xmlns="http://www.w3.org/2000/svg" xmlns:xlink="http://www.w3.org/1999/xlink">
<g id="graph0" class="graph" transform="scale(1 1) rotate(0) translate(4 152.5)">
<title>src/app/managers/shortcut_manager.cpp</title>
<!-- Node1 -->
<g id="Node000001" class="node">
<title>Node1</title>
<g id="a_Node000001"><a xlink:title=" ">
<polygon fill="#999999" stroke="#666666" points="517,-148.5 383.25,-148.5 383.25,-119.5 517,-119.5 517,-148.5"/>
<text text-anchor="start" x="391.25" y="-135" font-family="Helvetica,sans-Serif" font-size="10.00">src/app/managers/shortcut</text>
<text text-anchor="middle" x="450.12" y="-124.5" font-family="Helvetica,sans-Serif" font-size="10.00">_manager.cpp</text>
</a>
</g>
</g>
<!-- Node2 -->
<g id="Node000002" class="node">
<title>Node2</title>
<g id="a_Node000002"><a xlink:href="shortcut__manager_8h.html" target="_top" xlink:title=" ">
<polygon fill="white" stroke="#666666" points="104.62,-78.25 1.62,-78.25 1.62,-59.75 104.62,-59.75 104.62,-78.25"/>
<text text-anchor="middle" x="53.12" y="-64.75" font-family="Helvetica,sans-Serif" font-size="10.00">shortcut_manager.h</text>
</a>
</g>
</g>
<!-- Node1&#45;&gt;Node2 -->
<g id="edge1_Node000001_Node000002" class="edge">
<title>Node1&#45;&gt;Node2</title>
<g id="a_edge1_Node000001_Node000002"><a xlink:title=" ">
<path fill="none" stroke="#63b8ff" d="M383.06,-124.67C314.87,-115.84 206.3,-100.8 113.12,-83.5 109.11,-82.75 104.95,-81.93 100.79,-81.07"/>
<polygon fill="#63b8ff" stroke="#63b8ff" points="101.83,-77.71 91.32,-79.04 100.37,-84.56 101.83,-77.71"/>
</a>
</g>
</g>
<!-- Node5 -->
<g id="Node000005" class="node">
<title>Node5</title>
<g id="a_Node000005"><a xlink:title=" ">
<polygon fill="#e0e0e0" stroke="#999999" points="202,-78.25 122.25,-78.25 122.25,-59.75 202,-59.75 202,-78.25"/>
<text text-anchor="middle" x="162.12" y="-64.75" font-family="Helvetica,sans-Serif" font-size="10.00">QMainWindow</text>
</a>
</g>
</g>
<!-- Node1&#45;&gt;Node5 -->
<g id="edge4_Node000001_Node000005" class="edge">
<title>Node1&#45;&gt;Node5</title>
<g id="a_edge4_Node000001_Node000005"><a xlink:title=" ">
<path fill="none" stroke="#63b8ff" d="M382.9,-120.28C334.87,-110.9 268.8,-97.4 211.12,-83.5 208.69,-82.91 206.18,-82.29 203.66,-81.64"/>
<polygon fill="#63b8ff" stroke="#63b8ff" points="204.65,-78.29 194.09,-79.12 202.87,-85.05 204.65,-78.29"/>
</a>
</g>
</g>
<!-- Node6 -->
<g id="Node000006" class="node">
<title>Node6</title>
<g id="a_Node000006"><a xlink:title=" ">
<polygon fill="#e0e0e0" stroke="#999999" points="280.62,-78.25 219.62,-78.25 219.62,-59.75 280.62,-59.75 280.62,-78.25"/>
<text text-anchor="middle" x="250.12" y="-64.75" font-family="Helvetica,sans-Serif" font-size="10.00">QShortcut</text>
</a>
</g>
</g>
<!-- Node1&#45;&gt;Node6 -->
<g id="edge5_Node000001_Node000006" class="edge">
<title>Node1&#45;&gt;Node6</title>
<g id="a_edge5_Node000001_Node000006"><a xlink:title=" ">
<path fill="none" stroke="#63b8ff" d="M403.82,-119.01C371.82,-109.27 328.3,-95.85 290.12,-83.5 288.79,-83.07 287.43,-82.63 286.06,-82.18"/>
<polygon fill="#63b8ff" stroke="#63b8ff" points="287.52,-78.97 276.92,-79.14 285.31,-85.62 287.52,-78.97"/>
</a>
</g>
</g>
<!-- Node7 -->
<g id="Node000007" class="node">
<title>Node7</title>
<g id="a_Node000007"><a xlink:title=" ">
<polygon fill="#e0e0e0" stroke="#999999" points="351.12,-78.25 299.12,-78.25 299.12,-59.75 351.12,-59.75 351.12,-78.25"/>
<text text-anchor="middle" x="325.12" y="-64.75" font-family="Helvetica,sans-Serif" font-size="10.00">QDebug</text>
</a>
</g>
</g>
<!-- Node1&#45;&gt;Node7 -->
<g id="edge6_Node000001_Node000007" class="edge">
<title>Node1&#45;&gt;Node7</title>
<g id="a_edge6_Node000001_Node000007"><a xlink:title=" ">
<path fill="none" stroke="#63b8ff" d="M422.38,-119.02C401.56,-108.52 373.19,-94.22 352.46,-83.78"/>
<polygon fill="#63b8ff" stroke="#63b8ff" points="354.26,-80.76 343.75,-79.39 351.11,-87.01 354.26,-80.76"/>
</a>
</g>
</g>
<!-- Node8 -->
<g id="Node000008" class="node">
<title>Node8</title>
<g id="a_Node000008"><a xlink:title=" ">
<polygon fill="#e0e0e0" stroke="#999999" points="427.5,-78.25 368.75,-78.25 368.75,-59.75 427.5,-59.75 427.5,-78.25"/>
<text text-anchor="middle" x="398.12" y="-64.75" font-family="Helvetica,sans-Serif" font-size="10.00">QLineEdit</text>
</a>
</g>
</g>
<!-- Node1&#45;&gt;Node8 -->
<g id="edge7_Node000001_Node000008" class="edge">
<title>Node1&#45;&gt;Node8</title>
<g id="a_edge7_Node000001_Node000008"><a xlink:title=" ">
<path fill="none" stroke="#63b8ff" d="M438.58,-119.02C430.88,-109.68 420.68,-97.32 412.45,-87.36"/>
<polygon fill="#63b8ff" stroke="#63b8ff" points="415.34,-85.36 406.27,-79.87 409.94,-89.81 415.34,-85.36"/>
</a>
</g>
</g>
<!-- Node9 -->
<g id="Node000009" class="node">
<title>Node9</title>
<g id="a_Node000009"><a xlink:href="wavelength__config_8h.html" target="_top" xlink:title=" ">
<polygon fill="white" stroke="#666666" points="558.5,-78.25 445.75,-78.25 445.75,-59.75 558.5,-59.75 558.5,-78.25"/>
<text text-anchor="middle" x="502.12" y="-64.75" font-family="Helvetica,sans-Serif" font-size="10.00">../wavelength_config.h</text>
</a>
</g>
</g>
<!-- Node1&#45;&gt;Node9 -->
<g id="edge8_Node000001_Node000009" class="edge">
<title>Node1&#45;&gt;Node9</title>
<g id="a_edge8_Node000001_Node000009"><a xlink:title=" ">
<path fill="none" stroke="#63b8ff" d="M461.67,-119.02C469.37,-109.68 479.57,-97.32 487.8,-87.36"/>
<polygon fill="#63b8ff" stroke="#63b8ff" points="490.31,-89.81 493.98,-79.87 484.91,-85.36 490.31,-89.81"/>
</a>
</g>
</g>
<!-- Node14 -->
<g id="Node000014" class="node">
<title>Node14</title>
<g id="a_Node000014"><a xlink:href="navbar_8h.html" target="_top" xlink:title=" ">
<polygon fill="white" stroke="#666666" points="665.5,-83.5 576.75,-83.5 576.75,-54.5 665.5,-54.5 665.5,-83.5"/>
<text text-anchor="start" x="584.75" y="-70" font-family="Helvetica,sans-Serif" font-size="10.00">../../ui/navigation</text>
<text text-anchor="middle" x="621.12" y="-59.5" font-family="Helvetica,sans-Serif" font-size="10.00">/navbar.h</text>
</a>
</g>
</g>
<!-- Node1&#45;&gt;Node14 -->
<g id="edge13_Node000001_Node000014" class="edge">
<title>Node1&#45;&gt;Node14</title>
<g id="a_edge13_Node000001_Node000014"><a xlink:title=" ">
<path fill="none" stroke="#63b8ff" d="M488.08,-119.02C512.98,-109.84 545.78,-97.76 572.58,-87.88"/>
<polygon fill="#63b8ff" stroke="#63b8ff" points="573.69,-91.21 581.86,-84.47 571.27,-84.64 573.69,-91.21"/>
</a>
</g>
</g>
<!-- Node16 -->
<g id="Node000016" class="node">
<title>Node16</title>
<g id="a_Node000016"><a xlink:href="settings__view_8h.html" target="_top" xlink:title=" ">
<polygon fill="white" stroke="#666666" points="790.88,-83.5 683.38,-83.5 683.38,-54.5 790.88,-54.5 790.88,-83.5"/>
<text text-anchor="start" x="691.38" y="-70" font-family="Helvetica,sans-Serif" font-size="10.00">../../ui/views/settings</text>
<text text-anchor="middle" x="737.12" y="-59.5" font-family="Helvetica,sans-Serif" font-size="10.00">_view.h</text>
</a>
</g>
</g>
<!-- Node1&#45;&gt;Node16 -->
<g id="edge15_Node000001_Node000016" class="edge">
<title>Node1&#45;&gt;Node16</title>
<g id="a_edge15_Node000001_Node000016"><a xlink:title=" ">
<path fill="none" stroke="#63b8ff" d="M513.82,-119.02C560.91,-108.68 624.81,-94.66 672.19,-84.25"/>
<polygon fill="#63b8ff" stroke="#63b8ff" points="672.75,-87.71 681.77,-82.15 671.25,-80.88 672.75,-87.71"/>
</a>
</g>
</g>
<!-- Node18 -->
<g id="Node000018" class="node">
<title>Node18</title>
<g id="a_Node000018"><a xlink:href="chat__view_8h.html" target="_top" xlink:title=" ">
<polygon fill="white" stroke="#666666" points="901,-83.5 809.25,-83.5 809.25,-54.5 901,-54.5 901,-83.5"/>
<text text-anchor="start" x="817.25" y="-70" font-family="Helvetica,sans-Serif" font-size="10.00">../../ui/views/chat</text>
<text text-anchor="middle" x="855.12" y="-59.5" font-family="Helvetica,sans-Serif" font-size="10.00">_view.h</text>
</a>
</g>
</g>
<!-- Node1&#45;&gt;Node18 -->
<g id="edge17_Node000001_Node000018" class="edge">
<title>Node1&#45;&gt;Node18</title>
<g id="a_edge17_Node000001_Node000018"><a xlink:title=" ">
<path fill="none" stroke="#63b8ff" d="M517.23,-125.54C585.44,-117.49 694.37,-103.4 797.71,-83.84"/>
<polygon fill="#63b8ff" stroke="#63b8ff" points="798.34,-87.28 807.5,-81.97 797.02,-80.41 798.34,-87.28"/>
</a>
</g>
</g>
<!-- Node21 -->
<g id="Node000021" class="node">
<title>Node21</title>
<g id="a_Node000021"><a xlink:href="navbar__button_8h.html" target="_top" xlink:title=" ">
<polygon fill="white" stroke="#666666" points="1043.62,-83.5 934.62,-83.5 934.62,-54.5 1043.62,-54.5 1043.62,-83.5"/>
<text text-anchor="start" x="942.62" y="-70" font-family="Helvetica,sans-Serif" font-size="10.00">../../ui/buttons/navbar</text>
<text text-anchor="middle" x="989.12" y="-59.5" font-family="Helvetica,sans-Serif" font-size="10.00">_button.h</text>
</a>
</g>
</g>
<!-- Node1&#45;&gt;Node21 -->
<g id="edge20_Node000001_Node000021" class="edge">
<title>Node1&#45;&gt;Node21</title>
<g id="a_edge20_Node000001_Node000021"><a xlink:title=" ">
<path fill="none" stroke="#63b8ff" d="M517.32,-127.09C607.06,-118.89 770.9,-102.87 910.12,-83.5 914.42,-82.9 918.84,-82.25 923.29,-81.57"/>
<polygon fill="#63b8ff" stroke="#63b8ff" points="923.55,-85.07 932.88,-80.05 922.45,-78.16 923.55,-85.07"/>
</a>
</g>
</g>
<!-- Node3 -->
<g id="Node000003" class="node">
<title>Node3</title>
<g id="a_Node000003"><a xlink:title=" ">
<polygon fill="#e0e0e0" stroke="#999999" points="42.25,-18.5 0,-18.5 0,0 42.25,0 42.25,-18.5"/>
<text text-anchor="middle" x="21.12" y="-5" font-family="Helvetica,sans-Serif" font-size="10.00">QMap</text>
</a>
</g>
</g>
<!-- Node2&#45;&gt;Node3 -->
<g id="edge2_Node000002_Node000003" class="edge">
<title>Node2&#45;&gt;Node3</title>
<g id="a_edge2_Node000002_Node000003"><a xlink:title=" ">
<path fill="none" stroke="#63b8ff" d="M48.4,-59.48C43.91,-51.38 37.01,-38.92 31.27,-28.57"/>
<polygon fill="#63b8ff" stroke="#63b8ff" points="34.51,-27.18 26.6,-20.13 28.39,-30.57 34.51,-27.18"/>
</a>
</g>
</g>
<!-- Node4 -->
<g id="Node000004" class="node">
<title>Node4</title>
<g id="a_Node000004"><a xlink:title=" ">
<polygon fill="#e0e0e0" stroke="#999999" points="112.12,-18.5 60.12,-18.5 60.12,0 112.12,0 112.12,-18.5"/>
<text text-anchor="middle" x="86.12" y="-5" font-family="Helvetica,sans-Serif" font-size="10.00">QObject</text>
</a>
</g>
</g>
<!-- Node2&#45;&gt;Node4 -->
<g id="edge3_Node000002_Node000004" class="edge">
<title>Node2&#45;&gt;Node4</title>
<g id="a_edge3_Node000002_Node000004"><a xlink:title=" ">
<path fill="none" stroke="#63b8ff" d="M57.99,-59.48C62.62,-51.38 69.74,-38.92 75.66,-28.57"/>
<polygon fill="#63b8ff" stroke="#63b8ff" points="78.56,-30.54 80.48,-20.12 72.48,-27.07 78.56,-30.54"/>
</a>
</g>
</g>
<!-- Node10 -->
<g id="Node000010" class="node">
<title>Node10</title>
<g id="a_Node000010"><a xlink:title=" ">
<polygon fill="#e0e0e0" stroke="#999999" points="352.5,-18.5 305.75,-18.5 305.75,0 352.5,0 352.5,-18.5"/>
<text text-anchor="middle" x="329.12" y="-5" font-family="Helvetica,sans-Serif" font-size="10.00">QColor</text>
</a>
</g>
</g>
<!-- Node9&#45;&gt;Node10 -->
<g id="edge9_Node000009_Node000010" class="edge">
<title>Node9&#45;&gt;Node10</title>
<g id="a_edge9_Node000009_Node000010"><a xlink:title=" ">
<path fill="none" stroke="#63b8ff" d="M476.23,-59.35C446.25,-49.35 396.75,-32.82 363.55,-21.74"/>
<polygon fill="#63b8ff" stroke="#63b8ff" points="365,-18.54 354.41,-18.69 362.78,-25.18 365,-18.54"/>
</a>
</g>
</g>
<!-- Node11 -->
<g id="Node000011" class="node">
<title>Node11</title>
<g id="a_Node000011"><a xlink:title=" ">
<polygon fill="#e0e0e0" stroke="#999999" points="453.88,-18.5 370.38,-18.5 370.38,0 453.88,0 453.88,-18.5"/>
<text text-anchor="middle" x="412.12" y="-5" font-family="Helvetica,sans-Serif" font-size="10.00">QKeySequence</text>
</a>
</g>
</g>
<!-- Node9&#45;&gt;Node11 -->
<g id="edge10_Node000009_Node000011" class="edge">
<title>Node9&#45;&gt;Node11</title>
<g id="a_edge10_Node000009_Node000011"><a xlink:title=" ">
<path fill="none" stroke="#63b8ff" d="M488.85,-59.48C474.7,-50.4 452.06,-35.87 435.03,-24.94"/>
<polygon fill="#63b8ff" stroke="#63b8ff" points="437.33,-22.27 427.03,-19.81 433.55,-28.16 437.33,-22.27"/>
</a>
</g>
</g>
<!-- Node12 -->
<g id="Node000012" class="node">
<title>Node12</title>
<g id="a_Node000012"><a xlink:title=" ">
<polygon fill="#e0e0e0" stroke="#999999" points="531.88,-18.5 472.38,-18.5 472.38,0 531.88,0 531.88,-18.5"/>
<text text-anchor="middle" x="502.12" y="-5" font-family="Helvetica,sans-Serif" font-size="10.00">QSettings</text>
</a>
</g>
</g>
<!-- Node9&#45;&gt;Node12 -->
<g id="edge11_Node000009_Node000012" class="edge">
<title>Node9&#45;&gt;Node12</title>
<g id="a_edge11_Node000009_Node000012"><a xlink:title=" ">
<path fill="none" stroke="#63b8ff" d="M502.12,-59.48C502.12,-51.8 502.12,-40.22 502.12,-30.22"/>
<polygon fill="#63b8ff" stroke="#63b8ff" points="505.63,-30.32 502.13,-20.32 498.63,-30.32 505.63,-30.32"/>
</a>
</g>
</g>
<!-- Node13 -->
<g id="Node000013" class="node">
<title>Node13</title>
<g id="a_Node000013"><a xlink:title=" ">
<polygon fill="#e0e0e0" stroke="#999999" points="598.62,-18.5 549.62,-18.5 549.62,0 598.62,0 598.62,-18.5"/>
<text text-anchor="middle" x="574.12" y="-5" font-family="Helvetica,sans-Serif" font-size="10.00">QString</text>
</a>
</g>
</g>
<!-- Node9&#45;&gt;Node13 -->
<g id="edge12_Node000009_Node000013" class="edge">
<title>Node9&#45;&gt;Node13</title>
<g id="a_edge12_Node000009_Node000013"><a xlink:title=" ">
<path fill="none" stroke="#63b8ff" d="M512.75,-59.48C523.7,-50.69 541.03,-36.79 554.49,-26"/>
<polygon fill="#63b8ff" stroke="#63b8ff" points="556.67,-28.74 562.28,-19.75 552.29,-23.28 556.67,-28.74"/>
</a>
</g>
</g>
<!-- Node15 -->
<g id="Node000015" class="node">
<title>Node15</title>
<g id="a_Node000015"><a xlink:title=" ">
<polygon fill="#e0e0e0" stroke="#999999" points="673.38,-18.5 616.88,-18.5 616.88,0 673.38,0 673.38,-18.5"/>
<text text-anchor="middle" x="645.12" y="-5" font-family="Helvetica,sans-Serif" font-size="10.00">QToolBar</text>
</a>
</g>
</g>
<!-- Node14&#45;&gt;Node15 -->
<g id="edge14_Node000014_Node000015" class="edge">
<title>Node14&#45;&gt;Node15</title>
<g id="a_edge14_Node000014_Node000015"><a xlink:title=" ">
<path fill="none" stroke="#63b8ff" d="M626.93,-54.02C629.99,-46.66 633.79,-37.53 637.12,-29.51"/>
<polygon fill="#63b8ff" stroke="#63b8ff" points="640.34,-30.88 640.95,-20.3 633.88,-28.19 640.34,-30.88"/>
</a>
</g>
</g>
<!-- Node17 -->
<g id="Node000017" class="node">
<title>Node17</title>
<g id="a_Node000017"><a xlink:title=" ">
<polygon fill="#e0e0e0" stroke="#999999" points="780.88,-18.5 691.38,-18.5 691.38,0 780.88,0 780.88,-18.5"/>
<text text-anchor="middle" x="736.12" y="-5" font-family="Helvetica,sans-Serif" font-size="10.00">QStackedWidget</text>
</a>
</g>
</g>
<!-- Node16&#45;&gt;Node17 -->
<g id="edge16_Node000016_Node000017" class="edge">
<title>Node16&#45;&gt;Node17</title>
<g id="a_edge16_Node000016_Node000017"><a xlink:title=" ">
<path fill="none" stroke="#63b8ff" d="M736.88,-54.02C736.76,-46.92 736.61,-38.17 736.47,-30.36"/>
<polygon fill="#63b8ff" stroke="#63b8ff" points="739.97,-30.35 736.3,-20.42 732.97,-30.48 739.97,-30.35"/>
</a>
</g>
</g>
<!-- Node19 -->
<g id="Node000019" class="node">
<title>Node19</title>
<g id="a_Node000019"><a xlink:title=" ">
<polygon fill="#e0e0e0" stroke="#999999" points="877.62,-18.5 798.62,-18.5 798.62,0 877.62,0 877.62,-18.5"/>
<text text-anchor="middle" x="838.12" y="-5" font-family="Helvetica,sans-Serif" font-size="10.00">QAudioFormat</text>
</a>
</g>
</g>
<!-- Node18&#45;&gt;Node19 -->
<g id="edge18_Node000018_Node000019" class="edge">
<title>Node18&#45;&gt;Node19</title>
<g id="a_edge18_Node000018_Node000019"><a xlink:title=" ">
<path fill="none" stroke="#63b8ff" d="M851.01,-54.02C848.87,-46.75 846.22,-37.74 843.88,-29.79"/>
<polygon fill="#63b8ff" stroke="#63b8ff" points="847.28,-28.96 841.1,-20.36 840.57,-30.94 847.28,-28.96"/>
</a>
</g>
</g>
<!-- Node20 -->
<g id="Node000020" class="node">
<title>Node20</title>
<g id="a_Node000020"><a xlink:title=" ">
<polygon fill="#e0e0e0" stroke="#999999" points="950.25,-18.5 896,-18.5 896,0 950.25,0 950.25,-18.5"/>
<text text-anchor="middle" x="923.12" y="-5" font-family="Helvetica,sans-Serif" font-size="10.00">QWidget</text>
</a>
</g>
</g>
<!-- Node18&#45;&gt;Node20 -->
<g id="edge19_Node000018_Node000020" class="edge">
<title>Node18&#45;&gt;Node20</title>
<g id="a_edge19_Node000018_Node000020"><a xlink:title=" ">
<path fill="none" stroke="#63b8ff" d="M871.59,-54.02C881.46,-45.64 894.04,-34.95 904.31,-26.23"/>
<polygon fill="#63b8ff" stroke="#63b8ff" points="906.43,-29.02 911.78,-19.88 901.89,-23.69 906.43,-29.02"/>
</a>
</g>
</g>
<!-- Node22 -->
<g id="Node000022" class="node">
<title>Node22</title>
<g id="a_Node000022"><a xlink:title=" ">
<polygon fill="#e0e0e0" stroke="#999999" points="1042.38,-18.5 967.88,-18.5 967.88,0 1042.38,0 1042.38,-18.5"/>
<text text-anchor="middle" x="1005.12" y="-5" font-family="Helvetica,sans-Serif" font-size="10.00">QPushButton</text>
</a>
</g>
</g>
<!-- Node21&#45;&gt;Node22 -->
<g id="edge21_Node000021_Node000022" class="edge">
<title>Node21&#45;&gt;Node22</title>
<g id="a_edge21_Node000021_Node000022"><a xlink:title=" ">
<path fill="none" stroke="#63b8ff" d="M993,-54.02C995.01,-46.75 997.51,-37.74 999.71,-29.79"/>
<polygon fill="#63b8ff" stroke="#63b8ff" points="1003.03,-30.93 1002.32,-20.36 996.28,-29.06 1003.03,-30.93"/>
</a>
</g>
</g>
</g>
</svg>
