<?xml version="1.0" encoding="UTF-8" standalone="no"?>
<!DOCTYPE svg PUBLIC "-//W3C//DTD SVG 1.1//EN"
 "http://www.w3.org/Graphics/SVG/1.1/DTD/svg11.dtd">
<!-- Generated by graphviz version 12.2.1 (0)
 -->
<!-- Title: src/app/managers/shortcut_manager.h Pages: 1 -->
<svg width="142pt" height="92pt"
 viewBox="0.00 0.00 141.75 91.50" xmlns="http://www.w3.org/2000/svg" xmlns:xlink="http://www.w3.org/1999/xlink">
<g id="graph0" class="graph" transform="scale(1 1) rotate(0) translate(4 87.5)">
<title>src/app/managers/shortcut_manager.h</title>
<!-- Node1 -->
<g id="Node000001" class="node">
<title>Node1</title>
<g id="a_Node000001"><a xlink:title=" ">
<polygon fill="#999999" stroke="#666666" points="133.75,-83.5 0,-83.5 0,-54.5 133.75,-54.5 133.75,-83.5"/>
<text text-anchor="start" x="8" y="-70" font-family="Helvetica,sans-Serif" font-size="10.00">src/app/managers/shortcut</text>
<text text-anchor="middle" x="66.88" y="-59.5" font-family="Helvetica,sans-Serif" font-size="10.00">_manager.h</text>
</a>
</g>
</g>
<!-- Node2 -->
<g id="Node000002" class="node">
<title>Node2</title>
<g id="a_Node000002"><a xlink:title=" ">
<polygon fill="#e0e0e0" stroke="#999999" points="56,-18.5 13.75,-18.5 13.75,0 56,0 56,-18.5"/>
<text text-anchor="middle" x="34.88" y="-5" font-family="Helvetica,sans-Serif" font-size="10.00">QMap</text>
</a>
</g>
</g>
<!-- Node1&#45;&gt;Node2 -->
<g id="edge1_Node000001_Node000002" class="edge">
<title>Node1&#45;&gt;Node2</title>
<g id="a_edge1_Node000001_Node000002"><a xlink:title=" ">
<path fill="none" stroke="#63b8ff" d="M59.13,-54.02C54.96,-46.49 49.76,-37.11 45.24,-28.96"/>
<polygon fill="#63b8ff" stroke="#63b8ff" points="48.31,-27.28 40.4,-20.23 42.19,-30.67 48.31,-27.28"/>
</a>
</g>
</g>
<!-- Node3 -->
<g id="Node000003" class="node">
<title>Node3</title>
<g id="a_Node000003"><a xlink:title=" ">
<polygon fill="#e0e0e0" stroke="#999999" points="125.88,-18.5 73.88,-18.5 73.88,0 125.88,0 125.88,-18.5"/>
<text text-anchor="middle" x="99.88" y="-5" font-family="Helvetica,sans-Serif" font-size="10.00">QObject</text>
</a>
</g>
</g>
<!-- Node1&#45;&gt;Node3 -->
<g id="edge2_Node000001_Node000003" class="edge">
<title>Node1&#45;&gt;Node3</title>
<g id="a_edge2_Node000001_Node000003"><a xlink:title=" ">
<path fill="none" stroke="#63b8ff" d="M74.86,-54.02C79.21,-46.41 84.65,-36.89 89.34,-28.68"/>
<polygon fill="#63b8ff" stroke="#63b8ff" points="92.26,-30.64 94.18,-20.22 86.18,-27.16 92.26,-30.64"/>
</a>
</g>
</g>
</g>
</svg>
