<?xml version="1.0" encoding="UTF-8" standalone="no"?>
<!DOCTYPE svg PUBLIC "-//W3C//DTD SVG 1.1//EN"
 "http://www.w3.org/Graphics/SVG/1.1/DTD/svg11.dtd">
<!-- Generated by graphviz version 12.2.1 (0)
 -->
<!-- Title: src/ui/chat/stream_display.cpp Pages: 1 -->
<svg width="980pt" height="211pt"
 viewBox="0.00 0.00 979.75 211.00" xmlns="http://www.w3.org/2000/svg" xmlns:xlink="http://www.w3.org/1999/xlink">
<g id="graph0" class="graph" transform="scale(1 1) rotate(0) translate(4 207)">
<title>src/ui/chat/stream_display.cpp</title>
<!-- Node1 -->
<g id="Node000001" class="node">
<title>Node1</title>
<g id="a_Node000001"><a xlink:title=" ">
<polygon fill="#999999" stroke="#666666" points="378.5,-203 283.75,-203 283.75,-174 378.5,-174 378.5,-203"/>
<text text-anchor="start" x="291.75" y="-189.5" font-family="Helvetica,sans-Serif" font-size="10.00">src/ui/chat/stream</text>
<text text-anchor="middle" x="331.12" y="-179" font-family="Helvetica,sans-Serif" font-size="10.00">_display.cpp</text>
</a>
</g>
</g>
<!-- Node2 -->
<g id="Node000002" class="node">
<title>Node2</title>
<g id="a_Node000002"><a xlink:href="stream__display_8h.html" target="_top" xlink:title=" ">
<polygon fill="white" stroke="#666666" points="97.88,-138 8.38,-138 8.38,-119.5 97.88,-119.5 97.88,-138"/>
<text text-anchor="middle" x="53.12" y="-124.5" font-family="Helvetica,sans-Serif" font-size="10.00">stream_display.h</text>
</a>
</g>
</g>
<!-- Node1&#45;&gt;Node2 -->
<g id="edge1_Node000001_Node000002" class="edge">
<title>Node1&#45;&gt;Node2</title>
<g id="a_edge1_Node000001_Node000002"><a xlink:title=" ">
<path fill="none" stroke="#63b8ff" d="M283.34,-177.57C233.98,-167.32 157.14,-151.36 105.99,-140.73"/>
<polygon fill="#63b8ff" stroke="#63b8ff" points="106.83,-137.33 96.33,-138.73 105.41,-144.19 106.83,-137.33"/>
</a>
</g>
</g>
<!-- Node7 -->
<g id="Node000007" class="node">
<title>Node7</title>
<g id="a_Node000007"><a xlink:title=" ">
<polygon fill="#e0e0e0" stroke="#999999" points="220.75,-138 115.5,-138 115.5,-119.5 220.75,-119.5 220.75,-138"/>
<text text-anchor="middle" x="168.12" y="-124.5" font-family="Helvetica,sans-Serif" font-size="10.00">QRegularExpression</text>
</a>
</g>
</g>
<!-- Node1&#45;&gt;Node7 -->
<g id="edge6_Node000001_Node000007" class="edge">
<title>Node1&#45;&gt;Node7</title>
<g id="a_edge6_Node000001_Node000007"><a xlink:title=" ">
<path fill="none" stroke="#63b8ff" d="M291.67,-173.52C264.63,-163.94 229.08,-151.35 203.06,-142.13"/>
<polygon fill="#63b8ff" stroke="#63b8ff" points="204.57,-138.95 193.98,-138.91 202.23,-145.55 204.57,-138.95"/>
</a>
</g>
</g>
<!-- Node8 -->
<g id="Node000008" class="node">
<title>Node8</title>
<g id="a_Node000008"><a xlink:title=" ">
<polygon fill="#e0e0e0" stroke="#999999" points="287.25,-138 239,-138 239,-119.5 287.25,-119.5 287.25,-138"/>
<text text-anchor="middle" x="263.12" y="-124.5" font-family="Helvetica,sans-Serif" font-size="10.00">QTimer</text>
</a>
</g>
</g>
<!-- Node1&#45;&gt;Node8 -->
<g id="edge7_Node000001_Node000008" class="edge">
<title>Node1&#45;&gt;Node8</title>
<g id="a_edge7_Node000001_Node000008"><a xlink:title=" ">
<path fill="none" stroke="#63b8ff" d="M314.66,-173.52C304.79,-165.14 292.21,-154.45 281.94,-145.73"/>
<polygon fill="#63b8ff" stroke="#63b8ff" points="284.36,-143.19 274.47,-139.38 279.82,-148.52 284.36,-143.19"/>
</a>
</g>
</g>
<!-- Node9 -->
<g id="Node000009" class="node">
<title>Node9</title>
<g id="a_Node000009"><a xlink:title=" ">
<polygon fill="#e0e0e0" stroke="#999999" points="357.12,-138 305.12,-138 305.12,-119.5 357.12,-119.5 357.12,-138"/>
<text text-anchor="middle" x="331.12" y="-124.5" font-family="Helvetica,sans-Serif" font-size="10.00">QDebug</text>
</a>
</g>
</g>
<!-- Node1&#45;&gt;Node9 -->
<g id="edge8_Node000001_Node000009" class="edge">
<title>Node1&#45;&gt;Node9</title>
<g id="a_edge8_Node000001_Node000009"><a xlink:title=" ">
<path fill="none" stroke="#63b8ff" d="M331.12,-173.52C331.12,-166.42 331.12,-157.67 331.12,-149.86"/>
<polygon fill="#63b8ff" stroke="#63b8ff" points="334.63,-149.92 331.13,-139.92 327.63,-149.92 334.63,-149.92"/>
</a>
</g>
</g>
<!-- Node10 -->
<g id="Node000010" class="node">
<title>Node10</title>
<g id="a_Node000010"><a xlink:title=" ">
<polygon fill="#e0e0e0" stroke="#999999" points="477.25,-138 375,-138 375,-119.5 477.25,-119.5 477.25,-138"/>
<text text-anchor="middle" x="426.12" y="-124.5" font-family="Helvetica,sans-Serif" font-size="10.00">QRandomGenerator</text>
</a>
</g>
</g>
<!-- Node1&#45;&gt;Node10 -->
<g id="edge9_Node000001_Node000010" class="edge">
<title>Node1&#45;&gt;Node10</title>
<g id="a_edge9_Node000001_Node000010"><a xlink:title=" ">
<path fill="none" stroke="#63b8ff" d="M354.12,-173.52C368.76,-164.62 387.66,-153.13 402.43,-144.15"/>
<polygon fill="#63b8ff" stroke="#63b8ff" points="403.87,-147.38 410.6,-139.19 400.23,-141.39 403.87,-147.38"/>
</a>
</g>
</g>
<!-- Node11 -->
<g id="Node000011" class="node">
<title>Node11</title>
<g id="a_Node000011"><a xlink:title=" ">
<polygon fill="#e0e0e0" stroke="#999999" points="571.12,-138 495.12,-138 495.12,-119.5 571.12,-119.5 571.12,-138"/>
<text text-anchor="middle" x="533.12" y="-124.5" font-family="Helvetica,sans-Serif" font-size="10.00">QVBoxLayout</text>
</a>
</g>
</g>
<!-- Node1&#45;&gt;Node11 -->
<g id="edge10_Node000001_Node000011" class="edge">
<title>Node1&#45;&gt;Node11</title>
<g id="a_edge10_Node000001_Node000011"><a xlink:title=" ">
<path fill="none" stroke="#63b8ff" d="M379,-173.81C413.23,-164.03 458.84,-150.99 491.55,-141.64"/>
<polygon fill="#63b8ff" stroke="#63b8ff" points="492.43,-145.02 501.09,-138.91 490.51,-138.29 492.43,-145.02"/>
</a>
</g>
</g>
<!-- Node12 -->
<g id="Node000012" class="node">
<title>Node12</title>
<g id="a_Node000012"><a xlink:href="communication__stream_8h.html" target="_top" xlink:title=" ">
<polygon fill="white" stroke="#666666" points="714.88,-138 589.38,-138 589.38,-119.5 714.88,-119.5 714.88,-138"/>
<text text-anchor="middle" x="652.12" y="-124.5" font-family="Helvetica,sans-Serif" font-size="10.00">communication_stream.h</text>
</a>
</g>
</g>
<!-- Node1&#45;&gt;Node12 -->
<g id="edge11_Node000001_Node000012" class="edge">
<title>Node1&#45;&gt;Node12</title>
<g id="a_edge11_Node000001_Node000012"><a xlink:title=" ">
<path fill="none" stroke="#63b8ff" d="M378.84,-178.92C435.72,-168.68 530.84,-151.57 592.52,-140.47"/>
<polygon fill="#63b8ff" stroke="#63b8ff" points="592.91,-143.96 602.14,-138.74 591.68,-137.07 592.91,-143.96"/>
</a>
</g>
</g>
<!-- Node3 -->
<g id="Node000003" class="node">
<title>Node3</title>
<g id="a_Node000003"><a xlink:title=" ">
<polygon fill="#e0e0e0" stroke="#999999" points="42.25,-78.25 0,-78.25 0,-59.75 42.25,-59.75 42.25,-78.25"/>
<text text-anchor="middle" x="21.12" y="-64.75" font-family="Helvetica,sans-Serif" font-size="10.00">QMap</text>
</a>
</g>
</g>
<!-- Node2&#45;&gt;Node3 -->
<g id="edge2_Node000002_Node000003" class="edge">
<title>Node2&#45;&gt;Node3</title>
<g id="a_edge2_Node000002_Node000003"><a xlink:title=" ">
<path fill="none" stroke="#63b8ff" d="M48.4,-119.23C43.91,-111.13 37.01,-98.67 31.27,-88.32"/>
<polygon fill="#63b8ff" stroke="#63b8ff" points="34.51,-86.93 26.6,-79.88 28.39,-90.32 34.51,-86.93"/>
</a>
</g>
</g>
<!-- Node4 -->
<g id="Node000004" class="node">
<title>Node4</title>
<g id="a_Node000004"><a xlink:title=" ">
<polygon fill="#e0e0e0" stroke="#999999" points="112.12,-78.25 60.12,-78.25 60.12,-59.75 112.12,-59.75 112.12,-78.25"/>
<text text-anchor="middle" x="86.12" y="-64.75" font-family="Helvetica,sans-Serif" font-size="10.00">QQueue</text>
</a>
</g>
</g>
<!-- Node2&#45;&gt;Node4 -->
<g id="edge3_Node000002_Node000004" class="edge">
<title>Node2&#45;&gt;Node4</title>
<g id="a_edge3_Node000002_Node000004"><a xlink:title=" ">
<path fill="none" stroke="#63b8ff" d="M57.99,-119.23C62.62,-111.13 69.74,-98.67 75.66,-88.32"/>
<polygon fill="#63b8ff" stroke="#63b8ff" points="78.56,-90.29 80.48,-79.87 72.48,-86.82 78.56,-90.29"/>
</a>
</g>
</g>
<!-- Node5 -->
<g id="Node000005" class="node">
<title>Node5</title>
<g id="a_Node000005"><a xlink:href="stream__message_8h.html" target="_top" xlink:title=" ">
<polygon fill="white" stroke="#666666" points="300.75,-78.25 201.5,-78.25 201.5,-59.75 300.75,-59.75 300.75,-78.25"/>
<text text-anchor="middle" x="251.12" y="-64.75" font-family="Helvetica,sans-Serif" font-size="10.00">stream_message.h</text>
</a>
</g>
</g>
<!-- Node2&#45;&gt;Node5 -->
<g id="edge4_Node000002_Node000005" class="edge">
<title>Node2&#45;&gt;Node5</title>
<g id="a_edge4_Node000002_Node000005"><a xlink:title=" ">
<path fill="none" stroke="#63b8ff" d="M82.77,-119.1C116.74,-109.2 172.61,-92.9 210.59,-81.82"/>
<polygon fill="#63b8ff" stroke="#63b8ff" points="211.21,-85.29 219.83,-79.13 209.25,-78.57 211.21,-85.29"/>
</a>
</g>
</g>
<!-- Node6 -->
<g id="Node000006" class="node">
<title>Node6</title>
<g id="a_Node000006"><a xlink:title=" ">
<polygon fill="#e0e0e0" stroke="#999999" points="278.25,-18.5 224,-18.5 224,0 278.25,0 278.25,-18.5"/>
<text text-anchor="middle" x="251.12" y="-5" font-family="Helvetica,sans-Serif" font-size="10.00">QWidget</text>
</a>
</g>
</g>
<!-- Node5&#45;&gt;Node6 -->
<g id="edge5_Node000005_Node000006" class="edge">
<title>Node5&#45;&gt;Node6</title>
<g id="a_edge5_Node000005_Node000006"><a xlink:title=" ">
<path fill="none" stroke="#63b8ff" d="M251.12,-59.48C251.12,-51.8 251.12,-40.22 251.12,-30.22"/>
<polygon fill="#63b8ff" stroke="#63b8ff" points="254.63,-30.32 251.13,-20.32 247.63,-30.32 254.63,-30.32"/>
</a>
</g>
</g>
<!-- Node12&#45;&gt;Node5 -->
<g id="edge16_Node000012_Node000005" class="edge">
<title>Node12&#45;&gt;Node5</title>
<g id="a_edge16_Node000012_Node000005"><a xlink:title=" ">
<path fill="none" stroke="#63b8ff" d="M591.66,-119.04C516.22,-108.18 387.95,-89.7 312.22,-78.8"/>
<polygon fill="#63b8ff" stroke="#63b8ff" points="312.88,-75.36 302.48,-77.4 311.88,-82.29 312.88,-75.36"/>
</a>
</g>
</g>
<!-- Node13 -->
<g id="Node000013" class="node">
<title>Node13</title>
<g id="a_Node000013"><a xlink:title=" ">
<polygon fill="#e0e0e0" stroke="#999999" points="474.62,-78.25 389.62,-78.25 389.62,-59.75 474.62,-59.75 474.62,-78.25"/>
<text text-anchor="middle" x="432.12" y="-64.75" font-family="Helvetica,sans-Serif" font-size="10.00">QOpenGLBuffer</text>
</a>
</g>
</g>
<!-- Node12&#45;&gt;Node13 -->
<g id="edge12_Node000012_Node000013" class="edge">
<title>Node12&#45;&gt;Node13</title>
<g id="a_edge12_Node000012_Node000013"><a xlink:title=" ">
<path fill="none" stroke="#63b8ff" d="M619.19,-119.1C581.2,-109.13 518.56,-92.69 476.35,-81.61"/>
<polygon fill="#63b8ff" stroke="#63b8ff" points="477.31,-78.24 466.75,-79.09 475.53,-85.01 477.31,-78.24"/>
</a>
</g>
</g>
<!-- Node14 -->
<g id="Node000014" class="node">
<title>Node14</title>
<g id="a_Node000014"><a xlink:title=" ">
<polygon fill="#e0e0e0" stroke="#999999" points="583.25,-78.25 493,-78.25 493,-59.75 583.25,-59.75 583.25,-78.25"/>
<text text-anchor="middle" x="538.12" y="-64.75" font-family="Helvetica,sans-Serif" font-size="10.00">QOpenGLWidget</text>
</a>
</g>
</g>
<!-- Node12&#45;&gt;Node14 -->
<g id="edge13_Node000012_Node000014" class="edge">
<title>Node12&#45;&gt;Node14</title>
<g id="a_edge13_Node000012_Node000014"><a xlink:title=" ">
<path fill="none" stroke="#63b8ff" d="M635.3,-119.23C616.97,-109.94 587.36,-94.94 565.63,-83.93"/>
<polygon fill="#63b8ff" stroke="#63b8ff" points="567.24,-80.83 556.74,-79.43 564.08,-87.07 567.24,-80.83"/>
</a>
</g>
</g>
<!-- Node15 -->
<g id="Node000015" class="node">
<title>Node15</title>
<g id="a_Node000015"><a xlink:title=" ">
<polygon fill="#e0e0e0" stroke="#999999" points="703.25,-78.25 601,-78.25 601,-59.75 703.25,-59.75 703.25,-78.25"/>
<text text-anchor="middle" x="652.12" y="-64.75" font-family="Helvetica,sans-Serif" font-size="10.00">QOpenGLFunctions</text>
</a>
</g>
</g>
<!-- Node12&#45;&gt;Node15 -->
<g id="edge14_Node000012_Node000015" class="edge">
<title>Node12&#45;&gt;Node15</title>
<g id="a_edge14_Node000012_Node000015"><a xlink:title=" ">
<path fill="none" stroke="#63b8ff" d="M652.12,-119.23C652.12,-111.55 652.12,-99.97 652.12,-89.97"/>
<polygon fill="#63b8ff" stroke="#63b8ff" points="655.63,-90.07 652.13,-80.07 648.63,-90.07 655.63,-90.07"/>
</a>
</g>
</g>
<!-- Node16 -->
<g id="Node000016" class="node">
<title>Node16</title>
<g id="a_Node000016"><a xlink:title=" ">
<polygon fill="#e0e0e0" stroke="#999999" points="860.62,-78.25 721.62,-78.25 721.62,-59.75 860.62,-59.75 860.62,-78.25"/>
<text text-anchor="middle" x="791.12" y="-64.75" font-family="Helvetica,sans-Serif" font-size="10.00">QOpenGLVertexArrayObject</text>
</a>
</g>
</g>
<!-- Node12&#45;&gt;Node16 -->
<g id="edge15_Node000012_Node000016" class="edge">
<title>Node12&#45;&gt;Node16</title>
<g id="a_edge15_Node000012_Node000016"><a xlink:title=" ">
<path fill="none" stroke="#63b8ff" d="M672.93,-119.1C695.97,-109.54 733.33,-94.01 759.88,-82.98"/>
<polygon fill="#63b8ff" stroke="#63b8ff" points="760.88,-86.35 768.78,-79.29 758.2,-79.89 760.88,-86.35"/>
</a>
</g>
</g>
<!-- Node17 -->
<g id="Node000017" class="node">
<title>Node17</title>
<g id="a_Node000017"><a xlink:href="user__info__label_8h.html" target="_top" xlink:title=" ">
<polygon fill="white" stroke="#666666" points="971.75,-83.5 878.5,-83.5 878.5,-54.5 971.75,-54.5 971.75,-83.5"/>
<text text-anchor="start" x="886.5" y="-70" font-family="Helvetica,sans-Serif" font-size="10.00">../labels/user_info</text>
<text text-anchor="middle" x="925.12" y="-59.5" font-family="Helvetica,sans-Serif" font-size="10.00">_label.h</text>
</a>
</g>
</g>
<!-- Node12&#45;&gt;Node17 -->
<g id="edge17_Node000012_Node000017" class="edge">
<title>Node12&#45;&gt;Node17</title>
<g id="a_edge17_Node000012_Node000017"><a xlink:title=" ">
<path fill="none" stroke="#63b8ff" d="M697.75,-119.05C739.52,-110.95 803.32,-98.28 867,-84.15"/>
<polygon fill="#63b8ff" stroke="#63b8ff" points="867.58,-87.61 876.57,-82.02 866.05,-80.78 867.58,-87.61"/>
</a>
</g>
</g>
<!-- Node18 -->
<g id="Node000018" class="node">
<title>Node18</title>
<g id="a_Node000018"><a xlink:title=" ">
<polygon fill="#e0e0e0" stroke="#999999" points="948.5,-18.5 901.75,-18.5 901.75,0 948.5,0 948.5,-18.5"/>
<text text-anchor="middle" x="925.12" y="-5" font-family="Helvetica,sans-Serif" font-size="10.00">QLabel</text>
</a>
</g>
</g>
<!-- Node17&#45;&gt;Node18 -->
<g id="edge18_Node000017_Node000018" class="edge">
<title>Node17&#45;&gt;Node18</title>
<g id="a_edge18_Node000017_Node000018"><a xlink:title=" ">
<path fill="none" stroke="#63b8ff" d="M925.12,-54.02C925.12,-46.92 925.12,-38.17 925.12,-30.36"/>
<polygon fill="#63b8ff" stroke="#63b8ff" points="928.63,-30.42 925.13,-20.42 921.63,-30.42 928.63,-30.42"/>
</a>
</g>
</g>
</g>
</svg>
