<?xml version="1.0" encoding="UTF-8" standalone="no"?>
<!DOCTYPE svg PUBLIC "-//W3C//DTD SVG 1.1//EN"
 "http://www.w3.org/Graphics/SVG/1.1/DTD/svg11.dtd">
<!-- Generated by graphviz version 12.2.1 (0)
 -->
<!-- Title: src/ui/chat/stream_message.h Pages: 1 -->
<svg width="430pt" height="167pt"
 viewBox="0.00 0.00 429.75 167.00" xmlns="http://www.w3.org/2000/svg" xmlns:xlink="http://www.w3.org/1999/xlink">
<g id="graph0" class="graph" transform="scale(1 1) rotate(0) translate(4 163)">
<title>src/ui/chat/stream_message.h</title>
<!-- Node1 -->
<g id="Node000001" class="node">
<title>Node1</title>
<g id="a_Node000001"><a xlink:title=" ">
<polygon fill="#999999" stroke="#666666" points="308.75,-159 214,-159 214,-130 308.75,-130 308.75,-159"/>
<text text-anchor="start" x="222" y="-145.5" font-family="Helvetica,sans-Serif" font-size="10.00">src/ui/chat/stream</text>
<text text-anchor="middle" x="261.38" y="-135" font-family="Helvetica,sans-Serif" font-size="10.00">_message.h</text>
</a>
</g>
</g>
<!-- Node2 -->
<g id="Node000002" class="node">
<title>Node2</title>
<g id="a_Node000002"><a xlink:href="communication__stream_8h.html" target="_top" xlink:title=" ">
<polygon fill="white" stroke="#666666" points="195.75,-94 65,-94 65,-65 195.75,-65 195.75,-94"/>
<text text-anchor="start" x="73" y="-80.5" font-family="Helvetica,sans-Serif" font-size="10.00">src/ui/chat/communication</text>
<text text-anchor="middle" x="130.38" y="-70" font-family="Helvetica,sans-Serif" font-size="10.00">_stream.h</text>
</a>
</g>
</g>
<!-- Node1&#45;&gt;Node2 -->
<g id="edge1_Node000001_Node000002" class="edge">
<title>Node1&#45;&gt;Node2</title>
<g id="a_edge1_Node000001_Node000002"><a xlink:title=" ">
<path fill="none" stroke="#63b8ff" d="M222.17,-124.64C202,-114.94 177.84,-103.33 159.37,-94.44"/>
<polygon fill="#63b8ff" stroke="#63b8ff" points="220.41,-127.68 230.94,-128.86 223.44,-121.37 220.41,-127.68"/>
</a>
</g>
</g>
<!-- Node5 -->
<g id="Node000005" class="node">
<title>Node5</title>
<g id="a_Node000005"><a xlink:href="stream__display_8h.html" target="_top" xlink:title=" ">
<polygon fill="white" stroke="#666666" points="308.75,-94 214,-94 214,-65 308.75,-65 308.75,-94"/>
<text text-anchor="start" x="222" y="-80.5" font-family="Helvetica,sans-Serif" font-size="10.00">src/ui/chat/stream</text>
<text text-anchor="middle" x="261.38" y="-70" font-family="Helvetica,sans-Serif" font-size="10.00">_display.h</text>
</a>
</g>
</g>
<!-- Node1&#45;&gt;Node5 -->
<g id="edge4_Node000001_Node000005" class="edge">
<title>Node1&#45;&gt;Node5</title>
<g id="a_edge4_Node000001_Node000005"><a xlink:title=" ">
<path fill="none" stroke="#63b8ff" d="M261.38,-118.01C261.38,-109.96 261.38,-101.37 261.38,-94.44"/>
<polygon fill="#63b8ff" stroke="#63b8ff" points="257.88,-118 261.38,-128 264.88,-118 257.88,-118"/>
</a>
</g>
</g>
<!-- Node7 -->
<g id="Node000007" class="node">
<title>Node7</title>
<g id="a_Node000007"><a xlink:href="stream__message_8cpp.html" target="_top" xlink:title=" ">
<polygon fill="white" stroke="#666666" points="421.75,-94 327,-94 327,-65 421.75,-65 421.75,-94"/>
<text text-anchor="start" x="335" y="-80.5" font-family="Helvetica,sans-Serif" font-size="10.00">src/ui/chat/stream</text>
<text text-anchor="middle" x="374.38" y="-70" font-family="Helvetica,sans-Serif" font-size="10.00">_message.cpp</text>
</a>
</g>
</g>
<!-- Node1&#45;&gt;Node7 -->
<g id="edge7_Node000001_Node000007" class="edge">
<title>Node1&#45;&gt;Node7</title>
<g id="a_edge7_Node000001_Node000007"><a xlink:title=" ">
<path fill="none" stroke="#63b8ff" d="M296.16,-124.11C313.36,-114.52 333.73,-103.16 349.37,-94.44"/>
<polygon fill="#63b8ff" stroke="#63b8ff" points="294.81,-120.85 287.78,-128.78 298.21,-126.97 294.81,-120.85"/>
</a>
</g>
</g>
<!-- Node3 -->
<g id="Node000003" class="node">
<title>Node3</title>
<g id="a_Node000003"><a xlink:href="communication__stream_8cpp.html" target="_top" xlink:title=" ">
<polygon fill="white" stroke="#666666" points="130.75,-29 0,-29 0,0 130.75,0 130.75,-29"/>
<text text-anchor="start" x="8" y="-15.5" font-family="Helvetica,sans-Serif" font-size="10.00">src/ui/chat/communication</text>
<text text-anchor="middle" x="65.38" y="-5" font-family="Helvetica,sans-Serif" font-size="10.00">_stream.cpp</text>
</a>
</g>
</g>
<!-- Node2&#45;&gt;Node3 -->
<g id="edge2_Node000002_Node000003" class="edge">
<title>Node2&#45;&gt;Node3</title>
<g id="a_edge2_Node000002_Node000003"><a xlink:title=" ">
<path fill="none" stroke="#63b8ff" d="M107.84,-56.65C98.52,-47.63 88,-37.43 79.76,-29.44"/>
<polygon fill="#63b8ff" stroke="#63b8ff" points="105.25,-59.02 114.86,-63.46 110.12,-53.99 105.25,-59.02"/>
</a>
</g>
</g>
<!-- Node4 -->
<g id="Node000004" class="node">
<title>Node4</title>
<g id="a_Node000004"><a xlink:href="stream__display_8cpp.html" target="_top" xlink:title=" ">
<polygon fill="white" stroke="#666666" points="243.75,-29 149,-29 149,0 243.75,0 243.75,-29"/>
<text text-anchor="start" x="157" y="-15.5" font-family="Helvetica,sans-Serif" font-size="10.00">src/ui/chat/stream</text>
<text text-anchor="middle" x="196.38" y="-5" font-family="Helvetica,sans-Serif" font-size="10.00">_display.cpp</text>
</a>
</g>
</g>
<!-- Node2&#45;&gt;Node4 -->
<g id="edge3_Node000002_Node000004" class="edge">
<title>Node2&#45;&gt;Node4</title>
<g id="a_edge3_Node000002_Node000004"><a xlink:title=" ">
<path fill="none" stroke="#63b8ff" d="M153.26,-56.65C162.72,-47.63 173.4,-37.43 181.77,-29.44"/>
<polygon fill="#63b8ff" stroke="#63b8ff" points="150.93,-54.04 146.12,-63.47 155.77,-59.1 150.93,-54.04"/>
</a>
</g>
</g>
<!-- Node5&#45;&gt;Node4 -->
<g id="edge5_Node000005_Node000004" class="edge">
<title>Node5&#45;&gt;Node4</title>
<g id="a_edge5_Node000005_Node000004"><a xlink:title=" ">
<path fill="none" stroke="#63b8ff" d="M238.84,-56.65C229.52,-47.63 219,-37.43 210.76,-29.44"/>
<polygon fill="#63b8ff" stroke="#63b8ff" points="236.25,-59.02 245.86,-63.46 241.12,-53.99 236.25,-59.02"/>
</a>
</g>
</g>
<!-- Node6 -->
<g id="Node000006" class="node">
<title>Node6</title>
<g id="a_Node000006"><a xlink:href="chat__view_8cpp.html" target="_top" xlink:title=" ">
<polygon fill="white" stroke="#666666" points="395.25,-23.75 261.5,-23.75 261.5,-5.25 395.25,-5.25 395.25,-23.75"/>
<text text-anchor="middle" x="328.38" y="-10.25" font-family="Helvetica,sans-Serif" font-size="10.00">src/ui/views/chat_view.cpp</text>
</a>
</g>
</g>
<!-- Node5&#45;&gt;Node6 -->
<g id="edge6_Node000005_Node000006" class="edge">
<title>Node5&#45;&gt;Node6</title>
<g id="a_edge6_Node000005_Node000006"><a xlink:title=" ">
<path fill="none" stroke="#63b8ff" d="M284.47,-56.79C296.36,-45.6 310.2,-32.59 319.12,-24.21"/>
<polygon fill="#63b8ff" stroke="#63b8ff" points="282.23,-54.08 277.35,-63.48 287.03,-59.18 282.23,-54.08"/>
</a>
</g>
</g>
</g>
</svg>
