<?xml version="1.0" encoding="UTF-8" standalone="no"?>
<!DOCTYPE svg PUBLIC "-//W3C//DTD SVG 1.1//EN"
 "http://www.w3.org/Graphics/SVG/1.1/DTD/svg11.dtd">
<!-- Generated by graphviz version 12.2.1 (0)
 -->
<!-- Title: BlobConfig::BlobParameters Pages: 1 -->
<svg width="141pt" height="186pt"
 viewBox="0.00 0.00 140.50 186.00" xmlns="http://www.w3.org/2000/svg" xmlns:xlink="http://www.w3.org/1999/xlink">
<g id="graph0" class="graph" transform="scale(1 1) rotate(0) translate(4 182)">
<title>BlobConfig::BlobParameters</title>
<!-- Node1 -->
<g id="Node000001" class="node">
<title>Node1</title>
<g id="a_Node000001"><a xlink:title="Structure holding parameters related to the blob&#39;s visual appearance and basic geometry.">
<polygon fill="#999999" stroke="none" points="132.5,-178 0,-178 0,0 132.5,0 132.5,-178"/>
<text text-anchor="start" x="4" y="-164.5" font-family="Helvetica,sans-Serif" font-size="10.00">BlobConfig::BlobParameters</text>
<text text-anchor="start" x="5.25" y="-150" font-family="Helvetica,sans-Serif" font-size="10.00">+</text>
<text text-anchor="start" x="16.5" y="-150" font-family="Helvetica,sans-Serif" font-size="10.00">QColor background_color</text>
<text text-anchor="start" x="5.25" y="-135.5" font-family="Helvetica,sans-Serif" font-size="10.00">+</text>
<text text-anchor="start" x="16.5" y="-135.5" font-family="Helvetica,sans-Serif" font-size="10.00">double blob_radius</text>
<text text-anchor="start" x="5.25" y="-121" font-family="Helvetica,sans-Serif" font-size="10.00">+</text>
<text text-anchor="start" x="16.5" y="-121" font-family="Helvetica,sans-Serif" font-size="10.00">QColor border_color</text>
<text text-anchor="start" x="5.25" y="-106.5" font-family="Helvetica,sans-Serif" font-size="10.00">+</text>
<text text-anchor="start" x="16.5" y="-106.5" font-family="Helvetica,sans-Serif" font-size="10.00">int border_width</text>
<text text-anchor="start" x="5.25" y="-92" font-family="Helvetica,sans-Serif" font-size="10.00">+</text>
<text text-anchor="start" x="16.5" y="-92" font-family="Helvetica,sans-Serif" font-size="10.00">int glow_radius</text>
<text text-anchor="start" x="5.25" y="-77.5" font-family="Helvetica,sans-Serif" font-size="10.00">+</text>
<text text-anchor="start" x="16.5" y="-77.5" font-family="Helvetica,sans-Serif" font-size="10.00">QColor grid_color</text>
<text text-anchor="start" x="5.25" y="-63" font-family="Helvetica,sans-Serif" font-size="10.00">+</text>
<text text-anchor="start" x="16.5" y="-63" font-family="Helvetica,sans-Serif" font-size="10.00">int grid_spacing</text>
<text text-anchor="start" x="5.25" y="-48.5" font-family="Helvetica,sans-Serif" font-size="10.00">+</text>
<text text-anchor="start" x="16.5" y="-48.5" font-family="Helvetica,sans-Serif" font-size="10.00">int num_of_points</text>
<text text-anchor="start" x="5.25" y="-34" font-family="Helvetica,sans-Serif" font-size="10.00">+</text>
<text text-anchor="start" x="16.5" y="-34" font-family="Helvetica,sans-Serif" font-size="10.00">int screen_height</text>
<text text-anchor="start" x="5.25" y="-19.5" font-family="Helvetica,sans-Serif" font-size="10.00">+</text>
<text text-anchor="start" x="16.5" y="-19.5" font-family="Helvetica,sans-Serif" font-size="10.00">int screen_width</text>
<text text-anchor="start" x="64.75" y="-5" font-family="Helvetica,sans-Serif" font-size="10.00"> </text>
<polygon fill="#666666" stroke="#666666" points="0,-161.5 0,-161.5 132.5,-161.5 132.5,-161.5 0,-161.5"/>
<polygon fill="#666666" stroke="#666666" points="0,-16.5 0,-16.5 14.5,-16.5 14.5,-16.5 0,-16.5"/>
<polygon fill="#666666" stroke="#666666" points="14.5,-16.5 14.5,-16.5 132.5,-16.5 132.5,-16.5 14.5,-16.5"/>
<polygon fill="none" stroke="#666666" points="0,0 0,-178 132.5,-178 132.5,0 0,0"/>
</a>
</g>
</g>
</g>
</svg>
