<?xml version="1.0" encoding="UTF-8" standalone="no"?>
<!DOCTYPE svg PUBLIC "-//W3C//DTD SVG 1.1//EN"
 "http://www.w3.org/Graphics/SVG/1.1/DTD/svg11.dtd">
<!-- Generated by graphviz version 12.2.1 (0)
 -->
<!-- Title: BlobConfig::IdleParameters Pages: 1 -->
<svg width="137pt" height="85pt"
 viewBox="0.00 0.00 136.75 84.50" xmlns="http://www.w3.org/2000/svg" xmlns:xlink="http://www.w3.org/1999/xlink">

<svg id="main" version="1.1" xmlns="http://www.w3.org/2000/svg" xmlns:xlink="http://www.w3.org/1999/xlink" xml:space="preserve">

<style type="text/css"><![CDATA[
.node, .edge {opacity: 0.7;}
.node.selected, .edge.selected {opacity: 1;}
.edge:hover path { stroke: red; }
.edge:hover polygon { stroke: red; fill: red; }
]]></style>
<script type="application/ecmascript" xlink:href="svg.min.js"/>
<svg id="graph" class="graph">
<g id="graph0" class="graph" transform="scale(1 1) rotate(0) translate(4 80.5)">
<title>BlobConfig::IdleParameters</title>
<!-- Node1 -->
<g id="Node000001" class="node">
<title>Node1</title>
<g id="a_Node000001"><a xlink:title="Structure holding parameters specific to the Idle state animation.">
<polygon fill="#999999" stroke="none" points="128.75,-76.5 0,-76.5 0,0 128.75,0 128.75,-76.5"/>
<text text-anchor="start" x="4" y="-63" font-family="Helvetica,sans-Serif" font-size="10.00">BlobConfig::IdleParameters</text>
<text text-anchor="start" x="6.38" y="-48.5" font-family="Helvetica,sans-Serif" font-size="10.00">+</text>
<text text-anchor="start" x="18.75" y="-48.5" font-family="Helvetica,sans-Serif" font-size="10.00">double wave_amplitude</text>
<text text-anchor="start" x="6.38" y="-34" font-family="Helvetica,sans-Serif" font-size="10.00">+</text>
<text text-anchor="start" x="18.75" y="-34" font-family="Helvetica,sans-Serif" font-size="10.00">double wave_frequency</text>
<text text-anchor="start" x="6.38" y="-19.5" font-family="Helvetica,sans-Serif" font-size="10.00">+</text>
<text text-anchor="start" x="18.75" y="-19.5" font-family="Helvetica,sans-Serif" font-size="10.00">double wave_phase</text>
<text text-anchor="start" x="62.88" y="-5" font-family="Helvetica,sans-Serif" font-size="10.00"> </text>
<polygon fill="#666666" stroke="#666666" points="0,-60 0,-60 128.75,-60 128.75,-60 0,-60"/>
<polygon fill="#666666" stroke="#666666" points="0,-16.5 0,-16.5 16.75,-16.5 16.75,-16.5 0,-16.5"/>
<polygon fill="#666666" stroke="#666666" points="16.75,-16.5 16.75,-16.5 128.75,-16.5 128.75,-16.5 16.75,-16.5"/>
<polygon fill="none" stroke="#666666" points="0,0 0,-76.5 128.75,-76.5 128.75,0 0,0"/>
</a>
</g>
</g>
</g>
</svg>
</svg>

<style type='text/css'>
<![CDATA[
[data-mouse-over-selected='false'] { opacity: 0.7; }
[data-mouse-over-selected='true']  { opacity: 1.0; }
]]>
</style>
<script type="application/ecmascript"><![CDATA[
document.addEventListener('DOMContentLoaded', (event) => {
  highlightEdges();
  highlightAdjacentNodes();
});
]]></script>
</svg>
