<?xml version="1.0" encoding="UTF-8" standalone="no"?>
<!DOCTYPE svg PUBLIC "-//W3C//DTD SVG 1.1//EN"
 "http://www.w3.org/Graphics/SVG/1.1/DTD/svg11.dtd">
<!-- Generated by graphviz version 12.2.1 (0)
 -->
<!-- Title: JoinResult Pages: 1 -->
<svg width="116pt" height="70pt"
 viewBox="0.00 0.00 116.00 70.00" xmlns="http://www.w3.org/2000/svg" xmlns:xlink="http://www.w3.org/1999/xlink">
<g id="graph0" class="graph" transform="scale(1 1) rotate(0) translate(4 66)">
<title>JoinResult</title>
<!-- Node1 -->
<g id="Node000001" class="node">
<title>Node1</title>
<g id="a_Node000001"><a xlink:title="Represents the result of an attempt to join a wavelength.">
<polygon fill="#999999" stroke="none" points="108,-62 0,-62 0,0 108,0 108,-62"/>
<text text-anchor="start" x="31.12" y="-48.5" font-family="Helvetica,sans-Serif" font-size="10.00">JoinResult</text>
<text text-anchor="start" x="4" y="-34" font-family="Helvetica,sans-Serif" font-size="10.00">+</text>
<text text-anchor="start" x="14" y="-34" font-family="Helvetica,sans-Serif" font-size="10.00">QString error_reason</text>
<text text-anchor="start" x="4" y="-19.5" font-family="Helvetica,sans-Serif" font-size="10.00">+</text>
<text text-anchor="start" x="14" y="-19.5" font-family="Helvetica,sans-Serif" font-size="10.00">bool success</text>
<text text-anchor="start" x="52.5" y="-5" font-family="Helvetica,sans-Serif" font-size="10.00"> </text>
<polygon fill="#666666" stroke="#666666" points="0,-45.5 0,-45.5 108,-45.5 108,-45.5 0,-45.5"/>
<polygon fill="#666666" stroke="#666666" points="0,-16.5 0,-16.5 12,-16.5 12,-16.5 0,-16.5"/>
<polygon fill="#666666" stroke="#666666" points="12,-16.5 12,-16.5 108,-16.5 108,-16.5 12,-16.5"/>
<polygon fill="none" stroke="#666666" points="0,0 0,-62 108,-62 108,0 0,0"/>
</a>
</g>
</g>
</g>
</svg>
