<?xml version="1.0" encoding="UTF-8" standalone="no"?>
<!DOCTYPE svg PUBLIC "-//W3C//DTD SVG 1.1//EN"
 "http://www.w3.org/Graphics/SVG/1.1/DTD/svg11.dtd">
<!-- Generated by graphviz version 12.2.1 (0)
 -->
<!-- Title: src/ui/settings/tabs/classified/components/system_override_manager.cpp Pages: 1 -->
<svg width="1462pt" height="178pt"
 viewBox="0.00 0.00 1462.25 177.50" xmlns="http://www.w3.org/2000/svg" xmlns:xlink="http://www.w3.org/1999/xlink">
<g id="graph0" class="graph" transform="scale(1 1) rotate(0) translate(4 173.5)">
<title>src/ui/settings/tabs/classified/components/system_override_manager.cpp</title>
<!-- Node1 -->
<g id="Node000001" class="node">
<title>Node1</title>
<g id="a_Node000001"><a xlink:title=" ">
<polygon fill="#999999" stroke="#666666" points="864.12,-169.5 713.88,-169.5 713.88,-130 864.12,-130 864.12,-169.5"/>
<text text-anchor="start" x="721.88" y="-156" font-family="Helvetica,sans-Serif" font-size="10.00">src/ui/settings/tabs</text>
<text text-anchor="start" x="721.88" y="-145.5" font-family="Helvetica,sans-Serif" font-size="10.00">/classified/components</text>
<text text-anchor="middle" x="789" y="-135" font-family="Helvetica,sans-Serif" font-size="10.00">/system_override_manager.cpp</text>
</a>
</g>
</g>
<!-- Node2 -->
<g id="Node000002" class="node">
<title>Node2</title>
<g id="a_Node000002"><a xlink:href="system__override__manager_8h.html" target="_top" xlink:title=" ">
<polygon fill="white" stroke="#666666" points="337.38,-88.75 200.62,-88.75 200.62,-70.25 337.38,-70.25 337.38,-88.75"/>
<text text-anchor="middle" x="269" y="-75.25" font-family="Helvetica,sans-Serif" font-size="10.00">system_override_manager.h</text>
</a>
</g>
</g>
<!-- Node1&#45;&gt;Node2 -->
<g id="edge1_Node000001_Node000002" class="edge">
<title>Node1&#45;&gt;Node2</title>
<g id="a_edge1_Node000001_Node000002"><a xlink:title=" ">
<path fill="none" stroke="#63b8ff" d="M713.39,-138.83C615.47,-125.97 445.68,-103.69 346.74,-90.7"/>
<polygon fill="#63b8ff" stroke="#63b8ff" points="347.5,-87.27 337.13,-89.44 346.58,-94.21 347.5,-87.27"/>
</a>
</g>
</g>
<!-- Node4 -->
<g id="Node000004" class="node">
<title>Node4</title>
<g id="a_Node000004"><a xlink:href="floating__energy__sphere__widget_8h.html" target="_top" xlink:title=" ">
<polygon fill="white" stroke="#666666" points="662.25,-94 545.75,-94 545.75,-65 662.25,-65 662.25,-94"/>
<text text-anchor="start" x="553.75" y="-80.5" font-family="Helvetica,sans-Serif" font-size="10.00">floating_energy_sphere</text>
<text text-anchor="middle" x="604" y="-70" font-family="Helvetica,sans-Serif" font-size="10.00">_widget.h</text>
</a>
</g>
</g>
<!-- Node1&#45;&gt;Node4 -->
<g id="edge3_Node000001_Node000004" class="edge">
<title>Node1&#45;&gt;Node4</title>
<g id="a_edge3_Node000001_Node000004"><a xlink:title=" ">
<path fill="none" stroke="#63b8ff" d="M736.97,-129.56C710.51,-119.79 678.54,-108 652.58,-98.42"/>
<polygon fill="#63b8ff" stroke="#63b8ff" points="653.87,-95.17 643.28,-94.99 651.45,-101.73 653.87,-95.17"/>
</a>
</g>
</g>
<!-- Node18 -->
<g id="Node000018" class="node">
<title>Node18</title>
<g id="a_Node000018"><a xlink:title=" ">
<polygon fill="#e0e0e0" stroke="#999999" points="751.75,-88.75 680.25,-88.75 680.25,-70.25 751.75,-70.25 751.75,-88.75"/>
<text text-anchor="middle" x="716" y="-75.25" font-family="Helvetica,sans-Serif" font-size="10.00">QApplication</text>
</a>
</g>
</g>
<!-- Node1&#45;&gt;Node18 -->
<g id="edge17_Node000001_Node000018" class="edge">
<title>Node1&#45;&gt;Node18</title>
<g id="a_edge17_Node000001_Node000018"><a xlink:title=" ">
<path fill="none" stroke="#63b8ff" d="M768.67,-129.74C757.57,-119.37 743.98,-106.66 733.38,-96.75"/>
<polygon fill="#63b8ff" stroke="#63b8ff" points="735.78,-94.2 726.09,-89.93 731,-99.32 735.78,-94.2"/>
</a>
</g>
</g>
<!-- Node19 -->
<g id="Node000019" class="node">
<title>Node19</title>
<g id="a_Node000019"><a xlink:title=" ">
<polygon fill="#e0e0e0" stroke="#999999" points="808.62,-88.75 769.38,-88.75 769.38,-70.25 808.62,-70.25 808.62,-88.75"/>
<text text-anchor="middle" x="789" y="-75.25" font-family="Helvetica,sans-Serif" font-size="10.00">QFile</text>
</a>
</g>
</g>
<!-- Node1&#45;&gt;Node19 -->
<g id="edge18_Node000001_Node000019" class="edge">
<title>Node1&#45;&gt;Node19</title>
<g id="a_edge18_Node000001_Node000019"><a xlink:title=" ">
<path fill="none" stroke="#63b8ff" d="M789,-129.74C789,-120.52 789,-109.45 789,-100.15"/>
<polygon fill="#63b8ff" stroke="#63b8ff" points="792.5,-100.41 789,-90.41 785.5,-100.41 792.5,-100.41"/>
</a>
</g>
</g>
<!-- Node20 -->
<g id="Node000020" class="node">
<title>Node20</title>
<g id="a_Node000020"><a xlink:title=" ">
<polygon fill="#e0e0e0" stroke="#999999" points="881.12,-88.75 826.88,-88.75 826.88,-70.25 881.12,-70.25 881.12,-88.75"/>
<text text-anchor="middle" x="854" y="-75.25" font-family="Helvetica,sans-Serif" font-size="10.00">QScreen</text>
</a>
</g>
</g>
<!-- Node1&#45;&gt;Node20 -->
<g id="edge19_Node000001_Node000020" class="edge">
<title>Node1&#45;&gt;Node20</title>
<g id="a_edge19_Node000001_Node000020"><a xlink:title=" ">
<path fill="none" stroke="#63b8ff" d="M807.11,-129.74C816.88,-119.47 828.84,-106.92 838.23,-97.05"/>
<polygon fill="#63b8ff" stroke="#63b8ff" points="840.6,-99.65 844.96,-89.99 835.53,-94.82 840.6,-99.65"/>
</a>
</g>
</g>
<!-- Node21 -->
<g id="Node000021" class="node">
<title>Node21</title>
<g id="a_Node000021"><a xlink:title=" ">
<polygon fill="#e0e0e0" stroke="#999999" points="993,-88.75 899,-88.75 899,-70.25 993,-70.25 993,-88.75"/>
<text text-anchor="middle" x="946" y="-75.25" font-family="Helvetica,sans-Serif" font-size="10.00">QSystemTrayIcon</text>
</a>
</g>
</g>
<!-- Node1&#45;&gt;Node21 -->
<g id="edge20_Node000001_Node000021" class="edge">
<title>Node1&#45;&gt;Node21</title>
<g id="a_edge20_Node000001_Node000021"><a xlink:title=" ">
<path fill="none" stroke="#63b8ff" d="M833.15,-129.56C859.46,-118.12 892.18,-103.9 915.6,-93.72"/>
<polygon fill="#63b8ff" stroke="#63b8ff" points="916.8,-97.01 924.58,-89.81 914.01,-90.59 916.8,-97.01"/>
</a>
</g>
</g>
<!-- Node22 -->
<g id="Node000022" class="node">
<title>Node22</title>
<g id="a_Node000022"><a xlink:title=" ">
<polygon fill="#e0e0e0" stroke="#999999" points="1070.75,-88.75 1011.25,-88.75 1011.25,-70.25 1070.75,-70.25 1070.75,-88.75"/>
<text text-anchor="middle" x="1041" y="-75.25" font-family="Helvetica,sans-Serif" font-size="10.00">QProcess</text>
</a>
</g>
</g>
<!-- Node1&#45;&gt;Node22 -->
<g id="edge21_Node000001_Node000022" class="edge">
<title>Node1&#45;&gt;Node22</title>
<g id="a_edge21_Node000001_Node000022"><a xlink:title=" ">
<path fill="none" stroke="#63b8ff" d="M864.33,-130.98C905.27,-120.92 956.67,-107.65 1002,-94 1003.35,-93.59 1004.72,-93.17 1006.11,-92.73"/>
<polygon fill="#63b8ff" stroke="#63b8ff" points="1006.91,-96.15 1015.32,-89.71 1004.73,-89.5 1006.91,-96.15"/>
</a>
</g>
</g>
<!-- Node3 -->
<g id="Node000003" class="node">
<title>Node3</title>
<g id="a_Node000003"><a xlink:title=" ">
<polygon fill="#e0e0e0" stroke="#999999" points="52,-23.75 0,-23.75 0,-5.25 52,-5.25 52,-23.75"/>
<text text-anchor="middle" x="26" y="-10.25" font-family="Helvetica,sans-Serif" font-size="10.00">QObject</text>
</a>
</g>
</g>
<!-- Node2&#45;&gt;Node3 -->
<g id="edge2_Node000002_Node000003" class="edge">
<title>Node2&#45;&gt;Node3</title>
<g id="a_edge2_Node000002_Node000003"><a xlink:title=" ">
<path fill="none" stroke="#63b8ff" d="M224.71,-69.77C182.28,-60.98 116.66,-46.27 61,-29 60.02,-28.7 59.03,-28.38 58.03,-28.05"/>
<polygon fill="#63b8ff" stroke="#63b8ff" points="59.33,-24.8 48.74,-24.75 56.99,-31.39 59.33,-24.8"/>
</a>
</g>
</g>
<!-- Node5 -->
<g id="Node000005" class="node">
<title>Node5</title>
<g id="a_Node000005"><a xlink:title=" ">
<polygon fill="#e0e0e0" stroke="#999999" points="112.12,-23.75 69.88,-23.75 69.88,-5.25 112.12,-5.25 112.12,-23.75"/>
<text text-anchor="middle" x="91" y="-10.25" font-family="Helvetica,sans-Serif" font-size="10.00">deque</text>
</a>
</g>
</g>
<!-- Node4&#45;&gt;Node5 -->
<g id="edge4_Node000004_Node000005" class="edge">
<title>Node4&#45;&gt;Node5</title>
<g id="a_edge4_Node000004_Node000005"><a xlink:title=" ">
<path fill="none" stroke="#63b8ff" d="M545.35,-74.85C434.8,-67.57 199.66,-50.13 121,-29 120.17,-28.78 119.34,-28.54 118.5,-28.28"/>
<polygon fill="#63b8ff" stroke="#63b8ff" points="119.79,-25.02 109.2,-24.73 117.3,-31.56 119.79,-25.02"/>
</a>
</g>
</g>
<!-- Node6 -->
<g id="Node000006" class="node">
<title>Node6</title>
<g id="a_Node000006"><a xlink:title=" ">
<polygon fill="#e0e0e0" stroke="#999999" points="209.5,-23.75 130.5,-23.75 130.5,-5.25 209.5,-5.25 209.5,-23.75"/>
<text text-anchor="middle" x="170" y="-10.25" font-family="Helvetica,sans-Serif" font-size="10.00">QAudioFormat</text>
</a>
</g>
</g>
<!-- Node4&#45;&gt;Node6 -->
<g id="edge5_Node000004_Node000006" class="edge">
<title>Node4&#45;&gt;Node6</title>
<g id="a_edge5_Node000004_Node000006"><a xlink:title=" ">
<path fill="none" stroke="#63b8ff" d="M545.36,-73.68C469.33,-66.81 332.86,-52.39 218,-29 215.18,-28.43 212.28,-27.77 209.37,-27.07"/>
<polygon fill="#63b8ff" stroke="#63b8ff" points="210.28,-23.69 199.72,-24.57 208.53,-30.47 210.28,-23.69"/>
</a>
</g>
</g>
<!-- Node7 -->
<g id="Node000007" class="node">
<title>Node7</title>
<g id="a_Node000007"><a xlink:title=" ">
<polygon fill="#e0e0e0" stroke="#999999" points="310.75,-23.75 227.25,-23.75 227.25,-5.25 310.75,-5.25 310.75,-23.75"/>
<text text-anchor="middle" x="269" y="-10.25" font-family="Helvetica,sans-Serif" font-size="10.00">QElapsedTimer</text>
</a>
</g>
</g>
<!-- Node4&#45;&gt;Node7 -->
<g id="edge6_Node000004_Node000007" class="edge">
<title>Node4&#45;&gt;Node7</title>
<g id="a_edge6_Node000004_Node000007"><a xlink:title=" ">
<path fill="none" stroke="#63b8ff" d="M545.51,-69.82C487.89,-60.91 397.49,-45.98 320,-29 317.08,-28.36 314.08,-27.66 311.06,-26.94"/>
<polygon fill="#63b8ff" stroke="#63b8ff" points="312.2,-23.62 301.65,-24.58 310.5,-30.41 312.2,-23.62"/>
</a>
</g>
</g>
<!-- Node8 -->
<g id="Node000008" class="node">
<title>Node8</title>
<g id="a_Node000008"><a xlink:title=" ">
<polygon fill="#e0e0e0" stroke="#999999" points="395.12,-23.75 328.88,-23.75 328.88,-5.25 395.12,-5.25 395.12,-23.75"/>
<text text-anchor="middle" x="362" y="-10.25" font-family="Helvetica,sans-Serif" font-size="10.00">QMatrix4x4</text>
</a>
</g>
</g>
<!-- Node4&#45;&gt;Node8 -->
<g id="edge7_Node000004_Node000008" class="edge">
<title>Node4&#45;&gt;Node8</title>
<g id="a_edge7_Node000004_Node000008"><a xlink:title=" ">
<path fill="none" stroke="#63b8ff" d="M545.41,-64.91C505.64,-55.45 451.95,-42.2 405,-29 403.27,-28.51 401.5,-28.01 399.72,-27.48"/>
<polygon fill="#63b8ff" stroke="#63b8ff" points="400.8,-24.15 390.21,-24.61 398.77,-30.85 400.8,-24.15"/>
</a>
</g>
</g>
<!-- Node9 -->
<g id="Node000009" class="node">
<title>Node9</title>
<g id="a_Node000009"><a xlink:title=" ">
<polygon fill="#e0e0e0" stroke="#999999" points="490.38,-23.75 413.62,-23.75 413.62,-5.25 490.38,-5.25 490.38,-23.75"/>
<text text-anchor="middle" x="452" y="-10.25" font-family="Helvetica,sans-Serif" font-size="10.00">QMediaPlayer</text>
</a>
</g>
</g>
<!-- Node4&#45;&gt;Node9 -->
<g id="edge8_Node000004_Node000009" class="edge">
<title>Node4&#45;&gt;Node9</title>
<g id="a_edge8_Node000004_Node000009"><a xlink:title=" ">
<path fill="none" stroke="#63b8ff" d="M570.27,-64.52C544.36,-53.78 508.85,-39.06 483.52,-28.56"/>
<polygon fill="#63b8ff" stroke="#63b8ff" points="484.98,-25.38 474.4,-24.79 482.3,-31.85 484.98,-25.38"/>
</a>
</g>
</g>
<!-- Node10 -->
<g id="Node000010" class="node">
<title>Node10</title>
<g id="a_Node000010"><a xlink:title=" ">
<polygon fill="#e0e0e0" stroke="#999999" points="593.5,-23.75 508.5,-23.75 508.5,-5.25 593.5,-5.25 593.5,-23.75"/>
<text text-anchor="middle" x="551" y="-10.25" font-family="Helvetica,sans-Serif" font-size="10.00">QOpenGLBuffer</text>
</a>
</g>
</g>
<!-- Node4&#45;&gt;Node10 -->
<g id="edge9_Node000004_Node000010" class="edge">
<title>Node4&#45;&gt;Node10</title>
<g id="a_edge9_Node000004_Node000010"><a xlink:title=" ">
<path fill="none" stroke="#63b8ff" d="M592.24,-64.52C584.38,-55.18 573.99,-42.82 565.6,-32.86"/>
<polygon fill="#63b8ff" stroke="#63b8ff" points="568.41,-30.76 559.3,-25.36 563.06,-35.27 568.41,-30.76"/>
</a>
</g>
</g>
<!-- Node11 -->
<g id="Node000011" class="node">
<title>Node11</title>
<g id="a_Node000011"><a xlink:title=" ">
<polygon fill="#e0e0e0" stroke="#999999" points="702.12,-23.75 611.88,-23.75 611.88,-5.25 702.12,-5.25 702.12,-23.75"/>
<text text-anchor="middle" x="657" y="-10.25" font-family="Helvetica,sans-Serif" font-size="10.00">QOpenGLWidget</text>
</a>
</g>
</g>
<!-- Node4&#45;&gt;Node11 -->
<g id="edge10_Node000004_Node000011" class="edge">
<title>Node4&#45;&gt;Node11</title>
<g id="a_edge10_Node000004_Node000011"><a xlink:title=" ">
<path fill="none" stroke="#63b8ff" d="M615.76,-64.52C623.62,-55.18 634.01,-42.82 642.4,-32.86"/>
<polygon fill="#63b8ff" stroke="#63b8ff" points="644.94,-35.27 648.7,-25.36 639.59,-30.76 644.94,-35.27"/>
</a>
</g>
</g>
<!-- Node12 -->
<g id="Node000012" class="node">
<title>Node12</title>
<g id="a_Node000012"><a xlink:title=" ">
<polygon fill="#e0e0e0" stroke="#999999" points="784,-23.75 720,-23.75 720,-5.25 784,-5.25 784,-23.75"/>
<text text-anchor="middle" x="752" y="-10.25" font-family="Helvetica,sans-Serif" font-size="10.00">QVector3D</text>
</a>
</g>
</g>
<!-- Node4&#45;&gt;Node12 -->
<g id="edge11_Node000004_Node000012" class="edge">
<title>Node4&#45;&gt;Node12</title>
<g id="a_edge11_Node000004_Node000012"><a xlink:title=" ">
<path fill="none" stroke="#63b8ff" d="M636.85,-64.52C661.95,-53.83 696.33,-39.2 720.98,-28.71"/>
<polygon fill="#63b8ff" stroke="#63b8ff" points="722.32,-31.94 730.15,-24.8 719.58,-25.5 722.32,-31.94"/>
</a>
</g>
</g>
<!-- Node13 -->
<g id="Node000013" class="node">
<title>Node13</title>
<g id="a_Node000013"><a xlink:title=" ">
<polygon fill="#e0e0e0" stroke="#999999" points="914.38,-29 801.62,-29 801.62,0 914.38,0 914.38,-29"/>
<text text-anchor="start" x="809.62" y="-15.5" font-family="Helvetica,sans-Serif" font-size="10.00">QOpenGLFunctions_3</text>
<text text-anchor="middle" x="858" y="-5" font-family="Helvetica,sans-Serif" font-size="10.00">_3_Core</text>
</a>
</g>
</g>
<!-- Node4&#45;&gt;Node13 -->
<g id="edge12_Node000004_Node000013" class="edge">
<title>Node4&#45;&gt;Node13</title>
<g id="a_edge12_Node000004_Node000013"><a xlink:title=" ">
<path fill="none" stroke="#63b8ff" d="M660.37,-64.52C698.85,-54.98 750,-42.29 790.63,-32.21"/>
<polygon fill="#63b8ff" stroke="#63b8ff" points="791.45,-35.61 800.32,-29.81 789.77,-28.82 791.45,-35.61"/>
</a>
</g>
</g>
<!-- Node14 -->
<g id="Node000014" class="node">
<title>Node14</title>
<g id="a_Node000014"><a xlink:title=" ">
<polygon fill="#e0e0e0" stroke="#999999" points="1071.5,-23.75 932.5,-23.75 932.5,-5.25 1071.5,-5.25 1071.5,-23.75"/>
<text text-anchor="middle" x="1002" y="-10.25" font-family="Helvetica,sans-Serif" font-size="10.00">QOpenGLVertexArrayObject</text>
</a>
</g>
</g>
<!-- Node4&#45;&gt;Node14 -->
<g id="edge13_Node000004_Node000014" class="edge">
<title>Node4&#45;&gt;Node14</title>
<g id="a_edge13_Node000004_Node000014"><a xlink:title=" ">
<path fill="none" stroke="#63b8ff" d="M662.43,-66.52C665.32,-65.99 668.19,-65.48 671,-65 782.5,-45.82 811.23,-46.53 923,-29 928.93,-28.07 935.1,-27.07 941.27,-26.05"/>
<polygon fill="#63b8ff" stroke="#63b8ff" points="941.53,-29.56 950.81,-24.45 940.37,-22.65 941.53,-29.56"/>
</a>
</g>
</g>
<!-- Node15 -->
<g id="Node000015" class="node">
<title>Node15</title>
<g id="a_Node000015"><a xlink:title=" ">
<polygon fill="#e0e0e0" stroke="#999999" points="1138.12,-23.75 1089.88,-23.75 1089.88,-5.25 1138.12,-5.25 1138.12,-23.75"/>
<text text-anchor="middle" x="1114" y="-10.25" font-family="Helvetica,sans-Serif" font-size="10.00">QTimer</text>
</a>
</g>
</g>
<!-- Node4&#45;&gt;Node15 -->
<g id="edge14_Node000004_Node000015" class="edge">
<title>Node4&#45;&gt;Node15</title>
<g id="a_edge14_Node000004_Node000015"><a xlink:title=" ">
<path fill="none" stroke="#63b8ff" d="M662.4,-66.34C665.3,-65.86 668.18,-65.41 671,-65 852.05,-38.89 903.23,-72.12 1081,-29 1082.2,-28.71 1083.42,-28.38 1084.64,-28.02"/>
<polygon fill="#63b8ff" stroke="#63b8ff" points="1085.78,-31.33 1094.05,-24.72 1083.45,-24.73 1085.78,-31.33"/>
</a>
</g>
</g>
<!-- Node16 -->
<g id="Node000016" class="node">
<title>Node16</title>
<g id="a_Node000016"><a xlink:title=" ">
<polygon fill="#e0e0e0" stroke="#999999" points="1301.88,-23.75 1156.12,-23.75 1156.12,-5.25 1301.88,-5.25 1301.88,-23.75"/>
<text text-anchor="middle" x="1229" y="-10.25" font-family="Helvetica,sans-Serif" font-size="10.00">QtMultimedia/QAudioDecoder</text>
</a>
</g>
</g>
<!-- Node4&#45;&gt;Node16 -->
<g id="edge15_Node000004_Node000016" class="edge">
<title>Node4&#45;&gt;Node16</title>
<g id="a_edge15_Node000004_Node000016"><a xlink:title=" ">
<path fill="none" stroke="#63b8ff" d="M662.39,-66.29C665.3,-65.82 668.18,-65.39 671,-65 881.17,-35.99 936.35,-54.26 1147,-29 1154.23,-28.13 1161.8,-27.08 1169.28,-25.96"/>
<polygon fill="#63b8ff" stroke="#63b8ff" points="1169.7,-29.43 1179.04,-24.43 1168.62,-22.52 1169.7,-29.43"/>
</a>
</g>
</g>
<!-- Node17 -->
<g id="Node000017" class="node">
<title>Node17</title>
<g id="a_Node000017"><a xlink:title=" ">
<polygon fill="#e0e0e0" stroke="#999999" points="1454.25,-23.75 1319.75,-23.75 1319.75,-5.25 1454.25,-5.25 1454.25,-23.75"/>
<text text-anchor="middle" x="1387" y="-10.25" font-family="Helvetica,sans-Serif" font-size="10.00">QtMultimedia/QAudioBuffer</text>
</a>
</g>
</g>
<!-- Node4&#45;&gt;Node17 -->
<g id="edge16_Node000004_Node000017" class="edge">
<title>Node4&#45;&gt;Node17</title>
<g id="a_edge16_Node000004_Node000017"><a xlink:title=" ">
<path fill="none" stroke="#63b8ff" d="M662.75,-66.17C665.53,-65.74 668.29,-65.35 671,-65 953.58,-28.77 1028.02,-61.97 1311,-29 1317.73,-28.22 1324.77,-27.21 1331.73,-26.11"/>
<polygon fill="#63b8ff" stroke="#63b8ff" points="1332.14,-29.59 1341.43,-24.5 1330.99,-22.69 1332.14,-29.59"/>
</a>
</g>
</g>
</g>
</svg>
