<?xml version="1.0" encoding="UTF-8" standalone="no"?>
<!DOCTYPE svg PUBLIC "-//W3C//DTD SVG 1.1//EN"
 "http://www.w3.org/Graphics/SVG/1.1/DTD/svg11.dtd">
<!-- Generated by graphviz version 12.2.1 (0)
 -->
<!-- Title: src/ui/chat/effects/text_display_effect.cpp Pages: 1 -->
<svg width="874pt" height="146pt"
 viewBox="0.00 0.00 873.75 146.00" xmlns="http://www.w3.org/2000/svg" xmlns:xlink="http://www.w3.org/1999/xlink">
<g id="graph0" class="graph" transform="scale(1 1) rotate(0) translate(4 142)">
<title>src/ui/chat/effects/text_display_effect.cpp</title>
<!-- Node1 -->
<g id="Node000001" class="node">
<title>Node1</title>
<g id="a_Node000001"><a xlink:title=" ">
<polygon fill="#999999" stroke="#666666" points="504,-138 385.25,-138 385.25,-109 504,-109 504,-138"/>
<text text-anchor="start" x="393.25" y="-124.5" font-family="Helvetica,sans-Serif" font-size="10.00">src/ui/chat/effects</text>
<text text-anchor="middle" x="444.62" y="-114" font-family="Helvetica,sans-Serif" font-size="10.00">/text_display_effect.cpp</text>
</a>
</g>
</g>
<!-- Node2 -->
<g id="Node000002" class="node">
<title>Node2</title>
<g id="a_Node000002"><a xlink:href="text__display__effect_8h.html" target="_top" xlink:title=" ">
<polygon fill="white" stroke="#666666" points="105.25,-73 0,-73 0,-54.5 105.25,-54.5 105.25,-73"/>
<text text-anchor="middle" x="52.62" y="-59.5" font-family="Helvetica,sans-Serif" font-size="10.00">text_display_effect.h</text>
</a>
</g>
</g>
<!-- Node1&#45;&gt;Node2 -->
<g id="edge1_Node000001_Node000002" class="edge">
<title>Node1&#45;&gt;Node2</title>
<g id="a_edge1_Node000001_Node000002"><a xlink:title=" ">
<path fill="none" stroke="#63b8ff" d="M385.09,-113.73C312.67,-103.06 190.89,-85.12 116.54,-74.17"/>
<polygon fill="#63b8ff" stroke="#63b8ff" points="117.38,-70.75 106.98,-72.76 116.36,-77.68 117.38,-70.75"/>
</a>
</g>
</g>
<!-- Node4 -->
<g id="Node000004" class="node">
<title>Node4</title>
<g id="a_Node000004"><a xlink:title=" ">
<polygon fill="#e0e0e0" stroke="#999999" points="188.38,-73 122.88,-73 122.88,-54.5 188.38,-54.5 188.38,-73"/>
<text text-anchor="middle" x="155.62" y="-59.5" font-family="Helvetica,sans-Serif" font-size="10.00">QDateTime</text>
</a>
</g>
</g>
<!-- Node1&#45;&gt;Node4 -->
<g id="edge3_Node000001_Node000004" class="edge">
<title>Node1&#45;&gt;Node4</title>
<g id="a_edge3_Node000001_Node000004"><a xlink:title=" ">
<path fill="none" stroke="#63b8ff" d="M385.09,-110.6C329.91,-99.58 249.08,-83.42 199.54,-73.53"/>
<polygon fill="#63b8ff" stroke="#63b8ff" points="200.54,-70.16 190.05,-71.63 199.17,-77.02 200.54,-70.16"/>
</a>
</g>
</g>
<!-- Node5 -->
<g id="Node000005" class="node">
<title>Node5</title>
<g id="a_Node000005"><a xlink:title=" ">
<polygon fill="#e0e0e0" stroke="#999999" points="290.75,-73 206.5,-73 206.5,-54.5 290.75,-54.5 290.75,-73"/>
<text text-anchor="middle" x="248.62" y="-59.5" font-family="Helvetica,sans-Serif" font-size="10.00">QFontDatabase</text>
</a>
</g>
</g>
<!-- Node1&#45;&gt;Node5 -->
<g id="edge4_Node000001_Node000005" class="edge">
<title>Node1&#45;&gt;Node5</title>
<g id="a_edge4_Node000001_Node000005"><a xlink:title=" ">
<path fill="none" stroke="#63b8ff" d="M397.18,-108.52C364.18,-98.8 320.66,-85.97 289.26,-76.72"/>
<polygon fill="#63b8ff" stroke="#63b8ff" points="290.32,-73.39 279.74,-73.92 288.34,-80.1 290.32,-73.39"/>
</a>
</g>
</g>
<!-- Node6 -->
<g id="Node000006" class="node">
<title>Node6</title>
<g id="a_Node000006"><a xlink:title=" ">
<polygon fill="#e0e0e0" stroke="#999999" points="386,-73 309.25,-73 309.25,-54.5 386,-54.5 386,-73"/>
<text text-anchor="middle" x="347.62" y="-59.5" font-family="Helvetica,sans-Serif" font-size="10.00">QMediaPlayer</text>
</a>
</g>
</g>
<!-- Node1&#45;&gt;Node6 -->
<g id="edge5_Node000001_Node000006" class="edge">
<title>Node1&#45;&gt;Node6</title>
<g id="a_edge5_Node000001_Node000006"><a xlink:title=" ">
<path fill="none" stroke="#63b8ff" d="M421.14,-108.52C406.2,-99.62 386.9,-88.13 371.82,-79.15"/>
<polygon fill="#63b8ff" stroke="#63b8ff" points="373.84,-76.29 363.46,-74.18 370.26,-82.3 373.84,-76.29"/>
</a>
</g>
</g>
<!-- Node7 -->
<g id="Node000007" class="node">
<title>Node7</title>
<g id="a_Node000007"><a xlink:title=" ">
<polygon fill="#e0e0e0" stroke="#999999" points="485.62,-73 403.62,-73 403.62,-54.5 485.62,-54.5 485.62,-73"/>
<text text-anchor="middle" x="444.62" y="-59.5" font-family="Helvetica,sans-Serif" font-size="10.00">QMediaPlaylist</text>
</a>
</g>
</g>
<!-- Node1&#45;&gt;Node7 -->
<g id="edge6_Node000001_Node000007" class="edge">
<title>Node1&#45;&gt;Node7</title>
<g id="a_edge6_Node000001_Node000007"><a xlink:title=" ">
<path fill="none" stroke="#63b8ff" d="M444.62,-108.52C444.62,-101.42 444.62,-92.67 444.62,-84.86"/>
<polygon fill="#63b8ff" stroke="#63b8ff" points="448.13,-84.92 444.63,-74.92 441.13,-84.92 448.13,-84.92"/>
</a>
</g>
</g>
<!-- Node8 -->
<g id="Node000008" class="node">
<title>Node8</title>
<g id="a_Node000008"><a xlink:title=" ">
<polygon fill="#e0e0e0" stroke="#999999" points="557.75,-73 503.5,-73 503.5,-54.5 557.75,-54.5 557.75,-73"/>
<text text-anchor="middle" x="530.62" y="-59.5" font-family="Helvetica,sans-Serif" font-size="10.00">QPainter</text>
</a>
</g>
</g>
<!-- Node1&#45;&gt;Node8 -->
<g id="edge7_Node000001_Node000008" class="edge">
<title>Node1&#45;&gt;Node8</title>
<g id="a_edge7_Node000001_Node000008"><a xlink:title=" ">
<path fill="none" stroke="#63b8ff" d="M465.44,-108.52C478.44,-99.8 495.15,-88.57 508.4,-79.67"/>
<polygon fill="#63b8ff" stroke="#63b8ff" points="510.13,-82.73 516.48,-74.25 506.23,-76.92 510.13,-82.73"/>
</a>
</g>
</g>
<!-- Node9 -->
<g id="Node000009" class="node">
<title>Node9</title>
<g id="a_Node000009"><a xlink:title=" ">
<polygon fill="#e0e0e0" stroke="#999999" points="679.88,-73 575.38,-73 575.38,-54.5 679.88,-54.5 679.88,-73"/>
<text text-anchor="middle" x="627.62" y="-59.5" font-family="Helvetica,sans-Serif" font-size="10.00">QPropertyAnimation</text>
</a>
</g>
</g>
<!-- Node1&#45;&gt;Node9 -->
<g id="edge8_Node000001_Node000009" class="edge">
<title>Node1&#45;&gt;Node9</title>
<g id="a_edge8_Node000001_Node000009"><a xlink:title=" ">
<path fill="none" stroke="#63b8ff" d="M488.92,-108.52C519.6,-98.84 560.01,-86.09 589.3,-76.85"/>
<polygon fill="#63b8ff" stroke="#63b8ff" points="590.01,-80.29 598.49,-73.94 587.9,-73.62 590.01,-80.29"/>
</a>
</g>
</g>
<!-- Node10 -->
<g id="Node000010" class="node">
<title>Node10</title>
<g id="a_Node000010"><a xlink:title=" ">
<polygon fill="#e0e0e0" stroke="#999999" points="799.75,-73 697.5,-73 697.5,-54.5 799.75,-54.5 799.75,-73"/>
<text text-anchor="middle" x="748.62" y="-59.5" font-family="Helvetica,sans-Serif" font-size="10.00">QRandomGenerator</text>
</a>
</g>
</g>
<!-- Node1&#45;&gt;Node10 -->
<g id="edge9_Node000001_Node000010" class="edge">
<title>Node1&#45;&gt;Node10</title>
<g id="a_edge9_Node000001_Node000010"><a xlink:title=" ">
<path fill="none" stroke="#63b8ff" d="M504.32,-111.16C558.73,-100.82 638.52,-85.67 691.95,-75.52"/>
<polygon fill="#63b8ff" stroke="#63b8ff" points="692.28,-79.02 701.45,-73.71 690.97,-72.14 692.28,-79.02"/>
</a>
</g>
</g>
<!-- Node11 -->
<g id="Node000011" class="node">
<title>Node11</title>
<g id="a_Node000011"><a xlink:title=" ">
<polygon fill="#e0e0e0" stroke="#999999" points="865.75,-73 817.5,-73 817.5,-54.5 865.75,-54.5 865.75,-73"/>
<text text-anchor="middle" x="841.62" y="-59.5" font-family="Helvetica,sans-Serif" font-size="10.00">QTimer</text>
</a>
</g>
</g>
<!-- Node1&#45;&gt;Node11 -->
<g id="edge10_Node000001_Node000011" class="edge">
<title>Node1&#45;&gt;Node11</title>
<g id="a_edge10_Node000001_Node000011"><a xlink:title=" ">
<path fill="none" stroke="#63b8ff" d="M504.22,-116.43C574.24,-108.84 694.12,-94.45 806.03,-73.31"/>
<polygon fill="#63b8ff" stroke="#63b8ff" points="806.53,-76.78 815.7,-71.46 805.22,-69.9 806.53,-76.78"/>
</a>
</g>
</g>
<!-- Node3 -->
<g id="Node000003" class="node">
<title>Node3</title>
<g id="a_Node000003"><a xlink:title=" ">
<polygon fill="#e0e0e0" stroke="#999999" points="79.75,-18.5 25.5,-18.5 25.5,0 79.75,0 79.75,-18.5"/>
<text text-anchor="middle" x="52.62" y="-5" font-family="Helvetica,sans-Serif" font-size="10.00">QWidget</text>
</a>
</g>
</g>
<!-- Node2&#45;&gt;Node3 -->
<g id="edge2_Node000002_Node000003" class="edge">
<title>Node2&#45;&gt;Node3</title>
<g id="a_edge2_Node000002_Node000003"><a xlink:title=" ">
<path fill="none" stroke="#63b8ff" d="M52.62,-54.08C52.62,-47.58 52.62,-38.42 52.62,-30.16"/>
<polygon fill="#63b8ff" stroke="#63b8ff" points="56.13,-30.27 52.63,-20.27 49.13,-30.27 56.13,-30.27"/>
</a>
</g>
</g>
</g>
</svg>
