<?xml version="1.0" encoding="UTF-8" standalone="no"?>
<!DOCTYPE svg PUBLIC "-//W3C//DTD SVG 1.1//EN"
 "http://www.w3.org/Graphics/SVG/1.1/DTD/svg11.dtd">
<!-- Generated by graphviz version 12.2.1 (0)
 -->
<!-- Title: src/util/wavelength_utilities.cpp Pages: 1 -->
<svg width="1188pt" height="266pt"
 viewBox="0.00 0.00 1187.50 265.50" xmlns="http://www.w3.org/2000/svg" xmlns:xlink="http://www.w3.org/1999/xlink">
<g id="graph0" class="graph" transform="scale(1 1) rotate(0) translate(4 261.5)">
<title>src/util/wavelength_utilities.cpp</title>
<!-- Node1 -->
<g id="Node000001" class="node">
<title>Node1</title>
<g id="a_Node000001"><a xlink:title=" ">
<polygon fill="#999999" stroke="#666666" points="368.62,-257.5 272.38,-257.5 272.38,-228.5 368.62,-228.5 368.62,-257.5"/>
<text text-anchor="start" x="280.38" y="-244" font-family="Helvetica,sans-Serif" font-size="10.00">src/util/wavelength</text>
<text text-anchor="middle" x="320.5" y="-233.5" font-family="Helvetica,sans-Serif" font-size="10.00">_utilities.cpp</text>
</a>
</g>
</g>
<!-- Node2 -->
<g id="Node000002" class="node">
<title>Node2</title>
<g id="a_Node000002"><a xlink:href="wavelength__utilities_8h.html" target="_top" xlink:title=" ">
<polygon fill="white" stroke="#666666" points="208.62,-192.5 100.38,-192.5 100.38,-174 208.62,-174 208.62,-192.5"/>
<text text-anchor="middle" x="154.5" y="-179" font-family="Helvetica,sans-Serif" font-size="10.00">wavelength_utilities.h</text>
</a>
</g>
</g>
<!-- Node1&#45;&gt;Node2 -->
<g id="edge1_Node000001_Node000002" class="edge">
<title>Node1&#45;&gt;Node2</title>
<g id="a_edge1_Node000001_Node000002"><a xlink:title=" ">
<path fill="none" stroke="#63b8ff" d="M280.32,-228.02C252.78,-218.44 216.58,-205.85 190.08,-196.63"/>
<polygon fill="#63b8ff" stroke="#63b8ff" points="191.4,-193.38 180.8,-193.4 189.1,-199.99 191.4,-193.38"/>
</a>
</g>
</g>
<!-- Node3 -->
<g id="Node000003" class="node">
<title>Node3</title>
<g id="a_Node000003"><a xlink:title=" ">
<polygon fill="#e0e0e0" stroke="#999999" points="276,-192.5 227,-192.5 227,-174 276,-174 276,-192.5"/>
<text text-anchor="middle" x="251.5" y="-179" font-family="Helvetica,sans-Serif" font-size="10.00">QString</text>
</a>
</g>
</g>
<!-- Node1&#45;&gt;Node3 -->
<g id="edge2_Node000001_Node000003" class="edge">
<title>Node1&#45;&gt;Node3</title>
<g id="a_edge2_Node000001_Node000003"><a xlink:title=" ">
<path fill="none" stroke="#63b8ff" d="M303.8,-228.02C293.78,-219.64 281.01,-208.95 270.59,-200.23"/>
<polygon fill="#63b8ff" stroke="#63b8ff" points="272.91,-197.61 263,-193.87 268.42,-202.98 272.91,-197.61"/>
</a>
</g>
</g>
<!-- Node4 -->
<g id="Node000004" class="node">
<title>Node4</title>
<g id="a_Node000004"><a xlink:title=" ">
<polygon fill="#e0e0e0" stroke="#999999" points="346.5,-192.5 294.5,-192.5 294.5,-174 346.5,-174 346.5,-192.5"/>
<text text-anchor="middle" x="320.5" y="-179" font-family="Helvetica,sans-Serif" font-size="10.00">QDebug</text>
</a>
</g>
</g>
<!-- Node1&#45;&gt;Node4 -->
<g id="edge3_Node000001_Node000004" class="edge">
<title>Node1&#45;&gt;Node4</title>
<g id="a_edge3_Node000001_Node000004"><a xlink:title=" ">
<path fill="none" stroke="#63b8ff" d="M320.5,-228.02C320.5,-220.92 320.5,-212.17 320.5,-204.36"/>
<polygon fill="#63b8ff" stroke="#63b8ff" points="324,-204.42 320.5,-194.42 317,-204.42 324,-204.42"/>
</a>
</g>
</g>
<!-- Node5 -->
<g id="Node000005" class="node">
<title>Node5</title>
<g id="a_Node000005"><a xlink:title=" ">
<polygon fill="#e0e0e0" stroke="#999999" points="410.88,-192.5 364.12,-192.5 364.12,-174 410.88,-174 410.88,-192.5"/>
<text text-anchor="middle" x="387.5" y="-179" font-family="Helvetica,sans-Serif" font-size="10.00">QLabel</text>
</a>
</g>
</g>
<!-- Node1&#45;&gt;Node5 -->
<g id="edge4_Node000001_Node000005" class="edge">
<title>Node1&#45;&gt;Node5</title>
<g id="a_edge4_Node000001_Node000005"><a xlink:title=" ">
<path fill="none" stroke="#63b8ff" d="M336.72,-228.02C346.44,-219.64 358.85,-208.95 368.96,-200.23"/>
<polygon fill="#63b8ff" stroke="#63b8ff" points="371.02,-203.07 376.31,-193.89 366.45,-197.77 371.02,-203.07"/>
</a>
</g>
</g>
<!-- Node6 -->
<g id="Node000006" class="node">
<title>Node6</title>
<g id="a_Node000006"><a xlink:href="blob__animation_8h.html" target="_top" xlink:title=" ">
<polygon fill="white" stroke="#666666" points="570.12,-192.5 428.88,-192.5 428.88,-174 570.12,-174 570.12,-192.5"/>
<text text-anchor="middle" x="499.5" y="-179" font-family="Helvetica,sans-Serif" font-size="10.00">../blob/core/blob_animation.h</text>
</a>
</g>
</g>
<!-- Node1&#45;&gt;Node6 -->
<g id="edge5_Node000001_Node000006" class="edge">
<title>Node1&#45;&gt;Node6</title>
<g id="a_edge5_Node000001_Node000006"><a xlink:title=" ">
<path fill="none" stroke="#63b8ff" d="M363.83,-228.02C393.7,-218.38 433.02,-205.7 461.63,-196.47"/>
<polygon fill="#63b8ff" stroke="#63b8ff" points="462.53,-199.85 470.97,-193.45 460.38,-193.19 462.53,-199.85"/>
</a>
</g>
</g>
<!-- Node7 -->
<g id="Node000007" class="node">
<title>Node7</title>
<g id="a_Node000007"><a xlink:title=" ">
<polygon fill="#e0e0e0" stroke="#999999" points="85,-132.75 0,-132.75 0,-114.25 85,-114.25 85,-132.75"/>
<text text-anchor="middle" x="42.5" y="-119.25" font-family="Helvetica,sans-Serif" font-size="10.00">QOpenGLBuffer</text>
</a>
</g>
</g>
<!-- Node6&#45;&gt;Node7 -->
<g id="edge6_Node000006_Node000007" class="edge">
<title>Node6&#45;&gt;Node7</title>
<g id="a_edge6_Node000006_Node000007"><a xlink:title=" ">
<path fill="none" stroke="#63b8ff" d="M428.39,-174.75C316.59,-162.92 110.65,-140.96 94.5,-138 91.12,-137.38 87.64,-136.66 84.16,-135.88"/>
<polygon fill="#63b8ff" stroke="#63b8ff" points="85.14,-132.52 74.6,-133.59 83.51,-139.33 85.14,-132.52"/>
</a>
</g>
</g>
<!-- Node8 -->
<g id="Node000008" class="node">
<title>Node8</title>
<g id="a_Node000008"><a xlink:title=" ">
<polygon fill="#e0e0e0" stroke="#999999" points="205.62,-132.75 103.38,-132.75 103.38,-114.25 205.62,-114.25 205.62,-132.75"/>
<text text-anchor="middle" x="154.5" y="-119.25" font-family="Helvetica,sans-Serif" font-size="10.00">QOpenGLFunctions</text>
</a>
</g>
</g>
<!-- Node6&#45;&gt;Node8 -->
<g id="edge7_Node000006_Node000008" class="edge">
<title>Node6&#45;&gt;Node8</title>
<g id="a_edge7_Node000006_Node000008"><a xlink:title=" ">
<path fill="none" stroke="#63b8ff" d="M435.05,-173.51C377.15,-165.35 289.89,-152.32 214.5,-138 210.66,-137.27 206.69,-136.47 202.71,-135.64"/>
<polygon fill="#63b8ff" stroke="#63b8ff" points="203.54,-132.24 193.03,-133.56 202.07,-139.09 203.54,-132.24"/>
</a>
</g>
</g>
<!-- Node9 -->
<g id="Node000009" class="node">
<title>Node9</title>
<g id="a_Node000009"><a xlink:title=" ">
<polygon fill="#e0e0e0" stroke="#999999" points="363,-132.75 224,-132.75 224,-114.25 363,-114.25 363,-132.75"/>
<text text-anchor="middle" x="293.5" y="-119.25" font-family="Helvetica,sans-Serif" font-size="10.00">QOpenGLVertexArrayObject</text>
</a>
</g>
</g>
<!-- Node6&#45;&gt;Node9 -->
<g id="edge8_Node000006_Node000009" class="edge">
<title>Node6&#45;&gt;Node9</title>
<g id="a_edge8_Node000006_Node000009"><a xlink:title=" ">
<path fill="none" stroke="#63b8ff" d="M468.66,-173.6C433.24,-163.67 374.93,-147.33 335.41,-136.25"/>
<polygon fill="#63b8ff" stroke="#63b8ff" points="336.58,-132.94 326.01,-133.61 334.69,-139.68 336.58,-132.94"/>
</a>
</g>
</g>
<!-- Node10 -->
<g id="Node000010" class="node">
<title>Node10</title>
<g id="a_Node000010"><a xlink:title=" ">
<polygon fill="#e0e0e0" stroke="#999999" points="471.62,-132.75 381.38,-132.75 381.38,-114.25 471.62,-114.25 471.62,-132.75"/>
<text text-anchor="middle" x="426.5" y="-119.25" font-family="Helvetica,sans-Serif" font-size="10.00">QOpenGLWidget</text>
</a>
</g>
</g>
<!-- Node6&#45;&gt;Node10 -->
<g id="edge9_Node000006_Node000010" class="edge">
<title>Node6&#45;&gt;Node10</title>
<g id="a_edge9_Node000006_Node000010"><a xlink:title=" ">
<path fill="none" stroke="#63b8ff" d="M488.73,-173.73C477.51,-164.86 459.71,-150.77 446.01,-139.93"/>
<polygon fill="#63b8ff" stroke="#63b8ff" points="448.52,-137.45 438.5,-134 444.17,-142.94 448.52,-137.45"/>
</a>
</g>
</g>
<!-- Node11 -->
<g id="Node000011" class="node">
<title>Node11</title>
<g id="a_Node000011"><a xlink:href="blob__config_8h.html" target="_top" xlink:title=" ">
<polygon fill="white" stroke="#666666" points="388.88,-73 306.12,-73 306.12,-54.5 388.88,-54.5 388.88,-73"/>
<text text-anchor="middle" x="347.5" y="-59.5" font-family="Helvetica,sans-Serif" font-size="10.00">../blob_config.h</text>
</a>
</g>
</g>
<!-- Node6&#45;&gt;Node11 -->
<g id="edge10_Node000006_Node000011" class="edge">
<title>Node6&#45;&gt;Node11</title>
<g id="a_edge10_Node000006_Node000011"><a xlink:title=" ">
<path fill="none" stroke="#63b8ff" d="M499.76,-173.79C499.76,-158.75 497.55,-127.24 480.5,-109 468.89,-96.58 430.34,-84.54 397.72,-76.16"/>
<polygon fill="#63b8ff" stroke="#63b8ff" points="398.94,-72.86 388.39,-73.83 397.25,-79.65 398.94,-72.86"/>
</a>
</g>
</g>
<!-- Node13 -->
<g id="Node000013" class="node">
<title>Node13</title>
<g id="a_Node000013"><a xlink:href="blob__physics_8h.html" target="_top" xlink:title=" ">
<polygon fill="white" stroke="#666666" points="840.25,-132.75 714.75,-132.75 714.75,-114.25 840.25,-114.25 840.25,-132.75"/>
<text text-anchor="middle" x="777.5" y="-119.25" font-family="Helvetica,sans-Serif" font-size="10.00">../physics/blob_physics.h</text>
</a>
</g>
</g>
<!-- Node6&#45;&gt;Node13 -->
<g id="edge12_Node000006_Node000013" class="edge">
<title>Node6&#45;&gt;Node13</title>
<g id="a_edge12_Node000006_Node000013"><a xlink:title=" ">
<path fill="none" stroke="#63b8ff" d="M541.42,-173.54C590.32,-163.38 671.22,-146.58 724.45,-135.52"/>
<polygon fill="#63b8ff" stroke="#63b8ff" points="725.13,-138.95 734.21,-133.49 723.71,-132.1 725.13,-138.95"/>
</a>
</g>
</g>
<!-- Node17 -->
<g id="Node000017" class="node">
<title>Node17</title>
<g id="a_Node000017"><a xlink:href="blob__renderer_8h.html" target="_top" xlink:title=" ">
<polygon fill="white" stroke="#666666" points="661.75,-132.75 527.25,-132.75 527.25,-114.25 661.75,-114.25 661.75,-132.75"/>
<text text-anchor="middle" x="594.5" y="-119.25" font-family="Helvetica,sans-Serif" font-size="10.00">../rendering/blob_renderer.h</text>
</a>
</g>
</g>
<!-- Node6&#45;&gt;Node17 -->
<g id="edge16_Node000006_Node000017" class="edge">
<title>Node6&#45;&gt;Node17</title>
<g id="a_edge16_Node000006_Node000017"><a xlink:title=" ">
<path fill="none" stroke="#63b8ff" d="M513.52,-173.73C528.45,-164.65 552.35,-150.12 570.33,-139.19"/>
<polygon fill="#63b8ff" stroke="#63b8ff" points="572.09,-142.22 578.82,-134.03 568.46,-136.24 572.09,-142.22"/>
</a>
</g>
</g>
<!-- Node22 -->
<g id="Node000022" class="node">
<title>Node22</title>
<g id="a_Node000022"><a xlink:href="blob__event__handler_8h.html" target="_top" xlink:title=" ">
<polygon fill="white" stroke="#666666" points="1135.25,-138 1027.75,-138 1027.75,-109 1135.25,-109 1135.25,-138"/>
<text text-anchor="start" x="1035.75" y="-124.5" font-family="Helvetica,sans-Serif" font-size="10.00">dynamics/blob_event</text>
<text text-anchor="middle" x="1081.5" y="-114" font-family="Helvetica,sans-Serif" font-size="10.00">_handler.h</text>
</a>
</g>
</g>
<!-- Node6&#45;&gt;Node22 -->
<g id="edge22_Node000006_Node000022" class="edge">
<title>Node6&#45;&gt;Node22</title>
<g id="a_edge22_Node000006_Node000022"><a xlink:title=" ">
<path fill="none" stroke="#63b8ff" d="M570.28,-178.33C668.99,-172.35 853.42,-159.35 1009.5,-138 1011.67,-137.7 1013.88,-137.38 1016.11,-137.05"/>
<polygon fill="#63b8ff" stroke="#63b8ff" points="1016.53,-140.53 1025.85,-135.49 1015.42,-133.61 1016.53,-140.53"/>
</a>
</g>
</g>
<!-- Node26 -->
<g id="Node000026" class="node">
<title>Node26</title>
<g id="a_Node000026"><a xlink:href="blob__transition__manager_8h.html" target="_top" xlink:title=" ">
<polygon fill="white" stroke="#666666" points="1000.5,-138 876.5,-138 876.5,-109 1000.5,-109 1000.5,-138"/>
<text text-anchor="start" x="884.5" y="-124.5" font-family="Helvetica,sans-Serif" font-size="10.00">dynamics/blob_transition</text>
<text text-anchor="middle" x="938.5" y="-114" font-family="Helvetica,sans-Serif" font-size="10.00">_manager.h</text>
</a>
</g>
</g>
<!-- Node6&#45;&gt;Node26 -->
<g id="edge26_Node000006_Node000026" class="edge">
<title>Node6&#45;&gt;Node26</title>
<g id="a_edge26_Node000006_Node000026"><a xlink:title=" ">
<path fill="none" stroke="#63b8ff" d="M570.62,-173.78C641.39,-165.23 753.04,-151.41 849.5,-138 854.65,-137.28 859.96,-136.53 865.3,-135.75"/>
<polygon fill="#63b8ff" stroke="#63b8ff" points="865.4,-139.27 874.79,-134.36 864.39,-132.35 865.4,-139.27"/>
</a>
</g>
</g>
<!-- Node12 -->
<g id="Node000012" class="node">
<title>Node12</title>
<g id="a_Node000012"><a xlink:title=" ">
<polygon fill="#e0e0e0" stroke="#999999" points="370.88,-18.5 324.12,-18.5 324.12,0 370.88,0 370.88,-18.5"/>
<text text-anchor="middle" x="347.5" y="-5" font-family="Helvetica,sans-Serif" font-size="10.00">QColor</text>
</a>
</g>
</g>
<!-- Node11&#45;&gt;Node12 -->
<g id="edge11_Node000011_Node000012" class="edge">
<title>Node11&#45;&gt;Node12</title>
<g id="a_edge11_Node000011_Node000012"><a xlink:title=" ">
<path fill="none" stroke="#63b8ff" d="M347.5,-54.08C347.5,-47.58 347.5,-38.42 347.5,-30.16"/>
<polygon fill="#63b8ff" stroke="#63b8ff" points="351,-30.27 347.5,-20.27 344,-30.27 351,-30.27"/>
</a>
</g>
</g>
<!-- Node14 -->
<g id="Node000014" class="node">
<title>Node14</title>
<g id="a_Node000014"><a xlink:title=" ">
<polygon fill="#e0e0e0" stroke="#999999" points="793,-73 720,-73 720,-54.5 793,-54.5 793,-73"/>
<text text-anchor="middle" x="756.5" y="-59.5" font-family="Helvetica,sans-Serif" font-size="10.00">QThreadPool</text>
</a>
</g>
</g>
<!-- Node13&#45;&gt;Node14 -->
<g id="edge13_Node000013_Node000014" class="edge">
<title>Node13&#45;&gt;Node14</title>
<g id="a_edge13_Node000013_Node000014"><a xlink:title=" ">
<path fill="none" stroke="#63b8ff" d="M774.4,-113.98C771.55,-106.13 767.21,-94.2 763.52,-84.05"/>
<polygon fill="#63b8ff" stroke="#63b8ff" points="766.84,-82.93 760.13,-74.73 760.26,-85.32 766.84,-82.93"/>
</a>
</g>
</g>
<!-- Node15 -->
<g id="Node000015" class="node">
<title>Node15</title>
<g id="a_Node000015"><a xlink:title=" ">
<polygon fill="#e0e0e0" stroke="#999999" points="913.5,-73 849.5,-73 849.5,-54.5 913.5,-54.5 913.5,-73"/>
<text text-anchor="middle" x="881.5" y="-59.5" font-family="Helvetica,sans-Serif" font-size="10.00">QVector2D</text>
</a>
</g>
</g>
<!-- Node13&#45;&gt;Node15 -->
<g id="edge14_Node000013_Node000015" class="edge">
<title>Node13&#45;&gt;Node15</title>
<g id="a_edge14_Node000013_Node000015"><a xlink:title=" ">
<path fill="none" stroke="#63b8ff" d="M792.85,-113.98C809.42,-104.78 836.09,-89.96 855.86,-78.99"/>
<polygon fill="#63b8ff" stroke="#63b8ff" points="857.38,-82.14 864.43,-74.23 853.99,-76.03 857.38,-82.14"/>
</a>
</g>
</g>
<!-- Node16 -->
<g id="Node000016" class="node">
<title>Node16</title>
<g id="a_Node000016"><a xlink:title=" ">
<polygon fill="#e0e0e0" stroke="#999999" points="666.62,-18.5 624.38,-18.5 624.38,0 666.62,0 666.62,-18.5"/>
<text text-anchor="middle" x="645.5" y="-5" font-family="Helvetica,sans-Serif" font-size="10.00">vector</text>
</a>
</g>
</g>
<!-- Node13&#45;&gt;Node16 -->
<g id="edge15_Node000013_Node000016" class="edge">
<title>Node13&#45;&gt;Node16</title>
<g id="a_edge15_Node000013_Node000016"><a xlink:title=" ">
<path fill="none" stroke="#63b8ff" d="M785.64,-113.77C797.44,-100.01 816.47,-72.95 802.5,-54.5 787.53,-34.73 719.57,-21.3 678.13,-14.79"/>
<polygon fill="#63b8ff" stroke="#63b8ff" points="678.86,-11.36 668.45,-13.33 677.82,-18.28 678.86,-11.36"/>
</a>
</g>
</g>
<!-- Node17&#45;&gt;Node11 -->
<g id="edge21_Node000017_Node000011" class="edge">
<title>Node17&#45;&gt;Node11</title>
<g id="a_edge21_Node000017_Node000011"><a xlink:title=" ">
<path fill="none" stroke="#63b8ff" d="M557.25,-113.79C514.18,-103.72 443.13,-87.11 395.83,-76.05"/>
<polygon fill="#63b8ff" stroke="#63b8ff" points="396.65,-72.65 386.12,-73.78 395.06,-79.46 396.65,-72.65"/>
</a>
</g>
</g>
<!-- Node18 -->
<g id="Node000018" class="node">
<title>Node18</title>
<g id="a_Node000018"><a xlink:title=" ">
<polygon fill="#e0e0e0" stroke="#999999" points="626.75,-73 552.25,-73 552.25,-54.5 626.75,-54.5 626.75,-73"/>
<text text-anchor="middle" x="589.5" y="-59.5" font-family="Helvetica,sans-Serif" font-size="10.00">QPainterPath</text>
</a>
</g>
</g>
<!-- Node17&#45;&gt;Node18 -->
<g id="edge17_Node000017_Node000018" class="edge">
<title>Node17&#45;&gt;Node18</title>
<g id="a_edge17_Node000017_Node000018"><a xlink:title=" ">
<path fill="none" stroke="#63b8ff" d="M593.76,-113.98C593.1,-106.3 592.09,-94.72 591.23,-84.72"/>
<polygon fill="#63b8ff" stroke="#63b8ff" points="594.72,-84.47 590.37,-74.81 587.75,-85.08 594.72,-84.47"/>
</a>
</g>
</g>
<!-- Node19 -->
<g id="Node000019" class="node">
<title>Node19</title>
<g id="a_Node000019"><a xlink:title=" ">
<polygon fill="#e0e0e0" stroke="#999999" points="701.75,-73 645.25,-73 645.25,-54.5 701.75,-54.5 701.75,-73"/>
<text text-anchor="middle" x="673.5" y="-59.5" font-family="Helvetica,sans-Serif" font-size="10.00">QPixmap</text>
</a>
</g>
</g>
<!-- Node17&#45;&gt;Node19 -->
<g id="edge18_Node000017_Node000019" class="edge">
<title>Node17&#45;&gt;Node19</title>
<g id="a_edge18_Node000017_Node000019"><a xlink:title=" ">
<path fill="none" stroke="#63b8ff" d="M606.16,-113.98C618.34,-105.07 637.71,-90.91 652.56,-80.06"/>
<polygon fill="#63b8ff" stroke="#63b8ff" points="654.31,-83.12 660.31,-74.39 650.18,-77.46 654.31,-83.12"/>
</a>
</g>
</g>
<!-- Node20 -->
<g id="Node000020" class="node">
<title>Node20</title>
<g id="a_Node000020"><a xlink:href="path__markers__manager_8h.html" target="_top" xlink:title=" ">
<polygon fill="#fff0f0" stroke="red" points="534,-73 407,-73 407,-54.5 534,-54.5 534,-73"/>
<text text-anchor="middle" x="470.5" y="-59.5" font-family="Helvetica,sans-Serif" font-size="10.00">path_markers_manager.h</text>
</a>
</g>
</g>
<!-- Node17&#45;&gt;Node20 -->
<g id="edge19_Node000017_Node000020" class="edge">
<title>Node17&#45;&gt;Node20</title>
<g id="a_edge19_Node000017_Node000020"><a xlink:title=" ">
<path fill="none" stroke="#63b8ff" d="M575.94,-113.85C555.66,-104.41 522.94,-89.17 499.32,-78.17"/>
<polygon fill="#63b8ff" stroke="#63b8ff" points="501.11,-75.14 490.56,-74.09 498.15,-81.49 501.11,-75.14"/>
</a>
</g>
</g>
<!-- Node20&#45;&gt;Node16 -->
<g id="edge20_Node000020_Node000016" class="edge">
<title>Node20&#45;&gt;Node16</title>
<g id="a_edge20_Node000020_Node000016"><a xlink:title=" ">
<path fill="none" stroke="#63b8ff" d="M499.4,-54.08C530.75,-44.68 580.67,-29.7 613.27,-19.92"/>
<polygon fill="#63b8ff" stroke="#63b8ff" points="613.99,-23.36 622.57,-17.13 611.98,-16.65 613.99,-23.36"/>
</a>
</g>
</g>
<!-- Node23 -->
<g id="Node000023" class="node">
<title>Node23</title>
<g id="a_Node000023"><a xlink:title=" ">
<polygon fill="#e0e0e0" stroke="#999999" points="1043.5,-73 991.5,-73 991.5,-54.5 1043.5,-54.5 1043.5,-73"/>
<text text-anchor="middle" x="1017.5" y="-59.5" font-family="Helvetica,sans-Serif" font-size="10.00">QObject</text>
</a>
</g>
</g>
<!-- Node22&#45;&gt;Node23 -->
<g id="edge23_Node000022_Node000023" class="edge">
<title>Node22&#45;&gt;Node23</title>
<g id="a_edge23_Node000022_Node000023"><a xlink:title=" ">
<path fill="none" stroke="#63b8ff" d="M1066.01,-108.52C1056.81,-100.22 1045.11,-89.67 1035.51,-81"/>
<polygon fill="#63b8ff" stroke="#63b8ff" points="1037.98,-78.52 1028.21,-74.42 1033.29,-83.72 1037.98,-78.52"/>
</a>
</g>
</g>
<!-- Node24 -->
<g id="Node000024" class="node">
<title>Node24</title>
<g id="a_Node000024"><a xlink:title=" ">
<polygon fill="#e0e0e0" stroke="#999999" points="1179.5,-73 1127.5,-73 1127.5,-54.5 1179.5,-54.5 1179.5,-73"/>
<text text-anchor="middle" x="1153.5" y="-59.5" font-family="Helvetica,sans-Serif" font-size="10.00">QPointF</text>
</a>
</g>
</g>
<!-- Node22&#45;&gt;Node24 -->
<g id="edge24_Node000022_Node000024" class="edge">
<title>Node22&#45;&gt;Node24</title>
<g id="a_edge24_Node000022_Node000024"><a xlink:title=" ">
<path fill="none" stroke="#63b8ff" d="M1098.93,-108.52C1109.49,-100.05 1122.98,-89.23 1133.91,-80.47"/>
<polygon fill="#63b8ff" stroke="#63b8ff" points="1135.92,-83.34 1141.53,-74.35 1131.54,-77.88 1135.92,-83.34"/>
</a>
</g>
</g>
<!-- Node25 -->
<g id="Node000025" class="node">
<title>Node25</title>
<g id="a_Node000025"><a xlink:title=" ">
<polygon fill="#e0e0e0" stroke="#999999" points="1109.62,-73 1061.38,-73 1061.38,-54.5 1109.62,-54.5 1109.62,-73"/>
<text text-anchor="middle" x="1085.5" y="-59.5" font-family="Helvetica,sans-Serif" font-size="10.00">QTimer</text>
</a>
</g>
</g>
<!-- Node22&#45;&gt;Node25 -->
<g id="edge25_Node000022_Node000025" class="edge">
<title>Node22&#45;&gt;Node25</title>
<g id="a_edge25_Node000022_Node000025"><a xlink:title=" ">
<path fill="none" stroke="#63b8ff" d="M1082.47,-108.52C1082.96,-101.42 1083.57,-92.67 1084.11,-84.86"/>
<polygon fill="#63b8ff" stroke="#63b8ff" points="1087.6,-85.13 1084.8,-74.91 1080.61,-84.65 1087.6,-85.13"/>
</a>
</g>
</g>
<!-- Node26&#45;&gt;Node15 -->
<g id="edge29_Node000026_Node000015" class="edge">
<title>Node26&#45;&gt;Node15</title>
<g id="a_edge29_Node000026_Node000015"><a xlink:title=" ">
<path fill="none" stroke="#63b8ff" d="M924.7,-108.52C916.68,-100.39 906.52,-90.1 898.07,-81.54"/>
<polygon fill="#63b8ff" stroke="#63b8ff" points="900.62,-79.14 891.1,-74.48 895.64,-84.06 900.62,-79.14"/>
</a>
</g>
</g>
<!-- Node26&#45;&gt;Node23 -->
<g id="edge28_Node000026_Node000023" class="edge">
<title>Node26&#45;&gt;Node23</title>
<g id="a_edge28_Node000026_Node000023"><a xlink:title=" ">
<path fill="none" stroke="#63b8ff" d="M957.62,-108.52C969.44,-99.88 984.61,-88.79 996.73,-79.94"/>
<polygon fill="#63b8ff" stroke="#63b8ff" points="998.43,-83.02 1004.44,-74.3 994.3,-77.37 998.43,-83.02"/>
</a>
</g>
</g>
<!-- Node27 -->
<g id="Node000027" class="node">
<title>Node27</title>
<g id="a_Node000027"><a xlink:title=" ">
<polygon fill="#e0e0e0" stroke="#999999" points="973.62,-73 931.38,-73 931.38,-54.5 973.62,-54.5 973.62,-73"/>
<text text-anchor="middle" x="952.5" y="-59.5" font-family="Helvetica,sans-Serif" font-size="10.00">deque</text>
</a>
</g>
</g>
<!-- Node26&#45;&gt;Node27 -->
<g id="edge27_Node000026_Node000027" class="edge">
<title>Node26&#45;&gt;Node27</title>
<g id="a_edge27_Node000026_Node000027"><a xlink:title=" ">
<path fill="none" stroke="#63b8ff" d="M941.89,-108.52C943.63,-101.33 945.78,-92.46 947.69,-84.58"/>
<polygon fill="#63b8ff" stroke="#63b8ff" points="951.09,-85.42 950.05,-74.87 944.29,-83.77 951.09,-85.42"/>
</a>
</g>
</g>
</g>
</svg>
