<?xml version="1.0" encoding="UTF-8" standalone="no"?>
<!DOCTYPE svg PUBLIC "-//W3C//DTD SVG 1.1//EN"
 "http://www.w3.org/Graphics/SVG/1.1/DTD/svg11.dtd">
<!-- Generated by graphviz version 12.2.1 (0)
 -->
<!-- Title: src/storage/wavelength_registry.cpp Pages: 1 -->
<svg width="201pt" height="146pt"
 viewBox="0.00 0.00 201.12 146.00" xmlns="http://www.w3.org/2000/svg" xmlns:xlink="http://www.w3.org/1999/xlink">

<svg id="main" version="1.1" xmlns="http://www.w3.org/2000/svg" xmlns:xlink="http://www.w3.org/1999/xlink" xml:space="preserve">

<style type="text/css"><![CDATA[
.node, .edge {opacity: 0.7;}
.node.selected, .edge.selected {opacity: 1;}
.edge:hover path { stroke: red; }
.edge:hover polygon { stroke: red; fill: red; }
]]></style>
<script type="application/ecmascript" xlink:href="svg.min.js"/>
<svg id="graph" class="graph">
<g id="graph0" class="graph" transform="scale(1 1) rotate(0) translate(4 142)">
<title>src/storage/wavelength_registry.cpp</title>
<!-- Node1 -->
<g id="Node000001" class="node">
<title>Node1</title>
<g id="a_Node000001"><a xlink:title=" ">
<polygon fill="#999999" stroke="#666666" points="175,-138 59.25,-138 59.25,-109 175,-109 175,-138"/>
<text text-anchor="start" x="67.25" y="-124.5" font-family="Helvetica,sans-Serif" font-size="10.00">src/storage/wavelength</text>
<text text-anchor="middle" x="117.12" y="-114" font-family="Helvetica,sans-Serif" font-size="10.00">_registry.cpp</text>
</a>
</g>
</g>
<!-- Node2 -->
<g id="Node000002" class="node">
<title>Node2</title>
<g id="a_Node000002"><a xlink:href="wavelength__registry_8h.html" target="_top" xlink:title=" ">
<polygon fill="white" stroke="#666666" points="123,-73 13.25,-73 13.25,-54.5 123,-54.5 123,-73"/>
<text text-anchor="middle" x="68.12" y="-59.5" font-family="Helvetica,sans-Serif" font-size="10.00">wavelength_registry.h</text>
</a>
</g>
</g>
<!-- Node1&#45;&gt;Node2 -->
<g id="edge1_Node000001_Node000002" class="edge">
<title>Node1&#45;&gt;Node2</title>
<g id="a_edge1_Node000001_Node000002"><a xlink:title=" ">
<path fill="none" stroke="#63b8ff" d="M105.26,-108.52C98.51,-100.57 90,-90.53 82.83,-82.08"/>
<polygon fill="#63b8ff" stroke="#63b8ff" points="85.59,-79.92 76.45,-74.56 80.25,-84.45 85.59,-79.92"/>
</a>
</g>
</g>
<!-- Node5 -->
<g id="Node000005" class="node">
<title>Node5</title>
<g id="a_Node000005"><a xlink:title=" ">
<polygon fill="#e0e0e0" stroke="#999999" points="193.12,-73 141.12,-73 141.12,-54.5 193.12,-54.5 193.12,-73"/>
<text text-anchor="middle" x="167.12" y="-59.5" font-family="Helvetica,sans-Serif" font-size="10.00">QDebug</text>
</a>
</g>
</g>
<!-- Node1&#45;&gt;Node5 -->
<g id="edge4_Node000001_Node000005" class="edge">
<title>Node1&#45;&gt;Node5</title>
<g id="a_edge4_Node000001_Node000005"><a xlink:title=" ">
<path fill="none" stroke="#63b8ff" d="M129.23,-108.52C136.12,-100.57 144.8,-90.53 152.12,-82.08"/>
<polygon fill="#63b8ff" stroke="#63b8ff" points="154.74,-84.4 158.64,-74.55 149.45,-79.82 154.74,-84.4"/>
</a>
</g>
</g>
<!-- Node3 -->
<g id="Node000003" class="node">
<title>Node3</title>
<g id="a_Node000003"><a xlink:title=" ">
<polygon fill="#e0e0e0" stroke="#999999" points="54.25,-18.5 0,-18.5 0,0 54.25,0 54.25,-18.5"/>
<text text-anchor="middle" x="27.12" y="-5" font-family="Helvetica,sans-Serif" font-size="10.00">QPointer</text>
</a>
</g>
</g>
<!-- Node2&#45;&gt;Node3 -->
<g id="edge2_Node000002_Node000003" class="edge">
<title>Node2&#45;&gt;Node3</title>
<g id="a_edge2_Node000002_Node000003"><a xlink:title=" ">
<path fill="none" stroke="#63b8ff" d="M61.35,-54.08C55.74,-46.89 47.59,-36.45 40.65,-27.57"/>
<polygon fill="#63b8ff" stroke="#63b8ff" points="43.61,-25.68 34.7,-19.95 38.1,-29.99 43.61,-25.68"/>
</a>
</g>
</g>
<!-- Node4 -->
<g id="Node000004" class="node">
<title>Node4</title>
<g id="a_Node000004"><a xlink:title=" ">
<polygon fill="#e0e0e0" stroke="#999999" points="145.62,-18.5 72.62,-18.5 72.62,0 145.62,0 145.62,-18.5"/>
<text text-anchor="middle" x="109.12" y="-5" font-family="Helvetica,sans-Serif" font-size="10.00">QWebSocket</text>
</a>
</g>
</g>
<!-- Node2&#45;&gt;Node4 -->
<g id="edge3_Node000002_Node000004" class="edge">
<title>Node2&#45;&gt;Node4</title>
<g id="a_edge3_Node000002_Node000004"><a xlink:title=" ">
<path fill="none" stroke="#63b8ff" d="M74.9,-54.08C80.51,-46.89 88.66,-36.45 95.6,-27.57"/>
<polygon fill="#63b8ff" stroke="#63b8ff" points="98.15,-29.99 101.55,-19.95 92.64,-25.68 98.15,-29.99"/>
</a>
</g>
</g>
</g>
</svg>
</svg>

<style type='text/css'>
<![CDATA[
[data-mouse-over-selected='false'] { opacity: 0.7; }
[data-mouse-over-selected='true']  { opacity: 1.0; }
]]>
</style>
<script type="application/ecmascript"><![CDATA[
document.addEventListener('DOMContentLoaded', (event) => {
  highlightEdges();
  highlightAdjacentNodes();
});
]]></script>
</svg>
