<?xml version="1.0" encoding="UTF-8" standalone="no"?>
<!DOCTYPE svg PUBLIC "-//W3C//DTD SVG 1.1//EN"
 "http://www.w3.org/Graphics/SVG/1.1/DTD/svg11.dtd">
<!-- Generated by graphviz version 12.2.1 (0)
 -->
<!-- Title: src/services/wavelength_state_manager.cpp Pages: 1 -->
<svg width="331pt" height="157pt"
 viewBox="0.00 0.00 330.50 156.50" xmlns="http://www.w3.org/2000/svg" xmlns:xlink="http://www.w3.org/1999/xlink">

<svg id="main" version="1.1" xmlns="http://www.w3.org/2000/svg" xmlns:xlink="http://www.w3.org/1999/xlink" xml:space="preserve">

<style type="text/css"><![CDATA[
.node, .edge {opacity: 0.7;}
.node.selected, .edge.selected {opacity: 1;}
.edge:hover path { stroke: red; }
.edge:hover polygon { stroke: red; fill: red; }
]]></style>
<script type="application/ecmascript" xlink:href="svg.min.js"/>
<svg id="graph" class="graph">
<g id="graph0" class="graph" transform="scale(1 1) rotate(0) translate(4 152.5)">
<title>src/services/wavelength_state_manager.cpp</title>
<!-- Node1 -->
<g id="Node000001" class="node">
<title>Node1</title>
<g id="a_Node000001"><a xlink:title=" ">
<polygon fill="#999999" stroke="#666666" points="210.5,-148.5 89.5,-148.5 89.5,-119.5 210.5,-119.5 210.5,-148.5"/>
<text text-anchor="start" x="97.5" y="-135" font-family="Helvetica,sans-Serif" font-size="10.00">src/services/wavelength</text>
<text text-anchor="middle" x="150" y="-124.5" font-family="Helvetica,sans-Serif" font-size="10.00">_state_manager.cpp</text>
</a>
</g>
</g>
<!-- Node2 -->
<g id="Node000002" class="node">
<title>Node2</title>
<g id="a_Node000002"><a xlink:href="wavelength__state__manager_8h.html" target="_top" xlink:title=" ">
<polygon fill="white" stroke="#666666" points="150,-78.25 8,-78.25 8,-59.75 150,-59.75 150,-78.25"/>
<text text-anchor="middle" x="79" y="-64.75" font-family="Helvetica,sans-Serif" font-size="10.00">wavelength_state_manager.h</text>
</a>
</g>
</g>
<!-- Node1&#45;&gt;Node2 -->
<g id="edge1_Node000001_Node000002" class="edge">
<title>Node1&#45;&gt;Node2</title>
<g id="a_edge1_Node000001_Node000002"><a xlink:title=" ">
<path fill="none" stroke="#63b8ff" d="M134.24,-119.02C123.28,-109.29 108.64,-96.3 97.18,-86.14"/>
<polygon fill="#63b8ff" stroke="#63b8ff" points="99.75,-83.73 89.94,-79.71 95.1,-88.97 99.75,-83.73"/>
</a>
</g>
</g>
<!-- Node5 -->
<g id="Node000005" class="node">
<title>Node5</title>
<g id="a_Node000005"><a xlink:href="wavelength__registry_8h.html" target="_top" xlink:title=" ">
<polygon fill="white" stroke="#666666" points="276.12,-83.5 167.88,-83.5 167.88,-54.5 276.12,-54.5 276.12,-83.5"/>
<text text-anchor="start" x="175.88" y="-70" font-family="Helvetica,sans-Serif" font-size="10.00">../storage/wavelength</text>
<text text-anchor="middle" x="222" y="-59.5" font-family="Helvetica,sans-Serif" font-size="10.00">_registry.h</text>
</a>
</g>
</g>
<!-- Node1&#45;&gt;Node5 -->
<g id="edge4_Node000001_Node000005" class="edge">
<title>Node1&#45;&gt;Node5</title>
<g id="a_edge4_Node000001_Node000005"><a xlink:title=" ">
<path fill="none" stroke="#63b8ff" d="M165.98,-119.02C175.3,-110.86 187.25,-100.41 197.71,-91.25"/>
<polygon fill="#63b8ff" stroke="#63b8ff" points="199.71,-94.16 204.93,-84.94 195.1,-88.89 199.71,-94.16"/>
</a>
</g>
</g>
<!-- Node3 -->
<g id="Node000003" class="node">
<title>Node3</title>
<g id="a_Node000003"><a xlink:title=" ">
<polygon fill="#e0e0e0" stroke="#999999" points="52,-18.5 0,-18.5 0,0 52,0 52,-18.5"/>
<text text-anchor="middle" x="26" y="-5" font-family="Helvetica,sans-Serif" font-size="10.00">QObject</text>
</a>
</g>
</g>
<!-- Node2&#45;&gt;Node3 -->
<g id="edge2_Node000002_Node000003" class="edge">
<title>Node2&#45;&gt;Node3</title>
<g id="a_edge2_Node000002_Node000003"><a xlink:title=" ">
<path fill="none" stroke="#63b8ff" d="M71.18,-59.48C63.43,-51.03 51.34,-37.86 41.62,-27.27"/>
<polygon fill="#63b8ff" stroke="#63b8ff" points="44.22,-24.92 34.88,-19.92 39.06,-29.66 44.22,-24.92"/>
</a>
</g>
</g>
<!-- Node4 -->
<g id="Node000004" class="node">
<title>Node4</title>
<g id="a_Node000004"><a xlink:title=" ">
<polygon fill="#e0e0e0" stroke="#999999" points="123.75,-18.5 70.25,-18.5 70.25,0 123.75,0 123.75,-18.5"/>
<text text-anchor="middle" x="97" y="-5" font-family="Helvetica,sans-Serif" font-size="10.00">QVariant</text>
</a>
</g>
</g>
<!-- Node2&#45;&gt;Node4 -->
<g id="edge3_Node000002_Node000004" class="edge">
<title>Node2&#45;&gt;Node4</title>
<g id="a_edge3_Node000002_Node000004"><a xlink:title=" ">
<path fill="none" stroke="#63b8ff" d="M81.66,-59.48C84.1,-51.63 87.82,-39.7 90.98,-29.55"/>
<polygon fill="#63b8ff" stroke="#63b8ff" points="94.25,-30.84 93.88,-20.25 87.57,-28.76 94.25,-30.84"/>
</a>
</g>
</g>
<!-- Node6 -->
<g id="Node000006" class="node">
<title>Node6</title>
<g id="a_Node000006"><a xlink:title=" ">
<polygon fill="#e0e0e0" stroke="#999999" points="231.12,-18.5 176.88,-18.5 176.88,0 231.12,0 231.12,-18.5"/>
<text text-anchor="middle" x="204" y="-5" font-family="Helvetica,sans-Serif" font-size="10.00">QPointer</text>
</a>
</g>
</g>
<!-- Node5&#45;&gt;Node6 -->
<g id="edge5_Node000005_Node000006" class="edge">
<title>Node5&#45;&gt;Node6</title>
<g id="a_edge5_Node000005_Node000006"><a xlink:title=" ">
<path fill="none" stroke="#63b8ff" d="M217.64,-54.02C215.38,-46.75 212.57,-37.74 210.09,-29.79"/>
<polygon fill="#63b8ff" stroke="#63b8ff" points="213.46,-28.85 207.15,-20.35 206.78,-30.94 213.46,-28.85"/>
</a>
</g>
</g>
<!-- Node7 -->
<g id="Node000007" class="node">
<title>Node7</title>
<g id="a_Node000007"><a xlink:title=" ">
<polygon fill="#e0e0e0" stroke="#999999" points="322.5,-18.5 249.5,-18.5 249.5,0 322.5,0 322.5,-18.5"/>
<text text-anchor="middle" x="286" y="-5" font-family="Helvetica,sans-Serif" font-size="10.00">QWebSocket</text>
</a>
</g>
</g>
<!-- Node5&#45;&gt;Node7 -->
<g id="edge6_Node000005_Node000007" class="edge">
<title>Node5&#45;&gt;Node7</title>
<g id="a_edge6_Node000005_Node000007"><a xlink:title=" ">
<path fill="none" stroke="#63b8ff" d="M237.49,-54.02C246.69,-45.72 258.39,-35.17 267.99,-26.5"/>
<polygon fill="#63b8ff" stroke="#63b8ff" points="270.21,-29.22 275.29,-19.92 265.52,-24.02 270.21,-29.22"/>
</a>
</g>
</g>
</g>
</svg>
</svg>

<style type='text/css'>
<![CDATA[
[data-mouse-over-selected='false'] { opacity: 0.7; }
[data-mouse-over-selected='true']  { opacity: 1.0; }
]]>
</style>
<script type="application/ecmascript"><![CDATA[
document.addEventListener('DOMContentLoaded', (event) => {
  highlightEdges();
  highlightAdjacentNodes();
});
]]></script>
</svg>
