<?xml version="1.0" encoding="UTF-8" standalone="no"?>
<!DOCTYPE svg PUBLIC "-//W3C//DTD SVG 1.1//EN"
 "http://www.w3.org/Graphics/SVG/1.1/DTD/svg11.dtd">
<!-- Generated by graphviz version 12.2.1 (0)
 -->
<!-- Title: src/session/events/creator/wavelength_creator.h Pages: 1 -->
<svg width="230pt" height="123pt"
 viewBox="0.00 0.00 229.50 123.00" xmlns="http://www.w3.org/2000/svg" xmlns:xlink="http://www.w3.org/1999/xlink">
<g id="graph0" class="graph" transform="scale(1 1) rotate(0) translate(4 119)">
<title>src/session/events/creator/wavelength_creator.h</title>
<!-- Node1 -->
<g id="Node000001" class="node">
<title>Node1</title>
<g id="a_Node000001"><a xlink:title=" ">
<polygon fill="#999999" stroke="#666666" points="160,-115 60,-115 60,-75.5 160,-75.5 160,-115"/>
<text text-anchor="start" x="68" y="-101.5" font-family="Helvetica,sans-Serif" font-size="10.00">src/session/events</text>
<text text-anchor="start" x="68" y="-91" font-family="Helvetica,sans-Serif" font-size="10.00">/creator/wavelength</text>
<text text-anchor="middle" x="110" y="-80.5" font-family="Helvetica,sans-Serif" font-size="10.00">_creator.h</text>
</a>
</g>
</g>
<!-- Node2 -->
<g id="Node000002" class="node">
<title>Node2</title>
<g id="a_Node000002"><a xlink:href="wavelength__creator_8cpp.html" target="_top" xlink:title=" ">
<polygon fill="white" stroke="#666666" points="100,-39.5 0,-39.5 0,0 100,0 100,-39.5"/>
<text text-anchor="start" x="8" y="-26" font-family="Helvetica,sans-Serif" font-size="10.00">src/session/events</text>
<text text-anchor="start" x="8" y="-15.5" font-family="Helvetica,sans-Serif" font-size="10.00">/creator/wavelength</text>
<text text-anchor="middle" x="50" y="-5" font-family="Helvetica,sans-Serif" font-size="10.00">_creator.cpp</text>
</a>
</g>
</g>
<!-- Node1&#45;&gt;Node2 -->
<g id="edge1_Node000001_Node000002" class="edge">
<title>Node1&#45;&gt;Node2</title>
<g id="a_edge1_Node000001_Node000002"><a xlink:title=" ">
<path fill="none" stroke="#63b8ff" d="M87.3,-66.44C80.06,-57.58 72.22,-47.97 65.61,-39.87"/>
<polygon fill="#63b8ff" stroke="#63b8ff" points="84.56,-68.62 93.59,-74.15 89.98,-64.19 84.56,-68.62"/>
</a>
</g>
</g>
<!-- Node3 -->
<g id="Node000003" class="node">
<title>Node3</title>
<g id="a_Node000003"><a xlink:href="session__coordinator_8cpp.html" target="_top" xlink:title=" ">
<polygon fill="white" stroke="#666666" points="221.5,-34.25 118.5,-34.25 118.5,-5.25 221.5,-5.25 221.5,-34.25"/>
<text text-anchor="start" x="126.5" y="-20.75" font-family="Helvetica,sans-Serif" font-size="10.00">src/session/session</text>
<text text-anchor="middle" x="170" y="-10.25" font-family="Helvetica,sans-Serif" font-size="10.00">_coordinator.cpp</text>
</a>
</g>
</g>
<!-- Node1&#45;&gt;Node3 -->
<g id="edge2_Node000001_Node000003" class="edge">
<title>Node1&#45;&gt;Node3</title>
<g id="a_edge2_Node000001_Node000003"><a xlink:title=" ">
<path fill="none" stroke="#63b8ff" d="M132.66,-66.5C141.58,-55.57 151.43,-43.5 158.77,-34.51"/>
<polygon fill="#63b8ff" stroke="#63b8ff" points="130.02,-64.19 126.41,-74.15 135.44,-68.62 130.02,-64.19"/>
</a>
</g>
</g>
</g>
</svg>
