<?xml version="1.0" encoding="UTF-8" standalone="no"?>
<!DOCTYPE svg PUBLIC "-//W3C//DTD SVG 1.1//EN"
 "http://www.w3.org/Graphics/SVG/1.1/DTD/svg11.dtd">
<!-- Generated by graphviz version 12.2.1 (0)
 -->
<!-- Title: src/storage/wavelength_registry.h Pages: 1 -->
<svg width="1451pt" height="113pt"
 viewBox="0.00 0.00 1450.50 112.50" xmlns="http://www.w3.org/2000/svg" xmlns:xlink="http://www.w3.org/1999/xlink">
<g id="graph0" class="graph" transform="scale(1 1) rotate(0) translate(4 108.5)">
<title>src/storage/wavelength_registry.h</title>
<!-- Node1 -->
<g id="Node000001" class="node">
<title>Node1</title>
<g id="a_Node000001"><a xlink:title=" ">
<polygon fill="#999999" stroke="#666666" points="791.5,-104.5 675.75,-104.5 675.75,-75.5 791.5,-75.5 791.5,-104.5"/>
<text text-anchor="start" x="683.75" y="-91" font-family="Helvetica,sans-Serif" font-size="10.00">src/storage/wavelength</text>
<text text-anchor="middle" x="733.62" y="-80.5" font-family="Helvetica,sans-Serif" font-size="10.00">_registry.h</text>
</a>
</g>
</g>
<!-- Node2 -->
<g id="Node000002" class="node">
<title>Node2</title>
<g id="a_Node000002"><a xlink:href="message__formatter_8cpp.html" target="_top" xlink:title=" ">
<polygon fill="white" stroke="#666666" points="141.25,-34.25 0,-34.25 0,-5.25 141.25,-5.25 141.25,-34.25"/>
<text text-anchor="start" x="8" y="-20.75" font-family="Helvetica,sans-Serif" font-size="10.00">src/chat/messages/formatter</text>
<text text-anchor="middle" x="70.62" y="-10.25" font-family="Helvetica,sans-Serif" font-size="10.00">/message_formatter.cpp</text>
</a>
</g>
</g>
<!-- Node1&#45;&gt;Node2 -->
<g id="edge1_Node000001_Node000002" class="edge">
<title>Node1&#45;&gt;Node2</title>
<g id="a_edge1_Node000001_Node000002"><a xlink:title=" ">
<path fill="none" stroke="#63b8ff" d="M664.14,-86.37C554.45,-81.49 334.72,-68.73 150.62,-39.5 142.45,-38.2 133.88,-36.53 125.5,-34.72"/>
<polygon fill="#63b8ff" stroke="#63b8ff" points="663.71,-89.86 673.85,-86.8 664.01,-82.86 663.71,-89.86"/>
</a>
</g>
</g>
<!-- Node3 -->
<g id="Node000003" class="node">
<title>Node3</title>
<g id="a_Node000003"><a xlink:href="message__processor_8cpp.html" target="_top" xlink:title=" ">
<polygon fill="white" stroke="#666666" points="299.5,-34.25 159.75,-34.25 159.75,-5.25 299.5,-5.25 299.5,-34.25"/>
<text text-anchor="start" x="167.75" y="-20.75" font-family="Helvetica,sans-Serif" font-size="10.00">src/chat/messages/services</text>
<text text-anchor="middle" x="229.62" y="-10.25" font-family="Helvetica,sans-Serif" font-size="10.00">/message_processor.cpp</text>
</a>
</g>
</g>
<!-- Node1&#45;&gt;Node3 -->
<g id="edge2_Node000001_Node000003" class="edge">
<title>Node1&#45;&gt;Node3</title>
<g id="a_edge2_Node000001_Node000003"><a xlink:title=" ">
<path fill="none" stroke="#63b8ff" d="M664.33,-83.44C579.9,-76.09 433.12,-61.45 308.62,-39.5 300.85,-38.13 292.7,-36.46 284.7,-34.69"/>
<polygon fill="#63b8ff" stroke="#63b8ff" points="663.8,-86.91 674.06,-84.28 664.4,-79.93 663.8,-86.91"/>
</a>
</g>
</g>
<!-- Node4 -->
<g id="Node000004" class="node">
<title>Node4</title>
<g id="a_Node000004"><a xlink:href="message__service_8cpp.html" target="_top" xlink:title=" ">
<polygon fill="white" stroke="#666666" points="457.5,-34.25 317.75,-34.25 317.75,-5.25 457.5,-5.25 457.5,-34.25"/>
<text text-anchor="start" x="325.75" y="-20.75" font-family="Helvetica,sans-Serif" font-size="10.00">src/chat/messages/services</text>
<text text-anchor="middle" x="387.62" y="-10.25" font-family="Helvetica,sans-Serif" font-size="10.00">/message_service.cpp</text>
</a>
</g>
</g>
<!-- Node1&#45;&gt;Node4 -->
<g id="edge3_Node000001_Node000004" class="edge">
<title>Node1&#45;&gt;Node4</title>
<g id="a_edge3_Node000001_Node000004"><a xlink:title=" ">
<path fill="none" stroke="#63b8ff" d="M664.21,-77.22C609.99,-67.77 532.81,-53.77 465.62,-39.5 458.68,-38.02 451.4,-36.39 444.21,-34.73"/>
<polygon fill="#63b8ff" stroke="#63b8ff" points="663.48,-80.65 673.93,-78.91 664.67,-73.75 663.48,-80.65"/>
</a>
</g>
</g>
<!-- Node5 -->
<g id="Node000005" class="node">
<title>Node5</title>
<g id="a_Node000005"><a xlink:href="wavelength__state__manager_8cpp.html" target="_top" xlink:title=" ">
<polygon fill="white" stroke="#666666" points="596.12,-34.25 475.12,-34.25 475.12,-5.25 596.12,-5.25 596.12,-34.25"/>
<text text-anchor="start" x="483.12" y="-20.75" font-family="Helvetica,sans-Serif" font-size="10.00">src/services/wavelength</text>
<text text-anchor="middle" x="535.62" y="-10.25" font-family="Helvetica,sans-Serif" font-size="10.00">_state_manager.cpp</text>
</a>
</g>
</g>
<!-- Node1&#45;&gt;Node5 -->
<g id="edge4_Node000001_Node000005" class="edge">
<title>Node1&#45;&gt;Node5</title>
<g id="a_edge4_Node000001_Node000005"><a xlink:title=" ">
<path fill="none" stroke="#63b8ff" d="M682.25,-71.29C649.18,-59.89 606.8,-45.28 576.12,-34.71"/>
<polygon fill="#63b8ff" stroke="#63b8ff" points="681.05,-74.58 691.65,-74.53 683.33,-67.96 681.05,-74.58"/>
</a>
</g>
</g>
<!-- Node6 -->
<g id="Node000006" class="node">
<title>Node6</title>
<g id="a_Node000006"><a xlink:href="wavelength__creator_8cpp.html" target="_top" xlink:title=" ">
<polygon fill="white" stroke="#666666" points="714.62,-39.5 614.62,-39.5 614.62,0 714.62,0 714.62,-39.5"/>
<text text-anchor="start" x="622.62" y="-26" font-family="Helvetica,sans-Serif" font-size="10.00">src/session/events</text>
<text text-anchor="start" x="622.62" y="-15.5" font-family="Helvetica,sans-Serif" font-size="10.00">/creator/wavelength</text>
<text text-anchor="middle" x="664.62" y="-5" font-family="Helvetica,sans-Serif" font-size="10.00">_creator.cpp</text>
</a>
</g>
</g>
<!-- Node1&#45;&gt;Node6 -->
<g id="edge5_Node000001_Node000006" class="edge">
<title>Node1&#45;&gt;Node6</title>
<g id="a_edge5_Node000001_Node000006"><a xlink:title=" ">
<path fill="none" stroke="#63b8ff" d="M711.65,-67.26C702.78,-58.49 692.65,-48.47 684.06,-39.97"/>
<polygon fill="#63b8ff" stroke="#63b8ff" points="709.01,-69.58 718.59,-74.12 713.94,-64.6 709.01,-69.58"/>
</a>
</g>
</g>
<!-- Node7 -->
<g id="Node000007" class="node">
<title>Node7</title>
<g id="a_Node000007"><a xlink:href="wavelength__joiner_8cpp.html" target="_top" xlink:title=" ">
<polygon fill="white" stroke="#666666" points="872.88,-34.25 732.38,-34.25 732.38,-5.25 872.88,-5.25 872.88,-34.25"/>
<text text-anchor="start" x="740.38" y="-20.75" font-family="Helvetica,sans-Serif" font-size="10.00">src/session/events</text>
<text text-anchor="middle" x="802.62" y="-10.25" font-family="Helvetica,sans-Serif" font-size="10.00">/joiner/wavelength_joiner.cpp</text>
</a>
</g>
</g>
<!-- Node1&#45;&gt;Node7 -->
<g id="edge6_Node000001_Node000007" class="edge">
<title>Node1&#45;&gt;Node7</title>
<g id="a_edge6_Node000001_Node000007"><a xlink:title=" ">
<path fill="none" stroke="#63b8ff" d="M755.76,-67.11C766.57,-56.42 779.24,-43.88 788.68,-34.54"/>
<polygon fill="#63b8ff" stroke="#63b8ff" points="753.31,-64.6 748.66,-74.12 758.24,-69.58 753.31,-64.6"/>
</a>
</g>
</g>
<!-- Node8 -->
<g id="Node000008" class="node">
<title>Node8</title>
<g id="a_Node000008"><a xlink:href="wavelength__leaver_8cpp.html" target="_top" xlink:title=" ">
<polygon fill="white" stroke="#666666" points="1036.12,-34.25 891.12,-34.25 891.12,-5.25 1036.12,-5.25 1036.12,-34.25"/>
<text text-anchor="start" x="899.12" y="-20.75" font-family="Helvetica,sans-Serif" font-size="10.00">src/session/events</text>
<text text-anchor="middle" x="963.62" y="-10.25" font-family="Helvetica,sans-Serif" font-size="10.00">/leaver/wavelength_leaver.cpp</text>
</a>
</g>
</g>
<!-- Node1&#45;&gt;Node8 -->
<g id="edge7_Node000001_Node000008" class="edge">
<title>Node1&#45;&gt;Node8</title>
<g id="a_edge7_Node000001_Node000008"><a xlink:title=" ">
<path fill="none" stroke="#63b8ff" d="M791.31,-71.88C830,-60.4 880.33,-45.47 916.59,-34.71"/>
<polygon fill="#63b8ff" stroke="#63b8ff" points="790.77,-68.39 782.17,-74.59 792.76,-75.1 790.77,-68.39"/>
</a>
</g>
</g>
<!-- Node9 -->
<g id="Node000009" class="node">
<title>Node9</title>
<g id="a_Node000009"><a xlink:href="session__coordinator_8cpp.html" target="_top" xlink:title=" ">
<polygon fill="white" stroke="#666666" points="1157.12,-34.25 1054.12,-34.25 1054.12,-5.25 1157.12,-5.25 1157.12,-34.25"/>
<text text-anchor="start" x="1062.12" y="-20.75" font-family="Helvetica,sans-Serif" font-size="10.00">src/session/session</text>
<text text-anchor="middle" x="1105.62" y="-10.25" font-family="Helvetica,sans-Serif" font-size="10.00">_coordinator.cpp</text>
</a>
</g>
</g>
<!-- Node1&#45;&gt;Node9 -->
<g id="edge8_Node000001_Node000009" class="edge">
<title>Node1&#45;&gt;Node9</title>
<g id="a_edge8_Node000001_Node000009"><a xlink:title=" ">
<path fill="none" stroke="#63b8ff" d="M803,-80.94C866.6,-72.85 963.14,-58.82 1045.62,-39.5 1051.47,-38.13 1057.57,-36.48 1063.55,-34.74"/>
<polygon fill="#63b8ff" stroke="#63b8ff" points="802.89,-77.42 793.41,-82.14 803.77,-84.37 802.89,-77.42"/>
</a>
</g>
</g>
<!-- Node10 -->
<g id="Node000010" class="node">
<title>Node10</title>
<g id="a_Node000010"><a xlink:href="wavelength__registry_8cpp.html" target="_top" xlink:title=" ">
<polygon fill="white" stroke="#666666" points="1290.5,-34.25 1174.75,-34.25 1174.75,-5.25 1290.5,-5.25 1290.5,-34.25"/>
<text text-anchor="start" x="1182.75" y="-20.75" font-family="Helvetica,sans-Serif" font-size="10.00">src/storage/wavelength</text>
<text text-anchor="middle" x="1232.62" y="-10.25" font-family="Helvetica,sans-Serif" font-size="10.00">_registry.cpp</text>
</a>
</g>
</g>
<!-- Node1&#45;&gt;Node10 -->
<g id="edge9_Node000001_Node000010" class="edge">
<title>Node1&#45;&gt;Node10</title>
<g id="a_edge9_Node000001_Node000010"><a xlink:title=" ">
<path fill="none" stroke="#63b8ff" d="M803.31,-84.55C889.33,-78.24 1039.78,-64.59 1166.62,-39.5 1173.29,-38.18 1180.25,-36.52 1187.06,-34.74"/>
<polygon fill="#63b8ff" stroke="#63b8ff" points="803.1,-81.05 793.38,-85.26 803.6,-88.03 803.1,-81.05"/>
</a>
</g>
</g>
<!-- Node11 -->
<g id="Node000011" class="node">
<title>Node11</title>
<g id="a_Node000011"><a xlink:href="chat__view_8cpp.html" target="_top" xlink:title=" ">
<polygon fill="white" stroke="#666666" points="1442.5,-29 1308.75,-29 1308.75,-10.5 1442.5,-10.5 1442.5,-29"/>
<text text-anchor="middle" x="1375.62" y="-15.5" font-family="Helvetica,sans-Serif" font-size="10.00">src/ui/views/chat_view.cpp</text>
</a>
</g>
</g>
<!-- Node1&#45;&gt;Node11 -->
<g id="edge10_Node000001_Node000011" class="edge">
<title>Node1&#45;&gt;Node11</title>
<g id="a_edge10_Node000001_Node000011"><a xlink:title=" ">
<path fill="none" stroke="#63b8ff" d="M803.14,-86.38C910.34,-81.57 1122.18,-68.97 1299.62,-39.5 1314.77,-36.98 1331.36,-33.04 1345.16,-29.41"/>
<polygon fill="#63b8ff" stroke="#63b8ff" points="803.2,-82.88 793.36,-86.81 803.5,-89.87 803.2,-82.88"/>
</a>
</g>
</g>
</g>
</svg>
