<?xml version="1.0" encoding="UTF-8" standalone="no"?>
<!DOCTYPE svg PUBLIC "-//W3C//DTD SVG 1.1//EN"
 "http://www.w3.org/Graphics/SVG/1.1/DTD/svg11.dtd">
<!-- Generated by graphviz version 12.2.1 (0)
 -->
<!-- Title: src/session/events/creator/wavelength_creator.cpp Pages: 1 -->
<!--zoomable 167 -->

<svg id="main" version="1.1" xmlns="http://www.w3.org/2000/svg" xmlns:xlink="http://www.w3.org/1999/xlink" xml:space="preserve" onload="init(evt)">

<style type="text/css"><![CDATA[
.node, .edge {opacity: 0.7;}
.node.selected, .edge.selected {opacity: 1;}
.edge:hover path { stroke: red; }
.edge:hover polygon { stroke: red; fill: red; }
]]></style>

<defs>
  <circle id="rim" cx="0" cy="0" r="7"/>
  <circle id="rim2" cx="0" cy="0" r="3.5"/>
  <g id="zoomPlus">
    <use xlink:href="#rim" fill="#404040"><set attributeName="fill" to="#808080" begin="zoomplus.mouseover" end="zoomplus.mouseout"/></use>
    <path d="M-4,0h8M0,-4v8" fill="none" stroke="white" stroke-width="1.5" pointer-events="none"/>
  </g>
  <g id="zoomMin">
    <use xlink:href="#rim" fill="#404040"><set attributeName="fill" to="#808080" begin="zoomminus.mouseover" end="zoomminus.mouseout"/></use>
    <path d="M-4,0h8" fill="none" stroke="white" stroke-width="1.5" pointer-events="none"/>
  </g>
  <g id="arrowUp" transform="translate(30 24)">
    <use xlink:href="#rim"/>
    <path pointer-events="none" fill="none" stroke="white" stroke-width="1.5" d="M0,-3.0v7 M-2.5,-0.5L0,-3.0L2.5,-0.5"/>
  </g>
  <g id="arrowRight" transform="rotate(90) translate(36 -43)">
    <use xlink:href="#rim"/>
    <path pointer-events="none" fill="none" stroke="white" stroke-width="1.5" d="M0,-3.0v7 M-2.5,-0.5L0,-3.0L2.5,-0.5"/>
  </g>
  <g id="arrowDown" transform="rotate(180) translate(-30 -48)">
    <use xlink:href="#rim"/>
    <path pointer-events="none" fill="none" stroke="white" stroke-width="1.5" d="M0,-3.0v7 M-2.5,-0.5L0,-3.0L2.5,-0.5"/>
  </g>
  <g id="arrowLeft" transform="rotate(270) translate(-36 17)">
    <use xlink:href="#rim"/>
    <path pointer-events="none" fill="none" stroke="white" stroke-width="1.5" d="M0,-3.0v7 M-2.5,-0.5L0,-3.0L2.5,-0.5"/>
  </g>
  <g id="resetDef">
    <use xlink:href="#rim2" fill="#404040"><set attributeName="fill" to="#808080" begin="reset.mouseover" end="reset.mouseout"/></use>
  </g>
</defs>
<script type="application/ecmascript">
var viewWidth = 1144;
var viewHeight = 167;
var sectionId = 'dynsection-0';
</script>
<script type="application/ecmascript" xlink:href="svg.min.js"/>
<svg id="graph" class="graph">
<g id="viewport">
<title>src/session/events/creator/wavelength_creator.cpp</title>
<!-- Node1 -->
<g id="Node000001" class="node">
<title>Node1</title>
<g id="a_Node000001"><a xlink:title=" ">
<polygon fill="#999999" stroke="#666666" points="558.5,-159 458.5,-159 458.5,-119.5 558.5,-119.5 558.5,-159"/>
<text text-anchor="start" x="466.5" y="-145.5" font-family="Helvetica,sans-Serif" font-size="10.00">src/session/events</text>
<text text-anchor="start" x="466.5" y="-135" font-family="Helvetica,sans-Serif" font-size="10.00">/creator/wavelength</text>
<text text-anchor="middle" x="508.5" y="-124.5" font-family="Helvetica,sans-Serif" font-size="10.00">_creator.cpp</text>
</a>
</g>
</g>
<!-- Node2 -->
<g id="Node000002" class="node">
<title>Node2</title>
<g id="a_Node000002"><a xlink:href="wavelength__creator_8h.html" target="_top" xlink:title=" ">
<polygon fill="white" stroke="#666666" points="630.25,-78.25 522.75,-78.25 522.75,-59.75 630.25,-59.75 630.25,-78.25"/>
<text text-anchor="middle" x="576.5" y="-64.75" font-family="Helvetica,sans-Serif" font-size="10.00">wavelength_creator.h</text>
</a>
</g>
</g>
<!-- Node1&#45;&gt;Node2 -->
<g id="edge1_Node000001_Node000002" class="edge">
<title>Node1&#45;&gt;Node2</title>
<g id="a_edge1_Node000001_Node000002"><a xlink:title=" ">
<path fill="none" stroke="#63b8ff" d="M527.44,-119.24C537.78,-108.87 550.44,-96.16 560.31,-86.25"/>
<polygon fill="#63b8ff" stroke="#63b8ff" points="562.49,-89.02 567.07,-79.47 557.53,-84.08 562.49,-89.02"/>
</a>
</g>
</g>
<!-- Node4 -->
<g id="Node000004" class="node">
<title>Node4</title>
<g id="a_Node000004"><a xlink:title=" ">
<polygon fill="#e0e0e0" stroke="#999999" points="294.25,-78.25 204.75,-78.25 204.75,-59.75 294.25,-59.75 294.25,-78.25"/>
<text text-anchor="middle" x="249.5" y="-64.75" font-family="Helvetica,sans-Serif" font-size="10.00">QJsonDocument</text>
</a>
</g>
</g>
<!-- Node1&#45;&gt;Node4 -->
<g id="edge3_Node000001_Node000004" class="edge">
<title>Node1&#45;&gt;Node4</title>
<g id="a_edge3_Node000001_Node000004"><a xlink:title=" ">
<path fill="none" stroke="#63b8ff" d="M458.26,-125.01C410.38,-112.39 339.03,-93.59 293.39,-81.57"/>
<polygon fill="#63b8ff" stroke="#63b8ff" points="294.39,-78.21 283.83,-79.05 292.61,-84.98 294.39,-78.21"/>
</a>
</g>
</g>
<!-- Node5 -->
<g id="Node000005" class="node">
<title>Node5</title>
<g id="a_Node000005"><a xlink:title=" ">
<polygon fill="#e0e0e0" stroke="#999999" points="360.62,-78.25 312.38,-78.25 312.38,-59.75 360.62,-59.75 360.62,-78.25"/>
<text text-anchor="middle" x="336.5" y="-64.75" font-family="Helvetica,sans-Serif" font-size="10.00">QTimer</text>
</a>
</g>
</g>
<!-- Node1&#45;&gt;Node5 -->
<g id="edge4_Node000001_Node000005" class="edge">
<title>Node1&#45;&gt;Node5</title>
<g id="a_edge4_Node000001_Node000005"><a xlink:title=" ">
<path fill="none" stroke="#63b8ff" d="M459.23,-119.02C432.62,-108.6 399.23,-95.43 369.5,-83.5 369.01,-83.3 368.52,-83.11 368.02,-82.91"/>
<polygon fill="#63b8ff" stroke="#63b8ff" points="369.42,-79.69 358.83,-79.18 366.79,-86.18 369.42,-79.69"/>
</a>
</g>
</g>
<!-- Node6 -->
<g id="Node000006" class="node">
<title>Node6</title>
<g id="a_Node000006"><a xlink:href="wavelength__config_8h.html" target="_top" xlink:title=" ">
<polygon fill="white" stroke="#666666" points="186.38,-83.5 76.62,-83.5 76.62,-54.5 186.38,-54.5 186.38,-83.5"/>
<text text-anchor="start" x="84.62" y="-70" font-family="Helvetica,sans-Serif" font-size="10.00">../../../app/wavelength</text>
<text text-anchor="middle" x="131.5" y="-59.5" font-family="Helvetica,sans-Serif" font-size="10.00">_config.h</text>
</a>
</g>
</g>
<!-- Node1&#45;&gt;Node6 -->
<g id="edge5_Node000001_Node000006" class="edge">
<title>Node1&#45;&gt;Node6</title>
<g id="a_edge5_Node000001_Node000006"><a xlink:title=" ">
<path fill="none" stroke="#63b8ff" d="M458.26,-130.01C398.58,-120.11 295.76,-102.66 197.65,-83.87"/>
<polygon fill="#63b8ff" stroke="#63b8ff" points="198.6,-80.49 188.12,-82.04 197.28,-87.37 198.6,-80.49"/>
</a>
</g>
</g>
<!-- Node11 -->
<g id="Node000011" class="node">
<title>Node11</title>
<g id="a_Node000011"><a xlink:href="authentication__manager_8h.html" target="_top" xlink:title=" ">
<polygon fill="white" stroke="#666666" points="504.25,-83.5 378.75,-83.5 378.75,-54.5 504.25,-54.5 504.25,-83.5"/>
<text text-anchor="start" x="386.75" y="-70" font-family="Helvetica,sans-Serif" font-size="10.00">../../../auth/authentication</text>
<text text-anchor="middle" x="441.5" y="-59.5" font-family="Helvetica,sans-Serif" font-size="10.00">_manager.h</text>
</a>
</g>
</g>
<!-- Node1&#45;&gt;Node11 -->
<g id="edge10_Node000001_Node000011" class="edge">
<title>Node1&#45;&gt;Node11</title>
<g id="a_edge10_Node000001_Node000011"><a xlink:title=" ">
<path fill="none" stroke="#63b8ff" d="M489.84,-119.24C481.5,-110.75 471.64,-100.7 462.99,-91.9"/>
<polygon fill="#63b8ff" stroke="#63b8ff" points="465.74,-89.7 456.24,-85.01 460.75,-94.6 465.74,-89.7"/>
</a>
</g>
</g>
<!-- Node14 -->
<g id="Node000014" class="node">
<title>Node14</title>
<g id="a_Node000014"><a xlink:href="message__handler_8h.html" target="_top" xlink:title=" ">
<polygon fill="white" stroke="#666666" points="960.62,-83.5 822.38,-83.5 822.38,-54.5 960.62,-54.5 960.62,-83.5"/>
<text text-anchor="start" x="830.38" y="-70" font-family="Helvetica,sans-Serif" font-size="10.00">../../../chat/messages</text>
<text text-anchor="middle" x="891.5" y="-59.5" font-family="Helvetica,sans-Serif" font-size="10.00">/handler/message_handler.h</text>
</a>
</g>
</g>
<!-- Node1&#45;&gt;Node14 -->
<g id="edge14_Node000001_Node000014" class="edge">
<title>Node1&#45;&gt;Node14</title>
<g id="a_edge14_Node000001_Node000014"><a xlink:title=" ">
<path fill="none" stroke="#63b8ff" d="M558.96,-129.26C623.24,-117.8 735.09,-97.87 811.15,-84.32"/>
<polygon fill="#63b8ff" stroke="#63b8ff" points="811.38,-87.83 820.61,-82.63 810.15,-80.94 811.38,-87.83"/>
</a>
</g>
</g>
<!-- Node17 -->
<g id="Node000017" class="node">
<title>Node17</title>
<g id="a_Node000017"><a xlink:href="message__processor_8h.html" target="_top" xlink:title=" ">
<polygon fill="white" stroke="#666666" points="804.25,-83.5 648.75,-83.5 648.75,-54.5 804.25,-54.5 804.25,-83.5"/>
<text text-anchor="start" x="656.75" y="-70" font-family="Helvetica,sans-Serif" font-size="10.00">../../../chat/messages</text>
<text text-anchor="middle" x="726.5" y="-59.5" font-family="Helvetica,sans-Serif" font-size="10.00">/services/message_processor.h</text>
</a>
</g>
</g>
<!-- Node1&#45;&gt;Node17 -->
<g id="edge18_Node000001_Node000017" class="edge">
<title>Node1&#45;&gt;Node17</title>
<g id="a_edge18_Node000001_Node000017"><a xlink:title=" ">
<path fill="none" stroke="#63b8ff" d="M558.79,-122.51C592.37,-111.99 636.56,-98.16 671.14,-87.33"/>
<polygon fill="#63b8ff" stroke="#63b8ff" points="672.07,-90.71 680.57,-84.38 669.98,-84.03 672.07,-90.71"/>
</a>
</g>
</g>
<!-- Node18 -->
<g id="Node000018" class="node">
<title>Node18</title>
<g id="a_Node000018"><a xlink:href="wavelength__registry_8h.html" target="_top" xlink:title=" ">
<polygon fill="white" stroke="#666666" points="1104.62,-83.5 978.38,-83.5 978.38,-54.5 1104.62,-54.5 1104.62,-83.5"/>
<text text-anchor="start" x="986.38" y="-70" font-family="Helvetica,sans-Serif" font-size="10.00">../../../storage/wavelength</text>
<text text-anchor="middle" x="1041.5" y="-59.5" font-family="Helvetica,sans-Serif" font-size="10.00">_registry.h</text>
</a>
</g>
</g>
<!-- Node1&#45;&gt;Node18 -->
<g id="edge20_Node000001_Node000018" class="edge">
<title>Node1&#45;&gt;Node18</title>
<g id="a_edge20_Node000001_Node000018"><a xlink:title=" ">
<path fill="none" stroke="#63b8ff" d="M558.79,-133.39C641.69,-125.15 812.47,-107.13 966.85,-83.84"/>
<polygon fill="#63b8ff" stroke="#63b8ff" points="967.08,-87.35 976.44,-82.39 966.03,-80.43 967.08,-87.35"/>
</a>
</g>
</g>
<!-- Node3 -->
<g id="Node000003" class="node">
<title>Node3</title>
<g id="a_Node000003"><a xlink:title=" ">
<polygon fill="#e0e0e0" stroke="#999999" points="677.5,-18.5 625.5,-18.5 625.5,0 677.5,0 677.5,-18.5"/>
<text text-anchor="middle" x="651.5" y="-5" font-family="Helvetica,sans-Serif" font-size="10.00">QObject</text>
</a>
</g>
</g>
<!-- Node2&#45;&gt;Node3 -->
<g id="edge2_Node000002_Node000003" class="edge">
<title>Node2&#45;&gt;Node3</title>
<g id="a_edge2_Node000002_Node000003"><a xlink:title=" ">
<path fill="none" stroke="#63b8ff" d="M587.57,-59.48C599.09,-50.61 617.38,-36.52 631.45,-25.68"/>
<polygon fill="#63b8ff" stroke="#63b8ff" points="633.4,-28.6 639.19,-19.73 629.13,-23.06 633.4,-28.6"/>
</a>
</g>
</g>
<!-- Node7 -->
<g id="Node000007" class="node">
<title>Node7</title>
<g id="a_Node000007"><a xlink:title=" ">
<polygon fill="#e0e0e0" stroke="#999999" points="113.88,-18.5 67.12,-18.5 67.12,0 113.88,0 113.88,-18.5"/>
<text text-anchor="middle" x="90.5" y="-5" font-family="Helvetica,sans-Serif" font-size="10.00">QColor</text>
</a>
</g>
</g>
<!-- Node6&#45;&gt;Node7 -->
<g id="edge6_Node000006_Node000007" class="edge">
<title>Node6&#45;&gt;Node7</title>
<g id="a_edge6_Node000006_Node000007"><a xlink:title=" ">
<path fill="none" stroke="#63b8ff" d="M121.58,-54.02C116.05,-46.24 109.11,-36.46 103.19,-28.13"/>
<polygon fill="#63b8ff" stroke="#63b8ff" points="106.16,-26.27 97.52,-20.14 100.45,-30.32 106.16,-26.27"/>
</a>
</g>
</g>
<!-- Node8 -->
<g id="Node000008" class="node">
<title>Node8</title>
<g id="a_Node000008"><a xlink:title=" ">
<polygon fill="#e0e0e0" stroke="#999999" points="215.25,-18.5 131.75,-18.5 131.75,0 215.25,0 215.25,-18.5"/>
<text text-anchor="middle" x="173.5" y="-5" font-family="Helvetica,sans-Serif" font-size="10.00">QKeySequence</text>
</a>
</g>
</g>
<!-- Node6&#45;&gt;Node8 -->
<g id="edge7_Node000006_Node000008" class="edge">
<title>Node6&#45;&gt;Node8</title>
<g id="a_edge7_Node000006_Node000008"><a xlink:title=" ">
<path fill="none" stroke="#63b8ff" d="M141.67,-54.02C147.33,-46.24 154.44,-36.46 160.5,-28.13"/>
<polygon fill="#63b8ff" stroke="#63b8ff" points="163.27,-30.27 166.32,-20.13 157.6,-26.16 163.27,-30.27"/>
</a>
</g>
</g>
<!-- Node9 -->
<g id="Node000009" class="node">
<title>Node9</title>
<g id="a_Node000009"><a xlink:title=" ">
<polygon fill="#e0e0e0" stroke="#999999" points="293.25,-18.5 233.75,-18.5 233.75,0 293.25,0 293.25,-18.5"/>
<text text-anchor="middle" x="263.5" y="-5" font-family="Helvetica,sans-Serif" font-size="10.00">QSettings</text>
</a>
</g>
</g>
<!-- Node6&#45;&gt;Node9 -->
<g id="edge8_Node000006_Node000009" class="edge">
<title>Node6&#45;&gt;Node9</title>
<g id="a_edge8_Node000006_Node000009"><a xlink:title=" ">
<path fill="none" stroke="#63b8ff" d="M163.45,-54.02C184.67,-44.74 212.34,-32.63 233.21,-23.5"/>
<polygon fill="#63b8ff" stroke="#63b8ff" points="234.58,-26.73 242.33,-19.51 231.77,-20.31 234.58,-26.73"/>
</a>
</g>
</g>
<!-- Node10 -->
<g id="Node000010" class="node">
<title>Node10</title>
<g id="a_Node000010"><a xlink:title=" ">
<polygon fill="#e0e0e0" stroke="#999999" points="49,-18.5 0,-18.5 0,0 49,0 49,-18.5"/>
<text text-anchor="middle" x="24.5" y="-5" font-family="Helvetica,sans-Serif" font-size="10.00">QString</text>
</a>
</g>
</g>
<!-- Node6&#45;&gt;Node10 -->
<g id="edge9_Node000006_Node000010" class="edge">
<title>Node6&#45;&gt;Node10</title>
<g id="a_edge9_Node000006_Node000010"><a xlink:title=" ">
<path fill="none" stroke="#63b8ff" d="M105.6,-54.02C88.8,-44.95 67,-33.19 50.23,-24.14"/>
<polygon fill="#63b8ff" stroke="#63b8ff" points="52.33,-21.29 41.87,-19.62 49,-27.45 52.33,-21.29"/>
</a>
</g>
</g>
<!-- Node11&#45;&gt;Node3 -->
<g id="edge13_Node000011_Node000003" class="edge">
<title>Node11&#45;&gt;Node3</title>
<g id="a_edge13_Node000011_Node000003"><a xlink:title=" ">
<path fill="none" stroke="#63b8ff" d="M492.34,-54.02C529.96,-43.67 580.36,-29.81 614.28,-20.48"/>
<polygon fill="#63b8ff" stroke="#63b8ff" points="614.94,-23.93 623.65,-17.91 613.08,-17.18 614.94,-23.93"/>
</a>
</g>
</g>
<!-- Node12 -->
<g id="Node000012" class="node">
<title>Node12</title>
<g id="a_Node000012"><a xlink:title=" ">
<polygon fill="#e0e0e0" stroke="#999999" points="510.25,-18.5 444.75,-18.5 444.75,0 510.25,0 510.25,-18.5"/>
<text text-anchor="middle" x="477.5" y="-5" font-family="Helvetica,sans-Serif" font-size="10.00">QDateTime</text>
</a>
</g>
</g>
<!-- Node11&#45;&gt;Node12 -->
<g id="edge11_Node000011_Node000012" class="edge">
<title>Node11&#45;&gt;Node12</title>
<g id="a_edge11_Node000011_Node000012"><a xlink:title=" ">
<path fill="none" stroke="#63b8ff" d="M450.21,-54.02C455.01,-46.32 461.03,-36.68 466.18,-28.4"/>
<polygon fill="#63b8ff" stroke="#63b8ff" points="468.98,-30.53 471.3,-20.19 463.04,-26.82 468.98,-30.53"/>
</a>
</g>
</g>
<!-- Node13 -->
<g id="Node000013" class="node">
<title>Node13</title>
<g id="a_Node000013"><a xlink:title=" ">
<polygon fill="#e0e0e0" stroke="#999999" points="426.62,-18.5 384.38,-18.5 384.38,0 426.62,0 426.62,-18.5"/>
<text text-anchor="middle" x="405.5" y="-5" font-family="Helvetica,sans-Serif" font-size="10.00">QMap</text>
</a>
</g>
</g>
<!-- Node11&#45;&gt;Node13 -->
<g id="edge12_Node000011_Node000013" class="edge">
<title>Node11&#45;&gt;Node13</title>
<g id="a_edge12_Node000011_Node000013"><a xlink:title=" ">
<path fill="none" stroke="#63b8ff" d="M432.79,-54.02C427.99,-46.32 421.97,-36.68 416.82,-28.4"/>
<polygon fill="#63b8ff" stroke="#63b8ff" points="419.96,-26.82 411.7,-20.19 414.02,-30.53 419.96,-26.82"/>
</a>
</g>
</g>
<!-- Node14&#45;&gt;Node3 -->
<g id="edge16_Node000014_Node000003" class="edge">
<title>Node14&#45;&gt;Node3</title>
<g id="a_edge16_Node000014_Node000003"><a xlink:title=" ">
<path fill="none" stroke="#63b8ff" d="M833.4,-54.02C788.33,-43.17 727.2,-28.47 688.55,-19.17"/>
<polygon fill="#63b8ff" stroke="#63b8ff" points="689.82,-15.87 679.27,-16.93 688.18,-22.68 689.82,-15.87"/>
</a>
</g>
</g>
<!-- Node15 -->
<g id="Node000015" class="node">
<title>Node15</title>
<g id="a_Node000015"><a xlink:title=" ">
<polygon fill="#e0e0e0" stroke="#999999" points="943,-18.5 870,-18.5 870,0 943,0 943,-18.5"/>
<text text-anchor="middle" x="906.5" y="-5" font-family="Helvetica,sans-Serif" font-size="10.00">QJsonObject</text>
</a>
</g>
</g>
<!-- Node14&#45;&gt;Node15 -->
<g id="edge15_Node000014_Node000015" class="edge">
<title>Node14&#45;&gt;Node15</title>
<g id="a_edge15_Node000014_Node000015"><a xlink:title=" ">
<path fill="none" stroke="#63b8ff" d="M895.13,-54.02C897.02,-46.75 899.36,-37.74 901.42,-29.79"/>
<polygon fill="#63b8ff" stroke="#63b8ff" points="904.75,-30.93 903.87,-20.37 897.97,-29.17 904.75,-30.93"/>
</a>
</g>
</g>
<!-- Node16 -->
<g id="Node000016" class="node">
<title>Node16</title>
<g id="a_Node000016"><a xlink:title=" ">
<polygon fill="#e0e0e0" stroke="#999999" points="852.38,-18.5 808.62,-18.5 808.62,0 852.38,0 852.38,-18.5"/>
<text text-anchor="middle" x="830.5" y="-5" font-family="Helvetica,sans-Serif" font-size="10.00">QUuid</text>
</a>
</g>
</g>
<!-- Node14&#45;&gt;Node16 -->
<g id="edge17_Node000014_Node000016" class="edge">
<title>Node14&#45;&gt;Node16</title>
<g id="a_edge17_Node000014_Node000016"><a xlink:title=" ">
<path fill="none" stroke="#63b8ff" d="M876.73,-54.02C868.06,-45.81 857.05,-35.38 847.95,-26.77"/>
<polygon fill="#63b8ff" stroke="#63b8ff" points="850.41,-24.28 840.74,-19.94 845.6,-29.36 850.41,-24.28"/>
</a>
</g>
</g>
<!-- Node17&#45;&gt;Node3 -->
<g id="edge19_Node000017_Node000003" class="edge">
<title>Node17&#45;&gt;Node3</title>
<g id="a_edge19_Node000017_Node000003"><a xlink:title=" ">
<path fill="none" stroke="#63b8ff" d="M708.34,-54.02C697.24,-45.47 683.01,-34.51 671.57,-25.7"/>
<polygon fill="#63b8ff" stroke="#63b8ff" points="674,-23.15 663.94,-19.83 669.73,-28.7 674,-23.15"/>
</a>
</g>
</g>
<!-- Node19 -->
<g id="Node000019" class="node">
<title>Node19</title>
<g id="a_Node000019"><a xlink:title=" ">
<polygon fill="#e0e0e0" stroke="#999999" points="1135.62,-18.5 1081.38,-18.5 1081.38,0 1135.62,0 1135.62,-18.5"/>
<text text-anchor="middle" x="1108.5" y="-5" font-family="Helvetica,sans-Serif" font-size="10.00">QPointer</text>
</a>
</g>
</g>
<!-- Node18&#45;&gt;Node19 -->
<g id="edge21_Node000018_Node000019" class="edge">
<title>Node18&#45;&gt;Node19</title>
<g id="a_edge21_Node000018_Node000019"><a xlink:title=" ">
<path fill="none" stroke="#63b8ff" d="M1057.72,-54.02C1067.44,-45.64 1079.85,-34.95 1089.96,-26.23"/>
<polygon fill="#63b8ff" stroke="#63b8ff" points="1092.02,-29.07 1097.31,-19.89 1087.45,-23.77 1092.02,-29.07"/>
</a>
</g>
</g>
<!-- Node20 -->
<g id="Node000020" class="node">
<title>Node20</title>
<g id="a_Node000020"><a xlink:title=" ">
<polygon fill="#e0e0e0" stroke="#999999" points="1063,-18.5 990,-18.5 990,0 1063,0 1063,-18.5"/>
<text text-anchor="middle" x="1026.5" y="-5" font-family="Helvetica,sans-Serif" font-size="10.00">QWebSocket</text>
</a>
</g>
</g>
<!-- Node18&#45;&gt;Node20 -->
<g id="edge22_Node000018_Node000020" class="edge">
<title>Node18&#45;&gt;Node20</title>
<g id="a_edge22_Node000018_Node000020"><a xlink:title=" ">
<path fill="none" stroke="#63b8ff" d="M1037.87,-54.02C1035.98,-46.75 1033.64,-37.74 1031.58,-29.79"/>
<polygon fill="#63b8ff" stroke="#63b8ff" points="1035.03,-29.17 1029.13,-20.37 1028.25,-30.93 1035.03,-29.17"/>
</a>
</g>
</g>
</g>
</svg>

<g id="navigator" transform="translate(0 0)" fill="#404254">
  <rect fill="#f2f5e9" fill-opacity="0.5" stroke="#606060" stroke-width=".5" x="0" y="0" width="60" height="60"/>
  <use id="zoomplus" xlink:href="#zoomPlus" x="17" y="9" onmousedown="handleZoom(evt,'in')"/>
  <use id="zoomminus" xlink:href="#zoomMin" x="42" y="9" onmousedown="handleZoom(evt,'out')"/>
  <use id="reset" xlink:href="#resetDef" x="30" y="36" onmousedown="handleReset()"/>
   <use id="arrowup" xlink:href="#arrowUp" x="0" y="0" onmousedown="handlePan(0,-1)"/>
  <use id="arrowright" xlink:href="#arrowRight" x="0" y="0" onmousedown="handlePan(1,0)"/>
  <use id="arrowdown" xlink:href="#arrowDown" x="0" y="0" onmousedown="handlePan(0,1)"/>
  <use id="arrowleft" xlink:href="#arrowLeft" x="0" y="0" onmousedown="handlePan(-1,0)"/>
</g>
<svg viewBox="0 0 15 15" width="100%" height="30px" preserveAspectRatio="xMaxYMin meet">
 <g id="arrow_out" transform="scale(0.3 0.3)">
  <a xlink:href="wavelength__creator_8cpp__incl_org.svg" target="_base">
   <rect id="button" ry="5" rx="5" y="6" x="6" height="38" width="38"
        fill="#f2f5e9" fill-opacity="0.5" stroke="#606060" stroke-width="1.0"/>
   <path id="arrow"
     d="M 11.500037,31.436501 C 11.940474,20.09759 22.043105,11.32322 32.158766,21.979434 L 37.068811,17.246167 C 37.068811,17.246167 37.088388,32 37.088388,32 L 22.160133,31.978069 C 22.160133,31.978069 26.997745,27.140456 26.997745,27.140456 C 18.528582,18.264221 13.291696,25.230495 11.500037,31.436501 z"
     style="fill:#404040;"/>
  </a>
 </g>
</svg>

<style type='text/css'>
<![CDATA[
[data-mouse-over-selected='false'] { opacity: 0.7; }
[data-mouse-over-selected='true']  { opacity: 1.0; }
]]>
</style>
<script type="application/ecmascript"><![CDATA[
document.addEventListener('DOMContentLoaded', (event) => {
  highlightEdges();
  highlightAdjacentNodes();
});
]]></script>
</svg>
