<?xml version="1.0" encoding="UTF-8" standalone="no"?>
<!DOCTYPE svg PUBLIC "-//W3C//DTD SVG 1.1//EN"
 "http://www.w3.org/Graphics/SVG/1.1/DTD/svg11.dtd">
<!-- Generated by graphviz version 12.2.1 (0)
 -->
<!-- Title: src/ui/settings/tabs/wavelength/wavelength_settings_widget.cpp Pages: 1 -->
<svg width="1188pt" height="167pt"
 viewBox="0.00 0.00 1188.12 167.00" xmlns="http://www.w3.org/2000/svg" xmlns:xlink="http://www.w3.org/1999/xlink">
<g id="graph0" class="graph" transform="scale(1 1) rotate(0) translate(4 163)">
<title>src/ui/settings/tabs/wavelength/wavelength_settings_widget.cpp</title>
<!-- Node1 -->
<g id="Node000001" class="node">
<title>Node1</title>
<g id="a_Node000001"><a xlink:title=" ">
<polygon fill="#999999" stroke="#666666" points="614.12,-159 496.12,-159 496.12,-119.5 614.12,-119.5 614.12,-159"/>
<text text-anchor="start" x="504.12" y="-145.5" font-family="Helvetica,sans-Serif" font-size="10.00">src/ui/settings/tabs</text>
<text text-anchor="start" x="504.12" y="-135" font-family="Helvetica,sans-Serif" font-size="10.00">/wavelength/wavelength</text>
<text text-anchor="middle" x="555.12" y="-124.5" font-family="Helvetica,sans-Serif" font-size="10.00">_settings_widget.cpp</text>
</a>
</g>
</g>
<!-- Node2 -->
<g id="Node000002" class="node">
<title>Node2</title>
<g id="a_Node000002"><a xlink:href="wavelength__settings__widget_8h.html" target="_top" xlink:title=" ">
<polygon fill="white" stroke="#666666" points="128,-83.5 24.25,-83.5 24.25,-54.5 128,-54.5 128,-83.5"/>
<text text-anchor="start" x="32.25" y="-70" font-family="Helvetica,sans-Serif" font-size="10.00">wavelength_settings</text>
<text text-anchor="middle" x="76.12" y="-59.5" font-family="Helvetica,sans-Serif" font-size="10.00">_widget.h</text>
</a>
</g>
</g>
<!-- Node1&#45;&gt;Node2 -->
<g id="edge1_Node000001_Node000002" class="edge">
<title>Node1&#45;&gt;Node2</title>
<g id="a_edge1_Node000001_Node000002"><a xlink:title=" ">
<path fill="none" stroke="#63b8ff" d="M495.67,-131.23C416.27,-121.63 271.31,-103.32 148.12,-83.5 145.32,-83.05 142.46,-82.57 139.58,-82.08"/>
<polygon fill="#63b8ff" stroke="#63b8ff" points="140.32,-78.66 129.86,-80.38 139.11,-85.56 140.32,-78.66"/>
</a>
</g>
</g>
<!-- Node4 -->
<g id="Node000004" class="node">
<title>Node4</title>
<g id="a_Node000004"><a xlink:href="wavelength__config_8h.html" target="_top" xlink:title=" ">
<polygon fill="white" stroke="#666666" points="275.5,-83.5 156.75,-83.5 156.75,-54.5 275.5,-54.5 275.5,-83.5"/>
<text text-anchor="start" x="164.75" y="-70" font-family="Helvetica,sans-Serif" font-size="10.00">../../../../app/wavelength</text>
<text text-anchor="middle" x="216.12" y="-59.5" font-family="Helvetica,sans-Serif" font-size="10.00">_config.h</text>
</a>
</g>
</g>
<!-- Node1&#45;&gt;Node4 -->
<g id="edge3_Node000001_Node000004" class="edge">
<title>Node1&#45;&gt;Node4</title>
<g id="a_edge3_Node000001_Node000004"><a xlink:title=" ">
<path fill="none" stroke="#63b8ff" d="M495.69,-126.28C437.5,-114.57 348.82,-96.72 287,-84.27"/>
<polygon fill="#63b8ff" stroke="#63b8ff" points="287.76,-80.85 277.26,-82.31 286.38,-87.71 287.76,-80.85"/>
</a>
</g>
</g>
<!-- Node8 -->
<g id="Node000008" class="node">
<title>Node8</title>
<g id="a_Node000008"><a xlink:title=" ">
<polygon fill="#e0e0e0" stroke="#999999" points="365.62,-18.5 316.62,-18.5 316.62,0 365.62,0 365.62,-18.5"/>
<text text-anchor="middle" x="341.12" y="-5" font-family="Helvetica,sans-Serif" font-size="10.00">QString</text>
</a>
</g>
</g>
<!-- Node1&#45;&gt;Node8 -->
<g id="edge13_Node000001_Node000008" class="edge">
<title>Node1&#45;&gt;Node8</title>
<g id="a_edge13_Node000001_Node000008"><a xlink:title=" ">
<path fill="none" stroke="#63b8ff" d="M495.8,-132.6C434.05,-125.35 343.41,-110.37 322.12,-83.5 309.54,-67.62 319.02,-44.29 328.54,-28.25"/>
<polygon fill="#63b8ff" stroke="#63b8ff" points="331.26,-30.48 333.75,-20.18 325.38,-26.68 331.26,-30.48"/>
</a>
</g>
</g>
<!-- Node9 -->
<g id="Node000009" class="node">
<title>Node9</title>
<g id="a_Node000009"><a xlink:title=" ">
<polygon fill="#e0e0e0" stroke="#999999" points="377.5,-78.25 330.75,-78.25 330.75,-59.75 377.5,-59.75 377.5,-78.25"/>
<text text-anchor="middle" x="354.12" y="-64.75" font-family="Helvetica,sans-Serif" font-size="10.00">QLabel</text>
</a>
</g>
</g>
<!-- Node1&#45;&gt;Node9 -->
<g id="edge8_Node000001_Node000009" class="edge">
<title>Node1&#45;&gt;Node9</title>
<g id="a_edge8_Node000001_Node000009"><a xlink:title=" ">
<path fill="none" stroke="#63b8ff" d="M495.67,-120.04C463.37,-109.86 422.84,-96.6 387.12,-83.5 386.49,-83.27 385.85,-83.03 385.2,-82.79"/>
<polygon fill="#63b8ff" stroke="#63b8ff" points="386.63,-79.59 376.04,-79.21 384.08,-86.11 386.63,-79.59"/>
</a>
</g>
</g>
<!-- Node10 -->
<g id="Node000010" class="node">
<title>Node10</title>
<g id="a_Node000010"><a xlink:title=" ">
<polygon fill="#e0e0e0" stroke="#999999" points="454.5,-78.25 395.75,-78.25 395.75,-59.75 454.5,-59.75 454.5,-78.25"/>
<text text-anchor="middle" x="425.12" y="-64.75" font-family="Helvetica,sans-Serif" font-size="10.00">QLineEdit</text>
</a>
</g>
</g>
<!-- Node1&#45;&gt;Node10 -->
<g id="edge9_Node000001_Node000010" class="edge">
<title>Node1&#45;&gt;Node10</title>
<g id="a_edge9_Node000001_Node000010"><a xlink:title=" ">
<path fill="none" stroke="#63b8ff" d="M518.57,-119.06C497.37,-107.93 471.16,-94.17 451.89,-84.05"/>
<polygon fill="#63b8ff" stroke="#63b8ff" points="453.53,-80.96 443.05,-79.41 450.28,-87.16 453.53,-80.96"/>
</a>
</g>
</g>
<!-- Node11 -->
<g id="Node000011" class="node">
<title>Node11</title>
<g id="a_Node000011"><a xlink:title=" ">
<polygon fill="#e0e0e0" stroke="#999999" points="545.25,-78.25 473,-78.25 473,-59.75 545.25,-59.75 545.25,-78.25"/>
<text text-anchor="middle" x="509.12" y="-64.75" font-family="Helvetica,sans-Serif" font-size="10.00">QComboBox</text>
</a>
</g>
</g>
<!-- Node1&#45;&gt;Node11 -->
<g id="edge10_Node000001_Node000011" class="edge">
<title>Node1&#45;&gt;Node11</title>
<g id="a_edge10_Node000001_Node000011"><a xlink:title=" ">
<path fill="none" stroke="#63b8ff" d="M542.31,-119.24C535.67,-109.39 527.62,-97.44 521.11,-87.77"/>
<polygon fill="#63b8ff" stroke="#63b8ff" points="524.12,-85.99 515.63,-79.65 518.32,-89.9 524.12,-85.99"/>
</a>
</g>
</g>
<!-- Node12 -->
<g id="Node000012" class="node">
<title>Node12</title>
<g id="a_Node000012"><a xlink:title=" ">
<polygon fill="#e0e0e0" stroke="#999999" points="639.12,-78.25 563.12,-78.25 563.12,-59.75 639.12,-59.75 639.12,-78.25"/>
<text text-anchor="middle" x="601.12" y="-64.75" font-family="Helvetica,sans-Serif" font-size="10.00">QVBoxLayout</text>
</a>
</g>
</g>
<!-- Node1&#45;&gt;Node12 -->
<g id="edge11_Node000001_Node000012" class="edge">
<title>Node1&#45;&gt;Node12</title>
<g id="a_edge11_Node000001_Node000012"><a xlink:title=" ">
<path fill="none" stroke="#63b8ff" d="M567.94,-119.24C574.58,-109.39 582.63,-97.44 589.14,-87.77"/>
<polygon fill="#63b8ff" stroke="#63b8ff" points="591.93,-89.9 594.62,-79.65 586.13,-85.99 591.93,-89.9"/>
</a>
</g>
</g>
<!-- Node13 -->
<g id="Node000013" class="node">
<title>Node13</title>
<g id="a_Node000013"><a xlink:title=" ">
<polygon fill="#e0e0e0" stroke="#999999" points="731.38,-78.25 656.88,-78.25 656.88,-59.75 731.38,-59.75 731.38,-78.25"/>
<text text-anchor="middle" x="694.12" y="-64.75" font-family="Helvetica,sans-Serif" font-size="10.00">QFormLayout</text>
</a>
</g>
</g>
<!-- Node1&#45;&gt;Node13 -->
<g id="edge12_Node000001_Node000013" class="edge">
<title>Node1&#45;&gt;Node13</title>
<g id="a_edge12_Node000001_Node000013"><a xlink:title=" ">
<path fill="none" stroke="#63b8ff" d="M594.21,-119.06C617.08,-107.83 645.43,-93.91 666.08,-83.77"/>
<polygon fill="#63b8ff" stroke="#63b8ff" points="667.6,-86.93 675.03,-79.38 664.51,-80.64 667.6,-86.93"/>
</a>
</g>
</g>
<!-- Node14 -->
<g id="Node000014" class="node">
<title>Node14</title>
<g id="a_Node000014"><a xlink:title=" ">
<polygon fill="#e0e0e0" stroke="#999999" points="841,-78.25 749.25,-78.25 749.25,-59.75 841,-59.75 841,-78.25"/>
<text text-anchor="middle" x="795.12" y="-64.75" font-family="Helvetica,sans-Serif" font-size="10.00">QDoubleValidator</text>
</a>
</g>
</g>
<!-- Node1&#45;&gt;Node14 -->
<g id="edge14_Node000001_Node000014" class="edge">
<title>Node1&#45;&gt;Node14</title>
<g id="a_edge14_Node000001_Node000014"><a xlink:title=" ">
<path fill="none" stroke="#63b8ff" d="M614.45,-121.38C657.79,-109.06 715.44,-92.66 753.85,-81.74"/>
<polygon fill="#63b8ff" stroke="#63b8ff" points="754.51,-85.19 763.17,-79.09 752.6,-78.46 754.51,-85.19"/>
</a>
</g>
</g>
<!-- Node15 -->
<g id="Node000015" class="node">
<title>Node15</title>
<g id="a_Node000015"><a xlink:title=" ">
<polygon fill="#e0e0e0" stroke="#999999" points="939.38,-78.25 858.88,-78.25 858.88,-59.75 939.38,-59.75 939.38,-78.25"/>
<text text-anchor="middle" x="899.12" y="-64.75" font-family="Helvetica,sans-Serif" font-size="10.00">QMessageBox</text>
</a>
</g>
</g>
<!-- Node1&#45;&gt;Node15 -->
<g id="edge15_Node000001_Node000015" class="edge">
<title>Node1&#45;&gt;Node15</title>
<g id="a_edge15_Node000001_Node000015"><a xlink:title=" ">
<path fill="none" stroke="#63b8ff" d="M614.48,-128.77C674.27,-118.85 769.03,-102.16 850.12,-83.5 852.74,-82.9 855.42,-82.25 858.12,-81.57"/>
<polygon fill="#63b8ff" stroke="#63b8ff" points="858.91,-84.98 867.7,-79.07 857.14,-78.21 858.91,-84.98"/>
</a>
</g>
</g>
<!-- Node16 -->
<g id="Node000016" class="node">
<title>Node16</title>
<g id="a_Node000016"><a xlink:title=" ">
<polygon fill="#e0e0e0" stroke="#999999" points="1009.12,-78.25 957.12,-78.25 957.12,-59.75 1009.12,-59.75 1009.12,-78.25"/>
<text text-anchor="middle" x="983.12" y="-64.75" font-family="Helvetica,sans-Serif" font-size="10.00">QLocale</text>
</a>
</g>
</g>
<!-- Node1&#45;&gt;Node16 -->
<g id="edge16_Node000001_Node000016" class="edge">
<title>Node1&#45;&gt;Node16</title>
<g id="a_edge16_Node000001_Node000016"><a xlink:title=" ">
<path fill="none" stroke="#63b8ff" d="M614.54,-134.24C692.23,-128.03 832.08,-113.54 948.12,-83.5 949.51,-83.14 950.91,-82.75 952.32,-82.32"/>
<polygon fill="#63b8ff" stroke="#63b8ff" points="953.27,-85.7 961.59,-79.15 951,-79.07 953.27,-85.7"/>
</a>
</g>
</g>
<!-- Node17 -->
<g id="Node000017" class="node">
<title>Node17</title>
<g id="a_Node000017"><a xlink:href="translation__manager_8h.html" target="_top" xlink:title=" ">
<polygon fill="white" stroke="#666666" points="1142.62,-83.5 1027.62,-83.5 1027.62,-54.5 1142.62,-54.5 1142.62,-83.5"/>
<text text-anchor="start" x="1035.62" y="-70" font-family="Helvetica,sans-Serif" font-size="10.00">../../../../app/managers</text>
<text text-anchor="middle" x="1085.12" y="-59.5" font-family="Helvetica,sans-Serif" font-size="10.00">/translation_manager.h</text>
</a>
</g>
</g>
<!-- Node1&#45;&gt;Node17 -->
<g id="edge17_Node000001_Node000017" class="edge">
<title>Node1&#45;&gt;Node17</title>
<g id="a_edge17_Node000001_Node000017"><a xlink:title=" ">
<path fill="none" stroke="#63b8ff" d="M614.54,-132.78C700.7,-124.51 865.55,-107.39 1016.16,-83.72"/>
<polygon fill="#63b8ff" stroke="#63b8ff" points="1016.61,-87.19 1025.94,-82.17 1015.52,-80.28 1016.61,-87.19"/>
</a>
</g>
</g>
<!-- Node3 -->
<g id="Node000003" class="node">
<title>Node3</title>
<g id="a_Node000003"><a xlink:title=" ">
<polygon fill="#e0e0e0" stroke="#999999" points="54.25,-18.5 0,-18.5 0,0 54.25,0 54.25,-18.5"/>
<text text-anchor="middle" x="27.12" y="-5" font-family="Helvetica,sans-Serif" font-size="10.00">QWidget</text>
</a>
</g>
</g>
<!-- Node2&#45;&gt;Node3 -->
<g id="edge2_Node000002_Node000003" class="edge">
<title>Node2&#45;&gt;Node3</title>
<g id="a_edge2_Node000002_Node000003"><a xlink:title=" ">
<path fill="none" stroke="#63b8ff" d="M64.26,-54.02C57.51,-46.07 49,-36.03 41.83,-27.58"/>
<polygon fill="#63b8ff" stroke="#63b8ff" points="44.59,-25.42 35.45,-20.06 39.25,-29.95 44.59,-25.42"/>
</a>
</g>
</g>
<!-- Node5 -->
<g id="Node000005" class="node">
<title>Node5</title>
<g id="a_Node000005"><a xlink:title=" ">
<polygon fill="#e0e0e0" stroke="#999999" points="119.5,-18.5 72.75,-18.5 72.75,0 119.5,0 119.5,-18.5"/>
<text text-anchor="middle" x="96.12" y="-5" font-family="Helvetica,sans-Serif" font-size="10.00">QColor</text>
</a>
</g>
</g>
<!-- Node4&#45;&gt;Node5 -->
<g id="edge4_Node000004_Node000005" class="edge">
<title>Node4&#45;&gt;Node5</title>
<g id="a_edge4_Node000004_Node000005"><a xlink:title=" ">
<path fill="none" stroke="#63b8ff" d="M187.08,-54.02C168.06,-44.87 143.33,-32.97 124.45,-23.88"/>
<polygon fill="#63b8ff" stroke="#63b8ff" points="126,-20.74 115.47,-19.56 122.96,-27.05 126,-20.74"/>
</a>
</g>
</g>
<!-- Node6 -->
<g id="Node000006" class="node">
<title>Node6</title>
<g id="a_Node000006"><a xlink:title=" ">
<polygon fill="#e0e0e0" stroke="#999999" points="220.88,-18.5 137.38,-18.5 137.38,0 220.88,0 220.88,-18.5"/>
<text text-anchor="middle" x="179.12" y="-5" font-family="Helvetica,sans-Serif" font-size="10.00">QKeySequence</text>
</a>
</g>
</g>
<!-- Node4&#45;&gt;Node6 -->
<g id="edge5_Node000004_Node000006" class="edge">
<title>Node4&#45;&gt;Node6</title>
<g id="a_edge5_Node000004_Node000006"><a xlink:title=" ">
<path fill="none" stroke="#63b8ff" d="M207.17,-54.02C202.24,-46.32 196.06,-36.68 190.76,-28.4"/>
<polygon fill="#63b8ff" stroke="#63b8ff" points="193.83,-26.71 185.49,-20.18 187.93,-30.49 193.83,-26.71"/>
</a>
</g>
</g>
<!-- Node7 -->
<g id="Node000007" class="node">
<title>Node7</title>
<g id="a_Node000007"><a xlink:title=" ">
<polygon fill="#e0e0e0" stroke="#999999" points="298.88,-18.5 239.38,-18.5 239.38,0 298.88,0 298.88,-18.5"/>
<text text-anchor="middle" x="269.12" y="-5" font-family="Helvetica,sans-Serif" font-size="10.00">QSettings</text>
</a>
</g>
</g>
<!-- Node4&#45;&gt;Node7 -->
<g id="edge6_Node000004_Node000007" class="edge">
<title>Node4&#45;&gt;Node7</title>
<g id="a_edge6_Node000004_Node000007"><a xlink:title=" ">
<path fill="none" stroke="#63b8ff" d="M228.95,-54.02C236.33,-45.98 245.66,-35.82 253.47,-27.31"/>
<polygon fill="#63b8ff" stroke="#63b8ff" points="255.98,-29.75 260.16,-20.02 250.82,-25.02 255.98,-29.75"/>
</a>
</g>
</g>
<!-- Node4&#45;&gt;Node8 -->
<g id="edge7_Node000004_Node000008" class="edge">
<title>Node4&#45;&gt;Node8</title>
<g id="a_edge7_Node000004_Node000008"><a xlink:title=" ">
<path fill="none" stroke="#63b8ff" d="M246.38,-54.02C266.38,-44.78 292.44,-32.74 312.17,-23.63"/>
<polygon fill="#63b8ff" stroke="#63b8ff" points="313.41,-26.91 321.02,-19.54 310.47,-20.56 313.41,-26.91"/>
</a>
</g>
</g>
<!-- Node18 -->
<g id="Node000018" class="node">
<title>Node18</title>
<g id="a_Node000018"><a xlink:title=" ">
<polygon fill="#e0e0e0" stroke="#999999" points="1041.62,-18.5 968.62,-18.5 968.62,0 1041.62,0 1041.62,-18.5"/>
<text text-anchor="middle" x="1005.12" y="-5" font-family="Helvetica,sans-Serif" font-size="10.00">QJsonObject</text>
</a>
</g>
</g>
<!-- Node17&#45;&gt;Node18 -->
<g id="edge18_Node000017_Node000018" class="edge">
<title>Node17&#45;&gt;Node18</title>
<g id="a_edge18_Node000017_Node000018"><a xlink:title=" ">
<path fill="none" stroke="#63b8ff" d="M1065.76,-54.02C1053.79,-45.38 1038.43,-34.29 1026.16,-25.44"/>
<polygon fill="#63b8ff" stroke="#63b8ff" points="1028.5,-22.8 1018.34,-19.79 1024.4,-28.48 1028.5,-22.8"/>
</a>
</g>
</g>
<!-- Node19 -->
<g id="Node000019" class="node">
<title>Node19</title>
<g id="a_Node000019"><a xlink:title=" ">
<polygon fill="#e0e0e0" stroke="#999999" points="1110.38,-18.5 1059.88,-18.5 1059.88,0 1110.38,0 1110.38,-18.5"/>
<text text-anchor="middle" x="1085.12" y="-5" font-family="Helvetica,sans-Serif" font-size="10.00">QMutex</text>
</a>
</g>
</g>
<!-- Node17&#45;&gt;Node19 -->
<g id="edge19_Node000017_Node000019" class="edge">
<title>Node17&#45;&gt;Node19</title>
<g id="a_edge19_Node000017_Node000019"><a xlink:title=" ">
<path fill="none" stroke="#63b8ff" d="M1085.12,-54.02C1085.12,-46.92 1085.12,-38.17 1085.12,-30.36"/>
<polygon fill="#63b8ff" stroke="#63b8ff" points="1088.63,-30.42 1085.13,-20.42 1081.63,-30.42 1088.63,-30.42"/>
</a>
</g>
</g>
<!-- Node20 -->
<g id="Node000020" class="node">
<title>Node20</title>
<g id="a_Node000020"><a xlink:title=" ">
<polygon fill="#e0e0e0" stroke="#999999" points="1180.12,-18.5 1128.12,-18.5 1128.12,0 1180.12,0 1180.12,-18.5"/>
<text text-anchor="middle" x="1154.12" y="-5" font-family="Helvetica,sans-Serif" font-size="10.00">QObject</text>
</a>
</g>
</g>
<!-- Node17&#45;&gt;Node20 -->
<g id="edge20_Node000017_Node000020" class="edge">
<title>Node17&#45;&gt;Node20</title>
<g id="a_edge20_Node000017_Node000020"><a xlink:title=" ">
<path fill="none" stroke="#63b8ff" d="M1101.83,-54.02C1111.84,-45.64 1124.62,-34.95 1135.03,-26.23"/>
<polygon fill="#63b8ff" stroke="#63b8ff" points="1137.2,-28.98 1142.63,-19.87 1132.71,-23.61 1137.2,-28.98"/>
</a>
</g>
</g>
</g>
</svg>
