<?xml version="1.0" encoding="UTF-8" standalone="no"?>
<!DOCTYPE svg PUBLIC "-//W3C//DTD SVG 1.1//EN"
 "http://www.w3.org/Graphics/SVG/1.1/DTD/svg11.dtd">
<!-- Generated by graphviz version 12.2.1 (0)
 -->
<!-- Title: src/app/wavelength_config.h Pages: 1 -->
<!--zoomable 113 -->

<svg id="main" version="1.1" xmlns="http://www.w3.org/2000/svg" xmlns:xlink="http://www.w3.org/1999/xlink" xml:space="preserve" onload="init(evt)">

<style type="text/css"><![CDATA[
.node, .edge {opacity: 0.7;}
.node.selected, .edge.selected {opacity: 1;}
.edge:hover path { stroke: red; }
.edge:hover polygon { stroke: red; fill: red; }
]]></style>

<defs>
  <circle id="rim" cx="0" cy="0" r="7"/>
  <circle id="rim2" cx="0" cy="0" r="3.5"/>
  <g id="zoomPlus">
    <use xlink:href="#rim" fill="#404040"><set attributeName="fill" to="#808080" begin="zoomplus.mouseover" end="zoomplus.mouseout"/></use>
    <path d="M-4,0h8M0,-4v8" fill="none" stroke="white" stroke-width="1.5" pointer-events="none"/>
  </g>
  <g id="zoomMin">
    <use xlink:href="#rim" fill="#404040"><set attributeName="fill" to="#808080" begin="zoomminus.mouseover" end="zoomminus.mouseout"/></use>
    <path d="M-4,0h8" fill="none" stroke="white" stroke-width="1.5" pointer-events="none"/>
  </g>
  <g id="arrowUp" transform="translate(30 24)">
    <use xlink:href="#rim"/>
    <path pointer-events="none" fill="none" stroke="white" stroke-width="1.5" d="M0,-3.0v7 M-2.5,-0.5L0,-3.0L2.5,-0.5"/>
  </g>
  <g id="arrowRight" transform="rotate(90) translate(36 -43)">
    <use xlink:href="#rim"/>
    <path pointer-events="none" fill="none" stroke="white" stroke-width="1.5" d="M0,-3.0v7 M-2.5,-0.5L0,-3.0L2.5,-0.5"/>
  </g>
  <g id="arrowDown" transform="rotate(180) translate(-30 -48)">
    <use xlink:href="#rim"/>
    <path pointer-events="none" fill="none" stroke="white" stroke-width="1.5" d="M0,-3.0v7 M-2.5,-0.5L0,-3.0L2.5,-0.5"/>
  </g>
  <g id="arrowLeft" transform="rotate(270) translate(-36 17)">
    <use xlink:href="#rim"/>
    <path pointer-events="none" fill="none" stroke="white" stroke-width="1.5" d="M0,-3.0v7 M-2.5,-0.5L0,-3.0L2.5,-0.5"/>
  </g>
  <g id="resetDef">
    <use xlink:href="#rim2" fill="#404040"><set attributeName="fill" to="#808080" begin="reset.mouseover" end="reset.mouseout"/></use>
  </g>
</defs>
<script type="application/ecmascript">
var viewWidth = 1730;
var viewHeight = 113;
var sectionId = 'dynsection-1';
</script>
<script type="application/ecmascript" xlink:href="svg.min.js"/>
<svg id="graph" class="graph">
<g id="viewport">
<title>src/app/wavelength_config.h</title>
<!-- Node1 -->
<g id="Node000001" class="node">
<title>Node1</title>
<g id="a_Node000001"><a xlink:title=" ">
<polygon fill="#999999" stroke="#666666" points="893.5,-104.5 794.25,-104.5 794.25,-75.5 893.5,-75.5 893.5,-104.5"/>
<text text-anchor="start" x="802.25" y="-91" font-family="Helvetica,sans-Serif" font-size="10.00">src/app/wavelength</text>
<text text-anchor="middle" x="843.88" y="-80.5" font-family="Helvetica,sans-Serif" font-size="10.00">_config.h</text>
</a>
</g>
</g>
<!-- Node2 -->
<g id="Node000002" class="node">
<title>Node2</title>
<g id="a_Node000002"><a xlink:href="shortcut__manager_8cpp.html" target="_top" xlink:title=" ">
<polygon fill="white" stroke="#666666" points="133.75,-34.25 0,-34.25 0,-5.25 133.75,-5.25 133.75,-34.25"/>
<text text-anchor="start" x="8" y="-20.75" font-family="Helvetica,sans-Serif" font-size="10.00">src/app/managers/shortcut</text>
<text text-anchor="middle" x="66.88" y="-10.25" font-family="Helvetica,sans-Serif" font-size="10.00">_manager.cpp</text>
</a>
</g>
</g>
<!-- Node1&#45;&gt;Node2 -->
<g id="edge1_Node000001_Node000002" class="edge">
<title>Node1&#45;&gt;Node2</title>
<g id="a_edge1_Node000001_Node000002"><a xlink:title=" ">
<path fill="none" stroke="#63b8ff" d="M782.48,-88.19C660.08,-85.81 377.26,-76.41 142.88,-39.5 134.82,-38.23 126.37,-36.53 118.14,-34.66"/>
<polygon fill="#63b8ff" stroke="#63b8ff" points="782.25,-91.69 792.31,-88.37 782.38,-84.69 782.25,-91.69"/>
</a>
</g>
</g>
<!-- Node3 -->
<g id="Node000003" class="node">
<title>Node3</title>
<g id="a_Node000003"><a xlink:href="wavelength__config_8cpp.html" target="_top" xlink:title=" ">
<polygon fill="white" stroke="#666666" points="251.5,-34.25 152.25,-34.25 152.25,-5.25 251.5,-5.25 251.5,-34.25"/>
<text text-anchor="start" x="160.25" y="-20.75" font-family="Helvetica,sans-Serif" font-size="10.00">src/app/wavelength</text>
<text text-anchor="middle" x="201.88" y="-10.25" font-family="Helvetica,sans-Serif" font-size="10.00">_config.cpp</text>
</a>
</g>
</g>
<!-- Node1&#45;&gt;Node3 -->
<g id="edge2_Node000001_Node000003" class="edge">
<title>Node1&#45;&gt;Node3</title>
<g id="a_edge2_Node000001_Node000003"><a xlink:title=" ">
<path fill="none" stroke="#63b8ff" d="M782.92,-88.39C675.97,-86.31 448.03,-77.37 259.88,-39.5 253.65,-38.25 247.16,-36.55 240.86,-34.69"/>
<polygon fill="#63b8ff" stroke="#63b8ff" points="782.54,-91.88 792.6,-88.56 782.67,-84.88 782.54,-91.88"/>
</a>
</g>
</g>
<!-- Node4 -->
<g id="Node000004" class="node">
<title>Node4</title>
<g id="a_Node000004"><a xlink:href="blob__animation_8cpp.html" target="_top" xlink:title=" ">
<polygon fill="white" stroke="#666666" points="362.5,-34.25 269.25,-34.25 269.25,-5.25 362.5,-5.25 362.5,-34.25"/>
<text text-anchor="start" x="277.25" y="-20.75" font-family="Helvetica,sans-Serif" font-size="10.00">src/blob/core/blob</text>
<text text-anchor="middle" x="315.88" y="-10.25" font-family="Helvetica,sans-Serif" font-size="10.00">_animation.cpp</text>
</a>
</g>
</g>
<!-- Node1&#45;&gt;Node4 -->
<g id="edge3_Node000001_Node000004" class="edge">
<title>Node1&#45;&gt;Node4</title>
<g id="a_edge3_Node000001_Node000004"><a xlink:title=" ">
<path fill="none" stroke="#63b8ff" d="M782.62,-86.85C691.95,-82.7 517.09,-71.03 371.88,-39.5 365.96,-38.22 359.8,-36.53 353.82,-34.69"/>
<polygon fill="#63b8ff" stroke="#63b8ff" points="782.39,-90.34 792.53,-87.28 782.7,-83.35 782.39,-90.34"/>
</a>
</g>
</g>
<!-- Node5 -->
<g id="Node000005" class="node">
<title>Node5</title>
<g id="a_Node000005"><a xlink:href="wavelength__creator_8cpp.html" target="_top" xlink:title=" ">
<polygon fill="white" stroke="#666666" points="480.88,-39.5 380.88,-39.5 380.88,0 480.88,0 480.88,-39.5"/>
<text text-anchor="start" x="388.88" y="-26" font-family="Helvetica,sans-Serif" font-size="10.00">src/session/events</text>
<text text-anchor="start" x="388.88" y="-15.5" font-family="Helvetica,sans-Serif" font-size="10.00">/creator/wavelength</text>
<text text-anchor="middle" x="430.88" y="-5" font-family="Helvetica,sans-Serif" font-size="10.00">_creator.cpp</text>
</a>
</g>
</g>
<!-- Node1&#45;&gt;Node5 -->
<g id="edge4_Node000001_Node000005" class="edge">
<title>Node1&#45;&gt;Node5</title>
<g id="a_edge4_Node000001_Node000005"><a xlink:title=" ">
<path fill="none" stroke="#63b8ff" d="M782.46,-83.59C711.41,-76.6 591.2,-62.51 489.88,-39.5 487.05,-38.86 484.16,-38.14 481.25,-37.38"/>
<polygon fill="#63b8ff" stroke="#63b8ff" points="782.06,-87.07 792.35,-84.54 782.73,-80.1 782.06,-87.07"/>
</a>
</g>
</g>
<!-- Node6 -->
<g id="Node000006" class="node">
<title>Node6</title>
<g id="a_Node000006"><a xlink:href="wavelength__joiner_8cpp.html" target="_top" xlink:title=" ">
<polygon fill="white" stroke="#666666" points="639.12,-34.25 498.62,-34.25 498.62,-5.25 639.12,-5.25 639.12,-34.25"/>
<text text-anchor="start" x="506.62" y="-20.75" font-family="Helvetica,sans-Serif" font-size="10.00">src/session/events</text>
<text text-anchor="middle" x="568.88" y="-10.25" font-family="Helvetica,sans-Serif" font-size="10.00">/joiner/wavelength_joiner.cpp</text>
</a>
</g>
</g>
<!-- Node1&#45;&gt;Node6 -->
<g id="edge5_Node000001_Node000006" class="edge">
<title>Node1&#45;&gt;Node6</title>
<g id="a_edge5_Node000001_Node000006"><a xlink:title=" ">
<path fill="none" stroke="#63b8ff" d="M782.75,-73.83C735.52,-62.11 670.68,-46.02 624.8,-34.63"/>
<polygon fill="#63b8ff" stroke="#63b8ff" points="781.74,-77.18 792.29,-76.2 783.42,-70.39 781.74,-77.18"/>
</a>
</g>
</g>
<!-- Node7 -->
<g id="Node000007" class="node">
<title>Node7</title>
<g id="a_Node000007"><a xlink:href="session__coordinator_8cpp.html" target="_top" xlink:title=" ">
<polygon fill="white" stroke="#666666" points="760.38,-34.25 657.38,-34.25 657.38,-5.25 760.38,-5.25 760.38,-34.25"/>
<text text-anchor="start" x="665.38" y="-20.75" font-family="Helvetica,sans-Serif" font-size="10.00">src/session/session</text>
<text text-anchor="middle" x="708.88" y="-10.25" font-family="Helvetica,sans-Serif" font-size="10.00">_coordinator.cpp</text>
</a>
</g>
</g>
<!-- Node1&#45;&gt;Node7 -->
<g id="edge6_Node000001_Node000007" class="edge">
<title>Node1&#45;&gt;Node7</title>
<g id="a_edge6_Node000001_Node000007"><a xlink:title=" ">
<path fill="none" stroke="#63b8ff" d="M806.17,-69.94C784.05,-58.76 756.59,-44.87 736.48,-34.71"/>
<polygon fill="#63b8ff" stroke="#63b8ff" points="804.38,-72.95 814.88,-74.34 807.53,-66.71 804.38,-72.95"/>
</a>
</g>
</g>
<!-- Node8 -->
<g id="Node000008" class="node">
<title>Node8</title>
<g id="a_Node000008"><a xlink:href="communication__stream_8cpp.html" target="_top" xlink:title=" ">
<polygon fill="white" stroke="#666666" points="909.25,-34.25 778.5,-34.25 778.5,-5.25 909.25,-5.25 909.25,-34.25"/>
<text text-anchor="start" x="786.5" y="-20.75" font-family="Helvetica,sans-Serif" font-size="10.00">src/ui/chat/communication</text>
<text text-anchor="middle" x="843.88" y="-10.25" font-family="Helvetica,sans-Serif" font-size="10.00">_stream.cpp</text>
</a>
</g>
</g>
<!-- Node1&#45;&gt;Node8 -->
<g id="edge7_Node000001_Node000008" class="edge">
<title>Node1&#45;&gt;Node8</title>
<g id="a_edge7_Node000001_Node000008"><a xlink:title=" ">
<path fill="none" stroke="#63b8ff" d="M843.88,-63.88C843.88,-53.97 843.88,-42.95 843.88,-34.54"/>
<polygon fill="#63b8ff" stroke="#63b8ff" points="840.38,-63.68 843.88,-73.68 847.38,-63.68 840.38,-63.68"/>
</a>
</g>
</g>
<!-- Node9 -->
<g id="Node000009" class="node">
<title>Node9</title>
<g id="a_Node000009"><a xlink:href="create__wavelength__dialog_8cpp.html" target="_top" xlink:title=" ">
<polygon fill="white" stroke="#666666" points="1046.25,-34.25 927.5,-34.25 927.5,-5.25 1046.25,-5.25 1046.25,-34.25"/>
<text text-anchor="start" x="935.5" y="-20.75" font-family="Helvetica,sans-Serif" font-size="10.00">src/ui/dialogs/create</text>
<text text-anchor="middle" x="986.88" y="-10.25" font-family="Helvetica,sans-Serif" font-size="10.00">_wavelength_dialog.cpp</text>
</a>
</g>
</g>
<!-- Node1&#45;&gt;Node9 -->
<g id="edge8_Node000001_Node000009" class="edge">
<title>Node1&#45;&gt;Node9</title>
<g id="a_edge8_Node000001_Node000009"><a xlink:title=" ">
<path fill="none" stroke="#63b8ff" d="M883.49,-70.09C906.98,-58.88 936.24,-44.92 957.63,-34.71"/>
<polygon fill="#63b8ff" stroke="#63b8ff" points="882.04,-66.91 874.52,-74.37 885.06,-73.22 882.04,-66.91"/>
</a>
</g>
</g>
<!-- Node10 -->
<g id="Node000010" class="node">
<title>Node10</title>
<g id="a_Node000010"><a xlink:href="appearance__settings__widget_8cpp.html" target="_top" xlink:title=" ">
<polygon fill="white" stroke="#666666" points="1187.12,-39.5 1064.62,-39.5 1064.62,0 1187.12,0 1187.12,-39.5"/>
<text text-anchor="start" x="1072.62" y="-26" font-family="Helvetica,sans-Serif" font-size="10.00">src/ui/settings/tabs</text>
<text text-anchor="start" x="1072.62" y="-15.5" font-family="Helvetica,sans-Serif" font-size="10.00">/appearance/appearance</text>
<text text-anchor="middle" x="1125.88" y="-5" font-family="Helvetica,sans-Serif" font-size="10.00">_settings_widget.cpp</text>
</a>
</g>
</g>
<!-- Node1&#45;&gt;Node10 -->
<g id="edge9_Node000001_Node000010" class="edge">
<title>Node1&#45;&gt;Node10</title>
<g id="a_edge9_Node000001_Node000010"><a xlink:title=" ">
<path fill="none" stroke="#63b8ff" d="M905.05,-75.12C947.23,-65.44 1004.54,-52.05 1054.88,-39.5 1057.97,-38.73 1061.13,-37.93 1064.33,-37.12"/>
<polygon fill="#63b8ff" stroke="#63b8ff" points="904.29,-71.7 895.32,-77.35 905.85,-78.53 904.29,-71.7"/>
</a>
</g>
</g>
<!-- Node11 -->
<g id="Node000011" class="node">
<title>Node11</title>
<g id="a_Node000011"><a xlink:href="network__settings__widget_8cpp.html" target="_top" xlink:title=" ">
<polygon fill="white" stroke="#666666" points="1336.25,-39.5 1205.5,-39.5 1205.5,0 1336.25,0 1336.25,-39.5"/>
<text text-anchor="start" x="1213.5" y="-26" font-family="Helvetica,sans-Serif" font-size="10.00">src/ui/settings/tabs</text>
<text text-anchor="start" x="1213.5" y="-15.5" font-family="Helvetica,sans-Serif" font-size="10.00">/network/network_settings</text>
<text text-anchor="middle" x="1270.88" y="-5" font-family="Helvetica,sans-Serif" font-size="10.00">_widget.cpp</text>
</a>
</g>
</g>
<!-- Node1&#45;&gt;Node11 -->
<g id="edge10_Node000001_Node000011" class="edge">
<title>Node1&#45;&gt;Node11</title>
<g id="a_edge10_Node000001_Node000011"><a xlink:title=" ">
<path fill="none" stroke="#63b8ff" d="M905.3,-82.35C975.81,-74.26 1094.74,-59.2 1195.88,-39.5 1198.91,-38.91 1202,-38.27 1205.11,-37.61"/>
<polygon fill="#63b8ff" stroke="#63b8ff" points="905.03,-78.86 895.49,-83.46 905.83,-85.81 905.03,-78.86"/>
</a>
</g>
</g>
<!-- Node12 -->
<g id="Node000012" class="node">
<title>Node12</title>
<g id="a_Node000012"><a xlink:href="shortcuts__settings__widget_8cpp.html" target="_top" xlink:title=" ">
<polygon fill="white" stroke="#666666" points="1461.62,-39.5 1354.12,-39.5 1354.12,0 1461.62,0 1461.62,-39.5"/>
<text text-anchor="start" x="1362.12" y="-26" font-family="Helvetica,sans-Serif" font-size="10.00">src/ui/settings/tabs</text>
<text text-anchor="start" x="1362.12" y="-15.5" font-family="Helvetica,sans-Serif" font-size="10.00">/shortcuts/shortcuts</text>
<text text-anchor="middle" x="1407.88" y="-5" font-family="Helvetica,sans-Serif" font-size="10.00">_settings_widget.cpp</text>
</a>
</g>
</g>
<!-- Node1&#45;&gt;Node12 -->
<g id="edge11_Node000001_Node000012" class="edge">
<title>Node1&#45;&gt;Node12</title>
<g id="a_edge11_Node000001_Node000012"><a xlink:title=" ">
<path fill="none" stroke="#63b8ff" d="M905.14,-86.71C1000.11,-82.32 1188.24,-70.25 1344.88,-39.5 1347.79,-38.93 1350.76,-38.28 1353.74,-37.57"/>
<polygon fill="#63b8ff" stroke="#63b8ff" points="905.1,-83.21 895.27,-87.15 905.41,-90.2 905.1,-83.21"/>
</a>
</g>
</g>
<!-- Node13 -->
<g id="Node000013" class="node">
<title>Node13</title>
<g id="a_Node000013"><a xlink:href="wavelength__settings__widget_8cpp.html" target="_top" xlink:title=" ">
<polygon fill="white" stroke="#666666" points="1597.88,-39.5 1479.88,-39.5 1479.88,0 1597.88,0 1597.88,-39.5"/>
<text text-anchor="start" x="1487.88" y="-26" font-family="Helvetica,sans-Serif" font-size="10.00">src/ui/settings/tabs</text>
<text text-anchor="start" x="1487.88" y="-15.5" font-family="Helvetica,sans-Serif" font-size="10.00">/wavelength/wavelength</text>
<text text-anchor="middle" x="1538.88" y="-5" font-family="Helvetica,sans-Serif" font-size="10.00">_settings_widget.cpp</text>
</a>
</g>
</g>
<!-- Node1&#45;&gt;Node13 -->
<g id="edge12_Node000001_Node000013" class="edge">
<title>Node1&#45;&gt;Node13</title>
<g id="a_edge12_Node000001_Node000013"><a xlink:title=" ">
<path fill="none" stroke="#63b8ff" d="M905.33,-88.02C1018.19,-85.36 1265.73,-75.54 1470.88,-39.5 1473.77,-38.99 1476.72,-38.41 1479.69,-37.78"/>
<polygon fill="#63b8ff" stroke="#63b8ff" points="905.29,-84.52 895.37,-88.24 905.45,-91.51 905.29,-84.52"/>
</a>
</g>
</g>
<!-- Node14 -->
<g id="Node000014" class="node">
<title>Node14</title>
<g id="a_Node000014"><a xlink:href="settings__view_8cpp.html" target="_top" xlink:title=" ">
<polygon fill="white" stroke="#666666" points="1721.88,-34.25 1615.88,-34.25 1615.88,-5.25 1721.88,-5.25 1721.88,-34.25"/>
<text text-anchor="start" x="1623.88" y="-20.75" font-family="Helvetica,sans-Serif" font-size="10.00">src/ui/views/settings</text>
<text text-anchor="middle" x="1668.88" y="-10.25" font-family="Helvetica,sans-Serif" font-size="10.00">_view.cpp</text>
</a>
</g>
</g>
<!-- Node1&#45;&gt;Node14 -->
<g id="edge13_Node000001_Node000014" class="edge">
<title>Node1&#45;&gt;Node14</title>
<g id="a_edge13_Node000001_Node000014"><a xlink:title=" ">
<path fill="none" stroke="#63b8ff" d="M905.19,-89.75C1035.5,-90.31 1349.17,-86.19 1606.88,-39.5 1613.62,-38.28 1620.68,-36.57 1627.51,-34.68"/>
<polygon fill="#63b8ff" stroke="#63b8ff" points="905.43,-86.25 895.41,-89.7 905.39,-93.25 905.43,-86.25"/>
</a>
</g>
</g>
</g>
</svg>

<g id="navigator" transform="translate(0 0)" fill="#404254">
  <rect fill="#f2f5e9" fill-opacity="0.5" stroke="#606060" stroke-width=".5" x="0" y="0" width="60" height="60"/>
  <use id="zoomplus" xlink:href="#zoomPlus" x="17" y="9" onmousedown="handleZoom(evt,'in')"/>
  <use id="zoomminus" xlink:href="#zoomMin" x="42" y="9" onmousedown="handleZoom(evt,'out')"/>
  <use id="reset" xlink:href="#resetDef" x="30" y="36" onmousedown="handleReset()"/>
   <use id="arrowup" xlink:href="#arrowUp" x="0" y="0" onmousedown="handlePan(0,-1)"/>
  <use id="arrowright" xlink:href="#arrowRight" x="0" y="0" onmousedown="handlePan(1,0)"/>
  <use id="arrowdown" xlink:href="#arrowDown" x="0" y="0" onmousedown="handlePan(0,1)"/>
  <use id="arrowleft" xlink:href="#arrowLeft" x="0" y="0" onmousedown="handlePan(-1,0)"/>
</g>
<svg viewBox="0 0 15 15" width="100%" height="30px" preserveAspectRatio="xMaxYMin meet">
 <g id="arrow_out" transform="scale(0.3 0.3)">
  <a xlink:href="wavelength__config_8h__dep__incl_org.svg" target="_base">
   <rect id="button" ry="5" rx="5" y="6" x="6" height="38" width="38"
        fill="#f2f5e9" fill-opacity="0.5" stroke="#606060" stroke-width="1.0"/>
   <path id="arrow"
     d="M 11.500037,31.436501 C 11.940474,20.09759 22.043105,11.32322 32.158766,21.979434 L 37.068811,17.246167 C 37.068811,17.246167 37.088388,32 37.088388,32 L 22.160133,31.978069 C 22.160133,31.978069 26.997745,27.140456 26.997745,27.140456 C 18.528582,18.264221 13.291696,25.230495 11.500037,31.436501 z"
     style="fill:#404040;"/>
  </a>
 </g>
</svg>

<style type='text/css'>
<![CDATA[
[data-mouse-over-selected='false'] { opacity: 0.7; }
[data-mouse-over-selected='true']  { opacity: 1.0; }
]]>
</style>
<script type="application/ecmascript"><![CDATA[
document.addEventListener('DOMContentLoaded', (event) => {
  highlightEdges();
  highlightAdjacentNodes();
});
]]></script>
</svg>
