<?xml version="1.0" encoding="UTF-8" standalone="no"?>
<!DOCTYPE svg PUBLIC "-//W3C//DTD SVG 1.1//EN"
 "http://www.w3.org/Graphics/SVG/1.1/DTD/svg11.dtd">
<!-- Generated by graphviz version 12.2.1 (0)
 -->
<!-- Title: src/services/wavelength_event_broker.h Pages: 1 -->
<svg width="129pt" height="92pt"
 viewBox="0.00 0.00 129.00 91.50" xmlns="http://www.w3.org/2000/svg" xmlns:xlink="http://www.w3.org/1999/xlink">
<g id="graph0" class="graph" transform="scale(1 1) rotate(0) translate(4 87.5)">
<title>src/services/wavelength_event_broker.h</title>
<!-- Node1 -->
<g id="Node000001" class="node">
<title>Node1</title>
<g id="a_Node000001"><a xlink:title=" ">
<polygon fill="#999999" stroke="#666666" points="121,-83.5 0,-83.5 0,-54.5 121,-54.5 121,-83.5"/>
<text text-anchor="start" x="8" y="-70" font-family="Helvetica,sans-Serif" font-size="10.00">src/services/wavelength</text>
<text text-anchor="middle" x="60.5" y="-59.5" font-family="Helvetica,sans-Serif" font-size="10.00">_event_broker.h</text>
</a>
</g>
</g>
<!-- Node2 -->
<g id="Node000002" class="node">
<title>Node2</title>
<g id="a_Node000002"><a xlink:title=" ">
<polygon fill="#e0e0e0" stroke="#999999" points="49.62,-18.5 7.38,-18.5 7.38,0 49.62,0 49.62,-18.5"/>
<text text-anchor="middle" x="28.5" y="-5" font-family="Helvetica,sans-Serif" font-size="10.00">QMap</text>
</a>
</g>
</g>
<!-- Node1&#45;&gt;Node2 -->
<g id="edge1_Node000001_Node000002" class="edge">
<title>Node1&#45;&gt;Node2</title>
<g id="a_edge1_Node000001_Node000002"><a xlink:title=" ">
<path fill="none" stroke="#63b8ff" d="M52.75,-54.02C48.58,-46.49 43.38,-37.11 38.87,-28.96"/>
<polygon fill="#63b8ff" stroke="#63b8ff" points="41.94,-27.28 34.03,-20.23 35.81,-30.67 41.94,-27.28"/>
</a>
</g>
</g>
<!-- Node3 -->
<g id="Node000003" class="node">
<title>Node3</title>
<g id="a_Node000003"><a xlink:title=" ">
<polygon fill="#e0e0e0" stroke="#999999" points="119.5,-18.5 67.5,-18.5 67.5,0 119.5,0 119.5,-18.5"/>
<text text-anchor="middle" x="93.5" y="-5" font-family="Helvetica,sans-Serif" font-size="10.00">QObject</text>
</a>
</g>
</g>
<!-- Node1&#45;&gt;Node3 -->
<g id="edge2_Node000001_Node000003" class="edge">
<title>Node1&#45;&gt;Node3</title>
<g id="a_edge2_Node000001_Node000003"><a xlink:title=" ">
<path fill="none" stroke="#63b8ff" d="M68.49,-54.02C72.84,-46.41 78.28,-36.89 82.97,-28.68"/>
<polygon fill="#63b8ff" stroke="#63b8ff" points="85.88,-30.64 87.8,-20.22 79.8,-27.16 85.88,-30.64"/>
</a>
</g>
</g>
</g>
</svg>
